<?xml version="1.0"?>
<svg xmlns="http://www.w3.org/2000/svg" version="1.2" baseProfile="tiny" width="800" height="1260" viewBox="0 0 800 1260" stroke-linecap="round" stroke-linejoin="round">
<g id="cb_2018_us_county_5m">
<path d="M 101.3613 1137.6208 103.0699 1134.1366 97.4998 1119.6065 98.4827 1114.6702 99.7493 1112.3459 105.6773 1108.9773 106.5221 1104.4435 116.1605 1100.4465 113.9777 1094.548 108.0326 1091.2105 106.7238 1087.698 114.1556 1076.3252 114.6634 1074.7237 121.0081 1072.0242 116.734 1065.0515 111.8738 1063.4211 113.8625 1057.6626 112.068 1052.8062 115.3244 1049.1874 113.8016 1047.2586 117.499 1042.3588 115.8504 1037.1653 112.5779 1037.0855 109.713 1031.4043 116.4695 1023.0269 117.9886 1016.3278 112.1062 1015.9971 110.6636 1012.1888 117.7606 1012.1699 116.6536 1004.3059 124.0481 1005.8466 125.7418 1002.7611 129.4994 1001.4353 131.8249 1003.1277 133.9801 998.479 136.1624 1001.4256 138.7439 1000.466 135.3946 995.7735 136.2098 993.3404 141.6262 994.5342 139.6887 992.3394 141.3981 990.2743 138.6919 986.8972 142.1916 987.1749 143.4396 982.9217 145.7149 982.0705 149.4501 984.4201 153.0534 982.8814 153.0129 981.0009 147.8564 974.7275 148.9964 971.4845 150.8434 975.7797 156.2254 978.1975 157.6771 977.257 169.1114 976.0998 177.5367 986.7127 187.4306 991.7977 191.1048 991.4235 190.8384 1044.8872 190.7556 1056.3542 194.4966 1056.3647 194.4721 1056.365 194.4141 1056.8202 194.9517 1058.9556 195.6932 1060.183 195.8502 1060.9248 195.5103 1061.5972 195.5201 1061.9223 195.7541 1062.809 196.2277 1063.7456 196.6089 1065.049 195.9395 1068.4526 194.8314 1071.1672 194.5095 1071.7792 193.9672 1072.227 193.5128 1072.9587 192.3394 1075.5216 192.2331 1076.2014 191.7865 1077.5834 191.4113 1078.1291 190.8677 1079.703 190.6926 1080.8339 190.448 1081.5608 189.3831 1082.2159 189.0448 1082.587 188.9665 1083.5923 189.3199 1084.582 189.3457 1085.2205 189.0544 1085.7664 188.5257 1085.9496 187.3771 1087.1448 187.2524 1087.7818 186.1137 1090.8738 187.6132 1092.3971 188.0628 1093.1894 188.249 1093.9191 187.9924 1094.5675 187.7988 1095.5958 188.0777 1095.9833 188.5136 1096.1917 190.0509 1097.6111 190.4769 1098.487 190.3473 1099.1004 191.4586 1099.65 192.6313 1100.0074 193.1244 1100.7151 193.5561 1101.6335 193.8063 1102.8208 195.1969 1103.7879 196.6444 1104.3097 197.9944 1105.0112 199.1204 1106.1328 200.1923 1108.1451 201.0711 1108.5305 201.9539 1109.2833 202.8822 1110.3371 203.011 1110.8138 204.0546 1111.6936 204.4795 1111.7448 204.6823 1111.9267 206.2521 1113.9307 206.1723 1115.1283 205.9891 1115.6749 206.8625 1116.8672 208.0233 1118.1816 208.1472 1118.4838 208.3877 1120.2252 208.3911 1121.5349 209.004 1123.1904 211.0277 1124.5649 213.705 1125.8354 215.1796 1127.7421 215.8131 1128.9866 216.896 1129.3788 217.0643 1129.3194 219.2616 1129.8197 220.5716 1130.3509 220.887 1130.7622 220.9381 1131.3102 222.0927 1132.9665 223.0021 1133.3148 223.6026 1134.2636 223.913 1134.4882 226.0307 1135.361 227.2868 1134.7781 227.7471 1135.0154 229.0479 1136.1546 229.3391 1136.662 229.8934 1137.2431 230.7483 1137.7237 232.0251 1137.7368 233.2587 1139.1284 234.4649 1140.0261 235.997 1140.5404 237.3001 1141.3066 237.3884 1141.6082 237.2595 1142.1915 237.534 1143.5538 238.6899 1146.047 238.8099 1146.0295 239.4653 1146.7859 239.7056 1147.8109 239.4747 1148.4237 239.7506 1149.5149 240.266 1152.9559 240.2187 1153.9734 240.0571 1154.4488 239.7878 1154.9255 239.6061 1156.4057 239.6051 1156.6225 239.9153 1156.8891 239.9206 1157.0518 239.3959 1158.7706 238.9481 1159.5871 238.5149 1159.9037 237.74 1160.1644 237.2918 1161.071 236.7775 1165.3311 235.8641 1168.0775 235.4568 1168.0151 235.0598 1168.2778 234.5829 1168.907 234.5462 1169.0334 234.8977 1169.4446 234.9613 1169.8907 234.5055 1171.0623 233.9883 1171.3665 233.6523 1171.4249 233.5638 1171.1775 233.4377 1171.1647 232.8306 1171.5165 232.4029 1173.0677 231.594 1174.0865 230.7957 1174.2565 230.6871 1174.3764 228.1331 1180.1602 228.1596 1181.9364 228.4879 1183.347 228.4326 1183.5997 228.1338 1183.706 227.9499 1183.9518 227.8411 1184.1393 227.8572 1184.5216 228.5295 1185.304 228.8669 1185.493 229.6662 1185.5324 229.9862 1185.8734 231.5791 1188.3941 231.7086 1189.6291 231.1565 1191.2544 230.5616 1192.4069 230.7635 1192.7495 231.4637 1193.1475 231.6888 1193.4377 231.9072 1195.015 232.9199 1196.3337 235.2655 1198.5267 236.8052 1198.7713 237.5257 1199.6943 238.6108 1200.1988 239.2901 1200.3075 240.402 1200.0506 242.8475 1200.4571 245.2019 1201.3179 245.6724 1201.9071 246.0619 1202.9991 246.1361 1204.006 245.7695 1204.8555 245.091 1205.6184 242.6095 1207.6004 242.0934 1207.9305 241.6318 1208.2258 239.5201 1208.9766 238.8142 1209.6293 238.1291 1210.5976 237.7421 1210.9108 236.5163 1211.272 235.5417 1211.2143 234.1831 1210.8917 233.3895 1210.9136 232.5948 1211.1457 231.8203 1211.8506 231.5679 1212.284 231.317 1212.7146 230.7424 1214.2084 230.06 1214.6248 229.283 1215.7762 229.1656 1216.5373 229.231 1217.0367 229.7235 1218.2477 229.7217 1218.5892 229.0025 1219.7653 227.3489 1221.3069 226.8227 1222.1444 226.7062 1222.7216 226.6769 1223.9559 226.8878 1227.6438 226.5862 1228.2102 224.8283 1230.2485 224.1444 1230.8486 223.7125 1231.03 219.9872 1232.775 217.8527 1233.6382 216.5921 1235.0073 217.3343 1236.639 218.9587 1237.4001 223.849 1236.6781 223.2089 1239.1782 213.547 1241.7658 211.4974 1243.9294 211.5047 1244.8398 205.5475 1246.0555 202.4663 1246.3559 197.176 1247.6801 179.9932 1252.6884 162.1179 1254.9162 147.3259 1257.7586 138.7132 1258.2518 118.814 1257.2194 110.6061 1257.3576 102.025 1258.2553 98.7056 1259.1084 95.5617 1259.3976 95.3682 1258.9799 96.5884 1256.9775 109.5787 1255.7456 113.6896 1250.2875 116.6393 1249.0298 120.6586 1251.2144 121.6634 1252.6615 124.6683 1254.3479 126.311 1254.9667 129.4562 1255.1676 133.8333 1254.7638 143.4797 1251.1766 147.0315 1251.5342 150.2893 1251.2509 155.1028 1249.1635 157.7141 1245.2625 157.686 1241.6048 153.8168 1236.191 148.4077 1232.8605 145.5796 1230.6012 140.9513 1225.0145 140.6184 1224.181 139.3179 1220.9239 137.5468 1218.7739 135.5824 1218.4833 133.052 1217.1539 123.7457 1210.2511 123.1763 1208.9688 122.0706 1200.577 120.7962 1194.128 119.863 1192.6855 118.1335 1191.3544 117.8202 1189.7075 122.9473 1179.6483 124.2891 1176.5834 125.0356 1173.5377 125.1441 1173.0946 124.6254 1169.121 123.8005 1167.2399 123.0072 1166.4052 122.2337 1163.867 122.8573 1156.0176 121.3664 1150.6786 118.7574 1146.2818 117.4926 1145.0241 113.139 1144.603 107.4831 1140.2795 105.326 1139.3429 101.3613 1137.6208 Z" id="fips-01003"/>
<path d="M 80.183 144.25 84.1153 113.1623 192.7353 117.5328 200.7796 117.8316 216.1644 118.2402 215.6851 187.2106 192.89 186.4212 172.0174 185.4175 133.3771 184.4464 75.9356 181.556 77.8167 165.8451 77.884 165.2741 80.183 144.25 Z" id="fips-01059"/>
<path d="M 510.8718 1005.3374 526.1602 1005.0966 528.1452 1007.8831 528.1268 1005.0146 541.2113 1004.6408 601.2694 1003.5243 619.4992 1003.6453 647.513 1003.4075 669.9722 1001.8133 670.2359 1017.1775 670.0529 1055.1091 667.8691 1055.1766 667.7822 1055.1793 649.5109 1055.5434 611.1629 1056.262 611.0936 1056.3823 578.7411 1057.0548 555.062 1057.4125 546.8788 1057.3584 546.8606 1057.3583 542.9348 1057.4074 542.09 1057.4436 528.4121 1057.5983 518.0534 1057.4661 516.6804 1057.4686 515.2776 1057.4533 514.1443 1057.406 512.5807 1057.4044 511.8663 1055.0366 510.8718 1005.3374 Z" id="fips-01061"/>
<path d="M 122.9464 287.5221 142.2579 287.8262 172.9582 289.3404 191.8291 289.3699 191.7179 300.7374 214.5037 302.0481 214.9094 348.1982 237.7595 349.1067 237.6622 371.9786 192.1345 369.6508 192.0998 377.3167 184.4284 377.4849 184.3009 392.7669 179.7188 392.8833 168.9586 393.1943 146.1751 391.6055 122.9827 391.579 123.2805 360.7646 122.9464 287.5221 Z" id="fips-01057"/>
<path d="M 627.7528 398.755 691.5226 398.8512 692.5471 396.4865 696.2426 399.1586 702.0978 401.2121 704.6219 415.585 718.4144 493.8607 719.4095 499.4913 640.002 500.7571 626.6899 501.096 626.7937 448.6428 628.778 448.6717 628.7901 443.9467 626.8604 443.8951 627.7528 398.755 Z" id="fips-01111"/>
<path d="M 548.4499 506.1481 556.0712 506.0219 556.0049 502.1372 594.103 502.0534 604.6831 501.6888 626.6899 501.096 640.002 500.7571 640.6014 555.9779 641.1886 600.3321 637.4664 600.5285 637.452 604.2145 622.0648 604.7564 622.1511 608.5938 618.3702 608.7667 618.8577 635.4445 615.9069 635.5176 615.1771 639.1907 596.1477 639.582 596.286 645.4274 596.6885 662.4098 576.9623 662.9073 576.0048 661.0542 576.478 645.8421 574.8125 630.9385 575.7158 626.085 576.243 622.282 570.8689 614.3826 571.7581 608.7325 575.4453 604.0457 577.7331 594.1604 574.3049 594.1774 561.1536 594.2275 560.9669 590.4692 557.1647 590.4747 557.3291 594.2314 549.5858 594.2796 549.4402 579.2389 548.0581 577.1677 549.351 575.1459 548.9537 545.6859 548.8254 530.4522 548.4499 506.1481 Z" id="fips-01123"/>
<path d="M 217.8632 837.9031 275.1259 837.5205 281.9274 838.4119 350.538 837.9926 350.7497 858.3878 344.4896 860.1908 341.1719 863.1513 334.2001 865.4312 332.09 867.4304 324.3007 868.9962 318.2747 867.4657 316.0641 871.0075 317.1654 878.2292 312.156 881.1198 309.2342 884.8139 299.4485 887.3769 298.903 894.7271 297.1536 901.8917 294.0476 907.4095 292.0504 915.6402 292.2967 919.6464 285.2366 930.5189 283.2198 935.7713 279.1209 936.5948 278.0252 936.9821 268.7673 946.7289 263.0049 950.6261 254.9954 962.6869 251.7677 964.1509 248.757 972.5136 241.2246 976.9155 234.9759 983.3299 233.4756 987.5089 219.5994 987.5098 211.9839 990.6591 203.7963 996.0241 191.1048 991.4235 187.4306 991.7977 177.5367 986.7127 169.1114 976.0998 157.6771 977.257 153.5312 972.4613 153.4298 968.9232 157.1439 964.9735 158.3531 959.6717 160.2014 960.201 160.3702 965.9234 161.9664 967.855 167.2959 965.1771 166.6682 957.2559 171.166 950.1401 175.7818 948.4429 180.2901 944.3757 186.1078 943.9991 189.8821 947.7147 194.27 948.057 200.1727 942.1747 203.2886 933.628 203.4395 930.215 194.0029 924.2417 190.3587 920.3821 195.3541 917.0817 202.9822 910.2666 202.9121 872.5376 214.2548 872.426 213.9456 841.7858 217.8339 841.907 217.8632 837.9031 Z" id="fips-01099"/>
<path d="M 361.5572 803.421 452.859 802.6096 453.3249 833.6775 455.172 834.6139 453.3855 837.5591 453.6075 871.8706 453.0566 883.8326 441.6676 883.9696 441.8467 918.115 396.5063 918.583 365.6199 918.2737 359.5897 912.5496 359.735 910.7637 357.7408 904.3983 354.7097 900.6614 353.402 894.3179 350.5368 890.024 350.7497 858.3878 350.538 837.9926 350.1032 803.5465 361.5572 803.421 Z" id="fips-01013"/>
<path d="M 297.6689 269.4258 306.1781 269.6697 306.5311 222.3201 306.7309 207.6538 306.8423 189.013 306.8089 185.2026 310.7447 185.6071 365.7495 186.7538 370.9771 186.8613 421.4981 187.598 428.538 187.8294 444.1729 188.0396 448.1118 191.6022 449.5382 199.4363 442.3843 199.2334 439.4144 202.191 435.2245 201.3231 434.2761 207.8913 430.8071 208.2516 427.2603 217.9527 429.5634 218.4349 425.5224 222.8549 424.6563 222.9287 418.8287 232.0837 417.4424 236.3969 412.4394 235.5745 406.0658 239.5257 405.3393 243.6208 404.9169 244.0549 404.5919 244.2184 403.7071 244.8354 403.199 245.2563 402.9552 245.5253 402.7008 245.7133 402.4745 245.6759 402.3804 245.5097 402.4262 245.159 402.3149 244.7763 402.1799 244.6035 401.9047 244.4765 401.7541 244.5285 401.6024 244.6675 401.2651 245.2823 400.8904 245.5444 400.0576 245.8261 399.6689 246.0716 399.1565 246.7289 398.8662 246.8053 398.7075 246.6951 398.6216 246.4992 398.6092 245.6243 398.4004 245.0422 398.4055 244.8406 398.6283 244.3005 398.6484 243.89 398.6055 243.5936 398.4571 243.3822 398.2728 243.4227 397.8449 243.3511 397.577 243.4337 397.4331 243.8591 397.1529 244.48 396.9538 244.8191 396.3517 245.3592 395.4048 245.9665 395.0186 246.3039 394.9515 246.4567 394.9549 246.5868 395.0643 246.7714 395.497 247.1501 395.8239 247.3491 396.2187 247.9875 396.6302 248.7273 397.0257 249.2318 397.4155 249.8005 397.5225 250.0096 397.7461 250.6053 398.0004 250.9537 399.1382 252.1739 395.7434 251.8073 395.6389 257.3055 391.478 259.3084 387.9736 264.5754 387.1726 267.6301 382.8817 268.804 382.03 274.5202 375.9972 277.3175 375.925 280.2456 369.7969 278.905 369.5366 283.109 366.2869 280.7206 359.3172 285.4122 357.1981 284.4828 355.422 289.4415 347.051 291.5944 347.9579 300.9962 338.5329 304.9909 331.8476 304.2699 329.0392 302.8866 329.0018 296.9077 310.5062 296.5653 308.5533 294.3883 312.6634 292.284 311.8885 288.9277 307.7567 284.699 306.0715 278.3158 301.3436 276.8299 297.6689 269.4258 Z" id="fips-01043"/>
<path d="M 338.5329 304.9909 347.9579 300.9962 347.051 291.5944 355.422 289.4415 357.1981 284.4828 359.3172 285.4122 366.2869 280.7206 369.5366 283.109 369.7969 278.905 375.925 280.2456 375.9972 277.3175 382.03 274.5202 382.8817 268.804 387.1726 267.6301 387.9736 264.5754 391.478 259.3084 395.6389 257.3055 395.7434 251.8073 399.1382 252.1739 398.0004 250.9537 397.7461 250.6053 397.5225 250.0096 397.4155 249.8005 397.0257 249.2318 396.6302 248.7273 396.2187 247.9875 395.8239 247.3491 395.497 247.1501 395.0643 246.7714 394.9549 246.5868 394.9515 246.4567 395.0186 246.3039 395.4048 245.9665 396.3517 245.3592 396.9538 244.8191 397.1529 244.48 397.4331 243.8591 397.577 243.4337 397.8449 243.3511 398.2728 243.4227 398.4571 243.3822 398.6055 243.5936 398.6484 243.89 398.6283 244.3005 398.4055 244.8406 398.4004 245.0422 398.6092 245.6243 398.6216 246.4992 398.7075 246.6951 398.8662 246.8053 399.1565 246.7289 399.6689 246.0716 400.0576 245.8261 400.8904 245.5444 401.2651 245.2823 401.6024 244.6675 401.7541 244.5285 401.9047 244.4765 402.1799 244.6035 402.3149 244.7763 402.4262 245.159 402.3804 245.5097 402.4745 245.6759 402.7008 245.7133 402.9552 245.5253 403.199 245.2563 403.7071 244.8354 404.5919 244.2184 404.9169 244.0549 405.3393 243.6208 406.0658 239.5257 412.4394 235.5745 417.4424 236.3969 418.8287 232.0837 424.6563 222.9287 425.5224 222.8549 429.5634 218.4349 427.2603 217.9527 430.8071 208.2516 434.2761 207.8913 435.2245 201.3231 439.4144 202.191 442.3843 199.2334 449.5382 199.4363 451.4692 199.4822 454.419 206.6252 457.4261 211.0819 459.1595 213.6726 464.0376 219.626 465.8734 221.8461 480.0171 238.0732 482.2432 241.4052 478.1114 248.4653 476.0341 256.8301 476.0337 271.125 474.611 274.9756 467.9316 283.3417 477.6425 283.1972 478.41 285.2225 472.4768 291.9386 473.9882 297.3227 466.4152 303.8661 460.234 310.6763 453.3208 314.8869 451.663 313.3172 444.0264 316.1901 436.998 317.3583 434.9786 319.702 422.7988 319.7158 422.7644 329.3518 420.5102 329.3445 407.4739 329.2327 408.0111 327.3613 383.1172 309.6254 376.7353 309.5197 355.867 308.9424 344.3778 316.2753 340.6371 316.2752 340.5054 308.5043 338.5329 304.9909 Z" id="fips-01009"/>
<path d="M 308.1558 87.3969 319.4226 96.7853 323.2162 96.3608 329.4243 101.0818 332.5638 102.8773 335.1104 105.1752 336.726 106.5488 350.91 115.3773 361.1014 118.7086 366.1279 121.5839 376.2699 122.9988 384.2621 121.7107 391.0554 114.5999 395.2813 112.9407 400.8323 115.878 403.3156 122.6271 409.5809 121.7996 414.3364 116.0017 417.7274 114.7119 424.3383 116.4275 427.4706 120.06 428.2135 124.1821 427.5818 124.9204 423.2792 157.2568 423.2168 157.7778 421.5868 170.1491 421.5454 180.5064 421.4981 187.598 370.9771 186.8613 365.7495 186.7538 310.7447 185.6071 306.8089 185.2026 307.04 158.3958 307.8329 116.7306 307.9523 108.5242 308.1558 87.3969 Z" id="fips-01103"/>
<path d="M 57.5116 332.7336 58.6906 323.1023 58.9846 319.4243 59.6877 315.4383 60.813 305.905 62.3342 294.1596 62.9995 289.0195 62.9999 288.9896 63.0236 288.6718 66.2359 263.0675 66.8527 258.1463 67.7196 250.5 115.6688 252.7052 115.4741 260.3775 123.2056 260.644 122.9464 287.5221 123.2805 360.7646 122.9827 391.579 51.1322 388.1057 52.2663 378.4441 52.3872 377.9003 52.5017 376.8411 52.7315 374.712 52.9782 372.8885 53.0176 372.3002 54.2612 361.484 55.6669 349.249 55.7162 349.0375 56.0926 345.6462 56.1421 344.8585 56.695 339.4011 57.5116 332.7336 Z" id="fips-01075"/>
<path d="M 582.0657 398.4766 581.9672 400.3434 578.2657 400.3961 578.1389 404.2923 574.2753 404.3246 574.2696 406.2544 597.3022 406.0557 597.274 402.2997 601.0138 402.3043 601.0173 398.3307 627.7528 398.755 626.8604 443.8951 628.7901 443.9467 628.778 448.6717 626.7937 448.6428 626.6899 501.096 604.6831 501.6888 594.103 502.0534 556.0049 502.1372 556.0712 506.0219 548.4499 506.1481 548.3883 502.3677 512.0446 502.6908 512.2301 478.6919 523.7283 478.9239 524.0637 452.1581 527.8786 452.1953 547.4983 452.5127 554.3671 452.4909 555.0033 429.4366 562.7434 429.4038 562.7957 425.6429 566.5508 425.5706 566.6224 410.226 570.4552 410.1572 570.4449 398.6054 582.0657 398.4766 Z" id="fips-01027"/>
<path d="M 94.2433 31.7028 106.58 28.0596 118.2155 33.4078 125.5642 38.499 129.539 46.0964 132.2821 55.171 144.8995 66.1951 150.3454 71.9597 156.5578 74.4284 165.125 73.8405 172.6391 70.989 178.1203 63.8797 181.0172 62.9287 185.0895 61.5116 186.0265 61.4147 186.3404 61.4447 189.7209 60.0445 192.0185 58.7536 196.0611 57.9444 198.4426 57.1765 200.4119 55.9213 204.7302 51.9255 217.7843 48.5463 227.3308 53.7964 238.8484 57.174 237.1064 64.1022 240.9639 65.7181 238.4854 69.8128 237.3073 78.8499 238.7575 81 233.6251 84.2627 233.3455 88.0495 234.9839 93.6533 231.4776 98.0322 226.2607 97.0042 227.7199 99.7313 223.3557 102.8078 222.0708 107.1373 219.4966 110.0521 221.0304 113.1712 218.5873 115.5229 218.7284 118.4803 216.1644 118.2402 200.7796 117.8316 192.7353 117.5328 84.1153 113.1623 84.2964 111.5638 84.4153 111.1921 85.4918 102.4171 88.1871 83.3509 89.2593 75.7586 89.7622 69.9814 91.8912 52.8436 94.2433 31.7028 Z" id="fips-01033"/>
<path d="M 1 818.5794 2.1136 809.0259 2.1739 808.2616 5.6288 780.3045 5.65 780.0795 6.0422 776.8062 8.6785 754.7873 9.7809 745.5706 9.7971 745.3795 11.6462 730.9875 12.4039 725.0866 14.147 709.7231 123.1682 710.5967 122.8799 714.0923 123.3336 715.3457 122.4504 718.0049 119.9873 717.8251 121.7902 712.9249 119.2204 712.2604 114.8636 713.7501 113.1631 711.2085 109.632 714.6494 106.7773 714.0849 106.7505 717.4908 103.4397 717.0461 103.184 720.5846 105.526 723.2565 104.2053 730.2779 105.8342 734.4024 104.6667 739.2511 105.8366 743.3422 102.5414 753.9166 99.3275 753.8649 95.5524 765.1892 97.1624 770.3374 91.3334 775.6744 88.2079 773.2395 85.7286 773.4671 80.6697 778.3274 81.7404 780.9567 80.7662 787.3478 81.5913 790.139 85.6772 793.6476 86.3834 789.983 90.479 794.4652 90.9928 802.7615 88.7153 803.9802 85.2342 801.0185 79.6724 804.8329 80.5762 807.7283 83.9055 807.5815 87.0189 812.3663 91.6074 808.4835 94.349 812.0446 89.4844 812.4256 86.8607 815.297 77.7425 816.723 75.6787 824.4153 73.9619 828.5001 71.1236 830.16 70.2841 833.4901 66.0094 839.7743 69.3749 847.1038 70.7973 853.1235 74.3205 856.7543 78.9495 854.6333 82.7724 854.6729 85.2798 860.8204 86.3039 870.8792 2.1958 870.0965 2.139 863.6921 1.6112 845.7008 1.304 829.8636 1.2816 829.7487 1.0567 823.497 1 818.5794 Z" id="fips-01023"/>
<path d="M 22.4114 639.0063 23.8845 626.2619 23.8975 626.1898 26.3542 603.9119 27.5928 594.5095 31.1785 561.0467 32.8025 546.8865 34.6709 530.5808 71.8459 529.8512 72.7572 536.5164 74.9401 538.1128 73.1583 540.7883 69.0423 538.5989 69.3616 543.01 71.5717 543.7731 70.8675 546.6034 66.2533 545.6095 63.7869 548.4354 67.6139 552.1784 69.6434 562.472 75.0989 567.4831 69.5572 573.3738 76.7069 574.8663 79.9554 572.8062 85.8713 581.9321 91.6836 580.4032 94.8957 583.6739 91.5523 588.6936 86.348 586.9292 84.8514 589.1295 86.5658 597.4912 90.8279 602.7556 90.0202 605.4735 83.2536 607.5003 85.1456 610.6294 91.5248 612.0772 97.481 608.7308 99.7938 611.2084 95.9737 614.6573 96.55 621.9993 91.2102 624.0124 91.1225 628.9818 95.8753 635.936 106.4025 634.1404 113.7114 631.575 120.3325 627.4265 124.4662 626.0346 128.18 628.0493 129.6984 630.7429 135.8288 628.8297 140.0578 629.21 143.8353 633.1972 139.5235 637.0668 139.1418 632.963 134.6038 632.0674 131.1944 634.5777 131.0764 636.6074 136.193 642.0464 136.3894 649.2879 140.877 652.5384 143.5009 654.2755 142.8027 656.2117 140.9989 656.978 130.2516 654.7781 127.4899 656.0604 120.4578 663.0701 118.3939 667.854 113.7151 671.8565 109.3818 672.419 101.1001 678.0145 98.6577 684.1227 97.6694 692.8354 103.6121 694.644 109.2324 700.813 114.3135 701.6256 118.5019 705.7267 120.6661 709.4996 123.1682 710.5967 14.147 709.7231 16.094 692.5995 16.4102 690.9997 17.0178 685.9486 18.611 672.6958 18.6115 672.6655 19.5943 663.3494 19.5954 663.3389 22.4114 639.0063 Z" id="fips-01119"/>
<path d="M 192.89 186.4212 215.6851 187.2106 222.5393 187.2947 306.8423 189.013 306.7309 207.6538 306.5311 222.3201 306.1781 269.6697 297.6689 269.4258 293.7838 266.2921 289.2051 266.8821 286.9826 271.585 283.3502 269.2005 272.5478 268.9886 221.6136 268.1856 191.9652 266.5173 192.0767 248.6616 192.4902 222.1854 192.7901 209.2397 192.89 186.4212 Z" id="fips-01133"/>
<path d="M 216.1644 118.2402 218.7284 118.4803 218.5873 115.5229 221.0304 113.1712 219.4966 110.0521 222.0708 107.1373 223.3557 102.8078 227.7199 99.7313 226.2607 97.0042 231.4776 98.0322 234.9839 93.6533 233.3455 88.0495 233.6251 84.2627 238.7575 81 237.3073 78.8499 238.4854 69.8128 240.9639 65.7181 237.1064 64.1022 238.8484 57.174 250.9996 55.9319 256.6058 58.192 266.5502 70.2381 274.5998 68.2183 282.7903 67.0406 293.8266 72.428 300.8822 77.3773 305.0544 84.4409 308.1558 87.3969 307.9523 108.5242 307.8329 116.7306 307.04 158.3958 306.8089 185.2026 306.8423 189.013 222.5393 187.2947 215.6851 187.2106 216.1644 118.2402 Z" id="fips-01079"/>
<path d="M 428.2135 124.1821 428.0159 125.3556 432.2374 135.9127 432.4487 136.1425 439.1352 140.8794 445.8759 142.6063 449.1074 140.4492 455.6226 141.5324 458.0913 137.693 463.18 136.0836 462.4013 131.3099 467.3208 132.5037 470.4612 129.9315 474.1604 133.4314 475.8862 132.7449 477.0984 128.414 479.9673 125.7373 480.9206 120.0935 476.1085 118.9339 475.5401 116.8296 481.6658 115.1292 481.6362 111.7094 476.4941 109.9562 476.471 109.8667 478.3521 109.8425 478.8342 109.8398 507.6225 109.773 515.0942 109.8232 515.0667 112.6427 515.3872 130.3597 519.9958 127.0717 526.1968 130.078 526.2372 132.4818 526.6272 138.7352 529.4349 145.0656 534.982 142.0235 523.6649 154.7694 521.86 161.0759 523.8283 168.6943 524.1574 179.4762 524.4735 192.8876 524.639 201.5385 525.025 214.4241 525.1559 218.2402 513.9805 218.0428 510.3518 219.061 506.8178 219.2321 482.2432 241.4052 480.0171 238.0732 465.8734 221.8461 464.0376 219.626 459.1595 213.6726 457.4261 211.0819 454.419 206.6252 451.4692 199.4822 449.5382 199.4363 448.1118 191.6022 444.1729 188.0396 428.538 187.8294 421.4981 187.598 421.5454 180.5064 421.5868 170.1491 423.2168 157.7778 423.2792 157.2568 427.5818 124.9204 428.2135 124.1821 Z" id="fips-01095"/>
<path d="M 482.2432 241.4052 506.8178 219.2321 510.3518 219.061 513.9805 218.0428 525.1559 218.2402 525.025 214.4241 582.0873 214.1534 582.8074 237.6188 584.5851 237.7993 589.1668 233.7729 593.7273 233.7281 592.475 240.2892 605.8346 269.3211 605.4928 274.7767 605.152 283.4957 589.8422 280.5574 582.1258 279.8552 574.4108 279.8532 570.5255 281.8068 570.6358 291.4257 563.0657 291.4922 562.9881 287.6554 555.4336 289.4012 555.4587 292.3447 555.4822 295.1043 551.7058 294.9249 551.5036 298.7359 549.8702 302.5098 544.1269 302.2394 544.2013 306.0763 538.6861 305.8285 538.1525 308.7246 534.6144 308.5931 536.9496 307.4722 532.8539 302.4069 527.7233 303.6048 525.0183 298.4098 524.1935 292.4239 517.6037 293.6793 516.1512 288.1237 512.614 286.5662 512.4099 281.8052 511.9428 276.4244 508.5533 274.6004 505.1402 270.228 498.3838 271.8795 493.7501 276.422 487.9397 270.285 485.3216 271.7065 477.6425 283.1972 467.9316 283.3417 474.611 274.9756 476.0337 271.125 476.0341 256.8301 478.1114 248.4653 482.2432 241.4052 Z" id="fips-01055"/>
<path d="M 477.6425 283.1972 485.3216 271.7065 487.9397 270.285 493.7501 276.422 498.3838 271.8795 505.1402 270.228 508.5533 274.6004 511.9428 276.4244 512.4099 281.8052 512.614 286.5662 516.1512 288.1237 517.6037 293.6793 524.1935 292.4239 525.0183 298.4098 527.7233 303.6048 532.8539 302.4069 536.9496 307.4722 534.6144 308.5931 537.671 313.3184 534.901 320.2673 539.3408 329.3595 535.3666 330.2205 531.2432 334.6985 523.6306 339.7911 522.0596 343.2223 517.7267 343.6861 517.3753 351.5837 515.2982 353.5603 511.8387 351.558 510.5519 347.0159 508.3602 346.2889 504.3601 348.9261 505.2986 352.2589 511.5294 356.6859 513.222 362.7738 512.2459 367.3519 505.4153 370.1583 509.0259 374.0693 508.0464 374.7622 502.7088 373.8869 501.0141 375.6526 503.7792 383.0118 507.2782 384.757 507.7709 387.2277 499.9015 393.3678 498.0242 400.2178 494.102 401.7352 491.3846 399.7766 491.9116 395.6294 488.0739 395.9356 481.5735 411.3418 478.8498 413.4719 476.0199 418.5881 473.8864 422.291 466.7238 427.5959 466.6899 398.3055 443.9548 398.3592 444.0003 386.917 436.2809 386.9887 436.2835 385.0217 428.5556 383.0349 428.6364 371.3542 430.5298 367.5683 430.5095 363.7488 432.4047 363.7494 432.4058 360.029 432.4681 359.9274 434.3704 359.9698 434.2988 358.0394 434.3228 340.9061 430.4703 337.1324 430.4223 329.3689 422.7644 329.3518 422.7988 319.7158 434.9786 319.702 436.998 317.3583 444.0264 316.1901 451.663 313.3172 453.3208 314.8869 460.234 310.6763 466.4152 303.8661 473.9882 297.3227 472.4768 291.9386 478.41 285.2225 477.6425 283.1972 Z" id="fips-01115"/>
<path d="M 396.5063 918.583 441.8467 918.115 460.631 917.9832 464.0898 917.56 464.4852 937.4811 465.125 937.6469 470.7919 931.576 472.0416 928.1424 477.5609 928.0677 479.6591 924.3697 482.1102 923.2822 486.731 917.0946 490.9282 917.0692 491.7272 936.227 495.5037 936.1765 495.1456 940.002 510.3811 940.2015 509.8623 944.0526 510.2714 963.1699 510.8718 1005.3374 511.8663 1055.0366 512.5807 1057.4044 501.0518 1057.3888 496.9712 1057.5476 489.5806 1057.6021 486.1218 1057.5592 472.5315 1057.5128 471.5484 1057.5114 470.3597 1057.5175 467.1976 1057.6079 467.1825 1057.6084 466.4411 1057.6139 463.5177 1057.6585 452.2981 1057.7703 451.4833 1057.7189 442.1029 1057.9243 439.1995 1057.839 437.599 1057.9635 427.796 1057.4719 426.8609 1057.5043 404.9824 1057.7026 401.8949 1057.7068 399.6687 1057.6948 396.9838 1056.1629 396.9047 1005.763 396.6672 971.0373 396.3666 965.5086 398.5953 964.9583 404.2596 959.1875 402.4119 954.0403 405.404 950.4093 402.5256 941.5418 396.6109 941.5284 396.5063 918.583 Z" id="fips-01039"/>
<path d="M 684.9409 971.3698 717.146 972.0512 721.9118 971.9396 727.1867 972.2348 738.4701 972.507 758.739 971.9242 758.584 975.507 753.0986 980.5185 756.8071 991.9638 756.6935 997.951 755.0488 1004.1017 758.3211 1010.3884 762.1159 1011.7443 767.6177 1021.4912 771.5468 1024.3935 773.6914 1031.5142 774.3961 1032.9356 777.2332 1038.6573 779.6718 1051.3615 779.4651 1052.5114 774.5691 1052.5963 773.8025 1052.6123 773.2181 1052.6268 772.9821 1052.6324 768.268 1052.7292 767.6568 1052.7395 767.0417 1052.7499 747.1542 1053.0483 745.7457 1053.0201 745.7159 1053.0348 745.2128 1053.0425 725.1266 1053.3417 670.0529 1055.1091 670.2359 1017.1775 669.9722 1001.8133 647.513 1003.4075 619.4992 1003.6453 622.5481 1001.1049 624.1624 992.8418 628.1475 989.2225 630.6055 983.6252 636.1359 982.3365 643.4122 983.0873 647.3504 985.1957 656.2382 987.7984 669.8019 989.671 669.7619 978.8963 673.6708 978.9278 683.0629 978.9378 685.1007 978.6605 684.9409 971.3698 Z" id="fips-01069"/>
<path d="M 285.612 5.1062 304.5851 5.6119 328.5892 6.2292 330.994 6.2436 336.5058 6.4108 336.8932 6.3858 337.4051 6.4032 338.0761 6.4424 360.6825 7.0995 362.2119 7.1046 363.3429 7.1083 364.0596 7.1251 366.2339 7.1503 366.2477 7.1503 369.6179 7.1498 377.5883 7.1044 377.5926 7.1044 377.5871 22.4773 377.5346 35.2881 377.3303 48.8098 377.2549 55.9981 377.2422 56.9573 377.0438 76.1821 377.0262 79.0206 376.9307 93.618 376.2699 122.9988 366.1279 121.5839 361.1014 118.7086 350.91 115.3773 336.726 106.5488 335.1104 105.1752 332.5638 102.8773 329.4243 101.0818 323.2162 96.3608 319.4226 96.7853 308.1558 87.3969 305.0544 84.4409 300.8822 77.3773 293.8266 72.428 282.7903 67.0406 274.5998 68.2183 270.8101 64.2788 272.3813 61.5881 275.7355 60.4126 284.5388 53.1793 285.612 5.1062 Z" id="fips-01083"/>
<path d="M 224.8169 712.1985 236.2231 712.1355 236.1592 666.1666 271.0934 666.0544 280.9941 665.3113 304.9951 664.985 307.6714 660.7256 310.0742 652.9292 311.8761 652.2336 312.9046 646.903 311.9929 643.4667 317.4054 639.7939 321.0222 635.9242 319.447 630.2467 320.4185 624.4193 322.9637 618.8903 322.7189 610.5186 326.1609 601.6685 326.1549 619.088 348.3004 618.8773 348.0262 624.1061 352.5565 644.2433 350.6806 652.231 354.2063 658.4253 356.8286 665.3713 355.4502 666.655 358.7737 670.1955 361.0254 674.9575 359.4644 678.0258 363.2786 678.2532 368.9377 681.828 364.2658 684.2755 364.6409 688.2187 368.3071 693.8966 370.9374 695.9978 372.7198 700.3255 371.0477 703.8888 363.1627 707.0063 363.1413 712.0246 368.5731 713.0495 362.4375 717.9586 360.155 722.423 365.1986 729.8659 369.6327 732.0272 372.0475 731.0209 372.0785 734.3967 350.2869 734.3195 350.5588 780.8626 290.1958 780.8692 290.7166 776.3529 287.1585 774.8813 287.4534 770.7224 280.1398 768.7413 275.1947 761.1937 271.7136 760.7628 273.7113 757.6051 271.3596 754.6486 267.3476 755.3322 264.7773 749.1284 259.1336 745.5918 256.7697 741.883 251.2796 740.1959 248.601 741.3466 246.6027 734.8444 243.4737 734.5015 242.2294 730.772 235.9088 728.9536 231.0894 722.4031 224.9453 723.4229 224.8169 712.1985 Z" id="fips-01047"/>
<path d="M 468.2815 595.1494 476.7278 595.0572 476.7261 591.2856 480.6015 591.3437 480.5499 595.0609 549.5858 594.2796 557.3291 594.2314 557.1647 590.4747 560.9669 590.4692 561.1536 594.2275 574.3049 594.1774 577.7331 594.1604 575.4453 604.0457 571.7581 608.7325 570.8689 614.3826 576.243 622.282 575.7158 626.085 574.8125 630.9385 576.478 645.8421 576.0048 661.0542 576.9623 662.9073 580.5024 665.9191 584.4366 667.3882 579.9907 667.9231 577.9235 672.9056 575.2347 674.8778 566.9353 673.3865 560.9344 676.6967 557.691 673.484 555.0996 676.9177 553.2506 674.0311 553.9195 678.8776 546.7667 682.3713 542.4361 682.9439 541.6038 686.047 534.5651 684.3722 532.7253 682.0363 526.0658 683.2986 523.1219 681.9616 524.0118 678.8375 518.3518 681.3497 517.6235 678.8016 509.1807 678.3863 511.7537 675.3824 507.8717 674.3853 499.1572 662.975 493.4222 661.3599 493.6364 665.2289 487.396 668.9206 482.2748 664.6447 483.4709 670.4129 479.6904 676.6045 483.5013 684.0798 483.4965 684.0945 483.4928 684.1056 475.4211 679.488 463.4622 681.0384 460.6459 685.5201 460.2852 654.2888 460.1833 640.9931 459.8984 607.3287 459.8039 595.9711 468.2815 595.1494 Z" id="fips-01051"/>
<path d="M 146.1751 391.6055 168.9586 393.1943 179.7188 392.8833 184.3009 392.7669 184.4284 377.4849 192.0998 377.3167 192.1345 369.6508 237.6622 371.9786 249.1745 372.1437 249.172 375.9898 260.6708 375.958 260.6473 395.2063 271.8925 395.5792 273.0986 398.8029 267.8221 398.3617 267.8949 402.698 257.9809 401.0311 255.4502 406.6604 256.7747 410.4124 261.4813 410.5707 261.403 414.2534 267.9894 414.5817 267.9921 418.4905 274.6727 420.5927 275.6322 426.4399 279.4212 426.5713 279.4025 434.2696 286.9514 436.3247 287.5404 440.2867 290.7981 440.321 290.8408 444.256 290.8604 446.0694 294.6963 446.1075 294.7216 449.8995 302.3811 450.0722 302.4551 454.0599 311.0817 454.1257 315.8513 458.0104 315.8471 460.1941 315.8386 465.6416 313.4413 465.6564 307.3878 472.3125 303.5591 472.2983 303.4899 468.5209 298.734 468.4169 296.847 469.3855 286.4622 478.798 286.3673 496.1205 268.1802 495.4206 261.6114 505.6782 260.142 523.8973 259.9738 528.7399 237.1762 529.3626 172.4226 528.0136 173.2573 525.707 172.6606 525.1505 164.3738 525.2016 146.7635 525.0452 147.1234 504.9114 145.78 493.5927 145.9376 489.1848 146.0617 454.8342 146.1751 391.6055 Z" id="fips-01125"/>
<path d="M 570.1106 720.4542 574.6882 720.2547 574.6514 712.2891 579.2762 715.865 579.7848 727.7385 582.8045 730.7153 584.2307 731.4749 678.1916 729.709 679.853 752.847 683.6798 752.7693 679.8776 754.7398 679.5398 777.7177 680.0764 787.4402 661.3238 787.9188 661.4333 791.6927 646.2448 792.5987 643.5768 793.339 640.9539 802.1518 631.2859 815.206 629.3901 823.4657 599.6217 823.7586 599.6226 800.9161 578.5949 801.1161 578.5831 797.2785 576.6935 795.4027 576.3356 780.0809 572.3686 780.1151 572.2857 778.1714 564.5952 778.2853 564.5747 776.3615 563.7097 778.2983 557.9937 778.3787 556.1944 780.2261 553.3354 779.3038 552.9246 755.5022 552.4108 726.8688 555.2141 726.8218 555.1661 721.1161 570.1106 720.4542 Z" id="fips-01011"/>
<path d="M 510.1303 801.847 553.7949 801.2485 553.3354 779.3038 556.1944 780.2261 557.9937 778.3787 563.7097 778.2983 564.5747 776.3615 564.5952 778.2853 572.2857 778.1714 572.3686 780.1151 576.3356 780.0809 576.6935 795.4027 578.5831 797.2785 578.5949 801.1161 599.6226 800.9161 599.6217 823.7586 629.3901 823.4657 625.01 829.6904 627.1456 835.5271 625.9187 842.4667 628.5459 848.9615 626.0631 855.4799 621.2916 858.3689 619.2113 862.6283 619.0518 869.0621 616.4407 871.5117 616.9373 881.3705 613.951 888.7966 611.3918 892.178 609.8668 892.6044 600.7147 892.7194 520.8614 893.4383 513.2966 893.8088 513.5065 890.7389 517.9052 885.6252 517.6216 882.2905 520.505 881.5053 520.024 847.9163 508.6212 848.1201 508.5873 843.5437 512.2249 837.0738 512.3076 827.1118 514.3278 821.0912 513.848 811.2491 510.1303 801.847 Z" id="fips-01109"/>
<path d="M 271.8925 395.5792 270.0156 393.1724 271.5221 390.9371 275.5002 395.2597 279.4416 388.6544 284.3863 388.8432 289.7114 384.353 287.2812 382.6317 285.6176 378.306 287.3121 372.9221 291.1152 372.9513 291.1549 369.1351 298.8206 369.2601 298.8188 365.372 310.1438 365.4929 310.1694 357.8642 317.8152 358.015 317.9415 350.3637 321.756 349.8485 321.5975 338.938 323.5774 338.939 325.3844 334.3137 325.4113 327.4434 329.2128 327.4902 329.2023 323.6357 336.857 323.8499 336.7937 319.9732 340.1729 320.0777 340.6371 316.2752 344.3778 316.2753 355.867 308.9424 376.7353 309.5197 383.1172 309.6254 408.0111 327.3613 407.4739 329.2327 420.5102 329.3445 422.7644 329.3518 430.4223 329.3689 430.4703 337.1324 434.3228 340.9061 434.2988 358.0394 434.3704 359.9698 432.4681 359.9274 432.4058 360.029 432.4047 363.7494 430.5095 363.7488 430.5298 367.5683 428.6364 371.3542 428.5556 383.0349 436.2835 385.0217 436.2809 386.9887 436.2078 392.7087 426.6959 394.4772 417.1081 407.7645 412.2442 407.8499 403.2654 407.9102 401.777 411.8198 397.9414 411.8887 396.4818 414.6158 396.045 415.1051 396.1031 417.4513 393.8523 417.3951 392.2074 421.1443 384.6694 421.2731 382.776 428.5009 378.997 428.3521 378.9374 434.1517 367.6121 435.7626 367.5591 440.4324 367.5322 443.3203 365.5926 443.3162 356.1284 443.1422 354.2018 444.9539 353.2627 447.3832 346.541 452.6416 346.5301 457.4702 336.9868 460.2699 335.052 463.2253 335.051 463.5087 334.0871 464.0726 334.0532 465.9093 324.3889 465.7758 315.8386 465.6416 315.8471 460.1941 315.8513 458.0104 311.0817 454.1257 302.4551 454.0599 302.3811 450.0722 294.7216 449.8995 294.6963 446.1075 290.8604 446.0694 290.8408 444.256 290.7981 440.321 287.5404 440.2867 286.9514 436.3247 279.4025 434.2696 279.4212 426.5713 275.6322 426.4399 274.6727 420.5927 267.9921 418.4905 267.9894 414.5817 261.403 414.2534 261.4813 410.5707 256.7747 410.4124 255.4502 406.6604 257.9809 401.0311 267.8949 402.698 267.8221 398.3617 273.0986 398.8029 271.8925 395.5792 Z" id="fips-01073"/>
<path d="M 377.5926 7.1044 400.4235 7.042 400.6151 7.0417 401.1247 7.059 401.88 7.0581 404.3014 7.1086 408.2247 7.115 408.2636 7.1151 417.131 7.2277 419.5166 7.2334 423.3188 7.2726 423.3383 7.2728 426.6448 7.2746 432.5415 7.335 434.8129 7.3275 445.6111 7.2885 452.9052 7.1582 460.8133 6.9752 477.7069 7.0326 479.3194 7.0374 480.4098 11.2824 484.069 12.9164 484.5854 15.7736 490.6072 18.9888 491.0966 20.9826 491.1203 23.9485 487.827 24.593 485.7617 20.8323 482.6715 19.1864 479.3632 21.8171 476.1698 21.2371 479.4184 27.0812 475.5305 30.6185 470.8514 37.928 471.8069 42.1198 476.2473 49.0246 472.5989 52.7897 473.8977 66.9758 472.9727 71.9007 469.5565 74.3537 470.6218 102.1866 476.6942 107.2794 475.5118 107.8808 476.4941 109.9562 481.6362 111.7094 481.6658 115.1292 475.5401 116.8296 476.1085 118.9339 480.9206 120.0935 479.9673 125.7373 477.0984 128.414 475.8862 132.7449 474.1604 133.4314 470.4612 129.9315 467.3208 132.5037 462.4013 131.3099 463.18 136.0836 458.0913 137.693 455.6226 141.5324 449.1074 140.4492 445.8759 142.6063 439.1352 140.8794 432.4487 136.1425 432.2374 135.9127 428.0159 125.3556 428.2135 124.1821 427.4706 120.06 424.3383 116.4275 417.7274 114.7119 414.3364 116.0017 409.5809 121.7996 403.3156 122.6271 400.8323 115.878 395.2813 112.9407 391.0554 114.5999 384.2621 121.7107 376.2699 122.9988 376.9307 93.618 377.0262 79.0206 377.0438 76.1821 377.2422 56.9573 377.2549 55.9981 377.3303 48.8098 377.5346 35.2881 377.5871 22.4773 377.5926 7.1044 Z" id="fips-01089"/>
<path d="M 92.9023 1181.5399 94.5252 1180.7515 97.2046 1181.8572 97.168 1185.3534 96.8651 1188.578 90.718 1184.4736 92.9023 1181.5399 Z M 41.7525 1223.8867 43.1607 1219.0573 45.5691 1220.4362 46.0413 1225.8297 45.9745 1231.2171 43.7942 1233.0743 40.337 1229.2556 41.7525 1223.8867 Z M 26.9464 1254.8828 32.9557 1254.2743 36.5359 1254.0928 42.6717 1252.5612 50.8838 1251.0552 61.7512 1249.3497 66.0201 1249.4031 69.4893 1248.7541 72.467 1248.3613 73.8422 1245.3795 73.8866 1242.7274 82.4076 1249.0739 85.0916 1251.9274 84.8556 1252.7074 84.1873 1252.9885 80.9696 1254.0815 77.648 1258.1546 69.1939 1254.4009 64.2386 1253.763 54.8778 1254.7973 38.559 1258.3879 32.6702 1258.538 28.2906 1258.0157 26.9464 1254.8828 Z M 7.2278 1023.5802 30.1943 1023.8981 30.3308 1016.1568 93.1519 1016.8764 99.4164 1016.9088 107.105 1009.3618 110.6636 1012.1888 112.1062 1015.9971 117.9886 1016.3278 116.4695 1023.0269 109.713 1031.4043 112.5779 1037.0855 115.8504 1037.1653 117.499 1042.3588 113.8016 1047.2586 115.3244 1049.1874 112.068 1052.8062 113.8625 1057.6626 111.8738 1063.4211 116.734 1065.0515 121.0081 1072.0242 114.6634 1074.7237 114.1556 1076.3252 106.7238 1087.698 108.0326 1091.2105 113.9777 1094.548 116.1605 1100.4465 106.5221 1104.4435 105.6773 1108.9773 99.7493 1112.3459 98.4827 1114.6702 97.4998 1119.6065 103.0699 1134.1366 101.3613 1137.6208 100.4415 1138.0747 98.2387 1140.4981 97.1578 1143.7394 95.3541 1145.7619 93.1462 1146.0383 89.1316 1148.0094 89.6009 1154.793 90.8489 1156.5412 88.3143 1162.8696 86.0248 1165.3126 83.9179 1168.8308 83.5822 1169.3913 84.4104 1173.8516 84.0936 1178.4725 82.2807 1179.8023 79.9445 1183.4053 79.2632 1185.7213 79.4168 1187.7916 80.7389 1193.5803 79.8541 1196.1529 78.5173 1198.3651 78.979 1205.0529 78.1061 1218.1908 76.1954 1223.599 74.0693 1227.4995 73.2796 1228.3079 71.3843 1232.9551 66.9569 1231.2051 63.276 1231.8172 58.8114 1233.7773 57.8895 1232.6519 57.3329 1228.0278 57.8033 1226.7816 59.5817 1226.4189 59.5924 1225.6124 57.0204 1221.8354 56.015 1221.895 43.3377 1216.4019 38.3653 1216.2048 36.5077 1219.3672 31.7493 1219.7832 30.6382 1219.4848 29.9766 1216.7571 27.1304 1214.5879 25.0783 1214.2884 19.9326 1214.5997 17.5101 1215.1947 12.8382 1219.3778 11.7046 1182.2086 11.4993 1176.3607 11.4497 1173.6648 11.4373 1173.2177 11.3412 1169.3144 11.1482 1161.4696 10.9353 1152.803 10.9729 1150.4608 10.8549 1149.0621 10.6318 1140.714 10.3703 1130.8303 10.3469 1129.09 10.2621 1124.5067 10.2534 1124.1451 10.2267 1123.1392 9.3154 1088.7224 9.1373 1086.4447 8.7678 1073.3317 8.2267 1054.0789 8.2129 1053.5841 8.1988 1053.3369 7.2278 1023.5802 Z" id="fips-01097"/>
<path d="M 641.1886 600.3321 677.1317 599.407 677.0804 595.543 680.8614 595.5714 682.8793 599.2768 688.9409 599.2531 693.5205 599.1387 707.4892 598.8769 709.2856 595.0647 742.3891 594.1863 743.4588 592.7969 746.0574 595.6289 747.0523 598.3391 745.2389 602.2388 747.1367 610.1199 751.8943 614.2221 753.052 617.2991 749.3911 620.8098 752.8987 624.2309 755.2274 630.3725 758.0112 637.7104 765.4824 644.7522 768.1753 647.2887 771.6746 652.2383 772.4814 655.8434 762.7294 656.2053 760.7911 656.2607 759.8456 656.6878 760.3355 665.8302 740.7956 666.606 723.668 667.1096 699.4871 667.899 700.5226 683.0793 694.6004 683.2565 677.4744 683.6608 676.549 665.5746 676.1675 660.7399 664.9139 660.9267 626.6455 642.7195 626.5592 638.935 618.9414 639.0976 618.8577 635.4445 618.3702 608.7667 622.1511 608.5938 622.0648 604.7564 637.452 604.2145 637.4664 600.5285 641.1886 600.3321 Z" id="fips-01081"/>
<path d="M 460.6459 685.5201 463.4622 681.0384 475.4211 679.488 483.4928 684.1056 483.4965 684.0945 483.5013 684.0798 479.6904 676.6045 483.4709 670.4129 482.2748 664.6447 487.396 668.9206 493.6364 665.2289 493.4222 661.3599 499.1572 662.975 507.8717 674.3853 511.7537 675.3824 509.1807 678.3863 517.6235 678.8016 518.3518 681.3497 524.0118 678.8375 523.1219 681.9616 526.0658 683.2986 532.7253 682.0363 534.5651 684.3722 541.6038 686.047 542.4361 682.9439 546.7667 682.3713 549.4772 686.4691 548.7106 691.7381 553.4076 698.6363 553.9825 704.3652 558.9138 704.9946 561.2987 707.6213 562.2651 713.2063 570.1106 720.4542 555.1661 721.1161 555.2141 726.8218 552.4108 726.8688 552.9246 755.5022 553.3354 779.3038 553.7949 801.2485 510.1303 801.847 485.4145 802.3511 485.0135 779.9455 484.2261 779.5849 462.1168 779.9401 461.504 738.3448 461.4938 738.0809 461.3554 729.0572 444.4382 718.5574 443.0113 714.0591 446.6673 706.1801 441.7041 702.8084 442.769 697.5762 449.0491 694.1473 449.5322 687.2621 450.6406 686.6366 453.2103 688.2033 460.6459 685.5201 Z" id="fips-01101"/>
<path d="M 90.479 794.4652 150.2653 795.0117 180.9267 795.0338 180.9037 825.4229 188.4499 825.4036 191.1359 826.9071 191.2419 838.2822 217.8632 837.9031 217.8339 841.907 213.9456 841.7858 214.2548 872.426 202.9121 872.5376 202.9822 910.2666 195.3541 917.0817 190.3587 920.3821 194.0029 924.2417 203.4395 930.215 203.2886 933.628 200.1727 942.1747 194.27 948.057 189.8821 947.7147 186.1078 943.9991 180.2901 944.3757 175.7818 948.4429 171.166 950.1401 166.6682 957.2559 167.2959 965.1771 161.9664 967.855 160.3702 965.9234 160.2014 960.201 158.3531 959.6717 157.1439 964.9735 153.4298 968.9232 153.5312 972.4613 157.6771 977.257 156.2254 978.1975 150.8434 975.7797 148.9964 971.4845 147.8564 974.7275 153.0129 981.0009 153.0534 982.8814 149.4501 984.4201 145.7149 982.0705 143.4396 982.9217 142.1916 987.1749 138.6919 986.8972 141.3981 990.2743 139.6887 992.3394 141.6262 994.5342 136.2098 993.3404 135.3946 995.7735 138.7439 1000.466 136.1624 1001.4256 133.9801 998.479 131.8249 1003.1277 129.4994 1001.4353 125.7418 1002.7611 124.0481 1005.8466 116.6536 1004.3059 116.2805 1000.6512 120.1653 996.0314 117.3623 990.8154 113.0311 989.2247 111.7388 987.0589 107.9228 986.6506 110.3074 984.0568 114.9343 984.6262 114.4563 981.4932 116.7185 977.1476 112.8914 973.1878 114.0513 971.8807 121.9229 972.8294 122.2704 967.14 125.2121 967.3031 125.6441 970.2037 130.0598 959.4769 129.1926 957.2814 130.4817 952.0763 128.0501 954.974 123.4418 952.6798 123.7109 956.0726 117.6503 956.4223 121.4254 950.8365 124.9288 951.4083 126.018 948.3863 121.4293 947.8735 125.2131 943.5595 119.8846 938.7754 124.3112 936.8841 123.5403 932.3096 126.505 925.8709 122.4334 922.8678 118.4455 916.5981 112.2135 915.5267 109.6871 913.3037 101.4657 909.6748 98.6557 907.5071 96.723 904.3924 100.4607 904.7876 99.5259 901.2724 94.2049 901.4087 89.5838 898.4652 87.887 895.4827 89.1947 892.7091 87.0624 889.0206 85.9362 881.5353 88.3571 878.7061 86.5646 874.3315 86.3039 870.8792 85.2798 860.8204 82.7724 854.6729 78.9495 854.6333 74.3205 856.7543 70.7973 853.1235 69.3749 847.1038 66.0094 839.7743 70.2841 833.4901 71.1236 830.16 73.9619 828.5001 75.6787 824.4153 77.7425 816.723 86.8607 815.297 89.4844 812.4256 94.349 812.0446 91.6074 808.4835 87.0189 812.3663 83.9055 807.5815 80.5762 807.7283 79.6724 804.8329 85.2342 801.0185 88.7153 803.9802 90.9928 802.7615 90.479 794.4652 Z" id="fips-01025"/>
<path d="M 224.9453 723.4229 231.0894 722.4031 235.9088 728.9536 242.2294 730.772 243.4737 734.5015 246.6027 734.8444 248.601 741.3466 251.2796 740.1959 256.7697 741.883 259.1336 745.5918 264.7773 749.1284 267.3476 755.3322 271.3596 754.6486 273.7113 757.6051 271.7136 760.7628 275.1947 761.1937 280.1398 768.7413 287.4534 770.7224 287.1585 774.8813 290.7166 776.3529 290.1958 780.8692 350.5588 780.8626 361.7845 780.7663 361.5572 803.421 350.1032 803.5465 350.538 837.9926 281.9274 838.4119 275.1259 837.5205 217.8632 837.9031 191.2419 838.2822 191.1359 826.9071 188.4499 825.4036 180.9037 825.4229 180.9267 795.0338 180.9091 792.1939 190.9885 791.3965 190.9513 758.0475 213.6302 758.0885 213.5713 727.0149 215.6425 723.0836 224.9453 723.4229 Z" id="fips-01131"/>
<path d="M 172.4226 528.0136 237.1762 529.3626 237.1527 563.2407 237.0485 574.7228 225.8303 574.7138 225.6897 597.6286 225.3092 601.6386 225.1723 620.6503 213.8224 620.6205 213.6881 666.2792 172.4272 666.305 168.394 666.2362 168.5386 654.7717 149.9138 654.6013 152.4774 651.8766 153.0085 647.5621 153.5045 644.1169 154.2742 644.5032 155.8391 643.3859 155.5961 640.3166 156.2079 638.8333 158.1671 639.2597 159.1362 639.7764 159.3158 641.3082 162.1198 640.4774 164.7026 638.4427 165.6326 638.1004 166.6715 637.4055 165.9436 636.3919 165.2329 635.139 164.3721 632.5075 164.2664 631.6114 162.69 631.105 161.2262 631.4793 156.7902 633.3369 154.9456 632.9469 151.4259 629.7121 150.5453 627.1989 151.2458 624.7957 152.8163 624.8512 154.9924 624.9175 157.2566 624.2996 161.1727 625.3011 164.4854 624.1671 165.2521 622.6081 165.4449 620.6171 162.78 620.3156 157.744 621.3098 154.7262 618.9853 154.9735 616.2203 155.9528 615.1015 154.1819 607.4902 154.3097 605.3319 152.1279 604.6092 150.6572 605.7168 149.5825 606.7286 147.3 606.2827 146.1677 604.3196 146.8585 601.2796 148.5834 599.6483 150.2844 599.6626 152.0537 595.921 149.9967 593.2693 148.146 591.1397 145.9381 590.1191 145.5016 591.3924 145.725 592.175 143.7711 592.7918 141.5613 592.8471 139.6892 593.4165 138.4529 592.6283 137.9542 591.4391 138.2653 590.9513 138.5848 589.8655 140.021 589.2265 142.0172 589.1659 144.0942 587.782 145.7321 585.6777 148.1936 583.8524 149.2244 581.9856 149.5319 580.2476 149.921 578.8231 150.0603 576.216 149.6772 573.7507 148.559 572.4525 146.4345 571.5092 146.5497 569.7242 148.1715 569.5397 148.4543 568.3028 147.4588 568.1193 146.2565 566.6054 146.8349 565.051 147.6852 565.2211 148.9207 564.1329 148.7114 562.5354 148.6796 561.5811 149.3985 560.7591 150.1417 561.1277 151.2661 561.124 151.2791 560.4958 150.6765 559.5071 149.7586 559.0305 149.438 558.2273 149.8019 557.9491 150.3702 558.3941 150.7437 558.9854 151.7148 559.3436 152.318 558.1958 152.1912 557.1112 153.1878 557.1329 154.3272 556.9063 156.6657 557.3076 157.889 556.0322 160.0221 556.21 161.2568 554.726 161.2963 553.2846 160.312 551.4802 159.0763 550.5214 159.1909 549.5392 159.8195 548.72 160.3527 549.0336 161.405 548.7012 162.2121 547.1317 163.0699 547.2011 163.1738 547.8948 164.1902 547.5599 163.5927 547.2409 163.5741 546.3805 164.1825 546.6644 167.8501 545.1808 168.8544 543.7839 168.0945 542.2388 166.7608 542.5588 165.5438 541.5586 166.8085 539.935 165.5424 537.1789 165.2131 536.2609 165.0717 535.2844 165.9363 535.3115 167.0831 535.7169 168.4904 535.4545 169.4521 533.8868 171.7719 533.6272 174.3405 532.073 173.5789 530.0654 172.9772 529.5116 172.5501 528.2735 172.4226 528.0136 Z" id="fips-01065"/>
<path d="M 684.1241 891.3476 683.9136 868.4296 728.6355 868.9032 730.071 866.761 730.7249 858.5128 734.6663 857.2349 743.4671 849.991 747.9177 852.4402 750.2278 860.6083 748.909 870.5398 758.6698 882.2611 763.3865 889.2423 764.549 902.9097 768.2616 909.7223 767.6805 916.6859 767.5572 916.9687 761.9261 929.8853 763.3422 939.5926 760.2975 945.1347 760.8872 948.3728 757.6914 957.6869 759.0955 963.679 758.739 971.9242 738.4701 972.507 727.1867 972.2348 721.9118 971.9396 717.146 972.0512 684.9409 971.3698 684.9387 958.6548 684.3776 938.314 684.7148 925.2612 684.1241 891.3476 Z" id="fips-01067"/>
<path d="M 436.5894 525.082 435.961 515.5096 439.0442 512.6711 437.9 507.2376 442.317 503.4081 512.0446 502.6908 548.3883 502.3677 548.4499 506.1481 548.8254 530.4522 548.9537 545.6859 549.351 575.1459 548.0581 577.1677 549.4402 579.2389 549.5858 594.2796 480.5499 595.0609 480.6015 591.3437 476.7261 591.2856 476.7278 595.0572 468.2815 595.1494 463.4598 592.7081 459.7489 586.0892 456.6876 585.1748 450.086 579.3659 449.2552 574.2256 452.0772 569.6116 451.2506 566.2718 448.1215 564.8507 444.9042 563.4926 442.6051 555.2803 436.9692 549.057 436.4591 538.0648 438.1003 534.3271 435.5137 529.3363 436.5894 525.082 Z" id="fips-01037"/>
<path d="M 466.7238 427.5959 473.8864 422.291 476.0199 418.5881 478.8498 413.4719 481.5735 411.3418 488.0739 395.9356 491.9116 395.6294 491.3846 399.7766 494.102 401.7352 498.0242 400.2178 499.9015 393.3678 507.7709 387.2277 507.2782 384.757 503.7792 383.0118 501.0141 375.6526 502.7088 373.8869 508.0464 374.7622 509.0259 374.0693 505.4153 370.1583 512.2459 367.3519 513.222 362.7738 511.5294 356.6859 505.2986 352.2589 504.3601 348.9261 508.3602 346.2889 510.5519 347.0159 511.8387 351.558 515.2982 353.5603 517.3753 351.5837 531.8099 352.3505 537.234 352.5962 538.3827 352.9156 543.641 360.0209 544.3459 366.6826 544.6168 371.1333 550.0659 371.894 550.5231 375.6884 576.6615 375.5882 594.4009 375.5347 594.1515 383.251 594.0148 387.0301 582.0657 398.4766 570.4449 398.6054 570.4552 410.1572 566.6224 410.226 566.5508 425.5706 562.7957 425.6429 562.7434 429.4038 555.0033 429.4366 554.3671 452.4909 547.4983 452.5127 527.8786 452.1953 524.0637 452.1581 523.7283 478.9239 512.2301 478.6919 512.0446 502.6908 442.317 503.4081 449.1449 497.5556 444.0474 491.4844 443.9309 488.5301 439.5878 483.3857 443.304 477.4002 448.8386 477.1014 447.6068 471.4385 451.8741 466.6657 454.3967 466.8117 455.8522 464.8253 456.8301 461.9211 454.6337 456.3826 459.9129 458.6549 463.6338 457.9848 470.7396 453.4905 470.7023 449.6101 469.3161 446.9445 469.2387 442.1191 470.3876 439.1613 475.0525 437.523 472.411 432.4191 466.7238 427.5959 Z" id="fips-01121"/>
<path d="M 479.3194 7.0374 533.0857 7.1026 575.6586 7.0643 583.2416 7.0491 584.1704 7.0462 631.392 7.4531 632.7441 16.0833 632.8966 17.8813 633.7373 23.279 633.7439 23.321 636.5442 40.0492 627.1636 47.6444 625.7145 56.305 620.2545 67.9309 617.439 70.6022 613.1955 70.8234 593.5629 102.4699 573.0323 119.0273 560.6882 128.8481 556.7475 133.6714 556.74 133.9298 556.1769 134.6327 556.072 134.9767 555.8436 135.3969 555.593 135.6177 555.2096 135.6505 554.7696 135.9264 546.6467 140.8732 544.0964 140.4707 539.9418 142.6617 534.982 142.0235 529.4349 145.0656 526.6272 138.7352 526.2372 132.4818 526.1968 130.078 519.9958 127.0717 515.3872 130.3597 515.0667 112.6427 515.0942 109.8232 507.6225 109.773 478.8342 109.8398 478.3521 109.8425 476.471 109.8667 476.4941 109.9562 475.5118 107.8808 476.6942 107.2794 470.6218 102.1866 469.5565 74.3537 472.9727 71.9007 473.8977 66.9758 472.5989 52.7897 476.2473 49.0246 471.8069 42.1198 470.8514 37.928 475.5305 30.6185 479.4184 27.0812 476.1698 21.2371 479.3632 21.8171 482.6715 19.1864 485.7617 20.8323 487.827 24.593 491.1203 23.9485 491.0966 20.9826 490.6072 18.9888 484.5854 15.7736 484.069 12.9164 480.4098 11.2824 479.3194 7.0374 Z" id="fips-01071"/>
<path d="M 534.982 142.0235 539.9418 142.6617 544.0964 140.4707 546.6467 140.8732 554.7696 135.9264 555.2096 135.6505 555.593 135.6177 555.8436 135.3969 556.072 134.9767 556.1769 134.6327 556.74 133.9298 556.7475 133.6714 560.6882 128.8481 573.0323 119.0273 593.5629 102.4699 613.1955 70.8234 617.439 70.6022 620.2545 67.9309 625.7145 56.305 627.1636 47.6444 636.5442 40.0492 641.5996 68.9658 643.6695 79.9123 643.6762 79.9603 646.2673 93.4223 646.2682 93.4438 647.8756 101.7322 647.9313 102.0537 649.5284 111.2761 651.8911 123.3564 652.6319 127.921 652.682 128.1834 648.4499 130.8923 646.1224 134.5993 642.8772 134.3335 642.6938 137.3152 639.1199 139.031 640.6104 143.1596 638.4389 142.5176 637.701 145.7705 638.6842 150.5551 634.1871 155.5443 630.8092 162.8133 628.9975 161.8124 628.4493 162.1822 630.0337 164.5138 626.5602 169.9031 620.6065 171.2013 618.8989 173.8743 618.248 176.1 597.0224 198.4788 589.4456 198.5995 589.6343 203.7339 585.9237 203.5772 581.9276 202.7375 582.0873 214.1534 525.025 214.4241 524.639 201.5385 524.4735 192.8876 524.1574 179.4762 523.8283 168.6943 521.86 161.0759 523.6649 154.7694 534.982 142.0235 Z" id="fips-01049"/>
<path d="M 350.7497 858.3878 350.5368 890.024 353.402 894.3179 354.7097 900.6614 357.7408 904.3983 359.735 910.7637 359.5897 912.5496 365.6199 918.2737 396.5063 918.583 396.6109 941.5284 402.5256 941.5418 405.404 950.4093 402.4119 954.0403 404.2596 959.1875 398.5953 964.9583 396.3666 965.5086 396.6672 971.0373 396.9047 1005.763 392.226 1006.0932 392.2095 1008.0163 388.2551 1005.1346 384.2238 1005.5295 380.6585 1003.1447 382.6238 998.3553 380.7078 990.4224 382.5716 987.6255 321.3344 987.5869 233.4756 987.5089 234.9759 983.3299 241.2246 976.9155 248.757 972.5136 251.7677 964.1509 254.9954 962.6869 263.0049 950.6261 268.7673 946.7289 278.0252 936.9821 279.1209 936.5948 283.2198 935.7713 285.2366 930.5189 292.2967 919.6464 292.0504 915.6402 294.0476 907.4095 297.1536 901.8917 298.903 894.7271 299.4485 887.3769 309.2342 884.8139 312.156 881.1198 317.1654 878.2292 316.0641 871.0075 318.2747 867.4657 324.3007 868.9962 332.09 867.4304 334.2001 865.4312 341.1719 863.1513 344.4896 860.1908 350.7497 858.3878 Z" id="fips-01035"/>
<path d="M 237.1527 563.2407 259.6123 563.1905 259.6244 574.6529 278.5988 574.5419 283.1866 573.7873 308.4437 573.6419 325.8994 573.4076 326.1609 601.6685 322.7189 610.5186 322.9637 618.8903 320.4185 624.4193 319.447 630.2467 321.0222 635.9242 317.4054 639.7939 311.9929 643.4667 312.9046 646.903 311.8761 652.2336 310.0742 652.9292 307.6714 660.7256 304.9951 664.985 280.9941 665.3113 271.0934 666.0544 236.1592 666.1666 236.2231 712.1355 224.8169 712.1985 213.4389 712.2126 213.6881 666.2792 213.8224 620.6205 225.1723 620.6503 225.3092 601.6386 225.6897 597.6286 225.8303 574.7138 237.0485 574.7228 237.1527 563.2407 Z" id="fips-01105"/>
<path d="M 191.1048 991.4235 203.7963 996.0241 211.9839 990.6591 219.5994 987.5098 233.4756 987.5089 321.3344 987.5869 382.5716 987.6255 380.7078 990.4224 382.6238 998.3553 380.6585 1003.1447 384.2238 1005.5295 388.2551 1005.1346 392.2095 1008.0163 392.226 1006.0932 396.9047 1005.763 396.9838 1056.1629 399.6687 1057.6948 395.6129 1057.6724 391.3043 1057.1077 390.873 1057.1055 390.6254 1057.1434 386.8292 1057.2652 377.724 1057.0926 377.663 1057.0914 367.618 1056.9836 367.2941 1056.9897 358.0432 1056.9227 354.6302 1056.9357 345.6903 1056.8971 329.7675 1056.6279 328.4423 1056.4538 323.3166 1056.4615 321.2302 1056.4334 320.4142 1056.3672 317.3161 1056.4829 314.9895 1056.4624 313.9597 1056.4732 302.6395 1056.3718 301.2657 1056.5324 297.7091 1056.3311 292.7834 1056.4421 292.5639 1056.4492 278.782 1056.8917 277.7075 1056.9629 275.8659 1057.0849 271.9707 1056.5729 271.8328 1056.5905 271.515 1056.5951 271.2992 1056.5761 270.9095 1056.5985 270.7178 1056.5917 269.5858 1056.5683 264.3266 1056.5263 263.8557 1056.5224 261.4738 1056.491 260.9185 1056.5524 259.0817 1056.4802 254.1717 1056.5008 249.2861 1056.4851 247.4037 1056.4827 246.5405 1056.4593 233.4872 1056.4442 232.0187 1056.4059 228.0715 1056.3662 226.7435 1056.3465 226.0782 1056.3248 225.4065 1056.3692 225.3738 1056.3693 224.2374 1056.3687 224.2257 1056.3686 221.5608 1056.3436 221.3362 1056.3465 221.2145 1056.3444 212.3639 1056.4517 205.8251 1056.3195 200.7019 1056.2998 194.4966 1056.3647 190.7556 1056.3542 190.8384 1044.8872 191.1048 991.4235 Z" id="fips-01053"/>
<path d="M 118.9384 2.1181 121.3969 2.1561 131.4113 2.3079 141.9616 2.463 142.0106 2.4519 143.1122 2.4472 147.2238 2.4946 147.2491 2.4857 147.5776 2.4678 164.4335 2.8085 165.7215 2.8626 167.597 2.8978 178.2313 3.1506 179.7747 3.201 180.1576 3.1928 180.9559 3.235 186.4303 3.3612 187.9981 3.377 196.4168 3.3858 200.4745 3.439 236.8843 3.884 238.706 3.9047 240.2281 3.9436 241.1202 3.951 246.7367 4.0583 248.9419 4.1368 253.6335 4.2376 255.793 4.2903 266.5728 4.5355 272.8537 4.6995 281.352 4.9702 282.7496 5.0166 284.3365 5.0691 285.612 5.1062 284.5388 53.1793 275.7355 60.4126 272.3813 61.5881 270.8101 64.2788 274.5998 68.2183 266.5502 70.2381 256.6058 58.192 250.9996 55.9319 238.8484 57.174 227.3308 53.7964 217.7843 48.5463 204.7302 51.9255 200.4119 55.9213 198.4426 57.1765 196.0611 57.9444 192.0185 58.7536 189.7209 60.0445 186.3404 61.4447 186.0265 61.4147 185.0895 61.5116 181.0172 62.9287 178.1203 63.8797 172.6391 70.989 165.125 73.8405 156.5578 74.4284 150.3454 71.9597 144.8995 66.1951 132.2821 55.171 129.539 46.0964 125.5642 38.499 118.2155 33.4078 106.58 28.0596 94.2433 31.7028 93.7944 31.2002 88.4242 28.9994 85.9305 27.5597 85.2846 27.0161 83.8753 25.7528 82.1181 23.6246 80.6529 20.6998 78.4648 14.9567 77.628 13.0268 76.8125 11.7169 75.233 9.7416 72.84 5.4335 72.586 4.2633 72.4309 3.6992 72.207 1.6874 72.0071 1 115.6844 2.0675 118.9384 2.1181 Z" id="fips-01077"/>
<path d="M 640.002 500.7571 719.4095 499.4913 721.6007 511.4194 721.936 513.2657 725.4447 532.396 726.5867 538.6171 729.9157 556.7361 730.6627 561.8401 731.0026 564.1622 731.0064 564.1879 737.9054 568.9522 734.8469 577.1956 742.6174 584.8364 745.1142 587.0899 741.4829 590.6431 743.4588 592.7969 742.3891 594.1863 709.2856 595.0647 707.4892 598.8769 693.5205 599.1387 688.9409 599.2531 682.8793 599.2768 680.8614 595.5714 677.0804 595.543 677.1317 599.407 641.1886 600.3321 640.6014 555.9779 640.002 500.7571 Z" id="fips-01017"/>
<path d="M 371.0477 703.8888 369.7134 705.8772 370.7843 711.9941 374.7479 712.3445 380.3203 703.9042 378.6982 696.5783 379.1563 689.7429 385.458 691.183 390.5149 687.1318 392.576 687.5718 392.3344 695.6569 394.0457 698.6233 400.2217 700.5527 406.4159 694.5615 406.8896 689.0139 414.7467 686.772 415.7599 688.6449 415.4655 695.0382 419.8041 698.4251 422.7846 694.8233 425.2983 694.8204 431.5264 697.8238 433.7671 704.3214 441.7041 702.8084 446.6673 706.1801 443.0113 714.0591 444.4382 718.5574 461.3554 729.0572 461.4938 738.0809 461.504 738.3448 462.1168 779.9401 462.4927 802.7962 452.859 802.6096 361.5572 803.421 361.7845 780.7663 350.5588 780.8626 350.2869 734.3195 372.0785 734.3967 372.0475 731.0209 369.6327 732.0272 365.1986 729.8659 360.155 722.423 362.4375 717.9586 368.5731 713.0495 363.1413 712.0246 363.1627 707.0063 371.0477 703.8888 Z" id="fips-01085"/>
<path d="M 546.7667 682.3713 553.9195 678.8776 553.2506 674.0311 555.0996 676.9177 557.691 673.484 560.9344 676.6967 566.9353 673.3865 575.2347 674.8778 577.9235 672.9056 579.9907 667.9231 584.4366 667.3882 580.5024 665.9191 576.9623 662.9073 596.6885 662.4098 596.286 645.4274 596.1477 639.582 615.1771 639.1907 615.9069 635.5176 618.8577 635.4445 618.9414 639.0976 626.5592 638.935 626.6455 642.7195 664.9139 660.9267 676.1675 660.7399 676.549 665.5746 677.4744 683.6608 678.1916 729.709 584.2307 731.4749 582.8045 730.7153 579.7848 727.7385 579.2762 715.865 574.6514 712.2891 574.6882 720.2547 570.1106 720.4542 562.2651 713.2063 561.2987 707.6213 558.9138 704.9946 553.9825 704.3652 553.4076 698.6363 548.7106 691.7381 549.4772 686.4691 546.7667 682.3713 Z" id="fips-01087"/>
<path d="M 510.3811 940.2015 510.0545 916.5816 518.6183 916.4609 520.0056 914.5074 521.4313 914.4786 520.8614 893.4383 600.7147 892.7194 601.2308 961.4192 601.2111 966.7509 601.2694 1003.5243 541.2113 1004.6408 528.1268 1005.0146 528.1452 1007.8831 526.1602 1005.0966 510.8718 1005.3374 510.2714 963.1699 509.8623 944.0526 510.3811 940.2015 Z" id="fips-01031"/>
<path d="M 2.1958 870.0965 86.3039 870.8792 86.5646 874.3315 88.3571 878.7061 85.9362 881.5353 87.0624 889.0206 89.1947 892.7091 87.887 895.4827 89.5838 898.4652 94.2049 901.4087 99.5259 901.2724 100.4607 904.7876 96.723 904.3924 98.6557 907.5071 101.4657 909.6748 109.6871 913.3037 112.2135 915.5267 118.4455 916.5981 122.4334 922.8678 126.505 925.8709 123.5403 932.3096 124.3112 936.8841 119.8846 938.7754 125.2131 943.5595 121.4293 947.8735 126.018 948.3863 124.9288 951.4083 121.4254 950.8365 117.6503 956.4223 123.7109 956.0726 123.4418 952.6798 128.0501 954.974 130.4817 952.0763 129.1926 957.2814 130.0598 959.4769 125.6441 970.2037 125.2121 967.3031 122.2704 967.14 121.9229 972.8294 114.0513 971.8807 112.8914 973.1878 116.7185 977.1476 114.4563 981.4932 114.9343 984.6262 110.3074 984.0568 107.9228 986.6506 111.7388 987.0589 113.0311 989.2247 117.3623 990.8154 120.1653 996.0314 116.2805 1000.6512 116.6536 1004.3059 117.7606 1012.1699 110.6636 1012.1888 107.105 1009.3618 99.4164 1016.9088 93.1519 1016.8764 30.3308 1016.1568 30.1943 1023.8981 7.2278 1023.5802 6.2944 993.1424 6.2749 992.8289 6.1615 988.7156 6.2283 987.2032 6.0766 983.2666 5.1841 960.0632 5.1785 960.0332 4.6473 942.9619 4.6546 942.8598 4.5065 939.0311 4.2666 932.8209 4.2328 927.0154 3.9825 922.1144 3.0053 890.1656 2.9599 889.5471 2.1959 870.1152 2.1958 870.0965 Z" id="fips-01129"/>
<path d="M 237.1762 529.3626 259.9738 528.7399 260.142 523.8973 261.6114 505.6782 268.1802 495.4206 286.3673 496.1205 286.4622 478.798 296.847 469.3855 298.734 468.4169 303.4899 468.5209 303.5591 472.2983 307.3878 472.3125 313.4413 465.6564 315.8386 465.6416 324.3889 465.7758 324.6268 486.9807 332.7227 488.0331 336.9548 489.0123 336.9936 503.23 341.0513 504.6711 340.8735 509.8875 344.7651 509.8764 344.7661 513.7507 356.3951 517.4796 357.3461 517.4736 357.4759 556.3795 357.4719 570.5985 357.4935 573.6411 325.8994 573.4076 308.4437 573.6419 283.1866 573.7873 278.5988 574.5419 259.6244 574.6529 259.6123 563.1905 237.1527 563.2407 237.1762 529.3626 Z" id="fips-01007"/>
<path d="M 324.3889 465.7758 334.0532 465.9093 334.0871 464.0726 335.051 463.5087 335.052 463.2253 336.9868 460.2699 346.5301 457.4702 346.541 452.6416 353.2627 447.3832 354.2018 444.9539 356.1284 443.1422 365.5926 443.3162 367.5322 443.3203 367.5591 440.4324 367.6121 435.7626 378.9374 434.1517 378.997 428.3521 382.776 428.5009 384.6694 421.2731 392.2074 421.1443 393.8523 417.3951 396.1031 417.4513 396.045 415.1051 396.4818 414.6158 397.9414 411.8887 401.777 411.8198 403.2654 407.9102 412.2442 407.8499 417.1081 407.7645 426.6959 394.4772 436.2078 392.7087 436.2809 386.9887 444.0003 386.917 443.9548 398.3592 466.6899 398.3055 466.7238 427.5959 472.411 432.4191 475.0525 437.523 470.3876 439.1613 469.2387 442.1191 469.3161 446.9445 470.7023 449.6101 470.7396 453.4905 463.6338 457.9848 459.9129 458.6549 454.6337 456.3826 456.8301 461.9211 455.8522 464.8253 454.3967 466.8117 451.8741 466.6657 447.6068 471.4385 448.8386 477.1014 443.304 477.4002 439.5878 483.3857 443.9309 488.5301 444.0474 491.4844 449.1449 497.5556 442.317 503.4081 437.9 507.2376 439.0442 512.6711 435.961 515.5096 436.5894 525.082 432.285 524.0783 428.5451 525.5352 417.4611 516.0584 416.1368 512.14 389.7017 512.3749 373.7735 512.4996 368.8101 512.5835 364.8694 511.9504 356.2967 511.7067 356.3951 517.4796 344.7661 513.7507 344.7651 509.8764 340.8735 509.8875 341.0513 504.6711 336.9936 503.23 336.9548 489.0123 332.7227 488.0331 324.6268 486.9807 324.3889 465.7758 Z" id="fips-01117"/>
<path d="M 123.1682 710.5967 120.6661 709.4996 118.5019 705.7267 114.3135 701.6256 109.2324 700.813 103.6121 694.644 97.6694 692.8354 98.6577 684.1227 101.1001 678.0145 109.3818 672.419 113.7151 671.8565 118.3939 667.854 120.4578 663.0701 127.4899 656.0604 130.2516 654.7781 140.9989 656.978 142.8027 656.2117 143.5009 654.2755 140.877 652.5384 143.0377 648.5842 147.7976 649.5375 147.505 655.6615 149.9138 654.6013 168.5386 654.7717 168.394 666.2362 172.4272 666.305 213.6881 666.2792 213.4389 712.2126 224.8169 712.1985 224.9453 723.4229 215.6425 723.0836 213.5713 727.0149 213.6302 758.0885 190.9513 758.0475 190.9885 791.3965 180.9091 792.1939 180.9267 795.0338 150.2653 795.0117 90.479 794.4652 86.3834 789.983 85.6772 793.6476 81.5913 790.139 80.7662 787.3478 81.7404 780.9567 80.6697 778.3274 85.7286 773.4671 88.2079 773.2395 91.3334 775.6744 97.1624 770.3374 95.5524 765.1892 99.3275 753.8649 102.5414 753.9166 105.8366 743.3422 104.6667 739.2511 105.8342 734.4024 104.2053 730.2779 105.526 723.2565 103.184 720.5846 103.4397 717.0461 106.7505 717.4908 106.7773 714.0849 109.632 714.6494 113.1631 711.2085 114.8636 713.7501 119.2204 712.2604 121.7902 712.9249 119.9873 717.8251 122.4504 718.0049 123.3336 715.3457 122.8799 714.0923 123.1682 710.5967 Z" id="fips-01091"/>
<path d="M 43.698 452.5936 44.1166 448.9474 47.0325 423.5274 50.4401 393.7673 50.5897 392.7107 51.1322 388.1057 122.9827 391.579 146.1751 391.6055 146.0617 454.8342 145.9376 489.1848 137.2584 492.8997 124.6671 499.606 123.6521 499.2101 116.8269 508.8722 114.0483 508.0607 103.9825 512.423 101.2214 515.0123 102.9062 518.0493 100.2646 520.5246 95.5692 515.5501 93.398 515.1513 90.879 519.4645 84.4776 517.9276 76.9313 519.0204 78.3173 522.1759 71.9094 526.4848 71.8459 529.8512 34.6709 530.5808 37.0506 509.2425 37.0692 509.0757 40.518 479.9423 41.0069 474.9014 41.6656 470.2835 43.698 452.5936 Z" id="fips-01107"/>
<path d="M 677.4744 683.6608 694.6004 683.2565 700.5226 683.0793 699.4871 667.899 723.668 667.1096 740.7956 666.606 760.3355 665.8302 759.8456 656.6878 760.7911 656.2607 762.7294 656.2053 772.4814 655.8434 772.6981 656.8112 772.7346 656.9743 774.4007 664.4159 774.5256 664.9734 774.6036 670.756 779.8617 673.3981 781.8184 678.7004 779.2498 680.7464 778.9361 687.093 778.0748 689.4589 777.9127 689.9043 777.646 694.3804 772.2992 701.4434 773.7467 705.2731 783.9261 709.2698 788.9725 711.249 799 720.615 793.5978 724.1822 792.0371 728.9169 791.2784 731.2179 781.8666 732.1224 779.2764 735.3494 782.5616 736.2644 783.2289 737.5408 772.2959 742.5061 761.9303 754.3759 764.7434 767.1131 764.345 773.678 734.1243 774.3641 732.699 773.6276 731.6651 769.109 724.1526 763.7396 722.4808 758.2553 717.1896 754.4244 717.5859 751.9496 683.6798 752.7693 679.853 752.847 678.1916 729.709 677.4744 683.6608 Z" id="fips-01113"/>
<path d="M 68.5684 243.0934 69.4519 235.3792 71.4137 219.7915 71.7802 215.9138 72.4958 212.0713 72.759 207.8238 75.0822 189.1181 75.1349 188.6932 75.3855 186.5116 75.9356 181.556 133.3771 184.4464 172.0174 185.4175 192.89 186.4212 192.7901 209.2397 192.4902 222.1854 192.0767 248.6616 191.9652 266.5173 191.8291 289.3699 172.9582 289.3404 142.2579 287.8262 122.9464 287.5221 123.2056 260.644 115.4741 260.3775 115.6688 252.7052 67.7196 250.5 68.5684 243.0934 Z" id="fips-01093"/>
<path d="M 191.9652 266.5173 221.6136 268.1856 272.5478 268.9886 283.3502 269.2005 286.9826 271.585 289.2051 266.8821 293.7838 266.2921 297.6689 269.4258 301.3436 276.8299 306.0715 278.3158 307.7567 284.699 311.8885 288.9277 312.6634 292.284 308.5533 294.3883 310.5062 296.5653 329.0018 296.9077 329.0392 302.8866 331.8476 304.2699 338.5329 304.9909 340.5054 308.5043 340.6371 316.2752 340.1729 320.0777 336.7937 319.9732 336.857 323.8499 329.2023 323.6357 329.2128 327.4902 325.4113 327.4434 325.3844 334.3137 323.5774 338.939 321.5975 338.938 321.756 349.8485 317.9415 350.3637 317.8152 358.015 310.1694 357.8642 310.1438 365.4929 298.8188 365.372 298.8206 369.2601 291.1549 369.1351 291.1152 372.9513 287.3121 372.9221 285.6176 378.306 287.2812 382.6317 289.7114 384.353 284.3863 388.8432 279.4416 388.6544 275.5002 395.2597 271.5221 390.9371 270.0156 393.1724 271.8925 395.5792 260.6473 395.2063 260.6708 375.958 249.172 375.9898 249.1745 372.1437 237.6622 371.9786 237.7595 349.1067 214.9094 348.1982 214.5037 302.0481 191.7179 300.7374 191.8291 289.3699 191.9652 266.5173 Z" id="fips-01127"/>
<path d="M 71.8459 529.8512 71.9094 526.4848 78.3173 522.1759 76.9313 519.0204 84.4776 517.9276 90.879 519.4645 93.398 515.1513 95.5692 515.5501 100.2646 520.5246 102.9062 518.0493 101.2214 515.0123 103.9825 512.423 114.0483 508.0607 116.8269 508.8722 123.6521 499.2101 124.6671 499.606 137.2584 492.8997 145.9376 489.1848 145.78 493.5927 147.1234 504.9114 146.7635 525.0452 164.3738 525.2016 172.6606 525.1505 173.2573 525.707 172.4226 528.0136 172.5501 528.2735 172.9772 529.5116 173.5789 530.0654 174.3405 532.073 171.7719 533.6272 169.4521 533.8868 168.4904 535.4545 167.0831 535.7169 165.9363 535.3115 165.0717 535.2844 165.2131 536.2609 165.5424 537.1789 166.8085 539.935 165.5438 541.5586 166.7608 542.5588 168.0945 542.2388 168.8544 543.7839 167.8501 545.1808 164.1825 546.6644 163.5741 546.3805 163.5927 547.2409 164.1902 547.5599 163.1738 547.8948 163.0699 547.2011 162.2121 547.1317 161.405 548.7012 160.3527 549.0336 159.8195 548.72 159.1909 549.5392 159.0763 550.5214 160.312 551.4802 161.2963 553.2846 161.2568 554.726 160.0221 556.21 157.889 556.0322 156.6657 557.3076 154.3272 556.9063 153.1878 557.1329 152.1912 557.1112 152.318 558.1958 151.7148 559.3436 150.7437 558.9854 150.3702 558.3941 149.8019 557.9491 149.438 558.2273 149.7586 559.0305 150.6765 559.5071 151.2791 560.4958 151.2661 561.124 150.1417 561.1277 149.3985 560.7591 148.6796 561.5811 148.7114 562.5354 148.9207 564.1329 147.6852 565.2211 146.8349 565.051 146.2565 566.6054 147.4588 568.1193 148.4543 568.3028 148.1715 569.5397 146.5497 569.7242 146.4345 571.5092 148.559 572.4525 149.6772 573.7507 150.0603 576.216 149.921 578.8231 149.5319 580.2476 149.2244 581.9856 148.1936 583.8524 145.7321 585.6777 144.0942 587.782 142.0172 589.1659 140.021 589.2265 138.5848 589.8655 138.2653 590.9513 137.9542 591.4391 138.4529 592.6283 139.6892 593.4165 141.5613 592.8471 143.7711 592.7918 145.725 592.175 145.5016 591.3924 145.9381 590.1191 148.146 591.1397 149.9967 593.2693 152.0537 595.921 150.2844 599.6626 148.5834 599.6483 146.8585 601.2796 146.1677 604.3196 147.3 606.2827 149.5825 606.7286 150.6572 605.7168 152.1279 604.6092 154.3097 605.3319 154.1819 607.4902 155.9528 615.1015 154.9735 616.2203 154.7262 618.9853 157.744 621.3098 162.78 620.3156 165.4449 620.6171 165.2521 622.6081 164.4854 624.1671 161.1727 625.3011 157.2566 624.2996 154.9924 624.9175 152.8163 624.8512 151.2458 624.7957 150.5453 627.1989 151.4259 629.7121 154.9456 632.9469 156.7902 633.3369 161.2262 631.4793 162.69 631.105 164.2664 631.6114 164.3721 632.5075 165.2329 635.139 165.9436 636.3919 166.6715 637.4055 165.6326 638.1004 164.7026 638.4427 162.1198 640.4774 159.3158 641.3082 159.1362 639.7764 158.1671 639.2597 156.2079 638.8333 155.5961 640.3166 155.8391 643.3859 154.2742 644.5032 153.5045 644.1169 153.0085 647.5621 152.4774 651.8766 149.9138 654.6013 147.505 655.6615 147.7976 649.5375 143.0377 648.5842 140.877 652.5384 136.3894 649.2879 136.193 642.0464 131.0764 636.6074 131.1944 634.5777 134.6038 632.0674 139.1418 632.963 139.5235 637.0668 143.8353 633.1972 140.0578 629.21 135.8288 628.8297 129.6984 630.7429 128.18 628.0493 124.4662 626.0346 120.3325 627.4265 113.7114 631.575 106.4025 634.1404 95.8753 635.936 91.1225 628.9818 91.2102 624.0124 96.55 621.9993 95.9737 614.6573 99.7938 611.2084 97.481 608.7308 91.5248 612.0772 85.1456 610.6294 83.2536 607.5003 90.0202 605.4735 90.8279 602.7556 86.5658 597.4912 84.8514 589.1295 86.348 586.9292 91.5523 588.6936 94.8957 583.6739 91.6836 580.4032 85.8713 581.9321 79.9554 572.8062 76.7069 574.8663 69.5572 573.3738 75.0989 567.4831 69.6434 562.472 67.6139 552.1784 63.7869 548.4354 66.2533 545.6095 70.8675 546.6034 71.5717 543.7731 69.3616 543.01 69.0423 538.5989 73.1583 540.7883 74.9401 538.1128 72.7572 536.5164 71.8459 529.8512 Z" id="fips-01063"/>
<path d="M 582.0657 398.4766 594.0148 387.0301 594.1515 383.251 605.5276 383.1739 605.8013 371.6229 609.6978 371.7335 609.5622 368.0261 617.1756 367.3462 617.0214 364.2003 624.6553 364.2797 628.3611 358.6527 628.0937 325.8174 631.7643 325.7309 631.7968 321.9359 635.6027 321.9414 635.5736 318.1069 639.3758 318.1275 639.4062 306.6075 628.07 306.5877 628.0061 299.0247 635.6694 299.0434 635.6311 295.1313 650.7688 295.1061 651.114 281.3625 658.5835 281.0134 658.6491 277.1971 673.8339 276.9571 679.6401 275.0232 682.5672 291.3875 684.7115 303.3632 684.9553 304.7786 688.422 324.8916 688.7402 326.4625 689.4827 331.1453 694.0491 356.5766 697.4811 375.6584 697.7732 377.2814 699.5793 387.3118 699.7991 388.8019 699.8209 388.9096 702.0978 401.2121 696.2426 399.1586 692.5471 396.4865 691.5226 398.8512 627.7528 398.755 601.0173 398.3307 601.0138 402.3043 597.274 402.2997 597.3022 406.0557 574.2696 406.2544 574.2753 404.3246 578.1389 404.2923 578.2657 400.3961 581.9672 400.3434 582.0657 398.4766 Z" id="fips-01029"/>
<path d="M 452.859 802.6096 462.4927 802.7962 462.1168 779.9401 484.2261 779.5849 485.0135 779.9455 485.4145 802.3511 510.1303 801.847 513.848 811.2491 514.3278 821.0912 512.3076 827.1118 512.2249 837.0738 508.5873 843.5437 508.6212 848.1201 520.024 847.9163 520.505 881.5053 517.6216 882.2905 517.9052 885.6252 513.5065 890.7389 513.2966 893.8088 520.8614 893.4383 521.4313 914.4786 520.0056 914.5074 518.6183 916.4609 510.0545 916.5816 510.3811 940.2015 495.1456 940.002 495.5037 936.1765 491.7272 936.227 490.9282 917.0692 486.731 917.0946 482.1102 923.2822 479.6591 924.3697 477.5609 928.0677 472.0416 928.1424 470.7919 931.576 465.125 937.6469 464.4852 937.4811 464.0898 917.56 460.631 917.9832 441.8467 918.115 441.6676 883.9696 453.0566 883.8326 453.6075 871.8706 453.3855 837.5591 455.172 834.6139 453.3249 833.6775 452.859 802.6096 Z" id="fips-01041"/>
<path d="M 600.7147 892.7194 609.8668 892.6044 646.3078 892.3266 672.7964 891.2084 684.1241 891.3476 684.7148 925.2612 684.3776 938.314 684.9387 958.6548 684.9409 971.3698 685.1007 978.6605 683.0629 978.9378 673.6708 978.9278 669.7619 978.8963 669.8019 989.671 656.2382 987.7984 647.3504 985.1957 643.4122 983.0873 636.1359 982.3365 630.6055 983.6252 628.1475 989.2225 624.1624 992.8418 622.5481 1001.1049 619.4992 1003.6453 601.2694 1003.5243 601.2111 966.7509 601.2308 961.4192 600.7147 892.7194 Z" id="fips-01045"/>
<path d="M 534.6144 308.5931 538.1525 308.7246 538.6861 305.8285 544.2013 306.0763 544.1269 302.2394 549.8702 302.5098 551.5036 298.7359 551.7058 294.9249 555.4822 295.1043 555.4587 292.3447 555.4336 289.4012 562.9881 287.6554 563.0657 291.4922 570.6358 291.4257 570.5255 281.8068 574.4108 279.8532 582.1258 279.8552 589.8422 280.5574 605.152 283.4957 605.4928 274.7767 611.3581 275.1233 651.2093 277.5351 651.114 281.3625 650.7688 295.1061 635.6311 295.1313 635.6694 299.0434 628.0061 299.0247 628.07 306.5877 639.4062 306.6075 639.3758 318.1275 635.5736 318.1069 635.6027 321.9414 631.7968 321.9359 631.7643 325.7309 628.0937 325.8174 628.3611 358.6527 624.6553 364.2797 617.0214 364.2003 617.1756 367.3462 609.5622 368.0261 609.6978 371.7335 605.8013 371.6229 605.5276 383.1739 594.1515 383.251 594.4009 375.5347 576.6615 375.5882 550.5231 375.6884 550.0659 371.894 544.6168 371.1333 544.3459 366.6826 543.641 360.0209 538.3827 352.9156 537.234 352.5962 531.8099 352.3505 517.3753 351.5837 517.7267 343.6861 522.0596 343.2223 523.6306 339.7911 531.2432 334.6985 535.3666 330.2205 539.3408 329.3595 534.901 320.2673 537.671 313.3184 534.6144 308.5931 Z" id="fips-01015"/>
<path d="M 348.3004 618.8773 370.6574 619.9475 380.6258 619.7851 393.4933 619.506 393.2957 607.9494 435.2756 607.502 459.8984 607.3287 460.1833 640.9931 460.2852 654.2888 460.6459 685.5201 453.2103 688.2033 450.6406 686.6366 449.5322 687.2621 449.0491 694.1473 442.769 697.5762 441.7041 702.8084 433.7671 704.3214 431.5264 697.8238 425.2983 694.8204 422.7846 694.8233 419.8041 698.4251 415.4655 695.0382 415.7599 688.6449 414.7467 686.772 406.8896 689.0139 406.4159 694.5615 400.2217 700.5527 394.0457 698.6233 392.3344 695.6569 392.576 687.5718 390.5149 687.1318 385.458 691.183 379.1563 689.7429 378.6982 696.5783 380.3203 703.9042 374.7479 712.3445 370.7843 711.9941 369.7134 705.8772 371.0477 703.8888 372.7198 700.3255 370.9374 695.9978 368.3071 693.8966 364.6409 688.2187 364.2658 684.2755 368.9377 681.828 363.2786 678.2532 359.4644 678.0258 361.0254 674.9575 358.7737 670.1955 355.4502 666.655 356.8286 665.3713 354.2063 658.4253 350.6806 652.231 352.5565 644.2433 348.0262 624.1061 348.3004 618.8773 Z" id="fips-01001"/>
<path d="M 629.3901 823.4657 631.2859 815.206 640.9539 802.1518 643.5768 793.339 646.2448 792.5987 661.4333 791.6927 661.3238 787.9188 680.0764 787.4402 679.5398 777.7177 679.8776 754.7398 683.6798 752.7693 717.5859 751.9496 717.1896 754.4244 722.4808 758.2553 724.1526 763.7396 731.6651 769.109 732.699 773.6276 734.1243 774.3641 764.345 773.678 763.5622 786.5581 761.566 792.2822 758.9821 799.6863 757.5483 804.7577 749.3348 818.4049 747.1641 821.0025 744.6715 832.6759 747.1371 838.9451 746.0622 845.876 746.6992 848.1298 747.9177 852.4402 743.4671 849.991 734.6663 857.2349 730.7249 858.5128 730.071 866.761 728.6355 868.9032 683.9136 868.4296 684.1241 891.3476 672.7964 891.2084 646.3078 892.3266 609.8668 892.6044 611.3918 892.178 613.951 888.7966 616.9373 881.3705 616.4407 871.5117 619.0518 869.0621 619.2113 862.6283 621.2916 858.3689 626.0631 855.4799 628.5459 848.9615 625.9187 842.4667 627.1456 835.5271 625.01 829.6904 629.3901 823.4657 Z" id="fips-01005"/>
<path d="M 325.8994 573.4076 357.4935 573.6411 357.4719 570.5985 357.4759 556.3795 357.3461 517.4736 356.3951 517.4796 356.2967 511.7067 364.8694 511.9504 368.8101 512.5835 373.7735 512.4996 389.7017 512.3749 416.1368 512.14 417.4611 516.0584 428.5451 525.5352 432.285 524.0783 436.5894 525.082 435.5137 529.3363 438.1003 534.3271 436.4591 538.0648 436.9692 549.057 442.6051 555.2803 444.9042 563.4926 448.1215 564.8507 451.2506 566.2718 452.0772 569.6116 449.2552 574.2256 450.086 579.3659 456.6876 585.1748 459.7489 586.0892 463.4598 592.7081 468.2815 595.1494 459.8039 595.9711 459.8984 607.3287 435.2756 607.502 393.2957 607.9494 393.4933 619.506 380.6258 619.7851 370.6574 619.9475 348.3004 618.8773 326.1549 619.088 326.1609 601.6685 325.8994 573.4076 Z" id="fips-01021"/>
<path d="M 652.682 128.1834 652.6831 128.1889 653.0502 129.7394 653.9157 134.2063 655.2928 141.2015 655.3247 141.3517 659.4509 162.6027 661.9148 175.2764 662.7462 179.5497 664.7115 190.5233 665.5079 194.9675 665.6562 195.9382 666.2886 199.3155 666.3646 199.8835 672.3797 232.8126 672.6902 235.6205 674.1986 244.4262 674.5824 246.6655 677.7753 265.0117 677.9643 265.5911 679.6401 275.0232 673.8339 276.9571 658.6491 277.1971 658.5835 281.0134 651.114 281.3625 651.2093 277.5351 611.3581 275.1233 605.4928 274.7767 605.8346 269.3211 592.475 240.2892 593.7273 233.7281 589.1668 233.7729 584.5851 237.7993 582.8074 237.6188 582.0873 214.1534 581.9276 202.7375 585.9237 203.5772 589.6343 203.7339 589.4456 198.5995 597.0224 198.4788 618.248 176.1 618.8989 173.8743 620.6065 171.2013 626.5602 169.9031 630.0337 164.5138 628.4493 162.1822 628.9975 161.8124 630.8092 162.8133 634.1871 155.5443 638.6842 150.5551 637.701 145.7705 638.4389 142.5176 640.6104 143.1596 639.1199 139.031 642.6938 137.3152 642.8772 134.3335 646.1224 134.5993 648.4499 130.8923 652.682 128.1834 Z" id="fips-01019"/>
</g>
</svg>