<?xml version="1.0"?>
<svg xmlns="http://www.w3.org/2000/svg" version="1.2" baseProfile="tiny" width="800" height="700" viewBox="0 0 800 700" stroke-linecap="round" stroke-linejoin="round">
<g id="cb_2018_us_county_5m">
<path d="M 193.1263 353.2693 193.1535 347.5108 210.5744 347.5002 231.1044 347.8989 245.2929 348.0143 262.5929 348.0397 262.48 362.16 260.8351 365.419 260.7104 374.8804 277.7942 375.38 277.5081 384.1279 288.7927 384.3147 288.7186 386.9471 288.6213 389.9126 291.4789 389.9751 291.1607 401.5812 276.9571 401.1627 271.1929 401.0009 271.4046 412.4846 265.7578 413.1701 265.672 424.2084 238.2462 423.5897 219.4819 422.8853 216.5698 422.7519 193.5551 422.1262 190.356 422.1464 191.345 381.3678 191.3694 379.6928 191.7257 364.8282 193.0826 364.8361 193.1263 353.2693 Z" id="fips-05051"/>
<path d="M 576.0633 230.9518 575.9622 222.1935 575.8974 212.9669 576.3628 213.3119 593.3915 213.2862 610.774 212.2345 628.1979 211.1554 645.2592 211.0392 645.2599 212.4522 662.8227 212.1085 663.0521 229.5566 663.1899 264.4037 663.8893 271.2511 663.889 271.4194 646.515 271.4062 646.2462 271.1451 642.6525 271.123 642.0482 271.4821 628.3627 271.1632 612.014 271.3896 610.8729 271.2909 576.1739 271.9253 576.0633 230.9518 Z" id="fips-05037"/>
<path d="M 330.3739 280.452 332.2543 277.9329 335.7804 280.1747 338.0426 275.7994 339.2252 268.4205 334.6151 265.2696 335.7103 258.9897 334.171 258.3899 338.6102 255.2136 336.9472 251.8814 341.8415 247.1716 342.3008 229.7378 355.5423 230.0449 356.8552 230.0578 379.3841 230.6384 390.8546 230.8337 400.4337 230.9223 402.2947 230.7758 401.6775 263.7041 401.5985 271.7618 401.1486 289.678 400.9841 297.4569 400.9204 300.4717 386.8268 300.1001 383.6246 300.0662 383.2787 317.3503 378.0616 317.2429 352.4065 316.5687 352.6388 320.1969 347.3465 322.6048 348.6453 328.79 347.8495 331.4258 349.6643 334.3557 345.496 331.4037 346.9078 321.623 343.0993 313.6999 341.9372 312.7382 332.0245 312.2577 327.5234 310.351 323.3318 303.795 325.5508 298.9616 327.8738 297.3038 329.3334 295.9315 331.8639 292.012 332.5879 287.5922 332.5167 285.3688 332.0053 283.6262 331.1635 281.1921 330.3739 280.452 Z" id="fips-05045"/>
<path d="M 311.5183 419.4079 318.7359 419.6392 318.9943 417.129 324.5363 411.1999 342.8956 411.6828 344.1411 411.712 354.8236 411.9564 355.0042 403.2322 356.392 403.2624 380.8533 403.6563 387.0442 403.7902 386.9062 421.1184 386.8665 424.8898 386.7201 438.5231 386.595 440.8259 386.5566 444.3395 386.366 455.955 383.137 455.8782 383.0702 489.38 366.0411 489.9397 359.8663 486.8824 359.7457 484.6078 356.6023 481.0295 354.7086 478.8586 351.265 476.8822 347.7002 477.3411 344.2888 474.4738 340.5341 475.3743 340.2036 473.1279 309.811 472.0138 310.6739 454.1773 311.5183 419.4079 Z" id="fips-05053"/>
<path d="M 105.311 367.6682 113.8675 367.8601 113.9571 363.4878 115.3033 358.4495 123.991 358.8489 129.7951 357.5156 129.8489 354.6538 135.6949 354.9099 135.8112 352.0149 141.5117 352.32 193.1263 353.2693 193.0826 364.8361 191.7257 364.8282 191.3694 379.6928 191.345 381.3678 190.356 422.1464 190.1007 433.542 178.5273 433.1633 103.5916 430.3802 104.6509 390.4701 105.311 367.6682 Z" id="fips-05097"/>
<path d="M 401.1486 289.678 406.1588 290.0044 408.4792 287.9442 412.4855 289.5245 418.4696 287.6693 421.1889 290.9988 423.7915 291.2598 423.5215 291.7151 428.6464 293.7838 432.2485 293.4359 436.7363 296.9971 437.695 296.2007 440.3882 297.8376 452.8155 296.5999 452.7593 318.2532 470.6934 318.5102 470.5995 327.2432 469.8968 367.7423 471.1623 367.9448 479.3946 374.6613 480.1558 376.7964 478.5763 379.4597 475.8918 386.0172 480.5657 388.6357 481.2058 391.3786 475.1852 398.1549 473.3907 402.1086 473.9103 405.5114 469.4602 405.3957 425.2683 404.467 418.7793 404.3397 416.2233 404.3739 416.1904 378.1497 402.4824 377.8592 404.8254 370.6989 404.5089 368.7779 405.6814 360.3919 408.0665 356.5619 408.3586 344.5564 408.6112 335.2308 408.4922 334.1136 408.501 334.0668 408.6753 329.3963 408.8502 323.1912 408.9295 319.1262 409.1493 300.5242 400.9204 300.4717 400.9841 297.4569 401.1486 289.678 Z" id="fips-05085"/>
<path d="M 366.0411 489.9397 383.0702 489.38 410.0098 489.0614 423.4031 488.9232 429.1179 488.855 429.3244 506.1408 425.4679 506.1376 425.7128 543.0156 425.8132 560.384 391.3389 560.3362 374.6322 560.3181 367.0947 559.8805 365.2674 552.9071 367.7069 545.9641 366.5121 542.5351 365.9865 535.9626 363.3665 531.0015 358.7485 527.7711 356.6292 524.3232 355.5061 518.9874 352.3002 514.0332 346.3774 507.2473 343.1667 507.232 343.82 490.4614 366.0411 489.9397 Z" id="fips-05025"/>
<path d="M 381.2251 161.3533 414.8839 162.1447 446.3476 162.5324 451.2218 162.5816 453.9839 161.132 453.55 196.4484 453.3458 212.0652 449.5498 213.223 448.0391 212.2623 446.73 215.0041 444.5766 215.9234 444.3759 231.4637 402.2947 230.7758 400.4337 230.9223 390.8546 230.8337 379.3841 230.6384 379.9604 198.8516 380.6173 195.9989 380.7033 189.6577 381.0691 174.386 381.2251 161.3533 Z" id="fips-05023"/>
<path d="M 259.6394 625.3542 265.3312 625.5503 288.5785 626.3906 293.0268 625.9713 295.927 623.4274 302.5289 624.5413 303.313 626.7777 309.0067 627.9421 312.4242 629.8603 314.873 627.3288 318.5246 629.1796 321.9741 628.1489 323.4159 626.2787 327.9278 627.5815 331.2272 627.8122 333.5995 629.8135 335.1315 637.6441 338.374 635.5982 340.9685 637.8471 342.2026 635.4562 345.8402 640.3257 343.5029 642.1348 345.7253 644.2981 346.7958 643.3969 348.1458 645.9469 350.5242 646.9542 358.9167 645.1843 363.9278 641.1533 362.5247 644.5182 367.5296 644.9566 367.9197 648.3249 370.8018 647.8893 373.0378 644.773 373.4192 647.9053 377.5157 647.9858 378.0159 649.9923 381.1807 650.7292 382.9757 649.1933 384.7739 650.121 383.5895 654.5567 386.9788 656.0831 385.2268 656.4076 385.2488 658.9437 389.7182 660.4578 392.4653 658.2433 391.9846 663.098 393.5532 663.1137 395.2116 666.3537 393.8919 668.1824 397.2757 666.6403 399.3883 668.1084 403.8489 669.2075 403.4559 674.2366 400.859 676.8573 400.237 681.2684 400.7997 686.5301 403.2968 686.5356 404.3063 694.123 408.3008 694.1071 410.8865 698.8312 385.2559 698.7254 373.6112 698.5438 366.4035 698.5043 361.9064 698.4531 360.6684 698.4364 344.0834 698.1835 338.8114 698.1516 338.4124 698.1511 334.0765 698.0946 303.8154 697.6684 303.0494 697.6483 301.7708 697.6587 301.5724 697.6543 301.5305 697.6534 300.1629 697.6503 289.6038 697.5194 283.8918 697.3344 281.6789 697.2516 281.6434 697.2443 279.9961 697.2253 277.7716 697.23 264.5946 697.0211 260.4965 696.9236 257.5674 696.8869 258.0364 680.9136 259.6394 625.3542 Z" id="fips-05139"/>
<path d="M 289.3346 159.2494 318.1551 160.1312 318.4035 145.7266 323.4813 145.8745 352.7753 146.1975 352.5068 160.6197 381.2251 161.3533 381.0691 174.386 380.7033 189.6577 380.6173 195.9989 379.9604 198.8516 379.3841 230.6384 356.8552 230.0578 355.5423 230.0449 342.3008 229.7378 342.6638 212.4476 328.4181 212.1225 282.5263 210.8057 282.7116 200.7178 282.7984 193.658 288.6155 193.721 289.3346 159.2494 Z" id="fips-05141"/>
<path d="M 1 1.1329 10.3645 1.3171 16.7222 1.5062 42.0055 1.9335 56.6883 2.2812 70.7241 2.601 81.8968 2.8468 82.0246 2.8509 83.6898 2.862 83.9556 2.8652 87.3906 2.9109 87.9764 2.9205 105.4717 3.198 106.2274 3.2095 112.1951 3.2984 114.7056 3.3353 120.9963 3.4118 120.6862 24.147 118.2325 24.1543 116.836 27.3711 118.4176 29.1913 120.6259 27.683 120.3172 35.7832 125.7292 38.3001 125.9989 40.4506 128.6271 41.7286 120.0663 41.4328 119.7632 55.8654 116.8551 55.7801 107.8465 55.4229 105.6054 58.124 103.2933 56.8744 103.0463 61.7764 101.4409 60.0903 99.0802 60.3136 97.5738 56.45 94.9362 57.694 95.9617 60.787 83.8278 60.2964 80.6044 60.1837 76.6765 60.0607 70.9217 59.7554 69.6159 59.7006 48.9544 58.7974 45.3137 58.6291 44.9737 65.3193 44.8875 67.3674 44.5735 73.025 35.9885 72.7923 35.0204 81.3466 30.8785 81.1954 9.7797 80.2854 8.5539 70.3431 8.3329 68.422 8.3296 68.3932 7.9479 65.0954 7.8214 64.032 7.1915 58.6252 7.1896 58.6107 7.1153 58.0575 6.7712 54.8198 6.7054 54.2726 6.6789 54.085 6.5575 52.8123 6.2951 50.9223 6.3 50.8167 5.3832 42.6304 5.1867 40.8741 4.5107 34.3881 4.2364 31.7535 3.4095 23.4165 3.1124 20.5209 3.0243 19.8901 2.6531 16.5688 1.8385 8.6828 1.5494 5.7502 1.3519 4.0076 1 1.1329 Z" id="fips-05007"/>
<path d="M 613.5946 2.8789 613.9052 2.8739 616.5865 2.8349 625.2855 2.7217 628.1957 2.6329 634.5475 2.5248 635.3068 2.5194 641.0479 2.3931 642.1831 2.3922 643.9643 2.3593 645.3952 2.3253 646.8591 2.3081 646.8699 2.308 659.0029 2.0863 659.823 2.0759 659.8952 2.0751 684.6037 1.6055 702.3264 1.3109 703.6374 1.2646 703.6422 1.2645 704.1821 1.2646 707.9161 1.1759 714.5373 1 714.2346 1.2296 714.3276 1.5233 713.388 4.328 713.5165 4.4061 716.2908 6.0917 716.488 8.5254 717.7593 13.1228 716.2815 15.5761 718.3571 17.39 721.8541 19.4949 726.5181 20.0435 728.874 22.8688 729.4352 28.693 727.2928 31.9066 726.9888 36.3643 729.6262 39.3996 727.3228 42.3354 726.6129 45.5762 721.6495 47.032 719.9873 51.4803 719.9887 54.2736 717.4535 54.699 715.3229 57.4217 711.0487 59.3015 710.0152 60.2795 709.8871 60.0728 688.9274 60.6874 688.855 49.0442 664.9076 49.3577 625.3709 48.5181 610.8261 48.9756 610.8187 44.7403 613.1401 43.6782 614.7529 45.4706 617.4047 44.8519 619.9039 46.1067 619.5491 45.4567 619.6078 19.8257 616.0939 19.83 618.196 18.0555 614.5546 14.9778 615.3175 13.0286 616.0027 5.4734 613.5946 2.8789 Z" id="fips-05021"/>
<path d="M 143.082 297.7734 142.4703 292.3827 143.0778 274.8612 150.135 275.1689 150.2162 272.3086 171.8511 273.111 171.9765 270.2169 174.8737 270.3047 174.947 267.4211 177.7833 267.5443 179.3824 266.227 179.4466 261.9881 180.9772 260.4246 183.822 260.7015 183.83 259.2501 206.8041 260.1422 212.5828 260.1576 213.0285 239.314 217.2801 243.2311 218.1299 247.3732 220.0382 248.0389 225.5019 248.476 228.329 250.3852 232.7373 255.7889 235.302 260.9023 236.8546 266.7196 239.306 268.4795 243.7269 266.5417 245.4944 267.4191 244.8589 269.6115 243.0113 273.8687 244.1938 277.3233 248.0211 279.3075 250.5276 279.1504 252.6811 277.834 253.4329 276.2786 253.0515 272.3757 253.5051 270.9374 254.4584 270.2439 270.4093 267.7888 274.8958 268.8837 270.3141 269.328 265.1365 274.8855 261.3858 276.6387 261.2462 279.2744 251.3215 281.0335 253.6514 285.1439 251.3133 287.4015 249.5676 287.3801 249.5115 290.2879 246.6144 290.2154 246.5587 293.1056 243.6665 293.043 243.643 295.8887 240.6701 295.8954 240.5898 299.0752 237.6866 298.8991 237.6124 301.7616 234.7354 301.6551 234.6372 304.5192 231.7059 304.4389 231.7014 307.3418 228.2319 307.2371 228.162 310.0998 225.1794 310.0232 225.077 312.94 222.3449 312.8485 222.3 315.8812 219.4148 315.8785 219.4083 318.7616 216.6204 318.6932 216.5582 321.0938 213.6155 321.5349 213.5572 324.4607 210.7024 324.5361 210.68 327.2003 207.8262 327.1163 207.7687 329.9989 210.6397 330.0433 210.5744 347.5002 193.1535 347.5108 193.1263 353.2693 141.5117 352.32 142.4049 320.5589 142.5659 315.2015 143.082 297.7734 Z" id="fips-05149"/>
<path d="M 116.8551 55.7801 119.7632 55.8654 120.0663 41.4328 128.6271 41.7286 153.9144 42.7468 152.9897 48.3161 156.7263 46.7223 158.1181 47.8483 156.4048 49.7046 160.1366 51.6094 159.7107 63.0671 161.0008 65.9919 165.3062 66.2065 165.198 70.0624 165.1382 72.1765 170.7145 72.3716 170.5834 78.0879 182.0788 78.4491 181.8752 87.1238 187.433 87.3147 186.9652 92.7258 186.3817 109.8194 183.6002 109.7808 183.5078 112.654 180.6521 112.5826 180.4736 118.3588 177.5682 118.1389 177.2982 126.9051 174.4599 126.7729 173.9382 138.2946 175.3874 138.3655 174.9165 150.2519 146.415 148.9014 111.8198 147.3192 111.7367 150.1997 103.3443 149.8404 103.9335 135.4637 105.3471 135.4898 105.8346 124.0185 106.5292 106.704 106.9442 95.6321 107.3707 84.2567 116.8551 55.7801 Z" id="fips-05087"/>
<path d="M 423.7111 621.2585 440.2022 621.5326 443.2391 621.5303 487.4708 622.1965 512.1624 622.4584 512.3757 698.59 507.5778 698.5823 505.7526 698.48 495.8535 698.5593 493.714 698.5646 492.4955 698.6618 492.4683 698.6529 487.6002 698.6866 486.1638 698.6666 484.6542 698.6945 484.4927 698.6941 466.5033 698.648 463.2468 698.7819 443.2287 698.765 430.7454 698.8727 430.4192 698.8926 410.8865 698.8312 408.3008 694.1071 404.3063 694.123 403.2968 686.5356 400.7997 686.5301 400.237 681.2684 400.859 676.8573 403.4559 674.2366 403.8489 669.2075 399.3883 668.1084 400.5123 665.9516 399.6022 661.4526 400.8692 658.9978 403.1237 659.3836 403.0021 656.1083 405.2147 657.0455 407.5318 655.5671 408.1426 652.5913 410.3806 653.0947 409.8847 650.7501 414.8547 649.3787 415.9767 647.5545 415.1855 645.1419 417.5148 645.7427 421.9785 643.6158 420.6209 641.3071 425.9353 640.3663 426.5431 636.673 424.1915 632.6247 427.5849 629.5291 427.1667 626.9999 428.7351 625.3024 424.2639 623.4284 423.7111 621.2585 Z" id="fips-05003"/>
<path d="M 190.356 422.1464 193.5551 422.1262 216.5698 422.7519 219.4819 422.8853 238.2462 423.5897 265.672 424.2084 265.7578 413.1701 271.4046 412.4846 271.1929 401.0009 276.9571 401.1627 291.1607 401.5812 294.0471 401.5651 300.1617 401.6742 300.0392 407.5189 308.8635 407.6981 308.6573 419.3102 311.5183 419.4079 310.6739 454.1773 309.811 472.0138 287.5 471.5415 275.6078 470.6549 251.9692 469.5619 250.4902 470.6125 249.836 465.672 251.5812 462.4125 252.6884 461.3908 251.8861 459.0924 250.639 457.4927 251.3249 454.5424 243.1147 454.6319 242.1978 452.6148 224.2243 452.0197 224.4563 446.2014 215.7939 445.9212 199.3508 445.4308 198.4134 445.3945 198.6891 433.7872 190.1007 433.542 190.356 422.1464 Z" id="fips-05059"/>
<path d="M 176.0582 605.0609 176.6414 587.7203 177.8201 557.2282 177.9497 553.983 178.0605 552.9058 178.1524 550.0534 178.719 535.6808 180.4212 535.7461 181.3711 509.5422 187.5586 511.2026 195.1078 509.629 195.0496 510.7939 199.6302 513.7707 201.0879 517.8713 206.4422 521.5002 205.8295 524.6583 208.634 532.0798 208.8051 532.2306 208.9706 532.3149 209.1664 532.3825 209.2459 532.3478 209.2822 532.3053 209.3705 532.2767 209.4689 532.1946 209.5276 532.1694 209.6038 532.2007 209.7243 532.2413 209.8057 532.3453 209.8082 532.3805 209.895 532.453 210.0881 532.5449 210.3792 532.7754 210.4523 532.8432 210.5716 532.8915 210.7479 532.9228 210.8839 532.9275 211.067 532.8113 211.1409 532.8014 211.214 532.8266 211.2387 532.861 211.288 533.0123 211.2594 533.0341 214.0601 535.329 217.8064 534.8176 223.7575 537.0628 226.871 541.0852 230.7711 538.3928 233.3592 538.0547 235.2412 542.6326 237.8694 545.155 239.2561 545.7751 236.843 610.1846 219.4839 609.6346 219.4193 612.5363 201.9294 611.727 195.4885 611.5354 175.8555 610.7938 176.0582 605.0609 Z" id="fips-05099"/>
<path d="M 251.3133 287.4015 261.0433 287.7323 264.0095 287.7002 272.6683 287.9512 304.0607 288.6602 310.7273 287.3427 314.9934 282.1467 319.1293 281.2631 318.9041 284.4781 315.8431 286.1989 315.7173 287.7668 319.4383 287.5112 323.0443 285.9922 328.9587 279.9434 330.3739 280.452 331.1635 281.1921 332.0053 283.6262 332.5167 285.3688 332.5879 287.5922 331.8639 292.012 329.3334 295.9315 327.8738 297.3038 325.5508 298.9616 323.3318 303.795 327.5234 310.351 332.0245 312.2577 332.0182 312.5534 331.9766 315.6503 325.1363 315.3941 315.1664 315.0351 314.8063 320.8386 297.8932 320.553 297.5629 331.9919 300.117 332.0498 299.9682 337.0873 297.3935 334.2082 293.4392 334.7855 289.8962 332.735 287.3943 333.1802 285.4496 331.6262 262.6518 330.773 245.6129 330.8773 245.2929 348.0143 231.1044 347.8989 210.5744 347.5002 210.6397 330.0433 207.7687 329.9989 207.8262 327.1163 210.68 327.2003 210.7024 324.5361 213.5572 324.4607 213.6155 321.5349 216.5582 321.0938 216.6204 318.6932 219.4083 318.7616 219.4148 315.8785 222.3 315.8812 222.3449 312.8485 225.077 312.94 225.1794 310.0232 228.162 310.0998 228.2319 307.2371 231.7014 307.3418 231.7059 304.4389 234.6372 304.5192 234.7354 301.6551 237.6124 301.7616 237.6866 298.8991 240.5898 299.0752 240.6701 295.8954 243.643 295.8887 243.6665 293.043 246.5587 293.1056 246.6144 290.2154 249.5115 290.2879 249.5676 287.3801 251.3133 287.4015 Z" id="fips-05105"/>
<path d="M 9.7797 80.2854 30.8785 81.1954 35.0204 81.3466 35.9885 72.7923 44.5735 73.025 44.8875 67.3674 44.9737 65.3193 45.3137 58.6291 48.9544 58.7974 69.6159 59.7006 70.9217 59.7554 76.6765 60.0607 80.6044 60.1837 83.8278 60.2964 95.9617 60.787 94.9362 57.694 97.5738 56.45 99.0802 60.3136 101.4409 60.0903 103.0463 61.7764 103.2933 56.8744 105.6054 58.124 107.8465 55.4229 116.8551 55.7801 107.3707 84.2567 106.9442 95.6321 106.5292 106.704 105.8346 124.0185 105.3471 135.4898 103.9335 135.4637 103.3443 149.8404 80.2089 148.8119 77.3321 148.6882 77.1848 151.5111 63.059 150.772 52.0204 150.218 51.6171 150.1935 34.8726 149.3879 17.8615 148.6687 17.8035 148.1254 17.6387 146.8472 17.0187 141.8321 16.9361 141.1444 16.8183 140.0022 16.7849 139.7673 16.7316 139.2472 16.4787 137.0984 16.2871 135.2733 16.1235 133.8265 15.8545 131.3806 14.4894 120.2242 13.8077 113.7708 13.81 113.6617 13.8142 113.6433 13.7751 113.3969 13.5779 111.8174 13.5374 111.4831 13.0555 107.5087 13.0341 107.4309 12.5212 103.086 12.3061 101.3015 12.1373 100.13 12.019 99.1077 10.3899 85.2619 10.3692 85.0606 9.7797 80.2854 Z" id="fips-05143"/>
<path d="M 21.8063 312.8533 24.7846 313.4206 28.1377 309.8061 30.9198 311.1239 33.5417 310.1782 34.9913 307.479 38.0517 310.4067 42.0652 308.864 46.8062 309.5708 53.1338 308.3181 57.3404 306.6479 57.4672 303.206 58.0113 289.3749 57.3037 288.9178 54.3523 288.7678 54.4009 287.6564 54.3933 287.2934 57.395 286.3703 63.4869 283.4219 69.4248 282.2112 69.4947 280.7464 72.433 280.8301 72.09 289.5725 83.1512 290.0913 82.9637 295.5398 143.082 297.7734 142.5659 315.2015 142.4049 320.5589 141.5117 352.32 135.8112 352.0149 135.6949 354.9099 129.8489 354.6538 129.7951 357.5156 123.991 358.8489 115.3033 358.4495 113.9571 363.4878 113.8675 367.8601 105.311 367.6682 105.4202 364.7877 91.0306 363.9272 91.0644 362.1092 42.1479 360.2625 42.3848 354.5037 19.9005 353.5787 20.8453 333.9838 21.1118 328.4561 21.14 327.8042 21.1628 327.2794 21.289 324.5141 21.4431 321.474 21.4529 320.759 21.4325 320.4172 21.8063 312.8533 Z" id="fips-05127"/>
<path d="M 487.8676 196.9182 522.2248 197.398 522.1431 185.2625 522.1057 174.8028 529.17 175.3157 529.4555 173.1915 526.7276 172.3702 526.8348 169.7635 524.5096 167.0558 525.5226 165.1476 524.1283 163.782 525.6117 158.6179 526.8768 160.2504 527.6393 154.7142 531.2544 149.6185 534.1812 148.4859 536.4863 144.2955 537.5753 145.1409 541.3651 142.5038 539.1542 142.0854 541.3895 140.2597 543.7156 140.2293 543.5821 138.2094 541.1974 135.9765 543.1033 136.1852 544.3638 133.9985 547.4531 132.9018 545.3546 132.392 546.8961 130.9464 545.8856 126.4634 548.9741 124.7844 558.597 124.6668 575.7294 125.4142 575.5752 143.0128 575.5145 160.5398 575.8974 212.9669 575.9622 222.1935 576.0633 230.9518 541.7312 230.7408 541.289 213.1914 525.5414 213.5457 526.0276 214.7058 487.5661 214.4444 487.8676 196.9182 Z" id="fips-05067"/>
<path d="M 610.7062 72.2967 610.8261 48.9756 625.3709 48.5181 664.9076 49.3577 688.855 49.0442 688.9274 60.6874 709.8871 60.0728 710.0152 60.2795 708.266 61.9344 706.8384 63.9898 705.1181 63.4794 702.8374 68.6221 702.8919 72.5337 699.7366 75.0661 696.0679 77.0706 693.5567 78.0109 692.7516 80.9535 689.6957 82.6611 689.8673 85.5329 687.5299 87.175 686.6407 91.2483 684.8047 95.3096 680.665 101.5987 679.2696 107.7863 667.5435 107.9425 661.7948 108.0246 647.4092 108.2401 644.5817 108.2721 634.4732 108.3077 604.5163 108.476 606.1662 106.3764 603.4068 103.9529 603.9527 101.632 606.6052 97.6793 606.3759 94.1781 608.5477 91.0376 609.1514 86.2442 613.9686 83.4039 617.0798 79.3608 617.4016 76.4956 618.1939 75.1664 620.585 72.7779 620.7131 72.2198 617.3102 72.2326 610.7062 72.2967 Z" id="fips-05055"/>
<path d="M 394.388 52.173 445.7786 53.106 469.0349 53.3648 468.9735 62.1382 471.8779 62.2354 471.8347 70.9422 470.9809 99.1566 469.4431 99.9211 470.8974 103.5974 466.5403 103.554 466.4376 115.3152 459.548 115.1408 444.1706 130.2435 441.4538 127.3197 436.5949 127.2248 430.0652 121.3865 427.4191 117.5649 424.9162 115.8711 422.8047 115.9754 419.0762 120.0461 415.4444 119.3581 415.0284 116.1124 412.2065 115.2891 407.0224 118.5242 401.7125 116.6754 402.0478 114.0001 406.0685 110.837 405.9971 106.7992 403.7945 102.9293 405.0201 100.0495 409.5487 99.2089 410.562 97.1844 407.7411 93.5033 401.5692 91.25 399.555 87.8259 397.3488 81.7875 394.9467 81.1637 391.3572 83.8048 389.3042 83.1811 388.291 77.7223 385.1155 77.5998 385.305 69.3206 393.975 69.5603 394.388 52.173 Z" id="fips-05065"/>
<path d="M 267.9591 81.085 276.6267 81.3229 285.2734 81.4369 285.291 90.1191 302.2134 90.6748 326.2697 91.157 340.0176 91.4653 343.1106 91.5012 353.5982 91.6944 353.15 108.9675 352.7753 146.1975 323.4813 145.8745 318.4035 145.7266 318.1551 160.1312 289.3346 159.2494 266.4884 158.7003 267.3404 141.1352 268.432 105.9468 268.904 89.7164 267.7739 89.6774 267.9591 81.085 Z" id="fips-05129"/>
<path d="M 352.7753 146.1975 353.15 108.9675 370.384 109.3195 370.7243 92.0128 387.9718 92.3359 388.291 77.7223 389.3042 83.1811 391.3572 83.8048 394.9467 81.1637 397.3488 81.7875 399.555 87.8259 401.5692 91.25 407.7411 93.5033 410.562 97.1844 409.5487 99.2089 405.0201 100.0495 403.7945 102.9293 405.9971 106.7992 406.0685 110.837 402.0478 114.0001 401.7125 116.6754 407.0224 118.5242 412.2065 115.2891 415.0284 116.1124 415.4444 119.3581 419.0762 120.0461 422.8047 115.9754 424.9162 115.8711 427.4191 117.5649 430.0652 121.3865 436.5949 127.2248 441.4538 127.3197 444.1706 130.2435 444.1689 134.4456 440.7672 141.5652 441.7629 149.4596 446.4707 153.7993 446.3476 162.5324 414.8839 162.1447 381.2251 161.3533 352.5068 160.6197 352.7753 146.1975 Z" id="fips-05137"/>
<path d="M 212.6071 4.539 213.0319 4.5442 235.351 4.7988 239.3756 4.8414 245.2864 4.8144 245.5027 4.8048 248.3992 4.8226 248.5682 4.822 276.3964 5.0473 276.45 5.0509 282.8355 5.0519 282.7044 11.6825 279.6804 9.4738 277.9708 6.4762 277.2243 37.7807 276.9845 40.7095 276.8998 66.9606 276.6267 81.3229 267.9591 81.085 267.9607 80.9872 251.1357 80.7479 245.3257 80.1154 236.5384 80.415 216.4941 79.7136 210.7691 79.4202 211.0616 68.0612 211.2279 57.3864 211.6002 44.6383 212.0061 20.643 211.7776 4.8062 212.6071 4.539 Z" id="fips-05009"/>
<path d="M 507.6251 284.4193 509.9895 281.8407 514.1563 281.5041 510.8604 280.7146 511.8189 278.7355 509.6569 274.8277 513.4261 275.0124 511.98 271.4541 508.3906 271.3524 508.3167 269.0803 512.491 268.9182 514.4804 266.4965 513.6926 265.2419 513.481 263.6362 515.4112 263.8044 515.9972 263.2244 516.6959 259.8312 518.5618 260.2953 518.6479 262.7773 518.8605 263.5175 521.3674 264.4389 521.5774 263.9789 521.689 263.0701 521.6451 262.9395 521.2977 262.6769 520.3525 262.7411 519.8571 262.5586 519.5349 262.0518 519.5793 261.5822 520.9305 259.9936 521.2485 259.2875 520.9706 258.9228 520.7064 258.8383 519.721 258.8792 519.0359 258.5963 518.8018 258.1983 518.8177 257.8867 519.0179 257.7003 519.4279 257.6256 519.8387 257.8034 520.7722 258.33 521.0232 258.312 521.4552 257.8909 521.4864 257.5549 521.3273 257.2484 521.0177 257.0413 520.3413 256.7164 519.7997 256.0553 519.6882 255.6628 519.7404 254.9573 519.9091 254.5752 520.1555 253.484 520.3086 253.1183 520.7207 252.582 521.4098 252.1627 522.0237 251.6672 522.3181 251.233 522.5502 250.3771 522.5561 249.7629 522.4664 249.4087 522.2637 249.0601 521.7175 248.8186 521.4311 248.9002 521.1534 249.3273 521.1374 249.711 521.2332 250.4144 521.2472 250.9313 521.158 251.3148 520.6692 251.853 520.2642 252.0605 519.8356 252.1194 517.6668 249.4797 515.9245 249.454 515.9499 246.9425 515.7222 241.8668 511.7114 243.2868 513.6671 236.5522 512.8259 235.0095 510.4134 233.3256 513.5142 231.957 511.4389 228.7231 512.6207 228.2761 515.5635 230.4909 516.0669 229.3543 513.4569 227.5683 516.8476 225.3145 518.8853 227.5122 520.2937 227.0587 517.4817 224.3514 522.3021 221.301 522.0655 218.23 523.3726 216.5054 524.5826 220.8936 526.3818 217.7468 524.4378 216.5092 526.0276 214.7058 525.5414 213.5457 541.289 213.1914 541.7312 230.7408 576.0633 230.9518 576.1739 271.9253 576.1358 301.1858 559.1315 301.1302 549.5995 301.053 544.8552 300.9465 544.796 304.8069 535.8431 304.8704 535.7357 319.3152 523.7096 319.3926 523.8203 300.5945 524.1923 291.7185 511.4737 291.7856 511.9498 290.0478 508.304 291.8847 505.6963 290.8785 505.9069 289.004 510.7437 288.7541 507.6251 284.4193 Z" id="fips-05147"/>
<path d="M 367.0947 559.8805 374.6322 560.3181 391.3389 560.3362 425.8132 560.384 425.8185 561.8349 425.9315 595.1157 420.6663 595.1973 422.1383 601.0121 420.5221 603.6592 421.9923 606.2171 419.4853 609.5743 420.1034 611.7356 423.3285 613.7813 421.7176 617.7702 423.7111 621.2585 424.2639 623.4284 428.7351 625.3024 427.1667 626.9999 427.5849 629.5291 424.1915 632.6247 426.5431 636.673 425.9353 640.3663 420.6209 641.3071 421.9785 643.6158 417.5148 645.7427 415.1855 645.1419 415.9767 647.5545 414.8547 649.3787 409.8847 650.7501 410.3806 653.0947 408.1426 652.5913 407.5318 655.5671 405.2147 657.0455 403.0021 656.1083 403.1237 659.3836 400.8692 658.9978 399.6022 661.4526 400.5123 665.9516 399.3883 668.1084 397.2757 666.6403 393.8919 668.1824 395.2116 666.3537 393.5532 663.1137 391.9846 663.098 392.4653 658.2433 389.7182 660.4578 385.2488 658.9437 385.2268 656.4076 386.9788 656.0831 383.5895 654.5567 384.7739 650.121 382.9757 649.1933 381.1807 650.7292 378.0159 649.9923 377.5157 647.9858 373.4192 647.9053 373.0378 644.773 370.8018 647.8893 367.9197 648.3249 367.5296 644.9566 362.5247 644.5182 363.9278 641.1533 359.2421 638.0184 358.715 632.4655 359.9229 625.3141 362.3255 625.0834 363.0778 620.7318 365.3866 618.2001 365.5322 615.4352 367.6183 612.4045 368.9181 607.3351 368.5843 603.8885 370.3289 600.791 368.4486 596.3706 369.8906 590.9483 368.2127 586.8107 368.7521 584.3021 367.4655 577.9354 368.718 575.3027 367.8047 568.4689 368.8769 564.9424 367.0947 559.8805 Z" id="fips-05011"/>
<path d="M 173.9168 695.9954 175.8522 648.0091 182.455 648.4391 184.0314 644.795 183.4771 642.2258 185.6517 639.8571 185.2351 638.3748 184.7732 636.9271 186.1116 634.4453 193.6213 613.8833 195.4885 611.5354 201.9294 611.727 219.4193 612.5363 219.4839 609.6346 236.843 610.1846 236.3094 624.6146 253.751 625.193 259.6394 625.3542 258.0364 680.9136 257.5674 696.8869 243.9015 696.7088 243.488 696.6852 242.1108 696.6705 238.8511 696.6777 238.774 696.6863 235.7255 696.6581 229.9541 696.6031 222.7775 696.5318 219.7356 696.4208 215.9086 696.4706 204.3109 696.3421 204.2748 696.3372 198.9483 696.259 192.8169 696.2235 177.8307 696.0023 177.8214 696.0023 174.0858 695.997 173.9168 695.9954 Z" id="fips-05027"/>
<path d="M 274.8958 268.8837 281.5787 268.4951 281.7611 251.1147 282.5263 210.8057 328.4181 212.1225 342.6638 212.4476 342.3008 229.7378 341.8415 247.1716 336.9472 251.8814 338.6102 255.2136 334.171 258.3899 335.7103 258.9897 334.6151 265.2696 339.2252 268.4205 338.0426 275.7994 335.7804 280.1747 332.2543 277.9329 330.3739 280.452 328.9587 279.9434 323.0443 285.9922 319.4383 287.5112 315.7173 287.7668 315.8431 286.1989 318.9041 284.4781 319.1293 281.2631 314.9934 282.1467 310.7273 287.3427 304.0607 288.6602 272.6683 287.9512 264.0095 287.7002 261.0433 287.7323 251.3133 287.4015 253.6514 285.1439 251.3215 281.0335 261.2462 279.2744 261.3858 276.6387 265.1365 274.8855 270.3141 269.328 274.8958 268.8837 Z" id="fips-05029"/>
<path d="M 512.1624 622.4584 512.4835 587.7233 529.6943 587.5554 529.5766 596.3369 530.3189 593.5212 532.4711 593.5048 533.8985 596.4655 546.9918 596.6003 547.0851 587.7976 549.3586 587.7807 549.2676 587.9367 549.0896 588.5628 549.1405 589.4897 549.5616 590.6259 550.1566 591.781 551.3417 593.523 551.9495 594.1001 556.6851 597.7926 557.1494 598.4205 557.445 599.4077 557.4261 600.1566 557.0059 600.602 556.3944 601.2843 555.3677 602.1991 554.7241 603.2692 553.7408 605.1841 553.5674 605.8313 553.2759 606.1732 552.1287 606.9479 551.356 607.3022 550.8349 607.3644 549.4679 608.5069 549.3216 609.1333 549.2061 611.1065 549.0628 611.4538 548.7983 611.7927 548.926 612.1169 551.8898 612.9303 553.0696 613.0952 553.6448 613.0782 555.6541 612.5539 556.9226 612.094 557.7785 611.6483 558.517 611.0708 559.8109 609.2672 559.3828 607.3419 558.7238 605.4779 558.4828 604.0621 558.4379 602.6173 558.702 601.6995 559.2304 600.5158 560.0238 600.1851 560.5869 600.3481 561.236 600.8604 561.7086 601.2332 565.163 603.4943 567.0988 605.1548 568.0331 607.6495 568.33 608.9223 568.2557 609.8558 567.8377 610.9652 566.6138 612.4282 566.2958 613.0329 566.2977 613.3038 566.0827 613.6718 564.8853 614.3052 563.9333 614.1683 563.4725 614.2805 560.8762 615.3108 558.7497 616.3671 558.2369 616.3394 557.3917 615.868 556.1441 616.251 554.9181 616.1484 554.3864 616.451 553.9459 616.9735 553.3898 618.076 553.3096 618.5598 553.347 619.0875 553.5034 619.4088 554.0677 620.0347 556.3518 621.8328 558.7225 623.1532 559.5525 623.5027 560.4959 623.7532 562.5373 623.8851 564.7044 623.5463 567.5606 622.1077 569.1827 620.9735 570.2618 619.7756 571.5481 617.9364 572.1989 616.0901 572.1572 614.4615 571.7868 613.2641 571.7722 612.8683 571.8962 612.0958 572.2886 611.083 572.7291 610.3519 573.556 609.2958 574.3227 608.7661 574.9856 608.4669 575.5256 608.4271 576.677 608.5518 577.1651 608.8093 577.9826 609.4973 578.2943 610.2965 578.3616 610.4693 578.3177 613.7768 577.6524 615.2703 575.5337 618.3352 572.9783 620.3945 571.2406 622.1256 570.376 623.3395 568.154 626.8142 567.3833 627.5618 564.9005 629.3132 564.6381 629.5901 564.57 629.807 564.8088 632.2878 564.664 632.9913 564.4276 633.48 564.3807 633.9024 564.7797 636.6958 564.7932 639.6333 565.0593 640.2104 567.5124 643.4307 567.5281 644.5282 567.12 645.7719 568.7766 647.0283 568.9438 647.3016 569.4451 648.8317 570.0886 650.2191 570.8337 651.0302 571.8475 651.7469 572.0148 651.7351 572.3654 651.0437 572.7056 649.2759 573.2361 648.4063 573.4204 647.9095 574.0771 644.6553 574.4704 643.675 574.8705 643.1343 575.3162 642.7196 576.3003 642.1935 577.2161 641.9235 578.5967 641.9599 579.6576 642.2406 580.3656 642.7513 580.8757 643.4957 581.1394 644.3624 581.0922 645.3174 580.9036 646.2007 580.5097 647.2826 580.0744 649.0352 579.4697 650.0567 577.8659 651.8178 577.5919 652.691 577.0801 652.7072 576.6933 653.277 576.7641 653.8313 576.1991 653.9347 575.6038 653.8109 575.3479 654.0101 575.3547 654.529 575.2886 654.6619 574.7535 654.988 574.237 654.9904 573.2868 655.1685 573.6138 657.2747 574.1339 659.5901 574.6114 663.0923 574.5736 666.8803 574.477 668.0697 574.2707 669.4814 574.1671 670.1897 573.803 671.2921 573.2548 671.8816 571.4176 672.9255 569.7958 673.2978 566.8726 673.482 564.9274 673.3715 563.7553 673.2058 563.5044 672.989 563.3029 672.3375 562.0757 671.1364 561.8491 671.027 560.5563 670.873 558.1858 671.0914 557.3488 671.4756 556.6144 672.0963 556.2659 672.4988 555.2093 674.4219 555.1669 675.192 555.2987 677.498 555.3582 677.786 555.5207 678.0334 556.228 678.4954 558.76 679.6953 559.7941 681.0186 559.9957 681.4775 560.3378 681.7713 561.2737 682.0861 562.1515 682.1897 563.9655 682.9599 568.2036 686.3778 568.7898 687.3561 568.9482 687.9989 568.9374 688.2755 568.4471 689.8625 568.0988 691.5169 567.5386 692.4627 566.1589 693.4383 565.3318 693.7482 564.1118 693.9466 563.0515 694.5033 562.0272 695.2907 561.3942 696.9588 561.4465 698.394 544.9497 698.4021 541.7191 698.4552 537.1144 698.4572 535.3654 698.4612 534.9435 698.4614 534.7169 698.4615 534.1548 698.4588 533.6138 698.4434 526.4439 698.4688 518.1995 698.5106 516.4796 698.5115 513.548 698.5917 512.3757 698.59 512.1624 622.4584 Z" id="fips-05017"/>
<path d="M 136.3161 603.4307 150.7479 604.0267 176.0582 605.0609 175.8555 610.7938 195.4885 611.5354 193.6213 613.8833 186.1116 634.4453 184.7732 636.9271 185.2351 638.3748 185.6517 639.8571 183.4771 642.2258 184.0314 644.795 182.455 648.4391 175.8522 648.0091 173.9168 695.9954 173.8546 695.9948 168.8414 695.9071 168.8375 695.907 168.1838 695.8958 167.0866 695.8828 135.1236 695.3435 121.516 695.1793 121.6606 694.3646 119.2584 692.3266 117.8114 687.4134 112.5125 680.7595 113.5595 675.9244 113.7077 672.019 116.5604 669.7442 117.6866 671.3097 119.7645 671.2171 119.3821 670.2777 119.3305 667.9957 121.7082 666.7427 123.1765 666.2098 124.9264 668.599 124.9747 670.39 126.7333 669.3328 126.4758 667.6692 127.8713 665.9262 129.9103 666.5091 130.984 667.6082 133.2793 668.3993 133.6749 668.2401 133.9933 666.8768 132.4667 665.9893 129.2001 665.1521 131.5407 663.0906 132.1361 663.7934 133.4877 664.6223 135.2465 663.8014 132.7204 660.9257 132.0036 659.6074 133.3938 657.4715 135.5844 656.0485 137.3625 655.4383 138.5211 654.8566 137.266 654.5216 138.9799 650.4802 137.5604 647.1686 134.7467 643.6677 135.6473 642.3308 137.6971 643.3119 138.7481 644.4631 141.51 644.1174 142.5174 641.5569 141.4915 639.2328 140.4284 636.4584 142.0073 635.8532 145.0077 632.8609 142.1668 631.521 140.4807 631.5491 138.4736 628.9831 139.4021 627.4129 139.3877 626.0895 140.4746 625.1043 143.5955 625.0935 144.679 623.5715 143.6958 622.8343 140.0394 622.1419 137.9194 620.0871 135.9458 617.3318 134.974 616.4818 135.2807 614.5975 136.5638 614.3937 138.655 613.216 138.0319 611.2899 136.2627 612.4515 134.9636 613.8653 133.2263 614.3516 132.3631 613.59 133.3015 612.4216 135.1482 611.2899 134.2263 609.6793 133.6423 608.7951 134.2762 606.7384 136.3488 605.2598 136.3161 603.4307 Z" id="fips-05073"/>
<path d="M 282.8355 5.0519 285.2607 5.0517 285.3015 5.0427 295.8961 5.1419 329.1565 5.1231 334.7682 5.0555 334.1009 27.3246 331.4721 27.2509 330.9925 28.739 324.634 32.8124 326.9048 36.1373 334.0196 34.446 334.9129 35.7568 333.9507 38.6735 330.9226 37.3262 328.0769 40.019 327.5937 43.2743 331.1412 41.8464 333.5419 42.7414 335.6506 44.821 332.411 51.7593 336.0984 50.7287 339.5606 52.8399 343.4867 53.1075 343.1642 58.8639 345.9066 61.4415 342.7407 65.7004 345.2082 68.5376 348.8365 71.5602 351.272 68.7209 350.8815 71.6069 354.0646 73.8751 352.7675 74.4673 351.2007 74.4714 353.967 77.3961 353.5982 91.6944 343.1106 91.5012 340.0176 91.4653 326.2697 91.157 302.2134 90.6748 285.291 90.1191 285.2734 81.4369 276.6267 81.3229 276.8998 66.9606 276.9845 40.7095 277.2243 37.7807 277.9708 6.4762 279.6804 9.4738 282.7044 11.6825 282.8355 5.0519 Z" id="fips-05089"/>
<path d="M 559.1315 301.1302 576.1358 301.1858 576.1739 271.9253 610.8729 271.2909 612.014 271.3896 628.3627 271.1632 642.0482 271.4821 642.6525 271.123 646.2462 271.1451 646.515 271.4062 663.889 271.4194 663.8893 271.2511 680.5365 270.1209 679.9183 299.1159 680.2098 318.6733 645.7701 318.8788 633.9031 319.2652 625.0513 319.5032 591.6533 319.6594 576.2174 318.9037 567.6195 319.0484 567.6148 327.932 564.7092 327.9615 564.7819 319.086 558.9385 319.1526 559.1315 301.1302 Z" id="fips-05123"/>
<path d="M 469.0349 53.3648 489.1383 53.8681 489.1588 52.3791 489.0144 36.4852 497.5712 36.5209 506.8629 36.7033 506.9477 20.1806 507.2406 4.48 507.8353 4.4925 509.3988 4.4951 509.9111 4.5128 514.0723 4.4979 514.0922 4.4999 515.4881 7.9338 522.0781 10.8064 523.5335 19.555 529.9975 19.5823 529.8454 25.6702 532.8069 25.7517 532.6999 28.6189 535.4587 28.6296 535.4392 37.3083 538.2382 37.2767 538.3617 51.7834 538.3317 54.6489 526.7519 54.5035 526.6719 57.3075 523.8491 57.2986 523.6759 71.8117 523.6865 107.268 523.419 124.9635 506.1106 124.7692 506.2605 115.958 478.9156 115.6961 466.4376 115.3152 466.5403 103.554 470.8974 103.5974 469.4431 99.9211 470.9809 99.1566 471.8347 70.9422 471.8779 62.2354 468.9735 62.1382 469.0349 53.3648 Z" id="fips-05135"/>
<path d="M 25.9092 222.9437 25.8849 222.7595 26.1835 221.8845 26.3213 221.4805 26.3499 221.3968 25.4963 214.6496 29.4168 211.0132 33.6757 210.8207 38.3274 214.6719 41.3345 218.8253 39.8013 224.2793 40.6381 226.1398 46.6305 229.9593 50.6844 228.6871 53.8737 229.9533 56.8052 229.7383 58.1909 229.9948 62.8965 228.8656 65.4431 223.3728 69.0357 225.3967 73.6453 224.1916 74.3345 221.2925 70.1966 214.0446 70.9088 212.7915 73.3222 211.1353 82.3338 212.8274 84.2414 212.2786 84.0354 216.2619 83.8039 218.8121 82.9218 243.775 82.2074 257.8791 85.2156 258.1768 85.0659 261.1202 87.7896 261.237 88.1052 258.2772 91.0098 258.4357 90.9872 258.7724 90.3418 272.9351 72.7863 272.1495 72.433 280.8301 69.4947 280.7464 69.4248 282.2112 63.4869 283.4219 57.395 286.3703 54.3933 287.2934 54.4009 287.6564 54.3523 288.7678 57.3037 288.9178 58.0113 289.3749 57.4672 303.206 57.3404 306.6479 53.1338 308.3181 46.8062 309.5708 42.0652 308.864 38.0517 310.4067 34.9913 307.479 33.5417 310.1782 30.9198 311.1239 28.1377 309.8061 24.7846 313.4206 21.8063 312.8533 22.241 304.0546 23.0681 287.3095 23.6294 275.9437 23.7432 274.1399 24.0497 267.2581 24.0992 266.1464 24.1169 265.5959 24.2836 262.5415 24.2773 261.2677 24.2876 260.5301 24.4323 258.288 24.4781 257.8106 24.6662 253.8482 24.6677 252.1907 24.7112 251.6087 24.9022 250.0431 25.1138 245.8302 25.119 245.7247 25.1429 245.2408 25.2126 244.9188 25.2647 242.6146 25.2985 241.8181 25.5295 238.8399 26.1273 227.6364 26.1129 226.7412 26.2027 226.3055 25.9216 224.9676 26.0579 224.0724 25.9092 222.9437 Z" id="fips-05131"/>
<path d="M 232.093 157.661 266.4884 158.7003 289.3346 159.2494 288.6155 193.721 282.7984 193.658 282.7116 200.7178 282.5263 210.8057 281.7611 251.1147 281.5787 268.4951 274.8958 268.8837 270.4093 267.7888 254.4584 270.2439 253.5051 270.9374 253.0515 272.3757 253.4329 276.2786 252.6811 277.834 250.5276 279.1504 248.0211 279.3075 244.1938 277.3233 243.0113 273.8687 244.8589 269.6115 245.4944 267.4191 243.7269 266.5417 239.306 268.4795 236.8546 266.7196 235.302 260.9023 232.7373 255.7889 228.329 250.3852 225.5019 248.476 220.0382 248.0389 218.1299 247.3732 217.2801 243.2311 213.0285 239.314 211.8244 238.7651 209.6844 237.2929 209.9538 226.2857 210.4317 208.9684 222.1322 209.3265 222.1845 206.4437 222.7351 183.4158 231.3608 183.7275 232.093 157.661 Z" id="fips-05115"/>
<path d="M 558.9319 3.8532 563.7654 3.7529 563.8289 3.7566 576.2767 3.5459 577.7806 3.4831 582.143 3.4023 585.0493 3.3478 585.4352 3.3405 598.4455 3.1519 598.8213 3.1371 598.8696 3.1582 599.3165 3.1987 603.0441 3.0455 613.5946 2.8789 616.0027 5.4734 615.3175 13.0286 614.5546 14.9778 618.196 18.0555 616.0939 19.83 619.6078 19.8257 619.5491 45.4567 619.9039 46.1067 617.4047 44.8519 614.7529 45.4706 613.1401 43.6782 610.8187 44.7403 610.8261 48.9756 610.7062 72.2967 599.0585 72.3021 587.1686 72.4803 572.9199 72.5112 571.8242 72.2282 569.8123 74.1246 570.063 78.9812 568.5611 79.8408 568.6593 77.7387 566.3913 76.3184 566.9093 72.6928 560.9721 72.2159 557.4105 69.7301 557.0002 67.0159 554.8229 64.875 553.8605 61.9222 550.6029 61.9381 547.2575 59.4888 543.51 58.2335 542.6296 55.1276 541.1485 58.1537 541.2781 51.791 538.3617 51.7834 538.2382 37.2767 535.4392 37.3083 535.4587 28.6296 532.6999 28.6189 532.8069 25.7517 529.8454 25.6702 529.9975 19.5823 523.5335 19.555 522.0781 10.8064 515.4881 7.9338 514.0922 4.4999 514.411 4.486 514.4472 4.4946 542.8139 4.0761 544.2127 4.0696 544.4182 4.0776 558.9319 3.8532 Z" id="fips-05121"/>
<path d="M 334.7682 5.0555 336.7329 5.0314 348.3538 5.0777 352.1492 5.1989 357.8162 5.2102 359.3776 5.3376 363.3544 5.2175 368.4471 5.227 369.8841 5.1887 384.7502 5.0578 385.1128 5.0659 385.5434 5.0603 387.4699 5.0645 395.3175 4.9872 395.1979 9.0344 394.7639 33.7591 394.6164 34.7416 394.143 46.9564 394.0329 51.7306 394.388 52.173 393.975 69.5603 385.305 69.3206 385.1155 77.5998 388.291 77.7223 387.9718 92.3359 370.7243 92.0128 370.384 109.3195 353.15 108.9675 353.5982 91.6944 353.967 77.3961 351.2007 74.4714 352.7675 74.4673 354.0646 73.8751 350.8815 71.6069 351.272 68.7209 348.8365 71.5602 345.2082 68.5376 342.7407 65.7004 345.9066 61.4415 343.1642 58.8639 343.4867 53.1075 339.5606 52.8399 336.0984 50.7287 332.411 51.7593 335.6506 44.821 333.5419 42.7414 331.1412 41.8464 327.5937 43.2743 328.0769 40.019 330.9226 37.3262 333.9507 38.6735 334.9129 35.7568 334.0196 34.446 326.9048 36.1373 324.634 32.8124 330.9925 28.739 331.4721 27.2509 334.1009 27.3246 334.7682 5.0555 Z" id="fips-05005"/>
<path d="M 395.3175 4.9872 397.324 4.9668 400.0931 4.9268 400.1105 4.9266 403.6188 4.927 407.3623 4.9219 410.2003 4.9293 410.4223 4.9284 414.7284 4.9167 416.2424 4.9338 421.137 4.9174 421.6084 4.9286 440.7562 4.7595 441.0135 4.7568 450.3475 4.6606 450.9773 4.6614 451.3833 4.6609 453.7464 4.6213 456.7193 4.5935 463.0237 4.5306 469.264 4.4473 469.518 4.45 471.7046 4.4156 476.4598 4.4036 478.2421 4.4165 480.4385 4.3854 483.0557 4.3479 483.8717 4.3769 491.3909 4.3117 492.9578 4.3065 493.3555 4.295 494.4897 4.3113 499.2259 4.3091 507.2406 4.48 506.9477 20.1806 506.8629 36.7033 497.5712 36.5209 489.0144 36.4852 489.1588 52.3791 489.1383 53.8681 469.0349 53.3648 445.7786 53.106 394.388 52.173 394.0329 51.7306 394.143 46.9564 394.6164 34.7416 394.7639 33.7591 395.1979 9.0344 395.3175 4.9872 Z" id="fips-05049"/>
<path d="M 387.0442 403.7902 397.5902 404.0114 416.2233 404.3739 418.7793 404.3397 425.2683 404.467 469.4602 405.3957 468.9708 440.175 468.734 454.8587 488.3446 455.7291 488.0001 459.0241 491.6785 456.8855 495.7894 456.8057 498.9201 458.3464 499.1052 464.5181 501.267 467.0202 500.2524 468.5627 501.3488 472.8049 504.5556 471.4453 504.8769 475.7618 507.3506 474.2233 511.6392 474.3817 513.1574 475.9325 512.2603 476.8946 513.9756 481.7304 512.7831 485.0505 508.8135 484.1812 502.9631 486.3901 500.2431 483.722 498.5982 481.6623 495.2278 480.0831 492.27 481.0094 490.1312 483.4372 486.9649 483.7154 485.7172 480.7299 486.8727 477.7871 490.1987 476.3216 489.0261 474.6793 484.9478 475.7691 480.267 473.8298 471.8054 467.4094 468.7447 466.8794 466.2731 466.771 466.5325 488.4357 463.5319 488.4832 463.4685 482.7104 446.2321 482.9546 430.967 483.0064 429.118 483.042 429.1179 488.855 423.4031 488.9232 410.0098 489.0614 383.0702 489.38 383.137 455.8782 386.366 455.955 386.5566 444.3395 386.595 440.8259 386.7201 438.5231 386.8665 424.8898 386.9062 421.1184 387.0442 403.7902 Z" id="fips-05069"/>
<path d="M 575.5145 160.5398 627.7305 160.348 645.2856 160.1952 662.08 159.3195 679.6603 160.1684 696.6151 160.0743 697.2475 190.4208 697.303 192.1052 697.7268 212.0208 688.9862 212.0885 662.8227 212.1085 645.2599 212.4522 645.2592 211.0392 628.1979 211.1554 610.774 212.2345 593.3915 213.2862 576.3628 213.3119 575.8974 212.9669 575.5145 160.5398 Z" id="fips-05111"/>
<path d="M 429.1179 488.855 429.118 483.042 430.967 483.0064 446.2321 482.9546 463.4685 482.7104 463.5319 488.4832 466.5325 488.4357 466.2731 466.771 468.7447 466.8794 471.8054 467.4094 480.267 473.8298 484.9478 475.7691 489.0261 474.6793 490.1987 476.3216 486.8727 477.7871 485.7172 480.7299 486.9649 483.7154 490.1312 483.4372 492.27 481.0094 495.2278 480.0831 498.5982 481.6623 500.2431 483.722 502.9631 486.3901 508.8135 484.1812 512.7831 485.0505 514.4077 487.3618 514.6611 496.1242 516.8487 498.0667 516.7991 501.239 509.6962 500.0603 509.6687 505.8273 495.9943 505.7563 495.8302 512.3616 495.4322 523.0778 495.0302 526.8026 494.8457 544.2182 477.3024 542.6025 459.9028 542.7778 449.1083 542.914 448.3364 542.8975 425.7128 543.0156 425.4679 506.1376 429.3244 506.1408 429.1179 488.855 Z" id="fips-05079"/>
<path d="M 120.9963 3.4118 143.1652 3.6619 143.2403 3.6593 144.6243 3.6525 146.0523 3.6704 147.6158 3.6989 150.9627 3.7491 166.134 3.9678 177.2831 4.0938 178.4184 4.0999 191.2692 4.296 196.209 4.327 196.4262 4.3588 209.1121 4.4962 209.1141 4.4962 212.6071 4.539 211.7776 4.8062 212.0061 20.643 211.6002 44.6383 211.2279 57.3864 211.0616 68.0612 210.7691 79.4202 187.7011 78.6611 182.0788 78.4491 170.5834 78.0879 170.7145 72.3716 165.1382 72.1765 165.198 70.0624 165.3062 66.2065 161.0008 65.9919 159.7107 63.0671 160.1366 51.6094 156.4048 49.7046 158.1181 47.8483 156.7263 46.7223 152.9897 48.3161 153.9144 42.7468 128.6271 41.7286 125.9989 40.4506 125.7292 38.3001 120.3172 35.7832 120.6259 27.683 118.4176 29.1913 116.836 27.3711 118.2325 24.1543 120.6862 24.147 120.9963 3.4118 Z" id="fips-05015"/>
<path d="M 103.5916 430.3802 103.0687 447.6859 105.1497 447.7246 104.6778 462.8877 121.9586 463.7085 121.1025 498.4733 120.6756 510.0105 119.0218 550.3717 98.2298 549.4283 97.9799 549.4138 96.3091 546.0518 97.7633 542.5082 96.3333 540.9308 97.1492 540.4229 96.0503 538.3212 90.915 532.8977 90.0141 529.9255 88.3518 529.5183 88.3235 525.1136 82.8464 522.3202 82.8423 518.7153 81.4719 516.8237 80.7503 516.0223 80.1751 511.7983 82.3455 505.9813 80.627 503.6833 80.9397 499.7918 79.9722 499.3134 77.6135 492.7697 79.7114 485.3347 77.0006 484.355 78.8167 479.3823 76.886 477.1871 79.0803 474.6126 75.3198 472.5753 76.7607 470.2644 76.428 464.3763 77.6787 462.3765 75.2273 461.5168 52.6306 460.8718 52.439 460.8765 52.6853 445.5776 50.674 445.5723 51.2189 428.4464 103.5916 430.3802 Z" id="fips-05061"/>
<path d="M 13.052 510.1452 14.7161 509.4992 18.0812 512.5711 19.8417 512.0789 23.738 513.2865 22.2391 509.9236 24.3849 509.5068 28.203 510.4549 29.103 512.0278 27.5136 519.5305 31.928 521.2083 30.1333 523.1007 35.3251 522.1798 36.507 526.5973 37.8997 526.0785 41.3856 528.051 41.3593 534.4595 44.3462 532.7962 46.945 535.2786 49.8635 535.3156 52.1156 538.5009 55.324 536.0881 55.3641 538.2665 59.6884 536.6436 61.052 537.0842 59.9046 541.195 64.5156 542.2855 67.0515 541.2132 67.4941 542.7461 71.2382 540.9918 76.9733 542.671 84.521 543.0312 84.2775 548.753 97.9799 549.4138 98.2298 549.4283 96.1604 553.9356 96.9143 556.7621 99.0738 558.1962 96.5351 558.7105 97.5079 560.7602 96.4032 565.0333 99.8312 567.6438 100.9653 570.0074 102.5176 566.8553 105.2617 567.0275 106.9023 569.4195 104.5984 573.5894 108.8362 572.0971 109.9206 574.2041 111.8148 572.8544 113.7921 574.1317 115.141 576.9343 117.2838 576.4373 119.5757 577.7853 119.0511 579.1134 114.4042 577.4376 111.2432 581.4012 109.0046 581.0401 107.6032 585.1727 102.2553 582.9116 100.4295 585.0428 101.2419 589.3858 98.6108 589.5242 96.0641 583.1699 94.3517 584.0507 95.3355 588.437 92.8017 592.5387 90.7267 591.1962 91.9295 587.6395 90.8427 586.4036 83.3847 588.6974 82.9528 588.8758 82.261 588.912 81.3364 585.6828 78.6073 584.6482 73.5497 584.9398 70.0595 588.5097 66.9751 583.3634 63.826 581.0868 60.339 580.3694 55.6522 583.9529 53.0868 588.0549 49.1576 587.2185 51.1025 583.2859 48.8523 581.3723 45.7649 585.563 44.1857 583.5212 41.2454 583.2065 39.3049 588.0502 35.8294 587.7825 34.5846 584.8982 32.2046 586.1395 31.0947 589.5738 25.5589 587.894 26.3611 585.0529 28.099 583.2778 26.774 581.805 21.2718 582.6261 18.4961 579.1948 14.8677 578.3129 15.9245 574.249 14.8892 568.9936 11.2062 570.177 10.4478 570.3508 10.5577 567.2827 10.6053 565.2799 10.8683 560.4099 10.8669 559.6776 11.0727 555.757 11.0882 554.6835 11.387 547.9631 11.3892 547.9202 11.4145 547.3524 11.4406 546.8265 11.7079 540.3258 11.7837 538.993 11.841 537.6163 11.8429 537.569 12.0791 532.1499 12.2646 527.9455 12.5405 522.0125 12.5667 521.9558 13.0282 510.7757 13.052 510.1452 Z" id="fips-05081"/>
<path d="M 72.433 280.8301 72.7863 272.1495 90.3418 272.9351 90.9872 258.7724 91.0098 258.4357 91.1055 254.9922 99.9855 255.3297 108.6552 255.6031 109.4132 237.794 126.7569 239.2231 127.2527 224.8539 127.602 215.9871 129.5187 221.4119 135.4127 226.6085 136.8319 229.1372 143.1367 227.081 147.2728 225.9795 149.7198 221.1364 151.2214 221.4861 154.4152 225.0378 161.8746 225.6276 167.2457 222.5154 172.8719 220.8331 175.7768 222.9979 178.1041 223.1692 180.4174 221.5587 183.2885 217.8094 187.7531 217.1193 189.4603 221.3035 189.4327 224.8235 191.0422 229.6016 193.9159 232.4108 193.5054 233.7657 189.7285 235.1247 189.969 236.9785 199.2197 236.5483 204.2117 234.4621 209.6844 237.2929 211.8244 238.7651 213.0285 239.314 212.5828 260.1576 206.8041 260.1422 183.83 259.2501 183.822 260.7015 180.9772 260.4246 179.4466 261.9881 179.3824 266.227 177.7833 267.5443 174.947 267.4211 174.8737 270.3047 171.9765 270.2169 171.8511 273.111 150.2162 272.3086 150.135 275.1689 143.0778 274.8612 142.4703 292.3827 143.082 297.7734 82.9637 295.5398 83.1512 290.0913 72.09 289.5725 72.433 280.8301 Z" id="fips-05083"/>
<path d="M 98.2298 549.4283 119.0218 550.3717 120.6756 510.0105 121.1025 498.4733 133.241 499.0634 138.421 501.1403 141.3783 501.4932 144.2267 503.8162 149.8688 503.9987 153.2581 506.1209 154.8713 508.6984 156.9257 507.7595 162.2651 508.4913 166.5457 510.4661 169.1276 509.8628 169.5434 512.1648 175.2257 511.1581 180.7464 508.2633 181.3711 509.5422 180.4212 535.7461 178.719 535.6808 178.1524 550.0534 178.0605 552.9058 177.9497 553.983 177.8201 557.2282 176.6414 587.7203 176.0582 605.0609 150.7479 604.0267 136.3161 603.4307 134.0806 599.5313 131.2629 596.5217 132.5081 593.1506 129.498 596.8681 130.9427 599.1294 128.0986 600.0339 127.1576 594.5602 124.6545 591.5267 123.6475 586.8214 120.1737 586.5514 119.3362 584.3647 121.276 582.0428 121.7737 579.108 119.5757 577.7853 117.2838 576.4373 115.141 576.9343 113.7921 574.1317 111.8148 572.8544 109.9206 574.2041 108.8362 572.0971 104.5984 573.5894 106.9023 569.4195 105.2617 567.0275 102.5176 566.8553 100.9653 570.0074 99.8312 567.6438 96.4032 565.0333 97.5079 560.7602 96.5351 558.7105 99.0738 558.1962 96.9143 556.7621 96.1604 553.9356 98.2298 549.4283 Z" id="fips-05057"/>
<path d="M 523.7096 319.3926 535.7357 319.3152 535.8431 304.8704 544.796 304.8069 544.8552 300.9465 549.5995 301.053 559.1315 301.1302 558.9385 319.1526 564.7819 319.086 564.7092 327.9615 567.6148 327.932 567.5454 354.2314 576.2159 354.2481 576.1941 360.2417 576.06 371.8408 576.0712 406.6065 584.9758 406.7752 584.9858 433.2298 576.1906 433.304 570.0915 431.9244 567.961 427.5661 565.1774 425.6624 564.7849 425.2614 564.518 425.0827 563.9683 424.7915 563.8615 424.6175 562.5417 420.3288 558.0112 418.5421 559.9565 416.5522 556.4623 410.9306 553.6794 413.0926 549.2678 412.3368 551.2314 409.8606 549.7596 406.5601 549.256 403.7702 546.9632 405.0294 541.777 400.8853 542.0468 395.851 535.5681 394.566 537.0743 389.031 522.9368 388.8459 522.9983 383.0053 517.1782 382.8812 517.2201 379.9073 511.3916 379.8771 511.4096 368.2757 523.2208 368.4653 523.5658 336.9832 523.1608 336.606 525.1079 329.4413 527.8197 327.1392 521.5474 320.9286 523.7096 319.3926 Z" id="fips-05095"/>
<path d="M 516.8487 498.0667 521.756 504.421 524.8756 504.3961 528.639 500.3622 533.3086 500.7475 532.7856 504.8515 527.5909 507.9617 528.3712 509.4636 536.1025 508.428 539.4768 506.0838 541.7343 506.1973 543.2189 509.1461 545.0236 509.185 546.9788 505.8256 548.8264 504.9567 551.1197 506.0451 551.8118 509.4786 553.5419 509.8739 558.7026 508.7837 561.5882 512.8504 564.6236 509.2897 564.1298 507.9398 560.2637 504.5939 560.5342 501.7197 558.0972 497.3888 556.1821 497.1824 555.644 494.2118 554.1884 493.6666 553.8103 490.5429 555.1859 487.7819 554.1873 486.2066 558.2692 481.793 561.7453 482.963 562.6266 478.2837 565.9109 478.9137 566.6342 476.7099 566.6384 476.6794 593.4449 476.3287 594.5352 477.8442 594.9013 478.2155 599.0693 481.2178 599.5457 481.3903 600.2592 481.4387 602.3826 481.0261 603.6247 480.385 604.5202 480.3681 605.422 480.5916 606.0398 480.988 606.4244 481.3125 607.2143 482.5446 607.467 483.3186 607.4628 483.7607 607.243 484.5901 606.828 485.4557 605.6058 487.0929 604.9245 488.1651 604.6894 488.7973 604.5683 489.3925 604.5156 490.5976 604.8094 491.8888 604.8901 492.8322 604.8285 493.3479 604.5825 493.8919 604.0208 494.4828 602.8691 495.1098 600.375 495.5281 599.1562 495.282 598.8718 495.3009 597.0462 496.1002 595.7703 496.3603 594.5109 496.4245 593.162 495.961 591.1367 495.7194 590.1175 495.791 589.1605 495.9772 588.3069 496.2741 589.6792 500.0183 590.094 500.7184 591.1854 501.6307 592.7686 503.9813 592.8333 504.7347 592.4458 506.423 592.2104 506.8693 591.8135 507.3 591.2861 507.5973 590.2996 507.8832 589.2297 507.9618 588.5201 507.8515 587.3261 507.4066 586.451 506.7611 585.9641 505.8786 585.6182 504.669 584.1473 501.2139 583.2533 499.5056 580.8236 501.0964 579.8803 502.3078 579.3659 502.8092 578.445 503.1667 576.1546 503.1974 574.6829 503.339 573.9971 503.5247 573.3622 503.8286 572.7199 504.282 571.9515 505.193 571.7611 505.7288 571.6638 506.3131 571.6684 507.0521 571.8605 507.9779 572.1881 508.5827 572.6327 508.9924 573.477 509.3639 573.5614 509.401 578.8177 510.6514 580.6025 511.3517 583.2367 512.6328 584.4215 513.5804 584.8709 514.1553 584.9233 514.6216 584.7969 514.9119 583.718 516.2134 582.2803 518.4413 580.6083 520.3436 577.5755 523.4668 576.6104 524.5796 575.0489 526.7465 574.7443 527.6091 574.7223 528.593 575.043 530.1612 575.6754 531.9609 576.1026 532.6145 577.4924 534.2237 578.1447 535.1598 578.6779 536.2363 579.1543 536.8985 579.8879 537.3872 582.7597 538.719 583.6021 539.0064 585.6438 539.3462 586.9175 539.9327 588.3178 541.2946 588.735 542.1993 588.8824 542.8902 588.732 543.6785 588.4492 544.4351 588.0249 545.0754 587.0023 545.9721 584.9223 546.8947 583.1894 547.2541 582.6097 547.1329 578.0906 544.2025 576.9967 544.4285 572.8718 544.7296 572.2974 544.8584 569.2836 545.9292 568.5834 545.1534 567.5241 544.2812 566.5861 543.6813 565.7969 543.4251 565.1423 543.4391 564.8681 543.5631 564.2976 544.1453 563.8886 544.7085 563.5432 545.3685 563.0469 546.6632 563.1048 547.3272 563.3043 547.7026 563.6925 547.948 563.7858 548.1655 563.6636 548.9182 563.1757 549.7893 563.1867 550.2403 563.3991 550.6743 562.8909 552.7957 562.8853 553.6004 563.0307 554.3006 563.2113 554.72 565.292 557.1892 566.432 558.2609 567.7296 558.9272 569.3993 559.0368 570.4807 558.9571 572.3312 558.4636 574.7077 557.0319 575.8759 556.6036 576.6278 556.7095 577.269 556.9146 577.991 557.3678 579.46 558.5746 580.3895 559.8299 580.7683 560.4882 581.0883 561.2169 581.2689 561.9686 581.7253 562.0298 582.2183 562.223 582.2466 563.4441 582.0695 564.1384 581.5698 565.1641 581.1981 565.5077 579.6229 566.1349 578.9433 566.1857 577.5153 566.5364 576.2136 567.2921 574.3397 568.1936 573.4125 568.3973 572.738 568.3935 571.7696 568.215 570.6157 567.7932 565.7046 565.0809 565.2083 564.6365 563.3944 562.1144 560.5927 558.6715 560.3291 558.7258 559.774 559.0722 558.1445 559.494 555.769 559.7736 554.017 559.86 553.2472 560.0119 552.1453 560.5364 550.7533 561.6123 549.9866 562.6503 549.5712 563.5849 549.3925 564.6864 549.5373 565.9206 549.8233 566.4461 550.4174 567.2084 551.0791 567.8545 552.3707 568.4305 556.6562 569.3556 557.8444 569.8366 559.0345 570.4861 560.1966 571.3635 562.4914 573.3746 564.3784 574.8123 565.1916 576.0235 565.4369 576.72 565.7905 577.7238 565.8785 578.6938 565.7059 580.0049 565.5693 580.4959 565.3119 580.9963 564.5965 581.7199 562.3433 583.3743 561.4721 583.6537 560.9214 583.6647 558.3963 583.3756 558.0261 583.4521 557.5571 583.6741 556.2659 584.7429 554.7285 585.5899 553.9257 585.8589 550.8984 586.4114 550.4605 586.5752 549.7433 587.121 549.3586 587.7807 547.0851 587.7976 546.9918 596.6003 533.8985 596.4655 532.4711 593.5048 530.3189 593.5212 529.5766 596.3369 529.6943 587.5554 512.4835 587.7233 512.5847 544.6418 504.3559 544.6908 494.8457 544.2182 495.0302 526.8026 495.4322 523.0778 495.8302 512.3616 495.9943 505.7563 509.6687 505.8273 509.6962 500.0603 516.7991 501.239 516.8487 498.0667 Z" id="fips-05041"/>
<path d="M 300.117 332.0498 314.561 332.4393 314.0229 349.7642 330.5265 350.337 331.0615 351.0697 330.7263 364.7243 339.3733 365.0359 339.1939 367.8607 347.5378 368.1609 348.4969 368.1915 348.3218 373.2793 348.1889 377.1588 363.7001 377.3951 364.3134 377.9931 364.2141 380.1869 363.9691 386.0288 367.4148 386.0941 381.0825 386.2818 380.8533 403.6563 356.392 403.2624 355.0042 403.2322 354.8236 411.9564 344.1411 411.712 342.8956 411.6828 324.5363 411.1999 318.9943 417.129 318.7359 419.6392 311.5183 419.4079 308.6573 419.3102 308.8635 407.6981 300.0392 407.5189 300.1617 401.6742 294.0471 401.5651 291.1607 401.5812 291.4789 389.9751 288.6213 389.9126 288.7186 386.9471 288.7927 384.3147 277.5081 384.1279 277.7942 375.38 260.7104 374.8804 260.8351 365.419 262.48 362.16 262.5929 348.0397 245.2929 348.0143 245.6129 330.8773 262.6518 330.773 285.4496 331.6262 287.3943 333.1802 289.8962 332.735 293.4392 334.7855 297.3935 334.2082 299.9682 337.0873 300.117 332.0498 Z" id="fips-05125"/>
<path d="M 469.4602 405.3957 473.9103 405.5114 484.0781 405.9042 487.4354 405.6826 487.4678 388.2767 522.9368 388.8459 537.0743 389.031 535.5681 394.566 542.0468 395.851 541.777 400.8853 546.9632 405.0294 549.256 403.7702 549.7596 406.5601 551.2314 409.8606 549.2678 412.3368 553.6794 413.0926 556.4623 410.9306 559.9565 416.5522 558.0112 418.5421 562.5417 420.3288 563.8615 424.6175 563.9683 424.7915 564.518 425.0827 564.7849 425.2614 565.1774 425.6624 567.961 427.5661 570.0915 431.9244 576.1906 433.304 576.0114 436.9062 572.8228 443.9449 573.5848 447.431 575.3741 449.5532 572.6544 450.6037 574.9637 452.8076 575.8007 457.1375 574.2271 460.2176 571.7725 460.0841 570.3723 465.147 572.1493 468.6024 571.0713 469.2472 573.0363 471.6975 570.2381 472.3172 569.8032 474.2099 567.667 474.4393 566.6384 476.6794 566.6342 476.7099 565.9109 478.9137 562.6266 478.2837 561.7453 482.963 558.2692 481.793 554.1873 486.2066 555.1859 487.7819 553.8103 490.5429 554.1884 493.6666 555.644 494.2118 556.1821 497.1824 558.0972 497.3888 560.5342 501.7197 560.2637 504.5939 564.1298 507.9398 564.6236 509.2897 561.5882 512.8504 558.7026 508.7837 553.5419 509.8739 551.8118 509.4786 551.1197 506.0451 548.8264 504.9567 546.9788 505.8256 545.0236 509.185 543.2189 509.1461 541.7343 506.1973 539.4768 506.0838 536.1025 508.428 528.3712 509.4636 527.5909 507.9617 532.7856 504.8515 533.3086 500.7475 528.639 500.3622 524.8756 504.3961 521.756 504.421 516.8487 498.0667 514.6611 496.1242 514.4077 487.3618 512.7831 485.0505 513.9756 481.7304 512.2603 476.8946 513.1574 475.9325 511.6392 474.3817 507.3506 474.2233 504.8769 475.7618 504.5556 471.4453 501.3488 472.8049 500.2524 468.5627 501.267 467.0202 499.1052 464.5181 498.9201 458.3464 495.7894 456.8057 491.6785 456.8855 488.0001 459.0241 488.3446 455.7291 468.734 454.8587 468.9708 440.175 469.4602 405.3957 Z" id="fips-05001"/>
<path d="M 402.2947 230.7758 444.3759 231.4637 444.5766 215.9234 446.73 215.0041 448.0391 212.2623 449.5498 213.223 453.3458 212.0652 453.55 196.4484 461.4535 196.3804 467.3536 196.5213 477.174 196.6366 487.8676 196.9182 487.5661 214.4444 526.0276 214.7058 524.4378 216.5092 526.3818 217.7468 524.5826 220.8936 523.3726 216.5054 522.0655 218.23 522.3021 221.301 517.4817 224.3514 520.2937 227.0587 518.8853 227.5122 516.8476 225.3145 513.4569 227.5683 516.0669 229.3543 515.5635 230.4909 512.6207 228.2761 511.4389 228.7231 513.5142 231.957 510.4134 233.3256 512.8259 235.0095 513.6671 236.5522 511.7114 243.2868 515.7222 241.8668 515.9499 246.9425 515.9245 249.454 517.6668 249.4797 519.8356 252.1194 520.2642 252.0605 520.6692 251.853 521.158 251.3148 521.2472 250.9313 521.2332 250.4144 521.1374 249.711 521.1534 249.3273 521.4311 248.9002 521.7175 248.8186 522.2637 249.0601 522.4664 249.4087 522.5561 249.7629 522.5502 250.3771 522.3181 251.233 522.0237 251.6672 521.4098 252.1627 520.7207 252.582 520.3086 253.1183 520.1555 253.484 519.9091 254.5752 519.7404 254.9573 519.6882 255.6628 519.7997 256.0553 520.3413 256.7164 521.0177 257.0413 521.3273 257.2484 521.4864 257.5549 521.4552 257.8909 521.0232 258.312 520.7722 258.33 519.8387 257.8034 519.4279 257.6256 519.0179 257.7003 518.8177 257.8867 518.8018 258.1983 519.0359 258.5963 519.721 258.8792 520.7064 258.8383 520.9706 258.9228 521.2485 259.2875 520.9305 259.9936 519.5793 261.5822 519.5349 262.0518 519.8571 262.5586 520.3525 262.7411 521.2977 262.6769 521.6451 262.9395 521.689 263.0701 521.5774 263.9789 521.3674 264.4389 518.8605 263.5175 518.6479 262.7773 518.5618 260.2953 516.6959 259.8312 515.9972 263.2244 515.4112 263.8044 513.481 263.6362 513.6926 265.2419 514.4804 266.4965 512.491 268.9182 508.3167 269.0803 508.3906 271.3524 511.98 271.4541 513.4261 275.0124 509.6569 274.8277 511.8189 278.7355 510.8604 280.7146 514.1563 281.5041 509.9895 281.8407 507.6251 284.4193 488.2813 284.1735 488.2169 297.3666 484.427 298.3144 479.1708 296.9994 478.5754 293.9365 475.2116 291.757 472.8306 292.4578 469.2247 290.0067 462.1791 293.2342 458.7272 292.6646 452.8155 296.5999 440.3882 297.8376 437.695 296.2007 436.7363 296.9971 432.2485 293.4359 428.6464 293.7838 423.5215 291.7151 423.7915 291.2598 421.1889 290.9988 418.4696 287.6693 412.4855 289.5245 408.4792 287.9442 406.1588 290.0044 401.1486 289.678 401.5985 271.7618 401.6775 263.7041 402.2947 230.7758 Z" id="fips-05145"/>
<path d="M 576.1906 433.304 584.9858 433.2298 584.9758 406.7752 576.0712 406.6065 576.06 371.8408 587.7931 371.8981 613.86 371.8124 652.6746 371.4572 651.9415 374.4086 652.15 376.5692 653.0968 378.8394 654.2595 380.6043 655.0495 382.1379 655.9292 383.0868 657.1282 384.1924 658.5392 385.9213 659.1059 386.8738 659.9608 389.3242 660.0064 389.8738 659.9273 390.423 659.561 391.4149 659.2279 391.9438 657.69 393.3128 655.4091 394.5777 653.9431 396.3095 653.5352 397.0087 653.1631 398.7523 652.6871 399.5529 652.5421 400.271 652.3241 401.3506 652.1867 402.6067 652.4966 405.4309 653.0006 407.2739 653.2979 407.7492 654.4324 408.6185 654.9223 409.1018 656.0509 411.3659 656.3195 412.5548 656.2261 413.5212 655.9333 414.4659 655.4994 415.3661 654.8313 416.406 653.9725 417.3364 648.5896 421.3792 647.8527 421.7816 645.709 422.1335 645.1619 422.3085 644.1116 422.8234 641.3284 424.4967 641.8662 425.2544 640.0451 428.4736 640.0582 429.9153 641.0821 432.2586 641.1626 432.4427 641.6899 434.1181 641.6884 435.1235 641.4718 435.6042 641.071 436.4933 639.7746 436.9892 638.3377 437.0124 637.0305 436.4906 636.3639 435.9429 635.8375 435.1595 635.7217 433.7477 636.0414 431.9648 637.6218 429.0951 637.7703 427.1798 637.5272 426.4943 637.3041 425.9376 636.1114 426.0005 634.5378 426.5751 632.5859 427.0166 630.4831 427.0819 629.7886 426.985 627.7303 426.4198 626.3351 426.3055 625.3383 426.4542 624.3806 426.9678 623.7857 427.5038 623.579 427.8727 623.3743 429.2287 623.5129 430.5382 623.6206 430.8561 623.946 431.337 626.6486 433.6325 627.3632 434.8478 627.71 435.7584 628.0747 437.1032 628.052 438.4818 627.7062 439.3389 626.1733 441.9481 625.756 442.4359 624.1521 443.7204 622.9878 443.8554 618.8246 443.4355 617.9444 443.4374 616.3281 444.0657 615.0046 444.405 614.4252 444.7325 613.8111 445.2574 613.4335 445.7417 613.1505 446.4927 612.4553 449.9612 612.0048 452.7502 611.9995 453.9453 612.1135 454.7195 612.0411 455.3418 611.7084 456.5794 611.2875 457.7555 610.811 458.6517 609.9874 458.0935 609.3324 457.6675 607.6286 457.5865 605.6369 456.9598 603.0723 455.224 602.4513 454.6624 602.1496 454.1962 601.4252 451.9527 601.1456 451.4462 600.9541 451.2577 600.0767 450.9848 598.3077 450.8929 597.3503 451.3029 596.6243 452.1734 596.1594 452.8803 596.0441 453.3967 596.0918 454.8015 596.4059 456.3857 596.8358 457.2195 599.6228 460.7379 600.3302 461.3274 603.6342 463.0921 604.2981 463.6357 605.1431 463.1485 605.9984 462.8828 606.6051 463.3531 607.293 463.393 608.1262 463.1975 609.0196 462.705 609.5911 462.5783 610.9898 462.7204 612.4606 463.1441 614.0715 462.9233 616.0198 463.2419 616.7172 463.6791 617.1123 464.136 617.3393 464.6411 617.6163 466.3104 617.5286 467.502 617.0413 468.6177 616.2391 469.8286 615.153 471.0044 614.6471 471.4188 613.9011 471.8679 612.9508 472.2684 611.133 472.4947 610.0942 472.3866 608.2573 471.8104 607.7096 471.5027 606.2181 470.3363 605.1819 469.682 603.2928 467.8322 601.7709 467.1838 600.7094 466.9663 596.1449 470.3669 593.504 472.4456 592.7023 474.0776 592.8573 475.1182 593.2819 476.1021 593.4449 476.3287 566.6384 476.6794 567.667 474.4393 569.8032 474.2099 570.2381 472.3172 573.0363 471.6975 571.0713 469.2472 572.1493 468.6024 570.3723 465.147 571.7725 460.0841 574.2271 460.2176 575.8007 457.1375 574.9637 452.8076 572.6544 450.6037 575.3741 449.5532 573.5848 447.431 572.8228 443.9449 576.0114 436.9062 576.1906 433.304 Z" id="fips-05107"/>
<path d="M 83.3847 588.6974 90.8427 586.4036 91.9295 587.6395 90.7267 591.1962 92.8017 592.5387 95.3355 588.437 94.3517 584.0507 96.0641 583.1699 98.6108 589.5242 101.2419 589.3858 100.4295 585.0428 102.2553 582.9116 107.6032 585.1727 109.0046 581.0401 111.2432 581.4012 114.4042 577.4376 119.0511 579.1134 119.5757 577.7853 121.7737 579.108 121.276 582.0428 119.3362 584.3647 120.1737 586.5514 123.6475 586.8214 124.6545 591.5267 127.1576 594.5602 128.0986 600.0339 130.9427 599.1294 129.498 596.8681 132.5081 593.1506 131.2629 596.5217 134.0806 599.5313 136.3161 603.4307 136.3488 605.2598 134.2762 606.7384 133.6423 608.7951 134.2263 609.6793 135.1482 611.2899 133.3015 612.4216 132.3631 613.59 133.2263 614.3516 134.9636 613.8653 136.2627 612.4515 138.0319 611.2899 138.655 613.216 136.5638 614.3937 135.2807 614.5975 134.974 616.4818 135.9458 617.3318 137.9194 620.0871 140.0394 622.1419 143.6958 622.8343 144.679 623.5715 143.5955 625.0935 140.4746 625.1043 139.3877 626.0895 139.4021 627.4129 138.4736 628.9831 140.4807 631.5491 142.1668 631.521 145.0077 632.8609 142.0073 635.8532 140.4284 636.4584 141.4915 639.2328 142.5174 641.5569 141.51 644.1174 138.7481 644.4631 137.6971 643.3119 135.6473 642.3308 134.7467 643.6677 137.5604 647.1686 138.9799 650.4802 137.266 654.5216 138.5211 654.8566 137.3625 655.4383 135.5844 656.0485 133.3938 657.4715 132.0036 659.6074 132.7204 660.9257 135.2465 663.8014 133.4877 664.6223 132.1361 663.7934 131.5407 663.0906 129.2001 665.1521 132.4667 665.9893 133.9933 666.8768 133.6749 668.2401 133.2793 668.3993 130.984 667.6082 129.9103 666.5091 127.8713 665.9262 126.4758 667.6692 126.7333 669.3328 124.9747 670.39 124.9264 668.599 123.1765 666.2098 121.7082 666.7427 119.3305 667.9957 119.3821 670.2777 119.7645 671.2171 117.6866 671.3097 116.5604 669.7442 113.7077 672.019 113.5595 675.9244 112.5125 680.7595 117.8114 687.4134 119.2584 692.3266 121.6606 694.3646 121.516 695.1793 119.9098 695.1592 84.924 694.6767 84.3392 694.6809 83.03 694.659 82.096 694.6356 81.8428 694.6254 82.0131 682.6503 82.0808 680.0195 82.1827 671.8398 82.184 670.9907 82.1822 669.9345 82.3107 666.5944 82.4046 658.7459 82.4105 658.1734 82.4513 655.6789 82.5564 650.3926 82.5361 648.7415 82.5613 646.5999 82.6026 644.5487 82.6027 644.5455 82.6785 639.2176 82.7703 632.7698 82.8217 629.4206 82.8362 628.4774 82.8464 627.1537 82.9272 624.6875 82.9166 623.3861 82.9469 621.7603 83.074 614.9385 83.0902 612.7921 83.1049 611.8381 83.1772 604.9811 83.2254 600.8657 83.2318 600.8162 83.2763 600.4671 83.3666 590.6728 83.3858 588.862 83.3847 588.6974 Z" id="fips-05091"/>
<path d="M 325.4035 541.1114 366.5121 542.5351 367.7069 545.9641 365.2674 552.9071 367.0947 559.8805 368.8769 564.9424 367.8047 568.4689 368.718 575.3027 367.4655 577.9354 368.7521 584.3021 368.2127 586.8107 369.8906 590.9483 368.4486 596.3706 370.3289 600.791 368.5843 603.8885 368.9181 607.3351 367.6183 612.4045 365.5322 615.4352 365.3866 618.2001 363.0778 620.7318 362.3255 625.0834 359.9229 625.3141 358.715 632.4655 359.2421 638.0184 363.9278 641.1533 358.9167 645.1843 350.5242 646.9542 348.1458 645.9469 346.7958 643.3969 345.7253 644.2981 343.5029 642.1348 345.8402 640.3257 342.2026 635.4562 340.9685 637.8471 338.374 635.5982 335.1315 637.6441 333.5995 629.8135 331.2272 627.8122 327.9278 627.5815 327.8677 625.3814 325.914 626.5197 324.8852 621.4573 319.1882 619.2299 315.6356 621.7854 316.431 618.0303 313.3656 616.4798 313.6648 614.2871 310.0093 614.9608 305.0549 614.8141 305.4605 610.3823 303.1412 610.704 301.827 609.052 303.2139 604.7974 299.9206 602.137 299.7042 603.9167 297.1544 604.2537 295.0657 602.6284 296.7519 600.9589 293.7656 599.1091 296.1644 594.9637 293.2361 593.6237 293.3825 592.3125 295.2589 590.53 298.2729 592.1246 301.5023 588.4658 303.0672 590.7123 304.3203 583.0475 300.5475 578.0627 302.0996 570.9478 313.8353 569.0935 316.7592 562.7931 322.6365 559.2181 322.6615 557.7772 324.3141 555.7503 325.0592 554.1682 325.4035 541.1114 Z" id="fips-05013"/>
<path d="M 538.3617 51.7834 541.2781 51.791 541.1485 58.1537 542.6296 55.1276 543.51 58.2335 547.2575 59.4888 550.6029 61.9381 553.8605 61.9222 554.8229 64.875 557.0002 67.0159 557.4105 69.7301 560.9721 72.2159 566.9093 72.6928 566.3913 76.3184 568.6593 77.7387 568.5611 79.8408 570.063 78.9812 569.8123 74.1246 571.8242 72.2282 572.9199 72.5112 587.1686 72.4803 599.0585 72.3021 610.7062 72.2967 617.3102 72.2326 620.7131 72.2198 620.585 72.7779 618.1939 75.1664 617.4016 76.4956 617.0798 79.3608 613.9686 83.4039 609.1514 86.2442 608.5477 91.0376 606.3759 94.1781 606.6052 97.6793 603.9527 101.632 603.4068 103.9529 606.1662 106.3764 604.5163 108.476 603.0319 110.9822 603.7333 111.894 603.1545 117.2461 601.4212 117.2118 601.4622 125.8659 575.7294 125.4142 558.597 124.6668 548.9741 124.7844 523.419 124.9635 523.6865 107.268 523.6759 71.8117 523.8491 57.2986 526.6719 57.3075 526.7519 54.5035 538.3317 54.6489 538.3617 51.7834 Z" id="fips-05075"/>
<path d="M 444.1706 130.2435 459.548 115.1408 466.4376 115.3152 478.9156 115.6961 506.2605 115.958 506.1106 124.7692 523.419 124.9635 548.9741 124.7844 545.8856 126.4634 546.8961 130.9464 545.3546 132.392 547.4531 132.9018 544.3638 133.9985 543.1033 136.1852 541.1974 135.9765 543.5821 138.2094 543.7156 140.2293 541.3895 140.2597 539.1542 142.0854 541.3651 142.5038 537.5753 145.1409 536.4863 144.2955 534.1812 148.4859 531.2544 149.6185 527.6393 154.7142 526.8768 160.2504 525.6117 158.6179 524.1283 163.782 525.5226 165.1476 524.5096 167.0558 526.8348 169.7635 526.7276 172.3702 529.4555 173.1915 529.17 175.3157 522.1057 174.8028 522.1431 185.2625 522.2248 197.398 487.8676 196.9182 477.174 196.6366 467.3536 196.5213 461.4535 196.3804 453.55 196.4484 453.9839 161.132 451.2218 162.5816 446.3476 162.5324 446.4707 153.7993 441.7629 149.4596 440.7672 141.5652 444.1689 134.4456 444.1706 130.2435 Z" id="fips-05063"/>
<path d="M 332.0245 312.2577 341.9372 312.7382 343.0993 313.6999 346.9078 321.623 345.496 331.4037 349.6643 334.3557 347.8495 331.4258 348.6453 328.79 347.3465 322.6048 352.6388 320.1969 352.4065 316.5687 378.0616 317.2429 383.2787 317.3503 383.6246 300.0662 386.8268 300.1001 400.9204 300.4717 409.1493 300.5242 408.9295 319.1262 408.8502 323.1912 408.6753 329.3963 408.501 334.0668 408.4922 334.1136 408.6112 335.2308 408.3586 344.5564 408.0665 356.5619 405.6814 360.3919 404.5089 368.7779 404.8254 370.6989 402.4824 377.8592 416.1904 378.1497 416.2233 404.3739 397.5902 404.0114 387.0442 403.7902 380.8533 403.6563 381.0825 386.2818 367.4148 386.0941 363.9691 386.0288 364.2141 380.1869 364.3134 377.9931 363.7001 377.3951 348.1889 377.1588 348.3218 373.2793 348.4969 368.1915 347.5378 368.1609 339.1939 367.8607 339.3733 365.0359 330.7263 364.7243 331.0615 351.0697 330.5265 350.337 314.0229 349.7642 314.561 332.4393 300.117 332.0498 297.5629 331.9919 297.8932 320.553 314.8063 320.8386 315.1664 315.0351 325.1363 315.3941 331.9766 315.6503 332.0182 312.5534 332.0245 312.2577 Z" id="fips-05119"/>
<path d="M 17.8615 148.6687 34.8726 149.3879 51.6171 150.1935 52.0204 150.218 63.059 150.772 77.1848 151.5111 77.3321 148.6882 80.2089 148.8119 103.3443 149.8404 111.7367 150.1997 114.7341 150.3113 114.6223 153.1655 111.6421 153.0519 111.5419 155.9625 103.0526 155.5701 102.8585 161.2723 99.9685 161.1039 99.5948 169.6955 85.1478 169.1329 84.9075 174.9086 84.4564 186.4154 93.0514 186.8087 92.9182 190.2904 90.1741 192.7633 91.1717 201.2748 90.4618 201.7173 89.958 201.6775 88.5834 202.7638 88.3168 203.1296 88.3297 203.6192 88.8078 203.5368 90.1153 204.3596 89.8933 205.0673 87.7123 205.9142 92.0503 209.3452 84.2414 212.2786 82.3338 212.8274 73.3222 211.1353 70.9088 212.7915 70.1966 214.0446 74.3345 221.2925 73.6453 224.1916 69.0357 225.3967 65.4431 223.3728 62.8965 228.8656 58.1909 229.9948 56.8052 229.7383 53.8737 229.9533 50.6844 228.6871 46.6305 229.9593 40.6381 226.1398 39.8013 224.2793 41.3345 218.8253 38.3274 214.6719 33.6757 210.8207 29.4168 211.0132 25.4963 214.6496 23.7801 201.061 23.7695 200.9765 22.827 192.2752 21.9156 183.8494 21.8085 182.9315 21.7571 182.6035 21.6463 181.5816 20.6371 172.7084 18.5869 155.2492 18.4989 154.6324 17.8615 148.6687 Z" id="fips-05033"/>
<path d="M 17.9467 397.5891 18.2752 390.0772 18.2865 389.5594 19.0494 372.2584 19.0763 370.6649 19.5605 360.627 19.9005 353.5787 42.3848 354.5037 42.1479 360.2625 91.0644 362.1092 91.0306 363.9272 105.4202 364.7877 105.311 367.6682 104.6509 390.4701 103.5916 430.3802 51.2189 428.4464 50.674 445.5723 52.6853 445.5776 52.439 460.8765 15.1902 460.6894 16.5613 428.4609 16.6602 426.9764 17.0358 418.4003 17.1414 416.0654 17.1854 415.0481 17.9467 397.5891 Z" id="fips-05113"/>
<path d="M 178.5273 433.1633 190.1007 433.542 198.6891 433.7872 198.4134 445.3945 199.3508 445.4308 215.7939 445.9212 224.4563 446.2014 224.2243 452.0197 242.1978 452.6148 243.1147 454.6319 251.3249 454.5424 250.639 457.4927 251.8861 459.0924 252.6884 461.3908 251.5812 462.4125 249.836 465.672 250.4902 470.6125 251.9692 469.5619 275.6078 470.6549 275.1873 482.114 274.3335 504.9623 265.0996 504.305 263.0637 506.7221 266.4473 509.3886 267.3571 513.9365 271.6665 517.9031 271.8613 519.8948 274.2595 520.9721 271.5135 521.8935 273.1177 530.1069 275.7552 530.3258 276.5652 534.0184 274.109 534.6584 274.9492 536.2521 273.0566 538.1755 274.114 539.4213 273.6215 540.1708 270.0581 537.0879 266.6564 539.0437 266.4089 541.3262 257.7088 545.811 255.1601 545.5193 251.1864 547.2499 246.2581 543.9602 243.569 543.9579 242.2276 545.9113 239.2561 545.7751 237.8694 545.155 235.2412 542.6326 233.3592 538.0547 230.7711 538.3928 226.871 541.0852 223.7575 537.0628 217.8064 534.8176 214.0601 535.329 211.2594 533.0341 211.288 533.0123 211.2387 532.861 211.214 532.8266 211.1409 532.8014 211.067 532.8113 210.8839 532.9275 210.7479 532.9228 210.5716 532.8915 210.4523 532.8432 210.3792 532.7754 210.0881 532.5449 209.895 532.453 209.8082 532.3805 209.8057 532.3453 209.7243 532.2413 209.6038 532.2007 209.5276 532.1694 209.4689 532.1946 209.3705 532.2767 209.2822 532.3053 209.2459 532.3478 209.1664 532.3825 208.9706 532.3149 208.8051 532.2306 208.634 532.0798 205.8295 524.6583 206.4422 521.5002 201.0879 517.8713 199.6302 513.7707 195.0496 510.7939 195.1078 509.629 193.9524 506.4478 194.2296 503.8078 192.1364 500.8744 189.9838 499.9008 188.1143 493.3394 185.2668 491.111 185.1552 486.9606 183.628 478.2591 184.1746 477.0293 181.7238 475.0137 182.9915 471.8833 181.9327 469.4914 183.1444 465.1013 181.228 463.1136 184.1208 459.551 181.042 460.0505 174.3978 458.3205 174.5993 450.4362 178.0677 450.5591 178.5273 433.1633 Z" id="fips-05019"/>
<path d="M 575.7294 125.4142 601.4622 125.8659 601.4212 117.2118 603.1545 117.2461 603.7333 111.894 603.0319 110.9822 604.5163 108.476 634.4732 108.3077 644.5817 108.2721 647.4092 108.2401 661.7948 108.0246 667.5435 107.9425 679.2696 107.7863 680.665 101.5987 682.1389 101.5425 686.3346 101.4385 686.8455 101.4003 694.4086 101.1671 694.9597 101.151 696.6151 160.0743 679.6603 160.1684 662.08 159.3195 645.2856 160.1952 627.7305 160.348 575.5145 160.5398 575.5752 143.0128 575.7294 125.4142 Z" id="fips-05031"/>
<path d="M 103.5916 430.3802 178.5273 433.1633 178.0677 450.5591 174.5993 450.4362 174.3978 458.3205 181.042 460.0505 184.1208 459.551 181.228 463.1136 183.1444 465.1013 181.9327 469.4914 182.9915 471.8833 181.7238 475.0137 184.1746 477.0293 183.628 478.2591 185.1552 486.9606 185.2668 491.111 188.1143 493.3394 189.9838 499.9008 192.1364 500.8744 194.2296 503.8078 193.9524 506.4478 195.1078 509.629 187.5586 511.2026 181.3711 509.5422 180.7464 508.2633 175.2257 511.1581 169.5434 512.1648 169.1276 509.8628 166.5457 510.4661 162.2651 508.4913 156.9257 507.7595 154.8713 508.6984 153.2581 506.1209 149.8688 503.9987 144.2267 503.8162 141.3783 501.4932 138.421 501.1403 133.241 499.0634 121.1025 498.4733 121.9586 463.7085 104.6778 462.8877 105.1497 447.7246 103.0687 447.6859 103.5916 430.3802 Z" id="fips-05109"/>
<path d="M 662.8227 212.1085 688.9862 212.0885 697.7268 212.0208 721.4859 211.9068 716.8874 214.9216 716.6449 215.6233 716.6664 217.2709 715.3928 222.2459 715.5566 222.8591 716.541 223.714 717.5493 224.275 721.0038 224.2183 722.5194 223.7787 721.1786 221.635 720.7562 220.1578 720.6839 219.2866 720.8432 218.43 721.0948 217.8447 721.3756 217.4619 721.9738 216.8621 722.4132 216.5602 723.1625 216.3902 725.3697 216.7473 726.089 217.0366 726.4139 217.3389 727.0487 218.3693 727.3704 218.7301 728.7263 219.9374 729.2311 220.3082 730.1897 220.7818 731.4814 221.8583 731.8024 222.004 732.2865 222.062 730.9289 225.1476 730.2943 226.262 729.8861 226.7457 729.4019 226.8366 728.8774 227.4993 728.3417 228.6249 727.2443 230.3363 727.003 230.4525 726.7629 230.4185 727.8538 232.4576 727.4103 234.0166 727.1344 237.9272 725.8245 238.2765 725.066 238.0652 724.7672 238.0731 723.3777 238.9091 722.2324 239.2657 720.5435 238.4175 719.963 238.57 719.0771 238.9783 718.71 239.322 718.3035 239.8952 718.0927 240.4821 717.5475 242.7202 717.5733 243.2981 717.9506 244.1845 719.2592 246.5433 720.3878 247.8277 722.303 248.5196 723.6418 248.3115 725.0161 247.9199 726.1642 247.7344 727.2019 247.7762 728.0206 247.9894 728.9431 248.5436 729.2001 248.818 730.3814 250.3403 731.1534 251.6089 731.7208 252.3701 732.4195 253.1527 732.7393 253.8216 733.0759 254.5998 733.2161 255.2691 733.2237 256.3758 732.8227 256.9197 732.1193 257.0684 731.6302 256.6285 730.8943 256.2574 730.1762 258.0829 729.6994 259.7715 729.5467 259.7858 727.6324 258.9732 726.4816 259.1207 726.2977 260.7017 726.3344 261.2339 726.8794 262.454 727.4007 263.0489 727.7124 263.079 727.9095 263.846 728.3417 264.6068 728.7293 265.1377 729.3042 265.8215 729.8449 266.5045 730.448 267.2358 730.8704 267.4164 734.2886 267.8575 734.6942 268.2072 734.7751 268.3574 735.1286 270.428 735.0158 271.0134 734.8291 271.3561 734.1024 272.2482 732.1625 274.2672 731.6368 274.6557 731.0101 274.9672 729.3954 275.3225 727.9551 274.9186 723.0706 272.028 722.453 271.8242 722.1453 271.8526 720.3271 272.6884 719.6767 273.133 718.8368 273.8685 717.6009 275.2368 717.5246 275.3213 717.0252 276.5229 716.3801 280.6517 714.2783 286.5874 714.0678 287.717 714.0005 288.7936 714.0786 290.1967 714.2311 291.4397 713.5962 292.3662 712.1156 293.6457 711.3079 293.813 711.0015 293.7693 709.596 293.0226 708.6431 292.7734 704.4183 292.2353 703.4501 291.8785 703.2826 291.6634 703.2084 291.2474 702.9614 291.1136 698.6115 290.9094 698.2149 291.1498 698.0332 291.2599 697.7661 291.7031 697.2516 293.5239 696.288 295.6524 695.839 297.3412 695.7937 298.427 695.9931 300.1333 696.8319 302.2543 697.1622 302.8164 698.1714 303.9345 698.7226 304.275 699.6828 304.6607 700.5186 305.6112 701.18 306.1108 704.2364 307.4929 705.1758 308.0302 705.8295 308.7701 706.206 309.4141 706.5012 310.1236 706.7977 311.4535 706.8295 314.7472 706.5628 316.1179 706.295 317.0046 706.0144 317.4919 701.3196 321.0233 697.6801 323.0951 696.3893 324.1083 695.8379 324.796 697.3614 326.9728 697.4828 327.1462 697.6881 327.7848 697.6732 328.2037 697.4816 328.9733 696.9391 329.8444 696.3069 330.25 695.0183 330.152 694.3809 329.8598 692.85 328.6713 691.4995 327.1432 690.2434 328.2124 689.6064 328.607 685.1255 330.1448 681.6143 332.33 680.5866 332.8097 680.2098 318.6733 679.9183 299.1159 680.5365 270.1209 663.8893 271.2511 663.1899 264.4037 663.0521 229.5566 662.8227 212.1085 Z" id="fips-05035"/>
<path d="M 425.8132 560.384 425.7128 543.0156 448.3364 542.8975 449.1083 542.914 459.9028 542.7778 477.3024 542.6025 494.8457 544.2182 504.3559 544.6908 512.5847 544.6418 512.4835 587.7233 512.1624 622.4584 487.4708 622.1965 443.2391 621.5303 440.2022 621.5326 423.7111 621.2585 421.7176 617.7702 423.3285 613.7813 420.1034 611.7356 419.4853 609.5743 421.9923 606.2171 420.5221 603.6592 422.1383 601.0121 420.6663 595.1973 425.9315 595.1157 425.8185 561.8349 425.8132 560.384 Z" id="fips-05043"/>
<path d="M 84.2414 212.2786 92.0503 209.3452 87.7123 205.9142 89.8933 205.0673 90.1153 204.3596 88.8078 203.5368 88.3297 203.6192 88.3168 203.1296 88.5834 202.7638 89.958 201.6775 90.4618 201.7173 91.1717 201.2748 90.1741 192.7633 92.9182 190.2904 93.0514 186.8087 84.4564 186.4154 84.9075 174.9086 85.1478 169.1329 99.5948 169.6955 99.9685 161.1039 102.8585 161.2723 103.0526 155.5701 111.5419 155.9625 111.6421 153.0519 114.6223 153.1655 114.7341 150.3113 111.7367 150.1997 111.8198 147.3192 146.415 148.9014 145.6411 167.8419 145.4474 173.5641 143.1367 227.081 136.8319 229.1372 135.4127 226.6085 129.5187 221.4119 127.602 215.9871 127.2527 224.8539 126.7569 239.2231 109.4132 237.794 108.6552 255.6031 99.9855 255.3297 91.1055 254.9922 91.0098 258.4357 88.1052 258.2772 87.7896 261.237 85.0659 261.1202 85.2156 258.1768 82.2074 257.8791 82.9218 243.775 83.8039 218.8121 84.0354 216.2619 84.2414 212.2786 Z" id="fips-05047"/>
<path d="M 146.415 148.9014 174.9165 150.2519 174.7933 156.036 198.2678 157.1041 226.3518 157.3903 232.093 157.661 231.3608 183.7275 222.7351 183.4158 222.1845 206.4437 222.1322 209.3265 210.4317 208.9684 209.9538 226.2857 209.6844 237.2929 204.2117 234.4621 199.2197 236.5483 189.969 236.9785 189.7285 235.1247 193.5054 233.7657 193.9159 232.4108 191.0422 229.6016 189.4327 224.8235 189.4603 221.3035 187.7531 217.1193 183.2885 217.8094 180.4174 221.5587 178.1041 223.1692 175.7768 222.9979 172.8719 220.8331 167.2457 222.5154 161.8746 225.6276 154.4152 225.0378 151.2214 221.4861 149.7198 221.1364 147.2728 225.9795 143.1367 227.081 145.4474 173.5641 145.6411 167.8419 146.415 148.9014 Z" id="fips-05071"/>
<path d="M 452.8155 296.5999 458.7272 292.6646 462.1791 293.2342 469.2247 290.0067 472.8306 292.4578 475.2116 291.757 478.5754 293.9365 479.1708 296.9994 484.427 298.3144 488.2169 297.3666 488.2813 284.1735 507.6251 284.4193 510.7437 288.7541 505.9069 289.004 505.6963 290.8785 508.304 291.8847 511.9498 290.0478 511.4737 291.7856 524.1923 291.7185 523.8203 300.5945 523.7096 319.3926 521.5474 320.9286 527.8197 327.1392 525.1079 329.4413 523.1608 336.606 523.5658 336.9832 523.2208 368.4653 511.4096 368.2757 511.3916 379.8771 517.2201 379.9073 517.1782 382.8812 522.9983 383.0053 522.9368 388.8459 487.4678 388.2767 487.4354 405.6826 484.0781 405.9042 473.9103 405.5114 473.3907 402.1086 475.1852 398.1549 481.2058 391.3786 480.5657 388.6357 475.8918 386.0172 478.5763 379.4597 480.1558 376.7964 479.3946 374.6613 471.1623 367.9448 469.8968 367.7423 470.5995 327.2432 470.6934 318.5102 452.7593 318.2532 452.8155 296.5999 Z" id="fips-05117"/>
<path d="M 182.0788 78.4491 187.7011 78.6611 210.7691 79.4202 216.4941 79.7136 236.5384 80.415 245.3257 80.1154 251.1357 80.7479 267.9607 80.9872 267.9591 81.085 267.7739 89.6774 268.904 89.7164 268.432 105.9468 267.3404 141.1352 266.4884 158.7003 232.093 157.661 226.3518 157.3903 198.2678 157.1041 174.7933 156.036 174.9165 150.2519 175.3874 138.3655 173.9382 138.2946 174.4599 126.7729 177.2982 126.9051 177.5682 118.1389 180.4736 118.3588 180.6521 112.5826 183.5078 112.654 183.6002 109.7808 186.3817 109.8194 186.9652 92.7258 187.433 87.3147 181.8752 87.1238 182.0788 78.4491 Z" id="fips-05101"/>
<path d="M 747.9183 99.406 757.2315 99.1037 757.2684 99.1025 758.0193 99.0701 761.3807 98.9583 761.4611 98.953 761.5407 98.9516 762.437 98.9156 778.3008 98.3237 778.3461 98.3202 783.5398 98.1743 783.5535 98.1829 784.2711 98.1464 784.5933 98.8792 785.0577 99.5251 786.5901 100.9932 786.6544 101.1826 786.5243 103.2533 786.5915 103.9835 786.7481 104.5075 787.4574 105.532 788.1726 106.1505 789.8696 107.2501 791.9866 108.4541 793.6835 109.8346 794.5953 110.7528 797.0591 112.6701 797.7058 113.5167 798.0385 114.2367 798.6779 116.1653 799 116.8835 798.6625 118.7686 798.1368 119.5867 797.3916 120.3967 797.025 120.638 795.7676 121.16 795.1433 121.1813 793.9294 120.7299 793.1318 119.9027 792.0758 118.5484 787.7137 116.8183 783.479 116.8334 781.1021 118.6254 779.6303 120.0094 779.1642 120.9439 778.7219 122.3357 778.5591 123.0321 778.4697 123.9387 778.5363 124.7863 778.6821 125.2454 779.1929 125.9358 780.0266 126.5588 782.4574 127.5591 785.6913 128.5303 789.0006 130.1746 789.8089 130.7859 790.054 131.092 790.3093 131.715 790.3829 132.2615 790.2916 133.0573 789.9715 133.8531 789.6268 134.2644 787.4367 135.6573 786.8832 136.1049 785.1907 136.7888 783.7461 136.8989 781.3293 136.0495 780.106 135.9234 780.1128 136.2615 777.5056 137.2119 775.2309 139.7139 774.7696 140.582 775.168 141.7359 775.153 142.2397 774.8529 143.1779 773.2956 145.4186 772.7308 146.0748 772.4851 146.3225 771.4127 146.992 770.8205 147.2066 769.5398 147.4012 767.3679 147.2932 765.5658 148.4645 764.5847 148.9841 763.1713 150.2719 762.4598 150.2763 761.4287 149.5838 760.6563 148.5907 757.8091 146.8761 757.0888 146.8281 756.5941 147.2571 756.2261 147.7407 750.7015 151.1456 750.1159 151.6241 749.7637 152.1845 749.4 153.3232 749.388 154.0935 749.7636 156.5018 749.9006 159.7183 750.06 160.6818 750.4765 161.5073 751.0035 162.2867 752.2443 163.7099 753.15 165.5586 754.2031 166.6592 755.5648 167.5698 756.7594 168.0391 758.2656 168.3265 759.4339 168.3447 760.7829 168.0113 761.3465 167.7525 761.6692 167.4519 761.9861 166.9752 762.6514 165.495 762.8666 165.2278 763.6742 164.7395 764.8416 164.332 765.4088 164.3812 765.792 164.571 766.699 165.7459 767.105 166.8495 767.1934 168.2839 767.0693 169.4697 766.7674 170.671 766.3468 171.441 765.1946 172.1978 763.1701 173.0723 760.3538 175.3554 759.9288 175.4961 759.4774 175.472 758.4642 175.2821 757.7049 175.0247 757.4676 175.1264 756.2897 176.1145 754.2317 177.0356 752.1792 178.3308 751.2725 179.1727 750.8045 179.8262 750.4028 180.5825 750.2338 181.2331 750.2381 181.5834 750.4579 182.3879 750.8879 183.4464 752.1277 185.8955 752.4928 186.5371 753.0548 187.2695 755.0666 188.2154 755.8726 188.3908 756.96 188.4137 757.4878 188.5187 758.0466 188.9417 758.2043 189.6294 758.064 190.2226 758.0918 190.6901 758.3502 190.7937 758.4123 190.8186 758.9431 191.0552 759.1409 191.2635 759.2312 191.5647 758.678 193.8124 758.47 194.2942 758.0157 194.9298 757.4666 195.3993 756.8373 195.6636 756.2153 195.5683 754.5044 194.7939 752.6551 194.6711 752.1691 194.5437 751.6367 194.2037 750.7936 193.4833 750.5644 193.1712 750.5458 192.5883 750.847 191.9665 750.8629 191.7068 750.6665 190.7469 750.3651 190.2902 747.4255 187.9428 745.2854 186.7682 744.6981 186.6372 743.7232 186.5843 742.2262 186.8386 741.7512 187.0411 740.7887 187.6827 739.7218 187.641 738.9648 187.8754 738.2758 188.2518 737.535 188.8883 737.202 189.3514 736.8947 191.4614 736.4725 192.6272 736.2434 193.0434 735.8159 194.5123 735.6577 195.9047 735.9947 198.0679 736.4714 199.6125 736.8619 200.4453 738.2996 202.7164 740.7108 204.736 740.9473 205.2183 740.9871 205.8114 740.5021 207.303 740.164 207.9307 739.8141 209.2262 739.7806 209.8076 739.8547 210.7536 739.7383 211.1966 739.4372 211.7299 739.1382 212.4668 739.1059 213.2459 737.6742 214.2225 737.3473 214.566 737.1018 214.9709 736.9437 215.7296 736.7464 216.2253 735.8965 217.2263 735.164 218.0889 733.0959 217.2392 734.2393 215.8449 732.8194 214.2656 732.1965 212.1539 732.1727 211.0352 732.5643 208.8926 733.1804 206.7662 733.1729 205.9955 733.0594 205.7216 732.333 204.8383 731.0139 203.658 730.2148 203.2809 727.998 203.3807 727.5143 203.7313 726.5492 203.7447 725.488 204.658 724.8616 205.4036 724.5152 206.0182 724.1345 207.198 723.1976 210.7839 721.4859 211.9068 697.7268 212.0208 697.303 192.1052 697.2475 190.4208 696.6151 160.0743 694.9597 101.151 694.9833 101.1503 715.8733 100.4968 720.932 100.3288 721.0899 100.3329 724.7049 100.14 745.7994 99.4636 746.9632 99.4708 747.6449 99.3899 747.8354 99.408 747.9183 99.406 Z" id="fips-05093"/>
<path d="M 567.6148 327.932 567.6195 319.0484 576.2174 318.9037 591.6533 319.6594 625.0513 319.5032 633.9031 319.2652 645.7701 318.8788 680.2098 318.6733 680.5866 332.8097 680.1542 333.0115 679.4703 333.0615 678.2411 332.7227 677.9889 332.5426 677.1666 331.2081 676.7981 329.7077 676.625 328.5043 676.6127 327.7365 677.0131 326.5006 677.0268 326.0865 676.8287 325.2863 675.7288 323.0176 675.4359 322.6556 674.9496 322.3209 674.364 321.9983 672.8667 321.4061 671.9014 321.2614 670.8726 321.472 669.3373 322.4328 668.6668 323.0517 668.0227 324.275 667.9347 324.6904 667.8792 325.8537 668.0995 327.4242 668.4264 328.1194 669.6903 329.7471 671.4774 332.6097 672.6417 334.8816 672.6818 335.475 672.3361 336.6661 671.3164 337.4515 670.4935 338.5727 670.2203 339.0893 669.9756 339.9027 669.8795 340.9385 670.07 341.8028 670.6096 343.3748 672.5563 346.6394 673.5534 348.7903 673.8804 349.8904 673.8792 350.5471 673.6977 351.4629 673.3084 352.3339 672.8317 352.8627 670.9038 354.0773 669.3108 354.5535 667.8188 354.7939 665.726 354.7342 663.571 353.6981 662.9741 353.0863 662.5131 351.9374 662.3481 350.9612 662.3293 349.9819 662.53 348.9987 663.1698 348.003 664.9463 346.7288 665.6062 345.6494 665.6554 345.3987 665.5552 344.6832 665.1828 343.6283 663.6379 340.4063 663.3004 339.3628 661.9628 339.2897 660.5923 339.6502 659.7547 340.0663 659.1595 340.6353 658.5494 341.5634 657.9955 342.8805 657.9146 343.4187 657.9755 343.9537 658.2638 345.0919 658.8845 346.8792 658.9183 349.2192 658.7487 349.8884 658.4332 350.5602 658.1475 350.8762 657.716 351.1952 657.2455 351.3815 656.7371 351.4649 656.1542 351.6256 655.5662 352.0577 655.265 352.4879 654.9819 353.1043 654.8523 354.3156 654.8767 354.8286 654.9802 355.127 655.2883 355.5664 658.5597 359.2785 659.7286 359.9112 661.3311 360.2711 662.4963 360.2914 664.4903 359.9749 666.6524 359.4209 668.215 359.2117 669.3462 359.182 670.1407 359.3034 670.8025 359.6403 671.4891 360.3075 672.0509 361.2012 672.2578 361.8965 672.2284 362.5936 671.7396 364.5445 671.1408 365.526 669.5602 367.4467 668.244 368.4774 666.8399 369.8499 665.8182 371.3268 665.01 372.1594 663.5493 373.3318 662.3627 373.8366 661.1064 374.0629 660.2915 374.0228 659.2169 373.6869 658.5684 373.2822 657.8723 372.3352 657.4687 371.4705 657.2893 370.407 657.4433 368.6577 657.6415 367.7215 658.0336 366.9707 659.7625 365.455 657.5222 362.0236 654.1979 362.473 653.286 363.0033 652.7663 363.7307 651.7523 365.5933 651.7417 366.0543 651.9518 366.6945 652.1634 369.4185 652.3937 370.3324 652.7241 371.0147 652.7386 371.1996 652.6746 371.4572 613.86 371.8124 587.7931 371.8981 576.06 371.8408 576.1941 360.2417 576.2159 354.2481 567.5454 354.2314 567.6148 327.932 Z" id="fips-05077"/>
<path d="M 236.843 610.1846 239.2561 545.7751 242.2276 545.9113 243.569 543.9579 246.2581 543.9602 251.1864 547.2499 255.1601 545.5193 257.7088 545.811 266.4089 541.3262 266.6564 539.0437 270.0581 537.0879 273.6215 540.1708 274.114 539.4213 275.413 539.4182 324.9811 541.0987 325.4035 541.1114 325.0592 554.1682 324.3141 555.7503 322.6615 557.7772 322.6365 559.2181 316.7592 562.7931 313.8353 569.0935 302.0996 570.9478 300.5475 578.0627 304.3203 583.0475 303.0672 590.7123 301.5023 588.4658 298.2729 592.1246 295.2589 590.53 293.3825 592.3125 293.2361 593.6237 296.1644 594.9637 293.7656 599.1091 296.7519 600.9589 295.0657 602.6284 297.1544 604.2537 299.7042 603.9167 299.9206 602.137 303.2139 604.7974 301.827 609.052 303.1412 610.704 305.4605 610.3823 305.0549 614.8141 310.0093 614.9608 313.6648 614.2871 313.3656 616.4798 316.431 618.0303 315.6356 621.7854 319.1882 619.2299 324.8852 621.4573 325.914 626.5197 327.8677 625.3814 327.9278 627.5815 323.4159 626.2787 321.9741 628.1489 318.5246 629.1796 314.873 627.3288 312.4242 629.8603 309.0067 627.9421 303.313 626.7777 302.5289 624.5413 295.927 623.4274 293.0268 625.9713 288.5785 626.3906 265.3312 625.5503 259.6394 625.3542 253.751 625.193 236.3094 624.6146 236.843 610.1846 Z" id="fips-05103"/>
<path d="M 15.1902 460.6894 52.439 460.8765 52.6306 460.8718 75.2273 461.5168 77.6787 462.3765 76.428 464.3763 76.7607 470.2644 75.3198 472.5753 79.0803 474.6126 76.886 477.1871 78.8167 479.3823 77.0006 484.355 79.7114 485.3347 77.6135 492.7697 79.9722 499.3134 80.9397 499.7918 80.627 503.6833 82.3455 505.9813 80.1751 511.7983 80.7503 516.0223 81.4719 516.8237 82.8423 518.7153 82.8464 522.3202 88.3235 525.1136 88.3518 529.5183 90.0141 529.9255 90.915 532.8977 96.0503 538.3212 97.1492 540.4229 96.3333 540.9308 97.7633 542.5082 96.3091 546.0518 97.9799 549.4138 84.2775 548.753 84.521 543.0312 76.9733 542.671 71.2382 540.9918 67.4941 542.7461 67.0515 541.2132 64.5156 542.2855 59.9046 541.195 61.052 537.0842 59.6884 536.6436 55.3641 538.2665 55.324 536.0881 52.1156 538.5009 49.8635 535.3156 46.945 535.2786 44.3462 532.7962 41.3593 534.4595 41.3856 528.051 37.8997 526.0785 36.507 526.5973 35.3251 522.1798 30.1333 523.1007 31.928 521.2083 27.5136 519.5305 29.103 512.0278 28.203 510.4549 24.3849 509.5068 22.2391 509.9236 23.738 513.2865 19.8417 512.0789 18.0812 512.5711 14.7161 509.4992 13.052 510.1452 13.149 507.581 13.1763 506.8803 13.7614 494.5062 13.7693 494.0982 13.7698 494.0723 13.77 494.0646 15.1902 460.6894 Z" id="fips-05133"/>
<path d="M 275.6078 470.6549 287.5 471.5415 309.811 472.0138 340.2036 473.1279 340.5341 475.3743 344.2888 474.4738 347.7002 477.3411 351.265 476.8822 354.7086 478.8586 356.6023 481.0295 359.7457 484.6078 359.8663 486.8824 366.0411 489.9397 343.82 490.4614 343.1667 507.232 346.3774 507.2473 352.3002 514.0332 355.5061 518.9874 356.6292 524.3232 358.7485 527.7711 363.3665 531.0015 365.9865 535.9626 366.5121 542.5351 325.4035 541.1114 324.9811 541.0987 275.413 539.4182 274.114 539.4213 273.0566 538.1755 274.9492 536.2521 274.109 534.6584 276.5652 534.0184 275.7552 530.3258 273.1177 530.1069 271.5135 521.8935 274.2595 520.9721 271.8613 519.8948 271.6665 517.9031 267.3571 513.9365 266.4473 509.3886 263.0637 506.7221 265.0996 504.305 274.3335 504.9623 275.1873 482.114 275.6078 470.6549 Z" id="fips-05039"/>
</g>
</svg>