<?xml version="1.0"?>
<svg xmlns="http://www.w3.org/2000/svg" version="1.2" baseProfile="tiny" width="800" height="983" viewBox="0 0 800 983" stroke-linecap="round" stroke-linejoin="round">
<g id="cb_2018_us_county_5m">
<path d="M 1.0718 2.2233 1.5996 1.7628 2.4983 1.4302 5.4316 1 6.7237 1.471 7.4208 2.2723 7.505 3.4312 6.2645 4.4475 4.5927 5.6724 3.4587 5.9251 1.7218 4.5658 1 2.946 1.0718 2.2233 Z" id="fips-60040"/>
<path d="M 96.0708 904.9162 99.1555 907.3105 101.4138 910.0091 106.5548 916.6308 102.059 920.3626 96.9237 926.0663 91.6976 928.5561 84.748 923.9697 81.1116 917.3224 75.8657 917.0204 72.8912 916.4672 68.1518 914.3824 68.1114 913.5985 71.8337 911.0682 74.0617 908.9913 75.1832 908.0111 77.7862 906.6072 81.2552 905.0309 84.8682 904.5363 90.9382 904.5475 94.7254 905.5161 96.0708 904.9162 Z" id="fips-60050"/>
<path d="M 792.6187 977.5753 793.7401 976.0518 796.4179 976.2036 798.0962 977.9622 799 981.3088 797.9482 982.0958 795.8004 982.1133 793.254 981.2055 792.6187 977.5753 Z" id="fips-60030"/>
<path d="M 427.049 886.7909 430.1959 884.427 437.4707 885.1464 444.7985 884.2059 452.0093 884.2055 454.2998 886.1204 453.6436 891.0148 453.0452 896.4858 451.8173 896.9496 448.9248 896.3239 444.6034 894.5273 441.7718 895.361 438.7628 898.0079 436.3712 901.0274 434.6491 900.8345 432.9015 898.5291 429.1039 892.0962 427.049 886.7909 Z M 381.7739 870.6805 383.6703 869.1714 386.3935 869.7873 392.4861 870.7118 396.2678 870.7592 399.8137 870.2358 400.9397 868.6683 401.6301 868.0855 402.9298 868.8458 402.6854 872.3457 403.6677 875.1445 401.9092 878.8693 399.6589 875.8854 398.3443 873.9358 395.1799 873.4296 391.6799 873.5729 388.9771 875.8675 386.454 876.6536 382.5359 872.9211 381.7739 870.6805 Z" id="fips-60020"/>
<path d="M 106.5548 916.6308 101.4138 910.0091 99.1555 907.3105 96.0708 904.9162 96.956 904.5216 101.9722 900.297 104.4812 897.3493 107.3775 895.1572 110.4748 893.5354 115.5366 888.3284 118.6411 893.0145 123.891 893.3062 128.5724 893.6855 131.469 894.5459 139.0726 894.3005 140.9077 892.9964 145.0867 892.7306 145.1918 896.4913 147.8464 902.0075 149.4601 903.1307 148.5095 904.8535 146.2764 904.7536 145.2348 903.9979 142.381 900.0075 140.8033 900.8996 134.2655 903.543 127.2357 902.3061 124.0246 904.2178 117.778 905.4828 113.8913 907.3358 109.1356 910.7325 107.8181 915.5823 106.5548 916.6308 Z" id="fips-60010"/>
</g>
</svg>