<?xml version="1.0"?>
<svg xmlns="http://www.w3.org/2000/svg" version="1.2" baseProfile="tiny" width="800" height="931" viewBox="0 0 800 931" stroke-linecap="round" stroke-linejoin="round">
<g id="cb_2018_us_county_5m">
<path d="M 123.2227 26.8029 123.7834 8.1128 123.8831 1.1603 134.9171 1.481 134.9169 1.489 188.0684 2.5974 196.304 2.7501 217.4509 3.1188 265.1899 3.8273 273.9622 3.925 283.0487 4.0202 311.6981 4.2795 318.3238 4.353 320.1338 4.363 320.7499 4.3792 320.9827 4.3806 320.2783 7.3129 321.9227 9.8518 322.117 12.259 320.0517 14.4713 319.8132 18.1111 316.5106 21.9599 316.2698 25.1872 314.4088 27.735 314.7039 29.3151 313.521 31.7772 312.6373 31.8281 312.9946 32.1377 313.1228 32.7143 312.7261 33.0943 312.664 33.3222 312.6747 33.8485 312.5293 34.3696 312.7492 34.8951 312.7197 35.1654 312.6353 35.2964 312.8153 35.429 312.8541 35.6705 312.6732 35.6992 312.5865 35.7933 312.3485 35.7445 312.0895 35.6634 311.9148 35.7127 312.0589 36.0394 311.9224 36.6549 312.0971 36.8724 311.9046 37.0947 311.6373 36.9273 311.4966 36.7943 311.3383 37.0035 311.4287 37.1656 311.1173 37.3017 310.8807 37.2959 310.7899 37.6275 311.0445 37.7948 310.8778 38.2065 310.7755 38.5326 310.7989 38.9568 310.6539 39.2494 310.4282 39.4061 310.0874 39.7148 310.1597 40.078 310.3921 40.8702 310.6851 40.9679 310.9933 41.0488 310.8063 41.2577 310.4341 41.5007 310.2911 41.8758 310.0926 42.0685 310.0201 41.9961 309.8804 42.123 309.8916 42.3293 309.9882 42.6009 310.0764 42.9818 310.3412 43.0263 310.4477 43.3535 310.494 43.6471 310.5971 43.9616 310.8899 43.986 311.1876 44.1465 311.1819 44.5418 310.8534 44.7798 310.754 44.5307 310.3995 44.5246 310.4151 44.6609 310.4714 45.2392 310.7189 45.6833 310.8646 46.1195 310.7322 46.3181 310.6206 46.1342 310.2711 46.2385 310.1872 46.3885 310.4711 46.6437 310.7329 46.8237 310.9114 47.1963 310.3844 47.433 310.1755 47.1681 309.9828 47.0942 309.629 47.3434 309.7617 47.7388 310.2678 48.2035 310.4221 48.6581 310.3092 48.7962 310.2525 48.5706 309.8216 48.607 309.7844 48.9285 309.5902 49.2315 309.7845 49.6312 309.9078 49.635 310.0688 49.9774 309.8366 49.9706 309.4613 50.159 309.4004 50.4408 309.0343 50.5732 308.8708 50.9738 309.1395 51.2329 309.31 51.6356 308.984 52.1913 308.6004 52.3012 308.4076 52.6057 308.6232 52.8133 308.7017 53.5482 308.473 53.9501 308.6288 54.6222 308.2417 55.2895 307.8509 55.7174 307.9365 56.2097 308.06 56.7497 307.624 56.9961 307.463 57.5681 307.8847 58.0414 307.832 58.8314 308.0235 59.833 308.4078 60.4575 308.7039 60.8873 308.4948 61.0528 308.459 61.4655 308.758 61.641 308.7539 62.004 308.5822 62.4154 308.7588 63.1569 308.7737 63.6492 309.0345 64.1346 308.7988 64.6737 309.0367 65.0884 309.2308 65.1484 309.2523 65.7143 309.1529 66.1904 309.2581 66.7803 309.7235 67.2728 309.8166 67.734 309.4605 68.3269 309.5023 68.884 309.6848 69.1294 309.4744 69.4476 309.3301 69.4954 309.2666 69.866 309.4116 70.0243 309.4989 70.2178 309.2511 70.4369 308.9359 70.6124 308.951 70.8843 309.1391 70.9191 309.0896 71.14 308.7339 71.2088 308.5188 71.514 308.6028 72.0698 308.7542 72.2795 308.773 72.6679 308.6212 72.6662 308.4956 72.6137 308.5292 73.0668 308.3782 73.4686 308.0932 73.3814 307.9539 73.3036 307.7183 73.355 307.6346 73.4922 307.7878 73.6928 308.0177 73.9795 308.0141 74.3112 307.6544 74.5099 307.3144 74.4811 306.7211 74.2651 306.545 74.2721 306.575 74.4697 306.7289 74.5243 306.7834 74.9264 306.7183 75.2315 306.1705 75.4121 305.9033 75.5716 305.7988 76.1389 305.1462 76.5802 305.021 76.9071 304.9956 77.2681 305.144 77.2463 305.4536 77.3679 305.5766 77.7091 305.4267 78.0105 305.2236 78.5175 305.1903 78.7817 304.8742 78.8447 304.6275 78.8627 304.394 79.0538 304.2697 79.4694 304.5638 79.7557 304.7664 79.6988 304.6452 80.0606 304.3734 80.6467 304.4195 81.0766 304.7864 81.2527 305.023 81.1897 305.0567 81.6106 304.8977 81.9235 304.889 82.466 305.1568 82.7117 305.227 82.9913 305.0218 83.1298 304.8661 83.6403 305.1439 83.9479 305.2982 84.2007 305.5604 84.3226 305.8404 84.2153 306.1276 84.4909 306.2593 84.8474 306.1297 85.1688 305.956 85.2135 305.981 85.4496 306.2428 85.5294 306.6548 85.819 306.4561 86.1303 306.1486 86.4651 306.2824 86.489 306.5705 86.448 306.8214 86.5421 307.3095 86.8325 307.3878 87.1642 307.3714 87.4303 307.0719 87.4664 307.0436 87.9162 307.3582 88.2156 307.8246 88.293 308.2058 88.1464 308.5089 88.2017 308.5987 88.4364 308.8884 88.578 309.0629 88.4711 309.1989 88.5351 309.1642 88.6953 309.0905 88.926 308.9738 88.8953 308.7303 89.1262 308.7713 89.495 308.7535 89.7656 308.9231 89.9228 308.8478 90.2471 308.5581 90.4356 308.0724 90.6618 307.9752 91.0391 308.207 91.3276 308.1682 91.7539 307.7418 92.0238 307.3998 91.8488 306.5917 92.2976 306.3511 92.4824 306.1745 92.7817 306.2999 92.9974 306.3873 92.9285 306.5056 93.2829 306.5637 93.6807 306.5404 94.0946 306.5398 94.3206 306.2988 94.3799 306.0734 94.4045 306.0949 94.7078 306.4657 94.7027 306.9084 95.2069 307.1196 95.3381 307.0162 95.4689 306.9088 95.6506 306.5755 95.8202 306.4003 95.7556 306.2469 95.5727 305.9258 95.6123 305.8772 95.8002 306.0734 95.9135 306.2144 96.0037 306.2816 96.3074 306.1969 96.4446 306.4378 96.6355 306.6785 96.9097 306.7576 97.5095 306.9077 97.8212 307.1562 98.0499 307.3755 97.8568 307.7936 97.7652 308.1535 98.0246 307.9534 98.3417 308.2666 98.7656 308.4953 99.5494 308.6837 99.7933 308.7725 100.0219 308.6042 100.2489 308.808 100.5935 308.6674 101.1696 308.3026 101.4575 308.034 101.7605 307.8218 102.297 307.954 102.5908 307.9163 102.8773 307.7626 102.9541 307.8296 103.2593 307.947 103.3039 307.7945 103.6666 307.4242 103.7576 305.3477 106.8071 304.9819 108.2878 303.6711 110.0664 302.1941 111.3285 301.4087 111.6631 300.4121 110.6511 299.8399 109.548 299.3131 109.4554 298.4815 109.6407 297.5491 110.1303 296.2103 110.6147 295.2575 111.9734 295.7335 113.4613 296.0269 114.5312 294.4814 115.5347 292.7516 114.5774 292.0027 114.2526 290.9459 115.0123 290.6734 116.328 290.2889 117.0738 289.2009 117.8667 287.2088 118.1127 286.8984 118.7603 286.8909 119.8283 285.9226 120.9726 284.9179 120.6367 284.1343 120.2935 282.9727 120.1502 281.9145 120.2754 281.1663 120.7366 280.0485 121.98 278.6321 121.7653 276.6966 121.0805 275.7527 121.4838 275.4236 121.7459 274.9519 122.4518 274.5004 123.8322 273.3731 124.9001 272.5848 125.4472 271.5655 125.6079 270.8984 125.3329 270.108 124.9653 269.0138 125.1328 268.5393 125.9855 267.9808 127.1857 267.0049 127.6338 264.8988 128.1212 262.9468 128.7407 261.4724 129.1642 260.5846 129.054 258.2515 128.021 257.3255 128.0135 256.8628 128.1819 256.4933 128.2905 255.866 128.738 254.8663 129.2535 254.1952 129.6675 253.795 130.0673 253.2825 130.7069 252.6704 131.6884 252.2489 132.3195 251.9176 132.7359 251.5012 132.9069 249.3595 133.7114 248.1283 134.473 247.6869 134.6927 246.6304 135.0834 245.1439 136.0184 244.8232 136.2176 243.6825 137.0061 243.0893 138.0709 242.2761 138.8901 241.2353 139.3405 240.697 139.5065 240.2777 139.1251 239.6687 138.4734 238.1274 138.2376 237.0182 138.9339 236.741 139.5551 235.5695 140.3928 234.1506 140.9625 232.4078 142.013 232.3398 142.7965 232.0729 143.5265 231.7025 144.8293 232.0988 146.7828 231.6407 147.757 230.6601 148.5484 230.1204 149.3983 229.4683 150.7342 229.2718 151.3463 227.9423 151.8187 226.6697 151.3483 225.5742 151.5427 225.213 151.8258 224.5282 151.8658 224.1138 151.5868 223.2855 151.3575 221.8501 150.5141 219.5834 150.7257 217.9552 150.0869 216.0425 151.3498 215.8844 152.097 215.6064 153.4973 214.8098 155.3161 213.5469 156.429 212.7326 157.2658 212.3369 158.0056 212.1322 160.8113 212.2732 162.7535 212.4457 163.4909 213.1735 164.8261 213.2684 165.3692 213.5493 166.3671 213.4139 167.1357 213.3471 167.6757 213.5408 168.6883 214.147 169.5264 215.9272 170.2764 216.245 170.7379 216.3788 171.1835 216.4611 171.4634 216.2759 171.7091 216.4554 172.5933 215.5469 173.4873 214.9008 174.608 215.3095 176.4413 215.0416 177.4563 214.8693 178.0716 214.6387 178.6897 214.0931 179.5424 214.0401 180.4534 214.845 181.2875 215.3507 182.1388 215.5594 182.8577 216.3706 183.357 217.1969 185.3458 216.8482 187.5625 216.9775 188.8879 216.6877 189.5484 215.5426 191.0738 214.795 192.7545 214.7788 193.4369 214.9413 194.0183 214.6156 194.5252 213.9469 195.5862 214.1119 196.2815 213.8969 198.044 213.7749 198.4236 212.9673 243.3082 212.9186 246.5111 210.844 370.6002 209.6444 440.8792 209.2567 440.934 208.4115 441.4059 207.9565 442.3555 205.7918 444.6652 201.6899 443.9922 199.5881 444.2298 198.9324 444.5164 198.5361 444.3656 198.3434 444.1595 197.8462 443.7355 196.3257 443.415 194.9897 443.5832 193.6633 443.5284 192.3449 443.0968 190.9936 443.1711 189.9407 442.8038 188.0949 442.8388 187.0535 442.9385 186.676 442.8863 186.4233 442.7439 185.9196 442.5955 185.6116 442.5427 185.3698 442.285 185.2282 442.0187 184.9669 441.7267 184.7393 441.6321 184.6201 441.6015 184.4939 441.7249 184.4852 441.8114 184.1717 441.8769 183.7475 441.7022 183.095 441.6469 182.8091 441.7663 182.6551 441.8869 182.4939 441.955 182.1698 442.0861 181.837 442.258 180.7961 443.9061 180.5728 444.2928 180.041 445.1593 178.5216 446.8307 177.8168 447.3547 177.5431 448.3338 175.8542 449.9384 175.2749 452.4107 174.3188 453.1352 173.6567 453.7513 173.2469 454.1462 173.0984 454.323 172.9627 454.4612 172.7576 454.6343 172.5637 454.5762 172.4978 454.4211 172.3651 454.2864 172.2722 454.3332 172.0205 454.3438 171.7695 454.4372 171.744 454.5768 171.5392 454.6969 171.1848 454.9081 170.9195 454.9094 170.506 454.8702 170.1608 454.8046 169.9442 454.6735 169.7242 454.7077 169.4473 454.9309 169.2542 455.1046 168.9548 455.3083 168.6827 455.3686 168.4628 455.3951 168.3203 455.5345 168.1268 455.5468 168.1305 455.4494 168.0072 455.1704 167.9947 454.9853 167.8079 454.8496 167.7009 454.9051 167.5425 454.9783 167.4307 455.1385 167.5292 455.3031 167.5075 455.5366 167.406 455.7576 167.3193 455.8747 167.135 455.8615 167.1 455.7817 166.954 455.7375 166.7891 455.792 166.4449 456.1091 166.149 456.4531 165.9695 456.6112 165.6965 456.5844 165.6409 456.5095 165.5294 456.4377 165.37 456.5627 165.0965 456.9018 164.8304 457.2164 164.7823 457.2882 164.608 457.1869 164.4663 457.0803 164.1705 457.0766 163.9385 457.1475 163.604 457.1689 163.1969 457.1608 163.0117 457.3834 162.7862 457.5237 162.5547 457.6153 161.9331 457.5997 160.9511 457.5174 160.3112 457.5076 159.5279 457.5269 159.0625 457.068 158.6785 456.5666 158.4413 456.4242 158.0733 456.3108 157.8928 456.0968 157.9426 455.8347 157.8174 455.603 157.4477 455.5009 157.0383 455.45 156.8276 455.3221 156.7756 455.1278 156.6607 454.882 156.6633 454.569 156.2396 453.4727 154.8493 452.47 153.6813 452.7039 153.5097 452.792 153.2907 452.84 153.0234 452.8242 152.881 452.8756 152.6864 452.9492 152.3652 453.031 152.2063 453.0628 152.0186 453.1403 151.6874 453.3404 151.3924 453.5282 150.9105 453.6251 150.5204 453.7875 150.2037 454.0555 149.9751 454.1864 149.5288 454.2648 148.3542 453.6991 147.5695 453.1806 146.71 453.0946 146.3692 452.9992 146.0317 453.0708 145.4153 453.4851 145.13 453.5319 144.7662 453.572 144.5284 453.3336 144.1287 453.1748 143.8744 453.4993 143.7915 454.017 143.6791 454.2767 143.3942 454.4847 142.9949 454.6903 142.0039 454.9769 141.466 454.9205 141.01 454.2833 140.6533 453.2244 139.7815 451.6024 139.615 450.6197 139.3951 450.2712 138.5923 450.0052 138.2279 449.9948 137.5938 449.8447 136.373 449.7963 135.9622 449.9995 135.7531 450.1301 134.9679 450.3144 133.9322 450.5954 133.1393 450.6765 132.7175 450.6922 131.9967 450.6676 130.0515 450.4871 129.4408 450.4788 128.6874 450.2576 127.2265 449.3981 126.2139 449.1321 123.8451 448.9497 121.8787 449.1771 121.1247 449.3684 120.2958 449.3779 119.635 449.3441 119.4608 449.4187 119.146 449.53 118.556 449.382 118.0203 449.1174 117.849 448.7417 117.6916 448.5727 117.2 447.8219 116.9198 447.4721 116.5806 447.1901 116.3564 447.1048 116.0625 447.4237 115.9599 447.8239 115.7057 448.1496 115.277 448.4844 114.8385 448.4277 114.6386 448.2949 114.5674 448.0741 114.5774 447.8751 114.3315 447.6258 113.8318 447.1666 113.6301 447.038 113.3648 446.8007 113.2813 446.4671 113.054 445.9894 112.5901 445.4476 112.2047 445.3357 111.9718 445.1976 111.5442 444.6343 110.6946 443.6322 109.8255 443.077 109.0668 443.0219 108.0679 442.0541 106.003 441.8593 104.3111 442.3628 101.6676 440.8616 101.1191 441.003 100.7732 440.5552 98.6288 438.5508 97.1548 434.9771 96.6334 434.0711 96.1039 433.3509 95.5453 432.8664 94.9604 432.4922 94.2217 432.1894 93.114 431.304 91.1939 431.0774 89.5477 430.4706 89.0784 429.9698 88.4933 428.6881 87.0524 427.1811 86.6067 426.7687 86.0646 426.43 84.5541 424.5564 84.1279 424.3563 82.4366 424.204 81.5451 423.8223 81.3002 423.6063 81.098 423.3285 80.904 422.8639 80.8682 421.8008 80.5334 421.174 79.7253 420.2676 78.2395 419.2613 77.3378 418.7301 76.3921 418.4729 75.8168 417.1435 75.5167 416.6802 75.205 416.3523 74.6388 416.1089 74.237 416.097 72.4258 416.3256 71.4245 416.6205 70.0333 416.7192 69.7587 416.5712 69.3583 416.1392 68.3366 414.8804 68.253 414.4565 68.2894 414.2077 68.8194 412.8526 69.0899 411.9394 69.1178 411.6391 68.9677 409.8348 69.0899 408.7185 69.234 408.1531 69.7106 406.8517 69.7386 405.3442 69.4463 403.1795 68.3281 400.9832 66.3495 396.5746 64.096 394.7035 63.1573 392.8768 63.1761 392.2056 63.1348 392.0365 63.493 391.6621 63.7909 391.4065 63.9336 391.1661 63.9872 389.8419 63.4095 389.1418 62.0862 387.9919 61.7693 386.5592 61.7585 386.3371 61.9545 385.2463 61.8171 384.5416 61.4583 383.8763 60.7733 383.0598 60.491 382.5785 60.4748 382.1133 60.3978 381.7179 60.5308 381.0163 60.5404 380.8282 60.5192 380.5416 60.4392 380.2533 60.2266 379.8082 60.154 379.5027 60.0909 379.0638 59.9543 378.7025 59.238 377.4011 58.8516 376.5078 58.5193 374.7695 58.4751 373.8229 58.2438 373.1964 58.098 372.9313 57.8262 372.7606 57.3441 372.6572 56.7268 372.3911 56.0958 371.8728 55.5593 370.9186 55.4231 370.7752 54.9188 370.3927 53.9286 369.827 53.0106 369.4194 52.1775 368.8789 51.6049 368.1392 51.4065 367.7158 51.021 367.1697 50.5026 366.5313 49.1 365.4639 48.241 364.6725 47.4885 363.8227 46.7221 362.6601 45.1653 359.2754 44.7439 357.3923 44.5379 355.8256 43.9644 354.0421 43.2456 352.4599 42.5364 351.5437 41.4539 350.4978 40.9826 350.1226 38.9277 348.8694 38.3983 348.3857 37.5286 347.2794 37.0658 346.1976 36.97 345.8496 36.8099 344.0965 36.8324 343.5414 37.0363 342.5535 37.7042 340.6014 37.7702 339.8537 37.4575 338.3124 37.472 337.761 37.643 336.7827 38.0094 335.4775 38.0287 334.7665 38.0319 334.4775 37.814 333.4092 37.4143 332.1545 37.4071 331.1364 37.5106 330.5006 38.1966 328.6046 38.3423 327.7338 38.3472 326.7965 38.2627 326.3279 37.8225 325.1522 37.4312 324.0052 37.3092 322.0823 37.4988 320.812 38.1405 319.3251 38.8841 318.1817 41.6815 315.9415 42.1179 315.091 42.2342 314.3819 42.0209 313.3559 40.941 311.9737 39.7163 311.0217 37.0445 309.6681 36.5472 308.7763 36.8884 308.1278 38.8731 306.1665 40.2274 305.6578 42.997 305.8346 44.528 305.4419 45.7817 304.6583 46.6007 303.0528 47.1428 299.0947 47.2862 295.7622 46.9856 292.9584 46.6495 292.0818 45.9845 291.4511 45.6046 288.1258 45.7042 286.7958 45.288 282.8167 44.0769 277.1331 44.4253 272.5241 43.45 267.8647 42.5795 265.3119 40.6931 258.6494 37.4868 255.3425 36.2183 252.8421 35.9293 251.9749 35.7677 249.1347 34.9766 246.6851 34.3877 245.3551 34.2324 243.6762 34.5665 241.4815 35.0402 240.7771 36.4937 239.7428 37.2009 238.784 37.3665 238.152 37.3103 237.8237 36.9534 237.3393 36.7459 236.3204 36.7054 233.3468 36.3541 231.0682 36.4395 230.605 37.2767 229.4767 38.0306 227.8497 38.2166 225.6995 37.6223 224.3261 35.231 220.5958 33.6518 218.9274 33.6402 216.7587 34.7426 214.5872 34.9918 213.4025 34.6673 212.7559 33.2535 211.7659 32.3441 210.7583 31.8244 209.5829 31.8546 209.0449 33.0275 205.4713 33.3539 201.8393 32.6671 199.679 33.1064 196.2465 31.4433 193.5829 31.7549 192.9391 32.5975 192.2462 33.7378 189.6652 33.6617 189.1431 33.2562 187.5795 33.2824 186.7495 33.5909 185.7016 35.7167 184.3877 37.3544 184.1431 37.7334 182.5699 33.5024 178.0352 32.468 176.2824 32.6803 173.7173 31.6367 172.5997 29.8677 171.4507 29.6427 171.0351 30.0824 169.0278 29.899 168.0599 28.5635 165.8187 28.196 164.266 28.3762 160.7712 28.4555 160.213 28.7709 159.6719 29.2048 159.213 30.05 158.319 30.2749 157.2964 30.1954 156.7795 29.7067 156.0518 29.0469 155.6752 28.9037 155.1561 28.9496 154.722 28.9789 153.8124 29.4851 152.9966 29.5706 152.3263 29.0421 151.1145 28.6997 150.3294 27.329 148.8329 27.157 148.4748 27.1696 147.5664 27.4492 146.9972 28.3466 145.9962 29.8232 144.8395 32.3268 144.3742 33.318 144.3953 39.0629 143.0015 39.5567 142.5936 39.9655 141.9179 43.7768 139.0663 44.2786 139.2925 45.0201 140.7647 45.6933 141.116 46.823 140.521 48.3196 139.2337 51.6832 137.7798 55.1419 137.7759 59.6219 138.1154 60.2686 138.5712 60.5296 139.011 60.489 139.5348 60.3904 140.335 60.2769 140.7949 60.311 141.3208 60.4771 141.6036 60.7715 141.7663 61.5642 141.9433 62.7685 141.725 65.0376 140.2534 65.9 140.1316 66.5886 140.332 67.2154 141.6329 67.8101 142.3542 68.0779 142.4335 70.6874 140.8186 72.0781 139.3131 72.688 139.0862 73.597 139.0921 77.9722 139.9067 79.0977 142.0381 82.3995 145.7559 83.5076 146.1969 86.0845 150.0302 86.4051 151.2732 86.1065 151.8516 85.2511 152.5917 84.9843 153.1577 85.0406 153.7494 85.2362 153.9716 89.6439 156.0151 90.8568 157.7845 91.3455 158.8556 91.8025 159.4065 93.1616 160.3797 94.9643 161.346 95.6902 161.4092 98.282 161.2596 101.1172 160.4535 103.1984 159.4191 104.5654 159.4393 106.1763 160.1125 106.4966 160.0061 106.9776 159.4548 108.3518 157.3223 108.5089 156.4281 108.4021 155.3844 108.6012 154.3598 111.7012 148.5998 111.7569 148.313 111.3392 147.6642 110.596 147.0168 110.504 146.7258 110.635 145.9027 110.9485 145.4174 112.269 144.5881 113.2967 144.5642 113.7446 144.3339 115.278 140.661 118.1852 134.8084 119.2384 133.4135 121.0306 132.6883 121.2533 124.3391 121.2275 123.466 121.1554 120.4797 121.2027 117.0978 121.5169 112.8855 121.4733 111.2318 121.9769 100.5524 122.1881 92.0857 122.2275 87.1123 122.0764 82.7783 122.4235 63.0165 122.3731 62.3845 122.4514 57.2813 123.2226 26.8051 123.2227 26.8029 Z" id="fips-04015"/>
<path d="M 31.0832 581.1589 31.8084 578.8928 31.69 577.7569 31.7647 577.4208 33.253 575.1441 33.9018 574.499 34.7688 573.4529 35.0523 572.9841 35.4126 571.9593 36.233 570.5475 36.6979 570.0694 37.7734 569.4455 38.691 569.2962 39.2732 569.0394 40.4735 567.8458 40.5365 567.5972 40.5262 566.6067 40.7364 565.5689 40.8243 565.3926 43.1692 563.7187 45.5808 562.1953 45.6158 561.9591 45.3011 561.3321 44.1533 559.4497 44.1141 559.3887 43.578 557.5011 43.5849 555.7375 45.208 553.295 45.5446 552.9484 45.8236 552.5447 45.8633 552.0706 45.716 551.6861 45.4337 551.3103 45.2178 550.658 45.2129 549.8976 45.4098 549.4596 45.6338 548.9908 45.6544 548.2627 45.5406 547.6258 45.3952 547.1781 45.2796 546.6045 45.2649 546.1922 45.5417 545.725 45.7376 545.3186 45.9027 545.07 45.9862 544.9139 46.0197 544.6615 46.0023 544.3441 45.9032 544.1194 45.7778 543.8941 45.6017 543.6039 45.4205 543.2741 45.2592 542.7678 45.2066 542.1118 45.3852 541.4412 45.7493 540.8898 46.2828 540.3832 46.9524 539.9786 47.875 539.5461 48.8893 539.2908 50.061 538.6904 50.1726 538.4399 50.4223 536.9003 50.3565 535.8353 50.1524 535.0576 49.5935 534.5437 49.3503 534.148 49.1607 533.5756 48.8162 533.1634 48.3536 532.8843 48.0806 532.5386 48.6762 531.3512 48.9972 530.5832 49.2243 529.8294 49.2684 528.9513 49.2162 528.2827 48.9487 527.0556 47.7351 523.686 47.3311 521.8565 46.3246 519.2972 46.4508 519.1002 47.0662 518.6624 47.3487 518.1719 47.4676 517.6281 47.4116 517.2349 47.0477 515.9919 46.7743 515.4465 46.2685 513.8883 46.3143 513.2865 46.4555 512.7721 46.6943 512.3823 47.003 512.2081 48.0467 512.2963 48.3387 512.2201 49.5883 511.3347 49.8322 511.1001 49.9603 510.7372 49.9414 509.5899 49.822 509.282 48.7493 508.2709 48.2172 507.7588 48.0506 507.3879 47.9573 507.1108 47.9154 506.8046 47.9476 506.5615 48.0817 506.2907 48.29 506.0831 48.65 505.8054 49.0303 505.63 49.3401 505.3871 49.443 505.1984 49.4614 504.8732 49.3856 504.4968 49.009 503.6702 48.1017 502.5945 47.1863 501.7917 46.7836 501.5511 46.0783 501.1391 45.9126 500.7378 45.8748 499.7317 46.8558 497.6091 47.7955 496.3608 48.6379 495.9792 49.2591 496.1711 49.4851 496.141 50.8161 495.4396 51.4935 494.6345 52.9215 493.2563 53.1598 492.8994 53.2743 492.5047 53.398 492.3318 54.1628 491.8366 54.8242 491.2645 55.2798 490.4872 55.5184 490.3978 56.0351 490.3607 56.2024 490.2174 56.3338 489.9005 56.3251 489.4811 56.0226 488.6097 55.9914 488.2637 56.0404 487.9692 56.2724 487.7045 56.5819 487.59 57.1367 487.5838 57.766 487.3391 58.6455 486.7752 59.1033 486.2728 59.4255 485.746 59.7334 484.8603 59.9424 483.2814 59.8892 482.4907 59.5048 481.2401 59.4124 480.6486 59.4398 479.9824 59.7271 477.6961 60.0668 476.433 60.27 475.1886 60.3828 475.0228 61.1257 474.3288 61.3958 473.6412 62.1904 472.6138 62.8291 471.9502 63.4107 471.575 64.1926 471.35 64.8128 471.3487 66.2625 471.6446 67.8189 470.7226 69.1675 470.5094 69.5471 470.3469 70.3954 469.5527 70.9695 468.4489 71.4325 468.0217 72.1106 467.8215 73.7208 467.9339 75.2902 467.5309 75.8112 467.2383 76.995 466.2666 79.7083 462.753 80.4685 462.1516 82.0986 461.9296 83.0351 462.271 84.9569 461.7296 86.3242 460.8186 86.809 460.2419 88.3085 459.6769 88.6784 459.3698 88.9819 458.556 88.8908 457.2667 88.9886 456.9641 89.2391 456.7265 90.3249 456.1304 90.8339 455.7214 91.3237 455.0861 93.7314 452.6395 95.4988 451.1959 95.7273 450.9496 95.7936 450.7581 96.0243 450.3109 96.1937 450.028 97.0914 449.6551 97.3774 449.3324 97.4665 449.0598 97.5745 448.7623 97.7568 448.4645 98.0488 448.2752 98.433 448.2565 98.9053 448.2889 99.7447 448.1016 100.0659 448.1 100.8373 448.1331 101.2314 447.8557 101.4525 447.4982 101.4891 447.0305 101.4536 446.6085 101.219 445.7186 101.1793 445.2862 101.3289 444.6668 101.0483 443.397 100.9203 442.2046 101.1252 441.3779 101.1191 441.003 101.6676 440.8616 104.3111 442.3628 106.003 441.8593 108.0679 442.0541 109.0668 443.0219 109.8255 443.077 110.6946 443.6322 111.5442 444.6343 111.9718 445.1976 112.2047 445.3357 112.5901 445.4476 113.054 445.9894 113.2813 446.4671 113.3648 446.8007 113.6301 447.038 113.8318 447.1666 114.3315 447.6258 114.5774 447.8751 114.5674 448.0741 114.6386 448.2949 114.8385 448.4277 115.277 448.4844 115.7057 448.1496 115.9599 447.8239 116.0625 447.4237 116.3564 447.1048 116.5806 447.1901 116.9198 447.4721 117.2 447.8219 117.6916 448.5727 117.849 448.7417 118.0203 449.1174 118.556 449.382 119.146 449.53 119.4608 449.4187 119.635 449.3441 120.2958 449.3779 121.1247 449.3684 121.8787 449.1771 123.8451 448.9497 126.2139 449.1321 127.2265 449.3981 128.6874 450.2576 129.4408 450.4788 130.0515 450.4871 131.9967 450.6676 132.7175 450.6922 133.1393 450.6765 133.9322 450.5954 134.9679 450.3144 135.7531 450.1301 135.9622 449.9995 136.373 449.7963 137.5938 449.8447 138.2279 449.9948 138.5923 450.0052 139.3951 450.2712 139.615 450.6197 139.7815 451.6024 140.6533 453.2244 141.01 454.2833 141.466 454.9205 142.0039 454.9769 142.9949 454.6903 143.3942 454.4847 143.6791 454.2767 143.7915 454.017 143.8744 453.4993 144.1287 453.1748 144.5284 453.3336 144.7662 453.572 145.13 453.5319 145.4153 453.4851 146.0317 453.0708 146.3692 452.9992 146.71 453.0946 147.5695 453.1806 148.3542 453.6991 149.5288 454.2648 149.9751 454.1864 150.2037 454.0555 150.5204 453.7875 150.9105 453.6251 151.3924 453.5282 151.6874 453.3404 152.0186 453.1403 152.2063 453.0628 152.3652 453.031 152.6864 452.9492 152.881 452.8756 153.0234 452.8242 153.2907 452.84 153.5097 452.792 153.6813 452.7039 154.8493 452.47 156.2396 453.4727 156.6633 454.569 156.6607 454.882 156.7756 455.1278 156.8276 455.3221 157.0383 455.45 157.4477 455.5009 157.8174 455.603 157.9426 455.8347 157.8928 456.0968 158.0733 456.3108 158.4413 456.4242 158.6785 456.5666 159.0625 457.068 159.5279 457.5269 160.3112 457.5076 160.9511 457.5174 161.9331 457.5997 162.5547 457.6153 162.7862 457.5237 163.0117 457.3834 163.1969 457.1608 163.604 457.1689 163.9385 457.1475 164.1705 457.0766 164.4663 457.0803 164.608 457.1869 164.7823 457.2882 164.8304 457.2164 165.0965 456.9018 165.37 456.5627 165.5294 456.4377 165.6409 456.5095 165.6965 456.5844 165.9695 456.6112 166.149 456.4531 166.4449 456.1091 166.7891 455.792 166.954 455.7375 167.1 455.7817 167.135 455.8615 167.3193 455.8747 167.406 455.7576 167.5075 455.5366 167.5292 455.3031 167.4307 455.1385 167.5425 454.9783 167.7009 454.9051 167.8079 454.8496 167.9947 454.9853 168.0072 455.1704 168.1305 455.4494 168.1268 455.5468 168.3203 455.5345 168.4628 455.3951 168.6827 455.3686 168.9548 455.3083 169.2542 455.1046 169.4473 454.9309 169.7242 454.7077 169.9442 454.6735 170.1608 454.8046 170.506 454.8702 170.9195 454.9094 171.1848 454.9081 171.5392 454.6969 171.744 454.5768 171.7695 454.4372 172.0205 454.3438 172.2722 454.3332 172.3651 454.2864 172.4978 454.4211 172.5637 454.5762 172.7576 454.6343 172.9627 454.4612 173.0984 454.323 173.2469 454.1462 173.6567 453.7513 174.3188 453.1352 175.2749 452.4107 175.8542 449.9384 177.5431 448.3338 177.8168 447.3547 178.5216 446.8307 180.041 445.1593 180.5728 444.2928 180.7961 443.9061 181.837 442.258 182.1698 442.0861 182.4939 441.955 182.6551 441.8869 182.8091 441.7663 183.095 441.6469 183.7475 441.7022 184.1717 441.8769 184.4852 441.8114 184.4939 441.7249 184.6201 441.6015 184.7393 441.6321 184.9669 441.7267 185.2282 442.0187 185.3698 442.285 185.6116 442.5427 185.9196 442.5955 186.4233 442.7439 186.676 442.8863 187.0535 442.9385 188.0949 442.8388 189.9407 442.8038 190.9936 443.1711 192.3449 443.0968 193.6633 443.5284 194.9897 443.5832 196.3257 443.415 197.8462 443.7355 198.3434 444.1595 198.5361 444.3656 198.9324 444.5164 199.5881 444.2298 201.6899 443.9922 205.7918 444.6652 207.9565 442.3555 208.4115 441.4059 209.2567 440.934 209.6444 440.8792 208.7924 492.7766 208.7306 492.9063 207.603 563.5934 207.0101 594.4264 121.956 592.6987 122.2779 578.4841 80.1141 577.6231 78.1833 648.4185 68.5557 648.1338 64.1721 648.4212 44.2963 647.8578 43.8087 647.4499 43.3417 647.2769 41.3182 646.8169 39.3068 646.6686 36.7947 646.1629 36.3147 646.1623 35.8819 646.3403 35.4427 646.7897 34.9633 647.4803 34.6542 647.6813 34.2686 647.7871 32.7285 647.8755 30.3067 647.5114 29.3603 647.1185 29.0252 646.8446 28.2565 645.5195 27.5529 644.4751 27.2777 644.2047 26.6915 643.8594 26.2684 644.1963 25.3975 645.7474 25.0007 646.2716 24.7211 646.4527 24.3814 646.4415 24.0123 646.2284 23.2466 645.5396 22.8748 644.8893 22.7042 643.9638 22.8605 642.3941 21.1916 640.0899 20.9254 639.2402 20.9145 638.7405 21.0292 638.1413 20.977 637.9491 20.5034 637.6489 20.2213 637.5685 19.3289 637.5182 18.8451 637.3919 18.6103 637.2036 18.4427 636.7179 18.4627 635.6846 18.7359 634.402 19.1171 633.036 20.1369 630.2183 21.1022 629.1574 21.5217 628.4656 21.903 627.5093 22.2423 626.361 22.658 625.6703 22.7604 625.1133 22.5855 624.0023 22.7752 623.1879 23.2449 622.0943 23.3281 621.4485 23.3642 621.0102 23.0111 619.1366 22.9517 618.5036 23.3523 617.309 23.7141 615.9462 23.7448 615.314 23.6399 614.9216 23.1694 614.124 22.5595 613.3512 21.6968 611.6374 21.6861 611.4447 21.8757 611.1992 23.7824 610.0102 24.124 609.5465 24.0908 609.2235 23.5059 607.6214 23.0485 607.0511 22.5345 606.6357 21.1777 605.9802 20.0397 605.5977 18.9119 605.3305 18.0104 605.0065 17.502 604.6928 17.2908 604.5071 16.2754 602.1311 16.2834 601.8691 16.4714 601.5962 17.3583 600.5837 19.1481 599.2503 19.5473 598.8028 19.9391 598.1048 20.5702 596.6135 21.0403 594.1075 21.042 593.4324 20.9439 592.6824 19.8894 590.1216 19.955 589.4692 19.9233 589.1566 19.7816 588.8901 19.0944 588.1977 17.8837 586.4419 17.5717 585.8503 17.547 585.5695 17.5863 585.4087 17.7914 585.1727 18.3104 584.9664 19.5578 585.1085 20.8082 584.9614 21.3685 584.5612 21.4968 584.378 21.5473 584.0574 21.6681 583.8866 22.73 583.4586 24.6442 583.4584 26.7313 584.3809 27.4867 584.4221 27.9377 584.3195 28.8016 583.8369 29.9351 582.8936 30.7152 582.0327 31.0832 581.1589 Z" id="fips-04012"/>
<path d="M 320.9827 4.3806 343.1041 4.4909 344.5718 4.5181 467.7982 4.7815 468.7 4.7792 468.7459 4.7765 475.9605 4.8335 485.3389 4.9018 488.3945 4.7917 504.1921 4.7765 512.957 4.4703 554.1377 4.0566 554.5612 51.3724 556.9179 320.3952 557.3988 376.5823 557.4023 376.9978 558.006 448.2416 558.0297 451.0565 558.0316 451.278 555.8597 452.0042 555.8399 452.0006 555.8944 451.5656 555.778 450.6437 555.8617 450.368 556.4441 449.7111 556.5193 449.1933 556.8961 448.732 557.0371 448.6699 556.5704 447.2798 553.6066 445.3462 552.9245 443.8495 549.8461 446.0569 545.127 444.2241 548.6043 447.305 546.2842 448.5236 547.8595 449.3213 544.9551 451.0021 540.9147 449.3706 538.2519 445.0394 536.8108 445.3242 531.6029 442.6618 529.8842 443.1318 527.5689 439.4936 524.6697 438.3208 523.7875 436.2603 519.8732 435.1283 520.8093 436.7603 519.8373 438.8702 516.6551 436.9043 518.9238 433.5913 511.2321 429.8533 508.3219 432.0541 506.915 430.8644 504.4524 433.355 503.7684 430.2431 499.3608 427.693 496.0108 427.9735 494.305 425.1564 491.9113 424.22 490.4976 420.6589 489.0005 422.2304 482.8993 423.8131 480.5472 425.7001 476.5376 425.3817 476.8248 422.7047 474.1599 422.9341 471.9445 425.3925 470.7227 425.1574 469.9012 429.7819 472.1885 429.7693 470.3204 432.8609 466.7439 431.7082 467.3393 428.0754 467.2392 423.3412 469.6417 424.7603 469.8037 422.0646 465.5442 421.8944 464.4112 424.0645 462.2526 425.3211 461.6956 427.9208 459.4919 426.2399 461.2594 423.2635 456.9502 424.9551 455.2085 426.8791 451.8236 427.3973 450.1249 426.3703 454.5007 424.474 455.7741 422.7473 460.7288 420.1176 458.7724 419.0172 455.6677 420.5099 453.1687 420.5165 451.7897 419.7578 455.1971 418.3589 455.0307 414.4246 456.6354 413.4421 453.5622 413.9297 453.9913 416.7299 450.3053 419.4997 449.5105 417.7266 449.7159 413.1045 449.6706 390.835 449.8484 390.8357 449.8281 363.7109 431.9298 363.5646 419.5506 363.5632 419.2746 361.134 419.613 334.5493 415.4355 335.3107 388.8025 335.2966 386.9454 335.5847 345.1182 335.5237 345.1696 306.9076 330.941 306.614 330.9966 294.8027 331.3 288.4831 327.0089 292.0649 323.4231 291.3233 317.79 292.3057 313.0545 291.1093 309.5501 286.858 307.344 285.9158 307.6172 283.453 306.0084 281.804 302.7294 283.0855 299.9682 280.6382 297.5155 279.818 292.2011 280.8267 289.5128 280.5931 283.9373 277.8105 272.7825 274.5537 264.3073 272.7254 263.1672 272.1377 262.1506 268.7548 260.2619 266.0913 245.7439 256.0765 237.5642 251.7756 236.2927 248.9154 234.1266 247.1759 230.8596 246.3865 228.2414 246.6878 222.5323 243.2075 217.6103 242.9057 212.9673 243.3082 213.7749 198.4236 213.8969 198.044 214.1119 196.2815 213.9469 195.5862 214.6156 194.5252 214.9413 194.0183 214.7788 193.4369 214.795 192.7545 215.5426 191.0738 216.6877 189.5484 216.9775 188.8879 216.8482 187.5625 217.1969 185.3458 216.3706 183.357 215.5594 182.8577 215.3507 182.1388 214.845 181.2875 214.0401 180.4534 214.0931 179.5424 214.6387 178.6897 214.8693 178.0716 215.0416 177.4563 215.3095 176.4413 214.9008 174.608 215.5469 173.4873 216.4554 172.5933 216.2759 171.7091 216.4611 171.4634 216.3788 171.1835 216.245 170.7379 215.9272 170.2764 214.147 169.5264 213.5408 168.6883 213.3471 167.6757 213.4139 167.1357 213.5493 166.3671 213.2684 165.3692 213.1735 164.8261 212.4457 163.4909 212.2732 162.7535 212.1322 160.8113 212.3369 158.0056 212.7326 157.2658 213.5469 156.429 214.8098 155.3161 215.6064 153.4973 215.8844 152.097 216.0425 151.3498 217.9552 150.0869 219.5834 150.7257 221.8501 150.5141 223.2855 151.3575 224.1138 151.5868 224.5282 151.8658 225.213 151.8258 225.5742 151.5427 226.6697 151.3483 227.9423 151.8187 229.2718 151.3463 229.4683 150.7342 230.1204 149.3983 230.6601 148.5484 231.6407 147.757 232.0988 146.7828 231.7025 144.8293 232.0729 143.5265 232.3398 142.7965 232.4078 142.013 234.1506 140.9625 235.5695 140.3928 236.741 139.5551 237.0182 138.9339 238.1274 138.2376 239.6687 138.4734 240.2777 139.1251 240.697 139.5065 241.2353 139.3405 242.2761 138.8901 243.0893 138.0709 243.6825 137.0061 244.8232 136.2176 245.1439 136.0184 246.6304 135.0834 247.6869 134.6927 248.1283 134.473 249.3595 133.7114 251.5012 132.9069 251.9176 132.7359 252.2489 132.3195 252.6704 131.6884 253.2825 130.7069 253.795 130.0673 254.1952 129.6675 254.8663 129.2535 255.866 128.738 256.4933 128.2905 256.8628 128.1819 257.3255 128.0135 258.2515 128.021 260.5846 129.054 261.4724 129.1642 262.9468 128.7407 264.8988 128.1212 267.0049 127.6338 267.9808 127.1857 268.5393 125.9855 269.0138 125.1328 270.108 124.9653 270.8984 125.3329 271.5655 125.6079 272.5848 125.4472 273.3731 124.9001 274.5004 123.8322 274.9519 122.4518 275.4236 121.7459 275.7527 121.4838 276.6966 121.0805 278.6321 121.7653 280.0485 121.98 281.1663 120.7366 281.9145 120.2754 282.9727 120.1502 284.1343 120.2935 284.9179 120.6367 285.9226 120.9726 286.8909 119.8283 286.8984 118.7603 287.2088 118.1127 289.2009 117.8667 290.2889 117.0738 290.6734 116.328 290.9459 115.0123 292.0027 114.2526 292.7516 114.5774 294.4814 115.5347 296.0269 114.5312 295.7335 113.4613 295.2575 111.9734 296.2103 110.6147 297.5491 110.1303 298.4815 109.6407 299.3131 109.4554 299.8399 109.548 300.4121 110.6511 301.4087 111.6631 302.1941 111.3285 303.6711 110.0664 304.9819 108.2878 305.3477 106.8071 307.4242 103.7576 307.7945 103.6666 307.947 103.3039 307.8296 103.2593 307.7626 102.9541 307.9163 102.8773 307.954 102.5908 307.8218 102.297 308.034 101.7605 308.3026 101.4575 308.6674 101.1696 308.808 100.5935 308.6042 100.2489 308.7725 100.0219 308.6837 99.7933 308.4953 99.5494 308.2666 98.7656 307.9534 98.3417 308.1535 98.0246 307.7936 97.7652 307.3755 97.8568 307.1562 98.0499 306.9077 97.8212 306.7576 97.5095 306.6785 96.9097 306.4378 96.6355 306.1969 96.4446 306.2816 96.3074 306.2144 96.0037 306.0734 95.9135 305.8772 95.8002 305.9258 95.6123 306.2469 95.5727 306.4003 95.7556 306.5755 95.8202 306.9088 95.6506 307.0162 95.4689 307.1196 95.3381 306.9084 95.2069 306.4657 94.7027 306.0949 94.7078 306.0734 94.4045 306.2988 94.3799 306.5398 94.3206 306.5404 94.0946 306.5637 93.6807 306.5056 93.2829 306.3873 92.9285 306.2999 92.9974 306.1745 92.7817 306.3511 92.4824 306.5917 92.2976 307.3998 91.8488 307.7418 92.0238 308.1682 91.7539 308.207 91.3276 307.9752 91.0391 308.0724 90.6618 308.5581 90.4356 308.8478 90.2471 308.9231 89.9228 308.7535 89.7656 308.7713 89.495 308.7303 89.1262 308.9738 88.8953 309.0905 88.926 309.1642 88.6953 309.1989 88.5351 309.0629 88.4711 308.8884 88.578 308.5987 88.4364 308.5089 88.2017 308.2058 88.1464 307.8246 88.293 307.3582 88.2156 307.0436 87.9162 307.0719 87.4664 307.3714 87.4303 307.3878 87.1642 307.3095 86.8325 306.8214 86.5421 306.5705 86.448 306.2824 86.489 306.1486 86.4651 306.4561 86.1303 306.6548 85.819 306.2428 85.5294 305.981 85.4496 305.956 85.2135 306.1297 85.1688 306.2593 84.8474 306.1276 84.4909 305.8404 84.2153 305.5604 84.3226 305.2982 84.2007 305.1439 83.9479 304.8661 83.6403 305.0218 83.1298 305.227 82.9913 305.1568 82.7117 304.889 82.466 304.8977 81.9235 305.0567 81.6106 305.023 81.1897 304.7864 81.2527 304.4195 81.0766 304.3734 80.6467 304.6452 80.0606 304.7664 79.6988 304.5638 79.7557 304.2697 79.4694 304.394 79.0538 304.6275 78.8627 304.8742 78.8447 305.1903 78.7817 305.2236 78.5175 305.4267 78.0105 305.5766 77.7091 305.4536 77.3679 305.144 77.2463 304.9956 77.2681 305.021 76.9071 305.1462 76.5802 305.7988 76.1389 305.9033 75.5716 306.1705 75.4121 306.7183 75.2315 306.7834 74.9264 306.7289 74.5243 306.575 74.4697 306.545 74.2721 306.7211 74.2651 307.3144 74.4811 307.6544 74.5099 308.0141 74.3112 308.0177 73.9795 307.7878 73.6928 307.6346 73.4922 307.7183 73.355 307.9539 73.3036 308.0932 73.3814 308.3782 73.4686 308.5292 73.0668 308.4956 72.6137 308.6212 72.6662 308.773 72.6679 308.7542 72.2795 308.6028 72.0698 308.5188 71.514 308.7339 71.2088 309.0896 71.14 309.1391 70.9191 308.951 70.8843 308.9359 70.6124 309.2511 70.4369 309.4989 70.2178 309.4116 70.0243 309.2666 69.866 309.3301 69.4954 309.4744 69.4476 309.6848 69.1294 309.5023 68.884 309.4605 68.3269 309.8166 67.734 309.7235 67.2728 309.2581 66.7803 309.1529 66.1904 309.2523 65.7143 309.2308 65.1484 309.0367 65.0884 308.7988 64.6737 309.0345 64.1346 308.7737 63.6492 308.7588 63.1569 308.5822 62.4154 308.7539 62.004 308.758 61.641 308.459 61.4655 308.4948 61.0528 308.7039 60.8873 308.4078 60.4575 308.0235 59.833 307.832 58.8314 307.8847 58.0414 307.463 57.5681 307.624 56.9961 308.06 56.7497 307.9365 56.2097 307.8509 55.7174 308.2417 55.2895 308.6288 54.6222 308.473 53.9501 308.7017 53.5482 308.6232 52.8133 308.4076 52.6057 308.6004 52.3012 308.984 52.1913 309.31 51.6356 309.1395 51.2329 308.8708 50.9738 309.0343 50.5732 309.4004 50.4408 309.4613 50.159 309.8366 49.9706 310.0688 49.9774 309.9078 49.635 309.7845 49.6312 309.5902 49.2315 309.7844 48.9285 309.8216 48.607 310.2525 48.5706 310.3092 48.7962 310.4221 48.6581 310.2678 48.2035 309.7617 47.7388 309.629 47.3434 309.9828 47.0942 310.1755 47.1681 310.3844 47.433 310.9114 47.1963 310.7329 46.8237 310.4711 46.6437 310.1872 46.3885 310.2711 46.2385 310.6206 46.1342 310.7322 46.3181 310.8646 46.1195 310.7189 45.6833 310.4714 45.2392 310.4151 44.6609 310.3995 44.5246 310.754 44.5307 310.8534 44.7798 311.1819 44.5418 311.1876 44.1465 310.8899 43.986 310.5971 43.9616 310.494 43.6471 310.4477 43.3535 310.3412 43.0263 310.0764 42.9818 309.9882 42.6009 309.8916 42.3293 309.8804 42.123 310.0201 41.9961 310.0926 42.0685 310.2911 41.8758 310.4341 41.5007 310.8063 41.2577 310.9933 41.0488 310.6851 40.9679 310.3921 40.8702 310.1597 40.078 310.0874 39.7148 310.4282 39.4061 310.6539 39.2494 310.7989 38.9568 310.7755 38.5326 310.8778 38.2065 311.0445 37.7948 310.7899 37.6275 310.8807 37.2959 311.1173 37.3017 311.4287 37.1656 311.3383 37.0035 311.4966 36.7943 311.6373 36.9273 311.9046 37.0947 312.0971 36.8724 311.9224 36.6549 312.0589 36.0394 311.9148 35.7127 312.0895 35.6634 312.3485 35.7445 312.5865 35.7933 312.6732 35.6992 312.8541 35.6705 312.8153 35.429 312.6353 35.2964 312.7197 35.1654 312.7492 34.8951 312.5293 34.3696 312.6747 33.8485 312.664 33.3222 312.7261 33.0943 313.1228 32.7143 312.9946 32.1377 312.6373 31.8281 313.521 31.7772 314.7039 29.3151 314.4088 27.735 316.2698 25.1872 316.5106 21.9599 319.8132 18.1111 320.0517 14.4713 322.117 12.259 321.9227 9.8518 320.2783 7.3129 320.9827 4.3806 Z" id="fips-04005"/>
<path d="M 449.5105 417.7266 450.3053 419.4997 453.9913 416.7299 453.5622 413.9297 456.6354 413.4421 455.0307 414.4246 455.1971 418.3589 451.7897 419.7578 453.1687 420.5165 455.6677 420.5099 458.7724 419.0172 460.7288 420.1176 455.7741 422.7473 454.5007 424.474 450.1249 426.3703 451.8236 427.3973 455.2085 426.8791 456.9502 424.9551 461.2594 423.2635 459.4919 426.2399 461.6956 427.9208 462.2526 425.3211 464.4112 424.0645 465.5442 421.8944 469.8037 422.0646 469.6417 424.7603 467.2392 423.3412 467.3393 428.0754 466.7439 431.7082 470.3204 432.8609 472.1885 429.7693 469.9012 429.7819 470.7227 425.1574 471.9445 425.3925 474.1599 422.9341 476.8248 422.7047 476.5376 425.3817 480.5472 425.7001 482.8993 423.8131 489.0005 422.2304 490.4976 420.6589 491.9113 424.22 494.305 425.1564 496.0108 427.9735 499.3608 427.693 503.7684 430.2431 504.4524 433.355 506.915 430.8644 508.3219 432.0541 511.2321 429.8533 518.9238 433.5913 516.6551 436.9043 519.8373 438.8702 520.8093 436.7603 519.8732 435.1283 523.7875 436.2603 524.6697 438.3208 527.5689 439.4936 529.8842 443.1318 531.6029 442.6618 536.8108 445.3242 538.2519 445.0394 540.9147 449.3706 544.9551 451.0021 547.8595 449.3213 546.2842 448.5236 548.6043 447.305 545.127 444.2241 549.8461 446.0569 552.9245 443.8495 553.6066 445.3462 556.5704 447.2798 557.0371 448.6699 556.8961 448.732 556.5193 449.1933 556.4441 449.7111 555.8617 450.368 555.778 450.6437 555.8944 451.5656 555.8399 452.0006 555.8597 452.0042 558.0316 451.278 558.3926 494.2675 659.9057 493.0419 660.9839 562.1257 661.1249 571.215 661.2082 576.5932 653.6511 580.3336 650.9518 580.3661 650.5758 580.3717 644.2428 580.5379 641.8115 580.5702 638.3218 581.7316 638.3409 582.4056 637.6815 583.1896 636.836 583.2402 636.5413 583.3851 636.0183 583.4283 635.8064 583.1654 635.0789 583.6775 635.2808 584.1244 635.0806 584.5124 634.4622 584.3828 633.9837 584.8649 633.3197 584.9975 633.0568 584.7139 632.5706 584.8435 632.3317 585.2751 631.4342 585.1152 630.9052 584.8523 629.8642 584.5202 629.398 584.9282 628.5983 584.9339 627.2023 585.2693 625.8632 585.5853 624.5194 585.0854 623.8763 584.9021 622.9372 585.6889 621.8847 586.5525 620.8611 586.8733 620.0234 586.5509 619.1475 586.4651 617.874 586.2441 616.914 587.0043 615.8908 587.0692 614.9658 587.2695 614.9932 588.0431 614.2473 588.7699 614.2323 589.5137 613.8913 590.2622 613.646 590.285 613.2646 591.0234 612.4707 591.7105 611.5649 591.8045 611.1971 591.9772 609.8988 591.3323 609.3497 590.8118 608.7851 590.8334 608.479 591.2561 607.2137 591.4188 606.0349 591.7942 605.5229 591.7291 605.062 592.0558 604.6889 592.8951 604.537 593.6097 604.0608 594.0892 603.6431 593.9027 602.9412 593.8615 602.0689 594.349 601.1865 595.5254 601.2406 596.3446 601.2683 596.684 601.19 597.0779 600.5755 597.4005 600.0273 597.8421 600.2817 598.606 600.6609 599.1136 600.9477 599.911 600.5541 600.6031 600.5208 601.2645 600.6729 602.2711 600.7465 603.1726 600.8023 604.3329 600.2849 605.2787 600.4686 606.0506 600.5039 606.8763 600.5154 607.6725 600.6347 607.8731 600.4206 608.5318 599.9633 608.6861 599.3643 609.0008 599.4287 609.5811 599.7133 609.6218 599.9038 610.4313 599.7232 611.0624 600.1675 611.4706 600.5803 612.7499 600.566 613.6282 601.2308 614.2823 601.1812 615.098 601.9682 615.8174 602.2872 616.3545 603.9204 619.252 604.596 621.0341 606.253 623.7438 606.5908 624.8783 606.4049 625.4926 605.5006 625.7816 604.6465 625.6977 603.5745 625.831 602.701 626.3366 601.2947 626.2262 600.7997 625.4876 600.6942 625.3882 598.7641 627.2365 593.0968 626.824 589.0846 629.8933 587.4929 629.7383 587.0067 632.302 582.9507 633.3169 581.0558 635.4921 578.6077 634.0149 575.7005 634.1001 572.4288 638.9037 569.5441 639.2854 568.8399 643.0875 567.4811 644.9065 565.7083 643.8318 563.0787 646.1137 564.3005 648.8912 562.6221 653.0715 560.2832 655.781 557.7584 657.1038 557.6059 659.963 555.6491 660.2535 532.6395 616.9284 531.4065 612.1871 528.722 601.9244 519.7082 581.7424 517.1734 576.1992 504.1127 547.2702 500.4197 550.195 496.5184 554.5042 496.7972 556.614 494.8226 559.5814 491.0724 556.0214 489.4155 556.3145 486.0312 550.6423 482.307 546.8823 479.9143 545.6041 478.9868 540.6526 476.0959 537.0195 472.3629 535.5463 471.9964 531.2003 473.2979 528.083 472.1952 526.8643 474.3036 523.4777 471.1129 520.1613 472.2359 517.1084 470.8392 514.6838 468.8566 513.5606 469.791 507.8668 467.0257 506.8077 465.4379 508.4312 463.6188 507.8294 464.0896 504.2593 463.3346 500.9179 465.9907 497.4653 464.3873 494.5523 461.4819 493.7781 457.6593 494.7832 457.8605 488.5313 460.5351 488.0052 461.7566 482.883 458.8417 479.2375 460.804 476.5352 459.3658 473.2634 457.7882 472.8748 459.9196 470.0749 428.2612 470.0519 427.1209 468.3918 430.5828 465.1662 431.2316 462.0971 429.256 460.1026 429.9313 455.5227 432.9608 450.6503 432.1476 448.5513 434.537 448.1266 434.8416 446.6005 433.1824 447.5026 432.0017 446.1783 433.3736 444.7625 434.2564 444.4321 434.9912 441.7459 434.3422 437.8899 435.7359 434.602 435.3726 431.6855 440.9753 429.2251 442.7625 426.7963 445.9401 426.2233 449.5242 423.0091 449.5105 417.7266 Z" id="fips-04007"/>
<path d="M 204.6776 736.8467 319.8473 738.2481 360.2898 738.3243 416.635 738.5405 416.9144 738.5389 447.663 738.563 477.6489 739.4038 504.3621 739.2626 504.365 737.6956 545.506 737.4593 547.3788 737.014 555.5624 736.9553 576.2436 736.7803 601.6094 736.4831 601.7233 750.6246 602.0961 778.9484 602.5619 779.5513 602.9076 864.2094 546.8181 864.6637 546.8292 865.4864 518.7121 865.7346 503.9699 865.8465 504.1686 899.1507 475.9267 899.3326 475.9663 914.8541 448.982 904.7782 440.2205 901.5345 390.6781 883.0634 353.6756 869.2554 337.1944 863.1164 335.7097 862.639 332.4333 861.3464 267.7783 837.243 232.0732 824.143 219.4952 819.1638 203.4703 812.9191 204.6776 736.8467 Z" id="fips-04019"/>
<path d="M 729.4296 548.5034 731.2889 548.1154 731.3786 542.14 733.8595 541.271 736.5119 538.4971 740.5065 539.1643 745.0646 536.4199 748.5239 536.2997 746.8943 534.0744 747.0996 531.8835 749.0156 527.7065 789.836 526.6155 789.9632 532.8546 790.4937 551.6183 791.274 586.7608 791.5133 592.4261 791.4813 592.8199 791.471 593.3713 791.5044 593.9764 791.5168 594.0248 791.8904 612.8323 792.0864 619.5398 792.0867 619.5512 792.3861 631.1232 792.3877 631.1944 792.5797 638.4805 792.5984 638.6411 792.6131 642.316 792.6134 642.4804 793.8148 689.9117 793.8157 689.9482 794.0759 703.6799 794.0885 704.2431 794.1018 704.8405 794.1213 705.648 794.2572 711.2505 795.1273 747.2595 785.988 747.5188 770.1779 731.0934 770.1431 728.819 772.0117 722.0382 770.818 719.2258 772.5115 713.6159 771.524 710.7285 771.305 706.3198 766.8007 696.4115 765.7604 695.0878 756.4065 680.1901 754.3106 680.1575 731.2884 642.2547 729.4296 548.5034 Z" id="fips-04011"/>
<path d="M 554.1377 4.0566 570.436 3.8243 570.4476 3.874 573.8499 3.8356 586.7335 3.5696 588.0103 3.6689 590.7224 4.5473 649.1859 3.6682 651.9111 3.6418 651.9379 3.7263 655.5587 221.5996 678.5997 221.2451 679.0322 244.849 676.7909 244.8878 677.8095 301.6095 678.4032 334.9396 678.6873 358.3993 677.7257 358.4229 678.3985 387.0273 676.6684 401.3657 679.0495 412.9887 679.1964 415.4093 679.6734 446.3528 680.0233 472.1481 678.6711 472.1638 679.6557 529.0329 675.2472 529.0924 675.8169 563.3704 672.4967 562.2763 671.5238 563.4934 666.3543 561.608 661.6071 561.2455 660.9839 562.1257 659.9057 493.0419 558.3926 494.2675 558.0316 451.278 558.0297 451.0565 558.006 448.2416 557.4023 376.9978 557.3988 376.5823 556.9179 320.3952 554.5612 51.3724 554.1377 4.0566 Z" id="fips-04017"/>
<path d="M 212.9673 243.3082 217.6103 242.9057 222.5323 243.2075 228.2414 246.6878 230.8596 246.3865 234.1266 247.1759 236.2927 248.9154 237.5642 251.7756 245.7439 256.0765 260.2619 266.0913 262.1506 268.7548 263.1672 272.1377 264.3073 272.7254 272.7825 274.5537 283.9373 277.8105 289.5128 280.5931 292.2011 280.8267 297.5155 279.818 299.9682 280.6382 302.7294 283.0855 306.0084 281.804 307.6172 283.453 307.344 285.9158 309.5501 286.858 313.0545 291.1093 317.79 292.3057 323.4231 291.3233 327.0089 292.0649 331.3 288.4831 330.9966 294.8027 330.941 306.614 345.1696 306.9076 345.1182 335.5237 386.9454 335.5847 388.8025 335.2966 415.4355 335.3107 419.613 334.5493 419.2746 361.134 419.5506 363.5632 431.9298 363.5646 449.8281 363.7109 449.8484 390.8357 449.6706 390.835 449.7159 413.1045 449.5105 417.7266 449.5242 423.0091 445.9401 426.2233 442.7625 426.7963 440.9753 429.2251 435.3726 431.6855 435.7359 434.602 434.3422 437.8899 434.9912 441.7459 434.2564 444.4321 433.3736 444.7625 432.0017 446.1783 433.1824 447.5026 434.8416 446.6005 434.537 448.1266 432.1476 448.5513 432.9608 450.6503 429.9313 455.5227 429.256 460.1026 431.2316 462.0971 430.5828 465.1662 427.1209 468.3918 428.2612 470.0519 459.9196 470.0749 457.7882 472.8748 459.3658 473.2634 460.804 476.5352 458.8417 479.2375 461.7566 482.883 460.5351 488.0052 457.8605 488.5313 457.6593 494.7832 426.4497 494.7768 407.9512 492.2511 367.0009 486.6885 368.4979 487.8824 366.9074 489.1437 367.383 491.4095 364.4672 492.5908 364.847 493.6051 363.0751 496.1162 362.751 498.6946 360.1958 499.7267 356.5419 504.1103 357.8061 504.8658 357.293 508.3011 356.2756 509.9111 353.3601 510.9513 351.768 513.6814 331.2285 507.2397 288.5551 493.9188 208.7306 492.9063 208.7924 492.7766 209.6444 440.8792 210.844 370.6002 212.9186 246.5111 212.9673 243.3082 Z" id="fips-04025"/>
<path d="M 15.0348 697.4281 15.3187 696.9646 15.6054 695.9765 15.7916 695.5523 17.0529 693.763 17.5928 693.1316 17.7543 693.1252 18.0185 693.2592 19.3574 694.4709 19.9741 694.5121 20.7442 694.6861 20.9537 694.7571 22.2608 695.1218 23.4459 695.222 23.5253 695.2295 27.0196 695.816 28.9709 696.2987 29.3428 696.2778 29.3543 696.2772 29.3386 696.1165 29.492 695.3597 39.977 691.9322 41.656 691.9568 41.4842 690.289 41.0511 689.1353 40.9807 688.6991 41.0999 687.7912 41.1497 686.3747 41.2854 686.003 41.5594 685.55 42.5182 684.7008 42.7524 684.3969 42.8478 684.0568 43.4726 683.1335 44.2038 682.3414 46.0645 681.4631 46.1399 681.4314 46.4413 681.2829 49.0073 678.8394 49.9842 677.8117 50.5846 672.9856 50.5808 672.2698 50.5819 672.2325 51.0356 668.5764 51.0895 667.5882 51.0073 666.9754 50.9045 666.7362 49.6691 665.4823 49.2818 664.9759 48.9788 664.2058 48.7476 663.0624 48.7802 662.7734 49.1085 662.2065 49.7331 661.4736 50.1909 660.8033 50.4411 660.2648 50.6465 659.6745 50.7285 658.966 50.7023 657.955 50.5383 657.0629 50.2794 656.7673 49.5773 656.5666 48.9876 656.7954 48.8576 657.0532 47.8479 657.3706 47.6419 657.3748 47.266 657.0544 47.1028 656.6446 46.9236 655.69 46.7554 653.8236 46.4717 651.7852 46.0838 650.5904 45.6645 649.6219 44.9807 648.5497 44.5082 648.035 44.2963 647.8578 64.1721 648.4212 68.5557 648.1338 78.1833 648.4185 80.1141 577.6231 122.2779 578.4841 121.956 592.6987 207.0101 594.4264 206.0743 652.2091 205.4015 693.9358 204.6776 736.8467 203.4703 812.9191 181.5553 804.3405 146.2039 790.5732 141.9654 788.8463 77.7699 763.6771 43.6471 750.3165 1.0375 733.6546 1 733.171 1.2442 732.7177 1.4632 729.0045 3.7866 724.4849 1.3053 722.1481 3.4393 717.5064 2.221 713.6307 3.8819 712.4647 6.0145 711.6107 8.481 708.5558 13.4547 700.6329 13.5152 700.4989 13.5313 699.7444 14.5805 698.3438 15.0348 697.4281 Z" id="fips-04027"/>
<path d="M 519.7082 581.7424 528.722 601.9244 531.4065 612.1871 532.6395 616.9284 555.6491 660.2535 557.6059 659.963 557.7584 657.1038 560.2832 655.781 562.6221 653.0715 564.3005 648.8912 563.0787 646.1137 565.7083 643.8318 567.4811 644.9065 568.8399 643.0875 569.5441 639.2854 572.4288 638.9037 575.7005 634.1001 578.6077 634.0149 581.0558 635.4921 582.9507 633.3169 587.0067 632.302 587.4929 629.7383 589.0846 629.8933 593.0968 626.824 598.7641 627.2365 600.6942 625.3882 601.0089 658.7517 601.0143 659.2011 601.8843 735.5864 601.6094 736.4831 576.2436 736.7803 555.5624 736.9553 547.3788 737.014 545.506 737.4593 504.365 737.6956 504.3621 739.2626 477.6489 739.4038 447.663 738.563 416.9144 738.5389 416.635 738.5405 360.2898 738.3243 360.4808 709.4593 361.0648 643.6005 361.1862 617.5031 361.092 607.1063 362.391 609.0061 361.8506 612.3516 362.6202 614.5435 368.436 616.4088 373.254 620.734 375.6972 620.2754 377.3614 624.4952 403.3767 624.5517 403.9479 624.7868 422.1856 624.5966 431.6838 624.6309 438.7159 624.5645 445.7386 624.5021 445.7878 622.308 445.7174 612.78 446.0529 596.2076 446.0584 585.5778 446.0578 581.9921 464.9209 581.9585 519.7082 581.7424 Z" id="fips-04021"/>
<path d="M 776.4599 1 776.587 5.8256 776.5861 5.9264 776.98 21.2338 776.9784 21.3006 778.4927 77.9289 778.6116 82.3923 779.3556 112.5851 779.8886 134.3111 780.2269 144.8692 780.6858 163.5235 780.6872 163.5827 781.0097 176.0557 781.0042 176.0618 781.1629 182.1218 781.2052 183.5774 782.2913 226.5424 782.3008 226.9122 782.5603 237.9795 782.5645 237.998 783.2956 267.8202 783.401 271.2235 783.5306 275.4108 783.8692 286.356 784.1906 298.5185 785.1177 333.7244 785.1182 333.7408 785.6359 355.1501 785.7556 357.4894 785.7507 359.8163 785.9106 362.193 785.8736 364.5445 786.6599 395.8421 786.8911 405.1043 786.8918 405.1304 788.9253 490.4039 789.5127 510.8074 789.836 526.6155 749.0156 527.7065 747.0996 531.8835 746.8943 534.0744 748.5239 536.2997 745.0646 536.4199 740.5065 539.1643 736.5119 538.4971 733.8595 541.271 731.3786 542.14 731.2889 548.1154 729.4296 548.5034 726.8317 550.3506 725.0793 553.4565 721.4315 553.9773 720.8269 552.9701 717.3122 555.258 714.9603 555.2994 714.8233 557.1798 712.5537 560.1911 707.2207 560.21 705.2072 561.9612 705.7378 564.221 704.0725 566.7935 700.2412 569.9008 697.7553 570.6224 696.0953 573.5574 695.8053 576.5637 693.0145 578.1624 690.7309 578.0174 688.552 576.136 688.0959 577.2198 687.5499 573.4635 685.3859 572.8328 685.7761 570.8502 684.2466 568.5444 683.2125 569.5553 677.1958 562.7882 675.8169 563.3704 675.2472 529.0924 679.6557 529.0329 678.6711 472.1638 680.0233 472.1481 679.6734 446.3528 679.1964 415.4093 679.0495 412.9887 676.6684 401.3657 678.3985 387.0273 677.7257 358.4229 678.6873 358.3993 678.4032 334.9396 677.8095 301.6095 676.7909 244.8878 679.0322 244.849 678.5997 221.2451 655.5587 221.5996 651.9379 3.7263 651.9385 3.7285 668.233 3.3743 700.8219 2.8127 717.8057 2.3417 732.6771 2.0182 733.0925 2.0112 747.1584 1.6747 747.404 1.673 748.0324 1.6551 750.1786 1.592 751.8819 1.5655 758.7426 1.4031 776.4599 1 Z" id="fips-04001"/>
<path d="M 602.9076 864.2094 603.0393 883.3504 601.8827 883.3469 602.2168 906.9977 602.4168 929.2127 555.6547 929.5307 527.0397 929.9666 516.693 930.0142 509.5926 927.3194 475.9663 914.8541 475.9267 899.3326 504.1686 899.1507 503.9699 865.8465 518.7121 865.7346 546.8292 865.4864 546.8181 864.6637 602.9076 864.2094 Z" id="fips-04023"/>
<path d="M 602.9076 864.2094 602.5619 779.5513 602.0961 778.9484 601.7233 750.6246 615.842 750.5961 640.4559 750.2916 770.3185 748.1713 771.0843 747.829 785.988 747.5188 795.1273 747.2595 796.3464 802.2882 796.3645 803.1073 796.5206 812.2312 796.595 814.5999 797.147 837.9037 797.1584 839.4389 797.1797 842.3219 797.3538 847.6934 797.3485 850.0151 797.9727 876.1027 798.398 898.4582 798.3939 898.4605 798.4222 901.6432 799 925.6939 767.1595 926.2196 690.3265 927.7497 666.4983 928.2956 646.99 928.4558 602.4168 929.2127 602.2168 906.9977 601.8827 883.3469 603.0393 883.3504 602.9076 864.2094 Z" id="fips-04003"/>
<path d="M 207.0101 594.4264 207.603 563.5934 208.7306 492.9063 288.5551 493.9188 331.2285 507.2397 351.768 513.6814 353.3601 510.9513 356.2756 509.9111 357.293 508.3011 357.8061 504.8658 356.5419 504.1103 360.1958 499.7267 362.751 498.6946 363.0751 496.1162 364.847 493.6051 364.4672 492.5908 367.383 491.4095 366.9074 489.1437 368.4979 487.8824 367.0009 486.6885 407.9512 492.2511 426.4497 494.7768 457.6593 494.7832 461.4819 493.7781 464.3873 494.5523 465.9907 497.4653 463.3346 500.9179 464.0896 504.2593 463.6188 507.8294 465.4379 508.4312 467.0257 506.8077 469.791 507.8668 468.8566 513.5606 470.8392 514.6838 472.2359 517.1084 471.1129 520.1613 474.3036 523.4777 472.1952 526.8643 473.2979 528.083 471.9964 531.2003 472.3629 535.5463 476.0959 537.0195 478.9868 540.6526 479.9143 545.6041 482.307 546.8823 486.0312 550.6423 489.4155 556.3145 491.0724 556.0214 494.8226 559.5814 496.7972 556.614 496.5184 554.5042 500.4197 550.195 504.1127 547.2702 517.1734 576.1992 519.7082 581.7424 464.9209 581.9585 446.0578 581.9921 446.0584 585.5778 446.0529 596.2076 445.7174 612.78 445.7878 622.308 445.7386 624.5021 438.7159 624.5645 431.6838 624.6309 422.1856 624.5966 403.9479 624.7868 403.3767 624.5517 377.3614 624.4952 375.6972 620.2754 373.254 620.734 368.436 616.4088 362.6202 614.5435 361.8506 612.3516 362.391 609.0061 361.092 607.1063 361.1862 617.5031 361.0648 643.6005 360.4808 709.4593 360.2898 738.3243 319.8473 738.2481 204.6776 736.8467 205.4015 693.9358 206.0743 652.2091 207.0101 594.4264 Z" id="fips-04013"/>
<path d="M 660.9839 562.1257 661.6071 561.2455 666.3543 561.608 671.5238 563.4934 672.4967 562.2763 675.8169 563.3704 677.1958 562.7882 683.2125 569.5553 684.2466 568.5444 685.7761 570.8502 685.3859 572.8328 687.5499 573.4635 688.0959 577.2198 688.552 576.136 690.7309 578.0174 693.0145 578.1624 695.8053 576.5637 696.0953 573.5574 697.7553 570.6224 700.2412 569.9008 704.0725 566.7935 705.7378 564.221 705.2072 561.9612 707.2207 560.21 712.5537 560.1911 714.8233 557.1798 714.9603 555.2994 717.3122 555.258 720.8269 552.9701 721.4315 553.9773 725.0793 553.4565 726.8317 550.3506 729.4296 548.5034 731.2884 642.2547 754.3106 680.1575 756.4065 680.1901 765.7604 695.0878 766.8007 696.4115 771.305 706.3198 771.524 710.7285 772.5115 713.6159 770.818 719.2258 772.0117 722.0382 770.1431 728.819 770.1779 731.0934 785.988 747.5188 771.0843 747.829 770.3185 748.1713 640.4559 750.2916 615.842 750.5961 601.7233 750.6246 601.6094 736.4831 601.8843 735.5864 601.0143 659.2011 601.0089 658.7517 600.6942 625.3882 600.7997 625.4876 601.2947 626.2262 602.701 626.3366 603.5745 625.831 604.6465 625.6977 605.5006 625.7816 606.4049 625.4926 606.5908 624.8783 606.253 623.7438 604.596 621.0341 603.9204 619.252 602.2872 616.3545 601.9682 615.8174 601.1812 615.098 601.2308 614.2823 600.566 613.6282 600.5803 612.7499 600.1675 611.4706 599.7232 611.0624 599.9038 610.4313 599.7133 609.6218 599.4287 609.5811 599.3643 609.0008 599.9633 608.6861 600.4206 608.5318 600.6347 607.8731 600.5154 607.6725 600.5039 606.8763 600.4686 606.0506 600.2849 605.2787 600.8023 604.3329 600.7465 603.1726 600.6729 602.2711 600.5208 601.2645 600.5541 600.6031 600.9477 599.911 600.6609 599.1136 600.2817 598.606 600.0273 597.8421 600.5755 597.4005 601.19 597.0779 601.2683 596.684 601.2406 596.3446 601.1865 595.5254 602.0689 594.349 602.9412 593.8615 603.6431 593.9027 604.0608 594.0892 604.537 593.6097 604.6889 592.8951 605.062 592.0558 605.5229 591.7291 606.0349 591.7942 607.2137 591.4188 608.479 591.2561 608.7851 590.8334 609.3497 590.8118 609.8988 591.3323 611.1971 591.9772 611.5649 591.8045 612.4707 591.7105 613.2646 591.0234 613.646 590.285 613.8913 590.2622 614.2323 589.5137 614.2473 588.7699 614.9932 588.0431 614.9658 587.2695 615.8908 587.0692 616.914 587.0043 617.874 586.2441 619.1475 586.4651 620.0234 586.5509 620.8611 586.8733 621.8847 586.5525 622.9372 585.6889 623.8763 584.9021 624.5194 585.0854 625.8632 585.5853 627.2023 585.2693 628.5983 584.9339 629.398 584.9282 629.8642 584.5202 630.9052 584.8523 631.4342 585.1152 632.3317 585.2751 632.5706 584.8435 633.0568 584.7139 633.3197 584.9975 633.9837 584.8649 634.4622 584.3828 635.0806 584.5124 635.2808 584.1244 635.0789 583.6775 635.8064 583.1654 636.0183 583.4283 636.5413 583.3851 636.836 583.2402 637.6815 583.1896 638.3409 582.4056 638.3218 581.7316 641.8115 580.5702 644.2428 580.5379 650.5758 580.3717 650.9518 580.3661 653.6511 580.3336 661.2082 576.5932 661.1249 571.215 660.9839 562.1257 Z" id="fips-04009"/>
</g>
</svg>