<?xml version="1.0"?>
<svg xmlns="http://www.w3.org/2000/svg" version="1.2" baseProfile="tiny" width="800" height="581" viewBox="0 0 800 581" stroke-linecap="round" stroke-linejoin="round">
<g id="cb_2018_us_county_5m">
<path d="M 258.6362 7.056 302.1446 7.6908 303.6846 7.7179 303.9153 7.7464 304.6121 7.7596 308.8233 7.8836 309.4153 7.8939 316.4358 8.2474 327.5949 8.5389 330.5059 8.5792 329.9781 9.6695 331.1408 14.6337 330.7578 17.1225 332.8322 19.8983 336.2184 22.2822 337.2355 26.8984 339.2253 27.8104 339.2439 29.3839 341.4093 32.0847 343.8918 33.7891 345.6983 36.2149 345.9681 38.041 347.6952 40.6797 349.6738 45.3135 351.2283 46.4515 352.0247 49.8122 353.8037 51.9325 353.8289 53.7814 356.3496 59.518 357.0048 64.1831 358.2879 64.6011 359.2364 69.405 360.3554 70.2861 360.9646 74.7321 360.6516 77.5554 364.862 76.8244 366.6759 78.8558 366.3798 81.752 365.9823 82.2751 364.4064 82.8708 362.9984 83.01 362.0937 84.1189 361.6597 85.428 361.4852 88.0323 361.5809 90.2639 361.1862 92.5767 361.1206 93.5489 360.2527 93.9634 359.0304 94.2995 357.4728 95.9941 356.4258 96.6667 356.7308 97.591 357.0894 97.8278 357.2449 98.4104 356.9566 98.9542 355.6991 99.5515 355.2605 100.5814 355.0039 101.0494 354.4587 101.362 353.9916 101.1959 353.2058 100.0521 352.0711 99.0894 350.6461 99.341 349.1119 98.5516 348.7381 97.8565 347.4808 98.2785 346.0876 98.9914 343.4571 100.2762 341.0729 101.1619 339.0901 101.0324 337.2219 102.2043 335.8958 103.0334 335.7298 103.5401 335.2371 103.8707 334.7293 103.7305 333.6825 102.9504 332.8859 102.0687 332.1421 101.93 331.311 102.2722 330.9225 102.9356 330.0835 104.0344 329.1924 104.4193 328.4894 104.3191 327.57 104.1607 326.4804 104.1373 325.5149 104.733 324.7295 104.3372 324.1825 103.3964 323.3418 102.3484 323.0315 101.6976 322.6539 100.7492 322.4356 100.1359 321.8908 99.6219 321.2077 99.7675 320.7363 100.0715 320.4155 100.2123 320.0007 100.2063 319.5246 99.9211 319.1525 99.7588 318.5784 100.0816 318.2714 100.7038 318.1546 101.401 318.2534 102.4695 318.3269 102.9103 317.9993 103.4927 317.3353 103.6136 317.0577 103.8799 316.6508 103.7652 316.192 103.3629 315.5754 102.7281 314.66 102.4155 313.8438 102.2438 313.5383 101.6579 313.0655 101.1922 312.5651 100.5047 311.8731 99.7514 310.9174 99.8517 309.8728 99.9343 309.0926 100.361 308.3427 100.9931 307.617 101.3679 306.6818 101.5022 306.1531 101.2804 305.6029 100.6698 304.8292 100.5215 303.9243 100.6135 303.4792 100.7313 302.7857 100.7141 302.5385 100.991 302.1354 101.0505 301.7584 100.6974 300.74 99.8964 300.5624 98.349 300.0558 97.1583 299.0666 95.456 298.6083 93.4236 297.0051 92.4166 296.3372 93.0348 295.8083 93.643 295.0674 95.0644 293.8572 95.2033 293.2538 96.4681 292.9577 97.6493 292.6443 98.3045 292.0255 98.0452 291.9128 97.6451 291.2758 97.5418 290.8659 97.7214 290.115 97.3824 290.0884 97.0488 289.3731 96.5537 288.7283 96.5476 287.3026 96.2035 286.111 96.126 285.5299 96.5787 284.501 96.3436 284.1017 96.4229 284.0005 95.9997 284.001 95.5343 283.3705 93.5583 283.2207 92.6477 282.6684 91.3905 282.4112 89.7768 282.6474 89.3515 281.842 88.7348 280.6875 88.2209 279.7527 86.8975 279.3048 86.0201 279.1279 84.0701 278.5642 83.2641 278.4371 82.3297 278.8948 81.7175 279.0854 80.5309 279.5453 79.3934 279.437 77.7272 279.126 76.9913 278.2649 76.1867 277.6818 75.055 277.9941 74.1419 277.1351 72.8912 276.6437 72.6813 276.3826 71.9783 275.6261 69.9594 274.8053 68.2056 274.8175 67.3439 275.0442 66.3513 275.381 65.0431 274.6195 64.006 274.2153 62.3681 274.6963 60.9113 275.2938 60.3798 276.4441 58.8515 276.6535 57.7113 276.2124 56.0304 276.9699 53.8184 276.6622 53.4061 277.2123 52.6912 277.8442 52.2452 278.4736 50.9717 278.0283 49.3726 278.35 47.6947 278.3076 46.0494 277.9838 45.2099 279.0483 43.7869 279.212 42.8163 278.6891 42.1365 278.9758 41.1743 279.3949 40.3685 280.5504 39.7498 280.7018 39.0493 281.5268 38.2625 282.0776 36.9481 282.0998 35.7645 282.0042 34.395 281.287 33.2183 280.2961 32.953 279.7106 32.8246 279.4908 32.4206 279.1801 32.0793 279.2268 31.4647 279.4526 30.5585 279.8671 29.91 280.0406 28.9219 279.3301 28.2298 279.1134 27.8649 278.735 26.9075 277.7116 26.496 277.3906 25.5369 276.9077 24.3975 276.6148 23.8295 275.8728 23.7622 275.3768 24.4153 274.6516 25.4008 271.8921 25.8762 270.8574 25.5722 270.4864 24.7991 270.7023 23.8519 270.7467 23.0556 269.9597 22.7515 269.122 22.6961 268.3506 22.3665 268.1248 21.9286 267.6682 21.1607 266.829 20.8636 266.0533 21.3978 265.8512 21.7079 265.1953 21.9403 264.4129 22.2306 263.99 22.0694 263.8318 21.7026 264.0419 21.3949 263.6886 20.3536 263.0292 19.2954 262.6824 18.689 262.2511 17.7489 262.1893 17.51 261.9108 17.7315 261.6738 18.1596 260.6193 18.2955 259.9684 18.1735 259.4679 18.2516 259.3741 18.0181 259.0879 17.241 258.6554 16.5484 258.1457 15.9868 258.0311 15.0399 257.7279 13.9349 257.275 13.1487 256.9609 11.6801 257.15 10.3554 258.2735 9.7891 258.4972 9.8866 258.8278 9.5439 258.944 9.1682 259.0745 8.5076 258.5545 8.1876 258.4003 7.285 258.6362 7.056 Z" id="fips-08057"/>
<path d="M 664.0108 285.2651 712.6217 283.5252 713.5525 283.7143 787.6019 279.9741 788.9989 313.3012 789.0801 315.2881 789.154 317.5726 789.2348 319.4824 789.3227 321.5557 789.3193 321.7257 789.6437 329.8241 789.6985 331.1095 789.7116 331.3705 789.7699 333.0118 789.7779 333.0508 789.8097 333.8109 790.0787 341.5679 790.0791 341.5794 788.4769 341.646 787.4573 341.6778 676.7927 345.2797 664.4625 345.9707 664.2328 334.8936 665.1583 334.859 664.0108 285.2651 Z" id="fips-08017"/>
<path d="M 180.2686 516.7157 192.3422 516.8348 220.3237 517.4681 220.2423 521.8246 267.6433 522.013 267.6569 520.8729 271.3296 521.0109 271.0225 545.9863 280.1696 550.8935 281.0136 558.7216 292.2212 576.7006 293.6478 579.7466 290.8757 579.7269 277.5846 579.6878 277.5885 579.6826 276.2747 579.6421 276.2654 579.644 272.5477 579.5859 270.9193 579.5823 262.372 579.5636 248.7827 579.3743 247.944 578.2611 235.6087 578.0721 185.9876 577.1635 179.0566 577.0156 180.2686 516.7157 Z" id="fips-08007"/>
<path d="M 601.7791 186.399 601.1192 149.0802 626.6634 148.5221 626.3239 98.7859 625.9571 86.4561 632.2908 86.3099 634.4641 86.3911 700.3615 84.2057 700.722 96.6606 699.2649 96.6846 700.8167 146.4448 699.6736 146.4701 701.6393 208.4949 663.0079 209.8812 662.2216 209.8527 602.2186 211.1773 601.7791 186.399 Z" id="fips-08121"/>
<path d="M 712.8839 39.4237 777.6785 37.148 777.9594 44.5702 778.819 67.3453 778.9406 69.875 779.394 81.2958 712.8592 83.8192 711.6431 45.775 713.135 45.7067 712.8839 39.4237 Z" id="fips-08095"/>
<path d="M 713.9311 393.9227 716.0017 393.8197 716.191 393.8352 792.017 390.9949 792.0573 391.8987 792.1361 393.6666 792.7298 409.1059 792.7813 411.4988 792.8826 413.2094 793.198 422.8366 793.9113 439.5835 793.9216 439.8641 794.3005 448.1638 794.5532 454.4079 794.6712 457.3474 794.7815 459.4539 794.9901 463.5301 795.1233 466.6135 795.2136 468.7048 795.477 474.899 795.5413 477.004 795.6129 478.5989 795.6664 480.0556 715.9755 482.8747 715.2084 457.2224 716.0217 457.1102 713.9311 393.9227 Z" id="fips-08099"/>
<path d="M 613.038 74.3131 625.4723 74.0607 625.9571 86.4561 626.3239 98.7859 626.6634 148.5221 601.1192 149.0802 552.5133 149.9967 551.7331 100.1331 551.6526 75.2778 613.038 74.3131 Z" id="fips-08087"/>
<path d="M 343.7919 522.0794 344.1759 472.4854 409.7786 472.214 410.1207 476.1407 407.5178 478.4634 407.5143 484.4492 406.4269 486.1999 404.757 494.1801 406.5946 496.9875 405.3735 498.9925 377.3447 528.5075 343.8042 528.3443 343.7919 522.0794 Z" id="fips-08003"/>
<path d="M 455.4809 399.7855 467.6824 399.6735 467.5241 383.4358 467.3224 362.3737 468.2806 362.2654 502.0406 362.0487 509.143 361.9658 566.4442 360.8704 566.9404 398.0557 566.8041 414.5329 567.3173 460.7021 567.3926 473.3094 534.5149 461.9625 501.1099 450.4796 498.8949 450.6439 480.5725 451.9952 459.7451 453.5363 457.3609 451.6489 455.6435 448.675 455.4185 420.3633 455.6772 418.3708 455.4809 399.7855 Z" id="fips-08101"/>
<path d="M 453.9345 180.9266 457.4322 180.4915 458.0386 180.904 462.4134 180.8842 463.2006 179.8292 466.3698 180.8666 467.7893 181.8877 469.3378 181.872 470.3468 179.785 472.4235 179.781 472.4136 177.6891 474.4433 177.6735 474.462 179.7575 482.7024 179.7154 482.6581 173.4985 489.0903 172.977 489.0883 165.3362 489.9039 165.334 491.9339 165.3288 493.2971 163.0764 494.6999 164.1464 499.0633 164.1569 499.7739 165.1425 503.446 165.0823 502.8965 168.7468 501.3573 168.7705 501.4195 176.0998 485.7922 176.1603 485.8065 179.6644 488.9001 179.6373 488.914 183.8143 483.7383 183.2565 478.6365 183.3263 478.1248 184.3264 475.5371 184.0318 476.603 185.9804 472.9857 186.0175 472.4793 188.0839 472.4797 189.1275 472.2742 189.6466 473.5166 190.1581 474.5748 194.2931 471.7386 194.3096 470.4543 194.8892 470.9738 195.3483 470.9753 195.154 471.0474 195.1542 470.9767 195.0612 470.9765 195.0336 472.0248 196.3812 470.4785 198.4518 474.5913 197.9636 476.5506 199.6178 476.6293 199.9669 473.0491 201.5354 472.5264 204.6539 469.432 204.6746 469.4346 202.5891 467.3936 200.5533 466.4067 200.5639 462.7887 198.4914 458.7088 199.5391 458.9143 196.9512 458.1445 199.542 456.1309 200.5831 457.1173 204.1029 456.0785 204.221 455.0639 204.1967 454.0319 203.6922 454.0343 202.6666 453.4073 202.6712 453.3649 203.2564 453.6362 203.6809 454.0283 203.9863 454.0367 205.2057 453.5258 206.1439 449.8658 206.1577 449.2532 205.6589 449.669 205.6063 452.7513 205.555 450.9211 204.3173 448.0892 204.772 447.8216 203.2074 449.8326 203.1995 449.891 203.1984 449.8918 202.6939 452.4884 200.0891 450.9608 198.216 453.2695 198.5291 454.0227 198.5246 452.9856 196.8888 454.0051 194.3871 453.9975 193.357 453.981 190.2389 453.7194 189.2014 453.9731 187.7486 453.9611 185.9755 453.9467 181.9638 452.6371 181.3189 453.9345 180.9266 Z M 466.3745 194.6051 467.7753 194.3252 467.3778 193.3092 467.8721 193.333 467.8652 192.9106 467.865 192.8906 467.7196 192.8926 467.7195 192.8793 467.6282 192.8796 467.6285 192.9334 467.5767 192.9332 466.3536 192.2546 466.3745 194.6051 Z M 467.5342 197.442 468.6092 198.4024 468.5615 199.5045 469.448 200.0882 468.9295 197.697 468.2238 197.1787 467.5342 197.442 Z" id="fips-08031"/>
<path d="M 566.8041 414.5329 568.0723 415.2412 570.8666 415.2585 573.9359 414.3937 576.2633 415.5007 576.2506 416.4301 580.8031 417.452 581.9774 416.574 587.088 417.3082 588.1248 416.6957 590.66 417.4212 591.8753 418.836 594.5252 418.1437 595.5358 418.8833 616.1758 418.3584 615.9944 410.0667 628.321 409.6522 627.9811 396.5839 628.8874 396.4319 640.2925 396.1142 641.7347 459.2793 641.3188 459.9144 641.8041 484.8667 567.9242 486.2414 567.6308 474.5191 567.3926 473.3094 567.3173 460.7021 566.8041 414.5329 Z" id="fips-08089"/>
<path d="M 18.0893 111.9365 120.162 115.525 170.1806 116.5761 187.4213 117.4616 193.0863 117.523 193.5581 117.11 237.2855 117.6589 237.0368 136.7581 206.5072 136.3088 206.2438 148.7249 205.8055 161.3935 193.4565 160.7466 193.1706 173.4976 164.4196 172.6016 154.2154 173.0738 137.6406 172.6523 137.1304 191.279 69.5161 189.3618 69.3159 195.565 31.8815 194.2164 31.9388 192.7686 14.8976 192.1216 16.1545 161.527 17.1686 135.2892 17.1789 135.1947 17.8532 117.9174 17.8508 117.8978 18.0893 111.9365 Z" id="fips-08103"/>
<path d="M 663.0079 209.8812 701.6393 208.4949 727.1416 207.4966 729.2052 207.2376 784.3684 204.8041 784.4053 205.6424 784.5887 209.8139 784.5879 210.1341 784.7545 214.4862 785.2422 226.3039 785.2701 227.0347 785.3723 229.1185 785.5585 233.381 786.0002 243.4467 787.0377 267.14 787.0656 267.6924 787.0904 268.1837 787.6019 279.9741 713.5525 283.7143 712.6217 283.5252 664.0108 285.2651 663.6727 272.3663 664.5379 272.345 663.0079 209.8812 Z" id="fips-08063"/>
<path d="M 423.8488 275.4487 456.5928 275.3126 457.3992 289.5833 457.3282 291.0526 457.3029 312.5583 453.1013 312.4937 452.5396 322.508 457.1657 322.8059 467.3603 322.7828 467.381 331.3349 467.1081 343.7712 454.6746 343.382 452.7151 344.0406 436.1577 344.2347 433.8914 344.2498 434.1572 337.2099 423.9796 337.1917 423.7133 275.4496 423.8488 275.4487 Z" id="fips-08119"/>
<path d="M 640.2925 396.1142 704.9116 394.2619 705.0475 394.199 713.9311 393.9227 716.0217 457.1102 715.2084 457.2224 715.9755 482.8747 684.7571 483.6715 678.8995 483.9644 641.8041 484.8667 641.3188 459.9144 641.7347 459.2793 640.2925 396.1142 Z" id="fips-08011"/>
<path d="M 279.7527 86.8975 280.6875 88.2209 281.842 88.7348 282.6474 89.3515 282.4112 89.7768 282.6684 91.3905 283.2207 92.6477 283.3705 93.5583 284.001 95.5343 284.0005 95.9997 284.1017 96.4229 284.501 96.3436 285.5299 96.5787 286.111 96.126 287.3026 96.2035 288.7283 96.5476 289.3731 96.5537 290.0884 97.0488 290.115 97.3824 290.8659 97.7214 291.2758 97.5418 291.9128 97.6451 292.0255 98.0452 292.6443 98.3045 292.9577 97.6493 293.2538 96.4681 293.8572 95.2033 295.0674 95.0644 295.8083 93.643 296.3372 93.0348 297.0051 92.4166 298.6083 93.4236 299.0666 95.456 300.0558 97.1583 300.5624 98.349 300.74 99.8964 301.7584 100.6974 302.1354 101.0505 302.5385 100.991 302.7857 100.7141 303.4792 100.7313 303.9243 100.6135 304.8292 100.5215 305.6029 100.6698 306.1531 101.2804 306.6818 101.5022 307.617 101.3679 308.3427 100.9931 309.0926 100.361 309.8728 99.9343 310.9174 99.8517 311.8731 99.7514 312.5651 100.5047 313.0655 101.1922 313.5383 101.6579 313.8438 102.2438 314.66 102.4155 315.5754 102.7281 316.192 103.3629 316.6508 103.7652 317.0577 103.8799 317.3353 103.6136 317.9993 103.4927 318.3269 102.9103 318.2534 102.4695 318.1546 101.401 318.2714 100.7038 318.5784 100.0816 319.1525 99.7588 319.5246 99.9211 320.0007 100.2063 320.4155 100.2123 320.7363 100.0715 321.2077 99.7675 321.8908 99.6219 322.4356 100.1359 322.6539 100.7492 323.0315 101.6976 323.3418 102.3484 324.1825 103.3964 324.7295 104.3372 325.5149 104.733 326.4804 104.1373 327.57 104.1607 328.4894 104.3191 329.1924 104.4193 330.0835 104.0344 330.9225 102.9356 331.311 102.2722 332.1421 101.93 332.8859 102.0687 333.6825 102.9504 334.7293 103.7305 335.2371 103.8707 335.7298 103.5401 335.8958 103.0334 337.2219 102.2043 339.0901 101.0324 341.0729 101.1619 343.4571 100.2762 346.0876 98.9914 347.4808 98.2785 348.7381 97.8565 349.1119 98.5516 350.6461 99.341 352.0711 99.0894 353.2058 100.0521 353.9916 101.1959 354.4587 101.362 355.0039 101.0494 355.2605 100.5814 355.6991 99.5515 356.9566 98.9542 357.2449 98.4104 357.0894 97.8278 356.7308 97.591 356.4258 96.6667 357.4728 95.9941 359.0304 94.2995 360.2527 93.9634 361.1206 93.5489 361.1862 92.5767 361.5809 90.2639 361.4852 88.0323 361.6597 85.428 362.0937 84.1189 362.9984 83.01 364.4064 82.8708 365.9823 82.2751 366.3798 81.752 371.5409 83.4437 371.7074 87.2469 370.5414 89.0075 370.6459 91.0106 373.2862 94.2798 373.3047 96.0463 375.7979 99.8358 379.2039 101.7216 379.9894 103.3416 382.9687 104.9139 382.9046 106.5836 384.6939 108.0225 385.0497 112.2699 388.2173 114.0371 389.2283 115.5399 387.6033 115.6125 386.3255 121.5495 385.5466 122.4228 386.6214 128.619 390.0207 130.3231 391.1587 133.0407 390.2212 135.0541 390.1286 140.5187 388.4171 142.8716 389.8979 144.6723 388.2198 147.8205 384.1696 149.05 384.8909 152.2241 383.7779 159.5935 385.6803 160.8525 383.0491 166.6922 384.0641 172.3333 383.4029 174.1986 381.5365 174.2955 378.9968 179.0589 375.7538 180.4701 372.132 179.2351 369.4973 181.7708 366.4107 181.4521 365.9939 180.2522 362.4347 180.1179 361.8837 181.9553 363.1707 185.5016 362.8025 188.6822 360.0988 190.2076 358.2868 194.093 355.975 195.5248 355.3824 194.625 350.3974 196.1737 348.5702 195.847 346.5001 194.7169 345.8323 192.1602 343.5985 190.3421 342.941 185.1943 341.1678 181.3767 340.9101 178.7248 335.7091 173.2323 333.7288 173.8808 331.3633 173.0456 328.1591 170.3453 324.7915 165.071 322.5806 163.0681 317.9052 162.4281 306.8783 163.0268 306.9125 161.5179 302.6162 161.4287 282.4757 161.1582 281.5917 161.211 281.7762 150.478 280.5862 150.1607 280.9104 124.9154 281.7213 101.7195 279.4829 101.6912 279.7527 86.8975 Z" id="fips-08049"/>
<path d="M 7.577 407.2011 22.2486 407.7157 22.7249 407.5031 128.2096 411.2738 129.7603 412.3645 129.6679 416.4828 136.4124 416.6856 135.9403 424.986 136.5219 426.7048 135.1038 429.461 136.2275 431.5801 136.9331 432.2046 140.7779 432.1288 140.7262 434.4108 146.7388 435.1474 148.531 439.1292 151.8533 440.3298 153.5865 443.6764 152.8844 447.1635 150.8085 450.2839 147.781 452.4143 148.0969 454.9918 146.0483 458.8027 142.3956 460.2618 143.0502 462.6075 140.8717 465.6083 138.6224 465.3536 137.8984 464.7365 136.5957 463.8029 135.327 462.8552 134.3035 460.9517 133.3354 460.1577 132.6591 459.4772 131.9397 458.2936 129.9664 458.2257 129.0724 457.4123 128.9539 456.7353 128.2361 456.6655 127.4446 456.8801 126.0226 456.4985 125.5012 455.4576 124.7462 454.5399 124.1273 453.418 123.1073 453.334 122.2059 453.5066 121.2984 453.4302 119.8992 453.4452 118.8729 453.9157 117.5541 454.4532 116.9512 455.0592 116.4516 454.9494 115.9736 454.5751 115.8238 454.2152 114.8234 454.4768 113.9489 455.01 113.3018 455.2901 112.6736 455.323 112.4865 455.0314 111.7699 454.0463 110.6564 453.2899 109.4635 453.5602 109.0909 454.2494 108.1252 455.2192 107.4043 455.9737 107.11 456.1001 106.9803 455.8925 106.9221 455.5781 106.6916 455.5204 106.3895 455.639 106.1466 456.0208 104.943 456.0023 103.9736 456.433 102.6935 456.8519 101.1368 457.374 100.2418 457.5609 99.5078 457.5415 99.382 457.2216 98.9694 455.9972 98.6014 455.5805 98.1467 455.0408 97.6704 454.586 97.4875 453.3258 97.153 451.7828 96.7367 450.3195 95.3253 449.052 94.3644 447.6824 87.7864 446.9896 84.996 446.9222 82.2359 446.8495 80.1857 446.8143 74.5601 446.5961 68.253 446.3374 61.1896 446.0567 53.8459 445.7288 50.4253 445.5933 44.8986 445.3967 40.4833 445.2292 37.1235 445.111 33.3428 444.9613 31.5123 444.8826 31.3231 445.4579 31.3499 445.8501 31.0815 446.5522 29.5128 446.8963 26.3964 446.7729 24.8686 446.7121 23.6364 446.6689 23.3281 446.6577 22.8794 446.6406 22.274 446.6153 21.6147 446.5902 19.8098 446.5193 18.4968 446.4713 15.514 446.3604 13.9787 446.3012 12.4478 446.2402 9.9645 446.1351 7.3526 446.0356 6.1237 445.9919 6.3321 442.2645 6.4629 432.6955 6.6204 429.4436 6.6324 429.1251 7.577 407.2011 Z" id="fips-08113"/>
<path d="M 236.0515 441.6387 237.5705 439.7879 239.7296 439.0236 242.1557 442.0276 245.1112 440.1572 248.0081 440.2484 249.7274 441.1301 249.6236 442.7344 253.2307 447.1694 258.4267 448.0255 261.5207 452.0837 263.4536 452.8171 265.6254 451.8107 268.0728 454.1246 270.4593 453.925 270.3536 459.3873 269.8418 483.7857 268.0356 483.7617 267.6569 520.8729 267.6433 522.013 220.2423 521.8246 220.3237 517.4681 221.4874 481.5057 219.0861 481.396 220.346 459.5358 220.5263 443.8269 223.6349 443.2403 224.5027 441.5839 225.4572 442.4209 228.5047 440.7615 231.4474 442.6129 233.5351 441.9182 235.0876 442.9818 236.0515 441.6387 Z" id="fips-08079"/>
<path d="M 6.1237 445.9919 7.3526 446.0356 9.9645 446.1351 12.4478 446.2402 13.9787 446.3012 15.514 446.3604 18.4968 446.4713 19.8098 446.5193 21.6147 446.5902 22.274 446.6153 22.8794 446.6406 23.3281 446.6577 23.6364 446.6689 24.8686 446.7121 26.3964 446.7729 29.5128 446.8963 31.0815 446.5522 31.3499 445.8501 31.3231 445.4579 31.5123 444.8826 33.3428 444.9613 37.1235 445.111 40.4833 445.2292 44.8986 445.3967 50.4253 445.5933 53.8459 445.7288 61.1896 446.0567 68.253 446.3374 74.5601 446.5961 80.1857 446.8143 82.2359 446.8495 84.996 446.9222 87.7864 446.9896 94.3644 447.6824 95.3253 449.052 96.7367 450.3195 97.153 451.7828 97.4875 453.3258 97.6704 454.586 98.1467 455.0408 98.6014 455.5805 98.9694 455.9972 99.382 457.2216 99.5078 457.5415 100.2418 457.5609 101.1368 457.374 102.6935 456.8519 103.9736 456.433 104.943 456.0023 106.1466 456.0208 106.3895 455.639 106.6916 455.5204 106.9221 455.5781 106.9803 455.8925 107.11 456.1001 107.4043 455.9737 108.1252 455.2192 109.0909 454.2494 109.4635 453.5602 110.6564 453.2899 111.7699 454.0463 112.4865 455.0314 112.6736 455.323 113.3018 455.2901 113.9489 455.01 114.8234 454.4768 115.8238 454.2152 115.9736 454.5751 116.4516 454.9494 116.9512 455.0592 117.5541 454.4532 118.8729 453.9157 119.8992 453.4452 121.2984 453.4302 122.2059 453.5066 123.1073 453.334 124.1273 453.418 124.7462 454.5399 125.5012 455.4576 126.0226 456.4985 127.4446 456.8801 128.2361 456.6655 128.9539 456.7353 129.0724 457.4123 129.9664 458.2257 131.9397 458.2936 132.6591 459.4772 133.3354 460.1577 134.3035 460.9517 135.327 462.8552 136.5957 463.8029 137.8984 464.7365 138.6224 465.3536 137.49 467.1454 138.4321 468.1319 136.8239 470.5421 137.0643 472.8949 133.8495 473.2983 129.7429 475.5367 128.0183 474.8872 126.1462 476.3078 126.0201 478.7677 127.3002 483.1338 125.7964 484.422 110.2175 484.1078 104.1565 484.4323 18.84 482.0685 3.7882 502.5002 3.9061 500.3379 4.2086 495.9706 4.2146 495.9604 4.6153 485.4863 4.651 483.5608 4.6887 482.6863 4.8956 476.6566 5.199 470.22 5.2065 469.9392 5.366 466.0849 5.3666 464.688 5.7084 457.543 5.8682 452.4468 5.9053 451.5591 6.0576 447.1745 6.1237 445.9919 Z" id="fips-08033"/>
<path d="M 377.3447 528.5075 405.3735 498.9925 406.5946 496.9875 410.1037 495.19 411.4832 492.1394 415.3137 491.2583 416.2291 491.9116 419.6171 488.199 422.0758 488.4287 427.8278 485.5076 434.8105 490.8227 437.267 490.0228 440.2873 490.9624 438.4647 494.5681 436.8226 496.2876 439.6384 498.493 441.364 501.4272 442.1769 506.1444 441.5885 511.5201 441.747 514.2747 443.9208 514.1521 445.717 519.7052 446.8479 520.6245 445.9489 522.1929 444.0666 522.3509 442.7965 523.9064 442.5283 527.7971 443.2045 532.4475 443.0591 538.1265 444.2363 537.5495 444.2962 580.0411 436.8319 580.0916 436.8197 580.0917 433.321 580.0399 414.1636 580.0405 414.123 580.0403 411.5241 580.0231 410.9772 580.0202 408.9331 580.0251 403.9556 580.0399 403.5395 580.0567 401.0952 580.0424 390.4286 580.0618 386.1813 580.0276 380.2805 580.0194 380.0534 580.0193 380.0526 580.0193 378.9186 577.2863 376.8614 577.3116 376.2469 575.4302 374.1184 573.4504 374.8706 571.3948 374.1832 570.6841 377.5398 564.6818 376.5951 563.413 376.6407 560.1557 378.6316 557.1288 377.8803 555.8092 378.8273 553.668 377.0197 548.2946 377.5833 545.0434 376.9924 544.0645 377.8297 541.8136 379.5223 540.2412 379.9623 538.0184 376.2218 530.3798 377.3447 528.5075 Z" id="fips-08023"/>
<path d="M 700.3615 84.2057 712.8592 83.8192 779.394 81.2958 779.5967 87.5171 779.6443 87.9889 779.8038 92.6977 779.8909 94.2448 779.9778 95.7888 780.4847 110.4867 780.5219 111.3639 780.8898 120.8514 780.9592 122.8935 781.7923 143.6144 782.6582 165.4766 782.7156 166.3792 782.7766 167.8283 782.8625 169.8706 783.7243 190.3232 783.8983 193.4283 783.9055 194.5372 784.2519 202.198 784.3684 204.8041 729.2052 207.2376 727.1416 207.4966 701.6393 208.4949 699.6736 146.4701 700.8167 146.4448 699.2649 96.6846 700.722 96.6606 700.3615 84.2057 Z" id="fips-08125"/>
<path d="M 467.5342 197.442 468.2238 197.1787 468.9295 197.697 469.448 200.0882 468.5615 199.5045 468.6092 198.4024 467.5342 197.442 Z M 466.3745 194.6051 466.3536 192.2546 467.5767 192.9332 467.6285 192.9334 467.6282 192.8796 467.7195 192.8793 467.7196 192.8926 467.865 192.8906 467.8652 192.9106 467.8721 193.333 467.3778 193.3092 467.7753 194.3252 466.3745 194.6051 Z M 454.0367 205.2057 454.0283 203.9863 454.0319 203.6922 455.0639 204.1967 456.0785 204.221 457.1173 204.1029 456.1309 200.5831 458.1445 199.542 458.9143 196.9512 458.7088 199.5391 462.7887 198.4914 466.4067 200.5639 467.3936 200.5533 469.4346 202.5891 469.432 204.6746 472.5264 204.6539 473.0491 201.5354 476.6293 199.9669 476.5506 199.6178 474.5913 197.9636 470.4785 198.4518 472.0248 196.3812 470.9765 195.0336 470.9767 195.0612 471.0474 195.1542 470.9753 195.154 470.9738 195.3483 470.4543 194.8892 471.7386 194.3096 474.5748 194.2931 473.5166 190.1581 472.2742 189.6466 472.4797 189.1275 472.4793 188.0839 480.6709 188.0266 497.2146 187.8405 499.9441 187.9383 501.9129 187.8602 502.2317 187.8607 503.4811 187.8632 511.7442 187.9501 512.1942 187.959 512.2072 187.9592 512.4959 187.9641 512.5109 187.9644 512.515 187.9645 512.5215 187.9645 513.5486 187.9822 513.8825 187.9864 513.8893 187.9864 513.8941 187.9865 513.8973 187.9865 513.9026 187.9864 513.912 187.9863 513.916 187.9863 513.9187 187.9863 513.9202 187.9862 513.9316 187.9863 514.0987 187.9848 514.1008 187.9848 514.6645 187.98 515.8564 187.9679 515.8897 187.9675 516.3614 187.9627 516.7534 187.9591 516.7814 187.9588 516.7848 187.9588 516.7868 187.9587 516.7962 187.9588 516.8054 187.9587 516.8136 187.9586 516.8186 187.9585 516.8211 187.9585 516.864 187.9581 516.8854 187.9579 516.8911 187.9578 516.8926 187.9578 517.7406 187.9501 517.882 187.9492 517.8952 187.9492 601.7791 186.399 602.2186 211.1773 601.4174 211.188 499.3407 212.7423 497.3047 212.7587 495.249 212.7659 483.6216 212.8512 480.2409 212.8918 470.4764 212.9622 469.4402 212.9623 462.9488 212.997 454.5932 213.0398 453.999 213.0428 454.0166 205.9316 454.0367 205.2057 Z" id="fips-08005"/>
<path d="M 302.6162 161.4287 306.9125 161.5179 306.8783 163.0268 317.9052 162.4281 322.5806 163.0681 324.7915 165.071 328.1591 170.3453 331.3633 173.0456 333.7288 173.8808 335.7091 173.2323 340.9101 178.7248 341.1678 181.3767 342.941 185.1943 343.5985 190.3421 345.8323 192.1602 346.5001 194.7169 348.5702 195.847 350.3974 196.1737 355.3824 194.625 355.975 195.5248 358.2868 194.093 358.0859 197.8018 359.7863 199.3357 362.6287 200.0916 364.843 198.6539 366.6 201.9528 369.6205 202.1726 370.1146 203.48 372.7093 203.0913 373.8478 204.1375 374.5721 206.9601 371.0322 210.6424 367.6945 212.1217 368.6485 213.2796 370.1347 215.5624 369.2621 218.1791 366.897 219.1428 365.2348 218.1747 364.5241 220.1399 365.924 221.8844 364.88 222.1966 363.1613 224.8362 361.7417 224.7724 359.5576 228.6799 356.5798 228.4147 355.9624 230.9226 353.4652 231.3208 355.1123 234.6719 350.5631 236.4704 347.7307 239.3753 347.3193 242.184 343.5494 242.6305 339.0756 239.8237 334.8026 239.5596 326.9459 239.4896 326.7653 239.2411 326.9486 238.4346 327.3643 238.0504 327.1872 236.7548 326.3099 235.8467 326.0036 235.5992 325.6823 234.9327 324.5662 234.4273 324.4271 233.5847 324.6986 232.5533 325.0011 231.97 324.7952 231.0953 324.142 230.4674 323.5009 229.2874 323.1015 228.2285 322.1064 226.9044 322.2547 225.4111 322.5929 224.137 322.1078 223.3173 321.5803 223.2256 321.6915 222.2662 322.1965 221.9688 322.7204 220.477 321.785 218.649 322.3228 216.6849 322.9893 216.0166 323.4571 215.5944 323.9503 215.6877 324.4416 216.5089 324.8955 217.3972 325.5657 217.7704 326.0815 217.7728 326.2741 217.867 326.632 217.6169 326.6778 217.1157 326.7794 215.6029 327.6537 215.1756 328.1398 214.4537 327.4695 214.0587 326.7863 212.4925 326.3637 211.1791 326.7311 209.7865 326.8527 208.4045 327.7052 207.2024 328.999 207.4773 330.1711 207.0146 330.5447 204.9178 330.3668 202.7534 329.1754 200.4317 325.9106 199.7418 324.4288 199.1262 323.7478 197.156 322.233 196.6755 321.3531 196.2802 320.9282 195.432 320.9983 194.4807 321.0515 193.7374 320.462 193.3359 319.9573 193.2697 319.3015 193.677 318.0597 193.1009 317.7122 191.8201 317.1511 190.7486 316.1 190.1033 314.9353 189.3693 313.9792 188.2467 313.297 186.8188 312.3705 185.7375 312.3634 185.445 311.5599 185.5035 311.0285 186.1065 310.1368 186.1759 309.2163 185.2584 307.9796 184.1545 307.2621 180.9165 306.1207 178.8939 304.9132 175.46 303.7514 173.4041 302.7443 170.0783 302.6274 168.4053 303.21 165.6898 302.0949 162.1327 302.6162 161.4287 Z" id="fips-08117"/>
<path d="M 409.7786 472.214 410.6568 468.4078 410.0395 465.9005 412.2646 464.6042 412.968 457.9 410.5258 454.1365 407.3752 453.89 407.9706 451.5888 411.6805 451.3739 414.6823 452.361 418.7949 448.7053 422.1579 447.4642 425.5466 445.4322 426.7317 446.3799 427.7686 449.6524 429.2325 451.053 430.429 449.8846 433.2499 443.5347 434.3776 441.9996 436.9848 440.8953 437.1355 439.4262 439.0331 437.763 439.3056 435.6004 442.2169 433.9647 444.5529 435.8904 444.0492 437.7879 445.5149 438.8535 447.0565 443.62 449.0276 444.7208 451.7358 442.9978 453.8064 444.5831 454.1465 448.4687 455.6435 448.675 457.3609 451.6489 459.7451 453.5363 480.5725 451.9952 498.8949 450.6439 501.1099 450.4796 534.5149 461.9625 530.7329 465.5571 524.58 470.5506 521.3174 475.9895 518.1251 481.8075 515.3119 486.8924 512.5768 493.1338 508.4196 500.2224 503.975 505.3204 498.9192 508.3802 497.3799 508.2471 496.5672 508.8564 496.1962 509.6972 496.2087 510.2531 496.403 510.913 496.0249 511.4192 495.6954 512.6628 495.6733 514.1735 495.6387 514.8655 495.9413 515.5719 495.8298 516.2765 494.7612 516.7243 494.2032 516.7634 493.9028 517.0088 493.0411 517.7939 492.5283 518.2143 492.0022 518.1977 491.4414 518.6119 491.2102 518.8865 490.4147 519.6841 489.6 521.1195 488.0809 521.2524 487.1166 521.471 485.8526 522.0021 484.5738 521.9293 483.4598 521.953 482.6445 522.0556 481.1594 522.7228 479.8208 522.3724 478.1316 522.924 476.5532 523.3144 475.6701 523.859 474.7096 524.0166 473.6316 523.6402 472.2237 523.4348 471.0687 523.0315 470.1141 522.6233 468.9751 523.3174 467.5796 523.4473 466.1863 524.4975 464.5394 525.5253 462.8284 525.6388 461.3633 527.0174 460.5817 527.8753 459.1697 528.4465 458.9016 529.4324 458.9853 530.0305 458.8325 530.7837 458.2763 530.8717 457.1481 530.9821 456.1651 531.9129 455.1852 532.3495 454.7252 532.5128 453.7058 533.2564 453.154 534.1544 451.874 534.3702 450.9181 535.0493 450.0582 536.2797 448.5437 537.0883 446.9575 536.8583 445.7759 537.0229 444.5362 537.5179 444.2363 537.5495 443.0591 538.1265 443.2045 532.4475 442.5283 527.7971 442.7965 523.9064 444.0666 522.3509 445.9489 522.1929 446.8479 520.6245 445.717 519.7052 443.9208 514.1521 441.747 514.2747 441.5885 511.5201 442.1769 506.1444 441.364 501.4272 439.6384 498.493 436.8226 496.2876 438.4647 494.5681 440.2873 490.9624 437.267 490.0228 434.8105 490.8227 427.8278 485.5076 422.0758 488.4287 419.6171 488.199 416.2291 491.9116 415.3137 491.2583 411.4832 492.1394 410.1037 495.19 406.5946 496.9875 404.757 494.1801 406.4269 486.1999 407.5143 484.4492 407.5178 478.4634 410.1207 476.1407 409.7786 472.214 Z" id="fips-08055"/>
<path d="M 125.7964 484.422 150.5898 484.9589 151.4257 485.0891 180.9127 485.7774 180.2686 516.7157 179.0566 577.0156 119.9401 575.5657 116.1992 575.4812 91.6058 574.8917 91.4626 574.8094 87.1974 574.6808 87.1615 574.6847 83.5099 574.5755 83.4807 574.5731 76.8094 574.372 76.7012 574.2181 76.7945 573.698 77.0878 573.1655 77.359 572.1663 77.6731 571.0722 78.2506 570.2765 78.7982 570.4772 79.2319 570.6684 79.5366 570.322 79.8467 569.5275 80.0367 568.7672 80.9381 567.4866 82.1626 566.6297 82.2934 565.6952 82.916 564.6189 82.9675 563.6892 83.3885 563.0123 83.5587 562.1578 83.6459 561.441 84.116 560.6514 84.5121 559.7977 85.0905 559.1383 85.0132 558.1547 85.1538 557.1152 85.3614 555.9359 87.302 553.8741 87.1367 552.1794 86.9544 550.6087 87.0989 547.8205 87.5114 546.3169 87.1906 545.1574 87.4589 543.5956 88.4607 542.4447 89.4233 542.0375 90.8272 541.3418 91.6564 540.4423 92.5062 539.4248 92.8928 539.0296 93.4098 537.6629 94.0276 536.8499 94.39 535.6113 95.317 534.8205 95.9131 533.8585 96.2502 533.0932 96.9054 532.3147 96.6084 530.9165 97.0752 529.7415 97.9538 528.6238 98.0203 527.8992 97.6932 527.332 98.0729 525.9775 98.9457 524.2703 100.067 523.5348 101.6547 522.7947 103.1732 523.3183 104.4542 523.165 105.563 521.911 107.7615 521.7349 108.6394 520.9269 109.4368 520.2893 109.317 519.2154 109.5443 517.9102 109.8294 516.9192 110.4083 515.8437 111.0661 515.3727 111.7252 514.4292 112.4234 514.1451 112.6362 513.223 113.3895 512.736 114.2917 512.8457 115.2928 512.9394 116.0167 512.5399 116.7221 512.1369 117.2288 511.14 117.4014 510.1723 117.9554 509.276 117.6978 508.0852 118.0406 507.2509 118.0145 506.419 117.8422 505.0818 117.739 504.1308 117.9776 503.016 118.0424 502.1517 118.0591 500.8231 118.3008 499.3442 119.2896 498.0949 119.6196 496.9511 119.8256 495.7921 119.9748 494.744 119.8237 493.9229 119.9273 492.5064 119.8772 491.7453 119.9376 491.1232 120.3498 490.8689 120.652 490.4894 120.5324 489.7546 121.0253 489.1975 121.7949 488.8704 122.2607 488.0423 123.5699 486.8381 125.4215 485.8158 125.7964 484.422 Z" id="fips-08067"/>
<path d="M 183.6998 260.4622 182.0455 336.0392 181.9805 338.8724 126.4865 337.5166 84.1951 336.3249 84.8873 313.3489 107.5989 304.584 108.8129 303.6297 111.6258 303.1061 112.0815 300.3245 113.9666 300.2135 117.8954 294.5277 117.0646 292.8074 119.8846 290.4724 121.7482 288.031 123.7176 287.6392 124.2117 286.2044 129.277 282.6941 129.8614 281.71 133.2887 281.8277 141.7025 280.4703 143.5907 279.1842 149.8204 281.5316 153.8025 284.7007 156.9296 281.5124 158.739 281.6858 159.7944 279.4942 162.366 278.6436 168.2704 270.9508 176.1956 265.51 178.8581 265.4945 178.888 263.7136 182.6753 260.6341 183.6998 260.4622 Z" id="fips-08029"/>
<path d="M 165.8019 390.8629 168.2963 396.7851 170.8086 398.4477 171.5695 403.7344 173.5033 411.5573 172.7472 413.1019 172.0803 414.6942 173.1221 415.8748 172.9561 420.0172 174.2201 422.8539 176.5052 422.7823 178.9599 425.5755 175.5995 430.3223 175.7542 432.9229 174.4536 434.3843 171.7091 433.1946 169.699 435.1658 169.9828 438.3049 172.1419 439.1103 163.9633 438.9227 164.2312 445.2326 161.267 447.6389 157.6379 449.1382 152.8844 447.1635 153.5865 443.6764 151.8533 440.3298 148.531 439.1292 146.7388 435.1474 140.7262 434.4108 140.7779 432.1288 136.9331 432.2046 136.2275 431.5801 135.1038 429.461 136.5219 426.7048 135.9403 424.986 136.4124 416.6856 129.6679 416.4828 129.7603 412.3645 128.2096 411.2738 130.3218 411.3073 130.3141 408.2689 131.391 408.2736 131.6221 401.8457 130.5796 400.749 128.533 400.6893 128.5602 399.6182 126.4576 399.5725 126.5239 397.5108 123.4488 397.4528 123.4761 396.4456 115.0679 396.2193 115.2122 392.063 113.2177 392.0285 113.2624 387.8113 111.1975 387.764 110.2507 385.1749 139.9897 385.8988 165.8277 386.5437 165.8019 390.8629 Z" id="fips-08091"/>
<path d="M 236.9856 161.4016 270.7751 161.6686 281.5823 162.0837 281.5917 161.211 282.4757 161.1582 302.6162 161.4287 302.0949 162.1327 303.21 165.6898 302.6274 168.4053 302.7443 170.0783 303.7514 173.4041 304.9132 175.46 306.1207 178.8939 307.2621 180.9165 307.9796 184.1545 309.2163 185.2584 310.1368 186.1759 311.0285 186.1065 311.5599 185.5035 312.3634 185.445 312.3705 185.7375 313.297 186.8188 313.9792 188.2467 314.9353 189.3693 316.1 190.1033 317.1511 190.7486 317.7122 191.8201 318.0597 193.1009 319.3015 193.677 319.9573 193.2697 320.462 193.3359 321.0515 193.7374 320.9983 194.4807 320.9282 195.432 321.3531 196.2802 322.233 196.6755 323.7478 197.156 324.4288 199.1262 325.9106 199.7418 329.1754 200.4317 330.3668 202.7534 330.5447 204.9178 330.1711 207.0146 328.999 207.4773 327.7052 207.2024 326.8527 208.4045 326.7311 209.7865 326.3637 211.1791 326.7863 212.4925 327.4695 214.0587 328.1398 214.4537 327.6537 215.1756 326.7794 215.6029 326.6778 217.1157 326.632 217.6169 326.2741 217.867 326.0815 217.7728 325.5657 217.7704 324.8955 217.3972 324.4416 216.5089 323.9503 215.6877 323.4571 215.5944 322.9893 216.0166 322.3228 216.6849 321.785 218.649 322.7204 220.477 322.1965 221.9688 321.6915 222.2662 321.5803 223.2256 322.1078 223.3173 322.5929 224.137 322.2547 225.4111 322.1064 226.9044 323.1015 228.2285 323.5009 229.2874 324.142 230.4674 324.7952 231.0953 325.0011 231.97 324.6986 232.5533 324.4271 233.5847 324.5662 234.4273 325.6823 234.9327 326.0036 235.5992 326.3099 235.8467 327.1872 236.7548 327.3643 238.0504 326.9486 238.4346 326.7653 239.2411 326.9459 239.4896 324.861 239.4742 323.3122 241.4553 321.1072 241.9808 318.4038 243.7273 316.3492 242.0463 312.2965 242.3035 310.9108 243.059 308.8145 242.0466 307.7528 239.8217 305.5526 239.1134 302.6724 241.8103 295.7332 241.746 293.543 241.6532 226.876 240.161 228.2623 161.2232 236.9856 161.4016 Z" id="fips-08037"/>
<path d="M 209.0929 6.1529 217.3414 6.3367 243.2539 6.7044 258.6362 7.056 258.4003 7.285 258.5545 8.1876 259.0745 8.5076 258.944 9.1682 258.8278 9.5439 258.4972 9.8866 258.2735 9.7891 257.15 10.3554 256.9609 11.6801 257.275 13.1487 257.7279 13.9349 258.0311 15.0399 258.1457 15.9868 258.6554 16.5484 259.0879 17.241 259.3741 18.0181 259.4679 18.2516 259.9684 18.1735 260.6193 18.2955 261.6738 18.1596 261.9108 17.7315 262.1893 17.51 262.2511 17.7489 262.6824 18.689 263.0292 19.2954 263.6886 20.3536 264.0419 21.3949 263.8318 21.7026 263.99 22.0694 264.4129 22.2306 265.1953 21.9403 265.8512 21.7079 266.0533 21.3978 266.829 20.8636 267.6682 21.1607 268.1248 21.9286 268.3506 22.3665 269.122 22.6961 269.9597 22.7515 270.7467 23.0556 270.7023 23.8519 270.4864 24.7991 270.8574 25.5722 271.8921 25.8762 274.6516 25.4008 275.3768 24.4153 275.8728 23.7622 276.6148 23.8295 276.9077 24.3975 277.3906 25.5369 277.7116 26.496 278.735 26.9075 279.1134 27.8649 279.3301 28.2298 280.0406 28.9219 279.8671 29.91 279.4526 30.5585 279.2268 31.4647 279.1801 32.0793 279.4908 32.4206 279.7106 32.8246 280.2961 32.953 281.287 33.2183 282.0042 34.395 282.0998 35.7645 282.0776 36.9481 281.5268 38.2625 280.7018 39.0493 280.5504 39.7498 279.3949 40.3685 278.9758 41.1743 278.6891 42.1365 279.212 42.8163 279.0483 43.7869 277.9838 45.2099 278.3076 46.0494 278.35 47.6947 278.0283 49.3726 278.4736 50.9717 277.8442 52.2452 277.2123 52.6912 276.6622 53.4061 276.9699 53.8184 276.2124 56.0304 276.6535 57.7113 276.4441 58.8515 275.2938 60.3798 274.6963 60.9113 274.2153 62.3681 274.6195 64.006 275.381 65.0431 275.0442 66.3513 274.8175 67.3439 274.8053 68.2056 275.6261 69.9594 276.3826 71.9783 276.6437 72.6813 277.1351 72.8912 277.9941 74.1419 277.6818 75.055 278.2649 76.1867 279.126 76.9913 279.437 77.7272 279.5453 79.3934 279.0854 80.5309 278.8948 81.7175 278.4371 82.3297 278.5642 83.2641 279.1279 84.0701 279.3048 86.0201 279.7527 86.8975 279.4829 101.6912 281.7213 101.7195 280.9104 124.9154 280.5862 150.1607 281.7762 150.478 281.5917 161.211 281.5823 162.0837 270.7751 161.6686 236.9856 161.4016 237.4004 149.4127 237.0368 136.7581 237.2855 117.6589 193.5581 117.11 193.5556 101.2098 194.7009 101.2164 195.6983 71.641 201.9321 71.7432 202.0896 63.4813 208.3012 63.6094 209.0929 6.1529 Z" id="fips-08107"/>
<path d="M 270.3536 459.3873 282.3812 459.6536 282.3249 472.0169 344.1759 472.4854 343.7919 522.0794 292.9131 521.8717 292.9162 521.5528 271.3296 521.0109 267.6569 520.8729 268.0356 483.7617 269.8418 483.7857 270.3536 459.3873 Z" id="fips-08105"/>
<path d="M 711.4744 3.3596 714.9629 3.2117 719.5199 3.1097 719.8383 3.1028 719.8646 3.1116 720.8813 3.0788 721.8774 3.0438 729.2825 2.7685 731.1569 2.7151 731.298 2.7044 740.9416 2.395 742.6126 2.3555 750.2754 2.0829 750.298 2.0788 750.3055 2.0819 750.4345 2.0773 752.5055 1.9984 752.966 1.9623 756.8259 1.832 758.9476 1.7361 759.2531 1.7279 761.206 1.6734 768.3304 1.4093 774.1779 1.1779 776.2087 1.1074 776.2198 1.107 777.6785 37.148 712.8839 39.4237 711.4744 3.3596 Z" id="fips-08115"/>
<path d="M 13.2788 234.0322 117.3992 237.6212 191.8495 239.4663 191.8429 242.0302 187.9131 246.7596 193.6495 250.1138 195.2154 249.6848 197.2741 253.4413 195.5446 255.2336 191.8377 254.9709 191.5443 257.4001 189.214 258.7597 185.5458 258.0319 183.6998 260.4622 182.6753 260.6341 178.888 263.7136 178.8581 265.4945 176.1956 265.51 168.2704 270.9508 162.366 278.6436 159.7944 279.4942 158.739 281.6858 156.9296 281.5124 153.8025 284.7007 149.8204 281.5316 143.5907 279.1842 141.7025 280.4703 133.2887 281.8277 129.8614 281.71 129.277 282.6941 124.2117 286.2044 123.7176 287.6392 121.7482 288.031 119.8846 290.4724 117.0646 292.8074 117.8954 294.5277 113.9666 300.2135 112.0815 300.3245 111.6258 303.1061 108.8129 303.6297 107.5989 304.584 84.8873 313.3489 84.1951 336.3249 83.4859 359.1375 83.3967 360.311 7.4489 357.6298 7.9641 343.4573 8.7093 326.262 9.3668 315.4912 10.1624 304.1599 10.3528 299.9626 10.3738 299.8391 10.6426 294.5372 10.6383 294.4783 11.0502 286.3353 11.8536 268.349 13.2788 234.0322 Z" id="fips-08077"/>
<path d="M 453.8837 163.3456 457.9758 162.2997 457.8875 153.7652 460.9267 155.565 461.6876 151.0252 463.8259 150.9986 468.1184 150.9729 472.0756 150.9429 486.5365 150.8172 515.4015 150.5158 552.5133 149.9967 601.1192 149.0802 601.7791 186.399 517.8952 187.9492 517.882 187.9492 517.7406 187.9501 516.8926 187.9578 516.8911 187.9578 516.8854 187.9579 516.864 187.9581 516.8211 187.9585 516.8186 187.9585 516.8136 187.9586 516.8054 187.9587 516.7962 187.9588 516.7868 187.9587 516.7848 187.9588 516.7814 187.9588 516.7534 187.9591 516.3614 187.9627 515.8897 187.9675 515.8564 187.9679 514.6645 187.98 514.1008 187.9848 514.0987 187.9848 513.9316 187.9863 513.9202 187.9862 513.9187 187.9863 513.916 187.9863 513.912 187.9863 513.9026 187.9864 513.8973 187.9865 513.8941 187.9865 513.8893 187.9864 513.8825 187.9864 513.5486 187.9822 512.5215 187.9645 512.515 187.9645 512.5109 187.9644 512.4959 187.9641 512.2072 187.9592 512.1942 187.959 511.7442 187.9501 503.4811 187.8632 502.2317 187.8607 501.9129 187.8602 499.9441 187.9383 497.2146 187.8405 480.6709 188.0266 472.4793 188.0839 472.9857 186.0175 476.603 185.9804 475.5371 184.0318 478.1248 184.3264 478.6365 183.3263 483.7383 183.2565 488.914 183.8143 488.9001 179.6373 485.8065 179.6644 485.7922 176.1603 501.4195 176.0998 501.3573 168.7705 502.8965 168.7468 503.446 165.0823 499.7739 165.1425 499.0633 164.1569 494.6999 164.1464 493.2971 163.0764 491.9339 165.3288 489.9039 165.334 489.0883 165.3362 489.0903 172.977 482.6581 173.4985 482.7024 179.7154 474.462 179.7575 474.4433 177.6735 472.4136 177.6891 472.4235 179.781 470.3468 179.785 469.3378 181.872 467.7893 181.8877 466.3698 180.8666 463.2006 179.8292 462.4134 180.8842 458.0386 180.904 457.4322 180.4915 453.9345 180.9266 453.9108 176.7919 453.9331 172.0523 453.8826 171.0935 453.8837 163.3456 Z" id="fips-08001"/>
<path d="M 497.3047 212.7587 499.3407 212.7423 601.4174 211.188 601.9062 273.7234 602.8041 311.0429 565.4808 311.416 565.3286 274.3992 509.9436 274.9492 497.6377 275.0567 497.3047 212.7587 Z" id="fips-08039"/>
<path d="M 20.8875 49.2058 21.1089 41.7948 21.8192 25.8967 22.6528 1 40.496 1.7593 67.7153 2.7228 78.9495 3.1802 81.7503 3.2008 108.654 4.0484 116.1271 4.2221 130.6307 4.4078 144.4214 4.7867 175.9436 5.5582 203.7467 6.0301 209.0929 6.1529 208.3012 63.6094 202.0896 63.4813 201.9321 71.7432 195.6983 71.641 194.7009 101.2164 193.5556 101.2098 193.5581 117.11 193.0863 117.523 187.4213 117.4616 170.1806 116.5761 120.162 115.525 18.0893 111.9365 19.3577 80.3161 19.7166 73.0852 19.7029 72.389 20.0123 66.6969 20.002 66.6312 20.6741 55.3926 20.8492 50.4908 20.8875 49.2058 Z" id="fips-08081"/>
<path d="M 456.5928 275.3126 471.9318 275.2155 497.6377 275.0567 509.9436 274.9492 565.3286 274.3992 565.4808 311.416 566.4442 360.8704 509.143 361.9658 502.0406 362.0487 468.2806 362.2654 467.3224 362.3737 467.1081 343.7712 467.381 331.3349 467.3603 322.7828 457.1657 322.8059 452.5396 322.508 453.1013 312.4937 457.3029 312.5583 457.3282 291.0526 457.3992 289.5833 456.5928 275.3126 Z" id="fips-08041"/>
<path d="M 7.4489 357.6298 83.3967 360.311 83.4859 359.1375 84.1951 336.3249 126.4865 337.5166 181.9805 338.8724 180.9192 391.2006 165.8019 390.8629 165.8277 386.5437 139.9897 385.8988 110.2507 385.1749 111.1975 387.764 113.2624 387.8113 113.2177 392.0285 115.2122 392.063 115.0679 396.2193 123.4761 396.4456 123.4488 397.4528 126.5239 397.5108 126.4576 399.5725 128.5602 399.6182 128.533 400.6893 130.5796 400.749 131.6221 401.8457 131.391 408.2736 130.3141 408.2689 130.3218 411.3073 128.2096 411.2738 22.7249 407.5031 22.2486 407.7157 7.577 407.2011 7.6487 405.5385 6.6433 394.0378 6.2048 389.6538 7.4489 357.6298 Z" id="fips-08085"/>
<path d="M 565.4808 311.416 602.8041 311.0429 601.9062 273.7234 601.4174 211.188 602.2186 211.1773 662.2216 209.8527 663.0079 209.8812 664.5379 272.345 663.6727 272.3663 664.0108 285.2651 665.1583 334.859 664.2328 334.8936 664.4625 345.9707 664.7858 358.4058 627.7595 359.5242 627.783 360.5597 615.6718 359.9425 566.4442 360.8704 565.4808 311.416 Z" id="fips-08073"/>
<path d="M 453.3127 154.7202 453.8531 155.9703 453.8523 157.1217 453.5967 157.1189 450.6038 156.9303 453.3127 154.7202 Z M 388.2173 114.0371 400.3449 113.9249 415.3692 114.4247 418.5142 113.9201 427.859 113.6888 442.0641 113.868 453.3904 113.7362 453.3934 114.5459 453.4224 122.0306 453.4473 131.3678 453.4801 138.6118 453.5319 150.6556 453.8286 151.0646 453.8441 153.0433 453.8479 154.2885 449.943 157.1114 451.7609 157.1542 451.2636 159.2037 447.7002 160.2469 447.6875 161.7686 446.6709 160.7039 447.6553 157.3462 445.635 157.6809 444.5956 159.7529 444.5992 161.2884 443.5661 161.2915 443.5636 163.4397 441.4823 163.4252 422.4953 163.5157 416.1114 163.654 416.0962 160.785 415.7968 160.4874 415.1623 160.9695 414.3427 160.5837 413.7809 161.3822 413.4573 160.9818 412.6623 161.0421 411.6677 160.1688 409.5796 160.9046 385.6803 160.8525 383.7779 159.5935 384.8909 152.2241 384.1696 149.05 388.2198 147.8205 389.8979 144.6723 388.4171 142.8716 390.1286 140.5187 390.2212 135.0541 391.1587 133.0407 390.0207 130.3231 386.6214 128.619 385.5466 122.4228 386.3255 121.5495 387.6033 115.6125 389.2283 115.5399 388.2173 114.0371 Z M 447.6936 157.3807 448.2861 157.1891 449.6656 157.1398 448.7011 157.1023 448.7007 156.9816 448.6554 156.9932 448.3546 157.0181 447.9573 157.1019 447.8901 157.1371 447.6936 157.3807 Z" id="fips-08013"/>
<path d="M 302.6724 241.8103 305.5526 239.1134 307.7528 239.8217 308.8145 242.0466 310.9108 243.059 312.2965 242.3035 316.3492 242.0463 318.4038 243.7273 321.1072 241.9808 323.3122 241.4553 324.861 239.4742 326.9459 239.4896 334.8026 239.5596 332.864 241.9424 334.2775 245.2656 332.7513 247.9867 330.9971 247.7151 329.3823 249.5418 329.0429 253.7513 329.7166 256.4338 329.1844 259.0572 331.0311 260.7802 329.1904 263.8236 330.32 274.1443 326.2612 278.8478 329.6899 278.9386 330.7306 281.3798 328.3199 283.9274 328.3332 285.6943 285.4427 285.0195 284.5653 280.7495 285.2573 278.6987 287.0717 278.1664 287.7396 276.1493 287.0507 274.3997 287.4556 271.0842 290.3596 270.051 291.9215 270.8955 293.3007 269.579 295.006 265.0796 295.4828 260.8884 294.6316 258.837 296.2571 256.9869 296.2659 254.4791 293.9932 252.7281 294.1972 250.7592 296.1253 248.7815 297.4711 249.3873 301.9887 248.2527 301.7101 244.7662 302.6724 241.8103 Z" id="fips-08065"/>
<path d="M 371.6674 398.8541 452.6509 399.7869 455.4809 399.7855 455.6772 418.3708 455.4185 420.3633 455.6435 448.675 454.1465 448.4687 453.8064 444.5831 451.7358 442.9978 449.0276 444.7208 447.0565 443.62 445.5149 438.8535 444.0492 437.7879 444.5529 435.8904 442.2169 433.9647 439.3056 435.6004 439.0331 437.763 437.1355 439.4262 436.9848 440.8953 434.3776 441.9996 433.2499 443.5347 430.429 449.8846 429.2325 451.053 427.7686 449.6524 426.7317 446.3799 425.5466 445.4322 422.1579 447.4642 418.7949 448.7053 414.6823 452.361 411.6805 451.3739 407.9706 451.5888 404.6954 447.7385 403.703 445.4288 401.2008 443.1373 398.1616 443.6065 395.5054 441.4193 395.7764 440.2734 393.2118 435.4863 394.0272 434.7887 390.6521 427.1235 387.4376 423.5528 386.6802 419.7164 385.1578 415.8573 385.5236 414.009 382.4539 412.5678 378.3911 406.794 372.4583 401.8097 371.6674 398.8541 Z" id="fips-08027"/>
<path d="M 282.9851 293.5445 283.8653 289.7103 283.2848 286.8624 285.4427 285.0195 328.3332 285.6943 329.2575 288.2027 328.0622 291.1121 329.5648 292.1028 330.7571 294.9669 333.3291 294.0358 337.3643 295.5655 337.8595 297.4584 336.8009 300.1374 337.0931 302.3134 339.9434 302.4231 342.092 303.5164 342.9512 302.107 346.2956 301.9775 350.0149 305.9943 350.9447 305.5355 353.1941 307.2931 351.6695 308.9047 352.2297 310.6315 355.9057 310.2022 357.6877 312.1256 355.6679 314.953 355.8319 316.686 359.7073 321.4452 356.0988 327.7018 355.2405 334.3074 352.599 337.6027 355.32 338.0905 357.4412 339.5739 357.5136 341.5076 359.4627 343.7186 358.5851 346.6971 361.7601 347.9556 362.756 350.702 361.1357 354.8113 361.9168 356.5244 359.8623 358.4187 359.2826 364.4622 356.0052 364.7558 347.8377 372.8376 346.9168 371.7108 344.2673 371.1468 342.4999 371.325 342.5554 373.0748 340.4625 376.0654 334.9767 376.2524 321.4034 376.0549 321.2306 375.1562 321.2002 374.3553 320.737 373.4462 319.5776 373.2877 318.2196 371.4631 317.2994 371.1066 316.7344 370.0827 316.576 368.884 315.4171 368.3923 314.7352 367.1408 314.3294 365.977 313.6258 365.7061 313.1617 365.3344 312.3773 365.4628 311.9302 365.7286 311.5886 365.4609 311.2439 365.0979 310.2982 363.2932 309.5422 359.5601 310.3425 356.2186 309.7392 352.7668 309.0139 350.5579 307.7829 347.846 306.2816 347.1685 305.9271 344.9019 303.7114 343.7862 301.3399 342.2022 300.0589 338.1161 298.9736 336.8507 299.7164 335.2873 300.8537 334.9764 302.5664 332.8801 302.706 329.8634 302.7431 328.5702 303.0412 328.0928 302.8528 327.2317 302.7547 326.56 302.9946 326.0661 303.1254 325.4198 303.121 324.7887 303.0255 323.699 303.3262 323.1561 303.1601 322.3954 302.9017 321.9646 302.7036 321.5871 302.3335 321.0647 302.5745 320.3521 303.1139 319.9106 303.0973 319.0506 303.3926 318.4489 303.724 318.15 304.1796 317.9371 304.3605 318.1395 305.1522 318.7863 305.9227 318.7605 306.3561 318.6188 306.6701 318.1645 306.7265 317.7055 307.1316 317.132 307.5591 316.8441 308.1096 316.6105 308.4434 315.9258 308.7325 315.3257 308.7356 314.8709 309.066 314.4705 309.4794 314.3118 310.319 314.1785 310.5471 313.7943 310.5507 313.0011 310.9521 312.4046 311.7862 311.8719 311.9611 311.3048 313.1504 309.4324 313.3149 307.4348 311.1738 306.7477 309.2803 306.0621 307.5821 305.4054 305.7512 305.2527 304.1243 305.6588 303.2004 304.9851 302.9964 304.4102 301.2323 304.8118 299.9973 305.6435 297.1865 305.8319 294.9972 303.915 293.2483 301.8096 291.555 299.9693 291.4771 297.9293 289.2996 295.0056 287.2882 293.5612 285.0743 294.4377 284.0772 294.4306 283.1877 294.023 282.9851 293.5445 Z" id="fips-08015"/>
<path d="M 236.4312 414.3726 237.131 374.6153 263.9611 375.0993 321.4034 376.0549 334.9767 376.2524 340.4625 376.0654 342.5554 373.0748 342.4999 371.325 344.2673 371.1468 346.9168 371.7108 347.8377 372.8376 347.609 373.7561 349.3812 376.5953 350.8147 376.6476 354.8597 380.8741 355.1839 382.5728 357.9504 384.2248 361.4143 388.0008 362.7875 391.5553 364.801 394.0746 366.5389 394.8139 369.197 397.6255 371.6674 398.8541 372.4583 401.8097 378.3911 406.794 382.4539 412.5678 385.5236 414.009 385.1578 415.8573 386.6802 419.7164 387.4376 423.5528 390.6521 427.1235 394.0272 434.7887 393.2118 435.4863 395.7764 440.2734 395.5054 441.4193 398.1616 443.6065 401.2008 443.1373 403.703 445.4288 404.6954 447.7385 407.9706 451.5888 407.3752 453.89 410.5258 454.1365 412.968 457.9 412.2646 464.6042 410.0395 465.9005 410.6568 468.4078 409.7786 472.214 344.1759 472.4854 282.3249 472.0169 282.3812 459.6536 270.3536 459.3873 270.4593 453.925 268.0728 454.1246 265.6254 451.8107 263.4536 452.8171 261.5207 452.0837 258.4267 448.0255 253.2307 447.1694 249.6236 442.7344 249.7274 441.1301 248.0081 440.2484 245.1112 440.1572 242.1557 442.0276 239.7296 439.0236 237.5705 439.7879 236.0515 441.6387 236.4312 414.3726 Z" id="fips-08109"/>
<path d="M 347.8377 372.8376 356.0052 364.7558 359.2826 364.4622 359.8623 358.4187 361.9168 356.5244 361.1357 354.8113 362.756 350.702 361.7601 347.9556 358.5851 346.6971 359.4627 343.7186 357.5136 341.5076 357.4412 339.5739 355.32 338.0905 352.599 337.6027 361.6072 337.4156 362.4243 337.5668 423.9796 337.1917 434.1572 337.2099 433.8914 344.2498 436.1577 344.2347 452.7151 344.0406 454.6746 343.382 467.1081 343.7712 467.3224 362.3737 467.5241 383.4358 467.6824 399.6735 455.4809 399.7855 452.6509 399.7869 371.6674 398.8541 369.197 397.6255 366.5389 394.8139 364.801 394.0746 362.7875 391.5553 361.4143 388.0008 357.9504 384.2248 355.1839 382.5728 354.8597 380.8741 350.8147 376.6476 349.3812 376.5953 347.609 373.7561 347.8377 372.8376 Z" id="fips-08043"/>
<path d="M 385.6803 160.8525 409.5796 160.9046 411.6677 160.1688 412.6623 161.0421 413.4573 160.9818 413.7809 161.3822 414.3427 160.5837 415.1623 160.9695 415.7968 160.4874 416.0962 160.785 416.1114 163.654 416.1296 187.3216 413.5261 187.4952 413.4892 186.1923 405.2635 185.7896 399.9814 183.5384 399.883 181.6329 396.3668 178.9787 396.3701 176.5939 393.7451 177.2124 390.9409 175.1866 390.3406 173.579 387.3383 172.5431 384.0641 172.3333 383.0491 166.6922 385.6803 160.8525 Z" id="fips-08047"/>
<path d="M 454.5932 213.0398 462.9488 212.997 469.4402 212.9623 470.4764 212.9622 480.2409 212.8918 483.6216 212.8512 495.249 212.7659 497.3047 212.7587 497.6377 275.0567 471.9318 275.2155 456.5928 275.3126 423.8488 275.4487 425.5744 271.2434 428.4654 268.3357 428.9504 265.4062 431.477 263.9018 431.0874 261.2166 432.3072 259.1526 434.3501 258.6937 434.2962 257.4891 436.1703 256.7569 435.7957 255.6633 437.5265 251.1271 440.016 246.8358 439.4029 246.2114 441.7359 242.2672 441.0184 239.9903 441.9668 238.0717 441.3764 235.548 444.8312 233.5015 446.4435 231.8544 445.1573 226.6884 450.5283 223.219 451.9328 216.0255 453.2798 213.9239 454.12 213.4674 454.5932 213.0398 Z" id="fips-08035"/>
<path d="M 271.3296 521.0109 292.9162 521.5528 292.9131 521.8717 343.7919 522.0794 343.8042 528.3443 377.3447 528.5075 376.2218 530.3798 379.9623 538.0184 379.5223 540.2412 377.8297 541.8136 376.9924 544.0645 377.5833 545.0434 377.0197 548.2946 378.8273 553.668 377.8803 555.8092 378.6316 557.1288 376.6407 560.1557 376.5951 563.413 377.5398 564.6818 374.1832 570.6841 374.8706 571.3948 374.1184 573.4504 376.2469 575.4302 376.8614 577.3116 378.9186 577.2863 380.0526 580.0193 348.39 579.959 348.2403 579.9583 347.2318 579.963 347.1956 579.9632 324.9798 579.9921 319.7082 579.93 319.5977 579.926 314.5117 579.9402 308.8273 579.8411 293.6478 579.7466 292.2212 576.7006 281.0136 558.7216 280.1696 550.8935 271.0225 545.9863 271.3296 521.0109 Z" id="fips-08021"/>
<path d="M 3.7882 502.5002 18.84 482.0685 104.1565 484.4323 110.2175 484.1078 125.7964 484.422 125.4215 485.8158 123.5699 486.8381 122.2607 488.0423 121.7949 488.8704 121.0253 489.1975 120.5324 489.7546 120.652 490.4894 120.3498 490.8689 119.9376 491.1232 119.8772 491.7453 119.9273 492.5064 119.8237 493.9229 119.9748 494.744 119.8256 495.7921 119.6196 496.9511 119.2896 498.0949 118.3008 499.3442 118.0591 500.8231 118.0424 502.1517 117.9776 503.016 117.739 504.1308 117.8422 505.0818 118.0145 506.419 118.0406 507.2509 117.6978 508.0852 117.9554 509.276 117.4014 510.1723 117.2288 511.14 116.7221 512.1369 116.0167 512.5399 115.2928 512.9394 114.2917 512.8457 113.3895 512.736 112.6362 513.223 112.4234 514.1451 111.7252 514.4292 111.0661 515.3727 110.4083 515.8437 109.8294 516.9192 109.5443 517.9102 109.317 519.2154 109.4368 520.2893 108.6394 520.9269 107.7615 521.7349 105.563 521.911 104.4542 523.165 103.1732 523.3183 101.6547 522.7947 100.067 523.5348 98.9457 524.2703 98.0729 525.9775 97.6932 527.332 98.0203 527.8992 97.9538 528.6238 97.0752 529.7415 96.6084 530.9165 96.9054 532.3147 96.2502 533.0932 95.9131 533.8585 95.317 534.8205 94.39 535.6113 94.0276 536.8499 93.4098 537.6629 92.8928 539.0296 92.5062 539.4248 91.6564 540.4423 90.8272 541.3418 89.4233 542.0375 88.4607 542.4447 87.4589 543.5956 87.1906 545.1574 87.5114 546.3169 87.0989 547.8205 86.9544 550.6087 87.1367 552.1794 87.302 553.8741 85.3614 555.9359 85.1538 557.1152 85.0132 558.1547 85.0905 559.1383 84.5121 559.7977 84.116 560.6514 83.6459 561.441 83.5587 562.1578 83.3885 563.0123 82.9675 563.6892 82.916 564.6189 82.2934 565.6952 82.1626 566.6297 80.9381 567.4866 80.0367 568.7672 79.8467 569.5275 79.5366 570.322 79.2319 570.6684 78.7982 570.4772 78.2506 570.2765 77.6731 571.0722 77.359 572.1663 77.0878 573.1655 76.7945 573.698 76.7012 574.2181 76.8094 574.372 58.9193 573.8115 49.4375 573.502 49.3671 573.4941 11.3349 572.1774 10.8268 572.1572 1 571.7552 1.3972 561.2535 1.4197 560.9804 1.4893 559.3027 1.5196 557.8986 1.5915 556.0176 1.6013 555.6618 1.6072 555.6469 1.8588 546.3444 1.9914 542.8436 2.0952 541.5606 2.2894 536.0694 2.2412 535.9758 2.9346 518.1519 3.7882 502.5002 Z" id="fips-08083"/>
<path d="M 454.0319 203.6922 454.0283 203.9863 453.6362 203.6809 453.3649 203.2564 453.4073 202.6712 454.0343 202.6666 454.0319 203.6922 Z M 416.0513 213.1648 416.1296 187.3216 416.1114 163.654 422.4953 163.5157 441.4823 163.4252 441.09 164.0586 441.5575 166.5014 445.576 166.7912 443.5664 163.4236 447.7829 163.3867 449.0972 165.4291 451.8357 165.4101 453.8837 163.3456 453.8826 171.0935 453.9331 172.0523 453.9108 176.7919 453.9345 180.9266 452.6371 181.3189 453.9467 181.9638 453.9611 185.9755 453.9731 187.7486 453.7194 189.2014 453.981 190.2389 453.9975 193.357 454.0051 194.3871 452.9856 196.8888 454.0227 198.5246 453.2695 198.5291 450.9608 198.216 452.4884 200.0891 449.8918 202.6939 449.891 203.1984 449.8326 203.1995 447.8216 203.2074 448.0892 204.772 450.9211 204.3173 452.7513 205.555 449.669 205.6063 449.2532 205.6589 449.8658 206.1577 453.5258 206.1439 454.0367 205.2057 454.0166 205.9316 453.999 213.0428 454.5932 213.0398 454.12 213.4674 453.2798 213.9239 451.9328 216.0255 450.5283 223.219 445.1573 226.6884 446.4435 231.8544 444.8312 233.5015 441.3764 235.548 441.9668 238.0717 441.0184 239.9903 441.7359 242.2672 439.4029 246.2114 440.016 246.8358 437.5265 251.1271 435.7957 255.6633 436.1703 256.7569 434.2962 257.4891 434.3501 258.6937 432.3072 259.1526 431.0874 261.2166 431.477 263.9018 428.9504 265.4062 428.4654 268.3357 425.5744 271.2434 423.8488 275.4487 423.7133 275.4496 416.2457 275.4787 416.1676 236.6893 416.0513 213.1648 Z" id="fips-08059"/>
<path d="M 358.2868 194.093 360.0988 190.2076 362.8025 188.6822 363.1707 185.5016 361.8837 181.9553 362.4347 180.1179 365.9939 180.2522 366.4107 181.4521 369.4973 181.7708 372.132 179.2351 375.7538 180.4701 378.9968 179.0589 381.5365 174.2955 383.4029 174.1986 384.0641 172.3333 387.3383 172.5431 390.3406 173.579 390.9409 175.1866 393.7451 177.2124 396.3701 176.5939 396.3668 178.9787 399.883 181.6329 399.9814 183.5384 405.2635 185.7896 413.4892 186.1923 413.5261 187.4952 416.1296 187.3216 416.0513 213.1648 395.247 212.8625 374.4837 213.2906 368.6485 213.2796 367.6945 212.1217 371.0322 210.6424 374.5721 206.9601 373.8478 204.1375 372.7093 203.0913 370.1146 203.48 369.6205 202.1726 366.6 201.9528 364.843 198.6539 362.6287 200.0916 359.7863 199.3357 358.0859 197.8018 358.2868 194.093 Z" id="fips-08019"/>
<path d="M 447.6936 157.3807 447.8901 157.1371 447.9573 157.1019 448.3546 157.0181 448.6554 156.9932 448.7007 156.9816 448.7011 157.1023 449.6656 157.1398 448.2861 157.1891 447.6936 157.3807 Z M 441.4823 163.4252 443.5636 163.4397 443.5661 161.2915 444.5992 161.2884 444.5956 159.7529 445.635 157.6809 447.6553 157.3462 446.6709 160.7039 447.6875 161.7686 447.7002 160.2469 451.2636 159.2037 451.7609 157.1542 449.943 157.1114 453.8479 154.2885 453.8441 153.0433 453.8286 151.0646 458.7405 151.007 460.7313 149.9687 459.6931 147.3913 463.824 144.7454 463.8224 148.9081 463.8113 150.9891 463.8258 150.9869 463.8259 150.9986 461.6876 151.0252 460.9267 155.565 457.8875 153.7652 457.9758 162.2997 453.8837 163.3456 451.8357 165.4101 449.0972 165.4291 447.7829 163.3867 443.5664 163.4236 445.576 166.7912 441.5575 166.5014 441.09 164.0586 441.4823 163.4252 Z M 453.3127 154.7202 450.6038 156.9303 453.5967 157.1189 453.8523 157.1217 453.8531 155.9703 453.3127 154.7202 Z M 461.7768 146.8498 462.5248 146.8418 462.5244 146.3386 461.9797 146.2827 461.7772 146.341 461.7768 146.8498 Z" id="fips-08014"/>
<path d="M 627.783 360.5597 627.7595 359.5242 664.7858 358.4058 664.4625 345.9707 676.7927 345.2797 787.4573 341.6778 788.4769 341.646 790.0791 341.5794 790.2682 346.3666 790.3937 349.6301 790.4702 351.7608 790.59 354.6153 790.6713 357.2198 790.672 357.2393 790.9428 364.6218 791.1682 369.4657 791.2442 370.0168 791.3563 374.4959 791.779 384.7791 792.0166 390.9849 792.017 390.9949 716.191 393.8352 716.0017 393.8197 713.9311 393.9227 705.0475 394.199 704.9116 394.2619 640.2925 396.1142 628.8874 396.4319 628.0638 385.4211 627.783 360.5597 Z" id="fips-08061"/>
<path d="M 461.7768 146.8498 461.7772 146.341 461.9797 146.2827 462.5244 146.3386 462.5248 146.8418 461.7768 146.8498 Z M 464.886 8.5978 474.3779 8.5394 477.1529 8.3447 483.2369 8.2089 493.6889 7.9668 501.927 7.8349 512.9549 7.6475 512.9648 7.6507 516.131 7.6624 543.3818 7.2868 543.4359 7.2987 543.7286 7.2913 553.1952 7.1468 555.2414 7.1273 557.2364 7.0935 559.2945 7.0696 560.7717 7.0601 562.2805 7.0221 563.9873 6.9395 564.5437 6.9689 569.453 6.8876 569.5899 6.8983 571.5121 6.8554 576.5963 6.7971 577.6849 6.726 579.6496 6.702 581.7516 6.663 593.3763 6.3922 612.3276 6.0554 612.4081 6.0538 613.2959 48.8092 612.6393 48.8224 613.038 74.3131 551.6526 75.2778 551.7331 100.1331 552.5133 149.9967 515.4015 150.5158 486.5365 150.8172 472.0756 150.9429 468.1184 150.9729 463.8259 150.9986 463.8258 150.9869 463.8113 150.9891 463.8224 148.9081 463.824 144.7454 459.6931 147.3913 460.7313 149.9687 458.7405 151.007 453.8286 151.0646 453.5319 150.6556 453.4801 138.6118 453.4473 131.3678 453.4224 122.0306 453.3934 114.5459 453.3904 113.7362 453.1491 101.2503 459.0559 101.2284 461.1197 101.2214 461.3557 101.2229 465.2442 101.2089 465.1783 66.0637 465.1904 53.6625 464.886 8.5978 Z" id="fips-08123"/>
<path d="M 13.9472 215.3386 14.8976 192.1216 31.9388 192.7686 31.8815 194.2164 69.3159 195.565 69.5161 189.3618 137.1304 191.279 137.6406 172.6523 154.2154 173.0738 164.4196 172.6016 193.1706 173.4976 193.4565 160.7466 205.8055 161.3935 206.2438 148.7249 206.5072 136.3088 237.0368 136.7581 237.4004 149.4127 236.9856 161.4016 228.2623 161.2232 226.876 240.161 191.8495 239.4663 117.3992 237.6212 13.2788 234.0322 13.947 215.3427 13.9472 215.3386 Z" id="fips-08045"/>
<path d="M 172.7472 413.1019 236.4312 414.3726 236.0515 441.6387 235.0876 442.9818 233.5351 441.9182 231.4474 442.6129 228.5047 440.7615 225.4572 442.4209 224.5027 441.5839 223.6349 443.2403 220.5263 443.8269 220.346 459.5358 219.0861 481.396 221.4874 481.5057 220.3237 517.4681 192.3422 516.8348 180.2686 516.7157 180.9127 485.7774 181.2928 467.3907 182.769 467.8324 184.0554 465.4882 182.9282 461.5194 180.5524 459.3908 177.6021 459.0155 177.548 454.656 175.5546 452.1938 175.8887 450.1792 177.4245 448.3236 175.7114 445.5999 176.1575 442.2144 172.7327 440.4198 172.1419 439.1103 169.9828 438.3049 169.699 435.1658 171.7091 433.1946 174.4536 434.3843 175.7542 432.9229 175.5995 430.3223 178.9599 425.5755 176.5052 422.7823 174.2201 422.8539 172.9561 420.0172 173.1221 415.8748 172.0803 414.6942 172.7472 413.1019 Z" id="fips-08053"/>
<path d="M 334.8026 239.5596 339.0756 239.8237 343.5494 242.6305 347.3193 242.184 347.7307 239.3753 350.5631 236.4704 355.1123 234.6719 353.4652 231.3208 355.9624 230.9226 356.5798 228.4147 359.5576 228.6799 361.7417 224.7724 363.1613 224.8362 364.88 222.1966 365.924 221.8844 364.5241 220.1399 365.2348 218.1747 366.897 219.1428 369.2621 218.1791 370.1347 215.5624 368.6485 213.2796 374.4837 213.2906 395.247 212.8625 416.0513 213.1648 416.1676 236.6893 416.2457 275.4787 423.7133 275.4496 423.9796 337.1917 362.4243 337.5668 361.6072 337.4156 352.599 337.6027 355.2405 334.3074 356.0988 327.7018 359.7073 321.4452 355.8319 316.686 355.6679 314.953 357.6877 312.1256 355.9057 310.2022 352.2297 310.6315 351.6695 308.9047 353.1941 307.2931 350.9447 305.5355 350.0149 305.9943 346.2956 301.9775 342.9512 302.107 342.092 303.5164 339.9434 302.4231 337.0931 302.3134 336.8009 300.1374 337.8595 297.4584 337.3643 295.5655 333.3291 294.0358 330.7571 294.9669 329.5648 292.1028 328.0622 291.1121 329.2575 288.2027 328.3332 285.6943 328.3199 283.9274 330.7306 281.3798 329.6899 278.9386 326.2612 278.8478 330.32 274.1443 329.1904 263.8236 331.0311 260.7802 329.1844 259.0572 329.7166 256.4338 329.0429 253.7513 329.3823 249.5418 330.9971 247.7151 332.7513 247.9867 334.2775 245.2656 332.864 241.9424 334.8026 239.5596 Z" id="fips-08093"/>
<path d="M 191.8495 239.4663 226.876 240.161 293.543 241.6532 295.7332 241.746 302.6724 241.8103 301.7101 244.7662 301.9887 248.2527 297.4711 249.3873 296.1253 248.7815 294.1972 250.7592 293.9932 252.7281 296.2659 254.4791 296.2571 256.9869 294.6316 258.837 295.4828 260.8884 295.006 265.0796 293.3007 269.579 291.9215 270.8955 290.3596 270.051 287.4556 271.0842 287.0507 274.3997 287.7396 276.1493 287.0717 278.1664 285.2573 278.6987 284.5653 280.7495 285.4427 285.0195 283.2848 286.8624 283.8653 289.7103 282.9851 293.5445 281.6067 293.8934 278.6831 290.4611 276.8257 286.8404 273.5215 286.6607 272.4704 285.1787 270.7542 286.3119 266.4166 286.974 266.1638 289.3598 260.4646 296.061 257.648 296.1039 255.4872 294.7463 253.8942 291.52 252.2471 291.8521 252.0479 293.6575 248.895 293.9214 244.7061 290.667 242.4891 290.1866 242.5975 288.6223 239.9345 288.2532 238.4524 286.5904 239.7902 285.2263 239.0326 282.7341 236.5752 279.8348 234.7315 279.0104 231.4683 275.5458 207.5348 275.1202 206.1719 270.1056 203.6541 268.3904 199.8392 267.2102 197.4587 263.6077 197.1465 258.8662 198.046 257.7662 195.5446 255.2336 197.2741 253.4413 195.2154 249.6848 193.6495 250.1138 187.9131 246.7596 191.8429 242.0302 191.8495 239.4663 Z" id="fips-08097"/>
<path d="M 138.6224 465.3536 140.8717 465.6083 143.0502 462.6075 142.3956 460.2618 146.0483 458.8027 148.0969 454.9918 147.781 452.4143 150.8085 450.2839 152.8844 447.1635 157.6379 449.1382 161.267 447.6389 164.2312 445.2326 163.9633 438.9227 172.1419 439.1103 172.7327 440.4198 176.1575 442.2144 175.7114 445.5999 177.4245 448.3236 175.8887 450.1792 175.5546 452.1938 177.548 454.656 177.6021 459.0155 180.5524 459.3908 182.9282 461.5194 184.0554 465.4882 182.769 467.8324 181.2928 467.3907 180.9127 485.7774 151.4257 485.0891 150.5898 484.9589 125.7964 484.422 127.3002 483.1338 126.0201 478.7677 126.1462 476.3078 128.0183 474.8872 129.7429 475.5367 133.8495 473.2983 137.0643 472.8949 136.8239 470.5421 138.4321 468.1319 137.49 467.1454 138.6224 465.3536 Z" id="fips-08111"/>
<path d="M 566.4442 360.8704 615.6718 359.9425 627.783 360.5597 628.0638 385.4211 628.8874 396.4319 627.9811 396.5839 628.321 409.6522 615.9944 410.0667 616.1758 418.3584 595.5358 418.8833 594.5252 418.1437 591.8753 418.836 590.66 417.4212 588.1248 416.6957 587.088 417.3082 581.9774 416.574 580.8031 417.452 576.2506 416.4301 576.2633 415.5007 573.9359 414.3937 570.8666 415.2585 568.0723 415.2412 566.8041 414.5329 566.9404 398.0557 566.4442 360.8704 Z" id="fips-08025"/>
<path d="M 165.8019 390.8629 180.9192 391.2006 181.9805 338.8724 182.0455 336.0392 183.6998 260.4622 185.5458 258.0319 189.214 258.7597 191.5443 257.4001 191.8377 254.9709 195.5446 255.2336 198.046 257.7662 197.1465 258.8662 197.4587 263.6077 199.8392 267.2102 203.6541 268.3904 206.1719 270.1056 207.5348 275.1202 231.4683 275.5458 234.7315 279.0104 236.5752 279.8348 239.0326 282.7341 239.7902 285.2263 238.4524 286.5904 239.9345 288.2532 242.5975 288.6223 242.4891 290.1866 244.7061 290.667 248.895 293.9214 252.0479 293.6575 252.2471 291.8521 253.8942 291.52 255.4872 294.7463 257.648 296.1039 260.4646 296.061 266.1638 289.3598 266.4166 286.974 270.7542 286.3119 272.4704 285.1787 273.5215 286.6607 276.8257 286.8404 278.6831 290.4611 281.6067 293.8934 282.9851 293.5445 283.1877 294.023 284.0772 294.4306 285.0743 294.4377 287.2882 293.5612 289.2996 295.0056 291.4771 297.9293 291.555 299.9693 293.2483 301.8096 294.9972 303.915 297.1865 305.8319 299.9973 305.6435 301.2323 304.8118 302.9964 304.4102 303.2004 304.9851 304.1243 305.6588 305.7512 305.2527 307.5821 305.4054 309.2803 306.0621 311.1738 306.7477 313.3149 307.4348 313.1504 309.4324 311.9611 311.3048 311.7862 311.8719 310.9521 312.4046 310.5507 313.0011 310.5471 313.7943 310.319 314.1785 309.4794 314.3118 309.066 314.4705 308.7356 314.8709 308.7325 315.3257 308.4434 315.9258 308.1096 316.6105 307.5591 316.8441 307.1316 317.132 306.7265 317.7055 306.6701 318.1645 306.3561 318.6188 305.9227 318.7605 305.1522 318.7863 304.3605 318.1395 304.1796 317.9371 303.724 318.15 303.3926 318.4489 303.0973 319.0506 303.1139 319.9106 302.5745 320.3521 302.3335 321.0647 302.7036 321.5871 302.9017 321.9646 303.1601 322.3954 303.3262 323.1561 303.0255 323.699 303.121 324.7887 303.1254 325.4198 302.9946 326.0661 302.7547 326.56 302.8528 327.2317 303.0412 328.0928 302.7431 328.5702 302.706 329.8634 302.5664 332.8801 300.8537 334.9764 299.7164 335.2873 298.9736 336.8507 300.0589 338.1161 301.3399 342.2022 303.7114 343.7862 305.9271 344.9019 306.2816 347.1685 307.7829 347.846 309.0139 350.5579 309.7392 352.7668 310.3425 356.2186 309.5422 359.5601 310.2982 363.2932 311.2439 365.0979 311.5886 365.4609 311.9302 365.7286 312.3773 365.4628 313.1617 365.3344 313.6258 365.7061 314.3294 365.977 314.7352 367.1408 315.4171 368.3923 316.576 368.884 316.7344 370.0827 317.2994 371.1066 318.2196 371.4631 319.5776 373.2877 320.737 373.4462 321.2002 374.3553 321.2306 375.1562 321.4034 376.0549 263.9611 375.0993 237.131 374.6153 236.4312 414.3726 172.7472 413.1019 173.5033 411.5573 171.5695 403.7344 170.8086 398.4477 168.2963 396.7851 165.8019 390.8629 Z" id="fips-08051"/>
<path d="M 444.2363 537.5495 444.5362 537.5179 445.7759 537.0229 446.9575 536.8583 448.5437 537.0883 450.0582 536.2797 450.9181 535.0493 451.874 534.3702 453.154 534.1544 453.7058 533.2564 454.7252 532.5128 455.1852 532.3495 456.1651 531.9129 457.1481 530.9821 458.2763 530.8717 458.8325 530.7837 458.9853 530.0305 458.9016 529.4324 459.1697 528.4465 460.5817 527.8753 461.3633 527.0174 462.8284 525.6388 464.5394 525.5253 466.1863 524.4975 467.5796 523.4473 468.9751 523.3174 470.1141 522.6233 471.0687 523.0315 472.2237 523.4348 473.6316 523.6402 474.7096 524.0166 475.6701 523.859 476.5532 523.3144 478.1316 522.924 479.8208 522.3724 481.1594 522.7228 482.6445 522.0556 483.4598 521.953 484.5738 521.9293 485.8526 522.0021 487.1166 521.471 488.0809 521.2524 489.6 521.1195 490.4147 519.6841 491.2102 518.8865 491.4414 518.6119 492.0022 518.1977 492.5283 518.2143 493.0411 517.7939 493.9028 517.0088 494.2032 516.7634 494.7612 516.7243 495.8298 516.2765 495.9413 515.5719 495.6387 514.8655 495.6733 514.1735 495.6954 512.6628 496.0249 511.4192 496.403 510.913 496.2087 510.2531 496.1962 509.6972 496.5672 508.8564 497.3799 508.2471 498.9192 508.3802 503.975 505.3204 508.4196 500.2224 512.5768 493.1338 515.3119 486.8924 518.1251 481.8075 521.3174 475.9895 524.58 470.5506 530.7329 465.5571 534.5149 461.9625 567.3926 473.3094 567.6308 474.5191 567.9242 486.2414 641.8041 484.8667 678.8995 483.9644 680.0094 521.2917 679.1175 521.3356 680.1046 575.7567 672.1507 575.957 606.3751 577.7647 606.2477 577.7636 575.0812 578.5813 547.4213 579.2279 537.3574 579.5203 516.7877 579.7312 504.7816 579.7675 504.6699 579.8796 502.4488 579.9324 492.5292 580.0119 492.519 580.0067 461.9125 580.2539 458.6435 580.3479 448.2005 580.0125 446.4163 580.0258 444.2962 580.0411 444.2363 537.5495 Z" id="fips-08071"/>
<path d="M 330.5059 8.5792 344.4443 8.7605 380.083 8.9283 380.6882 8.9264 428.9239 8.7423 428.9539 8.7422 431.1447 8.7338 431.333 8.7306 464.886 8.5978 465.1904 53.6625 465.1783 66.0637 465.2442 101.2089 461.3557 101.2229 461.1197 101.2214 459.0559 101.2284 453.1491 101.2503 453.3904 113.7362 442.0641 113.868 427.859 113.6888 418.5142 113.9201 415.3692 114.4247 400.3449 113.9249 388.2173 114.0371 385.0497 112.2699 384.6939 108.0225 382.9046 106.5836 382.9687 104.9139 379.9894 103.3416 379.2039 101.7216 375.7979 99.8358 373.3047 96.0463 373.2862 94.2798 370.6459 91.0106 370.5414 89.0075 371.7074 87.2469 371.5409 83.4437 366.3798 81.752 366.6759 78.8558 364.862 76.8244 360.6516 77.5554 360.9646 74.7321 360.3554 70.2861 359.2364 69.405 358.2879 64.6011 357.0048 64.1831 356.3496 59.518 353.8289 53.7814 353.8037 51.9325 352.0247 49.8122 351.2283 46.4515 349.6738 45.3135 347.6952 40.6797 345.9681 38.041 345.6983 36.2149 343.8918 33.7891 341.4093 32.0847 339.2439 29.3839 339.2253 27.8104 337.2355 26.8984 336.2184 22.2822 332.8322 19.8983 330.7578 17.1225 331.1408 14.6337 329.9781 9.6695 330.5059 8.5792 Z" id="fips-08069"/>
<path d="M 612.4081 6.0538 620.6272 5.8879 621.7838 5.8224 628.7523 5.6519 628.7578 5.6572 631.4404 5.5113 633.0026 5.5214 634.8535 5.5331 635.1049 5.5275 665.8041 4.6909 665.9407 4.6937 667.77 4.6282 667.9358 4.6238 669.5025 4.5849 670.0131 4.5843 673.9602 4.4428 674.1676 4.4494 676.0428 4.4322 676.1729 4.435 678.09 4.371 678.214 4.3838 678.4095 4.3802 678.5258 4.3718 680.1173 4.2974 680.3036 4.3282 682.1906 4.2421 682.3568 4.2571 684.2379 4.1843 684.4266 4.1888 686.2983 4.1392 686.4773 4.1408 688.4062 4.0775 688.6264 4.099 690.4032 4.0025 690.7056 4.0001 692.4435 3.9356 692.7698 3.9557 698.5515 3.7449 699.2864 3.7426 700.5888 3.691 702.2029 3.6607 711.4744 3.3596 712.8839 39.4237 713.135 45.7067 711.6431 45.775 712.8592 83.8192 700.3615 84.2057 634.4641 86.3911 632.2908 86.3099 625.9571 86.4561 625.4723 74.0607 613.038 74.3131 612.6393 48.8224 613.2959 48.8092 612.4081 6.0538 Z" id="fips-08075"/>
<path d="M 678.8995 483.9644 684.7571 483.6715 715.9755 482.8747 795.6664 480.0556 795.8546 485.2492 796.0861 492.3659 796.1739 494.7606 796.1918 495.6061 796.3713 499.7688 796.5618 504.9855 796.7488 509.9244 796.7591 509.9404 796.8887 513.4832 797.0075 516.4359 797.0887 518.4567 797.141 521.6249 797.1551 521.6537 797.3987 527.8026 797.4779 529.4903 797.6505 535.1224 798.2536 551.7234 798.3257 554.1085 798.3305 554.1084 798.4307 555.9676 798.4391 556.7415 798.8182 566.9315 798.8412 567.0285 798.8332 567.3457 798.837 567.5416 798.8683 568.406 799 572.9212 797.6041 572.9706 782.8305 573.452 780.0927 573.5321 774.1159 573.6533 763.3569 574.015 763.3476 574.0055 724.3133 575.2028 719.301 574.9939 717.2679 574.9356 715.1367 574.898 712.7175 574.935 710.7415 574.9538 707.9123 575.0614 692.2409 575.6585 691.5353 575.6749 691.4023 575.6853 689.6623 575.5079 680.1046 575.7567 679.1175 521.3356 680.0094 521.2917 678.8995 483.9644 Z" id="fips-08009"/>
</g>
</svg>