<?xml version="1.0"?>
<svg xmlns="http://www.w3.org/2000/svg" version="1.2" baseProfile="tiny" width="800" height="585" viewBox="0 0 800 585" stroke-linecap="round" stroke-linejoin="round">
<g id="cb_2018_us_county_5m">
<path d="M 502.7581 10.9469 524.1359 11.0008 548.2514 11.3983 560.6424 11.5961 580.9311 11.9105 599.8543 11.9171 608.4559 11.9167 626.5461 12.1034 654.7817 12.376 654.793 12.3761 668.4408 13.0142 669.9271 51.3349 648.5644 51.2946 621.9502 52.0932 622.0645 119.4812 643.7934 119.4898 647.4381 164.0831 634.8997 163.1057 630.4376 178.0675 622.9474 178.1916 612.4131 178.1933 608.1431 178.1879 610.6329 181.0784 613.539 185.8344 611.6687 185.7412 609.2958 193.8256 599.3907 197.7423 602.7789 206.1264 587.496 218.9712 575.0019 224.7234 579.0476 238.4187 577.6138 245.6037 558.222 247.9649 554.6851 254.9239 543.9105 247.3347 544.3214 231.8976 535.9795 214.6405 528.306 209.4078 526.5961 200.1523 523.2932 179.0663 521.7185 169.0583 518.2123 144.1981 517.7146 140.1972 516.643 132.1273 512.8154 132.5578 503.7821 133.973 504.6239 128.1622 508.0798 106.0592 499.3026 108.1203 499.6917 100.9968 501.2114 59.6188 509.6044 58.4466 502.7581 10.9469 Z" id="fips-09013"/>
<path d="M 520.8488 257.6544 533.9004 286.1205 579.7313 284.6212 579.9645 293.4596 584.3382 315.1971 587.3321 338.2679 537.5786 345.5539 534.7 345.2308 539.7643 363.5518 554.8716 366.4162 558.5223 371.2969 557.1887 385.8289 561.4227 389.8706 569.7062 399.6121 569.6012 415.06 572.9722 423.9172 570.0211 425.3907 570.2774 429.6352 554.4137 434.0339 553.4418 432.2953 549.4106 425.0819 546.4278 424.9699 527.4859 424.7728 519.0122 429.613 513.5933 429.2035 513.3736 429.3102 507.9007 431.9683 504.985 435.1367 500.0296 434.5177 498.931 432.1386 495.5947 432.7932 494.019 433.7457 492.5863 437.3017 492.1627 437.6099 488.7494 424.0894 472.383 407.9492 472.0857 400.0634 460.7337 397.242 461.3402 366.143 452.9708 351.7505 445.6339 348.1137 444.3119 337.7004 434.0162 340.0816 431.8471 340.2181 421.855 342.475 409.6664 345.0943 406.3255 345.8463 409.2097 337.6282 410.7358 318.301 411.356 311.8326 407.4793 313.0681 406.8995 305.0764 405.2026 279.5512 403.8492 260.5829 403.5382 253.1288 409.2198 251.8701 414.1513 247.7025 419.2742 246.6532 420.6086 239.3191 419.532 233.8332 454.773 226.9559 453.6774 230.7477 489.008 225.5239 504.8897 223.1251 520.8488 257.6544 Z" id="fips-09007"/>
<path d="M 104.7429 1.3367 126.9226 1 183.2186 3.3767 183.7568 3.4042 208.2213 4.6102 208.9956 4.6481 209.5073 4.6882 251.2185 6.493 281.3243 7.7647 281.3382 7.7653 299.4423 8.3733 290.8576 47.9389 348.9137 44.5113 341.1677 72.677 337.3078 86.3135 326.986 87.1691 321.6288 109.7938 328.6725 117.5293 323.4545 135.8017 295.701 140.2454 302.9138 186.1794 303.0744 187.221 309.2233 227.1859 293.5492 233.9859 294.6822 241.1171 287.5124 240.491 281.682 243.4569 278.5369 245.094 278.7484 254.6384 275.966 255.0847 268.2769 256.6311 263.7763 265.0631 242.7623 271.7531 234.7073 272.1172 238.267 295.0448 232.2525 296.491 218.3614 298.6449 198.6486 296.5584 170.4664 301.0504 167.8355 311.4928 174.6103 320.1477 165.9273 317.9451 148.0896 308.7971 143.3908 294.734 125.3469 303.8018 120.9258 307.4381 119.4467 297.4527 119.5785 290.286 98.5003 226.7767 103.9181 221.7352 100.3125 214.3435 94.9022 211.5892 90.2755 211.0374 90.9721 199.6196 93.2223 170.3985 93.6727 161.2296 93.7014 160.644 96.4489 125.0355 96.4775 124.7552 97.852 105.8988 99.5159 87.3962 100.3838 71.0343 102.0044 51.2419 103.571 28.4769 104.7429 1.3367 Z" id="fips-09005"/>
<path d="M 77.9131 375.5211 78.5005 369.9112 78.5053 369.8388 79.5756 353.8253 81.152 338.5447 81.2458 337.4578 81.4772 334.6081 81.8989 329.0021 81.9408 328.055 81.9931 326.863 82.007 326.604 82.0504 325.8098 82.2765 322.3392 82.7187 315.5491 82.7623 315.2755 82.7648 314.9922 82.8194 314.3631 82.8629 313.8659 82.9019 313.469 84.7395 287.4552 88.8969 236.7596 88.8983 236.7289 89.4216 225.024 90.2755 211.0374 94.9022 211.5892 100.3125 214.3435 103.9181 221.7352 98.5003 226.7767 119.5785 290.286 119.4467 297.4527 120.9258 307.4381 125.3469 303.8018 143.3908 294.734 148.0896 308.7971 165.9273 317.9451 174.6103 320.1477 179.7584 331.436 189.6532 329.6516 193.3658 338.7558 201.2952 336.1596 205.0925 343.7117 211.2879 341.87 216.672 346.8491 225.3214 353.4415 226.6261 362.7007 237.0005 367.5476 237.3633 370.9813 241.2467 375.9314 245.9357 384.9945 250.611 388.2483 251.3422 390.3886 254.2417 395.4425 264.4244 402.5754 268.0684 405.9652 273.8888 412.6179 274.9468 415.9644 273.4943 419.0825 268.2193 422.5365 265.2626 428.6403 266.0084 438.0136 264.1521 442.4914 256.3929 451.7833 256.1965 460.6059 256.6236 465.6473 251.3101 479.417 257.0651 485.0248 256.0688 489.9748 256.2277 491.4549 256.8803 493.2545 255.7596 494.8504 247.8275 497.0079 233.7807 490.4944 231.4328 489.4049 231.1859 486.9855 228.2729 486.011 225.4229 487.3024 217.9844 490.6713 210.6846 496.4658 207.3599 499.1038 204.6627 498.3493 204.5734 498.3243 204.4849 498.4825 199.1948 507.9377 193.2223 512.7794 183.1847 507.0192 179.2148 508.1996 178.3697 508.8712 172.9523 513.1748 172.7833 513.309 164.9993 516.7094 158.9968 517.8103 147.7864 519.8635 155.175 529.9885 142.8732 543.3416 141.4374 544.8992 126.9567 550.6438 122.9831 546.8533 121.6663 545.5969 116.8002 545.389 115.3461 545.3267 107.9346 548.4158 104.0936 556.7949 97.5532 550.0668 96.5646 550.5805 87.7654 555.151 87.7773 560.2149 86.9156 562.1429 85.2889 565.7819 82.7116 567.3478 81.7866 564.3135 82.2255 560.56 81.1663 558.9645 80.1128 558.8179 78.3818 559.8733 73.3968 562.9118 72.8228 563.4493 69.0286 567.002 66.6417 570.2124 65.6014 575.2986 59.8499 575.6269 59.4789 570.3408 55.0795 567.307 51.6625 567.7889 35.2491 574.6817 32.027 578.4521 29.4218 583.9363 29.3079 583.7552 28.4717 582.4259 28.8755 579.3681 28.6617 576.0779 30.2802 571.6016 30.6751 569.4138 30.3968 568.8182 30.392 568.8081 27.4178 564.5572 24.2491 559.2628 20.3907 552.8099 17.4679 547.9011 14.5855 543.1575 9.7631 534.946 5.4204 527.5476 3.1034 524.2335 1 520.319 14.2281 512.3905 37.6047 498.3589 40.7263 496.5136 48.0986 492.2079 68.6142 480.2127 68.6898 480.1673 72.8826 477.646 89.4814 467.6561 91.6079 466.3707 97.223 463.1072 101.7906 460.4514 102.7029 459.9208 94.6401 446.4522 88.2119 435.7053 74.9895 414.3758 75.8877 407.7117 75.6645 403.1432 75.9643 397.4655 77.677 378.1808 77.9131 375.5211 Z" id="fips-09001"/>
<path d="M 309.2233 227.1859 317.1372 226.2642 327.5547 224.6488 329.5002 244.6635 324.7446 271.0128 324.2296 272.5969 341.8174 269.9421 341.9228 269.921 351.7467 269.1675 356.4304 276.9403 362.6207 278.422 366.0758 279.2842 367.7455 265.9302 372.9121 264.8937 373.5207 273.1698 383.7362 263.752 403.8492 260.5829 405.2026 279.5512 406.8995 305.0764 407.4793 313.0681 411.356 311.8326 410.7358 318.301 409.2097 337.6282 406.3255 345.8463 409.6664 345.0943 421.855 342.475 431.8471 340.2181 434.0162 340.0816 444.3119 337.7004 445.6339 348.1137 452.9708 351.7505 461.3402 366.143 460.7337 397.242 472.0857 400.0634 472.383 407.9492 488.7494 424.0894 492.1627 437.6099 488.2726 440.4397 478.4063 430.8174 473.3777 428.8546 467.3263 430.5094 459.4153 428.7139 449.4102 431.4673 444.3447 432.0764 443.9833 431.9006 440.6359 430.2719 436.7238 431.481 431.5377 436.636 431.293 440.0884 429.2759 442.6104 427.5028 443.5579 420.9719 443.8297 419.7024 441.3495 420.7179 440.2472 420.2014 438.5218 416.0897 435.7993 400.4751 445.6105 402.9062 431.5401 401.6569 431.54 389.8497 432.6966 388.4219 433.4272 376.4183 439.566 376.1575 438.5701 373.0646 437.0911 364.4615 437.1177 363.4543 437.7445 361.8651 442.0189 359.5082 443.0659 358.8602 443.3537 350.6644 444.6323 348.036 443.638 345.2411 444.9161 343.8804 443.1438 342.7242 442.5947 341.4412 441.9854 341.2596 441.4799 341.686 439.217 345.1086 437.3599 345.4827 435.3331 343.9844 432.12 340.6998 429.72 341.6646 427.0937 340.5172 422.829 339.9017 416.0549 339.8449 415.4296 337.5951 415.1316 334.8158 418.2369 331.7562 423.1936 327.0878 424.2664 327.7822 425.8687 327.8802 426.0948 329.4486 429.7134 331.3329 433.2085 329.1594 435.2317 328.2622 436.0667 319.4651 439.1022 318.3727 439.479 317.3773 439.8222 307.3801 449.7141 302.5412 455.6184 298.5639 462.4562 295.5034 465.6798 293.3588 465.7827 293.3228 465.4037 293.2391 464.522 292.3747 464.0808 282.8755 462.7006 280.7957 462.3981 277.2024 464.3031 268.8894 471.2214 258.1016 483.1353 257.0651 485.0248 251.3101 479.417 256.6236 465.6473 256.1965 460.6059 256.3929 451.7833 264.1521 442.4914 266.0084 438.0136 265.2626 428.6403 268.2193 422.5365 273.4943 419.0825 274.9468 415.9644 273.8888 412.6179 268.0684 405.9652 264.4244 402.5754 254.2417 395.4425 251.3422 390.3886 250.611 388.2483 245.9357 384.9945 241.2467 375.9314 237.3633 370.9813 237.0005 367.5476 226.6261 362.7007 225.3214 353.4415 216.672 346.8491 211.2879 341.87 205.0925 343.7117 201.2952 336.1596 193.3658 338.7558 189.6532 329.6516 179.7584 331.436 174.6103 320.1477 167.8355 311.4928 170.4664 301.0504 198.6486 296.5584 218.3614 298.6449 232.2525 296.491 238.267 295.0448 234.7073 272.1172 242.7623 271.7531 263.7763 265.0631 268.2769 256.6311 275.966 255.0847 278.7484 254.6384 278.5369 245.094 281.682 243.4569 287.5124 240.491 294.6822 241.1171 293.5492 233.9859 309.2233 227.1859 Z" id="fips-09009"/>
<path d="M 668.4408 13.0142 669.4357 13.0605 684.1879 13.7438 715.1927 13.7407 725.0891 13.9988 754.502 14.7495 757.2832 14.755 791.1914 14.8044 791.8586 23.2932 792.8369 63.1053 793.264 73.5844 794.6458 107.4661 794.7632 110.3422 794.9433 114.7554 794.9492 115.2814 795.7019 132.5193 795.7198 133.4338 796.5339 151.2374 796.6398 153.5507 797.4742 178.2427 797.4828 178.4971 798.9972 216.0828 799 216.1515 798.8349 224.9625 770.033 222.9089 759.2556 224.6666 732.5358 228.5709 730.3367 228.4618 722.0195 226.7189 719.2809 226.1481 665.4047 214.7658 662.6625 213.3988 649.6334 211.1813 647.2967 216.6163 635.9488 207.0008 625.0469 196.6046 613.539 185.8344 610.6329 181.0784 608.1431 178.1879 612.4131 178.1933 622.9474 178.1916 630.4376 178.0675 634.8997 163.1057 647.4381 164.0831 643.7934 119.4898 622.0645 119.4812 621.9502 52.0932 648.5644 51.2946 669.9271 51.3349 668.4408 13.0142 Z" id="fips-09015"/>
<path d="M 299.4423 8.3733 303.1923 8.4981 311.5637 8.5999 358.4655 9.1332 358.504 9.1337 358.5119 9.1338 365.2172 9.5889 378.8923 9.8213 377.5724 31.1354 394.6699 28.6607 397.936 28.187 398.1809 25.6117 399.3513 24.4902 399.3626 22.8173 400.1771 21.8311 400.788 20.5161 400.1302 19.865 399.7412 18.9926 399.8061 18.0326 400.4546 17.8579 401.4344 18.3956 401.7128 18.3507 403.109 15.9135 404.0454 13.2834 403.3128 12.2422 401.6848 11.5845 402.3769 9.9955 426.7601 9.6647 448.2492 12.0527 462.5544 12.9079 462.578 12.9093 462.9808 16.0136 462.9903 16.0868 469.7885 16.2395 473.0048 16.2336 476.7034 13.2421 484.9934 12.1963 495.0547 10.9243 502.7581 10.9469 509.6044 58.4466 501.2114 59.6188 499.6917 100.9968 499.3026 108.1203 508.0798 106.0592 504.6239 128.1622 503.7821 133.973 512.8154 132.5578 516.643 132.1273 517.7146 140.1972 518.2123 144.1981 521.7185 169.0583 523.2932 179.0663 526.5961 200.1523 528.306 209.4078 535.9795 214.6405 544.3214 231.8976 543.9105 247.3347 541.1239 253.9119 536.3604 254.8131 520.8488 257.6544 504.8897 223.1251 489.008 225.5239 453.6774 230.7477 454.773 226.9559 419.532 233.8332 420.6086 239.3191 419.2742 246.6532 414.1513 247.7025 409.2198 251.8701 403.5382 253.1288 403.8492 260.5829 383.7362 263.752 373.5207 273.1698 372.9121 264.8937 367.7455 265.9302 366.0758 279.2842 362.6207 278.422 356.4304 276.9403 351.7467 269.1675 341.9228 269.921 341.8174 269.9421 324.2296 272.5969 324.7446 271.0128 329.5002 244.6635 327.5547 224.6488 317.1372 226.2642 309.2233 227.1859 303.0744 187.221 302.9138 186.1794 295.701 140.2454 323.4545 135.8017 328.6725 117.5293 321.6288 109.7938 326.986 87.1691 337.3078 86.3135 341.1677 72.677 348.9137 44.5113 290.8576 47.9389 299.4423 8.3733 Z" id="fips-09003"/>
<path d="M 520.8488 257.6544 536.3604 254.8131 541.1239 253.9119 543.9105 247.3347 554.6851 254.9239 558.222 247.9649 577.6138 245.6037 579.0476 238.4187 575.0019 224.7234 587.496 218.9712 602.7789 206.1264 599.3907 197.7423 609.2958 193.8256 611.6687 185.7412 613.539 185.8344 625.0469 196.6046 635.9488 207.0008 647.2967 216.6163 649.6334 211.1813 662.6625 213.3988 665.4047 214.7658 719.2809 226.1481 722.0195 226.7189 730.3367 228.4618 732.5358 228.5709 759.2556 224.6666 770.033 222.9089 798.8349 224.9625 798.7787 227.959 798.3924 248.5357 798.3917 248.5674 797.4894 286.9661 797.2176 298.5036 796.0669 347.2027 796.0643 347.3131 787.5392 345.8221 778.8475 350.0136 777.6631 351.2667 777.3125 353.476 777.9235 359.2078 781.557 365.1072 781.8494 367.7305 782.3881 372.5649 779.912 376.6298 780.7021 381.879 783.3706 386.9971 779.5568 392.7925 770.7887 400.4427 771.1664 399.2595 767.5518 394.616 760.0888 391.6942 747.6009 394.1142 745.3746 392.8746 744.8819 392.5532 739.5182 391.0444 735.665 391.168 731.1402 395.5542 725.3205 398.536 721.7997 395.5749 721.4591 395.5987 720.6701 395.654 718.2627 400.7628 704.3934 402.9308 679.503 401.6512 678.624 401.6057 674.5494 404.6342 672.3657 408.5775 671.0165 409.7778 667.4581 412.943 658.2354 412.8452 646.9328 406.9703 641.8264 402.9851 640.3515 400.4236 640.2861 400.3102 637.606 399.5058 634.7694 399.9625 630.5155 404.0995 629.8656 405.4736 629.5023 413.2024 625.8638 417.462 620.753 413.2837 616.527 412.5604 611.3307 413.0977 611.0638 413.1819 609.7963 413.5822 610.3776 415.899 610.0587 418.3059 605.8956 422.2043 582.738 425.1456 578.6861 424.794 576.0806 422.3648 572.9722 423.9172 569.6012 415.06 569.7062 399.6121 561.4227 389.8706 557.1887 385.8289 558.5223 371.2969 554.8716 366.4162 539.7643 363.5518 534.7 345.2308 537.5786 345.5539 587.3321 338.2679 584.3382 315.1971 579.9645 293.4596 579.7313 284.6212 533.9004 286.1205 520.8488 257.6544 Z" id="fips-09011"/>
</g>
</svg>