<?xml version="1.0"?>
<svg xmlns="http://www.w3.org/2000/svg" version="1.2" baseProfile="tiny" width="800" height="1929" viewBox="0 0 800 1929" stroke-linecap="round" stroke-linejoin="round">
<g id="cb_2018_us_county_5m">
<path d="M 246.1506 291.629 246.517 292.6788 245.9607 299.4074 247.1971 309.0032 248.8646 316.1566 248.192 320.2644 249.0089 323.73 249.9314 324.9304 247.2643 325.2741 243.4449 325.766 237.3012 313.9204 232.9741 300.2558 234.0079 295.8377 246.1506 291.629 Z M 222.3057 328.2371 245.2884 343.8701 240.2021 356.2545 225.1766 352.5686 218.846 342.2455 222.3057 328.2371 Z M 1.661 162.7682 17.4732 162.8258 25.5888 140.6771 31.7527 127.6293 32.809 125.6899 39.595 113.228 48.9184 99.0781 57.4069 88.1448 67.534 76.5747 71.0081 73.0764 75.7169 68.3342 78.3382 65.6941 85.7705 59.2421 95.2158 51.0405 111.4958 39.3806 131.6523 28.0524 136.261 25.4612 159.0166 15.5328 166.2891 13.0585 184.9183 7.7982 207.8499 3.4898 208.7668 3.3218 210.0794 3.0813 210.6613 3.0244 224.7152 1.6488 224.8145 1.6391 234.8218 1 267.3181 2.1691 267.9947 2.1933 290.2736 4.8837 310.2268 8.9037 311.1629 9.0922 329.9191 14.9594 348.8586 22.299 348.9938 22.3513 349.9295 22.7973 352.6553 24.0963 359.2246 27.2265 386.6146 42.676 400.4426 52.8178 410.7348 60.4801 410.6546 60.5182 404.2297 63.5706 377.8075 76.1168 375.6614 77.1354 362.7999 89.7487 362.4455 90.0962 362.9533 90.5168 363.9316 90.968 360.6831 98.4948 353.1068 102.9353 348.9439 109.3192 349.2631 113.3445 342.6406 133.7465 341.4611 136.2776 337.3756 145.0432 336.0752 151.1723 336.0142 154.4258 334.0903 159.9771 333.883 165.7401 334.4627 168.8273 333.6579 173.4408 332.269 175.1058 329.2785 174.0871 327.7842 172.7443 325.5421 172.3268 322.0049 173.6853 319.025 178.8472 317.8907 181.7609 313.7843 192.308 305.4498 196.6056 302.1161 198.4798 300.1056 201.8763 299.349 213.5352 277.9909 204.4947 277.6723 204.951 249.2523 245.6379 243.2072 254.2867 219.2408 261.3741 216.5828 262.1596 189.977 302.428 188.7084 303.8248 188.4671 304.7571 187.7262 307.4874 186.796 310.7725 187.494 312.595 188.4821 314.7955 188.1386 315.4833 188.5869 322.6355 188.3245 323.3942 188.3287 323.4345 187.9848 324.3222 189.9813 336.2966 190.0151 336.5187 197.7327 346.9266 198.86 348.2612 210.9997 355.7664 211.2557 356.2111 215.786 359.7941 216.367 360.3724 216.9973 362.2834 217.6298 362.8841 233.0331 377.7873 233.9053 378.4104 242.1879 385.4177 241.0246 387.5763 240.4552 388.6329 239.3962 390.5928 235.3765 415.4614 235.3105 417.4949 234.2763 434.0129 244.579 443.3978 237.9111 460.322 227.7354 459.0277 215.612 476.8347 215.6098 478.2006 209.853 500.6545 209.8502 502.3064 213.2071 524.4852 213.6994 526.1656 223.5957 540.0981 224.9519 544.134 233.4404 551.6338 232.5274 556.6143 249.6009 568.4999 268.2128 587.7452 270.921 597.6285 284.1913 622.3509 286.2261 627.5054 295.5209 657.6599 296.19 658.3501 270.9732 679.2032 254.0435 674.5716 249.0958 700.4051 218.3738 737.3978 191.931 737.1348 180.9297 735.369 149.8005 756.1694 131.2638 762.3151 110.4709 753.2084 29.7744 753.3605 23.1009 641.3171 23.0882 641.1027 19.9266 587.9001 14.5768 497.7283 10.1539 423.0375 10.0878 421.9202 10.0081 420.5727 8.8496 400.9871 4.251 317.0228 3.447 302.3264 2.7428 289.4509 2.1809 279.8962 1.5818 265.2748 1 251.0715 1.0945 233.2597 1.1659 219.7897 1.1273 218.1656 1.5056 193.0088 1.507 192.6534 1.661 162.7682 Z" id="fips-10003"/>
<path d="M 29.7744 753.3605 110.4709 753.2084 131.2638 762.3151 149.8005 756.1694 180.9297 735.369 191.931 737.1348 218.3738 737.3978 249.0958 700.4051 254.0435 674.5716 270.9732 679.2032 296.19 658.3501 296.8163 658.9963 303.799 667.3606 315.7281 673.6924 318.2602 677.5361 315.7603 684.8431 316.805 686.3054 318.3711 688.4772 319.7777 690.0674 331.081 697.4936 330.9538 698.7359 342.3737 706.7314 351.9301 710.3207 374.9049 730.939 377.1509 736.4983 378.6395 752.9237 378.8298 754.1314 386.8042 770.2701 407.8485 798.5142 413.671 812.4931 411.6777 824.6094 410.4921 827.7567 410.7298 855.2373 410.9527 855.5831 411.7747 856.8582 420.2241 865.9119 424.4024 882.0522 422.5047 904.4826 418.4238 906.8971 416.7455 907.12 408.0128 923.5465 405.912 944.7336 405.483 949.0598 415.6773 1042.7323 414.7833 1073.1009 415.9025 1074.1266 416.6605 1074.8213 421.502 1083.7503 420.9953 1085.5926 430.0153 1094.902 438.6857 1098.2058 475.4925 1131.3961 480.7551 1138.1882 505.1194 1182.2578 508.8054 1192.5471 512.4398 1210.7793 511.459 1233.7849 511.4625 1236.2627 512.1422 1240.9303 502.0411 1230.4801 470.8015 1238.8689 437.93 1218.8587 424.4599 1229.6012 415.9299 1239.4736 415.5448 1279.2799 346.7014 1289.0656 325.4546 1299.5479 319.358 1319.1022 300.2068 1333.9611 286.9186 1366.1676 249.5104 1394.0198 68.0604 1401.6754 68.0399 1401.2974 67.7593 1396.9253 66.6052 1378.1403 66.5461 1376.6145 65.0082 1348.3223 64.7278 1346.7334 62.5945 1310.56 47.9784 1061.9337 46.3251 1033.7223 44.2831 1005.5821 43.9549 998.1059 42.4116 966.5104 42.3955 966.1805 40.6785 936.3076 38.9404 918.3239 33.9673 823.6128 33.9656 823.5836 29.7744 753.3605 Z" id="fips-10001"/>
<path d="M 68.0604 1401.6754 249.5104 1394.0198 286.9186 1366.1676 300.2068 1333.9611 319.358 1319.1022 325.4546 1299.5479 346.7014 1289.0656 415.5448 1279.2799 415.9299 1239.4736 424.4599 1229.6012 437.93 1218.8587 470.8015 1238.8689 502.0411 1230.4801 512.1422 1240.9303 512.1864 1241.2339 512.5556 1242.7118 522.2733 1250.514 511.7961 1270.5297 520.6798 1286.3886 565.0212 1336.0192 598.7195 1381.8904 627.661 1410.787 643.7047 1433.6829 644.0849 1433.9374 676.0107 1455.2948 677.8825 1456.7201 704.9686 1467.6694 727.3541 1466.5417 737.3033 1462.0106 737.3456 1461.8457 743.2497 1438.8204 748.3726 1437.5711 753.0941 1446.7341 761.1498 1481.4628 763.3658 1512.0554 764.5093 1528.5335 779.7947 1635.6459 780.2753 1675.3941 783.9855 1708.0341 784.704 1708.4017 784.9853 1708.6714 785.5546 1709.2171 786.0401 1709.6357 797.9131 1877.9925 799 1926.743 795.1169 1926.7458 794.0592 1926.7489 781.8459 1926.7796 780.0924 1926.7839 776.1964 1926.8207 754.7452 1926.9364 697.9194 1927.2203 650.597 1927.6202 629.2043 1927.5223 577.4008 1927.2661 569.106 1927.1511 555.3572 1927.0738 481.236 1926.6243 481.1324 1926.6236 465.3141 1926.587 448.7229 1926.4638 424.2461 1926.47 422.9166 1926.4069 405.4111 1926.0812 390.2441 1925.7936 386.2257 1925.714 386.0067 1925.7097 333.0739 1924.3253 331.1783 1924.2752 308.3515 1923.6455 305.2861 1923.538 285.3403 1922.9159 283.7902 1922.9145 271.7939 1922.4853 244.1222 1921.6136 243.3363 1921.5904 227.923 1920.9958 217.6037 1920.3792 211.3987 1920.5609 207.2944 1920.3904 201.8735 1919.7552 166.6595 1918.2323 147.6988 1917.552 131.4471 1916.9661 128.4671 1916.7631 98.0962 1914.9791 95.1235 1870.1983 94.7926 1864.5118 92.6212 1829.0511 91.188 1800.4737 91.1784 1800.283 89.7482 1775.3238 89.7444 1775.2585 87.7993 1741.3957 87.2452 1731.7496 85.3894 1700.2606 85.3023 1698.1379 84.9157 1691.156 84.5555 1684.449 83.7671 1671.7344 83.763 1671.6645 83.7628 1671.6615 78.0657 1574.1619 73.2153 1490.9872 70.2774 1440.5334 68.6355 1412.3113 68.0604 1401.6754 Z" id="fips-10005"/>
</g>
</svg>