<?xml version="1.0"?>
<svg xmlns="http://www.w3.org/2000/svg" version="1.2" baseProfile="tiny" width="800" height="797" viewBox="0 0 800 797" stroke-linecap="round" stroke-linejoin="round">
<g id="cb_2018_us_county_5m">
<path d="M 5.4713 1.0003 8.3153 1.0732 10.662 1.1671 13.6554 1.3362 17.7123 1.4339 17.768 1.4368 17.871 1.4393 19.0915 1.495 19.0969 1.4952 19.6176 1.5144 19.6325 1.5149 19.9411 1.5057 20.2455 1.5267 20.8537 1.5578 22.6615 1.6417 23.3336 1.6837 29.3145 1.908 29.7096 1.9332 30.5721 1.9656 32.8106 2.0544 35.0609 2.1268 35.9013 2.1907 36.1569 2.1717 37.2478 2.2259 37.4636 2.2356 39.8729 2.3428 40.3912 2.3725 40.479 2.3788 40.658 2.375 40.7565 2.3873 40.9022 2.3906 40.9657 2.3848 42.7414 2.6851 43.5876 2.6599 44.0814 2.6452 50.4057 2.6729 45.9923 6.0167 43.5976 6.9803 40.5648 10.4265 39.3723 9.9683 37.2896 11.0371 37.6961 12.8718 37.3395 15.5667 35.8527 16.419 34.1132 20.3575 35.2322 21.011 36.0516 24.6576 33.9702 27.6988 34.8518 30.8619 33.6549 33.9021 34.5705 35.8376 37.622 36.2098 38.2544 39.7802 38.1292 44.4118 39.2894 47.6366 38.54 49.0667 40.7761 50.9308 43.3489 56.0325 47.6201 57.8556 48.6244 58.7157 51.8623 63.0284 51.8277 64.8527 50.2639 68.8037 50.498 72.121 49.261 73.7126 48.5192 74.3101 40.5481 76.5984 39.8701 78.2335 39.8542 80.8083 42.1144 82.0236 45.4145 82.7961 48.1874 81.2374 49.4949 81.3495 56.4068 79.8013 72.5826 77.5634 72.5915 79.4851 47.8311 83.7204 42.5078 84.3315 36.0775 84.7333 34.5389 84.2762 33.25 83.6482 30.7151 84.2327 27.4706 84.6738 20.1735 86.2982 9.8459 87.8812 9.8589 87.4626 10.8368 86.502 15.31 85.473 15.6482 84.3344 13.3946 84.585 12.664 84.2082 12.3533 83.4459 12.9555 82.8375 13.9489 82.4761 15.6871 81.7358 15.8882 81.6597 16.2124 81.3952 17.0545 80.4875 17.2028 80.2322 17.1725 78.5335 17.2081 77.9667 17.2719 77.7033 17.528 77.3271 18.3134 76.646 18.6641 76.1174 18.6711 75.9605 18.4672 75.3957 18.4463 75.165 18.5138 74.8172 18.8905 74.3009 19.2107 74.1208 19.5009 73.4438 19.6236 73.2501 19.747 73.0551 20.1146 72.744 20.4829 72.6505 20.8469 72.6537 21.4636 72.8245 21.9091 72.8673 22.4773 72.7217 22.6602 72.5842 22.9916 72.1505 23.3268 71.8623 24.3079 71.5524 24.5248 71.4244 24.7672 71.2812 25.94 70.4116 26.2647 70.0723 26.4479 69.688 26.4321 69.224 26.2733 68.7156 26.0683 68.437 25.005 68.0022 23.8918 67.7746 23.3777 67.8741 23.0684 67.8129 22.5803 67.563 22.2668 67.1268 21.5657 66.9887 20.5306 65.9418 20.0903 65.3189 20.0187 64.5904 19.9208 64.4533 19.6072 64.2588 19.5209 64.098 19.8142 63.5782 20.0965 62.8405 20.0595 62.2707 19.3752 61.0858 19.2347 60.9238 18.8692 60.8924 18.718 60.8 18.4241 60.4292 18.4237 60.2533 18.4769 60.1689 18.5656 60.059 18.7044 60.0151 18.7343 59.8999 18.6094 59.2462 18.6293 58.4295 19.9041 55.8142 19.956 55.7608 20.3249 55.696 20.7139 55.2413 20.938 54.5356 21.2225 54.384 21.28 54.392 21.3161 54.5072 21.4711 54.486 21.7136 54.3547 21.9436 53.824 21.9226 53.6179 21.769 53.4231 21.7881 53.3656 22.018 53.0845 22.2046 52.9704 22.3901 53.0058 22.8584 51.759 23.1711 49.81 23.3929 49.4009 23.7527 49.294 23.957 49.1558 24.1769 48.788 24.4485 48.007 24.449 47.9322 24.3117 47.8045 24.3161 47.7049 24.4262 47.0278 24.5582 46.8133 24.6409 46.5975 24.681 46.1308 24.5072 44.5411 24.4006 44.0352 24.5175 43.7575 24.426 43.2825 24.1394 42.9241 24.0841 42.9301 23.5997 41.7653 23.4986 41.1348 23.5683 40.869 23.5333 40.729 22.9501 40.3552 22.2575 40.0934 21.7211 39.6609 21.1811 39.001 20.5963 38.9738 20.2134 38.7387 19.9699 38.4625 19.8457 38.2246 19.2704 37.6796 19.0638 37.5629 18.4777 37.8098 17.5233 37.3736 17.3851 37.2653 17.1272 36.8194 16.7169 36.6443 16.218 35.8642 16.2045 35.6115 16.0675 35.4174 15.4769 35.1515 14.4793 34.8852 14.4011 34.9097 13.9121 34.7116 13.6445 34.1293 13.0035 33.2289 11.8 32.6008 10.8979 31.9357 10.6472 31.165 10.6694 30.5633 10.591 29.7593 10.5397 29.6184 10.0318 28.9953 9.6533 28.4331 9.7472 28.1851 9.8056 27.6362 9.1229 26.6896 9.0333 26.6027 8.8395 26.5721 8.3775 26.1507 8.3271 25.9295 7.921 25.4301 7.5303 25.0697 7.1347 24.878 6.6803 23.9359 6.1849 23.402 5.5792 23.0574 4.9256 22.7938 4.3062 22.3265 4.2132 21.777 4.0322 21.348 3.8192 21.0147 3.2885 20.8311 2.7894 20.5603 2.8599 20.2807 2.6808 19.8713 2.0024 19.1939 1.8065 19.091 1.6858 18.9083 1.7933 18.4392 1.9226 18.1456 1.8506 17.8074 1.6591 17.436 1 16.7115 1.5781 15.3101 1.6469 15.0195 2.1949 14.4895 2.4404 14.4141 2.5838 14.1682 2.5836 13.8745 2.4399 13.4141 2.4941 12.9536 2.6558 12.7887 3.1556 12.5054 3.2809 12.1756 3.3819 11.6591 3.6596 10.9452 3.8415 10.7008 4.0713 10.0734 4.1325 9.7629 4.7169 8.6052 4.9384 8.2767 5.1951 8.08 5.3537 7.8042 5.911 6.5757 6.28 5.0236 6.1292 4.4187 5.9294 3.9807 5.8384 3.5696 5.8399 3.4201 6.0079 3.117 5.9495 2.7737 5.6323 2.1977 5.4251 1.2081 5.4601 1 5.4713 1.0003 Z" id="fips-12033"/>
<path d="M 727.7847 426.8679 763.2826 426.456 766.1901 426.3901 767.2761 430.3305 768.4602 433.2486 769.3173 433.2335 772.4448 442.8211 773.8028 447.723 776.0429 452.3344 776.8102 454.5653 779.8853 461.7272 770.7946 461.8059 770.7438 468.7814 765.769 468.9047 749.6951 469.0944 728.5866 469.4619 728.0146 437.3395 727.7847 426.8679 Z" id="fips-12111"/>
<path d="M 580.3986 470.5309 580.434 454.7596 601.5781 454.4386 633.2272 454.2092 633.632 491.2855 588.3445 491.3541 587.3467 491.7866 580.3535 491.7583 580.3986 470.5309 Z" id="fips-12027"/>
<path d="M 167.0091 7.4312 170.7628 7.5983 181.6347 7.8462 196.494 8.1027 196.5281 8.0487 214.1423 8.3919 222.5362 8.5466 222.5762 8.547 219.2702 11.1784 219.0391 15.4157 217.2082 16.2294 214.2117 20.2083 212.0772 24.8787 211.454 28.357 210.9959 32.4559 209.148 35.6156 209.1765 38.7703 197.0456 38.1378 197.2464 34.6486 195.4994 34.5501 195.5558 32.8442 191.5916 32.6711 188.335 32.5278 187.0328 37.3602 188.0432 38.8015 185.6465 43.042 165.6127 42.2785 167.0091 7.4312 Z" id="fips-12059"/>
<path d="M 647.8649 279.509 647.5707 274.7228 651.1297 271.3777 652.7972 268.0713 654.3835 270.1017 653.7007 271.8039 657.7644 273.4304 662.7936 273.4843 667.7686 273.5656 668.8206 276.4961 671.0985 278.4075 672.3443 277.7703 672.8152 279.6492 675.1905 278.4293 677.1536 278.4667 678.6829 275.6905 678.3456 274.8097 680.5054 273.9282 681.4061 274.7659 684.5854 275.7633 686.1567 280.5125 685.3391 283.3694 687.9868 286.3684 688.1636 288.1895 690.1305 290.2011 689.6649 292.4773 690.7599 293.2108 691.8393 296.4655 691.223 297.0442 693.3618 299.8393 678.3235 300.0641 666.0503 300.3097 665.28 300.2869 662.0824 300.392 657.2249 300.5443 657.1611 297.8755 657.1303 296.997 647.9305 297.0221 644.7255 297.0599 643.536 297.0279 643.2053 296.754 643.183 293.112 643.1739 288.1577 645.0375 287.9938 647.0151 285.2715 647.8649 279.509 Z" id="fips-12117"/>
<path d="M 546.0866 502.2151 559.041 502.2989 559.0587 491.6996 578.5803 491.7657 580.3535 491.7583 587.3467 491.7866 588.3445 491.3541 633.632 491.2855 633.6421 491.3033 633.4886 523.2225 594.0798 523.379 594.0545 523.3789 579.9491 523.3804 580.0157 522.9162 580.0107 521.1099 580.6888 519.51 580.3721 517.1489 580.3045 515.1343 580.4838 512.7022 580.2298 510.5492 579.422 509.8568 576.8166 509.0998 576.5632 506.9467 576.868 504.9311 577.6102 504.3733 579.2833 504.3686 579.9017 503.95 579.9612 503.0466 579.9324 502.8358 579.7715 501.6576 578.3441 500.689 578.0811 500.6951 574.9371 500.7675 573.9469 501.1867 573.1439 502.2308 571.7859 504.5962 569.1215 504.6714 568.3165 504.951 567.6982 505.7164 567.9505 508.0781 569.759 513.5629 570.7666 521.0639 570.3338 521.8289 567.9772 522.3896 567.3581 523.1549 566.3288 523.3629 564.103 523.8122 562.9004 523.5764 562.6388 522.0233 561.3964 521.8762 560.4553 521.5733 558.0759 521.1305 557.3181 521.1208 555.4375 516.4989 554.0715 514.8322 548.6844 506.7645 546.0866 502.2151 Z" id="fips-12015"/>
<path d="M 633.4886 523.2225 644.9828 523.2218 644.98 521.4431 647.6275 521.4351 647.6119 523.1938 700.4523 522.6408 706.6192 499.6195 706.8864 525.6197 708.1116 573.6529 707.9103 573.8914 707.9974 575.1347 708.2579 584.1134 666.1339 585.3554 665.5036 553.4652 649.7022 553.7019 644.0232 554.1022 633.9275 554.178 633.9165 553.5565 633.7142 543.6672 633.4995 530.4723 633.4886 523.2225 Z" id="fips-12051"/>
<path d="M 309.2551 84.0052 309.1389 83.238 313.435 80.7165 315.0459 81.2757 317.4277 79.4929 318.2203 78.1718 318.4198 78.6451 321.5689 77.8788 322.5906 76.6076 332.9607 75.2865 334.2839 74.1983 335.422 72.9815 334.6702 70.019 336.4427 67.8154 336.4403 67.756 336.3293 67.6856 336.3009 67.6101 336.3119 67.511 336.3973 67.4314 336.3264 67.3998 336.1696 67.4245 336.1632 67.2717 336.1121 67.1727 336.1287 67.025 336.1832 66.9105 336.1937 66.73 336.2718 66.4571 336.3783 66.0334 336.4805 65.7878 336.4852 65.6917 336.5609 65.6423 336.5687 65.5506 336.5076 65.5036 336.4716 65.3902 336.4937 65.0245 336.5643 64.9024 338.3169 61.2145 342.0067 59.4691 343.468 56.5252 345.4395 54.8679 345.8757 53.9036 345.3713 50.5632 346.1382 49.7751 345.8249 49.3707 347.7669 48.7767 347.8967 48.786 351.1478 48.9704 364.126 49.8992 365.9108 50.0729 368.4071 50.2295 371.1523 50.4012 372.2554 50.4772 372.7532 50.5229 372.9716 50.533 376.3274 50.7861 376.3305 50.7863 376.1984 58.3697 377.1103 62.818 379.0824 65.4893 379.1992 68.9277 372.5651 68.8796 372.4659 74.7211 368.918 79.4132 368.5442 98.8233 351.2566 98.496 349.9506 94.977 346.6485 94.9137 337.3697 94.7509 336.9895 94.8307 302.0637 94.5166 303.3818 92.2247 301.9576 90.538 305.1529 88.5402 305.7694 86.3621 309.2551 84.0052 Z" id="fips-12073"/>
<path d="M 580.4782 417.5186 633.032 417.2245 633.2272 454.2092 601.5781 454.4386 580.434 454.7596 580.4782 417.5186 Z" id="fips-12049"/>
<path d="M 590.6052 258.6882 601.7544 258.6683 602.4497 258.5205 610.9676 258.4886 615.4686 258.4428 617.9046 258.5538 621.8565 258.4963 621.7367 247.9304 623.903 247.9167 623.572 233.2868 623.3821 220.2388 624.2433 224.0996 625.8054 226.0463 626.3064 228.7155 628.5942 229.6045 631.9901 229.437 632.7728 230.9008 635.139 232.2633 638.0088 238.6376 638.2947 241.7673 639.6946 242.3138 642.0665 241.8711 643.3449 243.6402 643.2152 245.8154 644.176 246.0102 645.7246 248.1618 649.9899 251.0809 651.0102 252.4813 651.8462 254.2835 653.9808 255.2982 653.3466 256.2746 652.5958 258.8642 654.2039 259.9575 654.2761 265.948 652.7972 268.0713 651.1297 271.3777 647.5707 274.7228 647.8649 279.509 623.2807 279.5779 622.0151 281.8828 622.0567 285.0959 622.2959 302.9515 623.2598 303.9802 622.3314 306.4979 622.3052 307.6983 622.3223 308.545 622.3547 317.2643 622.4742 332.6238 608.2773 332.7875 608.2508 330.9231 601.1522 330.9539 601.1729 332.8762 590.5211 333.0155 590.7878 308.0509 590.7814 305.6866 590.7272 273.6308 590.6052 258.6882 Z" id="fips-12069"/>
<path d="M 454.982 101.288 457.024 96.6315 458.9228 95.1277 458.6552 91.2037 460.1663 90.738 460.8099 87.5324 463.0472 86.2928 464.3687 84.4526 464.7159 82.4382 466.8711 82.2171 468.1785 80.5995 472.1415 79.9626 472.9867 81.4538 477.3278 80.863 480.1103 81.8513 480.6877 81.0587 482.6945 82.3203 484.4206 82.5104 490.4572 87.0273 490.69 86.0921 492.4699 86.3552 491.9889 87.7238 493.1619 88.8822 495.7643 89.7075 497.0802 91.8079 498.3623 91.1134 500.5713 92.2959 501.7467 91.4273 502.2731 92.3034 502.1946 134.6927 505.7087 134.7031 505.585 137.2027 503.034 138.4972 501.4915 141.2251 498.1806 143.5663 494.9039 143.7488 493.1594 146.6669 491.5699 145.0402 490.249 145.2907 488.3486 142.48 488.9126 141.4261 487.8553 138.1193 485.7836 137.9992 484.7662 135.96 484.4903 133.7961 482.9805 132.2102 480.3054 131.6318 479.2618 129.0494 476.3251 126.322 473.7139 125.0024 473.4086 123.082 469.0651 121.8881 468.5202 120.2966 466.8519 121.1386 463.9129 119.5739 461.3592 121.4428 459.6746 120.0301 458.5117 120.3366 457.1088 119.1068 457.2391 116.4546 455.7912 114.4228 456.3918 112.407 454.7468 110.5586 454.6337 108.5384 455.6962 105.2973 454.3573 103.9352 454.982 101.288 Z" id="fips-12121"/>
<path d="M 305.4244 155.6692 308.6777 154.982 312.9579 152.6927 315.2372 150.7402 316.4778 151.0117 316.4218 154.0016 314.3912 155.9592 310.1198 157.7512 306.1206 158.3003 304.1517 157.0165 305.4244 155.6692 Z M 268.6107 133.5659 270.8328 128.8235 270.5905 128.4739 319.0243 129.7726 320.4002 130.2398 321.6553 131.7409 321.099 133.3507 322.1472 132.4811 324.5095 132.759 327.0315 131.0215 328.5586 134.7465 329.4493 133.4863 330.1491 134.0747 340.1775 136.2042 340.3395 137.9917 340.6376 138.4193 340.889 140.6939 340.6361 141.9902 339.8301 143.5996 339.2299 143.9195 336.0937 144.3157 333.3854 143.29 331.4123 143.0435 330.3247 142.6225 329.36 141.7049 328.5496 139.842 326.5905 140.3598 324.0296 141.5928 322.2099 141.2448 319.6954 141.984 315.2922 144.5962 312.5566 145.962 311.506 146.9258 307.8113 149.3812 306.9138 150.4718 306.8913 150.9144 305.4873 151.5368 304.0045 151.2167 303.1484 151.4746 299.084 154.0751 296.3907 156.242 295.6154 156.1899 289.1234 159.7548 287.7574 160.0128 284.4616 161.5742 283.0232 162.5809 282.3376 163.954 281.8703 163.9136 280.9302 162.3151 282.2108 159.9145 283.6133 157.878 281.8757 156.3569 280.8159 156.2016 279.6573 156.5372 279.0213 157.7813 277.1317 160.4844 276.2556 161.092 274.4229 161.3686 273.875 163.2115 273.0032 163.9026 271.281 164.621 266.6612 164.9907 263.0219 163.9491 259.9213 163.9138 257.8377 164.2167 259.9591 168.0317 262.6673 169.3867 263.0227 173.39 269.0592 175.7575 280.7797 170.5124 291.668 166.6007 296.6655 162.3471 301.9868 158.085 302.931 159.4504 293.9131 167.8397 283.3509 172.0313 275.7412 175.8812 269.7931 178.628 265.4954 179.965 261.4621 176.4702 255.5556 174.0555 247.2253 168.5773 246.8697 168.5309 247.1755 167.1477 248.9365 164.5767 259.2759 156.8826 262.419 157.9412 263.5662 156.0507 266.6266 156.6374 267.0113 155.171 268.6736 153.3938 268.6241 151.478 267.4746 150.6241 266.6959 145.0731 265.6875 142.9675 265.4784 140.883 269.3391 136.0507 268.6107 133.5659 Z" id="fips-12037"/>
<path d="M 302.0637 94.5166 336.9895 94.8307 337.3697 94.7509 346.6485 94.9137 349.9506 94.977 351.2566 98.496 368.5442 98.8233 368.1767 120.3461 367.4377 120.7199 367.0216 120.7362 366.2227 120.3793 365.3834 120.531 364.2073 121.4972 363.0614 120.8618 361.9191 121.7619 359.6423 122.9742 358.5312 123.1141 357.3563 122.8835 355.3577 121.0714 355.0384 121.0613 354.85 121.3131 354.3607 121.4386 351.3299 121.2981 350.4397 120.3829 350.2649 119.399 349.3348 119.0644 347.9719 119.7843 347.6324 120.4198 347.4581 121.5384 347.8232 122.4638 347.7643 123.3541 347.0822 124.2899 345.7628 124.6399 344.9154 124.5959 340.7552 127.5636 337.6748 130.3763 338.0662 132.9114 338.2668 133.2772 339.5512 133.3724 340.0203 134.4705 340.1775 136.2042 330.1491 134.0747 329.4493 133.4863 328.5586 134.7465 327.0315 131.0215 324.5095 132.759 322.1472 132.4811 321.099 133.3507 321.6553 131.7409 320.4002 130.2398 319.0243 129.7726 314.193 127.4371 312.3042 123.767 310.6056 123.4127 309.4221 120.8111 307.7189 118.8237 308.3771 117.8498 306.134 115.3753 305.9601 112.6893 306.4837 108.8712 305.4536 108.1256 305.1475 104.5403 303.1828 102.7794 303.5037 101.2376 299.4238 98.6378 300.3037 96.1709 302.0637 94.5166 Z" id="fips-12129"/>
<path d="M 89.4311 4.4052 93.6026 4.6391 95.3454 4.6477 95.4597 4.6346 95.6574 4.6429 97.6226 4.9755 99.4818 5.0548 100.5024 5.0982 101.9182 5.1489 111.9544 5.431 112.3838 5.4321 116.8704 5.8255 117.6066 5.7957 118.9366 5.8846 123.2424 5.951 123.6151 5.9886 128.7629 6.1297 130.1046 6.1594 130.4447 6.1696 130.4517 6.1697 129.0063 38.0784 126.9132 80.4559 125.3862 80.1883 119.2877 79.5538 115.6089 79.6222 113.2454 78.9857 102.4836 77.4749 90.1989 77.5707 88.6788 77.7081 85.209 78.0211 87.2585 42.012 89.4311 4.4052 Z" id="fips-12091"/>
<path d="M 720.1101 277.9468 722.5544 282.0888 729.3088 291.52 732.6202 296.7075 736.1777 301.1097 737.1573 302.6107 737.9961 305.3559 738.7329 309.1669 741.4697 315.422 742.6765 317.7235 742.5172 318.6628 738.7035 320.4056 737.5257 321.6344 736.1035 323.7001 735.2516 326.152 734.7268 328.5227 734.5347 329.3905 734.2122 332.7199 734.13 335.7676 734.3384 338.4246 734.6372 342.2341 736.2973 351.8496 738.9556 361.766 741.0413 367.3959 741.4198 368.2269 745.3263 376.797 752.1412 389.807 752.1316 389.9521 751.3086 390.7047 747.4442 390.7718 745.5828 394.7355 707.1332 395.2296 706.6878 363.5381 707.3683 362.664 707.2736 343.2875 706.9654 331.7692 704.1978 327.2129 704.7369 324.4633 702.7657 321.4656 703.1975 319.0824 703.165 319.0695 703.4061 317.3701 705.9258 316.7607 704.6681 314.3768 704.8135 312.9199 702.9187 312.2117 699.1104 308.5208 699.4975 305.8406 697.6569 303.2012 697.1122 300.7863 696.5337 301.1411 693.3618 299.8393 695.7789 299.8111 695.1563 278.3963 708.3899 278.1158 720.1101 277.9468 Z" id="fips-12009"/>
<path d="M 495.0478 353.924 495.2631 353.9219 495.7459 353.9931 497.2078 353.9754 497.4992 358.6111 499.326 367.8934 502.6345 368.0129 502.5359 361.9205 502.8104 359.3467 502.2519 357.2417 501.8177 356.3338 500.9329 356.4156 499.9269 356.0481 500.2936 353.9486 511.5971 353.852 514.4614 353.8499 516.6969 353.861 516.7501 357.2866 516.9428 370.1363 516.9426 372.3501 514.6923 371.1251 512.5104 371.4753 513.6591 374.7962 512.2192 376.7508 511.9219 377.3481 510.7787 379.6445 509.6669 379.8181 509.239 380.1312 508.8523 381.061 509.139 382.0192 509.2758 382.4762 510.352 383.4581 511.5937 384.0606 512.0594 384.2865 513.0082 384.915 514.4921 385.3171 517.92 386.2031 518.4424 386.4492 518.6639 387.9727 521.0216 390.1042 522.2557 392.0304 522.6404 393.745 523.2269 394.6766 523.5229 396.9736 521.2849 399.1215 520.3367 400.4501 519.6445 401.4197 518.9461 404.0292 518.805 404.5564 519.3888 407.1199 519.3127 407.8087 518.4638 409.7893 517.7988 410.5979 516.4386 411.0304 515.326 410.7863 515.2913 410.77 514.3959 410.3492 513.7859 410.3116 513.5822 411.6667 513.5763 411.7062 512.0262 411.0316 509.8979 411.2144 509.3401 412.0173 508.8842 414.5301 509.0318 415.4128 509.5955 416.9251 509.9974 417.5017 511.544 418.4469 510.7984 420.0827 507.7894 421.5662 507.4185 421.0389 506.526 417.4683 506.4541 415.8395 507.2331 413.6438 507.2898 410.2229 507.0473 408.8444 506.4203 407.2593 505.6195 406.6526 504.8522 405.5747 503.8867 402.8282 502.4913 400.902 501.7349 399.9569 498.5135 397.2703 497.648 396.2384 496.7918 394.4963 495.7413 392.3579 495.4672 391.2812 495.2636 388.4882 495.6265 385.6007 496.3757 382.3619 496.3798 382.3442 497.4041 379.3313 497.6533 372.4537 497.7514 369.7422 496.1784 362.8664 495.0589 354.7195 495.0478 353.924 Z" id="fips-12103"/>
<path d="M 259.8273 105.7445 259.5893 104.4683 261.186 104.355 262.3671 102.4668 263.4903 102.3754 264.0305 99.6733 265.9088 98.2356 265.4235 97.3023 266.6354 95.3297 266.2078 93.6411 267.2502 92.2754 268.6331 92.3436 267.4057 91.3871 267.0897 89.4014 267.8612 87.4942 269.4343 86.5162 268.1842 85.1299 269.648 84.7389 270.9157 82.5091 269.6213 81.1113 270.9883 80.7284 269.0764 79.3235 270.9644 77.6654 274.314 76.8342 272.6137 75.0621 273.9363 74.039 272.6586 73.1032 273.6733 69.2732 273.8336 66.7995 275.6066 63.4301 276.8316 62.1754 276.5443 60.1636 278.4773 60.2408 278.7172 58.3611 280.0357 57.0718 285.1479 57.2753 285.0283 66.0322 291.9772 66.1734 291.9602 67.9374 295.4779 67.9829 295.4015 75.0983 302.3799 75.1607 302.2707 80.3789 305.7706 80.4371 305.6884 83.9755 309.2551 84.0052 305.7694 86.3621 305.1529 88.5402 301.9576 90.538 303.3818 92.2247 302.0637 94.5166 300.3037 96.1709 299.4238 98.6378 303.5037 101.2376 303.1828 102.7794 305.1475 104.5403 305.4536 108.1256 306.4837 108.8712 305.9601 112.6893 306.134 115.3753 308.3771 117.8498 307.7189 118.8237 309.4221 120.8111 310.6056 123.4127 312.3042 123.767 314.193 127.4371 319.0243 129.7726 270.5905 128.4739 270.8328 128.8235 268.6107 133.5659 268.2259 131.6932 266.0306 131.1417 265.7061 129.8906 263.8424 129.4245 262.4775 128.1983 259.5268 127.1069 257.3303 124.6281 257.2872 119.4461 255.5109 118.6916 256.4815 117.8245 256.0802 116.4744 258.0795 115.4419 256.5527 114.9558 257.8399 112.2535 257.1967 110.0936 257.8995 107.9002 259.8273 105.7445 Z" id="fips-12077"/>
<path d="M 232.9963 60.7729 255.0329 61.6036 255.5992 56.3431 280.0357 57.0718 278.7172 58.3611 278.4773 60.2408 276.5443 60.1636 276.8316 62.1754 275.6066 63.4301 273.8336 66.7995 273.6733 69.2732 272.6586 73.1032 273.9363 74.039 272.6137 75.0621 274.314 76.8342 270.9644 77.6654 269.0764 79.3235 270.9883 80.7284 269.6213 81.1113 270.9157 82.5091 269.648 84.7389 268.1842 85.1299 269.4343 86.5162 267.8612 87.4942 267.0897 89.4014 267.4057 91.3871 268.6331 92.3436 267.2502 92.2754 266.2078 93.6411 266.6354 95.3297 265.4235 97.3023 265.9088 98.2356 264.0305 99.6733 263.4903 102.3754 262.3671 102.4668 261.186 104.355 259.5893 104.4683 259.8273 105.7445 231.9285 104.9202 231.2374 104.9474 231.8188 87.1248 232.9963 60.7729 Z" id="fips-12013"/>
<path d="M 395.2325 95.5493 431.9057 95.8449 431.8041 101.1436 442.4533 101.2222 442.443 108.3933 442.2425 110.068 441.6956 146.229 443.5717 146.253 443.5198 154.1848 447.0855 154.1638 446.98 159.5162 445.1691 161.6302 444.1958 163.7051 444.2607 165.7214 443.556 169.646 442.1018 171.7589 441.9434 173.0888 438.5792 172.0664 437.1263 172.9019 437.0764 172.7126 436.8756 172.4631 434.619 171.6157 433.7392 171.6365 433.3634 171.863 432.6126 171.7126 429.7105 169.9909 429.675 169.016 428.6194 167.8165 426.6355 166.8205 424.0266 166.001 423.0376 164.8843 422.2292 163.6225 421.0951 161.3354 419.7463 160.4831 419.1514 159.5465 419.0179 158.5101 419.3405 158.1915 419.4661 157.6179 419.0713 155.2343 418.0855 153.2631 417.0737 152.2376 415.6844 151.5047 413.7059 146.1989 411.4214 144.5498 409.4281 142.2341 408.6805 141.5951 401.3108 137.3806 398.0424 135.0427 393.8686 134.2442 392.1392 132.4254 383.1962 127.3606 382.9738 127.1059 383.1658 126.743 383.0068 126.4836 380.2917 124.1966 376.9846 121.8602 376.9448 120.3747 379.4735 115.5787 379.0267 114.3806 380.3648 113.6292 381.3664 109.5476 383.4902 109.2314 384.9019 106.1204 385.1657 102.4822 386.5647 102.2095 388.7666 99.8133 391.3515 99.1549 393.3807 98.2794 395.2325 95.5493 Z" id="fips-12123"/>
<path d="M 707.9974 575.1347 771.2076 574.1112 771.2601 574.1103 771.2298 571.5646 776.3573 573.1535 781.3313 574.7189 784.9853 574.6561 785.0051 574.6559 785.0444 574.6516 790.4206 574.5527 792.6818 574.528 792.7374 575.1072 793.3927 574.6726 795.338 575.2747 795.297 575.5625 794.917 582.13 794.3324 583.9655 793.9584 586.0749 792.8388 596.2561 792.5261 602.4831 792.3809 602.8429 792.0791 603.5909 791.4021 615.7794 791.4237 617.1339 790.7653 617.2271 788.1605 617.2856 788.1389 617.2861 786.2224 617.3974 781.8263 617.61 779.2897 617.7001 777.4312 617.789 772.1698 618.0402 772.2201 619.7062 770.5201 619.6883 768.772 619.7243 763.5296 619.8195 763.5199 619.8198 757.4055 619.9348 756.5335 619.9628 730.3938 620.3644 730.3565 617.7208 709.4026 617.9227 708.4541 594.6096 708.4529 594.5692 708.2579 584.1134 707.9974 575.1347 Z" id="fips-12011"/>
<path d="M 776.1195 692.6276 778.2587 687.4438 783.4637 676.4311 786.0301 672.0631 786.0314 676.3201 783.2125 684.9925 778.2803 693.4973 778.1341 693.7694 777.9212 693.5279 777.5928 692.7974 776.9424 692.4107 776.6036 692.3799 776.1195 692.6276 Z M 709.6311 638.9406 709.4026 617.9227 730.3565 617.7208 730.3938 620.3644 756.5335 619.9628 757.4055 619.9348 763.5199 619.8198 763.5296 619.8195 768.772 619.7243 770.5201 619.6883 772.2201 619.7062 772.1698 618.0402 777.4312 617.789 779.2897 617.7001 781.8263 617.61 786.2224 617.3974 788.1389 617.2861 788.1605 617.2856 790.7653 617.2271 791.4237 617.1339 791.5377 624.304 791.2843 628.2487 791.339 629.5269 791.5019 633.3305 791.2926 636.128 790.7681 639.3612 790.7434 641.6538 790.2755 642.9199 789.8779 643.9954 789.7569 644.3226 789.0668 645.4816 788.1773 650.0822 788.0886 652.4474 788.2957 653.2313 788.0284 654.5972 787.3839 654.6809 785.5994 652.279 786.2573 649.187 786.8796 647.8146 786.6713 646.9591 785.9432 645.8982 784.6369 644.9913 783.2197 645.1608 779.8234 646.6553 778.6136 647.6798 778.1759 648.5472 777.5878 652.0672 775.9673 655.6773 775.923 655.9775 775.8509 656.4671 774.7819 658.2766 773.5672 659.0858 772.6789 660.1041 772.1792 661.1871 771.7657 663.6292 771.7998 665.7769 772.2023 666.7008 770.964 670.1598 769.8071 670.6097 769.7588 670.6492 769.6953 670.7011 769.3601 670.9754 768.259 675.0045 768.298 677.5101 768.5812 679.0806 769.5941 681.784 770.4463 682.4853 769.8262 684.2145 769.9378 687.2198 770.5327 687.9971 771.6363 688.1926 772.0349 688.8301 771.6678 690.1969 769.0135 694.3957 767.1521 695.5016 766.1527 695.805 764.8113 697.045 764.5886 698.4344 764.2966 698.4365 764.3156 700.6134 762.6025 702.4434 762.654 704.7844 760.9033 704.8221 760.0692 706.9068 756.5884 706.4895 753.1 708.4114 751.8555 708.1499 752.6508 710.5502 751.1131 710.2113 751.7694 711.4475 750.7219 710.6463 749.6433 709.1427 748.8648 708.8706 746.6207 710.7354 743.694 711.1877 742.1446 711.4269 741.6858 711.4976 739.2645 711.5744 736.0969 712.7896 733.3538 713.2421 731.895 715.4256 729.1337 717.3706 728.0486 717.5503 726.7834 715.8616 724.6985 716.1744 724.673 717.8862 724.2592 718.1771 720.1396 715.6401 719.0863 714.0316 717.1612 713.6148 716.0698 715.0535 714.0505 714.7687 713.1476 714.6044 712.1604 714.8184 712.0675 706.8064 711.4392 692.1856 710.2385 692.2251 709.8208 655.7469 709.6907 644.3127 709.6311 638.9406 Z" id="fips-12086"/>
<path d="M 501.4915 141.2251 503.034 138.4972 505.585 137.2027 505.7087 134.7031 502.1946 134.6927 502.2731 92.3034 502.9033 93.8774 505.5675 93.0589 507.2585 94.6862 508.1273 93.679 509.5704 92.7147 510.2825 94.2153 511.8144 92.8632 513.1922 92.8067 514.0765 91.6373 513.5294 90.4716 516.0861 88.3137 516.5576 85.7609 517.6653 85.3635 517.0956 81.177 515.2779 79.3712 515.8127 78.2892 514.242 77.3567 514.0578 76.1434 512.3989 75.6935 511.3721 71.853 510.6306 71.9775 509.3139 68.9626 510.6961 68.7855 509.4339 65.4773 511.5159 63.6677 511.5262 62.4544 513.3117 60.8394 513.3347 60.8409 524.2915 61.5775 525.8235 61.6797 526.2149 61.7216 527.4965 61.8063 528.3397 61.8765 529.2577 61.935 530.4371 62.0203 537.216 62.4966 537.4917 79.5929 537.3438 113.2002 537.3411 116.6011 537.9517 118.1192 537.5883 120.3307 536.3133 121.3712 533.1735 122.3289 530.993 123.8998 529.2751 126.4296 528.2713 130.6657 525.3228 131.7911 525.0184 134.1826 525.7183 136.1021 527.1746 137.4285 529.4836 138.1153 529.858 140.2275 528.6147 142.0855 527.2343 141.7158 524.7669 143.2468 525.0136 145.7824 523.2645 146.6681 523.8965 149.1842 520.6225 151.5182 519.1998 151.3021 518.8309 153.1765 517.0714 154.1409 516.3322 153.5887 512.6512 153.0884 510.829 151.4817 508.1963 149.9451 506.4616 147.5145 505.8954 145.2731 504.8338 145.4794 504.2263 143.7018 504.643 141.7204 503.5832 142.0019 502.3962 140.826 501.4915 141.2251 Z" id="fips-12023"/>
<path d="M 541.4698 62.8047 546.0529 63.1351 555.1602 63.7991 558.2042 64.025 559.0639 64.108 562.7074 64.3771 562.7096 64.3861 562.755 64.5744 562.319 64.8837 561.8565 65.0286 561.4167 65.2913 560.9324 65.8683 560.5507 67.2442 560.5295 68.1743 560.6207 68.672 561.0592 69.4334 561.2012 70.1501 561.1 70.5712 561.4601 71.4234 561.6591 71.7192 562.3382 72.1582 562.929 72.814 563.5979 73.6433 564.1232 74.4533 564.1754 75.7491 563.7936 76.4227 563.4731 77.4338 563.4932 77.8658 563.648 78.0372 563.7756 78.48 563.8655 79.3657 563.6055 80.2633 563.2537 80.7789 563.2116 81.7731 563.8568 84.5823 565.0308 87.3047 565.354 87.6473 565.9855 87.9151 566.381 88.529 567.2707 89.5852 567.4226 89.6984 567.93 89.8054 568.2884 89.8269 568.6683 89.577 570.214 89.1533 573.0182 88.6705 574.2226 88.5485 574.4662 88.6078 574.5797 88.7607 574.5402 88.9082 575.2835 89.4566 576.7007 89.6914 578.0121 89.6421 578.8982 89.5014 579.9368 89.2555 579.9496 89.249 580.0599 99.9948 580.0747 110.446 580.09 115.7379 570.3523 115.7656 547.6889 116.2573 538.8776 116.4038 537.3411 116.6011 537.3438 113.2002 537.4917 79.5929 537.216 62.4966 537.238 62.4982 541.4698 62.8047 Z" id="fips-12003"/>
<path d="M 437.1263 172.9019 438.5792 172.0664 441.9434 173.0888 442.1018 171.7589 443.556 169.646 444.2607 165.7214 444.1958 163.7051 445.1691 161.6302 446.98 159.5162 447.0855 154.1638 484.8029 154.0561 488.8491 154.2269 487.2945 155.9953 488.8589 157.7912 487.3192 158.7818 485.7581 162.6408 486.9246 163.8451 485.744 166.0399 486.8185 169.1084 485.439 168.7418 484.7202 172.8345 485.4824 173.8241 484.9277 176.5996 483.2313 178.3559 483.3625 180.2561 485.1191 183.039 486.967 182.3715 486.2123 183.4431 485.6103 186.606 482.8753 188.3861 483.5557 190.6811 482.2878 191.2399 481.9505 196.8752 480.2117 197.9393 477.5292 203.0157 477.8501 205.5267 476.4776 206.8563 473.3353 208.7171 473.5744 210.0293 472.643 210.9859 473.8541 211.5249 470.6962 213.5264 469.813 213.0244 469.2019 214.4018 467.6147 215.3942 465.5071 214.5557 464.6034 216.5103 462.6847 218.7815 462.3185 218.6009 461.5826 215.7116 461.4329 214.0552 461.5823 213.8926 461.7351 212.0296 460.2685 209.7567 459.1056 208.4874 458.9388 206.0004 457.3147 202.8386 454.9638 201.2892 452.4969 200.9543 451.6459 201.3773 449.2586 200.6749 447.9792 198.0392 447.9105 196.9255 447.5256 196.1002 446.299 195.9552 445.4649 196.0932 443.4857 194.4143 442.796 193.1346 441.3689 193.1233 440.4294 192.6737 439.9425 191.5291 438.2347 191.0019 438.1042 190.2697 438.2953 189.0927 437.7717 183.616 437.8093 181.5313 438.4145 179.435 437.96 176.0662 437.1263 172.9019 Z" id="fips-12029"/>
<path d="M 513.8284 322.4026 517.9505 322.3645 537.8345 322.3982 559.038 322.2586 559.1939 316.9432 580.1486 316.9466 580.1087 332.988 580.0878 336.9653 580.1375 343.4766 574.7418 343.4536 574.8059 354.0415 558.4074 354.0951 544.1009 354.1293 542.3409 354.1351 540.0049 354.1502 536.9117 354.0601 535.5406 354.0454 516.6969 353.861 514.4614 353.8499 511.5971 353.852 500.2936 353.9486 501.0813 352.0644 504.834 348.3016 504.6409 348.1734 504.6875 345.239 505.2266 344.0711 506.6009 343.208 508.0371 339.4959 507.7556 338.4729 508.1896 335.4901 509.6036 333.4035 509.8599 333.0253 510.8996 330.3013 510.8872 326.2797 511.8378 324.0045 513.2535 323.0585 513.8284 322.4026 Z M 497.2078 353.9754 495.7459 353.9931 495.2631 353.9219 495.0478 353.924 494.9795 349.0361 495.4829 348.4698 496.9169 349.3439 497.2078 353.9754 Z" id="fips-12101"/>
<path d="M 516.6969 353.861 535.5406 354.0454 536.9117 354.0601 540.0049 354.1502 542.3409 354.1351 544.1009 354.1293 558.4074 354.0951 574.8059 354.0415 580.0905 354.0341 580.0853 361.0863 580.1449 369.0279 580.2602 380.4736 580.283 383.5779 580.2832 383.5894 580.331 385.9293 580.4782 417.5186 537.7119 417.6309 530.1074 417.6848 530.0863 417.6848 526.9317 417.697 528.7835 414.3582 530.1457 412.1678 531.2364 410.4135 533.311 408.7985 533.5822 408.7759 534.6424 408.6878 535.1575 408.3112 535.3014 407.4742 535.2127 406.8351 534.6595 405.9364 535.084 405.5014 537.3091 404.7384 539.7601 403.3148 540.0441 402.8631 539.8303 402.1385 541.4257 399.7599 541.4969 398.6213 542.3057 397.6929 543.1589 397.4749 544.1598 394.5059 544.1715 394.4713 543.7352 392.7656 543.1843 389.022 541.977 386.7496 540.0112 386.7615 539.4553 386.5589 537.9524 386.0109 537.0526 385.5157 537.0956 384.875 536.8327 384.4922 535.1259 383.571 533.8699 384.5469 533.7306 385.1633 534.1243 387.5205 534.0535 391.3202 534.8992 392.5682 535.8086 393.2823 536.106 393.7717 535.7199 396.2779 535.4169 396.4673 533.8587 396.271 531.5774 395.6156 527.0099 393.1394 527.1218 391.4182 528.6503 391.1542 529.2281 390.4537 529.5816 389.6321 528.5781 388.7245 528.2049 388.0472 528.3197 387.672 528.9537 387.1536 529.4352 386.4409 529.1824 382.9233 528.3835 380.9885 527.0299 378.8112 524.6724 378.5149 519.3748 374.7982 517.7324 372.7799 516.9426 372.3501 516.9428 370.1363 516.7501 357.2866 516.6969 353.861 Z" id="fips-12057"/>
<path d="M 580.0878 336.9653 583.8357 335.6254 586.5895 336.3241 587.5443 337.8447 590.5201 337.4026 590.5211 333.0155 601.1729 332.8762 601.1522 330.9539 608.2508 330.9231 608.2773 332.7875 622.4742 332.6238 622.5464 342.6065 622.5487 343.2467 633.1663 343.1584 633.826 344.4008 636.7711 350.1859 636.8071 357.222 642.5764 357.1207 642.6277 357.1228 644.0554 357.1233 644.1592 364.1667 655.8185 364.0924 655.8121 365.2657 653.6678 366.8951 654.022 369.7816 652.7407 370.7929 652.0473 372.8693 650.805 370.9861 649.537 370.8834 646.6762 369.1789 645.4984 367.2641 643.784 368.1886 643.8755 369.6226 645.8569 370.3204 647.558 372.893 648.545 374.6139 651.6002 373.9659 652.7193 376.9869 655.5816 378.7139 657.0037 380.4152 656.808 382.6223 660.0183 383.7364 659.3771 386.2367 660.3335 388.0494 660.8134 390.9576 663.013 391.4943 665.4 392.8603 668.5062 393.2695 670.8776 395.8118 672.1769 399.4682 674.7113 403.2232 674.1277 404.1425 675.549 405.2495 675.2037 407.2674 677.6599 409.1106 677.3567 411.3502 677.8811 414.0327 679.2311 415.0199 679.2834 416.4831 678.1489 417.2399 636.6332 417.2256 633.032 417.2245 580.4782 417.5186 580.331 385.9293 580.2832 383.5894 580.283 383.5779 580.2602 380.4736 580.1449 369.0279 580.0853 361.0863 580.0905 354.0341 574.8059 354.0415 574.7418 343.4536 580.1375 343.4766 580.0878 336.9653 Z" id="fips-12105"/>
<path d="M 185.6465 43.042 188.0432 38.8015 187.0328 37.3602 188.335 32.5278 191.5916 32.6711 195.5558 32.8442 195.4994 34.5501 197.2464 34.6486 197.0456 38.1378 209.1765 38.7703 209.148 35.6156 210.9959 32.4559 211.454 28.357 223.6452 28.8009 223.4546 34.066 228.6842 34.2513 227.8583 53.6468 227.7148 60.5559 222.3543 60.418 221.7546 76.1801 183.7349 74.7119 181.9041 77.1804 180.451 78.288 177.973 78.7519 176.5664 77.5009 174.5904 78.3142 172.026 77.9864 170.2004 80.1704 169.0549 80.4832 169.8251 76.373 172.2687 74.461 175.4608 73.9565 177.2093 74.7794 178.7828 74.179 180.118 70.9193 181.2813 71.4721 183.2654 68.7145 182.4773 66.7002 181.1745 66.8521 180.576 65.035 181.4254 60.6763 180.5444 60.2191 179.9252 56.9897 177.8278 55.6672 178.6878 53.6071 178.0567 50.8173 180.6806 48.5398 183.1425 47.8039 182.3245 45.7714 185.6465 43.042 Z" id="fips-12133"/>
<path d="M 368.5442 98.8233 368.918 79.4132 372.4659 74.7211 372.5651 68.8796 379.1992 68.9277 379.0824 65.4893 377.1103 62.818 376.1984 58.3697 376.3305 50.7863 389.5251 51.7144 389.5352 51.7116 389.6027 51.7168 392.1321 51.9146 395.698 52.1744 396.7729 52.2754 403.7215 52.7759 410.669 53.2723 410.9511 53.2943 417.4333 53.7827 417.4359 53.7829 418.1802 55.3618 418.1303 62.1649 416.4091 62.14 416.3423 63.9066 414.6614 63.875 414.6348 65.6627 411.1272 65.6034 411.1117 67.3962 407.654 67.3505 407.6261 69.1711 405.3694 69.1551 404.2109 71.0007 405.147 73.1045 405.0331 77.4103 405.6943 79.8624 402.5974 83.0609 401.9206 85.7272 398.67 86.0843 397.9866 85.6083 396.7496 87.3329 396.991 89.5824 398.7302 92.1908 398.1021 93.7134 395.2171 94.3887 395.2325 95.5493 393.3807 98.2794 391.3515 99.1549 388.7666 99.8133 386.5647 102.2095 385.1657 102.4822 384.9019 106.1204 383.4902 109.2314 381.3664 109.5476 380.3648 113.6292 379.0267 114.3806 379.4735 115.5787 376.9448 120.3747 376.9846 121.8602 376.0528 120.3629 373.6021 119.4768 371.047 119.4498 369.5515 119.6504 368.1767 120.3461 368.5442 98.8233 Z" id="fips-12065"/>
<path d="M 417.4359 53.7829 429.0503 54.5679 434.348 55.0088 435.2703 55.0635 436.3552 55.1364 436.3663 55.1337 440.4628 55.4319 441.5647 55.5197 443.8331 55.6979 445.5609 55.8333 448.613 56.0702 448.8408 56.0913 448.8685 56.0934 452.7053 56.3843 454.2989 61.9546 453.658 62.5837 454.34 65.188 453.8327 65.9836 455.2721 67.5399 456.0194 70.5549 455.5352 75.6226 457.3954 76.2528 458.2399 77.7281 457.7732 81.645 459.2848 82.8017 460.5137 82.4477 462.1216 83.2693 463.0472 86.2928 460.8099 87.5324 460.1663 90.738 458.6552 91.2037 458.9228 95.1277 457.024 96.6315 454.982 101.288 442.4533 101.2222 431.8041 101.1436 431.9057 95.8449 395.2325 95.5493 395.2171 94.3887 398.1021 93.7134 398.7302 92.1908 396.991 89.5824 396.7496 87.3329 397.9866 85.6083 398.67 86.0843 401.9206 85.7272 402.5974 83.0609 405.6943 79.8624 405.0331 77.4103 405.147 73.1045 404.2109 71.0007 405.3694 69.1551 407.6261 69.1711 407.654 67.3505 411.1117 67.3962 411.1272 65.6034 414.6348 65.6627 414.6614 63.875 416.3423 63.9066 416.4091 62.14 418.1303 62.1649 418.1802 55.3618 417.4359 53.7829 Z" id="fips-12079"/>
<path d="M 452.7053 56.3843 461.53 57.0489 462.8794 57.1517 464.0338 57.2253 464.776 57.2771 466.8154 57.4732 467.3542 57.5249 493.6216 59.4068 493.7797 59.4145 512.3328 60.7719 512.3623 60.7767 513.3117 60.8394 511.5262 62.4544 511.5159 63.6677 509.4339 65.4773 510.6961 68.7855 509.3139 68.9626 510.6306 71.9775 511.3721 71.853 512.3989 75.6935 514.0578 76.1434 514.242 77.3567 515.8127 78.2892 515.2779 79.3712 517.0956 81.177 517.6653 85.3635 516.5576 85.7609 516.0861 88.3137 513.5294 90.4716 514.0765 91.6373 513.1922 92.8067 511.8144 92.8632 510.2825 94.2153 509.5704 92.7147 508.1273 93.679 507.2585 94.6862 505.5675 93.0589 502.9033 93.8774 502.2731 92.3034 501.7467 91.4273 500.5713 92.2959 498.3623 91.1134 497.0802 91.8079 495.7643 89.7075 493.1619 88.8822 491.9889 87.7238 492.4699 86.3552 490.69 86.0921 490.4572 87.0273 484.4206 82.5104 482.6945 82.3203 480.6877 81.0587 480.1103 81.8513 477.3278 80.863 472.9867 81.4538 472.1415 79.9626 468.1785 80.5995 466.8711 82.2171 464.7159 82.4382 464.3687 84.4526 463.0472 86.2928 462.1216 83.2693 460.5137 82.4477 459.2848 82.8017 457.7732 81.645 458.2399 77.7281 457.3954 76.2528 455.5352 75.6226 456.0194 70.5549 455.2721 67.5399 453.8327 65.9836 454.34 65.188 453.658 62.5837 454.2989 61.9546 452.7053 56.3843 Z" id="fips-12047"/>
<path d="M 462.6847 218.7815 464.6034 216.5103 465.5071 214.5557 467.6147 215.3942 469.2019 214.4018 469.813 213.0244 470.6962 213.5264 473.8541 211.5249 472.643 210.9859 473.5744 210.0293 473.3353 208.7171 476.4776 206.8563 477.8501 205.5267 477.5292 203.0157 480.2117 197.9393 481.9505 196.8752 482.2878 191.2399 483.5557 190.6811 482.8753 188.3861 485.6103 186.606 486.2123 183.4431 486.967 182.3715 495.4513 182.3915 504.2471 183.1991 505.9308 184.0741 505.9684 185.9129 516.4999 185.6556 516.4893 189.1836 526.8771 188.9607 526.984 192.0578 526.9523 195.9165 533.3118 196.1262 542.7523 195.3226 542.8729 210.3039 543.1099 227.8873 539.226 227.9344 529.223 227.9943 529.1238 248.5216 524.7476 250.5458 522.9889 250.3046 522.0857 252.3083 520.9725 252.8117 516.7432 251.1401 514.3362 250.7529 512.8225 249.8107 510.4725 250.1831 508.7717 252.1141 505.8771 253.6724 505.5056 254.7095 505.3316 254.7319 504.9635 253.9306 505.4605 253.0966 506.0875 250.6957 505.4431 247.3461 502.9508 246.0782 503.2469 244.9959 499.4059 244.665 498.7041 241.9203 500.2037 241.2342 501.0823 241.1787 501.301 240.5093 501.328 240.0431 500.6132 238.1861 500.7222 236.1587 498.369 234.7243 495.0873 234.2471 492.0225 234.2998 488.2898 233.314 487.2553 233.5366 485.894 233.539 482.7954 233.1515 482.2844 233.0394 481.483 232.0351 481.0094 231.9639 480.5339 232.2747 478.1882 235.4852 478.0912 236.7047 476.8848 237.581 474.4803 237.9532 474.1041 236.0868 472.9072 235.2497 473.69 233.0995 473.6707 232.4764 473.2458 231.4616 471.804 229.9482 470.8834 227.5889 472.2876 223.7826 472.0257 222.892 470.7947 221.5348 468.8495 221.2351 466.9494 220.0206 466.6929 219.5491 464.7561 218.7564 464.4066 218.6849 463.2481 219.0593 462.6847 218.7815 Z" id="fips-12075"/>
<path d="M 707.1332 395.2296 745.5828 394.7355 747.4442 390.7718 751.3086 390.7047 752.1316 389.9521 752.1235 390.0761 759.1425 404.4285 762.7581 416.1443 762.9114 417.8658 763.5976 419.321 765.0714 421.5543 765.799 424.9704 766.1901 426.3901 763.2826 426.456 727.7847 426.8679 717.3566 426.9819 717.1275 416.7753 706.9488 417.019 706.0707 405.9804 705.7776 395.2482 707.1332 395.2296 Z" id="fips-12061"/>
<path d="M 633.6421 491.3033 665.4365 491.1869 665.2897 480.478 675.9808 480.2951 675.7836 469.6797 698.0632 469.2873 700.3428 469.8437 702.8604 471.7443 704.0099 471.832 703.6648 473.5488 705.794 474.8166 707.061 474.1977 707.8884 475.9118 706.6192 499.6195 700.4523 522.6408 647.6119 523.1938 647.6275 521.4351 644.98 521.4431 644.9828 523.2218 633.4886 523.2225 633.6421 491.3033 Z" id="fips-12043"/>
<path d="M 514.9441 290.8733 532.0683 290.8543 541.5102 290.8358 541.5702 294.3366 557.9818 294.1174 556.7349 295.5012 558.6158 296.3736 558.2258 297.7855 562.3872 303.1043 563.4204 305.4216 564.9969 305.2433 568.3657 306.6388 569.3428 305.4958 571.2706 306.4385 572.0549 308.7495 574.3137 309.0518 575.6236 311.2826 578.7396 310.5393 580.1572 311.7523 580.1486 316.9466 559.1939 316.9432 559.038 322.2586 537.8345 322.3982 517.9505 322.3645 513.8284 322.4026 513.9247 322.2927 514.2512 321.376 513.6591 319.5327 514.5098 318.6217 515.2965 316.2434 515.3598 315.7172 515.158 314.6842 514.7599 314.2677 514.8424 311.9578 514.9908 310.9524 515.4517 310.7123 515.5621 310.4517 516.1999 308.9464 515.6665 308.3495 515.676 307.8176 516.1679 306.1402 516.4827 303.3837 515.4341 301.4779 514.3192 296.5189 514.9441 290.8733 Z" id="fips-12053"/>
<path d="M 618.7007 118.2088 621.8057 118.1533 624.5872 116.6733 629.0816 117.5544 630.458 118.5491 633.4648 118.2675 633.5113 120.224 644.4807 119.9237 644.0004 102.1896 644.6397 102.1957 649.956 102.0701 652.5928 112.9644 657.6883 136.2557 659.1716 141.1757 659.8487 142.7929 661.1667 144.5595 661.8264 146.6505 662.4588 149.6529 662.5398 151.6824 662.6399 154.1891 662.6636 154.3277 662.7716 154.9572 663.3843 158.5291 665.0959 164.0086 666.3759 166.9601 668.1247 172.2638 666.6095 172.2944 664.5283 173.6979 662.905 172.8542 660.8774 174.7814 659.2366 174.7111 657.9601 175.8031 656.4388 174.4522 656.5004 177.8198 635.5324 178.3757 635.3206 166.3937 635.2408 161.8125 633.5519 160.5554 630.8696 156.5983 629.2972 152.1046 629.0576 151.5769 627.4004 147.8581 626.3873 142.998 627.3126 140.2842 626.7762 137.3502 624.6088 135.0489 619.7439 131.9777 618.51 130.843 617.6894 127.6892 618.7423 122.3918 618.7007 118.2088 Z" id="fips-12109"/>
<path d="M 751.7694 711.4475 751.1131 710.2113 752.6508 710.5502 751.8555 708.1499 753.1 708.4114 756.5884 706.4895 760.0692 706.9068 760.9033 704.8221 762.654 704.7844 762.6025 702.4434 764.3156 700.6134 764.2966 698.4365 764.5886 698.4344 764.5171 698.88 765.766 700.8877 768.7706 700.2687 773.9718 696.6494 775.925 693.0987 776.1195 692.6276 776.6036 692.3799 776.9424 692.4107 777.5928 692.7974 777.9212 693.5279 778.1341 693.7694 774.7122 700.1298 770.0875 708.2457 766.8539 716.8209 761.5951 722.8089 757.0806 726.6209 752.3828 732.2533 743.8501 741.2695 734.4994 748.2112 733.3038 746.9532 740.839 739.8161 746.6856 734.1755 751.8838 729.887 754.8608 724.4065 755.6094 719.5113 755.5824 715.9767 757.5239 712.6253 755.1249 710.2761 751.7694 711.4475 Z M 724.2618 753.1947 726.7149 751.3392 729.3504 748.1326 730.0124 746.8377 730.5825 748.0049 731.6521 750.2286 729.7308 752.8579 726.4976 754.855 724.2618 753.1947 Z M 713.4569 759.8004 713.5008 758.0229 715.3181 757.3486 717.1245 755.7632 719.7707 754.8649 721.1151 755.2567 720.2943 757.2346 720.0585 758.0135 719.4575 758.7272 716.7836 760.0622 713.9707 759.8821 713.5163 759.9324 713.4569 759.8004 Z M 683.521 771.8045 687.9324 769.6549 692.6081 767.3435 698.3939 765.2399 704.0294 762.1769 707.183 763.1169 706.4104 765.2718 694.5939 770.5028 688.7518 773.817 685.531 773.9962 683.521 771.8045 Z M 644.8531 639.8563 658.3806 639.7425 709.6311 638.9406 709.6907 644.3127 709.8208 655.7469 710.2385 692.2251 711.4392 692.1856 712.0675 706.8064 712.1604 714.8184 712.1406 714.8227 710.2526 715.1191 707.5783 716.6359 707.4198 717.6312 707.7241 718.3698 707.5526 719.3354 705.8716 719.1594 702.895 720.0237 701.3387 719.8904 699.7723 720.12 696.7858 721.3303 695.644 721.2012 694.1739 720.7367 691.1648 720.9062 687.9644 722.0856 686.35 721.1068 684.4227 718.9052 683.466 718.091 682.0447 717.6242 681.2203 716.719 681.0614 714.4116 680.5623 713.1932 679.5892 711.3979 677.7624 709.7056 677.8604 706.8585 678.1365 705.972 678.777 701.541 679.0706 700.4804 679.8268 699.6339 680.1824 698.1184 679.8469 697.3133 680.2543 696.3401 681.1191 695.3262 681.7926 695.0923 683.1631 695.5902 683.5053 694.8056 683.5969 693.6297 682.3413 690.5579 680.9314 690.4706 679.9297 689.7693 679.8999 688.327 680.2775 687.7084 680.3152 687.3121 677.8626 680.5446 676.6763 679.1589 675.3002 678.048 673.5025 675.6284 673.277 674.1878 674.0187 672.0952 673.8811 671.5233 673.3327 670.3573 671.5517 669.1847 670.7564 667.394 670.7045 665.7983 669.8772 664.3027 666.4858 662.4881 666.3159 659.6377 664.4866 657.2405 664.3579 653.6738 661.993 651.8355 659.134 653.0707 657.7959 653.4524 657.1913 651.8042 657.2473 648.7608 654.2871 646.2821 654.0924 642.9891 650.7595 642.1987 649.704 640.9767 644.8531 639.8563 Z M 608.1681 789.0856 609.4954 786.0128 613.6562 780.2176 615.375 778.0556 623.4027 773.2284 633.0105 768.6809 634.4723 766.2994 638.3153 765.1112 642.461 761.8719 648.4333 759.3172 655.6672 763.0198 661.465 764.7855 663.6794 766.2045 665.1162 771.5795 670.548 775.9332 668.9677 777.1171 662.9037 779.2314 657.4232 781.2448 653.1681 782.176 651.9778 779.3891 648.5343 779.9063 644.8638 779.5763 641.493 779.994 640.4777 782.5542 635.8957 783.9947 630.1248 786.9281 626.584 788.2369 624.2755 788.4515 622.0752 790.2236 612.1879 791.2764 608.0876 791.8932 608.1681 789.0856 Z M 585.8365 792.2741 590.0159 791.6078 596.4126 789.8886 599.9358 788.7005 601.2463 789.7376 599.8145 791.1779 597.2121 794.1875 590.5515 795.6477 585.7132 794.8821 585.8365 792.2741 Z M 569.3916 789.869 570.8999 788.3033 571.7319 786.2435 572.5722 785.8214 573.6882 785.7529 576.0077 786.8531 576.3534 787.2837 576.5363 788.7494 575.9883 790.1203 574.6327 791.5736 569.9432 791.6966 569.3082 791.2219 569.3916 789.869 Z M 484.8657 781.4019 486.7157 780.9899 490.7462 780.1234 492.5594 782.4379 489.1656 784.0259 484.7272 783.4861 484.8657 781.4019 Z" id="fips-12087"/>
<path d="M 442.4533 101.2222 454.982 101.288 454.3573 103.9352 455.6962 105.2973 454.6337 108.5384 454.7468 110.5586 456.3918 112.407 455.7912 114.4228 457.2391 116.4546 457.1088 119.1068 458.5117 120.3366 459.6746 120.0301 461.3592 121.4428 463.9129 119.5739 466.8519 121.1386 468.5202 120.2966 469.0651 121.8881 473.4086 123.082 473.7139 125.0024 476.3251 126.322 479.2618 129.0494 480.3054 131.6318 482.9805 132.2102 484.4903 133.7961 484.7662 135.96 485.7836 137.9992 487.8553 138.1193 488.9126 141.4261 488.3486 142.48 490.249 145.2907 491.5699 145.0402 493.1594 146.6669 493.5881 149.1242 492.0437 151.704 491.7068 153.913 488.8491 154.2269 484.8029 154.0561 447.0855 154.1638 443.5198 154.1848 443.5717 146.253 441.6956 146.229 442.2425 110.068 442.443 108.3933 442.4533 101.2222 Z" id="fips-12067"/>
<path d="M 633.032 417.2245 636.6332 417.2256 678.1489 417.2399 677.9065 420.4157 678.1751 422.6837 676.8001 423.5163 674.4198 427.6172 673.0637 427.7571 670.5661 431.1197 672.2791 433.36 671.56 435.7994 673.9087 436.5573 675.5156 439.4739 677.0536 440.111 678.7406 442.5196 678.4388 444.6217 680.2737 447.3915 683.1662 449.1122 683.9925 448.5309 686.3865 448.6853 688.3743 450.0755 688.2638 451.0003 690.063 451.4462 690.1099 453.0545 688.8369 454.0725 690.0023 455.2205 691.187 458.3654 693.3957 458.315 694.0852 459.1365 694.0366 463.0324 694.6995 464.5485 695.9949 465.0045 695.8901 466.8017 697.1109 468.4893 699.086 467.5892 700.3428 469.8437 698.0632 469.2873 675.7836 469.6797 675.9808 480.2951 665.2897 480.478 665.4365 491.1869 633.6421 491.3033 633.632 491.2855 633.2272 454.2092 633.032 417.2245 Z" id="fips-12055"/>
<path d="M 541.4826 142.3833 544.4471 142.0837 546.5808 140.8995 547.7089 141.1531 548.9243 140.1291 549.5112 137.7504 551.2775 138.4389 553.2184 138.3283 556.7168 133.1736 558.0988 129.6859 561.6907 128.9349 563.5699 126.7021 565.7856 125.2321 566.7116 123.9745 567.5302 121.0524 569.8637 119.77 570.8449 117.6691 570.3523 115.7656 580.09 115.7379 580.1466 126.2783 580.5877 163.5906 580.2697 167.0309 579.6 167.0858 579.3323 163.482 576.8056 161.6143 577.0896 160.111 573.9633 159.2636 572.3902 156.584 572.3984 154.3608 571.4298 152.8811 567.227 152.7659 565.4348 151.4266 560.9015 151.7712 559.9633 150.907 556.8075 152.0527 552.4701 150.0088 550.1578 147.7278 546.0652 147.6589 543.5739 146.7064 542.7502 143.4757 541.4826 142.3833 Z" id="fips-12007"/>
<path d="M 635.5324 178.3757 656.5004 177.8198 656.4388 174.4522 657.9601 175.8031 659.2366 174.7111 660.8774 174.7814 662.905 172.8542 664.5283 173.6979 666.6095 172.2944 668.1247 172.2638 668.2671 172.6953 673.4511 186.1547 677.7311 195.8788 680.1072 201.5837 675.1936 202.8772 674.4484 203.5901 674.8829 211.3735 675.2478 221.1083 670.4295 221.2997 662.7763 221.5682 647.0802 221.9523 646.5744 205.2169 645.1806 205.3604 643.3251 206.3906 640.665 205.638 639.6803 202.3097 639.5861 199.7238 636.597 194.8546 635.9673 193.1399 635.5324 178.3757 Z" id="fips-12035"/>
<path d="M 230.4712 138.3641 230.4967 126.4801 231.2374 104.9474 231.9285 104.9202 259.8273 105.7445 257.8995 107.9002 257.1967 110.0936 257.8399 112.2535 256.5527 114.9558 258.0795 115.4419 256.0802 116.4744 256.4815 117.8245 255.5109 118.6916 257.2872 119.4461 257.3303 124.6281 259.5268 127.1069 262.4775 128.1983 263.8424 129.4245 265.7061 129.8906 266.0306 131.1417 268.2259 131.6932 268.6107 133.5659 269.3391 136.0507 265.4784 140.883 265.6875 142.9675 266.6959 145.0731 267.4746 150.6241 268.6241 151.478 268.6736 153.3938 267.0113 155.171 266.6266 156.6374 263.5662 156.0507 262.419 157.9412 259.2759 156.8826 248.9365 164.5767 247.1755 167.1477 246.8697 168.5309 243.2381 168.0564 239.9927 167.6423 236.9982 167.8829 234.4095 168.9671 233.9655 169.5383 233.4284 170.4201 231.7312 167.8081 230.6438 165.6732 228.9329 160.5518 227.4309 153.3375 227.1046 149.8248 227.2971 148.1646 227.6409 146.9266 228.4938 145.3913 230.4984 143.9024 230.3381 147.913 230.1267 151.2726 230.2856 154.7671 231.048 159.0259 232.1595 164.2929 233.1151 165.9387 234.844 166.6049 236.6077 165.899 238.5168 162.6357 239.2238 153.9591 239.1251 152.6298 238.8948 152.2613 238.2193 151.8489 237.9159 150.8858 237.9164 149.883 238.1177 149.6826 237.661 148.8712 236.8896 148.1184 236.1301 147.9865 235.6834 147.5658 234.6655 144.7986 233.0022 141.502 230.8736 138.7859 230.4712 138.3641 Z" id="fips-12045"/>
<path d="M 579.9491 523.3804 594.0545 523.3789 594.0798 523.379 633.4886 523.2225 633.4995 530.4723 633.7142 543.6672 633.9165 553.5565 633.9275 554.178 634.171 565.1338 623.7616 565.3876 623.8838 577.8942 614.321 578.031 613.4286 578.0531 606.428 578.1507 606.4094 576.438 603.5153 576.4575 600.9829 570.638 598.9237 568.4097 597.4019 566.7623 597.3128 566.1224 596.3333 564.7977 595.0408 563.6554 593.4352 562.6469 591.4623 561.7726 590.6373 561.0993 590.3215 560.5085 590.4179 560.2423 590.0564 558.8606 588.8425 558.3272 587.0773 557.8623 585.7848 557.9638 585.2717 557.1468 585.764 555.4086 585.0826 552.555 582.2821 553.0521 582.2415 552.9891 580.4492 550.2059 580.3578 550.3814 579.3589 552.3004 579.4797 554.4555 580.5958 556.8086 578.9887 556.9575 576.5032 558.0061 575.3213 558.0092 574.6211 551.1342 573.8694 548.7049 573.4915 546.483 571.7984 539.4709 570.4897 537.4592 567.0675 534.1318 567.2505 532.3252 567.9323 531.6987 570.2912 531.4159 571.6574 531.5519 573.0864 531.9654 573.8338 533.0056 575.2066 535.8505 575.8912 536.4045 576.6356 536.0552 576.7755 535.5669 577.3129 533.6915 577.4938 531.6069 578.0481 529.8688 579.4676 526.7386 579.9491 523.3804 Z M 558.1235 532.1177 559.0487 531.5196 559.1148 530.9488 560.0463 531.156 560.4828 532.6143 560.1111 533.3094 560.0498 533.9348 561.0357 536.5264 563.1052 540.8208 563.5423 543.6549 565.4773 548.8614 566.4787 552.7494 567.5413 555.8038 568.7882 557.3295 570.5951 558.7843 572.5237 558.8495 573.7689 559.2632 577.1962 561.4773 578.4372 560.1542 579.9912 559.6636 582.6088 561.2534 585.0766 561.4931 585.2818 561.5649 585.261 561.8307 579.9448 565.0605 578.6576 565.4749 577.8024 565.4772 576.1561 565.1312 573.0619 563.7713 570.6711 561.4598 568.0493 559.9913 567.6047 559.521 567.2034 558.9541 565.5956 557.1005 563.1426 550.2959 562.1114 548.1142 560.4373 545.1632 559.4032 539.9015 557.9877 537.3365 558.272 535.1512 557.7308 534.0157 558.1235 532.1177 Z M 557.3181 521.1208 558.0759 521.1305 560.4553 521.5733 561.3964 521.8762 562.6388 522.0233 562.9004 523.5764 561.7522 523.3511 560.4872 523.93 559.6757 524.3284 559.3549 529.7966 557.7845 529.4985 558.0798 525.0687 557.5561 521.7057 557.3181 521.1208 Z" id="fips-12071"/>
<path d="M 595.0961 33.8149 595.4026 33.7116 595.7829 33.7781 596.0762 33.9979 596.2465 34.3985 597.141 35.7017 597.7509 36.3764 598.6139 37.1892 600.2725 36.9782 600.9332 37.4451 601.3743 37.857 601.5495 37.9451 602.9355 37.6306 604.8542 37.4906 605.0494 37.5296 606.4945 38.1565 607.3761 39.4616 607.5548 39.9019 607.9178 40.1265 608.3487 40.0919 608.5982 39.945 608.8187 39.588 609.0541 39.4088 609.5547 39.4223 609.9754 39.7151 610.4204 40.0821 610.8151 40.2293 611.201 40.303 611.3323 40.3704 611.4655 40.4725 611.5548 40.6135 611.6334 40.8059 611.6708 41.0907 611.7085 41.1763 612.807 42.3258 613.3389 42.6489 614.0886 42.9226 616.6984 42.4506 616.9033 42.6081 617.0093 42.9831 617.0962 43.1215 617.3118 43.2902 618.9866 43.5819 619.2661 43.4232 619.3483 43.2898 619.4546 42.8894 619.5514 42.766 619.8351 42.6508 620.087 42.6587 620.6732 42.8251 620.8826 42.9707 621.1344 43.1457 621.1777 43.4113 621.136 43.9656 621.1793 44.3716 621.3196 44.6825 621.4505 44.8045 621.7686 44.9348 623.1042 44.6832 623.4818 44.3421 623.95 44.2653 624.2808 44.4841 624.3972 44.683 624.5269 45.2482 624.7319 45.5854 625.5818 45.7418 625.7706 45.5933 625.9704 45.1797 626.146 44.943 626.4366 44.8379 627.2242 45.1565 627.9353 45.3599 629.2978 45.5195 629.5374 45.6024 630.0813 46.0576 630.5523 46.3247 631.5008 46.1517 631.8529 46.2702 632.0886 46.465 632.3231 46.5088 632.5317 46.5527 632.714 46.5816 632.8832 46.5652 633.0514 46.4581 633.2707 46.2146 633.3754 46.022 633.4235 45.7901 633.552 45.5774 633.785 45.4245 634.0186 45.3622 634.7323 45.4564 635.2833 45.4885 636.2075 45.3971 638.0413 45.001 638.2704 45.0016 638.641 45.2632 639.4848 46.3604 639.8143 46.532 640.6617 46.7992 641.1286 46.8694 642.2999 46.9906 642.7769 46.9432 643.9685 47.7425 644.525 48.3416 644.1995 51.8023 642.9964 60.0813 643.0995 65.6071 644.0183 69.5404 643.1235 71.0758 642.2781 69.9568 639.2311 68.2633 637.1573 64.6141 635.6512 64.1973 634.6417 65.5336 634.9123 67.65 634.0014 69.1681 632.673 69.4678 631.3805 66.9837 629.0996 67.7839 627.8826 66.2905 628.4493 64.5928 627.5236 64.4981 625.6507 65.833 625.2216 64.869 626.5502 64.2221 625.7887 63.3541 626.2077 62.1467 624.1354 61.9951 621.587 63.1515 619.7764 66.1943 619.4832 64.7947 616.5472 64.0463 615.8199 64.7754 614.0533 63.794 612.6365 65.3508 612.6499 67.3915 611.4374 68.7656 609.6828 68.2802 609.5303 70.2714 607.8429 72.105 606.457 71.8621 604.9491 74.3908 602.6992 76.4677 591.8832 87.8056 581.2768 98.7799 580.0599 99.9948 579.9496 89.249 580.1609 89.1427 580.9062 88.3076 581.3121 87.373 581.4086 86.4783 580.852 85.084 580.7634 84.308 580.8469 83.4983 580.9696 82.9768 581.5883 81.9989 581.5382 81.3115 581.2494 80.5308 581.3527 80.0542 581.99 79.2798 582.182 78.9719 582.4648 77.7196 582.6404 76.5672 583.2576 75.6238 583.3391 75.1768 583.3026 74.1066 583.2044 73.5697 583.4456 73.1565 583.5551 71.0407 583.4429 70.4181 583.3212 70.2745 583.1238 69.7352 583.1735 68.8462 583.7012 66.5605 584.501 64.9385 584.2231 63.3058 583.7978 61.2831 583.42 60.3263 583.3369 60.2324 582.2493 59.7926 582.2078 59.7236 582.288 58.9287 582.0808 57.8994 581.513 56.9622 581.1286 56.5203 580.8845 56.0531 580.9712 55.5711 580.918 55.3083 580.6372 54.5671 580.2367 54.2887 579.8824 53.833 579.7782 51.3306 580.668 49.3818 581.2221 47.6638 581.0991 46.208 580.932 45.6603 580.7384 45.4312 580.4472 44.8812 580.7183 44.3239 580.8357 43.9249 580.8723 42.6952 580.941 42.5096 581.2523 42.2989 581.5972 42.337 582.0382 42.2985 583.1254 41.7778 583.6689 41.0482 583.7785 40.8264 583.1204 39.2919 582.4782 38.4108 582.4962 37.9845 582.5976 37.8264 583.1999 37.3816 584.1532 37.2239 584.4541 37.367 585.4952 38.0484 585.9247 38.5859 586.1591 38.7729 586.9221 39.1674 587.152 39.2091 587.1638 39.2036 587.6916 38.9569 588.8588 36.7737 588.9135 36.3004 588.8627 35.3346 588.8293 34.7072 588.8857 34.1798 589.135 33.7963 590.167 33.0284 590.8541 33.0329 591.3518 33.235 591.6591 33.791 591.7414 33.8761 592.8025 34.2172 594.2072 34.414 594.689 34.2759 594.951 34.0367 595.0961 33.8149 Z" id="fips-12089"/>
<path d="M 222.5762 8.547 223.58 8.5545 248.8976 8.7183 258.1265 8.9384 258.3577 8.9438 258.3717 8.9376 259.018 8.9757 268.1565 9.1937 268.4392 9.1999 268.7201 9.2061 270.8868 9.2459 270.9953 9.2476 271.264 9.2514 271.6164 9.2577 273.8665 9.3064 273.9285 9.3078 273.924 9.7435 273.8099 10.9702 273.4385 11.8192 273.431 12.1529 273.51 12.4368 273.6182 12.5884 274.0361 12.8731 274.0473 12.8371 274.2743 12.8782 275.2617 13.1894 275.5895 13.3535 275.8223 13.588 276.0588 14.1124 276.1042 14.3912 276.0922 14.9105 275.8012 15.8465 275.7063 16.3639 275.6285 17.0387 275.6742 17.3055 275.9273 17.5645 276.4815 17.8058 276.9093 18.1291 277.058 18.8813 277.3246 19.4547 278.3962 20.6492 278.7753 21.2975 279.0416 21.8952 279.753 22.9852 279.8752 23.0845 280.0126 23.2033 280.2051 23.3404 280.333 23.4571 280.4736 23.7261 280.4471 24.1814 280.2273 24.5188 280.1381 24.8589 280.1964 25.1643 280.4001 25.5296 280.5087 25.7789 280.568 26.0462 280.4954 26.3675 280.4079 26.6317 280.413 27.1259 280.6159 27.4733 280.9361 27.8018 281.061 28.0515 281.1031 28.3563 281.0983 28.5654 280.9782 28.8288 280.7095 29.1653 280.4717 29.5783 280.3489 29.9557 280.2992 30.7146 280.2395 31.1884 280.2953 31.6078 280.7427 32.4291 280.9976 33.0867 281.033 33.3653 280.9039 34.0271 280.9651 34.5358 281.1232 34.8894 281.993 36.3696 282.0493 36.6365 281.9767 37.0941 281.7423 37.8261 282.2587 38.4167 282.3108 39.3361 282.3903 39.4948 282.6364 39.6328 283.1331 39.7157 283.4684 39.5776 283.7697 39.5718 284.0382 39.6378 284.1917 39.7376 285.0608 40.8187 285.2815 41.6448 285.4204 41.9376 286.2789 42.5715 286.8526 43.2591 287.3635 44.5194 288.032 46.1198 284.8659 50.2372 282.6071 55.5427 280.0357 57.0718 255.5992 56.3431 255.0329 61.6036 232.9963 60.7729 227.7148 60.5559 227.8583 53.6468 228.6842 34.2513 223.4546 34.066 223.6452 28.8009 211.454 28.357 212.0772 24.8787 214.2117 20.2083 217.2082 16.2294 219.0391 15.4157 219.2702 11.1784 222.5762 8.547 Z" id="fips-12063"/>
<path d="M 728.5866 469.4619 749.6951 469.0944 765.769 468.9047 770.7438 468.7814 770.7946 461.8059 779.8853 461.7272 780.5796 463.3433 784.0982 470.1353 785.019 472.9593 784.5024 473.5428 784.3679 473.6947 785.457 476.0637 786.7324 479.9123 789.1659 484.5945 791.7443 491.0489 793.3987 496.8289 786.6862 496.9115 786.7033 498.6321 784.0006 498.6844 783.9217 498.685 744.8986 499.1802 739.5127 499.2799 706.6192 499.6195 728.774 479.6563 728.5866 469.4619 Z" id="fips-12085"/>
<path d="M 678.1489 417.2399 706.9488 417.019 717.1275 416.7753 717.3566 426.9819 727.7847 426.8679 728.0146 437.3395 728.5866 469.4619 728.774 479.6563 706.6192 499.6195 707.8884 475.9118 707.061 474.1977 705.794 474.8166 703.6648 473.5488 704.0099 471.832 702.8604 471.7443 700.3428 469.8437 699.086 467.5892 697.1109 468.4893 695.8901 466.8017 695.9949 465.0045 694.6995 464.5485 694.0366 463.0324 694.0852 459.1365 693.3957 458.315 691.187 458.3654 690.0023 455.2205 688.8369 454.0725 690.1099 453.0545 690.063 451.4462 688.2638 451.0003 688.3743 450.0755 686.3865 448.6853 683.9925 448.5309 683.1662 449.1122 680.2737 447.3915 678.4388 444.6217 678.7406 442.5196 677.0536 440.111 675.5156 439.4739 673.9087 436.5573 671.56 435.7994 672.2791 433.36 670.5661 431.1197 673.0637 427.7571 674.4198 427.6172 676.8001 423.5163 678.1751 422.6837 677.9065 420.4157 678.1489 417.2399 Z" id="fips-12093"/>
<path d="M 603.5153 576.4575 606.4094 576.438 606.428 578.1507 613.4286 578.0531 614.321 578.031 623.8838 577.8942 623.7616 565.3876 634.171 565.1338 633.9275 554.178 644.0232 554.1022 649.7022 553.7019 665.5036 553.4652 666.1339 585.3554 708.2579 584.1134 708.4529 594.5692 708.4541 594.6096 709.4026 617.9227 709.6311 638.9406 658.3806 639.7425 644.8531 639.8563 644.4334 638.216 639.765 635.6298 636.176 634.3316 632.3929 631.0851 628.8728 629.0238 627.9194 628.646 626.1138 628.582 625.6277 628.5647 624.55 629.0998 623.5412 630.069 622.6025 633.571 621.9952 634.9456 621.2854 634.72 620.7661 634.0584 618.1668 628.6565 617.673 628.1195 616.6478 627.5012 616.1038 624.5698 615.4268 623.3052 614.6112 622.3878 614.1541 621.0836 614.3388 616.9993 614.0284 616.4995 613.289 616.2682 612.745 615.5832 608.4376 605.683 607.6235 597.9547 606.9851 595.4309 606.7277 591.3254 606.2923 587.7559 604.9095 580.7827 603.6552 576.7788 603.5153 576.4575 Z" id="fips-12021"/>
<path d="M 169.0549 80.4832 170.2004 80.1704 172.026 77.9864 174.5904 78.3142 176.5664 77.5009 177.973 78.7519 180.451 78.288 181.9041 77.1804 183.7349 74.7119 221.7546 76.1801 222.3543 60.418 227.7148 60.5559 232.9963 60.7729 231.8188 87.1248 231.2374 104.9474 230.4967 126.4801 230.4712 138.3641 228.8026 136.6144 226.6521 135.1824 223.0714 133.9205 222.131 134.1131 220.2242 133.6487 218.0214 132.3543 214.7528 129.3291 211.6426 125.5427 210.6896 124.1464 210.0333 121.9822 208.6846 121.8499 206.9317 120.6984 204.9706 119.6984 203.3186 119.1075 198.8357 116.6828 195.4394 114.0191 193.4296 111.7411 190.8413 109.2811 187.1839 106.515 180.3408 101.8106 175.7885 98.97 168.2476 94.9849 168.5528 89.8501 169.0549 80.4832 Z" id="fips-12005"/>
<path d="M 529.1238 248.5216 532.025 249.4159 534.2467 248.1005 537.2639 248.1897 540.5996 251.3655 541.4637 252.3494 543.3037 251.7015 544.1402 252.9827 547.3904 254.0791 547.3465 254.3769 547.4634 254.4729 547.4587 254.6353 547.5163 254.7173 547.582 254.7498 547.8191 254.7544 547.9357 254.7781 548.0703 254.9523 548.1831 254.9955 548.4872 255.0078 548.7103 255.2192 548.8152 255.352 548.9161 255.4128 549.0892 255.429 549.2074 255.5129 549.4912 255.4906 549.5984 255.4178 549.6537 255.4262 552.7933 258.7342 554.2795 260.1096 554.4901 261.4345 556.3795 264.6781 556.833 266.3668 560.1544 268.8758 560.7934 270.7899 562.2584 271.7361 564.0547 273.8613 566.4792 275.4703 566.8325 277.7022 567.9119 278.9526 566.3243 280.1201 565.7691 283.0649 563.5169 283.6618 559.456 288.0548 559.5088 290.0224 558.3064 292.293 557.9818 294.1174 541.5702 294.3366 541.5102 290.8358 532.0683 290.8543 514.9441 290.8733 514.9623 290.7095 510.3415 287.6449 511.846 283.2861 508.4891 272.0182 512.8862 265.3259 511.4389 262.0169 510.7866 261.6498 509.1982 259.5271 507.947 257.0816 507.7304 254.4225 505.5056 254.7095 505.8771 253.6724 508.7717 252.1141 510.4725 250.1831 512.8225 249.8107 514.3362 250.7529 516.7432 251.1401 520.9725 252.8117 522.0857 252.3083 522.9889 250.3046 524.7476 250.5458 529.1238 248.5216 Z" id="fips-12017"/>
<path d="M 619.2357 214.5034 643.9466 207.5956 645.1806 205.3604 646.5744 205.2169 647.0802 221.9523 662.7763 221.5682 670.4295 221.2997 675.2478 221.1083 674.8829 211.3735 674.4484 203.5901 675.1936 202.8772 680.1072 201.5837 683.5173 209.7623 684.77 212.7638 686.0901 215.9254 693.1882 231.5789 694.2235 233.8586 694.8109 235.1518 695.2047 235.8967 697.1675 239.608 701.1563 245.1918 702.6364 248.57 704.3035 251.6436 705.5421 253.683 714.1709 267.87 720.1101 277.9468 708.3899 278.1158 695.1563 278.3963 695.7789 299.8111 693.3618 299.8393 691.223 297.0442 691.8393 296.4655 690.7599 293.2108 689.6649 292.4773 690.1305 290.2011 688.1636 288.1895 687.9868 286.3684 685.3391 283.3694 686.1567 280.5125 684.5854 275.7633 681.4061 274.7659 680.5054 273.9282 678.3456 274.8097 678.6829 275.6905 677.1536 278.4667 675.1905 278.4293 672.8152 279.6492 672.3443 277.7703 671.0985 278.4075 668.8206 276.4961 667.7686 273.5656 662.7936 273.4843 657.7644 273.4304 653.7007 271.8039 654.3835 270.1017 652.7972 268.0713 654.2761 265.948 654.2039 259.9575 652.5958 258.8642 653.3466 256.2746 653.9808 255.2982 651.8462 254.2835 651.0102 252.4813 649.9899 251.0809 645.7246 248.1618 644.176 246.0102 643.2152 245.8154 643.3449 243.6402 642.0665 241.8711 639.6946 242.3138 638.2947 241.7673 638.0088 238.6376 635.139 232.2633 632.7728 230.9008 631.9901 229.437 628.5942 229.6045 626.3064 228.7155 625.8054 226.0463 624.2433 224.0996 623.3821 220.2388 621.9132 217.447 620.0543 216.6482 619.2357 214.5034 Z" id="fips-12127"/>
<path d="M 537.3411 116.6011 538.8776 116.4038 547.6889 116.2573 570.3523 115.7656 570.8449 117.6691 569.8637 119.77 567.5302 121.0524 566.7116 123.9745 565.7856 125.2321 563.5699 126.7021 561.6907 128.9349 558.0988 129.6859 556.7168 133.1736 553.2184 138.3283 551.2775 138.4389 549.5112 137.7504 548.9243 140.1291 547.7089 141.1531 546.5808 140.8995 544.4471 142.0837 541.4826 142.3833 540.6901 142.5387 538.3169 141.3649 535.8881 141.9643 534.6195 140.3832 530.3128 139.735 529.858 140.2275 529.4836 138.1153 527.1746 137.4285 525.7183 136.1021 525.0184 134.1826 525.3228 131.7911 528.2713 130.6657 529.2751 126.4296 530.993 123.8998 533.1735 122.3289 536.3133 121.3712 537.5883 120.3307 537.9517 118.1192 537.3411 116.6011 Z" id="fips-12125"/>
<path d="M 580.0747 110.446 602.1986 110.156 612.5143 110.0185 613.079 109.5145 615.394 109.776 616.2143 110.0331 618.7087 109.8406 617.5851 112.0894 617.4386 115.3769 618.7007 118.2088 618.7423 122.3918 617.6894 127.6892 618.51 130.843 619.7439 131.9777 624.6088 135.0489 626.7762 137.3502 627.3126 140.2842 626.3873 142.998 627.4004 147.8581 629.0576 151.5769 629.2972 152.1046 605.0565 152.6937 604.0727 153.9251 599.8804 157.1055 594.926 157.9279 593.4389 159.4617 592.6526 162.4606 591.7841 163.5074 587.922 163.5682 584.6884 164.5008 582.4036 167.023 580.2697 167.0309 580.5877 163.5906 580.1466 126.2783 580.09 115.7379 580.0747 110.446 Z" id="fips-12019"/>
<path d="M 542.7523 195.3226 563.3061 195.4327 565.6171 198.2141 565.3385 199.2551 563.2709 197.6009 563.2598 201.9526 565.1791 203.0512 569.6429 202.3341 570.2977 203.3864 571.299 201.379 573.0907 202.1331 574.9112 200.9296 575.044 203.2759 575.6093 201.89 578.0521 200.3219 579.5843 200.7188 579.6621 196.9378 582.1666 194.4965 585.0705 193.2365 589.3017 192.9678 592.6974 191.4282 595.0036 192.8198 595.3418 191.6845 600.1321 191.5842 602.0368 190.8367 602.0812 195.0027 609.0855 194.8572 609.2605 201.8905 612.7421 201.7882 612.8258 208.9057 620.504 208.7816 621.8224 212.8178 619.8046 212.7816 619.2357 214.5034 620.0543 216.6482 621.9132 217.447 623.3821 220.2388 623.572 233.2868 623.903 247.9167 621.7367 247.9304 621.8565 258.4963 617.9046 258.5538 615.4686 258.4428 610.9676 258.4886 602.4497 258.5205 601.7544 258.6683 590.6052 258.6882 575.6951 258.7282 552.7933 258.7342 549.6537 255.4262 549.5984 255.4178 549.4912 255.4906 549.2074 255.5129 549.0892 255.429 548.9161 255.4128 548.8152 255.352 548.7103 255.2192 548.4872 255.0078 548.1831 254.9955 548.0703 254.9523 547.9357 254.7781 547.8191 254.7544 547.582 254.7498 547.5163 254.7173 547.4587 254.6353 547.4634 254.4729 547.3465 254.3769 547.3904 254.0791 544.1402 252.9827 543.3037 251.7015 541.4637 252.3494 540.5996 251.3655 537.2639 248.1897 534.2467 248.1005 532.025 249.4159 529.1238 248.5216 529.223 227.9943 539.226 227.9344 543.1099 227.8873 542.8729 210.3039 542.7523 195.3226 Z" id="fips-12083"/>
<path d="M 287.3635 44.5194 287.4913 44.5265 290.2941 44.6808 310.1607 46.1194 314.1472 46.4499 314.1614 46.4493 321.101 46.9484 321.55 46.9868 327.8403 47.5471 337.58 48.0521 338.1712 48.0825 347.7669 48.7767 345.8249 49.3707 346.1382 49.7751 345.3713 50.5632 345.8757 53.9036 345.4395 54.8679 343.468 56.5252 342.0067 59.4691 338.3169 61.2145 336.5643 64.9024 336.4937 65.0245 336.4716 65.3902 336.5076 65.5036 336.5687 65.5506 336.5609 65.6423 336.4852 65.6917 336.4805 65.7878 336.3783 66.0334 336.2718 66.4571 336.1937 66.73 336.1832 66.9105 336.1287 67.025 336.1121 67.1727 336.1632 67.2717 336.1696 67.4245 336.3264 67.3998 336.3973 67.4314 336.3119 67.511 336.3009 67.6101 336.3293 67.6856 336.4403 67.756 336.4427 67.8154 334.6702 70.019 335.422 72.9815 334.2839 74.1983 332.9607 75.2865 322.5906 76.6076 321.5689 77.8788 318.4198 78.6451 318.2203 78.1718 317.4277 79.4929 315.0459 81.2757 313.435 80.7165 309.1389 83.238 309.2551 84.0052 305.6884 83.9755 305.7706 80.4371 302.2707 80.3789 302.3799 75.1607 295.4015 75.0983 295.4779 67.9829 291.9602 67.9374 291.9772 66.1734 285.0283 66.0322 285.1479 57.2753 280.0357 57.0718 282.6071 55.5427 284.8659 50.2372 288.032 46.1198 287.3635 44.5194 Z" id="fips-12039"/>
<path d="M 552.7933 258.7342 575.6951 258.7282 590.6052 258.6882 590.7272 273.6308 590.7814 305.6866 590.7878 308.0509 590.5211 333.0155 590.5201 337.4026 587.5443 337.8447 586.5895 336.3241 583.8357 335.6254 580.0878 336.9653 580.1087 332.988 580.1486 316.9466 580.1572 311.7523 578.7396 310.5393 575.6236 311.2826 574.3137 309.0518 572.0549 308.7495 571.2706 306.4385 569.3428 305.4958 568.3657 306.6388 564.9969 305.2433 563.4204 305.4216 562.3872 303.1043 558.2258 297.7855 558.6158 296.3736 556.7349 295.5012 557.9818 294.1174 558.3064 292.293 559.5088 290.0224 559.456 288.0548 563.5169 283.6618 565.7691 283.0649 566.3243 280.1201 567.9119 278.9526 566.8325 277.7022 566.4792 275.4703 564.0547 273.8613 562.2584 271.7361 560.7934 270.7899 560.1544 268.8758 556.833 266.3668 556.3795 264.6781 554.4901 261.4345 554.2795 260.1096 552.7933 258.7342 Z" id="fips-12119"/>
<path d="M 517.4043 448.5699 526.366 448.6684 527.9675 448.6712 528.0483 448.67 529.3451 448.7023 530.3617 448.6916 538.2088 448.7301 538.4054 448.7307 538.414 449.0305 538.5414 449.0268 538.6821 449.0293 539.5784 449.003 559.3253 449.0056 559.2096 470.2444 559.6157 470.442 580.3986 470.5309 580.3535 491.7583 578.5803 491.7657 559.0587 491.6996 559.041 502.2989 546.0866 502.2151 543.4052 497.5153 541.4019 493.1892 538.5496 488.3672 536.9797 483.6174 536.4423 482.3121 536.0582 481.9639 535.1853 478.6257 532.9694 473.9417 531.3947 470.6109 531.3638 470.5514 528.4549 464.9523 527.8753 464.1419 526.3828 463.1974 525.2311 461.9117 525.2488 461.2 525.2885 459.5991 524.5628 458.3006 522.2466 455.1028 519.435 451.9011 517.406 448.572 517.4043 448.5699 Z" id="fips-12115"/>
<path d="M 526.9317 417.697 530.0863 417.6848 530.1074 417.6848 537.7119 417.6309 580.4782 417.5186 580.434 454.7596 580.3986 470.5309 559.6157 470.442 559.2096 470.2444 559.3253 449.0056 539.5784 449.003 538.6821 449.0293 538.5414 449.0268 538.414 449.0305 538.4054 448.7307 538.2088 448.7301 530.3617 448.6916 529.3451 448.7023 528.0483 448.67 527.9675 448.6712 526.366 448.6684 517.4043 448.5699 513.9482 444.3832 512.1599 442.82 512.2495 441.9605 510.458 436.7247 509.7433 435.1758 508.675 433.5778 506.6979 431.4606 506.4077 430.5233 506.7627 430.4608 510.4362 432.3857 510.9749 435.4766 512.3263 435.6656 512.7554 435.5699 512.7047 434.2644 513.0599 433.6488 514.0264 432.8655 515.3781 432.4816 516.5895 432.4477 517.0964 431.1887 518.5969 428.9715 520.7478 426.6398 520.6447 425.2368 520.672 425.1785 520.783 424.9414 522.4162 423.885 523.687 423.6481 525.1912 422.0957 525.7214 421.2707 526.4884 418.4959 526.9317 417.697 Z" id="fips-12081"/>
<path d="M 622.4742 332.6238 640.5237 332.4993 643.7137 332.3419 647.736 332.3411 658.3815 332.2249 659.4587 332.2238 682.3155 331.9878 706.9654 331.7692 707.2736 343.2875 707.3683 362.664 706.6878 363.5381 707.1332 395.2296 705.7776 395.2482 706.0707 405.9804 706.9488 417.019 678.1489 417.2399 679.2834 416.4831 679.2311 415.0199 677.8811 414.0327 677.3567 411.3502 677.6599 409.1106 675.2037 407.2674 675.549 405.2495 674.1277 404.1425 674.7113 403.2232 672.1769 399.4682 670.8776 395.8118 668.5062 393.2695 665.4 392.8603 663.013 391.4943 660.8134 390.9576 660.3335 388.0494 659.3771 386.2367 660.0183 383.7364 656.808 382.6223 657.0037 380.4152 655.5816 378.7139 652.7193 376.9869 651.6002 373.9659 648.545 374.6139 647.558 372.893 645.8569 370.3204 643.8755 369.6226 643.784 368.1886 645.4984 367.2641 646.6762 369.1789 649.537 370.8834 650.805 370.9861 652.0473 372.8693 652.7407 370.7929 654.022 369.7816 653.6678 366.8951 655.8121 365.2657 655.8185 364.0924 644.1592 364.1667 644.0554 357.1233 642.6277 357.1228 642.5764 357.1207 636.8071 357.222 636.7711 350.1859 633.826 344.4008 633.1663 343.1584 622.5487 343.2467 622.5464 342.6065 622.4742 332.6238 Z" id="fips-12097"/>
<path d="M 706.6192 499.6195 739.5127 499.2799 744.8986 499.1802 783.9217 498.685 784.0006 498.6844 786.7033 498.6321 786.6862 496.9115 793.3987 496.8289 796.0368 506.0373 797.2308 510.2013 798.482 515.6187 798.9787 517.7685 798.9638 519.5195 798.9531 520.7672 798.4963 520.8113 798.3887 521.4056 799 527.5687 798.9773 530.6488 798.7757 532.3396 798.8035 536.148 798.8288 539.6298 798.8315 540.0046 798.6796 545.2056 797.5703 552.4532 796.6111 560.3136 796.5136 561.8279 796.4885 562.2171 796.4688 562.5225 795.7669 573.4029 795.5853 573.5392 795.338 575.2747 793.3927 574.6726 792.7374 575.1072 792.6818 574.528 790.4206 574.5527 785.0444 574.6516 785.0051 574.6559 784.9853 574.6561 781.3313 574.7189 776.3573 573.1535 771.2298 571.5646 771.2601 574.1103 771.2076 574.1112 707.9974 575.1347 707.9103 573.8914 708.1116 573.6529 706.8864 525.6197 706.6192 499.6195 Z" id="fips-12099"/>
<path d="M 579.6 167.0858 580.2697 167.0309 582.4036 167.023 584.6884 164.5008 587.922 163.5682 591.7841 163.5074 592.6526 162.4606 593.4389 159.4617 594.926 157.9279 599.8804 157.1055 604.0727 153.9251 605.0565 152.6937 629.2972 152.1046 630.8696 156.5983 633.5519 160.5554 635.2408 161.8125 635.3206 166.3937 635.5324 178.3757 635.9673 193.1399 636.597 194.8546 639.5861 199.7238 639.6803 202.3097 640.665 205.638 643.3251 206.3906 645.1806 205.3604 643.9466 207.5956 619.2357 214.5034 619.8046 212.7816 621.8224 212.8178 620.504 208.7816 612.8258 208.9057 612.7421 201.7882 609.2605 201.8905 609.0855 194.8572 602.0812 195.0027 602.0368 190.8367 600.1321 191.5842 595.3418 191.6845 595.0036 192.8198 592.6974 191.4282 589.3017 192.9678 585.0705 193.2365 582.1666 194.4965 579.6621 196.9378 579.6808 172.962 580.2919 167.6716 579.6 167.0858 Z" id="fips-12107"/>
<path d="M 488.8491 154.2269 491.7068 153.913 492.0437 151.704 493.5881 149.1242 493.1594 146.6669 494.9039 143.7488 498.1806 143.5663 501.4915 141.2251 502.3962 140.826 503.5832 142.0019 504.643 141.7204 504.2263 143.7018 504.8338 145.4794 505.8954 145.2731 506.4616 147.5145 508.1963 149.9451 510.829 151.4817 512.6512 153.0884 516.3322 153.5887 516.3779 154.5998 516.4999 185.6556 505.9684 185.9129 505.9308 184.0741 504.2471 183.1991 495.4513 182.3915 486.967 182.3715 485.1191 183.039 483.3625 180.2561 483.2313 178.3559 484.9277 176.5996 485.4824 173.8241 484.7202 172.8345 485.439 168.7418 486.8185 169.1084 485.744 166.0399 486.9246 163.8451 485.7581 162.6408 487.3192 158.7818 488.8589 157.7912 487.2945 155.9953 488.8491 154.2269 Z" id="fips-12041"/>
<path d="M 580.0599 99.9948 581.2768 98.7799 591.8832 87.8056 602.6992 76.4677 604.9491 74.3908 606.457 71.8621 607.8429 72.105 609.5303 70.2714 609.6828 68.2802 611.4374 68.7656 612.6499 67.3915 612.6365 65.3508 614.0533 63.794 615.8199 64.7754 616.5472 64.0463 619.4832 64.7947 619.7764 66.1943 621.587 63.1515 624.1354 61.9951 626.2077 62.1467 625.7887 63.3541 626.5502 64.2221 625.2216 64.869 625.6507 65.833 627.5236 64.4981 628.4493 64.5928 627.8826 66.2905 629.0996 67.7839 631.3805 66.9837 632.673 69.4678 634.0014 69.1681 634.9123 67.65 634.6417 65.5336 635.6512 64.1973 637.1573 64.6141 639.2311 68.2633 642.2781 69.9568 643.1235 71.0758 642.6819 71.8333 643.4149 72.5523 644.8841 72.6539 646.4829 74.4166 646.9431 81.6615 647.9653 84.2401 648.1365 91.5586 648.677 95.976 649.3459 99.5468 649.956 102.0701 644.6397 102.1957 644.0004 102.1896 644.4807 119.9237 633.5113 120.224 633.4648 118.2675 630.458 118.5491 629.0816 117.5544 624.5872 116.6733 621.8057 118.1533 618.7007 118.2088 617.4386 115.3769 617.5851 112.0894 618.7087 109.8406 616.2143 110.0331 615.394 109.776 613.079 109.5145 612.5143 110.0185 602.1986 110.156 580.0747 110.446 580.0599 99.9948 Z" id="fips-12031"/>
<path d="M 50.4057 2.6729 50.5064 2.6733 52.766 2.705 54.3924 2.8572 55.025 2.8065 60.2117 3.0433 60.6839 3.0557 61.7499 3.1043 63.1721 3.1033 63.545 3.1474 64.5008 3.1955 66.8505 3.2783 67.4547 3.3806 74.7488 3.773 78.8464 3.9419 80.4113 3.9937 84.6512 4.1811 84.7998 4.1838 89.4032 4.4037 89.4311 4.4052 87.2585 42.012 85.209 78.0211 85.04 78.0363 79.78 78.5089 73.5994 79.3116 72.5915 79.4851 72.5826 77.5634 56.4068 79.8013 49.4949 81.3495 48.1874 81.2374 45.4145 82.7961 42.1144 82.0236 39.8542 80.8083 39.8701 78.2335 40.5481 76.5984 48.5192 74.3101 49.261 73.7126 50.498 72.121 50.2639 68.8037 51.8277 64.8527 51.8623 63.0284 48.6244 58.7157 47.6201 57.8556 43.3489 56.0325 40.7761 50.9308 38.54 49.0667 39.2894 47.6366 38.1292 44.4118 38.2544 39.7802 37.622 36.2098 34.5705 35.8376 33.6549 33.9021 34.8518 30.8619 33.9702 27.6988 36.0516 24.6576 35.2322 21.011 34.1132 20.3575 35.8527 16.419 37.3395 15.5667 37.6961 12.8718 37.2896 11.0371 39.3723 9.9683 40.5648 10.4265 43.5976 6.9803 45.9923 6.0167 50.4057 2.6729 Z" id="fips-12113"/>
<path d="M 647.8649 279.509 647.0151 285.2715 645.0375 287.9938 643.1739 288.1577 643.183 293.112 643.2053 296.754 643.536 297.0279 644.7255 297.0599 647.9305 297.0221 657.1303 296.997 657.1611 297.8755 657.2249 300.5443 662.0824 300.392 665.28 300.2869 666.0503 300.3097 678.3235 300.0641 693.3618 299.8393 696.5337 301.1411 697.1122 300.7863 697.6569 303.2012 699.4975 305.8406 699.1104 308.5208 702.9187 312.2117 704.8135 312.9199 704.6681 314.3768 705.9258 316.7607 703.4061 317.3701 703.165 319.0695 703.1975 319.0824 702.7657 321.4656 704.7369 324.4633 704.1978 327.2129 706.9654 331.7692 682.3155 331.9878 659.4587 332.2238 658.3815 332.2249 647.736 332.3411 643.7137 332.3419 640.5237 332.4993 622.4742 332.6238 622.3547 317.2643 622.3223 308.545 622.3052 307.6983 622.3314 306.4979 623.2598 303.9802 622.2959 302.9515 622.0567 285.0959 622.0151 281.8828 623.2807 279.5779 647.8649 279.509 Z" id="fips-12095"/>
<path d="M 130.4517 6.1697 131.9037 6.1825 132.449 6.2001 132.8999 6.2176 139.1327 6.4728 140.7185 6.5521 144.1096 6.6544 145.9844 6.6519 151.2729 6.8582 151.9901 6.886 152.5092 6.9273 153.1525 6.9585 153.7824 6.9812 158.5322 7.2212 164.8104 7.3872 165.1987 7.3852 167.0008 7.4309 167.0091 7.4312 165.6127 42.2785 185.6465 43.042 182.3245 45.7714 183.1425 47.8039 180.6806 48.5398 178.0567 50.8173 178.6878 53.6071 177.8278 55.6672 179.9252 56.9897 180.5444 60.2191 181.4254 60.6763 180.576 65.035 181.1745 66.8521 182.4773 66.7002 183.2654 68.7145 181.2813 71.4721 180.118 70.9193 178.7828 74.179 177.2093 74.7794 175.4608 73.9565 172.2687 74.461 169.8251 76.373 169.0549 80.4832 168.5528 89.8501 168.2476 94.9849 167.8523 94.7758 158.6008 90.5321 144.9542 85.2691 137.1097 82.6646 130.3449 81.0565 126.9132 80.4559 129.0063 38.0784 130.4517 6.1697 Z" id="fips-12131"/>
<path d="M 516.3322 153.5887 517.0714 154.1409 518.8309 153.1765 519.1998 151.3021 520.6225 151.5182 523.8965 149.1842 523.2645 146.6681 525.0136 145.7824 524.7669 143.2468 527.2343 141.7158 528.6147 142.0855 529.858 140.2275 530.3128 139.735 534.6195 140.3832 535.8881 141.9643 538.3169 141.3649 540.6901 142.5387 541.4826 142.3833 542.7502 143.4757 543.5739 146.7064 546.0652 147.6589 550.1578 147.7278 552.4701 150.0088 556.8075 152.0527 559.9633 150.907 560.9015 151.7712 565.4348 151.4266 567.227 152.7659 571.4298 152.8811 572.3984 154.3608 572.3902 156.584 573.9633 159.2636 577.0896 160.111 576.8056 161.6143 579.3323 163.482 579.6 167.0858 580.2919 167.6716 579.6808 172.962 579.6621 196.9378 579.5843 200.7188 578.0521 200.3219 575.6093 201.89 575.044 203.2759 574.9112 200.9296 573.0907 202.1331 571.299 201.379 570.2977 203.3864 569.6429 202.3341 565.1791 203.0512 563.2598 201.9526 563.2709 197.6009 565.3385 199.2551 565.6171 198.2141 563.3061 195.4327 542.7523 195.3226 533.3118 196.1262 526.9523 195.9165 526.984 192.0578 526.8771 188.9607 516.4893 189.1836 516.4999 185.6556 516.3779 154.5998 516.3322 153.5887 Z" id="fips-12001"/>
</g>
</svg>