<?xml version="1.0"?>
<svg xmlns="http://www.w3.org/2000/svg" version="1.2" baseProfile="tiny" width="800" height="1022" viewBox="0 0 800 1022" stroke-linecap="round" stroke-linejoin="round">
<g id="cb_2018_us_county_5m">
<path d="M 57.0284 993.502 73.8411 984.3428 92.1785 981.2941 107.4485 1004.2228 79.9355 1021.0168 46.3207 1019.4731 57.0284 993.502 Z M 17.6115 469.6049 47.9619 456.0272 109.2028 454.4295 160.4484 448.1995 253.1038 423.3974 306.3876 414.717 335.9067 423.9181 355.1889 416.815 367.8908 398.055 356.8141 382.8879 357.5364 365.4445 366.8071 355.8017 387.6341 351.1424 422.1593 359.794 436.2548 320.2059 432.0069 284.9122 477.6745 204.1285 512.8995 139.9653 512.5591 75.9913 536.0909 41.3078 559.5837 3.4091 580.3128 1 618.2087 26.7418 642.1706 59.2494 673.8632 94.1896 677.409 115.4481 724.5293 129.0394 787.9281 128.685 799 138.3532 779.632 180.6642 753.756 246.523 718.847 322.2534 641.1192 372.4973 547.0922 458.3271 485.6117 509.825 442.7178 547.0994 399.447 575.1161 370.6194 638.8071 362.2499 746.2646 362.3087 837.923 350.8757 869.0649 323.0482 909.6724 291.1649 939.6949 248.2608 983.3856 199.2152 981.4063 136.6368 960.0069 102.9802 922.326 78.504 820.8712 40.9782 753.6221 40.729 711.9908 85.1648 654.5956 105.8888 609.7452 94.9259 582.7963 67.5491 582.1368 51.383 561.5696 19.667 523.1396 1 501.8581 17.6115 469.6049 Z" id="fips-66010"/>
</g>
</svg>