<?xml version="1.0"?>
<svg xmlns="http://www.w3.org/2000/svg" version="1.2" baseProfile="tiny" width="800" height="532" viewBox="0 0 800 532" stroke-linecap="round" stroke-linejoin="round">
<g id="cb_2018_us_county_5m">
<path d="M 519.3437 213.8528 520.2334 208.7965 522.2116 204.4619 524.5103 200.2497 526.4418 199.9566 527.3986 199.1074 527.9019 198.2397 527.6726 197.8632 527.8786 197.0328 531.3005 197.0223 532.4122 197.5066 532.4072 197.1115 533.2733 195.9971 535.3313 196.2456 536.3849 197.4765 537.0572 198.2619 539.6569 198.9102 541.5546 200.6938 542.0737 200.6744 544.6946 206.5804 546.0873 208.6553 547.0392 209.1946 547.2988 210.9198 547.6616 211.312 548.9015 211.8415 549.4253 212.8817 549.7998 214.7766 551.5825 217.5979 551.6812 217.6604 552.5019 218.1796 556.1066 216.938 560.2036 215.5261 564.3779 214.5817 565.61 214.3029 567.349 213.0409 567.8793 212.2462 570.5519 210.8796 571.583 210.856 572.0656 211.3096 573.4794 210.0993 574.6969 209.5159 577.2528 210.703 580.3325 209.9342 581.9779 211.5735 583.7509 211.0249 586.7783 211.5195 588.6014 212.4587 588.6017 214.6794 589.0921 214.8688 589.7855 214.6142 590.3901 214.8907 590.621 216.3969 596.9765 221.1742 597.3651 221.542 597.9067 222.958 602.9301 223.652 603.4065 225.8404 605.4073 229.0374 607.7112 228.8561 609.1636 228.3293 613.6519 231.7109 617.5609 232.0853 621.945 234.103 622.0283 235.0702 624.2362 237.1071 624.7273 238.5377 624.389 239.9443 624.5944 242.2068 624.3181 245.6036 623.6763 247.0321 622.1427 249.4881 620.3233 251.437 619.4535 251.2488 617.8774 251.9392 616.4489 253.4708 615.936 254.7029 614.5127 256.3685 613.5709 256.7246 610.3644 256.3442 609.1952 257.2663 604.5159 259.591 603.1956 260.5587 601.3072 261.1701 601.0234 261.1016 600.5099 260.305 599.227 260.2099 597.3111 260.5625 596.7682 261.0745 595.1229 260.1812 593.8861 259.8527 591.3254 260.3553 589.0939 261.2263 587.4924 262.3227 585.9584 263.1025 583.083 264.5636 580.3503 265.3627 579.8082 266.0638 579.0053 266.5725 577.6384 266.974 574.6477 266.6325 570.3954 266.8174 569.2213 267.5995 567.5798 268.099 566.5588 268.1463 560.998 266.9063 560.6747 266.3318 560.941 265.6521 560.7362 265.1499 560.6418 264.9185 559.8556 264.3781 559.178 264.8804 558.5622 264.9923 557.6028 264.483 556.7436 263.4359 556.9496 262.5057 555.8283 258.0219 556.5374 256.9119 556.8716 255.8487 556.1805 248.1555 555.848 244.8819 555.5793 243.9622 554.7661 243.1072 554.2208 240.3776 554.2654 237.4394 554.1742 236.9787 553.981 236.0022 552.585 234.5599 550.2413 233.3497 548.444 233.0877 547.8035 233.1581 546.3276 233.9747 544.9537 236.0833 543.1013 236.453 529.2719 229.6056 522.4193 221.7788 520.9164 218.9069 521.0905 218.585 521.0603 216.1221 520.5954 215.1538 519.7031 214.5277 519.3437 213.8528 Z M 518.5395 275.1111 519.3782 273.6657 521.8433 271.2562 526.0691 269.935 531.555 266.5724 532.133 265.5248 537.1492 263.5367 538.585 263.81 540.5743 265.4268 542.1211 267.7429 542.148 268.7596 541.2414 269.5565 540.1641 273.6429 540.6046 274.1626 542.4959 274.9066 542.5695 276.0272 541.8957 276.7873 541.0289 277.1812 539.5557 276.9166 535.666 278.4991 533.077 276.4842 529.0318 277.946 527.3684 278.9858 526.6161 278.3918 523.4529 279.5193 521.3665 279.1834 518.3254 275.9326 518.5395 275.1111 Z M 465.8677 215.9846 466.3799 214.5655 469.8409 212.4393 471.3425 212.0661 473.6457 212.0504 476.6246 211.7024 479.2998 212.6525 484.3208 212.8498 487.1292 213.3038 490.2562 214.458 499.0507 222.7064 500.7756 224.7468 503.0536 228.6617 503.2096 229.553 503.0486 231.3236 501.8551 233.6128 498.7334 238.3281 497.5336 239.0091 496.7856 239.024 494.0822 239.8497 491.0376 241.3791 488.258 242.1963 482.3648 242.2317 479.5728 242.8261 477.1163 239.3963 475.7945 234.651 476.5841 230.1086 476.1724 228.3521 474.0812 224.7039 473.4 223.9289 466.9995 220.2822 466.2573 219.1052 466.0505 218.1563 465.8677 215.9846 Z M 473.3576 171.6893 474.8821 172.8057 479.3618 173.3613 480.9772 175.8798 481.0242 172.6076 481.5054 175.6349 483.9764 175.7782 487.4744 180.6509 490.102 180.3339 490.3251 177.8143 487.5031 174.5285 489.6727 175.1885 490.4539 174.9219 490.7597 174.353 490.7035 173.9349 494.9006 175.182 498.7832 174.6752 501.6835 173.63 509.1141 172.8405 513.4157 173.4779 513.983 174.1438 514.2197 175.7456 516.7626 175.4433 518.2692 176.2834 517.7618 178.5884 516.2042 180.9561 513.7611 183.718 509.8725 186.7189 506.6859 188.7628 504.4501 190.6302 499.8758 192.1369 496.2543 192.3598 493.3906 193.3518 491.2131 192.9348 488.7319 192.2861 482.1138 190.6029 475.2605 188.8668 471.5023 186.8988 470.6405 186.563 468.2222 185.7953 463.5003 184.7808 461.306 184.5067 456.6988 185.3694 453.4136 186.3328 438.1749 186.7916 431.3683 185.8214 429.6303 184.5001 431.43 181.501 432.3961 179.1287 432.9948 177.4024 434.6656 175.589 435.7529 175.2848 437.704 173.6264 438.7608 171.5331 438.5791 170.4975 438.7183 167.85 437.7503 166.5894 437.0887 166.2676 436.8434 165.7582 437.2155 165.0029 437.7485 164.7584 440.0247 165.7757 442.2427 165.9219 444.3581 165.6807 445.8182 166.0977 447.2233 167.9506 448.2327 168.2828 452.4097 169.0962 453.7305 169.1028 454.248 168.8222 456.6618 169.0136 458.8278 169.6832 461.1042 169.604 466.0491 171.0598 467.6981 171.1256 468.4803 170.8195 469.6237 170.803 473.3576 171.6893 Z" id="fips-15009"/>
<path d="M 288.6766 107.3153 292.0969 106.7562 301.4483 106.399 304.4742 107.0132 310.9949 106.4139 311.4384 106.1745 313.7906 104.9045 313.8122 103.8877 313.4071 103.4593 313.6046 103.1804 317.8061 99.9918 319.7663 97.5603 319.8019 96.1977 320.2297 95.248 324.2096 91.2212 327.0447 88.7934 330.8494 87.5799 331.6329 86.8824 334.3296 86.8883 337.4154 90.5827 338.5622 93.844 339.8326 96.0393 340.6302 96.6844 340.8556 99.0672 340.6923 100.1377 342.5544 103.0224 344.0404 103.8792 347.3722 108.7549 347.1524 111.1336 348.0369 111.5581 348.8771 110.6023 350.4482 111.1035 350.9643 111.6071 353.1912 115.9874 353.0864 118.8039 351.2894 119.1717 350.8196 120.6842 351.3277 123.4421 351.7881 125.9396 352.4315 127.0946 354.7851 127.7743 356.034 128.6084 356.3633 130.1749 356.6454 130.5732 357.5141 131.7999 360.3273 134.1204 361.2223 134.5689 361.5621 134.7391 362.3741 133.5344 363.8177 130.6671 361.5128 129.281 362.5238 127.5057 363.6531 126.9536 366.5086 128.2229 367.6048 127.36 369.8234 127.3675 369.3253 128.8208 368.4958 129.6399 367.8222 130.6234 367.1351 132.6706 367.0642 132.8818 366.977 134.3692 367.3372 136.0014 368.5667 136.4007 368.8565 136.3677 369.1225 136.2543 369.4315 136.1848 369.5093 136.1891 369.5838 136.2 369.6644 136.2178 369.6923 136.2316 369.7917 136.4601 369.8339 136.5881 369.8991 136.7857 370.212 137.3327 371.6522 139.3711 371.6728 140.0025 371.0769 141.6358 371.3476 143.2803 371.6007 144.0883 373.2821 146.7925 373.7593 147.3509 375.3896 148.4686 378.4035 150.5344 379.0247 150.4895 379.8895 150.4269 379.9175 151.2565 379.9699 152.8081 374.8136 156.3804 373.5255 157.8255 372.6822 158.2092 371.2668 158.4907 370.6532 158.2145 370.615 157.788 371.0388 156.9256 370.093 155.9246 369.8036 155.8387 368.0083 155.306 364.3204 155.891 363.176 155.7338 362.7217 156.1671 360.9485 157.8578 359.0037 158.5975 356.5721 158.9908 354.8884 158.5104 354.4568 157.8733 354.2962 156.7981 354.2919 156.7923 353.345 155.5069 350.5427 154.6748 349.0655 153.7517 348.2849 153.2637 347.7809 152.9488 344.8708 151.1293 341.7945 151.2016 335.7225 150.9948 335.9615 150.0549 335.8086 149.0692 333.4675 147.5768 333.2806 147.841 332.538 148.8903 331.4464 149.455 327.0377 150.1157 325.1162 150.4034 322.1716 150.8787 315.9595 151.8804 315.7159 151.9197 313.5098 152.0282 312.1392 151.376 310.9444 148.9907 310.7532 148.1199 310.3392 146.8726 309.6479 143.9019 309.2726 142.289 308.2745 139.9709 306.9217 138.1498 305.1859 136.3754 302.8112 135.1561 302.6445 135.0705 302.3544 134.2256 302.4249 132.4527 302.2078 130.9969 300.8321 128.1402 298.9517 126.256 296.9154 124.6478 294.9757 121.8051 295.3439 116.0901 295.2843 114.641 294.9276 113.5272 292.5769 110.7575 289.6151 108.6489 288.3997 107.7834 288.6766 107.3153 Z" id="fips-15003"/>
<path d="M 69.3924 31.5742 70.0661 28.7976 70.1588 26.1041 75.9184 21.1034 77.0402 17.6679 78.2489 14.4654 80.1647 12.6659 81.9807 11.5024 84.1818 10.8967 86.2605 10.3246 90.371 8.3764 93.0543 6.506 95.8489 5.2046 100.4023 1.8279 102.0571 1.8889 103.63 1.4058 105.8074 2.2394 106.4865 3.4866 107.7255 3.2219 109.5831 3.5083 110.5665 5.2142 112.3875 4.528 112.5508 3.5947 112.0649 2.7847 114.0007 1.1992 116.2454 1.5292 117.931 2.1048 119.6406 2.0181 122.1588 2.8865 123.9183 2.4353 125.8216 2.0771 126.4729 1 129.2907 2.2996 129.3684 3.5317 132.3696 4.0539 134.0848 3.9486 136.6778 6.3712 137.1125 7.1776 139.4225 9.1038 139.3368 10.7079 140.7178 12.7783 140.1595 14.2935 141.224 14.734 142.0431 15.2731 141.9978 18.6447 141.3994 21.4476 140.3167 22.3649 139.7635 24.1209 138.3635 26.0626 138.068 28.2652 137.1023 29.4193 135.9193 29.9056 135.7001 30.9559 135.6239 31.3211 134.9528 34.186 135.3365 36.3868 135.7375 38.004 136.1685 39.2214 135.5184 41.328 135.9747 44.1895 134.8001 45.5836 133.4156 47.8881 132.1797 48.6104 130.2864 49.4782 128.5155 50.1743 127.6936 51.5337 127.3694 52.9671 127.2276 52.9693 125.959 52.9892 124.7905 54.4764 123.009 55.2347 122.1327 56.2338 120.4259 57.4005 118.8088 58.2421 114.4102 56.0109 111.7578 55.4537 109.0481 54.9446 106.8811 55.5561 102.6816 54.7512 99.9631 53.9845 98.0615 52.9985 96.6274 53.6048 95.7593 53.9718 94.4142 52.56 91.0471 50.0721 89.1453 47.2485 87.573 45.8061 86.4626 44.0691 80.7894 42.7239 78.7873 41.4798 73.9999 39.9455 72.4417 38.5149 71.2949 35.4457 69.5235 33.3604 69.3924 31.5742 Z M 1.8456 58.3689 4.0583 52.5415 4.3733 52.0999 6.6313 50.5725 7.8833 49.2952 8.3174 48.5317 10.2041 46.8211 13.5597 45.4503 18.0746 43.0854 19.5299 42.04 19.8829 41.4844 20.3004 40.8976 21.8427 35.833 24.2497 34.9128 27.8074 34.7173 29.7559 35.8667 30.6522 37.8942 30.5289 38.421 29.9914 38.7825 29.371 38.9568 28.97 38.6897 28.6024 38.9626 26.6656 42.2886 25.4552 46.6516 26.2207 49.2736 26.2897 51.5993 23.3407 53.3139 19.5967 54.4626 16.1721 54.9968 14.0879 56.2129 12.0787 58.9703 9.773 62.7688 7.359 67.9723 8.0455 68.3975 7.2197 69.4731 5.4589 68.7559 3.0704 66.8492 1 63.6787 1.8456 58.3689 Z" id="fips-15007"/>
<path d="M 613.4651 400.2828 614.2012 398.0279 614.609 394.3014 618.7663 390.8814 621.0703 388.4606 621.4168 388.0222 624.5646 384.0396 625.4828 383.272 627.2418 382.5424 629.5535 382.2563 630.0068 382.6964 630.1391 382.8247 630.8788 383.0062 633.0295 381.9662 632.958 381.1599 632.8714 380.1832 633.0882 379.4294 634.5519 377.5189 635.0738 376.512 636.591 373.5846 637.7658 371.8425 637.7115 371.2438 638.0015 370.4181 641.8099 366.9523 643.3477 364.6331 645.7062 363.3645 646.0048 363.59 646.5064 363.504 647.0075 362.4479 647.454 360.4335 647.9812 355.6356 647.5824 354.1385 644.2987 349.8572 641.8509 347.3035 639.3024 342.8628 637.0997 336.7053 636.102 327.3224 636.7926 322.4893 638.3977 319.4225 639.5899 318.1963 640.8814 317.4544 643.9371 316.8605 650.1283 318.6446 654.303 320.8498 655.0445 320.9539 655.8589 321.0079 659.6829 323.0789 661.1454 324.5887 661.3182 326.2235 661.7785 327.333 666.8793 329.9662 673.437 333.3491 676.929 336.5789 677.791 336.7382 680.2751 337.9906 681.2948 339.7928 681.7209 340.1141 682.7745 340.437 684.1446 340.2609 686.118 339.1682 687.5164 339.0069 692.7438 340.8299 693.7614 341.5874 695.8712 341.7572 700.963 343.3128 704.5587 344.729 710.2673 347.3381 710.7211 347.8479 712.9195 349.1759 721.43 353.6834 726.583 355.9 728.4894 356.2874 730.3172 357.46 734.6812 361.2976 740.0935 364.5617 741.5644 366.3065 743.7414 367.7225 748.3089 371.8964 749.0251 372.2657 750.9827 374.4275 751.9682 375.927 752.3979 377.6922 754.512 379.8392 755.8238 380.5711 756.3707 380.5586 757.6658 382.5259 757.9625 383.4191 757.7713 385.1799 757.2852 387.064 756.4827 388.92 756.8367 391.366 756.9724 395.0027 756.6323 395.7195 756.6463 398.0468 756.6646 401.0992 757.5539 402.5589 757.5998 402.6341 758.7434 402.9186 761.0385 402.4828 763.796 400.7539 769.5844 400.8227 770.9481 402.5086 771.9008 404.5011 772.4598 405.67 773.3699 408.4828 772.8414 411.4088 772.9737 415.5384 772.9957 416.225 774.4026 417.5539 775.9529 418.4324 777.9716 418.6066 778.3422 418.9544 778.3665 419.3178 777.8807 420.6348 778.4663 422.0154 780.4279 423.1693 781.2832 423.9246 781.849 424.8933 784.9629 427.3973 789.2158 429.5644 792.5493 430.7555 794.8219 432.4544 796.4069 432.5631 798.2435 433.7454 798.9708 434.96 799 435.4793 797.002 441.4536 794.6948 444.2484 790.2458 448.2931 787.3831 450.1505 781.3018 454.7145 779.0151 457.2152 775.9805 459.783 773.5696 462.3722 767.6686 465.2267 761.539 467.5607 753.8703 471.687 750.8317 473.9848 746.9699 475.212 745.0656 475.1077 742.8293 475.5703 741.5145 476.34 740.0793 476.4038 734.404 474.7704 731.3252 474.3171 726.5375 475.5741 725.4882 476.2784 725.3097 476.4991 724.0652 478.038 719.9102 480.6719 718.738 483.2432 717.0276 484.6378 714.3441 485.6651 712.546 485.8659 708.5717 487.9696 707.1226 489.2823 706.3142 490.6911 703.1844 493.6394 701.3733 494.4272 695.4654 495.8572 694.0548 496.7106 694.4425 497.3936 694.4429 498.0058 693.322 499.1534 692.3549 499.3326 691.9423 499.6765 689.5694 503.2513 688.8272 503.5342 688.6261 503.6108 687.6281 504.6602 687.9991 506.6733 688.0206 509.1112 687.6929 510.2739 686.338 512.4887 684.8226 513.296 684.0307 514.1121 681.9203 517.8056 681.8458 520.675 681.0471 522.1081 679.2408 522.2921 677.5545 523.6244 677.5925 523.9428 675.6415 526.8158 672.5886 529.4788 670.5688 530.64 669.1026 530.4446 668.2237 529.7075 667.8586 528.3123 667.4202 526.9943 662.51 522.4275 656.9068 520.4623 650.5701 515.3804 643.4346 513.8206 639.3193 511.7785 638.9431 511.3638 638.6204 508.7595 636.0312 504.8048 635.3358 504.7462 633.4066 498.4206 634.0307 492.9322 636.1336 483.1776 635.904 481.2269 636.2637 476.7638 637.332 474.2072 638.0249 470.3784 638.5577 464.3504 638.3612 462.6246 636.8691 457.8931 634.6358 454.2378 635.3501 451.9747 633.4772 449.5874 633.099 448.2852 632.9768 443.6619 633.3614 442.0006 633.137 441.5589 632.1862 441.0017 631.4249 440.8882 631.31 441.4755 630.9018 441.5263 629.0669 440.7209 628.8584 440.38 628.7532 437.0336 627.7578 431.2522 627.4912 430.4358 627.0541 429.9665 626.439 429.7725 626.2113 424.9787 625.1447 421.5297 624.7429 420.7672 622.2578 416.0508 617.6152 414.8875 617.0304 414.2847 616.726 413.4227 616.9788 411.8655 617.857 411.4066 617.5848 410.3396 616.58 408.5459 614.8187 407.1692 614.2725 406.4238 614.1564 404.0528 613.5851 403.4306 612.3976 402.1372 613.4651 400.2828 Z" id="fips-15001"/>
<path d="M 473.3576 171.6893 475.6251 172.2273 476.7762 171.7183 477.3042 171.117 478.1296 168.2131 477.8209 167.853 477.8876 167.5167 479.3723 166.5347 480.0966 166.7752 481.004 167.5541 482.621 170.7978 482.7325 172.2231 483.4069 173.2817 487.5031 174.5285 490.3251 177.8143 490.102 180.3339 487.4744 180.6509 483.9764 175.7782 481.5054 175.6349 481.0242 172.6076 480.9772 175.8798 479.3618 173.3613 474.8821 172.8057 473.3576 171.6893 Z" id="fips-15005"/>
</g>
</svg>