<?xml version="1.0"?>
<svg xmlns="http://www.w3.org/2000/svg" version="1.2" baseProfile="tiny" width="800" height="1241" viewBox="0 0 800 1241" stroke-linecap="round" stroke-linejoin="round">
<g id="cb_2018_us_county_5m">
<path d="M 334.4852 1027.2406 362.7175 1026.9868 447.5887 1026.4293 448.2865 1088.1315 441.8524 1088.1801 441.9888 1103.2173 420.2649 1103.3145 404.9553 1103.4241 404.9236 1095.7677 366.6588 1095.8286 366.6532 1093.2716 364.1087 1093.2693 364.0926 1088.4786 334.4889 1088.4876 334.4852 1027.2406 Z" id="fips-16063"/>
<path d="M 53.0303 1 84.8386 1.801 84.8337 1.7741 124.1099 2.7191 128.9058 2.753 129.7075 2.6604 166.7127 3.4584 165.043 88.7979 164.9975 91.1315 79.0664 89.4625 79.9631 58.9263 79.7554 58.9211 79.945 56.7541 80.8164 28.4874 52.1514 27.7947 52.3456 22.8305 53.0303 1 Z" id="fips-16021"/>
<path d="M 420.2649 1103.3145 441.9888 1103.2173 441.8524 1088.1801 448.2865 1088.1315 447.5887 1026.4293 486.2433 1025.9468 487.1806 1087.7587 479.5526 1087.857 479.9581 1119.5541 477.1612 1118.8431 468.964 1121.9068 466.6444 1123.9133 465.4896 1127.5263 462.6139 1132.6476 460.7856 1134.3892 457.8993 1141.655 456.6203 1143.3145 450.8183 1146.367 445.5838 1145.7749 443.0897 1143.8217 442.3888 1141.5139 440.2168 1139.8264 439.0004 1139.9788 432.4262 1143.5853 427.7381 1141.2386 425.9894 1141.2786 420.5509 1143.8123 420.2649 1103.3145 Z" id="fips-16067"/>
<path d="M 307.3619 743.3222 309.1926 745.799 307.0996 750.7107 306.6858 755.4608 309.7357 760.1441 311.1396 759.9768 314.2001 763.3642 316.7623 767.7495 316.2176 770.7835 319.7494 771.2046 326.0492 769.1393 330.2627 770.7831 333.1991 773.9509 334.4572 776.8113 333.6178 781.0129 338.0606 784.3863 341.3958 783.1656 343.9708 779.5829 347.0478 779.3949 349.3082 781.1294 352.5134 778.0284 352.9422 774.5459 354.5828 771.0515 357.909 770.1493 360.7365 767.2187 362.3899 760.7352 358.1524 759.025 358.4563 755.4837 361.5024 754.7832 364.8633 752.0902 364.729 749.299 365.9307 745.9042 369.5347 744.4633 371.4576 741.336 374.1866 740.7057 376.1403 736.0071 380.8128 733.4145 381.2265 730.8133 382.4735 733.6248 384.2774 733.6662 384.9841 738.0517 384.4604 744.174 383.4428 744.7411 383.8022 748.5687 381.9943 751.4017 381.9183 754.1198 389.6779 754.3659 392.1031 756.9878 393.5211 755.0161 398.4292 752.4387 402.7327 760.252 403.7618 764.1914 406.6014 770.5579 411.1966 776.4797 412.4198 776.4169 419.296 785.8474 421.9317 787.1107 428.902 793.2213 432.4853 798.3812 436.0388 798.3404 441.4113 800.6342 446.2938 801.6726 452.9359 805.9867 461.1329 806.9662 465.5559 809.92 472.1571 810.618 475.1967 806.0046 479.0554 805.4185 480.4829 809.6849 481.8026 810.3484 484.5046 817.4311 490.0856 823.8477 490.7338 826.7574 492.8881 828.9846 494.7155 836.7076 493.643 838.94 495.5067 843.6083 483.391 843.749 483.8491 874.4306 478.5856 874.4692 479.1481 886.5722 480.2566 887.8526 480.474 900.0055 479.2638 903.1316 479.1888 906.8391 485.0603 909.5295 487.58 913.1148 488.3324 915.7432 489.9107 916.2899 491.5225 920.644 489.3426 918.3736 484.8898 917.2002 481.048 918.7104 480.8618 922.8656 479.8008 925.8265 476.3049 929.0384 475.4804 931.0668 472.1367 931.932 470.4307 934.6359 468.9731 934.4117 464.873 937.8863 461.5212 938.8956 456.0442 942.9685 451.6281 944.9772 445.6638 950.7626 442.6206 950.9051 440.8979 952.1971 438.0157 959.3292 436.2248 961.4061 435.2461 960.9517 434.2708 955.986 431.4222 955.1564 430.3344 951.6285 426.2847 947.1613 422.511 947.3305 421.6499 943.4828 418.8232 942.1321 416.4442 938.9096 413.5652 937.0892 412.3057 932.6018 409.4495 926.9446 406.4502 925.6459 403.4413 927.6423 403.5086 930.3844 401.3594 932.4949 395.3692 931.5325 392.7166 928.7353 392.1373 925.5735 389.8778 925.5514 387.3034 922.8356 379.4459 919.1883 375.0941 915.614 374.034 910.3712 374.6727 907.2031 372.9052 905.7465 366.4421 905.2126 364.4462 908.0567 357.9939 904.2842 355.774 905.0183 353.7108 904.0192 349.7934 904.1431 348.4548 902.7361 345.57 903.6929 344.061 908.5269 344.8778 910.0187 342.9474 913.1147 338.636 913.3435 336.1385 912.0944 335.9519 907.9239 333.0708 904.6577 329.6219 903.11 328.2127 901.0154 323.5477 898.638 306.7058 898.5874 306.7307 887.0967 299.1832 887.0691 291.8516 891.3089 290.761 894.0463 286.7063 896.6482 285.7583 895.1425 284.2504 894.6228 287.2534 888.9315 285.0321 887.7289 285.3494 883.7908 283.3239 882.1096 282.2065 883.3967 279.0433 882.2921 277.0614 879.0517 277.6631 875.3494 280.7183 871.6406 283.2502 870.6388 283.4682 868.4336 280.6209 868.39 277.3259 864.5648 279.6884 863.2696 281.091 860.817 280.2149 858.3208 276.7967 856.574 275.4693 857.4719 272.7786 854.6262 269.6377 855.6841 266.8151 851.7595 265.1434 852.0822 262.1237 849.8509 262.7595 847.9396 261.2634 844.0919 263.0741 843.3718 262.0883 835.706 260.8226 833.3224 257.7665 835.766 256.5783 831.9778 253.6438 831.2214 252.13 833.2216 251.9135 830.6827 247.1424 828.2436 246.2962 825.6334 246.3781 825.0441 247.0004 824.7991 247.6324 823.7906 247.5148 823.0451 248.012 822.5395 249.1873 821.76 250.2943 820.5557 251.1498 818.695 252.1631 817.3974 253.2089 814.0425 254.1401 812.8007 254.793 810.4737 254.7205 807.6502 254.675 805.783 254.4778 805.3108 254.6702 804.5273 255.2718 804.3633 255.1115 803.5512 254.6201 803.3736 254.0889 803.1331 254.2133 802.5139 255.0895 801.7322 255.0021 800.5302 254.8976 799.6491 254.5434 798.816 253.8003 797.9108 253.598 797.2415 253.6086 796.1496 253.6597 795.6367 253.3341 795.2076 252.8708 795.0338 252.6825 794.4048 252.4009 793.7809 251.8513 793.824 251.2313 794.2867 250.3214 794.0569 249.794 793.9998 248.9011 794.1811 248.5525 794.0925 248.1606 793.6717 248.3296 792.9788 247.7484 792.1382 247.0038 791.751 246.8363 791.1313 247.0492 790.5162 246.7564 789.4575 246.7014 788.8046 246.2821 788.3606 246.1371 787.6932 246.0252 786.5831 245.8593 785.7606 245.7866 785.1976 245.4594 783.902 245.5016 783.0739 246.427 782.0383 247.0007 780.7343 247.3237 779.8991 248.124 778.9974 248.3507 778.1987 249.0831 777.7592 249.9641 778.3066 250.4444 778.5911 250.9624 778.6551 251.1237 778.3647 251.2955 777.3403 251.8073 776.9765 253.0294 776.4301 254.3715 775.9649 254.7963 776.4583 255.5865 776.5176 255.5386 775.5666 255.51 774.5735 256.1907 774.6464 256.5661 774.8403 257.2732 774.7772 258.1643 775.2842 259.0592 775.0261 259.3316 773.9765 260.5833 773.3053 260.9781 772.4409 261.5045 771.7489 262.195 771.4822 262.6963 771.0095 263.0296 770.1177 263.1636 768.8907 263.6524 767.9453 264.2343 766.9683 264.5786 765.7503 264.8201 764.7529 265.1487 763.3577 265.0711 762.3385 266.1736 760.1083 265.8782 758.8146 265.1151 758.1093 264.8381 757.3768 265.3526 756.7409 265.8625 756.3066 266.977 754.3915 268.5295 753.1315 270.0805 752.0001 271.939 750.741 272.5474 749.9813 273.9795 749.9711 274.4494 750.5654 275.23 751.7006 275.9012 752.2598 276.6184 752.3478 277.9761 752.865 279.3094 753.8638 279.5456 755.0372 280.1666 755.9025 280.698 755.3649 281.0826 754.7212 281.8185 755.288 281.8473 756.2713 281.7645 757.1461 281.9261 758.4531 282.286 759.321 283.0069 759.6445 283.2559 759.0506 283.9175 758.5033 283.7677 757.8787 284.1718 757.2854 284.5308 757.3107 285.1473 757.3519 285.6776 757.0537 286.5606 757.1002 287.4492 757.6594 288.3379 758.1837 289.2696 758.6416 290.0306 758.3668 290.8162 757.6668 290.7746 757.2189 291.3397 756.8026 291.9289 756.6349 293.0262 756.1867 293.4411 755.6745 293.752 755.212 294.4342 753.9631 294.3982 753.234 295.0396 752.3021 295.7547 752.1643 296.8731 751.7301 297.3443 750.6423 298.7243 749.4977 299.7525 748.6072 300.6006 748.3161 301.1551 747.8196 301.8378 747.4677 301.9269 747.7744 302.445 747.7065 302.5312 747.1896 303.3085 746.8277 303.7652 745.8024 304.2904 744.8812 305.1811 744.3804 305.7574 744.2201 306.3901 743.8019 307.2816 743.544 307.3619 743.3222 Z" id="fips-16037"/>
<path d="M 138.1102 795.9695 137.9198 795.6529 137.598 794.0234 137.7221 792.8105 137.4498 790.8929 137.2456 789.2015 136.5975 787.5457 136.3058 785.9802 136.0281 784.5543 136.1169 783.3704 135.8302 781.7248 135.2682 781.0841 135.046 780.5393 135.4283 780.0312 135.6366 778.7446 135.8868 777.3088 136.3108 775.7118 136.8769 774.5132 136.7252 773.3317 136.657 771.2637 136.0566 769.7381 136.8232 768.2551 137.4496 766.2067 138.0347 763.8724 137.9919 763.0406 137.9551 762.4999 138.0294 762.1401 138.475 761.5291 138.7657 759.9996 138.1547 758.7634 137.671 758.4883 137.5064 758.4911 137.3358 758.3567 137.2907 758.1765 137.1102 757.8968 136.952 757.6342 136.5943 757.244 136.2703 756.8432 136.1601 756.6432 136.0381 756.3921 135.6625 756.0298 135.8696 755.4962 136.274 755.1358 136.4634 753.0053 135.1176 751.6392 134.4945 750.3937 133.7633 749.1446 133.4126 748.5967 132.7747 748.2691 132.6205 747.3295 132.4062 746.3055 132.719 745.6117 132.9977 745.0043 133.0849 744.5392 133.2291 744.0806 133.453 743.496 133.3693 743.1104 133.2871 742.6492 133.3777 741.9742 133.6141 741.3059 133.7157 740.8369 133.7774 740.3026 133.8397 739.1931 133.9993 738.4175 134.0785 736.9744 134.178 735.7811 134.1528 734.9882 134.3602 734.2187 134.4824 733.8908 134.4455 733.0878 134.425 732.4132 134.3172 731.9474 134.5209 731.5076 134.9491 731.4167 135.2134 730.8229 135.3476 729.8494 135.562 728.836 135.7993 727.6554 136.2172 727.3251 136.7328 727.2152 137.013 727.3571 137.33 727.2498 137.3426 726.9721 137.4742 725.5824 138.3765 725.1141 138.7756 724.9166 139.0214 724.6811 139.1148 724.1655 139.2593 723.0631 139.3028 722.0078 139.5529 721.1355 139.8588 720.2167 139.6225 719.564 140.0533 718.7585 139.9508 718.07 140.2167 717.6593 141.0261 717.7311 141.5975 718.1471 142.654 718.1415 143.425 717.1285 143.9137 715.6816 144.5312 714.7738 144.8803 713.397 145.0822 712.76 144.9271 711.635 144.5351 711.0824 144.3851 710.6541 143.8524 710.0806 143.4776 709.7183 143.2891 708.4684 142.7525 707.8857 142.6173 707.3109 142.984 705.8971 143.5579 704.7417 144.5642 704.021 145.2518 703.0021 145.8781 702.5209 146.6898 701.4727 146.8056 700.0544 146.8002 699.264 146.82 698.6097 147.3828 698.2302 147.8659 697.4556 148.1554 697.0179 148.2035 696.2563 147.6468 695.7103 145.7359 694.6959 143.6165 694.4318 142.7785 693.939 142.0847 693.2056 142.0184 692.0454 142.2888 690.3951 141.7855 688.768 141.7915 688.6908 142.9826 685.8186 142.8762 683.5193 144.7919 679.773 149.7652 680.8702 151.9992 678.7206 153.9691 678.5774 154.3253 676.6232 157.5884 675.7292 163.0026 669.4051 164.3933 672.1988 163.0368 673.6273 284.1501 674.7197 322.2884 674.8002 318.7964 677.8133 318.6032 681.3392 317.5161 682.9061 318.8469 688.2214 317.38 692.8965 318.9297 693.8801 318.1156 695.5839 318.6886 702.206 318.0506 704.9795 318.6023 708.6282 317.0486 714.4379 317.1238 718.5545 318.5574 721.1273 317.0179 722.9028 318.5392 728.746 317.1282 730.9349 313.662 731.486 312.7177 733.3217 313.7324 734.476 312.979 737.4611 309.6204 738.7485 307.3619 743.3222 307.2816 743.544 306.3901 743.8019 305.7574 744.2201 305.1811 744.3804 304.2904 744.8812 303.7652 745.8024 303.3085 746.8277 302.5312 747.1896 302.445 747.7065 301.9269 747.7744 301.8378 747.4677 301.1551 747.8196 300.6006 748.3161 299.7525 748.6072 298.7243 749.4977 297.3443 750.6423 296.8731 751.7301 295.7547 752.1643 295.0396 752.3021 294.3982 753.234 294.4342 753.9631 293.752 755.212 293.4411 755.6745 293.0262 756.1867 291.9289 756.6349 291.3397 756.8026 290.7746 757.2189 290.8162 757.6668 290.0306 758.3668 289.2696 758.6416 288.3379 758.1837 287.4492 757.6594 286.5606 757.1002 285.6776 757.0537 285.1473 757.3519 284.5308 757.3107 284.1718 757.2854 283.7677 757.8787 283.9175 758.5033 283.2559 759.0506 283.0069 759.6445 282.286 759.321 281.9261 758.4531 281.7645 757.1461 281.8473 756.2713 281.8185 755.288 281.0826 754.7212 280.698 755.3649 280.1666 755.9025 279.5456 755.0372 279.3094 753.8638 277.9761 752.865 276.6184 752.3478 275.9012 752.2598 275.23 751.7006 274.4494 750.5654 273.9795 749.9711 272.5474 749.9813 271.939 750.741 270.0805 752.0001 268.5295 753.1315 266.977 754.3915 265.8625 756.3066 265.3526 756.7409 264.8381 757.3768 265.1151 758.1093 265.8782 758.8146 266.1736 760.1083 265.0711 762.3385 265.1487 763.3577 264.8201 764.7529 264.5786 765.7503 264.2343 766.9683 263.6524 767.9453 263.1636 768.8907 263.0296 770.1177 262.6963 771.0095 262.195 771.4822 261.5045 771.7489 260.9781 772.4409 260.5833 773.3053 259.3316 773.9765 259.0592 775.0261 258.1643 775.2842 257.2732 774.7772 256.5661 774.8403 256.1907 774.6464 255.51 774.5735 255.5386 775.5666 255.5865 776.5176 254.7963 776.4583 254.3715 775.9649 253.0294 776.4301 251.8073 776.9765 251.2955 777.3403 251.1237 778.3647 250.9624 778.6551 250.4444 778.5911 249.9641 778.3066 249.0831 777.7592 248.3507 778.1987 248.124 778.9974 247.3237 779.8991 247.0007 780.7343 246.427 782.0383 245.5016 783.0739 245.4594 783.902 245.7866 785.1976 245.8593 785.7606 246.0252 786.5831 246.1371 787.6932 246.2821 788.3606 246.7014 788.8046 246.7564 789.4575 247.0492 790.5162 246.8363 791.1313 247.0038 791.751 247.7484 792.1382 248.3296 792.9788 248.1606 793.6717 248.5525 794.0925 248.9011 794.1811 249.794 793.9998 250.3214 794.0569 251.2313 794.2867 251.8513 793.824 252.4009 793.7809 252.6825 794.4048 252.8708 795.0338 253.3341 795.2076 253.6597 795.6367 253.6086 796.1496 253.598 797.2415 253.8003 797.9108 254.5434 798.816 254.8976 799.6491 255.0021 800.5302 255.0895 801.7322 254.2133 802.5139 254.0889 803.1331 254.6201 803.3736 255.1115 803.5512 255.2718 804.3633 254.6702 804.5273 254.4778 805.3108 254.675 805.783 254.7205 807.6502 254.793 810.4737 254.1401 812.8007 253.2089 814.0425 252.1631 817.3974 251.1498 818.695 250.2943 820.5557 249.1873 821.76 248.012 822.5395 247.5148 823.0451 247.6324 823.7906 247.0004 824.7991 246.3781 825.0441 246.2962 825.6334 245.3783 825.1306 243.3429 824.1097 241.337 823.8451 239.9809 824.2279 239.029 824.0949 238.7496 825.2583 239.2278 826.2806 239.187 827.8674 239.3393 829.9265 238.9549 831.5942 237.3953 832.6372 235.8598 833.5403 234.4476 834.7839 234.4304 836.0564 233.7177 838.2158 233.0608 838.5547 232.6786 838.9528 232.6328 839.223 232.0114 839.1849 231.4701 838.6629 230.0344 838.4335 228.73 839.4336 227.4305 840.6873 226.412 841.7987 224.517 842.5793 223.3761 843.1438 221.9125 843.0894 220.5942 843.9942 220.0131 843.9198 219.6331 843.1524 218.8457 842.391 217.8754 843.1285 211.9595 843.5862 204.3735 843.4975 201.2187 843.4632 196.1977 843.3715 187.4144 843.2726 179.9726 843.1574 174.5182 843.0416 169.7183 842.9469 164.8132 842.9027 158.4877 842.7783 155.21 842.7211 150.4211 842.491 144.7352 842.395 143.9974 843.3751 143.6265 844.6313 143.5109 845.5629 143.5401 846.7299 143.3512 847.3321 143.1367 848.2174 142.6149 849.3279 142.4262 850.485 142.2017 851.7644 142.0625 852.8405 141.6646 853.7883 141.7215 854.6696 142.016 855.8379 142.0131 856.7768 142.3539 857.3291 141.6757 857.9615 139.982 857.9418 137.0487 857.2469 132.3372 857.1459 129.7267 857.0955 130.4624 826.6023 138.106 826.728 138.1102 795.9695 Z" id="fips-16085"/>
<path d="M 307.3619 743.3222 309.6204 738.7485 312.979 737.4611 313.7324 734.476 312.7177 733.3217 313.662 731.486 317.1282 730.9349 318.5392 728.746 317.0179 722.9028 318.5574 721.1273 317.1238 718.5545 317.0486 714.4379 318.6023 708.6282 318.0506 704.9795 318.6886 702.206 318.1156 695.5839 318.9297 693.8801 317.38 692.8965 318.8469 688.2214 317.5161 682.9061 318.6032 681.3392 318.7964 677.8133 322.2884 674.8002 324.674 668.3724 330.9947 661.1291 333.049 659.9902 334.8051 657.1416 333.4884 657.4212 328.9223 653.3057 325.3069 649.1085 324.7473 645.647 322.156 644.526 319.3826 639.6834 317.2818 639.8418 314.1663 636.9021 313.0632 632.9313 310.0847 632.61 310.4498 627.3497 309.4372 625.5703 310.0511 619.9212 313.3063 619.374 317.4122 623.1855 320.9879 622.7239 324.0268 624.2111 324.0259 626.009 326.1131 626.5309 330.0442 618.0429 334.5612 615.4035 337.5145 612.683 339.0714 609.8849 340.2479 610.7868 343.1401 608.9912 344.1666 609.4565 345.5773 611.027 346.5858 611.6861 349.5991 610.3075 351.2311 610.6574 351.7014 613.7066 352.4305 613.9618 353.8983 615.0975 356.7704 619.7333 360.1323 620.9345 362.6203 622.7249 362.9797 623.1295 363.5926 626.0016 365.5405 628.5001 367.0003 628.6019 373.6659 624.8263 374.7133 623.8531 375.832 622.1391 377.5172 617.1143 377.4667 615.538 377.0125 614.7312 377.4658 613.3077 379.9572 613.2017 382.9635 615.1024 384.3044 614.9156 385.0791 613.3356 385.8678 612.2931 388.9788 612.0166 391.393 611.2025 392.1447 609.7837 392.2029 609.1655 391.7357 608.5448 391.8438 608.207 392.9633 606.4706 395.6777 606.0867 397.3662 605.2263 397.9134 604.2045 397.7766 602.9646 397.9365 601.671 399.6667 598.7737 403.8549 595.0594 405.6699 595.0498 406.1266 594.0963 406.2679 593.3497 405.4791 591.2229 405.4091 589.3035 405.5453 587.2376 405.9949 586.6723 409.5529 585.1608 411.6151 586.3765 412.7428 587.6725 415.4974 586.6204 415.5028 586.6447 416.3834 590.6281 418.9172 594.1084 420.2322 595.0063 420.6591 596.1967 420.067 597.513 419.7643 599.6379 422.0757 600.4984 425.0995 599.3025 429.8447 601.2309 431.877 603.0353 432.3583 604.7083 432.5414 606.091 432.2616 606.9343 430.3144 609.3643 428.5741 617.4184 431.7146 617.5349 432.4868 616.9546 433.2608 616.894 435.5113 616.8811 436.556 617.0883 436.8 617.6083 436.9498 620.6375 437.8133 623.3552 437.283 624.9222 434.9114 628.9578 435.0265 629.5045 437.3726 633.085 437.4199 634.6568 435.859 635.88 436.2184 637.4377 437.8699 637.4704 441.1784 639.9321 441.3445 640.3147 441.4407 641.2156 441.0885 644.8017 440.5444 648.183 440.7551 650.9753 441.1509 651.7604 446.9623 659.0552 447.1349 660.3128 446.7136 661.2861 446.6647 662.2953 447.5668 664.3107 448.3444 665.0845 448.8829 665.0539 449.9783 665.5967 451.0561 666.4363 451.9338 667.6125 452.2775 668.742 453.6133 671.4245 458.3021 675.2266 459.5267 677.7033 458.9605 679.641 462.1391 684.0191 461.5226 686.2443 464.6868 688.9048 467.2501 688.2654 469.6132 688.5141 470.1007 689.6901 469.3105 691.2896 468.3597 692.9265 472.3196 696.0514 473.5818 697.7142 475.1253 697.6442 475.8656 697.2643 476.9511 698.2428 477.0682 700.8052 477.2659 702.4846 478.8525 707.4355 477.7314 708.9358 477.7489 711.388 478.0377 712.8822 478.2118 715.7454 477.5815 716.8729 475.2853 717.8706 474.371 717.7533 473.6119 717.4962 471.9178 717.8204 471.3959 718.9351 472.3815 721.526 474.44 725.489 476.7469 730.8796 481.1864 736.7798 484.4346 737.1693 486.86 737.9294 489.5203 740.2887 490.8165 743.653 490.7469 743.9561 489.7463 744.5757 489.8472 745.2307 491.4079 746.423 496.3987 743.8556 496.9719 743.0756 499.2534 741.3918 503.128 739.5241 504.2082 741.0596 507.8626 741.8949 509.792 743.083 511.1891 744.5738 511.7123 745.6977 513.6838 747.114 514.3787 746.7625 516.5921 747.4561 517.7508 748.1169 517.7841 749.5445 517.0078 750.3743 517.3909 751.6632 519.6837 754.2082 521.5574 755.7757 521.7452 759.3786 522.1674 761.3287 524.2114 762.3652 525.6681 764.408 526.0445 765.6095 525.7265 766.4905 526.0285 768.5078 526.3918 769.7362 528.1985 771.8936 528.4935 773.2231 527.9959 774.6772 527.5975 775.1306 526.4946 775.3741 525.481 776.0032 524.2561 778.0901 524.4446 779.2383 525.9846 780.1906 527.1916 782.4264 530.1921 784.6579 530.0844 785.6847 529.1571 787.0385 529.6573 788.5851 534.1281 791.3566 534.1993 792.6816 532.9631 795.2549 531.842 796.504 532.8369 799.1912 534.3534 800.9188 534.8388 804.5956 537.6458 807.458 541.4946 810.2196 545.7899 812.3921 549.9672 813.5474 550.4153 816.7216 553.8121 820.2387 555.1462 820.5203 558.1696 818.2123 558.9276 817.1168 559.5262 842.9514 543.5535 842.5914 536.6167 842.7358 495.5067 843.6083 493.643 838.94 494.7155 836.7076 492.8881 828.9846 490.7338 826.7574 490.0856 823.8477 484.5046 817.4311 481.8026 810.3484 480.4829 809.6849 479.0554 805.4185 475.1967 806.0046 472.1571 810.618 465.5559 809.92 461.1329 806.9662 452.9359 805.9867 446.2938 801.6726 441.4113 800.6342 436.0388 798.3404 432.4853 798.3812 428.902 793.2213 421.9317 787.1107 419.296 785.8474 412.4198 776.4169 411.1966 776.4797 406.6014 770.5579 403.7618 764.1914 402.7327 760.252 398.4292 752.4387 393.5211 755.0161 392.1031 756.9878 389.6779 754.3659 381.9183 754.1198 381.9943 751.4017 383.8022 748.5687 383.4428 744.7411 384.4604 744.174 384.9841 738.0517 384.2774 733.6662 382.4735 733.6248 381.2265 730.8133 380.8128 733.4145 376.1403 736.0071 374.1866 740.7057 371.4576 741.336 369.5347 744.4633 365.9307 745.9042 364.729 749.299 364.8633 752.0902 361.5024 754.7832 358.4563 755.4837 358.1524 759.025 362.3899 760.7352 360.7365 767.2187 357.909 770.1493 354.5828 771.0515 352.9422 774.5459 352.5134 778.0284 349.3082 781.1294 347.0478 779.3949 343.9708 779.5829 341.3958 783.1656 338.0606 784.3863 333.6178 781.0129 334.4572 776.8113 333.1991 773.9509 330.2627 770.7831 326.0492 769.1393 319.7494 771.2046 316.2176 770.7835 316.7623 767.7495 314.2001 763.3642 311.1396 759.9768 309.7357 760.1441 306.6858 755.4608 307.0996 750.7107 309.1926 745.799 307.3619 743.3222 Z" id="fips-16059"/>
<path d="M 41.5389 330.1726 46.2074 329.7459 50.1136 332.5495 48.8073 337.1118 51.1072 340.3906 52.6567 341.0825 55.0353 338.6251 58.4945 339.3709 60.0074 341.441 64.2375 344.9385 65.6575 345.2861 65.571 347.5775 73.2742 347.7781 110.8847 348.0021 110.8105 350.555 126.2845 350.9335 125.9349 366.2972 124.7046 420.3162 109.3925 419.7726 94.1495 419.5166 89.438 419.1859 84.8017 422.1701 81.1449 426.2236 80.1238 426.3574 77.1521 434.1708 38.2989 433.2756 39.2093 405.3683 39.7982 385.0716 39.8765 383.2489 41.5389 330.1726 Z" id="fips-16057"/>
<path d="M 536.6167 842.7358 543.5535 842.5914 559.5262 842.9514 558.9276 817.1168 559.056 816.9312 559.0823 814.4312 557.8559 811.7834 556.0194 809.1384 556.9327 805.6238 560.7698 801.6154 563.3219 798.102 566.7056 796.8128 568.4254 795.3768 570.4127 794.4179 571.8377 794.6188 576.4917 796.5864 577.3516 797.4158 578.4891 797.2331 585.2054 796.426 587.4673 798.0732 588.8122 798.1086 591.6814 797.3429 592.7627 797.4851 595.7051 798.8563 596.5882 799.7804 596.6464 800.48 598.0954 801.0424 601.4276 797.9638 603.064 798.6835 606.2697 800.981 612.3664 803.3185 614.619 799.8904 615.7654 796.4859 616.0253 795.2712 615.5645 788.9829 616.1235 787.77 616.7891 787.2136 620.504 787.0388 621.0167 786.5326 620.9723 785.0964 621.2251 784.4744 621.8651 783.731 624.5056 781.7494 627.9549 781.4689 629.9551 781.6639 631.572 782.5586 632.021 783.8724 631.719 784.8944 632.7258 785.9196 637.5208 787.6254 638.0528 787.6181 639.9052 786.0392 643.4482 786.2446 644.3933 786.8536 644.9335 788.2087 647.2783 789.4968 647.9302 789.474 648.5789 789.0374 648.919 787.8293 651.9316 786.4854 653.8984 786.7809 655.9951 787.5573 656.3077 786.2435 656.1686 785.3701 656.4381 784.6648 658.829 785.3483 661.2048 786.4922 663.0058 786.2172 666.6107 783.7427 667.0224 782.5452 672.5893 782.2861 674.5258 781.1323 676.6992 780.9518 679.5024 785.1281 680.4306 787.5264 683.1734 790.396 684.8639 789.9106 684.9931 788.0365 690.533 786.5209 690.8782 785.8166 692.4132 784.529 693.5553 784.085 696.2782 783.9056 696.9804 782.7056 697.5883 780.9203 700.4322 780.8809 708.5494 782.4253 709.4697 808.5039 687.5512 809.205 688.0651 824.1114 680.4118 824.3716 680.2031 839.4756 680.4586 847.1702 673.3992 847.3951 673.6636 855.0524 658.4892 855.5822 658.8752 870.8632 643.4764 871.2519 575.2462 872.9081 575.5279 888.1616 537.5907 888.8809 536.6167 842.7358 Z" id="fips-16033"/>
<path d="M 46.4945 168.6029 46.4952 168.5861 46.7545 161.5629 47.0131 154.6343 47.4748 146.0132 47.5098 145.4352 47.4908 145.2776 47.5073 144.896 47.5105 144.801 47.512 144.7534 47.5246 144.2449 47.5286 144.1795 47.7796 140.0416 49.1083 111.4054 49.1102 111.3451 49.3907 102.2891 49.3971 102.2168 49.4315 101.0438 49.4332 100.9916 49.815 88.7211 50.6131 67.4825 50.6738 66.1202 50.916 61.1352 51.4871 44.7901 52.1514 27.7947 80.8164 28.4874 79.945 56.7541 79.7554 58.9211 79.9631 58.9263 79.0664 89.4625 164.9975 91.1315 164.9254 94.8319 164.5937 106.7444 164.362 124.9739 164.1493 131.1594 164.1094 135.5102 163.994 137.6779 163.9449 141.417 163.7342 157.4996 163.5651 163.884 163.512 165.8915 163.4871 167.7523 163.5332 168.906 163.2672 179.4502 163.1954 183.4243 161.7214 180.1918 156.9093 177.1581 155.0118 173.3962 150.0533 175.3897 144.811 170.9142 141.8351 166.8984 137.0944 168.0364 130.264 175.6608 129.7563 198.0623 109.0079 197.6359 109.5495 179.8266 94.3732 179.4349 94.2682 181.9435 86.6077 181.736 46.0391 180.5629 46.4945 168.6029 Z" id="fips-16017"/>
<path d="M 538.7247 1040.7621 538.2072 1010.1193 545.9444 1009.9624 545.6644 995.4174 546.6866 980.9294 562.0587 980.653 561.793 965.3545 569.2012 965.1857 576.7745 964.3016 576.4262 949.6583 576.6724 949.651 584.0427 948.8753 599.27 948.4988 600.1195 984.0062 653.4451 982.5634 653.5094 985.1714 661.153 984.9601 661.3648 992.6148 673.9224 992.2926 689.712 991.8248 690.1933 1006.5815 720.2527 1005.6127 721.7035 1051.7398 675.6373 1053.14 660.7155 1053.3668 584.2623 1055.493 583.2297 1056.6313 581.4529 1055.5956 581.2267 1057.2693 577.814 1061.1764 573.4351 1061.5725 574.2563 1064.3091 572.307 1066.0894 572.4169 1068.177 570.474 1071.2558 571.1481 1073.1265 568.8631 1074.9013 568.8816 1078.5378 567.0124 1081.3517 565.3719 1080.4851 564.2234 1083.9222 539.5252 1084.4502 538.7247 1040.7621 Z" id="fips-16011"/>
<path d="M 286.7063 896.6482 290.761 894.0463 291.8516 891.3089 299.1832 887.0691 306.7307 887.0967 306.7058 898.5874 323.5477 898.638 328.2127 901.0154 329.6219 903.11 333.0708 904.6577 335.9519 907.9239 336.1385 912.0944 338.636 913.3435 342.9474 913.1147 344.8778 910.0187 344.061 908.5269 345.57 903.6929 348.4548 902.7361 349.7934 904.1431 353.7108 904.0192 355.774 905.0183 357.9939 904.2842 364.4462 908.0567 366.4421 905.2126 372.9052 905.7465 374.6727 907.2031 374.034 910.3712 375.0941 915.614 379.4459 919.1883 387.3034 922.8356 389.8778 925.5514 392.1373 925.5735 392.7166 928.7353 395.3692 931.5325 401.3594 932.4949 403.5086 930.3844 403.4413 927.6423 406.4502 925.6459 409.4495 926.9446 412.3057 932.6018 413.5652 937.0892 416.4442 938.9096 418.8232 942.1321 421.6499 943.4828 422.511 947.3305 426.2847 947.1613 430.3344 951.6285 431.4222 955.1564 434.2708 955.986 435.2461 960.9517 436.2248 961.4061 438.951 961.7972 442.0373 960.2882 442.593 958.1736 445.2302 957.6295 448.6247 958.5796 450.4886 964.1036 450.8771 968.0062 453.3084 971.3633 452.3999 973.3844 454.8679 974.5263 457.3298 973.8386 457.468 996.7453 492.4977 996.3601 492.7 1010.9001 538.2072 1010.1193 538.7247 1040.7621 508.3855 1041.2904 509.9458 1087.5944 510.1928 1102.7412 517.7072 1102.5921 517.9892 1117.9051 510.4459 1118.0563 510.5674 1126.8773 507.9516 1128.1869 507.29 1126.3923 501.8118 1126.3989 494.4002 1118.8653 492.7533 1116.1535 487.8035 1118.549 479.9581 1119.5541 479.5526 1087.857 487.1806 1087.7587 486.2433 1025.9468 447.5887 1026.4293 362.7175 1026.9868 362.7212 1016.784 360.1413 1016.7812 360.1486 1004.6334 355.3028 1003.2857 351.3627 1004.895 349.1671 1003.5998 346.2309 1004.187 342.2057 1003.4347 343.1709 997.2253 343.2243 991.9781 340.6784 991.9719 340.6565 985.4415 344.758 981.534 345.8321 977.9537 342.8442 975.6953 338.6935 974.2529 334.3706 968.5522 335.517 963.6881 329.2084 961.0779 327.2302 957.6575 323.3082 958.119 323.733 953.5509 325.0616 951.2207 325.8835 945.718 323.7379 944.0857 322.6095 941.2431 324.1197 939.1297 323.6304 934.5365 325.4048 932.0958 322.3547 929.9019 322.0515 923.9278 320.8585 920.1961 319.2584 918.5612 315.9822 919.9354 313.4494 922.6088 308.3324 920.6394 304.7053 923.2253 301.4643 922.57 302.3206 918.2134 297.489 916.8026 291.7477 913.9995 289.1074 911.4769 286.8904 912.4693 284.3595 910.697 286.3215 909.1564 283.4672 900.8457 286.7063 896.6482 Z" id="fips-16013"/>
<path d="M 495.5067 843.6083 536.6167 842.7358 537.5907 888.8809 575.5279 888.1616 576.007 918.8472 576.6724 949.651 576.4262 949.6583 576.7745 964.3016 569.2012 965.1857 561.793 965.3545 562.0587 980.653 546.6866 980.9294 545.6644 995.4174 545.9444 1009.9624 538.2072 1010.1193 492.7 1010.9001 492.4977 996.3601 457.468 996.7453 457.3298 973.8386 454.8679 974.5263 452.3999 973.3844 453.3084 971.3633 450.8771 968.0062 450.4886 964.1036 448.6247 958.5796 445.2302 957.6295 442.593 958.1736 442.0373 960.2882 438.951 961.7972 436.2248 961.4061 438.0157 959.3292 440.8979 952.1971 442.6206 950.9051 445.6638 950.7626 451.6281 944.9772 456.0442 942.9685 461.5212 938.8956 464.873 937.8863 468.9731 934.4117 470.4307 934.6359 472.1367 931.932 475.4804 931.0668 476.3049 929.0384 479.8008 925.8265 480.8618 922.8656 481.048 918.7104 484.8898 917.2002 489.3426 918.3736 491.5225 920.644 489.9107 916.2899 488.3324 915.7432 487.58 913.1148 485.0603 909.5295 479.1888 906.8391 479.2638 903.1316 480.474 900.0055 480.2566 887.8526 479.1481 886.5722 478.5856 874.4692 483.8491 874.4306 483.391 843.749 495.5067 843.6083 Z" id="fips-16023"/>
<path d="M 31.4999 902.4954 34.7067 902.5852 34.4712 910.2809 39.6237 910.481 39.5723 913.0335 42.0778 913.0978 42.0495 915.6338 47.2135 915.7786 47.1389 918.3654 54.7653 918.5802 54.798 917.3157 59.896 917.4421 59.9267 916.161 65.0724 916.3033 80.3444 916.6987 90.5276 916.9414 89.7297 947.4296 94.7841 947.5631 94.7092 950.1436 94.5417 957.8442 94.0609 978.3882 88.9745 978.2501 88.4655 1008.0058 87.2218 1006.6735 83.5638 1006.3569 79.9037 1005.0369 77.2992 1000.4729 76.5094 996.9897 74.6164 993.6484 68.9543 990.5781 67.8471 988.092 61.3245 981.5746 59.4137 978.2298 54.7909 973.9726 54.5041 967.5605 55.1549 965.4629 52.7303 961.6874 50.8499 956.4379 47.2152 953.3459 43.8242 953.6509 38.7656 951.5764 37.2548 948.5811 33.3474 945.6692 31.8659 940.0279 27.2552 938.9006 24.4912 937.4462 24.5077 937.0591 24.5989 932.9709 24.6568 931.4518 24.737 928.2632 24.7666 928.0824 25.1583 915.0111 25.7668 913.3852 25.8149 913.2565 25.6294 912.2546 24.4796 911.1238 24.9494 909.5443 25.5208 909.1603 26.371 909.1841 27.0798 909.4423 27.5785 909.0476 27.7647 908.3624 27.4014 907.7315 26.3031 907.2826 25.9005 906.8677 26.1318 906.0688 27.4581 905.5256 28.9576 905.1527 29.171 905.1172 29.9247 905.3178 30.1578 905.2476 31.0211 904.6719 31.1022 904.4749 31.4999 902.4954 Z" id="fips-16027"/>
<path d="M 109.3925 419.7726 124.7046 420.3162 125.9349 366.2972 208.65 367.8793 209.3758 367.9771 290.8633 368.7937 290.7066 369.3016 294.1914 371.1377 295.0549 371.4634 295.3606 372.372 294.6341 372.8945 293.5566 375.1039 294.2362 377.7968 293.9911 378.949 293.2356 379.932 292.5824 380.2589 292.1307 381.6394 292.9978 382.2573 294.3335 382.4973 295.0145 383.8514 294.5183 384.6447 294.6963 386.3322 296.08 387.7526 297.9725 388.256 298.4624 389.4362 298.1521 390.8567 299.0416 391.5908 300.4172 390.2544 302.1639 389.7567 302.6028 390.2537 302.7386 391.4049 304.5762 393.3058 305.5453 393.5885 306.3889 395.2688 307.8491 395.5653 309.0029 395.4098 310.4174 396.2899 311.2924 395.8845 311.5956 396.1089 312.065 397.7766 314.1369 399.7065 313.9195 403.1073 313.1327 404.2707 312.3678 404.6509 311.4434 407.2681 311.7505 408.1374 313.6341 409.5572 314.0287 410.4335 315.9532 410.2803 317.1125 407.8612 318.8572 407.3517 320.0699 407.4079 320.9938 405.9641 322.1579 402.8791 322.5376 402.8616 325.0524 403.2827 326.6629 403.552 328.4702 404.6046 330.0172 407.1547 331.4307 408.4852 331.2566 411.5336 330.2091 412.7963 329.0896 413.5473 329.3753 415.7581 329.7713 417.0744 331.4202 417.2996 332.3329 417.8605 332.7 419.1913 332.1585 419.8028 332.8091 420.9373 334.7684 421.5227 255.4372 438.8918 208.9277 449.077 207.8331 452.9871 208.4187 455.3186 204.4495 459.4966 202.6143 462.8804 197.2245 466.4488 196.162 468.3146 196.4257 472.1388 195.3285 475.8764 193.5009 477.6825 194.1686 479.8593 193.1327 482.0702 191.0745 482.8226 190.3851 485.0667 186.9881 484.2274 186.0045 485.2818 181.9418 482.2583 171.0589 480.3308 168.7077 480.9169 163.6274 477.7289 158.9848 470.5309 154.4814 467.7876 149.8442 467.4083 147.6988 469.0398 145.6659 466.285 143.0596 465.8776 141.4812 460.2434 139.947 458.499 126.3966 458.2372 125.1127 453.8836 119.2628 448.5779 119.3755 442.6639 109.8358 442.8943 109.3442 444.1567 109.6357 432.5586 109.3925 419.7726 Z" id="fips-16035"/>
<path d="M 740.2158 891.764 745.653 887.1036 748.0708 888.4198 749.177 890.9698 751.5367 891.9096 755.2347 890.4881 756.2716 888.324 758.4545 888.2706 760.5011 886.4162 766.9701 889.0692 768.1586 887.6843 776.0287 882.2582 777.3969 882.2233 782.8954 879.19 784.3551 879.2768 784.4373 880.7704 784.9874 892.5008 785.6548 908.8044 786.3666 924.4583 786.3576 924.5314 786.3928 925.3215 786.6878 931.3463 786.7105 931.7046 786.7087 931.8652 786.7679 932.5455 786.9536 936.406 787.551 949.7961 788.1949 964.2456 786.7015 961.0534 784.4253 959.7588 782.8497 960.8784 777.6439 959.2431 775.3159 956.743 771.6807 956.8259 768.3049 958.2552 767.1629 957.574 764.4386 949.5157 764.3582 946.6564 761.9859 944.0221 742.1138 944.786 740.23 898.8328 740.4654 898.1884 740.2158 891.764 Z" id="fips-16081"/>
<path d="M 64.6088 554.9042 70.0988 552.7345 72.6583 548.4265 69.6174 539.8822 70.679 536.545 76.6409 530.4981 76.7202 530.3469 77.2259 529.9439 77.7897 530.1239 78.7046 530.113 80.3458 530.574 81.3162 531.2836 82.0366 531.406 82.893 530.9151 83.4353 530.2932 83.8644 529.2399 83.5693 527.559 83.3578 525.3106 84.2968 523.8809 85.6585 523.5975 86.8868 523.6605 87.2229 524.0773 87.6782 524.3061 88.0067 524.168 88.4838 524.0243 89.3237 524.2166 90.1928 524.6975 90.9495 525.0849 91.7048 525.3497 91.9871 525.9092 92.5741 526.5647 93.2996 527.2791 93.5885 527.7742 94.0002 528.3676 94.4947 528.9819 95.137 529.4004 95.7236 529.6532 96.0976 530.1856 96.633 530.5674 97.0799 530.4704 97.7058 530.2628 98.1552 529.6511 98.3803 528.7921 98.2329 528.0237 98.009 527.2324 98.2028 526.5456 98.4372 526.1027 98.634 525.5901 99.1851 525.0208 99.2825 524.4017 99.4879 524.0381 99.6185 523.7742 99.6323 523.3591 99.5306 522.7407 99.5276 522.3165 99.7636 521.61 99.8321 520.1334 99.8724 518.335 99.9322 516.073 100.0305 512.5503 100.1252 508.4329 100.1299 507.7638 100.4292 507.4681 100.5544 507.7558 100.8562 508.0341 101.2372 508.4543 101.9213 508.7667 102.3689 508.8247 102.9192 508.92 103.5094 508.9925 104.1435 509.1785 104.579 508.9539 104.8218 508.4931 104.8339 507.8441 104.7034 507.1601 104.4954 506.9269 104.3885 506.6386 104.5621 506.437 104.574 505.7441 104.3954 505.2184 104.74 504.7043 105.1962 504.2272 105.3374 503.4767 105.6399 502.8675 106.1627 502.2803 106.3687 501.7462 106.5649 501.3202 106.5769 500.6265 107.0738 500.064 107.3768 499.3388 107.4567 498.505 107.6757 497.9136 107.8267 497.0883 107.9585 496.5696 108.1352 496.2322 108.6119 495.9314 108.997 496.0966 109.3974 496.0633 109.8662 495.8257 110.3751 495.4552 110.7709 495.0843 111.4311 495.1221 111.9327 495.1968 112.319 495.4966 112.896 496.1101 113.39 496.5422 114.0888 497.0047 114.6851 497.2307 115.4513 497.5694 116.101 497.6775 116.6648 497.6636 117.1614 497.9093 117.7941 498.2945 118.4134 498.2717 119.2301 498.2611 119.7194 498.2271 120.2679 498.1637 121.072 498.2814 121.8372 498.4507 122.517 498.5084 122.9652 498.6958 123.4741 499.2838 123.8918 499.9756 124.4903 500.5995 124.9023 501.0108 125.6609 501.3709 126.2937 501.6372 127.4065 501.1155 128.3759 500.4228 129.2612 500.6987 129.6695 500.9696 130.4676 501.4934 131.3158 501.4067 131.9784 501.094 132.7816 501.3577 133.5076 501.8336 133.8494 502.5992 134.4441 503.0284 135.0729 503.2219 135.8961 502.8826 136.6939 503.2154 137.4202 503.4966 138.5878 504.36 139.3098 504.2975 139.6548 504.1028 140.1429 503.4791 140.3768 501.9955 140.2924 501.0652 140.6273 499.8392 141.2142 499.1274 141.7201 498.7403 142.339 498.4722 142.8357 498.063 143.0459 497.4401 143.4727 496.6103 144.287 495.6313 144.5933 494.9914 145.1551 494.3061 146.0556 493.9676 146.5991 493.6836 147.7654 493.5886 148.3952 494.1729 149.5502 494.38 151.1859 494.6299 152.611 494.8414 153.561 494.748 154.3267 494.5933 154.8019 494.383 155.6122 494.4449 156.4113 494.6113 157.4396 494.369 158.5667 493.8924 159.4098 493.3832 160.2067 492.8705 160.8588 492.362 161.3237 492.1536 161.4146 491.3041 160.7144 490.6341 159.5091 489.5555 158.4278 488.7824 157.7315 487.1115 155.7545 486.5523 154.3852 486.2925 152.8927 485.25 151.9957 483.4078 150.6604 481.7718 149.5736 481.0388 148.0547 478.8433 147.8324 477.503 147.0625 475.643 146.3887 473.5372 145.6695 472.314 145.4218 471.5601 145.0391 470.0617 143.9729 468.9053 143.5024 467.3541 143.0596 465.8776 145.6659 466.285 147.6988 469.0398 149.8442 467.4083 154.4814 467.7876 158.9848 470.5309 163.6274 477.7289 168.7077 480.9169 171.0589 480.3308 181.9418 482.2583 186.0045 485.2818 186.9881 484.2274 190.3851 485.0667 191.0745 482.8226 193.1327 482.0702 194.1686 479.8593 193.5009 477.6825 195.3285 475.8764 196.4257 472.1388 196.162 468.3146 197.2245 466.4488 202.6143 462.8804 204.4495 459.4966 208.4187 455.3186 207.8331 452.9871 208.9277 449.077 255.4372 438.8918 334.7684 421.5227 335.1995 421.6514 336.4838 421.4605 338.1863 420.1685 340.8746 419.1687 344.0568 420.5462 346.3097 420.6439 348.5488 421.9102 350.5078 421.6082 351.9388 420.2268 351.8776 418.9099 355.362 416.8995 356.9988 417.4573 357.9087 417.0738 358.98 416.1533 363.2043 415.3986 366.5603 416.8464 366.5749 416.8527 367.4508 418.1177 367.6559 419.9919 367.7203 425.6071 365.324 429.5388 366.669 431.4746 366.6398 432.1197 366.6221 432.5085 365.6825 433.8986 364.7608 436.2243 365.0978 437.9493 364.5258 439.9848 365.3962 441.7155 364.1332 443.8254 361.3661 444.8659 360.2462 444.2902 358.2818 444.8211 357.9624 445.4798 358.3746 449.22 359.06 450.5632 360.4451 451.1149 360.8699 452.1857 360.4277 453.8708 361.4785 455.1647 361.6919 456.4459 360.4316 457.2082 360.2959 460.0996 359.9234 461.0371 357.4609 462.6032 355.6833 465.0983 357.0116 468.6924 357.1243 469.7521 356.8438 473.0906 356.758 474.1103 354.5799 478.5549 354.3658 479.479 355.3322 482.5796 355.1236 483.3333 354.1347 484.5708 353.4181 485.0671 351.9647 485.5733 350.53 485.1894 349.8663 486.2135 350.1412 489.4777 352.1357 490.8046 352.8574 494.3337 352.4688 495.1167 353.2061 497.5545 352.8823 502.6676 352.1131 503.5678 350.7567 503.7062 348.928 504.9734 347.5931 503.7748 344.9655 504.0084 343.2365 508.258 343.7463 510.8297 347.1767 512.9161 349.4156 513.496 351.175 516.2101 350.9571 519.4767 350.2628 521.6248 346.9525 524.9724 345.7056 526.222 345.5249 527.8949 347.1075 528.3643 348.7177 527.9824 349.5075 530.3982 348.2657 531.8473 347.9241 533.2238 348.9373 534.6036 349.6782 534.5382 350.5142 533.9246 351.6671 534.1827 352.5661 535.4082 354.7639 535.5987 357.1021 537.2139 357.4153 538.3542 358.1081 539.1216 358.2879 540.1012 357.9899 541.0869 357.1053 541.7128 356.611 542.501 355.6676 543.1708 355.174 543.9604 354.7317 544.2434 354.7531 544.6463 356.9671 548.9183 358.0561 550.3233 359.1924 550.6805 360.1656 552.8454 360.036 554.0485 357.8478 557.0981 357.4618 559.1747 357.0672 559.3402 355.3702 558.3578 353.2763 557.6413 351.3991 558.8947 349.8614 559.7448 348.8392 560.0438 347.5985 559.6522 346.0413 560.0285 344.4945 561.3514 344.2311 562.7398 344.5426 563.7597 342.6861 565.1469 340.8352 570.0916 339.508 571.008 338.194 573.191 340.6659 576.2436 340.8277 578.7389 343.3181 581.3788 344.9862 581.7638 346.1387 583.4201 346.9053 585.6229 345.3863 587.9704 345.2949 589.072 346.4255 589.8039 346.3906 591.6672 345.405 593.4458 343.6192 595.1406 342.6901 594.6157 341.9394 594.9169 338.8238 596.8047 338.5025 597.2443 338.5453 598.2668 339.7005 600.4373 340.8144 600.9001 341.6502 602.6344 339.6931 605.3768 339.1682 606.4654 339.0714 609.8849 337.5145 612.683 334.5612 615.4035 330.0442 618.0429 326.1131 626.5309 324.0259 626.009 324.0268 624.2111 320.9879 622.7239 317.4122 623.1855 313.3063 619.374 310.0511 619.9212 309.4372 625.5703 310.4498 627.3497 310.0847 632.61 313.0632 632.9313 314.1663 636.9021 317.2818 639.8418 319.3826 639.6834 322.156 644.526 324.7473 645.647 325.3069 649.1085 328.9223 653.3057 333.4884 657.4212 334.8051 657.1416 333.049 659.9902 330.9947 661.1291 324.674 668.3724 322.2884 674.8002 284.1501 674.7197 163.0368 673.6273 164.3933 672.1988 163.0026 669.4051 157.5884 675.7292 154.3253 676.6232 153.9691 678.5774 151.9992 678.7206 149.7652 680.8702 144.7919 679.773 142.8762 683.5193 142.9826 685.8186 141.7915 688.6908 121.8475 688.084 121.9613 686.2575 124.2587 684.6189 124.1718 681.4657 122.2113 676.9324 122.5913 674.7453 121.2472 669.9785 119.1254 664.9749 117.7247 659.9419 75.0176 658.9559 75.0415 658.9255 75.8006 658.4403 76.4926 657.7268 76.6352 657.4691 76.885 656.2703 76.9822 655.2579 76.9708 653.6553 76.7917 650.7727 76.9308 649.5119 79.6113 644.3653 83.0749 637.9364 84.0584 636.1672 86.7973 633.668 87.4847 631.1128 88.0759 628.3828 88.9451 627.3349 89.6324 626.7279 91.145 625.4165 91.4266 625.2393 92.2888 624.9576 92.3133 623.2174 91.8728 621.9238 91.8776 621.7278 92.6147 618.5859 93.2564 616.6127 93.8706 615.9561 94.9495 614.0625 96.5047 610.3031 99.1672 606.8402 100.74 605.4859 101.6522 605.065 101.7827 604.9111 104.1451 600.5779 104.2157 598.2872 104.0196 597.8945 103.4583 597.4198 103.098 596.6567 102.5617 595.5187 101.9769 593.9799 101.3535 592.2278 100.5636 591.1671 98.4317 588.5518 97.031 587.2108 96.5168 586.5224 95.6844 584.693 95.5828 583.8237 95.4632 580.5977 95.8322 577.2031 95.6641 576.6601 94.5593 574.2205 94.2668 573.9025 93.7209 573.7741 93.0039 573.439 90.8484 571.2101 88.9824 569.2224 87.5144 568.7491 84.2154 567.9678 83.7446 568.1916 83.2634 568.5969 82.4332 568.8331 80.8013 568.7559 80.1082 568.3886 78.3444 566.2991 77.5603 564.0343 76.3745 561.5672 76.269 561.438 75.0157 560.6532 74.6071 560.4397 74.1546 560.3385 71.6051 560.3759 71.079 560.665 70.483 561.1897 69.7621 561.6742 69.2256 561.9201 68.6688 562.0628 68.2272 561.9781 65.9032 560.3643 65.2414 559.191 65.1585 558.9166 65.1922 558.3409 65.3814 557.7354 65.368 557.0186 65.106 556.0269 64.6088 554.9042 Z" id="fips-16049"/>
<path d="M 542.2712 1178.8144 587.3409 1177.6071 587.0012 1162.2275 607.3153 1161.766 606.9053 1146.445 617.0786 1146.1718 621.6676 1146.048 622.3226 1149.835 624.3044 1152.3336 626.8366 1152.2755 627.3221 1155.661 633.2327 1154.4052 634.1984 1159.0961 633.9887 1166.2224 632.6044 1167.4997 629.6152 1173.3085 629.9532 1177.4191 632.8124 1176.8718 634.6569 1178.5258 636.6802 1178.1518 638.6598 1172.439 647.5944 1172.1636 648.2802 1174.5143 651.6718 1179.5131 652.3854 1181.9607 654.7518 1181.6661 656.3177 1183.4743 658.0756 1186.2221 660.0319 1186.0586 662.0927 1190.2233 663.7581 1191.5302 664.2014 1203.6126 659.1074 1203.7194 659.9552 1234.0665 659.9435 1234.0669 652.8225 1234.4344 652.7221 1234.4393 651.593 1234.4949 649.0012 1233.7595 642.9614 1233.9234 639.5807 1234.0585 623.7064 1234.4674 615.2743 1234.6937 615.2426 1234.719 589.4205 1235.4662 581.3851 1235.6502 571.0189 1235.9898 565.1863 1236.1805 565.1808 1236.1736 558.9615 1236.3775 558.7326 1236.382 555.1677 1236.4774 546.0487 1236.7501 543.3213 1236.8091 542.2712 1178.8144 Z" id="fips-16071"/>
<path d="M 575.5279 888.1616 575.2462 872.9081 643.4764 871.2519 643.8657 886.5047 666.606 885.8725 666.8671 893.5423 667.5047 916.4815 666.9725 924.1593 669.1057 925.0871 671.6623 924.556 673.7211 921.6003 675.1341 923.4972 676.5154 922.7064 677.3759 924.9976 681.1114 926.6684 683.1354 929.8487 686.5959 930.0715 688.0281 932.2204 690.1356 932.5491 693.568 937.0162 695.8278 938.465 697.992 938.2464 701.4298 940.3927 713.078 939.9995 713.2419 945.0166 667.6553 946.6218 599.27 948.4988 584.0427 948.8753 576.6724 949.651 576.007 918.8472 575.5279 888.1616 Z" id="fips-16051"/>
<path d="M 271.3023 1027.0731 334.4852 1027.2406 334.4889 1088.4876 331.5123 1088.4881 331.6062 1124.0199 327.0269 1121.9624 323.0704 1122.2 314.8524 1119.7568 310.7068 1121.3305 306.2365 1121.3074 304.482 1117.4774 304.642 1114.3193 301.3094 1112.6101 302.154 1108.8352 300.3757 1105.2686 297.8973 1104.9824 293.8672 1102.5732 290.5693 1103.1784 289.6576 1098.8596 290.8891 1096.3058 290.2103 1095.0119 293.1059 1092.7186 294.564 1089.6589 294.7757 1086.9493 292.5778 1083.0611 287.9473 1078.8057 287.2375 1077.0762 278.757 1076.5328 277.2329 1077.562 270.8982 1077.0479 271.3023 1027.0731 Z" id="fips-16047"/>
<path d="M 538.7247 1040.7621 539.5252 1084.4502 564.2234 1083.9222 565.3719 1080.4851 567.0124 1081.3517 568.8816 1078.5378 568.8631 1074.9013 571.1481 1073.1265 570.474 1071.2558 572.4169 1068.177 574.8444 1070.1404 572.9603 1075.0047 574.2784 1076.2673 575.5437 1074.4014 578.761 1072.5444 578.7245 1070.8906 586.2142 1069.5505 589.2816 1066.1281 591.4759 1066.3237 593.1589 1063.8065 597.043 1065.9339 602.2394 1074.3143 603.2636 1095.7866 605.7872 1095.7405 606.0768 1105.9089 611.1451 1105.7886 611.3341 1112.1669 613.8701 1112.0979 614.0208 1115.9208 616.5451 1115.8465 616.6721 1120.937 621.6457 1120.8221 620.4807 1124.6895 621.1389 1133.9461 617.3427 1134.6794 617.0786 1146.1718 606.9053 1146.445 607.3153 1161.766 587.0012 1162.2275 587.3409 1177.6071 542.2712 1178.8144 542.0486 1178.8179 541.0606 1132.9082 518.6201 1133.0531 518.5754 1126.3893 515.8965 1125.2683 510.5674 1126.8773 510.4459 1118.0563 517.9892 1117.9051 517.7072 1102.5921 510.1928 1102.7412 509.9458 1087.5944 508.3855 1041.2904 538.7247 1040.7621 Z" id="fips-16077"/>
<path d="M 656.3177 1183.4743 674.8669 1182.8507 675.0129 1187.9699 686.3807 1187.6435 685.6818 1159.4718 688.2415 1159.3944 706.0862 1158.7945 707.3736 1156.5192 706.6064 1156.2242 708.9122 1156.1561 709.6441 1158.719 724.1842 1158.2907 724.3469 1162.6299 726.2711 1161.9474 726.6518 1165.1782 729.7822 1167.3453 730.7031 1169.3403 726.1603 1174.0423 727.0573 1176.7686 726.6289 1180.6806 729.859 1182.5243 726.1606 1185.1054 725.1549 1187.687 723.2357 1188.2497 723.4592 1191.4 721.9523 1195.0205 724.6442 1204.3428 727.4285 1206.383 726.1357 1214.0056 730.4835 1216.6583 736.4202 1217.9605 737.2787 1218.9701 738.6908 1231.0844 708.345 1232.2035 706.8953 1232.2548 690.4456 1232.9476 685.3236 1233.1197 685.2953 1233.1166 681.4805 1233.248 672.6845 1233.5459 659.9552 1234.0665 659.1074 1203.7194 664.2014 1203.6126 663.7581 1191.5302 662.0927 1190.2233 660.0319 1186.0586 658.0756 1186.2221 656.3177 1183.4743 Z" id="fips-16041"/>
<path d="M 334.4889 1088.4876 364.0926 1088.4786 364.1087 1093.2693 366.6532 1093.2716 366.6588 1095.8286 404.9236 1095.7677 404.9553 1103.4241 420.2649 1103.3145 420.5509 1143.8123 413.4954 1144.111 411.65 1145.4399 407.9412 1145.8472 406.1813 1145.0542 403.0059 1146.1148 399.2775 1148.7346 396.8589 1149.0115 394.7906 1151.0871 392.2375 1150.5856 389.2629 1147.2758 388.3751 1144.523 379.8817 1139.8158 374.36 1139.3837 371.742 1137.639 368.4185 1137.5057 366.1262 1134.6926 362.9161 1133.0136 354.4033 1133.4283 351.1703 1132.7619 341.6115 1126.8402 333.5261 1125.3447 331.6062 1124.0199 331.5123 1088.4881 334.4889 1088.4876 Z" id="fips-16053"/>
<path d="M 90.5276 916.9414 119.8421 917.5631 122.1631 920.0054 150.2308 949.5712 157.5674 957.346 158.1535 956.3751 157.5816 996.2898 156.3455 1040.628 119.3415 1040.127 118.9532 1039.2472 115.0261 1038.8113 112.6136 1034.3946 110.9378 1033.5722 110.5398 1031.2818 108.5343 1030.6322 104.2474 1025.4646 104.5439 1021.3219 105.6625 1018.8816 104.1393 1014.9535 102.5802 1013.6784 101.4808 1009.3834 99.5888 1007.7319 93.5757 1008.0036 89.8077 1009.5174 88.4655 1008.0058 88.9745 978.2501 94.0609 978.3882 94.5417 957.8442 94.7092 950.1436 94.7841 947.5631 89.7297 947.4296 90.5276 916.9414 Z" id="fips-16001"/>
<path d="M 277.0992 1102.8468 277.2329 1077.562 278.757 1076.5328 287.2375 1077.0762 287.9473 1078.8057 292.5778 1083.0611 294.7757 1086.9493 294.564 1089.6589 293.1059 1092.7186 290.2103 1095.0119 290.8891 1096.3058 289.6576 1098.8596 290.5693 1103.1784 293.8672 1102.5732 297.8973 1104.9824 300.3757 1105.2686 302.154 1108.8352 301.3094 1112.6101 304.642 1114.3193 304.482 1117.4774 306.2365 1121.3074 310.7068 1121.3305 314.8524 1119.7568 323.0704 1122.2 327.0269 1121.9624 331.6062 1124.0199 333.5261 1125.3447 341.6115 1126.8402 351.1703 1132.7619 354.4033 1133.4283 362.9161 1133.0136 366.1262 1134.6926 368.4185 1137.5057 371.742 1137.639 374.36 1139.3837 379.8817 1139.8158 388.3751 1144.523 389.2629 1147.2758 392.2375 1150.5856 394.7906 1151.0871 396.8589 1149.0115 399.2775 1148.7346 403.0059 1146.1148 406.1813 1145.0542 407.9412 1145.8472 411.65 1145.4399 402.9971 1147.5961 402.7478 1149.5845 402.8246 1164.7498 374.6705 1164.844 374.5628 1180.1417 375.3878 1239.3966 375.3805 1239.3966 351.0415 1239.2261 347.0235 1239.3806 347.0214 1239.3871 333.9157 1239.4043 317.8705 1238.7293 306.6464 1238.0686 303.4111 1237.9905 297.5404 1238.1258 294.4821 1238.362 292.5196 1238.3536 277.1069 1238.963 276.2716 1238.9574 276.63 1185.173 277.0992 1102.8468 Z" id="fips-16083"/>
<path d="M 43.3434 854.7769 99.6062 856.4296 99.1961 871.597 89.1236 871.2517 88.8755 881.331 83.811 881.1424 83.677 886.2062 65.8943 885.6056 65.0724 916.3033 59.9267 916.161 59.896 917.4421 54.798 917.3157 54.7653 918.5802 47.1389 918.3654 47.2135 915.7786 42.0495 915.6338 42.0778 913.0978 39.5723 913.0335 39.6237 910.481 34.4712 910.2809 34.7067 902.5852 31.4999 902.4954 32.043 899.7916 32.0212 898.7775 31.9299 897.9777 31.6933 896.3053 33.4482 896.024 34.1957 895.3248 34.2579 893.6648 33.3089 892.9063 33.1587 892.1231 33.6671 891.3383 34.1819 889.7796 34.2426 888.6297 34.4514 887.8203 34.5408 887.374 34.0005 886.9882 33.1985 887.118 32.4686 885.9807 33.3887 885.3792 34.5414 884.452 37.2976 884.2387 37.5627 883.0144 36.7547 881.2337 37.6111 879.6583 37.9541 877.7912 37.9364 877.3397 37.6335 876.3484 36.903 875.2213 35.3083 873.8971 33.2798 872.7998 33.1969 872.682 33.1136 871.9319 32.8554 866.3322 33.2626 865.8272 34.1683 865.388 35.4623 865.2836 37.23 864.9265 37.9149 864.4379 38.4533 863.9074 39.1732 862.6428 39.2621 862.2728 43.3434 854.7769 Z" id="fips-16075"/>
<path d="M 660.7155 1053.3668 662.1861 1058.8454 660.8316 1060.8556 657.6612 1062.0809 658.6385 1066.1166 655.9645 1065.9827 652.8184 1067.3362 650.8653 1072.1268 652.1433 1072.9676 650.1866 1075.5979 652.0101 1078.7957 652.3209 1084.1788 654.312 1087.3051 653.62 1090.949 652.0189 1091.0087 651.3176 1094.508 651.9811 1099.3501 652.5122 1101.4201 655.6444 1105.7909 656.8549 1110.471 659.5726 1110.5723 663.0494 1106.9634 674.4156 1106.6091 674.7496 1110.3937 676.189 1111.4022 675.0859 1114.2322 677.6372 1114.1518 677.8393 1121.048 681.039 1121.5683 681.7677 1124.1447 682.3606 1140.5219 684.9021 1140.4664 685.3023 1146.6791 686.5722 1146.6393 686.8381 1154.3138 688.1002 1154.2608 688.2415 1159.3944 685.6818 1159.4718 686.3807 1187.6435 675.0129 1187.9699 674.8669 1182.8507 656.3177 1183.4743 654.7518 1181.6661 652.3854 1181.9607 651.6718 1179.5131 648.2802 1174.5143 647.5944 1172.1636 638.6598 1172.439 636.6802 1178.1518 634.6569 1178.5258 632.8124 1176.8718 629.9532 1177.4191 629.6152 1173.3085 632.6044 1167.4997 633.9887 1166.2224 634.1984 1159.0961 633.2327 1154.4052 627.3221 1155.661 626.8366 1152.2755 624.3044 1152.3336 622.3226 1149.835 621.6676 1146.048 617.0786 1146.1718 617.3427 1134.6794 621.1389 1133.9461 620.4807 1124.6895 621.6457 1120.8221 616.6721 1120.937 616.5451 1115.8465 614.0208 1115.9208 613.8701 1112.0979 611.3341 1112.1669 611.1451 1105.7886 606.0768 1105.9089 605.7872 1095.7405 603.2636 1095.7866 602.2394 1074.3143 597.043 1065.9339 593.1589 1063.8065 591.4759 1066.3237 589.2816 1066.1281 586.2142 1069.5505 578.7245 1070.8906 578.761 1072.5444 575.5437 1074.4014 574.2784 1076.2673 572.9603 1075.0047 574.8444 1070.1404 572.4169 1068.177 572.307 1066.0894 574.2563 1064.3091 573.4351 1061.5725 577.814 1061.1764 581.2267 1057.2693 581.4529 1055.5956 583.2297 1056.6313 584.2623 1055.493 660.7155 1053.3668 Z" id="fips-16005"/>
<path d="M 46.0391 180.5629 86.6077 181.736 94.2682 181.9435 94.3732 179.4349 109.5495 179.8266 109.0079 197.6359 129.7563 198.0623 127.8538 281.9006 115.1074 281.8435 97.1917 281.0694 97.133 283.6076 92.0496 283.4704 91.92 288.5567 79.2306 288.2248 79.3234 285.6798 77.6052 285.6392 70.2781 286.3617 70.2066 288.8875 42.8474 288.1465 42.8845 286.5846 43.0555 282.3293 43.1223 279.9837 43.2488 276.0287 43.4059 271.0265 43.4906 268.4724 43.6735 260.6346 43.6992 259.7175 43.7055 258.7759 43.7849 254.3219 43.7989 254.2659 43.9253 251.5231 44.1713 242.8201 44.4431 233.2192 44.4434 233.2113 44.4536 232.892 44.4597 232.3297 44.5788 228.2464 44.6656 225.3768 44.742 223.1619 44.7413 223.0525 44.7324 221.6119 44.7471 221.4363 44.7654 218.662 44.7715 218.5977 44.8043 217.9519 44.8178 217.6655 44.9361 215.5374 45.1915 207.8378 45.2299 204.9141 45.9187 183.9197 45.9648 182.5164 46.0391 180.5629 Z" id="fips-16055"/>
<path d="M 284.3595 910.697 286.8904 912.4693 289.1074 911.4769 291.7477 913.9995 297.489 916.8026 302.3206 918.2134 301.4643 922.57 304.7053 923.2253 308.3324 920.6394 313.4494 922.6088 315.9822 919.9354 319.2584 918.5612 320.8585 920.1961 322.0515 923.9278 322.3547 929.9019 325.4048 932.0958 323.6304 934.5365 324.1197 939.1297 322.6095 941.2431 323.7379 944.0857 325.8835 945.718 325.0616 951.2207 323.733 953.5509 323.3082 958.119 327.2302 957.6575 329.2084 961.0779 335.517 963.6881 334.3706 968.5522 338.6935 974.2529 342.8442 975.6953 345.8321 977.9537 344.758 981.534 340.6565 985.4415 340.6784 991.9719 343.2243 991.9781 343.1709 997.2253 342.2057 1003.4347 346.2309 1004.187 349.1671 1003.5998 351.3627 1004.895 355.3028 1003.2857 360.1486 1004.6334 360.1413 1016.7812 362.7212 1016.784 362.7175 1026.9868 334.4852 1027.2406 271.3023 1027.0731 271.4403 996.6854 272.1491 955.4397 274.3876 956.2786 277.1974 952.8851 278.4498 952.9679 278.0842 947.9997 278.9717 945.5756 278.1949 943.3745 281.715 939.185 281.6234 935.8922 280.5589 933.6497 279.1951 933.6918 277.4945 930.5796 278.0462 926.631 280.4471 916.954 282.4361 915.9422 282.9232 911.9799 284.3595 910.697 Z" id="fips-16025"/>
<path d="M 62.124 692.0207 62.113 690.2809 62.2275 689.318 62.3681 688.9364 63.3661 687.2445 65.919 685.8253 68.9549 681.3273 69.1651 680.9524 69.2816 680.5516 69.937 677.2985 69.9754 675.7868 71.9455 670.2806 72.0888 669.5187 71.9858 667.7723 72.043 667.3823 72.8537 663.8243 73.8614 661.2189 74.4815 659.6372 75.0176 658.9559 117.7247 659.9419 119.1254 664.9749 121.2472 669.9785 122.5913 674.7453 122.2113 676.9324 124.1718 681.4657 124.2587 684.6189 121.9613 686.2575 121.8475 688.084 141.7915 688.6908 141.7855 688.768 142.2888 690.3951 142.0184 692.0454 142.0847 693.2056 142.7785 693.939 143.6165 694.4318 145.7359 694.6959 147.6468 695.7103 148.2035 696.2563 148.1554 697.0179 147.8659 697.4556 147.3828 698.2302 146.82 698.6097 146.8002 699.264 146.8056 700.0544 146.6898 701.4727 145.8781 702.5209 145.2518 703.0021 144.5642 704.021 143.5579 704.7417 142.984 705.8971 142.6173 707.3109 142.7525 707.8857 143.2891 708.4684 143.4776 709.7183 143.8524 710.0806 144.3851 710.6541 144.5351 711.0824 144.9271 711.635 145.0822 712.76 144.8803 713.397 144.5312 714.7738 143.9137 715.6816 143.425 717.1285 142.654 718.1415 141.5975 718.1471 141.0261 717.7311 140.2167 717.6593 139.9508 718.07 140.0533 718.7585 139.6225 719.564 139.8588 720.2167 139.5529 721.1355 139.3028 722.0078 139.2593 723.0631 139.1148 724.1655 139.0214 724.6811 138.7756 724.9166 138.3765 725.1141 137.4742 725.5824 137.3426 726.9721 137.33 727.2498 137.013 727.3571 136.7328 727.2152 136.2172 727.3251 135.7993 727.6554 135.562 728.836 135.3476 729.8494 135.2134 730.8229 134.9491 731.4167 134.5209 731.5076 134.3172 731.9474 134.425 732.4132 134.4455 733.0878 134.4824 733.8908 134.3602 734.2187 134.1528 734.9882 134.178 735.7811 134.0785 736.9744 133.9993 738.4175 133.8397 739.1931 133.7774 740.3026 133.7157 740.8369 133.6141 741.3059 133.3777 741.9742 133.2871 742.6492 133.3693 743.1104 133.453 743.496 133.2291 744.0806 133.0849 744.5392 132.9977 745.0043 132.719 745.6117 132.4062 746.3055 132.6205 747.3295 132.7747 748.2691 133.4126 748.5967 133.7633 749.1446 134.4945 750.3937 135.1176 751.6392 136.4634 753.0053 136.274 755.1358 135.8696 755.4962 135.6625 756.0298 136.0381 756.3921 136.1601 756.6432 136.2703 756.8432 136.5943 757.244 136.952 757.6342 137.1102 757.8968 137.2907 758.1765 137.3358 758.3567 137.5064 758.4911 137.671 758.4883 138.1547 758.7634 138.7657 759.9996 138.475 761.5291 138.0294 762.1401 137.9551 762.4999 137.9919 763.0406 138.0347 763.8724 137.4496 766.2067 136.8232 768.2551 136.0566 769.7381 136.657 771.2637 136.7252 773.3317 136.8769 774.5132 136.3108 775.7118 135.8868 777.3088 135.6366 778.7446 135.4283 780.0312 135.046 780.5393 135.2682 781.0841 135.8302 781.7248 136.1169 783.3704 136.0281 784.5543 136.3058 785.9802 136.5975 787.5457 137.2456 789.2015 137.4498 790.8929 137.7221 792.8105 137.598 794.0234 137.9198 795.6529 138.1102 795.9695 133.5337 796.8072 131.0758 793.7338 128.3849 798.8908 128.0406 801.8024 125.5512 801.4719 119.9475 805.185 106.3869 804.9127 91.3319 796.253 91.8238 774.4632 82.5359 774.229 83.1268 770.4216 80.0868 765.7601 80.7997 734.7191 46.3305 733.336 46.962 732.1556 48.5923 730.449 50.9345 728.3402 52.0216 726.5769 52.6311 725.3931 52.8997 724.3518 53.5135 722.3006 54.0548 720.6095 54.552 719.0925 55.1818 718.162 55.3752 717.7445 55.4065 717.4572 54.9812 716.1003 53.6936 714.1439 53.1933 712.9672 53.1185 712.6603 52.352 709.3016 52.574 708.3312 53.9788 705.6224 54.1706 705.3532 54.2184 702.9068 54.1032 702.3466 53.8467 701.7648 53.8626 701.6111 54.7295 700.1704 56.1458 699.4319 56.7785 699.0044 58.9026 696.8032 60.3495 695.1469 62.1254 692.2489 62.124 692.0207 Z" id="fips-16003"/>
<path d="M 37.6391 453.6706 37.8513 447.1895 37.8866 445.9802 37.8979 445.5911 38.2989 433.2756 77.1521 434.1708 80.1238 426.3574 81.1449 426.2236 84.8017 422.1701 89.438 419.1859 94.1495 419.5166 109.3925 419.7726 109.6357 432.5586 109.3442 444.1567 109.8358 442.8943 119.3755 442.6639 119.2628 448.5779 113.3047 448.258 115.5711 453.6191 119.2015 457.4859 119.8677 467.2468 118.8028 470.3717 116.6088 470.7551 114.779 469.6459 112.3178 470.3006 106.661 468.7269 103.7335 470.811 104.0221 473.1421 76.7854 472.4734 77.0403 477.4378 77.9409 478.4671 80.058 487.1153 77.6999 487.9641 76.9896 518.6351 76.6409 530.4981 70.679 536.545 69.6174 539.8822 72.6583 548.4265 70.0988 552.7345 64.6088 554.9042 64.4245 554.4879 62.2997 551.0656 61.6983 550.4518 60.3985 549.4519 58.7667 548.3718 57.1466 546.2306 56.8509 545.6747 56.0729 543.9435 55.7266 542.7275 55.0936 538.9698 53.7993 536.5334 53.1347 533.7322 50.9482 531.1101 50.4215 529.9486 50.2818 529.7397 50.1155 529.153 49.6825 525.893 48.7303 522.0995 47.5039 518.2995 46.8184 517.0571 45.7817 515.7015 45.4145 515.5326 45.0731 515.6004 44.2444 515.4237 43.1706 514.8211 42.8274 513.9455 42.7882 513.1555 42.7964 512.8105 42.8964 512.543 43.269 512.0514 43.5019 511.8928 43.8616 511.7205 45.6414 511.5346 46.1817 510.9899 46.7174 509.4321 46.7931 508.0781 46.9035 507.2683 47.1532 506.8487 48.8111 503.9766 50.4726 500.7988 50.6634 500.0901 50.6045 499.5571 50.3661 499.0016 48.2733 496.4524 47.0142 494.9206 45.7606 493.7968 45.43 493.1282 45.3631 492.4062 45.427 492.0639 46.2993 490.2631 46.7462 489.1894 46.8658 488.3283 46.4958 486.3005 45.8747 484.3496 45.6064 483.6997 45.1963 482.9278 44.928 482.5606 44.5209 482.0657 43.1772 480.8174 42.7402 480.1914 42.7167 479.816 42.7912 479.4824 43.5703 477.8542 43.6204 477.3326 43.3913 476.6282 43.028 476.1356 42.1397 475.447 40.9069 475.031 39.8529 473.9532 39.3552 473.3111 39.1716 472.8337 39.1078 472.3548 39.0831 471.2518 39.1845 470.803 39.1622 469.7853 39.0844 469.5684 38.6253 469.0653 38.2778 468.7791 37.8239 468.5882 36.4903 468.3415 35.7357 468.0818 35.2285 467.767 34.674 467.1358 34.4592 466.511 34.451 466.3164 34.5115 464.2621 34.7367 463.8353 35.186 463.2056 35.9074 462.4792 36.1936 462.2801 36.5199 461.8039 37.1928 459.606 37.2355 459.0722 37.7152 457.1748 37.9468 456.873 38.0696 456.4853 38.2185 455.0255 38.0155 454.2652 37.6364 453.755 37.6391 453.6706 Z" id="fips-16069"/>
<path d="M 599.27 948.4988 667.6553 946.6218 713.2419 945.0166 720.8893 944.7258 725.2871 945.4131 742.1138 944.786 761.9859 944.0221 764.3582 946.6564 764.4386 949.5157 767.1629 957.574 768.3049 958.2552 771.6807 956.8259 775.3159 956.743 777.6439 959.2431 782.8497 960.8784 784.4253 959.7588 786.7015 961.0534 788.1949 964.2456 789.6464 996.8872 790.586 1018.0461 790.6407 1019.1616 790.668 1020.0081 790.717 1021.2771 790.7218 1021.2972 791.5077 1039.7472 791.5358 1040.4768 791.5525 1040.8378 791.6 1041.8703 791.6445 1042.837 791.7103 1044.3369 791.7232 1044.6296 791.7549 1045.1973 791.832 1047.3368 791.8609 1047.84 791.8724 1048.116 791.8743 1048.1623 791.8667 1048.5097 791.8984 1049.074 752.1207 1050.5185 751.2524 1050.4372 721.7035 1051.7398 720.2527 1005.6127 690.1933 1006.5815 689.712 991.8248 673.9224 992.2926 661.3648 992.6148 661.153 984.9601 653.5094 985.1714 653.4451 982.5634 600.1195 984.0062 599.27 948.4988 Z" id="fips-16019"/>
<path d="M 643.4764 871.2519 658.8752 870.8632 658.4892 855.5822 673.6636 855.0524 673.3992 847.3951 680.4586 847.1702 680.2031 839.4756 680.4118 824.3716 688.0651 824.1114 687.5512 809.205 709.4697 808.5039 708.5494 782.4253 708.9288 782.4973 710.5465 781.5182 711.6895 780.1902 712.4343 779.9266 715.3628 781.1668 716.15 781.264 717.3803 780.7594 720.2768 782.19 721.3356 784.0251 723.2447 783.5481 726.8929 783.2768 727.3634 782.6067 727.1314 781.288 724.2077 779.8511 722.5216 779.6687 722.1717 778.6448 722.5176 777.4126 720.8169 776.1688 719.9948 773.2565 719.8667 772.3362 720.1836 770.3466 722.0813 768.5248 721.0906 766.104 722.1436 765.0777 723.2745 765.0249 725.8743 761.3198 726.2236 759.0828 725.1602 758.3622 724.2597 757.4812 723.5086 755.2785 723.5884 754.4418 723.9859 753.9491 724.5611 753.7028 729.8084 751.4541 730.9607 751.4802 731.6765 752.5336 732.9429 753.0644 734.8205 750.7684 735.1899 747.0071 734.7568 746.6427 735.211 745.5998 736.2996 745.1026 737.2975 745.7114 737.6138 745.9044 738.731 747.2833 738.7011 747.9679 740.1457 749.8099 741.2232 749.9608 742.6049 748.7814 744.1824 750.2032 746.545 753.0872 751.4515 759.8299 750.5139 762.1003 751.5327 763.5347 753.5862 762.7768 757.3571 767.5103 755.7644 770.1145 756.7404 774.0459 757.6245 775.7795 760.5473 775.7987 762.4215 776.5109 763.2243 777.6572 763.2806 779.3186 764.1981 780.2602 766.5873 781.3843 769.5125 782.9595 768.8452 785.7989 770.2572 788.7622 772.8155 790.7483 777.9936 791.7892 779.9518 792.1136 780.4191 792.8593 780.6637 799.2048 780.6779 799.6008 781.1463 810.3264 781.2382 814.0814 783.033 854.3676 783.1932 856.1418 783.5603 865.2906 783.5609 865.655 783.5642 865.7317 783.8256 872.8382 784.1955 876.3787 784.3551 879.2768 782.8954 879.19 777.3969 882.2233 776.0287 882.2582 768.1586 887.6843 766.9701 889.0692 760.5011 886.4162 758.4545 888.2706 756.2716 888.324 755.2347 890.4881 751.5367 891.9096 749.177 890.9698 748.0708 888.4198 745.653 887.1036 740.2158 891.764 736.9468 894.1009 731.5835 893.2152 730.0451 891.27 727.1821 891.1444 723.3787 893.0416 722.4572 894.9734 720.0651 896.3751 720.1714 899.5025 702.5294 900.1099 702.4132 897.5627 684.7023 898.1027 684.5702 893.0092 666.8671 893.5423 666.606 885.8725 643.8657 886.5047 643.4764 871.2519 Z" id="fips-16043"/>
<path d="M 795.2755 1138.1044 795.3293 1139.6857 796.4264 1167.0708 796.9262 1179.1542 797.5477 1194.2972 797.6405 1196.4273 797.8785 1202.3603 797.9252 1203.5 799 1228.3058 750.7119 1230.4128 750.0541 1230.4301 749.4471 1230.445 743.4556 1230.8667 738.7617 1231.0816 738.693 1231.0843 738.6908 1231.0844 737.2787 1218.9701 736.4202 1217.9605 730.4835 1216.6583 726.1357 1214.0056 727.4285 1206.383 724.6442 1204.3428 721.9523 1195.0205 723.4592 1191.4 723.2357 1188.2497 725.1549 1187.687 726.1606 1185.1054 729.859 1182.5243 726.6289 1180.6806 727.0573 1176.7686 726.1603 1174.0423 730.7031 1169.3403 729.7822 1167.3453 726.6518 1165.1782 726.2711 1161.9474 724.3469 1162.6299 724.1842 1158.2907 726.6247 1155.643 726.136 1152.7597 723.1496 1145.8444 722.1755 1141.7176 720.6185 1140.2586 718.6057 1131.223 720.767 1128.8511 723.0082 1127.4742 753.0734 1126.3616 756.7094 1126.9506 756.6124 1129.6197 759.6687 1131.2187 764.8216 1132.4997 767.0258 1128.5708 768.4969 1123.934 769.4443 1123.5657 769.6067 1126.6306 772.0765 1128.7174 770.6575 1139.9806 769.1653 1142.4787 771.115 1145.3914 777.0185 1144.967 779.4147 1145.9558 780.8239 1142.8263 784.4913 1144.231 787.2519 1142.3883 789.149 1142.7086 793.276 1140.5019 792.7141 1139.0939 795.2755 1138.1044 Z" id="fips-16007"/>
<path d="M 119.2628 448.5779 125.1127 453.8836 126.3966 458.2372 139.947 458.499 141.4812 460.2434 143.0596 465.8776 143.5024 467.3541 143.9729 468.9053 145.0391 470.0617 145.4218 471.5601 145.6695 472.314 146.3887 473.5372 147.0625 475.643 147.8324 477.503 148.0547 478.8433 149.5736 481.0388 150.6604 481.7718 151.9957 483.4078 152.8927 485.25 154.3852 486.2925 155.7545 486.5523 157.7315 487.1115 158.4278 488.7824 159.5091 489.5555 160.7144 490.6341 161.4146 491.3041 161.3237 492.1536 160.8588 492.362 160.2067 492.8705 159.4098 493.3832 158.5667 493.8924 157.4396 494.369 156.4113 494.6113 155.6122 494.4449 154.8019 494.383 154.3267 494.5933 153.561 494.748 152.611 494.8414 151.1859 494.6299 149.5502 494.38 148.3952 494.1729 147.7654 493.5886 146.5991 493.6836 146.0556 493.9676 145.1551 494.3061 144.5933 494.9914 144.287 495.6313 143.4727 496.6103 143.0459 497.4401 142.8357 498.063 142.339 498.4722 141.7201 498.7403 141.2142 499.1274 140.6273 499.8392 140.2924 501.0652 140.3768 501.9955 140.1429 503.4791 139.6548 504.1028 139.3098 504.2975 138.5878 504.36 137.4202 503.4966 136.6939 503.2154 135.8961 502.8826 135.0729 503.2219 134.4441 503.0284 133.8494 502.5992 133.5076 501.8336 132.7816 501.3577 131.9784 501.094 131.3158 501.4067 130.4676 501.4934 129.6695 500.9696 129.2612 500.6987 128.3759 500.4228 127.4065 501.1155 126.2937 501.6372 125.6609 501.3709 124.9023 501.0108 124.4903 500.5995 123.8918 499.9756 123.4741 499.2838 122.9652 498.6958 122.517 498.5084 121.8372 498.4507 121.072 498.2814 120.2679 498.1637 119.7194 498.2271 119.2301 498.2611 118.4134 498.2717 117.7941 498.2945 117.1614 497.9093 116.6648 497.6636 116.101 497.6775 115.4513 497.5694 114.6851 497.2307 114.0888 497.0047 113.39 496.5422 112.896 496.1101 112.319 495.4966 111.9327 495.1968 111.4311 495.1221 110.7709 495.0843 110.3751 495.4552 109.8662 495.8257 109.3974 496.0633 108.997 496.0966 108.6119 495.9314 108.1352 496.2322 107.9585 496.5696 107.8267 497.0883 107.6757 497.9136 107.4567 498.505 107.3768 499.3388 107.0738 500.064 106.5769 500.6265 106.5649 501.3202 106.3687 501.7462 106.1627 502.2803 105.6399 502.8675 105.3374 503.4767 105.1962 504.2272 104.74 504.7043 104.3954 505.2184 104.574 505.7441 104.5621 506.437 104.3885 506.6386 104.4954 506.9269 104.7034 507.1601 104.8339 507.8441 104.8218 508.4931 104.579 508.9539 104.1435 509.1785 103.5094 508.9925 102.9192 508.92 102.3689 508.8247 101.9213 508.7667 101.2372 508.4543 100.8562 508.0341 100.5544 507.7558 100.4292 507.4681 100.1299 507.7638 100.1252 508.4329 100.0305 512.5503 99.9322 516.073 99.8724 518.335 99.8321 520.1334 99.7636 521.61 99.5276 522.3165 99.5306 522.7407 99.6323 523.3591 99.6185 523.7742 99.4879 524.0381 99.2825 524.4017 99.1851 525.0208 98.634 525.5901 98.4372 526.1027 98.2028 526.5456 98.009 527.2324 98.2329 528.0237 98.3803 528.7921 98.1552 529.6511 97.7058 530.2628 97.0799 530.4704 96.633 530.5674 96.0976 530.1856 95.7236 529.6532 95.137 529.4004 94.4947 528.9819 94.0002 528.3676 93.5885 527.7742 93.2996 527.2791 92.5741 526.5647 91.9871 525.9092 91.7048 525.3497 90.9495 525.0849 90.1928 524.6975 89.3237 524.2166 88.4838 524.0243 88.0067 524.168 87.6782 524.3061 87.2229 524.0773 86.8868 523.6605 85.6585 523.5975 84.2968 523.8809 83.3578 525.3106 83.5693 527.559 83.8644 529.2399 83.4353 530.2932 82.893 530.9151 82.0366 531.406 81.3162 531.2836 80.3458 530.574 78.7046 530.113 77.7897 530.1239 77.2259 529.9439 76.7202 530.3469 76.6409 530.4981 76.9896 518.6351 77.6999 487.9641 80.058 487.1153 77.9409 478.4671 77.0403 477.4378 76.7854 472.4734 104.0221 473.1421 103.7335 470.811 106.661 468.7269 112.3178 470.3006 114.779 469.6459 116.6088 470.7551 118.8028 470.3717 119.8677 467.2468 119.2015 457.4859 115.5711 453.6191 113.3047 448.258 119.2628 448.5779 Z" id="fips-16061"/>
<path d="M 411.65 1145.4399 413.4954 1144.111 420.5509 1143.8123 425.9894 1141.2786 427.7381 1141.2386 432.4262 1143.5853 439.0004 1139.9788 440.2168 1139.8264 442.3888 1141.5139 443.0897 1143.8217 445.5838 1145.7749 450.8183 1146.367 456.6203 1143.3145 457.8993 1141.655 460.7856 1134.3892 462.6139 1132.6476 465.4896 1127.5263 466.6444 1123.9133 468.964 1121.9068 477.1612 1118.8431 479.9581 1119.5541 487.8035 1118.549 492.7533 1116.1535 494.4002 1118.8653 501.8118 1126.3989 507.29 1126.3923 507.9516 1128.1869 510.5674 1126.8773 515.8965 1125.2683 518.5754 1126.3893 518.6201 1133.0531 541.0606 1132.9082 542.0486 1178.8179 542.2712 1178.8144 543.3213 1236.8091 543.2191 1236.8113 510.6927 1237.7364 510.4755 1237.8443 498.7857 1238.1766 496.49 1238.367 491.3942 1238.3715 490.6432 1238.3979 486.8008 1238.5152 478.2873 1238.7159 477.7264 1238.8123 443.1793 1239.7912 439.0451 1239.893 435.6282 1240.0344 426.3115 1240.1884 413.1167 1239.4698 406.849 1239.3312 405.9942 1239.3363 405.9927 1239.32 404.2214 1239.3338 404.2227 1239.3088 398.2608 1239.3623 398.2385 1239.3389 375.3878 1239.3966 374.5628 1180.1417 374.6705 1164.844 402.8246 1164.7498 402.7478 1149.5845 402.9971 1147.5961 411.65 1145.4399 Z" id="fips-16031"/>
<path d="M 42.8474 288.1465 70.2066 288.8875 70.2781 286.3617 77.6052 285.6392 79.3234 285.6798 79.2306 288.2248 91.92 288.5567 92.0496 283.4704 97.133 283.6076 97.1917 281.0694 115.1074 281.8435 127.8538 281.9006 126.2845 350.9335 110.8105 350.555 110.8847 348.0021 73.2742 347.7781 65.571 347.5775 65.6575 345.2861 64.2375 344.9385 60.0074 341.441 58.4945 339.3709 55.0353 338.6251 52.6567 341.0825 51.1072 340.3906 48.8073 337.1118 50.1136 332.5495 46.2074 329.7459 41.5389 330.1726 41.6908 325.3379 41.8384 320.5632 41.9564 316.792 42.0796 312.8785 42.2544 306.9362 42.7687 291.4608 42.8474 288.1465 Z" id="fips-16009"/>
<path d="M 129.7267 857.0955 132.3372 857.1459 137.0487 857.2469 139.982 857.9418 141.6757 857.9615 142.3539 857.3291 142.0131 856.7768 142.016 855.8379 141.7215 854.6696 141.6646 853.7883 142.0625 852.8405 142.2017 851.7644 142.4262 850.485 142.6149 849.3279 143.1367 848.2174 143.3512 847.3321 143.5401 846.7299 143.5109 845.5629 143.6265 844.6313 143.9974 843.3751 144.7352 842.395 150.4211 842.491 155.21 842.7211 158.4877 842.7783 164.8132 842.9027 169.7183 842.9469 174.5182 843.0416 179.9726 843.1574 187.4144 843.2726 196.1977 843.3715 201.2187 843.4632 204.3735 843.4975 211.9595 843.5862 217.8754 843.1285 218.8457 842.391 219.6331 843.1524 220.0131 843.9198 220.5942 843.9942 221.9125 843.0894 223.3761 843.1438 224.517 842.5793 226.412 841.7987 227.4305 840.6873 228.73 839.4336 230.0344 838.4335 231.4701 838.6629 232.0114 839.1849 232.6328 839.223 232.6786 838.9528 233.0608 838.5547 233.7177 838.2158 234.4304 836.0564 234.4476 834.7839 235.8598 833.5403 237.3953 832.6372 238.9549 831.5942 239.3393 829.9265 239.187 827.8674 239.2278 826.2806 238.7496 825.2583 239.029 824.0949 239.9809 824.2279 241.337 823.8451 243.3429 824.1097 245.3783 825.1306 246.2962 825.6334 247.1424 828.2436 251.9135 830.6827 252.13 833.2216 253.6438 831.2214 256.5783 831.9778 257.7665 835.766 260.8226 833.3224 262.0883 835.706 263.0741 843.3718 261.2634 844.0919 262.7595 847.9396 262.1237 849.8509 265.1434 852.0822 266.8151 851.7595 269.6377 855.6841 272.7786 854.6262 275.4693 857.4719 276.7967 856.574 280.2149 858.3208 281.091 860.817 279.6884 863.2696 277.3259 864.5648 280.6209 868.39 283.4682 868.4336 283.2502 870.6388 280.7183 871.6406 277.6631 875.3494 277.0614 879.0517 279.0433 882.2921 282.2065 883.3967 283.3239 882.1096 285.3494 883.7908 285.0321 887.7289 287.2534 888.9315 284.2504 894.6228 281.5621 894.5907 278.2065 893.1871 274.5036 896.1499 271.3404 892.6354 272.2602 889.8149 269.2021 890.7803 265.8313 888.4904 264.3793 885.1328 264.2651 878.3748 262.376 872.2442 260.1729 869.6393 254.0306 868.1391 256.9536 870.8901 258.2261 873.5003 256.5892 875.6516 255.791 879.8206 253.4276 884.3469 251.172 886.2847 248.0686 892.4351 246.6858 896.7982 237.8621 899.6172 236.5472 898.6531 229.0312 901.2964 223.186 903.9425 219.4439 904.6279 217.8081 906.0945 216.1631 910.3356 214.4356 912.0618 215.5183 917.618 213.2466 921.7004 207.4994 920.6382 204.8383 923.33 204.3916 926.7375 202.1428 929.8508 202.9351 933.8792 200.5278 937.8335 198.1329 938.3181 193.8533 943.8945 190.1769 943.3817 189.6116 945.8891 186.5517 947.7322 184.5675 946.4242 181.0815 948.4288 176.6839 954.2435 174.6055 953.7276 170.8937 956.6181 168.2204 955.2385 166.2449 956.3956 164.0174 955.7467 163.3848 953.5021 160.7289 954.6155 160.6013 956.7505 158.1535 956.3751 157.5674 957.346 150.2308 949.5712 122.1631 920.0054 119.8421 917.5631 122.24 856.9698 129.7267 857.0955 Z" id="fips-16015"/>
<path d="M 119.3415 1040.127 156.3455 1040.628 157.5816 996.2898 158.1535 956.3751 160.6013 956.7505 160.7289 954.6155 163.3848 953.5021 164.0174 955.7467 166.2449 956.3956 168.2204 955.2385 170.8937 956.6181 174.6055 953.7276 176.6839 954.2435 181.0815 948.4288 184.5675 946.4242 186.5517 947.7322 189.6116 945.8891 190.1769 943.3817 193.8533 943.8945 198.1329 938.3181 200.5278 937.8335 202.9351 933.8792 202.1428 929.8508 204.3916 926.7375 204.8383 923.33 207.4994 920.6382 213.2466 921.7004 215.5183 917.618 214.4356 912.0618 216.1631 910.3356 217.8081 906.0945 219.4439 904.6279 223.186 903.9425 229.0312 901.2964 236.5472 898.6531 237.8621 899.6172 246.6858 896.7982 248.0686 892.4351 251.172 886.2847 253.4276 884.3469 255.791 879.8206 256.5892 875.6516 258.2261 873.5003 256.9536 870.8901 254.0306 868.1391 260.1729 869.6393 262.376 872.2442 264.2651 878.3748 264.3793 885.1328 265.8313 888.4904 269.2021 890.7803 272.2602 889.8149 271.3404 892.6354 274.5036 896.1499 278.2065 893.1871 281.5621 894.5907 284.2504 894.6228 285.7583 895.1425 286.7063 896.6482 283.4672 900.8457 286.3215 909.1564 284.3595 910.697 282.9232 911.9799 282.4361 915.9422 280.4471 916.954 278.0462 926.631 277.4945 930.5796 279.1951 933.6918 280.5589 933.6497 281.6234 935.8922 281.715 939.185 278.1949 943.3745 278.9717 945.5756 278.0842 947.9997 278.4498 952.9679 277.1974 952.8851 274.3876 956.2786 272.1491 955.4397 271.4403 996.6854 271.3023 1027.0731 270.8982 1077.0479 277.2329 1077.562 277.0992 1102.8468 274.2781 1102.8459 265.8472 1102.8166 254.3769 1102.7899 244.4614 1102.729 237.4905 1102.6707 231.4804 1102.591 227.0587 1102.5438 223.2164 1100.9487 223.2383 1099.2557 223.3345 1088.8285 224.6869 1087.838 225.0542 1082.2216 225.1174 1075.3981 223.5672 1074.1563 222.4047 1074.1164 220.9045 1074.1832 219.069 1074.177 217.4963 1074.3358 216.1945 1073.1769 215.0052 1072.3068 213.6841 1071.5661 211.6442 1071.7905 210.9203 1071.9281 210.2602 1072.3461 209.8771 1072.8936 209.4587 1072.9368 208.3124 1072.706 207.0144 1072.4884 205.9699 1072.534 204.7729 1072.3671 203.7916 1071.5765 203.1474 1070.3543 201.7801 1069.1248 199.9447 1069.0763 198.4989 1069.5598 197.0888 1070.5451 195.8973 1071.0674 194.6399 1071.3758 192.8012 1071.8143 190.3231 1071.7502 188.3913 1071.7762 186.8288 1071.1735 185.6596 1071.8332 184.3025 1071.9402 182.1769 1071.5708 180.6584 1070.8546 179.6412 1069.1949 180.5871 1068.2395 180.4377 1066.4348 179.0135 1065.6308 177.356 1065.6514 175.6919 1065.7005 174.3052 1065.9576 172.7045 1066.1899 170.7232 1065.3304 169.5179 1063.2358 168.2001 1062.9106 166.9846 1063.8128 165.4434 1063.9293 163.9109 1062.6225 163.1998 1060.9351 162.6274 1060.4417 161.5552 1060.4101 160.6227 1061.5372 159.1523 1062.0877 158.0124 1062.897 157.4047 1064.7739 156.8941 1066.0571 157.7433 1067.7453 158.1518 1069.078 157.735 1070.1509 156.9809 1070.3303 156.1677 1070.0185 154.6523 1069.717 152.9792 1069.5676 151.2737 1069.1967 150.1827 1068.1048 149.267 1067.3943 148.3207 1065.7033 146.9394 1063.3551 144.8352 1062.6067 142.8636 1062.6773 141.4204 1062.3395 140.6899 1061.1123 139.4382 1059.9301 137.1662 1057.7264 135.9062 1057.7745 134.9867 1057.9199 133.9515 1057.0036 134.5366 1056.1015 135.3492 1054.8693 134.4141 1053.5899 133.3017 1053.2222 131.3596 1053.5001 129.1622 1052.312 127.6378 1051.5726 126.7995 1049.33 127.0644 1047.456 127.9173 1046.6987 128.581 1046.0426 127.9771 1044.7071 126.8912 1043.6149 124.2792 1043.083 121.9919 1042.6654 120.3595 1041.9697 119.1827 1040.6103 119.3415 1040.127 Z" id="fips-16039"/>
<path d="M 24.4912 937.4462 27.2552 938.9006 31.8659 940.0279 33.3474 945.6692 37.2548 948.5811 38.7656 951.5764 43.8242 953.6509 47.2152 953.3459 50.8499 956.4379 52.7303 961.6874 55.1549 965.4629 54.5041 967.5605 54.7909 973.9726 59.4137 978.2298 61.3245 981.5746 67.8471 988.092 68.9543 990.5781 74.6164 993.6484 76.5094 996.9897 77.2992 1000.4729 79.9037 1005.0369 83.5638 1006.3569 87.2218 1006.6735 88.4655 1008.0058 89.8077 1009.5174 93.5757 1008.0036 99.5888 1007.7319 101.4808 1009.3834 102.5802 1013.6784 104.1393 1014.9535 105.6625 1018.8816 104.5439 1021.3219 104.2474 1025.4646 108.5343 1030.6322 110.5398 1031.2818 110.9378 1033.5722 112.6136 1034.3946 115.0261 1038.8113 118.9532 1039.2472 119.3415 1040.127 119.1827 1040.6103 120.3595 1041.9697 121.9919 1042.6654 124.2792 1043.083 126.8912 1043.6149 127.9771 1044.7071 128.581 1046.0426 127.9173 1046.6987 127.0644 1047.456 126.7995 1049.33 127.6378 1051.5726 129.1622 1052.312 131.3596 1053.5001 133.3017 1053.2222 134.4141 1053.5899 135.3492 1054.8693 134.5366 1056.1015 133.9515 1057.0036 134.9867 1057.9199 135.9062 1057.7745 137.1662 1057.7264 139.4382 1059.9301 140.6899 1061.1123 141.4204 1062.3395 142.8636 1062.6773 144.8352 1062.6067 146.9394 1063.3551 148.3207 1065.7033 149.267 1067.3943 150.1827 1068.1048 151.2737 1069.1967 152.9792 1069.5676 154.6523 1069.717 156.1677 1070.0185 156.9809 1070.3303 157.735 1070.1509 158.1518 1069.078 157.7433 1067.7453 156.8941 1066.0571 157.4047 1064.7739 158.0124 1062.897 159.1523 1062.0877 160.6227 1061.5372 161.5552 1060.4101 162.6274 1060.4417 163.1998 1060.9351 163.9109 1062.6225 165.4434 1063.9293 166.9846 1063.8128 168.2001 1062.9106 169.5179 1063.2358 170.7232 1065.3304 172.7045 1066.1899 174.3052 1065.9576 175.6919 1065.7005 177.356 1065.6514 179.0135 1065.6308 180.4377 1066.4348 180.5871 1068.2395 179.6412 1069.1949 180.6584 1070.8546 182.1769 1071.5708 184.3025 1071.9402 185.6596 1071.8332 186.8288 1071.1735 188.3913 1071.7762 190.3231 1071.7502 192.8012 1071.8143 194.6399 1071.3758 195.8973 1071.0674 197.0888 1070.5451 198.4989 1069.5598 199.9447 1069.0763 201.7801 1069.1248 203.1474 1070.3543 203.7916 1071.5765 204.7729 1072.3671 205.9699 1072.534 207.0144 1072.4884 208.3124 1072.706 209.4587 1072.9368 209.8771 1072.8936 210.2602 1072.3461 210.9203 1071.9281 211.6442 1071.7905 213.6841 1071.5661 215.0052 1072.3068 216.1945 1073.1769 217.4963 1074.3358 219.069 1074.177 220.9045 1074.1832 222.4047 1074.1164 223.5672 1074.1563 225.1174 1075.3981 225.0542 1082.2216 224.6869 1087.838 223.3345 1088.8285 223.2383 1099.2557 223.2164 1100.9487 227.0587 1102.5438 231.4804 1102.591 237.4905 1102.6707 244.4614 1102.729 254.3769 1102.7899 265.8472 1102.8166 274.2781 1102.8459 277.0992 1102.8468 276.63 1185.173 276.2716 1238.9574 248.4084 1238.733 247.9456 1238.6296 240.1425 1238.6694 204.3773 1238.1428 199.2601 1237.9838 167.2563 1237.6338 166.0259 1237.4158 164.9762 1237.3712 151.9734 1237.0668 148.6534 1237.0964 148.6526 1237.0941 147.7705 1237.1358 147.7687 1237.1288 146.222 1237.1679 146.2226 1237.1651 145.1987 1237.1442 145.1947 1237.1358 129.1834 1236.8263 128.7777 1236.8101 106.6625 1236.402 101.9809 1236.4762 89.5328 1236.1472 86.9716 1236.0278 86.6141 1236.0236 84.7861 1236.0018 84.5313 1235.8911 83.3895 1235.9059 81.4443 1235.778 73.994 1235.5479 73.3739 1235.6144 68.2653 1235.4851 68.1591 1235.417 23.3333 1233.9732 18.0791 1233.9696 16.9131 1233.7197 16.902 1233.7173 15.8701 1233.5925 16.4818 1212.8549 16.497 1210.1036 16.7175 1204.2675 17.7 1170.6637 17.7544 1166.8989 19.003 1123.5073 19.9843 1091.4203 19.9887 1091.3931 19.9966 1091.3445 21.0651 1053.0334 21.0704 1052.9891 23.9347 955.6467 23.9371 955.4442 23.9966 952.8076 24.0133 952.3846 24.0443 951.6228 24.0606 951.349 24.1027 949.8056 24.1202 948.5811 24.13 947.9785 24.1624 947.3008 24.2234 946.1068 24.4005 940.3396 24.4518 938.3765 24.4912 937.4462 Z" id="fips-16073"/>
<path d="M 163.1954 183.4243 163.1939 183.5111 164.4264 184.5009 165.3887 184.294 168.0192 188.1842 168.0376 188.9714 169.4353 191.234 170.091 192.9591 170.786 194.1464 172.4481 194.731 172.8984 195.4648 173.1007 197.5375 175.861 200.4485 178.5216 205.4968 179.4063 205.7519 179.558 206.6352 180.2135 207.3462 182.5975 206.2681 183.3188 207.4062 183.7824 208.7921 186.0386 210.2844 186.6779 212.6328 186.4106 213.7321 186.4344 217.6732 187.232 218.5291 187.8358 220.445 187.7997 221.9669 188.2124 222.8838 188.9917 223.456 191.5651 222.4519 192.3356 222.7882 194.1258 225.0234 193.8571 227.6313 194.4704 228.9611 194.977 229.649 196.0575 229.7181 196.7437 229.4473 198.5509 230.727 200.0445 232.1015 200.9567 233.6793 200.3934 236.7551 199.2582 240.8334 199.9724 243.064 201.9416 244.2319 202.5596 244.3487 204.1326 246.3196 204.2603 250.612 202.7608 253.9112 200.7162 255.0775 199.6809 255.7952 196.725 258.9312 197.0307 260.3694 198.4802 261.2542 201.2387 262.0942 202.5413 261.96 203.7102 263.184 202.0365 263.9343 201.9096 265.2127 203.9531 267.7889 204.8471 270.8306 205.1857 270.9475 207.0174 270.2221 207.8584 272.0249 209.2605 272.101 210.8957 271.4379 211.5003 271.799 210.2801 275.042 209.1163 275.8864 206.2234 276.3011 205.1968 275.756 200.8712 276.5345 199.505 277.5424 197.3307 278.2381 195.8912 281.4167 197.1526 281.6175 198.5394 281.1424 200.4438 281.2974 201.3738 282.8715 203.1379 282.8926 205.859 284.1738 206.0425 285.3036 207.9884 285.7341 209.7101 289.7302 212.7384 288.9516 217.495 291.7752 217.5393 293.4507 218.8288 294.2885 219.9451 294.2271 220.8035 295.261 220.5885 297.5074 221.851 298.6896 223.1145 303.1 225.5341 304.8393 228.1803 306.3528 228.8532 306.8708 230.2603 306.0674 231.5648 306.7672 231.5777 307.3247 232.1288 307.6486 234.7571 307.287 235.9892 307.9506 236.1571 308.924 237.5562 310.0473 240.3218 309.5492 243.3054 310.8966 245.712 310.4591 248.073 311.8646 247.444 313.3835 248.24 315.2414 248.9254 316.1452 249.5045 316.2417 250.4798 316.9762 251.2657 319.7787 250.7945 320.5146 250.1325 322.7349 250.224 323.5949 251.7084 324.1755 254.764 324.7307 255.5162 326.2403 255.7183 328.1985 257.031 330.2022 259.622 330.5724 261.8368 332.1735 263.7695 333.9492 264.7287 336.1641 265.4758 337.9442 267.0789 338.7262 268.8877 339.0445 269.221 339.8962 269.1254 341.5432 270.6611 345.053 273.5408 348.4587 274.5417 348.4314 275.499 348.8052 277.0383 352.3465 278.1134 356.7535 278.8958 358.7901 280.2433 362.2831 282.1572 361.9346 282.5925 361.2176 285.8504 361.8977 286.0653 362.9326 287.6171 365.4356 289.6939 367.7516 290.8633 368.7937 209.3758 367.9771 208.65 367.8793 125.9349 366.2972 126.2845 350.9335 127.8538 281.9006 129.7563 198.0623 130.264 175.6608 137.0944 168.0364 141.8351 166.8984 144.811 170.9142 150.0533 175.3897 155.0118 173.3962 156.9093 177.1581 161.7214 180.1918 163.1954 183.4243 Z" id="fips-16079"/>
<path d="M 660.7155 1053.3668 675.6373 1053.14 721.7035 1051.7398 751.2524 1050.4372 752.1207 1050.5185 791.8984 1049.074 791.9054 1049.1982 792.2535 1056.8827 792.2904 1057.8658 792.3272 1058.7521 792.4052 1060.6833 792.9636 1074.5197 794.1559 1101.3372 794.8629 1125.9862 795.2755 1138.1044 792.7141 1139.0939 793.276 1140.5019 789.149 1142.7086 787.2519 1142.3883 784.4913 1144.231 780.8239 1142.8263 779.4147 1145.9558 777.0185 1144.967 771.115 1145.3914 769.1653 1142.4787 770.6575 1139.9806 772.0765 1128.7174 769.6067 1126.6306 769.4443 1123.5657 768.4969 1123.934 767.0258 1128.5708 764.8216 1132.4997 759.6687 1131.2187 756.6124 1129.6197 756.7094 1126.9506 753.0734 1126.3616 723.0082 1127.4742 720.767 1128.8511 718.6057 1131.223 720.6185 1140.2586 722.1755 1141.7176 723.1496 1145.8444 726.136 1152.7597 726.6247 1155.643 724.1842 1158.2907 709.6441 1158.719 708.9122 1156.1561 706.6064 1156.2242 707.3736 1156.5192 706.0862 1158.7945 688.2415 1159.3944 688.1002 1154.2608 686.8381 1154.3138 686.5722 1146.6393 685.3023 1146.6791 684.9021 1140.4664 682.3606 1140.5219 681.7677 1124.1447 681.039 1121.5683 677.8393 1121.048 677.6372 1114.1518 675.0859 1114.2322 676.189 1111.4022 674.7496 1110.3937 674.4156 1106.6091 663.0494 1106.9634 659.5726 1110.5723 656.8549 1110.471 655.6444 1105.7909 652.5122 1101.4201 651.9811 1099.3501 651.3176 1094.508 652.0189 1091.0087 653.62 1090.949 654.312 1087.3051 652.3209 1084.1788 652.0101 1078.7957 650.1866 1075.5979 652.1433 1072.9676 650.8653 1072.1268 652.8184 1067.3362 655.9645 1065.9827 658.6385 1066.1166 657.6612 1062.0809 660.8316 1060.8556 662.1861 1058.8454 660.7155 1053.3668 Z" id="fips-16029"/>
<path d="M 666.8671 893.5423 684.5702 893.0092 684.7023 898.1027 702.4132 897.5627 702.5294 900.1099 720.1714 899.5025 720.0651 896.3751 722.4572 894.9734 723.3787 893.0416 727.1821 891.1444 730.0451 891.27 731.5835 893.2152 736.9468 894.1009 740.2158 891.764 740.4654 898.1884 740.23 898.8328 742.1138 944.786 725.2871 945.4131 720.8893 944.7258 713.2419 945.0166 713.078 939.9995 701.4298 940.3927 697.992 938.2464 695.8278 938.465 693.568 937.0162 690.1356 932.5491 688.0281 932.2204 686.5959 930.0715 683.1354 929.8487 681.1114 926.6684 677.3759 924.9976 676.5154 922.7064 675.1341 923.4972 673.7211 921.6003 671.6623 924.556 669.1057 925.0871 666.9725 924.1593 667.5047 916.4815 666.8671 893.5423 Z" id="fips-16065"/>
<path d="M 46.3305 733.336 80.7997 734.7191 80.0868 765.7601 83.1268 770.4216 82.5359 774.229 91.8238 774.4632 91.3319 796.253 106.3869 804.9127 119.9475 805.185 117.41 809.2565 116.9055 815.2695 115.403 817.182 115.9973 820.4203 113.4972 826.6463 114.1757 828.6738 112.8867 832.6892 114.0305 834.6128 112.6578 841.4922 113.6107 845.0437 111.839 846.8693 112.0557 853.8531 111.4405 856.7421 99.6062 856.4296 43.3434 854.7769 43.5039 854.482 43.728 853.8148 43.767 853.4495 43.6109 851.4913 43.0897 850.4914 42.7682 850.0207 39.969 847.8099 38.7116 847.347 38.0673 847.3727 37.4604 847.7137 37.1634 847.7779 34.9162 847.2072 34.6961 847.1205 34.1521 846.6326 33.952 844.7285 34.014 841.5701 34.3153 839.8599 34.1377 839.0956 33.8543 838.582 32.4842 838.077 30.7005 838.0401 28.6914 837.9791 28.2772 837.8481 27.6534 837.3986 27.3675 837.3236 26.8231 837.3506 26.3101 837.6579 25.4769 838.3436 25.0118 840.2294 24.8042 840.6223 24.4212 840.7716 24.0473 840.7168 23.6176 840.3865 23.2931 839.2529 22.3284 838.0298 20.9637 836.9515 19.6018 835.4367 19.4327 835.0651 19.1484 833.4559 19.0319 833.1709 18.5572 832.3527 18.107 831.7625 17.8653 831.5538 17.4328 831.3951 16.9349 831.3966 16.1182 831.6748 15.73 831.9026 14.4406 833.2968 14.2222 833.7147 14.1343 834.2075 14.0163 834.4268 13.4238 835.0436 12.8031 835.2195 11.0748 835.301 9.407 835.001 6.6007 832.7813 5.9841 832.256 3.6926 829.6187 3.0301 827.9704 3.0627 827.7271 3.3769 827.3106 3.378 827.3068 3.6906 826.2979 3.8287 826.1161 4.0335 825.9675 5.2726 825.536 5.554 825.3272 7.0438 822.6221 7.1322 822.4501 7.3773 821.5078 7.3955 821.23 6.6471 819.4811 6.5032 819.2923 5.3355 817.8785 4.8932 817.4237 4.1108 816.9644 2.7671 815.5425 1.897 814.4771 1 811.4272 1.0765 810.4464 2.0811 809.9286 3.1036 808.9187 3.3071 808.5467 4.2841 806.2965 4.7254 805.1644 4.8995 801.4886 4.8145 800.4774 4.6636 799.5382 4.1574 797.5628 3.8147 796.8922 3.6689 796.2984 3.6595 795.916 3.7841 795.3983 3.9142 795.1577 4.8997 794.7617 5.5516 794.9242 5.8313 794.88 6.9606 793.7934 7.7491 792.4327 7.9974 791.8429 8.1637 791.2287 8.1435 790.6808 8.3984 790.0717 8.9809 789.0538 9.4795 788.4172 11.29 788.3919 12.0726 788.1108 13.1931 786.9756 13.6147 786.2217 14.3057 784.5683 14.5248 782.5308 13.9242 781.6462 13.8964 781.2523 14.199 780.5152 14.6605 780.0311 15.2231 779.7726 15.7504 779.3933 16.7834 778.312 16.9535 777.9149 16.9445 776.1534 17.655 772.4992 18.0255 771.5439 18.4348 770.7198 19.2648 770.3528 20.5943 767.9986 21.0641 766.0159 20.8651 765.0617 21.0211 763.7696 21.6253 763.0703 23.0184 760.4047 23.0595 759.9556 23.269 758.9987 24.1783 757.5551 25.2465 757.0399 25.5165 756.5134 25.7662 753.8725 25.5682 752.9006 27.9248 749.7977 28.6852 749.2846 31.7925 747.8502 32.7585 748.0232 33.6539 747.9868 34.5318 747.519 35.2368 746.9756 36.3544 746.0208 36.9913 745.2282 37.2482 745.0064 37.7679 744.7924 40.0084 744.3641 41.5595 743.5449 41.8272 743.3763 42.2068 742.8052 42.3582 742.3333 42.3514 742.1391 42.082 741.5139 42.0063 741.106 42.0291 740.7538 42.385 739.7058 42.7785 739.0822 43.7592 738.0523 45.7037 734.5073 46.3305 733.336 Z" id="fips-16087"/>
<path d="M 99.6062 856.4296 111.4405 856.7421 112.0557 853.8531 111.839 846.8693 113.6107 845.0437 112.6578 841.4922 114.0305 834.6128 112.8867 832.6892 114.1757 828.6738 113.4972 826.6463 115.9973 820.4203 115.403 817.182 116.9055 815.2695 117.41 809.2565 119.9475 805.185 125.5512 801.4719 128.0406 801.8024 128.3849 798.8908 131.0758 793.7338 133.5337 796.8072 138.1102 795.9695 138.106 826.728 130.4624 826.6023 129.7267 857.0955 122.24 856.9698 119.8421 917.5631 90.5276 916.9414 80.3444 916.6987 65.0724 916.3033 65.8943 885.6056 83.677 886.2062 83.811 881.1424 88.8755 881.331 89.1236 871.2517 99.1961 871.597 99.6062 856.4296 Z" id="fips-16045"/>
</g>
</svg>