<?xml version="1.0"?>
<svg xmlns="http://www.w3.org/2000/svg" version="1.2" baseProfile="tiny" width="800" height="1226" viewBox="0 0 800 1226" stroke-linecap="round" stroke-linejoin="round">
<g id="cb_2018_us_county_5m">
<path d="M 641.3797 790.455 642.4938 789.5914 670.8955 770.7922 675.291 767.7834 693.845 755.2265 705.0901 754.6552 727.4811 754.3287 730.0391 755.1418 726.5155 781.2873 725.8701 786.2113 719.7687 834.1066 715.544 865.6531 714.8221 871.3372 698.8166 871.8624 698.7949 876.3835 641.0355 877.2566 641.3797 790.455 Z" id="fips-18137"/>
<path d="M 487.6217 745.7354 501.369 745.2631 519.3505 744.6605 541.8033 743.9676 555.7373 743.6262 582.8764 743.5017 582.5494 770.726 582.7875 810.8218 561.9273 811.479 555.8574 811.5897 556.2034 830.1257 550.4675 829.7957 548.0661 831.6656 544.6705 833.8789 541.0559 836.2285 541.5325 838.6825 493.5313 840.3716 489.1974 840.3771 489.0982 836.0001 489.3734 826.9793 488.6029 781.9434 487.6217 745.7354 Z" id="fips-18005"/>
<path d="M 582.8764 743.5017 595.6734 743.3629 595.7517 711.8668 646.8862 711.3109 674.4196 710.9759 675.0927 740.8328 674.9214 742.1247 675.291 767.7834 670.8955 770.7922 642.4938 789.5914 641.3797 790.455 611.4815 810.0239 582.7875 810.8218 582.5494 770.726 582.8764 743.5017 Z" id="fips-18031"/>
<path d="M 674.0482 688.8033 687.393 688.5815 713.9519 687.9595 736.1092 687.7953 739.2599 688.3131 788.4091 688.3043 788.4166 691.6521 788.4171 691.6828 788.539 702.0019 788.5661 728.2952 788.5274 753.5755 788.5254 754.897 730.0391 755.1418 727.4811 754.3287 705.0901 754.6552 693.845 755.2265 675.291 767.7834 674.9214 742.1247 675.0927 740.8328 674.4196 710.9759 674.0482 688.8033 Z" id="fips-18047"/>
<path d="M 267.9683 665.0649 269.4606 584.6287 343.5602 585.6649 345.5131 585.6746 345.0626 657.6686 355.8631 657.8355 352.3017 666.6193 351.5771 673.4315 354.2299 677.537 352.8814 681.8033 344.8793 691.0032 345.2482 706.9265 343.8391 706.7728 284.9703 705.5669 267.2967 705.3615 267.9683 665.0649 Z" id="fips-18133"/>
<path d="M 488.1759 184.1036 493.6096 184.0041 493.3118 168.1162 492.9461 152.9328 492.1951 103.3564 532.1238 103.2662 559.0903 103.0939 585.613 102.5803 585.8714 128.8803 586.2987 146.201 586.5333 155.105 586.3797 181.9083 578.5531 181.9975 579.3883 222.422 553.5365 223.5424 518.8495 223.9246 501.9162 224.2898 501.9315 210.7045 488.6156 211.1218 488.1759 184.1036 Z" id="fips-18085"/>
<path d="M 691.038 74.0508 717.076 73.5389 742.8888 72.848 780.5245 71.6203 780.5247 71.6334 780.7227 80.7585 780.8084 84.4848 781.2104 100.6587 781.2516 103.5454 781.2519 103.5711 781.3143 107.9887 781.3246 109.0001 781.3049 109.0216 781.5652 121.4028 782.1539 151.0844 718.8927 153.7834 692.5178 154.5526 691.038 74.0508 Z" id="fips-18033"/>
<path d="M 492.1084 90.0494 492.1951 103.3564 492.9461 152.9328 493.3118 168.1162 493.6096 184.0041 488.1759 184.1036 398.1263 184.5612 398.2625 157.7934 398.3298 144.4026 398.4265 122.1146 398.3904 104.2601 398.3012 90.9069 429.8898 90.441 435.2624 90.6904 439.9278 90.2522 492.1084 90.0494 Z" id="fips-18099"/>
<path d="M 635.0634 342.6972 659.4918 342.0856 661.6582 342.1816 660.4615 261.5228 699.6732 261.2186 712.9758 260.8177 721.2952 260.5548 722.6935 313.6499 722.8929 314.9571 724.0403 367.8873 693.0972 368.5947 688.466 368.648 648.9162 369.1931 635.7409 369.3124 635.0634 342.6972 Z" id="fips-18179"/>
<path d="M 605.5099 427.1353 636.9209 426.9788 636.9237 427.0998 662.1814 426.8562 663.2644 426.9942 689.4241 426.4471 689.9609 448.6566 690.5395 470.6959 691.8413 519.2245 638.2274 519.8653 606.8188 520.0001 606.7718 509.8986 606.7269 500.0054 606.6901 497.7457 606.0589 449.5963 605.5099 427.1353 Z" id="fips-18035"/>
<path d="M 385.3921 3.9961 386.5158 4.0018 390.5356 3.9791 443.0813 3.8402 444.6692 3.8339 453.6959 3.8878 453.7021 3.8878 455.6449 3.8863 464.5426 3.8005 476.2062 3.6821 476.7524 3.6909 476.8441 3.6858 485.6868 3.6764 491.1598 3.6687 491.5042 28.2364 491.5127 28.8176 491.6313 36.5401 491.5919 37.39 491.7739 57.0835 492.076 77.059 492.0036 78.598 492.1084 90.0494 439.9278 90.2522 435.2624 90.6904 429.8898 90.441 398.3012 90.9069 398.3904 104.2601 385.0097 104.2547 385.0288 77.6082 389.9333 77.6637 391.2004 74.0208 391.218 64.9105 393.9192 62.0116 393.7135 37.8252 384.7374 37.4613 384.9109 30.7047 385.0665 23.911 385.3921 3.9961 Z" id="fips-18141"/>
<path d="M 371.392 264.4917 397.6255 264.8783 423.7718 265.0474 429.3812 264.9794 432.3324 265.0705 467.1446 264.9155 467.252 315.9922 468.0035 316.828 467.9896 344.8229 468.2244 371.5382 445.7721 371.7936 419.3655 371.9459 419.6119 331.6834 397.6246 331.8068 384.2972 331.6337 384.306 324.0244 384.3372 318.42 371.166 318.2832 371.392 264.4917 Z" id="fips-18017"/>
<path d="M 586.2987 146.201 612.9809 145.8498 612.8527 154.7815 638.9705 154.8848 665.8136 154.8798 665.6444 180.953 658.9968 181.0671 659.651 208.5129 660.255 234.448 646.7374 234.6067 633.2548 234.725 588.8333 235.9938 579.712 236.1796 579.3883 222.422 578.5531 181.9975 586.3797 181.9083 586.5333 155.105 586.2987 146.201 Z" id="fips-18183"/>
<path d="M 343.6537 567.874 401.4151 567.8935 423.6952 567.6926 429.3142 567.6639 430.5188 567.7001 430.7288 585.4692 430.1058 587.5904 430.2714 598.8862 430.4204 612.3535 430.4469 627.4657 430.4242 630.5236 430.473 657.3397 428.2109 657.3977 408.8157 657.8485 404.2823 657.8917 397.4522 657.96 397.512 666.9479 375.2094 666.8642 352.3017 666.6193 355.8631 657.8355 345.0626 657.6686 345.5131 585.6746 343.5602 585.6649 343.6537 567.874 Z" id="fips-18063"/>
<path d="M 291.2239 164.006 293.4446 161.4946 305.095 155.5779 317.9503 152.9096 325.1681 149.2769 330.277 142.5427 335.2598 138.2014 339.0595 126.353 342.7912 120.0364 344.456 113.5977 351.3446 109.9771 357.8763 104.242 385.0097 104.2547 398.3904 104.2601 398.4265 122.1146 398.3298 144.4026 398.2625 157.7934 398.1263 184.5612 317.8237 184.0784 291.0576 183.8047 291.2239 164.006 Z" id="fips-18149"/>
<path d="M 450.1491 478.0734 522.1915 477.1104 539.4653 476.8811 539.3134 512.2262 539.7078 543.4219 539.736 561.4419 539.7798 565.9491 522.0725 566.5815 508.5414 566.6729 504.415 566.5885 489.4289 566.7431 468.4938 566.7967 464.0274 566.8324 459.5912 566.8929 450.9058 567.0758 450.5808 544.7412 450.4758 522.613 450.4087 513.6964 450.2438 488.8404 450.1491 478.0734 Z" id="fips-18057"/>
<path d="M 432.3626 836.5074 489.0982 836.0001 489.1974 840.3771 493.5313 840.3716 541.5325 838.6825 541.0559 836.2285 544.6705 833.8789 548.0661 831.6656 550.4675 829.7957 556.2034 830.1257 556.7368 860.4572 557.0251 878.4942 557.4621 910.2811 555.3061 918.7693 551.75 919.8334 546.4958 930.7203 539.8183 935.3493 536.9817 935.7141 535.3084 932.83 534.7288 934.2823 530.4613 926.1852 528.7588 929.3225 523.7408 926.3103 520.9011 926.9964 517.899 923.7683 514.1326 927.4031 512.2934 922.5815 502.37 926.3309 495.3281 921.0923 490.5412 920.615 486.3517 917.9423 484.0123 923.385 476.2098 924.4227 464.4292 917.9413 461.1884 920.9603 454.8615 919.3145 451.7327 922.802 447.6711 922.0914 442.6 924.0346 441.5964 863.4423 441.3679 854.2533 432.5148 854.3011 432.3626 836.5074 Z" id="fips-18071"/>
<path d="M 538.1454 343.9742 582.2445 343.3714 590.8506 343.2144 635.0634 342.6972 635.7409 369.3124 636.2756 396.2209 636.9209 426.9788 605.5099 427.1353 556.9408 427.6514 539.1357 427.9154 539.135 419.1553 538.8104 397.0928 538.5421 370.4364 538.1454 343.9742 Z" id="fips-18053"/>
<path d="M 417.361 747.1441 448.1727 746.5629 473.6772 746.0821 474.8034 746.107 487.6217 745.7354 488.6029 781.9434 489.3734 826.9793 489.0982 836.0001 432.3626 836.5074 419.975 836.6337 420.1966 827.8963 419.4715 774.4332 417.6808 774.3778 417.361 747.1441 Z" id="fips-18013"/>
<path d="M 250.8365 477.5507 290.5235 477.7948 303.7464 477.9238 343.9266 478.3132 343.8375 489.2808 343.6086 540.9031 343.6537 567.874 343.5602 585.6649 269.4606 584.6287 250.1176 584.2924 250.4488 560.2176 250.4796 557.9591 250.6229 532.8929 250.4493 531.5405 250.8365 477.5507 Z" id="fips-18107"/>
<path d="M 672.3373 608.3154 691.3222 607.8291 700.2057 607.7367 700.1006 630.1247 715.3068 630.0798 735.6569 629.8848 735.8149 647.6047 736.1092 687.7953 713.9519 687.9595 687.393 688.5815 674.0482 688.8033 672.3373 608.3154 Z" id="fips-18041"/>
<path d="M 251.1527 370.6405 273.12 371.0382 277.7035 371.1407 286.5112 371.2926 303.9646 371.4261 326.7614 371.4332 344.4802 371.5847 344.4588 411.4246 344.1598 451.645 344.0779 464.8476 343.9266 478.3132 303.7464 477.9238 290.5235 477.7948 250.8365 477.5507 251.355 430.9286 251.4923 398.6329 251.3016 397.4088 251.1527 370.6405 Z" id="fips-18157"/>
<path d="M 345.177 880.5611 345.43 853.6272 371.3851 853.8038 432.5148 854.3011 441.3679 854.2533 441.5964 863.4423 442.6 924.0346 436.6485 934.5352 434.2694 933.4509 434.592 947.2785 375.9271 947.3898 344.8309 947.5464 344.8512 934.1923 345.177 880.5611 Z" id="fips-18093"/>
<path d="M 212.6994 797.5448 239.3106 798.666 253.7345 799.1107 257.0119 799.1018 345.486 800.3919 345.5157 826.7733 345.43 853.6272 345.177 880.5611 292.2603 880.4153 260.9068 880.713 245.7699 880.1166 238.344 879.0222 211.7847 878.5848 212.3758 824.3773 212.6994 797.5448 Z" id="fips-18055"/>
<path d="M 284.9703 705.5669 343.8391 706.7728 345.2482 706.9265 357.9339 706.9322 357.9704 715.8786 358.2219 720.3456 358.1567 726.5767 358.1209 744.7919 353.207 742.1176 351.4487 744.6722 351.7322 749.9382 345.0924 748.0877 345.486 800.3919 257.0119 799.1018 257.6848 745.5021 284.0888 745.8883 284.2596 728.1159 284.2972 719.0728 284.5194 716.8455 284.9703 705.5669 Z" id="fips-18119"/>
<path d="M 689.9609 448.6566 787.0845 446.2234 787.0815 448.5566 787.1293 472.7734 787.1328 480.6569 787.1233 482.3981 787.122 482.4212 787.086 486.146 786.9903 501.8449 786.9973 502.4619 787.0046 508.5446 787.0187 513.0204 787.0606 526.4484 787.0507 530.9688 787.0034 539.9194 712.7192 541.2884 708.225 541.1963 695.1477 541.4132 692.3201 541.4909 691.8413 519.2245 690.5395 470.6959 689.9609 448.6566 Z" id="fips-18135"/>
<path d="M 398.1263 184.5612 488.1759 184.1036 488.6156 211.1218 501.9315 210.7045 501.9162 224.2898 518.8495 223.9246 518.9251 235.8518 518.6999 237.339 467.2355 238.4254 467.1446 264.9155 432.3324 265.0705 429.3812 264.9794 423.7718 265.0474 397.6255 264.8783 398.032 211.342 398.1263 184.5612 Z" id="fips-18049"/>
<path d="M 343.8375 489.2808 423.471 489.6579 424.5584 489.5223 432.3661 489.3095 450.2438 488.8404 450.4087 513.6964 450.4758 522.613 450.5808 544.7412 450.9058 567.0758 441.783 567.4864 430.5188 567.7001 429.3142 567.6639 423.6952 567.6926 401.4151 567.8935 343.6537 567.874 343.6086 540.9031 343.8375 489.2808 Z" id="fips-18011"/>
<path d="M 585.1318 76.0282 638.2957 74.8896 664.7432 74.4305 691.038 74.0508 692.5178 154.5526 665.8136 154.8798 638.9705 154.8848 612.8527 154.7815 612.9809 145.8498 586.2987 146.201 585.8714 128.8803 585.613 102.5803 585.1318 76.0282 Z" id="fips-18113"/>
<path d="M 510.1583 1029.9902 510.4019 1008.4363 519.3258 1008.2769 519.0933 1004.2882 536.4755 1003.7493 536.4719 999.2409 540.9027 999.1364 540.8444 990.3333 545.349 990.2976 545.2548 985.9596 551.6742 985.881 551.5814 981.5912 558.225 972.52 564.9247 972.2805 568.6927 972.1416 575.9523 972.1909 611.8885 971.7417 629.482 971.4138 629.5719 975.8705 633.8347 977.6875 645.9504 977.5284 648.0058 981.429 649.0104 984.4899 649.1661 986.9886 649.1139 989.7758 648.7166 991.4925 647.3608 994.3252 646.718 995.2069 645.0187 996.6579 644.9662 996.7027 642.9131 997.8655 638.8996 999.6816 637.9381 1000.2426 636.9417 1000.9649 635.6237 1002.2056 635.1171 1002.8873 634.3358 1004.6613 633.9129 1005.8279 633.5032 1007.7229 633.1135 1008.5472 631.0935 1011.9427 629.3208 1013.9421 624.9928 1016.0942 622.5418 1017.0571 620.292 1017.7539 616.2662 1018.464 610.9885 1018.6875 607.9877 1019.5702 604.1407 1022.1798 603.2339 1023.0462 600.1689 1028.0405 600.2182 1028.4725 599.9167 1029.8896 597.9434 1034.4434 597.2417 1036.4874 597.0642 1037.1876 596.0465 1041.2025 596.045 1041.2178 595.9386 1042.289 596.0851 1045.5693 595.9104 1047.005 594.1623 1052.7062 592.4037 1057.5725 590.9126 1059.9509 588.8104 1062.6918 587.3064 1065.5269 587.1211 1065.6908 585.259 1067.3365 584.6651 1067.6997 578.1717 1071.6698 573.2761 1074.6607 572.0051 1075.4369 570.5343 1076.1202 569.0622 1075.9143 566.6184 1074.4859 565.2831 1072.928 565.4725 1072.3132 565.4229 1072.0678 563.629 1070.3283 561.7929 1069.6327 559.2375 1069.6165 559.2345 1069.6176 558.6503 1061.7654 561.2035 1059.8695 557.8184 1056.1431 565.7976 1051.1526 555.1598 1034.0618 528.0363 1034.3867 516.8493 1034.5387 510.1632 1032.261 510.1583 1029.9902 Z" id="fips-18019"/>
<path d="M 715.544 865.6531 719.7687 834.1066 725.8701 786.2113 726.5155 781.2873 730.0391 755.1418 788.5254 754.897 788.6524 765.204 788.6985 768.1934 788.6988 771.5222 788.7287 772.5083 788.7431 773.5745 788.7462 778.8297 788.7991 781.4443 789.1783 800.2046 789.1772 802.8252 789.3533 816.2146 787.909 816.6407 786.7405 817.351 784.7911 819.4186 782.4283 821.6155 779.8283 824.7669 777.4018 826.1219 773.1662 828.4859 771.9927 829.7053 771.1844 831.2807 771.2538 832.8064 771.9563 833.6662 773.2415 836.3341 774.7546 838.3955 775.9161 839.3636 771.0593 844.839 767.8478 843.1415 762.8113 847.1207 759.8059 847.1527 757.9947 850.6745 754.2253 851.4936 747.4285 850.324 746.2198 856.8893 742.9996 854.7481 741.1849 857.1834 737.4842 856.7985 733.2476 862.3312 733.2012 865.1356 727.4359 864.2098 724.0701 869.4425 719.1593 869.1513 719.5803 862.9898 715.544 865.6531 Z" id="fips-18029"/>
<path d="M 518.8495 223.9246 553.5365 223.5424 579.3883 222.422 579.712 236.1796 588.8333 235.9938 589.8343 283.1904 590.8506 343.2144 582.2445 343.3714 538.1454 343.9742 520.7319 344.2658 518.6999 237.339 518.9251 235.8518 518.8495 223.9246 Z" id="fips-18169"/>
<path d="M 358.1209 744.7919 358.1076 746.6939 371.5426 747.0705 397.5932 747.5626 417.361 747.1441 417.6808 774.3778 419.4715 774.4332 420.1966 827.8963 419.975 836.6337 432.3626 836.5074 432.5148 854.3011 371.3851 853.8038 345.43 853.6272 345.5157 826.7733 345.486 800.3919 345.0924 748.0877 351.7322 749.9382 351.4487 744.6722 353.207 742.1176 358.1209 744.7919 Z" id="fips-18105"/>
<path d="M 291.0576 183.8047 317.8237 184.0784 398.1263 184.5612 398.032 211.342 397.6255 264.8783 371.392 264.4917 290.337 263.6119 290.4417 243.6948 291.0576 183.8047 Z" id="fips-18131"/>
<path d="M 150.2889 391.4991 150.2911 391.3955 150.4838 378.0256 150.4991 377.9343 151.4052 316.0642 211.6296 316.9023 250.9341 317.307 251.2686 318.6656 251.1527 370.6405 251.3016 397.4088 150.1965 395.9079 150.1997 395.8222 150.2889 391.4991 Z" id="fips-18007"/>
<path d="M 211.2993 168.8698 222.7919 163.7999 224.5477 161.8161 230.7413 154.7363 244.8899 148.4392 247.0168 148.4223 261.3711 153.7232 272.539 162.602 282.3961 169.2042 291.2239 164.006 291.0576 183.8047 290.4417 243.6948 290.337 263.6119 277.1815 263.5876 277.1634 268.4901 277.2327 286.3926 250.9 286.2709 250.9341 317.307 211.6296 316.9023 211.9044 268.3163 211.8209 263.1783 210.1036 263.1717 211.2993 168.8698 Z" id="fips-18073"/>
<path d="M 292.2603 880.4153 345.177 880.5611 344.8512 934.1923 344.8309 947.5464 344.8512 974.4622 344.7998 996.7331 307.5325 996.5102 305.8975 999.9692 297.8227 1005.9125 288.0825 1005.4352 286.6507 1002.8545 287.1527 947.2573 287.6085 907.0901 292.0877 907.0374 292.162 897.174 292.2603 880.4153 Z" id="fips-18101"/>
<path d="M 157.2973 992.9013 164.6781 993.9193 166.9352 991.1539 169.6693 995.2015 171.6535 990.6635 176.3093 991.8362 176.6922 997.1929 180.1148 999.5064 179.6046 991.7973 183.237 990.1522 192.8691 997.0578 196.0525 1000.5157 207.002 995.6247 210.3725 990.0276 215.4341 991.9543 219.6726 987.8804 226.3664 990.4915 232.4188 999.2525 242.9547 992.7127 247.6118 1000.2433 251.0614 999.7044 250.612 1028.056 250.5372 1054.9734 250.1604 1086.3148 195.8027 1086.0548 195.8911 1081.6914 191.3878 1081.5815 191.5155 1068.1661 192.0055 1040.0134 186.3525 1040.7713 182.2497 1037.9268 178.6845 1041.2898 169.9955 1041.5862 170.283 1022.9147 161.329 1022.8609 161.4529 1013.8457 157.1295 1013.7523 157.2973 992.9013 Z" id="fips-18125"/>
<path d="M 101.441 1104.2058 154.8033 1105.9001 153.4716 1119.2878 153.2034 1132.6637 152.9177 1145.9282 158.5096 1145.9321 158.3321 1159.4273 157.9722 1172.7587 157.833 1174.8083 154.3322 1177.0314 149.2335 1181.0995 148.2351 1182.1716 145.6082 1184.4447 144.0595 1185.1703 143.0852 1185.2503 140.9818 1183.3207 138.2719 1182.1535 134.8173 1180.1504 134.1925 1179.7327 133.5265 1179.2874 131.5969 1177.5017 130.0443 1175.3969 129.446 1174.3766 128.5928 1172.4487 128.0774 1170.1769 128.3215 1167.7859 128.0284 1166.216 127.2698 1165.0385 126.5033 1164.4441 125.3497 1163.8134 124.8714 1163.7129 124.4083 1163.6156 123.6571 1163.666 122.733 1163.9596 121.5854 1164.6489 120.9889 1165.7453 120.6336 1166.9067 120.6176 1168.0423 121.0183 1168.8157 120.3243 1171.6606 119.1886 1173.1911 117.0622 1175.0212 115.5557 1176.5632 114.7162 1178.6161 114.8248 1180.2337 115.3247 1181.8719 116.0181 1183.5376 116.7339 1184.7222 119.5558 1187.2591 121.1204 1188.2252 122.2811 1189.2638 123.6004 1190.8794 124.2867 1196.5388 124.1799 1198.9338 123.4886 1200.2566 119.7513 1205.7192 118.3173 1207.1804 117.5882 1207.7424 115.2436 1208.5969 112.6172 1209.1905 110.1742 1209.4962 107.9161 1209.4195 105.1695 1208.9421 103.7522 1208.4069 103.0023 1207.5957 102.1381 1206.1735 101.7937 1204.8485 101.5265 1203.0669 101.6347 1200.1501 103.1915 1197.0956 103.7394 1196.347 104.7973 1195.4163 105.4647 1194.6134 105.9811 1193.6912 106.3108 1192.3845 106.3186 1191.1171 105.831 1188.6733 105.4885 1187.9706 104.2996 1186.8127 103.2754 1186.0503 102.1651 1185.6204 101.2745 1185.5378 100.2232 1185.8358 97.2081 1187.3555 98.2929 1153.3413 99.2103 1117.5501 101.1075 1117.6207 101.441 1104.2058 Z" id="fips-18163"/>
<path d="M 144.7246 702.9282 144.7246 702.9252 144.7947 698.4483 144.7955 697.2756 144.8494 689.6451 144.8637 687.6251 144.9499 681.816 145.0104 676.2387 145.1492 662.9425 180.5866 663.2111 223.9768 663.9421 223.4471 690.7446 214.2443 690.415 214.1488 696.6611 213.8229 717.1507 213.0652 770.7385 186.6832 770.4017 126.5905 769.5228 126.249 769.0069 125.2719 762.5084 128.3068 758.2049 128.2252 757.2542 127.7025 753.123 130.4823 746.7357 133.0647 744.7728 138.7485 744.8094 141.2681 741.0302 144.1834 742.6125 144.3317 733.4938 144.6268 715.3528 144.6313 715.0224 144.6491 711.4159 144.6916 706.2713 144.7011 705.3029 144.7246 702.9282 Z" id="fips-18167"/>
<path d="M 147.6325 496.854 157.2532 496.8936 157.1767 503.348 176.8397 503.5713 174.0433 524.6765 169.7848 534.5718 171.4058 548.1551 168.3856 555.0747 172.9761 557.2939 169.8405 563.7254 173.1436 565.5099 176.4096 570.1135 182.2771 572.3052 184.8364 576.4787 182.8816 581.6664 188.2671 585.2414 185.2424 591.1046 180.6929 593.9693 181.0521 602.7423 183.1192 606.5517 181.6164 614.4374 182.3418 620.7925 180.5269 629.2272 181.0976 636.7004 177.5471 649.3733 180.5866 663.2111 145.1492 662.9425 145.2739 651.02 145.2552 651.0271 145.2736 645.263 145.6847 609.3682 145.7483 604.9152 145.7815 602.5568 145.7911 600.3991 146.0783 578.2705 146.0788 578.2315 146.5605 551.2225 146.574 550.0145 146.6107 549.1915 146.6856 546.1912 146.7793 543.0243 146.7993 542.3301 146.8433 538.8121 146.8437 538.7829 147.5388 501.4966 147.5406 498.0354 147.6318 496.8836 147.6325 496.854 Z" id="fips-18165"/>
<path d="M 344.8309 947.5464 375.9271 947.3898 434.592 947.2785 434.6015 1009.6969 434.5837 1028.718 434.5353 1037.5625 360.8957 1036.995 344.8535 1037.1441 344.7998 996.7331 344.8512 974.4622 344.8309 947.5464 Z" id="fips-18117"/>
<path d="M 582.7875 810.8218 611.4815 810.0239 641.3797 790.455 641.0355 877.2566 636.5957 877.3152 618.7414 877.6963 618.9999 886.7344 610.3041 886.8435 610.3811 895.7221 601.4785 895.7845 601.6427 904.8494 584.1356 907.6908 572.2947 902.7299 562.8905 909.6038 557.4621 910.2811 557.0251 878.4942 556.7368 860.4572 556.2034 830.1257 555.8574 811.5897 561.9273 811.479 582.7875 810.8218 Z" id="fips-18079"/>
<path d="M 467.1446 264.9155 467.2355 238.4254 518.6999 237.339 520.7319 344.2658 538.1454 343.9742 538.5421 370.4364 521.0105 370.736 503.6193 371.0036 476.9974 371.386 468.2244 371.5382 467.9896 344.8229 468.0035 316.828 467.252 315.9922 467.1446 264.9155 Z" id="fips-18103"/>
<path d="M 447.4884 1028.7749 474.7564 1029.5962 500.9669 1030.156 501.1043 1056.9407 505.5005 1056.9097 505.5747 1065.784 510.1153 1066.0519 510.1182 1068.2108 510.845 1073.8828 515.3465 1073.9001 515.3386 1078.3838 519.8152 1078.4187 519.3306 1101.2711 533.0847 1101.3291 533.346 1102.9728 531.1459 1108.869 531.0036 1115.347 532.0783 1124.2355 532.0794 1124.2453 532.2383 1127.5601 531.8698 1131.8903 530.1936 1135.8269 529.6026 1137.9476 529.2833 1139.3685 528.9561 1141.7128 528.686 1145.7461 528.2596 1148.4935 528.0161 1149.5555 527.654 1150.3576 527.291 1151.1618 526.1317 1152.746 525.0716 1153.9438 523.9026 1155.0142 522.4185 1155.8611 521.8385 1156.1921 521.0085 1156.6656 519.3562 1156.9764 515.0667 1157.3161 510.0957 1158.4036 509.5187 1158.4956 507.0609 1158.8874 504.2729 1159.6367 502.1329 1160.7102 501.4188 1161.492 500.8075 1163.1164 500.7459 1164.2174 501.2134 1167.5454 500.9837 1169.3145 500.5847 1170.2114 500.06 1170.9352 499.0522 1171.3469 498.3609 1171.2751 497.573 1170.9363 496.2489 1169.65 494.3496 1167.2744 493.5891 1165.9588 491.9379 1162.4076 491.1417 1160.5232 491.3665 1159.8768 491.0235 1159.4175 489.8974 1158.223 488.0815 1156.9137 486.0846 1155.7508 483.0835 1154.38 480.65 1153.813 478.3842 1153.5926 475.1195 1153.7644 468.7705 1155.4905 467.5905 1155.4796 465.9452 1155.0556 463.0531 1153.4843 459.298 1151.8189 455.9256 1149.9659 454.6789 1148.322 452.8542 1146.4738 448.7615 1144.473 446.0273 1142.3587 444.6682 1141.0072 444.5668 1140.8445 443.0489 1137.8401 441.8061 1131.1296 441.8211 1128.3035 443.6156 1118.6013 443.4752 1116.2184 439.6167 1110.0249 435.6607 1107.0094 432.5258 1105.463 429.4169 1102.9309 432.482 1103.8555 435.0934 1096.3725 439.102 1096.3197 437.8896 1089.789 442.2257 1088.818 442.752 1072.5983 447.9644 1068.9296 445.2514 1068.0826 446.4656 1064.5582 439.1576 1061.5044 443.06 1059.9646 442.7137 1055.4507 441.211 1050.8999 443.7119 1047.6305 449.3971 1051.2566 446.4226 1039.1402 447.4884 1028.7749 Z" id="fips-18061"/>
<path d="M 714.8221 871.3372 713.8543 879.4528 778.3103 879.1956 778.4317 879.3839 778.9983 879.7606 780.6827 880.1879 787.9221 880.1929 790.6549 880.6969 792.1686 880.7754 795.1758 881.9729 798.1056 884.1788 798.5283 884.6348 798.8175 885.1769 799 886.7461 798.7379 888.5393 798.1657 890.1371 797.5392 891.3003 796.9048 892.166 796.6924 892.375 794.6609 894.3735 791.3681 896.6711 789.9077 897.9924 788.9423 899.325 788.3726 900.6479 788.4155 902.2525 789.1157 904.3206 791.7156 908.3669 792.3551 909.9261 792.9411 912.2023 792.9333 913.3072 792.6794 914.2579 792.2652 914.7559 790.6595 915.2053 788.9032 915.2043 787.2326 914.8997 784.283 913.7753 782.1222 913.1596 774.6786 911.918 773.2445 912.2316 771.3579 913.2132 768.1906 915.264 763.9737 917.3455 762.0448 917.9558 760.4729 918.0882 756.8959 917.2935 753.0154 916.9686 750.3184 917.2835 748.9053 917.8038 747.9542 918.4444 745.1583 920.9425 742.3501 922.419 738.2238 924.5876 736.5586 925.9357 733.6382 927.7884 730.8585 928.8649 729.8033 929.5153 728.4279 930.7799 723.9633 933.493 723.4062 933.954 722.5427 935.0996 722.5644 935.3576 719.1388 938.3378 716.3716 941.0938 715.0346 942.096 713.0883 943.2699 710.8721 944.2735 706.9642 945.6032 705.8642 945.5177 703.4304 945.7924 702.6551 945.6973 699.9895 944.8204 698.7949 876.3835 698.8166 871.8624 714.8221 871.3372 Z" id="fips-18155"/>
<path d="M 500.9669 1030.156 505.4605 1029.7799 510.1583 1029.9902 510.1632 1032.261 516.8493 1034.5387 528.0363 1034.3867 555.1598 1034.0618 565.7976 1051.1526 557.8184 1056.1431 561.2035 1059.8695 558.6503 1061.7654 559.2345 1069.6176 558.636 1069.8347 558.1558 1070.2058 556.5916 1070.7364 553.3158 1071.3682 551.4873 1072.1147 550.143 1073.2884 548.8301 1075.9662 548.0746 1079.2552 548.1081 1081.1582 547.7167 1084.6469 547.7152 1084.6602 546.3301 1087.5838 546.2628 1087.6865 544.8996 1089.7649 540.7826 1093.2295 539.9884 1093.9791 539.6592 1094.2898 539.3464 1094.585 537.9709 1095.8829 534.4909 1100.4731 533.7963 1101.7656 533.346 1102.9728 533.0847 1101.3291 519.3306 1101.2711 519.8152 1078.4187 515.3386 1078.3838 515.3465 1073.9001 510.845 1073.8828 510.1182 1068.2108 510.1153 1066.0519 505.5747 1065.784 505.5005 1056.9097 501.1043 1056.9407 500.9669 1030.156 Z" id="fips-18043"/>
<path d="M 721.2952 260.5548 784.1322 258.1452 784.1334 258.2037 784.9471 295.5927 785.0445 306.3677 785.2288 313.4958 785.3366 317.8356 785.3367 317.8408 785.372 320.7717 785.4763 325.7231 785.5262 329.1228 785.5301 329.7619 785.5911 334.2294 785.6728 338.6751 785.7666 343.4158 786.1138 365.7234 724.0403 367.8873 722.8929 314.9571 722.6935 313.6499 721.2952 260.5548 Z" id="fips-18001"/>
<path d="M 522.0725 566.5815 539.7798 565.9491 539.736 561.4419 553.104 561.0819 607.144 560.3531 607.1808 582.7589 602.4947 582.7597 602.6448 609.2985 594.0138 609.4689 594.2739 636.4086 532.4439 636.7801 519.0121 637.2367 518.9832 628.2428 518.7853 614.2532 518.7573 610.9653 518.692 606.4487 518.6056 603.5714 518.5302 597.4202 518.4268 592.9093 518.364 588.4092 522.0292 584.1887 522.0057 578.8534 521.9603 567.7924 522.0725 566.5815 Z" id="fips-18059"/>
<path d="M 714.8221 871.3372 715.544 865.6531 719.5803 862.9898 719.1593 869.1513 724.0701 869.4425 727.4359 864.2098 733.2012 865.1356 733.2476 862.3312 737.4842 856.7985 741.1849 857.1834 742.9996 854.7481 746.2198 856.8893 747.4285 850.324 754.2253 851.4936 757.9947 850.6745 759.8059 847.1527 762.8113 847.1207 767.8478 843.1415 771.0593 844.839 775.9161 839.3636 777.8214 840.9515 779.1671 842.731 781.0401 845.2071 782.6562 847.7236 782.8844 848.4346 783.463 849.5353 785.2259 851.3554 785.8885 852.337 786.791 854.3301 787.5048 856.3529 787.7139 858.0428 787.094 860.487 786.5041 861.5713 779.5546 868.7686 778.142 870.5301 776.5115 873.2815 776.1719 874.5895 776.2926 875.4202 776.7406 876.7611 778.3103 879.1956 713.8543 879.4528 714.8221 871.3372 Z" id="fips-18115"/>
<path d="M 312.0721 1158.5807 316.0847 1153.4301 317.9464 1157.0936 322.3305 1158.7947 319.9285 1143.3488 323.6365 1140.7637 320.5369 1133.9911 323.729 1129.2757 317.6663 1122.3975 314.0955 1121.9754 317.0573 1120.2758 314.3737 1114.251 316.9825 1110.0679 315.0888 1102.4934 318.0447 1102.9274 318.0425 1095.234 317.9574 1081.7341 345.2502 1082.1883 345.1443 1077.5752 371.5238 1076.6782 371.0957 1094.7259 397.9471 1095.0125 397.9018 1096.6543 397.7521 1121.3069 397.216 1121.8881 396.5287 1123.3729 396.4914 1125.7232 397.0584 1127.4447 398.2794 1128.9123 404.257 1131.8823 405.2094 1134.378 404.5518 1137.8972 403.2314 1139.9657 399.8511 1143.0101 395.0812 1144.3124 393.0273 1144.5047 390.5175 1144.4702 388.2725 1144.4392 385.4394 1144.8342 384.1007 1145.3877 383.5881 1145.8141 383.0002 1146.7071 382.2317 1149.9124 382.3658 1152.7585 382.2959 1154.5126 382.0458 1156.2768 381.9972 1158.9658 382.2158 1164.047 382.1361 1168.2234 382.4567 1170.0842 383.2568 1172.4594 383.7217 1173.271 385.1682 1174.7628 385.9395 1176.1331 386.5037 1177.9925 386.6021 1179.7486 386.3074 1180.328 385.5365 1181.1577 383.5384 1182.3673 381.3457 1183.4498 379.9204 1183.9405 378.3293 1183.9779 376.4438 1183.6745 372.1472 1182.335 368.7401 1182.0232 367.2323 1182.2823 366.7372 1182.6262 364.9025 1184.7289 364.3353 1185.7473 363.9927 1187.0387 363.927 1188.7378 364.3816 1193.8548 364.3372 1195.1232 364.0713 1196.8618 364.532 1197.8687 364.5685 1198.2727 364.3747 1199.1254 362.7854 1201.9162 361.6817 1202.7914 360.2114 1203.5692 357.6472 1205.2759 355.5799 1206.3181 354.6099 1206.6603 352.2405 1207.0479 351.1522 1206.9787 350.4789 1206.7083 349.76 1206.2032 348.9497 1204.4902 348.7504 1202.268 349.0635 1200.4859 349.7648 1198.4583 352.1233 1193.354 353.0966 1190.6659 353.2738 1189.6242 353.2534 1188.3459 352.9262 1187.0668 352.5487 1186.4231 351.8226 1185.8078 349.2083 1185.0473 346.2665 1184.4689 344.3546 1184.4278 343.1197 1185.0136 341.665 1186.4054 337.8169 1189.5071 335.794 1190.8156 335.2294 1191.1046 334.3114 1191.246 332.0808 1190.7157 331.2944 1190.0221 327.3753 1184.9971 323.998 1178.9577 320.4178 1171.5676 318.4948 1166.5478 317.8885 1164.3275 316.8411 1161.5834 312.9996 1159.0541 312.0721 1158.5807 Z" id="fips-18123"/>
<path d="M 774.6344 1.142 776.0671 1.0975 779.0414 1 779.0746 6.2499 779.1176 7.9415 779.1445 9.3823 779.2153 13.1775 779.2901 17.1858 779.3358 20.684 779.4205 27.2959 779.7671 40.2497 779.7668 40.5396 779.8243 45.1318 779.8373 46.1752 780.524 71.5907 780.5245 71.6203 742.8888 72.848 717.076 73.5389 691.038 74.0508 689.5096 2.4414 689.5409 2.4412 695.1323 2.4077 706.3853 2.2252 707.722 2.2208 725.5487 1.8911 725.9203 1.9424 740.814 1.8614 741.1 1.8077 743.3879 1.7661 743.5492 1.7987 750.0475 1.6231 774.6193 1.1425 774.6344 1.142 Z" id="fips-18151"/>
<path d="M 442.6 924.0346 447.6711 922.0914 451.7327 922.802 454.8615 919.3145 461.1884 920.9603 464.4292 917.9413 476.2098 924.4227 484.0123 923.385 486.3517 917.9423 490.5412 920.615 495.3281 921.0923 502.37 926.3309 512.2934 922.5815 514.1326 927.4031 517.899 923.7683 520.9011 926.9964 523.7408 926.3103 528.7588 929.3225 530.4613 926.1852 534.7288 934.2823 535.3084 932.83 536.1695 981.66 545.0687 981.3555 545.2548 985.9596 545.349 990.2976 540.8444 990.3333 540.9027 999.1364 536.4719 999.2409 536.4755 1003.7493 519.0933 1004.2882 519.3258 1008.2769 510.4019 1008.4363 510.1583 1029.9902 505.4605 1029.7799 500.9669 1030.156 474.7564 1029.5962 447.4884 1028.7749 434.5837 1028.718 434.6015 1009.6969 434.592 947.2785 434.2694 933.4509 436.6485 934.5352 442.6 924.0346 Z" id="fips-18175"/>
<path d="M 30.1208 1084.0435 74.996 1085.3037 74.7403 1093.478 101.6318 1094.2048 101.441 1104.2058 101.1075 1117.6207 99.2103 1117.5501 98.2929 1153.3413 97.2081 1187.3555 97.1519 1187.3839 94.7713 1188.3826 92.9972 1188.762 91.6224 1188.8972 89.2913 1188.1573 87.6335 1188.0371 82.2576 1189.0987 80.1162 1190.4893 79.6205 1191.0082 77.0117 1193.0477 76.336 1193.4057 75.3952 1193.6124 75.2429 1193.6459 74.2022 1193.7638 71.0929 1193.7364 65.6308 1193.2362 64.8339 1192.9744 63.8239 1192.2063 63.0879 1191.4089 62.991 1191.0793 62.994 1189.7617 62.2899 1188.4101 62.0777 1188.0678 59.2929 1185.7173 58.9417 1185.0572 57.9327 1182.2522 57.3531 1181.2602 55.6929 1179.4064 54.5498 1178.4543 53.1092 1177.7521 50.9022 1177.1932 49.546 1177.2965 47.9029 1178.0719 43.7054 1183.2169 42.3766 1185.0896 42.2085 1185.3266 41.1328 1186.4133 39.9794 1187.8452 39.5866 1188.3859 39.1568 1189.3395 38.9467 1190.6656 38.88 1191.9445 39.1038 1193.2147 39.5349 1194.5713 39.9807 1195.4127 42.0942 1198.2845 45.054 1201.1294 46.1401 1203.0531 46.7161 1204.8456 47.5733 1210.9545 47.3537 1212.5579 46.7904 1214.0526 45.7398 1214.7906 43.7707 1215.685 41.7195 1216.3465 40.4922 1216.9929 39.901 1217.7347 39.9405 1218.7771 39.6468 1219.4237 38.9731 1219.9605 37.471 1223.8185 36.9864 1224.3556 36.4631 1224.6938 35.4901 1224.8605 33.6926 1224.3723 31.2572 1221.6765 30.8982 1220.8127 29.8045 1219.7618 27.8921 1218.5604 27.2153 1218.4241 26.2525 1217.8388 25.7936 1217.306 24.8332 1216.6995 23.0025 1215.9053 20.4805 1215.3088 19.052 1215.4411 17.3393 1216.0787 17.0363 1214.7291 15.5969 1212.8839 13.4587 1213.1322 10.1934 1215.0768 7.4301 1215.3437 4.024 1212.2321 2.2416 1208.03 4.0243 1206.3138 6.3531 1206.672 9.6699 1208.6754 12.6377 1209.0785 14.5027 1208.9266 17.9208 1206.3021 16.3031 1202.952 10.4545 1201.0034 8.1294 1198.4518 5.5587 1191.3188 2.163 1187.3497 1.6647 1186.7671 1 1184.3504 1.5657 1183.0444 3.8481 1183.1195 7.3721 1186.2295 11.24 1187.7108 14.759 1187.6176 18.2174 1187.9132 20.1107 1188.7545 21.4406 1186.7997 19.9188 1181.23 17.4714 1180.7386 9.0277 1178.9337 8.1696 1176.19 10.3908 1174.6174 11.7857 1174.8912 16.1995 1171.9945 16.1442 1167.6565 17.2915 1167.1514 18.2033 1167.2247 19.9878 1166.9701 21.1035 1166.3092 21.9503 1164.7997 22.0959 1161.5732 19.9519 1155.7299 19.712 1149.7425 23.587 1145.611 21.2006 1143.8456 17.9728 1145.0209 15.3654 1142.6771 17.0149 1138.7289 25.2372 1138.7651 28.2963 1137.5811 33.5681 1134.1455 35.0719 1130.7379 36.1859 1127.6917 34.9625 1124.055 24.6067 1128.7988 22.8178 1128.3622 21.775 1124.6631 22.6831 1122.7554 26.2885 1121.3013 29.0232 1121.7643 30.7268 1121.5294 32.1242 1120.5241 32.1222 1117.6206 33.0492 1115.1562 33.8988 1114.1835 35.5568 1114.2281 36.6745 1114.0027 39.1517 1115.9772 41.7179 1112.0907 43.4933 1111.4733 44.0813 1110.0391 43.637 1108.2824 42.1398 1106.9128 42.1856 1104.4468 41.4069 1102.0258 36.0827 1098.1849 32.2197 1093.9801 30.2574 1090.2196 30.1925 1084.5991 30.1208 1084.0435 Z" id="fips-18129"/>
<path d="M 290.337 263.6119 371.392 264.4917 371.166 318.2832 353.2377 317.9608 334.225 317.5703 332.0054 318.0388 329.2987 329.7264 332.2333 332.6657 329.0699 335.2641 333.6463 334.8743 329.9592 340.0622 326.2477 340.1211 326.7614 371.4332 303.9646 371.4261 286.5112 371.2926 277.7035 371.1407 273.12 371.0382 251.1527 370.6405 251.2686 318.6656 250.9341 317.307 250.9 286.2709 277.2327 286.3926 277.1634 268.4901 277.1815 263.5876 290.337 263.6119 Z" id="fips-18181"/>
<path d="M 150.1965 395.9079 251.3016 397.4088 251.4923 398.6329 251.355 430.9286 242.0652 438.8352 233.0115 440.5176 215.214 448.3164 214.2694 451.2856 206.638 457.8191 203.4372 464.3196 198.4767 467.2243 193.0105 474.3825 188.6719 478.108 173.9851 483.6466 172.0306 487.9132 169.4475 492.128 176.4628 498.8215 176.8397 503.5713 157.1767 503.348 157.2532 496.8936 147.6325 496.854 147.7979 490.1272 147.8521 487.9277 147.9628 483.4388 147.9629 483.4334 148.4084 465.5605 148.3966 465.3653 150.0636 400.424 150.1823 396.2824 150.1965 395.9079 Z" id="fips-18171"/>
<path d="M 735.6569 629.8848 735.6339 625.4314 750.9699 625.9659 787.6655 625.4464 787.6659 625.4661 787.8045 639.6332 787.8404 643.0899 787.9779 647.1916 788.0238 655.4724 788.2224 674.0544 788.254 674.2553 788.2755 674.3914 788.2805 674.6985 788.325 680.2884 788.4091 688.3043 739.2599 688.3131 736.1092 687.7953 735.8149 647.6047 735.6569 629.8848 Z" id="fips-18161"/>
<path d="M 291.6867 18.4011 297.1363 13.559 304.884 10.2338 316.5231 3.4604 316.798 3.462 318.5295 3.4723 321.1969 3.4878 321.8496 3.4915 322.0492 3.4926 322.0712 3.4894 333.4367 3.6333 334.1019 3.6416 334.4628 3.6388 358.5543 3.8542 358.595 3.8545 358.8567 3.8439 385.3921 3.9961 385.0665 23.911 384.9109 30.7047 384.7374 37.4613 393.7135 37.8252 393.9192 62.0116 391.218 64.9105 391.2004 74.0208 389.9333 77.6637 385.0288 77.6082 385.0097 104.2547 357.8763 104.242 351.3446 109.9771 344.456 113.5977 342.7912 120.0364 339.0595 126.353 335.2598 138.2014 330.277 142.5427 325.1681 149.2769 317.9503 152.9096 305.095 155.5779 293.4446 161.4946 291.2239 164.006 291.6484 103.373 291.6537 102.7838 291.9322 77.3558 291.6867 18.4011 Z" id="fips-18091"/>
<path d="M 224.936 44.4865 225.3921 44.4313 232.9866 42.8826 239.2139 40.6068 239.2026 38.114 247.2377 36.681 248.4893 38.1053 260.6615 33.3896 260.9928 33.261 269.7784 29.4007 291.2059 18.8281 291.6867 18.4011 291.9322 77.3558 291.6537 102.7838 291.6484 103.373 291.2239 164.006 282.3961 169.2042 272.539 162.602 261.3711 153.7232 247.0168 148.4223 244.8899 148.4392 230.7413 154.7363 224.5477 161.8161 224.5233 133.7805 224.8341 117.9692 225.004 102.6905 225.0474 91.6044 225.0588 75.9725 224.9773 68.1221 224.936 44.4865 Z" id="fips-18127"/>
<path d="M 583.4506 3.6618 585.5152 3.6464 586.2151 3.6346 589.6444 3.5976 591.4148 3.6063 591.9599 3.6157 595.2347 3.5467 595.41 3.5804 615.8663 3.2802 616.3918 3.325 635.5169 3.048 636.6435 3.0304 647.7351 2.8682 654.369 2.7891 658.8474 2.7187 661.7095 2.6874 663.9974 2.6273 666.2368 2.6237 667.6544 2.6279 667.6724 2.628 671.8849 2.6393 672.0589 2.594 672.227 2.5651 681.2487 2.5092 689.5096 2.4414 691.038 74.0508 664.7432 74.4305 638.2957 74.8896 585.1318 76.0282 583.4506 3.6618 Z" id="fips-18087"/>
<path d="M 607.144 560.3531 606.994 546.7331 606.8415 529.0006 606.8188 520.0001 638.2274 519.8653 691.8413 519.2245 692.3201 541.4909 695.1477 541.4132 695.4698 554.868 695.7627 581.5589 691.1011 581.6838 691.3222 607.8291 672.3373 608.3154 646.94 608.6643 602.6448 609.2985 602.4947 582.7597 607.1808 582.7589 607.144 560.3531 Z" id="fips-18065"/>
<path d="M 176.8397 503.5713 176.4628 498.8215 169.4475 492.128 172.0306 487.9132 173.9851 483.6466 188.6719 478.108 193.0105 474.3825 198.4767 467.2243 203.4372 464.3196 206.638 457.8191 214.2694 451.2856 215.214 448.3164 233.0115 440.5176 242.0652 438.8352 251.355 430.9286 250.8365 477.5507 250.4493 531.5405 250.6229 532.8929 250.4796 557.9591 196.918 557.4902 172.9761 557.2939 168.3856 555.0747 171.4058 548.1551 169.7848 534.5718 174.0433 524.6765 176.8397 503.5713 Z" id="fips-18045"/>
<path d="M 539.4653 476.8811 539.7115 454.6065 539.1357 427.9154 556.9408 427.6514 605.5099 427.1353 606.0589 449.5963 606.6901 497.7457 606.7269 500.0054 606.7718 509.8986 606.8188 520.0001 606.8415 529.0006 606.994 546.7331 607.144 560.3531 553.104 561.0819 539.736 561.4419 539.7078 543.4219 539.3134 512.2262 539.4653 476.8811 Z" id="fips-18095"/>
<path d="M 419.3655 371.9459 445.7721 371.7936 468.2244 371.5382 476.9974 371.386 503.6193 371.0036 521.0105 370.736 538.5421 370.4364 538.8104 397.0928 539.135 419.1553 512.6173 419.4694 492.7062 419.8465 477.1611 420.1454 450.1011 420.6148 450.0639 429.5993 441.2277 429.5799 441.2098 425.0942 434.5435 425.0839 434.5639 411.7729 423.4472 411.726 419.0138 411.7214 419.1816 385.3123 419.3655 371.9459 Z" id="fips-18067"/>
<path d="M 430.5188 567.7001 441.783 567.4864 450.9058 567.0758 459.5912 566.8929 464.0274 566.8324 468.4938 566.7967 489.4289 566.7431 504.415 566.5885 508.5414 566.6729 522.0725 566.5815 521.9603 567.7924 522.0057 578.8534 522.0292 584.1887 518.364 588.4092 518.4268 592.9093 518.5302 597.4202 518.6056 603.5714 518.692 606.4487 518.7573 610.9653 518.7853 614.2532 518.9832 628.2428 519.0121 637.2367 518.9956 655.2939 481.3545 656.2006 474.6105 656.3345 468.9324 656.4528 459.0532 656.6959 452.0635 656.8256 448.5582 656.888 430.473 657.3397 430.4242 630.5236 430.4469 627.4657 430.4204 612.3535 430.2714 598.8862 430.1058 587.5904 430.7288 585.4692 430.5188 567.7001 Z" id="fips-18097"/>
<path d="M 352.3017 666.6193 375.2094 666.8642 397.512 666.9479 397.4522 657.96 404.2823 657.8917 408.8157 657.8485 428.2109 657.3977 430.473 657.3397 448.5582 656.888 448.3922 677.0698 448.4787 692.5623 448.1637 692.8152 448.2309 736.3945 448.1727 746.5629 417.361 747.1441 397.5932 747.5626 371.5426 747.0705 358.1076 746.6939 358.1209 744.7919 358.1567 726.5767 358.2219 720.3456 357.9704 715.8786 357.9339 706.9322 345.2482 706.9265 344.8793 691.0032 352.8814 681.8033 354.2299 677.537 351.5771 673.4315 352.3017 666.6193 Z" id="fips-18109"/>
<path d="M 343.9266 478.3132 344.0779 464.8476 344.1598 451.645 344.4588 411.4246 371.0471 411.7309 375.1309 411.7594 419.0138 411.7214 423.4472 411.726 434.5639 411.7729 434.5435 425.0839 441.2098 425.0942 441.2277 429.5799 450.0639 429.5993 450.1491 478.0734 450.2438 488.8404 432.3661 489.3095 424.5584 489.5223 423.471 489.6579 343.8375 489.2808 343.9266 478.3132 Z" id="fips-18023"/>
<path d="M 245.7699 880.1166 260.9068 880.713 292.2603 880.4153 292.162 897.174 292.0877 907.0374 287.6085 907.0901 287.1527 947.2573 286.6507 1002.8545 283.6674 1003.1697 282.2183 1006.7422 278.9482 1003.3878 274.4874 1003.8105 269.9016 1000.3715 262.3339 1002.0434 257.611 1000.9383 253.0833 1003.727 251.0614 999.7044 247.6118 1000.2433 242.9547 992.7127 232.4188 999.2525 226.3664 990.4915 219.6726 987.8804 215.4341 991.9543 210.3725 990.0276 211.5158 987.7499 209.1322 982.48 211.4942 980.5844 209.2462 978.2856 209.3459 972.9469 207.4729 969.154 211.3663 969.8884 208.0418 963.433 211.0017 963.2577 211.5562 955.0487 207.4612 956.1276 207.1887 952.8297 203.4879 948.5309 205.8432 946.0272 202.0995 944.977 204.2939 939.7548 207.3444 936.5832 206.0804 933.4871 206.4585 931.9699 209.7822 933.5295 207.9688 932.5178 210.5999 927.0416 210.8321 921.2731 207.3794 921.5717 208.4647 917.9443 211.6958 915.9145 210.1313 909.3311 211.7679 905.7975 218.109 909.3301 224.5088 901.4649 227.7229 902.8469 228.4872 897.4703 233.4999 900.1466 235.3116 897.2224 234.9251 891.26 240.6201 889.497 238.1158 885.7089 241.3732 881.6092 247.6904 881.2656 245.7699 880.1166 Z" id="fips-18027"/>
<path d="M 695.1477 541.4132 708.225 541.1963 712.7192 541.2884 787.0034 539.9194 786.9875 542.9141 787.1031 563.7979 787.0929 565.5109 787.1048 567 787.1661 574.7802 787.149 575.0124 787.1778 580.5019 787.1803 586.5525 787.1729 587.3169 787.182 589.6513 787.1758 589.6865 787.2372 594.6888 787.2342 595.3493 787.2099 598.5472 787.2381 599.4112 787.2762 602.9871 787.3486 606.9491 787.3528 607.3435 787.6655 625.4464 750.9699 625.9659 735.6339 625.4314 735.6569 629.8848 715.3068 630.0798 700.1006 630.1247 700.2057 607.7367 691.3222 607.8291 691.1011 581.6838 695.7627 581.5589 695.4698 554.868 695.1477 541.4132 Z" id="fips-18177"/>
<path d="M 112.1438 981.622 115.5429 975.4253 117.5631 975.0076 118.2683 974.6819 118.8943 973.7951 118.8468 972.8821 118.1155 970.2654 119.3686 966.1589 120.0012 959.8371 126.4648 951.3602 138.0494 948.3901 140.4804 947.0368 141.5057 946.4659 144.3457 942.463 145.1197 936.5972 148.3484 931.3541 150.0693 928.5585 149.5424 923.9306 149.6944 922.4655 150.2039 917.5526 142.9937 905.3078 144.383 902.7303 143.4676 895.8939 141.4594 894.7298 137.6249 892.5062 136.9549 891.3346 138.4447 887.5872 139.3111 881.6169 143.2935 877.8041 211.7551 880.5141 211.7847 878.5848 238.344 879.0222 245.7699 880.1166 247.6904 881.2656 241.3732 881.6092 238.1158 885.7089 240.6201 889.497 234.9251 891.26 235.3116 897.2224 233.4999 900.1466 228.4872 897.4703 227.7229 902.8469 224.5088 901.4649 218.109 909.3301 211.7679 905.7975 210.1313 909.3311 211.6958 915.9145 208.4647 917.9443 207.3794 921.5717 210.8321 921.2731 210.5999 927.0416 207.9688 932.5178 209.7822 933.5295 206.4585 931.9699 206.0804 933.4871 207.3444 936.5832 204.2939 939.7548 202.0995 944.977 205.8432 946.0272 203.4879 948.5309 207.1887 952.8297 207.4612 956.1276 211.5562 955.0487 211.0017 963.2577 208.0418 963.433 211.3663 969.8884 207.4729 969.154 209.3459 972.9469 209.2462 978.2856 211.4942 980.5844 209.1322 982.48 211.5158 987.7499 210.3725 990.0276 207.002 995.6247 196.0525 1000.5157 192.8691 997.0578 183.237 990.1522 179.6046 991.7973 180.1148 999.5064 176.6922 997.1929 176.3093 991.8362 171.6535 990.6635 169.6693 995.2015 166.9352 991.1539 164.6781 993.9193 157.2973 992.9013 154.1035 994.55 154.9342 998.9614 150.6366 1001.1612 149.5118 1004.4137 143.3102 1001.9064 140.2565 1002.662 139.4858 997.2869 136.4108 999.3344 138.5627 1005.1442 130.5332 1005.5666 124.1664 1017.867 114.8609 1019.1389 114.5809 1016.25 111.4735 1018.1574 110.6071 1015.413 106.3126 1018.9021 109.0959 1022.2608 99.7905 1026.3577 89.1078 1028.4489 90.0136 1021.9906 92.5359 1019.7799 92.6891 1018.6738 91.3747 1016.6664 89.6147 1014.7852 89.5693 1012.0959 90.5693 1009.872 92.6911 1008.786 96.7158 1008.4934 101.7677 1006.068 105.3762 1002.9307 108.9228 1001.6057 110.5321 1000.3289 111.2548 998.8838 111.3671 997.2054 110.9093 996.0241 109.8106 989.9005 112.2877 985.2865 112.1438 981.622 Z" id="fips-18083"/>
<path d="M 491.1598 3.6687 496.0966 3.6604 507.4717 3.7979 507.4895 3.7981 511.2291 3.8158 511.2472 3.8158 530.9683 3.8674 530.9811 3.8674 534.1365 3.8777 534.8137 3.8671 553.2979 3.8683 553.3044 3.8682 557.0377 3.8175 557.2682 3.8169 562.6668 3.8017 562.7761 3.8007 568.6086 3.7663 583.4506 3.6618 585.1318 76.0282 585.613 102.5803 559.0903 103.0939 532.1238 103.2662 492.1951 103.3564 492.1084 90.0494 492.0036 78.598 492.076 77.059 491.7739 57.0835 491.5919 37.39 491.6313 36.5401 491.5127 28.8176 491.5042 28.2364 491.1598 3.6687 Z" id="fips-18039"/>
<path d="M 665.8136 154.8798 692.5178 154.5526 718.8927 153.7834 782.1539 151.0844 782.155 151.144 782.156 151.1861 782.273 156.8286 782.2732 156.8381 782.6912 180.9825 782.6666 181.1936 782.7533 183.8192 782.7951 191.2288 783.0217 197.0927 783.1577 206.9526 783.5867 231.4315 783.6952 237.6279 783.6962 237.6847 784.1322 258.1452 721.2952 260.5548 712.9758 260.8177 699.6732 261.2186 660.4615 261.5228 660.3281 235.4308 660.255 234.448 659.651 208.5129 658.9968 181.0671 665.6444 180.953 665.8136 154.8798 Z" id="fips-18003"/>
<path d="M 448.5582 656.888 452.0635 656.8256 459.0532 656.6959 468.9324 656.4528 474.6105 656.3345 481.3545 656.2006 518.9956 655.2939 519.1497 686.1516 519.2931 690.6814 519.0336 733.5595 519.3505 744.6605 501.369 745.2631 487.6217 745.7354 474.8034 746.107 473.6772 746.0821 448.1727 746.5629 448.2309 736.3945 448.1637 692.8152 448.4787 692.5623 448.3922 677.0698 448.5582 656.888 Z" id="fips-18081"/>
<path d="M 535.3084 932.83 536.9817 935.7141 539.8183 935.3493 546.4958 930.7203 551.75 919.8334 555.3061 918.7693 557.4621 910.2811 562.8905 909.6038 572.2947 902.7299 584.1356 907.6908 584.4163 931.8491 593.3238 933.8969 593.4809 940.6027 602.3683 940.5857 602.552 949.526 611.4869 949.5432 611.8885 971.7417 575.9523 972.1909 568.6927 972.1416 564.9247 972.2805 558.225 972.52 551.5814 981.5912 551.6742 985.881 545.2548 985.9596 545.0687 981.3555 536.1695 981.66 535.3084 932.83 Z" id="fips-18143"/>
<path d="M 172.9761 557.2939 196.918 557.4902 250.4796 557.9591 250.4488 560.2176 250.1176 584.2924 269.4606 584.6287 267.9683 665.0649 241.665 664.5366 223.9768 663.9421 180.5866 663.2111 177.5471 649.3733 181.0976 636.7004 180.5269 629.2272 182.3418 620.7925 181.6164 614.4374 183.1192 606.5517 181.0521 602.7423 180.6929 593.9693 185.2424 591.1046 188.2671 585.2414 182.8816 581.6664 184.8364 576.4787 182.2771 572.3052 176.4096 570.1135 173.1436 565.5099 169.8405 563.7254 172.9761 557.2939 Z" id="fips-18121"/>
<path d="M 588.8333 235.9938 633.2548 234.725 646.7374 234.6067 660.255 234.448 660.3281 235.4308 660.4615 261.5228 661.6582 342.1816 659.4918 342.0856 635.0634 342.6972 590.8506 343.2144 589.8343 283.1904 588.8333 235.9938 Z" id="fips-18069"/>
<path d="M 344.8535 1037.1441 360.8957 1036.995 434.5353 1037.5625 434.5837 1028.718 447.4884 1028.7749 446.4226 1039.1402 449.3971 1051.2566 443.7119 1047.6305 441.211 1050.8999 442.7137 1055.4507 443.06 1059.9646 439.1576 1061.5044 446.4656 1064.5582 445.2514 1068.0826 447.9644 1068.9296 442.752 1072.5983 442.2257 1088.818 437.8896 1089.789 439.102 1096.3197 435.0934 1096.3725 432.482 1103.8555 429.4169 1102.9309 428.7432 1102.382 425.142 1098.5656 422.0914 1097.5095 418.8498 1099.1781 418.5001 1099.9437 417.7976 1101.4818 417.9666 1105.9231 419.3396 1108.1335 423.7132 1109.5504 430.3984 1111.1694 431.5249 1113.2878 430.9977 1115.8621 429.8024 1117.7512 428.1718 1118.8664 423.9868 1119.1043 418.4648 1118.4337 417.3891 1118.8487 415.5898 1120.2719 413.4097 1125.4401 412.0946 1126.1732 411.2694 1126.0478 407.9653 1122.3926 404.8305 1119.8006 400.4714 1119.455 398.7009 1120.2783 397.7521 1121.3069 397.9018 1096.6543 397.9471 1095.0125 371.0957 1094.7259 371.5238 1076.6782 345.1443 1077.5752 344.921 1050.5947 344.8535 1037.1441 Z" id="fips-18025"/>
<path d="M 154.8033 1105.9001 155.0734 1094.8866 182.007 1095.12 191.204 1095.1882 191.3878 1081.5815 195.8911 1081.6914 195.8027 1086.0548 250.1604 1086.3148 250.068 1095.1485 263.498 1095.3358 263.3094 1120.3799 263.1635 1121.5201 250.0421 1121.4104 249.3019 1128.1183 245.5235 1133.0389 243.7445 1140.2444 245.9747 1142.3934 237.1066 1144.1385 235.2611 1140.8444 230.2476 1141.0889 230.3318 1150.3028 223.1602 1154.1629 219.7186 1161.2873 212.5339 1166.0597 210.8209 1173.2515 208.7893 1171.9751 202.142 1180.3463 201.8264 1194.4993 201.5403 1194.1265 200.4644 1193.1667 193.7404 1188.3327 193.6742 1188.2972 189.473 1186.0444 186.6397 1185.2404 186.058 1185.2484 185.7573 1185.4413 183.4593 1184.3096 181.6156 1182.7651 181.1153 1182.1059 180.2551 1181.3933 179.4466 1181.2412 178.9707 1180.8229 176.8893 1178.4402 176.7982 1178.277 176.9651 1177.9254 176.8694 1177.8211 176.7766 1177.7661 174.9909 1176.7079 172.3406 1175.7673 169.9464 1174.9172 169.5937 1174.5936 165.7396 1173.779 163.3336 1173.7338 161.3121 1173.898 158.6592 1174.4057 158.0084 1174.6969 157.833 1174.8083 157.9722 1172.7587 158.3321 1159.4273 158.5096 1145.9321 152.9177 1145.9282 153.2034 1132.6637 153.4716 1119.2878 154.8033 1105.9001 Z" id="fips-18173"/>
<path d="M 371.166 318.2832 384.3372 318.42 384.306 324.0244 384.2972 331.6337 397.6246 331.8068 419.6119 331.6834 419.3655 371.9459 419.1816 385.3123 419.0138 411.7214 375.1309 411.7594 371.0471 411.7309 344.4588 411.4246 344.4802 371.5847 326.7614 371.4332 326.2477 340.1211 329.9592 340.0622 333.6463 334.8743 329.0699 335.2641 332.2333 332.6657 329.2987 329.7264 332.0054 318.0388 334.225 317.5703 353.2377 317.9608 371.166 318.2832 Z" id="fips-18015"/>
<path d="M 689.4241 426.4471 691.3851 426.3762 692.4811 426.3648 692.4596 425.2485 692.1786 395.5946 693.5048 395.1718 693.0972 368.5947 724.0403 367.8873 786.1138 365.7234 786.2922 379.2876 786.4134 387.3445 786.3028 398.5294 786.2941 399.4016 786.4234 415.068 786.8167 433.0959 786.8173 433.1226 787.0845 446.2168 787.0845 446.2234 689.9609 448.6566 689.4241 426.4471 Z" id="fips-18075"/>
<path d="M 251.0614 999.7044 253.0833 1003.727 257.611 1000.9383 262.3339 1002.0434 269.9016 1000.3715 274.4874 1003.8105 278.9482 1003.3878 282.2183 1006.7422 283.6674 1003.1697 286.6507 1002.8545 288.0825 1005.4352 297.8227 1005.9125 305.8975 999.9692 307.5325 996.5102 344.7998 996.7331 344.8535 1037.1441 344.921 1050.5947 345.1443 1077.5752 345.2502 1082.1883 317.9574 1081.7341 318.0425 1095.234 286.137 1095.6773 263.498 1095.3358 250.068 1095.1485 250.1604 1086.3148 250.5372 1054.9734 250.612 1028.056 251.0614 999.7044 Z" id="fips-18037"/>
<path d="M 635.7409 369.3124 648.9162 369.1931 688.466 368.648 693.0972 368.5947 693.5048 395.1718 692.1786 395.5946 692.4596 425.2485 692.4811 426.3648 691.3851 426.3762 689.4241 426.4471 663.2644 426.9942 662.1814 426.8562 636.9237 427.0998 636.9209 426.9788 636.2756 396.2209 635.7409 369.3124 Z" id="fips-18009"/>
<path d="M 539.135 419.1553 539.1357 427.9154 539.7115 454.6065 539.4653 476.8811 522.1915 477.1104 450.1491 478.0734 450.0639 429.5993 450.1011 420.6148 477.1611 420.1454 492.7062 419.8465 512.6173 419.4694 539.135 419.1553 Z" id="fips-18159"/>
<path d="M 116.9226 800.6879 117.5222 797.8705 122.2339 795.4646 129.9957 788.5038 132.8104 784.4597 133.4299 782.2322 132.3979 777.7459 131.4046 774.4705 129.0552 773.2468 126.5905 769.5228 186.6832 770.4017 213.0652 770.7385 212.6994 797.5448 212.3758 824.3773 211.7847 878.5848 211.7551 880.5141 143.2935 877.8041 145.4649 873.0684 147.1792 863.5059 143.119 858.0728 131.5366 852.7306 131.4018 848.7908 133.7267 843.3554 132.5183 838.8388 133.2005 831.7156 127.6277 824.7694 124.7455 823.8653 123.5686 822.8887 122.8439 821.5351 122.7231 819.6149 122.2962 818.266 120.8137 817.8603 119.6343 817.0751 119.1993 816.3013 119.0674 815.1485 119.0844 813.9979 119.2542 812.6474 116.7026 809.5805 116.0997 804.5532 116.9226 800.6879 Z" id="fips-18153"/>
<path d="M 584.1356 907.6908 601.6427 904.8494 601.4785 895.7845 610.3811 895.7221 610.3041 886.8435 618.9999 886.7344 618.7414 877.6963 636.5957 877.3152 641.0355 877.2566 698.7949 876.3835 699.9895 944.8204 699.2874 944.5894 697.1749 943.4622 695.2696 941.7927 694.0701 940.4254 690.9897 935.2297 690.0735 934.0916 689.0786 932.3878 686.1017 930.6004 683.9881 929.9661 682.1118 929.5966 678.8089 929.2537 674.7819 929.5322 668.8675 931.115 668.3318 931.3118 666.4461 932.0045 663.8605 932.7243 661.0933 933.0954 660.9771 933.111 658.9507 933.1016 652.1794 931.5107 649.6743 931.1978 648.3098 931.4593 647.0228 931.9135 644.153 933.5931 643.2751 934.5381 642.2144 936.5612 640.6534 938.5666 639.8855 939.8083 639.0005 944.0216 638.7764 946.0259 638.9069 947.2732 639.1538 948.1857 641.7461 951.8485 643.233 955.1398 643.5036 958.3373 643.1382 963.4175 643.2266 970.1656 643.4225 971.6939 643.7085 972.8215 644.0246 973.8724 645.9504 977.5284 633.8347 977.6875 629.5719 975.8705 629.482 971.4138 611.8885 971.7417 611.4869 949.5432 602.552 949.526 602.3683 940.5857 593.4809 940.6027 593.3238 933.8969 584.4163 931.8491 584.1356 907.6908 Z" id="fips-18077"/>
<path d="M 602.6448 609.2985 646.94 608.6643 672.3373 608.3154 674.0482 688.8033 674.4196 710.9759 646.8862 711.3109 595.7517 711.8668 594.7081 663.2199 594.5459 658.7534 594.4421 636.7016 594.2739 636.4086 594.0138 609.4689 602.6448 609.2985 Z" id="fips-18139"/>
<path d="M 29.7337 1075.8314 29.834 1075.5427 31.0888 1075.9617 33.8898 1080.034 33.7201 1080.7964 34.0926 1081.8695 34.9522 1082.1859 36.1995 1081.9922 36.7544 1081.0881 36.5771 1079.59 37.2636 1077.5491 39.714 1076.4687 40.7051 1074.9572 39.0781 1073.7556 38.406 1070.6304 40.7585 1069.2237 42.0228 1065.1154 45.034 1063.2582 47.082 1063.0767 48.7853 1064.229 48.6269 1066.1868 47.242 1068.3065 46.2798 1070.2671 46.6525 1072.0641 47.7906 1072.682 48.8315 1072.5633 51.4782 1069.2638 53.908 1067.5211 54.6699 1065.1507 55.6925 1061.8949 57.1284 1059.9257 58.6193 1059.3207 59.998 1060.0986 60.6149 1061.4762 59.1382 1066.1766 59.8539 1069.1717 61.859 1070.7088 63.9641 1070.3491 65.1756 1069.3144 67.2153 1065.2857 67.6917 1063.4439 67.4864 1061.0219 67.3957 1055.6122 69.9171 1048.8819 74.0072 1043.9675 80.3237 1041.7096 85.294 1034.9806 88.8714 1030.1342 89.1078 1028.4489 99.7905 1026.3577 109.0959 1022.2608 106.3126 1018.9021 110.6071 1015.413 111.4735 1018.1574 114.5809 1016.25 114.8609 1019.1389 124.1664 1017.867 130.5332 1005.5666 138.5627 1005.1442 136.4108 999.3344 139.4858 997.2869 140.2565 1002.662 143.3102 1001.9064 149.5118 1004.4137 150.6366 1001.1612 154.9342 998.9614 154.1035 994.55 157.2973 992.9013 157.1295 1013.7523 161.4529 1013.8457 161.329 1022.8609 170.283 1022.9147 169.9955 1041.5862 178.6845 1041.2898 182.2497 1037.9268 186.3525 1040.7713 192.0055 1040.0134 191.5155 1068.1661 191.3878 1081.5815 191.204 1095.1882 182.007 1095.12 155.0734 1094.8866 154.8033 1105.9001 101.441 1104.2058 101.6318 1094.2048 74.7403 1093.478 74.996 1085.3037 30.1208 1084.0435 29.6964 1080.7569 29.3757 1078.2952 29.5962 1076.2276 29.7337 1075.8314 Z" id="fips-18051"/>
<path d="M 153.1643 184.2693 172.6761 182.284 179.0744 185.7931 183.8771 185.6742 186.9082 182.6952 199.9277 178.6884 211.2993 168.8698 210.1036 263.1717 211.8209 263.1783 211.9044 268.3163 211.6296 316.9023 151.4052 316.0642 151.4055 316.0443 151.9933 279.9927 152.0264 272.2087 152.0654 271.9282 152.014 267.7534 152.1181 267.3331 152.1724 262.3414 152.1726 262.3179 152.5483 232.0927 152.5398 232.0198 152.5614 227.6425 152.9375 197.9664 153.0191 192.3866 153.0617 189.4501 153.083 187.9959 153.1009 186.3102 153.1174 186.1133 153.1245 185.8963 153.1553 184.9545 153.1643 184.2693 Z" id="fips-18111"/>
<path d="M 213.0652 770.7385 213.8229 717.1507 214.1488 696.6611 214.2443 690.415 223.4471 690.7446 223.9768 663.9421 241.665 664.5366 267.9683 665.0649 267.2967 705.3615 284.9703 705.5669 284.5194 716.8455 284.2972 719.0728 284.2596 728.1159 284.0888 745.8883 257.6848 745.5021 257.0119 799.1018 253.7345 799.1107 239.3106 798.666 212.6994 797.5448 213.0652 770.7385 Z" id="fips-18021"/>
<path d="M 154.7008 90.8818 154.8429 84.8233 155.0784 74.7831 155.1289 72.6327 155.235 63.5763 155.3449 62.319 155.4313 56.2628 155.4862 52.4155 155.6043 44.1459 155.6248 41.1066 155.6587 40.3395 155.8035 27.9064 155.8615 22.9338 155.8869 19.5569 156.1183 17.8101 156.9276 17.33 158.118 19.0964 159.0474 21.4732 160.3327 23.0258 168.1882 28.8723 168.8125 29.0043 169.7107 27.6517 170.1246 27.3784 173.0566 25.4424 178.7781 23.7169 180.8483 24.3234 181.9651 25.6241 184.3034 27.6145 179.5093 33.1078 175.4069 34.6462 177.4614 37.2208 178.9171 38.2218 182.4027 39.1723 185.5274 40.0238 186.1917 40.2682 192.1766 42.4686 201.5869 44.5752 210.0092 44.9165 212.1125 45.7074 215.9946 45.5657 224.936 44.4865 224.9773 68.1221 225.0588 75.9725 225.0474 91.6044 225.004 102.6905 224.8341 117.9692 224.5233 133.7805 224.5477 161.8161 222.7919 163.7999 211.2993 168.8698 199.9277 178.6884 186.9082 182.6952 183.8771 185.6742 179.0744 185.7931 172.6761 182.284 153.1643 184.2693 153.6943 143.7547 153.6948 143.7162 154.0306 126.0225 154.383 118.3386 154.575 101.5347 154.6384 95.9977 154.6996 90.9333 154.7008 90.8818 Z" id="fips-18089"/>
<path d="M 518.9956 655.2939 519.0121 637.2367 532.4439 636.7801 594.2739 636.4086 594.4421 636.7016 594.5459 658.7534 594.7081 663.2199 595.7517 711.8668 595.6734 743.3629 582.8764 743.5017 555.7373 743.6262 541.8033 743.9676 519.3505 744.6605 519.0336 733.5595 519.2931 690.6814 519.1497 686.1516 518.9956 655.2939 Z" id="fips-18145"/>
<path d="M 263.498 1095.3358 286.137 1095.6773 318.0425 1095.234 318.0447 1102.9274 315.0888 1102.4934 316.9825 1110.0679 314.3737 1114.251 317.0573 1120.2758 314.0955 1121.9754 317.6663 1122.3975 323.729 1129.2757 320.5369 1133.9911 323.6365 1140.7637 319.9285 1143.3488 322.3305 1158.7947 317.9464 1157.0936 316.0847 1153.4301 312.0721 1158.5807 311.9487 1158.5178 310.787 1158.3528 309.9584 1158.487 307.1247 1160.0628 303.7617 1161.1872 302.0809 1162.014 300.3111 1163.4754 299.4065 1164.4522 298.5631 1165.6802 297.2263 1167.0547 295.8971 1168.0427 295.0137 1169.0038 293.2722 1171.5843 290.7513 1174.5657 289.6022 1175.521 289.5691 1175.5426 286.6347 1177.4524 284.592 1177.9623 283.2331 1177.9578 280.4987 1178.3693 275.6146 1178.686 274.584 1178.5327 272.2065 1179.3204 272.1767 1179.3303 266.2612 1181.6798 264.5555 1182.5033 258.92 1186.4708 256.7659 1189.0013 256.0635 1190.3816 255.7785 1191.5791 255.8559 1192.2833 256.2713 1193.3762 256.4398 1194.6316 256.5145 1196.1336 256.3088 1197.4373 254.9707 1200.8182 254.424 1202.675 253.4196 1208.3095 252.8099 1210.7107 250.9348 1215.9054 250.3296 1217.2556 249.6163 1218.5165 248.1848 1220.0445 247.9825 1220.2603 244.7493 1222.8103 242.4925 1223.7624 239.7604 1224.3907 237.7962 1224.2695 235.7867 1223.5779 235.2822 1223.0919 234.4434 1221.3651 233.4296 1216.7377 233.4288 1216.7341 232.3744 1213.9886 229.6216 1208.9871 228.3294 1207.2903 227.5013 1206.58 226.8874 1206.2498 225.4432 1205.8968 223.2015 1206.1644 217.8302 1205.3687 215.3698 1204.5969 213.3106 1203.6821 205.0492 1198.0103 203.2049 1196.2958 201.8264 1194.4993 202.142 1180.3463 208.7893 1171.9751 210.8209 1173.2515 212.5339 1166.0597 219.7186 1161.2873 223.1602 1154.1629 230.3318 1150.3028 230.2476 1141.0889 235.2611 1140.8444 237.1066 1144.1385 245.9747 1142.3934 243.7445 1140.2444 245.5235 1133.0389 249.3019 1128.1183 250.0421 1121.4104 263.1635 1121.5201 263.3094 1120.3799 263.498 1095.3358 Z" id="fips-18147"/>
</g>
</svg>