<?xml version="1.0"?>
<svg xmlns="http://www.w3.org/2000/svg" version="1.2" baseProfile="tiny" width="800" height="493" viewBox="0 0 800 493" stroke-linecap="round" stroke-linejoin="round">
<g id="cb_2018_us_county_5m">
<path d="M 38.3586 109.7592 59.1726 39.5003 86.0911 40.7697 112.357 41.971 111.9951 53.4843 128.4992 53.3536 127.196 57.4711 118.0231 62.3946 122.3216 66.2068 126.9585 64.804 127.6704 72.2425 121.8544 97.6025 120.9782 101.9081 123.2765 102.429 112.904 150.2892 100.9899 147.2478 100.338 149.7502 101.2948 165.2808 108.5991 171.5219 115.094 170.4064 114.3946 188.8709 113.7778 189.1381 106.4816 220.8927 98.4686 219.3903 100.3609 228.7266 97.7305 235.5561 101.6269 246.5993 101.8328 251.9184 85.3877 250.98 62.6041 249.6563 62.3247 249.6302 61.9019 249.6032 48.5402 248.7461 48.2462 248.7267 17.4968 246.9716 5.372 246.9761 3.2456 246.9151 1 235.8989 8.7719 209.7844 30.9565 134.8757 38.3586 109.7592 Z" id="fips-25003"/>
<path d="M 112.357 41.971 112.3816 41.9721 132.7497 42.918 143.1867 43.3941 159.388 44.1217 163.3538 44.3325 186.4206 45.5422 223.6897 47.4365 236.4894 48.0699 238.1002 48.1545 246.7145 48.6046 265.578 49.5765 274.4501 50.027 275.0928 50.0546 277.4158 64.1997 286.7247 67.8037 287.6649 74.9212 286.9831 81.8273 281.0205 83.0491 278.2747 86.2603 279.4705 93.7288 276.1432 93.2634 277.6375 106.4448 282.936 112.4805 272.5892 122.5473 274.2228 134.0465 267.4537 144.336 267.9078 154.6491 267.1201 163.1944 259.0026 174.9553 257.7664 175.1726 258.9135 165.6125 258.001 164.006 257.8425 156.3355 253.9054 139.952 229.8261 143.6833 228.5487 135.7778 216.5169 137.6302 208.3305 138.8963 207.1396 138.775 188.8192 142.493 181.0044 143.6302 181.9843 129.4504 169.3816 131.3759 166.0347 125.0638 144.5083 119.5562 143.5265 102.414 121.8544 97.6025 127.6704 72.2425 126.9585 64.804 122.3216 66.2068 118.0231 62.3946 127.196 57.4711 128.4992 53.3536 111.9951 53.4843 112.357 41.971 Z" id="fips-25011"/>
<path d="M 599.071 488.288 601.1472 487.6591 602.3329 486.691 603.5745 487.5092 604.691 488.5982 604.1097 491.2847 602.311 491.314 600.2662 490.849 597.7609 488.6672 599.071 488.288 Z M 597.2149 460.2038 602.0429 459.4594 604.7505 460.0204 608.5876 461.7779 610.4548 461.3588 611.8105 460.128 620.616 446.7253 621.7047 446.3518 624.3599 443.3595 624.5531 441.3774 626.7834 436.7237 630.0107 433.5751 638.3862 427.5822 648.5974 421.0927 649.7482 421.4501 650.2625 424.2149 655.0843 425.2562 656.7571 424.3546 657.6787 424.9681 659.9764 429.7882 660.0824 432.6516 659.5289 436.4062 660.1111 438.4761 661.3795 440.8952 663.4828 442.8462 665.6804 444.0623 668.1558 444.433 670.5495 445.4623 671.614 447.9178 671.8762 449.8963 672.4073 450.2054 674.253 450.3951 675.6496 449.5829 678.2788 445.7055 678.1481 442.8222 678.6384 441.5826 680.1787 439.6856 683.1836 439.1825 684.214 446.4272 683.5898 451.2459 683.9122 459.2626 683.2974 460.9149 673.166 461.5475 663.6826 460.9047 649.9944 460.9583 625.1264 463.4632 619.8715 465.1573 616.6736 467.065 612.9569 470.4661 612.1126 472.4945 612.5361 473.3888 611.9819 474.9693 610.4182 475.7973 604.4411 471.8844 600.5109 468.0195 596.11 462.0628 597.2149 460.2038 Z M 628.0002 408.3359 628.7924 410.6648 629.4707 410.9739 631.0289 410.7312 632.538 410.1671 633.085 411.2437 633.7054 411.9673 632.3927 412.1944 625.7506 417.034 619.2425 420.1912 614.1528 425.1543 614.3177 426.3333 613.3466 427.8486 606.7798 432.28 600.6717 432.5619 596.5505 433.6979 591.7211 438.5607 589.6128 439.5915 581.5692 440.043 575.8656 441.6632 573.8324 442.9237 571.3319 443.6662 570.7397 442.8958 570.9991 441.8318 575.8427 437.0245 576.8472 437.1824 581.9355 436.0284 586.58 434.9424 592.1787 431.6292 598.1613 429.3201 604.0694 427.9504 607.2728 423.8064 610.0717 422.9276 614.829 418.4558 616.7929 415.8293 628.0002 408.3359 Z" id="fips-25007"/>
<path d="M 515.8818 182.1256 518.6441 178.6595 521.7215 175.8811 524.5142 178.6318 527.1672 176.3639 530.0175 171.4204 531.7042 170.1734 532.8025 168.4827 533.6211 166.3177 533.6614 164.8737 534.4704 162.4184 532.9419 161.7685 531.2741 161.5076 529.6231 162.1486 525.7758 165.4383 523.3891 167.9171 521.0536 167.012 520.5014 163.775 519.4214 161.9559 521.0101 159.033 525.5365 158.5117 526.3079 157.5118 529.1015 154.8604 531.8868 156.4293 532.2296 157.7371 532.2816 158.633 535.3202 161.2383 537.3127 160.867 541.0004 159.2433 541.368 158.4838 542.4684 156.5801 543.9244 156.2577 542.008 155.0026 540.167 152.2682 541.8021 149.4386 545.8366 150.8264 549.0017 146.4202 550.6865 142.679 551.766 139.6783 553.4788 135.4601 552.2612 133.5316 555.8412 134.6089 555.5946 136.5173 561.9116 137.4953 564.9169 133.5523 566.6749 133.724 566.6381 134.4777 561.7698 139.6833 560.7433 141.8765 560.1186 144.7558 560.4313 146.0816 560.4362 146.1022 561.3502 146.2637 561.7238 147.9978 562.416 149.4117 564.1071 149.8644 564.6662 150.4399 564.3261 150.7311 564.1587 151.34 564.122 152.3238 564.237 153.6543 568.479 161.9028 568.5496 163.6176 566.2067 162.7672 563.6842 160.0912 562.5696 159.9364 562.049 160.0779 558.5186 161.0369 556.6189 162.7702 556.2284 164.0576 554.9495 168.2725 554.7048 169.0788 555.0769 171.132 558.6651 170.4987 560.0219 172.9193 555.9775 175.312 551.9164 174.2534 549.9925 174.9231 549.0001 175.799 549.8498 181.4254 548.7786 183.7668 546.45 183.659 544.4916 186.7678 542.0315 185.8338 537.4974 186.8084 537.4517 186.808 534.2532 188.6268 533.2355 189.3585 534.0619 192.5604 529.3358 198.5922 524.949 189.7615 523.7146 190.0584 519.4767 184.2265 516.5469 182.9164 515.8818 182.1256 Z" id="fips-25025"/>
<path d="M 501.3105 46.2776 503.431 44.4954 503.4387 44.4889 506.0985 43.6123 508.1875 43.2464 511.6236 44.2465 511.6401 44.2525 511.66 44.2587 517.4604 45.9413 516.4568 30.0368 517.2939 28.9662 519.0172 26.762 520.4833 25.0189 520.7969 24.7523 520.9434 24.6277 524.43 22.5769 528.2026 20.7939 531.8882 21.8875 543.2347 25.2488 545.5231 17.2083 545.5309 17.1889 546.846 13.906 547.5196 12.4944 550.4022 9.3934 556.2286 8.1435 557.3612 7.9003 564.5929 6.3458 568.3781 4.1952 572.2042 1.7439 572.401 1.6228 573.0954 1.3974 575.8872 1.0004 575.8901 1.0079 575.9693 1.0077 578.5503 1 582.2096 2.1489 590.4936 8.581 592.9545 7.3469 594.3904 6.1608 596.3652 5.2581 597.3463 5.1276 597.3026 11.6222 598.9973 23.5991 600.2178 32.2158 602.5302 40.7729 603.0198 42.5833 607.6436 53.3469 608.0588 55.2129 606.2917 57.1164 606.2778 58.584 609.436 60.9459 612.8913 61.4471 613.8485 61.9739 617.099 65.6873 617.3292 67.4005 617.9027 67.6035 626.0482 70.4841 627.5448 70.1087 627.7427 67.7648 631.6735 63.1548 635.7009 59.574 638.9992 58.5596 641.2257 59.9431 640.6388 63.5492 640.4616 66.6996 640.7013 68.0778 642.4673 69.0254 646.7209 68.1766 646.7236 68.188 647.5278 71.494 647.5807 71.7114 647.6684 74.3132 647.1228 75.7544 644.5674 75.8205 641.7637 77.7243 638.0551 86.2699 633.8982 91.7068 631.6624 92.2672 630.9671 91.8856 630.936 90.7986 630.8413 89.5166 630.4028 88.74 629.9247 88.1313 629.2258 88.0262 628.5491 88.1166 627.9772 88.4863 627.3116 89.7854 624.24 93.2492 620.3908 94.2753 617.392 95.074 615.7549 93.4847 611.3067 95.4433 603.2971 97.5735 601.001 98.1834 598.5252 100.4203 596.7882 101.2428 591.2293 101.6749 586.1857 102.8479 585.978 103.8837 586.1787 104.7642 587.3354 109.8389 587.3644 109.9662 588.8107 110.6075 589.3882 110.2883 592.7123 110.8617 595.1782 115.6064 594.1262 119.5394 592.8957 120.4176 591.6055 119.2589 589.3107 119.6355 584.4972 123.1161 583.0128 125.703 582.6882 126.6343 582.8475 127.2924 581.3089 128.5016 578.2465 126.725 576.1225 126.4098 575.1748 126.8056 573.9929 128.4542 573.9222 128.5529 573.9792 131.2195 574.09 136.3973 577.1992 138.4766 578.2657 139.2184 579.6912 140.6767 578.8814 141.9107 572.0873 141.3867 570.5257 135.9585 570.4251 131.2121 568.6037 131.0649 566.7097 133.011 566.6749 133.724 564.9169 133.5523 561.9116 137.4953 555.5946 136.5173 555.8412 134.6089 552.2612 133.5316 546.127 124.2113 546.274 121.175 548.2065 116.6284 549.9528 115.4228 549.2448 109.6172 541.2324 107.7245 542.1167 100.2738 545.13 94.8443 549.9321 95.9285 551.503 94.7747 544.7307 84.3255 540.901 85.8248 527.8328 87.3875 525.509 84.635 523.159 82.6544 521.3241 87.7232 517.5528 84.6366 519.7298 82.1359 501.1586 70.0939 504.1722 68.5272 505.1324 66.3838 501.3105 46.2776 Z" id="fips-25009"/>
<path d="M 275.0928 50.0546 292.5769 50.7982 309.9701 51.5217 312.9336 51.6659 319.4668 51.9822 320.0701 52.0113 341.4659 53.0304 352.9953 53.4096 353.0412 53.4111 359.6531 53.6873 360.009 55.994 368.6342 64.6454 368.4205 76.9781 371.4322 75.7415 386.3876 76.1843 386.6657 73.9278 411.1418 83.7704 407.9193 108.0815 417.4318 110.0194 416.6986 107.941 420.965 101.4931 423.6271 103.6307 426.8631 104.0981 429.7132 102.1141 438.8732 104.3497 440.2748 110.1903 440.8431 111.2982 434.0909 124.923 437.8401 127.292 436.6186 133.0268 434.3555 143.6206 424.3622 147.8762 429.6912 151.0899 424.6124 156.9953 423.0715 159.9485 419.8148 162.0223 421.2376 164.3842 424.3701 166.1138 428.5552 173.865 436.1009 169.2526 444.9365 168.5349 446.2315 168.7083 450.3501 168.1208 450.5384 173.8016 448.0789 180.2128 445.987 187.8684 442.5061 187.2148 437.5304 187.8049 436.3119 187.3406 434.446 186.8011 430.1353 188.4075 427.4957 191.7539 425.3873 199.3332 424.7401 201.6866 429.0176 208.4456 435.0458 212.3629 438.6526 210.1988 446.8377 209.6979 448.002 217.1202 452.2792 220.0746 452.1907 227.6858 447.1063 232.2105 447.4866 236.0413 448.4508 237.1433 447.797 247.6098 447.802 257.5831 447.802 261.8883 447.4354 261.895 447.2128 261.9249 446.9567 261.951 441.3359 262.5224 441.2691 262.5524 440.9327 262.5615 434.183 262.7444 430.2943 262.8139 428.078 262.8802 423.6547 263.0117 415.0618 263.2642 407.1493 263.4932 388.1957 264.0284 380.796 264.5064 380.4994 259.8602 361.9613 259.5623 360.4408 259.5371 344.3663 258.8916 338.9579 258.6714 322.0074 258.4251 313.9479 257.9334 313.4043 257.9001 305.9483 257.442 305.9421 257.4419 306.3963 218.0343 304.8678 218.2576 291.824 218.0674 277.8289 211.191 278.1309 205.59 287.467 192.8732 289.7308 191.0917 288.547 188.5691 288.2848 185.4113 289.401 185.5331 289.5968 181.6856 291.5602 179.1464 288.5838 178.2602 289.9463 173.0811 282.4555 174.6184 275.7763 175.7776 272.7941 160.7507 267.8837 163.3728 267.1201 163.1944 267.9078 154.6491 267.4537 144.336 274.2228 134.0465 272.5892 122.5473 282.936 112.4805 277.6375 106.4448 276.1432 93.2634 279.4705 93.7288 278.2747 86.2603 281.0205 83.0491 286.9831 81.8273 287.6649 74.9212 286.7247 67.8037 277.4158 64.1997 275.0928 50.0546 Z" id="fips-25027"/>
<path d="M 115.094 170.4064 125.5199 161.2443 138.3854 162.4069 140.6601 164.8675 141.3455 185.0248 134.1878 192.7723 142.9745 199.7169 143.8324 197.5679 146.3168 192.567 156.1417 191.3663 160.5408 193.8761 163.1168 205.0335 183.946 210.2389 183.2735 201.3324 188.3576 197.6958 190.8588 197.0461 195.9137 183.2703 200.7161 179.642 201.4189 179.9632 203.793 185.1281 198.1675 195.971 204.8096 202.0762 209.5119 201.4673 215.2562 200.7348 220.1598 200.1222 237.3087 197.7695 246.9003 196.4985 248.6321 210.3326 256.9395 209.1968 255.5375 203.9558 261.9442 200.1556 262.4102 199.9924 271.8288 196.637 279.3538 197.4094 281.7379 193.7694 287.467 192.8732 278.1309 205.59 277.8289 211.191 291.824 218.0674 304.8678 218.2576 306.3963 218.0343 305.9421 257.4419 290.5082 257.0667 280.6202 256.8197 275.9178 256.7509 265.5731 256.5956 254.4844 256.2609 247.7123 256.0534 234.5325 255.6425 222.8467 255.4413 218.6359 255.367 213.1257 255.9816 208.5856 256.4867 206.5398 258.0925 204.7816 258.0699 201.0666 257.9317 201.062 257.8916 200.8668 256.1912 200.8539 256.1903 193.0411 255.6077 181.3136 254.1292 167.9826 254.1138 167.5915 254.977 168.4761 255.3497 168.8682 255.9248 168.3352 257.3552 167.5525 258.6764 167.3999 258.6987 166.8686 258.3968 166.5128 258.4871 166.4696 259.0114 166.6752 259.4915 167.0295 259.8528 166.6851 260.5668 166.2319 261.0994 166.2123 262.0139 165.5635 262.6175 165.409 264.0235 163.6199 264.2562 154.2543 265.4714 155.1469 253.8295 147.6738 253.5922 144.0122 253.2894 144.0079 253.2893 143.9869 253.2887 118.3546 252.619 113.7797 252.4958 111.731 252.3973 101.8404 251.9188 101.8328 251.9184 101.6269 246.5993 97.7305 235.5561 100.3609 228.7266 98.4686 219.3903 106.4816 220.8927 113.7778 189.1381 114.3946 188.8709 115.094 170.4064 Z" id="fips-25013"/>
<path d="M 540.6822 238.2057 544.945 235.8912 552.8625 231.6256 553.6768 231.1862 558.0704 228.8363 560.0437 227.5219 562.667 226.1115 569.8205 222.2789 575.1519 219.4208 577.2658 199.1723 576.366 198.8233 575.6359 199.1278 575.5614 197.9298 574.7923 195.6878 573.5576 193.4491 573.6099 192.6033 579.9857 186.4549 577.282 180.0913 572.0735 183.5116 568.4751 181.3574 569.6196 179.2914 572.5617 176.1374 576.4947 175.0373 578.6912 174.3624 584.182 174.0332 584.5368 176.4867 586.867 180.9626 588.8978 183.855 591.2901 186.1427 595.73 186.3625 597.1555 186.7977 592.7414 188.482 590.8472 194.7339 596.7852 206.3201 605.1268 199.6368 606.0311 198.9085 606.932 190.9563 609.1025 191.7157 610.492 193.2425 612.8092 197.8335 614.4372 199.8739 614.8756 200.2535 618.1645 203.0998 620.0122 203.9765 620.8652 210.8918 621.887 215.6974 623.6871 217.3726 628.424 226.3508 629.7428 228.362 633.2462 233.7021 638.5859 239.5531 638.9824 241.6627 637.026 243.2545 636.9569 244.2525 636.8622 245.6201 638.0224 250.888 637.7859 252.3663 636.3306 252.2752 632.2443 255.0507 631.861 258.9129 631.7762 259.767 632.7268 262.4755 631.9781 263.8411 630.234 264.5397 628.4328 262.3833 626.4254 262.2277 622.7918 263.9869 623.0672 265.2982 623.2968 266.3919 625.792 270.0965 631.4763 275.5463 633.9974 277.9619 636.4095 278.505 637.1377 277.6077 640.9836 280.9242 642.7294 283.0645 644.3035 283.968 646.157 283.8 648.3829 281.6583 651.6079 280.9546 658.4991 286.9824 660.0025 290.828 659.79 292.2736 660.1315 293.7008 663.2814 298.9361 664.8385 308.1584 662.6896 313.9799 661.2484 316.4283 661.0247 318.4733 661.5307 321.0719 662.3821 322.5291 656.1917 329.8449 652.6706 331.394 641.254 337.1212 642.7709 339.4144 643.9305 341.7004 639.0703 350.4742 638.6825 350.3071 637.2493 351.2995 636.0196 351.4056 632.9024 349.485 624.4391 346.8537 622.0685 345.4428 620.3792 346.3595 619.9748 348.3859 619.8221 349.1503 621.5564 352.2702 622.4686 357.951 622.0175 360.6449 619.8122 359.7245 616.4333 357.1097 613.9904 357.9221 612.6626 363.182 612.6594 363.2321 612.4888 365.9018 613.4368 367.8442 613.5834 369.9282 611.8602 373.7449 610.9982 373.881 610.0178 372.7244 609.5276 371.4965 609.3197 371.0156 602.0514 369.3728 601.1203 369.61 600.5802 370.4754 600.4568 372.514 603.0847 373.9425 604.1033 376.7518 603.9188 377.4244 601.866 378.831 596.2644 378.977 594.4907 377.8056 593.992 372.9623 591.0082 362.0484 589.4474 356.3683 584.5264 338.4069 579.8837 337.4472 576.5667 329.1701 553.243 333.0129 553.8981 324.8337 550.8864 321.7493 564.8407 308.3813 561.7409 294.9386 560.4252 294.7555 560.6967 294.4357 560.8669 293.9475 560.9023 293.6699 560.671 292.0105 559.6627 289.5668 558.9092 287.8055 547.7774 277.8523 546.7007 271.9788 546.5783 271.2781 543.1701 251.9262 542.8038 249.9042 540.6822 238.2057 Z" id="fips-25023"/>
<path d="M 121.8544 97.6025 143.5265 102.414 144.5083 119.5562 166.0347 125.0638 169.3816 131.3759 181.9843 129.4504 181.0044 143.6302 188.8192 142.493 207.1396 138.775 208.3305 138.8963 216.5169 137.6302 228.5487 135.7778 229.8261 143.6833 253.9054 139.952 257.8425 156.3355 258.001 164.006 258.9135 165.6125 257.7664 175.1726 259.0026 174.9553 267.1201 163.1944 267.8837 163.3728 272.7941 160.7507 275.7763 175.7776 282.4555 174.6184 289.9463 173.0811 288.5838 178.2602 291.5602 179.1464 289.5968 181.6856 289.401 185.5331 288.2848 185.4113 288.547 188.5691 289.7308 191.0917 287.467 192.8732 281.7379 193.7694 279.3538 197.4094 271.8288 196.637 262.4102 199.9924 261.9442 200.1556 255.5375 203.9558 256.9395 209.1968 248.6321 210.3326 246.9003 196.4985 237.3087 197.7695 220.1598 200.1222 215.2562 200.7348 209.5119 201.4673 204.8096 202.0762 198.1675 195.971 203.793 185.1281 201.4189 179.9632 200.7161 179.642 195.9137 183.2703 190.8588 197.0461 188.3576 197.6958 183.2735 201.3324 183.946 210.2389 163.1168 205.0335 160.5408 193.8761 156.1417 191.3663 146.3168 192.567 143.8324 197.5679 142.9745 199.7169 134.1878 192.7723 141.3455 185.0248 140.6601 164.8675 138.3854 162.4069 125.5199 161.2443 115.094 170.4064 108.5991 171.5219 101.2948 165.2808 100.338 149.7502 100.9899 147.2478 112.904 150.2892 123.2765 102.429 120.9782 101.9081 121.8544 97.6025 Z" id="fips-25015"/>
<path d="M 597.1555 186.7977 600.0268 187.6738 605.1524 190.3335 606.932 190.9563 606.0311 198.9085 605.1268 199.6368 596.7852 206.3201 590.8472 194.7339 592.7414 188.482 597.1555 186.7977 Z M 523.3891 167.9171 525.7758 165.4383 529.6231 162.1486 531.2741 161.5076 532.9419 161.7685 534.4704 162.4184 533.6614 164.8737 533.6211 166.3177 532.8025 168.4827 531.7042 170.1734 530.0175 171.4204 527.1672 176.3639 524.5142 178.6318 521.7215 175.8811 518.5563 172.7512 520.6993 170.4429 523.3891 167.9171 Z M 452.2792 220.0746 455.4245 219.6374 459.8393 214.6471 462.9232 213.2978 469.1131 213.4699 468.6369 210.5824 473.0004 209.5047 478.0551 208.3752 482.0071 206.8882 480.621 203.0498 483.2723 202.533 482.2367 200.8846 485.1778 197.1558 484.5714 192.391 491.1308 192.6178 489.8883 185.8988 486.5024 177.9044 485.8925 175.8122 485.6809 173.0131 498.3798 168.6883 502.1797 169.0904 502.9837 170.0085 507.6253 171.4306 507.7864 172.4626 507.9124 174.5322 512.1604 177.9144 512.7533 180.1862 515.8818 182.1256 516.5469 182.9164 519.4767 184.2265 523.7146 190.0584 524.949 189.7615 529.3358 198.5922 534.0619 192.5604 533.2355 189.3585 534.2532 188.6268 537.4517 186.808 537.4974 186.8084 542.0315 185.8338 544.4916 186.7678 546.45 183.659 548.7786 183.7668 549.8498 181.4254 549.0001 175.799 549.9925 174.9231 551.9164 174.2534 555.9775 175.312 560.0219 172.9193 561.1662 174.9603 557.4418 178.2743 556.8784 180.4246 557.0368 181.3117 557.1664 182.0378 559.1376 185.4715 560.6976 186.5928 565.516 186.3485 567.979 185.5465 567.6927 182.7694 568.4751 181.3574 572.0735 183.5116 577.282 180.0913 579.9857 186.4549 573.6099 192.6033 573.5576 193.4491 574.7923 195.6878 575.5614 197.9298 575.6359 199.1278 576.366 198.8233 577.2658 199.1723 575.1519 219.4208 569.8205 222.2789 562.667 226.1115 560.0437 227.5219 558.0704 228.8363 553.6768 231.1862 552.8625 231.6256 544.945 235.8912 540.6822 238.2057 533.5004 242.0366 527.7858 245.072 521.1133 248.5893 518.9429 249.7356 515.7962 251.4057 511.5874 253.6361 494.5465 262.662 477.6241 271.4336 473.8111 271.5013 473.8128 261.4005 464.2516 261.584 456.74 261.7247 447.802 261.8883 447.802 257.5831 447.797 247.6098 448.4508 237.1433 447.4866 236.0413 447.1063 232.2105 452.1907 227.6858 452.2792 220.0746 Z" id="fips-25021"/>
<path d="M 359.6531 53.6873 380.2071 54.5308 387.4344 54.8221 393.3207 55.0573 414.0019 55.724 417.4495 55.8329 418.4182 55.8645 418.6805 55.8734 438.0402 56.5197 448.3904 56.8571 454.5836 57.0562 456.7558 57.1255 458.6304 57.1852 462.334 57.3025 472.3332 57.6155 476.1246 57.7328 480.0554 57.8536 484.8271 58.1341 492.7545 58.1776 496.1075 53.895 498.5229 49.5052 501.2213 46.3526 501.3105 46.2776 505.1324 66.3838 504.1722 68.5272 501.1586 70.0939 519.7298 82.1359 517.5528 84.6366 521.3241 87.7232 523.159 82.6544 525.509 84.635 527.8328 87.3875 540.901 85.8248 544.7307 84.3255 551.503 94.7747 549.9321 95.9285 545.13 94.8443 542.1167 100.2738 541.2324 107.7245 549.2448 109.6172 549.9528 115.4228 548.2065 116.6284 546.274 121.175 546.127 124.2113 552.2612 133.5316 553.4788 135.4601 551.766 139.6783 550.6865 142.679 549.0017 146.4202 545.8366 150.8264 541.8021 149.4386 540.167 152.2682 542.008 155.0026 543.9244 156.2577 542.4684 156.5801 541.368 158.4838 541.0004 159.2433 537.3127 160.867 535.3202 161.2383 532.2816 158.633 532.2296 157.7371 531.8868 156.4293 529.1015 154.8604 526.3079 157.5118 525.5365 158.5117 521.0101 159.033 519.4214 161.9559 520.5014 163.775 521.0536 167.012 523.3891 167.9171 520.6993 170.4429 518.5563 172.7512 521.7215 175.8811 518.6441 178.6595 515.8818 182.1256 512.7533 180.1862 512.1604 177.9144 507.9124 174.5322 507.7864 172.4626 507.6253 171.4306 502.9837 170.0085 502.1797 169.0904 498.3798 168.6883 485.6809 173.0131 485.8925 175.8122 486.5024 177.9044 489.8883 185.8988 491.1308 192.6178 484.5714 192.391 485.1778 197.1558 482.2367 200.8846 483.2723 202.533 480.621 203.0498 482.0071 206.8882 478.0551 208.3752 473.0004 209.5047 468.6369 210.5824 469.1131 213.4699 462.9232 213.2978 459.8393 214.6471 455.4245 219.6374 452.2792 220.0746 448.002 217.1202 446.8377 209.6979 438.6526 210.1988 435.0458 212.3629 429.0176 208.4456 424.7401 201.6866 425.3873 199.3332 427.4957 191.7539 430.1353 188.4075 434.446 186.8011 436.3119 187.3406 437.5304 187.8049 442.5061 187.2148 445.987 187.8684 448.0789 180.2128 450.5384 173.8016 450.3501 168.1208 446.2315 168.7083 444.9365 168.5349 436.1009 169.2526 428.5552 173.865 424.3701 166.1138 421.2376 164.3842 419.8148 162.0223 423.0715 159.9485 424.6124 156.9953 429.6912 151.0899 424.3622 147.8762 434.3555 143.6206 436.6186 133.0268 437.8401 127.292 434.0909 124.923 440.8431 111.2982 440.2748 110.1903 438.8732 104.3497 429.7132 102.1141 426.8631 104.0981 423.6271 103.6307 420.965 101.4931 416.6986 107.941 417.4318 110.0194 407.9193 108.0815 411.1418 83.7704 386.6657 73.9278 386.3876 76.1843 371.4322 75.7415 368.4205 76.9781 368.6342 64.6454 360.009 55.994 359.6531 53.6873 Z" id="fips-25017"/>
<path d="M 722.9339 471.6859 726.2866 471.7494 728.8608 473.0511 729.9605 473.7601 730.9577 476.0882 730.9884 476.1076 733.3686 477.6146 738.0614 477.5447 738.8517 477.153 740.8292 476.1724 757.0007 476.1486 761.7123 475.3157 764.1712 474.8805 764.2548 474.8657 766.5142 474.4235 770.8562 471.4652 774.4989 467.5314 777.729 462.179 777.8157 461.0258 778.1934 456.0027 777.6791 453.7542 776.7028 452.3602 775.9407 451.1034 774.3028 448.9742 773.8405 448.3311 773.3874 447.7007 773.4817 446.5792 773.4833 446.5599 777.0045 448.2637 780.4778 453.3535 790.4158 472.9429 794.0272 480.051 794.1236 484.2993 793.2213 487.3045 792.939 487.9399 790.877 489.4969 784.9314 492.01 781.8667 492.4794 773.3789 491.2097 766.5169 490.8101 763.4423 491.9242 759.1342 491.5982 758.5474 491.5537 746.7717 487.6856 731.6826 479.8706 727.3854 478.3156 724.9702 476.4538 723.4322 474.3561 723.128 472.7262 722.9339 471.6859 Z" id="fips-25019"/>
<path d="M 628.0002 408.3359 636.0548 402.9427 637.0128 400.9737 636.7525 398.7076 637.059 396.409 638.1926 394.9867 639.5372 394.2199 639.926 392.736 639.6644 391.0186 637.2676 384.4077 637.3569 382.9166 639.9983 378.5665 638.7969 375.9027 637.1358 374.6361 637.6087 372.722 640.2179 371.1307 640.4406 369.5867 640.1224 368.4597 638.4287 362.458 637.7552 361.7126 635.0255 361.4957 638.461 357.8553 643.037 356.3423 643.4107 353.7298 642.7504 352.0596 639.0703 350.4742 643.9305 341.7004 642.7709 339.4144 641.254 337.1212 652.6706 331.394 656.1917 329.8449 662.3821 322.5291 663.4369 324.3339 666.888 328.4426 672.1653 333.4963 677.2347 337.1278 690.4995 342.1083 697.0213 343.3442 698.821 343.6848 717.701 344.7674 721.257 347.1648 721.6095 347.914 721.9288 348.5926 723.8902 350.7311 724.8857 350.765 730.245 344.7606 734.4012 341.9281 740.3543 339.1413 741.9632 339.4455 750.9799 336.5524 755.3549 336.8517 761.1081 334.449 768.1691 332.4459 775.0519 328.9143 776.9361 327.9469 780.5007 323.8635 781.4922 321.5288 781.1915 312.453 779.9861 301.1475 781.9005 298.0239 781.2734 297.0229 779.2081 296.657 776.4556 294.5577 776.1182 290.7043 774.9184 285.4945 771.6922 285.2812 769.5957 286.1205 769.6861 288.0419 768.1546 291.3753 767.7356 296.6136 766.5649 298.8888 764.6516 293.796 765.1852 282.813 764.1931 268.7919 762.6479 260.8636 761.2935 257.0339 759.916 254.6784 757.0908 251.4974 753.7195 249.1345 748.0551 246.1434 746.4695 246.0307 743.2872 246.8811 741.3706 247.9043 739.5412 249.7211 737.8918 253.0363 737.7181 254.6291 738.2532 256.5948 739.7901 258.4495 739.7046 258.8715 738.7859 258.8484 737.4713 258.1489 734.9145 255.7001 732.4699 251.2067 729.1801 247.6999 727.9184 246.8899 726.8805 246.8781 726.4564 245.9363 728.0392 243.1729 730.7845 241.4176 734.9331 240.3672 738.8424 240.1771 745.3374 241.1884 755.2162 244.3251 762.6942 248.093 768.1239 252.2859 773.8069 258.97 778.7588 267.2799 784.716 279.1987 788.8126 290.4821 794.3605 310.3027 796.6432 320.9888 798.6435 341.38 799 356.2211 796.6077 362.5576 794.9233 370.1706 794.1489 371.5614 792.7791 377.7093 790.7151 380.2656 787.0815 389.6692 786.3058 397.4986 785.7501 400.8886 783.0655 402.6327 781.2029 400.8157 780.6337 398.6936 781.7167 396.5966 784.3004 392.8963 785.1567 382.9519 786.5617 378.0284 788.3129 374.6661 789.1959 369.8031 788.586 367.7838 783.8973 363.8374 781.4914 362.5625 779.8786 362.4729 776.514 363.7974 770.6717 364.7657 763.1377 365.4991 756.7887 367.6525 751.6409 369.3967 747.6696 369.4545 740.4325 371.1178 730.5574 375.337 728.2376 376.3272 725.9552 378.6917 726.1456 379.6348 725.2378 381.6488 723.9402 382.1259 723.4491 381.6598 722.9497 379.6107 723.0407 377.2222 721.8031 375.0871 720.2719 374.4503 718.1896 374.4584 715.9669 376.1931 713.505 376.857 711.2756 375.9588 709.3928 374.7651 707.5627 374.2625 704.5319 374.7978 702.5943 375.9076 701.5948 377.2235 701.6399 378.1368 700.5259 380.4834 698.4613 381.8667 693.6806 383.4201 691.8954 383.1543 685.472 383.8386 683.7195 387.9091 682.6013 389.8312 680.2087 393.9425 676.8988 397.9723 674.8257 399.2726 673.1132 399.9518 666.6037 400.9492 665.3804 400.9908 664.5163 401.0201 664.3266 401.0266 658.4821 401.224 658.2759 401.2309 658.2295 401.2325 651.71 402.2091 646.7238 402.9545 641.6871 404.4243 639.4576 406.2133 637.1467 410.2304 634.9736 411.7478 633.7054 411.9673 633.085 411.2437 632.538 410.1671 631.0289 410.7312 629.4707 410.9739 628.7924 410.6648 628.0002 408.3359 Z" id="fips-25001"/>
<path d="M 597.0338 384.3723 598.9135 386.7351 599.5699 389.9944 599.402 391.1468 599.3588 391.4437 597.5206 390.6958 595.6211 387.3923 597.0338 384.3723 Z M 473.8111 271.5013 477.6241 271.4336 494.5465 262.662 511.5874 253.6361 515.7962 251.4057 518.9429 249.7356 521.1133 248.5893 527.7858 245.072 533.5004 242.0366 540.6822 238.2057 542.8038 249.9042 543.1701 251.9262 546.5783 271.2781 546.7007 271.9788 547.7774 277.8523 558.9092 287.8055 559.6627 289.5668 560.671 292.0105 560.9023 293.6699 560.8669 293.9475 560.6967 294.4357 560.4252 294.7555 561.7409 294.9386 564.8407 308.3813 550.8864 321.7493 553.8981 324.8337 553.243 333.0129 576.5667 329.1701 579.8837 337.4472 584.5264 338.4069 589.4474 356.3683 591.0082 362.0484 593.992 372.9623 594.4907 377.8056 594.2682 377.6586 592.4023 378.291 591.8163 379.1265 594.551 387.369 592.9998 388.2903 592.3548 390.155 592.293 391.6912 591.0545 389.4953 589.2175 386.2372 588.7705 382.0938 588.7593 381.9895 588.8638 379.5919 588.5744 378.712 587.8887 378.0554 584.1733 376.5575 582.9919 379.2005 580.6398 379.2833 580.4852 379.4025 578.8281 380.6803 580.7902 383.3349 581.8419 388.3781 581.5302 388.6798 579.4106 387.7949 578.0947 384.2155 577.3057 383.224 575.7149 383.1018 575.1471 383.637 575.1425 383.9189 575.1024 386.3451 575.6989 388.2517 574.8341 391.2127 573.3592 393.2547 572.5432 392.176 571.3502 392.1672 570.9314 392.7843 571.2771 394.3937 573.4157 396.9026 574.873 404.404 572.5768 404.4332 571.2185 407.5334 570.0416 411.9725 568.2077 407.5835 564.1983 407.3894 563.2895 410.3342 563.6773 413.4914 558.8356 412.9677 555.2334 413.9032 554.3022 414.6664 551.6232 416.8617 550.3777 418.1811 546.4735 414.8152 540.356 413.849 532.5395 417.4328 532.0975 410.0324 530.0112 389.0241 529.9406 388.5421 528.6139 385.9582 527.9172 385.1998 527.8423 384.5101 527.6977 381.9129 527.9213 379.5701 528.9863 378.2148 528.9889 378.1758 529.1944 375.0718 529.2402 374.3801 529.2414 374.3609 529.6246 369.1217 529.5741 368.7151 529.1707 368.5969 529.0588 368.5974 526.6651 367.9202 524.8463 367.5359 523.0184 367.1005 519.8953 366.3563 519.8949 366.2365 519.9141 365.3675 518.7268 365.0423 516.5128 364.5139 516.5122 364.5367 515.7941 364.3633 515.5128 364.2783 514.2578 362.2533 508.9551 353.6915 508.7503 353.3611 508.6313 353.1804 500.7373 341.1911 495.5873 338.2952 488.4309 334.2674 488.1161 334.0901 488.0872 334.0733 485.8568 332.7763 485.5205 332.1481 485.5405 330.8897 484.8896 329.2431 484.5087 328.5847 484.0839 328.4956 483.3013 328.0476 482.9876 327.4489 482.9643 326.8797 483.1026 326.3564 483.2971 325.6208 483.296 324.9916 483.3844 324.4522 483.317 324.2426 481.5235 320.0213 482.0345 318.5524 483.2156 317.3519 483.6612 316.8418 484.196 316.3015 482.7185 313.8474 482.6284 313.518 484.339 308.5896 484.4493 308.2717 483.682 305.3688 483.5886 305.0153 482.9218 302.4921 483.2502 298.9565 483.2501 298.8965 483.3814 297.4582 483.367 297.4606 483.1658 297.4938 480.2599 297.9728 479.8541 298.028 479.8139 298.0334 478.0748 298.3057 477.5843 298.3664 477.4282 298.3966 476.1796 298.6081 475.5552 298.6689 474.9307 298.7895 473.8317 299.0226 473.7936 299.0307 473.7934 298.8651 473.7855 292.601 473.7855 292.5541 473.7825 290.1924 473.8047 290.1324 473.8332 277.5789 473.8102 277.0097 473.8111 271.5013 Z" id="fips-25005"/>
</g>
</svg>