<?xml version="1.0"?>
<svg xmlns="http://www.w3.org/2000/svg" version="1.2" baseProfile="tiny" width="800" height="427" viewBox="0 0 800 427" stroke-linecap="round" stroke-linejoin="round">
<g id="cb_2018_us_county_5m">
<path d="M 103.9471 3.2971 125.2877 3.7722 140.3519 4.0907 151.9682 4.3955 160.4802 4.6135 166.5883 4.7672 171.829 4.8038 173.3757 4.9229 186.9356 5.1051 190.948 5.2725 201.3196 5.4605 208.0263 5.5785 213.1446 12.6511 211.7479 16.4245 207.707 16.4423 209.3143 19.5368 204.0865 20.0429 208.1541 21.6831 209.2497 25.5274 206.0587 24.544 205.4695 24.5123 204.9234 24.714 204.6955 25.0749 204.8219 25.6535 205.3766 26.1554 205.7021 26.7802 205.7311 27.2143 205.6524 27.4881 205.3093 27.8203 204.8483 27.9683 204.113 27.8465 203.456 27.4909 203.1511 27.1627 202.2309 26.7917 200.9199 27.0216 200.5619 27.2792 200.3773 27.9984 200.367 28.4075 200.4516 28.6577 201.1173 29.6227 202.2872 30.9927 202.3089 31.2468 202.1334 31.6297 201.8567 31.8315 201.2405 31.9256 200.2805 31.7379 199.0156 30.973 198.1333 30.0409 195.1234 28.824 193.7678 28.1205 192.8172 27.9804 192.0376 28.2563 191.4828 28.8749 191.4143 29.4077 191.517 29.8118 191.771 30.2876 192.798 31.8995 193.6573 32.9372 195.0198 34.0899 196.8096 35.2143 197.7263 36.0095 198.0712 36.6774 198.0833 37.4077 197.694 37.9237 197.0647 38.3137 195.7936 38.6644 193.9098 38.0462 193.665 37.9039 193.1546 37.3384 192.2293 36.7175 189.5905 35.6402 189.0907 35.6148 188.1594 35.8348 187.5587 36.1087 187.0777 36.4645 186.9139 36.9557 186.8408 38.0677 187.5186 39.4932 188.2456 40.3006 190.355 42.0447 192.4096 43.0947 192.9759 43.7614 193.5377 44.8299 193.7465 45.4796 193.6289 45.8362 193.3219 45.974 192.7945 46.0714 192.2789 45.996 191.6749 45.3323 191.0644 45.428 190.8886 45.9271 190.876 46.5726 190.8034 47.11 190.5662 47.6502 190.211 47.7703 189.5799 47.1869 188.993 46.6797 188.6611 46.6732 188.2413 46.9162 188.1527 47.2015 188.2016 47.5255 188.2222 47.8845 187.9394 48.2021 186.47 48.3528 186.1048 48.6327 185.9864 49.0251 186.1193 49.8757 186.1255 50.6429 185.7546 51.8259 184.7127 52.7422 184.259 52.8919 183.7226 52.8496 182.5765 52.198 181.9788 52.0596 181.6836 52.0803 180.955 52.4365 179.3067 52.1453 178.5598 52.1891 176.7201 51.2518 175.3464 50.7048 174.1874 50.7127 170.8367 51.4897 170.2035 51.5451 169.7384 51.3769 168.9598 51.3289 167.3806 51.7777 167.2067 51.7223 167.0249 51.6644 166.1893 51.0758 165.0938 50.0532 163.6524 49.7166 163.6082 49.6802 163.0259 49.2011 162.7706 48.8202 162.6081 48.2189 162.4769 48.0411 162.1699 47.9595 161.8013 48.0518 161.285 48.4147 160.3345 48.1933 160.1593 48.0097 158.8079 47.3998 157.3006 46.9243 156.3137 46.9777 156.2753 47.2837 155.8976 47.45 151.4047 47.9112 151.1512 47.8195 149.9885 47.3986 149.1584 46.5974 147.9327 46.5226 146.7399 45.6923 145.4968 45.2203 145.1432 44.7787 145.07 44.0523 144.9287 43.7739 144.6142 43.4707 142.4057 42.8189 142.1316 42.5959 141.3269 41.3667 141.0715 41.2394 139.3317 40.8865 139.2573 40.8714 139.0391 40.0307 138.0738 38.2103 137.9118 36.2812 137.7795 35.601 136.9725 35.6519 136.6584 35.7983 136.085 36.9285 135.5262 37.1859 133.6933 36.8791 133.0869 36.5266 131.8166 35.2642 131.6802 34.82 131.6622 34.3133 131.3191 33.5166 131.0393 33.1626 130.6605 32.9616 129.9951 32.0129 130.007 31.8437 130.2375 31.4026 131.8196 30.3574 133.1826 30.0927 134.7815 30.1377 135.1594 30.4643 135.1713 30.9355 135.5512 31.1398 136.999 30.246 137.9633 29.2886 138.0085 28.9191 137.572 27.4812 136.3991 26.6729 135.4053 26.3788 133.9306 27.1063 132.7545 28.0216 131.6193 27.872 130.2164 27.3122 130.0505 27.0914 130.06 26.6857 131.1662 23.8246 131.4412 23.484 131.9799 23.2883 132.5034 22.2133 132.5681 21.7292 132.4387 21.1711 130.751 21.7799 127.9173 23.4257 127.2627 23.5795 127.0221 23.6361 125.9364 25.877 126.892 28.9712 126.9791 29.7815 126.8714 30.6523 126.5073 31.1149 126.0473 31.0267 125.8142 30.6559 124.4761 30.3352 123.9351 32.0624 123.9087 32.7147 122.6782 34.3849 121.6288 34.3918 121.4036 34.7112 121.2775 37.367 122.3859 37.635 123.2475 38.7968 123.5128 39.6428 122.9004 41.0228 122.0679 41.2518 121.1876 40.7747 120.5099 40.119 119.0503 39.6346 118.7777 39.8309 116.7571 41.2858 116.7563 42.6457 116.581 43.1494 113.4474 47.5519 113.4307 47.8108 112.3516 49.8096 111.9757 50.1153 111.5701 50.1159 110.346 49.768 109.3981 50.5963 108.6267 52.1537 106.1478 55.6515 104.7043 57.9647 104.4054 58.116 102.8327 57.8124 101.6486 57.9734 100.7182 58.5165 100.0706 59.1353 100.0046 59.4512 100.1834 60.0905 100.5953 60.4713 100.6412 60.7423 100.0642 61.6857 99.2155 62.5479 98.0005 63.0946 97.4921 68.0239 97.2541 68.4836 97.0371 68.536 95.6852 68.8626 95.3404 68.5419 94.8871 67.7157 93.365 66.4396 90.1691 64.9053 87.8603 63.4384 86.6384 62.0357 86.0331 62.0143 84.6628 62.4282 84.2754 62.3388 83.6581 61.7775 83.3537 60.9439 83.3818 60.479 83.1723 59.6754 81.5456 58.0127 80.7844 58.109 80.4362 58.3275 80.1672 58.8342 80.048 59.6334 79.9267 60.4465 79.6297 60.9202 77.5033 60.0547 77.724 58.9207 90.7275 31.3875 103.9471 3.2971 Z" id="fips-24001"/>
<path d="M 504.7553 291.079 508.7334 297.0598 508.3351 299.0435 513.7968 304.0531 516.6647 308.4566 518.6294 308.6909 524.7255 312.713 526.6254 315.2444 530.1328 314.6098 536.0513 320.4421 539.3912 327.3835 538.5926 331.1282 541.6269 331.6549 540.6403 334.0632 540.748 334.2194 542.7571 337.1327 542.9118 337.357 544.9206 338.754 547.6813 338.8763 550.1565 337.0152 552.871 336.1236 553.963 334.5241 557.8518 336.4246 559.0285 337.2788 559.1292 337.9885 555.5688 342.1882 554.7269 344.7886 554.6473 346.5721 557.2329 356.1667 561.4978 362.0952 563.0283 365.3066 567.3759 370.5971 569.1306 374.4849 565.8681 378.7705 565.8004 378.8596 566.012 380.8433 566.0137 380.8591 567.2257 383.5108 567.5199 389.9071 569.3346 396.4534 568.864 398.0301 567.964 396.0448 566.9005 394.9315 565.333 394.0682 563.2677 394.1947 561.7175 392.7297 559.7812 388.107 556.0255 382.725 553.6515 381.7894 553.5416 381.7913 552.2339 381.8143 551.9953 382.0325 551.6187 382.3767 550.7691 382.0138 549.0851 378.9333 549.2345 377.3649 547.3609 374.4179 548.1567 372.6365 547.868 371.1445 547.5217 369.354 543.9324 370.4723 541.9296 371.096 543.5167 375.2412 542.7324 377.0806 541.923 378.9785 541.9237 379.0255 541.9358 379.8408 542.5445 380.797 542.7428 382.0825 541.3003 382.732 540.7616 382.3461 539.8804 379.7669 537.7189 376.6664 536.45 374.8456 536.4354 374.8384 534.8149 374.0339 533.7237 373.9189 532.3434 374.3439 530.9905 375.5733 529.0724 371.2047 528.1674 368.3433 527.8009 365.9625 526.7752 363.2967 524.3477 360.6911 523.3892 359.9053 519.9216 357.0613 512.3071 354.4204 510.2392 354.5547 504.8747 352.4006 502.4022 352.4862 497.7673 352.6458 497.0804 352.6693 496.4945 352.6062 492.7801 352.2053 492.0148 353.2476 490.5562 355.2337 485.7733 353.761 485.5482 353.6321 482.3563 351.8036 479.7828 348.7455 479.7326 348.2862 480.8181 348.2508 480.9502 347.9336 480.9645 347.7655 481.4813 341.6698 478.5674 338.1569 477.344 334.5756 475.9931 330.2405 475.9726 330.221 474.3792 328.7072 477.0128 326.255 475.1543 325.3371 474.9863 325.2541 473.2484 324.3955 472.8815 321.9862 468.5016 318.5321 468.9232 316.6487 468.9269 316.6237 472.8263 314.4669 478.1771 306.2267 486.5677 288.9021 497.6226 288.5994 497.6372 288.7936 497.9302 288.7079 498.1671 288.8701 498.1881 289.2671 498.272 289.1256 498.4976 289.4954 498.5435 289.8719 498.8753 289.9978 499.1116 290.4018 499.1181 290.6062 499.4719 290.4357 499.6732 290.6052 499.8049 290.9458 500.0568 291.3168 500.1952 291.6558 502.7053 292.1545 504.7553 291.079 Z" id="fips-24037"/>
<path d="M 484.6611 8.6448 497.3463 8.5844 498.0041 8.5845 500.5675 8.5827 516.1979 8.5627 523.3465 8.5485 523.3689 8.5485 523.8725 22.1472 524.1568 33.2875 525.1815 37.1807 527.2583 39.3607 530.0633 49.5857 533.9562 54.1083 536.7764 53.6031 547.0622 59.2641 547.7604 62.4289 549.9471 64.7014 556.0643 69.0089 558.451 77.8537 558.7409 81.6253 560.8624 84.0052 561.2724 85.1469 561.025 87.0969 561.0827 87.1276 564.1532 88.7637 563.8902 92.3335 565.2946 96.1279 563.131 95.9573 562.949 96.8252 562.6945 98.0396 562.5532 98.7132 566.4593 102.4226 565.1445 104.7224 564.4927 104.5212 560.1639 103.1842 559.9271 103.4428 557.3888 106.2134 557.3493 106.2565 557.1072 109.4974 557.102 109.5672 556.5212 111.4997 556.5974 111.5518 561.5973 114.9677 563.8889 115.792 562.7916 117.746 558.9533 120.2728 554.654 121.7314 554.0762 122.1342 550.6908 124.4932 549.3383 127.7571 546.2626 130.1468 545.3402 129.555 542.8387 127.9496 542.4937 127.7282 539.5199 127.9198 537.9446 128.5936 536.241 127.9958 535.7732 126.9405 536.653 124.6715 536.1498 123.5034 535.375 121.7049 535.3702 121.6937 533.6901 122.5271 532.1951 119.6138 530.6509 119.5648 530.6288 106.6763 530.5757 103.5931 530.5613 93.1458 530.5588 92.9199 530.5516 89.3347 527.9687 89.3102 523.3654 89.33 521.1828 89.3358 513.3207 89.3624 498.106 89.3828 498.127 91.495 498.1271 93.4406 498.1208 108.9296 498.1435 111.1273 500.32 112.3267 502.8693 113.7716 507.3073 116.3031 510.1095 117.8249 514.695 120.4878 512.3836 123.6191 510.6134 123.2223 508.9808 122.3243 500.7003 125.1145 500.6401 125.8791 499.9247 126.075 497.0274 123.245 496.0258 122.8495 493.0395 121.6971 488.5575 117.7823 488.6914 117.2659 483.2054 113.7212 486.0593 107.1642 483.2012 102.7113 478.1337 101.6398 476.0706 103.3261 468.9552 98.6491 467.5362 94.3703 469.1304 92.7634 466.354 89.6544 465.9345 86.9574 469.1356 85.4304 467.2316 83.6451 467.7229 78.8289 465.2056 76.029 466.6868 73.4857 465.6606 69.5757 469.9204 63.7919 470.3951 59.5287 476.7617 36.1245 481.5858 19.0919 484.6611 8.6448 Z" id="fips-24005"/>
<path d="M 422.3803 259.5678 422.0261 258.1324 422.0837 257.439 421.3679 256.1406 421.6393 253.7949 422.0095 250.5948 423.9184 247.8296 426.8364 245.3004 427.4154 244.9563 428.0834 244.8901 429.3877 243.7863 430.3778 243.1634 432.0399 246.8612 437.2711 263.9625 442.0921 257.0124 446.1656 255.1267 452.1016 253.6193 461.5269 255.5756 470.6594 254.2742 489.6103 263.3052 491.2134 263.5997 492.3644 269.2026 492.7481 277.4212 499.1618 281.0665 499.7101 280.4611 499.8643 281.1703 500.0016 281.2101 504.513 282.6966 506.8543 285.0978 504.7553 291.079 502.7053 292.1545 500.1952 291.6558 500.0568 291.3168 499.8049 290.9458 499.6732 290.6052 499.4719 290.4357 499.1181 290.6062 499.1116 290.4018 498.8753 289.9978 498.5435 289.8719 498.4976 289.4954 498.272 289.1256 498.1881 289.2671 498.1671 288.8701 497.9302 288.7079 497.6372 288.7936 497.6226 288.5994 486.5677 288.9021 478.1771 306.2267 472.8263 314.4669 468.9269 316.6237 468.9232 316.6487 468.5016 318.5321 472.8815 321.9862 473.2484 324.3955 471.7597 323.6598 471.2255 324.9509 470.3521 327.0615 469.2471 329.8394 471.27 331.4603 472.1492 333.898 473.4367 337.1346 474.5811 339.7071 475.5877 343.2167 475.5266 343.5366 475.0406 346.0834 474.2478 347.7277 473.3525 347.3401 470.2324 344.378 469.8679 344.2088 466.1988 342.5058 462.2175 339.8543 459.9643 339.1228 459.7533 334.6094 459.7506 334.551 459.4894 333.7196 459.3016 333.4695 458.4184 332.2933 456.1424 330.3185 454.0054 329.461 450.1049 326.2013 448.6501 322.5729 447.8235 315.1768 445.9677 311.8596 445.4249 308.931 442.7763 303.46 442.7214 303.4625 438.3809 303.6635 438.1254 303.8094 437.7366 304.0313 432.0497 308.2399 430.0643 310.5327 429.2089 312.1957 426.3995 312.4853 425.6753 311.7944 425.6685 311.7934 423.3689 311.4512 422.8898 312.79 422.5584 313.7161 420.9188 315.7966 411.8329 321.7973 408.0849 323.1097 406.3821 322.3385 400.3475 317.7646 397.8447 310.4651 398.6394 307.321 398.651 305.4901 396.1379 294.8495 398.1055 287.7931 399.702 284.7244 401.3118 281.6287 402.8426 278.6838 404.8816 278.1716 405.8501 277.9283 407.8957 274.7835 412.6616 267.4513 415.2164 266.0386 419.0127 266.3524 422.5582 264.344 423.369 263.0962 425.9223 261.4804 426.7246 259.7669 425.8805 259.7283 422.3803 259.5678 Z" id="fips-24017"/>
<path d="M 583.1545 8.3376 600.4963 8.184 602.5823 8.1643 619.6885 7.9925 622.2758 7.9536 624.8404 8.0139 658.0437 7.6536 658.3724 7.6497 660.2405 7.6372 662.2328 7.6341 662.2756 12.6119 662.2762 12.6711 662.2708 16.8619 662.2809 17.1323 662.2999 19.376 662.3249 22.3428 662.4543 24.7071 662.5875 27.1409 662.7029 28.731 662.8496 30.8739 663.0171 33.3198 663.9747 47.294 664.2123 50.5534 664.2287 50.7776 664.2423 50.9636 665.1492 63.3936 666.2455 78.3999 666.893 87.2539 659.8992 87.8759 659.2201 86.8396 657.6041 86.2696 656.7431 86.4825 655.4158 88.1689 653.4188 88.926 651.1007 90.4306 648.9162 89.6983 645.6684 91.349 643.85 90.1914 639.0579 89.9133 638.369 89.0528 635.5604 89.8252 631.664 88.2437 628.347 89.9417 624.7985 87.8993 624.775 85.9652 624.7744 85.9146 618.8659 85.6898 618.083 85.256 617.889 83.8337 618.9412 82.0328 622.2302 80.5132 623.9439 79.099 625.6106 75.4365 628.2467 74.2668 629.2725 72.0994 629.2793 71.8536 629.2929 71.3638 626.8807 68.8761 626.8588 68.8813 625.4068 69.2256 624.6625 70.8445 623.4254 71.0855 622.9081 70.1843 624.5553 66.3509 625.6775 64.7204 626.091 61.923 627.4511 56.9058 629.2427 52.3673 630.8501 50.3475 630.7908 48.0411 630.7818 47.6913 630.2127 45.9623 628.3843 45.3969 626.2288 44.7299 624.9792 45.3427 624.8876 45.5265 623.8073 47.6949 619.5173 48.0883 616.5851 48.3565 613.6446 48.625 613.5677 48.632 611.451 49.4734 609.5979 45.7908 608.0696 43.7662 605.9816 40.8395 598.553 31.8942 593.852 22.5339 586.8606 16.4672 583.1545 8.3376 Z" id="fips-24015"/>
<path d="M 408.2 8.5664 408.213 8.5665 436.2932 8.682 436.4178 8.6592 438.3915 8.7134 446.9177 8.7843 448.3859 8.7961 458.0433 8.6173 464.9848 8.7042 466.3126 8.7071 467.9163 8.7029 480.7002 8.6631 481.1982 8.687 484.6303 8.6449 484.6611 8.6448 481.5858 19.0919 476.7617 36.1245 470.3951 59.5287 469.9204 63.7919 465.6606 69.5757 466.6868 73.4857 465.2056 76.029 467.7229 78.8289 467.2316 83.6451 469.1356 85.4304 465.9345 86.9574 466.354 89.6544 469.1304 92.7634 467.5362 94.3703 459.1282 93.4782 451.9156 91.1371 441.9506 94.1975 434.884 91.5463 428.3852 89.8089 419.3494 94.5485 416.4399 93.3015 418.2331 88.8038 420.257 78.2815 425.8624 68.7514 425.5911 64.5246 427.554 61.396 426.9843 60.1704 419.4727 52.0362 416.1933 51.4973 416.4499 47.0212 411.3838 42.0654 407.094 41.8163 401.0034 35.4497 399.7086 37.5232 398.3235 34.8659 395.4399 35.2409 391.9598 31.8449 393.1921 30.4534 391.3267 27.0702 394.8204 29.2105 397.6034 28.7481 397.6666 25.4041 400.0912 21.2482 405.0649 18.2674 403.6391 14.3082 408.4824 13.4738 406.5237 11.7928 408.2 8.5664 Z" id="fips-24013"/>
<path d="M 325.3594 99.4628 325.9736 95.0799 329.2167 89.2568 332.1189 81.3934 333.4013 71.168 336.6318 66.0366 335.596 63.1132 336.9783 60.8622 335.4646 58.9165 337.4058 51.9927 340.0756 49.5108 340.7958 44.1681 342.0983 42.4595 345.1649 31.2451 351.854 28.7233 354.1175 26.5491 359.0514 18.329 356.3122 16.5361 359.5405 13.8439 363.3636 8.2392 365.0906 8.2541 403.5004 8.5385 404.1229 8.5424 408.2 8.5664 406.5237 11.7928 408.4824 13.4738 403.6391 14.3082 405.0649 18.2674 400.0912 21.2482 397.6666 25.4041 397.6034 28.7481 394.8204 29.2105 391.3267 27.0702 393.1921 30.4534 391.9598 31.8449 395.4399 35.2409 398.3235 34.8659 399.7086 37.5232 401.0034 35.4497 407.094 41.8163 411.3838 42.0654 416.4499 47.0212 416.1933 51.4973 419.4727 52.0362 426.9843 60.1704 427.554 61.396 425.5911 64.5246 425.8624 68.7514 420.257 78.2815 418.2331 88.8038 416.4399 93.3015 416.3104 93.406 399.4884 103.2999 395.6803 105.5642 395.3229 105.7935 364.9248 123.5309 364.1756 123.8312 364.3544 123.4427 364.4075 122.7502 364.3309 122.4906 363.961 121.9743 362.003 120.5353 360.2996 118.8658 359.6182 117.8288 359.2365 117.4871 357.4903 116.6716 355.3774 116.2859 353.3809 115.2034 353.1416 114.9101 352.8743 114.77 350.7379 113.9927 349.6481 113.3844 349.1787 112.9198 349.0004 112.2885 348.7203 111.8523 347.7979 110.8383 347.4368 110.0519 346.0673 108.4468 345.7437 106.5131 345.9291 104.8011 345.686 104.3386 345.221 103.937 345.0853 103.8198 344.4696 103.7609 342.9554 104.0053 341.2046 104.7447 340.3973 104.8904 339.2979 104.7421 338.0484 104.312 336.2502 104.5169 332.6557 103.3094 331.9089 103.1953 329.9986 102.587 327.3074 101.1187 326.3873 100.0295 325.5881 99.4388 325.3594 99.4628 Z" id="fips-24021"/>
<path d="M 597.3565 153.3853 604.701 150.3129 608.7811 145.7194 612.6622 143.0693 611.0021 140.8945 617.0684 137.3839 618.4325 135.6853 617.2132 133.2012 614.0211 132.3229 613.2286 130.5473 615.3932 126.3724 620.6267 122.5477 621.8322 122.3821 623.7838 119.4323 627.6583 119.589 627.7875 119.5069 627.9419 119.3196 628.0044 119.1092 628.0218 118.8718 627.9474 118.4453 627.9597 118.2477 628.0107 118.1211 628.096 118.0305 628.1902 118.0157 628.3215 118.0429 628.5161 118.1113 628.7311 118.1986 628.9736 118.2752 629.2322 118.3202 629.5367 118.3044 630.2979 117.9864 630.7647 117.9326 631.4112 118.1533 632.1647 118.9315 632.9141 119.1964 633.3395 119.2532 634.1238 118.7575 634.6927 118.8182 635.3886 119.5738 635.6137 119.692 636.0935 119.7085 639.1414 118.387 639.569 118.5314 639.8714 118.596 640.2304 118.5639 641.1079 118.2789 643.7516 117.7041 644.2555 117.6497 644.3942 117.5745 644.4561 117.4627 644.3572 117.2326 644.334 116.932 644.3855 116.4057 644.5826 116.1333 644.8155 116.036 645.1667 116.0771 645.4077 116.2973 645.5839 116.9203 645.7345 117.1123 645.9302 117.1511 646.5309 116.7949 646.9294 116.6043 647.1214 116.6944 647.2193 116.9361 647.4878 117.03 647.9657 117.0108 649.1203 114.7452 654.134 115.1123 660.1467 118.689 669.1189 117.6223 669.1193 117.6271 670.1621 133.3904 670.4923 136.3818 670.8458 141.3534 670.8493 141.4083 663.1257 143.9016 655.3106 149.6155 652.9707 154.8793 652.9171 158.1427 649.1844 161.4843 645.4668 170.5561 640.3246 174.7945 636.5433 180.3325 637.0316 183.9293 634.4334 189.0517 635.1398 193.7463 609.2486 187.8563 607.7582 188.6187 607.7115 188.963 607.3461 189.1646 606.9996 189.9569 606.894 190.5384 606.5406 191.3124 606.0512 192.0285 605.9871 192.8854 606.1014 193.4278 605.8175 193.9695 605.4064 194.4366 605.2548 195.0244 605.9853 195.6465 605.6537 197.1489 607.5965 200.455 607.4572 202.273 604.0279 202.3561 603.058 203.7604 602.3219 202.9613 599.1183 202.2052 596.6244 202.9808 595.5266 206.1954 593.3171 207.8348 591.7225 206.5314 590.2109 209.6535 589.9923 208.5974 589.6469 206.9282 590.0755 202.2393 589.1673 199.9685 589.3812 191.7229 587.5353 189.655 584.2571 188.48 583.7825 188.6121 581.0028 189.3859 580.8861 191.7951 580.8915 191.8058 581.4027 192.8239 581.1088 193.4919 579.9016 193.978 578.8518 193.7176 578.4051 192.656 578.3523 191.3334 576.8764 188.6508 572.7838 191.7353 572.1603 194.078 573.1694 196.021 573.2868 197.7638 573.287 197.7669 570.561 198.7409 568.8359 195.7631 568.8305 195.7633 567.7296 195.7993 565.5738 197.0091 565.5716 197.0252 565.154 200.1329 565.7241 201.6229 566.523 206.6376 565.9884 207.5835 564.8097 208.6279 563.0432 208.2507 561.1118 209.5076 559.8539 213.1807 558.6102 212.4105 558.401 209.8707 560.4577 204.4602 560.255 196.6812 560.9372 189.3496 562.3431 185.169 567.9058 175.3521 567.9685 173.7857 567.7396 173.1887 568.3168 169.9373 569.8339 167.1003 571.6111 166.0771 571.766 167.9392 571.4448 169.274 573.0617 174.3265 576.0452 179.2749 578.0925 179.1004 579.3986 178.9889 584.5851 180.3371 584.714 180.3706 586.5821 181.9896 589.5575 181.3869 596.4208 175.2313 596.474 172.7994 595.7523 170.9037 593.812 167.8183 592.7295 164.448 594.3159 161.5396 595.4282 160.6128 597.2378 159.9786 598.2125 157.8728 598.733 156.7479 599.6759 153.6434 597.3565 153.3853 Z" id="fips-24035"/>
<path d="M 651.763 350.841 656.3852 347.2946 663.0255 346.9237 663.6444 345.8628 664.1187 344.3798 668.3676 342.6976 669.0818 339.8426 669.6401 339.6928 670.2853 339.6438 671.012 339.6842 671.6699 339.7564 671.9349 339.8256 672.046 339.9043 672.0789 340.1129 671.9149 340.5375 671.9404 340.7444 672.1532 340.8491 672.5428 340.7501 672.6267 340.62 672.6144 340.4058 672.4867 340.1231 672.5821 339.9252 672.7345 339.9394 672.9009 340.1811 673.0237 340.5979 673.2184 340.9009 673.9996 341.1868 674.2238 341.1374 674.748 340.5444 675.0681 340.3252 675.285 340.2758 676.3899 340.7467 676.5895 342.0262 677.2458 341.8559 677.8823 344.0394 682.5987 343.9292 682.7425 343.6507 682.2314 343.0612 682.223 342.2477 688.2003 336.4598 697.3913 341.0532 698.7291 347.8588 704.2777 356.5426 706.977 359.2521 709.8074 363.9996 709.0388 367.4013 704.2824 372.0308 710.6689 380.0512 710.9733 384.6234 705.3742 385.6879 703.6889 389.6092 697.0698 388.5971 696.181 392.7794 693.2605 395.1862 690.165 393.3964 689.2947 394.856 690.2091 398.6771 693.2374 400.2103 696.0342 406.8301 696.0149 406.8333 695.9087 407.671 695.6268 408.0638 694.8618 408.3209 694.5617 408.5845 694.3062 409.3134 693.6839 410.1049 693.5439 410.2829 692.8963 411.0833 692.3833 412.5198 691.7523 413.2214 691.9162 417.7854 690.4481 418.1704 688.6892 417.2513 687.8558 417.0129 688.7116 415.6814 689.0569 414.5417 688.7031 414.2667 687.4785 413.315 684.8671 413.1052 679.8963 411.0739 678.2756 411.8323 678.1755 412.3203 677.2209 413.2675 675.4863 414.1064 675.3987 414.1487 673.1542 412.9354 672.1251 412.6823 671.5377 412.5379 668.312 412.2507 667.0273 412.1361 662.7022 416.2658 660.654 418.2203 658.6994 420.0849 658.2522 421.3012 655.227 423.3734 654.2233 424.0607 653.1195 424.8164 649.2666 426.179 648.6994 426.3795 647.2934 425.2054 646.2506 423.3033 647.0149 421.9845 647.2253 419.7981 647.5505 416.4181 646.0388 411.8841 648.933 405.2744 650.2763 403.1889 650.2254 399.4263 650.6155 398.0047 651.2831 397.7601 653.4624 396.9614 654.7369 397.4311 654.8422 397.9857 655.2168 397.9648 655.2542 397.9418 657.1399 396.7848 658.4584 395.9756 658.5758 395.9035 659.1858 395.147 661.5393 392.2274 660.3393 390.4644 660.3069 390.4167 655.8045 389.1964 653.1428 390.3646 652.9407 390.7318 653.1689 392.0263 651.3473 392.2746 650.8737 392.3391 650.382 392.0156 649.2013 388.622 650.8329 385.331 651.9504 383.0762 652.1892 382.5943 656.0222 379.7522 656.9378 379.5954 657.0017 379.4295 658.6951 375.0279 658.6882 375.0218 655.7282 372.4747 654.6273 372.5274 653.7968 372.9618 652.8858 373.4383 651.7225 374.7564 651.2442 374.8774 648.9946 374.2882 645.4629 373.3625 644.3515 374.0268 644.2126 374.1097 641.2205 375.8975 638.8144 377.3344 638.9181 380.629 638.5868 380.627 637.3417 379.9168 636.5577 378.7587 634.6941 374.3773 636.1667 368.6443 636.8348 367.1623 636.8424 367.0553 636.854 366.8928 636.8764 366.5797 636.0137 365.3272 636.0842 364.898 637.7382 362.8102 647.5733 358.8562 647.9115 358.9698 648.2117 359.7898 649.4596 360.1163 651.934 359.5012 655.0742 357.2911 655.1348 357.2484 654.1903 353.568 654.1661 353.5408 652.766 351.9681 651.763 350.841 Z M 628.7695 416.8829 626.5847 416.8591 623.8416 416.8288 623.6991 416.8279 623.5878 416.8308 622.2865 416.8639 622.1666 416.8925 620.1096 416.8258 620.0569 416.8275 619.1754 416.9293 618.5676 409.988 618.5959 408.4419 618.674 404.1775 618.6997 402.7703 619.1209 400.296 619.9383 398.7609 623.7224 397.1214 623.9166 397.1641 626.1828 397.6626 627.0389 400.3773 630.0389 401.0464 631.1996 404.9807 630.8576 408.7617 628.5833 411.9818 629.6741 415.2929 628.7695 416.8829 Z M 618.5795 378.3317 621.6157 372.0538 623.2619 375.3157 623.5418 375.4702 624.1246 375.7918 625.0884 375.7007 625.208 377.9002 623.6558 379.1067 623.5116 381.214 625.9342 384.0978 626.3765 388.3059 625.358 389.4365 623.2208 389.8108 620.777 388.4989 616.8113 384.2728 616.6292 384.0786 618.275 381.2914 618.795 381.1152 619.7404 380.7949 620.1851 380.2998 619.9924 379.9275 619.484 378.9456 618.5795 378.3317 Z" id="fips-24039"/>
<path d="M 6.5282 1 21.4887 1.3698 81.1817 2.7074 83.1286 2.7474 103.4504 3.2857 103.9471 3.2971 90.7275 31.3875 77.724 58.9207 77.5033 60.0547 74.8728 60.7107 73.442 60.4351 72.8457 60.2236 72.5192 60.3199 72.2397 60.4804 72.0903 60.6233 72.0505 60.8949 72.1849 61.318 72.5389 61.9989 72.6498 62.6944 70.9939 65.9323 70.3147 66.5179 69.2047 67.0496 68.7768 67.6947 68.725 68.254 68.647 68.777 68.4599 69.0902 68.1843 69.3722 67.8024 69.4487 67.3633 69.3402 66.4462 70.1625 66.3642 70.8322 66.4257 71.6106 66.2483 72.3871 65.8139 72.7515 65.0063 72.8745 64.2856 73.0863 64.0473 73.6296 63.8896 74.4934 63.6759 74.9507 63.381 75.1162 63.0236 75.1065 62.6442 75.0962 62.2932 74.8551 61.9567 74.0937 61.3156 73.8448 60.9584 73.835 60.5717 74.0849 59.581 76.6038 59.7184 77.4758 59.4033 78.3642 58.8109 78.6325 58.0826 78.4436 57.6542 78.5767 57.209 79.4406 55.3886 79.8165 54.7077 79.4568 54.3118 79.4884 53.8737 79.8597 52.9265 81.744 50.8776 84.5904 49.7213 85.0584 48.1369 84.8973 46.9201 86.0134 43.9792 86.399 43.666 86.9865 43.5614 90.8841 43.2997 91.1885 40.7539 92.3056 40.2213 92.6993 38.4386 94.0168 38.0479 97.1071 36.815 99.4582 36.3688 99.5827 34.6582 99.3426 32.4642 98.1626 29.2862 99.1023 27.1042 100.5155 26.854 101.3874 27.1892 101.9952 27.1506 102.2374 25.3169 104.0473 23.938 104.7272 21.2776 105.0579 19.2815 106.7599 14.6315 112.4024 13.1354 112.7428 12.2566 113.9178 12.3335 115.1958 9.497 117.677 7.1589 118.8446 4.1801 119.7757 2.9232 120.5634 1 119.9875 1.6016 106.3706 1.5475 106.3539 1.3534 106.2936 1.5424 103.3051 1.3918 102.8878 1.6599 99.0944 2.1366 88.0209 2.4402 88.0303 4.0221 47.1199 4.0984 46.3547 4.1468 44.7354 4.7702 44.7546 5.6511 22.0931 5.7635 19.203 5.9101 19.0447 5.989 18.7649 6.5282 1 Z" id="fips-24023"/>
<path d="M 635.1398 193.7463 634.4334 189.0517 637.0316 183.9293 636.5433 180.3325 640.3246 174.7945 645.4668 170.5561 649.1844 161.4843 652.9171 158.1427 652.9707 154.8793 655.3106 149.6155 663.1257 143.9016 670.8493 141.4083 671.1778 146.6672 671.2493 147.9116 671.653 152.5939 671.9921 157.2889 674.9869 198.6658 675.4236 204.6859 675.4738 204.9499 675.7936 209.6586 675.8068 209.9126 676.0413 213.0388 676.0978 213.7663 676.1021 213.8293 676.2218 215.5994 676.5586 220.2962 677.1611 228.693 678.1555 242.5352 679.3226 258.7615 679.3226 258.762 669.1916 247.1158 662.8249 249.4593 662.4443 244.9205 655.6252 243.133 650.8845 244.5755 649.7825 245.4373 646.4385 245.1839 644.9647 243.8443 643.5889 247.0178 637.6771 249.5029 636.3253 250.2081 631.537 247.8075 630.5899 244.7665 627.6581 245.0463 627.6031 242.4445 625.0042 239.4568 623.6358 237.685 627.3026 234.6061 626.4293 232.2566 632.324 225.8099 635.375 226.0964 638.3944 221.975 642.4316 219.5581 644.8857 218.1482 639.1691 212.0825 640.0346 208.4007 635.1468 201.4984 635.1398 193.7463 Z" id="fips-24011"/>
<path d="M 416.3104 93.406 416.4399 93.3015 419.3494 94.5485 428.3852 89.8089 434.884 91.5463 441.9506 94.1975 451.9156 91.1371 459.1282 93.4782 467.5362 94.3703 468.9552 98.6491 476.0706 103.3261 478.1337 101.6398 483.2012 102.7113 486.0593 107.1642 483.2054 113.7212 488.6914 117.2659 488.5575 117.7823 493.0395 121.6971 496.0258 122.8495 497.0274 123.245 499.9247 126.075 500.6401 125.8791 500.5542 126.3554 497.9376 128.6896 496.4893 131.5147 496.1818 133.0593 491.7733 133.8516 485.4967 141.7286 484.5137 145.5925 479.7859 147.0469 477.3858 149.937 474.9255 151.5064 469.5928 149.283 466.3024 145.0547 461.5473 146.0302 461.0757 145.234 459.0258 143.3192 453.7474 144.3138 454.9797 141.5004 450.748 140.717 451.0519 137.788 446.9129 136.8131 444.8381 133.2897 444.6801 127.4712 440.5887 124.3145 438.3683 120.2942 435.3789 119.4482 433.8541 116.4744 427.8975 113.7077 423.0433 113.1156 422.3589 111.1648 421.376 107.6312 415.9828 102.7439 413.0196 96.3722 416.3104 93.406 Z" id="fips-24027"/>
<path d="M 208.0263 5.5785 208.0692 5.5793 208.4286 5.5916 208.5992 5.5857 209.0304 5.6146 210.1682 5.5826 221.1348 5.7942 221.1475 5.7997 225.7415 5.904 226.2337 5.9085 232.6128 6.0109 232.8889 6.0396 251.3793 6.3584 255.4878 6.4264 255.8497 6.4288 291.2319 6.9508 306.2765 7.2984 306.3844 7.3008 310.1088 7.3847 314.6123 7.473 316.4947 7.5204 318.0054 7.5839 326.8234 7.6926 327.2274 7.7129 327.7276 7.7214 351.6736 8.1078 351.9203 8.1028 363.3406 8.239 363.3636 8.2392 359.5405 13.8439 356.3122 16.5361 359.0514 18.329 354.1175 26.5491 351.854 28.7233 345.1649 31.2451 342.0983 42.4595 340.7958 44.1681 340.0756 49.5108 337.4058 51.9927 335.4646 58.9165 336.9783 60.8622 335.596 63.1132 336.6318 66.0366 333.4013 71.168 332.1189 81.3934 329.2167 89.2568 325.9736 95.0799 325.3594 99.4628 324.5387 99.5488 323.56 100.4056 322.5082 100.7324 321.7079 100.6811 319.8828 99.9839 318.4217 100.1796 317.77 100.0165 316.5993 99.9251 315.3361 98.8283 311.8014 97.1625 310.9975 96.6831 310.5364 95.9298 310.3982 95.0235 310.8346 94.3459 312.3269 93.4472 313.134 92.5848 313.5199 91.034 313.4859 89.8331 311.8905 86.7664 311.7994 86.4638 311.8804 85.8936 312.0946 85.6108 312.5426 85.4212 314.1451 85.1538 314.6264 84.9739 314.9463 84.6232 315.0251 84.1799 314.9433 83.4809 314.3241 81.3903 313.0158 79.2393 312.1122 77.0911 312.0475 76.3763 311.7673 76.0502 311.052 75.5441 310.2353 75.1584 308.1745 75.2703 305.8751 74.9404 304.5002 74.0319 303.7444 73.1125 304.1643 72.2938 304.9814 71.9338 305.6468 71.2155 305.6174 70.2016 304.4425 69.1451 303.9583 68.2533 304.4034 67.4247 306.0011 67.5361 306.6522 67.4717 306.9179 67.0423 306.8411 66.5692 305.6469 65.9945 304.588 65.188 304.1427 64.1512 304.6997 62.9386 307.1637 61.7422 308.9056 61.0904 309.7387 60.6089 310.0174 60.221 309.9461 59.596 309.0713 58.8079 308.4617 58.7051 307.17 58.7895 306.6616 59.016 305.8982 59.621 304.8704 60.6284 302.4683 60.7726 299.4499 59.9504 299.3286 59.918 296.8966 59.2671 295.5659 58.5272 295.4358 58.0955 295.3742 57.8912 295.8639 57.081 298.7535 55.1339 299.46 54.3428 299.7611 52.9148 299.7296 52.4913 299.4549 51.7317 299.1322 51.4314 298.0116 50.9154 297.3994 51.0135 297.0172 51.2521 296.7484 51.6929 296.6158 53.9221 295.1203 54.8169 293.1979 55.0857 292.5785 54.9141 292.358 54.5989 292.1493 54.3006 292.1698 52.667 292.3695 51.8606 292.5257 50.3395 292.5096 49.9531 292.3519 49.5122 291.2685 48.1345 288.6352 46.3264 288.2005 45.395 288.26 44.9093 288.3847 44.6464 288.7152 44.3655 290.0942 43.6759 291.1162 43.5965 292.3607 43.6932 294.1259 43.4711 296.5618 43.5659 297.6094 43.1082 297.9011 42.5608 298.178 42.0412 298.6433 39.6974 298.8327 38.287 298.8547 37.4174 298.5177 35.0882 298.2105 34.6609 297.4293 33.9136 296.5818 33.6414 294.6844 33.6489 293.9095 33.4624 291.982 32.684 290.9162 31.9404 289.0677 31.5733 288.7267 31.8594 288.7333 32.1344 289.6116 33.3524 289.7528 33.7932 289.6556 35.2079 289.2137 35.627 288.0842 35.775 287.8002 35.6807 285.7655 35.0045 283.7731 34.4986 282.3174 34.0001 281.7646 33.3552 281.295 31.8999 280.5728 31.0187 279.7532 30.6665 278.9599 30.7387 278.5167 31.1125 278.4663 31.5509 280.0722 33.1391 279.8728 36.3661 279.3716 38.0631 278.0934 38.5829 277.2034 37.2774 277.3377 33.9935 276.592 33.1826 275.3381 33.0206 274.2378 33.5042 273.339 34.6999 272.767 35.0284 270.0832 34.9128 268.1441 34.8167 267.3626 34.609 266.7889 34.2408 266.5511 33.9621 264.6354 30.3458 264.3766 29.8572 263.2849 28.5079 262.272 26.5833 261.7699 26.0206 260.5687 25.1097 260.2189 24.8444 259.8214 24.32 259.4787 23.654 256.6132 20.6384 256.4914 20.4927 255.5117 19.3206 254.9983 18.8054 254.1641 18.2639 253.0377 18.2361 252.8182 18.127 251.5462 16.6058 250.7323 16.1017 249.6545 15.6568 248.9453 15.5402 246.8026 14.7989 245.2481 14.4677 244.8058 14.1536 243.345 13.6429 241.4448 13.5846 240.0406 12.8422 238.4057 12.3601 237.4708 12.2626 236.3765 12.4427 234.8729 13.5388 234.6315 13.7993 233.8458 15.415 233.0501 16.3747 232.7137 16.6496 232.0319 16.7914 228.3731 16.6992 227.6134 17.0884 227.3273 17.432 227.3401 17.9881 228.9362 19.8337 228.9777 20.1836 228.7059 20.6921 228.2345 21.1655 226.3681 22.2239 224.7968 23.8902 223.4688 24.9469 221.9856 27.1468 221.7635 28.0788 221.7393 29.1749 221.4238 29.7246 221.1112 29.8246 220.351 29.6207 218.2327 29.392 213.8002 27.2005 212.9372 26.8625 209.5942 25.6335 209.2497 25.5274 208.1541 21.6831 204.0865 20.0429 209.3143 19.5368 207.707 16.4423 211.7479 16.4245 213.1446 12.6511 208.0263 5.5785 Z" id="fips-24043"/>
<path d="M 651.9217 324.5244 652.1532 317.2519 656.2194 316.3135 653.8572 313.3588 654.8425 308.374 659.4755 305.0899 656.5076 302.8642 660.302 298.013 659.1455 294.0461 660.2009 292.8495 661.5411 292.5668 663.9087 291.9866 670.6644 287.0666 671.4243 283.2689 672.8087 281.4001 676.4895 280.5633 680.5504 276.0027 680.5512 276.0136 680.8451 280.1675 680.8472 280.1992 681.1497 284.9557 681.5904 290.857 681.6582 291.8034 682.2532 299.2552 687.3151 299.4839 687.8118 299.511 690.5197 299.572 693.6789 299.6426 699.5468 299.8169 700.451 299.9105 701.1349 299.9296 702.1678 299.8854 703.8878 299.9648 706.4559 300.0291 706.5869 300.0312 711.1971 300.1141 713.1959 300.1585 713.454 300.1553 716.7771 300.2139 717.2878 300.2249 721.0907 300.2784 721.4064 300.2825 730.2245 300.3938 730.261 300.394 730.9304 300.3982 733.4568 300.412 736.3727 300.4268 736.5942 300.4343 740.6703 300.3781 743.4335 300.3613 746.0678 300.3317 746.085 300.3316 750.6178 311.3006 748.4064 316.6409 752.6156 322.7129 749.7575 328.0422 743.8226 332.4608 740.9405 337.9255 725.7225 338.9478 697.3913 341.0532 688.2003 336.4598 682.223 342.2477 682.2314 343.0612 682.7425 343.6507 682.5987 343.9292 677.8823 344.0394 677.2458 341.8559 676.5895 342.0262 676.3899 340.7467 675.285 340.2758 675.0681 340.3252 674.748 340.5444 674.2238 341.1374 673.9996 341.1868 673.2184 340.9009 673.0237 340.5979 672.9009 340.1811 672.7345 339.9394 672.5821 339.9252 672.4867 340.1231 672.6144 340.4058 672.6267 340.62 672.5428 340.7501 672.1532 340.8491 671.9404 340.7444 671.9149 340.5375 672.0789 340.1129 672.046 339.9043 671.9349 339.8256 671.6699 339.7564 671.012 339.6842 670.2853 339.6438 669.6401 339.6928 669.0818 339.8426 668.3676 342.6976 664.1187 344.3798 663.6444 345.8628 663.0255 346.9237 656.3852 347.2946 651.763 350.841 650.7209 349.6699 650.7195 349.6684 649.9302 349.4251 648.3357 349.455 647.4196 350.1616 647.2703 350.6076 647.9552 352.5656 647.0543 353.2663 646.1415 353.1465 645.3444 352.3274 643.7893 348.9845 643.8113 347.7364 643.2787 346.3754 642.1517 345.1882 643.8808 342.984 644.9982 339.8684 644.6517 337.1324 646.4625 334.5079 648.3418 329.8782 650.2995 329.1339 652.0545 325.5782 651.9217 324.5244 Z" id="fips-24045"/>
<path d="M 621.6157 372.0538 618.5795 378.3317 617.0376 377.285 616.2728 376.8557 612.6225 378.4956 611.8635 378.8364 611.7506 379.2771 610.858 379.791 609.992 377.3313 610.8742 375.9241 610.8952 375.7542 611.1566 373.6454 610.5385 371.2629 611.15 361.7116 614.2535 359.1821 614.9209 359.169 618.3745 359.1013 623.2524 365.0436 623.3036 366.4087 621.3314 367.0782 621.1273 369.6781 621.5225 371.8188 621.5372 371.8981 621.6157 372.0538 Z M 621.3507 273.8693 628.1845 269.1452 629.9958 265.0686 629.5038 261.5901 634.0845 256.2546 634.6944 252.1676 636.3253 250.2081 637.6771 249.5029 643.5889 247.0178 644.9647 243.8443 646.4385 245.1839 649.7825 245.4373 650.8845 244.5755 655.6252 243.133 662.4443 244.9205 662.8249 249.4593 669.1916 247.1158 679.3226 258.762 679.3235 258.7737 679.4832 260.8896 679.5582 262.0059 679.6382 263.1679 679.6575 263.5212 680.037 268.7617 680.1508 270.3671 680.5504 276.0027 676.4895 280.5633 672.8087 281.4001 671.4243 283.2689 670.6644 287.0666 663.9087 291.9866 661.5411 292.5668 660.2009 292.8495 659.1455 294.0461 660.302 298.013 656.5076 302.8642 659.4755 305.0899 654.8425 308.374 653.8572 313.3588 656.2194 316.3135 652.1532 317.2519 651.9217 324.5244 651.7097 322.8431 651.7072 322.8231 646.9612 324.6746 642.5029 327.5786 640.2306 331.7359 637.8153 337.0596 638.2717 343.0922 635.9363 344.3548 635.3225 345.0419 635.4089 347.6086 636.4595 348.5464 637.2389 348.4609 637.9336 348.9739 636.9101 350.8346 632.3664 352.1264 632.2351 352.1637 632.8418 349.244 632.1662 347.4615 629.9896 344.8157 629.6903 342.2027 629.3226 341.5531 628.8498 340.718 625.7307 335.7924 624.1083 335.1365 623.9105 334.6986 625.4867 333.9577 630.4346 333.2535 632.6126 332.0768 633.5219 331.1169 633.923 329.1977 633.9065 327.1495 631.7006 321.5205 626.5367 319.5647 625.6979 320.5561 624.822 322.79 624.7771 323.6008 625.1338 324.492 623.9958 329.3054 620.8793 331.4589 619.4896 331.717 618.7736 332.6216 618.065 334.6269 617.9574 335.8977 621.5555 339.6046 622.1208 341.4161 620.0831 347.2514 619.1267 348.5433 619.1647 350.3213 620.7102 352.883 621.3956 356.0855 616.6627 353.7148 614.5583 351.0986 613.558 347.9317 609.9628 347.6847 609.0488 347.6218 604.3488 351.0333 602.579 352.6235 599.9835 352.105 599.7659 351.9603 597.1761 350.2377 597.1213 350.2013 594.0025 345.9935 592.7656 343.3771 592.5223 342.9732 590.8493 340.1951 590.5391 339.7694 587.5841 335.712 586.3013 333.8875 585.6208 332.9195 585.301 332.4644 580.2968 331.3142 578.8508 327.6041 581.6477 322.6494 577.974 319.8252 575.7668 315.5511 576.0686 313.2319 575.6111 310.8364 572.2407 304.7801 568.7176 300.1479 566.7657 296.9909 566.6862 296.6034 565.8807 292.6735 567.5212 290.844 569.1882 291.2819 574.3485 289.9414 575.418 289.8788 575.7518 290.3379 575.7633 290.3368 578.97 290.0262 579.3006 289.696 579.6218 289.3751 581.8576 285.4887 581.9641 285.3035 582.1556 284.1636 582.4752 282.261 581.6611 281.7892 581.4114 281.7655 581.2724 281.7522 580.8037 281.7076 577.1166 283.617 576.3829 283.3286 575.8474 282.4842 576.4902 281.1587 576.7632 279.5487 576.0809 277.6043 575.4353 276.6664 574.1884 274.8547 570.8818 274.2646 571.4477 273.4475 574.0214 271.7593 577.1573 269.7014 578.0297 268.2263 577.3113 267.2482 576.0382 265.5143 577.4343 264.0883 578.8209 264.2097 581.9967 261.6117 583.7751 261.0677 584.7782 264.4359 588.1759 266.1005 589.8627 265.1663 589.9444 264.641 592.0476 262.7615 594.9161 260.9658 595.8011 260.8606 596.662 265.2548 596.5908 267.9179 599.2761 268.8214 601.5042 267.1811 603.6444 269.5523 606.5112 271.253 610.5185 269.7886 612.4193 271.4517 616.3517 274.8842 619.2197 277.3476 621.54 275.3738 621.8319 275.1254 621.3507 273.8693 Z" id="fips-24019"/>
<path d="M 474.9255 151.5064 477.3858 149.937 479.7859 147.0469 484.5137 145.5925 485.4967 141.7286 491.7733 133.8516 496.1818 133.0593 496.4893 131.5147 497.9376 128.6896 500.5542 126.3554 500.6401 125.8791 500.7003 125.1145 508.9808 122.3243 510.6134 123.2223 512.3836 123.6191 514.695 120.4878 515.9343 121.1802 519.9745 126.1007 521.1898 127.4762 521.566 127.6016 522.1023 127.8371 526.98 129.7686 529.8128 127.5156 529.8316 131.2902 531.3418 134.2243 532.5069 134.9558 533.8452 135.7958 534.4643 136.1843 535.8048 138.0598 535.8791 138.0419 538.8337 137.3321 538.8657 137.3489 540.2768 138.0916 541.0868 139.5696 544.4462 142.1514 546.7223 143.5803 548.3686 144.6134 548.7755 144.8687 548.0971 146.0267 548.0157 149.1484 549.7142 155.3339 549.9914 156.343 550.0312 156.4881 549.8167 158.1609 548.1564 161.0699 546.9999 163.0956 546.985 163.1217 553.0758 167.6314 554.3946 170.0784 555.0673 172.6892 550.0329 177.8602 549.1135 178.1366 545.2296 179.3035 545.22 179.3064 544.9533 180.5091 544.7528 180.7051 544.2181 181.2277 542.0848 181.4937 540.6928 181.6671 540.5725 182.9009 541.2255 185.3967 542.7041 187.2199 543.6572 187.264 545.0102 188.9484 542.9333 192.9072 543.6222 195.1485 543.3744 196.8139 542.3305 196.7486 541.5927 196.7024 541.5727 195.8006 540.4411 195.1196 537.9095 195.9346 537.2194 196.1567 537.1997 197.6759 537.1882 198.5612 537.388 199.4857 537.7304 199.7394 538.0037 201.3805 537.7709 201.9821 534.0957 205.554 532.6027 207.0044 533.0572 209.7732 533.1224 209.8033 534.4375 210.411 536.7235 209.3137 537.9349 211.6929 537.9368 212.6409 536.3253 217.5457 534.3144 221.3184 531.6857 222.7565 531.1823 223.4972 531.2742 224.6069 529.7633 226.6671 525.3493 229.1601 525.7795 234.4022 526.6466 236.56 528.1403 238.3256 530.7749 238.1528 531.2602 238.4695 531.3559 239.0779 530.8942 241.5917 529.7463 239.7626 521.141 239.8185 513.9873 238.5973 513.9281 229.2266 510.3519 228.7295 502.5478 233.5397 500.2195 232.3982 497.5089 226.6593 499.6572 224.4128 498.1753 217.9962 500.7463 216.3715 501.6205 207.799 505.11 201.5963 504.3665 199.6226 505.4758 196.9043 501.8021 192.7782 500.3799 179.1312 492.1076 171.4187 490.9001 167.3496 486.3642 164.8952 483.812 164.7968 481.4471 160.9267 476.5156 159.3957 475.3858 158.7537 476.2859 157.7978 477.2446 153.8603 474.9255 151.5064 Z" id="fips-24003"/>
<path d="M 438.743 224.88 438.7967 223.8264 438.9059 223.5494 438.9951 223.4267 441.6333 220.7593 445.7976 216.5464 446.0501 216.4548 447.3702 215.0028 449.7553 212.7914 452.9273 209.545 453.614 208.842 454.4167 208.0201 455.1388 207.3748 460.4647 202.0488 460.6271 201.8874 462.1609 200.3654 462.4139 200.1025 459.1557 196.7522 457.8018 195.3594 456.5775 194.136 447.6189 185.1761 445.7188 183.2739 445.7025 183.2567 447.8775 180.9154 447.79 177.0394 450.7781 171.8911 451.2916 171.0044 454.8945 164.8304 461.0624 154.2196 462.925 148.0659 466.3024 145.0547 469.5928 149.283 474.9255 151.5064 477.2446 153.8603 476.2859 157.7978 475.3858 158.7537 476.5156 159.3957 481.4471 160.9267 483.812 164.7968 486.3642 164.8952 490.9001 167.3496 492.1076 171.4187 500.3799 179.1312 501.8021 192.7782 505.4758 196.9043 504.3665 199.6226 505.11 201.5963 501.6205 207.799 500.7463 216.3715 498.1753 217.9962 499.6572 224.4128 497.5089 226.6593 500.2195 232.3982 502.5478 233.5397 502.8168 233.8977 502.8216 234.6307 502.9695 235.8813 502.8205 236.2511 502.43 236.448 501.1978 236.4446 500.9894 236.6378 500.8612 237.0771 500.8884 237.4542 501.2228 238.4888 501.2427 239.0227 500.2399 241.1219 499.8675 241.7983 499.7317 242.2355 500.9967 244.1772 500.5475 247.5693 502.4034 249.0555 501.8049 250.833 499.9015 252.0628 502.9951 253.4949 502.9159 254.8096 501.5928 256.6543 501.3714 259.4448 503.9694 261.5529 505.0774 263.8161 505.0372 268.0386 503.5651 272.379 505.0886 278.7728 504.513 282.6966 500.0016 281.2101 499.8643 281.1703 499.7101 280.4611 499.1618 281.0665 492.7481 277.4212 492.3644 269.2026 491.2134 263.5997 489.6103 263.3052 470.6594 254.2742 461.5269 255.5756 452.1016 253.6193 446.1656 255.1267 442.0921 257.0124 437.2711 263.9625 432.0399 246.8612 430.3778 243.1634 431.6135 242.3858 432.659 241.9885 432.823 241.9262 432.9927 242.1454 434.1715 242.3857 436.3591 242.3138 437.7526 241.3021 438.3339 240.3333 438.5018 238.9467 438.5863 235.8489 438.4274 235.0159 438.4558 233.8133 438.5751 228.7651 438.6011 227.6639 438.743 224.88 Z" id="fips-24033"/>
<path d="M 590.2109 209.6535 591.7225 206.5314 593.3171 207.8348 595.5266 206.1954 596.6244 202.9808 599.1183 202.2052 602.3219 202.9613 603.058 203.7604 604.0279 202.3561 607.4572 202.273 607.5965 200.455 605.6537 197.1489 605.9853 195.6465 605.2548 195.0244 605.4064 194.4366 605.8175 193.9695 606.1014 193.4278 605.9871 192.8854 606.0512 192.0285 606.5406 191.3124 606.894 190.5384 606.9996 189.9569 607.3461 189.1646 607.7115 188.963 607.7582 188.6187 609.2486 187.8563 635.1398 193.7463 635.1468 201.4984 640.0346 208.4007 639.1691 212.0825 644.8857 218.1482 642.4316 219.5581 638.3944 221.975 635.375 226.0964 632.324 225.8099 626.4293 232.2566 627.3026 234.6061 623.6358 237.685 625.0042 239.4568 627.6031 242.4445 627.6581 245.0463 630.5899 244.7665 631.537 247.8075 636.3253 250.2081 634.6944 252.1676 634.0845 256.2546 629.5038 261.5901 629.9958 265.0686 628.1845 269.1452 621.3507 273.8693 620.3511 271.2594 620.322 271.1833 617.0285 266.9322 611.1333 261.8399 605.7041 262.1532 603.4552 259.4192 599.9287 259.0765 598.3743 254.1736 594.8258 250.6897 590.935 250.7975 590.2844 251.2832 588.0196 248.7241 583.3078 241.5903 583.1764 240.5861 583.0988 239.9933 583.5989 238.8898 583.2901 236.3673 580.3297 236.1403 580.2839 236.1874 577.6035 238.9483 577.377 241.5318 576.7606 241.6506 572.5187 240.4452 572.3963 240.1493 572.9714 239.0197 572.3564 238.2859 572.3471 238.2748 569.9351 237.5185 569.3247 237.7803 567.9119 240.0905 567.6396 240.5356 567.2378 243.7675 568.3288 247.0502 568.2381 249.4108 565.0097 251.2864 563.6151 247.8257 564.9235 237.6232 564.7684 232.6379 565.9554 227.7756 567.9058 226.2939 570.3567 222.2242 570.5503 218.4083 571.9854 215.4327 572.5398 214.9393 574.224 215.1558 576.2092 214.2057 576.0719 213.2641 577.2396 209.4954 578.564 209.5355 578.2825 210.4755 581.0872 215.5667 581.8973 216.3042 586.3617 218.4053 586.6928 218.5611 590.5079 218.0632 590.6338 217.8079 591.3472 216.36 591.7591 214.5374 590.5506 211.2946 590.5451 211.268 590.3002 210.0849 590.2109 209.6535 Z M 554.61 228.3224 557.8104 224.2424 559.5934 226.4738 559.5645 227.0147 559.4324 229.4793 560.9468 233.4589 560.813 233.875 557.5712 234.5365 555.9205 231.4879 555.9041 231.4484 554.61 228.3224 Z" id="fips-24041"/>
<path d="M 697.3913 341.0532 725.7225 338.9478 740.9405 337.9255 743.8226 332.4608 749.7575 328.0422 752.6156 322.7129 748.4064 316.6409 750.6178 311.3006 746.085 300.3316 758.4292 300.2395 760.7188 300.2214 762.1004 300.2219 770.7274 300.1479 774.29 300.116 782.1693 299.9428 791.6312 299.7676 795.203 299.7 795.8517 299.6851 796.1436 299.6804 798.1773 299.6478 798.3534 299.6449 799 299.6357 798.125 308.0763 796.9999 313.9616 795.1251 321.9005 792.8932 329.0825 792.8846 329.1101 792.5373 329.4633 791.6874 329.3664 791.3702 329.3303 789.7743 332.1113 787.4005 340.7763 782.8171 353.2839 780.0957 361.7077 779.9619 362.2441 776.9508 374.2988 774.094 382.2075 770.1579 390.1851 765.4858 398.2959 763.3153 398.4922 762.1805 398.6372 758.0524 399.1639 741.3685 401.3427 740.8782 401.4012 727.9912 402.935 707.1477 405.4533 696.0342 406.8301 693.2374 400.2103 690.2091 398.6771 689.2947 394.856 690.165 393.3964 693.2605 395.1862 696.181 392.7794 697.0698 388.5971 703.6889 389.6092 705.3742 385.6879 710.9733 384.6234 710.6689 380.0512 704.2824 372.0308 709.0388 367.4013 709.8074 363.9996 706.977 359.2521 704.2777 356.5426 698.7291 347.8588 697.3913 341.0532 Z" id="fips-24047"/>
<path d="M 502.5478 233.5397 510.3519 228.7295 513.9281 229.2266 513.9873 238.5973 521.141 239.8185 529.7463 239.7626 530.8942 241.5917 530.3037 244.8048 530.3365 249.7311 531.7527 257.222 533.3965 261.0562 534.1745 264.2031 533.2702 270.1045 533.507 278.0732 533.0796 281.9153 533.4092 284.2642 535.171 289.8976 537.5918 294.9244 544.288 302.2197 544.2531 302.9925 544.4985 303.3292 545.1733 304.2548 547.8347 306.3273 551.63 310.6515 553.9388 314.9636 555.6345 316.4673 556.5473 316.8566 556.9355 318.189 556.8103 322.9861 553.5718 327.6614 550.9935 331.8706 548.5596 331.5089 548.5032 331.5005 548.3065 331.5468 545.0775 332.3069 544.1256 331.7306 542.1327 330.5239 542.0986 330.5033 541.6269 331.6549 538.5926 331.1282 539.3912 327.3835 536.0513 320.4421 530.1328 314.6098 526.6254 315.2444 524.7255 312.713 518.6294 308.6909 516.6647 308.4566 513.7968 304.0531 508.3351 299.0435 508.7334 297.0598 504.7553 291.079 506.8543 285.0978 504.513 282.6966 505.0886 278.7728 503.5651 272.379 505.0372 268.0386 505.0774 263.8161 503.9694 261.5529 501.3714 259.4448 501.5928 256.6543 502.9159 254.8096 502.9951 253.4949 499.9015 252.0628 501.8049 250.833 502.4034 249.0555 500.5475 247.5693 500.9967 244.1772 499.7317 242.2355 499.8675 241.7983 500.2399 241.1219 501.2427 239.0227 501.2228 238.4888 500.8884 237.4542 500.8612 237.0771 500.9894 236.6378 501.1978 236.4446 502.43 236.448 502.8205 236.2511 502.9695 235.8813 502.8216 234.6307 502.8168 233.8977 502.5478 233.5397 Z" id="fips-24009"/>
<path d="M 530.6509 119.5648 529.4986 119.5282 527.8189 116.809 527.8123 116.806 523.1503 114.696 522.0594 114.202 522.0322 114.2145 520.4432 114.9481 520.4509 114.9636 521.7301 117.5538 521.8717 117.8404 525.3181 121.414 524.3894 123.4349 524.3994 123.4456 526.0309 125.1998 526.1491 125.2269 529.8056 126.0647 529.8128 127.5156 526.98 129.7686 522.1023 127.8371 521.566 127.6016 521.1898 127.4762 519.9745 126.1007 515.9343 121.1802 514.695 120.4878 510.1095 117.8249 507.3073 116.3031 502.8693 113.7716 500.32 112.3267 498.1435 111.1273 498.1208 108.9296 498.1271 93.4406 498.127 91.495 498.106 89.3828 513.3207 89.3624 521.1828 89.3358 523.3654 89.33 527.9687 89.3102 530.5516 89.3347 530.5588 92.9199 530.5613 93.1458 530.5757 103.5931 530.6288 106.6763 530.6509 119.5648 Z" id="fips-24510"/>
<path d="M 364.1756 123.8312 364.9248 123.5309 395.3229 105.7935 395.6803 105.5642 399.4884 103.2999 416.3104 93.406 413.0196 96.3722 415.9828 102.7439 421.376 107.6312 422.3589 111.1648 423.0433 113.1156 427.8975 113.7077 433.8541 116.4744 435.3789 119.4482 438.3683 120.2942 440.5887 124.3145 444.6801 127.4712 444.8381 133.2897 446.9129 136.8131 451.0519 137.788 450.748 140.717 454.9797 141.5004 453.7474 144.3138 459.0258 143.3192 461.0757 145.234 461.5473 146.0302 466.3024 145.0547 462.925 148.0659 461.0624 154.2196 454.8945 164.8304 451.2916 171.0044 450.7781 171.8911 447.79 177.0394 447.8775 180.9154 445.7025 183.2567 444.6801 182.1834 443.6951 181.1855 443.3728 180.8374 439.6663 177.1698 438.8219 176.279 438.5512 176.5506 436.4252 178.6827 433.2949 181.7521 430.7419 184.2542 429.7089 185.2663 428.0466 187.0159 427.3605 187.5908 424.603 190.3677 424.5962 190.3614 423.1991 189.0505 422.4344 187.3356 421.4007 185.5037 419.8111 183.4376 419.5284 183.253 419.0071 183.0584 416.454 182.5413 416.1665 182.5166 415.9679 182.6774 415.2669 182.6504 413.273 182.3388 412.3185 182.6341 410.6638 182.7865 409.7664 182.527 409.57 182.2946 408.5474 181.9418 408.1505 182.1707 406.3555 181.7207 405.7352 181.2455 405.1265 180.073 404.8415 179.735 404.5523 179.7196 404.4319 179.8149 403.9717 180.5501 401.2896 178.3139 401.5685 176.8358 401.4088 176.5111 400.7289 176.0443 400.2536 174.4921 400.9675 172.4156 401.8528 171.635 402.2736 170.4121 402.0291 169.3007 401.6045 168.8394 401.6009 168.8356 400.3662 168.111 398.447 167.6593 396.8875 167.1446 393.6026 164.2515 392.1888 163.5481 390.4512 162.958 389.6974 162.9065 388.0345 161.9004 387.305 161.5977 386.334 161.1946 386.2819 160.8517 386.0137 160.669 385.1584 160.3806 383.3574 160.5658 381.6713 160.583 380.2645 160.7844 378.9095 160.7255 378.0094 160.3692 377.0076 160.5512 374.5849 159.8854 374.0983 159.915 373.617 159.9443 371.6753 159.4803 370.2849 159.3665 367.7396 158.4822 364.9741 158.0294 364.0119 157.731 363.4318 157.3958 363.2245 157.1403 362.072 154.8873 362.0199 154.7854 361.4992 153.3618 360.6904 151.5495 359.9354 150.3111 359.1318 149.4611 357.4972 148.5828 356.646 148.3643 353.8559 147.2656 353.0342 146.7183 352.8481 146.3526 352.2187 145.1162 351.8503 142.9175 351.7844 141.2182 351.7703 140.8539 352.2073 140.3449 352.8889 137.4373 353.7697 135.1715 354.8246 133.4255 355.8123 132.61 359.259 131.8051 360.5878 131.0069 360.8117 130.7021 361.2416 129.6794 361.092 128.0387 361.5205 126.5665 362.1539 125.7783 364.0002 124.2122 364.1756 123.8312 Z" id="fips-24031"/>
<path d="M 624.7985 87.8993 628.347 89.9417 631.664 88.2437 635.5604 89.8252 638.369 89.0528 639.0579 89.9133 643.85 90.1914 645.6684 91.349 648.9162 89.6983 651.1007 90.4306 653.4188 88.926 655.4158 88.1689 656.7431 86.4825 657.6041 86.2696 659.2201 86.8396 659.8992 87.8759 666.893 87.2539 666.8956 87.2896 668.2616 105.9358 669.1189 117.6223 660.1467 118.689 654.134 115.1123 649.1203 114.7452 647.9657 117.0108 647.4878 117.03 647.2193 116.9361 647.1214 116.6944 646.9294 116.6043 646.5309 116.7949 645.9302 117.1511 645.7345 117.1123 645.5839 116.9203 645.4077 116.2973 645.1667 116.0771 644.8155 116.036 644.5826 116.1333 644.3855 116.4057 644.334 116.932 644.3572 117.2326 644.4561 117.4627 644.3942 117.5745 644.2555 117.6497 643.7516 117.7041 641.1079 118.2789 640.2304 118.5639 639.8714 118.596 639.569 118.5314 639.1414 118.387 636.0935 119.7085 635.6137 119.692 635.3886 119.5738 634.6927 118.8182 634.1238 118.7575 633.3395 119.2532 632.9141 119.1964 632.1647 118.9315 631.4112 118.1533 630.7647 117.9326 630.2979 117.9864 629.5367 118.3044 629.2322 118.3202 628.9736 118.2752 628.7311 118.1986 628.5161 118.1113 628.3215 118.0429 628.1902 118.0157 628.096 118.0305 628.0107 118.1211 627.9597 118.2477 627.9474 118.4453 628.0218 118.8718 628.0044 119.1092 627.9419 119.3196 627.7875 119.5069 627.6583 119.589 623.7838 119.4323 621.8322 122.3821 620.6267 122.5477 615.3932 126.3724 613.2286 130.5473 614.0211 132.3229 617.2132 133.2012 618.4325 135.6853 617.0684 137.3839 611.0021 140.8945 612.6622 143.0693 608.7811 145.7194 604.701 150.3129 597.3565 153.3853 595.6943 153.2001 592.7207 152.8684 589.2389 155.365 588.0691 160.2767 587.9281 162.0199 587.7656 164.0301 587.6341 165.6553 588.3923 169.4296 589.8122 171.8035 588.2998 172.8541 584.2208 170.9071 582.2473 168.51 582.5554 165.9947 583.1612 164.8185 583.2386 164.6681 584.2725 161.1374 584.2893 161.08 584.1514 156.0379 583.8351 154.0604 580.2884 144.3101 578.8566 142.0563 575.6922 141.5242 576.3697 136.9601 577.7944 133.4779 579.7131 130.9091 580.5648 129.1435 583.9273 121.2366 586.1708 114.5997 587.609 112.7855 589.0806 112.7643 592.1682 109.165 592.9078 107.6743 593.5775 106.0743 593.7334 104.2824 593.3148 103.4405 592.0717 102.9006 591.9565 102.2046 592.1424 101.3113 594.8374 98.3462 596.7548 97.4534 599.2871 97.7881 601.4781 96.3666 600.8028 95.4635 601.155 93.9225 604.4654 91.6239 605.491 88.9974 616.3393 89.2996 619.3694 90.0254 621.1541 91.2886 624.0859 90.232 624.8236 89.966 624.7985 87.8993 Z" id="fips-24029"/>
<path d="M 523.3689 8.5485 532.6476 8.5107 537.1289 8.5016 545.9565 8.496 550.1292 8.4917 550.1469 8.4685 552.6959 8.4752 554.255 8.4791 556.9224 8.4471 557.0113 8.4469 582.0159 8.3433 583.118 8.3379 583.1545 8.3376 586.8606 16.4672 593.852 22.5339 598.553 31.8942 605.9816 40.8395 608.0696 43.7662 609.5979 45.7908 611.451 49.4734 607.8304 50.9117 604.112 60.3786 604.7185 62.5407 606.3832 64.359 607.5204 64.9706 610.1999 64.5502 612.2229 65.1874 614.2298 70.4548 614.2265 71.492 610.6391 74.0615 610.2629 73.6919 606.8807 74.329 604.2872 76.2052 603.3909 77.6877 599.0394 81.3935 596.8226 81.175 594.5719 84.4478 593.0537 87.8321 591.1447 88.2319 589.8886 90.1637 585.2029 93.6137 582.3835 91.6324 580.4606 87.5066 582.0261 81.7868 585.0372 76.7622 583.8562 69.6593 580.1933 71.2467 580.4043 75.5322 579.661 79.972 577.1226 82.0216 577.1801 85.3553 574.1854 90.2109 577.5537 92.873 579.4206 96.8593 575.9512 100.5637 574.9606 105.9434 572.3 105.6131 573.5341 101.9015 571.8849 99.1243 572.4192 94.3128 568.0657 92.5032 567.9274 92.4457 570.5772 90.9906 570.9008 87.0385 568.876 85.2415 568.6413 85.2785 566.3928 85.6332 562.5583 84.5064 561.397 84.1649 561.2724 85.1469 560.8624 84.0052 558.7409 81.6253 558.451 77.8537 556.0643 69.0089 549.9471 64.7014 547.7604 62.4289 547.0622 59.2641 536.7764 53.6031 533.9562 54.1083 530.0633 49.5857 527.2583 39.3607 525.1815 37.1807 524.1568 33.2875 523.8725 22.1472 523.3689 8.5485 Z" id="fips-24025"/>
</g>
</svg>