<?xml version="1.0"?>
<svg xmlns="http://www.w3.org/2000/svg" version="1.2" baseProfile="tiny" width="800" height="1200" viewBox="0 0 800 1200" stroke-linecap="round" stroke-linejoin="round">
<g id="cb_2018_us_county_5m">
<path d="M 7.4726 997.8014 13.6322 999.9013 19.6848 998.6567 27.4034 994.2843 36.7682 993.7678 45.4782 994.9854 48.2832 992.9117 48.7315 995.8314 51.4682 998.9392 57.9288 999.8902 65.5487 995.803 70.7828 999.4003 73.6455 1000.7822 75.3132 1009.5873 73.5218 1015.6083 72.3217 1024.3246 77.0495 1023.793 80.7756 1025.4104 81.1817 1028.4922 83.9775 1026.5132 88.037 1028.633 94.2863 1021.6761 105.0577 1034.0577 111.4293 1041.4272 109.2428 1044.4012 104.4355 1051.0067 124.2023 1065.8745 124.3122 1065.9553 131.4827 1071.113 129.8976 1072.7793 126.2236 1078.7142 125.0929 1081.5526 125.0179 1081.7408 124.8222 1084.2002 125.2574 1088.9558 125.7615 1090.4552 126.3914 1091.2973 128.2486 1093.78 130.2277 1092.2989 136.2346 1092.236 135.0703 1095.5175 132.8564 1097.1991 129.237 1097.4068 127.5219 1098.7225 124.5696 1102.8417 124.7286 1104.4581 123.2979 1107.253 121.466 1107.9464 121.1496 1107.5745 120.2041 1107.6416 117.2212 1108.9891 115.914 1110.7442 116.5046 1113.3816 117.6482 1115.3529 118.0096 1118.4995 115.5438 1120.1522 112.7894 1119.6352 109.0777 1123.1723 108.0145 1123.97 106.653 1122.9206 106.0995 1122.7586 104.206 1122.204 100.9872 1123.8391 98.2103 1122.8615 97.7531 1122.7005 94.2194 1124.6056 93.9222 1124.9176 90.4267 1128.5872 88.5816 1131.6259 86.9808 1138.4371 83.8701 1142.5885 83.6407 1143.2825 82.0024 1148.2361 82.5049 1151.3772 83.8641 1153.4353 85.4394 1155.8198 85.2329 1156.9654 82.9052 1161.7749 79.7391 1166.5694 82.176 1170.8608 81.0076 1171.6796 78.0639 1170.2512 75.4774 1174.4329 75.5736 1179.448 73.1457 1181.2944 73.1395 1182.7819 72.2813 1184.9426 69.0185 1188.9953 68.7903 1189.2787 68.579 1190.5979 66.5252 1195.1756 65.0575 1196.7576 58.8561 1199.4694 58.7549 1196.4146 58.5092 1195.8342 57.9427 1195.3004 55.6643 1195.3246 53.0188 1195.6396 52.1621 1195.5642 52.1415 1195.5624 51.3691 1194.4762 49.2362 1193.8941 48.4916 1193.6908 48.2581 1193.4387 47.2387 1191.0608 46.5817 1190.1687 46.2991 1189.9393 46.2684 1189.9145 44.0685 1189.2283 43.376 1188.1853 43.1484 1187.8425 41.1878 1186.1926 38.3061 1183.2854 36.0917 1181.7167 34.7667 1180.4508 34.5214 1179.8973 34.306 1178.9619 34.208 1177.346 33.6642 1175.9916 33.5102 1175.0031 34.525 1172.0227 34.8442 1169.7074 34.7629 1168.9943 35.2034 1168.1585 35.4444 1167.9881 35.6504 1167.8424 35.7593 1167.4898 35.5361 1166.0893 34.8878 1164.1579 34.9817 1163.6135 35.1268 1163.3987 35.825 1162.9827 36.4374 1162.8383 36.7177 1162.4704 36.7721 1161.8919 36.6183 1161.4272 36.5464 1161.2099 36.4824 1160.62 37.3557 1156.5899 37.5366 1156.3005 38.1281 1155.8865 38.8664 1153.9076 38.8783 1153.6766 38.5881 1153.1214 38.4581 1152.8727 38.0317 1152.657 37.7459 1152.6576 37.6327 1151.021 37.3428 1150.354 37.3344 1150.2764 37.328 1150.2161 36.3296 1149.567 36.261 1149.5225 35.9143 1149.3527 35.5903 1149.2425 35.3313 1149.1546 34.2197 1148.7772 33.4942 1148.9072 33.2189 1148.7329 32.7429 1147.1554 32.7929 1146.8707 33.0651 1146.6883 33.1713 1146.4639 32.3792 1145.5957 30.6624 1144.869 30.0403 1145.2943 29.426 1144.9781 29.1548 1144.682 29.1232 1144.0191 28.8427 1143.0871 28.4891 1142.5429 28.4894 1142.5399 28.388 1142.4605 26.6637 1141.1109 24.8657 1140.424 24.6518 1140.2267 24.5039 1139.0468 23.9852 1137.5831 23.2591 1137.1805 22.0534 1136.8463 21.5648 1136.3788 20.17 1135.0438 19.9054 1134.5169 20.6259 1133.6345 21.14 1133.1342 21.3587 1132.4309 21.0017 1131.46 20.5721 1131.3338 19.9876 1131.4564 19.5241 1130.9239 19.0078 1130.47 19.1861 1130.0202 19.1833 1127.3213 18.5071 1127.2923 18.3083 1127.1716 16.9135 1125.9628 16.8445 1125.903 15.5212 1124.5529 15.3614 1124.1518 15.2769 1123.1811 15.1865 1122.5769 14.3212 1122.3865 11.4353 1123.0418 11.1247 1123.4199 10.4409 1123.0083 10.1992 1122.1577 9.7111 1121.249 9.004 1120.9991 8.3819 1120.4647 7.2622 1117.351 6.9718 1116.5431 7.1498 1115.1928 6.7352 1113.9921 5.7021 1112.1602 5.2274 1111.5268 5.2385 1111.3395 5.0122 1110.6823 4.9332 1110.4531 4.9666 1109.3007 5.1352 1108.6205 4.6709 1107.8479 4.6694 1107.3031 4.7523 1106.7738 5.6591 1106.4305 5.7434 1105.6201 5.705 1105.2 5.1367 1104.5525 4.9706 1104.0223 4.9204 1101.7449 5.0254 1101.0912 5.841 1099.7287 6.823 1099.0399 7.5124 1098.7676 8.2428 1098.0818 8.8026 1097.0922 8.6295 1096.1443 8.761 1095.5573 10.3016 1094.6633 10.3384 1094.0752 10.2399 1093.3712 9.4464 1092.1129 9.252 1091.3139 9.4018 1090.4515 9.8769 1089.6104 10.6534 1086.9413 10.4828 1086.0875 9.9137 1085.0922 9.892 1085.0954 9.5968 1085.181 8.6266 1084.8847 8.2364 1084.5672 7.9989 1083.904 9.2693 1083.0206 9.3951 1082.5177 9.0936 1082.1464 8.9921 1081.5308 9.5965 1080.1596 10.5911 1078.4179 11.151 1077.996 11.4597 1075.628 12.1079 1075.1649 11.9945 1074.7363 11.7134 1074.3558 12.3163 1072.7106 12.3408 1071.6684 11.8136 1071.2142 11.7348 1070.9992 11.7963 1069.9755 11.5851 1069.1919 10.7464 1068.423 10.5978 1068.1625 10.5717 1067.749 10.6376 1067.1565 10.8713 1066.588 10.8783 1066.5868 12.1171 1066.3793 12.2271 1066.6409 12.2432 1066.6668 13.1939 1063.9207 12.9974 1063.5836 12.7146 1063.4443 12.3903 1063.0191 12.265 1061.4981 12.0047 1061.061 11.103 1060.596 9.821 1058.9478 9.5062 1059.0241 9.0058 1058.5418 8.8646 1046.4608 8.8306 1043.5417 8.1747 1022.7669 8.1761 1022.492 8.2003 1019.7847 8.2552 1018.917 7.9887 1008.5312 7.4734 997.8186 7.4726 997.8014 Z" id="fips-23031"/>
<path d="M 583.7148 604.5368 605.8648 600.1759 600.4442 577.2359 602.1619 576.8466 584.2424 498.5799 613.0638 491.3816 612.0103 487.3394 617.5209 490.2457 630.5045 487.1182 630.9262 487.7578 637.5517 487.7687 640.3346 490.4156 644.9163 491.6082 646.8204 491.7821 646.9628 491.6992 647.2724 491.0324 647.2509 490.2823 646.1836 489.6388 644.7738 487.5108 644.2053 485.8733 644.021 484.5749 644.9184 484.5577 645.3519 484.7014 648.6648 487.1507 649.5191 488.71 651.1173 492.4925 652.1706 495.0437 655.5258 500.3117 657.2619 502.0679 661.2488 504.9898 662.3058 504.2703 661.5221 502.3538 662.3707 501.9187 663.9088 502.8187 668.8576 506.8239 673.2409 507.8707 677.4757 509.8887 678.3225 509.8333 678.4263 509.2316 680.38 508.9859 682.5335 509.6756 685.6897 511.6834 689.3558 511.8799 690.9687 510.6325 691.4289 509.7626 691.3114 509.1348 690.9125 508.6009 691.1461 507.9784 693.6385 507.1273 697.7115 506.9275 698.8157 507.4047 702.7149 512.567 703.5508 513.8363 703.9259 515.7273 704.531 521.7705 703.723 524.3093 703.1607 524.3642 703.0206 524.2074 702.7108 524.1621 702.4124 524.2671 701.9889 525.6718 701.8733 527.0773 701.9259 527.6231 702.5064 530.0181 704.7791 532.4133 705.6024 534.4792 705.5994 534.8535 705.417 534.9006 704.7238 534.0718 704.3978 533.8555 704.0922 533.8482 703.8304 534.6702 703.4463 535.1087 703.0679 535.0444 699.1655 534.1899 696.6748 533.1993 695.2446 534.1464 695.1541 534.429 695.2054 535.5805 694.0431 536.3712 691.9204 537.3539 689.7374 538.1378 689.0442 538.5103 688.9179 538.8311 689.0481 539.6924 689.7271 541.6843 690.7857 543.0373 692.2335 544.3906 693.136 546.3468 693.2275 547.0395 692.6762 547.6733 692.7928 548.7785 694.2427 554.3285 695.004 556.0304 695.4167 556.5306 697.8968 558.55 699.925 560.7456 703.4636 564.7564 705.6915 569.0185 705.6468 569.3568 705.1759 569.897 704.7421 570.0726 704.0744 570.0202 703.5338 570.5286 703.3203 570.826 702.7569 572.298 702.9173 573.4211 704.0447 575.005 703.5556 576.851 702.7253 579.2214 701.3964 580.7551 699.2232 582.5266 698.6886 583.0288 698.6173 583.2487 698.6805 583.7169 699.4897 584.8803 699.5014 585.6431 699.3064 586.3527 697.9751 590.1692 696.9724 591.0476 696.9352 591.8861 696.862 591.981 694.3366 593.1265 693.825 592.684 693.4493 592.5648 693.1769 592.6878 693.0183 592.909 692.4845 595.0999 692.5152 595.4745 692.8448 596.1263 697.6245 605.5718 697.9167 605.9365 698.2754 606.156 699.581 606.355 702.2378 610.1666 702.8107 611.3586 703.9597 614.7933 704.4541 617.7876 704.516 619.3879 708.7666 623.094 709.2982 626.5002 709.1698 627.0713 709.1784 627.6216 709.3338 628.4196 712.0683 629.9665 713.4155 630.4526 718.6206 635.9708 719.3414 636.5902 720.8696 637.4086 721.796 637.6552 721.976 637.6087 723.8859 635.9192 726.0435 633.7632 728.5243 632.2378 729.9167 631.7091 730.3033 631.3524 730.5447 630.8793 730.6267 629.8274 730.1141 629.3543 729.1895 628.8634 729.0082 627.7095 729.6152 625.6229 730.25 625.2119 731.1114 624.9099 731.0413 624.0791 730.6912 623.6411 730.6328 623.1354 731.1931 620.4931 731.344 620.1967 732.5184 619.2576 734.9401 619.4732 736.7932 620.3427 737.5281 621.0557 739.6881 622.2125 740.2177 622.8846 740.5781 624.529 740.9014 624.8169 742.3783 625.4965 742.9418 626.3176 743.5058 626.8265 744.3092 626.799 747.9774 624.6242 750.4661 626.0919 754.9643 626.3592 756.25 626.8047 756.6084 626.9857 756.9012 627.3055 759.3403 631.1821 762.6398 635.0861 765.9312 640.4523 769.5387 650.4683 770.3371 652.2958 767.434 653.1554 765.2045 655.6762 768.7317 658.8144 772.229 662.9597 773.6683 665.7641 774.1448 668.7437 775.0502 670.727 777.7696 674.5715 780.9491 685.1402 781.1511 685.8112 782.1152 687.2992 788.3025 692.9416 790.473 693.1704 791.7558 694.5877 791.9843 697.1219 791.5652 698.8069 790.9232 699.0037 790.7857 702.8174 792.7079 708.1774 793.2966 709.7656 790.4683 711.9538 789.8031 713.2062 791.9172 719.7275 792.7286 722.2251 794.1492 721.7803 794.1399 721.0932 795.7762 720.0825 798.5547 719.748 799 720.4638 798.8859 721.2542 796.8912 723.2857 795.1623 723.748 794.5971 723.6999 793.0694 724.3501 792.0456 724.8979 791.4524 725.7226 790.3698 727.8537 785.667 733.3256 784.4812 734.2329 781.1593 735.1561 778.832 733.4599 777.4681 734.0067 777.3215 737.1025 775.4415 741.594 773.5029 742.1953 771.7274 741.4658 770.4939 741.8679 769.643 748.414 764.9311 754.5298 762.9143 754.9983 761.2432 757.6931 759.9454 761.732 760.0766 762.0923 757.1161 763.7915 754.7882 763.3986 753.8546 763.7028 752.8287 765.6735 752.9897 767.7948 753.3919 768.3939 748.8316 770.204 744.7065 770.8304 742.4039 773.8303 736.8187 774.7352 739.5297 779.8406 733.3755 781.4058 731.6272 781.9668 729.1869 781.764 727.5726 778.7329 727.652 777.8934 729.9353 777.6488 733.1631 771.8209 733.332 767.9501 732.1401 766.3504 729.9431 765.0365 730.1314 756.2851 731.616 754.7671 731.763 752.3154 729.9354 751.8679 722.3433 754.1756 720.7543 754.3164 717.539 756.4027 712.9109 756.0144 711.2967 759.2292 715.9867 762.488 716.4122 763.5719 717.4026 764.2448 718.7547 767.0935 719.6504 772.7271 718.6868 774.6994 716.9009 776.0727 715.108 774.1271 714.7013 774.2484 713.3707 778.0008 712.8016 780.8227 711.5704 783.1385 710.3276 782.4145 708.9162 780.6539 708.5708 779.4538 707.0538 779.1328 704.085 780.0965 703.3597 780.7966 703.1674 781.6032 701.3786 782.2615 699.3907 784.39 696.8173 787.1438 695.0317 788.5805 694.9217 793.8164 689.7337 794.4061 686.7975 791.6814 685.9181 789.7286 678.6706 792.8045 679.702 793.8493 681.2307 798.5752 680.1233 800.8656 689.3662 806.5377 691.7489 810.0388 687.4976 816.3289 684.4561 819.4204 676.6105 823.8002 675.0814 819.7863 667.2813 813.0885 664.474 807.7532 663.5758 802.531 662.8051 799.7853 662.0631 799.3354 657.155 799.5108 655.1202 800.4538 653.9119 802.0756 654.6878 805.3957 653.8225 808.3911 651.7657 811.0413 650.0608 810.1625 647.9004 810.8092 646.0694 810.5114 646.1523 808.1148 646.673 807.3517 646.0598 802.5695 643.8795 797.8875 642.8886 797.095 641.2474 796.6542 639.7498 798.0645 638.648 801.3678 639.5581 805.9919 636.2765 811.3425 638.5151 816.7159 635.869 816.4351 633.8451 813.7979 630.1435 814.6719 627.7073 819.6687 629.1555 821.846 625.1064 829.5353 625.1315 830.742 624.4783 832.0747 621.7786 830.669 619.8642 827.7029 619.4017 827.8933 618.1494 828.4086 618.1669 830.2451 617.29 834.8167 615.8571 839.0946 613.4296 832.2419 613.0742 829.2606 611.5093 828.4715 610.5286 828.825 609.7161 829.636 610.3086 831.697 609.5823 834.2928 608.5918 834.4826 606.4682 833.2241 604.827 833.1238 604.5649 833.364 599.5668 817.4482 601.2928 813.3642 597.6651 809.5174 593.7503 791.4772 592.4396 785.9616 597.0431 785.0826 596.132 780.5469 592.4738 762.0031 588.8663 762.7249 574.6759 690.3573 577.237 689.8236 598.4846 685.5781 595.1379 667.1855 589.8716 634.4198 583.7148 604.5368 Z" id="fips-23029"/>
<path d="M 630.5045 487.1182 617.5209 490.2457 612.0103 487.3394 613.0638 491.3816 584.2424 498.5799 543.7236 508.5255 544.2368 510.3103 514.9018 517.164 511.0743 515.8772 510.6606 515.0249 510.6944 491.3295 511.5581 466.15 511.6588 440.5701 511.7305 435.7969 511.3979 415.6212 510.6148 413.476 510.4355 390.7388 509.5507 388.7385 509.603 366.349 509.3687 295.9525 460.6012 295.8794 460.5943 292.3531 437.1101 292.2509 436.825 243.9155 267.6581 242.2221 210.8324 241.5185 211.5996 236.429 216.3342 208.3177 216.8819 207.4149 225.3771 195.5294 226.6996 193.4962 239.8414 175.103 250.5434 159.6702 298.4753 91.915 322.4828 57.9856 362.7715 1 363.5847 1.6964 366.5549 3.0714 370.6183 2.1666 371.2746 1.8961 373.8634 3.4372 375.3965 3.4472 377.175 4.0525 381.6098 5.9862 384.2254 7.6547 386.0139 8.9258 386.2248 9.1705 386.3323 10.0768 388.9645 10.9209 389.3074 10.8975 391.8961 9.2233 392.922 8.4596 393.9807 8.6775 396.1058 9.9561 396.3349 10.2259 396.9584 11.4538 397.3876 15.3359 396.9649 16.4026 396.3624 17.1994 396.4283 17.712 396.6511 18.0381 396.4755 18.2435 396.1948 18.2796 395.7888 19.7209 395.9971 20.4466 396.2506 20.8355 396.8157 21.2569 396.9137 21.601 396.0455 21.9715 395.5846 21.9005 394.199 23.5495 394.242 37.3041 393.9769 40.4898 394.9861 43.0755 394.5655 44.9044 394.3266 45.3093 394.2964 46.3716 394.3818 46.7343 394.6741 46.8795 394.7849 47.1676 394.9064 49.0303 394.7014 50.1541 394.8581 51.1859 395.1789 51.8876 395.3123 53.8442 395.1199 54.9492 394.8879 55.2043 394.6916 55.8284 394.6196 56.5091 394.6934 56.7033 396.5598 59.862 397.8068 60.9931 398.4357 61.1149 399.5919 61.7204 403.2454 63.9757 405.3679 65.515 407.5075 66.8031 408.62 67.6815 409.16 68.3335 410.2241 68.7744 411.2021 70.7274 411.7067 70.7542 412.6491 70.4136 412.8043 70.5952 412.9391 71.4615 413.1936 71.5838 413.4679 71.491 414.668 70.5199 415.9229 71.6553 417.0152 73.0213 417.364 73.1036 417.6453 72.8609 417.9753 72.8809 418.7892 73.6334 418.8777 75.0525 419.4132 75.198 420.7379 76.0335 421.5679 77.505 422.0896 78.0753 422.3571 78.1636 422.7712 77.3899 423.346 76.9732 423.8073 76.9496 424.3738 77.1516 425.8144 76.8504 426.6527 75.9657 427.2911 75.4741 427.9221 75.2442 429.4555 75.172 430.4471 74.7861 431.2089 74.1063 432.1269 72.9833 435.3904 70.9706 438.8919 68.1021 440.4938 67.9486 444.7658 66.4318 446.7789 66.5042 447.7516 66.2372 450.0534 65.0603 451.3295 63.8491 453.1623 62.5622 456.416 61.1631 457.2014 61.1445 457.7063 61.3257 458.1423 61.7694 458.7469 61.9445 460.9538 60.5767 461.5147 60.3267 462.0258 60.2645 464.2075 60.6994 466.4068 62.3027 466.7994 62.4216 467.4476 62.1968 468.2953 61.5597 469.3861 61.4974 471.0628 61.0354 473.6693 60.7614 474.6376 60.5351 476.8361 59.3637 477.4089 58.8381 479.1508 56.5728 479.3995 56.1415 479.405 55.6102 479.2235 55.0792 478.5487 53.7929 478.5354 53.2431 478.8776 52.7364 479.6868 51.9169 480.0401 50.4604 480.3885 50.0038 481.4528 48.9714 482.2747 48.4079 483.6585 48.5436 485.6482 49.4594 486.8516 49.8515 487.2504 49.8575 488.1976 49.6499 489.5056 49.0484 491.4535 47.0026 492.4873 46.4201 493.5089 46.0563 495.4658 45.9038 496.1016 45.9843 497.4546 46.4941 498.5019 46.5911 499.3055 46.4387 500.7435 45.8221 501.5096 45.6451 502.3578 45.8426 503.1016 46.3687 503.5331 47.0766 503.9175 47.9727 504.2612 48.7739 504.5988 49.1667 506.3458 49.7302 507.3859 49.4712 509.369 49.8904 510.0545 49.8819 510.7267 49.5425 512.4618 48.2754 512.966 48.0866 517.2868 48.5743 518.5331 48.5645 519.3613 48.3185 519.7034 48.0551 519.8838 47.632 519.9248 47.0296 519.7921 46.4863 519.6728 46.1119 519.3533 45.6253 518.3405 44.5095 518.1836 44.1227 518.2254 43.529 518.7718 42.7837 518.8516 42.4149 518.224 38.8241 518.2826 37.5554 519.0011 33.9169 519.3166 33.1224 520.0774 31.9266 520.8562 30.9549 521.6942 30.2013 522.4648 29.7041 523.647 29.2991 527.1526 28.5401 528.33 28.4163 529.5706 28.5045 532.0308 29.4931 533.1723 29.6818 533.7386 29.5231 535.2239 28.592 535.8462 28.3892 536.8121 28.3349 537.8924 28.8177 538.9691 29.8188 539.4879 30.1416 540.3369 30.4628 543.5153 30.4545 544.9618 29.9813 545.9916 29.7522 547.2913 30.2881 547.8435 30.9035 547.9325 31.1655 547.9438 32.0214 548.1781 32.6134 549.1442 33.6138 549.732 33.9413 550.35 34.0814 551.6389 33.9051 551.9948 33.9905 556.8857 36.7419 559.6177 37.1318 560.7683 37.7621 561.0635 38.1042 561.2737 38.8214 561.093 40.8719 561.1406 41.5029 561.3244 42.0078 562.6054 43.5812 564.1771 45.765 565.8193 46.2675 566.3461 46.8204 567.0853 47.877 567.4176 48.1432 572.4822 51.0044 574.2745 52.2971 574.7836 52.8432 575.2829 53.7265 575.5731 54.9741 575.9395 55.6087 578.2149 56.4976 582.7883 59.408 583.4277 59.9602 586.0758 61.4714 586.7565 62.4475 588.5931 64.6204 590.1258 66.9597 591.3099 68.5356 591.6282 68.8064 592.394 69.2647 595.131 69.8429 595.5604 70.0579 596.6096 71.0057 598.0675 71.8952 598.7079 72.8192 598.903 73.8291 599.0514 75.8238 599.281 76.5327 600.1687 78.0286 600.4685 78.272 601.2057 79.5504 601.8362 81.3491 603.5127 83.8835 603.742 84.23 604.866 85.0399 606.6228 85.8712 607.9532 88.7296 608.3692 89.4093 609.8532 90.817 610.0614 91.1704 610.4704 92.2507 610.6486 93.8639 610.6561 95.3324 610.7604 95.8064 611.3323 96.9886 611.6725 97.3917 612.1511 97.9123 612.7468 98.3131 614.1953 98.7172 615.2786 99.1682 618.1934 100.7117 620.4685 102.4437 621.3141 102.841 623.0067 103.1605 623.4702 103.3744 624.3121 104.0027 625.3757 105.3854 626.5395 106.1113 628.4253 107.0532 629.1636 107.5784 629.3108 108.1721 629.3765 109.0464 629.4068 115.062 629.5824 119.0799 629.5023 121.9247 629.5944 125.1505 629.5111 126.1358 629.9754 158.6871 629.9915 161.0971 630.132 182.2386 630.3 190.2609 630.3403 192.2593 630.982 235.0336 630.9961 235.5503 631.9978 272.0003 632.2161 279.9359 633.151 323.196 633.558 348.6882 634.203 389.088 634.3019 398.3889 634.251 409.4679 634.3684 415.1882 634.5945 416.5177 635.0551 417.5948 635.1987 417.6306 635.5698 417.3702 635.8259 417.4177 638.9055 419.817 640.2811 421.9975 640.0156 422.8007 639.2961 423.7085 638.5472 424.1982 637.773 424.0687 637.5319 424.2462 636.8505 426.3859 637.0289 427.322 636.8561 427.4927 634.8828 428.289 634.0913 428.2849 633.7034 428.1575 630.3173 431.4577 630.2074 431.684 630.0781 434.1069 630.2911 435.3805 631.6836 437.9418 633.01 440.1725 634.2778 441.5912 635.2643 442.3499 636.3993 442.9818 636.9537 443.5263 637.7607 444.9685 637.978 446.0731 638.2004 446.4708 639.6914 447.7808 638.0438 448.7171 637.7116 449.1334 637.4631 449.2111 636.3328 448.992 635.4046 449.0455 634.9403 449.3318 634.8611 449.4892 634.8776 449.8764 630.8077 453.3839 629.9549 455.8066 630.5603 459.3834 630.246 462.6323 629.5609 463.2586 630.1259 466.5605 632.6642 467.8588 634.8587 473.1336 629.5298 473.7151 630.9039 482.7681 628.0942 483.4605 630.5045 487.1182 Z" id="fips-23003"/>
<path d="M 522.8933 916.3703 523.1282 915.6316 525.0584 913.5409 526.4567 913.2613 527.5097 912.4909 528.7441 912.523 531.9064 917.2005 531.8477 918.0261 530.4834 919.7019 525.1475 919.7253 522.8944 916.7956 522.8933 916.3703 Z M 523.8674 894.6958 525.1898 893.4517 526.9905 893.0176 531.3059 890.7545 533.0719 891.1781 534.6803 892.672 534.9332 893.5152 534.2107 893.6685 533.678 893.0078 531.4381 894.9046 530.207 900.4593 528.564 901.1168 522.3779 897.1026 523.8674 894.6958 Z M 498.4706 903.7872 499.5105 903.1279 500.431 892.1078 501.3231 889.1765 501.8161 886.1413 503.3029 884.321 504.9375 886.0871 507.6593 892.3731 513.4339 895.346 515.0075 896.3547 516.6304 899.2892 521.2223 905.1108 518.9329 909.0198 512.8841 914.898 510.7295 915.7482 508.7337 913.1828 508.9519 911.0184 507.1163 907.8031 502.5763 907.1218 501.6424 907.4808 499.298 907.3875 498.2238 905.8766 498.4706 903.7872 Z M 494.9837 916.594 496.4382 913.3478 497.2788 912.7568 498.7559 913.5871 500.0508 915.5722 500.3241 917.51 498.0864 920.2799 495.3113 919.2767 494.9837 916.594 Z M 492.9268 853.317 494.478 849.5531 494.2273 847.028 494.8772 843.3535 496.024 842.3183 497.0085 842.2015 498.2409 843.0026 498.7811 846.4462 502.6944 860.1462 500.5732 861.7531 495.5703 858.7297 492.5877 856.3321 492.9268 853.317 Z M 432.0665 882.857 433.2248 881.6766 434.3815 881.1413 434.7725 881.2192 441.3338 882.5263 445.7002 886.6436 445.8511 889.2244 443.689 892.0171 441.7618 891.7993 439.5283 890.5054 437.9882 889.4274 436.7557 888.9953 435.2924 888.3473 433.9822 888.237 432.3694 885.438 432.0665 882.857 Z M 436.9205 760.5518 440.4224 759.17 446.5367 762.7679 445.4503 765.8459 450.8867 766.9103 455.4031 756.2225 456.7473 755.141 461.2083 750.2075 469.7219 755.14 475.638 744.9195 492.7565 741.8429 508.9348 738.8398 507.0292 728.3041 503.4661 709.381 502.4972 704.3699 499.7739 689.3493 497.961 679.3165 522.1701 674.692 518.0276 651.2029 542.4194 646.4996 537.4902 621.8158 535.8565 613.3192 583.7148 604.5368 589.8716 634.4198 595.1379 667.1855 598.4846 685.5781 577.237 689.8236 574.6759 690.3573 588.8663 762.7249 592.4738 762.0031 596.132 780.5469 597.0431 785.0826 592.4396 785.9616 593.7503 791.4772 597.6651 809.5174 601.2928 813.3642 599.5668 817.4482 604.5649 833.364 603.6879 834.1672 603.7196 837.8402 600.3735 841.1612 599.0461 841.2045 596.7457 837.6703 596.0745 835.8392 595.0019 835.0445 594.1044 835.6257 592.4047 838.5094 593.5027 840.3374 589.6108 848.5189 588.543 848.4123 587.6462 849.2229 587.578 851.0603 587.9221 853.124 586.7169 856.6716 584.5578 856.344 583.2413 855.3408 581.4526 852.0082 577.7961 851.0713 576.1096 849.2239 576.0052 847.5516 576.4412 843.3663 575.575 839.0055 571.688 841.3548 568.7887 844.1975 567.0887 841.4315 560.6798 841.9359 560.0017 843.4652 559.2904 845.0693 560.5863 849.6969 562.1688 853.3197 562.4049 857.4774 558.8553 863.4398 552.5497 867.9732 552.3794 869.072 551.5599 874.3546 555.9465 875.2606 558.7382 881.9467 557.5822 882.5858 547.7991 882.9828 544.321 883.3861 542.7965 882.5551 538.228 881.0793 534.3518 885.8753 530.0594 886.4972 529.3399 884.6918 524.9738 882.4208 524.1071 880.9362 522.4916 879.7792 520.167 879.9233 517.9247 878.5147 514.3046 872.4087 513.973 869.7142 513.0236 866.8087 512.0734 865.8483 512.0806 862.0234 511.0943 860.889 509.1608 858.6644 507.9007 855.5909 506.9643 853.3734 508.9406 849.04 511.1465 846.4068 513.7191 845.2841 518.4471 844.6137 524.39 840.6218 525.1434 841.1044 525.8077 840.8998 526.2385 840.1698 526.0357 837.296 523.646 832.1292 523.4037 831.6051 522.0975 829.8706 520.4211 829.6339 519.7887 830.6068 519.4794 833.1561 514.8358 838.6679 513.7874 839.0983 512.5966 838.9955 511.4149 837.7042 511.6582 830.8494 512.2163 827.4175 510.3281 824.9868 509.6354 824.8271 508.6233 824.5938 507.2404 825.1443 506.2848 826.2903 505.5439 828.1315 506.5318 834.8165 505.5141 838.6654 505.4884 840.5792 506.1157 842.066 506.1206 844.0174 505.1366 844.3643 502.7565 844.1405 501.7655 841.3878 502.2522 838.8612 503.8063 837.0209 502.3121 829.2183 501.3274 828.7613 499.5264 830.0281 498.5512 834.2777 497.4044 834.9687 495.6531 834.5129 492.6535 838.4212 491.7517 838.767 487.7299 837.166 486.5818 837.3973 485.7629 838.4314 485.5184 839.6945 485.8497 842.2196 486.9202 845.2027 488.7267 845.8891 489.6363 850.4793 487.989 852.8732 486.1672 856.4904 485.4431 860.7131 485.5881 861.9699 486.02 863.3327 487.5434 865.3007 490.9974 865.5464 492.3845 868.1461 492.2426 869.2535 492.963 872.0482 494.7497 875.0728 494.6927 876.3958 492.7418 879.3024 493.0688 881.5803 493.9871 883.0675 493.6339 885.3285 492.8915 886.9106 488.2628 888.711 485.9327 889.6167 486.0327 895.1618 483.0333 896.9096 479.2717 899.8288 476.7033 905.1243 483.1558 907.6374 477.9328 910.5342 476.8768 913.485 474.4798 914.9272 474.784 916.713 472.8538 916.3148 472.3362 916.1192 469.9995 914.9771 468.9598 914.7293 467.6029 914.7559 467.6975 912.8356 462.9338 909.7862 455.7472 902.2838 455.8886 896.416 453.1777 892.2691 452.7685 887.1382 457.1896 884.1906 459.9196 880.0127 463.5661 875.1923 459.3477 873.4697 454.5866 870.5513 449.8083 865.6934 451.146 862.7612 452.821 861.1396 454.3796 859.6302 450.3688 857.0129 447.2656 857.4338 446.4476 858.1389 445.4098 859.9132 440.7907 863.3698 434.5029 862.1824 434.2743 860.9816 434.8627 856.0603 435.6743 851.9466 436.3928 850.991 436.5493 850.2944 436.952 848.5029 436.1974 844.9779 436.184 844.7656 435.6158 835.7152 436.8842 830.4827 439.5617 828.6486 439.9821 824.7879 443.1509 825.2802 443.1503 825.2753 442.6464 821.0478 443.0841 817.9665 444.0565 813.5898 442.7126 807.5148 440.4469 803.7568 439.4646 804.0006 438.747 796.1455 440.2771 792.1925 437.8282 790.8158 431.8156 780.4244 430.715 778.0212 436.9205 760.5518 Z" id="fips-23009"/>
<path d="M 210.8324 241.5185 267.6581 242.2221 267.3526 291.4368 264.8861 291.4319 264.0662 405.5238 272.6453 403.7881 279.2359 436.825 274.861 437.4227 272.2156 440.0747 268.6477 432.88 269.5583 430.5325 263.0281 432.4622 261.9648 431.121 267.9682 439.1971 267.4082 444.025 265.2611 444.4101 267.2651 450.7591 264.4489 458.4954 261.626 458.5899 263.8783 463.7803 260.9231 466.0407 255.6599 464.3798 252.6355 457.8025 249.4315 457.5041 253.0759 462.0968 250.9571 464.2512 251.8618 468.2825 246.2721 468.1823 243.3022 470.385 250.9647 474.1225 248.6815 476.7043 251.3196 478.2663 252.2049 483.083 257.9878 486.8191 261.0894 486.9647 259.9323 494.3154 265.8471 493.4373 269.8906 496.3813 266.0525 494.8549 264.8114 497.7601 267.9409 501.0203 264.1944 508.0295 265.5697 509.8423 262.0106 517.6498 252.6531 524.1287 267.0016 592.7962 269.9545 614.7362 270.0571 619.5307 275.1442 645.5523 281.3812 669.9836 301.7864 666.3587 305.7764 662.9828 304.9195 658.5308 332.8276 653.4083 337.408 677.1275 346.59 725.638 345.6651 726.134 349.2856 749.702 337.487 751.6572 334.4307 741.9549 326.2433 740.8212 324.4244 746.5877 320.5595 750.344 320.0689 755.1865 309.3799 757.294 309.7067 750.3871 307.1833 749.7845 283.7681 753.8105 279.1585 754.6873 278.0442 755.3449 278.8308 762.6837 286.7153 773.1412 288.115 776.6065 285.4989 782.0815 285.7239 786.9875 282.9544 788.638 271.3388 785.9985 262.2296 783.8921 256.4675 782.5669 256.0566 781.3685 249.8439 779.7442 246.5109 788.1521 241.5284 786.9923 240.8098 779.7475 234.9085 775.9011 219.8402 778.586 216.7622 768.3693 212.6009 764.6595 214.3638 759.2477 207.3388 760.1533 206.1582 751.5554 204.3301 738.1629 206.8352 737.8369 206.8682 733.7958 206.4823 729.8301 204.0612 730.1571 200.9879 708.878 182.185 712.3158 178.341 687.327 186.4477 685.9798 184.3719 671.5106 177.8753 636.281 151.8351 640.8356 148.5394 625.7813 127.9751 631.0039 110.9709 529.8996 113.4568 529.506 105.4325 487.1681 105.4398 487.1661 107.6065 487.5235 110.583 487.6375 111.8073 486.7218 111.8311 486.247 111.9343 486.0995 113.6554 484.2136 116.2953 482.1676 121.4915 478.2853 125.0155 477.5997 125.8915 477.7253 127.4259 477.6653 128.9879 476.924 134.8638 473.601 136.8288 471.2615 138.169 469.5582 137.3119 465.4774 135.8944 463.6582 134.8327 463.1907 133.9406 462.0954 132.3436 455.3998 132.0161 453.31 132.0146 453.0911 132.1622 452.9003 133.8768 452.3063 134.1938 452.3383 134.579 452.6846 135.0379 452.7886 135.4636 452.7102 136.1897 452.0008 136.1256 450.9548 135.7915 450.5599 136.1107 449.3722 137.8318 446.5207 139.2297 445.0195 141.9065 442.2435 146.6878 437.6382 149.1141 437.25 151.5275 436.5738 153.6393 435.7163 157.8888 432.4388 162.0779 428.1945 162.7672 427.4142 163.8639 424.091 163.8464 423.1213 163.152 419.9301 162.5599 419.3239 162.2208 419.4482 162.1291 419.3589 162.1496 418.3525 162.3692 417.9817 164.2522 415.8376 166.4914 414.2623 166.6455 413.7594 166.6577 412.9977 164.2892 409.8036 161.9639 407.7171 160.2782 407.2449 159.05 406.9697 157.3628 407.4857 152.9193 407.7634 152.2973 407.4067 152.1745 407.3104 152.1895 407.1919 153.1479 405.1175 153.6396 402.7566 154.0825 402.1279 155.2697 401.3827 156.2824 401.2348 157.879 399.6663 158.5035 398.7038 158.4362 398.6398 156.9386 398.1215 155.0164 397.6505 154.907 397.5106 152.3581 392.0959 152.3667 391.9834 157.0406 385.9631 159.7531 383.1859 160.0295 381.8719 160.0755 381.1473 159.9442 380.8757 158.9529 380.2802 158.3601 380.3181 157.2965 380.8156 154.665 380.5802 154.2477 380.2653 153.9479 379.6901 158.0658 371.6261 159.0812 370.4461 161.3507 369.5108 162.5456 369.8916 164.8754 370.3189 165.1858 370.0446 165.2167 368.5142 164.7303 367.9227 164.7346 367.4161 165.4947 365.3117 167.0041 362.3739 167.8497 358.5691 168.1814 357.3128 167.7571 356.5664 162.9388 351.1984 162.0199 350.4354 161.5673 350.3134 160.7406 349.6085 158.3658 346.596 158.0498 345.0135 159.4446 343.5665 162.0655 340.1058 164.3431 334.2367 164.7528 333.1133 165.4 330.1562 165.613 328.0301 165.9581 326.7118 166.8496 324.5416 169.9185 319.8536 173.4271 316.9435 175.0958 315.7305 175.664 311.7706 175.4384 311.185 174.9482 310.4255 174.6813 307.763 174.9427 307.1237 178.0525 302.5992 178.5671 302.0835 181.2595 299.8147 181.7808 299.5996 183.796 299.1748 186.2025 299.7832 187.6115 298.7843 189.1145 297.1056 189.8024 296.9874 190.2271 296.2951 190.2633 294.4345 190.6694 293.7293 191.9784 292.9648 193.5264 292.4793 195.5234 289.1435 195.4466 288.9047 195.5116 287.3428 196.3116 286.1498 197.6447 285.8353 199.3327 285.902 200.1122 286.2281 203.7345 284.7464 203.8555 284.6049 203.8604 284.3235 210.1618 245.9643 210.8324 241.5185 Z" id="fips-23025"/>
<path d="M 407.0641 878.566 407.426 876.5533 409.7067 873.0024 411.8418 870.6231 416.4731 862.7619 416.4899 855.7823 418.019 847.6818 419.6145 843.9708 424.4278 841.8041 426.4761 843.2163 427.989 847.8736 427.2614 850.4491 425.8163 853.2734 423.5864 855.0369 422.4828 855.033 421.6694 855.9998 420.9285 859.4621 422.7007 864.634 420.3395 869.911 419.3945 870.971 416.8927 881.0889 415.0014 883.7716 411.1689 887.0984 410.0075 887.67 410.9561 885.4654 409.3569 880.7883 408.5499 879.8101 407.2927 879.1723 407.0641 878.566 Z M 309.3799 757.294 320.0689 755.1865 320.5595 750.344 324.4244 746.5877 326.2433 740.8212 334.4307 741.9549 337.487 751.6572 349.2856 749.702 361.2687 747.6921 365.292 771.1226 389.2047 765.8085 398.325 763.704 421.186 758.3347 427.2878 757.669 432.7036 755.5184 432.796 758.1978 436.9205 760.5518 430.715 778.0212 431.8156 780.4244 437.8282 790.8158 440.2771 792.1925 438.747 796.1455 439.4646 804.0006 438.7774 804.1711 438.2139 808.342 438.8616 810.401 437.0951 811.7247 433.1465 814.9168 434.7629 818.5843 434.2015 821.1339 428.3646 825.8579 427.2426 827.0934 424.1972 830.4454 422.9841 829.7408 422.1428 827.7367 421.7613 826.2532 421.9045 825.7996 420.9263 824.2739 420.1795 823.8836 416.1456 822.6192 414.998 824.968 414.1145 827.5222 411.2446 830.1332 409.0651 830.3732 404.2352 830.904 401.1216 831.058 402.5982 833.9504 403.8222 838.9205 404.9035 841.8072 407.1493 843.2473 408.3533 844.9009 410.8667 850.1596 409.6037 858.8611 408.7285 861.5101 404.7726 866.4253 401.8201 866.7051 399.9392 866.8831 399.6441 872.4915 397.2779 877.1267 395.0077 879.29 392.1767 876.4297 376.7889 877.4185 348.1575 847.4162 332.829 862.6969 322.0211 853.105 320.5429 857.2108 301.6548 852.9573 313.8792 819.9931 323.5278 821.9329 328.3358 798.0406 319.6926 796.1858 324.5329 771.8054 311.4172 769.8545 314.9217 762.9609 308.5801 761.723 309.3799 757.294 Z" id="fips-23027"/>
<path d="M 203.0613 911.3439 224.1326 916.291 228.1873 903.8508 232.7751 899.9558 249.9882 904.0579 250.6555 904.2153 251.6565 908.0259 248.3754 918.9165 246.7251 921.1922 244.995 934.4275 240.3629 938.8625 251.9622 941.7591 253.538 942.3839 262.5959 944.4766 258.6414 954.0788 258.1894 964.9539 260.8923 966.1511 253.7134 975.1702 258.463 987.0847 263.6772 985.3507 262.4269 994.1559 260.8458 994.6535 259.0187 998.1192 258.4082 1000.6317 258.5223 1002.997 257.9794 1004.5535 256.2997 1007.3664 253.7139 1009.2545 251.0399 1016.1704 247.7291 1017.9528 234.9022 1022.1627 236.1059 1026.1029 235.1919 1027.5934 231.6763 1026.913 230.9327 1026.5835 230.4454 1021.3344 230.9406 1018.9503 230.3092 1016.7886 228.3961 1016.1667 229.7481 1011.7401 228.3177 1007.1536 225.4968 1006.4606 224.8364 1006.7193 224.8892 1003.7435 228.1582 996.5374 227.6322 986.51 223.5079 982.3093 224.2447 978.4718 229.0681 970.1747 229.8563 967.8706 230.3665 964.5431 231.4915 960.9599 228.0563 958.4889 222.0265 966.0551 220.1889 967.2178 216.7316 969.7099 212.2792 966.6091 207.6035 968.707 199.4065 960.1586 196.7385 951.9512 194.2355 948.4342 193.348 947.7029 197.3474 944.5068 196.6265 943.3534 196.221 940.5647 198.8508 931.4031 203.0613 911.3439 Z" id="fips-23023"/>
<path d="M 467.6029 914.7559 468.9598 914.7293 469.9995 914.9771 472.3362 916.1192 472.8538 916.3148 474.784 916.713 475.5126 920.989 478.7629 923.9725 482.1512 927.9979 478.1014 936.9527 478.7059 944.1562 475.6788 944.8193 472.2803 942.7684 467.82 946.5379 466.8812 941.7351 467.0727 934.4866 465.3903 926.7017 469.9039 925.7291 468.9492 919.8474 467.4704 917.4437 467.6029 914.7559 Z M 417.2484 987.6902 417.9157 983.438 420.7076 980.0108 423.3285 978.8732 425.6091 982.9686 425.9236 988.2053 425.9144 991.9698 423.4461 996.5471 420.204 996.4692 417.2318 993.2551 417.2484 987.6902 Z M 411.3393 916.6308 413.1756 911.8402 416.7326 906.9676 422.372 903.8908 424.3231 901.9648 430.5003 897.4933 434.8534 896.5943 436.0098 898.2035 435.4107 898.6528 435.2836 900.0533 436.1438 903.5323 438.1422 903.4484 441.2794 907.6379 442.3257 908.1966 443.2117 907.8289 443.5411 908.3862 441.3061 910.1646 439.3244 909.8611 436.207 910.1304 435.8883 910.5176 435.7175 911.9492 435.9068 914.1762 436.6829 915.8787 438.3976 915.7442 441.5904 922.154 443.3067 924.521 445.0993 926.1192 445.5578 928.5463 443.7137 931.7741 442.5422 932.9349 441.5606 932.8434 438.2651 937.7703 436.0752 938.7918 434.1039 938.7683 427.3379 940.6897 425.1168 940.596 422.0581 938.6306 416.4974 934.9946 418.3766 931.637 420.063 929.2056 419.0687 926.3629 417.4425 924.2123 418.5579 918.6565 418.3313 917.4298 411.6295 917.4823 411.3393 916.6308 Z M 320.5429 857.2108 322.0211 853.105 332.829 862.6969 348.1575 847.4162 376.7889 877.4185 392.1767 876.4297 395.0077 879.29 394.8416 879.4482 392.7149 883.5094 392.0365 885.8703 392.1795 888.5665 390.3897 893.8235 389.8216 900.4878 388.5004 902.1344 385.2551 902.2425 384.8454 903.359 384.6154 904.5024 384.8666 908.0059 385.6212 911.8306 384.6888 915.1532 384.1895 915.5988 380.6376 918.7678 380.5739 921.756 382.3519 923.917 382.9255 924.0316 385.4135 922.5928 389.378 921.3742 390.456 921.4543 391.9085 922.2062 394.1568 925.8067 390.7875 930.3116 390.4642 930.1334 390.4594 928.8029 389.386 928.3949 387.7738 928.2719 387.0677 928.9015 384.7062 932.2642 385.8809 934.7646 386.9842 936.5113 387.3561 937.1534 391.1119 943.6345 391.701 945.6768 390.425 947.789 387.1068 949.9772 385.141 954.5821 381.6115 952.9948 374.4146 953.8578 371.5329 952.3429 365.8644 953.5709 363.9167 958.2834 360.1548 963.1442 358.2919 968.7108 356.8505 970.4694 352.4013 969.3769 346.2571 970.5904 344.4708 984.1502 336.8552 986.2424 336.795 983.5845 338.0525 979.1075 336.5773 973.9521 338.2406 969.6883 341.9356 965.4738 339.6537 962.5442 338.1519 963.2727 336.8325 962.5049 335.7371 961.8671 333.1724 965.1179 333.0876 968.7953 327.0043 970.359 324.618 975.4891 324.419 971.7866 326.3256 967.5908 328.8228 961.7095 328.0978 956.6219 326.2305 957.4157 328.7419 943.4686 332.277 941.8758 335.7513 945.4361 337.3666 937.9236 344.9003 932.7404 344.9132 932.1422 339.2452 920.9622 340.8642 910.805 337.444 899.777 334.3584 889.7772 327.5843 890.8037 320.9611 889.3032 321.4499 886.9908 315.7445 884.8603 312.5749 875.1123 314.359 869.0676 312.3634 860.9754 315.1819 858.1212 320.5429 857.2108 Z" id="fips-23013"/>
<path d="M 334.4027 1010.5046 336.7668 1008.4119 339.3542 1007.7289 342.1562 1009.6281 341.1942 1012.6714 338.83 1014.765 334.1453 1013.3186 334.4027 1010.5046 Z M 251.6565 908.0259 269.6454 912.4528 271.4871 912.0768 270.1579 884.1316 273.0371 871.1939 273.3211 869.9346 293.3911 875.2645 297.1887 871.351 298.5348 869.9669 301.6548 852.9573 320.5429 857.2108 315.1819 858.1212 312.3634 860.9754 314.359 869.0676 312.5749 875.1123 315.7445 884.8603 321.4499 886.9908 320.9611 889.3032 327.5843 890.8037 334.3584 889.7772 337.444 899.777 340.8642 910.805 339.2452 920.9622 344.9132 932.1422 344.9003 932.7404 337.3666 937.9236 335.7513 945.4361 332.277 941.8758 328.7419 943.4686 326.2305 957.4157 322.8437 958.8547 315.9663 958.557 317.504 964.4213 317.0973 967.9282 316.04 970.8679 313.9071 971.5919 304.8754 979.504 304.304 982.5506 300.8555 991.114 298.5493 992.8332 298.3049 991.2106 298.9071 989.1475 297.5865 982.6503 296.7447 980.6885 292.9923 979.024 292.9688 979.0136 291.8723 979.44 291.5789 979.9949 291.6207 981.4699 292.6896 984.5821 291.1368 990.0053 290.0466 990.1811 288.0451 989.1227 287.1814 989.2325 286.629 989.7841 285.9689 994.8783 283.9758 996.2109 280.8767 997.4901 280.5356 997.1276 280.8284 994.1418 282.0353 994.2354 283.2599 992.7748 283.9547 987.2031 282.8856 985.1182 280.9283 985.3345 279.1919 988.8616 279.1969 990.9342 278.776 992.5235 277.5817 993.8245 275.8025 991.0134 275.9379 989.2613 274.9108 988.5713 271.9471 991.1661 271.2236 996.3784 271.6402 1000.0504 272.034 1003.495 270.1045 1006.7646 268.8141 1003.5027 264.8418 996.5357 264.8351 995.3822 263.4962 994.3287 262.5495 994.1173 262.4269 994.1559 263.6772 985.3507 258.463 987.0847 253.7134 975.1702 260.8923 966.1511 258.1894 964.9539 258.6414 954.0788 262.5959 944.4766 253.538 942.3839 251.9622 941.7591 240.3629 938.8625 244.995 934.4275 246.7251 921.1922 248.3754 918.9165 251.6565 908.0259 Z" id="fips-23015"/>
<path d="M 105.4325 487.1681 113.4568 529.506 110.9709 529.8996 127.9751 631.0039 148.5394 625.7813 151.8351 640.8356 177.8753 636.281 184.3719 671.5106 186.4477 685.9798 178.341 687.327 182.185 712.3158 200.9879 708.878 204.0612 730.1571 206.4823 729.8301 206.8682 733.7958 206.8352 737.8369 204.3301 738.1629 206.1582 751.5554 207.3388 760.1533 214.3638 759.2477 212.6009 764.6595 216.7622 768.3693 219.8402 778.586 220.3549 780.4348 216.5425 786.3317 215.1978 788.4052 198.369 784.2878 198.1039 789.062 191.8551 800.424 198.9086 806.3562 197.4765 812.5818 180.505 811.7402 166.4338 814.006 158.9922 819.0692 156.8875 806.8653 151.0435 806.286 149.4833 796.6378 146.0068 797.2162 151.4234 788.6418 138.4645 785.4885 99.2401 776.2608 107.0081 771.9296 97.2037 748.1785 87.7903 725.3971 57.4287 741.9813 57.2831 712.5496 53.5375 688.8915 51.9582 689.1076 48.9087 664.7121 57.404 663.6819 48.6848 593.1892 49.3287 591.9985 49.7186 589.9884 49.7685 589.0517 52.2383 587.0908 52.4091 587.0015 53.1846 585.9588 53.9706 583.3528 54.3484 580.3916 54.1298 579.4664 53.7702 578.9314 53.2427 578.8423 52.5763 578.1306 52.2921 577.5661 52.1357 576.8866 52.0229 575.5011 52.1012 575.1403 53.1761 571.0346 54.3227 569.3951 54.5464 569.1882 55.2685 568.9825 55.504 568.801 55.4971 568.3567 54.8978 565.6038 54.6365 565.17 53.7641 563.7161 51.9232 561.7032 51.5848 561.5376 51.389 560.9383 51.2583 559.5274 51.3531 559.0108 53.8934 556.0512 55.9719 554.2989 56.6957 552.6294 56.8387 551.9327 57.4283 551.5546 60.0472 550.7989 64.9966 551.6939 65.2976 551.8582 67.1496 553.739 66.9858 554.8044 67.1428 556.247 69.7036 559.7514 71.0643 560.9052 73.0376 562.2304 76.8503 561.7884 77.8512 561.6319 78.3807 561.145 78.5873 561.1127 79.6465 561.3707 82.822 563.7272 82.8426 565.8793 82.984 565.958 84.679 566.2128 85.6924 565.8131 87.8936 564.5173 88.7472 555.5818 88.0288 552.4238 85.3973 548.2673 82.8882 547.1723 80.6364 545.5147 79.4941 543.8413 77.533 540.2832 75.124 537.9397 74.4976 537.5676 72.8008 535.6486 71.7671 530.184 71.7427 529.4205 71.8649 528.7729 72.1173 528.1538 73.1 527.2404 75.8915 524.2832 76.2539 523.7481 78.8658 519.0101 78.8518 514.9376 79.3455 514.5565 80.7642 513.1533 84.544 508.8137 86.4775 505.7786 86.3233 505.4683 87.4734 503.3579 89.2885 502.5466 92.7926 500.9442 94.9632 498.2586 95.9087 498.0682 97.6515 497.3712 97.8428 497.1881 103.0657 490.5814 103.6303 489.106 103.3088 488.7295 103.3076 488.5232 104.3611 487.4596 105.4325 487.1681 Z" id="fips-23007"/>
<path d="M 158.9922 819.0692 166.4338 814.006 180.505 811.7402 185.6475 840.1078 181.3971 840.7763 179.3123 843.4052 185.4116 853.9448 185.6217 857.698 190.333 863.5463 190.3339 865.8213 189.6486 888.7821 192.5711 892.7698 205.6015 896.0485 202.3048 899.2604 198.7867 909.6152 201.8479 910.3685 203.0613 911.3439 198.8508 931.4031 196.221 940.5647 196.6265 943.3534 197.3474 944.5068 193.348 947.7029 194.2355 948.4342 196.7385 951.9512 187.3371 965.2456 185.1 963.7032 179.8262 970.169 164.5594 959.4976 163.2592 958.9318 163.942 957.833 158.3552 951.6889 141.8588 934.0389 131.9325 947.767 125.8408 943.0842 124.4621 946.6057 109.397 936.3766 109.3467 934.7922 108.4935 927.0264 115.4018 917.8395 125.3752 904.6247 127.4086 901.959 139.0337 886.5599 140.7603 887.2395 149.9403 856.2433 153.3427 845.2272 150.991 830.8842 151.9637 823.9391 158.9922 819.0692 Z" id="fips-23001"/>
<path d="M 48.6848 593.1892 57.404 663.6819 48.9087 664.7121 51.9582 689.1076 53.5375 688.8915 57.2831 712.5496 57.4287 741.9813 87.7903 725.3971 97.2037 748.1785 107.0081 771.9296 99.2401 776.2608 138.4645 785.4885 151.4234 788.6418 146.0068 797.2162 149.4833 796.6378 151.0435 806.286 156.8875 806.8653 158.9922 819.0692 151.9637 823.9391 150.991 830.8842 153.3427 845.2272 149.9403 856.2433 140.7603 887.2395 139.0337 886.5599 127.4086 901.959 125.3752 904.6247 115.4018 917.8395 108.4935 927.0264 109.3467 934.7922 105.0285 931.8249 103.7195 932.0996 96.5988 941.7295 92.8354 936.3496 89.3828 938.2058 86.6333 934.2695 83.6838 923.6483 85.007 915.291 88.8709 909.1456 85.112 900.7647 83.6532 898.8055 81.8964 896.1369 67.61 905.8551 42.5032 920.8302 35.4201 915.6652 33.7383 919.745 37.144 928.2271 47.982 931.1797 62.6122 952.8898 56.1883 957.0781 59.5573 961.9713 53.8657 967.6962 56.4896 973.5126 52.172 977.3151 45.6296 979.3954 46.1178 987.0299 48.2832 992.9117 45.4782 994.9854 36.7682 993.7678 27.4034 994.2843 19.6848 998.6567 13.6322 999.9013 7.4726 997.8014 7.4688 997.723 7.6581 984.9265 7.5921 974.5065 7.5596 969.3305 7.6766 963.8547 7.5384 929.7006 7.3658 915.5152 7.3742 915.4405 7.3469 910.6754 7.1407 873.769 7.2031 870.2271 7.2116 870.1228 7.1146 862.9889 7.0517 858.3473 7.067 847.6939 6.8486 837.4737 6.5439 811.3001 6.3186 804.0914 6.0634 788.1884 6.0178 773.6572 5.9807 761.5596 5.524 739.3694 5.5184 734.1401 4.8502 709.6474 3.9777 686.1418 3.5387 667.1892 3.3571 665.8513 2.4803 627.7535 2.1614 617.6463 1.869 599.5818 1 583.5354 2.0669 583.3538 2.9755 582.9743 4.4556 582.0238 5.8074 581.4072 9.0268 581.697 9.8394 582.0278 11.3147 581.8714 13.0225 581.4407 14.4798 580.8397 15.5006 580.2507 16.8171 577.8816 16.8537 577.7012 16.3617 576.8487 15.2228 575.9579 14.9502 573.5915 14.9932 573.1924 15.387 572.5225 16.5177 573.0565 17.0948 573.5552 18.7883 575.1053 19.2531 575.6376 19.415 576.0861 20.112 576.7814 23.6505 576.8247 26.8113 576.3322 27.0685 577.1588 28.0654 579.1574 28.9364 580.3202 30.7039 580.8394 32.3001 582.1416 32.9639 582.6919 33.9577 587.0235 33.6197 587.9584 32.6106 589.4935 32.3643 590.0558 31.9858 591.5525 32.0249 591.7101 33.2012 592.8754 34.548 594.396 36.2769 597.4033 36.609 598.8889 36.1838 601.3451 36.4731 601.916 37.236 602.7196 38.7037 603.9365 39.9494 604.4095 44.0485 605.6464 46.5159 604.2486 47.6278 603.4462 47.1894 603.0592 45.8427 601.4408 45.7479 598.239 45.9352 596.3486 46.9671 595.7381 47.4013 595.3432 47.808 594.8102 48.6848 593.1892 Z" id="fips-23017"/>
<path d="M 180.505 811.7402 197.4765 812.5818 198.9086 806.3562 191.8551 800.424 198.1039 789.062 198.369 784.2878 215.1978 788.4052 216.5425 786.3317 220.3549 780.4348 219.8402 778.586 234.9085 775.9011 240.8098 779.7475 241.5284 786.9923 246.5109 788.1521 249.8439 779.7442 256.0566 781.3685 256.4675 782.5669 262.2296 783.8921 271.3388 785.9985 282.9544 788.638 285.7239 786.9875 285.4989 782.0815 288.115 776.6065 286.7153 773.1412 278.8308 762.6837 278.0442 755.3449 279.1585 754.6873 283.7681 753.8105 307.1833 749.7845 309.7067 750.3871 309.3799 757.294 308.5801 761.723 314.9217 762.9609 311.4172 769.8545 324.5329 771.8054 319.6926 796.1858 328.3358 798.0406 323.5278 821.9329 313.8792 819.9931 301.6548 852.9573 298.5348 869.9669 297.1887 871.351 293.3911 875.2645 273.3211 869.9346 273.0371 871.1939 270.1579 884.1316 271.4871 912.0768 269.6454 912.4528 251.6565 908.0259 250.6555 904.2153 249.9882 904.0579 232.7751 899.9558 228.1873 903.8508 224.1326 916.291 203.0613 911.3439 201.8479 910.3685 198.7867 909.6152 202.3048 899.2604 205.6015 896.0485 192.5711 892.7698 189.6486 888.7821 190.3339 865.8213 190.333 863.5463 185.6217 857.698 185.4116 853.9448 179.3123 843.4052 181.3971 840.7763 185.6475 840.1078 180.505 811.7402 Z" id="fips-23011"/>
<path d="M 332.8276 653.4083 356.7438 649.0273 404.7563 639.5318 429.2804 634.9747 424.6446 612.4875 444.8535 608.3238 434.3448 553.0186 429.3924 529.7915 408.8039 533.8141 411.3506 514.835 411.6008 499.339 410.0541 492.8337 435.2772 486.7141 435.3861 478.1907 437.1101 292.2509 460.5943 292.3531 460.6012 295.8794 509.3687 295.9525 509.603 366.349 509.5507 388.7385 510.4355 390.7388 510.6148 413.476 511.3979 415.6212 511.7305 435.7969 511.6588 440.5701 511.5581 466.15 510.6944 491.3295 510.6606 515.0249 511.0743 515.8772 514.9018 517.164 544.2368 510.3103 543.7236 508.5255 584.2424 498.5799 602.1619 576.8466 600.4442 577.2359 605.8648 600.1759 583.7148 604.5368 535.8565 613.3192 537.4902 621.8158 542.4194 646.4996 518.0276 651.2029 522.1701 674.692 497.961 679.3165 499.7739 689.3493 502.4972 704.3699 503.4661 709.381 507.0292 728.3041 508.9348 738.8398 492.7565 741.8429 475.638 744.9195 469.7219 755.14 461.2083 750.2075 456.7473 755.141 455.4031 756.2225 450.8867 766.9103 445.4503 765.8459 446.5367 762.7679 440.4224 759.17 436.9205 760.5518 432.796 758.1978 432.7036 755.5184 427.2878 757.669 421.186 758.3347 398.325 763.704 389.2047 765.8085 365.292 771.1226 361.2687 747.6921 349.2856 749.702 345.6651 726.134 346.59 725.638 337.408 677.1275 332.8276 653.4083 Z" id="fips-23019"/>
<path d="M 109.3467 934.7922 109.397 936.3766 124.4621 946.6057 125.8408 943.0842 131.9325 947.767 141.8588 934.0389 158.3552 951.6889 163.942 957.833 163.2592 958.9318 164.5594 959.4976 179.8262 970.169 185.1 963.7032 187.3371 965.2456 196.7385 951.9512 199.4065 960.1586 207.6035 968.707 212.2792 966.6091 216.7316 969.7099 220.1889 967.2178 222.0265 966.0551 228.0563 958.4889 231.4915 960.9599 230.3665 964.5431 229.8563 967.8706 229.0681 970.1747 224.2447 978.4718 223.5079 982.3093 227.6322 986.51 228.1582 996.5374 224.8892 1003.7435 224.8364 1006.7193 221.7026 1007.9464 219.2593 1007.1643 217.0257 1005.7452 212.7147 1009.5674 211.7972 1008.7712 210.843 1009.0348 208.0469 1013.678 205.6798 1015.3478 203.8297 1020.6779 202.0552 1024.5878 195.1587 1023.8612 193.1259 1021.7593 189.7893 1022.8954 188.2276 1023.4269 186.6184 1025.2537 185.3743 1026.4205 184.0772 1027.6367 184.686 1032.2025 183.1429 1034.685 179.264 1031.689 176.1369 1031.7879 172.1749 1031.9122 168.8788 1033.643 168.0324 1035.6659 167.1337 1037.813 164.2849 1041.6387 161.2107 1044.8477 161.0544 1046.0511 160.8511 1047.6165 158.8149 1054.8968 159.3212 1056.6217 161.9254 1057.7463 162.6515 1063.6035 160.7881 1065.6241 158.6721 1065.7893 156.3848 1070.8349 152.8919 1070.391 153.1868 1067.0568 149.7113 1066.4856 147.9522 1064.3549 147.6619 1064.0032 146.7046 1064.6603 140.5754 1068.8647 140.564 1073.0436 140.2978 1073.0855 137.8363 1073.4718 136.3874 1069.7538 131.5974 1070.9924 131.4827 1071.113 124.3122 1065.9553 124.2023 1065.8745 104.4355 1051.0067 109.2428 1044.4012 111.4293 1041.4272 105.0577 1034.0577 94.2863 1021.6761 88.037 1028.633 83.9775 1026.5132 81.1817 1028.4922 80.7756 1025.4104 77.0495 1023.793 72.3217 1024.3246 73.5218 1015.6083 75.3132 1009.5873 73.6455 1000.7822 70.7828 999.4003 65.5487 995.803 57.9288 999.8902 51.4682 998.9392 48.7315 995.8314 48.2832 992.9117 46.1178 987.0299 45.6296 979.3954 52.172 977.3151 56.4896 973.5126 53.8657 967.6962 59.5573 961.9713 56.1883 957.0781 62.6122 952.8898 47.982 931.1797 37.144 928.2271 33.7383 919.745 35.4201 915.6652 42.5032 920.8302 67.61 905.8551 81.8964 896.1369 83.6532 898.8055 85.112 900.7647 88.8709 909.1456 85.007 915.291 83.6838 923.6483 86.6333 934.2695 89.3828 938.2058 92.8354 936.3496 96.5988 941.7295 103.7195 932.0996 105.0285 931.8249 109.3467 934.7922 Z" id="fips-23005"/>
<path d="M 267.6581 242.2221 436.825 243.9155 437.1101 292.2509 435.3861 478.1907 435.2772 486.7141 410.0541 492.8337 411.6008 499.339 411.3506 514.835 408.8039 533.8141 429.3924 529.7915 434.3448 553.0186 444.8535 608.3238 424.6446 612.4875 429.2804 634.9747 404.7563 639.5318 356.7438 649.0273 332.8276 653.4083 304.9195 658.5308 305.7764 662.9828 301.7864 666.3587 281.3812 669.9836 275.1442 645.5523 270.0571 619.5307 269.9545 614.7362 267.0016 592.7962 252.6531 524.1287 262.0106 517.6498 265.5697 509.8423 264.1944 508.0295 267.9409 501.0203 264.8114 497.7601 266.0525 494.8549 269.8906 496.3813 265.8471 493.4373 259.9323 494.3154 261.0894 486.9647 257.9878 486.8191 252.2049 483.083 251.3196 478.2663 248.6815 476.7043 250.9647 474.1225 243.3022 470.385 246.2721 468.1823 251.8618 468.2825 250.9571 464.2512 253.0759 462.0968 249.4315 457.5041 252.6355 457.8025 255.6599 464.3798 260.9231 466.0407 263.8783 463.7803 261.626 458.5899 264.4489 458.4954 267.2651 450.7591 265.2611 444.4101 267.4082 444.025 267.9682 439.1971 261.9648 431.121 263.0281 432.4622 269.5583 430.5325 268.6477 432.88 272.2156 440.0747 274.861 437.4227 279.2359 436.825 272.6453 403.7881 264.0662 405.5238 264.8861 291.4319 267.3526 291.4368 267.6581 242.2221 Z" id="fips-23021"/>
</g>
</svg>