<?xml version="1.0"?>
<svg xmlns="http://www.w3.org/2000/svg" version="1.2" baseProfile="tiny" width="800" height="915" viewBox="0 0 800 915" stroke-linecap="round" stroke-linejoin="round">
<g id="cb_2018_us_county_5m">
<path d="M 58.367 856.6324 58.367 856.6316 101.8347 857.8343 103.2107 857.8618 102.8692 871.5031 101.907 911.9347 85.5573 911.5124 85.5255 911.5151 84.3954 911.4743 70.53 911.108 68.3926 911.0629 56.8961 910.7343 57.2501 897.3072 57.2514 897.13 57.3359 894.1299 57.3426 893.7579 57.6143 883.6751 57.6791 881.4081 58.1197 865.6319 58.1991 863.5111 58.367 856.6324 Z" id="fips-27133"/>
<path d="M 479.5419 858.7528 480.7705 858.7421 480.5441 845.2894 480.3143 831.8704 479.743 804.9382 493.9648 804.7467 506.4742 804.5394 519.7577 804.3053 520.0656 817.689 546.7389 817.131 547.5351 843.9551 547.7973 857.4195 506.4562 858.2446 506.4877 860.4414 479.5957 861.0349 479.5419 858.7528 Z" id="fips-27109"/>
<path d="M 114.7066 291.6347 168.5145 292.6118 168.8073 292.5971 167.8977 346.6771 113.473 345.5154 114.7066 291.6347 Z" id="fips-27087"/>
<path d="M 208.1674 468.7235 253.5817 469.1926 254.6415 471.8481 261.9144 472.3371 262.4511 482.6203 262.1884 523.284 262.0481 536.8774 262.4309 561.5354 249.1268 561.4565 208.7713 561.1494 208.8569 549.8754 208.3584 536.4079 208.7197 509.4127 209.0541 482.1614 208.1464 482.1412 208.1674 468.7235 Z" id="fips-27153"/>
<path d="M 101.461 736.596 155.4392 737.8036 156.2207 751.4146 155.8492 778.0934 155.7054 791.6376 155.4431 805.1958 103.1476 803.9814 101.5022 803.9123 102.0371 776.7925 102.5329 750.1764 101.1212 750.0481 101.461 736.596 Z" id="fips-27083"/>
<path d="M 88.1398 560.9795 141.7651 562.1853 141.2579 589.2486 142.4059 589.2691 141.9262 616.1432 101.6729 615.3123 88.1423 614.8695 88.8131 588.0407 87.5543 588.0212 88.1398 560.9795 Z" id="fips-27149"/>
<path d="M 195.5361 616.9912 208.9862 617.179 249.1624 617.487 249.0523 630.9496 249.5631 644.4537 249.1207 698.292 235.2144 698.1479 195.2145 697.8672 195.741 670.8637 195.9613 657.3664 196.117 643.9767 195.1838 643.9598 195.5361 616.9912 Z" id="fips-27067"/>
<path d="M 72.4311 185.7699 97.1464 186.3267 99.4863 186.7391 106.2698 186.7474 113.005 187.2072 126.1141 187.5297 166.2537 188.1437 165.9605 211.7761 166.9568 211.7937 166.7919 225.2259 153.5481 224.6987 153.6118 220.2739 73.3546 218.4661 73.6177 209.4603 71.718 209.4079 72.1083 195.9119 72.4311 185.7699 Z" id="fips-27113"/>
<path d="M 424.5066 118.0963 435.128 118.54 438.1941 117.2886 438.6846 117.4474 438.7696 120.8813 440.8481 121.0646 442.8935 122.6695 444.4631 122.8606 461.7288 131.1855 468.9144 129.9673 471.2822 130.4467 472.0773 133.6427 472.3051 134.2552 472.3275 134.354 472.2248 134.8485 472.2554 134.9649 472.382 135.0511 472.3595 135.072 471.7841 135.8069 471.7826 135.834 471.7532 136.0342 471.9982 136.26 472.1984 136.5539 471.8561 136.9432 471.2387 137.1864 470.1662 137.1335 469.4489 136.8791 468.7062 137.6813 466.2924 137.5643 464.8657 138.0132 464.6427 139.616 463.858 141.4139 463.93 141.8378 463.5494 142.9829 466.1351 145.9004 468.6913 146.4259 469.4478 146.9503 477.7084 146.1463 481.6406 144.9981 483.9323 144.8551 484.7184 144.9062 486.3322 147.0691 486.6412 147.5869 487.1705 147.6993 487.3786 147.8294 487.5133 148.149 487.4858 148.341 488.0818 149.3451 490.0809 150.0132 490.1205 152.0399 488.126 156.6404 488.8967 159.7146 490.6514 163.139 491.9803 165.2687 492.3578 166.1536 492.9756 166.8808 493.2913 166.7639 493.5891 166.9558 494.632 168.333 495.6789 170.8091 496.6646 172.9285 497.0818 173.6923 497.5705 174.8053 497.8184 175.4277 497.7178 175.8235 497.8208 176.151 497.9001 176.2131 498.1598 176.1292 498.1166 176.4067 498.128 176.7468 498.26 177.1089 498.7074 177.4997 498.7761 177.8703 498.7746 178.2709 498.8353 178.4504 499.3842 179.356 499.7719 179.8822 500.4936 179.4608 501.3877 178.2838 501.797 178.1073 502.6164 177.9212 502.7923 177.5979 503.0576 177.4604 503.2068 177.4853 503.392 177.6829 503.5369 177.6829 504.2423 177.1769 504.6089 177.1257 505.3282 176.6086 508.8196 175.9442 509.9388 175.3007 509.4963 173.9917 507.7417 172.672 507.2876 171.7469 507.4281 170.9919 507.2154 170.9686 507.146 170.7328 506.5088 169.1206 507.1546 166.3363 505.9008 164.8167 506.0561 163.7991 506.9959 163.6245 507.5843 160.6573 510.2916 158.7388 514.3823 159.5267 514.7118 159.6849 514.9997 160.1457 516.0472 160.0446 516.0207 159.8444 515.9428 159.7034 516.3426 159.0338 517.2574 159.2693 517.3349 159.5262 517.399 159.5424 518.9475 158.996 518.8843 158.4695 519.0353 158.1642 520.5762 157.1859 522.3297 156.7725 522.5204 158.2462 527.8165 158.3403 528.7208 158.4329 529.2741 157.7373 530.4732 157.4957 531.6126 157.5253 532.3358 159.1119 532.6403 159.2526 532.7095 159.5804 532.4603 159.899 532.6123 161.2954 533.5306 161.5119 534.269 162.6336 537.4585 163.239 536.2396 166.9911 536.3787 168.558 536.9066 169.6109 537.0419 171.9295 538.8235 172.688 539.7849 174.5872 540.1201 174.6804 540.1308 174.8042 540.1089 174.9006 540.1987 175.0683 540.3121 175.0792 540.7889 174.5798 540.852 174.3156 540.6207 174.1611 540.6903 173.7586 540.8464 173.6585 541.9489 173.6341 542.4874 173.9094 542.4932 173.9836 542.5623 174.2589 542.7493 174.6076 542.75 175.0323 542.1924 175.3136 542.195 175.809 542.0682 176.3082 542.2244 176.8169 542.679 176.8057 542.8975 176.8509 543.542 177.1747 543.8839 177.1401 543.9941 176.9171 544.3304 176.5671 545.1815 176.2912 546.0287 176.1252 546.5384 175.7809 547.3859 175.8632 547.4529 175.9253 547.5567 176.0213 547.7868 176.0289 548.8473 175.8958 549.8025 177.4784 551.5776 178.7028 551.9961 180.5626 553.9067 180.2569 554.5589 180.0813 555.0809 180.0407 555.3343 180.111 556.9968 179.6816 557.1459 180.1557 557.7203 180.5497 558.8503 181.0052 563.0948 282.7008 563.6464 309.3686 564.622 348.1496 564.784 350.2365 564.54 350.5675 564.7119 355.2939 564.9139 363.6064 565.359 376.889 564.0308 377.8528 562.0267 378.9266 561.0968 378.9644 560.4177 379.2827 557.325 381.9923 556.0708 382.4365 553.6739 384.7562 552.8064 385.9302 551.9861 386.4951 548.8533 388.6513 545.5259 391.4464 544.205 393.1755 542.591 393.998 537.866 397.8203 537.5512 398.7447 535.0438 400.3178 534.3557 401.1804 534.2214 401.3488 534.8965 403.5353 537.5431 407.8423 541.8042 413.098 542.9395 413.7452 542.4183 414.1368 540.9403 413.4166 534.8705 407.3238 532.8837 407.3921 531.9931 407.4932 529.7665 408.9641 529.2124 409.7392 529.2281 410.7479 529.4631 411.192 528.9691 412.6486 528.7172 412.7793 528.0227 412.6731 526.72 412.0855 525.9865 412.5235 525.4994 412.6135 524.4115 412.517 524.1615 412.7252 523.9898 413.5057 523.568 414.0753 523.128 414.3503 522.8058 414.6534 522.7052 414.8888 522.7749 415.539 523.4964 415.8624 525.1382 415.9604 525.7049 416.4738 525.8602 416.7182 525.9183 417.3222 525.7703 417.7762 525.3787 418.283 524.724 418.5014 524.2113 418.856 523.492 419.8833 523.0154 420.4076 522.875 420.7526 523.2491 421.6436 523.322 421.9988 523.2538 422.2489 522.7549 422.7428 522.1985 423.0672 521.773 423.0934 521.0061 422.6779 520.4727 422.6446 519.728 423.1133 518.9963 423.2556 517.4587 421.8187 517.1348 422.075 516.4873 423.0378 515.9988 423.0963 515.7565 422.7762 515.5688 422.0667 515.1277 421.8911 514.5734 421.8735 514.3016 421.647 514.1964 421.2615 514.1475 420.5641 513.7293 420.45 513.6414 420.7781 513.6517 421.2007 512.6907 420.6614 512.6053 417.1749 512.2649 405.5837 498.7907 405.7882 476.4767 405.9445 474.3121 405.6144 458.3856 406.3628 431.5089 406.7563 431.5148 366.4242 431.3011 353.5669 430.2389 353.576 429.8091 312.8823 429.2554 309.4233 429.1826 299.4966 429.479 292.9683 429.3793 258.7923 427.1936 258.7931 426.8408 245.4587 426.9162 232.1892 425.9833 218.7448 425.7085 204.8923 424.9306 204.9182 424.661 176.6732 424.5066 118.0963 Z" id="fips-27137"/>
<path d="M 141.6102 508.2398 168.3964 508.6689 208.7197 509.4127 208.3584 536.4079 208.8569 549.8754 208.7713 561.1494 208.7514 563.4034 179.5384 562.859 168.6723 562.8505 168.6193 562.8494 141.7651 562.1853 142.2706 535.2242 141.0989 535.2029 141.6102 508.2398 Z" id="fips-27041"/>
<path d="M 431.5089 406.7563 458.3856 406.3628 474.3121 405.6144 476.4767 405.9445 498.7907 405.7882 512.2649 405.5837 512.6053 417.1749 512.6907 420.6614 513.6517 421.2007 513.652 421.2125 513.8592 427.1533 513.9301 430.3017 514.2725 445.9186 514.2619 447.2247 514.3101 449.8353 514.4619 457.092 514.4907 458.8171 514.503 459.3843 486.6632 459.8727 459.9236 460.338 433.0013 460.6362 432.5356 435.8423 431.7749 433.6408 431.3527 420.5331 431.5089 406.7563 Z" id="fips-27017"/>
<path d="M 166.9568 211.7937 203.6687 212.4458 201.7991 214.6921 199.0318 221.6545 198.5249 224.2097 199.2079 230.3964 201.5971 233.6258 207.051 235.3596 206.5913 266.2572 207.3976 293.2563 207.2376 306.7027 207.1197 320.2407 208.495 320.277 208.2102 347.1029 167.8977 346.6771 168.8073 292.5971 168.5145 292.6118 169.0745 265.6639 166.4162 265.6076 166.7919 225.2259 166.9568 211.7937 Z" id="fips-27029"/>
<path d="M 207.2376 306.7027 234.0863 307.1546 247.4835 307.5589 259.7477 307.6211 261.1075 307.604 260.8949 321.1601 261.5248 349.0534 261.3993 374.713 261.9564 374.8345 261.7703 388.2166 261.6323 401.7153 248.1222 401.5907 208.1969 401.0793 208.6063 374.1542 207.7556 374.1539 208.2102 347.1029 208.495 320.277 207.1197 320.2407 207.2376 306.7027 Z" id="fips-27057"/>
<path d="M 207.9569 414.5915 208.1969 401.0793 248.1222 401.5907 248.073 415.1982 248.0433 428.4904 248.5053 465.1823 251.4133 467.5562 253.9674 467.3165 253.5817 469.1926 208.1674 468.7235 208.6609 428.2114 207.8242 428.2015 207.9569 414.5915 Z" id="fips-27159"/>
<path d="M 393.0729 502.2909 408.9034 501.2766 420.2434 501.2767 433.6915 501.1595 433.9563 528.6104 424.4911 528.7773 425.1218 567.6239 398.347 567.9303 384.8343 567.4991 384.0302 529.0995 393.2602 529.0758 393.0729 502.2909 Z" id="fips-27065"/>
<path d="M 439.246 859.4491 439.6441 859.4396 452.6287 859.2233 467.2529 858.961 479.5419 858.7528 479.5957 861.0349 506.4877 860.4414 507.582 912.1603 505.8317 912.2104 495.8595 912.4303 495.8558 912.4304 485.0499 912.6873 484.5858 912.6962 482.4181 912.7375 480.5666 912.7719 480.1442 912.7798 478.5095 912.8098 473.4705 912.901 469.1695 913.0587 460.1706 913.2172 444.6845 913.455 442.8301 913.4876 442.8209 913.4878 440.0338 913.5288 439.8309 900.0073 439.4427 873.0117 439.246 859.4491 Z" id="fips-27099"/>
<path d="M 103.1476 803.9814 155.4431 805.1958 170.0191 805.3763 169.2052 859.3394 130.1193 858.5796 103.2107 857.8618 101.8347 857.8343 103.1476 803.9814 Z" id="fips-27101"/>
<path d="M 59.8943 802.802 101.5022 803.9123 103.1476 803.9814 101.8347 857.8343 58.367 856.6316 58.3674 856.6164 58.4754 852.3655 58.4855 852.1247 58.4993 852.1147 58.7787 841.1911 58.7929 840.9291 58.8734 838.4919 58.8619 838.3923 58.8972 836.7055 58.9206 836.3622 58.9668 834.4099 58.9781 834.1229 59.0498 832.2397 59.0653 831.9281 59.0927 829.6241 59.0962 829.3653 59.1532 827.6578 59.1753 827.3606 59.8943 802.802 Z" id="fips-27117"/>
<path d="M 638.1316 180.4483 638.1495 180.4518 638.9017 180.1701 639.0455 179.7921 640.069 178.8828 640.9908 178.5164 640.8836 178.1412 643.5919 175.4196 648.877 173.5811 649.917 173.4284 650.7125 172.3496 652.8591 170.9489 653.3105 171.7567 653.9831 172.1438 654.8089 172.048 656.8021 170.9911 657.1926 171.1091 657.6791 171.7196 657.8566 172.4568 657.6888 173.4606 657.714 173.5518 657.9197 173.7275 657.9646 173.8639 658.3788 177.4886 658.5415 179.5778 658.3991 181.3999 658.8056 181.8791 659.4494 181.3266 659.4956 180.6896 659.4479 180.3299 659.9165 180.1326 660.1172 180.4361 660.3045 180.9141 661.0342 180.8686 661.71 181.1234 662.1731 183.3701 662.623 183.9503 663.7205 183.6657 663.9573 183.1839 664.1709 183.0576 664.5228 183.1809 664.705 183.464 664.6136 184.2801 664.615 185.518 663.8361 186.0515 662.7372 187.0277 662.6352 187.44 662.9198 187.6406 663.0712 187.627 663.4345 187.5773 663.668 187.677 663.7564 187.8106 663.76 187.8929 663.7388 188.017 663.5156 188.4877 663.8199 188.8151 664.2031 188.9265 664.9107 189.3279 664.9923 189.5762 665.0117 189.6145 665.2144 190.1235 665.2201 190.1728 665.3508 190.3305 665.7594 190.4584 665.9574 191.4254 666.6547 192.9741 666.6603 193.2611 667.7475 194.3496 668.7661 193.7439 672.6689 193.3509 674.4047 192.5752 679.0404 191.9014 680.502 190.5419 681.1776 190.5038 681.6072 190.3918 682.5906 189.8076 684.1242 189.4925 684.1997 189.1449 685.0345 188.4822 685.2733 188.4499 685.5855 188.8471 685.7081 188.8982 686.2645 188.7804 686.708 188.5863 687.4203 188.6991 687.8103 189.3976 686.4452 191.0316 686.7234 191.9153 687.0659 192.273 687.8623 192.6658 691.9502 191.9495 692.6068 192.2315 692.8755 191.9318 693.1472 191.8561 694.1193 191.9446 694.1672 191.8394 694.1894 191.7851 694.3435 191.5402 694.7666 191.8784 695.0553 191.854 695.43 191.6375 695.7342 191.3536 695.984 190.8202 696.6636 190.6923 696.985 190.2513 697.2154 190.2651 697.4615 190.4557 698.6362 190.7652 699.1277 190.9867 699.5549 191.4098 700.0872 191.6684 702.9455 190.5534 703.6821 190.5079 704.7268 191.1962 705.071 191.2259 705.473 191.4941 705.5756 191.8582 705.6908 192.0443 705.9413 192.2523 706.7566 192.5608 706.9097 192.5107 706.9718 192.1315 707.4406 191.9631 708.8794 191.8251 709.6129 191.9311 709.8642 191.8656 709.937 191.7662 709.9892 191.682 710.4499 191.5637 710.5526 191.0051 711.2689 190.562 712.5838 190.281 713.0729 190.023 713.7724 190.017 714.572 190.3822 715.0921 190.8816 715.5057 190.8826 716.9921 190.1463 717.9895 190.0904 719.1473 190.1967 721.1841 189.3453 722.1168 189.1312 722.9868 189.3426 723.5032 189.3519 725.1751 188.9407 725.8413 188.9744 727.053 188.2142 728.3545 188.5704 729.7462 188.4148 730.3026 188.1738 730.4461 188.0105 731.2328 188.0486 731.6023 188.0867 732.0429 188.5816 732.4166 188.6764 732.5443 188.7585 732.6909 188.9885 733.3573 189.1559 735.8996 188.9734 737.7651 189.4188 739.4826 190.0706 740.4133 190.7492 740.7719 190.7803 742.4528 191.2778 743.1006 191.691 743.6994 193.6285 744.131 194.3582 744.5583 194.2223 744.6387 194.0726 744.8046 194.1348 745.9919 195.7541 746.4811 197.0548 746.3188 198.2096 746.2985 199.1828 746.5465 199.8933 746.7356 200.245 747.189 200.6463 747.3562 200.6656 747.5649 200.541 747.6577 200.5571 748.4199 200.917 748.8346 201.3844 749.4206 202.2646 749.9126 202.2133 750.8591 202.6483 751.2374 201.9468 752.9066 201.8993 753.0829 202.2731 753.1453 202.699 753.3583 203.0352 754.373 204.2658 755.0678 205.0081 755.5045 205.2329 756.1791 205.3526 756.3217 205.4371 756.6848 205.8682 756.9873 206.0329 758.1261 206.172 758.7278 206.1236 759.5054 206.2343 759.7122 206.1412 759.998 205.5114 762.1074 205.0003 762.2424 204.9502 762.5673 204.2013 762.5473 203.5893 762.5359 203.5003 762.532 203.4312 762.5749 203.3695 762.6266 203.3469 762.9415 203.4361 763.4456 203.8275 763.677 203.8327 763.8183 203.6876 764.533 202.0239 764.7169 201.4035 764.7836 201.3323 766.0439 200.9323 766.2201 201.4194 766.3351 201.452 767.0721 201.2976 767.2274 201.2322 767.3095 200.8728 767.4072 200.7893 767.6491 200.6907 768.6001 200.6946 768.9338 200.5946 769.4716 200.0466 770.4928 199.7913 772.006 199.651 772.5448 199.7976 772.6847 200.1339 772.7353 200.1523 773.0862 200.0471 773.3137 199.8886 773.9023 200.1 773.9251 200.2477 774.6596 200.1738 774.7075 200.1462 774.6416 199.9867 774.7377 199.9387 774.8393 199.9825 774.9804 200.3159 774.9296 200.3911 774.7791 200.3913 774.6543 200.5643 774.7079 200.9979 774.9865 200.8648 775.1805 200.5556 775.3949 200.4156 775.5037 200.523 775.5282 201.4834 775.5902 201.6361 775.865 201.4996 776.3852 201.4486 776.5002 201.5415 776.6198 201.7725 777.0013 202.0098 777.1152 202.0211 778.3737 201.2394 778.6217 201.2465 778.6821 201.3744 778.7911 201.3646 779.319 201.2634 779.6098 201.0978 779.928 201.0371 780.1305 201.1143 780.1657 201.233 780.415 201.5062 780.6556 201.6309 780.8909 201.5429 781.0318 201.1125 781.6755 201.1787 781.8278 201.5463 782.1221 201.9838 782.3529 202.1232 782.5587 202.076 782.674 201.8706 782.9109 201.6904 783.3257 201.7128 783.5125 202.0038 783.7044 202.0213 783.7755 201.9675 783.7784 201.836 783.7135 201.5735 783.5835 201.3467 783.7388 201.1603 784.9693 200.7459 785.456 200.8385 785.7218 200.7909 785.8882 200.5611 786.0634 200.0644 786.3016 199.7345 786.4366 199.6877 786.5455 199.8516 786.6763 200.497 786.5782 200.982 786.8019 201.4091 787.4563 201.651 788.1755 201.6763 788.7943 202.0305 789.1223 202.3122 789.5574 202.8417 789.6762 202.8993 790.7264 202.5082 791.3413 201.7092 799 199.4541 798.8282 200.9121 798.4821 201.3766 793.7922 203.133 792.8052 204.0514 792.7233 205.0779 792.5633 206.0014 790.8425 207.285 789.2038 207.5421 788.3655 206.8379 786.6686 205.4315 785.2849 205.1353 784.5611 205.6611 784.0839 206.7102 783.8121 207.586 783.9159 208.8393 784.1283 209.6897 784.004 209.8033 781.8425 210.2966 778.098 212.0534 774.9139 214.727 774.1675 215.8665 772.0715 217.7233 768.5977 220.347 762.4798 223.3832 760.6491 223.453 755.3481 225.6263 754.6382 226.3388 755.0425 227.3887 754.4148 228.0542 750.3565 230.7962 746.3358 232.4302 743.3504 233.1788 740.3621 234.3394 740.3676 234.8639 740.0593 235.5673 739.3502 235.5552 738.7513 235.6761 735.8361 237.0173 734.2445 237.0465 731.2822 237.6508 729.4653 238.7366 728.6081 240.067 724.3049 240.5843 722.2877 241.2189 717.4878 243.5867 716.4255 244.0161 715.632 244.0467 714.667 244.5461 713.9806 245.0269 713.7623 245.7374 708.2272 246.8273 707.4585 247.3038 704.6112 247.925 702.9379 248.5543 702.5396 249.3822 700.8631 250.2389 692.7939 253.4658 691.4087 255.5162 687.968 257.1537 681.585 261.2579 677.6517 263.3876 672.6142 266.5995 659.2445 277.6476 655.3012 281.544 655.0435 281.9732 655.1036 282.5862 654.6619 283.1599 654.1441 283.6247 653.2493 283.7823 652.1172 284.5241 643.635 292.5666 641.1934 226.9767 640.4977 224.7671 638.9396 199.7208 638.1316 180.4483 Z" id="fips-27031"/>
<path d="M 398.7713 805.9872 412.1314 805.8275 425.948 805.6437 438.8941 805.4417 439.5256 845.9187 439.6442 854.8688 439.6631 857.9658 439.6441 859.4396 439.246 859.4491 399.2825 859.9893 399.1629 846.4952 399.0648 833.0497 398.7713 805.9872 Z" id="fips-27147"/>
<path d="M 249.0523 630.9496 262.4705 631.1121 271.547 631.1126 273.8977 631.09 290.4627 631.0511 290.4588 637.8643 303.8495 637.7075 304.2967 644.6391 304.3864 658.0812 304.3524 671.4745 304.3349 684.9511 277.3502 684.8543 277.2436 698.4141 249.1207 698.292 249.5631 644.4537 249.0523 630.9496 Z" id="fips-27093"/>
<path d="M 236.9665 819.8258 250.5014 819.7914 291.6744 820.0064 291.6003 846.9513 291.5776 860.4244 237.2435 860.1338 236.6902 860.1301 236.9665 819.8258 Z" id="fips-27165"/>
<path d="M 5.7564 183.6978 72.4311 185.7699 72.1083 195.9119 71.718 209.4079 73.6177 209.4603 73.3546 218.4661 72.8694 236.4815 86.3346 236.8741 86.0609 250.3736 139.7151 251.565 140.0385 238.0209 153.3325 238.2268 153.5481 224.6987 166.7919 225.2259 166.4162 265.6076 169.0745 265.6639 168.5145 292.6118 114.7066 291.6347 32.5487 289.3494 32.5465 289.2503 32.4025 288.9455 32.4193 288.5488 32.4594 288.0926 32.6015 287.9324 32.6476 287.756 32.6131 287.5917 32.4703 287.3793 32.4529 287.008 32.3787 286.9193 31.9365 286.8232 31.631 286.6606 31.4475 286.4382 31.4316 285.966 31.1617 285.2444 31.1673 285.0815 31.3464 284.8206 31.6009 284.6131 31.7976 284.545 32.4403 283.5672 32.4074 283.3586 32.2736 283.1762 32.2532 282.8937 32.4869 282.5011 32.5365 282.221 32.52 282.1168 32.3187 281.8579 32.3048 281.6795 32.3493 281.5475 32.5573 281.3173 32.6279 281.0082 32.4992 280.6777 32.2052 280.3604 32.1055 280.0446 32.1016 279.8659 32.2923 279.5747 32.3612 279.324 32.3251 279.2037 32.1773 279.1244 32.1367 278.8403 32.1825 278.678 32.4056 278.6112 32.7297 278.2352 32.6981 277.9812 32.5148 277.7667 32.4774 277.3933 32.8214 276.8252 33.0804 275.3154 33.0219 274.9711 32.7486 274.456 32.7868 274.2193 32.9301 274.1348 32.9658 273.9722 32.8757 273.6716 32.6899 273.4974 32.5632 273.2698 32.803 272.657 32.7522 272.2793 32.5862 271.9617 32.2652 271.7312 30.871 271.4546 30.8344 271.2795 31.1666 270.9712 31.2128 270.8593 31.1871 270.7841 30.6201 270.5881 30.2993 270.3607 30.0659 268.3481 29.447 267.5569 29.4964 267.3599 29.8833 267.2139 30.0616 267.071 30.1511 265.9391 30.1044 265.7601 29.6929 265.2988 29.6576 264.3966 29.8702 263.9856 29.8947 263.6921 29.7483 263.2329 29.4991 262.8801 29.4999 262.5609 29.3706 262.3227 29.2842 262.1633 28.9368 262.0874 28.7916 261.898 28.5968 259.6069 28.5086 259.4018 28.3614 259.2655 28.2305 259.268 27.9777 259.621 27.7687 259.7308 27.5934 259.6893 27.4954 259.5617 27.4802 259.2953 27.7953 258.8805 27.7663 258.7021 27.5523 258.3541 27.3862 257.8518 27.2553 257.6558 27.1582 257.6956 27.0087 257.5506 27.015 257.3711 27.1094 257.1745 27.0742 256.8335 27.0123 256.6815 26.5436 256.2905 26.5335 255.978 26.5973 255.6782 26.5487 255.3369 26.229 255.066 26.2444 254.8169 26.6773 254.4117 26.7801 254.206 26.7248 254.0693 26.1271 253.3781 25.5842 252.5365 25.3664 252.0963 25.3222 251.85 25.3608 251.6599 25.7623 251.2019 25.8574 250.9109 25.8747 250.422 25.8304 250.0644 25.3079 249.7233 25.2807 249.6379 25.3157 249.3968 25.4828 249.2786 25.4872 249.0476 25.196 248.8091 24.9665 248.5032 24.9186 248.1576 25.0893 247.8336 24.874 247.2267 23.8274 246.13 23.0983 245.9556 23.1322 245.3964 22.5864 244.8349 22.3271 244.872 22.2343 244.7944 22.2389 244.5674 22.4424 244.2093 22.6552 243.9967 23.1079 243.7889 23.1195 243.6616 23.0582 243.4963 22.4828 243.0757 22.2327 242.6484 21.6518 242.4794 21.4532 242.53 21.2947 242.4559 21.202 242.2584 21.2038 241.9531 20.768 241.306 20.7133 241.1212 20.7449 240.8824 20.9673 240.6504 21.0756 240.3846 20.8437 239.7488 20.8353 239.0112 20.9023 238.8537 20.9887 238.7996 21.0039 238.3773 20.7657 238.1745 20.7093 238.0355 20.7872 237.4556 20.3114 236.3184 19.6597 236.2532 19.1263 235.6424 19.1766 235.4208 19.3423 235.2349 19.3437 234.99 19.3514 233.6818 19.2384 232.9828 19.0198 232.6594 18.8759 232.5998 18.4962 232.1655 18.4723 231.9629 18.7357 231.8791 18.9314 231.6531 18.8451 231.4483 18.552 231.205 17.3121 230.9435 16.9123 230.774 16.7227 230.5499 16.7283 230.3949 17.1759 230.1159 17.2889 229.8715 17.1535 229.5873 16.7479 229.2934 16.5525 228.9449 16.6088 228.5433 17.2281 228.1152 17.2563 227.9144 16.6548 227.2875 16.7763 226.8106 17.1848 226.4526 17.1841 226.1887 16.7964 225.6936 16.7297 225.241 16.8769 225.1997 17.1975 225.5372 17.5157 225.6572 17.7528 225.4327 17.7392 224.951 17.5576 224.5099 17.1439 224.2225 16.8982 224.0517 17.5028 223.7318 17.5436 223.4693 16.3518 222.216 15.733 221.79 15.5846 221.3035 15.7903 220.7986 15.7543 220.3626 15.4387 220.1806 14.8399 220.0659 14.2197 219.6866 13.8729 219.2239 13.7852 218.7861 13.8364 218.524 14.1293 217.9136 14.1535 217.5419 14.0017 217.1484 13.4965 216.7574 13.2561 216.5159 13.2197 216.3749 13.2589 216.1589 13.6608 215.6922 13.7421 215.4623 13.5339 214.9115 13.5628 214.6952 13.8698 213.9028 14.2177 212.7678 14.2774 212.4123 14.237 212.1998 14.1002 211.9912 13.3591 211.495 13.1631 211.0905 12.9703 209.3682 13.1207 209.0975 13.3801 208.8209 13.3618 208.5393 13.1958 208.4294 12.747 208.3328 12.6093 208.2126 12.4576 207.8673 12.4656 207.8076 12.5048 207.5138 12.8361 206.7696 12.873 206.5494 12.7781 204.3617 12.6232 203.3777 12.4593 202.8837 12.2995 202.643 11.5658 202.1399 11.1561 201.7481 10.1137 199.7141 9.5703 199.6027 9.4266 199.4796 9.4083 199.3756 9.4732 199.1476 9.8404 198.7149 10.0063 197.9986 9.9904 197.4115 9.7643 196.9006 9.4551 196.6847 9.4201 196.5403 9.443 196.321 9.6184 196.0578 9.6208 195.7991 9.5351 195.5372 9.1786 195.2179 9.0927 194.4542 8.8994 194.2624 8.7226 194.2132 8.0369 194.3132 7.6892 194.1037 7.6495 193.8917 7.7132 193.6623 7.9464 193.2388 7.9992 193.0725 7.9973 192.8206 7.9173 192.5168 7.4147 191.357 7.2853 190.9009 7.199 189.9744 6.9332 189.546 6.9084 189.2639 6.9781 188.9681 6.7492 188.6072 6.0251 188.3076 5.9576 188.0892 5.9608 187.612 6.1828 187.1797 6.2784 186.8396 6.352 186.5015 6.3668 186.1156 6.2989 185.9085 6.0669 185.7306 5.8435 185.3671 5.6208 184.4172 5.6457 183.9636 5.7564 183.6978 Z" id="fips-27119"/>
<path d="M 357.6515 554.0617 358.3636 594.7943 331.4763 594.9659 315.9822 595.0154 314.7521 593.8839 314.2533 592.7352 313.8941 590.8266 311.1819 588.2104 310.0932 585.6301 310.0725 581.3113 310.7007 578.0127 312.4104 576.4278 310.1605 576.5368 307.8159 570.7687 308.789 569.0245 304.0223 566.5707 302.7218 561.4715 298.3704 559.0795 298.2401 557.6078 296.6576 557.8321 293.9316 554.2025 330.9931 553.8816 357.6515 554.0617 Z" id="fips-27009"/>
<path d="M 88.7661 425.7847 100.3437 426.0897 100.436 412.5635 140.8241 413.6979 167.6337 414.2666 173.399 414.1157 179.0431 414.4574 207.9569 414.5915 207.8242 428.2015 208.6609 428.2114 208.1674 468.7235 208.1464 482.1412 209.0541 482.1614 208.7197 509.4127 168.3964 508.6689 141.6102 508.2398 88.3144 506.8364 89.0923 479.9079 87.4467 479.8611 88.7661 425.7847 Z" id="fips-27111"/>
<path d="M 141.7651 562.1853 168.6193 562.8494 168.6723 562.8505 179.5384 562.859 208.7514 563.4034 208.4145 590.3842 209.3242 590.3928 208.9862 617.179 195.5361 616.9912 168.8231 616.6915 141.9262 616.1432 142.4059 589.2691 141.2579 589.2486 141.7651 562.1853 Z" id="fips-27121"/>
<path d="M 355.5318 401.8651 355.4223 366.556 403.9273 366.487 417.2027 366.8081 431.5148 366.4242 431.5089 406.7563 431.3527 420.5331 431.7749 433.6408 432.5356 435.8423 433.0013 460.6362 433.6915 501.1595 420.2434 501.2767 408.9034 501.2766 393.0729 502.2909 393.2678 497.987 393.0612 487.9471 353.8236 488.736 353.6186 487.9471 352.3016 487.541 351.9343 435.8172 355.5093 434.9558 355.5318 401.8651 Z" id="fips-27001"/>
<path d="M 305.2156 860.4588 351.3383 860.3562 351.5758 860.3537 351.9902 860.3706 352.2841 860.365 358.8673 860.3271 372.2382 860.2157 372.5703 914.2552 366.8504 914.2905 366.2232 914.2956 365.7893 914.299 364.9511 914.3043 359.0657 914.3404 356.1628 914.3568 355.9931 914.3611 336.2963 914.4266 322.5469 914.3476 322.3842 914.3479 320.8387 914.3501 320.6347 914.353 305.0899 914.3493 305.2156 860.4588 Z" id="fips-27043"/>
<path d="M 304.3349 684.9511 331.1034 685.0458 331.3953 698.5144 331.389 725.5764 304.527 725.5386 304.4469 739.1194 277.5957 739.12 277.6189 725.5847 277.7033 711.9601 277.7471 698.8235 277.2436 698.4141 277.3502 684.8543 304.3349 684.9511 Z" id="fips-27085"/>
<path d="M 358.5611 806.3819 385.3721 806.1524 385.5689 806.1472 398.7713 805.9872 399.0648 833.0497 399.1629 846.4952 399.2825 859.9893 372.2382 860.2157 358.8673 860.3271 358.5611 806.3819 Z" id="fips-27161"/>
<path d="M 340.4493 765.9988 341.858 764.9938 345.3063 756.4422 342.5226 752.5819 371.6525 752.3133 377.0848 752.2975 382.1518 752.2889 385.2251 752.2514 385.4619 792.7005 385.5689 806.1472 385.3721 806.1524 358.5611 806.3819 358.5189 799.6281 345.1223 799.6847 341.1735 799.6354 337.2732 799.7105 331.4078 799.713 329.9154 796.891 332.9198 793.6162 333.6913 791.0302 337.1682 789.1851 340.1456 783.4821 336.8869 780.2393 337.6398 778.8381 338.1305 773.7528 339.2116 772.8851 340.6388 767.7518 340.4493 765.9988 Z" id="fips-27079"/>
<path d="M 385.2251 752.2514 403.6531 752.0148 412.0787 751.9288 412.1859 763.0904 439.0047 762.7584 439.1431 778.4074 439.4226 805.4324 438.8941 805.4417 425.948 805.6437 412.1314 805.8275 398.7713 805.9872 385.5689 806.1472 385.4619 792.7005 385.2251 752.2514 Z" id="fips-27131"/>
<path d="M 101.6729 615.3123 141.9262 616.1432 168.8231 616.6915 195.5361 616.9912 195.1838 643.9598 196.117 643.9767 195.9613 657.3664 109.5024 655.8202 107.3752 655.1094 102.272 651.8517 102.4924 642.0646 100.9258 642.024 101.4567 618.4835 101.6729 615.3123 Z" id="fips-27151"/>
<path d="M 100.0107 345.2901 113.473 345.5154 167.8977 346.6771 208.2102 347.1029 207.7556 374.1539 208.6063 374.1542 208.1969 401.0793 207.9569 414.5915 179.0431 414.4574 173.399 414.1157 167.6337 414.2666 140.8241 413.6979 100.436 412.5635 100.516 399.0601 101.4994 372.3027 99.4397 372.2517 100.0107 345.2901 Z" id="fips-27005"/>
<path d="M 438.8941 805.4417 439.4226 805.4324 452.3207 805.2046 466.3675 805.0249 479.743 804.9382 480.3143 831.8704 480.5441 845.2894 480.7705 858.7421 479.5419 858.7528 467.2529 858.961 452.6287 859.2233 439.6441 859.4396 439.6631 857.9658 439.6442 854.8688 439.5256 845.9187 438.8941 805.4417 Z" id="fips-27039"/>
<path d="M 6.1821 126.1716 85.7573 128.7071 166.4105 131.3763 166.4489 138.0923 165.952 158.2736 166.857 158.2872 166.2537 188.1437 126.1141 187.5297 113.005 187.2072 106.2698 186.7474 99.4863 186.7391 97.1464 186.3267 72.4311 185.7699 5.7564 183.6978 5.8087 183.572 6.1227 183.1859 6.2053 183.007 6.2282 182.8033 6.2061 182.3934 6.0982 182.2417 5.9273 182.1557 5.7918 181.9347 5.7778 181.7069 6.3033 180.7231 6.3392 180.5562 6.6962 179.9509 6.6111 179.1355 6.6598 178.8532 6.7748 178.6188 7.0927 178.426 7.1478 177.9735 6.8882 177.6375 6.8629 177.2162 7.105 176.915 7.1139 176.6184 7.0813 176.3459 6.8894 176.2132 6.8324 175.9952 6.8923 175.6836 7.0416 175.5261 7.084 175.2318 7.0583 175.0909 6.7549 174.8929 6.6106 174.6011 6.5809 174.1909 6.7395 174.0035 7.1652 173.7581 7.1885 173.5429 6.8991 172.9981 6.8992 172.6004 6.9821 172.4102 7.4783 171.8641 7.8996 171.7934 8.052 171.6368 8.1343 171.3529 8.1077 171.1874 7.9503 170.8688 7.928 170.648 7.9491 170.4982 8.1924 170.183 8.2043 169.8707 8.0707 169.5666 7.8258 169.4862 7.7302 169.3667 7.7472 169.1243 7.9189 168.8643 8.4345 168.7053 8.57 168.5865 9.3944 167.3114 9.3886 167.0651 9.2977 166.7138 8.8792 165.6789 8.5611 165.3879 8.3662 165.3851 8.2048 165.2154 8.1989 164.7635 8.2561 164.4761 8.3995 164.354 8.8081 164.346 8.8967 164.2449 8.9521 164.0039 8.9321 163.922 8.5458 163.5487 8.578 162.7046 8.4842 162.539 8.1003 162.3048 8.007 162.1277 7.9695 161.6978 8.0632 161.2612 8.1165 161.074 8.2691 160.9286 8.515 160.5027 8.5461 160.1329 8.5185 159.9655 8.1687 159.7734 7.908 159.7774 7.8078 159.6449 7.815 159.2358 8.1372 158.5953 8.247 157.9469 8.1959 157.7275 7.5796 157.1673 7.5373 156.718 7.6578 156.2363 7.6321 156.0179 7.4316 155.7898 7.025 155.6074 6.6569 154.7552 6.6989 153.662 6.7498 153.3901 6.8601 153.151 7.0878 153.0073 7.3272 152.5601 7.5663 151.5958 7.5768 151.3226 7.5066 151.0462 7.2371 150.7017 7.092 150.2706 7.0833 149.4491 7.1318 149.2381 7.2823 149.0003 7.6783 148.6806 8.151 147.938 8.2467 147.5461 8.2165 146.7543 7.9588 146.1061 7.5402 145.969 7.5163 145.5423 7.6027 145.3935 8.1361 145.17 8.2911 144.8109 8.3039 144.4769 8.0854 144.231 7.9602 143.8427 7.9564 143.6124 8.2896 143.222 8.427 142.9585 8.5238 142.4251 8.4495 142.0387 8.2281 141.8386 8.1945 141.7222 8.2144 141.2052 8.2866 140.9776 8.6615 140.4928 8.7882 139.8454 8.796 139.3087 8.6509 139.1115 7.893 138.6421 7.7666 138.2921 7.6827 137.8287 7.7474 137.1406 7.931 136.994 8.0041 136.7474 7.8747 136.474 7.6901 136.3138 7.6676 135.9101 7.7899 135.7037 8.1682 135.4396 8.2819 135.1974 8.3723 133.9512 8.2347 133.5624 7.6424 133.0992 7.5139 132.8066 7.4742 132.5176 7.0909 129.2809 7.2354 128.4999 7.5456 128.0319 7.5829 127.7265 7.4335 127.3182 7.0917 126.9602 6.5145 126.5915 6.3594 126.4046 6.18 126.1885 6.1821 126.1716 Z" id="fips-27089"/>
<path d="M 372.2382 860.2157 399.2825 859.9893 439.246 859.4491 439.4427 873.0117 439.8309 900.0073 440.0338 913.5288 426.5293 913.7151 419.8109 913.8002 414.9781 913.8908 400.6559 914.027 397.3382 914.061 392.8294 914.1046 392.3521 914.1203 391.3158 914.117 390.6122 914.1334 389.589 914.1365 389.5828 914.1366 386.0845 914.1646 385.6685 914.1679 382.6906 914.1849 380.6535 914.2013 376.1053 914.2316 372.5703 914.2552 372.2382 860.2157 Z" id="fips-27047"/>
<path d="M 166.4105 131.3763 168.0101 131.4594 193.1006 131.5998 206.5147 131.8211 206.2621 158.8038 286.9131 159.2239 287.2186 159.7983 287.8913 213.6415 287.8515 226.5816 287.7303 240.1239 287.8528 279.213 288.0628 280.359 287.7922 302.339 287.7666 307.4591 261.1075 307.604 259.7477 307.6211 247.4835 307.5589 234.0863 307.1546 207.2376 306.7027 207.3976 293.2563 206.5913 266.2572 207.051 235.3596 201.5971 233.6258 199.2079 230.3964 198.5249 224.2097 199.0318 221.6545 201.7991 214.6921 203.6687 212.4458 166.9568 211.7937 165.9605 211.7761 166.2537 188.1437 166.857 158.2872 165.952 158.2736 166.4489 138.0923 166.4105 131.3763 Z" id="fips-27007"/>
<path d="M 109.5024 655.8202 195.9613 657.3664 195.741 670.8637 195.2145 697.8672 169.4501 697.5807 169.0555 712.1902 169.1165 719.0199 168.3251 719.1772 167.7847 716.3157 167.7331 716.2915 167.5056 716.2451 167.3108 716.1762 167.1657 716.0978 167.1076 716.0534 165.9766 716.9809 164.0589 716.0975 164.4956 714.203 167.4813 713.6616 165.2036 711.3015 162.388 710.9915 163.4441 709.7758 160.7762 707.9142 158.9822 705.4451 154.7879 703.5352 154.8838 702.155 152.8885 699.2596 151.9319 699.7877 150.463 697.5071 148.5901 696.3048 148.6818 695.1273 144.5715 695.1461 143.5477 692.3413 141.686 690.0528 140.9607 688.767 138.0322 688.8165 134.3041 687.8647 132.2816 685.3677 132.1889 681.9731 128.3159 678.7301 127.3924 676.1261 125.8391 675.4578 115.4842 664.4455 113.0412 660.541 112.0535 660.2991 109.5024 655.8202 Z" id="fips-27023"/>
<path d="M 170.0191 805.3763 195.8895 805.8559 207.9886 805.9993 209.374 806.0551 210.2393 806.0815 210.1781 819.5591 236.9665 819.8258 236.6902 860.1301 210.2781 859.8965 209.6967 859.8884 170.3159 859.3506 169.2052 859.3394 170.0191 805.3763 Z" id="fips-27033"/>
<path d="M 425.1218 567.6239 457.6961 567.2253 457.4787 567.3627 456.8546 567.4373 456.6912 567.6225 456.6835 568.1193 456.642 568.2046 456.376 568.3145 455.3826 568.4727 455.0521 568.7294 454.6803 569.2098 454.6329 569.5871 454.7306 570.0742 454.4464 571.9755 454.6425 572.3605 454.6308 572.4407 454.0717 573.6518 453.9548 575.784 453.7583 577.2901 453.3867 578.2485 453.2376 578.9651 453.0731 580.3419 452.9308 580.6343 452.8504 581.4337 452.9608 581.7778 452.9842 582.3011 452.8573 583.0833 452.8745 583.6135 453.036 584.4177 453.4527 585.3454 453.5096 585.8911 453.2655 586.7046 453.1142 587.6883 453.1261 588.2776 453.4803 589.0555 453.3262 590.7673 453.4656 591.2826 453.7547 591.5997 454.8616 592.4857 457.5402 592.6058 457.8305 592.6598 458.8842 593.1134 460.0682 593.4285 461.2872 593.378 462.4318 593.0891 463.6547 592.4371 464.1301 592.2776 465.1878 592.1671 465.4683 592.1998 465.8182 592.3946 466.4411 592.9028 467.291 593.8331 468.5328 594.5062 470.6861 596.314 470.8367 596.6984 470.8542 596.9888 470.5192 598.7166 470.569 599.7774 470.6973 600.45 470.9581 600.7927 471.9006 601.636 472.337 602.1548 473.4177 603.7229 474.2098 605.2854 474.6199 606.3034 475.1565 606.9143 475.8934 608.1305 476.2258 608.3539 477.99 609.0315 478.8238 609.4704 478.9188 609.5956 479.6209 611.5828 479.6139 612.1582 479.3793 613.4527 479.2889 615.0764 479.3845 615.5029 479.6657 615.8299 479.6979 615.9904 479.554 616.8941 479.3035 617.5376 479.3339 618.2822 478.4628 618.6793 477.8591 619.1176 477.2829 619.7803 476.7359 620.7602 476.4969 621.1883 476.3128 621.8027 476.3785 622.2045 476.2754 622.3452 474.4159 623.8056 473.7524 624.603 473.6512 624.9374 473.6208 625.3524 474.1472 627.0867 474.2219 627.5597 474.2254 628.0237 474.1252 628.4381 473.6183 629.5636 473.0689 630.3847 471.1646 632.2849 470.649 633.0804 470.1655 633.6736 469.256 634.4067 461.6912 634.4667 439.3631 634.7352 439.0885 616.9171 438.7237 607.8241 438.4626 594.3634 425.4557 594.3986 425.1218 567.6239 Z" id="fips-27025"/>
<path d="M 331.1034 685.0458 357.9855 685.0567 358.09 685.5995 358.0934 698.5702 367.2538 698.5042 369.4231 698.4116 371.4761 698.4565 378.5796 698.3878 384.9205 698.2887 385.1781 698.7379 385.1967 702.2255 385.2263 703.3913 385.3189 711.8149 383.0284 711.788 376.6034 715.2854 377.225 716.232 374.1875 718.7268 373.1564 722.1824 373.7077 725.2181 373.8032 725.7728 374.6754 726.8693 371.8371 729.234 369.1852 728.8493 365.8659 732.8754 360.4714 736.6595 359.5531 738.2712 358.1899 737.4417 358.1475 732.2888 344.8319 732.3684 344.8276 725.5991 331.389 725.5764 331.3953 698.5144 331.1034 685.0458 Z" id="fips-27019"/>
<path d="M 236.7874 759.3021 242.4103 761.4833 242.9323 763.5261 246.1717 765.824 245.5167 766.6477 247.6002 767.9478 249.5815 766.9315 252.1744 769.4149 255.6256 770.2923 254.7576 772.0933 256.3487 772.0072 255.8387 774.3369 257.1996 773.2632 258.8072 775.618 260.1455 774.7931 263.747 777.4992 266.5566 777.0453 268.4731 779.0801 271.1261 778.537 271.9878 780.2352 274.6586 780.142 276.1768 781.7361 278.1642 781.042 278.1209 782.193 281.4771 785.2805 282.5327 785.1193 282.5264 787.7444 284.7679 790.9347 286.695 792.3469 287.016 794.4877 291.404 795.8507 291.6744 820.0064 250.5014 819.7914 236.9665 819.8258 210.1781 819.5591 210.2393 806.0815 209.374 806.0551 209.6671 792.6073 236.4666 792.7799 236.7874 759.3021 Z" id="fips-27015"/>
<path d="M 439.6376 661.5877 443.5684 661.5661 443.594 662.7583 443.642 665.7271 443.7063 671.8286 443.7582 675.4629 443.7721 676.2383 443.8757 682.668 443.9291 686.446 444.1463 697.0962 441.9332 697.7237 440.2162 697.7521 438.3538 696.3653 437.0034 693.6713 436.7625 693.3417 428.2206 693.4385 427.1681 695.8864 425.4974 697.6255 423.9367 698.3204 422.7978 698.3682 422.9342 697.5201 421.0627 695.7409 420.3624 695.2036 420.2667 691.2954 420.0316 689.088 419.4626 688.3451 419.4151 682.9364 419.3826 680.1177 419.2691 675.5409 417.2037 675.5778 417.1628 673.3647 417.1247 671.5525 417.1152 671.0238 417.0082 666.6508 416.9721 664.5066 416.9539 661.7921 418.5991 661.7896 421.2231 661.7634 430.1991 661.6862 439.6376 661.5877 Z" id="fips-27123"/>
<path d="M 156.2207 751.4146 182.1426 751.9171 182.5134 727.5994 187.1917 728.5096 187.7046 730.9315 190.1533 733.4692 192.4815 733.8416 195.2405 732.6606 201.5398 739.3476 205.4795 740.8401 205.9109 742.0297 209.1475 744.283 210.54 745.2008 211.1919 747.5987 213.537 747.3996 215.55 749.1478 218.3191 749.9706 220.3181 752.2608 223.2603 751.7447 225.4141 753.6856 229.8197 755.1965 231.4379 756.5268 235.416 756.741 236.7874 759.3021 236.4666 792.7799 209.6671 792.6073 209.374 806.0551 207.9886 805.9993 195.8895 805.8559 170.0191 805.3763 155.4431 805.1958 155.7054 791.6376 155.8492 778.0934 156.2207 751.4146 Z" id="fips-27127"/>
<path d="M 64.4794 636.5407 68.3346 637.0235 69.4454 638.6062 73.2762 638.1176 82.8972 640.4622 83.7661 644.2493 86.3598 644.8804 89.2949 644.6879 94.7432 649.155 98.5561 649.1833 101.8605 650.8306 102.272 651.8517 107.3752 655.1094 109.5024 655.8202 112.0535 660.2991 113.0412 660.541 115.4842 664.4455 125.8391 675.4578 127.3924 676.1261 128.3159 678.7301 132.1889 681.9731 132.2816 685.3677 134.3041 687.8647 138.0322 688.8165 140.9607 688.767 141.686 690.0528 141.4876 696.9638 129.3834 696.6707 128.9399 710.0769 62.6315 708.4092 62.9456 695.3016 63.0342 692.7289 63.0302 692.1044 63.2215 684.0328 63.313 681.7473 63.3131 681.7445 63.5766 671.6856 63.6174 670.4702 63.6199 670.2503 63.8013 663.6999 63.828 663.4986 63.9042 659.226 63.9173 659.01 64.1583 650.5584 64.2801 646.7516 64.2887 646.4818 64.2888 645.8396 64.4794 636.5407 Z" id="fips-27073"/>
<path d="M 170.3159 859.3506 209.6967 859.8884 210.2781 859.8965 236.6902 860.1301 237.2435 860.1338 236.8054 914.0026 236.4326 913.9994 236.1708 914.0079 234.76 913.9932 234.5901 913.9929 233.1203 913.9888 230.0549 913.9697 230.0424 913.9696 230.0119 913.9693 230.0062 913.9692 227.7921 913.9428 225.5575 913.9253 223.3195 913.8974 221.0569 913.8726 218.8304 913.7959 216.6067 913.7822 214.4112 913.7653 214.323 913.7503 207.5032 913.704 206.63 913.6803 202.9935 913.6846 201.6031 913.6178 201.5361 913.5993 200.1253 913.5991 196.2407 913.533 192.8752 913.441 192.2076 913.5547 192.1844 913.5454 178.2536 913.3728 178.1938 913.3707 176.7847 913.3624 176.7819 913.3624 176.7775 913.3623 171.5612 913.2711 171.5507 913.2638 169.2847 913.1841 170.3159 859.3506 Z" id="fips-27063"/>
<path d="M 295.2944 483.4773 296.277 483.1902 296.8413 481.6003 296.537 428.627 294.9978 428.5947 294.9967 415.0695 295.311 401.5622 301.9959 401.6372 355.5318 401.8651 355.5093 434.9558 351.9343 435.8172 352.3016 487.541 353.6186 487.9471 353.8236 488.736 352.2533 488.7549 352.3782 502.1855 311.7396 502.216 291.7227 502.1887 292.6338 498.6227 289.4726 493.6839 289.6223 491.069 290.2122 489.603 293.8262 486.9836 295.497 484.66 295.2944 483.4773 Z" id="fips-27035"/>
<path d="M 2.2642 55.1739 41.5271 56.6703 85.9993 58.0513 84.777 101.8792 86.5629 101.9241 85.7573 128.7071 6.1821 126.1716 6.2373 125.739 6.3088 125.5308 6.4423 125.3632 6.9743 125.0825 7.2151 125.0851 7.3231 124.9166 7.3582 124.6685 7.1932 124.3363 6.9464 124.1545 6.7658 123.8984 6.7232 123.6859 6.7597 123.0735 6.8976 122.7909 7.499 122.5481 7.7198 122.2078 7.7958 121.8846 7.827 121.4062 7.762 121.1161 7.7649 120.7135 7.9083 120.4842 8.2705 120.4319 8.4059 120.2963 8.4899 120.0861 8.6686 118.9929 8.6124 118.7154 8.4507 118.3991 8.4908 118.017 8.5876 117.8097 8.7999 117.5682 9.0909 116.927 9.1981 116.4514 9.1212 116.1418 9.2149 115.6848 9.3601 115.5369 9.6902 115.5299 9.8458 115.4398 9.9372 115.0405 9.8886 114.655 10.0277 114.3342 10.4822 114.3893 10.5745 114.2968 10.6607 114.0315 10.6588 113.7025 10.4928 113.4499 10.5053 113.1244 10.5723 113.0309 11.0362 112.8372 11.6206 113.0499 11.9801 112.9941 12.1965 112.8178 12.3111 112.6351 12.3408 112.3665 12.2265 111.6652 12.0179 111.0322 12.1034 110.7859 12.4669 110.3023 12.6909 109.5495 12.839 109.2781 13.1343 108.9975 13.2749 108.6427 13.282 108.1251 13.0962 107.6773 13.2219 107.375 13.3853 107.2018 13.4259 106.6678 13.3862 105.3866 13.4597 105.1207 13.7152 104.7274 13.7605 104.5372 13.7418 104.364 13.6352 104.1683 12.6396 103.5189 11.7082 102.0742 11.6485 101.6501 11.8737 101.39 11.9752 100.7225 11.482 100.0456 11.2007 99.1704 11.0006 98.8628 10.2241 98.2031 10.0926 98.0064 10.0501 97.7938 10.163 97.4913 10.2097 96.9369 10.1665 96.7435 9.8054 96.4052 9.7514 96.1743 9.8147 94.8605 9.4636 94.1799 8.783 93.5632 8.6885 93.4072 8.6737 93.1396 9.1007 92.1826 9.1147 91.8208 8.6322 90.7836 8.5052 90.6727 8.4122 90.4785 8.3805 90.3247 8.4255 90.1356 8.5319 89.9869 8.6146 89.475 8.532 89.3385 8.238 89.1368 8.1687 88.9816 8.1909 88.4275 8.2769 88.067 8.1807 87.8895 7.865 87.7795 7.6955 87.5944 7.6496 87.2606 7.6597 86.5716 7.4587 85.9001 7.4677 85.6707 7.5858 85.3871 7.5925 85.213 7.5243 84.9972 7.2394 84.7732 6.6798 84.5806 6.3858 84.2567 6.2364 83.985 6.1077 83.575 6.3791 82.5976 6.0735 81.938 6.0835 81.3567 6.1699 81.108 6.654 80.848 6.8088 80.6827 6.8625 80.5221 6.8331 79.8522 6.562 79.2425 6.5951 79.0498 6.7482 78.726 6.7679 78.2228 6.4386 77.6269 6.3609 76.8893 6.1445 76.5516 5.8329 76.3654 5.6748 76.1657 5.6586 75.9323 5.8523 75.2225 5.8089 75.0269 5.663 74.847 5.3889 74.6815 4.6538 73.9172 4.5761 73.6235 4.6813 73.2203 4.7063 72.9111 4.5158 72.2448 4.7244 71.8069 4.7638 71.1299 4.6839 70.8943 3.8013 70.4267 3.5215 70.1429 3.324 69.553 3.3502 69.2876 3.5529 68.6608 3.5337 68.2413 3.3624 68.02 2.857 67.7367 2.7591 67.3695 2.767 66.9381 2.9596 66.5112 2.9646 66.1649 2.8625 65.868 2.2824 65.486 2.1182 64.7736 2.1047 64.0138 2.0141 63.6506 1.5963 63.155 1.5884 62.9148 1.7848 61.7234 1.8013 61.311 1.7497 61.0692 1.6538 60.839 1.149 60.5956 1.0202 60.3995 1 60.0712 1.1605 59.0752 1.1702 57.9139 1.3001 57.4433 1.6339 56.9488 1.9922 56.6 2.0487 56.2821 1.9545 55.8706 1.9715 55.6824 2.2642 55.1739 Z" id="fips-27069"/>
<path d="M 237.2435 860.1338 291.5776 860.4244 305.2156 860.4588 305.0899 914.3493 290.5115 914.3213 289.0333 914.3039 283.1528 914.2701 283.1513 914.2701 282.6785 914.26 280.0473 914.2977 269.8688 914.2514 269.3253 914.2562 263.6687 914.1951 236.8054 914.0026 237.2435 860.1338 Z" id="fips-27091"/>
<path d="M 527.3544 763.7528 527.8911 764.49 528.4433 765.0943 529.7233 765.8457 530.386 766.1213 532.595 766.7966 535.3946 767.5312 536.2667 767.7245 538.8114 768.052 540.4891 768.4051 540.8726 768.6345 541.534 769.3178 542.0088 769.6324 543.5331 769.9775 544.6707 770.3531 545.0764 770.5997 545.6435 770.9445 546.3492 771.0578 547.5265 771.0095 548.1029 771.2103 548.4338 771.4115 549.2672 772.4714 550.1922 773.3255 552.3105 774.4334 553.5057 774.6473 553.7762 774.7641 554.1536 775.0185 554.3408 775.218 554.4589 775.3439 555.1572 775.8157 555.9106 776.2107 556.2809 776.3045 556.8799 776.2995 557.2884 776.4208 557.8116 776.6659 557.8158 776.669 558.5664 777.2234 559.0299 777.6304 559.8004 778.6051 560.1754 779.244 561.1279 780.4299 562.603 781.2419 562.9035 781.532 563.723 783.1961 564.0128 783.898 564.3366 784.9285 564.3365 785.0837 564.2586 785.4214 563.5495 786.5529 563.2255 787.1789 563.1384 787.5345 563.1915 787.9991 563.476 788.6122 563.6951 788.8099 565.3252 789.5203 566.1318 790.1862 566.399 790.5635 566.488 790.8219 566.3979 791.9977 566.4926 792.3946 567.286 793.4283 567.4395 793.7169 567.5371 794.0863 567.4645 794.9222 566.9516 796.6825 566.9987 797.3086 567.3428 798.0463 568.4439 799.5239 568.775 800.0781 568.9089 800.5933 568.9723 801.6538 569.0816 801.9846 569.3978 802.1938 570.2966 802.5696 570.9788 803.1035 546.4234 803.801 546.7389 817.131 520.0656 817.689 519.7577 804.3053 506.4742 804.5394 493.9648 804.7467 493.4389 777.8263 506.7584 777.5746 506.5056 764.0778 527.3544 763.7528 Z" id="fips-27157"/>
<path d="M 384.8343 567.4991 398.347 567.9303 425.1218 567.6239 425.4557 594.3986 438.4626 594.3634 438.7237 607.8241 439.0885 616.9171 431.0555 616.7214 425.7216 616.8148 423.4684 616.7566 412.2988 616.9753 385.6518 617.0777 385.5194 608.2208 385.3912 594.7373 384.8343 567.4991 Z" id="fips-27059"/>
<path d="M 103.2107 857.8618 130.1193 858.5796 169.2052 859.3394 170.3159 859.3506 169.2847 913.1841 169.254 913.183 169.2538 913.1962 166.9619 913.1949 165.6481 913.1831 165.6406 913.1874 162.4917 913.1947 137.0533 912.7316 136.9682 912.7304 127.9987 912.5398 126.5197 912.5092 123.5349 912.4471 123.5117 912.4466 101.907 911.9347 102.8692 871.5031 103.2107 857.8618 Z" id="fips-27105"/>
<path d="M 638.1316 180.4483 638.9396 199.7208 640.4977 224.7671 641.1934 226.9767 643.635 292.5666 642.6487 293.6509 641.3288 293.9693 638.1418 298.4062 636.1521 300.795 635.2579 301.1533 633.0344 303.1324 632.7424 304.0835 631.1699 306.0237 630.1833 306.4729 628.8398 308.4733 627.0302 312.6083 625.2598 314.368 621.9978 318.2495 620.8737 320.5409 619.6409 322.3259 619.2783 322.31 618.7928 322.6921 616.9877 324.4938 613.1932 328.8199 610.4131 333.0052 610.0305 333.9418 608.355 335.3904 607.0624 337.0679 605.8766 337.6343 603.7977 339.5343 600.4436 343.8429 599.9561 344.7917 597.8793 346.9579 595.7282 347.5111 594.7906 348.1781 593.6015 349.8283 587.8904 352.8462 586.1328 356.2011 585.1609 357.0496 584.7411 357.0814 583.8937 357.7483 582.499 359.2283 581.4551 360.7409 581.2719 361.3043 580.7438 362.9279 579.1333 364.0906 579.1224 364.0985 578.4891 364.8937 574.4985 366.4257 571.1768 370.0064 567.0731 374.9545 566.7442 375.8833 565.359 376.889 564.9139 363.6064 564.7119 355.2939 564.54 350.5675 564.784 350.2365 564.622 348.1496 563.6464 309.3686 563.0948 282.7008 558.8503 181.0052 558.8663 181.0116 559.5178 181.0417 559.836 181.9543 560.1334 181.9665 560.6262 181.3276 562.3318 181.2514 562.4757 181.1053 562.7036 180.5877 563.1403 180.5381 563.438 181.1223 563.9523 181.4718 564.3782 181.5185 564.6891 181.4058 564.6231 180.5746 564.9814 180.6128 567.4796 181.3174 567.9619 182.1143 567.8731 182.8617 567.7965 183.1124 566.9041 184.2647 566.7937 184.5661 566.6242 185.763 566.7655 185.9749 567.3461 185.5629 568.1857 185.3943 568.6158 185.6822 568.6931 187.3961 568.5011 188.3418 568.3753 188.4947 568.9245 189.6121 569.1219 189.7016 569.3658 189.7009 569.4624 189.8433 569.5015 190.1754 569.364 191.7011 568.9683 192.7916 568.5684 193.1005 568.1719 194.06 568.1496 194.2415 568.2076 194.3956 569.0894 194.5487 570.1809 194.0778 570.3123 193.8785 570.2153 193.6157 571.1866 193.1522 571.1099 193.8355 570.7448 194.7834 571.4588 195.3175 571.8799 195.4355 572.4289 195.2479 572.8422 195.2348 573.0892 195.4362 573.2988 195.1423 573.3314 194.7334 574.2895 194.2917 574.401 194.352 574.4661 194.5025 574.2808 195.0012 575.7328 196.9163 578.2873 196.0604 581.0091 195.9308 582.3424 195.2127 584.0495 194.8829 584.7307 195.6759 583.0443 197.2321 582.5946 201.446 582.8966 202.8332 582.6662 204.1603 583.5655 204.9177 586.0789 203.3516 591.58 200.8684 593.9849 200.9867 595.5451 200.6167 595.9414 200.8227 595.9082 201.4764 596.9056 203.1618 596.8361 203.4941 596.9744 203.6027 597.8008 203.6732 599.4084 202.8546 601.7439 202.22 602.9058 200.9027 603.7723 200.2331 604.3796 200.5904 605.8672 199.8056 606.9314 199.5257 607.3017 199.8774 607.3231 200.0717 607.738 200.1027 608 200.0187 608.1296 199.8934 608.2132 199.7661 608.5275 199.5668 609.5678 199.4012 609.8672 199.4647 610.8199 199.4158 612.0998 199.2273 613.5493 198.4687 614.5401 198.3971 616.1927 197.5015 617.6937 195.6081 618.5748 194.9932 619.7739 194.4406 622.1213 190.9442 622.8879 191.3273 623.593 190.7453 625.5796 188.3928 627.4262 186.9749 627.3549 186.6868 627.3345 186.6202 627.2287 186.3561 627.2192 186.1155 627.2973 185.9408 629.1849 185.1585 629.3898 184.8914 629.6858 184.2626 630.2886 183.8698 631.4079 183.4036 631.978 183.0795 632.3182 182.4064 632.9144 181.8543 633.0789 181.9009 633.1638 182.0749 633.6548 182.0661 634.6869 181.7131 634.9335 181.0827 635.5752 180.6919 636.9028 180.3912 637.7022 180.3169 637.7339 180.3121 637.8146 180.3869 638.1316 180.4483 Z" id="fips-27075"/>
<path d="M 277.6189 725.5847 277.5957 739.12 304.4469 739.1194 304.527 725.5386 331.389 725.5764 344.8276 725.5991 344.8319 732.3684 358.1475 732.2888 358.1899 737.4417 355.54 739.2118 352.9527 738.6039 350.6413 740.8651 348.3041 740.4696 348.0003 742.7819 346.5243 742.688 343.3742 745.6782 344.4551 746.0871 343.6122 748.5047 344.6165 749.0855 342.5226 752.5819 345.3063 756.4422 341.858 764.9938 340.4493 765.9988 263.4992 766.0301 263.5529 752.6461 263.0063 752.6403 263.1263 725.5969 277.6189 725.5847 Z" id="fips-27143"/>
<path d="M 385.6518 617.0777 412.2988 616.9753 423.4684 616.7566 425.7216 616.8148 431.0555 616.7214 439.0885 616.9171 439.3631 634.7352 439.525 648.0841 439.5252 648.108 439.5509 652.2766 439.6376 661.5877 430.1991 661.6862 421.2231 661.7634 418.5991 661.7896 416.9539 661.7921 416.9721 664.5066 417.0082 666.6508 417.1152 671.0238 417.1247 671.5525 417.1628 673.3647 417.2037 675.5778 412.2585 675.6632 411.009 675.6992 411.1128 673.2463 410.7711 672.1175 411.2312 670.0561 411.448 665.1426 410.7379 664.3439 409.6241 663.3709 409.4704 662.3147 409.1411 661.208 407.7409 658.914 405.9047 657.7574 404.8413 657.0252 402.515 654.1316 400.9269 653.6511 396.3063 650.2073 395.5006 648.5459 388.5918 646.3989 385.6448 643.3207 385.7046 634.993 385.7207 621.6061 385.6518 617.0777 Z" id="fips-27003"/>
<path d="M 32.5487 289.3494 114.7066 291.6347 113.473 345.5154 100.0107 345.2901 32.8801 343.4264 32.8768 343.3676 33.235 342.905 33.8064 342.571 33.8417 342.4658 33.8138 342.3478 33.6139 342.1314 33.5977 342.0123 33.6651 341.8069 33.875 341.5617 33.9171 341.2072 33.6758 340.8878 33.7159 340.2958 33.6328 340.0708 33.1736 339.6402 33.1604 339.4322 33.2057 339.2854 33.4824 338.8496 33.52 338.6283 33.4963 338.4349 33.3614 338.2525 33.1435 338.1413 33.0378 337.9896 32.9471 337.6898 32.9416 337.5563 33.0954 337.1757 33.0904 337.0273 32.9087 336.7394 32.5238 336.5043 32.3798 336.2917 32.3275 336.0527 32.3566 335.7868 32.4652 335.5532 32.9928 335.1407 33.0682 334.9949 32.9359 334.7383 32.7598 334.5842 32.7346 334.4349 32.9363 334.1303 32.9719 333.9683 32.9588 333.7603 32.6645 333.2315 32.7716 332.7457 32.7504 332.4779 32.5044 332.3067 32.4134 332.0218 32.4697 331.8458 32.8096 331.6197 32.8131 331.5161 32.6427 331.1942 32.6361 330.7983 32.8084 330.463 33.0954 330.3093 33.1718 330.1339 33.1525 329.9172 33.0871 329.8454 32.6735 329.3907 32.6182 329.2406 32.6237 329.0776 32.7313 328.8736 32.9941 328.5412 33.0232 328.2753 32.9648 327.9174 32.4764 327.4859 32.4402 327.3661 32.519 327.1166 32.5024 327.0121 32.3421 326.6955 32.418 326.5348 32.4586 326.2247 32.4049 326.0301 32.2763 325.9665 32.2722 325.7884 32.3395 325.5831 32.5742 325.4871 32.6737 325.2235 32.5988 325.0578 32.3114 324.9296 32.2461 324.7791 32.3616 324.3382 32.5719 324.0122 32.5937 323.7823 32.4998 322.6831 32.2552 321.7526 32.2887 321.2819 33.5094 319.5418 33.5229 319.1418 33.243 318.5465 33.1082 318.457 32.693 318.4172 32.537 318.2785 32.6208 317.5843 32.7046 317.4834 33.1529 317.3055 33.2598 317.1162 33.2848 316.9688 33.2201 316.5069 33.3826 316.1565 33.3946 315.8009 33.3104 315.6201 33.0765 315.4048 33.0634 315.1967 33.363 314.658 33.2973 314.2258 32.8914 313.8595 32.559 313.037 32.4558 312.5293 32.6625 311.765 32.5808 311.5102 32.314 311.3826 32.1901 311.1858 32.0793 310.9003 32.0794 310.3071 31.7821 309.8967 31.8078 309.7345 32.0936 309.5957 32.2009 309.3917 32.1735 309.2385 31.852 309.0242 31.6796 308.781 31.8011 308.5416 32.1963 308.4943 32.415 308.2644 32.58 307.5433 33.0648 307.1591 33.1452 306.272 33.1426 306.0494 33.0385 305.868 32.6566 305.5884 32.6271 305.276 32.7464 304.7164 32.7299 304.6121 32.4333 304.1869 31.9581 303.7439 31.976 303.4746 31.9123 303.2797 31.4195 303.0414 31.0486 302.4048 31.0281 302.2765 31.1405 301.9858 31.1302 301.8684 30.8875 301.7104 30.8215 301.5896 30.8291 301.3673 30.9765 301.1647 31.3363 300.9099 31.4376 300.5871 31.2453 300.3433 31.2123 300.1346 31.2389 299.9427 31.4961 299.4619 31.3479 299.1011 31.3861 298.8652 31.6437 298.3696 31.6498 298.1918 31.4556 297.5551 31.5181 296.642 31.632 296.3673 31.6481 296.1898 31.4959 295.9474 31.4731 295.7391 31.5202 295.5331 31.7485 295.3034 31.8343 294.8466 31.5663 294.267 31.555 293.6361 31.6453 293.3425 32.0008 292.9096 32.1345 292.5137 32.1116 292.3054 31.792 291.9832 31.7565 291.8485 31.7642 291.6263 31.8282 291.5098 32.0229 291.383 32.082 291.1179 32.0676 290.9544 31.7961 290.6932 31.8012 290.5451 31.8698 290.2953 31.9749 290.1505 32.5544 289.6064 32.5487 289.3494 Z" id="fips-27107"/>
<path d="M 506.4877 860.4414 506.4562 858.2446 547.7973 857.4195 586.8139 856.3113 588.3864 909.4018 588.4358 909.9658 588.4199 909.9662 588.086 909.9855 587.7232 910.0064 587.511 910.0186 584.9273 910.0811 583.0966 910.1258 582.916 910.1171 580.0331 910.2182 579.7825 910.2363 577.7924 910.2907 574.8577 910.3827 564.6338 910.6957 563.7295 910.7322 549.1136 911.1103 549.0964 911.1107 547.9695 911.1351 546.4038 911.1687 537.9689 911.3914 535.728 911.4771 526.8809 911.7057 526.6944 911.7149 516.5879 911.9514 514.406 911.9971 512.3996 912.0438 512.0952 912.0293 507.582 912.1603 506.4877 860.4414 Z" id="fips-27045"/>
<path d="M 384.6097 643.1846 385.6448 643.3207 388.5918 646.3989 395.5006 648.5459 396.3063 650.2073 400.9269 653.6511 402.515 654.1316 404.8413 657.0252 405.9047 657.7574 407.7409 658.914 409.1411 661.208 409.4704 662.3147 409.6241 663.3709 410.7379 664.3439 411.448 665.1426 411.2312 670.0561 410.7711 672.1175 411.1128 673.2463 411.009 675.6992 412.2585 675.6632 417.2037 675.5778 419.2691 675.5409 419.3826 680.1177 419.4151 682.9364 419.4626 688.3451 420.0316 689.088 420.2667 691.2954 420.3624 695.2036 421.0627 695.7409 422.9342 697.5201 422.7978 698.3682 422.7883 699.637 420.7154 702.4814 419.2729 705.953 414.8748 710.3923 406.3503 713.6537 405.5729 714.3914 403.9001 713.8653 403.5196 714.5362 400.7166 714.5507 398.7436 712.5794 394.3724 710.376 392.202 711.8928 385.3189 711.8149 385.2263 703.3913 385.1967 702.2255 385.1781 698.7379 384.9205 698.2887 378.5796 698.3878 371.4761 698.4565 369.4231 698.4116 367.2538 698.5042 358.0934 698.5702 358.09 685.5995 357.9855 685.0567 357.9811 672.7453 358.5428 668.9502 361.1351 668.7879 361.5667 668.0819 361.6352 668.0495 362.1053 667.6474 362.1062 667.126 362.0247 666.4957 365.148 660.4373 367.2605 658.1138 367.8126 658.1422 371.917 655.8523 371.9044 654.5271 369.6785 651.4462 371.7246 649.0759 376.8891 648.4839 380.3228 646.2651 383.2695 645.6806 384.5277 643.5339 384.6097 643.1846 Z" id="fips-27053"/>
<path d="M 87.8805 520.3316 88.3144 506.8364 141.6102 508.2398 141.0989 535.2029 142.2706 535.2242 141.7651 562.1853 88.1398 560.9795 88.8751 533.8579 87.5287 533.8132 87.8805 520.3316 Z" id="fips-27051"/>
<path d="M 55.4432 532.8326 55.5754 532.5505 55.7432 531.2253 55.6663 530.9027 55.3908 530.486 54.8538 528.4133 54.7115 525.8261 54.744 524.376 54.682 522.3973 54.6424 522.0662 54.4645 521.5074 54.6769 520.1869 54.4532 519.3572 87.8805 520.3316 87.5287 533.8132 88.8751 533.8579 88.1398 560.9795 87.5543 588.0212 24.3518 586.0562 23.4692 584.8042 23.4303 584.7451 22.8993 584.018 22.4608 583.4811 22.0344 582.8993 22.1689 582.4257 22.6612 581.5418 22.7682 580.8355 23.675 577.7339 24.0797 576.8607 24.6414 576.2033 24.989 575.8938 25.5627 575.7031 25.7057 575.5375 28.5952 573.4295 32.947 570.5959 33.3639 570.0754 34.1416 568.8856 34.7254 568.4705 38.4772 566.1084 41.1084 564.8919 42.7149 563.9478 43.8351 562.9974 44.9959 561.7717 46.1706 559.7799 46.4408 558.9298 46.5671 558.193 46.8088 557.6522 47.5073 556.5162 47.6392 556.0461 47.8269 555.737 48.0977 555.4836 48.8858 555.0204 49.516 554.515 50.0664 553.8132 50.7228 552.7039 51.3058 551.8742 51.6925 551.5642 52.3661 551.1852 52.8158 550.6431 53.2041 549.7549 53.4815 548.6317 53.4984 547.8835 53.6147 547.5741 53.8482 547.0916 54.0991 544.2262 53.9601 543.6929 53.9414 543.412 54.2665 542.6408 54.2037 541.9203 54.3907 540.3424 54.6758 540.1338 54.7433 539.6497 54.8024 538.4879 54.7935 537.8348 54.9179 537.4517 55.2437 536.837 55.1295 536.6057 55.027 536.4484 54.991 535.8564 55.0472 535.6642 55.3355 535.2646 55.3085 535.0288 55.3106 534.2243 55.4432 532.8326 Z" id="fips-27155"/>
<path d="M 248.1222 401.5907 261.6323 401.7153 261.7703 388.2166 261.9564 374.8345 261.3993 374.713 261.5248 349.0534 260.8949 321.1601 261.1075 307.604 287.7666 307.4591 287.7922 302.339 289.874 304.9442 291.8112 304.3469 297.0997 306.8565 319.0934 296.7928 321.4942 297.2201 323.0915 298.6911 325.0314 303.3918 328.5727 307.9668 327.1748 308.9233 327.0208 312.594 328.6709 316.7113 330.8193 317.2137 332.8973 319.004 334.2911 318.9457 338.5625 324.0759 341.8797 324.534 343.2953 321.8526 347.8348 322.1466 347.5689 323.1956 350.4868 324.6171 355.322 323.9374 354.0101 324.8165 355.1277 328.1397 354.47 330.6851 352.9636 331.0278 351.9378 334.4785 351.5218 334.8626 352.665 336.8357 355.332 338.2773 355.4223 366.556 355.5318 401.8651 301.9959 401.6372 295.311 401.5622 294.9967 415.0695 294.9978 428.5947 296.537 428.627 296.8413 481.6003 296.277 483.1902 295.2944 483.4773 294.417 483.373 295.083 482.0922 293.264 480.0121 292.1841 480.4509 291.0684 478.5748 286.2172 474.9777 282.5808 475.1486 280.0682 477.5234 277.4876 477.9704 274.6039 479.5209 272.3063 478.8374 269.1702 476.1468 266.8178 475.3451 265.1752 475.7715 261.9144 472.3371 254.6415 471.8481 253.5817 469.1926 253.9674 467.3165 251.4133 467.5562 248.5053 465.1823 248.0433 428.4904 248.073 415.1982 248.1222 401.5907 Z" id="fips-27021"/>
<path d="M 327.1211 616.1374 329.4872 618.9864 331.4174 618.9536 331.2925 621.093 332.6976 619.4154 335.1622 621.4022 336.9374 623.0823 341.1719 622.0714 344.4162 625.3677 346.7527 629.047 350.7322 629.728 354.1894 633.5184 358.897 635.9022 364.595 635.4026 366.6122 634.2518 367.9829 635.6161 378.2471 636.1756 379.7549 634.6965 381.2779 640.3617 384.6097 643.1846 384.5277 643.5339 383.2695 645.6806 380.3228 646.2651 376.8891 648.4839 371.7246 649.0759 369.6785 651.4462 371.9044 654.5271 371.917 655.8523 367.8126 658.1422 367.2605 658.1138 365.148 660.4373 362.0247 666.4957 362.1062 667.126 362.1053 667.6474 361.6352 668.0495 361.5667 668.0819 361.1351 668.7879 358.5428 668.9502 357.9811 672.7453 357.9855 685.0567 331.1034 685.0458 304.3349 684.9511 304.3524 671.4745 304.3864 658.0812 304.2967 644.6391 303.8495 637.7075 304.2712 634.2432 311.881 632.3819 313.3925 634.9971 315.2168 634.6036 319.1307 631.2374 323.4253 624.8362 323.1677 622.8175 326.5076 616.0138 327.1211 616.1374 Z" id="fips-27171"/>
<path d="M 85.9993 58.0513 116.1355 58.8151 152.8969 59.6927 176.46 60.1515 196.4734 60.5396 195.7363 63.1174 196.5878 67.7238 196.0492 70.3149 198.1801 75.2238 202.8478 78.3484 204.8059 78.8432 214.7769 76.8924 219.5862 72.95 219.3728 105.1308 193.4826 104.8038 193.1006 131.5998 168.0101 131.4594 166.4105 131.3763 85.7573 128.7071 86.5629 101.9241 84.777 101.8792 85.9993 58.0513 Z" id="fips-27135"/>
<path d="M 315.9822 595.0154 331.4763 594.9659 358.3636 594.7943 385.3912 594.7373 385.5194 608.2208 385.6518 617.0777 385.7207 621.6061 385.7046 634.993 385.6448 643.3207 384.6097 643.1846 381.2779 640.3617 379.7549 634.6965 378.2471 636.1756 367.9829 635.6161 366.6122 634.2518 364.595 635.4026 358.897 635.9022 354.1894 633.5184 350.7322 629.728 346.7527 629.047 344.4162 625.3677 341.1719 622.0714 336.9374 623.0823 335.1622 621.4022 332.6976 619.4154 331.2925 621.093 331.4174 618.9536 329.4872 618.9864 327.1211 616.1374 326.7101 614.3425 323.6462 613.802 321.1652 610.9963 321.3423 609.3522 320.5315 608.4652 316.8021 605.2294 317.0744 601.6409 316.0299 600.2137 316.2415 596.5874 315.9822 595.0154 Z" id="fips-27141"/>
<path d="M 586.8139 856.3113 636.7089 854.5944 636.9751 855.256 637.4802 856.0126 637.7697 857.9995 638.1061 858.9645 638.2443 859.7041 638.8117 861.1726 639.1681 861.7489 639.437 863.0111 640.5138 864.3346 641.5814 865.6462 641.6105 865.8967 640.4815 870.3091 640.6031 872.0644 640.5082 872.6394 640.325 873.296 640.2273 873.6463 639.9622 874.2668 639.4076 875.1473 639.2155 875.7941 639.3675 877.987 638.9171 880.9579 638.9145 882.5071 639.147 884.3126 639.2672 884.595 639.9298 885.1815 640.072 885.4057 640.268 886.314 640.1999 886.8683 639.6672 888.5713 639.7002 890.4322 640.14 891.2491 640.5492 891.8237 640.9415 892.2266 641.5581 892.6878 643.1675 894.2725 643.7084 894.9086 643.9207 895.2103 644.0247 895.4718 644.1013 896.4349 644.0124 898.1062 643.8474 898.5872 643.1866 899.6646 642.9221 900.3373 642.8628 900.5864 642.8515 901.1313 642.983 901.9502 643.7493 903.0662 644.2241 904.4387 644.5647 904.7939 645.4184 905.3362 645.9233 905.8536 646.0397 906.1532 646.0052 906.8324 646.0663 908.0018 642.8054 908.1337 641.1088 908.1185 629.0185 908.5847 628.7612 908.5756 628.163 908.6687 625.8706 908.6874 620.873 908.9325 620.406 908.9255 618.6661 908.9775 618.2548 908.9969 615.3331 909.0847 610.5249 909.268 609.6914 909.303 608.5892 909.3362 604.0851 909.4862 601.8631 909.5601 601.856 909.5603 601.3613 909.5734 601.1806 909.5618 601.1229 909.5599 600.7431 909.5739 600.2001 909.5838 599.2304 909.6537 599.2024 909.6608 599.0751 909.6612 598.6083 909.6593 598.0291 909.6848 597.3016 909.7199 596.5134 909.7329 595.111 909.7809 591.7505 909.8771 588.4358 909.9658 588.3864 909.4018 586.8139 856.3113 Z" id="fips-27055"/>
<path d="M 439.0047 762.7584 438.9246 755.9843 444.9387 755.3858 448.2952 757.1638 452.2175 755.4655 452.1739 751.4821 466.1495 751.2883 465.9192 737.8331 472.6043 737.7473 472.3692 724.6909 474.4824 726.6043 475.8542 727.7164 476.3581 728.3763 477.48 729.4938 479.9407 732.3505 480.3575 732.7297 480.9376 733.1596 483.5801 734.5062 484.755 736.0413 484.985 736.7796 485.0006 737.5521 484.7089 738.4417 484.6315 738.8785 484.6594 739.2641 484.8575 739.7578 485.2428 740.0832 485.628 740.2524 486.4462 740.1269 487.0685 740.1735 488.3075 741.0973 488.5049 741.7509 488.7949 741.9948 488.9619 742.0266 489.3034 741.8642 489.5967 741.3809 489.7812 741.2041 490.2469 741.2574 490.6379 741.4216 490.8873 741.6909 491.6188 742.7331 492.8794 744.8521 492.945 745.3823 492.9056 745.6475 492.7482 746.0466 492.7177 746.333 492.8976 746.7356 493.111 746.9168 493.524 747.0332 493.9425 746.9822 495.3829 745.9751 496.0914 745.7047 496.3699 745.7014 497.021 746.2123 497.4463 746.4323 499.1123 747.0578 499.4806 747.0279 500.108 746.7254 500.5205 746.684 501.7238 747.1606 503.4036 747.6125 504.9875 747.4305 505.8063 746.9985 506.0435 746.9488 506.6362 747.1193 507.2054 747.5039 507.8314 747.7508 509.5857 748.0318 510.7196 748.0983 513.007 747.8152 513.7573 747.8362 515.3055 748.0772 516.5825 748.5353 517.3784 748.9989 518.4028 749.8987 518.6968 750.2684 518.8272 750.5052 519.0762 750.9573 519.4681 752.3845 519.8008 753.0408 520.3074 753.7507 520.3649 753.9318 520.4368 754.265 520.4285 756.2646 520.5229 756.7749 521.1136 757.9346 521.8168 759.0454 522.8012 760.2252 523.4336 760.8395 525.0484 762.119 526.5531 762.9549 527.0266 763.3594 527.3544 763.7528 506.5056 764.0778 506.7584 777.5746 493.4389 777.8263 493.9648 804.7467 479.743 804.9382 466.3675 805.0249 452.3207 805.2046 439.4226 805.4324 439.1431 778.4074 439.0047 762.7584 Z" id="fips-27049"/>
<path d="M 196.4734 60.5396 213.3917 60.7404 213.7957 31.9142 213.9114 21.8222 214.0296 13.1963 214.0351 12.8763 214.0353 12.7644 214.037 12.6335 214.1085 7.3457 214.103 7.3064 214.1176 5.6427 214.1479 3.8624 214.1587 3.5828 214.158 3.3634 214.1796 1.1982 214.1858 1 214.4941 1.2198 214.5387 1.5921 214.9829 1.9516 215.3363 1.9525 216.8693 3.3441 217.935 3.8092 218.5744 3.848 219.0244 4.0629 219.2481 4.2837 220.5586 4.6767 223.7182 5.9427 224.63 5.9702 228.1702 5.4884 230.7686 3.5786 232.2443 3.7728 233.948 3.4099 234.4867 3.6486 238.7886 6.556 239.0123 6.8165 241.8805 9.2152 244.3165 10.6366 246.0732 10.6642 248.1584 11.1583 247.3266 13.0353 247.22 15.2897 249.9472 27.7103 249.8983 30.2664 252.1753 41.5674 252.2724 42.2287 254.5849 45.4957 257.6582 60.9834 261.1949 78.9995 261.1884 79.0852 261.0663 80.7864 260.2146 81.3159 260.4365 82.1296 260.4419 82.1835 260.1462 83.7277 260.8849 85.7902 259.7187 86.4633 259.2128 87.073 258.9685 88.2334 259.9045 90.5772 259.7926 92.0394 259.9521 93.6559 260.2908 95.4079 260.2935 95.4109 260.5891 95.7463 262.1311 96.776 262.7112 97.2757 263.4266 98.1834 264.2715 98.8666 264.9415 99.7911 264.8297 99.7905 264.942 99.9437 264.9445 100.6955 265.3798 101.1587 267.6069 101.7596 268.4693 102.614 269.4036 103.1672 269.9662 103.8111 270.4577 104.5466 270.8522 104.8424 272.7738 105.1737 274.0576 105.0733 274.7493 105.3174 275.1116 105.7016 275.8365 107.1538 276.3798 107.4008 277.2462 107.3588 278.8574 107.5504 279.743 107.893 281.1462 107.9169 282.535 108.1087 283.4006 108.3203 284.6435 108.7987 285.2306 108.7299 286.0411 108.4239 286.9043 107.4867 286.9131 159.2239 206.2621 158.8038 206.5147 131.8211 193.1006 131.5998 193.4826 104.8038 219.3728 105.1308 219.5862 72.95 214.7769 76.8924 204.8059 78.8432 202.8478 78.3484 198.1801 75.2238 196.0492 70.3149 196.5878 67.7238 195.7363 63.1174 196.4734 60.5396 Z" id="fips-27077"/>
<path d="M 433.6915 501.1595 433.0013 460.6362 459.9236 460.338 486.6632 459.8727 514.503 459.3843 514.8444 474.1746 514.8773 474.5746 514.8925 475.3014 514.8875 475.4375 514.9167 476.4684 514.927 476.9009 514.9328 477.8838 514.9363 478.3274 515.0684 486.2548 515.1475 489.2746 515.2812 496.1804 515.3426 498.2335 515.3822 499.71 515.5629 506.4581 515.6369 511.9639 515.6555 512.5796 515.1652 512.8068 514.2938 512.9176 512.9522 513.434 512.0447 513.9382 511.8396 514.0927 511.5145 514.4914 511.2656 515.0056 510.9794 516.1414 510.9491 516.4585 510.6767 517.1925 510.4507 517.5756 510.4425 517.8976 510.5921 518.8839 510.4722 519.8206 510.4224 519.9917 510.2034 520.3075 509.8937 520.5949 509.8221 520.8661 509.7986 521.3181 509.8426 521.6272 509.6553 521.8329 508.995 522.201 508.5462 522.2595 507.403 522.116 506.4245 521.6983 505.2336 521.3365 503.5308 520.2746 503.2712 520.1828 502.1908 520.2832 501.3531 520.6944 500.6017 521.1783 499.9047 521.9785 499.6938 522.6662 499.7094 523.0719 499.1581 524.1566 498.9491 524.4423 498.8153 524.858 498.7472 525.1096 498.7865 525.6145 498.4592 526.0362 497.8225 526.4216 497.6127 526.8627 497.6581 527.2677 497.7414 527.408 497.9927 527.6029 497.9822 527.7256 497.6457 528.2235 497.1286 528.6161 496.7642 528.7574 496.0365 528.6118 495.4745 528.3321 494.7896 528.3954 493.5309 527.734 491.6905 527.1644 491.4154 527.1258 490.8774 527.2859 490.5083 527.4997 489.7462 528.1522 488.9114 529.3649 488.6154 529.5359 488.4736 529.7049 488.4035 530.8282 488.5032 531.4036 488.3754 532.1512 488.2967 532.2442 487.2932 532.3652 486.3846 532.8279 485.8316 532.8459 485.2255 533.146 484.2069 533.8616 482.8806 534.0372 482.2558 534.4693 481.9901 534.7075 481.6212 535.0382 480.7122 534.9544 480.18 535.3537 480.0151 535.4001 479.2469 535.0691 478.9778 535.1471 478.8597 535.2464 478.8436 535.4117 479.0404 536.4179 478.9754 536.639 477.1402 536.6925 476.7752 536.9332 475.6293 537.9938 475.014 538.6537 474.9483 538.8322 475.0741 539.3656 474.9834 539.5394 474.2007 539.9317 472.5969 541.1245 472.1354 541.1792 471.6599 541.3828 471.1508 541.8885 470.2421 543.1317 468.8925 545.5932 468.6419 546.3355 468.6936 546.9906 468.3848 548.7889 468.3114 548.9916 467.7235 549.7518 467.334 549.8734 466.2382 550.7279 465.9987 550.962 465.6377 551.5394 465.5881 551.9952 465.6785 552.365 466.0241 553.4345 466.2327 553.8115 466.4691 554.4683 466.4964 555.1883 466.3744 555.5954 466.0767 556.021 465.3721 556.5379 464.9867 556.9764 464.5218 557.7943 464.2047 558.9565 464.0408 560.4341 463.7137 561.8161 462.2245 563.4788 461.7979 563.7605 461.6583 564.0862 461.5155 564.4476 461.0384 564.9714 460.7065 565.2043 460.3164 565.3154 459.307 566.1691 458.9935 566.6303 458.8105 566.7256 458.2447 566.7847 457.6961 567.2253 425.1218 567.6239 424.4911 528.7773 433.9563 528.6104 433.6915 501.1595 Z" id="fips-27115"/>
<path d="M 570.9788 803.1035 572.5313 804.3181 573.9167 804.9859 574.2937 805.2784 575.6766 807.4269 576.7266 808.1668 578.0166 808.8922 580.5155 809.8705 581.1917 810.4751 582.5417 811.4738 583.1043 811.7695 585.461 811.9889 586.4852 812.3538 586.6939 812.5194 586.7654 812.5761 587.7506 813.8443 587.8891 814.2922 588.0754 815.316 588.0885 816.2066 588.1742 816.4025 589.5556 817.1868 590.0075 817.283 590.621 817.1765 591.0955 817.3195 592.7625 818.8855 592.9657 819.1774 593.1883 819.8112 593.6582 820.8368 593.9513 821.2608 594.494 821.6739 595.003 822.3596 595.361 822.554 595.5081 822.5602 595.8226 822.3999 596.0941 822.4522 596.6374 822.8879 597.2684 823.5744 597.7352 823.8232 598.6844 824.1814 599.2402 824.5182 599.6005 824.8094 600.0407 825.3653 600.7446 826.6945 601.3805 827.2311 602.4552 827.8148 602.7456 827.876 603.4966 827.8548 605.0962 828.0477 606.4466 828.4818 607.9276 828.5551 608.9825 828.5196 610.9117 828.8348 611.4752 829.1451 612.297 829.7874 613.8935 830.414 614.1586 830.4227 615.269 830.1595 615.8239 830.2085 616.5223 830.6094 618.425 831.2881 618.7849 831.5143 619.343 831.9813 619.6531 832.4264 620.0334 833.2491 620.1669 833.77 620.2261 833.8906 620.3524 834.1486 621.6994 835.5318 621.9286 835.9146 622.3113 836.7923 622.4721 836.9758 623.7148 837.6331 624.78 838.3975 626.0204 839.8972 627.0054 840.9211 627.2319 841.3131 627.443 842.5966 628.1421 844.0194 628.2222 844.1201 628.7972 844.4127 629.2517 844.7967 629.426 845.0837 629.9051 846.211 630.4005 846.974 631.54 847.5889 632.4087 848.3244 633.0364 849.3385 633.3231 850.2669 633.5971 851.5564 634.7226 852.7357 635.0166 853.1842 635.2562 853.3911 635.9107 853.7444 636.7089 854.5944 586.8139 856.3113 547.7973 857.4195 547.5351 843.9551 546.7389 817.131 546.4234 803.801 570.9788 803.1035 Z" id="fips-27169"/>
<path d="M 261.9144 472.3371 265.1752 475.7715 266.8178 475.3451 269.1702 476.1468 272.3063 478.8374 274.6039 479.5209 277.4876 477.9704 280.0682 477.5234 282.5808 475.1486 286.2172 474.9777 291.0684 478.5748 292.1841 480.4509 293.264 480.0121 295.083 482.0922 294.417 483.373 295.2944 483.4773 295.497 484.66 293.8262 486.9836 290.2122 489.603 289.6223 491.069 289.4726 493.6839 292.6338 498.6227 291.7227 502.1887 311.7396 502.216 352.3782 502.1855 352.5144 529.1121 356.9826 529.1751 357.0995 540.4762 357.6515 554.0617 330.9931 553.8816 293.9316 554.2025 296.6576 557.8321 298.2401 557.6078 298.3704 559.0795 302.7218 561.4715 276.5777 561.5363 262.4309 561.5354 262.0481 536.8774 262.1884 523.284 262.4511 482.6203 261.9144 472.3371 Z" id="fips-27097"/>
<path d="M 195.2145 697.8672 235.2144 698.1479 249.1207 698.292 277.2436 698.4141 277.7471 698.8235 277.7033 711.9601 277.6189 725.5847 263.1263 725.5969 263.0063 752.6403 263.5529 752.6461 263.4992 766.0301 246.1717 765.824 242.9323 763.5261 242.4103 761.4833 236.7874 759.3021 235.416 756.741 231.4379 756.5268 229.8197 755.1965 225.4141 753.6856 223.2603 751.7447 220.3181 752.2608 218.3191 749.9706 215.55 749.1478 213.537 747.3996 211.1919 747.5987 210.54 745.2008 209.1475 744.283 205.9109 742.0297 205.4795 740.8401 201.5398 739.3476 195.2405 732.6606 192.4815 733.8416 190.1533 733.4692 187.7046 730.9315 187.1917 728.5096 182.5134 727.5994 178.0188 724.3518 173.694 720.4875 172.0813 720.8709 169.7448 718.4671 169.1165 719.0199 169.0555 712.1902 169.4501 697.5807 195.2145 697.8672 Z" id="fips-27129"/>
<path d="M 24.3518 586.0562 87.5543 588.0212 88.8131 588.0407 88.1423 614.8695 101.6729 615.3123 101.4567 618.4835 100.9258 642.024 102.4924 642.0646 102.272 651.8517 101.8605 650.8306 98.5561 649.1833 94.7432 649.155 89.2949 644.6879 86.3598 644.8804 83.7661 644.2493 82.8972 640.4622 73.2762 638.1176 69.4454 638.6062 68.3346 637.0235 64.4794 636.5407 64.4798 636.5199 64.563 634.1595 64.5929 632.0127 64.4958 631.4773 64.1944 631.1418 64.12 630.5253 63.697 629.5393 63.195 629.0161 63.0506 628.7858 62.9796 628.4818 62.9453 627.8014 62.8282 627.5396 61.9112 625.4892 61.5879 624.4508 60.9261 622.7555 59.5533 621.4114 58.8964 621.026 57.4437 619.7707 56.459 619.2993 55.5112 618.9852 54.8336 618.8547 53.0955 618.0206 52.1085 617.4041 51.3012 617.0035 50.6761 616.4554 48.9233 615.2418 47.1448 614.4252 45.683 614.2025 44.6575 614.1727 43.8711 614.0088 42.3016 614.1333 41.4334 613.8681 40.8717 613.9016 40.328 613.8407 39.974 613.6655 39.0453 612.7386 38.0581 611.3243 37.1545 609.6371 35.7606 607.3335 35.0104 606.4498 34.8727 606.1788 34.4664 604.9178 34.3244 603.8693 33.9083 603.0449 33.8116 602.7428 33.8088 602.1543 33.6337 601.4852 32.8981 599.3731 32.1215 597.3713 31.6444 596.3437 30.0055 594.0301 29.6165 593.1902 28.689 591.6967 28.1353 591.1349 27.8281 590.9402 24.3518 586.0562 Z" id="fips-27011"/>
<path d="M 291.404 795.8507 295.2444 797.0449 297.357 799.1725 300.3851 799.7292 300.831 801.4413 304.2604 802.1957 304.6662 803.4842 308.3798 803.759 308.852 805.6521 315.8337 807.1394 316.9552 806.8624 320.0468 808.791 320.5181 810.1434 324.5397 812.2896 325.7971 811.6191 327.6398 812.8735 327.8466 811.6985 332.3708 810.6033 329.9978 802.431 331.4078 799.713 337.2732 799.7105 341.1735 799.6354 345.1223 799.6847 358.5189 799.6281 358.5611 806.3819 358.8673 860.3271 352.2841 860.365 351.9902 860.3706 351.5758 860.3537 351.3383 860.3562 305.2156 860.4588 291.5776 860.4244 291.6003 846.9513 291.6744 820.0064 291.404 795.8507 Z" id="fips-27013"/>
<path d="M 440.2162 697.7521 441.9332 697.7237 444.1463 697.0962 443.9291 686.446 443.8757 682.668 443.7721 676.2383 443.7582 675.4629 443.7063 671.8286 443.642 665.7271 443.594 662.7583 443.5684 661.5661 439.6376 661.5877 439.5509 652.2766 439.5252 648.108 439.525 648.0841 439.3631 634.7352 461.6912 634.4667 469.256 634.4067 468.6916 634.8614 467.8359 635.1897 467.5899 635.4948 467.5022 635.8091 467.5079 636.1311 467.6616 637.0767 467.9558 637.6929 468.5552 638.4978 468.6753 639.0629 468.6817 639.7214 468.3143 640.4937 467.9186 641.0171 467.7825 641.6103 468.1138 643.3568 468.1405 644.564 468.3416 645.2707 468.5468 645.7393 468.742 646.0235 468.8015 646.3925 468.5666 647.3124 468.1383 647.8169 467.6968 648.1974 467.5063 648.5577 467.2026 650.0771 467.1642 650.8452 467.2428 651.5732 467.4618 651.9811 468.8499 653.3365 468.8408 653.6693 468.3817 654.7029 468.2996 655.4256 468.321 656.2093 468.4295 656.766 469.2752 658.8843 469.7256 661.2046 469.7292 661.2102 470.0377 661.6946 470.2951 661.917 470.4191 662.2156 470.4155 662.358 470.3204 662.7015 469.8497 663.4996 469.6549 663.6984 468.8294 664.3195 467.6217 665.4923 466.7188 666.5316 464.8256 668.0383 464.7731 668.1226 464.7423 668.1721 463.8315 669.6341 463.6929 669.9348 463.6167 670.2701 463.6102 670.9569 463.7318 671.5064 464.2953 672.5478 464.721 673.0788 465.3198 673.6364 466.3282 674.2684 467.27 675.1087 467.9152 675.8785 468.2064 676.5633 468.2286 676.8505 468.1649 677.149 467.5838 678.9341 467.2635 680.1405 467.3269 681.264 467.539 682.1813 467.41 682.939 467.4265 683.6153 467.5395 684.6711 467.6446 685.0278 467.795 685.2974 468.5189 685.7661 469.2138 687.183 469.6705 689.3782 469.6996 690.0399 469.2078 692.9458 469.0124 694.1002 468.8928 694.4492 468.802 694.6249 468.6085 694.7763 467.3311 695.6586 467.2336 695.8596 467.1787 696.1708 467.1562 696.9916 467.2695 697.4241 467.766 698.506 468.3867 699.5906 468.4719 699.8587 468.444 700.1754 468.0853 701.014 467.878 701.7315 467.8794 701.7529 467.8797 701.7579 467.9574 702.9402 468.3563 704.9965 468.3669 705.5989 468.2824 705.9449 467.9318 706.4425 467.6231 707.0306 467.584 707.2965 467.6767 707.8022 467.5974 708.0586 466.7666 709.4444 466.6577 709.94 466.5269 711.6921 466.2957 712.6005 465.9148 713.307 465.1304 714.2112 464.6722 714.945 464.1484 716.3535 463.9449 717.8237 463.8957 718.9788 463.9726 719.1491 464.3393 719.4422 464.4714 719.686 464.5067 719.8483 463.395 719.6421 458.6923 719.6513 455.6223 715.6079 450.5303 714.5568 445.4668 716.0489 442.0338 716.199 440.9254 715.6138 440.2879 713.8872 442.0749 709.4974 441.4185 704.6793 441.3733 701.9184 440.6234 698.6985 440.2162 697.7521 Z" id="fips-27163"/>
<path d="M 286.9043 107.4867 287.5311 106.8059 287.8192 106.2789 288.0744 106.06 288.3541 105.9405 289.365 106.0072 291.1546 105.793 291.6284 105.8157 292.2428 106.055 293.2279 106.6523 294.8184 107.0124 295.8719 107.1307 297.3393 106.9628 299.3878 106.0731 301.2008 106.4618 302.116 106.8492 302.8784 107.6831 303.8895 107.8333 304.2919 108.2271 304.5383 108.9324 305.0886 109.787 305.2506 110.223 305.306 111.0415 304.8924 113.2661 304.8989 113.6557 305.3167 114.3881 305.348 114.4394 305.6912 114.7651 305.942 114.8865 307.0512 115.0586 308.0044 115.4945 309.0121 115.5173 310.543 115.2671 311.6643 115.3592 313.8028 115.7149 314.863 116.077 316.781 116.0838 318.0472 116.2792 319.7192 116.317 320.7579 116.0567 321.6458 116.3957 323.1396 116.3107 323.6845 116.0475 324.2568 116.0141 324.4145 116.384 324.8224 116.4766 325.6235 116.3349 326.5738 116.4267 327.3509 116.797 327.9791 116.82 330.2915 116.4531 330.9334 116.516 332.0209 116.9845 333.4112 117.3164 334.761 117.3779 335.0426 117.4786 335.6818 117.9034 336.7279 118.125 338.4944 118.2856 339.5559 118.1368 339.6741 118.0571 339.7897 117.8004 340.0795 117.7446 342.6045 118.3389 346.2273 118.4278 347.0084 118.5349 347.3428 118.6647 347.6887 118.888 348.0051 119.219 348.6669 121.0695 349.0601 121.4208 349.2153 121.677 349.4838 122.4995 349.6493 123.8077 350.3227 125.4125 350.7425 126.1311 350.87 126.5462 351.0291 127.6801 351.0205 127.9757 350.8841 129.0021 350.6603 129.9154 350.3434 130.7285 350.3261 130.9694 350.4291 131.5222 350.4421 132.0119 350.3385 132.3033 349.7926 133.0311 349.7111 133.2473 349.6634 133.5224 349.727 133.9289 350.0458 134.4761 350.3585 134.7428 351.4544 135.3929 351.876 135.7312 352.1845 136.0917 353.192 136.1689 354.5195 136.1099 355.3998 136.0596 356.0885 136.1724 356.4527 136.2085 357.5917 135.8567 358.5886 135.7503 359.4588 135.8485 360.952 135.7308 361.5536 135.8634 362.4429 136.2262 362.8312 136.2526 364.5084 135.9766 366.3508 136.052 367.506 135.8036 367.7419 135.6448 367.9106 135.4972 368.24 134.9839 368.5139 134.1803 368.8348 133.8074 369.1893 133.6315 369.4381 133.6646 369.8661 134.3554 370.2814 134.7463 370.8469 135.0669 371.0759 135.0986 371.563 134.9691 371.7796 134.8351 372.3444 134.2371 372.7363 133.98 373.3962 133.9613 374.1437 134.2988 374.3882 134.3197 376.0574 133.9378 377.586 133.9584 378.2855 133.7676 379.1332 133.361 380.5076 133.1098 380.8388 132.9837 382.4024 131.9759 384.319 131.6573 385.7502 131.2537 385.9657 131.096 386.4318 130.4893 386.6868 129.752 386.8383 128.7359 386.7921 127.9043 386.3008 126.8495 385.842 124.7972 385.9199 124.2742 386.0097 124.0977 388.6568 123.8264 389.1008 123.5495 389.6902 122.8243 389.9797 122.5853 391.1486 121.9062 391.7049 121.4649 392.0411 121.3175 392.1503 121.3153 392.209 121.5873 392.6959 122.1544 393.1024 122.2436 394.2501 121.9456 395.5484 121.942 395.9032 121.6382 395.9669 121.4417 396.4595 120.576 397.05 120.8882 397.1529 120.9155 397.2825 120.7971 397.3725 120.6367 397.379 120.2751 397.7778 118.8401 397.8688 118.6097 397.9356 118.5771 407.4098 115.9629 412.2761 115.9515 414.6949 118.1074 415.1226 118.6368 415.3203 118.8803 418.976 118.5866 424.5066 118.0963 424.661 176.6732 424.9306 204.9182 425.7085 204.8923 425.9833 218.7448 426.9162 232.1892 354.6331 231.7943 354.6361 239.9463 287.7303 240.1239 287.8515 226.5816 287.8913 213.6415 287.2186 159.7983 286.9131 159.2239 286.9043 107.4867 Z" id="fips-27071"/>
<path d="M 35.1088 424.4094 35.7364 424.3008 88.7661 425.7847 87.4467 479.8611 89.0923 479.9079 88.3144 506.8364 87.8805 520.3316 54.4532 519.3572 54.3808 519.0888 54.3289 518.5727 54.8425 516.8745 55.6958 514.8032 56.29 514.2 56.4833 513.7622 56.7678 512.7525 56.8184 512.119 56.6734 511.767 56.6741 511.6216 57.114 509.7898 56.9296 509.3338 56.942 507.7269 56.8284 506.9145 56.7096 506.5101 56.2924 506.0364 56.0368 505.4127 55.921 504.9765 56.3696 504.757 56.3598 504.2502 55.6292 503.5695 55.4861 503.2602 55.6381 503.0603 55.7571 502.0315 55.2074 500.5462 54.9368 500.2579 54.7265 499.8401 54.6408 499.2734 54.9838 497.4884 54.9724 497.0152 54.9114 496.6574 54.711 496.4882 54.4729 496.2142 54.3826 495.7988 54.4342 495.7086 54.3223 495.2442 54.1995 495.2116 54.0823 495.2087 54.0144 495.0733 53.9975 494.9542 54.0028 494.7762 54.0287 494.5991 54.0563 494.3627 54.0296 494.2283 53.9244 493.973 53.9425 493.2817 54.0443 492.9511 54.0635 492.42 54.3695 492.1236 54.4438 491.9982 54.5318 491.5359 54.4615 491.0513 54.406 491.0142 54.2338 490.1505 53.7459 488.8516 53.3226 488.58 53.1578 487.351 53.1056 485.1923 53.1689 484.9635 53.5959 484.6322 53.7988 484.5224 53.9476 484.3489 54.0224 484.2473 54.0567 484.1297 54.03 483.9954 53.9717 483.8899 53.8105 483.7959 53.6307 483.6422 53.5973 483.3892 53.697 483.1401 53.7154 482.8736 53.6206 482.6187 53.4848 482.3624 53.1709 482.2343 53.0855 482.0092 53.1618 481.7665 53.4243 481.1205 53.652 480.0061 53.6062 479.7634 53.3132 479.228 53.2785 479.0194 53.348 478.7546 53.587 478.3021 53.6103 477.6135 53.5209 477.4087 53.2709 477.2395 53.1758 476.9993 53.3654 476.486 53.321 476.2622 53.2074 476.0688 53.1082 475.4876 53.4827 474.1896 53.474 473.8914 53.215 473.096 53.4028 471.4199 53.2686 471.2989 52.523 471.0531 51.8392 470.2805 51.2831 469.8416 51.2393 469.6523 51.5002 469.2024 51.233 468.68 50.4148 468.3503 50.3277 468.1985 50.3557 467.8694 50.1068 467.6913 49.1674 467.9989 48.7335 467.9353 48.5675 467.6781 48.4483 466.9031 48.5624 466.5211 48.5492 466.2835 48.1068 466.092 47.6377 465.719 47.3597 465.0042 47.3279 464.5562 46.5214 464.3486 46.4015 464.2064 46.1674 462.7728 46.2643 461.9384 45.3335 459.6135 45.1129 459.2091 44.9739 459.1338 44.6678 459.2513 44.3247 459.1072 44.2505 458.8674 44.3145 458.6305 44.2585 458.2893 43.6924 458.0935 43.4538 457.8784 43.4293 457.6848 43.4882 457.4345 43.4447 457.1959 43.3357 457.0886 42.9677 457.0918 42.8759 456.7627 42.8815 456.5848 43.0172 456.1739 42.9764 455.8464 42.8275 455.7081 42.5024 455.6533 42.4128 455.5764 42.374 455.1894 42.2132 454.7839 41.9316 454.6416 41.5336 454.6289 41.2684 454.2941 41.2157 454.0255 41.2984 453.7103 41.4744 453.3206 41.4659 452.9064 41.419 452.7713 41.3097 452.6789 41.2399 452.3059 41.2849 452.1739 41.6106 451.8809 41.7148 451.0667 41.6607 450.4283 41.4643 450.2292 41.1656 449.671 41.0837 449.3569 41.1317 449.1361 41.0635 449.03 40.975 448.9233 40.7322 448.8563 40.5227 448.7013 40.5132 448.3422 39.649 447.9318 39.5226 447.7351 39.5389 447.5427 39.6839 447.1618 39.6382 446.9972 39.4701 446.8286 39.3878 446.5294 39.4177 446.2338 39.7845 445.5516 39.9016 445.0942 39.7037 444.9779 39.4827 444.5301 39.6972 443.8844 39.7039 443.677 39.4338 443.1938 39.712 442.5643 39.5982 441.915 39.525 440.6461 39.1631 440.1309 38.9353 439.5071 38.9435 439.2552 39.1786 438.9216 39.177 438.6547 38.9014 438.3491 38.8945 438.2451 38.9076 438.1566 39.1277 437.9708 39.1514 437.8677 39.076 437.6726 38.7878 437.4408 39.0209 436.855 39.0067 436.6617 38.781 436.076 38.6451 435.8641 38.5824 435.5951 38.6624 435.3306 38.8296 435.2026 39.0901 434.3952 38.9169 433.1291 38.7423 432.8564 38.3787 432.7557 38.2623 432.574 38.2389 432.3508 38.357 431.8504 38.2887 431.7592 38.0041 431.7351 37.8446 431.6263 37.8867 431.2716 37.7496 431.1039 37.3506 430.839 37.2958 430.6444 37.3732 430.1426 37.2967 429.9918 37.1635 429.8867 36.8895 429.3558 36.5038 429.3136 36.2773 428.9987 36.283 428.7874 36.2922 428.4422 36.3743 428.1303 36.3467 428.0404 36.0676 427.8534 35.9853 427.5689 36.1684 426.9519 36.0836 426.7415 35.715 426.4922 35.6729 426.2238 35.7615 426.0043 35.6777 425.7642 35.1629 425.6288 35.1213 425.0343 35.2022 424.7402 35.1785 424.5318 35.1112 424.411 35.1088 424.4094 Z" id="fips-27167"/>
<path d="M 61.4609 749.0257 61.474 748.961 61.8635 735.5252 61.8611 735.4497 61.8618 735.4256 101.461 736.596 101.1212 750.0481 102.5329 750.1764 102.0371 776.7925 101.5022 803.9123 59.8943 802.802 59.8948 802.7841 60.1516 793.8402 60.1827 793.7347 60.2465 791.6119 60.2598 791.146 60.2775 789.4817 60.3032 789.0193 60.3699 787.2645 60.3874 787.0096 60.4302 784.9292 60.4491 784.7294 60.4892 782.771 60.5051 782.4451 60.5654 780.4999 60.5827 780.2557 60.579 779.7725 60.6222 778.2958 60.6524 777.4755 60.7616 773.8276 60.794 772.8958 61.0318 764.8555 61.1243 761.9327 61.1246 760.3078 61.1445 759.9717 61.3053 754.7303 61.3445 753.1672 61.362 751.6249 61.4576 749.042 61.4609 749.0257 Z" id="fips-27081"/>
<path d="M 32.8801 343.4264 100.0107 345.2901 99.4397 372.2517 101.4994 372.3027 100.516 399.0601 100.436 412.5635 100.3437 426.0897 88.7661 425.7847 35.7364 424.3008 35.1088 424.4094 34.5728 424.0671 34.459 423.8112 34.539 423.2354 34.6515 422.8977 34.6823 422.5012 34.5865 421.3377 33.9586 420.657 33.7639 419.9196 33.8506 418.7977 34.3432 418.2086 34.5007 417.754 34.3928 417.3204 34.4433 417.0253 34.4869 416.9377 34.9184 416.8036 35.0476 416.5853 35.0201 416.2639 35.4426 415.7847 35.4655 415.5193 35.3782 415.3817 35.1819 415.2846 35.1056 414.8223 35.2155 414.5738 35.2514 414.1004 35.1528 413.3852 34.8356 412.983 34.8079 412.8614 35.3879 411.4684 35.4766 410.9207 35.5793 410.2861 36.1073 409.9275 36.199 409.2296 36.1368 408.9605 35.9691 408.8067 35.6931 408.3492 35.9974 407.7063 36.0591 407.1265 35.7104 406.7813 35.6555 406.2901 35.7423 405.9167 35.8692 405.6593 35.863 405.229 35.4757 404.6527 35.4845 404.3861 35.6392 404.0055 35.8034 403.9515 35.9112 403.7623 35.7176 403.4742 35.7163 403.2072 35.8626 403.0785 35.8656 402.9896 35.8009 402.7946 35.4282 402.3969 35.3881 402.0692 35.5042 401.6281 35.4401 401.4184 35.0991 401.2887 35.0615 401.1983 35.05 400.931 35.2279 400.4623 35.1976 400.1498 35.0355 399.8331 34.8429 399.6212 34.7183 399.484 34.6424 399.2189 34.8567 396.707 34.7837 396.5626 34.2663 396.2829 34.1555 396.1054 34.2167 395.961 34.3974 395.8061 34.516 395.5093 34.4723 395.0715 34.4503 394.8507 34.6976 394.4396 35.4048 393.6087 35.634 393.6828 35.8184 393.6296 35.8653 393.4382 35.6286 392.9263 35.6633 392.7939 36.0933 392.6746 36.2955 392.3845 36.3337 392.1485 36.2599 391.9236 36.287 391.7168 36.3406 391.6296 36.6566 391.5806 36.7729 391.4361 36.7807 391.1991 36.6983 390.9294 36.7587 390.6348 36.9627 390.2855 36.9686 390.1076 36.8519 389.9555 36.6624 389.8604 36.5467 389.6787 36.5725 389.2049 36.6603 389.0001 36.6772 388.7931 36.6537 388.5847 36.509 388.2677 36.5025 388.2534 36.5127 387.9424 36.7509 387.5507 36.9334 386.697 36.9547 386.1909 36.8438 386.0165 36.7495 385.6563 36.8596 385.5357 37.3597 385.7062 37.3632 385.7073 37.8102 385.9858 37.9697 385.9755 38.1176 385.6697 38.255 385.0376 38.1864 384.8646 38.0063 384.8587 37.7802 384.9601 37.6036 384.8456 37.3412 383.1447 37.6993 381.9297 38.0439 381.444 38.3535 381.7025 38.5438 381.7242 38.7885 381.0489 38.7599 380.5754 38.8988 379.8999 39.29 379.705 39.2866 379.4973 39.1763 379.3459 39.1316 379.2847 39.0877 379.0757 39.1364 378.8251 39.2978 378.5336 39.073 378.2891 39.048 378.1252 39.0528 377.9769 39.2489 377.5532 39.2556 377.3458 39.1069 377.1465 38.9501 377.0793 37.6689 377.6898 37.1156 378.0755 36.7984 378.497 36.5874 378.4455 36.4216 377.9507 36.0497 377.8645 35.9815 377.788 35.9276 377.5787 35.95 377.1057 36.1262 376.5835 36.0023 375.5236 35.8721 375.2781 35.3585 375.2019 35.1915 375.0481 35.284 374.1765 35.2011 373.9676 35.1942 373.2047 35.3347 372.717 35.2829 372.4483 35.08 372.1599 34.9284 372.1549 34.1704 372.4456 33.1578 371.8605 32.9251 371.5548 32.9138 371.2875 33.1518 370.4042 33.1737 370.3232 32.9574 368.331 32.759 367.8326 32.7874 367.3888 32.9325 367.1059 32.9435 366.8052 32.6345 366.4953 32.4965 366.5348 32.0552 366.0944 31.8111 365.7264 31.7762 365.5622 31.7922 365.3847 31.9049 365.1955 32.0583 364.4128 31.985 364.2791 32.3878 363.4373 32.7284 363.1896 33.4709 362.9488 33.6307 362.702 33.5766 362.5073 33.3054 362.1572 33.273 361.9189 33.3001 361.7122 33.5796 361.5139 33.6167 361.3075 33.6075 360.9808 33.4256 360.6782 33.4053 360.381 33.6465 359.5139 33.6263 358.6086 33.2987 358.138 33.1167 357.5387 33.1665 357.2585 33.3713 357.1764 33.4665 357.046 33.4236 356.8222 33.2535 356.5761 33.2142 355.8365 33.26 355.6748 33.5298 355.4612 33.5736 355.359 33.5058 354.971 33.7409 354.6871 33.7986 354.2277 33.6835 354.075 33.6455 353.8396 33.8366 353.232 33.6867 352.8859 33.7456 352.6358 33.9369 352.3454 33.9406 351.6338 33.8069 351.4069 33.8047 351.1696 34.0136 350.6573 34.0432 350.3766 33.9585 350.1957 33.6754 349.984 33.565 349.7995 33.6287 349.4822 33.8052 349.1724 33.7556 348.8585 33.1292 348.1513 33.0959 347.9426 33.21 347.7335 33.3468 347.6601 33.422 347.412 33.4685 347.0689 33.1478 346.6986 33.0374 346.3835 33.1752 345.8838 33.1846 345.6024 33.0996 345.0984 32.8001 344.7442 32.7184 344.4746 32.9761 344.0085 32.9851 343.7419 32.8894 343.5905 32.8801 343.4264 Z" id="fips-27027"/>
<path d="M 246.1717 765.824 263.4992 766.0301 340.4493 765.9988 340.6388 767.7518 339.2116 772.8851 338.1305 773.7528 337.6398 778.8381 336.8869 780.2393 340.1456 783.4821 337.1682 789.1851 333.6913 791.0302 332.9198 793.6162 329.9154 796.891 331.4078 799.713 329.9978 802.431 332.3708 810.6033 327.8466 811.6985 327.6398 812.8735 325.7971 811.6191 324.5397 812.2896 320.5181 810.1434 320.0468 808.791 316.9552 806.8624 315.8337 807.1394 308.852 805.6521 308.3798 803.759 304.6662 803.4842 304.2604 802.1957 300.831 801.4413 300.3851 799.7292 297.357 799.1725 295.2444 797.0449 291.404 795.8507 287.016 794.4877 286.695 792.3469 284.7679 790.9347 282.5264 787.7444 282.5327 785.1193 281.4771 785.2805 278.1209 782.193 278.1642 781.042 276.1768 781.7361 274.6586 780.142 271.9878 780.2352 271.1261 778.537 268.4731 779.0801 266.5566 777.0453 263.747 777.4992 260.1455 774.7931 258.8072 775.618 257.1996 773.2632 255.8387 774.3369 256.3487 772.0072 254.7576 772.0933 255.6256 770.2923 252.1744 769.4149 249.5815 766.9315 247.6002 767.9478 245.5167 766.6477 246.1717 765.824 Z" id="fips-27103"/>
<path d="M 358.1899 737.4417 359.5531 738.2712 360.4714 736.6595 365.8659 732.8754 369.1852 728.8493 371.8371 729.234 374.6754 726.8693 373.8032 725.7728 373.7077 725.2181 373.1564 722.1824 374.1875 718.7268 377.225 716.232 376.6034 715.2854 383.0284 711.788 385.3189 711.8149 392.202 711.8928 394.3724 710.376 398.7436 712.5794 400.7166 714.5507 403.5196 714.5362 403.9001 713.8653 405.5729 714.3914 406.3503 713.6537 406.3655 715.6152 406.4761 716.106 406.5306 720.5801 406.6062 725.063 407.7358 725.0494 407.7749 730.6611 407.821 738.5392 412.2974 738.4615 412.3976 750.8044 412.0787 751.9288 403.6531 752.0148 385.2251 752.2514 382.1518 752.2889 377.0848 752.2975 371.6525 752.3133 342.5226 752.5819 344.6165 749.0855 343.6122 748.5047 344.4551 746.0871 343.3742 745.6782 346.5243 742.688 348.0003 742.7819 348.3041 740.4696 350.6413 740.8651 352.9527 738.6039 355.54 739.2118 358.1899 737.4417 Z" id="fips-27139"/>
<path d="M 353.8236 488.736 393.0612 487.9471 393.2678 497.987 393.0729 502.2909 393.2602 529.0758 384.0302 529.0995 384.8343 567.4991 385.3912 594.7373 358.3636 594.7943 357.6515 554.0617 357.0995 540.4762 356.9826 529.1751 352.5144 529.1121 352.3782 502.1855 352.2533 488.7549 353.8236 488.736 Z" id="fips-27095"/>
<path d="M 73.3546 218.4661 153.6118 220.2739 153.5481 224.6987 153.3325 238.2268 140.0385 238.0209 139.7151 251.565 86.0609 250.3736 86.3346 236.8741 72.8694 236.4815 73.3546 218.4661 Z" id="fips-27125"/>
<path d="M 62.6315 708.4092 128.9399 710.0769 129.3834 696.6707 141.4876 696.9638 141.686 690.0528 143.5477 692.3413 144.5715 695.1461 148.6818 695.1273 148.5901 696.3048 150.463 697.5071 151.9319 699.7877 152.8885 699.2596 154.8838 702.155 154.7879 703.5352 158.9822 705.4451 160.7762 707.9142 163.4441 709.7758 162.388 710.9915 165.2036 711.3015 167.4813 713.6616 164.4956 714.203 164.0589 716.0975 165.9766 716.9809 167.1076 716.0534 167.1657 716.0978 167.3108 716.1762 167.5056 716.2451 167.7331 716.2915 167.7847 716.3157 168.3251 719.1772 169.1165 719.0199 169.7448 718.4671 172.0813 720.8709 173.694 720.4875 178.0188 724.3518 182.5134 727.5994 182.1426 751.9171 156.2207 751.4146 155.4392 737.8036 101.461 736.596 61.8618 735.4256 62.1936 724.2945 62.2932 721.9321 62.4365 715.3969 62.4632 715.1994 62.4987 712.965 62.5377 710.7499 62.5384 710.4662 62.568 709.6302 62.6312 708.425 62.6315 708.4092 Z" id="fips-27173"/>
<path d="M 208.7514 563.4034 208.7713 561.1494 249.1268 561.4565 262.4309 561.5354 276.5777 561.5363 302.7218 561.4715 304.0223 566.5707 308.789 569.0245 307.8159 570.7687 310.1605 576.5368 312.4104 576.4278 310.7007 578.0127 310.0725 581.3113 310.0932 585.6301 311.1819 588.2104 313.8941 590.8266 314.2533 592.7352 314.7521 593.8839 315.9822 595.0154 316.2415 596.5874 316.0299 600.2137 317.0744 601.6409 316.8021 605.2294 320.5315 608.4652 321.3423 609.3522 321.1652 610.9963 323.6462 613.802 326.7101 614.3425 327.1211 616.1374 326.5076 616.0138 323.1677 622.8175 323.4253 624.8362 319.1307 631.2374 315.2168 634.6036 313.3925 634.9971 311.881 632.3819 304.2712 634.2432 303.8495 637.7075 290.4588 637.8643 290.4627 631.0511 273.8977 631.09 271.547 631.1126 262.4705 631.1121 249.0523 630.9496 249.1624 617.487 208.9862 617.179 209.3242 590.3928 208.4145 590.3842 208.7514 563.4034 Z" id="fips-27145"/>
<path d="M 406.3503 713.6537 414.8748 710.3923 419.2729 705.953 420.7154 702.4814 422.7883 699.637 422.7978 698.3682 423.9367 698.3204 425.4974 697.6255 427.1681 695.8864 428.2206 693.4385 436.7625 693.3417 437.0034 693.6713 438.3538 696.3653 440.2162 697.7521 440.6234 698.6985 441.3733 701.9184 441.4185 704.6793 442.0749 709.4974 440.2879 713.8872 440.9254 715.6138 442.0338 716.199 445.4668 716.0489 450.5303 714.5568 455.6223 715.6079 458.6923 719.6513 463.395 719.6421 464.5067 719.8483 464.528 719.9457 466.1462 721.1171 468.5758 722.2881 469.5907 723.1657 469.9012 723.3248 470.3439 723.4171 471.7843 724.161 472.3692 724.6909 472.6043 737.7473 465.9192 737.8331 466.1495 751.2883 452.1739 751.4821 452.2175 755.4655 448.2952 757.1638 444.9387 755.3858 438.9246 755.9843 439.0047 762.7584 412.1859 763.0904 412.0787 751.9288 412.3976 750.8044 412.2974 738.4615 407.821 738.5392 407.7749 730.6611 407.7358 725.0494 406.6062 725.063 406.5306 720.5801 406.4761 716.106 406.3655 715.6152 406.3503 713.6537 Z" id="fips-27037"/>
<path d="M 287.7303 240.1239 354.6361 239.9463 354.6331 231.7943 426.9162 232.1892 426.8408 245.4587 427.1936 258.7931 429.3793 258.7923 429.479 292.9683 429.1826 299.4966 429.2554 309.4233 429.8091 312.8823 430.2389 353.576 431.3011 353.5669 431.5148 366.4242 417.2027 366.8081 403.9273 366.487 355.4223 366.556 355.332 338.2773 352.665 336.8357 351.5218 334.8626 351.9378 334.4785 352.9636 331.0278 354.47 330.6851 355.1277 328.1397 354.0101 324.8165 355.322 323.9374 350.4868 324.6171 347.5689 323.1956 347.8348 322.1466 343.2953 321.8526 341.8797 324.534 338.5625 324.0759 334.2911 318.9457 332.8973 319.004 330.8193 317.2137 328.6709 316.7113 327.0208 312.594 327.1748 308.9233 328.5727 307.9668 325.0314 303.3918 323.0915 298.6911 321.4942 297.2201 319.0934 296.7928 297.0997 306.8565 291.8112 304.3469 289.874 304.9442 287.7922 302.339 288.0628 280.359 287.8528 279.213 287.7303 240.1239 Z" id="fips-27061"/>
</g>
</svg>