<?xml version="1.0"?>
<svg xmlns="http://www.w3.org/2000/svg" version="1.2" baseProfile="tiny" width="800" height="710" viewBox="0 0 800 710" stroke-linecap="round" stroke-linejoin="round">
<g id="cb_2018_us_county_5m">
<path d="M 245.6243 491.47 268.0262 492.3238 290.7062 493.2619 299.0584 493.5848 312.3527 494.0213 311.7924 516.2565 313.6529 516.3008 313.5454 521.6261 313.0187 544.0864 299.8147 543.6555 288.7039 543.1241 284.5837 542.98 281.2011 542.9178 273.3335 542.7125 264.3623 542.4833 246.5021 542.001 247.3083 513.8835 244.7766 513.7706 245.6243 491.47 Z" id="fips-29077"/>
<path d="M 407.367 104.9218 446.7928 105.2481 460.0123 105.3506 459.5637 149.7971 419.6053 149.31 419.4484 157.7215 419.2468 158.3344 406.1157 158.1758 407.367 104.9218 Z" id="fips-29205"/>
<path d="M 518.8295 371.552 518.8271 371.8158 519.093 372.4196 551.5958 371.9855 552.2685 409.7568 552.2729 423.1155 552.1207 443.1937 546.4775 443.1526 545.7425 449.8338 526.642 449.6716 526.7625 436.2988 500.0263 436.3228 499.9257 380.5531 498.7963 380.5399 498.619 371.5826 518.8295 371.552 Z" id="fips-29055"/>
<path d="M 181.0742 74.73 234.1505 76.1819 234.0009 102.7719 233.9605 129.599 194.5675 128.7914 181.3008 128.0722 182.3191 90.4143 180.5184 90.327 181.0742 74.73 Z" id="fips-29061"/>
<path d="M 552.1838 583.7907 563.3114 583.8574 572.9808 584.761 579.2499 585.0249 607.8786 584.7195 612.19 584.7115 612.3027 591.5434 612.468 604.8663 616.9237 604.8041 617.1113 618.1843 619.3279 618.1813 619.433 632.5074 618.3033 632.5226 617.199 632.5507 615.8243 632.5784 614.9482 632.5806 610.5175 632.6854 609.9315 632.6906 605.0295 632.7819 602.7835 632.8541 596.0701 632.9521 594.0008 632.9853 593.7611 632.9896 585.6188 633.1304 582.7419 633.2528 582.3971 633.2221 582.3598 633.2058 582.0698 633.2177 572.029 633.3775 571.7312 633.3835 569.4882 633.4287 566.1215 633.4956 564.9609 633.5457 555.3543 633.7208 555.3053 633.718 551.5751 633.8001 551.8239 590.483 552.1422 588.4177 552.1838 583.7907 Z" id="fips-29181"/>
<path d="M 191.2753 548.8524 192.7443 511.7538 244.7766 513.7706 247.3083 513.8835 246.5021 542.001 246.1615 557.6981 245.9184 568.891 197.1771 566.9677 190.5422 566.691 190.6262 564.4495 190.8958 557.7869 191.2753 548.8524 Z" id="fips-29109"/>
<path d="M 404.9136 197.6902 431.2291 198.7084 475.1771 198.6839 475.1362 200.9269 486.3701 200.8752 508.4062 201.4986 512.1849 228.4881 485.9316 227.9397 485.5315 241.5681 428.7695 241.1377 429.3812 214.1919 404.4109 213.2393 404.8566 199.8213 404.9136 197.6902 Z" id="fips-29007"/>
<path d="M 189.2677 502.6072 190.6968 466.9888 246.5226 469.1915 245.6243 491.47 244.7766 513.7706 192.7443 511.7538 188.9 511.5681 189.2677 502.6072 Z" id="fips-29057"/>
<path d="M 134.0183 7.0706 138.4471 7.2078 144.4856 7.37 144.5236 7.3708 144.9323 7.3871 145.079 7.3904 145.4494 7.4025 150.6442 7.523 152.7491 7.5511 152.815 7.5517 154.0455 7.5606 157.5827 7.6223 165.9034 7.7476 168.4201 7.7855 168.4376 7.7823 169.8112 7.8099 171.4471 7.8356 173.3001 7.9008 174.1701 7.8905 180.5915 7.9566 180.3566 23.5265 182.3342 23.5479 182.1109 36.7661 137.2387 35.441 136.053 35.3975 136.4001 22.2717 133.6615 22.1967 134.0183 7.0706 Z" id="fips-29227"/>
<path d="M 234.5283 56.082 280.9042 56.282 280.6148 92.0493 281.1558 92.0548 281.0531 102.0997 236.4831 102.9156 234.0009 102.7719 234.1505 76.1819 234.5283 56.082 Z" id="fips-29079"/>
<path d="M 312.3527 494.0213 312.6441 482.9064 339.1965 483.5849 339.3639 483.5682 359.5066 484.0258 358.7374 517.4752 360.3655 517.5352 359.4505 547.6172 342.4567 547.3133 332.8345 546.9675 332.888 544.7326 321.787 544.2983 313.0187 544.0864 313.5454 521.6261 313.6529 516.3008 311.7924 516.2565 312.3527 494.0213 Z" id="fips-29225"/>
<path d="M 359.6757 157.4013 405.9319 158.1755 405.1094 190.8942 404.9136 197.6902 404.8566 199.8213 404.4109 213.2393 397.7459 213.0582 397.5159 213.0529 390.6548 212.8927 375.296 207.643 374.2271 207.2803 357.7536 201.6804 358.1971 188.4161 358.2316 187.4017 359.1403 157.6385 359.6757 157.4013 Z" id="fips-29175"/>
<path d="M 412.4063 485.3527 412.7026 465.1607 420.7501 465.0323 439.4731 465.3757 466.2398 465.7843 472.8422 465.7506 473.0123 492.5479 486.2244 492.6513 486.3224 519.4022 485.6154 550.007 468.0006 549.9781 445.7949 549.2526 432.5725 549.2194 412.6539 548.7589 413.1 518.8031 412.4647 500.8587 412.4063 485.3527 Z" id="fips-29215"/>
<path d="M 359.5066 484.0258 375.0523 484.4851 412.4063 485.3527 412.4647 500.8587 413.1 518.8031 412.6539 548.7589 359.4505 547.6172 360.3655 517.5352 358.7374 517.4752 359.5066 484.0258 Z" id="fips-29229"/>
<path d="M 440.1651 402.7537 444.5605 402.8881 446.7949 402.8671 448.4081 398.0997 449.7669 398.0003 450.5348 399.5955 455.3383 396.448 472.4932 396.0168 487.1053 396.2476 487.192 380.5077 498.7963 380.5399 499.9257 380.5531 500.0263 436.3228 475.1426 436.2279 466.3857 436.2579 466.2398 465.7843 439.4731 465.3757 439.9041 436.0395 440.0527 422.6864 440.1651 402.7537 Z" id="fips-29161"/>
<path d="M 234.0009 102.7719 236.4831 102.9156 281.0531 102.0997 281.1205 102.7496 280.7609 115.5196 280.3069 142.5604 291.8558 142.7048 289.4218 145.9875 289.8403 150.6841 292.4042 155.03 290.4185 156.1817 233.6496 156.1772 233.9605 129.599 234.0009 102.7719 Z" id="fips-29117"/>
<path d="M 341.6 91.8343 362.018 91.7853 400.6245 91.9374 400.6825 104.8082 407.367 104.9218 406.1157 158.1758 405.9319 158.1755 359.6757 157.4013 360.0437 143.9286 340.1409 143.5702 341.6 91.8343 Z" id="fips-29121"/>
<path d="M 405.9319 158.1755 406.1157 158.1758 419.2468 158.3344 419.4484 157.7215 419.6053 149.31 459.5637 149.7971 475.0977 149.8167 475.0609 156.5592 475.5635 158.7952 475.1771 198.6839 431.2291 198.7084 404.9136 197.6902 405.1094 190.8942 405.9319 158.1755 Z" id="fips-29137"/>
<path d="M 191.0767 458.0717 191.1645 455.8449 191.9665 440.3096 191.4058 440.2786 192.7195 418.0062 223.7747 419.7752 223.3488 428.6901 245.511 429.7814 245.2866 434.7403 244.854 443.1437 247.6371 443.2627 246.903 460.2599 246.5226 469.1915 190.6968 466.9888 191.0767 458.0717 Z" id="fips-29039"/>
<path d="M 298.8579 434.4278 299.6175 418.8599 312.9576 419.203 339.2335 420.4047 338.855 431.4994 338.5696 447.1768 340.2241 447.2146 339.1965 483.5849 312.6441 482.9064 312.3527 494.0213 299.0584 493.5848 300.558 445.6543 298.3502 445.5829 298.8579 434.4278 Z" id="fips-29059"/>
<path d="M 551.5958 371.9855 564.388 371.757 566.727 371.3525 575.739 371.4723 589.6351 371.3552 601.8392 386.6939 601.5072 389.2126 606.9164 390.6059 607.1127 410.0197 607.1431 412.213 607.3125 443.0445 593.1367 442.9497 579.5365 443.6498 570.6655 443.2054 552.1207 443.1937 552.2729 423.1155 552.2685 409.7568 551.5958 371.9855 Z" id="fips-29221"/>
<path d="M 281.0531 102.0997 281.1558 92.0548 335.4436 91.91 339.5393 91.9036 340.5763 91.8373 341.6 91.8343 340.1409 143.5702 328.1008 143.1792 313.6578 142.3907 291.8558 142.7048 280.3069 142.5604 280.7609 115.5196 281.1205 102.7496 281.0531 102.0997 Z" id="fips-29115"/>
<path d="M 660.6891 506.3054 669.4746 506.5302 669.4837 471.3648 668.2716 462.7673 702.9595 461.5611 704.3039 519.8861 703.8838 520.3097 704.2817 534.1302 692.9166 534.2707 693.2574 545.4602 688.7713 545.5264 688.8455 547.7686 674.7037 547.9689 674.6438 541.1161 660.8355 541.3593 660.6891 506.3054 Z" id="fips-29017"/>
<path d="M 332.8345 546.9675 342.4567 547.3133 359.4505 547.6172 412.6539 548.7589 432.5725 549.2194 431.834 589.4495 429.8231 589.4234 349.6483 587.6191 331.9017 587.0734 332.8345 546.9675 Z" id="fips-29067"/>
<path d="M 194.169 334.2224 193.9667 331.3138 194.6591 315.7697 261.0025 318.4402 260.7199 325.1482 260.6987 335.2242 259.7209 354.3984 258.8893 371.9713 257.2955 372.192 254.8683 370.0125 253.3606 370.1063 254.8366 372.8662 195.4525 370.0187 192.4025 369.8863 193.8506 340.9925 194.169 334.2224 Z" id="fips-29083"/>
<path d="M 620.9556 456.7605 623.176 456.8638 630.8479 456.6866 668.1029 455.9902 668.2716 462.7673 669.4837 471.3648 669.4746 506.5302 660.6891 506.3054 658.4041 506.1537 645.0093 506.7347 620.182 506.812 619.5922 463.7302 621.0821 463.7008 620.9556 456.7605 Z" id="fips-29123"/>
<path d="M 245.511 429.7814 252.1975 430.0791 252.0613 432.333 298.8579 434.4278 298.3502 445.5829 300.558 445.6543 299.0584 493.5848 290.7062 493.2619 268.0262 492.3238 245.6243 491.47 246.5226 469.1915 246.903 460.2599 247.6371 443.2627 244.854 443.1437 245.2866 434.7403 245.511 429.7814 Z" id="fips-29167"/>
<path d="M 538.9366 574.7425 539.2295 543.6963 553.0302 543.4311 557.6196 542.2718 563.6072 541.8882 565.7832 541.1288 570.2351 541.5248 570.23 548.2413 592.8749 548.3527 598.977 548.3614 598.9649 555.9007 601.1639 555.8641 601.1731 558.0583 601.1931 560.3615 603.3997 560.3656 603.3428 567.0508 605.592 567.1145 605.5729 573.7709 607.8411 573.7574 607.8786 584.7195 579.2499 585.0249 572.9808 584.761 563.3114 583.8574 552.1838 583.7907 538.807 583.6692 538.9366 574.7425 Z" id="fips-29035"/>
<path d="M 261.0025 318.4402 261.7716 299.5158 261.9074 297.2855 262.5917 286.1595 262.7256 283.9344 263.6544 267.5249 263.0907 265.8157 263.3015 261.3481 263.4342 259.1389 289.9861 260.59 289.9892 260.5329 310.0624 261.3043 316.6336 261.8486 315.259 297.9248 314.7692 309.0074 314.2164 322.9426 287.4379 321.9056 287.2297 326.3642 260.7199 325.1482 261.0025 318.4402 Z" id="fips-29159"/>
<path d="M 340.8529 44.9869 360.5921 44.9482 360.9062 44.943 399.9904 44.5024 400.0039 50.6573 400.2529 51.2113 400.427 64.5333 400.6245 91.9374 362.018 91.7853 341.6 91.8343 340.5763 91.8373 340.8529 44.9869 Z" id="fips-29001"/>
<path d="M 419.772 5.5089 429.4868 5.2759 429.8958 5.2357 431.0229 5.2063 431.1232 5.2164 432.6161 5.1188 432.8046 5.137 437.2605 4.9541 440.8674 4.8264 444.0932 4.7058 446.8049 4.6361 447.3398 4.5763 446.8357 51.351 400.2529 51.2113 400.0039 50.6573 399.9904 44.5024 399.847 6.0495 399.8505 6.0493 402.1027 5.979 402.1307 5.9651 405.9114 5.8574 413.166 5.6797 415.3657 5.6281 417.222 5.6005 417.8636 5.585 419.772 5.5089 Z" id="fips-29199"/>
<path d="M 135.1433 88.7013 167.4784 89.3999 180.5184 90.327 182.3191 90.4143 181.3008 128.0722 181.1579 134.6842 134.4336 133.4908 134.6334 122.3385 135.1433 88.7013 Z" id="fips-29063"/>
<path d="M 233.9557 7.98 234.435 7.9821 236.7665 7.9989 237.6358 8.042 238.2767 8.0473 239.3141 8.0608 240.0032 8.0559 243.7451 8.0707 245.2877 8.0525 246.2497 8.0477 247.0576 8.041 247.3653 8.0486 247.722 8.0499 254.5826 7.9614 258.2149 7.9105 258.259 7.9174 258.3256 7.9078 258.8434 7.8893 259.06 7.9095 259.2976 7.9053 259.6372 7.8989 260.3018 7.8893 262.6446 7.9244 262.7111 7.9146 263.1171 7.9124 269.7857 8.0502 269.9712 8.0381 272.7126 8.1057 280.5649 8.1225 280.3393 24.7001 281.2697 24.8157 281.1209 38.389 280.9042 56.282 234.5283 56.082 234.8259 24.105 233.6907 24.1141 233.9557 7.98 Z" id="fips-29129"/>
<path d="M 134.4336 133.4908 181.1579 134.6842 180.2133 168.2137 179.7342 179.3321 149.8094 178.608 134.1056 178.1882 133.5382 178.1307 133.564 175.943 133.7616 166.7777 133.9709 153.4956 134.4336 133.4908 Z" id="fips-29049"/>
<path d="M 517.7365 296.4352 521.034 296.6888 523.7263 294.9752 524.4393 295.2201 530.8982 301.2939 533.6039 303.044 534.8054 304.8677 534.9756 308.1512 540.2293 310.1778 546.295 311.5683 548.6449 311.3307 552.8888 309.7739 555.4597 309.9003 558.3206 312.1242 559.6747 315.1679 561.3518 316.8341 563.2 317.9354 566.5715 319.0448 571.5434 321.0215 574.931 319.9167 580.2825 316.5569 584.6385 312.9048 589.3329 311.4293 591.3871 308.8286 591.9934 306.7018 592.9598 305.232 594.1543 304.4825 594.2176 307.2334 594.2284 318.3485 594.1634 329.3737 594.1729 330.9805 594.1634 338.7688 592.9091 347.6486 592.2428 351.9793 591.4732 357.2885 589.6351 371.3552 575.739 371.4723 566.727 371.3525 564.388 371.757 551.5958 371.9855 519.093 372.4196 518.8271 371.8158 518.8295 371.552 518.8572 354.3116 518.3881 337.0504 517.8497 298.1474 517.7508 297.9368 517.7365 296.4352 Z" id="fips-29071"/>
<path d="M 484.4461 296.1524 485.5315 241.5681 485.9316 227.9397 512.1849 228.4881 529.8957 228.6867 529.7092 251.2586 529.9315 274.1092 525.5105 273.8557 521.0973 274.1127 511.8973 274.1021 511.7981 294.8994 508.9009 295.023 507.1393 295.4891 507.7093 295.0052 505.3725 295.3008 503.8353 294.4445 502.4729 295.0485 501.7802 296.0668 501.7694 297.2753 496.4642 300.1821 491.602 299.3422 485.2597 296.0845 484.4461 296.1524 Z" id="fips-29139"/>
<path d="M 132.351 223.6141 132.4558 220.5273 132.5565 218.0549 132.7575 210.2883 132.8683 207.06 132.9831 203.7032 133.0973 196.9742 133.2287 191.1961 133.5382 178.1307 134.1056 178.1882 149.8094 178.608 179.7342 179.3321 179.5337 186.6069 179.4757 188.3874 178.7746 217.308 173.7639 212.7409 169.5655 212.5515 166.6249 215.1911 164.1176 220.664 160.217 223.6573 157.5573 218.8902 155.4244 218.9082 156.1746 223.0339 150.9685 228.7265 148.8815 230.0065 146.2281 226.0916 141.9274 225.4261 140.1485 226.0418 138.4513 228.1601 136.6226 229.2595 136.4662 229.3034 134.9237 230.139 132.6436 231.2701 131.5149 230.6789 131.5747 229.7656 131.7395 229.3397 132.3928 228.3881 133.3593 227.2748 133.6848 226.5917 133.4996 224.3467 133.0219 223.9213 132.351 223.6141 Z" id="fips-29047"/>
<path d="M 314.2164 322.9426 314.7692 309.0074 315.259 297.9248 328.3622 299.1239 341.6171 299.4624 341.3173 312.8389 367.2564 338.3909 366.6553 338.3621 366.2023 351.0783 359.454 351.0035 358.6755 370.4035 354.3935 370.4596 351.4255 371.8502 350.3829 375.3524 345.2678 375.0982 326.4554 374.0793 329.8792 371.9646 330.2119 370.5699 326.7711 369.3043 324.4585 373.9906 323.2028 375.4196 320.1785 375.1869 319.308 373.821 320.5531 372.0513 323.4162 372.0368 323.6784 370.4424 321.3349 370.1407 320.3766 367.2565 316.9371 363.596 315.234 362.5789 312.6923 363.8886 312.9746 357.4954 313.5547 336.399 314.2164 322.9426 Z" id="fips-29141"/>
<path d="M 246.5021 542.001 264.3623 542.4833 273.3335 542.7125 281.2011 542.9178 284.5837 542.98 288.7039 543.1241 299.8147 543.6555 313.0187 544.0864 321.787 544.2983 332.888 544.7326 332.8345 546.9675 331.9017 587.0734 302.7281 586.1808 293.003 585.8549 283.385 585.5525 278.7572 585.4424 279.5691 558.5748 263.8863 558.2075 246.1615 557.6981 246.5021 542.001 Z" id="fips-29043"/>
<path d="M 340.8511 216.2579 347.9133 198.2783 357.7536 201.6804 374.2271 207.2803 375.296 207.643 390.6548 212.8927 380.7381 237.4383 374.5794 251.3236 375.6197 253.2627 373.981 254.279 375.414 255.5566 371.1137 256.0352 362.5631 254.6842 359.3207 254.7194 356.6234 253.4764 347.5319 255.2833 340.2833 253.6989 337.5032 250.8246 332.9362 247.6801 330.576 241.0153 333.8323 238.0152 333.6494 236.2742 330.6655 235.6789 329.3407 234.4813 329.5173 232.2346 332.0522 230.8589 334.034 228.2834 334.1992 225.4432 335.9059 223.2689 339.5134 220.1107 340.8511 216.2579 Z" id="fips-29089"/>
<path d="M 181.1579 134.6842 181.3008 128.0722 194.5675 128.7914 233.9605 129.599 233.6496 156.1772 233.359 169.4982 227.5187 169.2422 186.7285 168.4844 180.2133 168.2137 181.1579 134.6842 Z" id="fips-29025"/>
<path d="M 281.1209 38.389 340.9197 38.3688 340.8529 44.9869 340.5763 91.8373 339.5393 91.9036 335.4436 91.91 281.1558 92.0548 280.6148 92.0493 280.9042 56.282 281.1209 38.389 Z" id="fips-29211"/>
<path d="M 393.2603 426.1166 393.5364 407.9149 393.605 401.2589 420.3106 401.9552 420.718 402.1545 440.1651 402.7537 440.0527 422.6864 439.9041 436.0395 439.4731 465.3757 420.7501 465.0323 412.7026 465.1607 412.7603 458.4249 406.0528 455.0308 392.7329 448.4022 393.2012 427.9836 393.2603 426.1166 Z" id="fips-29169"/>
<path d="M 123.9373 502.9361 124.0397 498.9868 189.2677 502.6072 188.9 511.5681 192.7443 511.7538 191.2753 548.8524 162.3769 547.5302 148.9073 547.0995 147.6802 547.0593 146.3598 547.0112 144.4346 546.9416 144.016 546.9278 129.4633 546.4259 128.0005 546.3457 122.923 546.1285 122.9737 543.3248 122.9947 541.6593 123.0011 541.5831 123.0247 540.4999 123.0256 540.4728 123.0396 540.012 123.0538 538.8934 123.0785 537.4821 123.1532 534.9386 123.1626 534.5414 123.2258 530.2711 123.2259 530.2668 123.2619 528.0316 123.2804 527.0496 123.3297 525.8861 123.3509 524.9792 123.3963 523.039 123.4084 522.9725 123.4563 521.0947 123.488 519.8517 123.4956 519.6657 123.5202 518.3983 123.5403 517.9631 123.8838 505.2104 123.9246 503.1775 123.9373 502.9361 Z" id="fips-29097"/>
<path d="M 245.9184 568.891 246.1615 557.6981 263.8863 558.2075 279.5691 558.5748 278.7572 585.4424 283.385 585.5525 282.6274 598.8708 281.8886 625.3096 281.601 634.3829 281.5994 634.3829 271.809 634.2706 271.6414 634.2459 267.829 634.2194 257.9113 634.0609 257.0351 634.0555 248.4306 633.9513 250.2968 584.7148 245.4922 584.5744 245.7459 574.5267 245.9184 568.891 Z" id="fips-29209"/>
<path d="M 529.8957 228.6867 538.7975 228.6646 538.8584 222.5441 538.9039 215.157 593.7041 214.7435 594.2952 216.2971 594.3668 216.8325 594.3682 217.3989 594.2906 218.0037 594.3092 218.8285 594.7055 220.6788 595.1944 222.0418 595.2672 222.5686 595.4158 225.2994 595.5763 225.9487 595.9243 227.125 596.2045 227.7953 596.5068 228.2975 597.1805 229.1685 598.0766 230.6468 598.2743 230.973 598.4693 231.6165 598.9167 233.5994 598.8401 235.2159 598.756 235.4812 596.7004 238.062 596.6136 238.2753 596.5149 239.0199 595.3009 240.348 595.181 240.58 595.1804 240.824 595.4456 241.9207 595.8991 242.6082 596.8066 244.6148 597.8195 246.5012 598.1192 247.1841 598.2751 247.9219 598.4113 248.2213 598.7487 248.7696 598.9083 249.029 599.1046 249.2203 599.5872 250.274 599.8246 251.4596 599.877 254.2645 599.9438 254.8268 600.463 256.3275 600.7873 256.9535 601.2658 259.0893 597.8749 259.2061 599.1485 261.9252 596.3221 261.1345 596.279 264.0357 591.6757 260.1172 590.7407 261.3528 587.8602 261.1384 584.7644 262.9359 584.6084 264.3822 584.4802 268.0789 583.2609 268.3605 577.6898 266.6377 571.1883 266.7339 571.145 266.73 571.0258 266.7936 570.9357 266.8172 570.7773 266.8164 570.7364 266.8013 570.6749 266.7388 570.5311 266.6884 570.4614 266.646 570.4076 266.6376 570.3592 266.6625 570.3525 266.7139 570.3754 266.7745 570.355 266.8707 570.2976 266.9366 570.2385 266.9604 570.1896 266.9549 570.1257 266.8958 570.097 266.8305 570.0048 266.8085 569.9253 266.8962 569.7679 266.9559 569.6863 266.9769 569.6328 267.0627 569.5632 267.056 569.5024 267.0713 569.4579 267.1882 569.4301 267.2035 569.3794 267.1836 569.3034 267.0834 569.3146 266.9892 569.2276 266.9076 569.1109 266.8595 569.0438 266.8222 568.9659 266.7451 568.9084 266.7287 568.8614 266.7507 568.8318 266.8382 568.7829 266.8804 568.7534 266.9682 568.6245 266.9984 568.5682 266.9666 568.514 266.8715 568.4183 266.7985 568.3584 266.7276 568.3361 266.6715 568.2315 266.5557 568.1956 266.5308 568.1111 266.4168 568.0931 266.3709 568.0941 266.2955 568.0697 266.2532 567.9682 266.1694 567.8623 266.1491 567.7955 266.0998 567.7768 265.9573 567.7545 265.9375 566.6615 265.8501 566.4711 269.4286 552.7091 269.3559 548.228 269.4266 548.2211 260.3434 538.774 260.4387 538.7601 251.2333 529.7092 251.2586 529.8957 228.6867 Z" id="fips-29113"/>
<path d="M 131.2437 241.3174 131.2466 241.2321 131.3559 238.0021 131.4021 235.5476 131.4426 234.3361 131.443 234.3195 131.5149 230.6789 132.6436 231.2701 134.9237 230.139 136.4662 229.3034 136.6226 229.2595 138.4513 228.1601 140.1485 226.0418 141.9274 225.4261 146.2281 226.0916 148.8815 230.0065 150.9685 228.7265 156.1746 223.0339 155.4244 218.9082 157.5573 218.8902 160.217 223.6573 164.1176 220.664 166.6249 215.1911 169.5655 212.5515 173.7639 212.7409 178.7746 217.308 183.7837 216.6005 181.7156 221.0086 182.5583 221.7211 188.0442 222.9814 191.3964 227.2974 191.0211 235.2404 190.7748 239.7435 190.4213 247.0025 190.3114 249.5388 190.3036 249.7091 190.2217 251.5107 189.6517 261.9794 189.648 263.3985 188.8294 274.8767 171.0504 274.2552 170.5074 274.2435 158.1517 273.5391 155.3537 273.3572 144.5434 272.6786 139.766 272.2708 130.4695 271.5164 130.4977 270.3199 130.5201 269.3688 130.5448 268.5061 130.5468 268.4387 130.545 268.3104 130.549 268.1416 130.6018 265.902 130.6198 265.1608 130.6285 264.8075 130.6574 263.6221 130.7938 258.0288 130.8002 257.766 130.8003 257.7625 130.8156 257.6818 130.7931 257.281 130.8003 256.9742 130.8448 254.7152 130.9113 251.3412 130.9206 250.8685 131.0558 246.8725 131.2437 241.3174 Z" id="fips-29095"/>
<path d="M 485.3001 359.8098 485.2397 336.9133 485.2532 332.6845 485.2597 296.0845 491.602 299.3422 496.4642 300.1821 501.7694 297.2753 501.7802 296.0668 502.4729 295.0485 503.8353 294.4445 505.3725 295.3008 507.7093 295.0052 507.1393 295.4891 508.9009 295.023 511.7981 294.8994 514.3516 295.0751 517.7365 296.4352 517.7508 297.9368 517.8497 298.1474 518.3881 337.0504 518.8572 354.3116 518.8295 371.552 498.619 371.5826 498.7963 380.5399 487.192 380.5077 485.4618 380.4985 485.3001 359.8098 Z" id="fips-29073"/>
<path d="M 312.6923 363.8886 315.234 362.5789 316.9371 363.596 320.3766 367.2565 321.3349 370.1407 323.6784 370.4424 323.4162 372.0368 320.5531 372.0513 319.308 373.821 320.1785 375.1869 323.2028 375.4196 324.4585 373.9906 326.7711 369.3043 330.2119 370.5699 329.8792 371.9646 326.4554 374.0793 345.2678 375.0982 350.3829 375.3524 351.4255 371.8502 354.3935 370.4596 358.6755 370.4035 361.1193 371.8213 365.3996 371.7997 365.2302 378.1521 369.6573 378.298 370.6527 383.0481 370.5992 387.503 371.6946 387.5227 371.6558 389.7479 373.8658 389.7815 373.795 393.8726 375.9867 394.3257 375.9482 396.503 378.223 396.5569 378.18 398.7574 380.3934 398.8405 380.3438 401.0807 393.605 401.2589 393.5364 407.9149 393.2603 426.1166 392.0219 426.0279 388.387 429.7732 388.0193 431.4726 384.6426 430.7458 382.0837 430.9417 380.6 433.3611 378.4198 433.4859 376.3095 435.1104 374.4598 434.2953 373.6894 431.7186 370.135 428.9958 370.1984 427.1699 368.3716 425.4331 367.7129 420.9847 339.2335 420.4047 312.9576 419.203 313.9954 394.6812 314.088 392.433 314.8581 375.7811 312.0741 375.637 312.6923 363.8886 Z" id="fips-29029"/>
<path d="M 634.0685 395.2925 644.3481 387.0724 648.4004 387.9576 650.0766 385.5527 653.8609 383.7579 653.4851 381.7234 653.5078 381.76 653.8023 382.1392 654.6922 384.0189 657.7045 386.7557 659.1248 387.6667 659.3989 387.8425 663.4074 390.4117 664.4529 389.6626 664.674 389.5738 665.0402 389.5885 666.7493 390.4225 668.4365 391.4058 668.7642 391.8115 668.9953 392.5343 669.059 393.1968 669.0112 394.2094 669.0743 394.7111 670.1681 396.064 671.0217 396.8345 673.0781 398.1195 673.7521 398.4186 674.6353 398.4487 675.6771 398.1804 676.5519 398.1771 677.2429 398.3636 677.501 398.5382 677.7364 398.9018 677.9748 399.4349 678.0643 399.8213 678.2579 400.1729 678.5372 400.4525 678.9302 400.6975 680.58 401.3901 683.5876 405.1602 684.6066 405.9952 684.9754 406.1908 686.2858 406.3134 687.175 406.1985 690.061 405.5288 691.5949 404.9538 692.143 405.7259 692.2572 406.3294 692.3895 406.55 692.6438 406.6103 693.6931 406.4468 693.7438 407.0898 693.681 407.3514 692.853 408.3923 692.1983 408.6103 691.0738 409.54 689.5974 409.6015 689.3037 410.5048 688.579 410.9706 687.806 411.7185 687.9209 412.867 687.9973 413.1038 688.2482 413.4656 690.6962 418.3177 690.9336 418.571 692.461 419.5142 685.2071 427.9352 681.2147 435.5146 672.3887 451.3202 666.9843 447.0934 661.5126 451.8542 646.8447 437.0173 636.4066 426.9411 629.3995 420.4718 644.8739 404.9944 645.5314 404.3319 634.0685 395.2925 Z" id="fips-29186"/>
<path d="M 428.9905 634.7299 429.8231 589.4234 431.834 589.4495 432.5725 549.2194 445.7949 549.2526 468.0006 549.9781 485.6154 550.007 485.6397 563.5526 485.5148 574.5839 485.4104 590.1076 483.6627 590.0764 483.3622 615.0463 484.1634 617.9302 484.257 634.3024 482.5694 634.3303 482.3734 634.3284 477.5575 634.3963 472.692 634.4483 470.3977 634.4714 468.574 634.5032 468.2607 634.5038 467.7745 634.5035 460.571 634.5824 460.3724 634.5846 445.595 634.7235 445.2312 634.7151 441.4538 634.7296 440.2853 634.717 436.9621 634.7276 436.7908 634.7284 434.6005 634.7237 431.7114 634.7288 429.0039 634.7297 428.9905 634.7299 Z" id="fips-29091"/>
<path d="M 135.399 75.3735 137.2387 35.441 182.1109 36.7661 181.0742 74.73 180.5184 90.327 167.4784 89.3999 135.1433 88.7013 135.0261 87.8269 135.399 75.3735 Z" id="fips-29075"/>
<path d="M 191.3964 227.2974 193.4786 228.5565 196.4105 228.8017 201.0159 225.7723 199.7085 222.131 200.5654 220.078 206.3959 217.9846 208.5371 220.1302 208.4126 221.5148 205.9104 223.708 205.2118 226.1114 208.4877 227.5806 210.0346 226.2096 211.09 222.079 212.5539 221.3818 215.9326 221.4116 218.8565 218.4584 223.0523 216.7747 225.6194 217.091 229.1589 219.0798 232.7422 218.2116 235.0667 217.84 238.3576 218.4058 239.6824 217.8987 241.9298 214.6219 244.2794 213.9551 245.6562 212.0654 248.2797 212.8739 253.4322 213.3574 256.4105 216.7129 261.5724 217.3116 264.4517 216.0904 264.9946 213.8137 264.0183 209.7286 264.5492 206.9655 266.322 205.4726 263.4342 259.1389 263.3015 261.3481 223.0519 259.3664 222.7932 263.8435 209.9876 263.0804 191.2494 262.0086 189.6517 261.9794 190.2217 251.5107 190.3036 249.7091 190.3114 249.5388 190.4213 247.0025 190.7748 239.7435 191.0211 235.2404 191.3964 227.2974 Z" id="fips-29107"/>
<path d="M 695.6576 647.5199 701.5763 647.7193 721.4784 647.1616 722.2016 642.2272 723.8002 640.7662 728.3 642.3578 730.6881 644.6476 735.2837 644.5405 738.7796 642.8339 741.1217 643.8978 742.2746 647.0498 744.8778 649.4228 747.148 650.4307 747.2649 653.9845 745.3554 653.9009 742.7176 653.2759 740.3806 653.2522 739.7515 653.3868 739.1397 653.6807 738.5233 654.3681 738.064 655.3855 738.0372 656.3897 738.1726 656.7353 739.1417 658.4909 741.9143 660.2882 742.6074 660.7996 743.3523 661.547 746.3906 663.0728 747.0124 662.9 747.331 662.6308 747.5508 662.621 748.221 663.0739 748.4546 663.387 748.7416 664.1048 748.9083 665.4402 748.9216 666.8552 748.3848 667.4483 748.0935 667.6002 747.7095 667.6748 747.186 667.5814 746.6063 667.2712 746.0559 667.1817 745.5355 667.2177 745.1944 667.3576 744.1191 668.3461 743.6793 668.6024 742.4829 669.0658 740.629 669.3347 740.1168 669.3165 739.5396 669.1897 737.8811 668.6218 736.3303 667.9369 735.6575 667.7416 734.3747 667.5957 731.2301 668.0602 730.2132 667.9032 729.5742 667.5278 729.0858 667.437 728.6834 667.7827 728.5386 668.1256 728.1037 668.9014 727.8944 669.4467 727.8752 669.7176 727.9185 669.9568 728.0211 670.1225 728.6326 670.8171 729.5294 671.6896 730.4842 672.4606 731.1867 673.0278 733.1329 674.4097 734.3012 675.1398 735.5816 676.2405 736.5813 677 737.5176 677.5189 738.2263 677.8429 738.9303 678.3063 740.3583 679.6103 741.1469 680.6016 741.9891 681.9716 742.2844 682.7812 742.386 683.7021 742.3627 685.0005 742.2698 685.9143 742.166 686.3024 741.5782 687.1508 741.2184 687.516 739.6106 688.4329 738.4041 689.3421 738.0102 689.5502 736.2025 690.1014 734.4034 690.8452 733.3173 691.3883 732.6084 692.0179 731.8525 693.1453 731.7122 693.4781 731.5192 695.042 731.3004 698.211 731.0287 700.9297 730.8857 701.6718 730.4453 703.0242 729.1191 704.9761 728.871 705.447 728.7329 706.0703 725.4904 706.2237 724.9366 706.2532 724.926 706.2466 720.9177 706.3688 720.8828 706.3717 708.64 706.8571 707.9482 706.8865 707.8868 706.8877 707.8247 706.8919 705.2306 706.9841 704.6511 707.0105 704.6226 707.0115 697.4351 707.261 696.5876 677.8648 695.6576 647.5199 Z" id="fips-29155"/>
<path d="M 2.1211 1 4.3535 1.1217 11.2081 1.449 11.2149 1.4494 16.52 1.6563 20.0963 1.8925 24.4015 2.1205 26.6208 2.2465 29.1529 2.3896 29.9087 2.4321 30.0586 2.4441 36.5812 2.7435 42.8529 3.0271 47.6784 3.2594 47.6819 3.2596 49.5527 3.3801 52.1372 3.4962 65.4092 4.0622 65.7282 4.0788 65.8827 4.0868 66.3629 4.1119 66.4341 4.1156 66.5649 4.1233 66.5861 4.1246 67.6499 4.175 67.204 19.4093 70.037 19.5288 68.6723 52.8111 24.9263 51.0083 24.7675 50.5036 24.7897 50.0368 25.4045 48.4769 25.4917 47.7301 25.4298 47.3108 25.2477 46.9223 24.6367 46.1934 24.245 45.937 23.5553 45.6422 21.963 45.5192 21.3217 45.1799 21.0037 44.9313 20.0473 43.8844 19.3084 43.4373 18.6935 43.1997 18.3398 43.1473 17.8169 43.2069 17.1929 43.3787 15.6365 44.0608 14.9319 44.2897 14.5718 44.3282 13.8554 44.1513 13.5366 43.9527 13.1985 43.4883 13.1273 43.2029 13.1749 42.7307 13.3298 42.1718 13.6838 41.7058 14.3775 41.2734 16.0479 40.757 16.5093 40.5125 17.0801 40.0267 17.3386 39.4096 17.4081 39.0301 17.3198 38.1507 17.2075 37.7407 16.9575 37.1818 16.4736 36.4731 15.8527 35.8303 15.4093 35.0418 15.2664 34.5105 15.264 33.7168 15.344 33.2221 15.183 31.896 14.5945 30.4486 13.5306 28.4874 13.2992 27.3658 13.4019 26.9253 13.7147 26.062 13.974 25.4224 14.0839 24.51 13.8251 23.4048 13.0347 21.9501 12.3277 21.0795 11.7138 20.5268 10.8938 20.0059 9.9055 19.046 9.7401 18.7247 9.5654 18.0366 9.5364 17.5826 9.6189 17.0846 9.7558 16.403 9.856 15.3301 9.7447 14.4901 9.311 13.5199 9.8262 13.3542 10.2457 13.1142 13.0913 12.1661 13.8374 11.8317 14.5725 10.8985 15.0508 8.6816 14.9381 8.0979 14.6805 7.3654 13.9717 6.8268 13.6148 5.7822 12.9184 4.8466 12.1075 4.8284 11.1202 5.0848 10.2801 5.6264 10.1596 6.5769 9.9195 7.425 9.8028 8.6717 10.0408 9.2725 9.7631 9.9758 8.3987 10.9904 8.2503 10.6404 7.7669 10.1002 6.8227 9.9271 6.4982 9.9686 5.7903 10.3021 5.0748 10.5077 3.7457 10.4074 2.774 10.1096 2.1184 9.7207 1.6637 9.2147 1.472 8.8176 1.4182 8.4244 1.5406 7.8624 2.0042 7.0545 2.1438 6.6641 2.1882 6.2823 2.1515 5.809 2.0298 5.3369 1.2978 3.8972 1 2.7448 1.1611 2.04 1.7748 1.2809 2.1211 1 Z" id="fips-29005"/>
<path d="M 84.1714 73.4503 135.399 75.3735 135.0261 87.8269 135.1433 88.7013 134.6334 122.3385 108.8261 121.5056 102.3989 121.392 102.3573 120.9496 102.1765 120.5201 101.9114 120.1449 101.2318 119.4862 100.9343 119.336 100.5609 119.2721 99.325 119.3204 98.5286 119.2109 97.7146 118.9265 96.6498 118.1026 95.3316 116.7684 95.0921 116.433 94.7825 115.7077 94.8204 115.0238 95.0304 114.5163 95.271 114.1324 96.1572 113.2895 96.5257 112.7251 96.6851 112.1288 96.6883 111.5599 96.6341 111.2292 96.448 110.8188 95.889 110.0961 94.8068 109.3359 93.9147 108.9431 93.0098 108.744 92.5289 108.813 90.8191 109.3287 89.7306 109.422 89.3429 109.3592 88.9786 109.229 89.0559 106.586 87.5525 105.4385 89.7153 102.3525 89.1587 97.8503 87.9904 96.6639 87.3268 91.1386 88.2703 89.3313 87.6181 86.333 84.8742 85.9367 83.9231 83.8242 81.8347 82.6262 83.8925 81.3674 83.9057 77.7302 85.189 76.7589 84.1714 73.4503 Z" id="fips-29003"/>
<path d="M 605.592 567.1145 645.5397 566.2494 647.2838 566.3629 657.0963 566.6874 657.8269 570.1914 658.844 571.1711 657.4572 573.2584 660.8863 577.5555 662.5596 578.7133 661.6014 580.5069 662.7159 583.0884 664.9588 584.5879 664.3013 589.4956 665.9585 589.4447 666.4201 591.9673 667.9621 592.6168 667.8172 594.0659 670.3326 597.6593 672.4934 600.9827 671.4139 603.911 673.1504 606.5357 671.6784 611.0396 670.7871 613.1303 669.255 613.5058 668.4307 616.9381 667.7075 616.3472 667.0842 617.8303 667.6953 621.7073 667.0252 624.3539 664.4221 624.815 664.5258 626.64 663.263 627.9115 663.2517 631.6205 662.24 631.6583 648.5625 631.9124 629.4936 632.31 629.4379 632.3107 628.805 632.3199 619.4413 632.5073 619.433 632.5074 619.3279 618.1813 617.1113 618.1843 616.9237 604.8041 612.468 604.8663 612.3027 591.5434 612.19 584.7115 607.8786 584.7195 607.8411 573.7574 605.5729 573.7709 605.592 567.1145 Z" id="fips-29023"/>
<path d="M 24.9263 51.0083 68.6723 52.8111 81.4076 53.3094 82.1306 55.5193 82.0784 61.7663 80.8987 63.3172 82.2999 67.0096 81.6188 70.1757 84.1714 73.4503 85.189 76.7589 83.9057 77.7302 83.8925 81.3674 81.8347 82.6262 83.9231 83.8242 84.8742 85.9367 87.6181 86.333 88.2703 89.3313 87.3268 91.1386 87.9904 96.6639 89.1587 97.8503 89.7153 102.3525 87.5525 105.4385 89.0559 106.586 88.9786 109.229 87.7659 108.7954 87.2233 108.7505 86.6664 108.8338 85.9975 109.2113 85.3063 110.1388 85.1996 110.3664 85.1034 110.8168 85.1659 112.033 85.1209 112.3574 84.8028 113.1448 84.3038 113.6196 83.6191 114.0294 83.1011 114.128 81.8764 114.1598 78.4525 114.4705 78.045 114.4336 77.4442 114.2235 75.618 113.2468 73.0228 112.4046 72.261 111.9702 71.9921 111.7323 71.5947 111.2087 71.3651 110.5573 71.3005 110.0234 71.4411 109.0969 71.4391 108.7022 71.3115 108.096 71.0571 107.741 70.6417 107.458 69.8991 107.2376 69.4499 107.2642 67.9616 107.9813 67.1109 108.2577 65.9214 108.2383 65.4249 108.1114 64.7841 107.7825 64.4861 107.5674 64.0595 106.9068 64.0111 106.7086 64.008 106.3151 64.0907 105.8498 64.564 104.7484 64.7461 103.8765 64.7056 102.9485 64.3578 102.2085 63.284 101.5232 62.9699 101.3992 62.5289 101.3123 61.2448 101.3734 60.5819 101.3309 60.0437 101.1584 59.0191 100.5604 58.1799 99.5771 57.7139 98.6833 56.8128 97.3088 56.2538 96.8745 54.5242 95.9635 53.0545 94.8976 52.5372 94.1517 52.466 93.9187 52.4081 93.435 52.4521 92.4788 52.4419 92.1415 52.1532 91.2713 52.038 91.0239 51.692 90.6027 51.3755 90.417 50.1568 90.0046 49.2653 89.4478 48.0984 88.0044 47.8448 87.8392 46.9056 87.4683 46.0715 87.4457 43.823 88.0477 43.3239 88.0843 42.8171 88.024 42.3138 87.8576 41.5279 87.4444 41.0016 87.0371 40.2862 86.199 39.931 85.4493 39.6648 84.6417 39.4463 83.0218 39.5819 82.4665 39.8713 81.8757 40.3117 81.3818 40.9066 80.7102 41.0955 79.9739 41.0286 79.2032 40.902 78.0689 41.2929 77.0841 42.1928 76.3137 42.5535 76.0267 42.9125 75.5655 43.0625 75.1234 43.1124 74.4019 43.0699 73.8903 42.8511 73.3311 42.483 72.7657 41.825 72.3459 41.2344 72.1683 40.1 72.05 39.4558 71.6949 39.0052 71.2489 38.7534 70.8059 38.6329 70.4009 38.5174 69.6162 38.5 68.569 38.3993 68.0928 38.2339 67.6726 37.7433 67.1102 37.4996 66.9521 36.0997 66.3978 35.4308 65.9777 34.2641 64.7524 33.6762 63.9539 33.3568 63.3812 33.1579 62.9339 32.9997 62.3519 33.0007 61.575 33.0693 61.0677 33.6226 59.8619 34.1719 59.1373 34.4349 58.555 34.6125 57.9203 34.686 56.9404 34.6273 56.4918 34.3975 55.6773 33.8528 54.6403 33.2542 54.0755 32.8862 53.8252 32.3847 53.6337 31.2272 53.4938 29.4442 53.6073 28.6926 53.4343 25.7928 51.865 25.1867 51.4092 24.9783 51.1734 24.9263 51.0083 Z" id="fips-29087"/>
<path d="M 121.8613 590.6374 189.3111 594.8914 189.44 596.3425 187.6596 633.0724 185.0086 633.0339 184.8035 633.0312 183.5183 633.0209 183.4197 633.0176 174.7971 632.8167 163.9648 632.5551 152.6331 632.2703 133.1204 631.9102 128.2138 631.7562 120.9866 631.6019 121.0454 629.2124 121.0543 628.7831 121.0971 626.2557 121.1192 625.9786 121.1187 625.8416 121.236 620.9774 121.2693 619.5937 121.3383 616.3141 121.3635 615.1287 121.3895 614.2467 121.5554 605.7639 121.5599 605.5325 121.6576 600.6263 121.8613 590.6374 Z" id="fips-29119"/>
<path d="M 419.0712 352.979 419.2119 347.5621 426.3982 345.4257 428.602 342.7588 427.4135 340.0012 424.4608 338.2904 422.2859 333.3425 422.2706 332.3844 424.1618 331.5986 428.4143 334.2226 432.5347 333.0283 437.1539 332.82 439.9022 331.3019 441.3085 327.6511 439.3118 323.9639 439.2108 319.685 441.8874 318.4073 441.2215 316.7779 444.4423 314.1934 449.0025 312.721 454.9862 307.0067 456.9281 303.3647 458.929 301.7514 463.5989 299.9024 470.9296 299.0855 474.9768 295.7211 484.4461 296.1524 485.2597 296.0845 485.2532 332.6845 485.2397 336.9133 485.3001 359.8098 471.7408 359.8886 469.5659 359.3948 458.994 359.2275 456.4848 359.8129 439.5383 360.0823 418.9456 359.6235 419.0712 352.979 Z" id="fips-29151"/>
<path d="M 179.7342 179.3321 180.2133 168.2137 186.7285 168.4844 227.5187 169.2422 233.359 169.4982 232.7422 218.2116 229.1589 219.0798 225.6194 217.091 223.0523 216.7747 218.8565 218.4584 215.9326 221.4116 212.5539 221.3818 211.09 222.079 210.0346 226.2096 208.4877 227.5806 205.2118 226.1114 205.9104 223.708 208.4126 221.5148 208.5371 220.1302 206.3959 217.9846 200.5654 220.078 199.7085 222.131 201.0159 225.7723 196.4105 228.8017 193.4786 228.5565 191.3964 227.2974 188.0442 222.9814 182.5583 221.7211 181.7156 221.0086 183.7837 216.6005 178.7746 217.308 179.4757 188.3874 179.5337 186.6069 179.7342 179.3321 Z" id="fips-29177"/>
<path d="M 341.6171 299.4624 342.2962 299.3332 355.1696 299.4945 368.2898 300.1487 368.3285 298.931 368.353 297.9311 380.7805 267.0848 382.5339 263.0205 384.8197 265.2009 385.4125 266.1651 384.9894 270.3829 387.5073 272.5065 388.925 275.8706 392.271 278.8579 394.6184 278.7092 396.5246 280.4107 396.3266 283.3273 393.1676 287.2342 394.9102 291.0918 390.6313 308.2409 390.6209 308.2827 382.8832 338.8609 378.475 338.7478 367.2564 338.3909 341.3173 312.8389 341.6171 299.4624 Z" id="fips-29135"/>
<path d="M 661.4111 282.585 660.8674 283.5036 660.4372 284.4812 660.3159 285.3745 659.4959 286.5612 658.5661 287.1827 656.9444 288.8799 656.4052 289.8293 656.2684 290.4429 656.2434 290.5547 656.1964 291.0777 656.2077 292.029 656.5766 293.4015 657.4434 294.7981 657.4493 294.8076 658.0022 295.3763 658.3093 295.6922 659.4112 297.6298 659.9018 299.0605 660.0746 299.8189 660.1035 299.9458 660.1119 299.9916 660.5746 302.5129 660.5745 302.528 660.5729 303.8943 660.4946 304.6023 659.8787 307.3188 659.6366 307.8911 659.0517 309.2731 658.5654 309.9758 657.8083 310.8845 657.4523 311.1807 656.9151 311.6277 656.1433 312.4446 655.5046 312.8131 655.2581 313.034 652.4088 317.7531 652.2518 318.0592 651.3931 319.7335 650.0087 318.918 649.5851 317.2624 648.6235 316.7302 648.5861 316.7027 646.5758 315.1873 644.9714 313.2504 644.1918 311.8173 643.8598 309.6139 643.9006 309.4709 644.4373 307.5657 644.7799 305.9061 644.8602 305.3114 645.3026 303.3543 645.6637 300.8922 647.671 297.4554 648.0111 296.8785 649.9046 293.6428 651.3675 291.1528 651.9489 290.7705 652.7427 290.3466 656.5885 287.7238 659.0992 284.3446 659.2968 282.3326 661.4111 282.585 Z" id="fips-29510"/>
<path d="M 475.1771 198.6839 475.5635 158.7952 475.0609 156.5592 475.0977 149.8167 475.0316 145.3916 523.3029 145.1444 523.4622 145.2842 523.8088 145.9435 524.8453 146.6769 526.0896 147.3718 526.9474 148.032 528.0723 149.3625 528.8315 150.5753 530.2299 151.8065 530.5758 152.3495 530.8627 152.9974 531.1448 153.4535 532.5711 154.8482 533.2856 155.3373 534.0812 155.707 537.7333 157.1923 538.2096 157.5604 538.6832 158.2414 535.6918 158.2522 516.4428 173.214 505.5469 181.276 508.4062 201.4986 486.3701 200.8752 475.1362 200.9269 475.1771 198.6839 Z" id="fips-29173"/>
<path d="M 428.7695 241.1377 485.5315 241.5681 484.4461 296.1524 474.9768 295.7211 470.9296 299.0855 463.5989 299.9024 458.929 301.7514 456.9281 303.3647 454.9862 307.0067 449.0025 312.721 444.4423 314.1934 441.2215 316.7779 434.9305 318.8578 429.1944 318.2829 425.7557 317.1249 421.9801 315.2034 417.9923 311.6415 417.7106 307.7555 415.7984 305.783 416.0439 298.7417 415.1265 297.3936 416.3701 296.6792 416.2818 294.8369 419.145 293.0434 418.9335 291.4305 421.6977 287.0257 422.5979 287.0975 422.4171 284.3835 423.064 281.6316 425.9535 279.4794 423.8745 277.7897 424.7047 276.6622 424.2393 271.5294 422.7291 271.6807 423.1392 264.6518 424.4455 254.4449 425.6909 251.7768 425.2474 250.8603 426.4289 247.37 425.7383 246.029 426.2806 241.1226 428.7695 241.1377 Z" id="fips-29027"/>
<path d="M 266.322 205.4726 267.7756 205.554 270.1999 209.2388 274.0915 209.4904 275.0953 210.5898 273.5905 214.4303 275.8218 215.7702 279.1841 214.7344 283.3445 212.212 283.8872 209.8434 282.1592 206.5096 282.1356 204.9635 283.5619 203.0704 288.2645 203.1635 290.0377 202.8318 292.6616 198.8214 295.7152 200.3756 297.4767 198.8206 300.2775 194.6089 300.5156 192.1427 299.2946 189.0651 301.1978 187.6134 303.6124 188.605 306.509 192.6718 310.6829 191.9327 313.5398 193.7788 314.3766 199.3433 317.7007 202.1043 320.1867 202.8181 325.7652 202.4881 327.781 202.9525 328.5441 205.1152 327.8536 207.4767 329.2175 209.4704 332.0377 210.5158 332.998 212.0544 332.4934 215.3912 333.4268 216.5725 335.2648 216.8958 338.9552 214.7636 340.8511 216.2579 339.5134 220.1107 335.9059 223.2689 334.1992 225.4432 334.034 228.2834 332.0522 230.8589 329.5173 232.2346 329.3407 234.4813 330.6655 235.6789 333.6494 236.2742 333.8323 238.0152 330.576 241.0153 316.9142 255.0723 316.6336 261.8486 310.0624 261.3043 289.9892 260.5329 289.9861 260.59 263.4342 259.1389 266.322 205.4726 Z" id="fips-29195"/>
<path d="M 657.0963 566.6874 659.1552 566.7174 659.1212 564.5058 661.3325 564.4816 661.2776 560.049 663.4866 560.0106 663.4707 557.8283 665.7134 557.7877 665.6904 555.5384 667.8788 555.5074 667.8974 553.2887 670.1543 553.2643 670.141 548.0231 674.7037 547.9689 688.8455 547.7686 688.7713 545.5264 693.2574 545.4602 692.9166 534.2707 704.2817 534.1302 716.6769 533.8002 715.6647 538.2371 714.1983 539.8521 716.7061 545.1847 718.0066 545.4623 718.3742 548.3912 722.6588 554.5035 723.5263 560.1596 726.2119 561.9636 727.0622 564.7027 727.4232 564.604 726.6396 568.0401 727.3405 570.1705 726.0841 572.1475 726.8595 574.4059 725.2381 574.49 726.3442 592.7214 726.7373 610.0203 695.012 610.6353 672.9645 610.9221 671.6784 611.0396 673.1504 606.5357 671.4139 603.911 672.4934 600.9827 670.3326 597.6593 667.8172 594.0659 667.9621 592.6168 666.4201 591.9673 665.9585 589.4447 664.3013 589.4956 664.9588 584.5879 662.7159 583.0884 661.6014 580.5069 662.5596 578.7133 660.8863 577.5555 657.4572 573.2584 658.844 571.1711 657.8269 570.1914 657.0963 566.6874 Z" id="fips-29207"/>
<path d="M 400.2529 51.2113 446.8357 51.351 446.7493 58.0414 446.6875 64.6763 447.2057 64.6966 446.7928 105.2481 407.367 104.9218 400.6825 104.8082 400.6245 91.9374 400.427 64.5333 400.2529 51.2113 Z" id="fips-29103"/>
<path d="M 316.6336 261.8486 316.9142 255.0723 330.576 241.0153 332.9362 247.6801 337.5032 250.8246 340.2833 253.6989 347.5319 255.2833 356.6234 253.4764 359.3207 254.7194 362.5631 254.6842 371.1137 256.0352 375.414 255.5566 381.3076 261.3894 382.5339 263.0205 380.7805 267.0848 368.353 297.9311 368.3285 298.931 368.2898 300.1487 355.1696 299.4945 342.2962 299.3332 341.6171 299.4624 328.3622 299.1239 315.259 297.9248 316.6336 261.8486 Z" id="fips-29053"/>
<path d="M 716.6769 533.8002 717.4325 531.5586 721.9201 531.4215 724.0526 529.1172 723.9234 524.7002 726.0178 522.4097 730.4588 521.124 730.3791 519.2407 732.4224 519.1767 733.9431 519.1299 733.9 516.8707 738.4058 516.7239 742.9119 515.4832 742.8938 514.3654 748.5153 514.53 749.8593 513.5291 751.0135 513.2549 752.0707 513.1739 753.0389 513.4245 753.2836 513.5613 753.5204 513.8477 753.599 514.0899 753.6712 514.774 753.6247 515.1172 752.5923 517.9941 752.5939 518.5534 753.2706 520.8107 753.3885 521.3953 754.1465 523.1201 756.4541 527.1635 756.8743 528.5614 758.1174 530.6473 759.5392 532.6243 759.8866 533.0032 760.4251 533.4765 762.1787 534.6633 762.8542 535.2112 763.3486 535.8416 764.0596 537.1503 764.4809 538.464 764.4961 539.2971 764.1574 540.8442 763.4507 542.8249 763.4334 543.2274 763.5595 544.279 763.6595 544.5535 763.9569 545.0702 764.3856 545.5785 766.375 546.9623 768.4044 547.6055 770.2469 548.4004 771.2672 548.9562 771.9953 549.4414 772.5679 549.9929 768.3503 550.1135 768.3731 551.2161 765.0589 552.5117 765.1493 557.0121 760.7151 557.1839 760.7856 559.4304 758.5076 559.498 758.5725 561.7327 754.2307 561.8559 754.401 566.3764 749.9257 566.5171 750.0845 570.9828 747.8776 572.2065 745.6811 572.2949 742.0738 572.1956 737.4982 573.0537 737.3518 573.7766 735.1878 573.9113 730.173 574.1955 726.8595 574.4059 726.0841 572.1475 727.3405 570.1705 726.6396 568.0401 727.4232 564.604 727.0622 564.7027 726.2119 561.9636 723.5263 560.1596 722.6588 554.5035 718.3742 548.3912 718.0066 545.4623 716.7061 545.1847 714.1983 539.8521 715.6647 538.2371 716.6769 533.8002 Z" id="fips-29201"/>
<path d="M 233.359 169.4982 233.6496 156.1772 290.4185 156.1817 291.3343 158.993 290.8062 160.3342 291.741 162.8814 291.7611 166.3183 289.7028 170.9272 291.6917 174.2544 290.4365 174.4274 291.619 177.2527 291.8341 179.8898 290.4647 180.3196 293.8327 180.3812 296.1413 178.0805 297.1247 181.5287 296.0146 183.7435 298.0975 182.977 297.8053 184.6467 299.752 183.69 301.3683 184.3737 303.5045 183.7977 304.767 186.0492 306.418 185.7671 309.2139 186.9813 309.3612 191.0336 310.6829 191.9327 306.509 192.6718 303.6124 188.605 301.1978 187.6134 299.2946 189.0651 300.5156 192.1427 300.2775 194.6089 297.4767 198.8206 295.7152 200.3756 292.6616 198.8214 290.0377 202.8318 288.2645 203.1635 283.5619 203.0704 282.1356 204.9635 282.1592 206.5096 283.8872 209.8434 283.3445 212.212 279.1841 214.7344 275.8218 215.7702 273.5905 214.4303 275.0953 210.5898 274.0915 209.4904 270.1999 209.2388 267.7756 205.554 266.322 205.4726 264.5492 206.9655 264.0183 209.7286 264.9946 213.8137 264.4517 216.0904 261.5724 217.3116 256.4105 216.7129 253.4322 213.3574 248.2797 212.8739 245.6562 212.0654 244.2794 213.9551 241.9298 214.6219 239.6824 217.8987 238.3576 218.4058 235.0667 217.84 232.7422 218.2116 233.359 169.4982 Z" id="fips-29033"/>
<path d="M 529.7092 251.2586 538.7601 251.2333 538.774 260.4387 548.2211 260.3434 548.228 269.4266 552.7091 269.3559 566.4711 269.4286 566.311 289.1669 566.3588 295.4247 566.5715 319.0448 563.2 317.9354 561.3518 316.8341 559.6747 315.1679 558.3206 312.1242 555.4597 309.9003 552.8888 309.7739 548.6449 311.3307 546.295 311.5683 540.2293 310.1778 534.9756 308.1512 534.8054 304.8677 533.6039 303.044 530.8982 301.2939 524.4393 295.2201 523.7263 294.9752 521.034 296.6888 517.7365 296.4352 514.3516 295.0751 511.7981 294.8994 511.8973 274.1021 521.0973 274.1127 525.5105 273.8557 529.9315 274.1092 529.7092 251.2586 Z" id="fips-29219"/>
<path d="M 485.5148 574.5839 504.9029 574.6797 507.6062 574.8169 535.5844 574.5884 538.9366 574.7425 538.807 583.6692 552.1838 583.7907 552.1422 588.4177 551.8239 590.483 551.5751 633.8001 540.374 633.9868 540.2154 633.9808 539.1359 633.9871 517.2438 634.3338 517.2159 634.3272 516.9698 634.3381 516.9545 634.3366 513.743 634.3513 513.3477 634.3381 512.1411 634.3372 511.6821 634.328 505.4967 634.202 501.8415 634.2071 500.9662 634.1953 500.6592 634.2045 499.45 634.2095 493.647 634.265 493.0173 634.243 490.9974 634.2737 489.3023 634.2991 487.9268 634.2903 484.257 634.3024 484.1634 617.9302 483.3622 615.0463 483.6627 590.0764 485.4104 590.1076 485.5148 574.5839 Z" id="fips-29149"/>
<path d="M 125.0546 454.5946 191.0767 458.0717 190.6968 466.9888 189.2677 502.6072 124.0397 498.9868 124.0404 498.958 124.0404 498.4837 124.041 498.4637 124.1505 494.0466 124.2071 491.8174 124.2885 489.5745 124.3549 487.3843 124.3992 485.0879 124.4183 484.2312 124.4166 484.2154 124.4384 483.4904 124.4537 482.806 124.5228 480.6437 124.6842 474.8547 124.6919 473.8889 124.7486 469.9489 124.7652 469.3626 124.8091 467.8742 124.7964 467.1854 124.8017 467.1246 124.9169 461.3526 124.9359 461.2038 125.0086 457.1115 125.0546 454.5946 Z" id="fips-29011"/>
<path d="M 291.8558 142.7048 313.6578 142.3907 328.1008 143.1792 340.1409 143.5702 360.0437 143.9286 359.6757 157.4013 359.1403 157.6385 358.2316 187.4017 358.1971 188.4161 357.7536 201.6804 347.9133 198.2783 340.8511 216.2579 338.9552 214.7636 335.2648 216.8958 333.4268 216.5725 332.4934 215.3912 332.998 212.0544 332.0377 210.5158 329.2175 209.4704 327.8536 207.4767 328.5441 205.1152 327.781 202.9525 325.7652 202.4881 320.1867 202.8181 317.7007 202.1043 314.3766 199.3433 313.5398 193.7788 310.6829 191.9327 309.3612 191.0336 309.2139 186.9813 306.418 185.7671 304.767 186.0492 303.5045 183.7977 301.3683 184.3737 299.752 183.69 297.8053 184.6467 298.0975 182.977 296.0146 183.7435 297.1247 181.5287 296.1413 178.0805 293.8327 180.3812 290.4647 180.3196 291.8341 179.8898 291.619 177.2527 290.4365 174.4274 291.6917 174.2544 289.7028 170.9272 291.7611 166.3183 291.741 162.8814 290.8062 160.3342 291.3343 158.993 290.4185 156.1817 292.4042 155.03 289.8403 150.6841 289.4218 145.9875 291.8558 142.7048 Z" id="fips-29041"/>
<path d="M 460.0123 105.3506 507.6404 105.3818 508.4039 106.0693 508.7942 106.5214 509.2674 107.2512 509.5675 108.0541 509.6426 108.9109 509.5263 109.7702 509.4118 110.0273 508.4739 111.1325 506.7853 113.3212 506.4023 114.9436 506.3026 115.7244 506.4875 116.8816 507.7479 120.6851 508.1255 121.4411 508.5309 121.859 510.3127 123.0382 511.2958 123.5658 512.2917 124.3751 513.7253 125.2129 514.6527 125.8587 514.9898 126.2249 515.852 127.5122 516.3993 128.6715 516.6299 129.475 516.6142 129.854 516.2589 130.7313 516.1675 131.4193 516.1611 132.9464 516.2649 133.9014 516.1613 134.3273 516.0049 134.6475 515.7209 136.0067 515.7376 137.9269 516.0103 138.4598 517.8066 140.5479 518.6969 141.4389 520.3307 142.7951 521.9736 143.978 523.3029 145.1444 475.0316 145.3916 475.0977 149.8167 459.5637 149.7971 460.0123 105.3506 Z" id="fips-29127"/>
<path d="M 394.9102 291.0918 399.0589 292.4687 401.0927 296.3117 398.9835 299.8778 407.078 302.2117 412.0993 305.6349 414.7499 305.3468 415.7984 305.783 417.7106 307.7555 417.9923 311.6415 421.9801 315.2034 425.7557 317.1249 429.1944 318.2829 434.9305 318.8578 441.2215 316.7779 441.8874 318.4073 439.2108 319.685 439.3118 323.9639 441.3085 327.6511 439.9022 331.3019 437.1539 332.82 432.5347 333.0283 428.4143 334.2226 424.1618 331.5986 422.2706 332.3844 422.2859 333.3425 424.4608 338.2904 427.4135 340.0012 428.602 342.7588 426.3982 345.4257 419.2119 347.5621 419.0712 352.979 415.4359 352.9585 412.3712 354.9637 408.2377 352.6979 402.8839 352.7427 393.3216 352.1311 393.9066 339.2433 382.8832 338.8609 390.6209 308.2827 390.6313 308.2409 394.9102 291.0918 Z" id="fips-29051"/>
<path d="M 607.3125 443.0445 607.1431 412.213 607.1127 410.0197 606.9164 390.6059 607.8793 390.9471 610.3143 391.6071 609.2562 396.114 610.384 399.8458 608.5602 401.1332 613.9822 401.6758 634.0685 395.2925 645.5314 404.3319 644.8739 404.9944 629.3995 420.4718 636.4066 426.9411 646.8447 437.0173 661.5126 451.8542 666.9843 447.0934 672.3887 451.3202 668.1029 455.9902 630.8479 456.6866 623.176 456.8638 620.9556 456.7605 607.2527 457.1651 607.3125 443.0445 Z" id="fips-29187"/>
<path d="M 128.1912 341.835 128.2057 341.2663 128.2331 339.5792 128.3684 334.8596 128.5592 328.2058 128.5594 328.201 150.7366 329.268 150.9732 329.2776 164.6396 329.9222 166.3612 331.8931 168.1437 331.5043 171.1805 333.3398 174.9137 332.0304 176.5926 333.9532 179.6451 333.61 181.144 334.2387 186.1321 333.0439 191.7067 332.8215 194.169 334.2224 193.8506 340.9925 192.4025 369.8863 195.4525 370.0187 193.9718 397.2119 191.0864 397.9358 188.7324 395.3582 187.7368 396.9956 187.0947 395.2786 184.7348 393.7496 182.2103 393.8314 178.1453 395.5674 177.0214 396.8979 177.4615 394.2949 175.7438 394.4972 175.0857 397.1182 173.9769 396.276 173.823 398.2699 172.256 398.4423 171.9721 396.595 173.1891 395.424 171.9839 394.6304 126.9229 392.251 126.923 392.2461 126.9396 391.3543 126.9481 391.1331 127.2666 378.4893 127.3184 376.823 127.3837 375.7079 127.5066 372.2352 127.5699 370.6769 127.5845 370.1855 127.6533 368.0796 127.6589 367.8338 127.6894 366.6472 127.7305 364.9937 127.8377 359.9882 127.8886 356.9933 127.8946 356.7618 127.9549 355.0589 127.9989 353.1712 128.0041 352.3563 128.0148 351.705 128.0347 349.9536 128.0996 345.5644 128.1162 344.7649 128.1912 341.835 Z" id="fips-29013"/>
<path d="M 260.7199 325.1482 287.2297 326.3642 287.4379 321.9056 314.2164 322.9426 313.5547 336.399 312.9746 357.4954 312.6923 363.8886 312.0741 375.637 314.8581 375.7811 314.088 392.433 313.9954 394.6812 261.0125 392.5729 262.0343 373.2546 258.8893 371.9713 259.7209 354.3984 260.6987 335.2242 260.7199 325.1482 Z" id="fips-29015"/>
<path d="M 695.012 610.6353 726.7373 610.0203 726.3442 592.7214 725.2381 574.49 726.8595 574.4059 730.173 574.1955 735.1878 573.9113 737.3518 573.7766 737.4982 573.0537 742.0738 572.1956 745.6811 572.2949 747.8776 572.2065 747.9933 575.5363 750.1525 575.466 750.23 577.7812 752.5498 577.7438 755.2019 584.3551 757.3613 584.2252 757.4323 587.5478 758.5358 587.466 759.7366 590.7139 763.1631 593.138 764.4309 597.2519 766.6075 597.1737 767.9066 601.5709 770.1721 602.6038 770.2736 604.8973 772.5809 605.8703 772.6309 607.8292 771.8367 607.8474 770.6494 608.0808 769.0935 608.5248 767.9988 609.0802 767.3489 609.7494 766.8267 610.5527 766.7234 610.8402 766.5495 611.7318 766.3092 614.3434 766.0854 615.5059 764.5847 619.2316 764.5121 619.7281 764.5112 620.4116 764.3275 621.8979 763.5385 624.0975 762.2464 628.6104 761.9661 629.4079 761.5972 630.1128 760.8487 631.2892 759.9664 632.4602 758.572 634.042 758.0185 634.5411 757.1271 635.0526 756.6735 635.2133 755.742 635.2723 755.1447 635.162 753.9334 634.6219 753.3659 634.0406 753.0327 633.3461 752.9101 632.8742 752.8757 632.4538 752.9556 632.0326 753.7148 629.5142 753.8609 629.1202 754.2027 628.3972 754.8306 627.6191 755.381 626.5777 755.8121 625.4052 756.1132 624.0674 756.1381 623.1126 755.8021 621.4841 755.0529 619.5026 754.3056 618.2549 754.0766 618.0222 753.5816 617.7236 751.6849 617.0964 749.9067 616.9234 749.3815 616.8028 748.9271 616.5899 748.2771 616.4622 746.4492 616.6092 746.0022 616.7118 745.212 617.1681 744.5584 617.7509 743.9532 618.501 743.527 619.2099 743.1871 620.1561 743.0031 621.0135 743.0601 621.8136 743.2178 622.2622 743.7772 623.3801 744.5028 625.1298 744.7639 625.6337 745.2835 626.3964 746.7393 628.2017 747.2306 629.2638 747.8408 630.2422 749.348 631.7482 749.6107 632.1445 749.7665 632.638 749.7789 633.9291 749.6422 634.7111 749.3707 635.5425 749.1654 635.945 748.92 636.3281 747.2906 637.9119 746.9906 638.3494 746.8044 638.9467 746.7694 639.5945 746.8168 640.1486 746.96 640.665 747.2089 641.2066 749.4023 644.1531 750.8733 646.4929 751.3451 647.4805 751.4619 647.9817 751.4484 648.203 751.0861 650.321 750.4203 652.0754 749.982 652.6741 749.4615 653.1678 748.8811 653.5595 748.1168 653.8522 747.2649 653.9845 747.148 650.4307 744.8778 649.4228 742.2746 647.0498 741.1217 643.8978 738.7796 642.8339 735.2837 644.5405 730.6881 644.6476 728.3 642.3578 723.8002 640.7662 722.2016 642.2272 721.4784 647.1616 701.5763 647.7193 695.6576 647.5199 694.2762 647.4353 695.8535 636.5677 695.4995 629.645 695.9511 623.4498 694.474 611.2421 695.012 610.6353 Z" id="fips-29143"/>
<path d="M 538.6832 158.2414 539.0912 158.9849 539.1436 159.1895 539.472 160.7308 539.7144 162.6213 539.8903 163.3288 540.4702 164.2968 541.0771 165.1349 541.6765 165.8629 542.3152 166.2298 544.8828 166.741 546.3444 166.893 548.0059 167.2375 548.9078 168.6695 549.7143 170.5193 550.5083 171.9517 551.0477 172.6929 552.3696 173.9315 552.6422 177.076 553.007 177.8779 553.7787 178.9 555.5631 180.9727 557.3234 182.4403 558.7191 183.3442 559.7105 184.1047 560.8954 184.7986 562.1778 185.1613 562.8234 185.4843 563.4445 186.1105 564.0408 186.4378 565.2359 186.8714 566.3254 187.0829 567.2273 187.608 567.4368 187.7948 567.6322 188.0894 567.7115 188.2901 567.8415 188.6187 568.0591 189.4136 568.6947 190.1064 569.1923 190.4676 569.6258 190.6827 570.3794 190.9358 571.1719 191.0981 571.5476 191.3079 571.7845 191.5907 571.8198 191.9228 572.1314 192.3797 572.8939 193.1358 577.0478 195.5157 578.4419 196.4272 579.3322 197.1534 581.609 199.688 582.1464 200.1638 584.2443 201.2632 584.9528 201.8012 585.1703 202.1872 585.3021 202.8062 586.1357 203.6725 587.1114 204.3228 587.3299 204.6667 588.1007 206.2668 590.0483 208.4703 590.3753 208.6647 591.5443 208.9856 592.1595 209.4031 592.6458 209.8856 593.0134 210.6032 593.7075 213.4204 593.7632 213.8113 593.7041 214.7435 538.9039 215.157 538.8584 222.5441 538.7975 228.6646 529.8957 228.6867 512.1849 228.4881 508.4062 201.4986 505.5469 181.276 516.4428 173.214 535.6918 158.2522 538.6832 158.2414 Z" id="fips-29163"/>
<path d="M 747.8776 572.2065 750.0845 570.9828 749.9257 566.5171 754.401 566.3764 754.2307 561.8559 758.5725 561.7327 758.5076 559.498 760.7856 559.4304 760.7151 557.1839 765.1493 557.0121 765.0589 552.5117 768.3731 551.2161 768.3503 550.1135 772.5679 549.9929 775.1634 552.4917 776.8337 552.9744 777.3665 552.6759 777.9186 552.2108 778.3102 551.752 778.6232 551.1659 779.2678 548.7727 778.9347 547.5882 778.1384 546.7877 776.7023 545.6927 775.0331 545.0949 773.7644 544.4363 773.3375 544.0545 772.9995 543.6259 772.7375 543.1227 772.5432 542.4957 772.7992 540.8792 772.8616 540.6802 774.547 540.9769 775.8155 541.0268 775.8444 541.1678 776.2279 541.2447 778.1728 541.2405 778.7326 541.3352 779.3036 540.0962 780.5119 542.2386 781.4936 544.4961 782.0361 545.333 783.1166 546.2469 785.6748 547.8501 786.2144 548.4271 786.5197 549.098 787.0041 550.8725 787.0569 552.449 787.4683 553.9346 788.3109 554.8989 789.3352 555.2667 790.2229 555.3252 791.2184 554.9106 792.6471 554.1122 793.3455 553.8574 793.7473 553.7995 794.6998 553.3598 795.1886 553.1568 795.6522 553.1041 796.4892 553.3225 796.8977 553.5447 797.5949 554.0985 798.442 555.1212 798.8719 555.8971 798.9608 556.378 799 556.9198 798.8399 559.0513 798.8395 559.0558 798.6977 559.8006 797.914 562.7591 797.0866 567.8099 796.8359 568.5195 796.0491 570.1932 795.4848 572.4601 794.8001 574.0332 793.6114 574.1067 792.8986 574.2164 792.4481 574.7382 792.1904 574.8702 791.2861 574.8988 790.8551 575.0688 790.494 575.345 790.0545 575.9787 789.9411 576.1659 789.8679 576.6624 789.9843 578.932 789.9231 579.4927 789.9977 579.9485 790.175 580.3503 790.4821 580.861 791.0019 581.7253 791.3356 582.1045 792.2902 582.7852 792.9113 583.0374 794.3487 583.1045 795.6987 583.0751 796.2275 583.1406 796.9018 583.4797 796.9081 583.4874 797.2986 583.9624 797.7737 584.9373 797.8864 585.4219 797.8516 586.1701 797.5697 587.3705 797.1995 588.1449 796.7615 588.6379 796.2382 588.6618 795.6085 588.6456 794.7564 588.1524 793.5927 588.0568 792.9518 588.1251 791.7177 587.6067 791.4463 587.6409 790.1826 588.1987 789.5847 588.6027 788.7554 589.6176 788.0283 590.8412 787.8111 591.6462 787.7017 592.9462 787.7698 593.808 787.9449 594.4304 788.3883 595.033 789.8797 596.6345 791.0872 597.7086 791.7667 598.4643 791.9694 598.9734 792.0146 600.096 791.8485 600.6534 791.5626 600.9812 791.9541 601.0646 793.1682 601.8715 792.5225 602.8492 791.3343 604.374 791.3273 604.3829 790.3027 605.2975 789.7771 605.8654 789.2146 606.6708 788.623 607.7753 788.4579 608.2856 788.2796 609.4386 788.1562 611.9907 786.9197 615.3272 786.4624 615.9509 785.2827 617.0334 784.161 617.4641 781.4911 617.8449 781.2838 617.8212 780.2725 617.2794 779.8104 616.9149 778.8894 615.978 776.8766 613.5872 775.9797 612.0206 774.4355 609.6206 773.8267 608.8834 772.7364 607.8267 772.6309 607.8292 772.5809 605.8703 770.2736 604.8973 770.1721 602.6038 767.9066 601.5709 766.6075 597.1737 764.4309 597.2519 763.1631 593.138 759.7366 590.7139 758.5358 587.466 757.4323 587.5478 757.3613 584.2252 755.2019 584.3551 752.5498 577.7438 750.23 577.7812 750.1525 575.466 747.9933 575.5363 747.8776 572.2065 Z" id="fips-29133"/>
<path d="M 702.9595 461.5611 710.0933 460.8332 710.1391 462.2175 716.6664 462.5593 719.2132 461.0082 720.2325 462.8163 721.1753 461.0121 724.4803 461.817 725.9 463.2754 726.7378 461.0342 728.9072 461.0523 731.5887 462.3807 734.3572 460.0601 735.7598 464.3779 737.0518 464.8906 740.1957 463.9006 741.6968 465.3592 744.3317 465.3984 744.3342 466.2387 744.4685 467.2983 745.0388 469.8171 745.1204 470.0786 745.6398 470.9444 746.2667 471.7668 746.8498 472.7386 747.1999 473.482 747.5475 474.6998 748.2858 476.3555 750.4049 479.7595 750.9547 480.4963 753.4957 482.9319 754.4441 484.1198 754.9214 484.8608 755.6584 486.426 756.7505 489.3645 757.2245 490.936 757.3888 491.7066 757.443 492.3816 757.3585 493.4801 756.7298 497.242 756.5613 497.8925 756.208 498.6563 755.8306 499.0701 754.447 499.7241 753.5797 499.9353 751.1672 500.1852 750.0046 500.6093 749.7992 500.7413 749.4315 500.9775 749.3945 501.023 749.1745 501.2938 748.7228 502.3162 748.2597 502.8384 747.1806 503.7675 747.0014 503.9884 746.7567 504.5235 746.5222 505.613 746.4748 506.298 746.3552 506.9098 746.1332 507.4268 746.0605 507.8414 746.0854 508.4327 746.2619 508.9761 746.6659 509.6933 747.5768 510.9884 748.1449 511.7068 748.8918 512.4909 749.7155 513.5633 749.8593 513.5291 748.5153 514.53 742.8938 514.3654 742.9119 515.4832 738.4058 516.7239 733.9 516.8707 733.9431 519.1299 732.4224 519.1767 730.3791 519.2407 730.4588 521.124 726.0178 522.4097 723.9234 524.7002 724.0526 529.1172 721.9201 531.4215 717.4325 531.5586 716.6769 533.8002 704.2817 534.1302 703.8838 520.3097 704.3039 519.8861 702.9595 461.5611 Z" id="fips-29031"/>
<path d="M 668.1029 455.9902 672.3887 451.3202 681.2147 435.5146 685.2071 427.9352 692.461 419.5142 692.5604 419.5756 694.2952 420.1453 695.4937 420.2706 696.8827 420.2044 697.4235 419.9157 699.3048 418.6376 699.8796 418.0531 700.9983 416.4522 701.4725 415.919 702.8817 414.7934 703.6323 414.5278 703.8923 414.5781 704.6804 415.0768 707.476 417.1602 708.6742 417.8511 709.2347 418.0604 709.3991 418.3414 709.4669 419.1766 709.2183 419.6189 709.1667 420.0413 709.7237 421.4252 710.0211 421.7929 710.9338 422.5831 711.4436 422.0529 711.7159 422.2286 712.3921 422.4811 713.493 422.5014 713.8889 422.6625 714.4626 423.113 714.8626 423.294 715.3613 423.1833 716.5825 423.1557 717.0135 423.6704 717.4839 424.4221 717.9 424.9357 719.3882 426.328 721.2004 427.6421 721.9726 427.9989 723.6623 428.9534 724.3099 429.352 724.7087 429.6588 725.2974 430.1118 726.0249 431.49 726.3592 431.8785 726.4818 432.1677 726.5245 432.9745 726.4322 433.7909 726.1091 434.9093 725.8448 435.5797 725.6823 436.3077 725.9466 437.2072 726.0126 437.432 726.2878 437.7373 726.892 438.0785 727.9838 438.3849 728.478 438.2762 729.9409 438.2816 730.5796 437.9008 731.0582 437.7349 731.8727 437.6178 731.983 437.6993 732.0429 437.8483 732.0294 438.4476 732.1121 438.7418 732.4995 439.0851 732.9521 439.1251 733.7368 439.5909 734.4615 440.122 735.1447 441.5265 735.6674 442.445 736.1598 443.0819 737.3677 443.6883 738.2025 443.9502 741.6329 444.784 742.5124 444.8667 743.2123 445.1351 743.6803 445.422 744.3363 445.9711 744.6447 446.3971 744.9382 447.0629 744.9563 447.7593 744.7487 448.4429 744.521 449.7704 744.4955 451.5958 744.633 452.4029 744.6635 453.2076 744.5171 453.4833 744.4589 453.88 744.7329 454.6037 745.3772 455.3032 745.8905 456.3161 748.4983 458.9792 749.4361 460.2213 749.6811 460.7223 749.7642 461.112 749.7658 461.5374 749.6026 462.2091 749.1833 462.6697 748.5932 463.0141 747.6265 463.1584 745.7258 462.6004 745.1882 462.5151 744.8745 462.5728 744.4858 462.8547 744.3725 463.1029 744.3259 463.4396 744.329 464.4863 744.3296 464.6971 744.3317 465.3984 741.6968 465.3592 740.1957 463.9006 737.0518 464.8906 735.7598 464.3779 734.3572 460.0601 731.5887 462.3807 728.9072 461.0523 726.7378 461.0342 725.9 463.2754 724.4803 461.817 721.1753 461.0121 720.2325 462.8163 719.2132 461.0082 716.6664 462.5593 710.1391 462.2175 710.0933 460.8332 702.9595 461.5611 668.2716 462.7673 668.1029 455.9902 Z" id="fips-29157"/>
<path d="M 390.6548 212.8927 397.5159 213.0529 397.7459 213.0582 404.4109 213.2393 429.3812 214.1919 428.7695 241.1377 426.2806 241.1226 425.7383 246.029 426.4289 247.37 425.2474 250.8603 425.6909 251.7768 424.4455 254.4449 423.1392 264.6518 422.7291 271.6807 424.2393 271.5294 424.7047 276.6622 423.8745 277.7897 425.9535 279.4794 423.064 281.6316 422.4171 284.3835 422.5979 287.0975 421.6977 287.0257 418.9335 291.4305 419.145 293.0434 416.2818 294.8369 416.3701 296.6792 415.1265 297.3936 416.0439 298.7417 415.7984 305.783 414.7499 305.3468 412.0993 305.6349 407.078 302.2117 398.9835 299.8778 401.0927 296.3117 399.0589 292.4687 394.9102 291.0918 393.1676 287.2342 396.3266 283.3273 396.5246 280.4107 394.6184 278.7092 392.271 278.8579 388.925 275.8706 387.5073 272.5065 384.9894 270.3829 385.4125 266.1651 384.8197 265.2009 382.5339 263.0205 381.3076 261.3894 375.414 255.5566 373.981 254.279 375.6197 253.2627 374.5794 251.3236 380.7381 237.4383 390.6548 212.8927 Z" id="fips-29019"/>
<path d="M 545.7653 466.5975 547.988 466.558 552.3799 466.553 566.1514 463.8732 589.9876 463.7345 592.6892 463.5484 592.8016 498.7413 595.6354 498.8217 595.4431 514.5817 597.6587 514.3983 597.9051 521.129 597.7435 530.451 595.4541 530.446 595.4202 534.8937 592.7021 534.9157 592.8749 548.3527 570.23 548.2413 570.2351 541.5248 565.7832 541.1288 563.6072 541.8882 563.5697 534.5547 561.3794 535.0945 561.4091 530.6197 556.9379 531.7051 556.9549 529.4247 554.7341 529.9786 554.7438 525.5268 550.1371 526.1639 550.3696 517.718 545.9521 517.7147 545.9391 508.8186 543.7767 508.8986 543.7271 504.4325 543.6557 493.2169 539.2125 493.2053 539.1438 479.913 526.5712 479.5814 526.6238 466.125 539.1552 466.5784 545.7653 466.5975 Z" id="fips-29179"/>
<path d="M 500.0263 436.3228 526.7625 436.2988 526.642 449.6716 545.7425 449.8338 545.7653 466.5975 539.1552 466.5784 526.6238 466.125 526.5712 479.5814 539.1438 479.913 539.2125 493.2053 486.2244 492.6513 473.0123 492.5479 472.8422 465.7506 466.2398 465.7843 466.3857 436.2579 475.1426 436.2279 500.0263 436.3228 Z" id="fips-29065"/>
<path d="M 597.6587 514.3983 606.6404 513.6554 608.9685 514.0013 620.2145 513.7145 620.182 506.812 645.0093 506.7347 658.4041 506.1537 660.6891 506.3054 660.8355 541.3593 674.6438 541.1161 674.7037 547.9689 670.141 548.0231 670.1543 553.2643 667.8974 553.2887 667.8788 555.5074 665.6904 555.5384 665.7134 557.7877 663.4707 557.8283 663.4866 560.0106 661.2776 560.049 661.3325 564.4816 659.1212 564.5058 659.1552 566.7174 657.0963 566.6874 647.2838 566.3629 645.5397 566.2494 605.592 567.1145 603.3428 567.0508 603.3997 560.3656 601.1931 560.3615 601.1731 558.0583 601.1639 555.8641 598.9649 555.9007 598.977 548.3614 592.8749 548.3527 592.7021 534.9157 595.4202 534.8937 595.4541 530.446 597.7435 530.451 597.9051 521.129 597.6587 514.3983 Z" id="fips-29223"/>
<path d="M 545.7425 449.8338 546.4775 443.1526 552.1207 443.1937 570.6655 443.2054 579.5365 443.6498 593.1367 442.9497 607.3125 443.0445 607.2527 457.1651 620.9556 456.7605 621.0821 463.7008 619.5922 463.7302 620.182 506.812 620.2145 513.7145 608.9685 514.0013 606.6404 513.6554 597.6587 514.3983 595.4431 514.5817 595.6354 498.8217 592.8016 498.7413 592.6892 463.5484 589.9876 463.7345 566.1514 463.8732 552.3799 466.553 547.988 466.558 545.7653 466.5975 545.7425 449.8338 Z" id="fips-29093"/>
<path d="M 485.6154 550.007 486.3224 519.4022 486.2244 492.6513 539.2125 493.2053 543.6557 493.2169 543.7271 504.4325 543.7767 508.8986 545.9391 508.8186 545.9521 517.7147 550.3696 517.718 550.1371 526.1639 554.7438 525.5268 554.7341 529.9786 556.9549 529.4247 556.9379 531.7051 561.4091 530.6197 561.3794 535.0945 563.5697 534.5547 563.6072 541.8882 557.6196 542.2718 553.0302 543.4311 539.2295 543.6963 538.9366 574.7425 535.5844 574.5884 507.6062 574.8169 504.9029 574.6797 485.5148 574.5839 485.6397 563.5526 485.6154 550.007 Z" id="fips-29203"/>
<path d="M 193.9718 397.2119 195.4525 370.0187 254.8366 372.8662 253.3606 370.1063 254.8683 370.0125 257.2955 372.192 258.8893 371.9713 262.0343 373.2546 261.0125 392.5729 259.7497 417.0478 252.9007 416.7552 252.1975 430.0791 245.511 429.7814 223.3488 428.6901 223.7747 419.7752 192.7195 418.0062 193.9718 397.2119 Z" id="fips-29185"/>
<path d="M 188.8294 274.8767 189.648 263.3985 189.6517 261.9794 191.2494 262.0086 209.9876 263.0804 222.7932 263.8435 223.0519 259.3664 263.3015 261.3481 263.0907 265.8157 263.6544 267.5249 262.7256 283.9344 262.5917 286.1595 261.9074 297.2855 261.7716 299.5158 261.0025 318.4402 194.6591 315.7697 188.0252 315.4477 188.3503 308.7692 188.6564 302.137 187.1046 302.0562 188.8294 274.8767 Z" id="fips-29101"/>
<path d="M 283.385 585.5525 293.003 585.8549 302.7281 586.1808 331.9017 587.0734 349.6483 587.6191 348.5757 634.9063 340.3993 634.8283 340.3678 634.8352 338.4961 634.835 333.568 634.8331 333.5267 634.8303 312.05 634.6496 311.9196 634.6499 309.6843 634.6353 309.5173 634.6426 304.9556 634.6616 301.8496 634.6273 284.6246 634.4217 284.2968 634.4175 281.601 634.3829 281.8886 625.3096 282.6274 598.8708 283.385 585.5525 Z" id="fips-29213"/>
<path d="M 74.4541 164.7508 133.7616 166.7777 133.564 175.943 133.5382 178.1307 133.2287 191.1961 133.0973 196.9742 132.9831 203.7032 132.8683 207.06 132.7575 210.2883 132.5565 218.0549 132.4558 220.5273 132.351 223.6141 131.51 223.4564 130.6759 223.5137 129.7004 224.0126 127.7731 224.5044 126.5045 224.3208 125.1264 223.7508 125.4174 222.1542 125.2195 221.2597 125.0402 220.449 124.4211 219.9891 123.0985 219.6043 122.2754 219.7073 121.1756 220.4388 119.0282 221.6389 117.8936 221.8259 116.3609 221.7575 115.7242 221.5886 115.7227 221.5882 114.4982 221.0974 113.2406 220.0377 112.4244 218.4673 111.8481 216.826 111.5863 216.3712 111.1594 215.9577 110.8877 215.7962 110.4733 215.7072 109.0032 215.9229 107.5798 215.7982 106.5159 215.4592 106.1522 215.2583 105.2395 214.3041 105.0245 214.0138 104.8574 213.5699 104.8892 213.082 105.7738 211.5456 105.9905 210.893 106.0575 210.3668 105.8737 209.1097 105.4264 208.1183 104.6933 207.1565 103.713 206.2004 102.4586 205.3477 101.2293 204.6993 99.9668 204.1605 99.4708 203.8111 98.9522 203.3136 98.0157 202.1028 97.4672 201.1699 97.1261 200.2277 96.8897 199.3497 96.7613 198.5098 96.6139 197.545 96.4111 193.7529 96.481 193.2613 96.5026 193.1095 96.5818 192.8489 96.8425 192.4752 97.4266 191.9308 97.8468 191.6276 98.1095 191.5265 98.813 191.4075 99.5019 190.9837 99.9732 190.4632 100.2644 189.6544 100.2583 189.0285 100.074 188.3915 99.6188 187.4737 99.1622 187.0579 98.8254 186.9138 98.4552 186.8653 97.6411 186.9615 96.7056 187.5403 95.9512 187.9065 95.5475 188.0759 95.0843 188.1683 93.8396 187.9731 93.4284 187.8109 93.3471 187.7487 93.1335 187.5852 92.8626 187.3402 92.4618 186.6614 92.3924 186.3838 92.3581 185.7583 92.4269 184.8502 92.2533 184.3916 91.8703 183.905 91.452 183.5657 90.1344 183.0014 89.8125 182.7187 89.3378 182.3018 88.9265 181.5238 88.7078 180.0536 88.3302 179.3816 87.4041 178.4906 86.7502 178.1685 84.3961 177.3921 82.9201 176.5103 82.3503 176.097 81.8784 175.6521 81.502 175.2275 80.9447 174.2799 80.7881 173.89 80.6657 173.0503 80.553 170.8992 80.4831 170.4216 80.3018 170.0356 79.8223 169.4118 79.4675 169.0686 77.3741 167.8723 76.7647 167.3699 75.6172 166.1817 74.4541 164.7508 Z" id="fips-29165"/>
<path d="M 446.8357 51.351 447.3398 4.5763 447.7847 4.5266 456.0409 4.1844 460.2232 3.8905 461.1145 3.824 462.3788 3.7639 463.9899 3.6871 464.544 3.6604 465.6453 3.5932 472.2586 3.2131 473.3291 5.0619 473.7161 5.5184 474.2733 6.0481 476.1076 7.0909 476.9924 7.8102 477.2828 8.1963 477.3992 8.4994 477.3622 8.8228 476.6982 10.6558 476.6978 11.0614 476.7926 11.4177 477.0412 11.7995 477.8615 12.4604 479.1142 12.7715 481.0575 13.0228 482.9587 13.5655 484.4681 13.865 484.8501 14.0468 485.0655 14.271 485.193 14.5356 485.3136 15.3095 485.2357 16.4977 484.8522 17.919 484.8367 18.3298 484.9607 18.9865 485.1827 19.435 485.4822 19.7911 485.9672 20.1573 486.4926 20.5109 488.0989 21.2693 488.5495 21.6799 489.0161 22.4513 489.4449 23.6917 489.554 24.3677 489.6629 24.6468 489.8027 24.9309 490.4655 25.7451 491.2882 26.2546 491.7454 26.4499 493.0508 26.7775 494.0914 26.8623 495.8628 26.7138 496.1488 26.7688 496.2744 26.8871 496.42 27.1178 496.519 27.742 496.4993 28.0785 496.4107 28.3285 496.1737 28.6074 495.5023 29.2128 495.3143 29.51 495.3096 29.891 495.4073 30.1256 495.8405 30.5064 496.3243 30.6226 496.9155 30.5875 497.0104 30.717 497.0272 30.9505 496.7575 31.6909 496.1647 32.7115 496.1112 33.2001 496.1903 33.7031 496.4064 34.1056 496.6745 34.2742 497.1364 34.4177 497.6506 34.4347 498.2294 34.699 498.4226 34.8888 498.5042 35.0703 498.6777 35.1948 499.5191 35.4293 500.038 35.3461 500.4821 35.0526 500.6381 35.0509 500.715 35.1193 500.7027 35.3343 500.6318 35.7117 501.1368 38.1768 503.4006 37.9446 506.1888 37.7613 508.0163 38.3183 508.4092 38.5519 508.7531 38.9583 507.9217 39.9301 507.5961 40.1794 506.4457 40.7775 505.8097 41.3057 505.6397 41.5142 505.4659 41.9292 504.9608 42.772 503.8223 44.5105 503.3141 45.7357 502.9777 47.5876 502.7325 48.3677 501.1055 52.0525 500.6743 53.1886 500.3528 54.393 500.3186 54.8465 500.3474 55.665 500.6329 56.4456 500.7022 56.8243 500.6419 57.2608 499.8707 58.9156 446.7493 58.0414 446.8357 51.351 Z" id="fips-29045"/>
<path d="M 180.5915 7.9566 197.0396 8.1086 197.2597 8.1265 198.2772 8.1301 198.3051 8.1306 203.6768 8.1186 205.8497 8.105 210.3636 8.0697 211.8672 8.0761 214.6653 8.0543 214.8089 8.0425 214.9875 8.0243 215.078 8.0468 215.1516 8.0409 217.6838 8.0287 219.2087 8.0217 219.3907 8.0141 219.5062 8.0053 224.7124 7.9941 226.1956 7.9881 228.7835 7.9813 229.1615 7.9575 233.9557 7.98 233.6907 24.1141 234.8259 24.105 234.5283 56.082 234.1505 76.1819 181.0742 74.73 182.1109 36.7661 182.3342 23.5479 180.3566 23.5265 180.5915 7.9566 Z" id="fips-29081"/>
<path d="M 357.4575 7.1966 360.3409 7.1553 360.7092 7.1677 366.2409 7.0242 366.3953 7.0203 373.1097 6.8323 384.2597 6.4163 384.5153 6.4209 384.5971 6.4137 386.9371 6.3506 387.8534 6.3609 396.4817 6.17 399.847 6.0495 399.9904 44.5024 360.9062 44.943 360.7098 37.1516 363.0301 36.6346 362.8817 35.0117 359.8398 32.7593 358.0093 29.2283 358.8349 23.9249 361.737 21.6092 360.9229 18.6087 362.4668 18.0161 359.2071 16.6571 359.7296 13.4868 361.0813 11.5956 357.0475 11.9574 360.0555 10.5824 357.4575 7.1966 Z" id="fips-29197"/>
<path d="M 446.7493 58.0414 499.8707 58.9156 499.7745 59.122 499.4551 59.386 499.1806 59.7337 498.8841 60.4476 498.8094 60.8372 498.8752 61.1431 499.0761 61.5387 499.0891 62.6755 498.7913 64.0204 498.7638 64.9735 498.8422 65.6751 499.0408 66.4143 499.1091 66.6687 498.9942 67.0773 498.5259 67.7367 498.3516 68.1286 498.1415 69.3167 498.1333 69.7041 498.2781 70.9443 498.7366 72.8992 498.727 73.1047 498.3556 74.1909 498.3405 74.5251 498.5391 77.4521 498.6754 78.3891 499.078 80.494 499.7145 83.121 500.1064 85.0648 500.3883 86.1825 501.0869 88.2484 500.5026 91.4729 501.4089 93.4961 501.8016 94.0854 502.614 95.6628 503.5834 97.7487 503.8209 98.4665 503.8986 98.9838 504.0648 99.4818 504.2604 99.8095 504.7516 100.1037 504.8332 100.2374 505.3408 101.4144 505.9205 102.3328 506.2327 103.2154 506.9145 104.4662 507.4488 105.2092 507.6404 105.3818 460.0123 105.3506 446.7928 105.2481 447.2057 64.6966 446.6875 64.6763 446.7493 58.0414 Z" id="fips-29111"/>
<path d="M 367.2564 338.3909 378.475 338.7478 382.8832 338.8609 393.9066 339.2433 393.3216 352.1311 402.8839 352.7427 408.2377 352.6979 412.3712 354.9637 415.4359 352.9585 419.0712 352.979 418.9456 359.6235 418.7882 375.4165 418.749 379.6794 420.728 379.7197 420.3106 401.9552 393.605 401.2589 380.3438 401.0807 380.3934 398.8405 378.18 398.7574 378.223 396.5569 375.9482 396.503 375.9867 394.3257 373.795 393.8726 373.8658 389.7815 371.6558 389.7479 371.6946 387.5227 370.5992 387.503 370.6527 383.0481 369.6573 378.298 365.2302 378.1521 365.3996 371.7997 361.1193 371.8213 358.6755 370.4035 359.454 351.0035 366.2023 351.0783 366.6553 338.3621 367.2564 338.3909 Z" id="fips-29131"/>
<path d="M 252.1975 430.0791 252.9007 416.7552 259.7497 417.0478 261.0125 392.5729 313.9954 394.6812 312.9576 419.203 299.6175 418.8599 298.8579 434.4278 252.0613 432.333 252.1975 430.0791 Z" id="fips-29085"/>
<path d="M 566.4711 269.4286 566.6615 265.8501 567.7545 265.9375 567.7768 265.9573 567.7955 266.0998 567.8623 266.1491 567.9682 266.1694 568.0697 266.2532 568.0941 266.2955 568.0931 266.3709 568.1111 266.4168 568.1956 266.5308 568.2315 266.5557 568.3361 266.6715 568.3584 266.7276 568.4183 266.7985 568.514 266.8715 568.5682 266.9666 568.6245 266.9984 568.7534 266.9682 568.7829 266.8804 568.8318 266.8382 568.8614 266.7507 568.9084 266.7287 568.9659 266.7451 569.0438 266.8222 569.1109 266.8595 569.2276 266.9076 569.3146 266.9892 569.3034 267.0834 569.3794 267.1836 569.4301 267.2035 569.4579 267.1882 569.5024 267.0713 569.5632 267.056 569.6328 267.0627 569.6863 266.9769 569.7679 266.9559 569.9253 266.8962 570.0048 266.8085 570.097 266.8305 570.1257 266.8958 570.1896 266.9549 570.2385 266.9604 570.2976 266.9366 570.355 266.8707 570.3754 266.7745 570.3525 266.7139 570.3592 266.6625 570.4076 266.6376 570.4614 266.646 570.5311 266.6884 570.6749 266.7388 570.7364 266.8013 570.7773 266.8164 570.9357 266.8172 571.0258 266.7936 571.145 266.73 571.1883 266.7339 577.6898 266.6377 583.2609 268.3605 584.4802 268.0789 584.6084 264.3822 584.7644 262.9359 587.8602 261.1384 590.7407 261.3528 591.6757 260.1172 596.279 264.0357 596.3221 261.1345 599.1485 261.9252 597.8749 259.2061 601.2658 259.0893 601.2665 259.0923 601.5466 260.0287 601.7912 260.4925 602.3001 261.2068 602.8007 261.8307 603.4306 262.4376 604.4055 263.0069 604.8987 263.6618 605.8211 265.5349 606.2317 265.9815 609.8278 267.9974 611.2755 268.892 612.074 268.9823 613.2858 268.8791 613.5151 268.8216 614.5768 268.5552 615.7391 268.0366 615.9557 267.8721 617.4584 265.9949 619.1098 264.1586 620.2321 263.5289 621.0822 262.3382 622.599 259.9157 623.0769 258.5657 622.9712 257.6894 622.979 257.4288 623.081 257.0695 624.2612 254.8376 624.7685 254.3707 625.4008 253.9713 626.7724 253.4142 626.7746 253.4133 628.0534 253.4468 628.8147 253.7123 629.896 253.9557 631.2829 253.9949 632.0893 254.0961 633.3561 254.4542 634.5669 254.9842 634.8853 255.1235 639.3118 257.2736 640.8775 258.3583 642.0064 258.8943 642.8014 259.1698 643.7835 259.729 644.1842 259.811 645.0677 259.8103 646.8546 259.6682 647.6003 259.7016 647.7976 259.7355 648.5111 259.8581 649.3639 260.1773 650.0541 260.0966 650.4082 260.1302 650.864 260.295 651.9002 260.9634 653.2712 261.5394 654.1546 262.0508 655.3169 263.087 655.8428 263.6052 657.2639 265.0051 657.5538 265.1361 658.1406 265.1985 658.5509 265.3726 661.0311 266.6466 662.8453 268.0135 667.4735 270.6355 667.9642 271.5069 668.0241 272.4416 667.4434 275.8946 667.1215 277.3302 664.2908 273.8242 659.2664 275.6378 652.7812 271.9249 650.4102 270.6225 645.1932 265.2769 642.6185 264.8166 641.2256 265.5597 640.0732 269.3874 637.5481 274.8644 633.7623 275.3816 629.6073 274.5248 628.4268 274.9167 624.6936 280.5907 624.4349 281.8183 623.6927 284.6993 622.5563 286.6505 617.9356 289.9118 618.1575 294.9025 617.0867 296.7763 616.0183 297.3834 613.2507 297.7016 608.6736 297.4261 605.5136 296.3524 603.0573 296.651 602.3453 296.9387 600.4346 300.327 597.0293 303.4242 594.1543 304.4825 592.9598 305.232 591.9934 306.7018 591.3871 308.8286 589.3329 311.4293 584.6385 312.9048 580.2825 316.5569 574.931 319.9167 571.5434 321.0215 566.5715 319.0448 566.3588 295.4247 566.311 289.1669 566.4711 269.4286 Z" id="fips-29183"/>
<path d="M 126.8499 395.7793 126.9229 392.251 171.9839 394.6304 173.1891 395.424 171.9721 396.595 172.256 398.4423 173.823 398.2699 173.9769 396.276 175.0857 397.1182 175.7438 394.4972 177.4615 394.2949 177.0214 396.8979 178.1453 395.5674 182.2103 393.8314 184.7348 393.7496 187.0947 395.2786 187.7368 396.9956 188.7324 395.3582 191.0864 397.9358 193.9718 397.2119 192.7195 418.0062 191.4058 440.2786 191.9665 440.3096 191.1645 455.8449 191.0767 458.0717 125.0546 454.5946 125.0549 454.5801 125.1044 451.5985 125.1045 451.5952 125.1183 450.2009 125.158 449.5205 125.166 449.3645 125.1562 448.9795 125.2488 444.0706 125.2957 442.9159 125.4595 436.2797 125.7284 429.1513 125.8425 426.3754 125.8728 425.1909 125.9138 424.2144 125.9877 422.4548 126.0411 421.0158 126.0512 420.1226 126.1074 418.8175 126.1891 416.5276 126.2147 415.8195 126.2743 414.3549 126.3879 411.5555 126.3899 411.1719 126.4141 410.5479 126.4441 409.9971 126.4662 409.1357 126.4755 408.8997 126.5455 405.9053 126.6162 403.3342 126.6634 402.6196 126.8495 395.7959 126.8499 395.7793 Z" id="fips-29217"/>
<path d="M 280.5649 8.1225 283.9379 8.1279 287.182 8.1346 293.8235 8.1751 308.3702 7.9765 312.7174 7.836 312.8586 7.8307 314.2316 7.7805 329.1231 7.4074 331.0055 7.3695 335.4395 7.3739 337.0416 7.3541 338.2791 7.3135 340.1602 7.3474 340.8178 7.3219 343.4184 7.3139 344.2437 7.3125 344.2357 7.3005 352.4688 7.2822 354.2372 7.2419 357.4575 7.1966 360.0555 10.5824 357.0475 11.9574 361.0813 11.5956 359.7296 13.4868 359.2071 16.6571 362.4668 18.0161 360.9229 18.6087 361.737 21.6092 358.8349 23.9249 358.0093 29.2283 359.8398 32.7593 362.8817 35.0117 363.0301 36.6346 360.7098 37.1516 360.9062 44.943 360.5921 44.9482 340.8529 44.9869 340.9197 38.3688 281.1209 38.389 281.2697 24.8157 280.3393 24.7001 280.5649 8.1225 Z" id="fips-29171"/>
<path d="M 187.6596 633.0724 189.44 596.3425 189.3111 594.8914 190.5422 566.691 197.1771 566.9677 245.9184 568.891 245.7459 574.5267 245.4922 584.5744 250.2968 584.7148 248.4306 633.9513 236.7221 633.7723 234.1391 633.7312 232.9324 633.7081 231.8303 633.6933 230.7623 633.6975 230.7043 633.6994 213.5952 633.4891 208.7402 633.4248 206.8028 633.3942 202.1972 633.3203 201.6139 633.3108 188.1117 633.0804 187.6596 633.0724 Z" id="fips-29009"/>
<path d="M 418.9456 359.6235 439.5383 360.0823 456.4848 359.8129 458.994 359.2275 469.5659 359.3948 471.7408 359.8886 485.3001 359.8098 485.4618 380.4985 487.192 380.5077 487.1053 396.2476 472.4932 396.0168 455.3383 396.448 450.5348 399.5955 449.7669 398.0003 448.4081 398.0997 446.7949 402.8671 444.5605 402.8881 440.1651 402.7537 420.718 402.1545 420.3106 401.9552 420.728 379.7197 418.749 379.6794 418.7882 375.4165 418.9456 359.6235 Z" id="fips-29125"/>
<path d="M 349.6483 587.6191 429.8231 589.4234 428.9905 634.7299 426.8534 634.7615 425.3049 634.7779 419.2484 634.8397 417.7617 634.837 417.4294 634.8414 417.1495 634.8352 405.6765 634.9395 404.5675 634.9693 400.6372 634.9629 397.568 635.0562 396.363 634.9581 391.9894 634.9501 389.0603 634.857 380.0918 634.8222 378.5756 634.8409 374.2447 634.8933 348.5757 634.9063 349.6483 587.6191 Z" id="fips-29153"/>
<path d="M 645.5324 709.0595 648.7267 704.2029 650.1432 701.0677 650.8291 697.9246 652.6328 696.6545 652.5001 694.4396 654.8583 693.1179 655.4794 690.8469 657.4173 690.1177 660.2485 688.5659 662.6833 686.6076 662.6409 683.5904 664.4005 679.6197 665.7282 680.0108 666.8297 678.4229 668.1796 677.1436 668.9771 676.3875 672.2755 674.9305 673.9195 672.8266 675.876 672.4944 675.8747 670.3395 677.1571 666.905 680.9875 665.7737 681.535 663.2723 683.3124 661.0035 681.2766 658.666 681.5109 655.2263 683.1639 652.7432 682.7302 648.2504 680.9118 646.0743 677.3123 645.6587 674.6133 644.0402 673.0113 642.6439 674.1515 640.7485 673.1699 637.203 673.0175 635.3254 670.8762 634.0291 670.7771 633.9691 671.502 631.8033 671.4302 631.5768 671.6637 631.3992 666.5538 631.5454 663.6721 631.6197 663.2554 631.6204 663.2517 631.6205 663.263 627.9115 664.5258 626.64 664.4221 624.815 667.0252 624.3539 667.6953 621.7073 667.0842 617.8303 667.7075 616.3472 668.4307 616.9381 669.255 613.5058 670.7871 613.1303 671.6784 611.0396 672.9645 610.9221 695.012 610.6353 694.474 611.2421 695.9511 623.4498 695.4995 629.645 695.8535 636.5677 694.2762 647.4353 695.6576 647.5199 696.5876 677.8648 697.4351 707.261 697.3712 707.2627 697.2241 707.249 696.698 707.3126 695.7999 707.3091 679.5202 707.8662 676.7303 708.0209 676.6085 708.018 672.7045 708.1558 656.5826 708.6924 656.5644 708.693 656.1391 708.7062 650.3023 708.8974 649.908 708.9276 646.6699 709.014 645.5324 709.0595 Z" id="fips-29069"/>
<path d="M 67.6499 4.175 72.0952 4.3847 73.2073 4.4414 77.125 4.6238 78.1262 4.681 78.3076 4.6896 78.3493 4.6979 78.7089 4.7149 79.8275 4.739 81.9067 4.823 83.1659 4.8782 92.1561 5.3112 95.0874 5.3688 96.4091 5.4307 101.0919 5.6486 102.6566 5.7195 103.1975 5.7551 111.7 6.0987 112.1393 6.1449 113.1622 6.199 117.4921 6.3937 124.165 6.6782 124.3677 6.6831 128.1307 6.838 134.0183 7.0706 133.6615 22.1967 136.4001 22.2717 136.053 35.3975 137.2387 35.441 135.399 75.3735 84.1714 73.4503 81.6188 70.1757 82.2999 67.0096 80.8987 63.3172 82.0784 61.7663 82.1306 55.5193 81.4076 53.3094 68.6723 52.8111 70.037 19.5288 67.204 19.4093 67.6499 4.175 Z" id="fips-29147"/>
<path d="M 594.1543 304.4825 597.0293 303.4242 600.4346 300.327 602.3453 296.9387 603.0573 296.651 605.5136 296.3524 608.6736 297.4261 613.2507 297.7016 616.0183 297.3834 617.0867 296.7763 618.1575 294.9025 617.9356 289.9118 622.5563 286.6505 623.6927 284.6993 624.4349 281.8183 624.6936 280.5907 628.4268 274.9167 629.6073 274.5248 633.7623 275.3816 637.5481 274.8644 640.0732 269.3874 641.2256 265.5597 642.6185 264.8166 645.1932 265.2769 650.4102 270.6225 652.7812 271.9249 659.2664 275.6378 664.2908 273.8242 667.1215 277.3302 666.5065 278.5277 663.7445 280.8994 661.4298 282.5534 661.4111 282.585 659.2968 282.3326 659.0992 284.3446 656.5885 287.7238 652.7427 290.3466 651.9489 290.7705 651.3675 291.1528 649.9046 293.6428 648.0111 296.8785 647.671 297.4554 645.6637 300.8922 645.3026 303.3543 644.8602 305.3114 644.7799 305.9061 644.4373 307.5657 643.9006 309.4709 643.8598 309.6139 644.1918 311.8173 644.9714 313.2504 646.5758 315.1873 648.5861 316.7027 648.6235 316.7302 649.5851 317.2624 650.0087 318.918 651.3931 319.7335 651.1016 320.3015 650.7103 321.5081 650.7087 321.5144 650.163 323.7313 650.0393 324.463 649.8998 325.2878 649.5034 326.8012 649.4076 327.8318 649.0373 328.9303 648.8947 329.8728 648.5385 332.2268 648.4218 333.396 648.0075 334.1732 647.2688 335.9864 644.1141 339.897 643.3818 340.4664 641.9482 342.1335 640.9923 339.179 641.0138 334.719 642.2323 331.9245 637.3919 332.205 632.8596 331.6764 631.8308 327.649 632.7659 328.0179 633.8069 324.8742 626.4933 324.9335 623.4703 325.0939 620.9333 325.1067 620.643 325.1126 611.499 325.271 610.1833 328.6793 608.8842 329.9775 606.4463 327.8122 604.0151 327.5845 603.2149 328.8819 604.0391 332.2483 601.1437 334.0355 598.997 330.1822 594.6424 328.5914 594.1729 330.9805 594.1634 329.3737 594.2284 318.3485 594.2176 307.2334 594.1543 304.4825 Z" id="fips-29189"/>
<path d="M 129.8992 288.249 129.9149 287.8506 129.928 287.5838 130.338 277.0607 130.4345 274.8258 130.4473 274.5314 130.4695 271.5164 139.766 272.2708 144.5434 272.6786 155.3537 273.3572 158.1517 273.5391 170.5074 274.2435 171.0504 274.2552 188.8294 274.8767 187.1046 302.0562 188.6564 302.137 188.3503 308.7692 188.0252 315.4477 194.6591 315.7697 193.9667 331.3138 194.169 334.2224 191.7067 332.8215 186.1321 333.0439 181.144 334.2387 179.6451 333.61 176.5926 333.9532 174.9137 332.0304 171.1805 333.3398 168.1437 331.5043 166.3612 331.8931 164.6396 329.9222 150.9732 329.2776 150.7366 329.268 128.5594 328.201 128.5997 327.3498 128.6004 327.1636 128.6364 326.0475 128.7554 321.8886 128.882 317.4636 128.8833 317.4161 128.904 317.1249 128.9978 313.0246 129.0435 312.4786 129.0454 312.4742 129.1478 308.0051 129.1941 306.2851 129.2575 305.5919 129.2785 304.0003 129.8992 288.249 Z" id="fips-29037"/>
<path d="M 80.6689 152.346 80.489 151.3689 80.5306 150.8578 80.7382 150.0423 81.226 148.9005 81.8407 147.9212 82.5137 147.1314 82.7152 146.6358 83.9293 144.7438 84.3024 144.289 85.0623 143.6374 85.4233 143.4336 86.1716 143.2237 87.0766 143.1391 87.9999 143.1505 89.1154 142.9847 89.4246 142.8729 90.0537 142.4702 90.6662 141.7134 90.8437 141.3131 90.9699 140.7174 91.0942 138.5036 90.8524 136.0809 90.8638 135.136 90.9683 134.7068 91.5999 133.6583 92.2338 133.0617 92.8108 132.6746 93.125 132.6414 93.5836 132.7103 94.0482 132.9094 94.6869 133.3561 95.747 134.3373 97.0964 135.3825 98.0572 135.8697 98.9297 136.1359 99.3177 136.1708 100.2141 136.0637 101.1182 135.7959 102.1358 135.2549 102.8012 134.6431 103.6847 133.3772 104.0148 132.3828 104.1365 131.7711 104.1413 131.7471 104.0267 130.3017 103.7612 129.6502 103.5253 129.2144 103.308 128.9632 103.0183 128.7715 102.8419 128.7515 101.6236 128.986 101.6192 128.9859 101.3244 129.1426 100.1538 130.0291 100.1444 130.0362 100.1209 130.054 100.1026 130.068 99.9858 130.1564 99.9585 130.1771 99.4922 130.4643 98.6491 130.7243 97.9359 130.7177 97.4128 130.4582 96.3238 129.5771 95.9313 129.1664 95.4075 128.4551 95.2933 128.15 95.2508 127.6431 95.3366 126.9972 95.6421 126.5217 96.0125 126.2247 96.4957 126.0117 100.3463 125.9078 100.6634 125.8352 101.4055 125.4545 101.7897 124.9883 102.3697 123.5371 102.4434 122.557 102.403 121.4357 102.3989 121.392 108.8261 121.5056 134.6334 122.3385 134.4336 133.4908 133.9709 153.4956 133.7616 166.7777 74.4541 164.7508 74.0352 164.0773 73.736 163.3584 73.2861 161.5565 73.3663 160.762 74.0973 158.5254 74.2275 158.3129 74.6144 157.9355 75.1113 157.6569 75.5123 157.5261 76.2491 157.4842 77.7454 158.1812 78.2775 158.2949 78.6141 158.2897 79.1847 158.1681 79.7844 157.8755 80.1006 157.6642 80.3564 157.3766 81.0407 156.3069 81.3147 155.4653 81.4293 154.7871 81.4284 154.4726 81.276 153.7498 80.7075 152.5556 80.6689 152.346 Z" id="fips-29021"/>
<path d="M 122.7104 555.007 122.7418 553.4563 122.8553 548.6222 122.923 546.1285 128.0005 546.3457 129.4633 546.4259 144.016 546.9278 144.4346 546.9416 146.3598 547.0112 147.6802 547.0593 148.9073 547.0995 162.3769 547.5302 191.2753 548.8524 190.8958 557.7869 190.6262 564.4495 190.5422 566.691 189.3111 594.8914 121.8613 590.6374 122.1324 578.2526 122.212 573.2304 122.3218 570.6302 122.3672 568.4149 122.4273 566.1668 122.4278 566.1509 122.4288 565.6275 122.4722 564.4107 122.5105 563.0337 122.5331 562.4828 122.6876 555.6511 122.6906 555.4204 122.7104 555.007 Z" id="fips-29145"/>
<path d="M 339.2335 420.4047 367.7129 420.9847 368.3716 425.4331 370.1984 427.1699 370.135 428.9958 373.6894 431.7186 374.4598 434.2953 376.3095 435.1104 378.4198 433.4859 380.6 433.3611 382.0837 430.9417 384.6426 430.7458 388.0193 431.4726 388.387 429.7732 392.0219 426.0279 393.2603 426.1166 393.2012 427.9836 392.7329 448.4022 406.0528 455.0308 412.7603 458.4249 412.7026 465.1607 412.4063 485.3527 375.0523 484.4851 359.5066 484.0258 339.3639 483.5682 339.1965 483.5849 340.2241 447.2146 338.5696 447.1768 338.855 431.4994 339.2335 420.4047 Z" id="fips-29105"/>
<path d="M 594.1729 330.9805 594.6424 328.5914 598.997 330.1822 601.1437 334.0355 604.0391 332.2483 603.2149 328.8819 604.0151 327.5845 606.4463 327.8122 608.8842 329.9775 610.1833 328.6793 611.499 325.271 620.643 325.1126 620.9333 325.1067 623.4703 325.0939 626.4933 324.9335 633.8069 324.8742 632.7659 328.0179 631.8308 327.649 632.8596 331.6764 637.3919 332.205 642.2323 331.9245 641.0138 334.719 640.9923 339.179 641.9482 342.1335 641.6717 342.455 641.6294 342.5232 641.3238 343.0155 640.9029 343.6765 640.1727 346.3416 638.8115 349.4575 638.522 350.4925 638.3528 352.0618 638.5148 354.9744 638.2963 356.4988 638.3266 358.4322 638.602 359.6427 638.7421 360.6349 639.159 362.4111 639.2693 363.2916 639.6886 365.3847 640.2557 367.1876 640.6877 368.2558 640.7816 368.4371 640.9743 368.8089 643.4252 372.4246 643.7593 372.778 644.8894 373.6708 645.5616 373.9832 646.3132 374.1015 647.5473 374.5832 648.7367 375.291 649.6834 376.1906 650.6922 377.2154 653.4851 381.7234 653.8609 383.7579 650.0766 385.5527 648.4004 387.9576 644.3481 387.0724 634.0685 395.2925 613.9822 401.6758 608.5602 401.1332 610.384 399.8458 609.2562 396.114 610.3143 391.6071 607.8793 390.9471 606.9164 390.6059 601.5072 389.2126 601.8392 386.6939 589.6351 371.3552 591.4732 357.2885 592.2428 351.9793 592.9091 347.6486 594.1634 338.7688 594.1729 330.9805 Z" id="fips-29099"/>
</g>
</svg>