<?xml version="1.0"?>
<svg xmlns="http://www.w3.org/2000/svg" version="1.2" baseProfile="tiny" width="800" height="4538" viewBox="0 0 800 4538" stroke-linecap="round" stroke-linejoin="round">
<g id="cb_2018_us_county_5m">
<path d="M 144.069 4527.1372 173.078 4496.4141 201.7048 4490.3909 224.0223 4475.5176 236.582 4474.5683 260.7654 4480.7411 257.2431 4491.7082 256.5541 4502.0564 247.347 4508.0411 226.4625 4509.7226 220.2956 4521.732 206.5453 4533.351 178.9809 4537.2241 174.0821 4525.3049 167.0913 4523.1049 156.1459 4531.3885 146.7846 4532.3204 144.069 4527.1372 Z" id="fips-69100"/>
<path d="M 531.8909 3817.5765 540.9814 3800.5032 548.0738 3757.0882 547.9984 3739.737 567.9872 3746.9561 589.5708 3734.0645 616.4473 3706.3897 622.7809 3707.8935 629.3632 3719.5818 626.7605 3727.9109 614.3654 3736.8413 615.0209 3742.1122 608.3433 3748.8003 596.7865 3767.8397 597.5998 3781.7633 607.1704 3793.1853 603.5301 3800.0192 604.6965 3806.3008 595.2283 3804.5205 588.9806 3802.175 574.0963 3801.6473 571.0153 3818.7752 579.6472 3825.8348 574.1099 3846.0667 562.987 3835.9885 545.6785 3835.4841 533.9734 3825.738 531.8909 3817.5765 Z" id="fips-69110"/>
<path d="M 460.6516 3899.6453 471.6279 3872.1606 490.9723 3851.78 503.6118 3839.5855 511.6403 3851.6374 514.3636 3871.8656 505.9627 3886.9686 519.347 3899.4346 522.0944 3910.5871 517.5097 3930.1283 516.6598 3947.8182 503.703 3962.1325 496.8758 3965.3198 492.2557 3952.7819 481.2108 3932.4159 471.1346 3917.8082 461.177 3915.7743 460.6516 3899.6453 Z M 434.9749 4010.376 454.432 4004.946 458.3254 4009.4874 456.0983 4017.1395 447.533 4020.8781 435.7467 4023.3001 428.2124 4019.6688 434.9749 4010.376 Z" id="fips-69120"/>
<path d="M 766.266 3202.8724 780.507 3182.6814 789.7354 3176.7823 799 3186.8431 779.7344 3213.7681 767.9698 3213.7916 766.266 3202.8724 Z M 629.423 2279.245 633.9717 2275.7506 639.5107 2277.3525 644.8236 2284.303 637.4806 2293.1355 628.7412 2286.1544 629.423 2279.245 Z M 617.2635 2076.7436 622.2041 2066.9122 630.6527 2064.966 639.511 2073.4675 641.7966 2084.3944 632.6751 2094.2951 625.2117 2093.8595 617.8011 2085.3929 617.2635 2076.7436 Z M 585.8457 2707.8667 593.2398 2698.818 601.2649 2705.2241 602.0735 2712.4376 597.2695 2720.0361 586.8382 2715.6562 585.8457 2707.8667 Z M 546.9877 1749.7379 552.5464 1743.2234 560.5101 1735.4248 569.2588 1727.472 578.7298 1718.1929 577.0108 1709.3837 581.4151 1701.3145 576.7962 1692.9972 580.362 1682.179 589.4258 1679.383 605.3572 1681.9979 611.1555 1687.5949 613.8808 1702.6697 605.6851 1721.8492 596.7077 1721.292 585.1784 1729.845 574.8444 1744.9525 570.8714 1753.6984 559.4698 1763.0968 546.5625 1766.8387 546.9877 1749.7379 Z M 497.1272 1250.4666 500.6007 1239.2001 510.8925 1226.5494 526.2148 1231.5667 537.246 1243.6014 539.3053 1263.1148 534.7825 1274.2777 529.9999 1279.489 517.8009 1288.2022 499.9185 1273.1604 497.1272 1250.4666 Z M 495.5159 2947.1197 503.1776 2946.0682 532.1388 2946.8704 542.8626 2945.9368 555.8 2952.6308 556.8877 2961.3916 550.5619 2968.123 542.3203 2971.3128 525.8334 2971.1117 504.3023 2972.5369 495.1852 2959.0874 495.5159 2947.1197 Z M 333.3551 605.3561 339.4293 598.723 348.753 600.8018 352.2003 609.3652 349.2581 616.1286 342.5349 620.3337 333.6694 615.5621 333.3551 605.3561 Z M 214.8449 371.1551 220.9536 367.8295 227.958 369.9319 233.797 378.1069 226.7201 384.4739 217.4945 384.894 212.8979 376.5667 214.8449 371.1551 Z M 1 4.8838 6.5049 1 13.5465 4.1433 15.0845 11.1706 8.001 17.3911 2.0483 13.1249 1 4.8838 Z" id="fips-69085"/>
</g>
</svg>