<?xml version="1.0"?>
<svg xmlns="http://www.w3.org/2000/svg" version="1.2" baseProfile="tiny" width="800" height="1292" viewBox="0 0 800 1292" stroke-linecap="round" stroke-linejoin="round">
<g id="cb_2018_us_county_5m">
<path d="M 619.3423 849.8007 626.8065 849.1926 649.7862 847.3508 660.1673 846.4542 691.5226 840.6244 705.8463 836.3763 725.8622 830.3352 726.0494 835.3305 726.4427 841.6768 726.4685 841.793 727.1973 857.8771 728.2061 876.1442 728.4318 882.6503 728.4325 882.6692 729.7178 902.3938 729.7802 903.021 731.6076 935.4586 731.9899 940.4318 732.1754 946.33 732.5809 952.6339 690.1393 953.5212 643.1966 954.0549 619.9983 954.2873 619.4552 860.581 619.3423 849.8007 Z" id="fips-28153"/>
<path d="M 740.4398 1.4753 763.5098 1.2165 764.4474 1.1801 776.2114 1 776.5029 2.1821 779.0577 6.4947 780.719 8.4591 781.585 9.768 782.4905 11.7062 784.8779 17.4825 786.4501 20.4147 788.2963 22.5295 789.7642 23.7752 790.436 24.31 793.0107 25.7057 798.5296 27.7969 799 28.2955 797.2134 49.8387 795.5384 67.3087 795.1918 73.1921 794.3182 80.9352 792.121 100.3799 791.276 109.3247 791.1658 109.7055 791.0271 111.3346 787.9111 143.0272 749.8297 143.4392 749.0637 112.2415 748.5252 69.4344 744.6586 69.4418 744.5962 65.5751 740.8409 65.5545 740.647 53.8556 740.4398 1.4753 Z" id="fips-28141"/>
<path d="M 547.8908 167.5885 571.3692 167.3445 617.8991 167.2411 617.9978 171.0437 640.8427 170.9405 640.841 186.0359 640.8972 189.9478 641.2152 213.3354 641.4376 228.8699 641.4969 236.8038 641.5725 248.349 586.1978 248.8781 571.9406 249.0139 548.6402 249.1623 548.3143 225.8584 548.1117 202.4965 547.9244 179.7442 547.8908 167.5885 Z" id="fips-28115"/>
<path d="M 532.6206 649.3303 533.7486 649.32 610.4713 648.7171 612.9009 648.8778 624.5026 648.7252 624.4682 672.9227 625.3076 742.983 579.2357 743.3183 563.8299 743.4394 532.8935 743.6423 532.8543 727.9767 532.6206 649.3303 Z" id="fips-28101"/>
<path d="M 388.4499 966.2132 419.3814 966.4068 419.1932 954.633 454.1368 954.7313 457.9573 954.7403 458.0521 994.9899 458.0069 1009.2567 458.0518 1013.9393 458.0635 1036.4992 457.9992 1069.9495 441.026 1069.998 441.0256 1069.9629 440.6894 1069.5631 440.0281 1069.3212 437.894 1069.6908 437.1164 1070.0077 436.6546 1070.5597 436.2056 1070.7273 435.6807 1070.6908 435.5314 1070.559 435.4152 1070.1128 420.8058 1070.0335 418.9304 1070.037 416.4282 1070.0331 416.3444 1070.0329 416.3839 1050.5705 396.9144 1050.5962 396.9171 1046.6887 394.9657 1046.7044 394.9758 1040.8446 392.9804 1040.8418 393.0099 1035.0213 377.5118 1035.1485 377.5022 1023.5812 371.6137 1023.5284 371.669 1009.8743 369.7293 1007.9798 369.762 997.846 369.8035 980.7052 369.8539 965.0353 384.5837 965.1072 388.4499 966.2132 Z" id="fips-28091"/>
<path d="M 532.8935 743.6423 563.8299 743.4394 579.2357 743.3183 625.3076 742.983 625.5858 773.905 625.8349 789.6928 626.2671 812.8254 626.3537 820.4056 626.8065 849.1926 619.3423 849.8007 588.4481 852.2053 587.6912 852.262 561.5008 854.2099 546.4144 855.3462 534.6334 856.2257 534.4537 836.9319 533.5178 833.0768 532.8935 743.6423 Z" id="fips-28061"/>
<path d="M 396.6404 225.1226 443.0821 225.4081 443.1713 217.6533 486.0888 218.0521 489.9422 218.0586 489.8852 225.7725 490.4638 263.5812 490.5291 304.4732 443.9417 304.5798 432.4664 304.5191 432.4206 296.5572 397.6436 296.2753 397.7398 253.6221 397.9476 231.47 396.6404 225.1226 Z" id="fips-28161"/>
<path d="M 639.872 2.5983 647.8468 2.5091 707.4624 1.7645 717.1652 1.6289 717.1817 1.6236 736.7244 1.5149 740.4398 1.4753 740.647 53.8556 740.8409 65.5545 667.1958 66.0297 663.3489 66.0541 655.7631 66.0721 655.5422 38.8859 640.0827 39.0514 639.9157 14.566 639.872 2.5983 Z" id="fips-28003"/>
<path d="M 523.9446 3.4955 553.5487 3.2301 557.7397 3.2778 566.8159 3.3859 570.6877 3.2656 570.7181 3.2593 595.3325 2.9591 597.3929 2.9496 597.5324 39.3213 593.7047 39.3336 593.704 50.9497 582.138 51.0019 582.3723 108.9655 570.8122 109.1198 547.8147 109.2973 547.8228 113.1342 536.2322 113.2584 535.9998 76.2923 535.8201 49.7758 535.7879 43.4315 524.0604 43.4635 523.9679 24.0196 523.9579 16.2322 523.9446 3.4955 Z" id="fips-28009"/>
<path d="M 350.6961 343.2115 350.871 319.7899 382.076 319.8058 385.9773 319.8158 386.0112 316.0113 397.5483 316.0719 397.6436 296.2753 432.4206 296.5572 432.4664 304.5191 443.9417 304.5798 490.5291 304.4732 490.6338 343.3846 490.7093 355.1969 440.1167 355.4044 428.4436 355.4369 408.1075 355.4552 352.6444 355.1606 350.5907 355.1546 350.6961 343.2115 Z" id="fips-28043"/>
<path d="M 440.8291 633.9993 440.9407 566.9721 440.9181 554.9874 464.9749 554.9327 469.926 554.8312 479.1778 554.7628 533.092 554.4109 533.608 629.8853 533.7486 649.32 532.6206 649.3303 522.2991 649.3902 498.9593 649.4199 440.8527 649.2247 440.8291 633.9993 Z" id="fips-28079"/>
<path d="M 583.961 393.4626 583.9595 385.7579 595.6676 385.6616 599.4669 385.6497 614.7783 384.9572 654.6784 384.4257 662.4959 384.3573 668.9256 385.8928 672.1766 384.2686 676.7339 384.2519 676.9449 400.0053 677.0993 411.6078 677.3979 427.2809 677.9847 458.5778 645.8302 458.9882 626.3478 459.1532 626.0898 459.1639 611.6785 459.3194 594.3244 459.414 584.364 459.5095 584.0427 416.809 583.9638 393.6453 583.961 393.4626 Z" id="fips-28105"/>
<path d="M 533.092 554.4109 566.8858 554.1905 600.6946 554.1877 612.457 555.3838 620.2761 557.2914 620.2526 555.3048 622.464 555.3088 623.8715 555.2998 623.9845 570.9531 624.0182 573.0422 624.0065 587.5584 624.5026 648.7252 612.9009 648.8778 610.4713 648.7171 533.7486 649.32 533.608 629.8853 533.092 554.4109 Z" id="fips-28099"/>
<path d="M 489.8852 225.7725 548.3143 225.8584 548.6402 249.1623 571.9406 249.0139 572.5779 318.9956 560.9977 319.1652 560.6992 338.6982 560.6872 343.0915 515.8555 343.3618 490.6338 343.3846 490.5291 304.4732 490.4638 263.5812 489.8852 225.7725 Z" id="fips-28013"/>
<path d="M 643.1966 954.0549 690.1393 953.5212 732.5809 952.6339 732.831 956.5203 732.8262 956.6243 733.8098 973.9566 733.8163 973.987 735.3251 997.5405 735.5812 1001.5365 735.5525 1003.0751 735.7742 1007.2516 735.8022 1007.5697 737.537 1038.4734 739.29 1068.684 739.3106 1068.9349 739.3375 1069.4372 707.6605 1069.776 645.7417 1070.4275 644.2317 1070.3251 643.633 998.3739 643.1966 954.0549 Z" id="fips-28041"/>
<path d="M 702.9347 143.5234 710.681 143.3937 728.9245 143.2894 743.8272 143.376 749.8297 143.4392 787.9111 143.0272 786.1685 164.4506 786.1162 165.0326 784.6474 181.0463 784.2278 186.0963 784.0346 188.3197 783.9929 188.7528 782.158 207.8214 782.0097 212.1442 781.3905 216.0677 781.1267 220.0176 779.5701 235.9083 778.8882 243.7703 710.9498 243.9375 703.7539 244.0136 703.5932 236.1704 703.4384 224.3945 703.0616 205.3163 702.9187 193.9363 703.2867 177.5187 703.0251 152.2762 702.9347 143.5234 Z" id="fips-28057"/>
<path d="M 253.9603 976.3859 271.8807 976.5444 319.6328 976.6621 319.4484 997.7505 319.4359 1000.0357 319.3396 1023.2797 319.3718 1030.9155 319.3142 1070.0493 299.5141 1070.0071 299.2339 1070.0064 299.2314 1070.0064 294.1631 1069.9792 291.6053 1070.0856 282.0822 1070.0352 280.9984 1070.0365 278.5931 1070.0312 277.5914 1070.024 277.4187 1070.0246 274.1786 1069.9913 270.1784 1069.9496 269.7582 1069.9618 269.4476 1069.9656 267.48 1069.9441 267.2799 1069.9551 253.3406 1069.8339 253.423 1054.1334 253.5816 1027.1019 253.6657 1015.4029 253.6448 1010.0938 253.9603 976.3859 Z" id="fips-28113"/>
<path d="M 504.1476 954.6355 515.0327 954.6137 516.1029 954.6095 534.2089 954.5546 538.9362 954.5114 573.8032 954.3948 573.9109 978.1908 574.3185 1070.2177 576.1562 1070.2788 576.3112 1094.3982 568.721 1094.4355 562.3919 1094.4494 529.8101 1094.5716 529.7652 1070.2345 527.869 1067.7462 527.7956 1048.4784 527.7724 1026.0953 527.9282 1001.2874 527.8775 983.7094 527.8676 977.9072 526.7767 977.9462 516.202 977.9813 504.315 978.0489 504.3225 974.1065 504.1476 954.6355 Z" id="fips-28035"/>
<path d="M 645.8302 458.9882 677.9847 458.5778 759.4157 457.3071 757.8345 475.3362 757.2914 480.0461 756.9324 485.1813 754.2222 514.8763 754.2079 515.0462 752.3701 536.7919 750.9141 553.4103 646.665 555.2971 646.6588 554.9201 646.2587 526.2009 646.1049 511.683 646.0468 489.1573 645.8302 458.9882 Z" id="fips-28103"/>
<path d="M 210.8725 393.5324 210.9523 385.9554 211.097 374.7328 211.1292 370.3496 234.4346 370.5547 234.6544 351.0915 234.646 347.1019 234.8906 325.6921 235.1589 307.3253 235.7807 271.3618 281.4098 272.2548 281.3573 292.8463 280.9093 318.8159 280.7539 346.2695 279.5658 447.5627 256.7247 447.461 256.6652 463.1314 220.6854 462.933 210.0772 462.7372 210.2903 435.3784 210.4167 415.8911 211.434 394.3256 210.8725 393.5324 Z" id="fips-28133"/>
<path d="M 281.4098 272.2548 281.5976 248.9499 305.6766 249.177 317.3424 249.2167 351.3769 249.3776 351.5391 226.0918 355.1407 226.1129 390.6464 226.3748 396.6404 225.1226 397.9476 231.47 397.7398 253.6221 397.6436 296.2753 397.5483 316.0719 386.0112 316.0113 385.9773 319.8158 382.076 319.8058 350.871 319.7899 350.6961 343.2115 332.106 342.9933 327.8699 338.9298 325.0291 340.7655 324.1385 345.009 321.2512 349.5894 314.3751 349.3245 311.3511 341.9056 315.6944 335.1902 329.2036 331.3907 330.5441 333.0576 335.7668 333.0408 339.9083 331.4407 343.0856 325.0025 340.6378 319.7405 331.4731 319.5498 280.9093 318.8159 281.3573 292.8463 281.4098 272.2548 Z" id="fips-28135"/>
<path d="M 293.6761 155.3135 315.1985 155.2571 314.8006 132.5325 338.093 132.2714 338.9788 177.8982 338.7755 188.2787 351.7789 197.7418 351.7752 208.4751 351.5391 226.0918 351.3769 249.3776 317.3424 249.2167 305.6766 249.177 281.5976 248.9499 281.8269 227.3823 281.9523 208.7805 282.0824 198.3413 293.4656 198.6583 293.4305 179.0645 294.1084 155.6365 293.6761 155.3135 Z" id="fips-28119"/>
<path d="M 440.8291 633.9993 440.8527 649.2247 498.9593 649.4199 522.2991 649.3902 532.6206 649.3303 532.8543 727.9767 532.8935 743.6423 447.2368 743.6824 440.7255 744.1378 440.8239 728.0589 440.8312 709.2163 433.1203 668.8939 428.7034 646.6365 431.6831 641.4938 440.8291 633.9993 Z" id="fips-28123"/>
<path d="M 278.7575 649.4876 283.7925 646.3385 288.9277 649.3122 298.2295 641.7298 302.2053 639.0264 304.2526 641.0889 307.624 638.3564 311.7394 630.6543 315.1499 631.5434 317.6705 626.5945 325.1189 627.11 329.2669 624.5949 329.7727 626.5098 335.6897 625.7789 341.0987 621.5041 354.2116 614.9852 357.7984 616.1487 359.1552 614.1893 363.1289 608.3532 370.6986 604.4769 372.9547 600.2658 376.4031 588.5821 376.3953 582.3187 380.7345 581.0724 388.0106 568.3457 416.1666 566.8521 440.9407 566.9721 440.8291 633.9993 431.6831 641.4938 428.7034 646.6365 419.0749 647.237 416.1295 644.9068 410.9157 649.5795 410.7516 651.2981 410.0415 652.5812 408.21 653.9905 405.6827 652.92 403.4625 658.8201 397.3388 662.0684 395.4931 666.495 393.6115 666.1138 388.8886 672.0757 376.8938 675.0487 375.8114 676.7573 370.8067 685.2985 364.623 686.0962 365.7695 691.0771 362.9384 691.4423 365.1176 696.5397 360.5619 696.5367 352.0796 696.5067 349.6086 696.4847 348.1913 696.4818 343.8021 696.2486 340.106 696.2415 324.946 696.1989 325.1023 672.8363 324.0992 672.819 316.936 672.7625 300.2011 672.6291 291.1568 672.5759 278.6264 672.3037 278.7575 649.4876 Z" id="fips-28089"/>
<path d="M 306.6755 454.8741 311.6383 450.2065 312.4687 452.9258 316.7739 452.3038 318.3378 445.1436 314.9363 439.1716 309.0756 438.0973 309.0945 435.5911 341.7709 446.9079 396.9916 465.775 399.6925 466.6928 405.3563 468.6159 436.6601 478.9508 436.8537 479.7326 434.4228 484.1249 430.5613 484.4695 431.0968 488.9943 429.0688 492.8666 426.6954 493.6369 426.7065 501.321 423.9198 506.0825 419.7529 506.7889 420.9891 509.4898 419.2517 512.4554 419.8872 519.0998 417.8197 519.57 417.1484 525.5504 408.7957 535.949 406.3464 543.3927 403.6431 554.2166 388.0106 568.3457 342.2551 548.9821 341.4205 548.6248 304.6588 533.07 302.9143 529.7844 300.9491 532.5518 298.9032 532.9081 294.7179 528.7896 295.4379 524.4735 292.8322 522.3404 287.4598 522.5729 284.2704 519.3399 283.8541 510.0044 286.9101 505.0124 287.3758 507.8545 292.4914 508.5108 294.362 512.3723 297.0366 513.2619 298.7363 510.2111 294.1059 505.5645 298.0307 502.2079 300.117 510.6088 302.8774 508.7266 301.0063 505.5202 302.9496 500.4883 306.6151 499.6227 306.7205 485.9072 306.6755 454.8741 Z" id="fips-28051"/>
<path d="M 571.9406 249.0139 586.1978 248.8781 641.5725 248.349 664.9341 248.2684 664.861 253.9375 665.351 318.5771 618.465 318.6653 618.479 334.1773 595.56 334.3644 595.6453 338.2981 560.6992 338.6982 560.9977 319.1652 572.5779 318.9956 571.9406 249.0139 Z" id="fips-28017"/>
<path d="M 547.8104 136.5298 547.8228 113.1342 547.8147 109.2973 570.8122 109.1198 582.3723 108.9655 655.0221 108.9206 660.0239 108.8919 660.002 119.5651 660.0114 132.2807 660.0007 136.0878 648.3799 136.1124 648.5382 163.1509 640.7437 163.1596 640.8427 170.9405 617.9978 171.0437 617.8991 167.2411 571.3692 167.3445 547.8908 167.5885 547.8104 136.5298 Z" id="fips-28145"/>
<path d="M 292.6196 46.0273 294.0185 45.4213 298.819 42.6171 304.8984 40.7178 305.7693 40.2117 307.4974 38.8226 309.2552 40.9238 311.2683 42.5758 312.1139 42.9916 313.8421 43.1708 314.7069 42.6495 315.4687 41.5001 315.7549 40.4741 315.7905 39.9123 315.5385 39.0474 315.3818 38.8102 337.8087 38.9938 337.6192 62.4714 338.0344 75.2994 333.1674 77.5849 331.152 82.1835 333.5363 84.4855 332.5247 89.0143 334.3777 95.9884 329.148 101.4714 328.253 108.581 330.4146 108.216 333.8046 119.2918 338.1342 120.6975 338.093 132.2714 314.8006 132.5325 315.1985 155.2571 293.6761 155.3135 256.4866 128.0315 259.5985 126.4169 261.7159 124.6351 262.1832 123.9372 262.7122 122.6188 262.8388 121.8843 262.7979 121.1447 261.7401 117.823 261.0138 116.5232 259.182 114.15 257.6117 112.6215 256.4649 111.3151 255.4602 109.227 253.9634 106.8146 252.7754 103.7316 252.5756 100.8231 253.6704 96.8873 253.766 96.5437 253.7533 96.2949 253.3348 95.3667 253.0593 94.1313 252.8763 90.4661 252.6177 89.5989 252.6492 88.9804 254.0811 86.5168 254.8064 85.5593 256.0515 84.8808 260.5355 84.3994 263.4181 89.0888 261.0385 91.0603 260.4838 92.0539 260.1825 93.3036 259.9106 95.6466 260.1121 97.0811 260.6222 98.257 261.5224 99.554 262.3788 100.1212 263.8104 100.6117 264.904 100.6956 266.6007 100.4379 268.214 99.8037 270.2205 98.2832 271.3374 97.1951 272.7654 95.2497 274.7033 93.4586 276.5104 92.1232 278.7059 89.6026 279.547 88.3069 280.2766 85.7054 280.3421 84.7707 280.0899 83.8296 279.3682 82.609 278.4703 81.688 277.5935 81.2112 276.5303 81.019 275.0091 81.0173 272.9015 81.2408 269.9753 81.905 267.2841 82.2566 265.719 82.1866 263.579 81.6444 262.0318 80.7521 257.774 75.6481 257.3763 75.0468 257.2484 74.6425 257.2347 73.9528 257.454 72.3313 257.8573 71.5141 258.2781 70.9476 259.0844 70.3892 259.8737 70.1948 260.56 70.1015 261.1992 69.8687 261.7909 69.4563 262.1866 69.0425 262.6356 68.1522 262.8885 67.26 262.9303 64.1172 262.1628 61.6949 261.8179 60.1563 261.756 59.4358 261.8849 58.7161 262.6783 56.9684 263.5328 55.7447 264.3538 55.0028 265.4949 54.4749 267.35 54.0413 269.1448 54.1886 269.5595 55.6019 271.5152 59.9842 271.9763 61.4141 272.0843 62.3785 272.0088 62.7133 271.0817 64.138 268.647 65.7834 267.7501 67.0966 267.4438 68.4093 267.4324 69.7247 267.6178 71.0414 268.1944 72.6008 268.9738 73.4441 271.8311 74.9144 274.6412 75.0715 276.6553 74.8036 278.8137 74.2229 281.4497 72.6631 282.11 71.9708 282.6657 70.8158 282.9437 69.5929 282.9698 68.7114 282.5715 67.2223 281.3117 64.298 278.8174 59.8435 278.1509 57.7133 277.9271 56.546 278.0949 55.159 278.4541 54.076 278.8405 53.3924 279.9882 51.9175 281.3879 50.9006 281.897 49.3143 281.8652 48.5162 280.3854 45.4235 278.0908 41.5148 276.4532 39.2831 276.0399 38.3378 275.8026 36.2214 275.9207 34.6619 276.0544 34.1075 276.9658 32.489 277.8899 31.6828 279.9891 30.4495 281.3795 30.2046 282.6714 30.4343 284.6613 31.2845 285.4363 31.7391 286.0772 32.2063 286.4574 32.7031 287.8506 35.7891 288.0869 36.8706 288.053 37.426 287.4687 39.0704 287.4565 40.1015 287.6442 41.7235 288.0833 43.7513 289.1385 45.5731 289.4708 45.8241 291.1099 46.3243 292.031 46.2822 292.6196 46.0273 Z" id="fips-28143"/>
<path d="M 515.4097 857.6761 534.6334 856.2257 546.4144 855.3462 561.5008 854.2099 587.6912 852.262 588.4481 852.2053 619.3423 849.8007 619.4552 860.581 619.9983 954.2873 604.0524 954.3515 573.8032 954.3948 538.9362 954.5114 534.2089 954.5546 516.1029 954.6095 515.4097 857.6761 Z" id="fips-28067"/>
<path d="M 175.6044 532.5402 175.8628 508.5682 187.2176 508.6758 187.4036 509.3198 223.4455 509.385 233.2484 509.4208 233.1232 555.9161 209.7552 578.8648 209.721 584.6784 213.8881 586.0238 217.8724 583.4588 224.3956 584.5807 220.9591 586.6958 219.5851 591.231 221.2925 594.4749 225.2849 597.6952 224.5126 600.7831 218.9759 602.4129 214.8419 600.2326 213.3057 607.3707 219.7422 613.2911 224.3405 613.5476 230.7848 618.2577 229.4632 623.4688 226.2754 624.997 223.7606 619.2615 220.9801 617.8445 217.5022 625.343 163.1438 624.5553 164.0636 577.6816 165.7554 573.7856 169.3415 571.3807 169.4237 565.0298 172.0752 559.1777 175.4682 549.5069 175.6044 532.5402 Z" id="fips-28125"/>
<path d="M 640.8427 170.9405 640.7437 163.1596 648.5382 163.1509 648.3799 136.1124 660.0007 136.0878 660.0114 132.2807 702.8782 131.7944 702.9347 143.5234 703.0251 152.2762 703.2867 177.5187 702.9187 193.9363 703.0616 205.3163 703.4384 224.3945 703.5932 236.1704 703.7539 244.0136 679.4523 244.2062 675.0418 244.2702 664.9577 244.3094 664.9341 248.2684 641.5725 248.349 641.4969 236.8038 641.4376 228.8699 641.2152 213.3354 640.8972 189.9478 640.841 186.0359 640.8427 170.9405 Z" id="fips-28081"/>
<path d="M 721.989 1278.2686 726.2067 1277.6364 732.4557 1280.4985 735.2766 1280.9354 736.2428 1280.731 737.6184 1280.44 741.0022 1278.6419 745.5664 1277.5336 746.5125 1280.8906 740.8309 1284.5072 736.4437 1285.2897 735.2076 1285.51 725.7984 1283.6211 722.4888 1281.3118 721.989 1278.2686 Z M 661.6011 1271.237 669.6979 1269.1646 674.7327 1268.0656 680.8476 1269.8858 685.6749 1271.6446 688.3793 1272.6294 699.3074 1274.5169 704.2653 1277.8841 698.7572 1278.5085 691.1223 1277.6443 685.5921 1277.083 684.7803 1277.0005 674.7754 1273.2226 668.6845 1274.4482 665.0477 1274.4793 662.4594 1273.5632 661.6011 1271.237 Z M 634.7303 1140.5898 645.1598 1140.4049 646.3807 1140.8638 686.0538 1140.3945 712.0719 1140.0631 743.1385 1139.5583 743.1913 1140.5796 743.2094 1140.9469 743.4125 1145.6019 743.4805 1147.3696 743.9982 1157.4059 744.4373 1165.8827 744.5929 1167.3008 744.6143 1169.6819 745.0509 1178.4826 745.4462 1186.4489 745.643 1190.4127 745.6669 1190.8667 745.7857 1193.6048 746.1426 1199.5416 748.2349 1237.2805 747.73 1237.75 747.3297 1239.6091 747.8038 1241.1946 748.4865 1241.7985 748.5351 1242.6486 746.8896 1243.9831 744.8799 1244.6121 742.7973 1241.4869 739.3188 1241.3294 736.433 1243.2045 736.4317 1245.8964 734.7979 1248.063 730.6591 1250.6743 728.7631 1251.1426 723.0619 1250.3702 722.731 1250.1279 722.6925 1248.792 718.9322 1245.4433 715.7604 1244.6207 708.521 1248.3654 705.2512 1247.9963 701.0184 1241.2272 698.0288 1241.9539 692.3726 1240.4517 692.3224 1240.4384 686.295 1239.8945 677.8607 1244.8873 671.3364 1245.217 667.1634 1243.9312 666.6742 1243.5319 661.409 1239.2324 652.1785 1234.1001 651.5755 1236.5534 649.0301 1234.499 647.0489 1231.6733 644.204 1228.6228 640.5442 1225.9893 635.6337 1225.1773 635.4987 1215.7515 635.1863 1187.216 634.8376 1156.158 634.7303 1140.5898 Z" id="fips-28059"/>
<path d="M 15.6833 1015.5375 18.9863 1006.6916 22.4932 1003.7816 26.9884 1003.1294 29.3583 1005.3068 29.3438 1009.4504 34.6094 1006.5681 39.2368 1006.2493 41.1735 1003.2028 41.6076 997.6328 37.0998 993.1371 37.7054 991.0311 43.1454 990.7847 43.8937 981.7237 54.0098 983.1047 56.549 980.7884 61.4149 980.6192 63.1665 977.8108 67.185 977.7418 69.7965 975.736 72.8957 976.7347 75.4153 973.6375 81.054 971.2984 86.3535 972.2042 88.7064 969.4443 92.2635 971.6666 98.2435 968.2715 102.3058 972.6248 108.2524 974.8003 114.7916 975.5846 123.8649 982.7593 129.0174 982.6531 132.455 991.3021 137.0835 993.1946 136.9866 1002.8635 135.9555 1068.7696 134.1106 1068.7539 131.2383 1068.7184 124.9872 1068.6475 124.9467 1068.6408 109.4126 1068.3527 109.3967 1068.3524 98.439 1068.1825 98.2625 1068.1799 93.3065 1068.0284 58.9571 1067.5999 52.7513 1067.5173 52.2642 1067.503 35.8634 1067.2241 35.238 1067.2974 26.4022 1066.956 6.625 1066.6559 3.9196 1066.539 6.6544 1064.9983 10.9456 1063.517 14.6421 1061.9675 17.4312 1060.2123 18.9951 1058.7041 20.7073 1056.2818 21.4648 1054.356 21.6782 1053.4828 21.8041 1052.2533 21.5204 1050.4351 20.8917 1048.8413 20.107 1047.9306 14.0198 1042.1412 10.6759 1039.3781 9.4909 1038.6083 8.6345 1037.7987 7.9704 1037.004 6.9824 1035.212 6.8828 1034.6147 7.1043 1032.044 7.2538 1031.2143 7.4685 1030.7241 8.0654 1029.896 12.1426 1025.2493 13.1867 1023.9201 13.8151 1022.8897 15.1306 1020.3421 15.7173 1018.892 15.8089 1018.242 15.7902 1016.1221 15.6833 1015.5375 Z" id="fips-28157"/>
<path d="M 533.233 507.0573 556.4945 506.8299 556.5001 495.0994 556.5067 483.2785 575.4041 483.1461 579.8758 483.0316 579.756 459.5513 584.364 459.5095 594.3244 459.414 611.6785 459.3194 626.0898 459.1639 626.3478 459.1532 645.8302 458.9882 646.0468 489.1573 646.1049 511.683 646.2587 526.2009 646.6588 554.9201 646.665 555.2971 625.2071 555.237 623.8715 555.2998 622.464 555.3088 620.2526 555.3048 620.2761 557.2914 612.457 555.3838 600.6946 554.1877 566.8858 554.1905 533.092 554.4109 533.1879 518.6591 533.233 507.0573 Z" id="fips-28159"/>
<path d="M 597.3929 2.9496 617.5052 2.8474 625.8778 2.5143 633.7463 2.6649 639.872 2.5983 639.9157 14.566 640.0827 39.0514 655.5422 38.8859 655.7631 66.0721 663.3489 66.0541 663.9047 108.8609 660.0239 108.8919 655.0221 108.9206 582.3723 108.9655 582.138 51.0019 593.704 50.9497 593.7047 39.3336 597.5324 39.3213 597.3929 2.9496 Z" id="fips-28139"/>
<path d="M 413.2803 1159.785 413.6062 1158.7004 414.1222 1157.4588 416.0062 1153.2208 416.3095 1153.063 416.2281 1150.8226 415.7207 1149.6251 415.4342 1149.596 414.8781 1149.977 414.4472 1150.0301 413.9147 1149.5896 413.7663 1149.0414 413.9448 1148.7466 416.1413 1146.3815 417.1278 1146.597 417.5649 1146.3504 418.0277 1144.0257 416.879 1143.5589 416.129 1143.4407 415.9884 1143.1723 416.0084 1141.4472 416.2545 1141.129 416.3382 1141.0207 416.7104 1140.8312 418.4656 1140.935 419.5313 1140.9303 420.4628 1140.7483 420.6884 1140.5774 420.7863 1140.1984 420.6283 1140.0085 419.9892 1139.8487 419.0835 1139.7626 418.4959 1139.4054 418.562 1138.0748 418.0816 1135.1059 417.2471 1132.6501 418.8917 1129.4429 419.6447 1127.0459 419.564 1126.3584 419.6582 1126.0007 420.0986 1125.2787 420.4673 1125.0589 420.7292 1125.0593 421.2958 1125.6669 421.3894 1126.1336 421.601 1126.7105 421.7184 1127.095 422.0486 1127.2052 422.9428 1126.928 423.3235 1126.5207 423.4182 1126.2463 423.3715 1125.9992 423.0651 1125.7793 422.8738 1125.6356 422.523 1125.3667 422.0047 1124.7073 421.8636 1124.5424 421.9346 1124.2954 422.1709 1124.0487 422.6226 1123.8582 423.4367 1123.3388 423.5671 1123.1425 424.4057 1121.2266 424.5792 1119.9591 424.4943 1118.9158 424.815 1118.4417 425.0821 1118.2757 425.2788 1118.2305 426.4003 1118.5688 427.7415 1119.7522 428.543 1119.2156 428.8273 1118.6422 428.1831 1116.702 427.5297 1115.8314 426.9356 1115.8766 426.705 1115.7388 426.6197 1115.4326 426.7786 1113.8699 427.3818 1112.2338 428.4951 1111.9275 428.9652 1111.8629 429.0508 1111.6688 428.8865 1111.0525 428.2352 1110.0932 428.0923 1109.6623 428.1714 1109.2548 428.3297 1109.0542 428.7293 1108.8968 429.3915 1109.1147 430.312 1109.7957 430.8057 1109.6878 431.0044 1109.4164 431.871 1106.9654 431.9095 1106.5063 431.807 1106.2885 429.5687 1104.4115 429.2965 1103.9374 429.4377 1102.9446 429.7761 1102.3614 430.1551 1102.2526 431.4008 1102.0518 430.948 1099.9184 430.5963 1098.1495 430.7008 1097.7554 430.9562 1097.5449 431.35 1097.4751 432.5342 1098.1363 433.543 1098.301 433.9977 1098.0309 434.3867 1097.5965 434.4681 1097.0298 433.7513 1095.6545 433.341 1095.5539 432.8761 1095.2487 432.6867 1094.5691 432.7443 1094.1338 433.112 1093.6454 433.8452 1093.2728 434.3005 1093.3109 435.0636 1093.8973 435.9836 1093.8634 436.7534 1093.0962 437.1962 1092.2612 437.2747 1091.8222 437.1117 1091.3309 436.4134 1091.0757 435.9874 1089.3538 436.2682 1088.5525 436.2578 1088.2662 435.9887 1087.7651 434.669 1086.7544 434.5048 1086.1116 434.5558 1085.6979 435.7349 1083.5781 437.4789 1081.6985 437.5842 1081.2951 439.292 1079.539 439.6938 1079.4469 440.2756 1079.658 440.749 1079.6284 441.0437 1079.5549 441.2658 1079.3208 441.263 1078.7033 440.9663 1078.3201 439.2019 1077.4361 438.9587 1076.9992 439.0198 1076.7212 439.2424 1076.523 440.1002 1076.464 440.4824 1076.0319 440.6136 1075.3955 441.1269 1072.394 440.9289 1072.1089 440.1336 1072.1049 439.6318 1071.7859 439.3318 1070.6871 440.6007 1070.679 441.0301 1070.3569 441.026 1069.998 457.9992 1069.9495 468.0786 1069.9892 481.4038 1070.094 481.3602 1066.3436 485.7666 1066.3194 492.9674 1066.3115 492.96 1070.2017 498.7904 1070.2187 498.7796 1075.1498 510.3908 1075.2472 510.4966 1067.8587 527.869 1067.7462 529.7652 1070.2345 529.8101 1094.5716 529.8289 1108.5353 529.837 1151.9419 529.8603 1164.5924 483.2433 1164.5131 483.3681 1181.2464 483.2143 1199.6289 471.3908 1199.5832 470.6375 1203.4807 459.6054 1203.4136 459.632 1215.1209 449.7696 1215.0167 449.6953 1214.9155 448.3685 1213.9506 447.0017 1213.4571 446.1414 1211.525 445.2179 1210.0552 445.0768 1209.9336 444.5404 1210.1464 443.7591 1210.0693 442.8926 1208.6353 442.5414 1207.182 441.7514 1206.3019 441.3969 1206.126 439.4492 1205.5471 437.6582 1204.8534 437.5618 1204.4827 436.7294 1203.4366 435.2338 1203.4689 434.0368 1202.6905 433.9352 1202.5468 433.8709 1200.6456 433.4784 1199.9245 431.7372 1200.1206 431.3102 1198.2841 431.1396 1196.7024 430.9334 1196.0533 430.0814 1193.7563 429.1141 1192.2874 428.9575 1192.2172 428.0948 1192.3583 427.0483 1192.2531 426.4723 1192.097 425.8346 1191.8588 425.4858 1191.6906 425.4739 1191.4532 425.5102 1191.2717 425.7961 1191.2318 426.2631 1191.0975 426.3321 1190.367 425.6738 1189.0231 423.7744 1188.6603 423.535 1188.397 423.5227 1187.9449 423.766 1187.3316 424.0743 1187.112 424.3543 1187.1145 425.1774 1187.6435 426.1596 1187.2792 426.7015 1186.6802 426.79 1186.3473 426.647 1186.0951 425.6866 1185.5253 424.4322 1185.6043 423.5561 1185.9243 422.9971 1186.0851 422.5728 1185.963 422.5369 1185.7501 422.8466 1184.8843 422.185 1181.4988 422.4327 1181.3378 422.6401 1181.2028 422.7888 1180.7993 421.6423 1179.6932 420.6563 1179.6455 420.1665 1179.3665 419.866 1178.6579 419.8992 1178.2721 420.4744 1177.1766 421.0834 1175.7726 421.2318 1175.3539 420.8964 1175.1277 420.5457 1175.1128 419.5376 1175.5091 419.0799 1175.2147 419.2868 1173.5508 419.6381 1172.5388 419.5108 1172.1218 419.0896 1171.3232 420.285 1168.33 419.4183 1165.6569 418.7036 1164.2141 416.8048 1162.0498 416.1643 1162.107 415.0291 1161.78 412.5247 1161.0588 412.4395 1160.5953 412.8341 1160.1028 413.2184 1159.9911 413.2803 1159.785 Z" id="fips-28109"/>
<path d="M 212.1978 859.3633 213.0592 847.658 216.7779 843.7926 217.0195 827.8665 217.6651 808.2521 216.9688 789.3478 229.8555 789.444 231.2727 789.0576 293.04 789.5952 302.9414 789.7029 303.9825 789.7106 311.4824 789.7622 327.4762 789.8324 323.4664 794.6752 325.4299 797.894 329.5626 798.0793 326.8881 800.899 328.7735 804.0356 336.9128 816.6636 335.7926 815.6974 336.0473 818.098 334.5865 818.6795 339.0313 818.499 341.0203 825.1945 340.8925 828.7122 346.4495 831.8392 348.1017 836.5353 349.3937 841.4562 347.9403 843.8059 343.3929 845.1007 348.5609 851.5933 345.2052 856.6799 347.451 859.5008 354.2135 859.5539 354.9933 862.6514 350.1397 865.7747 351.5407 869.3172 349.5659 868.4086 345.7773 870.9827 344.2845 870.7633 337.5233 874.9204 323.6288 878.5711 320.4694 882.1891 308.4013 883.1603 292.94 883.0084 292.269 887.0266 286.1197 886.9386 285.2567 885.841 285.1844 882.8872 244.3019 883.1169 211.8424 882.7766 212.1978 859.3633 Z" id="fips-28029"/>
<path d="M 365.1176 696.5397 362.9384 691.4423 365.7695 691.0771 364.623 686.0962 370.8067 685.2985 375.8114 676.7573 376.8938 675.0487 388.8886 672.0757 393.6115 666.1138 395.4931 666.495 397.3388 662.0684 403.4625 658.8201 405.6827 652.92 408.21 653.9905 410.0415 652.5812 410.7516 651.2981 410.9157 649.5795 416.1295 644.9068 419.0749 647.237 428.7034 646.6365 433.1203 668.8939 440.8312 709.2163 440.8239 728.0589 440.7255 744.1378 440.582 744.1625 440.8267 779.2292 440.7744 790.8881 383.035 790.1669 335.9458 789.9075 327.4762 789.8324 326.1551 785.8285 328.3357 781.8132 323.6556 776.6301 325.1649 770.5859 323.5319 762.0393 324.8631 755.6272 327.1296 756.7335 335.695 752.9683 338.641 749.227 337.7845 744.5064 332.5571 740.1406 333.4224 735.8317 337.7731 733.5286 338.054 729.8965 339.2367 729.3902 339.7089 725.6215 341.9186 726.4044 345.6515 725.4439 344.5752 723.7555 343.1206 721.3721 345.3337 717.4987 347.7484 717.4137 355.1361 710.0943 358.7941 698.9955 361.552 697.644 365.1176 696.5397 Z" id="fips-28121"/>
<path d="M 440.7255 744.1378 447.2368 743.6824 532.8935 743.6423 533.5178 833.0768 534.4537 836.9319 534.6334 856.2257 515.4097 857.6761 458.2253 862.0765 457.89 861.2478 457.8584 810.2374 457.9061 799.8165 456.1711 790.8493 440.7744 790.8881 440.8267 779.2292 440.582 744.1625 440.7255 744.1378 Z" id="fips-28129"/>
<path d="M 352.6444 355.1606 408.1075 355.4552 428.4436 355.4369 428.7268 425.0241 444.201 424.9067 444.247 428.8344 447.9168 428.806 459.7097 428.7103 459.7617 438.3699 459.9436 459.9792 447.3825 460.0188 442.985 466.7557 436.6601 478.9508 405.3563 468.6159 399.6925 466.6928 396.9916 465.775 341.7709 446.9079 341.7693 436.004 341.8504 424.5644 350.0881 424.7497 350.187 413.3522 358.2585 413.4339 358.2942 374.7324 352.0036 374.683 356.9752 374.0538 358.141 359.5195 352.6444 355.1606 Z" id="fips-28015"/>
<path d="M 106.9315 383.6725 107.4722 382.8001 108.4553 382.0926 109.0494 381.8885 113.136 381.2558 114.2241 380.9235 116.3199 379.8412 118.093 378.452 118.7311 378.1707 119.2312 378.0814 122.6127 378.5614 123.3529 378.5665 124.5333 378.2228 127.62 376.0817 128.6071 375.1354 128.9711 374.4725 129.1723 373.8177 129.4516 372.0624 129.3686 370.7559 128.9299 369.3944 128.6256 368.4496 127.577 366.7927 125.0943 364.7926 122.0845 362.0073 120.5552 360.7863 118.98 359.8705 117.4014 359.1811 111.6783 357.7828 109.9641 356.9621 109.0986 356.07 108.3282 355.0243 107.9631 354.3079 107.8135 352.6445 108.0934 351.171 108.6853 349.9304 109.7529 348.5637 111.6618 347.1687 113.161 346.5039 114.2005 346.3278 116.5571 346.2751 119.7583 345.9856 121.9626 345.4781 122.7207 345.0328 123.0768 344.9695 126.7155 349.6967 129.0607 353.1512 129.7114 353.7662 136.2103 357.5886 137.7451 358.1973 139.0396 358.4724 139.9456 358.502 141.1985 358.262 143.7487 357.1188 145.5248 356.1508 147.4559 355.7317 148.3706 355.6881 150.5095 354.9027 151.0214 354.4546 151.7299 353.0947 151.993 352.1683 151.9992 350.5268 151.344 350.2492 150.7331 350.1504 150.5177 349.1339 150.1142 348.1433 149.6292 347.2451 148.4261 345.5247 146.4964 343.8499 145.543 343.2148 144.689 342.916 143.6828 342.7463 142.0978 343.2793 138.8534 345.1164 136.3495 345.7122 134.8939 345.78 132.6548 345.5721 130.9359 344.6297 129.4434 343.1485 126.7379 339.7556 126.5106 339.1857 126.3407 338.2396 126.3774 337.1588 127.1372 334.3271 126.8676 333.7363 126.8693 333.1301 127.5563 331.9774 127.7478 330.9707 127.6304 330.6751 127.1178 330.3313 126.8635 329.8198 126.8098 328.9256 127.5236 327.2042 128.0117 326.3301 128.5815 325.5884 129.369 324.8269 129.7419 324.6702 130.6218 324.6752 131.6726 325.0481 132.9109 325.8881 134.3022 327.0983 135.2146 328.166 139.3022 326.837 140.0785 326.6847 145.6309 326.4303 147.1086 326.1663 153.0731 330.2676 153.8474 330.4516 156.1885 330.0317 159.0165 328.868 160.4229 327.7006 161.0162 326.8558 161.4236 325.8496 161.6544 324.7961 161.4815 323.8625 160.9539 322.6319 159.1222 320.7514 157.4324 319.9171 154.7018 319.3863 153.5807 318.9695 149.771 317.0759 148.8033 316.3927 148.1874 315.4858 147.5103 314.0202 146.6681 312.7389 144.8596 310.5265 144.3095 309.633 143.5255 307.1923 143.1518 305.074 143.2172 303.7531 143.6579 302.6053 145.8346 299.7512 147.1716 298.2914 151.3598 294.2062 153.6755 291.7117 155.6882 288.7712 157.1851 287.0621 157.3656 286.6767 157.3122 286.0485 156.7294 285.2598 155.1724 283.9438 151.6803 282.1271 149.3082 281.1215 142.2925 279.2507 142.1805 279.1978 141.0598 278.6681 140.4775 278.1016 140.0596 277.2773 139.8353 276.0266 139.856 275.0339 140.0081 274.2526 140.2835 273.5398 141.349 272.3439 142.2285 271.7583 143.0926 271.3731 144.0206 271.1486 146.0028 271.012 149.0809 271.0539 150.3311 270.6073 151.0405 269.9524 152.3521 268.3595 155.6743 266.3111 156.8129 268.6383 158.6626 273.3329 159.0831 274.9703 159.705 276.1735 160.8571 277.0724 162.4449 277.7135 163.3942 277.8876 164.8344 277.8209 166.1703 277.4728 166.8896 277.0927 167.4386 276.5286 167.7712 275.9377 168.3534 273.6839 168.2941 272.6695 166.253 269.4544 164.8201 268.1893 164.2884 267.2337 162.5818 262.1545 163.7394 261.7867 165.0319 261.5715 166.4039 261.5124 169.1159 261.9108 170.9111 262.5825 172.6056 262.5422 174.3292 262.2392 176.8111 261.2322 177.1939 261.2172 178.8224 261.5922 182.1886 261.1214 183.7588 260.3212 184.5351 259.548 184.8855 258.8262 184.9872 258.1357 184.9133 256.8656 184.5659 255.1206 184.6808 253.5038 184.8652 252.7087 185.2043 251.8682 186.1589 250.4529 187.861 248.2985 188.4503 247.1509 188.7759 246.0449 188.7978 245.4513 188.4867 244.4024 187.4706 242.7187 186.9657 242.2689 186.1502 241.7139 184.9469 241.3808 183.7432 241.3708 182.0508 242.1866 179.1828 242.6633 178.2261 242.5723 177.5924 242.3232 172.1027 238.1388 171.6245 237.6267 170.2153 235.5514 170.0046 235.2411 204.646 235.5094 235.5809 236.289 235.0375 271.3551 235.7807 271.3618 235.1589 307.3253 234.8906 325.6921 234.646 347.1019 234.6544 351.0915 234.4346 370.5547 211.1292 370.3496 211.097 374.7328 210.9523 385.9554 210.8725 393.5324 197.6353 393.2593 188.0734 393.2839 164.5665 392.7666 110.1834 392.2576 109.3879 391.46 107.8588 389.0764 107.1013 387.5028 106.5768 385.9609 106.5419 384.7136 106.8037 383.8788 106.9315 383.6725 Z" id="fips-28011"/>
<path d="M 146.4534 770.9061 155.5386 775.6585 160.0476 776.3492 161.7412 773.5085 162.8947 777.5261 166.228 780.7693 171.8602 780.2144 172.8402 776.1171 170.4716 775.7105 171.1209 770.2759 174.3305 766.5613 179.9746 771.2644 188.2608 767.714 188.8182 764.9301 185.6154 763.5691 188.8658 759.4733 192.8687 760.2569 192.0335 763.2982 194.3679 765.3496 198.0115 761.3007 200.4922 763.5003 204.4623 760.9912 203.1835 756.1976 201.076 755.4178 204.0372 750.4068 210.1029 749.5661 209.2347 747.0916 212.8182 747.2941 215.101 742.0954 216.9688 789.3478 217.6651 808.2521 217.0195 827.8665 216.7779 843.7926 213.0592 847.658 212.1978 859.3633 185.7685 859.27 188.6076 854.312 188.3083 848.3233 170.3843 843.7903 149.46 838.4111 96.2975 835.5354 99.3293 833.7062 101.1639 831.5311 105.3371 827.4898 106.1903 826.5136 106.7263 825.506 107.139 825.1914 107.9307 825.3365 108.7731 825.1082 109.0475 824.9519 109.4662 824.2098 109.8339 823.8677 111.2015 823.3797 111.7977 822.9073 111.6923 822.3447 110.8447 821.3438 111.1521 818.8367 110.9326 818.3258 109.4784 818.5453 109.0734 818.3257 109.0081 818.1377 109.8873 815.2913 110.0717 813.4769 110.0199 812.3271 110.2145 811.3947 111.025 810.1775 112.7308 808.1444 114.384 806.6183 115.7112 805.7019 126.3765 804.6488 129.4018 803.8084 131.2303 802.6309 132.609 801.2333 135.8836 796.8227 134.9784 796.4129 134.7972 795.037 134.4078 793.6423 134.0101 792.8887 133.1828 792.0762 131.5178 791.252 124.8346 789.7174 120.3195 788.6658 118.9031 787.9244 117.8064 787.0004 117.2074 786.1101 116.7008 785.0875 116.552 784.3906 116.5632 783.5893 116.6627 782.9494 116.9667 782.259 118.0046 780.8841 119.606 779.6775 120.4478 779.3687 121.7622 779.2802 122.7529 779.6682 124.1649 780.7032 125.1664 781.973 127.3355 785.6368 129.7068 787.807 130.8321 788.3301 134.5425 788.594 135.0207 788.3867 135.2765 787.8824 134.7778 781.062 134.8301 780.5283 135.1746 780.1588 138.213 778.549 144.6107 775.1798 145.5029 774.4435 146.4775 772.5589 146.4534 770.9061 Z" id="fips-28021"/>
<path d="M 611.6441 1279.4059 618.7715 1278.2633 623.7085 1277.9561 624.366 1277.572 632.7278 1272.685 636.2788 1270.4667 638.4806 1271.5469 637.4005 1274.0217 633.5801 1277.0649 624.3995 1280.8081 621.2647 1282.0851 615.7847 1283.492 610.5595 1281.606 611.6441 1279.4059 Z M 572.1058 1273.592 586.3131 1273.7468 589.3899 1273.7792 592.6536 1268.28 595.9577 1270.7278 594.6134 1275.9434 591.8938 1280.6188 588.6201 1281.1956 586.2669 1281.7546 583.9441 1282.3062 579.5369 1278.7643 569.6484 1276.3443 572.1058 1273.592 Z M 529.8603 1164.5924 545.4654 1164.6285 550.4454 1164.6357 551.5751 1164.5974 553.1346 1156.6506 577.4242 1156.5977 611.5378 1156.3524 634.8376 1156.158 635.1863 1187.216 635.4987 1215.7515 635.6337 1225.1773 640.5442 1225.9893 644.204 1228.6228 647.0489 1231.6733 649.0301 1234.499 651.5755 1236.5534 650.5792 1240.6054 636.2926 1233.7694 635.5358 1233.0882 635.291 1232.3354 633.191 1231.9768 626.714 1231.9157 623.887 1232.1349 617.7987 1232.6058 615.3794 1232.7925 615.0157 1232.8593 604.9951 1234.6996 596.5133 1237.0731 595.5657 1237.338 589.5956 1239.0064 586.3166 1240.3792 586.084 1240.4766 579.8635 1243.0792 565.7522 1248.9754 558.0117 1251.3311 552.0125 1253.6562 546.1739 1255.9171 542.9669 1256.5677 541.6518 1256.5191 540.956 1255.3735 541.5382 1249.8984 542.4564 1248.5336 543.9057 1248.8532 544.2926 1244.0968 541.355 1239.8766 536.1442 1237.2846 531.333 1237.6713 530.1801 1237.9737 529.9733 1214.7757 529.9124 1190.4551 529.8603 1164.5924 Z" id="fips-28047"/>
<path d="M 129.0174 982.6531 145.0391 978.4844 146.1049 976.378 153.492 978.8619 154.7553 975.5896 203.1657 975.9031 234.542 976.2864 253.9603 976.3859 253.6448 1010.0938 253.6657 1015.4029 253.5816 1027.1019 253.423 1054.1334 253.3406 1069.8339 248.8566 1069.7932 245.1184 1069.7701 244.9054 1069.7683 244.2353 1069.7875 243.937 1069.7726 230.1857 1069.6916 229.6197 1069.6799 210.5474 1069.5726 210.5293 1069.5703 204.9831 1069.4169 202.5648 1069.4474 201.0427 1069.4001 200.1548 1069.3998 199.2647 1069.3931 189.6272 1069.3118 189.582 1069.3115 173.8503 1069.0607 140.0866 1068.8042 135.9555 1068.7696 136.9866 1002.8635 137.0835 993.1946 132.455 991.3021 129.0174 982.6531 Z" id="fips-28005"/>
<path d="M 125.6884 744.7698 127.2031 745.9761 127.9233 745.9783 128.1657 746.0209 129.1886 745.6074 131.0541 743.0408 132.9515 741.4632 134.859 740.7942 136.8045 740.6599 137.7048 740.9392 139.8709 742.9454 141.3162 741.3345 141.7792 740.4855 142.0956 738.753 142.4466 737.8223 143.3163 736.9786 145.015 736.6801 146.0741 736.9077 147.8043 737.6783 148.9478 738.3879 151.6033 741.0938 152.3872 741.665 153.107 741.9414 152.5982 744.6605 152.89 747.8933 153.1724 748.5577 153.6608 748.7686 154.3535 748.8116 154.9646 748.6096 155.0495 748.5815 155.6309 748.2815 155.8796 748.0433 157.4822 745.0115 157.5565 741.1554 157.6025 739.7745 158.2857 736.5149 159.2383 735.3267 160.6334 734.3852 160.7746 734.1625 160.3532 732.7619 158.4986 730.732 158.1952 730.3324 157.7649 729.3755 157.5502 726.7915 158.3401 723.74 158.6349 723.1312 159.3837 722.4063 159.7465 722.2312 160.4159 722.1393 162.1061 722.3272 162.3458 722.487 162.7669 723.2931 164.0461 725.1919 164.5804 725.7858 164.9519 726.0158 165.7471 725.9488 168.8953 724.1546 171.5772 721.9699 172.9643 720.6656 175.4815 717.5114 176.0846 716.4256 178.1212 714.1759 182.1739 706.2974 182.3244 702.3763 181.7311 701.8046 179.3225 702.1246 178.6118 702.829 177.275 707.1475 174.9861 709.993 173.9333 711.0913 171.9538 710.368 168.8648 709.5576 167.0435 709.2713 164.4247 709.2653 157.2023 707.5989 155.6408 706.9681 154.1905 705.975 153.4383 704.7763 153.2214 704.079 153.2328 703.1706 154.1581 699.5748 155.1652 697.8728 155.5292 696.7507 155.7486 695.5507 155.7046 693.6571 158.7316 692.5244 160.1563 691.5379 160.9137 690.8432 161.6865 689.8793 162.0365 689.1493 162.1095 688.1403 162.033 685.7178 161.9455 685.2809 161.5727 684.5855 161.3451 684.2069 159.3507 682.1667 158.2582 681.6066 155.9107 681.1033 154.7563 681.2718 153.4267 682.4371 150.7707 683.846 148.5412 685.3939 147.794 685.6248 142.5577 684.247 138.6812 682.4055 136.0851 680.9544 133.0717 678.6957 130.0772 675.101 129.3485 673.9954 128.4952 672.113 128.2459 668.9298 128.3997 667.569 130.644 663.6461 131.9623 660.8141 132.8031 655.7076 139.5886 661.5531 143.224 667.7686 144.357 669.0127 146.0744 670.3977 149.2111 671.828 153.6848 672.7136 155.4525 672.259 156.7463 671.2535 157.5616 669.1489 157.2396 667.9244 155.878 665.6676 153.1541 663.5594 147.649 661.178 141.9844 657.5582 138.9028 654.7825 137.6647 652.0111 139.1924 650.9714 139.291 650.9043 143.8401 648.1393 145.1687 647.4497 163.0418 647.8544 162.6524 691.7869 165.498 682.9489 171.1006 681.3625 173.5068 683.1116 178.2476 681.9753 181.2171 684.1032 183.883 681.3155 185.7519 683.6207 186.3349 648.2457 207.1545 648.5857 213.5764 649.448 216.0777 650.9452 215.3791 645.3236 217.4119 644.0502 218.8879 638.8649 218.074 636.9114 224.8593 637.0319 224.7151 644.8521 232.532 644.8246 232.546 647.435 232.6394 656.5109 247.626 656.6405 247.6137 660.4646 255.2774 660.4903 255.2413 666.9921 247.7599 669.7588 243.8526 674.5114 245.1907 682.2146 247.8808 683.5565 244.6859 686.2376 244.644 689.0649 241.1109 693.0919 240.5635 697.4762 236.3627 702.385 238.1244 711.7577 225.6097 708.0856 220.817 709.5017 221.9989 713.8556 220.4858 717.9616 222.7005 720.712 218.4018 728.5394 218.1669 733.8629 215.585 739.0239 215.2709 741.8566 215.101 742.0954 212.8182 747.2941 209.2347 747.0916 210.1029 749.5661 204.0372 750.4068 201.076 755.4178 203.1835 756.1976 204.4623 760.9912 200.4922 763.5003 198.0115 761.3007 194.3679 765.3496 192.0335 763.2982 192.8687 760.2569 188.8658 759.4733 185.6154 763.5691 188.8182 764.9301 188.2608 767.714 179.9746 771.2644 174.3305 766.5613 171.1209 770.2759 170.4716 775.7105 172.8402 776.1171 171.8602 780.2144 166.228 780.7693 162.8947 777.5261 161.7412 773.5085 160.0476 776.3492 155.5386 775.6585 146.4534 770.9061 146.4292 769.245 146.4536 769.2416 147.3133 769.1226 148.9056 768.4751 149.454 768.0546 150.7863 766.4683 152.0373 764.1331 152.3637 763.3623 152.5783 762.4832 152.1432 759.5904 149.8007 758.5196 147.9067 758.041 146.3644 756.6051 144.1488 754.7859 142.2631 753.719 140.5771 753.9899 140.271 755.6167 140.9685 757.6298 142.3031 759.3576 142.5496 761.2848 142.1482 762.5889 141.9182 762.8798 141.4041 768.1947 139.5176 767.4563 137.831 766.2124 136.037 765.65 135.0012 765.5028 132.7319 765.5759 130.5685 766.206 129.9955 766.4999 128.2589 767.8044 127.6795 767.6108 123.7141 767.4271 122.5504 767.1015 120.7894 766.2701 118.3887 765.7411 116.6308 765.5957 116.0419 765.1609 114.6656 762.4797 114.278 761.2025 114.0615 759.6043 114.2971 757.1351 114.9354 753.8587 115.6455 751.1674 116.566 748.4407 117.0508 747.8739 117.9739 747.1064 123.54 744.1179 124.307 744.066 124.6898 744.2042 125.6884 744.7698 Z" id="fips-28149"/>
<path d="M 279.5658 447.5627 280.7539 346.2695 280.9093 318.8159 331.4731 319.5498 340.6378 319.7405 343.0856 325.0025 339.9083 331.4407 335.7668 333.0408 330.5441 333.0576 329.2036 331.3907 315.6944 335.1902 311.3511 341.9056 314.3751 349.3245 321.2512 349.5894 324.1385 345.009 325.0291 340.7655 327.8699 338.9298 332.106 342.9933 350.6961 343.2115 350.5907 355.1546 352.6444 355.1606 358.141 359.5195 356.9752 374.0538 352.0036 374.683 358.2942 374.7324 358.2585 413.4339 350.187 413.3522 350.0881 424.7497 341.8504 424.5644 341.7693 436.004 341.7709 446.9079 309.0945 435.5911 309.0756 438.0973 314.9363 439.1716 318.3378 445.1436 316.7739 452.3038 312.4687 452.9258 311.6383 450.2065 306.6755 454.8741 303.9623 453.1904 299.2049 462.0557 296.5546 460.8264 298.7749 471.7495 288.3122 472.7874 279.312 464.1758 279.3406 461.7838 279.5658 447.5627 Z" id="fips-28083"/>
<path d="M 428.4436 355.4369 440.1167 355.4044 490.7093 355.1969 490.8053 382.2656 490.8769 413.3873 510.6703 413.2707 518.8319 413.1975 514.1154 415.2233 509.6862 421.4503 504.301 418.7 502.5822 420.4766 502.7125 459.8221 459.9436 459.9792 459.7617 438.3699 459.7097 428.7103 447.9168 428.806 444.247 428.8344 444.201 424.9067 428.7268 425.0241 428.4436 355.4369 Z" id="fips-28097"/>
<path d="M 338.1342 120.6975 400.4105 121.1286 412.0575 121.1235 427.5827 121.1371 443.169 121.0386 443.2394 148.6383 443.2231 149.2664 443.2072 175.8147 443.5641 178.7912 443.1713 217.6533 443.0821 225.4081 396.6404 225.1226 390.6464 226.3748 355.1407 226.1129 351.5391 226.0918 351.7752 208.4751 351.7789 197.7418 338.7755 188.2787 338.9788 177.8982 338.093 132.2714 338.1342 120.6975 Z" id="fips-28107"/>
<path d="M 211.8424 882.7766 244.3019 883.1169 285.1844 882.8872 285.2567 885.841 286.1197 886.9386 292.269 887.0266 292.94 883.0084 308.4013 883.1603 320.4694 882.1891 323.6288 878.5711 323.628 878.9283 323.5486 918.0478 323.5171 923.6529 323.4505 939.9095 323.398 976.6832 319.6328 976.6621 271.8807 976.5444 253.9603 976.3859 234.542 976.2864 234.8076 950.815 235.1819 906.2692 211.4962 906.1155 211.8424 882.7766 Z" id="fips-28085"/>
<path d="M 96.2975 835.5354 149.46 838.4111 170.3843 843.7903 188.3083 848.3233 188.6076 854.312 185.7685 859.27 212.1978 859.3633 211.8424 882.7766 211.4962 906.1155 208.592 905.9618 196.47 906.047 140.5888 905.4313 122.751 905.2918 116.7298 905.2457 116.8098 899.7909 98.7965 899.8852 96.9843 897.7765 90.6143 894.927 91.2006 890.489 83.711 888.1462 85.6713 882.9999 82.3167 877.7597 80.2656 868.5667 85.9114 868.668 89.5871 868.6563 92.3797 866.3065 93.2684 864.4971 92.5115 862.9612 90.0685 861.8064 87.3083 861.5279 83.8194 862.894 80.4938 862.6636 79.0734 862.565 73.0867 862.9686 69.4444 861.7056 69.7068 859.0329 70.7399 853.9729 74.0532 842.4025 74.6824 841.3436 75.7443 840.1848 76.7962 839.667 78.3686 839.2376 85.6961 837.8825 85.9898 837.9672 86.8667 841.5343 86.6269 845.0586 86.7709 846.3961 87.116 847.6038 87.7509 849.1631 88.3493 850.1342 88.7968 850.5686 89.5841 851.0616 91.2777 851.6753 92.913 851.6467 94.3787 850.787 95.6471 849.4434 96.2877 848.2343 96.8499 845.8047 96.7257 845.3438 93.2549 841.8301 92.0342 840.4643 91.7014 839.9516 91.5509 839.3882 91.5195 838.4525 91.8302 837.3886 92.1088 836.9653 92.5899 836.652 96.2975 835.5354 Z" id="fips-28063"/>
<path d="M 314.5481 2.7309 361.161 3.154 368.943 3.2156 376.7721 3.2748 384.4573 3.3304 403.8176 3.4592 405.5816 3.4702 407.6948 3.4992 407.7786 3.5003 415.4131 3.5336 423.1532 3.5286 427.0806 3.5251 434.868 3.3738 438.7704 3.2969 442.5925 3.295 442.6473 21.3388 442.6601 50.2587 442.7456 62.812 441.1058 62.8525 436.2329 62.7901 401.3148 62.6968 400.6315 66.4752 391.8838 71.833 392.1037 74.7953 385.8924 75.2064 375.6773 79.7016 370.2411 78.6641 368.7028 74.4327 358.5157 73.0305 356.3531 67.9152 353.7364 65.7295 344.5061 66.0545 339.7346 75.1815 338.0344 75.2994 337.6192 62.4714 337.8087 38.9938 315.3818 38.8102 313.4157 35.8317 314.1825 34.9289 315.9552 33.6164 320.924 30.9696 327.3661 26.4024 327.7615 25.7587 328.1545 24.5783 328.5643 22.7481 328.6449 18.3256 328.2962 16.5294 327.9261 15.5661 327.4442 14.6877 326.5933 13.6704 325.3509 12.9144 321.295 10.9462 320.4247 10.2511 319.3371 8.9444 318.061 8.3913 317.333 7.9138 316.0186 6.3756 315.5958 5.6089 314.5481 2.7309 Z" id="fips-28033"/>
<path d="M 116.7298 905.2457 122.751 905.2918 140.5888 905.4313 196.47 906.047 208.592 905.9618 211.4962 906.1155 235.1819 906.2692 234.8076 950.815 234.542 976.2864 203.1657 975.9031 154.7553 975.5896 153.492 978.8619 146.1049 976.378 145.0391 978.4844 129.0174 982.6531 123.8649 982.7593 114.7916 975.5846 115.4961 954.6425 115.576 951.6863 116.7298 905.2457 Z" id="fips-28037"/>
<path d="M 255.2413 666.9921 262.3525 668.2441 262.0446 664.0407 267.6268 662.7186 271.3474 657.3878 275.3046 656.443 278.7575 649.4876 278.6264 672.3037 291.1568 672.5759 300.2011 672.6291 316.936 672.7625 324.0992 672.819 325.1023 672.8363 324.946 696.1989 340.106 696.2415 343.8021 696.2486 348.1913 696.4818 349.6086 696.4847 352.0796 696.5067 360.5619 696.5367 365.1176 696.5397 361.552 697.644 358.7941 698.9955 355.1361 710.0943 347.7484 717.4137 345.3337 717.4987 343.1206 721.3721 344.5752 723.7555 345.6515 725.4439 341.9186 726.4044 339.7089 725.6215 339.2367 729.3902 338.054 729.8965 337.7731 733.5286 333.4224 735.8317 332.5571 740.1406 337.7845 744.5064 338.641 749.227 335.695 752.9683 327.1296 756.7335 324.8631 755.6272 323.5319 762.0393 325.1649 770.5859 323.6556 776.6301 328.3357 781.8132 326.1551 785.8285 327.4762 789.8324 311.4824 789.7622 303.9825 789.7106 302.9414 789.7029 293.04 789.5952 231.2727 789.0576 229.8555 789.444 216.9688 789.3478 215.101 742.0954 215.2709 741.8566 215.585 739.0239 218.1669 733.8629 218.4018 728.5394 222.7005 720.712 220.4858 717.9616 221.9989 713.8556 220.817 709.5017 225.6097 708.0856 238.1244 711.7577 236.3627 702.385 240.5635 697.4762 241.1109 693.0919 244.644 689.0649 244.6859 686.2376 247.8808 683.5565 245.1907 682.2146 243.8526 674.5114 247.7599 669.7588 255.2413 666.9921 Z" id="fips-28049"/>
<path d="M 634.2917 1093.8026 645.8834 1093.8398 645.7417 1070.4275 707.6605 1069.776 739.3375 1069.4372 740.3817 1088.9861 741.0934 1102.3008 741.3327 1104.6105 743.1385 1139.5583 712.0719 1140.0631 686.0538 1140.3945 646.3807 1140.8638 645.1598 1140.4049 634.7303 1140.5898 634.2917 1093.8026 Z" id="fips-28039"/>
<path d="M 436.6601 478.9508 442.985 466.7557 447.3825 460.0188 459.9436 459.9792 502.7125 459.8221 514.4481 459.8041 533.4036 459.8469 533.233 507.0573 533.1879 518.6591 533.092 554.4109 479.1778 554.7628 469.926 554.8312 464.9749 554.9327 440.9181 554.9874 440.9407 566.9721 416.1666 566.8521 388.0106 568.3457 403.6431 554.2166 406.3464 543.3927 408.7957 535.949 417.1484 525.5504 417.8197 519.57 419.8872 519.0998 419.2517 512.4554 420.9891 509.4898 419.7529 506.7889 423.9198 506.0825 426.7065 501.321 426.6954 493.6369 429.0688 492.8666 431.0968 488.9943 430.5613 484.4695 434.4228 484.1249 436.8537 479.7326 436.6601 478.9508 Z" id="fips-28007"/>
<path d="M 119.1983 532.7638 119.1792 530.8328 164.1672 531.6407 175.6044 532.5402 175.4682 549.5069 172.0752 559.1777 169.4237 565.0298 169.3415 571.3807 165.7554 573.7856 164.0636 577.6816 163.1438 624.5553 217.5022 625.343 219.7753 630.6519 224.5769 632.3192 223.1623 635.2846 218.074 636.9114 218.8879 638.8649 217.4119 644.0502 215.3791 645.3236 216.0777 650.9452 213.5764 649.448 207.1545 648.5857 186.3349 648.2457 185.7519 683.6207 183.883 681.3155 181.2171 684.1032 178.2476 681.9753 173.5068 683.1116 171.1006 681.3625 165.498 682.9489 162.6524 691.7869 163.0418 647.8544 145.1687 647.4497 146.8191 646.593 147.9979 645.5953 149.8386 643.3473 151.3667 642.0028 151.9361 641.6183 152.7346 640.6911 154.028 638.609 154.4051 637.3049 154.4396 635.2004 154.3263 634.587 153.6012 632.8632 151.953 630.3781 150.8783 629.4656 149.391 628.7174 148.3899 629.3782 146.5113 631.3871 146.0509 632.4292 145.7897 634.3996 145.3661 635.5581 144.0726 637.4713 143.8487 639.1701 141.2414 639.621 137.1399 640.8202 135.2641 641.7596 131.2087 643.359 129.6173 643.5224 128.2761 644.8526 128.0018 644.9408 126.8207 644.8197 126.1944 644.462 124.5553 643.0608 123.2554 641.5574 122.6096 640.6387 122.1435 639.6885 121.037 636.5263 120.5721 633.7774 120.5317 632.4136 120.5639 631.3596 120.8198 629.8857 120.9616 629.687 121.4947 629.0176 122.7256 627.9691 123.2495 627.6462 123.9995 627.5207 124.2442 627.2977 125.7839 625.1148 126.5287 623.3953 128.6892 621.0917 131.826 618.901 133.1137 618.155 137.0953 616.6493 138.2477 615.9635 141.0037 613.5484 142.5894 610.9906 143.1285 609.2199 143.1994 608.4111 142.6453 607.5163 141.8055 606.9937 138.1359 605.598 135.1384 604.6047 129.9669 603.5 127.8428 602.715 125.9255 602.6058 121.7521 602.9004 120.8068 602.7393 119.8788 602.4296 118.8186 601.4632 118.3994 600.3102 118.3151 598.5611 118.5209 597.4571 120.226 593.7269 120.3987 592.5776 120.0276 592.3711 118.7399 591.0902 119.4642 587.3103 119.4538 583.9801 120.2394 581.3619 120.5103 580.9598 121.6392 580.2142 122.2108 579.0071 123.31 575.9093 123.6409 575.4145 124.929 574.3005 127.1966 572.7063 127.9051 572.769 129.8454 572.5873 132.2027 571.8834 136.5087 567.9345 140.1711 563.9038 140.7247 563.0374 141.5956 560.6078 141.7485 559.903 141.7517 559.8439 141.786 559.194 141.5599 556.477 141.8014 554.8309 141.6066 553.8203 140.3532 551.2457 140.0171 550.7613 138.1632 549.3004 137.8366 548.8786 137.5855 548.0359 137.8582 547.6317 138.1712 547.4521 138.5366 547.004 138.251 544.0671 136.855 540.4482 135.9575 539.1245 135.2122 538.2601 134.6225 537.7067 132.4694 537.0023 131.3076 537.1406 128.3027 538.0858 126.2018 539.1619 125.9513 539.3925 125.2326 541.6018 125.4636 542.0866 126.455 542.9045 126.9161 543.6394 126.9609 544.0563 126.8389 544.4098 126.363 544.9034 125.6186 545.3492 125.4947 545.569 125.3245 546.5725 125.8279 548.3411 126.7131 552.6598 126.698 553.4961 126.502 554.508 126.0498 555.9571 123.5294 559.1772 122.0326 560.1073 120.1667 560.6303 117.8638 560.728 116.7066 560.5492 115.3159 560.1423 111.9381 558.667 111.2744 558.1955 109.3979 556.3397 108.6671 555.1879 108.3989 554.5213 108.1645 553.1565 108.1645 552.3222 108.4578 550.7883 108.9468 549.7883 109.6966 548.5839 111.5265 546.4938 111.1391 545.7752 110.96 545.1446 111.0174 544.1086 111.5187 543.4882 112.0196 543.159 114.4057 540.1541 115.4964 539.5164 117.5081 537.5546 118.5026 535.9537 119.1638 533.2625 119.1983 532.7638 Z" id="fips-28055"/>
<path d="M 457.9573 954.7403 473.3225 954.7664 504.1476 954.6355 504.3225 974.1065 504.315 978.0489 516.202 977.9813 526.7767 977.9462 527.8676 977.9072 527.8775 983.7094 527.9282 1001.2874 527.7724 1026.0953 527.7956 1048.4784 527.869 1067.7462 510.4966 1067.8587 510.3908 1075.2472 498.7796 1075.1498 498.7904 1070.2187 492.96 1070.2017 492.9674 1066.3115 485.7666 1066.3194 481.3602 1066.3436 481.4038 1070.094 468.0786 1069.9892 457.9992 1069.9495 458.0635 1036.4992 458.0518 1013.9393 458.0069 1009.2567 458.0521 994.9899 457.9573 954.7403 Z" id="fips-28073"/>
<path d="M 624.5026 648.7252 670.9153 648.1953 742.8415 647.2926 740.6329 672.0928 740.632 672.1035 739.8828 681.5961 739.8831 681.6269 738.6186 695.1361 738.1362 700.2849 737.8576 701.919 736.3361 719.3708 734.9741 735.0287 734.3612 741.0451 690.9563 741.8494 625.3076 742.983 624.4682 672.9227 624.5026 648.7252 Z" id="fips-28075"/>
<path d="M 110.1834 392.2576 164.5665 392.7666 188.0734 393.2839 197.6353 393.2593 210.8725 393.5324 211.434 394.3256 210.4167 415.8911 210.2903 435.3784 210.0772 462.7372 220.6854 462.933 218.1245 463.582 216.7997 472.7958 223.2351 478.3046 228.5393 481.1966 227.3055 484.4874 226.651 495.4749 224.3045 498.2403 223.9867 502.5222 228.4829 504.5463 228.4388 507.7799 223.4455 509.385 187.4036 509.3198 187.2176 508.6758 175.8628 508.5682 175.6044 532.5402 164.1672 531.6407 119.1792 530.8328 120.089 528.6135 121.4931 527.5923 122.9373 526.8826 124.5832 526.6602 125.7053 526.2737 127.5936 525.0125 128.3798 523.7615 128.9068 521.5506 129.622 519.4352 129.6464 519.0638 129.4566 518.194 128.7041 516.8579 123.1328 512.11 120.7235 511.0089 119.548 510.8378 118.302 510.3807 117.853 509.9734 117.5986 509.3493 116.2567 507.5332 112.8983 505.8287 111.9647 505.182 111.7553 504.8436 111.6856 504.4543 111.5911 501.3501 111.6754 500.3167 113.1636 497.7702 113.6461 497.242 114.6548 496.4343 115.793 495.9483 118.9851 495.7408 120.7163 495.9947 121.0167 496.1499 122.6223 497.8089 122.8697 498.6918 123.199 498.9923 124.7676 499.2575 127.3767 499.4767 131.3102 499.3352 133.5022 498.8939 136.0076 497.5576 136.7652 496.7852 137.2937 495.3167 137.4582 494.3685 137.7859 492.4787 137.9582 490.8836 138.1446 485.7939 137.6284 481.0697 137.0127 477.9389 136.6489 475.0964 137.9317 474.8916 138.6257 474.9071 139.3563 474.4883 139.4499 474.3121 139.4594 473.6146 139.8102 473.3561 140.6055 473.5441 141.3683 473.4258 141.2931 472.6782 141.8331 471.9265 142.5212 471.9233 142.9206 470.7598 145.1383 468.4513 145.9873 467.1004 146.635 464.7609 147.203 463.3213 147.4881 462.141 147.5858 460.8594 147.2625 459.685 146.604 458.6661 145.6712 457.954 144.2561 457.5382 142.4026 457.4391 141.1627 457.7686 139.8217 458.4398 139.2082 458.981 138.6512 459.6931 138.0877 460.9962 137.0887 465.3456 136.8234 466.0066 136.0794 467.156 135.5591 469.5194 135.0633 470.4359 134.8381 470.4457 133.5019 469.4457 132.53 468.3285 131.7153 466.4406 131.0968 464.366 130.882 463.9926 128.7016 462.244 129.2946 460.5874 129.3129 459.1118 126.133 454.6951 125.7963 453.9098 125.8837 449.9618 125.4481 446.1933 125.5262 445.6273 125.8614 444.9792 126.0813 444.039 125.8497 440.6967 125.9489 440.4076 126.3113 440.045 129.7096 437.7817 130.7719 436.805 133.8819 432.2164 135.087 430.6164 137.4837 428.3534 140.9908 425.679 143.9475 421.6375 144.895 419.6548 145.0733 415.2119 144.989 414.9773 144.5991 413.892 143.5257 412.9378 142.8793 412.5741 141.337 412.3646 140.6101 412.3984 139.7088 412.7764 138.6597 413.4602 137.5108 414.8494 136.8926 415.8158 136.3291 417.1624 136.1346 418.196 136.1399 418.7284 136.5944 420.3509 136.5918 422.5409 135.6509 424.9982 133.8568 427.423 132.364 428.9935 130.1441 430.4588 126.2554 432.2883 123.3321 432.6648 120.5945 432.4136 119.3363 432.0426 118.2339 431.5429 115.0968 429.6825 112.0933 427.1834 111.3578 426.3219 111.1594 425.8845 111.1281 425.174 111.2532 424.5268 112.04 423.0654 112.6505 422.3793 113.3757 421.992 115.0189 422.1743 116.7086 421.7049 117.827 422.3689 118.5148 422.4248 121.4094 421.0824 124.9342 419.7922 125.5573 419.6583 126.8312 419.8768 128.4626 419.069 128.7647 418.5824 128.7719 418.2183 129.2209 417.4173 130.9177 415.4957 131.5192 414.0202 131.6527 412.7686 131.2998 411.0474 130.1347 407.6613 127.5941 405.3598 123.0353 402.1961 122.4138 401.678 121.5604 400.966 120.8099 400.7266 119.7322 401.1423 118.9796 402.7136 118.5918 403.9372 118.5999 405.8802 118.8725 407.7915 119.6905 410.32 120.1962 412.9227 118.3931 415.2994 117.3802 416.0485 116.2144 416.6164 114.4939 417.1885 111.7759 417.8201 111.0026 417.8222 109.4238 417.5577 105.4719 416.3574 105.312 415.917 105.6795 415.4712 105.8845 415.0098 106.1108 412.3624 106.3299 411.5261 108.2074 410.0404 108.9096 409.9757 109.9603 409.5275 111.5294 408.5282 111.9332 408.0793 112.1895 407.216 113.5795 404.6785 114.4826 403.2639 115.8948 402.072 116.7409 401.1773 117.3214 400.5941 117.3738 399.5885 117.0123 398.2513 116.4113 397.3908 110.1834 392.2576 Z" id="fips-28151"/>
<path d="M 435.0373 863.6688 458.2253 862.0765 515.4097 857.6761 516.1029 954.6095 515.0327 954.6137 504.1476 954.6355 473.3225 954.7664 473.2862 933.4598 470.9048 933.0092 470.4558 927.7971 461.3153 921.1628 453.8322 919.827 443.659 913.2972 440.5262 908.4433 434.8811 907.7254 434.8989 899.111 435.0002 876.0469 435.0373 863.6688 Z" id="fips-28031"/>
<path d="M 529.8101 1094.5716 562.3919 1094.4494 568.721 1094.4355 576.3112 1094.3982 634.2917 1093.8026 634.7303 1140.5898 634.8376 1156.158 611.5378 1156.3524 577.4242 1156.5977 553.1346 1156.6506 551.5751 1164.5974 550.4454 1164.6357 545.4654 1164.6285 529.8603 1164.5924 529.837 1151.9419 529.8289 1108.5353 529.8101 1094.5716 Z" id="fips-28131"/>
<path d="M 385.1698 867.0437 412.9323 865.2529 435.0373 863.6688 435.0002 876.0469 434.8989 899.111 434.8811 907.7254 440.5262 908.4433 443.659 913.2972 453.8322 919.827 461.3153 921.1628 470.4558 927.7971 470.9048 933.0092 473.2862 933.4598 473.3225 954.7664 457.9573 954.7403 454.1368 954.7313 419.1932 954.633 419.3814 966.4068 388.4499 966.2132 388.4845 952.7763 388.5039 941.701 388.5114 930.9682 384.6496 930.9419 385.1698 867.0437 Z" id="fips-28065"/>
<path d="M 676.9449 400.0053 685.639 399.8286 692.5436 399.4051 697.6944 395.5477 698.6077 396.1329 705.2641 394.211 708.8992 388.8894 709.576 387.7146 719.4319 395.1444 721.2923 393.9552 716.6525 389.7208 716.0181 380.0105 720.3255 373.3823 713.7634 370.9957 714.7631 362.8546 711.5691 361.172 713.7294 358.9201 719.6484 356.7328 724.4032 357.426 726.8135 355.294 735.3689 354.7229 738.0533 348.7468 743.3817 351.267 752.1187 342.4308 753.2257 335.2018 770.1496 335.1483 769.5046 341.945 769.0939 347.505 769.0654 348.3067 768.7769 351.7626 768.7327 351.9788 767.6427 364.4483 766.6778 375.4718 766.654 376.0707 766.4537 377.9301 766.2789 380.0996 766.1918 381.1789 766.0839 381.7347 765.1981 391.5822 764.7737 396.2758 764.6508 397.3534 762.0068 427.6837 759.7413 453.591 759.4157 457.3071 677.9847 458.5778 677.3979 427.2809 677.0993 411.6078 676.9449 400.0053 Z" id="fips-28087"/>
<path d="M 338.0344 75.2994 339.7346 75.1815 344.5061 66.0545 353.7364 65.7295 356.3531 67.9152 358.5157 73.0305 368.7028 74.4327 370.2411 78.6641 375.6773 79.7016 385.8924 75.2064 392.1037 74.7953 391.8838 71.833 400.6315 66.4752 401.3148 62.6968 436.2329 62.7901 441.1058 62.8525 442.7456 62.812 442.7527 70.6368 442.8345 78.605 442.9738 85.9929 454.6519 85.9724 454.8092 121.018 443.169 121.0386 427.5827 121.1371 412.0575 121.1235 400.4105 121.1286 338.1342 120.6975 333.8046 119.2918 330.4146 108.216 328.253 108.581 329.148 101.4714 334.3777 95.9884 332.5247 89.0143 333.5363 84.4855 331.152 82.1835 333.1674 77.5849 338.0344 75.2994 Z" id="fips-28137"/>
<path d="M 65.7899 871.6894 71.4909 869.4238 76.1526 868.8333 79.8123 868.5585 80.2656 868.5667 82.3167 877.7597 85.6713 882.9999 83.711 888.1462 91.2006 890.489 90.6143 894.927 96.9843 897.7765 98.7965 899.8852 116.8098 899.7909 116.7298 905.2457 115.576 951.6863 115.4961 954.6425 114.7916 975.5846 108.2524 974.8003 102.3058 972.6248 98.2435 968.2715 92.2635 971.6666 88.7064 969.4443 86.3535 972.2042 81.054 971.2984 75.4153 973.6375 72.8957 976.7347 69.7965 975.736 67.185 977.7418 63.1665 977.8108 61.4149 980.6192 56.549 980.7884 54.0098 983.1047 43.8937 981.7237 43.1454 990.7847 37.7054 991.0311 37.0998 993.1371 41.6076 997.6328 41.1735 1003.2028 39.2368 1006.2493 34.6094 1006.5681 29.3438 1009.4504 29.3583 1005.3068 26.9884 1003.1294 22.4932 1003.7816 18.9863 1006.6916 15.6833 1015.5375 15.5582 1014.8531 14.4598 1012.622 12.9862 1010.8307 7.7012 1006.0584 3.3484 1003.7482 1.6386 1001.5047 1.0154 999.4935 1 999.0551 1.2432 998.0075 1.8682 997.0107 2.4976 996.2985 4.213 995.0806 5.034 994.8921 8.7585 994.9264 12.1017 995.4987 16.4057 996.469 19.4258 996.8642 21.779 996.8148 24.1339 996.4784 27.8451 995.3907 32.2536 993.3541 32.9433 992.5842 33.7756 991.0046 34.5457 989.0232 34.6927 987.9076 34.8423 983.3379 34.6963 982.7508 34.3869 982.2936 32.4861 980.521 29.525 978.2062 29.1782 977.8196 28.5503 976.4379 26.3953 974.9549 25.6473 974.0084 25.6949 972.2076 25.2747 970.4432 25.2585 969.6224 25.5646 966.2427 26.3413 964.9519 26.4383 964.6112 25.0337 963.737 24.2967 963.5221 23.1838 963.9975 22.7145 964.3471 21.2299 965.8139 20.7426 963.9255 20.1567 962.2525 19.1911 960.0492 19.2335 958.7696 19.7161 957.0045 21.1648 954.629 22.3029 953.5915 24.6907 952.2655 25.1688 951.7071 26.1543 951.1968 26.9426 951.1152 27.7083 951.4815 27.9271 951.7387 28.6967 953.5149 28.723 953.7764 28.1287 955.175 28.1214 956.214 29.6364 962.5853 30.8215 965.123 31.9617 966.662 33.2754 967.99 35.0594 969.0926 35.9456 969.4623 41.7135 969.5608 43.2022 967.8842 43.5386 966.3961 43.3578 964.9968 43.3629 962.5145 43.4019 961.3153 42.302 960.7966 41.578 959.0221 39.379 956.7599 37.1333 954.6359 35.7292 951.6885 34.8666 949.6781 34.2054 948.2056 33.8253 946.9137 33.4509 943.8698 33.293 937.746 33.5902 933.7672 34.0643 932.4433 34.1494 930.6458 33.7376 930.1953 32.8743 929.7967 32.374 928.6428 32.3715 928.0153 32.4691 927.4194 32.7258 926.9338 34.0403 925.0914 34.4662 924.7809 35.0936 924.6508 36.1191 924.5741 37.6202 924.6938 40.0177 924.2945 41.3076 924.771 41.891 925.2887 42.2539 925.3751 49.0559 923.0062 50.4568 922.2817 51.9069 921.3175 54.4924 919.1164 57.1425 917.1298 58.7663 915.2329 58.7998 915.1578 59.0733 914.5433 59.3655 913.3458 59.7636 909.7987 57.7173 908.2688 56.7885 908.013 55.5178 907.7781 53.6953 907.908 52.4148 908.2873 47.5593 910.1823 45.5506 910.5489 42.5674 910.6581 41.251 910.4484 40.4833 910.0878 39.2441 909.3452 37.298 907.8252 35.0222 904.8041 34.6229 904.128 34.2355 903.4722 34.0915 903.0309 33.9586 901.644 34.2852 899.3277 34.5712 898.5204 35.3018 897.3709 36.4643 896.23 38.3158 894.7685 38.6857 894.5845 39.4087 894.6927 39.7987 894.8955 40.4027 895.7821 40.9555 896.8431 42.0451 898.3315 42.6702 899.037 43.9049 900.0201 46.2709 901.3966 52.4009 903.5577 54.0101 903.932 55.9443 903.9108 57.0014 903.5094 60.5539 901.6358 61.1931 900.0698 61.7487 896.6054 61.8605 895.2979 61.4164 890.3475 61.0479 883.5281 61.1121 880.9373 61.6384 877.8731 61.8287 877.3418 65.5987 871.7654 65.7899 871.6894 Z" id="fips-28001"/>
<path d="M 319.6328 976.6621 323.398 976.6832 354.2584 976.6756 360.2188 982.6015 366.9395 982.602 369.8035 980.7052 369.762 997.846 369.7293 1007.9798 371.669 1009.8743 371.6137 1023.5284 377.5022 1023.5812 377.5118 1035.1485 393.0099 1035.0213 392.9804 1040.8418 394.9758 1040.8446 394.9657 1046.7044 396.9171 1046.6887 396.9144 1050.5962 416.3839 1050.5705 416.3444 1070.0329 411.5452 1070.0201 403.335 1070.0876 402.2339 1070.044 396.3696 1070.1546 395.4439 1070.1547 384.9905 1070.1378 384.3888 1070.0558 377.54 1070.1219 373.68 1070.1254 371.9876 1070.1494 367.1477 1070.1252 349.3517 1070.0974 348.667 1070.1272 341.1359 1070.0653 341.0447 1070.0769 334.2386 1070.0703 319.3142 1070.0493 319.3718 1030.9155 319.3396 1023.2797 319.4359 1000.0357 319.4484 997.7505 319.6328 976.6621 Z" id="fips-28147"/>
<path d="M 665.351 318.5771 664.861 253.9375 664.9341 248.2684 664.9577 244.3094 675.0418 244.2702 679.4523 244.2062 703.7539 244.0136 710.9498 243.9375 778.8882 243.7703 778.2329 251.3187 777.5657 259.1112 777.0764 264.128 774.5262 290.2301 774.511 290.5536 774.5114 290.5841 773.9785 295.8247 772.7594 307.7998 771.8809 317.5165 771.2772 321.5854 771.0805 325.3305 770.1496 335.1483 753.2257 335.2018 752.1187 342.4308 743.3817 351.267 738.0533 348.7468 735.3689 354.7229 726.8135 355.294 724.4032 357.426 719.6484 356.7328 713.7294 358.9201 711.5691 361.172 711.7189 358.3682 716.5996 354.8339 715.2087 353.1245 665.7474 353.5938 665.351 318.5771 Z" id="fips-28095"/>
<path d="M 442.5925 3.295 460.1134 3.2779 460.1642 3.2782 477.455 3.355 489.255 3.4 493.0671 3.4997 494.5649 3.6004 505.9353 3.6385 512.3345 3.5893 523.9446 3.4955 523.9579 16.2322 523.9679 24.0196 524.0604 43.4635 535.7879 43.4315 535.8201 49.7758 535.9998 76.2923 536.2322 113.2584 547.8228 113.1342 547.8104 136.5298 543.7978 133.9295 539.3483 133.5553 530.2353 128.4879 527.904 129.5171 521.4233 128.4276 518.4352 130.9525 512.9469 128.2324 506.3607 130.1289 495.0644 121.0315 489.4558 120.9619 454.8092 121.018 454.6519 85.9724 442.9738 85.9929 442.8345 78.605 442.7527 70.6368 442.7456 62.812 442.6601 50.2587 442.6473 21.3388 442.5925 3.295 Z" id="fips-28093"/>
<path d="M 449.7696 1215.0167 459.632 1215.1209 459.6054 1203.4136 470.6375 1203.4807 471.3908 1199.5832 483.2143 1199.6289 483.3681 1181.2464 483.2433 1164.5131 529.8603 1164.5924 529.9124 1190.4551 529.9733 1214.7757 530.1801 1237.9737 528.2219 1238.4871 527.3472 1239.0769 524.9114 1242.1274 524.392 1243.5241 527.1674 1244.8834 529.0519 1245.806 530.6865 1245.9555 532.1434 1247.3127 534.5105 1252.271 534.4679 1253.4458 532.7699 1256.6548 529.3627 1259.2547 526.1818 1260.4119 524.5231 1261.4843 521.3483 1265.3639 520.3807 1266.0606 512.1723 1269.6779 510.9594 1272.0643 510.993 1273.7459 509.6314 1277.9866 505.7067 1282.8319 505.6136 1288.1034 502.5314 1290.9408 501.9959 1291.1559 500.5634 1290.5351 499.1635 1286.4577 498.1487 1285.8748 495.8681 1287.4999 492.8367 1288.7394 488.3134 1288.7388 487.9238 1289.3594 487.1249 1287.2397 486.5465 1286.3061 485.876 1285.6128 484.6516 1285.3472 484.0049 1285.4547 482.7352 1286.0701 482.2506 1286.471 481.8354 1287.1121 480.9586 1288.0206 479.2039 1288.9298 477.3794 1289.492 476.3859 1289.119 474.9299 1287.9188 473.774 1286.3449 473.404 1285.5175 473.0568 1284.1563 471.2536 1281.0874 470.1908 1279.94 468.713 1279.6738 468.0201 1279.4071 467.5811 1279.0336 466.8188 1278.0464 466.5646 1277.4058 466.5413 1276.8986 466.8176 1274.8161 467.2326 1273.1608 467.2092 1272.3332 466.7472 1271.5859 464.9697 1270.9191 464.2618 1270.4254 463.1381 1269.0431 463.0373 1268.1853 463.2703 1267.7669 463.4009 1267.6655 463.6065 1266.3009 463.4298 1263.8003 463.2241 1262.9727 461.7848 1261.5394 460.4481 1260.8321 460.8479 1256.5292 461.1486 1255.74 461.2706 1255.5995 462.5772 1255.339 463.1688 1255.0516 464.4192 1253.7369 464.3303 1253.4161 463.5755 1251.9318 463.4543 1248.7505 463.6089 1247.0541 462.0931 1245.8041 460.0407 1244.6948 459.9442 1243.8437 459.6944 1243.5271 458.3125 1242.7166 457.2754 1242.4552 456.5646 1240.5938 456.1198 1238.5166 454.292 1235.5363 453.6865 1233.7081 452.2139 1230.847 451.6639 1230.0198 451.1696 1229.2763 451.0705 1227.4679 451.4848 1227.3759 451.7509 1227.7762 451.9885 1227.8008 452.362 1227.1035 451.9017 1223.1219 451.5723 1221.747 451.2095 1221.5104 450.9115 1220.2949 451.3696 1218.6132 451.2362 1217.0156 449.7696 1215.0167 Z" id="fips-28045"/>
<path d="M 327.4762 789.8324 335.9458 789.9075 383.035 790.1669 440.7744 790.8881 456.1711 790.8493 457.9061 799.8165 457.8584 810.2374 457.89 861.2478 458.2253 862.0765 435.0373 863.6688 412.9323 865.2529 385.1698 867.0437 351.5407 869.3172 350.1397 865.7747 354.9933 862.6514 354.2135 859.5539 347.451 859.5008 345.2052 856.6799 348.5609 851.5933 343.3929 845.1007 347.9403 843.8059 349.3937 841.4562 348.1017 836.5353 346.4495 831.8392 340.8925 828.7122 341.0203 825.1945 339.0313 818.499 334.5865 818.6795 336.0473 818.098 335.7926 815.6974 336.9128 816.6636 328.7735 804.0356 326.8881 800.899 329.5626 798.0793 325.4299 797.894 323.4664 794.6752 327.4762 789.8324 Z" id="fips-28127"/>
<path d="M 660.0239 108.8919 663.9047 108.8609 663.3489 66.0541 667.1958 66.0297 740.8409 65.5545 744.5962 65.5751 744.6586 69.4418 748.5252 69.4344 749.0637 112.2415 749.8297 143.4392 743.8272 143.376 728.9245 143.2894 710.681 143.3937 702.9347 143.5234 702.8782 131.7944 660.0114 132.2807 660.002 119.5651 660.0239 108.8919 Z" id="fips-28117"/>
<path d="M 595.6453 338.2981 595.56 334.3644 618.479 334.1773 618.465 318.6653 665.351 318.5771 665.7474 353.5938 715.2087 353.1245 716.5996 354.8339 711.7189 358.3682 711.5691 361.172 714.7631 362.8546 713.7634 370.9957 720.3255 373.3823 716.0181 380.0105 716.6525 389.7208 721.2923 393.9552 719.4319 395.1444 709.576 387.7146 708.8992 388.8894 705.2641 394.211 698.6077 396.1329 697.6944 395.5477 692.5436 399.4051 685.639 399.8286 676.9449 400.0053 676.7339 384.2519 672.1766 384.2686 668.9256 385.8928 662.4959 384.3573 654.6784 384.4257 614.7783 384.9572 599.4669 385.6497 599.4134 377.3881 599.3626 366.0771 595.4767 366.5822 595.7078 353.2625 595.6453 338.2981 Z" id="fips-28025"/>
<path d="M 256.4866 128.0315 293.6761 155.3135 294.1084 155.6365 293.4305 179.0645 293.4656 198.6583 282.0824 198.3413 281.9523 208.7805 281.8269 227.3823 281.5976 248.9499 281.4098 272.2548 235.7807 271.3618 235.0375 271.3551 235.5809 236.289 204.646 235.5094 170.0046 235.2411 169.4702 233.9042 169.3001 232.5009 170.4372 230.3382 174.0615 227.6425 180.3188 223.2416 181.7369 223.5725 183.7577 224.4988 186.2279 227.0522 187.596 227.9688 189.5571 229.5898 190.2817 230.0231 192.7285 230.864 194.1202 231.0472 196.5709 230.8096 197.8624 230.3065 198.8812 229.7306 199.5762 229.1925 201.0786 227.6529 202.2009 226.0559 202.8966 224.5752 203.0581 222.9779 202.7473 220.7258 202.4609 220.0391 201.9468 219.4111 201.0258 218.7984 198.4199 218.2993 196.2474 218.537 194.2868 217.9143 192.4128 217.6722 191.6403 217.8216 190.4219 218.4505 189.2953 218.6826 188.3725 218.6039 187.5747 217.9501 186.4157 218.2758 185.2626 218.8992 184.3906 218.1449 180.0165 215.6543 179.0878 214.8368 175.4728 210.0098 174.9259 208.8743 174.5622 206.7352 174.5497 204.8467 174.7236 204.1575 175.3743 203.2251 176.3816 202.0824 177.683 201.5666 180.0562 201.7546 181.225 202.1531 181.4753 202.4133 181.8324 203.1037 182.7232 206.1432 183.1113 206.7803 183.9249 207.5572 187.3068 209.982 189.9596 210.8963 192.2457 211.0674 193.1102 211.6635 194.1961 212.4432 194.8693 211.2569 195.4781 209.6927 195.9706 208.0428 196.0907 207.2097 195.9661 206.1657 196.0172 204.5608 196.7252 200.8316 197.7869 196.1989 198.1948 195.2007 198.7199 194.564 199.5643 193.8815 200.3549 193.4628 202.1456 193.0556 204.3404 192.2708 205.5231 192.3004 211.1014 193.0166 212.6706 192.8779 214.873 191.2115 215.4516 190.5716 217.6075 187.1237 218.1037 185.9853 218.185 184.1347 217.7446 182.3154 217.3123 181.0799 216.397 179.4216 212.8502 176.2401 212.4308 175.5823 212.2978 175.1514 212.1599 173.3878 212.485 171.5744 212.7764 171.0865 213.5955 170.3885 214.9012 169.7338 216.2461 169.5706 218.1165 169.7752 220.8613 170.6095 221.7908 170.765 224.6187 170.7543 227.2577 170.2329 229.3933 169.519 230.9982 169.4782 231.2775 170.2339 231.5789 171.1634 231.3085 173.7301 229.0792 177.526 228.5838 179.9086 228.6873 181.8087 229.3658 182.8801 230.2412 183.64 231.9784 184.3887 233.9101 184.4101 235.6703 183.7917 236.2416 182.6123 236.5504 181.9748 236.5896 180.6247 235.9428 178.3553 235.8414 178.1052 234.5521 174.9207 234.5877 172.9843 237.1535 168.728 236.4589 167.6907 240.2605 165.5456 241.6908 164.8927 242.4324 164.6779 245.326 164.2839 246.331 163.7705 253.7137 158.5392 254.9021 157.3214 255.8383 155.9494 256.4548 154.7565 256.8831 153.4987 257.0443 152.2044 256.7273 150.5981 255.2945 147.5163 254.6541 146.8495 253.1617 145.6404 252.78 144.9913 252.1709 142.498 251.859 138.6943 252.0902 137.0126 252.4231 135.571 252.6445 134.6121 253.3137 133.5545 253.8785 131.227 254.4525 130.303 256.4866 128.0315 Z" id="fips-28027"/>
<path d="M 623.8715 555.2998 625.2071 555.237 646.665 555.2971 750.9141 553.4103 749.6476 567.842 746.9086 601.9399 745.9036 611.5271 744.0072 634.2297 743.9959 634.3034 742.8415 647.2926 670.9153 648.1953 624.5026 648.7252 624.0065 587.5584 624.0182 573.0422 623.9845 570.9531 623.8715 555.2998 Z" id="fips-28069"/>
<path d="M 490.6338 343.3846 515.8555 343.3618 560.6872 343.0915 560.6992 338.6982 595.6453 338.2981 595.7078 353.2625 595.4767 366.5822 599.3626 366.0771 599.4134 377.3881 599.4669 385.6497 595.6676 385.6616 583.9595 385.7579 583.961 393.4626 563.3555 393.6592 552.7034 397.2041 545.5207 397.54 543.1638 399.5335 532.4653 403.5514 527.9223 410.717 523.0025 409.686 518.8319 413.1975 510.6703 413.2707 490.8769 413.3873 490.8053 382.2656 490.7093 355.1969 490.6338 343.3846 Z" id="fips-28155"/>
<path d="M 443.169 121.0386 454.8092 121.018 489.4558 120.9619 495.0644 121.0315 506.3607 130.1289 512.9469 128.2324 518.4352 130.9525 521.4233 128.4276 527.904 129.5171 530.2353 128.4879 539.3483 133.5553 543.7978 133.9295 547.8104 136.5298 547.8908 167.5885 547.9244 179.7442 548.1117 202.4965 548.3143 225.8584 489.8852 225.7725 489.9422 218.0586 486.0888 218.0521 443.1713 217.6533 443.5641 178.7912 443.2072 175.8147 443.2231 149.2664 443.2394 148.6383 443.169 121.0386 Z" id="fips-28071"/>
<path d="M 625.3076 742.983 690.9563 741.8494 734.3612 741.0451 732.8648 755.7187 732.8534 755.9134 731.9778 765.3083 729.8825 787.7529 729.5706 791.0895 729.555 791.3187 726.783 819.8194 726.7418 820.5977 725.8622 830.3352 705.8463 836.3763 691.5226 840.6244 660.1673 846.4542 649.7862 847.3508 626.8065 849.1926 626.3537 820.4056 626.2671 812.8254 625.8349 789.6928 625.5858 773.905 625.3076 742.983 Z" id="fips-28023"/>
<path d="M 518.8319 413.1975 523.0025 409.686 527.9223 410.717 532.4653 403.5514 543.1638 399.5335 545.5207 397.54 552.7034 397.2041 563.3555 393.6592 583.961 393.4626 583.9638 393.6453 584.0427 416.809 584.364 459.5095 579.756 459.5513 579.8758 483.0316 575.4041 483.1461 556.5067 483.2785 556.5001 495.0994 556.4945 506.8299 533.233 507.0573 533.4036 459.8469 514.4481 459.8041 502.7125 459.8221 502.5822 420.4766 504.301 418.7 509.6862 421.4503 514.1154 415.2233 518.8319 413.1975 Z" id="fips-28019"/>
<path d="M 220.6854 462.933 256.6652 463.1314 256.7247 447.461 279.5658 447.5627 279.3406 461.7838 279.312 464.1758 288.3122 472.7874 298.7749 471.7495 296.5546 460.8264 299.2049 462.0557 303.9623 453.1904 306.6755 454.8741 306.7205 485.9072 306.6151 499.6227 302.9496 500.4883 301.0063 505.5202 302.8774 508.7266 300.117 510.6088 298.0307 502.2079 294.1059 505.5645 298.7363 510.2111 297.0366 513.2619 294.362 512.3723 292.4914 508.5108 287.3758 507.8545 286.9101 505.0124 283.8541 510.0044 284.2704 519.3399 287.4598 522.5729 292.8322 522.3404 295.4379 524.4735 294.7179 528.7896 298.9032 532.9081 279.7901 533.1967 279.4897 556.0998 233.1232 555.9161 233.2484 509.4208 223.4455 509.385 228.4388 507.7799 228.4829 504.5463 223.9867 502.5222 224.3045 498.2403 226.651 495.4749 227.3055 484.4874 228.5393 481.1966 223.2351 478.3046 216.7997 472.7958 218.1245 463.582 220.6854 462.933 Z" id="fips-28053"/>
<path d="M 233.1232 555.9161 279.4897 556.0998 279.7901 533.1967 298.9032 532.9081 300.9491 532.5518 302.9143 529.7844 304.6588 533.07 341.4205 548.6248 342.2551 548.9821 388.0106 568.3457 380.7345 581.0724 376.3953 582.3187 376.4031 588.5821 372.9547 600.2658 370.6986 604.4769 363.1289 608.3532 359.1552 614.1893 357.7984 616.1487 354.2116 614.9852 341.0987 621.5041 335.6897 625.7789 329.7727 626.5098 329.2669 624.5949 325.1189 627.11 317.6705 626.5945 315.1499 631.5434 311.7394 630.6543 307.624 638.3564 304.2526 641.0889 302.2053 639.0264 298.2295 641.7298 288.9277 649.3122 283.7925 646.3385 278.7575 649.4876 275.3046 656.443 271.3474 657.3878 267.6268 662.7186 262.0446 664.0407 262.3525 668.2441 255.2413 666.9921 255.2774 660.4903 247.6137 660.4646 247.626 656.6405 232.6394 656.5109 232.546 647.435 232.532 644.8246 224.7151 644.8521 224.8593 637.0319 218.074 636.9114 223.1623 635.2846 224.5769 632.3192 219.7753 630.6519 217.5022 625.343 220.9801 617.8445 223.7606 619.2615 226.2754 624.997 229.4632 623.4688 230.7848 618.2577 224.3405 613.5476 219.7422 613.2911 213.3057 607.3707 214.8419 600.2326 218.9759 602.4129 224.5126 600.7831 225.2849 597.6952 221.2925 594.4749 219.5851 591.231 220.9591 586.6958 224.3956 584.5807 217.8724 583.4588 213.8881 586.0238 209.721 584.6784 209.7552 578.8648 233.1232 555.9161 Z" id="fips-28163"/>
<path d="M 323.6288 878.5711 337.5233 874.9204 344.2845 870.7633 345.7773 870.9827 349.5659 868.4086 351.5407 869.3172 385.1698 867.0437 384.6496 930.9419 388.5114 930.9682 388.5039 941.701 388.4845 952.7763 388.4499 966.2132 384.5837 965.1072 369.8539 965.0353 369.8035 980.7052 366.9395 982.602 360.2188 982.6015 354.2584 976.6756 323.398 976.6832 323.4505 939.9095 323.5171 923.6529 323.5486 918.0478 323.628 878.9283 323.6288 878.5711 Z" id="fips-28077"/>
<path d="M 573.8032 954.3948 604.0524 954.3515 619.9983 954.2873 643.1966 954.0549 643.633 998.3739 644.2317 1070.3251 645.7417 1070.4275 645.8834 1093.8398 634.2917 1093.8026 576.3112 1094.3982 576.1562 1070.2788 574.3185 1070.2177 573.9109 978.1908 573.8032 954.3948 Z" id="fips-28111"/>
</g>
</svg>