<?xml version="1.0"?>
<svg xmlns="http://www.w3.org/2000/svg" version="1.2" baseProfile="tiny" width="800" height="371" viewBox="0 0 800 371" stroke-linecap="round" stroke-linejoin="round">
<g id="cb_2018_us_county_5m">
<path d="M 344.4637 119.8398 353.378 119.9176 396.2186 119.9476 396.2903 161.4714 345.7122 161.4405 344.4352 161.4292 344.4637 119.8398 Z" id="fips-31009"/>
<path d="M 253.7549 201.8532 303.8765 202.7086 345.5118 203.0572 346.8625 203.0608 346.814 211.6258 346.9562 216.6694 346.4737 244.7083 347.7345 244.7071 347.6228 286.3002 297.1359 285.912 254.3344 285.5971 254.7548 248.8331 254.8238 243.6172 252.9931 243.5857 253.7549 201.8532 Z" id="fips-31111"/>
<path d="M 242.2091 159.8157 292.7332 160.9192 304.4478 161.1274 303.9216 184.5374 304.0055 187.0931 303.8765 202.7086 253.7549 201.8532 241.3663 201.5764 242.2091 159.8157 Z" id="fips-31117"/>
<path d="M 564.8978 242.7316 606.3651 241.6241 607.5066 283.4392 565.9826 284.5151 565.8968 284.5149 564.8978 242.7316 Z" id="fips-31185"/>
<path d="M 182.4532 221.1536 183.0172 200.3101 189.3742 200.5267 241.3663 201.5764 253.7549 201.8532 252.9931 243.5857 254.8238 243.6172 254.7548 248.8331 182.122 247.2938 181.9153 242.0544 182.4532 221.1536 Z" id="fips-31101"/>
<path d="M 523.9615 264.9342 524.6151 263.6132 530.679 256.6548 534.0083 254.4093 536.0722 250.8243 540.149 247.8089 541.2058 247.6755 544.2891 244.2345 546.7771 242.2949 549.0269 239.2882 551.7411 237.7064 552.0787 238.3268 559.3344 234.6809 560.3676 233.6367 564.3728 227.5044 564.737 242.3108 564.8978 242.7316 565.8968 284.5149 524.7256 285.3856 524.2934 285.3941 523.9615 264.9342 Z" id="fips-31081"/>
<path d="M 190.3443 158.7935 240.4662 159.8002 242.2091 159.8157 241.3663 201.5764 189.3742 200.5267 190.3443 158.7935 Z" id="fips-31005"/>
<path d="M 292.908 119.1527 344.4637 119.8398 344.4352 161.4292 304.4478 161.1274 292.7332 160.9192 292.908 119.1527 Z" id="fips-31171"/>
<path d="M 180.4223 314.9876 180.6614 305.3739 180.6967 303.2432 181.2145 284.0724 245.469 285.4098 244.9787 327.1538 180.1381 325.8861 180.1487 324.5825 180.2697 320.6205 180.2553 320.2218 180.4223 314.9876 Z" id="fips-31029"/>
<path d="M 520.5806 139.3177 561.8753 138.3222 562.417 158.6265 562.6069 159.214 563.2612 185.1553 558.2615 185.3052 558.3139 187.0388 544.2946 187.4461 544.3185 189.193 539.0746 189.3707 539.134 191.1248 521.8815 191.4537 521.3727 160.651 520.9347 160.1851 520.5806 139.3177 Z" id="fips-31011"/>
<path d="M 524.7256 285.3856 565.8968 284.5149 565.9826 284.5151 566.9852 326.2908 525.867 327.152 525.4535 327.1608 524.7256 285.3856 Z" id="fips-31035"/>
<path d="M 606.3651 241.6241 647.733 240.4435 648.6803 268.3122 649.1017 282.2299 648.8856 282.2404 607.5066 283.4392 606.3651 241.6241 Z" id="fips-31159"/>
<path d="M 481.2618 202.4579 522.0579 201.8809 522.4934 201.8727 523.1726 243.6057 504.5534 243.8967 483.7987 244.1643 481.3943 244.1983 481.2618 202.4579 Z" id="fips-31093"/>
<path d="M 564.3728 227.5044 566.8227 225.0601 569.8239 219.995 574.6178 215.9976 579.3133 211.3582 581.7926 211.0698 584.7162 209.7337 584.6632 207.8282 587.1427 207.2641 591.4061 204.1905 597.8922 203.1933 605.1797 199.6702 606.3651 241.6241 564.8978 242.7316 564.737 242.3108 564.3728 227.5044 Z" id="fips-31143"/>
<path d="M 602.7925 116.2944 613.1189 116.0096 633.8698 115.3935 635.1792 157.1189 631.721 157.2278 614.3655 157.7513 604.0118 158.0367 603.1055 126.7328 602.7925 116.2944 Z" id="fips-31167"/>
<path d="M 129.4413 125.4178 183.9216 126.5632 182.9656 158.6272 190.3443 158.7935 189.3742 200.5267 183.0172 200.3101 182.4532 221.1536 132.3767 219.6833 133.1407 198.8597 130.6859 198.7628 130.8553 193.5055 132.0696 157.0047 129.5296 156.883 128.8091 153.429 128.5521 149.8837 129.4413 125.4178 Z" id="fips-31069"/>
<path d="M 484.3919 327.7771 484.6554 327.7747 525.4535 327.1608 525.867 327.152 526.5497 368.9106 506.6367 369.2634 505.3562 369.2822 503.6457 369.307 501.794 369.3406 500.1943 369.3652 498.8473 369.3599 497.1804 369.384 495.303 369.4194 492.8235 369.4423 491.74 369.4867 491.6168 369.4854 490.1549 369.488 489.8703 369.4972 488.2633 369.4962 488.157 369.5027 488.0052 369.5205 486.4134 369.5642 484.9517 369.5776 484.9445 369.5777 484.3919 327.7771 Z" id="fips-31181"/>
<path d="M 560.3224 75.7248 591.2433 74.8468 601.6666 74.5352 601.9549 84.9686 602.7925 116.2944 561.2828 117.4977 560.3224 75.7248 Z" id="fips-31139"/>
<path d="M 245.8475 368.9294 245.9834 368.9291 246.5593 329.7022 246.7572 327.172 296.7164 328.0189 298.4499 328.0331 297.9889 348.9916 298.1965 351.2298 297.9691 369.718 281.5407 369.5398 273.2389 369.414 270.2376 369.365 263.7452 369.2541 260.2691 369.1859 259.3399 369.1807 258.1062 369.1583 256.0081 369.1168 252.9141 369.0674 249.4302 369.0068 248.7463 368.9951 245.9834 368.9307 245.8475 368.9294 Z" id="fips-31087"/>
<path d="M 245.469 285.4098 254.3344 285.5971 297.1359 285.912 296.7678 291.2571 296.5491 324.9502 296.7164 328.0189 246.7572 327.172 244.9787 327.1538 245.469 285.4098 Z" id="fips-31085"/>
<path d="M 68.3256 123.4283 104.943 124.9868 112.9564 125.4077 127.6343 125.4103 129.4413 125.4178 128.5521 149.8837 128.8091 153.429 129.5296 156.883 132.0696 157.0047 130.8553 193.5055 65.0159 191.2392 66.1867 159.8478 66.4062 154.5363 67.1017 154.556 68.3256 123.4283 Z" id="fips-31123"/>
<path d="M 562.6069 159.214 604.0118 158.0367 614.3655 157.7513 614.8156 173.4076 615.5897 199.515 615.5439 200.8363 612.4039 198.9551 608.0148 200.1571 605.1797 199.6702 597.8922 203.1933 591.4061 204.1905 587.1427 207.2641 584.6632 207.8282 584.4546 200.391 574.9744 200.6513 574.6009 184.812 563.2612 185.1553 562.6069 159.214 Z" id="fips-31141"/>
<path d="M 567.2869 326.2834 608.639 325.24 609.7426 367.0482 609.7425 367.0482 605.4562 367.1753 605.2729 367.1777 604.5727 367.1942 602.8064 367.2536 601.0942 367.2896 596.7764 367.4314 596.6735 367.4264 596.3125 367.4358 573.1046 368.0079 572.9705 368.011 572.8261 368.0166 572.239 368.0076 568.3531 368.1233 568.1626 368.1224 567.2869 326.2834 Z" id="fips-31169"/>
<path d="M 63.3148 71.003 122.7164 72.9638 124.8351 73.0348 124.7076 75.6508 124.619 83.5845 124.3106 95.8433 124.4465 104.5292 124.0339 114.7692 127.5855 114.8458 127.4426 119.8187 127.6343 125.4103 112.9564 125.4077 104.943 124.9868 68.3256 123.4283 64.917 123.2139 65.3527 112.7719 61.5784 112.5964 63.3148 71.003 Z" id="fips-31013"/>
<path d="M 241.1984 117.876 292.908 119.1527 292.7332 160.9192 242.2091 159.8157 240.4662 159.8002 241.1984 117.876 Z" id="fips-31091"/>
<path d="M 183.9216 126.5632 189.1005 126.732 189.5801 116.2399 241.1984 117.876 240.4662 159.8002 190.3443 158.7935 182.9656 158.6272 183.9216 126.5632 Z" id="fips-31075"/>
<path d="M 442.9726 328.1549 484.3919 327.7771 484.9445 369.5777 480.4769 369.6189 480.2688 369.6187 476.2779 369.6703 475.0023 369.6795 465.7729 369.7975 463.3694 369.8137 463.361 369.8082 462.3757 369.8237 462.3237 369.827 460.4979 369.8509 458.0539 369.8568 457.9034 369.8665 453.609 369.9159 451.9003 369.9349 449.3324 369.9489 448.4564 369.9593 444.1529 370.0212 443.3112 370.0212 443.2956 370.0213 442.9726 328.1549 Z" id="fips-31061"/>
<path d="M 442.72 290.9474 443.5189 291.188 445.0292 291.1138 448.6146 291.5893 451.6756 291.3045 455.9166 291.7799 459.3167 291.8175 461.2902 291.237 467.6133 291.6648 471.041 290.8542 474.827 288.9362 484.1126 287.0249 484.6554 327.7747 484.3919 327.7771 442.9726 328.1549 442.72 290.9474 Z" id="fips-31099"/>
<path d="M 439.918 202.8635 480.6109 202.4772 481.2618 202.4579 481.3943 244.1983 439.8201 244.556 439.918 202.8635 Z" id="fips-31163"/>
<path d="M 438.8402 161.2584 479.4215 160.898 480.0405 160.8916 480.6109 202.4772 439.918 202.8635 439.0887 202.8579 438.8402 161.2584 Z" id="fips-31175"/>
<path d="M 651.3562 365.8282 650.0255 324.0402 650.2575 323.7025 649.6528 303.1598 668.3886 302.574 690.5857 301.7519 691.7682 333.0498 692.9449 364.3885 692.5934 364.3941 692.3725 364.4109 687.1216 364.6047 686.0325 364.6677 684.2973 364.7193 683.1035 364.7494 682.1857 364.7989 682.0997 364.8024 679.9785 364.8902 679.4765 364.91 678.3683 364.9178 661.5221 365.4968 655.2701 365.7026 655.1557 365.7068 654.862 365.7146 654.6594 365.7236 651.385 365.8272 651.3562 365.8282 Z" id="fips-31067"/>
<path d="M 565.9826 284.5151 607.5066 283.4392 608.639 325.24 567.2869 326.2834 566.9852 326.2908 565.9826 284.5151 Z" id="fips-31059"/>
<path d="M 605.1797 199.6702 608.0148 200.1571 612.4039 198.9551 615.5439 200.8363 620.4217 200.4946 622.3272 201.521 630.1217 199.3479 633.1405 196.892 636.8331 196.6146 638.3397 195.8412 641.3132 193.1097 645.1887 191.2601 646.5407 191.1768 646.5573 191.5424 646.7899 198.2719 646.5828 198.6669 647.9532 240.4391 647.733 240.4435 606.3651 241.6241 605.1797 199.6702 Z" id="fips-31023"/>
<path d="M 478.7281 119.0928 519.7662 118.4439 520.2425 119.3265 520.5806 139.3177 520.9347 160.1851 480.0405 160.8916 479.4215 160.898 478.7281 119.0928 Z" id="fips-31183"/>
<path d="M 601.9549 84.9686 632.9837 84.089 633.3314 94.5184 650.6109 93.959 650.6623 93.9572 651.2892 114.8301 633.8698 115.3935 613.1189 116.0096 602.7925 116.2944 601.9549 84.9686 Z" id="fips-31179"/>
<path d="M 561.2828 117.4977 602.7925 116.2944 603.1055 126.7328 604.0118 158.0367 562.6069 159.214 562.417 158.6265 561.8753 138.3222 561.2828 117.4977 Z" id="fips-31119"/>
<path d="M 182.122 247.2938 254.7548 248.8331 254.3344 285.5971 245.469 285.4098 181.2145 284.0724 181.3835 277.8242 182.1307 247.4757 182.1213 247.4755 182.122 247.2938 Z" id="fips-31135"/>
<path d="M 304.4478 161.1274 344.4352 161.4292 345.7122 161.4405 345.5118 203.0572 303.8765 202.7086 304.0055 187.0931 303.9216 184.5374 304.4478 161.1274 Z" id="fips-31113"/>
<path d="M 347.7345 244.7071 420.0372 244.7333 420.15 265.6179 420.1873 286.369 421.0923 286.369 421.0257 289.8414 418.555 289.0036 410.8905 289.3644 409.5663 288.6868 405.889 289.1311 400.4225 288.217 395.3377 286.417 369.6177 286.4043 347.6228 286.3002 347.7345 244.7071 Z" id="fips-31047"/>
<path d="M 690.5857 301.7519 726.7247 300.2502 728.0772 331.5736 691.7682 333.0498 690.5857 301.7519 Z" id="fips-31097"/>
<path d="M 351.0422 28.612 351.9799 29.6357 355.7117 30.539 356.7042 33.2319 358.5191 34.2154 363.5739 35.9418 367.8155 35.577 371.2451 37.5162 373.148 37.457 377.4875 38.3669 380.6511 37.9444 381.2774 39.8838 382.8459 39.7337 384.6474 41.0703 388.0435 42.0071 390.323 41.7105 393.967 42.9709 396.923 42.5112 397.1282 78.1093 398.2143 78.0884 398.4095 119.952 396.2186 119.9476 353.378 119.9176 353.5581 78.1943 352.1729 78.1705 352.3469 36.4341 350.9978 36.4262 351.0422 28.612 Z" id="fips-31017"/>
<path d="M 480.0405 160.8916 520.9347 160.1851 521.3727 160.651 521.8815 191.4537 522.0579 201.8809 481.2618 202.4579 480.6109 202.4772 480.0405 160.8916 Z" id="fips-31077"/>
<path d="M 691.7682 333.0498 728.0772 331.5736 733.2525 331.414 734.5452 362.7047 733.3135 362.7491 730.7797 362.859 728.0533 362.9923 727.2838 363.0356 723.9783 363.1838 723.9648 363.1885 722.0154 363.2659 721.3656 363.297 721.3544 363.2921 715.3112 363.5189 714.9743 363.5318 713.5666 363.5948 713.5633 363.595 707.8834 363.8352 707.563 363.8486 692.9516 364.3884 692.9449 364.3885 691.7682 333.0498 Z" id="fips-31133"/>
<path d="M 685.9469 197.3456 698.6924 196.854 707.3497 196.5015 722.6746 195.8465 733.7323 195.3546 733.9571 195.6096 734.1489 196.3925 734.7304 197.5084 734.8012 198.0822 734.6324 198.739 734.2497 199.2492 733.7716 199.6433 732.7856 200.1684 732.5518 200.3832 732.3947 200.7028 732.4235 201.1463 732.7772 201.8037 733.366 202.4746 734.0777 203.0678 735.3375 203.8166 735.6674 203.934 736.4192 204.0082 737.7186 203.8292 738.6839 204.0378 739.201 204.3028 739.6648 204.7866 740.0092 205.4201 740.3587 206.7627 740.2752 207.4565 740.267 207.5243 739.9307 208.0686 739.4556 208.5351 738.7734 208.9375 737.9405 208.3077 737.4183 207.1729 737.3854 206.4411 737.2343 206.2916 735.9369 206.3262 735.3033 206.6794 735.147 207.4198 735.1569 207.6415 735.1856 208.2836 735.2865 208.7238 735.6577 209.5277 735.7118 209.7211 735.9891 210.7118 736.0759 211.4413 736.5014 212.4686 737.0781 213.8605 737.1447 214.3384 737.1565 214.6024 737.0292 215.1852 736.8254 215.6753 736.0055 217.1309 735.8193 218.2212 735.9895 218.995 736.2643 219.5418 734.7931 219.6019 734.0363 219.6532 728.809 219.9198 728.5188 219.9288 727.1949 219.9874 722.0017 220.2066 715.0626 220.5028 711.6046 220.6614 699.816 221.2252 697.6483 219.6066 696.1636 216.0668 697.3877 213.36 697.3638 212.286 694.7452 208.4114 691.9938 206.5594 691.9582 204.1937 690.5159 200.6619 687.0317 198.8779 685.9469 197.3456 Z" id="fips-31055"/>
<path d="M 433.9736 33.5508 438.2309 31.2967 440.7243 30.5227 443.0345 28.9739 445.301 28.6698 448.0839 27.205 451.5574 26.4173 455.0487 23.5442 458.0516 22.2944 460.5084 22.5536 466.3985 28.5684 467.3385 28.8345 470.6558 28.2686 472.5946 30.0999 474.4622 30.7734 477.4468 30.3132 482.1681 33.1867 485.2905 33.2399 486.847 32.4602 493.3354 35.8874 496.4418 35.6129 497.9776 36.4346 501.5292 36.5634 504.0097 37.352 508.1255 36.1505 513.0911 37.034 514.7826 36.6421 517.9278 37.7232 518.5937 76.6569 519.0564 76.6509 519.7662 118.4439 478.7281 119.0928 437.5934 119.5555 436.5331 119.5531 436.3012 77.9386 435.368 77.931 434.9812 36.1616 434.0077 36.1492 433.9736 33.5508 Z" id="fips-31089"/>
<path d="M 522.4934 201.8727 523.6366 201.8576 523.7754 217.4122 539.4656 217.1534 539.4207 215.3989 543.7989 215.3256 543.7631 213.5736 557.7588 213.2151 557.6909 211.4635 575.0686 210.9497 574.9744 200.6513 584.4546 200.391 584.6632 207.8282 584.7162 209.7337 581.7926 211.0698 579.3133 211.3582 574.6178 215.9976 569.8239 219.995 566.8227 225.0601 564.3728 227.5044 560.3676 233.6367 559.3344 234.6809 552.0787 238.3268 551.7411 237.7064 549.0269 239.2882 546.7771 242.2949 544.2891 244.2345 541.2058 247.6755 540.149 247.8089 536.0722 250.8243 534.0083 254.4093 530.679 256.6548 524.6151 263.6132 523.9615 264.9342 523.9525 264.3493 523.8656 259.2723 523.8073 255.792 523.6168 244.0779 523.1726 243.6057 522.4934 201.8727 Z" id="fips-31121"/>
<path d="M 401.6892 328.2966 442.9726 328.1549 443.2956 370.0213 442.5755 370.0266 442.3967 370.0223 441.5975 370.0269 439.8695 370.041 436.7423 370.069 436.4072 370.0571 433.7436 370.0973 433.4041 370.0828 433.0318 370.0932 422.665 370.1466 421.8136 370.1627 420.8087 370.119 415.55 370.1803 414.3782 370.1853 413.9923 370.1897 413.8691 370.1848 413.6121 370.1774 402.2473 370.2293 402.187 370.2295 401.9777 370.2299 401.6892 328.2966 Z" id="fips-31083"/>
<path d="M 400.4225 288.217 405.889 289.1311 409.5663 288.6868 410.8905 289.3644 418.555 289.0036 421.0257 289.8414 421.5414 290.2299 424.7898 290.6115 428.8307 289.7282 431.4802 290.5894 436.7618 291.1269 442.72 290.9474 442.9726 328.1549 401.6892 328.2966 400.6138 328.2892 400.4225 288.217 Z" id="fips-31137"/>
<path d="M 688.3065 242.5855 698.6582 242.2802 698.5541 238.7611 701.2541 238.5954 703.0897 240.5637 704.5135 241.2576 707.5675 241.4917 709.2671 243.5728 710.5679 244.3057 711.5829 244.1047 717.1674 241.2286 720.16 237.3977 724.9178 235.1543 726.9198 234.9894 729.5565 235.5199 731.2114 236.3972 734.5973 235.5592 734.6987 235.6157 734.7966 235.6485 734.9083 235.6435 735.0229 235.6025 740.0469 235.3121 740.9537 235.8892 741.8722 236.8211 742.6288 237.4804 742.7564 237.6597 742.8414 237.9193 742.9135 238.4084 742.8734 239.1551 742.3781 240.1396 742.1779 240.7138 742.0953 241.1148 742.14 241.5272 742.3365 242.0414 742.7026 242.5367 743.0193 242.7744 743.7229 243.1634 744.4762 243.395 744.985 243.737 745.4917 244.1734 745.8084 244.6791 745.9335 244.9912 746.019 245.3852 745.9299 246.4137 745.2673 248.0358 745.1152 249.3263 745.2024 250.1833 745.4246 251.143 745.5623 251.5058 745.8938 252.0193 746.1181 252.2781 747.2485 253.21 747.6688 253.6572 747.7521 253.8028 748.0057 254.2462 748.1198 254.5366 748.1703 255.0415 748.0833 255.5922 747.9723 255.8909 747.6476 256.4341 747.3295 256.7382 746.8537 257.0534 745.6237 257.4479 745.2912 257.6946 745.1561 257.8232 744.9156 258.2554 744.8465 258.4289 744.7913 258.8242 744.8137 259.1182 744.9652 259.6441 745.5352 260.6482 745.9647 261.8615 745.9769 262.3638 745.8864 262.9677 745.4502 264.0083 745.3787 264.2976 745.3558 264.7775 745.5416 265.6755 746.3324 267.2203 746.4651 267.557 746.5148 268.0348 739.4783 268.3117 689.3813 270.4393 688.3065 242.5855 Z" id="fips-31025"/>
<path d="M 726.7247 300.2502 759.24 298.6932 759.3785 298.9567 760.3761 298.0766 760.5467 297.5098 760.322 297.0564 760.3317 296.0759 760.4635 295.3985 760.4954 294.6489 761.1151 294.1719 761.868 293.9079 762.5014 293.8696 763.1053 294.5547 763.4518 295.3467 764.0395 295.7212 764.2881 296.2761 764.414 296.7244 764.1857 298.4854 763.6735 299.2612 763.1136 299.5705 760.957 300.4945 760.6456 300.709 760.2547 300.8716 760.6561 301.6007 760.7976 302.249 760.7894 303.0927 760.7271 303.6335 760.6952 304.0274 760.7474 304.3798 760.9285 304.9055 761.0783 305.1455 761.9113 305.8306 762.5846 306.184 763.0991 306.5756 763.7071 307.2091 764.4179 308.2931 764.6917 309.1388 764.6654 309.8578 764.5048 310.3737 764.3171 311.0676 764.2657 311.418 764.5191 312.2782 765.4761 313.7396 766.029 314.8309 766.2407 315.8552 766.2105 316.2464 766.264 316.8656 766.4099 317.2709 766.8068 317.8574 767.3327 318.3188 767.756 318.8404 767.9871 319.2603 768.1013 319.573 768.2273 320.2534 768.1978 320.554 768.0363 321.0522 767.6229 321.4682 767.2791 321.6889 766.0104 322.2 765.4977 322.5822 765.252 322.9687 765.1675 323.4148 765.161 323.7863 765.235 324.0044 765.5288 324.3449 765.7903 324.4792 766.3602 324.5708 766.6385 324.5174 767.1728 324.2932 768.3419 323.6603 768.8172 323.4858 769.221 323.4055 769.5001 323.4235 769.9949 323.569 770.5999 323.87 771.4134 324.6249 771.6774 324.7983 772.1994 325.0214 773.4486 325.0142 774.0053 325.1996 774.3273 325.3743 774.8509 325.9033 775.018 326.1947 775.0934 326.5178 775.0739 327.1061 774.6959 328.363 774.7089 328.7286 774.8654 329.1121 774.9166 329.2376 775.0944 329.4081 733.2525 331.414 728.0772 331.5736 726.7247 300.2502 Z" id="fips-31127"/>
<path d="M 351.1322 10.3093 357.414 10.3145 357.4552 10.3148 358.0814 10.3196 365.5394 10.3741 366.1169 10.3757 368.1422 10.3843 371.9678 10.3988 372.8711 10.4056 372.9159 10.4062 374.9156 10.4299 375.7275 10.4377 379.3029 10.4368 379.9891 10.4373 380.8622 10.4537 381.7326 10.4291 384.2069 10.4509 385.3044 10.429 385.8354 10.4426 386.1009 10.4536 387.1601 10.4481 388.8926 10.4344 391.1225 10.4585 392.5587 10.4596 393.2272 10.4581 394.7847 10.4448 394.979 10.4583 406.3942 10.421 409.3721 10.4069 409.4885 10.4062 412.9811 10.3849 413.2876 10.3808 414.7165 10.3828 414.9957 10.3953 421.6523 10.3418 423.5233 10.3473 423.7997 10.3404 424.0186 10.3336 425.8934 10.3145 431.0967 10.2926 433.3219 10.2689 434.0472 10.2756 434.1645 21.4754 433.9736 33.5508 432.4038 34.6977 430.18 34.5499 426.9947 36.4634 423.3316 36.2632 421.4341 37.5736 420.0539 37.4936 418.1388 39.7215 415.896 39.9698 415.2034 41.5706 409.2959 44.0762 405.3938 43.3049 401.5379 43.3214 398.4944 42.0039 396.923 42.5112 393.967 42.9709 390.323 41.7105 388.0435 42.0071 384.6474 41.0703 382.8459 39.7337 381.2774 39.8838 380.6511 37.9444 377.4875 38.3669 373.148 37.457 371.2451 37.5162 367.8155 35.577 363.5739 35.9418 358.5191 34.2154 356.7042 33.2319 355.7117 30.539 351.9799 29.6357 351.0422 28.612 351.1322 10.3093 Z" id="fips-31103"/>
<path d="M 607.5066 283.4392 648.8856 282.2404 649.6528 303.1598 650.2575 323.7025 650.0255 324.0402 608.639 325.24 607.5066 283.4392 Z" id="fips-31151"/>
<path d="M 396.2186 119.9476 398.4095 119.952 436.5331 119.5531 437.5934 119.5555 437.9606 161.2429 396.2903 161.4714 396.2186 119.9476 Z" id="fips-31115"/>
<path d="M 645.3822 156.8082 676.7716 155.7771 686.6992 155.4253 686.9213 162.4049 687.7489 181.5673 688.596 181.5344 688.7022 185.0162 689.5621 184.9901 689.6312 186.7329 691.3619 186.6506 691.4593 188.4063 693.1847 188.3467 693.2483 190.0865 694.982 190.0536 695.0379 191.7647 698.4906 191.6354 698.6924 196.854 685.9469 197.3456 682.9788 197.0819 681.4989 195.7621 676.9571 192.9115 671.0783 192.9645 665.9604 194.197 664.2215 193.6416 660.8783 191.4845 658.4789 191.5237 654.4101 192.8611 652.7197 192.2304 646.5573 191.5424 646.5407 191.1768 645.3822 156.8082 Z" id="fips-31053"/>
<path d="M 646.5573 191.5424 652.7197 192.2304 654.4101 192.8611 658.4789 191.5237 660.8783 191.4845 664.2215 193.6416 665.9604 194.197 671.0783 192.9645 676.9571 192.9115 681.4989 195.7621 682.9788 197.0819 685.9469 197.3456 687.0317 198.8779 690.5159 200.6619 691.9582 204.1937 691.9938 206.5594 694.7452 208.4114 697.3638 212.286 697.3877 213.36 696.1636 216.0668 697.6483 219.6066 699.816 221.2252 701.0727 226.7086 700.8239 228.4202 701.1299 228.9607 701.6572 230.1246 699.7558 232.0904 699.2112 234.1701 701.2541 238.5954 698.5541 238.7611 698.6582 242.2802 688.3065 242.5855 688.1722 239.1037 675.7598 239.532 647.9532 240.4391 646.5828 198.6669 646.7899 198.2719 646.5573 191.5424 Z" id="fips-31155"/>
<path d="M 521.8815 191.4537 539.134 191.1248 539.0746 189.3707 544.3185 189.193 544.2946 187.4461 558.3139 187.0388 558.2615 185.3052 563.2612 185.1553 574.6009 184.812 574.9744 200.6513 575.0686 210.9497 557.6909 211.4635 557.7588 213.2151 543.7631 213.5736 543.7989 215.3256 539.4207 215.3989 539.4656 217.1534 523.7754 217.4122 523.6366 201.8576 522.4934 201.8727 522.0579 201.8809 521.8815 191.4537 Z" id="fips-31125"/>
<path d="M 483.7987 244.1643 504.5534 243.8967 523.1726 243.6057 523.6168 244.0779 523.8073 255.792 523.8656 259.2723 523.9525 264.3493 523.9615 264.9342 524.2934 285.3941 484.3682 285.9251 484.0005 259.7567 483.7987 244.1643 Z" id="fips-31079"/>
<path d="M 396.923 42.5112 398.4944 42.0039 401.5379 43.3214 405.3938 43.3049 409.2959 44.0762 415.2034 41.5706 415.896 39.9698 418.1388 39.7215 420.0539 37.4936 421.4341 37.5736 423.3316 36.2632 426.9947 36.4634 430.18 34.5499 432.4038 34.6977 433.9736 33.5508 434.0077 36.1492 434.9812 36.1616 435.368 77.931 436.3012 77.9386 436.5331 119.5531 398.4095 119.952 398.2143 78.0884 397.1282 78.1093 396.923 42.5112 Z" id="fips-31149"/>
<path d="M 686.9213 162.4049 715.8476 161.2992 715.8476 161.3293 715.9392 161.9119 716.2133 162.3163 716.5109 162.6857 716.8376 162.9929 717.9191 163.8502 718.1017 164.1246 718.3579 164.8284 718.4188 165.4714 718.2186 166.4095 717.9736 166.916 716.8286 168.3515 716.654 168.6476 716.5218 169.1603 716.5278 169.6242 716.5947 170.0416 716.7714 170.5436 716.9683 170.9538 717.3945 171.5854 717.8548 172.0107 718.1291 172.1899 719.2986 172.6276 719.5688 172.8292 719.7923 173.1089 719.9486 173.4546 720.0267 173.826 720.04 174.1879 719.9457 174.558 719.7499 174.975 719.1541 175.8115 719.0078 176.1562 718.8453 177.0517 718.8343 177.4955 719.0632 178.4386 719.4945 179.32 719.6347 179.4562 720.3403 179.7137 721.0226 180.0625 721.5445 180.6063 721.9152 181.0925 722.4513 181.6308 722.846 181.9299 723.3543 182.0986 724.021 182.093 724.2495 181.9731 724.3784 181.8404 724.5647 181.3747 724.822 179.6276 724.9505 178.1404 725.0459 177.9601 725.3971 177.5501 725.7034 177.3708 725.9896 177.3171 726.5707 177.3579 727.0226 177.5218 727.3892 177.8492 727.5486 178.1387 728.1353 179.9481 728.2773 180.6778 728.3002 181.0514 728.2907 181.3129 728.203 181.5862 728.0176 181.9313 727.8739 182.1985 727.0654 183.0947 726.315 183.7255 726.042 184.1418 725.9955 184.2961 726.0276 184.4645 726.3373 185.0593 726.7813 185.6822 727.0553 185.9314 727.4346 186.1186 728.6743 186.3004 729.4008 186.3398 730.2681 186.597 731.0039 187.0221 731.2907 187.0934 731.7677 187.0716 732.6972 186.6271 733.1004 186.5975 733.5702 186.7052 733.9261 186.8566 734.5971 187.3573 734.9026 187.7783 735.1271 188.2731 735.1841 188.7086 735.1397 189.1458 735.039 189.4196 734.8654 189.7064 734.286 190.4355 734.163 190.6791 734.0887 190.9811 734.2063 191.8542 734.4601 192.6805 734.4958 193.1387 734.4285 193.7611 733.9318 194.9606 733.8955 195.358 733.9571 195.6096 733.7323 195.3546 722.6746 195.8465 707.3497 196.5015 698.6924 196.854 698.4906 191.6354 695.0379 191.7647 694.982 190.0536 693.2483 190.0865 693.1847 188.3467 691.4593 188.4063 691.3619 186.6506 689.6312 186.7329 689.5621 184.9901 688.7022 185.0162 688.596 181.5344 687.7489 181.5673 686.9213 162.4049 Z" id="fips-31177"/>
<path d="M 517.2608 23.1616 518.3487 23.4429 519.8956 24.0236 520.922 24.1067 521.8089 24.0622 522.3813 24.24 522.5586 24.3546 522.8294 24.7635 524.1575 25.6108 524.6412 26.01 524.847 26.273 525.2401 26.5496 526.6029 27.2824 527.9124 27.8844 529.5648 28.3953 529.8813 28.412 530.2559 28.3787 531.1478 28.1307 531.5874 28.0085 531.687 28.0294 532.4981 28.8657 533.3069 30.2311 533.4459 30.3606 535.2125 31.4662 535.4809 31.72 536.3951 32.8027 536.9988 33.2134 537.446 33.3782 538.8259 34.5014 539.2292 34.9304 539.3833 35.3074 539.5209 35.9269 539.809 36.1602 540.2548 36.3928 540.8679 36.4691 541.1056 36.5499 541.5412 36.7322 541.7283 36.9107 543.3021 37.0937 543.671 37.0994 544.3102 36.8617 544.5951 36.9642 544.7876 36.9612 545.4738 36.7239 546.776 36.1185 548.1489 36.2351 548.9017 36.1791 549.1949 36.1032 550.362 35.3412 550.6862 35.04 551.6746 33.7995 552.1538 33.6029 552.7537 32.9883 553.0936 32.5048 553.9932 30.9464 554.3492 30.5264 554.4911 30.2665 554.7921 29.1813 555.2058 28.0714 555.2624 27.0759 555.5264 26.5834 555.5367 26.273 555.4215 25.9927 555.4065 25.7851 555.5404 25.2621 556.378 24.7465 557.0526 24.4631 558.1614 24.1207 559.1347 23.9712 559.634 23.9594 559.8744 24.1058 560.6587 24.7784 561.7437 25.1063 562.0535 25.1998 563.2003 25.7289 564.4431 26.1322 565.3009 26.1928 566.2629 26.1805 566.5658 26.1155 569.2023 26.2988 570.9221 26.6944 572.2043 26.8266 573.8051 26.7154 574.7197 26.5011 575.6896 26.1194 576.6726 25.6326 577.9882 24.9809 578.7274 24.7496 579.4356 24.7361 579.8383 24.978 580.492 25.2486 582.033 25.7113 583.1504 25.9346 584.4207 25.8443 585.787 25.5588 587.1756 25.084 588.1367 24.4908 588.5372 24.6311 588.6541 24.871 588.912 25.1002 589.3343 25.2818 589.9164 25.4171 591.2433 74.8468 560.3224 75.7248 519.0564 76.6509 518.5937 76.6569 517.9278 37.7232 517.4291 34.9204 517.2608 23.1616 Z" id="fips-31107"/>
<path d="M 434.0472 10.2756 434.061 10.2757 435.8031 10.2471 439.2518 10.2442 442.2212 10.1794 443.1212 10.1871 444.1836 10.1592 444.4547 10.1819 449.2048 10.1449 449.3689 10.1352 454.4378 10.105 454.472 10.0893 456.3639 10.0828 459.7268 10.0489 463.49 10.0163 463.4986 10.0161 464.9022 9.9938 465.1844 10.0129 471.855 9.917 473.8474 9.9023 477.0903 9.8538 479.021 9.8277 485.7638 9.7181 485.9309 9.7269 494.2539 9.6005 494.5934 9.6121 500.4349 9.5063 500.7008 10.7664 501.1822 11.97 502.2255 13.6841 503.2721 15.5871 503.7776 15.955 504.0572 16.0771 504.6202 16.6668 504.9678 16.8968 505.0813 17.0524 505.1943 17.5907 505.3478 17.7537 505.7369 17.8733 505.9526 17.8461 506.1955 17.742 506.5048 17.4637 506.9121 17.3856 507.4001 17.3989 508.5479 18.1217 509.3041 18.5038 510.4424 18.9724 511.428 19.5895 512.9619 20.2383 514.011 20.7932 514.3511 21.0156 514.7462 21.3796 514.9392 21.6292 515.1545 22.1205 515.2511 22.2426 515.4983 22.4858 515.8366 22.7131 516.3994 22.9387 517.2608 23.1616 517.4291 34.9204 517.9278 37.7232 514.7826 36.6421 513.0911 37.034 508.1255 36.1505 504.0097 37.352 501.5292 36.5634 497.9776 36.4346 496.4418 35.6129 493.3354 35.8874 486.847 32.4602 485.2905 33.2399 482.1681 33.1867 477.4468 30.3132 474.4622 30.7734 472.5946 30.0999 470.6558 28.2686 467.3385 28.8345 466.3985 28.5684 460.5084 22.5536 458.0516 22.2944 455.0487 23.5442 451.5574 26.4173 448.0839 27.205 445.301 28.6698 443.0345 28.9739 440.7243 30.5227 438.2309 31.2967 433.9736 33.5508 434.1645 21.4754 434.0472 10.2756 Z" id="fips-31015"/>
<path d="M 648.8856 282.2404 649.1017 282.2299 648.6803 268.3122 647.733 240.4435 647.9532 240.4391 675.7598 239.532 688.1722 239.1037 688.3065 242.5855 689.3813 270.4393 689.5102 273.92 690.5857 301.7519 668.3886 302.574 649.6528 303.1598 648.8856 282.2404 Z" id="fips-31109"/>
<path d="M 614.3655 157.7513 631.721 157.2278 635.1792 157.1189 645.3822 156.8082 646.5407 191.1768 645.1887 191.2601 641.3132 193.1097 638.3397 195.8412 636.8331 196.6146 633.1405 196.892 630.1217 199.3479 622.3272 201.521 620.4217 200.4946 615.5439 200.8363 615.5897 199.515 614.8156 173.4076 614.3655 157.7513 Z" id="fips-31037"/>
<path d="M 123.4298 5.6986 150.1664 6.625 154.2714 6.7451 185.6875 7.6668 184.7822 33.3282 186.3724 33.3722 185.2972 74.4289 187.8224 74.5132 186.5469 116.1135 189.5801 116.2399 189.1005 126.732 183.9216 126.5632 129.4413 125.4178 127.6343 125.4103 127.4426 119.8187 127.5855 114.8458 124.0339 114.7692 124.4465 104.5292 124.3106 95.8433 124.619 83.5845 124.7076 75.6508 124.8351 73.0348 122.7164 72.9638 124.167 31.5199 122.4686 31.4735 123.4298 5.6986 Z" id="fips-31161"/>
<path d="M 185.6875 7.6668 185.6927 7.667 206.1007 8.1793 218.0681 8.7777 225.8061 8.99 236.7833 9.1072 260.5018 9.4397 260.6002 9.4467 260.7051 9.4458 260.8066 9.445 260.8382 9.4449 276.9391 9.6845 280.6898 9.7886 283.8729 9.789 284.3844 9.8066 288.9207 9.8518 290.5731 9.876 292.3675 9.8519 313.0721 10.0976 313.6272 10.0438 319.976 10.0844 320.7764 10.0824 321.6271 10.0629 327.0372 10.0737 337.3427 10.2089 337.8572 10.2145 343.6398 10.2451 344.1597 10.259 351.1302 10.3093 351.1321 10.3093 351.1322 10.3093 351.0422 28.612 350.9978 36.4262 352.3469 36.4341 352.1729 78.1705 353.5581 78.1943 353.378 119.9176 344.4637 119.8398 292.908 119.1527 241.1984 117.876 189.5801 116.2399 186.5469 116.1135 187.8224 74.5132 185.2972 74.4289 186.3724 33.3722 184.7822 33.3282 185.6875 7.6668 Z" id="fips-31031"/>
<path d="M 64.0308 196.3699 64.6756 196.3912 65.0159 191.2392 130.8553 193.5055 130.6859 198.7628 133.1407 198.8597 132.3767 219.6833 131.7259 240.4988 130.7608 240.4924 130.5708 245.9418 127.634 245.8775 119.834 245.6291 118.4773 245.5672 117.3812 245.5401 116.7642 245.5022 111.8993 245.3664 111.6266 245.3318 110.1642 245.292 109.9102 245.2776 108.4136 245.2624 108.23 245.2325 106.6075 245.1811 106.4573 245.1701 104.8836 245.1104 104.7255 245.0965 103.1427 245.0557 103.004 245.0341 101.4155 245.0041 101.2608 244.9682 99.921 244.9445 99.8229 244.9452 99.6586 244.9377 99.5553 244.9202 97.9428 244.87 97.8338 244.8606 96.2591 244.7734 96.0853 244.7566 92.7651 244.6614 92.3366 244.6342 91.0196 244.5819 90.8803 244.5767 89.3416 244.5325 89.227 244.5227 63.4228 243.558 63.2116 243.5491 61.6595 243.4386 61.9006 237.9789 62.4681 237.9984 64.0308 196.3699 Z" id="fips-31033"/>
<path d="M 12.8925 1 18.3346 1.1327 20.5078 1.2357 24.1256 1.5041 33.7082 1.9116 33.8519 1.9063 42.5119 2.3506 47.962 2.5441 50.989 2.766 54.615 2.9171 54.6712 2.9122 60.7866 3.1809 60.8221 3.1824 60.9037 3.186 60.9142 3.1865 59.9412 29.1017 61.9502 29.1659 60.1697 70.8804 63.3148 71.003 61.5784 112.5964 65.3527 112.7719 64.917 123.2139 6.9362 120.8013 7.0207 119.0499 7.0396 118.3963 7.3486 112.0094 7.3491 111.9998 7.4336 110.3214 7.6787 106.0185 7.7189 104.9616 7.7163 104.5425 7.9328 101.0003 7.9345 100.5824 8.3777 91.023 8.4071 91.0244 8.458 90.034 9.8759 61.0375 10.571 47.7443 10.5757 47.6511 10.5769 47.63 10.7086 45.334 10.7134 44.9657 10.8241 43.0379 11.4059 31.0556 11.4289 30.5034 12.8925 1 Z" id="fips-31165"/>
<path d="M 666.4461 62.1468 666.7722 63.0187 666.9838 63.4179 668.2966 64.2692 668.531 64.365 669.0131 64.4382 669.6733 64.3943 670.1003 64.2835 670.6879 63.9703 671.6981 62.9827 672.0961 62.7106 672.979 62.3766 673.7722 62.3266 674.7339 62.5805 675.315 62.9143 675.5769 63.1323 675.9102 63.4848 676.3298 64.1265 676.5188 64.5906 676.6428 65.059 676.8023 65.3692 677.4835 66.254 677.7476 66.4803 678.1444 66.7024 679.2023 66.9786 680.1512 66.9993 680.4346 66.9402 681.2949 66.5348 681.8083 66.1658 683.042 65.5658 684.9609 65.689 685.8847 65.7721 686.248 65.8048 687.4336 66.176 687.4409 66.1783 688.3804 67.2948 688.4402 67.4608 688.8581 68.8143 689.0137 70.0339 688.9854 70.648 688.711 71.7525 688.4422 72.3401 686.4046 75.0166 686.2596 75.3829 686.1279 76.3014 686.2076 77.1218 686.7809 78.5355 686.8704 79.1808 686.4269 80.4194 686.1739 80.9688 686.1139 81.3009 686.111 81.7843 686.1604 82.1705 686.5437 83.1236 687.095 83.8212 687.5574 84.1937 688.166 84.5662 689.2625 85.1216 690.0845 85.9945 690.4165 86.4821 690.5939 86.8709 690.6733 87.1723 690.7588 87.7364 690.8206 89.149 691.0857 89.8563 691.5577 90.5595 691.9638 90.9488 659.1087 92.0121 659.1021 91.7225 658.4708 73.8223 658.8312 72.8607 658.4252 62.3981 666.4461 62.1468 Z" id="fips-31043"/>
<path d="M 675.5515 122.9097 683.9635 122.4461 697.398 122.1368 697.266 118.3554 700.5111 118.1522 700.5135 118.1573 700.6538 118.422 700.9154 118.7326 701.3506 119.01 701.6002 119.106 702.0538 119.1947 702.1845 119.0242 702.86 118.7364 703.614 118.7687 704.1817 118.9787 704.7773 119.4261 704.95 119.6439 705.1401 120.0913 705.1722 120.493 705.0226 120.9263 704.6637 121.4221 703.7166 122.223 703.4697 122.8763 703.4501 123.3658 703.4908 123.6031 703.6164 123.7854 704.0075 124.1206 704.6188 124.3378 704.9981 124.2831 705.134 124.1907 705.3099 123.9518 705.6493 123.1588 705.8498 122.8092 706.6511 122.4673 707.6807 122.4969 708.2706 122.7533 708.5942 123.1833 708.7035 123.4967 708.6941 123.7648 708.6182 124.0445 708.2279 124.7997 708.0186 125.3918 708.0837 125.681 708.1747 125.8348 708.5779 126.215 708.7618 126.294 709.391 126.3121 709.6599 126.236 710.191 125.9573 710.8439 125.7953 711.2128 125.7769 712.5875 125.9678 713.3796 126.3474 713.665 126.69 713.729 126.9212 713.7272 127.4732 713.4074 128.6173 713.2405 129.0462 712.6308 129.8313 712.5483 130.0026 712.4762 130.3624 712.5947 130.8571 713.2607 132.0573 713.3222 132.4918 713.2817 132.8186 713.0427 133.3082 712.8172 133.4931 711.7589 133.8937 711.3431 134.1954 711.2045 134.4433 711.1083 134.7468 711.1481 135.1938 711.4887 135.738 712.0523 136.3258 712.3717 136.7874 712.5204 137.1803 712.6106 138.0507 712.6838 138.3541 712.8427 138.7241 713.0756 139.0735 713.3597 139.3696 713.7113 139.7361 714.1368 139.9967 714.8092 140.2359 715.4544 140.6544 715.6635 140.8579 716.0173 141.3538 716.2382 141.8796 716.2698 142.3661 716.0515 143.52 716.0738 143.8371 716.2274 144.3639 716.4 144.7231 716.7615 145.1324 717.2662 145.4647 717.6697 145.6182 718.8276 145.8857 719.3291 146.1444 719.8774 146.6378 720.1009 146.9745 720.3428 147.4927 720.3902 147.8786 720.244 148.3766 719.6686 149.1112 719.3073 149.7502 719.2162 150.532 719.3241 151.7 719.199 152.1506 718.7975 152.7187 718.1854 153.0931 717.6716 153.2767 717.2153 153.6253 717.0609 153.8878 716.9324 154.6532 716.9583 155.0486 717.04 155.399 717.3246 155.8233 718.6975 156.4657 719.4277 156.9412 719.8575 157.4872 720.0298 157.7912 720.1185 158.0134 720.1441 158.245 720.0873 158.4703 719.846 158.8827 719.2849 159.3279 718.5594 159.4475 717.2454 159.2045 716.6435 159.4881 716.1443 159.9364 715.9448 160.3142 715.847 160.6343 715.8476 161.2992 686.9213 162.4049 686.6992 155.4253 676.7716 155.7771 675.5515 122.9097 Z" id="fips-31021"/>
<path d="M 632.9837 84.089 632.6494 73.6988 631.5323 34.8458 633.5668 35.0341 634.4981 34.8747 634.771 34.9215 635.1111 35.1229 635.6963 35.5894 636.4255 37.2059 636.4638 37.3889 636.4365 37.6925 636.0747 38.8426 636.0986 39.1498 636.1866 39.3965 636.3037 39.6103 636.4792 39.7009 636.9854 39.7638 637.5976 39.709 638.2756 39.4337 638.6503 39.1979 639.213 38.8172 639.7338 38.3329 640.0519 38.1895 641.2489 37.8648 643.0424 38.8348 644.2856 38.9279 645.3879 39.2866 646.3356 39.9466 646.9244 40.288 648.1615 40.6759 649.0546 40.7251 649.6161 40.871 650.236 41.119 650.6619 41.7506 650.7917 42.5039 650.8522 43.4775 650.729 44.9367 650.8447 45.2305 651.0488 45.4054 651.5439 45.6547 652.8848 45.9719 654.1346 46.049 655.255 45.724 655.4137 45.5534 655.6252 45.487 656.6343 45.338 657.2912 45.3485 660.0048 46.1809 660.5797 46.5138 660.9108 46.8712 660.9671 46.9933 660.9862 47.2701 660.9319 47.7276 660.8262 47.9611 660.5251 48.2172 660.1695 48.764 659.3027 50.2707 659.124 50.6839 658.9828 51.2365 658.9736 51.5513 659.0514 52.3451 659.2203 52.8648 659.494 53.3764 660.3373 54.4276 661.4138 55.8869 661.8157 56.2878 662.3069 56.6168 663.8488 57.1823 664.8115 57.8139 665.2278 58.1919 665.7439 58.8511 666.0021 59.3608 666.2131 60.2457 666.2482 61.233 666.3024 61.5912 666.4461 62.1468 658.4252 62.3981 658.8312 72.8607 658.4708 73.8223 659.1021 91.7225 659.1087 92.0121 659.2112 93.6789 650.6623 93.9572 650.6109 93.959 633.3314 94.5184 632.9837 84.089 Z" id="fips-31051"/>
<path d="M 733.2525 331.414 775.0944 329.4081 775.5964 329.7244 777.9585 330.7608 778.5555 330.8471 779.9379 330.643 780.8492 330.6771 781.2524 330.794 781.5555 330.9654 782.0587 331.3672 782.5504 332.141 782.7824 332.7616 782.8571 333.1077 782.8634 333.8769 782.7661 334.3836 782.5988 334.855 782.2176 335.4559 781.8645 336.4325 781.8438 336.8327 781.8933 337.4389 782.0544 337.8827 782.2383 338.2187 782.5244 338.6448 783.0342 339.2296 784.0229 340.1099 784.5714 340.3943 785.6984 340.7359 785.8985 340.8434 786.3173 341.2504 786.4734 341.5674 786.5827 341.9324 786.664 342.7482 786.8048 343.3529 786.9249 343.661 787.1497 343.9903 787.5297 344.309 788.0548 344.5442 788.9465 344.5629 789.4183 344.6631 789.9583 344.9479 790.2817 345.3651 790.4883 345.7872 790.5546 346.1835 790.5623 346.7496 790.474 347.1042 790.224 347.4872 789.9615 347.7345 789.3099 348.3939 789.0689 349.1875 789.2409 350.0641 789.3428 350.6609 789.2431 351.2476 788.8228 351.81 788.5115 352.2239 788.3241 352.7035 788.2543 353.1454 788.5291 354.3948 788.7888 355.0075 789.1139 355.5693 789.7256 356.1766 790.162 356.4603 790.8012 356.7316 791.2041 356.8287 791.6031 356.8429 791.9896 356.7819 793.7031 356.1665 794.3545 356.13 795.1104 356.3583 795.3187 356.4708 796.3211 357.5209 797.0517 357.8974 798.0281 358.14 798.2866 358.2643 798.5835 358.5704 798.6892 358.7559 798.9703 359.4158 799 359.6783 796.1011 359.8291 792.8576 359.9965 755.2995 361.7839 754.983 361.8 754.975 361.8004 746.3096 362.1977 739.3687 362.5047 734.5452 362.7047 733.2525 331.414 Z" id="fips-31147"/>
<path d="M 3.3786 193.7961 57.2688 196.2203 64.0308 196.3699 62.4681 237.9984 61.9006 237.9789 61.6595 243.4386 60.3495 243.3451 58.0911 243.3217 58.0867 243.317 52.2318 243.081 51.258 243.073 44.3549 242.7648 44.2872 242.7617 28.3748 242.0114 18.6119 241.6044 16.8472 241.5223 15.1986 241.4352 14.2819 241.4353 10.0158 241.2065 8.4019 241.1375 8.2877 241.1211 4.1673 240.9209 3.7025 240.8658 2.267 240.8418 1 240.7912 1.098 238.9439 1.1107 238.796 1.5216 230.1973 1.5386 230.1322 1.6192 228.3673 1.6692 227.2308 1.8858 222.0951 2.6527 207.9449 2.6772 207.6132 2.6892 207.5918 2.9016 203.033 2.9377 202.4625 2.9525 202.4412 2.9751 201.309 3.3786 193.7961 Z" id="fips-31105"/>
<path d="M 650.6623 93.9572 659.2112 93.6789 659.1087 92.0121 691.9638 90.9488 691.9654 90.9503 693.3265 91.7809 693.8309 92.2785 694.2717 92.9069 694.51 93.4617 694.6396 94.0264 694.5686 95.0036 694.4836 95.2067 695.1493 95.9715 695.1636 96.2325 695.0918 96.4245 694.3939 97.4505 694.027 97.7854 693.7858 97.8955 693.2588 97.9884 692.2458 98.3065 692.2403 98.3121 692.1135 98.4432 691.9772 98.8745 692.0601 99.2013 692.7681 100.052 692.9924 100.4314 693.1023 100.7282 693.2146 101.6884 692.9862 102.813 693.0689 103.4584 693.2664 104.0799 693.7732 104.8185 694.1816 105.198 695.2856 105.8398 695.8732 106.3978 696.1168 106.8057 696.4313 107.6143 696.782 108.0586 697.1687 108.367 697.6097 108.5635 698.9867 108.7986 699.5722 109.0318 699.9592 109.3406 700.2114 109.6166 700.5375 110.1809 700.6947 110.5741 700.794 111.4118 700.7366 112.2658 700.4054 113.1784 700.2094 113.5186 699.9985 114.0703 699.8286 114.9655 699.8238 115.4159 699.9526 116.5983 700.2523 117.5985 700.5111 118.1522 697.266 118.3554 697.398 122.1368 683.9635 122.4461 675.5515 122.9097 675.1556 114.0213 651.2892 114.8301 650.6623 93.9572 Z" id="fips-31173"/>
<path d="M 6.9362 120.8013 64.917 123.2139 68.3256 123.4283 67.1017 154.556 66.4062 154.5363 66.1867 159.8478 64.5277 159.7125 5.125 157.2383 5.3395 152.9865 6.2173 134.7448 6.3485 132.2647 6.3955 131.2052 6.7629 124.2451 6.7696 123.8905 6.8827 121.6545 6.891 121.6108 6.9185 121.1665 6.9362 120.8013 Z" id="fips-31157"/>
<path d="M 345.7122 161.4405 396.2903 161.4714 437.9606 161.2429 438.8402 161.2584 439.0887 202.8579 439.918 202.8635 439.8201 244.556 420.0372 244.7333 347.7345 244.7071 346.4737 244.7083 346.9562 216.6694 346.814 211.6258 346.8625 203.0608 345.5118 203.0572 345.7122 161.4405 Z" id="fips-31041"/>
<path d="M 132.3767 219.6833 182.4532 221.1536 181.9153 242.0544 182.122 247.2938 182.1213 247.4755 180.4115 247.4254 175.4868 247.3053 169.4881 247.1437 167.8447 247.0843 167.5877 247.0748 165.8005 247.0411 162.5514 246.9426 162.1626 246.9482 160.419 246.9028 160.3104 246.8997 160.3042 246.8968 160.2851 246.899 153.8347 246.7149 152.4292 246.658 144.3142 246.3977 144.1951 246.399 142.6183 246.3428 136.3855 246.1742 135.5471 246.1498 134.6918 246.1225 134.6701 246.1136 134.4024 246.1023 130.5708 245.9418 130.7608 240.4924 131.7259 240.4988 132.3767 219.6833 Z" id="fips-31049"/>
<path d="M 633.8698 115.3935 651.2892 114.8301 675.1556 114.0213 675.5515 122.9097 676.7716 155.7771 645.3822 156.8082 635.1792 157.1189 633.8698 115.3935 Z" id="fips-31039"/>
<path d="M 297.1359 285.912 347.6228 286.3002 369.6177 286.4043 369.6074 317.8317 359.1959 317.7606 359.1895 328.2567 349.7608 328.3664 334.2792 328.105 298.4499 328.0331 296.7164 328.0189 296.5491 324.9502 296.7678 291.2571 297.1359 285.912 Z" id="fips-31063"/>
<path d="M 349.7608 328.3664 359.1895 328.2567 400.6138 328.2892 401.6892 328.2966 401.9777 370.2299 401.9693 370.2299 393.5704 370.2502 392.4369 370.2491 391.0874 370.2511 390.1484 370.3091 389.4695 370.2844 388.742 370.2544 388.4183 370.2734 384.9442 370.3038 376.3645 370.2855 374.1772 370.2823 372.8907 370.2723 372.5457 370.2443 369.0088 370.2695 368.6119 370.2743 351.42 370.2093 351.4175 370.2093 350.4645 370.2114 350.2675 370.2052 349.9669 370.2054 349.7608 328.3664 Z" id="fips-31065"/>
<path d="M 369.6177 286.4043 395.3377 286.417 400.4225 288.217 400.6138 328.2892 359.1895 328.2567 359.1959 317.7606 369.6074 317.8317 369.6177 286.4043 Z" id="fips-31073"/>
<path d="M 420.0372 244.7333 439.8201 244.556 481.3943 244.1983 483.7987 244.1643 484.0005 259.7567 484.3682 285.9251 484.1126 287.0249 474.827 288.9362 471.041 290.8542 467.6133 291.6648 461.2902 291.237 459.3167 291.8175 455.9166 291.7799 451.6756 291.3045 448.6146 291.5893 445.0292 291.1138 443.5189 291.188 442.72 290.9474 436.7618 291.1269 431.4802 290.5894 428.8307 289.7282 424.7898 290.6115 421.5414 290.2299 421.0257 289.8414 421.0923 286.369 420.1873 286.369 420.15 265.6179 420.0372 244.7333 Z" id="fips-31019"/>
<path d="M 589.9164 25.4171 591.1823 25.3724 591.9663 25.5048 592.2238 25.6003 592.4386 25.7608 592.8116 25.8574 593.6819 25.8124 593.9573 25.6985 594.5725 25.1492 595.1188 24.5196 595.1536 24.3309 595.3105 23.9726 595.8329 23.3875 596.1485 23.2066 596.5943 23.0762 596.9369 23.1368 597.3989 23.474 597.8703 23.5311 599.386 23.375 599.5131 23.6362 600.1178 24.1682 600.7326 24.5467 600.9285 24.5781 602.5422 24.404 602.9809 24.2809 603.4509 24.0748 603.6438 23.9377 603.8277 23.7176 603.9915 23.6277 604.5492 23.4616 605.1535 23.1349 605.345 22.9509 605.5353 22.9097 605.9469 23.1313 607.0578 24.3194 608.9957 24.6129 609.9755 24.4242 610.4087 24.2289 610.691 24.226 611.6393 24.4677 612.1683 24.6686 613.3412 25.2926 613.4742 25.5684 613.4503 27.2458 613.4956 27.4601 613.7571 28.0275 613.8646 28.3647 613.9678 29.2189 614.1023 29.4939 614.2419 29.6564 614.7276 29.977 615.1094 30.088 616.2412 30.1318 617.0493 30.3 617.6143 30.3194 618.0668 30.4062 618.3446 30.4974 618.659 30.6708 619.5188 31.1449 620.0825 31.7826 620.6695 32.5675 620.7835 32.8601 620.7848 33.1041 621.0342 33.6295 621.3196 33.9288 623.065 34.1794 623.976 34.114 624.4297 34.1426 625.3662 34.0265 625.8987 33.848 626.5563 33.7192 627.1078 33.7156 628.2967 33.9182 629.9825 34.3787 630.2588 34.6331 630.7341 34.7718 631.5323 34.8458 632.6494 73.6988 632.9837 84.089 601.9549 84.9686 601.6666 74.5352 591.2433 74.8468 589.9164 25.4171 Z" id="fips-31027"/>
<path d="M 699.816 221.2252 711.6046 220.6614 715.0626 220.5028 722.0017 220.2066 727.1949 219.9874 728.5188 219.9288 728.809 219.9198 734.0363 219.6532 734.7931 219.6019 736.2643 219.5418 736.2672 219.5475 736.7321 220.0435 737.0744 220.2204 737.52 220.2844 741.5477 219.6323 742.2757 219.7432 742.8834 219.9918 743.4564 220.4704 743.7396 221.1306 743.7387 221.1431 743.7068 221.601 743.343 222.1467 742.7548 222.3301 741.6338 222.0924 741.4238 221.99 741.2162 221.9879 741.0151 222.0822 740.6364 222.4573 740.2437 223.0615 740.2139 223.1075 740.0425 223.7164 740.0732 224.1959 740.2279 225.0184 740.5486 225.7131 741.5419 227.2787 741.8315 228.083 741.9615 230.0765 742.1992 230.9674 742.2899 231.6084 742.2034 232.2005 742.0738 232.5839 741.6349 233.2214 740.9906 233.9294 740.7187 234.4688 740.6507 235.048 740.7186 235.4296 740.9537 235.8892 740.0469 235.3121 735.0229 235.6025 734.9083 235.6435 734.7966 235.6485 734.6987 235.6157 734.5973 235.5592 731.2114 236.3972 729.5565 235.5199 726.9198 234.9894 724.9178 235.1543 720.16 237.3977 717.1674 241.2286 711.5829 244.1047 710.5679 244.3057 709.2671 243.5728 707.5675 241.4917 704.5135 241.2576 703.0897 240.5637 701.2541 238.5954 699.2112 234.1701 699.7558 232.0904 701.6572 230.1246 701.1299 228.9607 700.8239 228.4202 701.0727 226.7086 699.816 221.2252 Z" id="fips-31153"/>
<path d="M 519.0564 76.6509 560.3224 75.7248 561.2828 117.4977 561.8753 138.3222 520.5806 139.3177 520.2425 119.3265 519.7662 118.4439 519.0564 76.6509 Z" id="fips-31003"/>
<path d="M 298.4499 328.0331 334.2792 328.105 349.7608 328.3664 349.9669 370.2054 349.6569 370.2135 347.9599 370.1896 346.6652 370.1757 346.4653 370.1832 331.8905 370.0766 327.3827 370.0494 326.6475 370.0415 324.6511 370.0351 323.9997 370.0248 323.8926 370.0259 322.9597 370.0169 320.7606 369.9906 317.0054 369.9535 315.5932 369.9412 313.0617 369.9081 312.4924 369.9115 308.3988 369.8758 307.039 369.8291 304.9045 369.7992 301.437 369.7832 300.6297 369.7697 300.3179 369.7473 299.8092 369.7468 298.5804 369.7456 297.9691 369.718 298.1965 351.2298 297.9889 348.9916 298.4499 328.0331 Z" id="fips-31145"/>
<path d="M 180.1381 325.8861 244.9787 327.1538 246.7572 327.172 246.5593 329.7022 245.9834 368.9291 245.8475 368.9294 244.2521 368.9142 241.3581 368.8694 238.0813 368.8295 237.9811 368.8264 237.4142 368.8087 225.9137 368.5645 218.2324 368.3946 218.1161 368.4031 201.7689 368.0268 201.5092 368.0153 199.2594 367.9468 198.444 367.9455 192.639 367.7616 191.4879 367.736 179.0725 367.4314 179.4879 349.9938 179.5397 348.2759 179.7426 340.2917 179.7587 339.5534 180.1275 327.187 180.1381 325.8861 Z" id="fips-31057"/>
<path d="M 525.867 327.152 566.9852 326.2908 567.2869 326.2834 568.1626 368.1224 568.1533 368.1224 566.6106 368.1691 564.8567 368.1903 563.127 368.2249 558.0193 368.3439 558.018 368.344 554.3066 368.4162 550.815 368.4851 550.4235 368.4849 547.3839 368.552 547.1457 368.5458 545.431 368.5714 544.7568 368.5914 542.5845 368.6437 538.6875 368.6929 537.3253 368.72 535.9068 368.7479 535.2587 368.7548 533.9555 368.7636 528.7579 368.8961 527.0829 368.9043 526.5497 368.9106 525.867 327.152 Z" id="fips-31129"/>
<path d="M 5.125 157.2383 64.5277 159.7125 66.1867 159.8478 65.0159 191.2392 64.6756 196.3912 64.0308 196.3699 57.2688 196.2203 3.3786 193.7961 3.3792 193.785 3.475 192.0636 3.5187 190.8389 4.082 179.0958 4.121 178.3055 4.2009 176.2931 4.2124 176.048 4.2898 174.6695 4.2949 174.6609 4.3622 173.2753 4.4985 169.9175 4.636 167.3483 4.6691 166.2371 4.7616 164.4096 4.806 163.5673 5.125 157.2383 Z" id="fips-31007"/>
<path d="M 689.3813 270.4393 739.4783 268.3117 746.5148 268.0348 746.5243 268.1267 746.4477 268.5949 746.3107 268.9227 746.1419 269.1627 745.8027 269.5933 745.4717 269.9059 744.9292 270.2901 744.1348 270.6583 743.4001 271.0797 743.1067 271.337 742.6145 271.9046 742.2237 272.5535 741.9779 273.2535 741.8269 273.9587 741.8316 274.4919 742.2124 275.7683 742.4284 276.1809 743.0058 276.5503 743.1642 276.5631 743.6089 276.74 744.6412 277.2247 745.2868 277.8914 745.5622 278.3735 745.7559 278.8394 745.991 280.2221 746.1155 280.5455 746.3124 280.8215 747.312 281.5323 747.4375 281.5957 748.1753 281.9684 748.9808 282.1319 749.8791 282.1725 750.6941 282.4353 751.2562 282.7693 751.5331 283.013 751.9784 283.4708 752.5246 284.1436 752.8628 284.7249 753.0169 285.0907 753.1198 285.5797 753.2123 286.8809 753.3349 287.2552 753.5399 287.5442 753.7684 287.7366 754.3659 288.109 755.0079 288.644 755.1644 288.9029 755.2801 289.3167 755.2777 289.7243 755.1852 290.0789 754.9269 290.5974 754.4255 291.0858 753.8321 291.5663 753.5805 291.8079 753.1515 292.44 753.0719 293.0005 753.3793 293.8806 754.044 294.9568 754.1698 295.3173 754.2292 295.6843 754.2195 295.9852 754.1362 296.2989 753.8274 296.9594 753.7686 297.4058 753.8362 297.7092 754.0116 298.0067 754.3992 298.3722 754.9356 298.6332 755.7128 298.8028 756.7555 298.7951 757.3 298.5883 757.8302 298.2823 758.0805 298.2289 758.8279 298.3029 759.24 298.6932 726.7247 300.2502 690.5857 301.7519 689.5102 273.92 689.3813 270.4393 Z" id="fips-31131"/>
<path d="M 60.9142 3.1865 69.7254 3.5625 75.3148 3.7761 93.5404 4.5109 93.6469 4.5151 105.1448 4.9859 123.4298 5.6986 122.4686 31.4735 124.167 31.5199 122.7164 72.9638 63.3148 71.003 60.1697 70.8804 61.9502 29.1659 59.9412 29.1017 60.9142 3.1865 Z" id="fips-31045"/>
<path d="M 437.5934 119.5555 478.7281 119.0928 479.4215 160.898 438.8402 161.2584 437.9606 161.2429 437.5934 119.5555 Z" id="fips-31071"/>
<path d="M 484.1126 287.0249 484.3682 285.9251 524.2934 285.3941 524.7256 285.3856 525.4535 327.1608 484.6554 327.7747 484.1126 287.0249 Z" id="fips-31001"/>
<path d="M 609.7426 367.0482 608.639 325.24 650.0255 324.0402 651.3562 365.8282 642.8331 366.1146 640.8452 366.1934 639.1122 366.2514 631.0048 366.4476 630.5848 366.499 626.9704 366.6033 625.278 366.6548 625.0835 366.6735 621.1526 366.7884 621.1443 366.7831 611.4825 367.0088 611.4253 367.016 609.7513 367.0479 609.7426 367.0482 Z" id="fips-31095"/>
</g>
</svg>