<?xml version="1.0"?>
<svg xmlns="http://www.w3.org/2000/svg" version="1.2" baseProfile="tiny" width="800" height="1527" viewBox="0 0 800 1527" stroke-linecap="round" stroke-linejoin="round">
<g id="cb_2018_us_county_5m">
<path d="M 300.6154 638.5209 305.721 639.9276 342.1101 635.4573 335.7353 615.9301 368.1057 611.4727 365.0512 591.5694 393.8922 586.9021 406.3411 617.6468 438.9299 607.7078 453.8743 611.9175 455.0456 618.5642 453.0539 623.9147 451.8496 632.3733 450.2755 637.7931 453.9976 649.2986 463.1612 651.4267 477.5 664.287 493.5428 672.1599 521.2866 681.1626 519.9084 694.0934 521.5924 700.6419 492.0001 717.142 482.7551 733.9488 467.8512 740.5699 457.8236 738.717 470.6753 766.4155 463.6754 767.2234 453.6111 763.6284 435.0638 749.6823 427.7285 748.207 428.9971 744.1812 412.0012 739.4092 413.8328 751.6474 406.0428 758.7787 406.4712 756.6557 406.521 753.7682 406.138 752.3866 400.6265 743.6552 398.9964 741.7074 395.6882 739.5698 392.0438 738.1223 391.9057 737.9899 390.7978 736.9281 390.1752 735.9857 389.5534 734.2898 387.7851 728.3231 387.672 728.1157 384.7701 722.7944 383.0964 718.5235 382.6396 717.9635 377.9239 714.1219 371.1713 709.1523 359.5802 703.4201 357.4747 701.5327 351.5373 698.5707 348.6668 695.8652 346.6168 690.6497 343.5169 683.8 343.512 683.7855 341.8984 678.9619 339.9999 674.4515 337.9969 670.6169 336.319 667.7733 330.3966 661.2294 327.2917 658.2707 325.1414 656.57 322.8468 655.2456 319.5438 654.9229 317.1523 654.1002 312.8056 650.6354 308.3188 646.2273 305.3098 643.8952 302.1604 640.809 300.6154 638.5209 Z" id="fips-34021"/>
<path d="M 217.678 244.6845 216.6954 243.5626 213.6238 244.285 212.5392 244.0903 211.3996 243.0196 210.5814 241.236 210.5942 239.3162 211.7595 237.2418 212.232 235.7457 212.5129 234.273 212.4841 231.7704 212.9862 230.3962 214.5971 228.6085 216.3923 227.2523 222.4905 223.4881 223.1985 222.2812 227.2019 220.6599 229.6373 219.317 232.1354 216.549 232.3879 215.7674 236.5098 214.3498 239.4014 214.1799 241.5219 213.2542 254.0994 205.9969 255.7046 205.0702 258.6411 201.9435 260.4427 200.9082 262.7783 200.045 262.9449 199.4782 262.5066 197.1347 262.8311 195.8541 265.9331 191.7946 266.8614 190.2144 267.5178 188.51 267.8075 186.6246 269.0989 183.4492 269.7822 182.6734 272.0341 182.6664 275.2491 178.6626 277.513 177.0306 280.1275 175.9335 283.3204 175.4095 288.8254 171.586 290.0604 170.0183 290.844 166.4877 290.6857 165.9134 374.1449 269.0132 384.084 281.269 379.4922 284.1426 366.3314 299.3584 368.5792 310.8825 359.2305 320.4314 360.6635 327.976 345.5843 348.2338 326.7581 358.5146 308.8961 379.2824 288.9834 406.9579 282.0894 410.0856 266.0912 416.781 237.3112 436.3011 222.3995 451.0287 204.4719 457.9011 187.6288 479.4404 183.147 481.0228 182.2723 474.0897 180.1439 470.3701 179.3466 468.537 178.0006 466.5599 177.7893 464.9513 178.3199 464.2212 179.6662 463.6165 183.0998 463.2451 183.7766 462.2847 184.1238 460.3178 182.7845 452.7711 181.0222 449.1171 178.5433 446.3014 178.5598 444.8448 180.3809 441.1489 183.1806 436.886 184.5745 435.7188 187.0514 434.3772 189.583 430.2329 189.922 428.2759 189.5561 427.008 188.1446 425.9752 186.2651 425.5825 183.3756 425.9373 180.3641 424.7139 178.4757 422.0661 177.0705 418.2905 179.5986 409.6413 181.6782 404.1788 182.4281 403.1758 182.5456 403.0187 184.0763 401.7117 185.5453 397.9532 187.4097 394.2271 187.6135 393.2238 187.2788 391.8857 185.8765 389.6072 181.3553 384.4278 180.8974 383.3803 180.6537 381.5204 180.8155 380.5582 183.0844 377.9354 187.2632 375.7536 189.1734 374.1618 189.9252 372.7045 190.2375 369.8835 190.8401 367.2488 191.9316 365.2421 192.7752 364.2323 193.7591 363.7809 196.551 363.8512 203.324 366.1489 208.204 366.916 210.4421 366.8281 210.9649 366.6054 211.8449 365.4636 214.5332 360.4071 215.8632 358.7063 218.8409 357.0866 221.4567 356.757 221.4638 356.7531 222.8095 356.0116 226.4993 350.5657 226.811 348.5563 226.546 346.9929 226.7721 345.6818 227.73 343.9863 228.7491 342.7827 233.8916 336.6789 234.5919 335.1133 234.6527 333.0203 233.8543 331.5851 229.3993 327.1577 228.4248 325.751 228.3392 322.4004 229.0292 320.8907 231.3258 319.5802 238.109 319.1801 239.5975 319.774 240.882 320.7518 243.17 320.6372 244.4892 319.0102 243.9951 316.5512 248.2409 311.4005 250.2024 309.928 250.4339 307.8139 250.1223 306.4583 249.1082 304.2966 243.5528 296.7242 239.5457 292.6289 238.5892 290.4158 238.9673 287.6174 238.5586 283.2911 238.157 281.5075 237.0667 278.9848 229.3896 272.5056 228.3566 270.9141 224.685 264.8596 224.3973 262.738 221.8016 257.4263 218.9338 254.3279 218.4041 252.2296 217.9524 248.9092 217.755 248.2904 217.6013 247.412 218.0266 245.8559 217.7172 244.7293 217.678 244.6845 Z" id="fips-34041"/>
<path d="M 243.628 858.0801 255.0113 855.3266 257.6842 857.1253 267.4783 865.4763 263.1655 873.3468 263.941 878.41 266.1038 880.1433 264.6124 884.0146 265.1224 886.3021 270.3717 889.6804 275.0464 891.0165 284.3727 891.5862 279.2857 896.6421 280.0179 898.5761 290.15 903.0528 292.8623 906.7883 305.6039 924.6832 319.1174 984.2861 331.7352 990.3341 347.6577 985.0572 359.1329 986.2828 372.9627 996.7888 381.9397 1009.9022 399.2471 1022.8919 368.3531 1057.3328 339.7299 1089.2418 330.9596 1099.0201 318.6805 1084.2174 315.7708 1063.2245 306.9791 1049.2867 299.0072 1042.4187 277.8307 1037.1108 272.5808 1029.2406 260.1629 1022.049 261.213 1012.1234 250.5194 1002.1901 248.1849 991.9263 241.5837 987.261 229.9751 991.1544 238.0146 982.3883 237.8568 982.2049 237.4718 981.9946 237.0855 981.8497 236.8482 981.6352 236.6988 981.7004 236.1846 981.5731 236.0943 981.3918 235.9407 980.3853 236.0095 980.2004 235.9033 979.9136 235.134 979.3456 235.1674 979.0205 235.4109 978.7095 235.6946 977.9674 235.8387 977.4821 236.1855 977.0687 236.4468 976.9877 236.3493 976.8893 236.5018 976.4517 236.3638 976.3544 236.1932 975.894 235.7602 975.4493 235.6973 975.2688 235.5011 975.2416 229.2665 969.2751 231.7053 952.9084 214.9084 938.8501 204.7952 922.6579 207.9937 917.8103 209.2593 915.3054 210.6938 908.0294 209.6513 904.759 208.3663 901.8646 208.3136 901.6831 207.3258 898.2802 206.9253 895.0095 206.818 894.1334 207.0543 885.8466 207.8903 882.3127 208.1373 881.2687 209.7877 878.5775 211.3355 877.0786 212.8122 876.0143 215.0548 874.3979 220.4121 871.3482 220.6907 871.2463 227.3539 868.8079 229.621 868.3551 229.8101 868.3174 237.8131 864.9641 243.628 858.0801 Z" id="fips-34007"/>
<path d="M 384.084 281.269 401.85 275.0814 410.6263 286.7086 411.6418 288.6717 439.3132 274.5869 447.311 261.3909 444.9923 247.7134 457.5181 231.2282 494.7995 188.6194 510.2 171.4009 517.9195 177.1222 510.9708 198.8811 512.8343 203.7977 520.618 196.7209 536.8188 191.0881 545.9869 201.9374 542.5712 212.6711 548.0009 207.8377 556.2236 210.025 564.2165 217.453 576.7952 216.8967 582.8029 222.6216 593.1073 224.2858 605.9169 225.5029 606.5725 223.0706 607.9874 237.9263 617.3108 241.5474 615.2234 264.7776 615.0504 277.1746 622.6843 282.3338 619.9574 289.0329 620.1222 289.3656 594.4427 282.4535 589.6813 308.835 592.8106 319.6923 593.1656 326.4364 589.0632 342.1595 575.2587 354.923 571.2915 376.8365 575.2878 375.1231 579.8663 379.078 576.3912 382.2184 573.1486 388.6112 567.2191 398.141 564.1197 397.5881 564.1471 401.9465 538.9664 421.1084 534.026 429.8789 530.7639 430.2532 501.2435 445.617 498.1372 435.86 505.6503 415.0805 497.4431 394.9374 488.8162 387.9924 488.2924 383.9799 485.4664 377.1017 449.6845 387.8955 437.3179 391.6196 405.3603 401.5046 370.3773 387.1959 358.0531 387.0678 326.7581 358.5146 345.5843 348.2338 360.6635 327.976 359.2305 320.4314 368.5792 310.8825 366.3314 299.3584 379.4922 284.1426 384.084 281.269 Z" id="fips-34027"/>
<path d="M 330.9596 1099.0201 339.7299 1089.2418 368.3531 1057.3328 399.2471 1022.8919 405.2123 1027.7384 427.6504 1046.3635 428.3721 1047.1509 433.0509 1053.347 435.8211 1061.1902 436.6691 1084.9345 439.4403 1087.693 454.9011 1087.6228 470.5343 1096.9604 476.8159 1105.3722 487.5511 1105.5064 492.85 1117.455 499.6386 1123.1774 505.2526 1120.5559 525.299 1134.7645 536.0596 1136.5528 539.299 1129.96 544.4601 1141.1203 543.3639 1134.8145 553.4995 1131.0567 571.3319 1167.8695 597.6766 1162.8831 604.4412 1166.9144 603.856 1170.6809 606.4705 1176.9043 608.201 1177.5252 609.4682 1180.0377 608.4408 1184.7445 596.9021 1204.2668 593.7677 1209.5662 578.2212 1228.4462 559.0033 1243.8889 558.9612 1246.1492 558.2757 1251.7044 556.1206 1254.3819 533.2288 1264.3605 503.202 1284.0075 493.7974 1292.4279 480.397 1293.1717 470.7033 1286.397 456.4731 1296.7985 445.7415 1295.2534 440.4206 1299.7711 436.4052 1294.2957 416.8367 1299.4206 407.1095 1293.5808 391.282 1295.8529 375.6414 1288.1044 355.9588 1289.3556 338.2941 1277.6811 336.5582 1268.2197 342.8915 1240.0653 342.387 1220.1556 340.6318 1216.8231 341.0086 1214.7621 278.5032 1157.4953 314.1605 1117.7434 330.9596 1099.0201 Z" id="fips-34001"/>
<path d="M 1.1163 1083.4946 2.6953 1080.3082 5.4219 1078.4518 7.105 1076.826 9.6294 1073.4076 10.9835 1073.3581 12.9727 1072.6869 17.0809 1067.766 17.0362 1067.3888 17.282 1066.9517 19.2423 1064.2079 21.194 1062.2802 23.0101 1059.3465 24.4453 1055.7812 25.6705 1048.8861 25.482 1048.382 25.8698 1043.1114 26.7924 1041.583 28.3075 1040.7484 32.0938 1038.8375 33.9923 1034.083 34.5167 1032.7696 35.8847 1030.4465 37.4898 1029.846 38.5022 1030.0437 39.1728 1030.657 40.5213 1031.1296 41.156 1030.3819 41.538 1028.2983 41.288 1026.8996 41.4043 1024.2937 42.2962 1021.7902 42.3365 1020.3188 42.9486 1017.5516 44.8308 1013.6028 45.3742 1012.4626 48.4493 1003.2602 48.3208 1001.4382 50.2286 998.567 53.6726 996.5883 55.1713 993.1965 54.7306 992.9886 54.5026 992.7963 54.6643 992.6405 60.5307 986.9858 61.5053 986.5336 73.5048 980.9627 89.3204 1011.4203 90.0146 1023.6376 109.2645 1037.7551 113.928 1046.4567 129.1641 1049.2157 133.1767 1053.2291 149.3632 1053.8296 152.1086 1062.9769 158.1951 1064.8165 175.0746 1061.522 241.5573 1123.5811 235.3884 1138.736 232.7257 1165.803 235.717 1176.4645 230.5992 1193.4686 185.2135 1153.2324 156.0554 1129.2095 140.63 1146.5638 117.2269 1171.008 105.4195 1171.81 92.7338 1193.1486 77.437 1189.3884 70.3728 1195.1165 72.9127 1213.5146 67.9162 1221.8657 73.4044 1239.7822 66.244 1236.8547 61.5625 1233.61 56.4819 1226.8692 45.6159 1203.7688 40.2454 1204.2249 36.7246 1202.4987 26.0802 1194.8004 24.8025 1190.893 11.2158 1189.8654 8.1436 1183.6268 7.4853 1177.8722 8.4007 1167.2287 15.4855 1166.3273 15.9562 1165.0774 14.8841 1164.3657 14.5351 1161.7604 14.6464 1158.3433 16.3515 1148.4262 16.3159 1145.4108 15.9085 1142.9971 14.03 1142.0075 12.8726 1139.5619 13.6977 1137.9513 16.7979 1134.7114 20.2166 1130.4038 22.3263 1125.8964 23.7227 1122.7678 23.3969 1116.2448 22.2055 1114.5055 20.0913 1112.918 19.1381 1113.0093 17.1693 1112.3876 14.5532 1109.8908 12.9499 1108.3683 11.6418 1106.7481 10.5241 1105.9165 10.327 1105.831 8.3941 1104.7973 7.7023 1104.2982 3.8177 1100.9845 2.696 1098.5723 2.2835 1098.0256 1.9276 1096.4548 2.2479 1094.5995 1.5217 1091.3573 1 1087.0121 1.2779 1083.9709 1.1163 1083.4946 Z" id="fips-34033"/>
<path d="M 183.147 481.0228 187.6288 479.4404 204.4719 457.9011 222.3995 451.0287 237.3112 436.3011 266.0912 416.781 282.0894 410.0856 288.9834 406.9579 308.8961 379.2824 326.7581 358.5146 358.0531 387.0678 370.3773 387.1959 405.3603 401.5046 409.3742 413.1693 402.3947 435.2298 405.5511 447.0852 404.309 456.1556 415.6662 463.2523 406.5796 476.0651 410.6746 486.6149 396.5868 505.4439 380.6516 537.0035 370.2256 529.4857 377.5299 546.9299 393.8922 586.9021 365.0512 591.5694 368.1057 611.4727 335.7353 615.9301 342.1101 635.4573 305.721 639.9276 300.6154 638.5209 300.224 637.9411 299.6056 634.9455 299.1862 628.6817 297.9017 623.9924 295.5449 616.8817 295.4002 616.5251 290.6588 604.8323 289.9408 603.517 287.9908 601.9827 281.7194 599.0337 280.4166 598.0853 278.7813 596.2975 275.2108 595.1824 274.1231 595.4514 271.8708 596.8513 265.2316 598.8422 261.617 599.5706 259.9255 599.295 255.9643 597.4496 253.5654 595.4943 253.5134 595.4113 252.8911 594.4184 252.2542 593.8755 251.2707 593.0371 246.6739 591.5894 245.3668 590.3285 244.5089 588.2617 244.1179 587.3198 243.4623 580.6871 241.3534 571.3122 239.8714 567.0096 239.8748 566.2668 241.4597 560.8705 241.1128 558.5936 241.2559 555.9264 242.9144 553.4424 243.9304 550.5613 244.0829 547.4408 243.8898 544.0953 242.5411 535.9313 242.2117 532.1412 242.3074 526.6296 242.6905 522.4541 242.094 515.9316 241.6948 514.0136 241.0544 512.3537 236.3544 508.5191 228.1993 498.3686 226.0039 496.2169 220.9679 494.3963 217.929 492.7861 208.6588 491.1558 206.1974 491.4302 203.5853 492.7478 198.2745 497.6575 196.1598 498.3929 193.423 498.3681 190.2315 497.7943 186.4989 496.2922 184.7962 494.9938 182.1364 491.9323 181.3361 490.6725 180.952 489.2041 180.8398 488.514 181.0667 487.1021 182.9256 484.0378 183.2487 481.829 183.147 481.0228 Z" id="fips-34019"/>
<path d="M 405.3603 401.5046 437.3179 391.6196 449.6845 387.8955 485.4664 377.1017 488.2924 383.9799 488.8162 387.9924 497.4431 394.9374 505.6503 415.0805 498.1372 435.86 501.2435 445.617 530.7639 430.2532 535.6456 442.3944 545.621 435.5601 558.1817 434.4802 558.1879 442.0151 553.3147 450.5969 548.3019 464.0877 529.7967 476.9156 518.9586 483.753 506.5207 487.706 500.9239 495.5039 499.6367 501.9107 502.8816 504.3448 504.7872 510.9969 532.015 541.7104 517.4623 555.2584 514.6864 558.7239 497.4198 576.0738 471.8832 590.6579 470.5951 605.576 455.0456 618.5642 453.8743 611.9175 438.9299 607.7078 406.3411 617.6468 393.8922 586.9021 377.5299 546.9299 370.2256 529.4857 380.6516 537.0035 396.5868 505.4439 410.6746 486.6149 406.5796 476.0651 415.6662 463.2523 404.309 456.1556 405.5511 447.0852 402.3947 435.2298 409.3742 413.1693 405.3603 401.5046 Z" id="fips-34035"/>
<path d="M 241.5573 1123.5811 278.5032 1157.4953 341.0086 1214.7621 340.6318 1216.8231 342.387 1220.1556 342.8915 1240.0653 336.5582 1268.2197 338.2941 1277.6811 328.1429 1287.3416 321.1082 1333.3654 308.8671 1339.6444 306.4893 1349.6742 311.9863 1369.44 288.9195 1361.4055 282.1675 1360.1061 271.588 1360.7069 257.8824 1359.1668 259.2444 1352.1597 257.8321 1346.8773 252.4196 1341.5368 247.0845 1345.5603 226.4911 1348.2416 216.6678 1347.1532 210.2671 1355.2144 208.7761 1361.3598 204.0802 1366.2842 196.9348 1361.1523 188.7323 1353.222 190.8921 1347.7314 189.6212 1340.657 184.4207 1327.9649 177.4504 1326.0696 170.7094 1315.407 167.4758 1315.3019 153.3611 1308.0919 152.2008 1305.8286 152.7835 1304.0217 152.0867 1300.799 148.5247 1291.8523 138.911 1289.1961 133.55 1292.2896 132.2024 1296.5765 130.4587 1298.2312 122.1976 1290.5411 117.7724 1284.9332 112.2608 1271.1555 111.9477 1266.8857 108.9265 1263.0553 104.9483 1260.9144 98.3466 1261.4124 93.7234 1265.4164 81.6627 1254.7274 79.6027 1251.2612 79.2289 1246.4582 77.2691 1241.3615 73.4044 1239.7822 67.9162 1221.8657 72.9127 1213.5146 70.3728 1195.1165 77.437 1189.3884 92.7338 1193.1486 105.4195 1171.81 117.2269 1171.008 140.63 1146.5638 156.0554 1129.2095 185.2135 1153.2324 230.5992 1193.4686 235.717 1176.4645 232.7257 1165.803 235.3884 1138.736 241.5573 1123.5811 Z" id="fips-34011"/>
<path d="M 71.8341 976.0838 77.3256 972.618 83.7321 967.7731 92.8115 960.1232 101.2775 952.4634 107.3978 948.6394 112.8739 946.841 116.3486 946.3646 118.6099 946.3015 122.8853 946.182 130.7349 947.1153 141.4467 946.7765 154.8331 943.6276 158.8922 942.388 165.6578 939.6053 170.5664 936.7502 170.7847 936.6232 178.1033 929.6979 181.0084 927.3919 184.0485 926.5935 188.1384 926.5016 199.6138 926.2418 202.1724 925.3138 202.2195 925.2693 203.6251 923.9403 204.691 922.8158 204.7952 922.6579 214.9084 938.8501 231.7053 952.9084 229.2665 969.2751 235.5011 975.2416 235.6973 975.2688 235.7602 975.4493 236.1932 975.894 236.3638 976.3544 236.5018 976.4517 236.3493 976.8893 236.4468 976.9877 236.1855 977.0687 235.8387 977.4821 235.6946 977.9674 235.4109 978.7095 235.1674 979.0205 235.134 979.3456 235.9033 979.9136 236.0095 980.2004 235.9407 980.3853 236.0943 981.3918 236.1846 981.5731 236.6988 981.7004 236.8482 981.6352 237.0855 981.8497 237.4718 981.9946 237.8568 982.2049 238.0146 982.3883 229.9751 991.1544 241.5837 987.261 248.1849 991.9263 250.5194 1002.1901 261.213 1012.1234 260.1629 1022.049 272.5808 1029.2406 277.8307 1037.1108 299.0072 1042.4187 306.9791 1049.2867 315.7708 1063.2245 318.6805 1084.2174 330.9596 1099.0201 314.1605 1117.7434 278.5032 1157.4953 241.5573 1123.5811 175.0746 1061.522 158.1951 1064.8165 152.1086 1062.9769 149.3632 1053.8296 133.1767 1053.2291 129.1641 1049.2157 113.928 1046.4567 109.2645 1037.7551 90.0146 1023.6376 89.3204 1011.4203 73.5048 980.9627 76.4226 979.6073 76.459 979.5904 71.8341 976.0838 Z" id="fips-34015"/>
<path d="M 620.1222 289.3656 620.7695 289.681 623.8419 295.9544 632.1716 299.6315 635.2531 299.9634 651.9767 312.0608 655.4678 314.5426 662.7193 319.6955 687.8332 337.6624 683.3461 346.8111 684.079 350.9274 679.6361 358.7105 679.2827 363.0353 673.637 373.3098 671.0022 382.8837 672.9586 390.4452 675.9512 392.0015 679.9913 391.4131 682.1139 388.3242 684.5778 386.9931 691.5707 386.5096 694.0449 388.0408 694.3459 389.6168 692.5012 398.5587 694.4203 406.4077 696.4812 410.9651 685.206 429.0268 672.9203 419.5741 650.6084 419.0062 648.8029 412.6735 644.5092 408.5946 628.2743 404.8569 614.3706 399.435 608.6669 403.8307 605.6687 405.0993 595.1544 402.7003 573.1486 388.6112 576.3912 382.2184 579.8663 379.078 575.2878 375.1231 571.2915 376.8365 575.2587 354.923 589.0632 342.1595 593.1656 326.4364 592.8106 319.6923 589.6813 308.835 594.4427 282.4535 620.1222 289.3656 Z" id="fips-34013"/>
<path d="M 510.2 171.4009 548.3537 124.5379 574.2609 97.2838 596.1936 110.5621 605.1981 116.6785 615.5774 122.6858 637.2016 135.1876 637.256 135.2168 648.1557 141.061 629.8887 186.7434 620.4386 211.7623 620.7953 214.7911 631.0065 229.8823 642.4141 236.602 648.39 237.2852 667.7361 239.129 668.1223 234.8338 682.041 245.7761 679.5173 257.1953 678.8032 261.3054 682.8179 272.5783 686.3388 273.3233 686.2051 289.2434 688.2771 291.0774 687.4241 296.4141 693.2826 301.9492 698.3675 310.4242 692.0527 313.5799 691.7376 328.7749 687.8332 337.6624 662.7193 319.6955 655.4678 314.5426 651.9767 312.0608 635.2531 299.9634 632.1716 299.6315 623.8419 295.9544 620.7695 289.681 620.1222 289.3656 619.9574 289.0329 622.6843 282.3338 615.0504 277.1746 615.2234 264.7776 617.3108 241.5474 607.9874 237.9263 606.5725 223.0706 605.9169 225.5029 593.1073 224.2858 582.8029 222.6216 576.7952 216.8967 564.2165 217.453 556.2236 210.025 548.0009 207.8377 542.5712 212.6711 545.9869 201.9374 536.8188 191.0881 520.618 196.7209 512.8343 203.7977 510.9708 198.8811 517.9195 177.1222 510.2 171.4009 Z" id="fips-34031"/>
<path d="M 648.1557 141.061 655.7602 145.1358 661.9018 148.4251 702.5448 171.915 704.5876 173.0947 729.0304 187.2492 729.0328 187.2504 768.1029 210.0281 790.4955 223.0554 792.7975 224.8069 793.7709 225.3542 794.8765 225.5294 799 225.5566 797.901 235.2975 796.7782 239.6054 794.0312 250.1407 792.9463 254.2999 789.1538 271.0325 788.1866 274.431 788.0902 275.6379 787.8535 275.7026 787.2667 278.1824 787.2581 278.2184 782.9715 293.2595 780.9226 297.9852 778.742 302.636 778.7081 302.709 773.9835 312.9085 771.3294 319.4588 767.0663 332.7403 764.8203 336.5643 764.816 336.5717 764.7694 336.651 763.8489 338.3729 763.2966 339.4061 757.3953 350.4412 750.4692 344.4349 743.7639 339.7488 744.1974 338.6964 744.0078 337.3473 744.1989 336.7206 743.0511 335.3346 741.126 335.1716 728.3189 345.1741 713.2429 352.7692 706.7107 373.931 701.7957 365.138 687.8326 364.2668 679.6361 358.7105 684.079 350.9274 683.3461 346.8111 687.8332 337.6624 691.7376 328.7749 692.0527 313.5799 698.3675 310.4242 693.2826 301.9492 687.4241 296.4141 688.2771 291.0774 686.2051 289.2434 686.3388 273.3233 682.8179 272.5783 678.8032 261.3054 679.5173 257.1953 682.041 245.7761 668.1223 234.8338 667.7361 239.129 648.39 237.2852 642.4141 236.602 631.0065 229.8823 620.7953 214.7911 620.4386 211.7623 629.8887 186.7434 648.1557 141.061 Z" id="fips-34003"/>
<path d="M 279.031 167.1623 283.5657 157.1586 284.6771 155.7952 287.9742 153.9836 289.6807 153.6492 291.106 153.7797 292.0552 153.4263 299.8235 147.5988 300.0987 147.0479 299.9228 145.8841 301.1802 144.1553 307.7746 141.4541 311.5534 138.4777 320.0542 127.5015 321.7072 123.9113 321.9989 122.3577 322.6981 120.9088 327.5677 116.2639 331.022 111.7299 332.7557 107.5481 332.8628 105.6745 334.8788 100.6232 338.0812 94.2205 341.3475 88.7662 341.7116 87.7481 341.8595 86.8508 341.1471 85.713 338.3192 82.8516 338.0532 82.2829 338.6371 79.5459 340.5964 76.112 340.7772 73.6227 342.9248 68.982 343.4683 68.2807 344.0986 68.0209 346.7817 67.5984 347.7546 66.2658 348.2519 65.2455 348.6581 63.294 347.9665 61.0823 348.0567 60.1402 350.5125 55.184 351.6553 51.7475 351.8281 51.228 353.8613 48.8307 355.7606 45.0119 359.6241 40.8519 362.5425 39.405 364.2759 38.1486 366.7221 35.0151 373.474 30.3342 373.7424 29.7 373.5626 28.1624 371.9421 25.3804 372.3126 24.1939 373.6933 22.904 375.1186 22.3938 378.6611 21.8034 381.819 21.7466 383.3751 21.2758 385.6759 19.0946 387.1939 17.2068 388.6964 11.7113 390.7519 8.8083 392.0405 8.0758 400.3448 7.8346 402.8188 8.1723 407.2738 7.2959 413.1246 3.9408 415.0503 3.12 416.8574 2.8006 419.5355 1 444.6924 16.4079 460.821 25.8825 511.6911 57.4758 531.5501 69.4362 568.7768 93.9606 574.2609 97.2838 548.3537 124.5379 510.2 171.4009 494.7995 188.6194 457.5181 231.2282 444.9923 247.7134 447.311 261.3909 439.3132 274.5869 411.6418 288.6717 410.6263 286.7086 401.85 275.0814 384.084 281.269 374.1449 269.0132 290.6857 165.9134 290.5145 165.2925 289.584 164.8204 288.3517 165.1376 286.8049 166.067 283.9486 168.7019 282.3045 169.5215 280.6564 169.7183 279.3559 169.4901 278.9777 169.1409 279.031 167.1623 Z" id="fips-34037"/>
<path d="M 284.965 822.2775 299.3679 813.339 305.2407 810.092 308.5603 808.6584 310.7232 808.4135 314.9974 809.179 316.362 808.9984 316.3913 808.9945 326.5868 805.5051 330.2433 803.6304 338.127 801.514 339.5222 800.5753 340.0523 799.823 340.8262 797.3759 341.2176 796.6275 341.6462 795.808 342.6573 794.68 344.2452 793.5531 347.9472 791.8026 350.5446 789.7985 351.941 787.9176 353.0548 783.0222 355.1776 777.6264 356.3825 775.3682 358.114 773.6132 359.6992 773.1137 360.9955 773.0531 361.3014 773.1337 362.675 773.4955 368.5282 776.0791 374.24 777.5943 375.9684 777.6595 377.4092 777.3475 383.4736 772.1216 386.6559 769.993 388.5685 769.0563 390.286 768.6349 394.798 768.9532 396.2382 768.8289 397.3428 768.3275 404.5198 761.8753 405.1726 760.9245 405.9898 759.0414 406.0428 758.7787 413.8328 751.6474 412.0012 739.4092 428.9971 744.1812 427.7285 748.207 435.0638 749.6823 453.6111 763.6284 463.6754 767.2234 470.6753 766.4155 487.3927 803.5204 509.9245 858.6322 514.5443 870.0285 544.8706 944.0374 566.485 995.3824 566.4924 1106.669 562.7932 1118.8997 552.7829 1123.9464 553.4995 1131.0567 543.3639 1134.8145 544.4601 1141.1203 539.299 1129.96 536.0596 1136.5528 525.299 1134.7645 505.2526 1120.5559 499.6386 1123.1774 492.85 1117.455 487.5511 1105.5064 476.8159 1105.3722 470.5343 1096.9604 454.9011 1087.6228 439.4403 1087.693 436.6691 1084.9345 435.8211 1061.1902 433.0509 1053.347 428.3721 1047.1509 427.6504 1046.3635 405.2123 1027.7384 399.2471 1022.8919 381.9397 1009.9022 372.9627 996.7888 359.1329 986.2828 347.6577 985.0572 331.7352 990.3341 319.1174 984.2861 305.6039 924.6832 292.8623 906.7883 290.15 903.0528 280.0179 898.5761 279.2857 896.6421 284.3727 891.5862 275.0464 891.0165 270.3717 889.6804 265.1224 886.3021 264.6124 884.0146 266.1038 880.1433 263.941 878.41 263.1655 873.3468 267.4783 865.4763 257.6842 857.1253 255.0113 855.3266 243.628 858.0801 244.1005 857.5206 247.8852 850.0026 249.9174 847.2487 250.0792 847.1372 253.6312 844.6901 258.1394 843.1039 265.0928 840.6562 267.2128 839.5343 268.7563 838.4101 277.4434 829.5267 280.3403 826.1466 284.7756 822.395 284.965 822.2775 Z" id="fips-34005"/>
<path d="M 311.9863 1369.44 306.4893 1349.6742 308.8671 1339.6444 321.1082 1333.3654 328.1429 1287.3416 338.2941 1277.6811 355.9588 1289.3556 375.6414 1288.1044 391.282 1295.8529 407.1095 1293.5808 416.8367 1299.4206 436.4052 1294.2957 440.4206 1299.7711 445.7415 1295.2534 456.4731 1296.7985 470.7033 1286.397 480.397 1293.1717 493.7974 1292.4279 488.9585 1296.7584 487.8518 1300.9184 484.2043 1306.0948 474.4635 1311.0385 466.248 1318.5591 458.2022 1327.4744 447.5943 1342.4366 442.5905 1347.9827 440.2333 1356.4107 430.5072 1368.1987 409.6015 1405.8585 409.1236 1407.6857 409.7001 1409.1061 414.4364 1413.3604 413.7203 1416.4494 397.8999 1434.149 378.1372 1466.5552 374.421 1480.9638 371.307 1486.0581 363.8863 1489.8404 358.2975 1493.9404 342.9425 1509.5196 336.229 1518.374 335.869 1517.7272 333.2842 1516.4005 327.5133 1517.5068 315.4147 1523.6055 308.8825 1525.3814 302.4549 1525.7498 287.86 1524.0241 286.0032 1522.6248 283.7121 1518.2497 291.9563 1480.0518 294.8599 1471.037 300.3362 1458.7825 317.3242 1426.0288 320.208 1418.896 322.7825 1409.8801 326.0603 1390.7759 325.4735 1381.2332 316.7301 1371.0904 311.9863 1369.44 Z" id="fips-34009"/>
<path d="M 529.7967 476.9156 548.3019 464.0877 553.3147 450.5969 558.1879 442.0151 558.1817 434.4802 545.621 435.5601 535.6456 442.3944 530.7639 430.2532 534.026 429.8789 538.9664 421.1084 564.1471 401.9465 564.1197 397.5881 567.2191 398.141 573.1486 388.6112 595.1544 402.7003 605.6687 405.0993 608.6669 403.8307 614.3706 399.435 628.2743 404.8569 644.5092 408.5946 648.8029 412.6735 650.6084 419.0062 672.9203 419.5741 685.206 429.0268 682.4638 433.3935 673.5509 448.063 673.4945 448.0548 669.1626 447.4244 664.0235 446.708 660.9981 447.8821 656.5475 453.4989 654.9908 455.4631 654.139 456.5377 653.5684 460.2105 654.0973 465.5496 653.4986 471.7975 655.5887 476.0083 653.5782 480.5326 648.4071 473.37 611.9572 481.209 605.0999 475.7994 606.2255 470.7111 589.2866 472.6276 579.6398 473.713 542.3013 477.9647 533.6912 478.9365 529.7967 476.9156 Z" id="fips-34039"/>
<path d="M 519.9084 694.0934 531.5009 695.3034 563.741 677.4613 563.3185 671.9667 583.2135 648.9292 595.2029 636.5652 612.5913 618.677 631.55 599.0615 633.0496 597.0773 632.2835 595.201 633.0053 593.9645 633.0225 582.9464 644.9234 569.2313 643.8802 568.1224 651.141 571.7648 652.883 575.9627 654.8288 577.062 658.75 575.7511 661.1374 572.5701 662.6993 568.2445 665.0158 565.0548 667.4916 564.9992 668.0966 566.8387 670.51 569.264 673.3427 571.0068 676.3176 571.5255 678.7727 571.2031 682.3874 568.5488 684.3046 566.2664 685.4361 565.5779 687.4805 565.6793 693.0714 570.0746 699.6486 573.7611 709.3274 577.078 715.0336 579.9916 723.3011 586.8422 728.6232 589.1915 748.4968 593.9464 752.2638 594.0421 753.6662 588.6562 755.3723 573.9281 749.6161 570.4671 748.7569 563.4832 742.0296 556.2353 742.453 552.0317 752.2205 552.7545 759.5625 570.3417 759.9836 587.7875 762.5644 595.4724 765.4233 618.556 765.54 633.4355 764.1258 649.6717 762.8771 663.9951 760.944 676.544 755.5813 702.7945 752.4805 715.8648 751.2401 721.0911 738.417 775.0377 736.6329 787.4193 737.708 788.7103 731.034 786.0898 722.1382 793.5738 718.9689 796.2819 711.9362 791.0672 701.1001 766.427 678.91 789.9856 676.0892 785.4006 636.3129 780.1039 636.7555 770.502 628.0823 759.1369 627.2568 747.9222 557.554 744.8106 499.264 796.9218 487.3927 803.5204 470.6753 766.4155 457.8236 738.717 467.8512 740.5699 482.7551 733.9488 492.0001 717.142 521.5924 700.6419 519.9084 694.0934 Z" id="fips-34025"/>
<path d="M 455.0456 618.5642 470.5951 605.576 471.8832 590.6579 497.4198 576.0738 514.6864 558.7239 517.4623 555.2584 532.015 541.7104 504.7872 510.9969 502.8816 504.3448 499.6367 501.9107 500.9239 495.5039 506.5207 487.706 518.9586 483.753 529.7967 476.9156 533.6912 478.9365 542.3013 477.9647 579.6398 473.713 589.2866 472.6276 606.2255 470.7111 605.0999 475.7994 611.9572 481.209 648.4071 473.37 653.5782 480.5326 651.7842 486.7891 649.9359 494.7593 647.4234 501.9394 647.4171 501.9574 642.3812 502.3491 636.7601 505.0574 632.0154 510.5424 632.2534 518.0951 633.4145 523.5371 630.9283 527.8867 627.6693 534.9439 626.6992 537.3317 621.86 545.6539 623.9696 553.3623 626.1973 561.0236 628.0763 561.6902 638.2559 565.2996 643.8802 568.1224 644.9234 569.2313 633.0225 582.9464 633.0053 593.9645 632.2835 595.201 633.0496 597.0773 631.55 599.0615 612.5913 618.677 595.2029 636.5652 583.2135 648.9292 563.3185 671.9667 563.741 677.4613 531.5009 695.3034 519.9084 694.0934 521.2866 681.1626 493.5428 672.1599 477.5 664.287 463.1612 651.4267 453.9976 649.2986 450.2755 637.7931 451.8496 632.3733 453.0539 623.9147 455.0456 618.5642 Z" id="fips-34023"/>
<path d="M 737.708 788.7103 737.9708 789.026 736.9054 789.6759 734.1637 801.0482 731.511 815.9784 722.7249 865.3481 718.9927 891.8911 716.6986 908.1893 710.5496 977.933 707.7226 998.1257 707.8214 1001.1496 707.606 1001.6439 706.8633 1003.3482 705.6588 1005.4687 699.8241 1015.2086 686.4565 1047.4894 662.8792 1088.0043 639.1338 1132.2046 635.0212 1136.567 621.3987 1157.9316 614.5299 1161.9536 605.1093 1162.6137 604.4412 1166.9144 597.6766 1162.8831 571.3319 1167.8695 553.4995 1131.0567 552.7829 1123.9464 562.7932 1118.8997 566.4924 1106.669 566.485 995.3824 544.8706 944.0374 514.5443 870.0285 509.9245 858.6322 487.3927 803.5204 499.264 796.9218 557.554 744.8106 627.2568 747.9222 628.0823 759.1369 636.7555 770.502 636.3129 780.1039 676.0892 785.4006 678.91 789.9856 701.1001 766.427 711.9362 791.0672 718.9689 796.2819 722.1382 793.5738 731.034 786.0898 737.708 788.7103 Z" id="fips-34029"/>
<path d="M 679.6361 358.7105 687.8326 364.2668 701.7957 365.138 706.7107 373.931 713.2429 352.7692 728.3189 345.1741 741.126 335.1716 743.0511 335.3346 744.1989 336.7206 744.0078 337.3473 744.1974 338.6964 743.7639 339.7488 750.4692 344.4349 757.3953 350.4412 756.9875 351.2036 755.4146 354.1436 752.7113 359.1954 749.1618 365.8262 748.7463 366.6023 745.9325 371.8568 745.5092 372.6473 745.1964 373.2876 743.3543 377.0582 741.9193 384.9131 740.6144 392.0524 740.0203 395.3023 740.0013 395.406 739.8316 396.6453 738.4536 406.7067 730.7296 412.6127 727.7138 418.67 718.3121 418.3802 716.2114 429.3329 719.787 431.7475 716.3034 437.6063 712.17 436.0163 709.0602 443.2238 705.7681 445.3528 698.0376 445.5449 689.3954 448.1779 682.2064 449.3213 673.5509 448.063 682.4638 433.3935 685.206 429.0268 696.4812 410.9651 694.4203 406.4077 692.5012 398.5587 694.3459 389.6168 694.0449 388.0408 691.5707 386.5096 684.5778 386.9931 682.1139 388.3242 679.9913 391.4131 675.9512 392.0015 672.9586 390.4452 671.0022 382.8837 673.637 373.3098 679.2827 363.0353 679.6361 358.7105 Z" id="fips-34017"/>
</g>
</svg>