<?xml version="1.0"?>
<svg xmlns="http://www.w3.org/2000/svg" version="1.2" baseProfile="tiny" width="800" height="893" viewBox="0 0 800 893" stroke-linecap="round" stroke-linejoin="round">
<g id="cb_2018_us_county_5m">
<path d="M 22.1696 157.9522 36.9209 158.3928 49.8774 158.7153 52.7448 158.791 87.0404 159.6566 135.5111 160.7003 178.0197 161.7088 202.0018 162.2451 242.2887 163.0477 241.6754 216.9254 241.5248 253.8459 240.8966 271.6062 200.0521 271.2792 200.2169 264.3886 186.6801 264.208 186.5729 270.9705 173.6313 270.7502 138.2183 269.9416 92.6908 268.8827 92.6675 270.0445 92.6477 271.0308 91.3243 323.337 87.0198 323.2286 84.9637 323.1817 42.4423 322.0303 17.3616 321.3032 18.3269 287.5141 18.6617 275.841 18.9167 265.3336 19.0144 261.3137 19.0939 258.0466 19.9788 229.427 19.9758 229.409 20.3174 218.7886 20.328 218.4336 21.5882 177.1992 21.6259 175.802 21.7996 169.9857 21.8052 169.9802 22.1678 158.0091 22.1696 157.9522 Z" id="fips-35031"/>
<path d="M 551.9538 421.7417 551.4238 381.4059 609.1011 380.4904 608.8514 366.9039 622.4015 366.5805 622.1472 352.9746 649.2516 352.4238 649.8283 379.7096 673.0466 379.2522 674.1617 433.3763 674.647 434.867 675.1644 461.1307 647.9749 461.573 648.1536 475.3313 627.2258 475.65 566.3374 475.9319 566.1149 462.216 552.2352 462.2765 551.9538 421.7417 Z" id="fips-35011"/>
<path d="M 355.5007 340.6724 362.0743 340.6765 389.1962 340.7392 389.178 333.0789 389.1878 328.2369 388.2921 327.6865 378.2748 327.6852 377.1203 327.69 377.1212 314.1105 383.4296 314.0763 404.6268 314.0061 445.0602 313.7572 449.1112 313.7355 499.4158 313.3531 500.0384 381.5669 497.1529 381.5615 497.4426 422.27 497.5336 435.9324 418.1648 436.3399 395.3958 436.3674 354.6924 436.3415 354.6483 408.1514 354.6901 395.2953 347.8578 395.3524 348.5378 381.6929 348.3578 364.6675 348.6848 350.0137 348.803 340.6612 355.5007 340.6724 Z" id="fips-35057"/>
<path d="M 11.9047 506.4084 12.4014 491.242 12.8823 471.6578 15.3327 389.8292 15.3334 389.8042 15.5932 380.9155 23.2724 381.1149 23.6825 381.0615 149.1046 384.08 185.9646 384.8889 185.316 418.9734 185.0995 434.7695 186.2804 434.7828 185.2958 502.8284 185.6549 505.0692 184.8526 557.4905 155.2874 557.3799 151.5317 556.7527 147.243 556.6647 146.466 600.0259 87.5703 598.8485 75.3846 597.4734 61.8408 596.9265 21.2479 596.138 9.3617 595.5892 9.362 595.5783 9.511 589.1402 10.0995 571.0968 10.09 571.0498 10.0885 570.4682 10.1262 569.9403 10.1767 569.5646 10.2332 564.1229 11.2637 530.404 11.709 512.3943 11.9047 506.4084 Z" id="fips-35003"/>
<path d="M 657.3074 4.8669 691.5079 3.8213 691.6477 3.8219 763.8221 1.5594 772.5496 1.3089 783.0368 1 783.4861 14.8529 783.5319 15.167 784.4775 44.9284 784.6635 51.8545 784.9931 60.9334 785.0749 63.1973 785.4156 75.1159 785.5654 79.2155 780.5973 79.3615 781.5333 107.8815 781.5459 107.996 782.9618 149.0638 783.9799 183.1316 783.9298 185.089 784.0446 186.8326 784.1062 189.5945 784.2281 190.3523 784.4696 198.5201 742.0549 199.7319 740.9425 159.1445 742.1839 159.1096 741.8057 145.4241 687.4555 146.8427 687.1905 133.0223 660.0244 133.5336 659.8801 126.7068 658.7232 71.9737 658.1607 51.6147 657.3074 4.8669 Z" id="fips-35059"/>
<path d="M 560.6806 707.8638 561.9163 707.8482 561.1501 638.5036 599.3831 637.839 624.1594 637.3349 624.6534 637.3514 665.0583 636.4329 696.1327 635.8022 697.6885 705.1445 709.7408 704.867 710.3394 731.3981 711.584 786.6194 708.2064 786.701 691.318 787.032 677.4133 787.4018 671.5241 787.5436 630.9934 788.3157 604.141 788.7599 604.1166 788.7299 589.6367 788.9375 589.29 788.9352 562.1553 789.3003 561.6965 749.6807 561.1983 748.6403 560.7432 713.54 560.6806 707.8638 Z" id="fips-35015"/>
<path d="M 407.2108 7.7828 408.318 7.7701 408.4823 7.7698 443.2418 7.6087 443.2426 7.6087 443.4919 7.6072 449.9697 7.5751 454.6325 7.5832 466.3417 7.4889 469.0251 7.4881 469.4817 7.4668 474.9456 7.4171 477.1895 7.398 477.7898 7.3976 480.6429 7.3991 480.6874 7.3991 501.717 7.2731 505.558 7.3075 505.5713 7.3073 503.6307 9.3946 503.6612 12.4646 506.776 19.1093 508.2451 19.7378 504.6803 30.4055 505.4901 32.6171 504.223 36.0024 505.077 37.14 504.021 39.346 505.1362 42.3466 505.4819 48.1931 504.7052 49.8125 502.2456 50.839 498.415 50.7203 497.1358 49.1446 494.3318 49.9864 492.6829 53.9737 491.5861 53.2723 489.4531 54.0983 487.1724 56.6518 488.4889 59.4692 488.0273 60.8668 489.6483 63.5439 488.152 64.778 486.7397 67.9956 488.8858 70.9353 489.9487 75.3643 486.4378 76.8511 490.0809 79.8082 490.7543 83.2314 493.9486 86.2539 491.7349 87.5548 491.3479 89.5997 489.2657 92.4614 489.6871 93.9049 491.5667 93.611 492.2683 96.1206 491.3074 98.1189 492.98 99.7736 493.0079 103.7067 492.4258 105.805 492.8604 110.4535 492.061 116.0647 493.1196 119.8851 491.4028 122.2755 485.5899 123.7327 482.7872 126.2638 484.9455 129.4901 484.4414 133.3391 481.3596 136.7239 482.2392 138.7523 481.6041 142.7386 476.2283 151.131 472.9234 157.5713 470.7189 160.1899 467.7466 161.4233 457.2319 155.9127 441.6395 147.903 438.3731 143.2409 428.6462 130.6341 426.2511 127.5413 400.7793 117.161 403.3078 112.6659 408.3655 111.3958 413.2134 108.0902 414.2079 104.9983 413.7418 98.016 415.8711 90.7417 415.3084 85.3386 414.1984 82.625 414.3999 78.6724 413.6712 73.5054 412.6026 69.9463 411.5356 62.1546 410.0395 62.5957 410.0439 60.3489 412.058 60.3504 411.7325 56.6693 410.4385 51.9208 410.8773 50.7445 410.3013 46.7611 410.5685 43.4801 409.9941 36.4776 411.2274 32.4943 411.549 24.8592 409.8006 19.5065 409.5179 16.3731 407.4178 10.7392 407.2108 7.7828 Z" id="fips-35055"/>
<path d="M 364.0844 625.5223 364.1012 615.6012 363.5103 572.5872 417.6952 572.6999 443.5712 572.5036 444.451 572.5052 444.6621 585.9492 489.7376 585.5996 498.1766 585.448 498.4421 612.6602 498.6974 632.9625 498.77 639.3262 493.9753 639.3785 494.4578 695.3434 494.2883 708.8145 521.3415 708.5673 560.6806 707.8638 560.7432 713.54 561.1983 748.6403 561.6965 749.6807 562.1553 789.3003 552.7829 789.4137 552.7716 789.4138 531.6839 789.6368 531.4768 789.6462 526.2363 789.7071 524.4638 789.7187 524.2593 789.7216 522.2229 789.7467 521.9478 789.7475 521.4583 789.7522 490.0409 790.0015 485.1696 790.0314 484.9659 790.0388 484.873 790.043 444.724 790.1069 442.1765 790.0162 428.416 790.0384 424.15 790.1089 422.2306 790.093 409.2848 790.0806 402.3139 790.0748 392.3347 790.0602 384.851 790.1342 382.3445 790.1742 381.6512 790.1773 367.3776 790.1985 366.0269 790.2045 365.6793 790.206 358.9305 790.2339 358.8881 790.2329 358.8847 786.8142 358.918 777.6414 359.1043 709.5289 359.3115 640.3534 364.0295 640.312 364.0844 625.5223 Z" id="fips-35035"/>
<path d="M 5.9312 718.1322 6.8728 683.5793 7.0198 678.2033 7.0411 677.4284 7.0579 676.8552 7.0737 676.3148 7.505 663.1421 7.506 663.107 32.8444 663.8938 32.3642 691.133 47.514 691.5111 59.5878 691.7811 59.2324 705.4371 73.7251 705.7741 72.8693 744.2802 72.1016 774.1628 73.8326 774.2044 73.0956 808.0514 113.9834 808.8733 113.8533 815.7083 114.8009 815.724 114.906 821.5045 114.4393 848.1308 114.0435 865.9223 114.0365 865.9309 113.5439 891.961 77.8566 891.1756 46.7857 890.4593 35.9432 890.3084 27.5993 890.0969 26.2724 890.059 1 889.3248 1.5961 866.2477 1.7215 863.1962 1.7256 863.1943 2.3915 841.7494 3.0513 816.7177 3.1686 814.4931 3.2615 809.3367 3.3807 806.5728 3.4441 805.101 4.0457 782.7406 4.0896 780.4669 4.384 771.7154 4.4066 770.9294 5.9312 718.1322 Z" id="fips-35023"/>
<path d="M 499.4158 313.3531 499.1365 286.0138 514.7242 285.8797 525.8489 285.7738 550.3493 285.5064 618.9497 284.5336 648.3938 284.0408 648.6285 295.5787 648.8115 304.764 649.1123 322.6954 648.719 324.9623 649.2516 352.4238 622.1472 352.9746 622.4015 366.5805 608.8514 366.9039 609.1011 380.4904 551.4238 381.4059 551.9538 421.7417 497.4426 422.27 497.1529 381.5615 500.0384 381.5669 499.4158 313.3531 Z" id="fips-35019"/>
<path d="M 376.6985 186.2956 376.7066 188.8767 376.5757 188.3099 375.0884 187.692 374.8109 187.1005 373.0607 186.3073 376.6985 186.2956 Z M 202.8124 127.8627 229.7636 128.5103 243.2102 129.2056 249.6098 128.9746 274.9328 129.2274 296.2593 129.406 295.9615 163.4945 298.7261 163.5691 305.7325 163.5901 317.6513 163.561 358.6589 163.4345 359.7764 163.5794 376.8756 163.4553 376.7426 168.9554 374.7042 167.9466 370.1213 167.8397 370.1444 170.1696 368.1594 171.1057 359.3526 171.0438 357.5156 169.8953 357.469 190.5551 355.068 190.962 355.9981 193.2729 359.6561 193.734 362.8786 192.4264 372.331 196.2778 376.4059 201.9376 376.6209 218.0636 376.5967 237.241 376.5914 241.0879 376.5575 250.9109 376.5353 261.2159 376.5188 272.6866 376.9914 282.9773 377.1084 286.5825 356.8546 286.2717 349.5592 286.1645 343.8186 286.1475 334.8773 286.1086 332.3744 286.1129 331.7175 286.1087 330.8649 286.169 326.4558 288.4193 325.9856 289.2294 326.105 287.7357 324.1129 286.0792 323.7367 286.0584 323.377 286.0559 319.1905 286.0275 315.039 286.0013 310.6767 285.9723 285.2021 285.7262 255.092 285.2772 249.9111 271.7361 240.8966 271.6062 241.5248 253.8459 241.6754 216.9254 242.2887 163.0477 202.0018 162.2451 202.8124 127.8627 Z" id="fips-35043"/>
<path d="M 17.3616 321.3032 42.4423 322.0303 84.9637 323.1817 87.0198 323.2286 91.3243 323.337 92.6477 271.0308 92.6675 270.0445 92.6908 268.8827 138.2183 269.9416 173.6313 270.7502 186.5729 270.9705 186.6801 264.208 200.2169 264.3886 200.0521 271.2792 240.8966 271.6062 249.9111 271.7361 255.092 285.2772 271.4364 326.5429 253.9292 326.3097 253.6047 351.479 253.1528 380.9652 253.4431 385.6779 190.254 384.753 185.9646 384.8889 149.1046 384.08 23.6825 381.0615 23.2724 381.1149 15.5932 380.9155 16.4714 350.8798 16.6298 348.6281 16.6008 346.3421 16.7273 344.1122 16.7349 341.8641 17.3612 321.3189 17.3616 321.3032 Z" id="fips-35006"/>
<path d="M 648.6285 295.5787 682.4449 275.7279 682.5396 279.1326 684.4238 279.2294 710.7333 278.7174 710.1562 255.3992 741.8231 254.5865 742.9688 253.4308 742.5637 238.0912 741.8936 213.3729 742.0549 199.7319 784.4696 198.5201 785.0101 216.8368 786.7306 275.1737 786.7213 276.5566 786.9 281.1568 787.0551 285.654 787.0583 285.7108 787.0659 285.846 787.0751 286.3708 787.1466 289.3876 787.1992 291.6725 787.223 291.9805 787.2681 293.1033 787.2244 294.7569 787.3773 297.1269 788.1439 321.5274 757.1508 322.4315 757.5266 336.4034 743.9765 336.7085 744.289 350.3883 737.5046 350.5494 730.7374 350.6772 731.0945 364.3362 713.1218 364.7143 704.0376 364.8474 704.3287 378.548 700.1955 378.6997 673.0466 379.2522 649.8283 379.7096 649.2516 352.4238 648.719 324.9623 649.1123 322.6954 648.8115 304.764 648.6285 295.5787 Z" id="fips-35037"/>
<path d="M 237.3259 694.7555 237.6478 667.4127 242.9285 667.4501 285.2882 667.9643 291.8946 668.0296 291.9225 661.2135 364.0844 625.5223 364.0295 640.312 359.3115 640.3534 359.1043 709.5289 358.918 777.6414 358.8847 786.8142 358.8881 790.2329 356.6131 790.1792 345.0702 790.2125 334.0178 790.2159 331.5753 790.2105 329.6804 790.206 326.816 790.2239 326.684 791.1255 326.1338 791.7076 325.1208 791.8889 324.412 792.5259 324.0044 793.3649 324.1803 793.9182 325.2494 794.7944 326.1716 794.539 326.6731 795.8162 326.3041 796.4064 326.4039 796.9689 326.8882 797.1903 327.329 797.7019 327.2095 798.2946 326.2521 799.5367 326.3105 800.2997 326.0371 801.1018 326.4178 801.7161 327.5638 802.6756 327.6127 803.0422 325.7612 804.0401 324.7322 804.4166 323.7743 805.2248 323.1526 806.1499 323.1742 806.7467 323.4916 807.0498 324.1221 807.2519 325.1113 808.0791 325.3083 808.5019 324.5462 809.9447 324.4101 810.4081 324.4001 811.2346 325.4766 812.1233 325.7457 812.8006 326.2632 813.3389 327.2199 814.3399 328.3903 814.3744 328.4699 814.4374 328.8949 814.6742 328.9049 815.4258 328.4547 817.2544 328.7909 817.7082 329.9761 817.7329 330.6113 818.0794 330.7441 818.174 331.5256 819.2108 331.6311 819.4618 332.1749 820.0122 333.0138 820.0472 333.5618 819.5642 334.0142 819.6757 334.0797 819.9111 334.6787 820.023 336.1819 820.5147 336.257 820.6284 336.4202 820.8755 336.5037 820.9885 336.8447 821.3312 336.851 821.3252 337.682 821.8826 337.7479 822.0551 337.7728 822.1206 337.827 822.2746 338.051 822.933 338.0567 822.9453 338.126 822.9322 338.3879 822.9037 338.7296 823.1549 338.7565 823.2718 338.7715 823.3723 338.7204 823.7125 338.7024 824.0193 338.6856 824.3068 338.2212 824.1857 309.0703 824.0711 309.0705 824.041 276.6995 823.8372 276.0746 823.8347 275.7649 823.8307 275.7647 823.8567 271.4486 823.8148 236.3053 823.4216 236.7689 782.8097 236.5498 776.6693 236.8438 755.0944 237.3282 696.2494 237.3259 694.7555 Z" id="fips-35013"/>
<path d="M 673.0466 379.2522 700.1955 378.6997 701.0666 425.9637 735.6432 425.063 737.3133 425.0253 755.442 424.5349 764.1897 424.3004 778.209 423.9296 791.0918 423.5917 791.0921 423.6016 791.1827 425.6598 791.3471 430.7568 792.0388 453.3256 792.158 457.2242 792.2054 458.5657 792.2605 461.1205 792.3149 463.1716 792.3423 464.1807 792.3541 464.3724 792.3513 464.4951 792.3746 465.1598 792.421 465.8766 792.4936 468.1792 792.5206 469.2502 792.5503 470.4324 792.644 474.9772 792.6584 479.5257 792.739 485.6881 792.7685 486.4339 792.8453 494.4651 792.9085 498.481 793.0485 510.7698 793.0217 512.104 793.1188 517.7132 793.2069 522.3456 793.201 524.5756 793.1786 525.7834 793.2409 527.1199 793.2598 529.0731 793.4108 538.3014 793.4109 538.3052 733.7408 540.0568 733.4432 526.4034 706.2637 527.244 705.8533 501.6473 689.5859 502.0813 688.6986 460.9185 684.3103 460.9861 675.1644 461.1307 674.647 434.867 674.1617 433.3763 673.0466 379.2522 Z" id="fips-35041"/>
<path d="M 271.4364 326.5429 276.6544 340.0957 276.7282 340.2633 309.9244 340.5113 315.6327 340.5317 315.8587 340.2064 318.0846 338.1519 320.2773 334.9241 353.2395 335.4708 355.164 337.2277 355.5379 337.6193 355.5007 340.6724 348.803 340.6612 348.6848 350.0137 348.3578 364.6675 348.5378 381.6929 347.8578 395.3524 354.6901 395.2953 354.6483 408.1514 349.5556 408.5487 343.3226 405.4007 335.5772 402.7225 309.3246 393.5926 308.7096 393.2709 308.68 393.2554 305.5231 391.6028 294.5942 385.9113 276.8871 385.7754 253.4431 385.6779 253.1528 380.9652 253.6047 351.479 253.9292 326.3097 271.4364 326.5429 Z" id="fips-35061"/>
<path d="M 505.5713 7.3073 513.7646 7.2044 516.0917 7.1742 518.0501 7.1484 529.5157 7.4515 533.1035 7.3281 566.6973 6.8741 566.7085 6.8798 577.5961 6.7355 580.0337 6.6649 580.1556 6.5412 593.3334 6.434 615.9095 6.0907 626.9533 5.7168 657.3074 4.8669 658.1607 51.6147 658.7232 71.9737 659.8801 126.7068 605.8879 127.6588 551.6194 128.5563 551.5502 121.7345 491.4028 122.2755 493.1196 119.8851 492.061 116.0647 492.8604 110.4535 492.4258 105.805 493.0079 103.7067 492.98 99.7736 491.3074 98.1189 492.2683 96.1206 491.5667 93.611 489.6871 93.9049 489.2657 92.4614 491.3479 89.5997 491.7349 87.5548 493.9486 86.2539 490.7543 83.2314 490.0809 79.8082 486.4378 76.8511 489.9487 75.3643 488.8858 70.9353 486.7397 67.9956 488.152 64.778 489.6483 63.5439 488.0273 60.8668 488.4889 59.4692 487.1724 56.6518 489.4531 54.0983 491.5861 53.2723 492.6829 53.9737 494.3318 49.9864 497.1358 49.1446 498.415 50.7203 502.2456 50.839 504.7052 49.8125 505.4819 48.1931 505.1362 42.3466 504.021 39.346 505.077 37.14 504.223 36.0024 505.4901 32.6171 504.6803 30.4055 508.2451 19.7378 506.776 19.1093 503.6612 12.4646 503.6307 9.3946 505.5713 7.3073 Z" id="fips-35007"/>
<path d="M 498.4421 612.6602 525.7841 612.5001 530.2063 612.0683 539.1829 611.9414 552.3911 611.0826 552.2833 598.2287 552.3357 584.9136 554.7857 584.8958 554.672 578.3963 554.6273 571.1942 553.6572 570.4338 553.3773 544.0808 553.3389 539.6453 553.0446 504.836 552.5789 503.6466 552.2352 462.2765 566.1149 462.216 566.3374 475.9319 627.2258 475.65 648.1536 475.3313 647.9749 461.573 675.1644 461.1307 684.3103 460.9861 688.6986 460.9185 689.5859 502.0813 705.8533 501.6473 706.2637 527.244 733.4432 526.4034 733.7408 540.0568 706.2572 540.8307 706.8134 568.112 700.9356 568.2682 701.2384 581.331 701.7585 604.7601 702.4505 635.6327 700.8091 635.6753 696.1327 635.8022 665.0583 636.4329 624.6534 637.3514 624.1594 637.3349 599.3831 637.839 561.1501 638.5036 561.9163 707.8482 560.6806 707.8638 521.3415 708.5673 494.2883 708.8145 494.4578 695.3434 493.9753 639.3785 498.77 639.3262 498.6974 632.9625 498.4421 612.6602 Z" id="fips-35005"/>
<path d="M 26.986 1.9648 37.7808 2.2976 38.3388 2.3143 80.1143 3.3504 80.1917 3.3582 90.6062 3.5984 110.2559 4.0283 117.5833 4.1808 117.6154 4.1832 121.626 4.266 121.6654 4.2613 126.3499 4.3593 126.5077 4.4481 153.5178 4.85 157.6262 4.9061 222.5488 5.9371 230.16 6.0362 229.9812 6.4231 228.8749 8.857 227.9874 10.947 226.7356 12.0676 225.8014 13.448 226.3136 14.9773 225.7868 16.9702 226.3949 18.7146 226.2387 20.5745 225.479 21.6586 224.7126 22.1162 223.3149 22.3904 221.9981 23.7677 220.4074 25.2222 218.9401 25.3755 218.1514 24.9886 216.9927 25.8526 216.1426 27.6261 215.3192 28.5255 213.1517 28.8263 212.0921 28.4916 211.7455 29.4472 211.2115 30.4145 209.4063 31.6003 208.0772 31.6131 207.4009 32.6739 207.2288 34.09 207.8237 34.6351 207.6835 35.4608 207.0898 35.3496 206.3811 36.2514 206.6971 36.7786 206.0444 37.2524 205.6825 37.0457 204.9795 37.2882 204.9674 37.9211 204.8999 41.7139 204.6986 49.7441 204.1093 56.5226 203.9096 64.0991 203.5543 71.7456 203.406 78.8431 203.2294 87.1891 203.147 96.3246 203.1517 96.4439 202.9388 114.0444 202.8124 127.8627 202.0018 162.2451 178.0197 161.7088 135.5111 160.7003 87.0404 159.6566 52.7448 158.791 49.8774 158.7153 36.9209 158.3928 22.1696 157.9522 22.7366 140.0498 22.9835 129.9131 23.6506 109.0626 24.581 80.0863 24.7107 75.8023 26.3637 21.4488 26.3689 21.3848 26.8351 6.6931 26.8416 6.5965 26.986 1.9648 Z" id="fips-35045"/>
<path d="M 443.7351 183.7645 468.6525 183.712 491.0668 183.5622 505.0897 188.5161 508.5225 190.2093 512.7455 190.4051 516.1196 192.9366 521.4058 193.1287 525.2874 196.4328 528.6885 197.9945 532.2104 201.4325 533.0541 198.9962 534.6005 198.7331 567.0912 196.4711 593.0618 196.4727 604.5604 196.5956 615.4651 196.3201 648.8404 195.314 659.7336 195.1306 665.3562 191.8382 698.9807 250.4776 710.0305 250.2801 710.1562 255.3992 710.7333 278.7174 684.4238 279.2294 682.5396 279.1326 682.4449 275.7279 648.6285 295.5787 648.3938 284.0408 618.9497 284.5336 550.3493 285.5064 525.8489 285.7738 514.7242 285.8797 499.1365 286.0138 499.4158 313.3531 449.1112 313.7355 445.0602 313.7572 444.822 286.5025 444.5052 272.6116 444.3116 247.5314 444.2642 233.5776 444.4106 217.76 443.7393 205.3135 443.699 195.6462 443.6878 193.0204 443.5927 191.3419 443.7351 183.7645 Z" id="fips-35047"/>
<path d="M 185.9646 384.8889 190.254 384.753 253.4431 385.6779 276.8871 385.7754 294.5942 385.9113 305.5231 391.6028 308.68 393.2554 308.7096 393.2709 309.3246 393.5926 335.5772 402.7225 343.3226 405.4007 349.5556 408.5487 354.6483 408.1514 354.6924 436.3415 395.3958 436.3674 418.1648 436.3399 418.4687 504.4151 401.8061 504.4415 401.813 516.5312 401.8198 531.9153 388.0451 531.9217 373.7009 530.3029 359.9516 530.2821 359.9983 558.5887 347.4198 558.5019 346.7281 559.1913 225.3463 557.9137 184.8526 557.4905 185.6549 505.0692 185.2958 502.8284 186.2804 434.7828 185.0995 434.7695 185.316 418.9734 185.9646 384.8889 Z" id="fips-35053"/>
<path d="M 9.3617 595.5892 21.2479 596.138 61.8408 596.9265 75.3846 597.4734 87.5703 598.8485 146.466 600.0259 164.2355 600.5423 164.6422 602.1514 167.5157 603.2943 165.2887 605.9914 165.6521 610.8551 166.9685 616.9112 166.4609 618.4355 167.6761 621.3195 165.6381 623.0981 165.1122 625.4517 164.8196 631.4919 168.2561 637.6019 174.6988 639.4543 176.4867 646.0603 174.8221 648.1476 175.4381 654.979 177.3541 656.2164 179.029 659.4711 178.4273 662.6575 180.0373 665.9265 182.064 666.9454 182.713 669.3686 181.7714 673.5148 182.7366 675.8094 182.1144 679.5749 181.063 680.3983 181.2701 685.2635 179.6617 690.1868 182.2874 691.3153 196.5595 694.211 154.9172 693.7066 154.7183 707.3274 137.7481 707.093 114.3554 706.6431 113.3425 755.1355 112.9352 775.0649 114.6587 775.1016 113.9834 808.8733 73.0956 808.0514 73.8326 774.2044 72.1016 774.1628 72.8693 744.2802 73.7251 705.7741 59.2324 705.4371 59.5878 691.7811 47.514 691.5111 32.3642 691.133 32.8444 663.8938 7.506 663.107 8.7176 617.5903 8.7255 617.4327 8.8953 613.9101 8.8854 613.7553 9.0662 606.7629 9.0682 606.6946 9.3617 595.5892 Z" id="fips-35017"/>
<path d="M 376.7426 168.9554 377.0655 170.0492 377.0547 174.531 376.6985 186.2956 373.0607 186.3073 374.8109 187.1005 375.0884 187.692 376.5757 188.3099 376.7066 188.8767 379.6102 190.513 382.1163 190.4231 386.308 190.6677 386.1801 191.0232 383.6199 194.3963 381.7494 198.5008 381.0559 198.6731 380.7741 199.362 376.4059 201.9376 372.331 196.2778 362.8786 192.4264 359.6561 193.734 355.9981 193.2729 355.068 190.962 357.469 190.5551 357.5156 169.8953 359.3526 171.0438 368.1594 171.1057 370.1444 170.1696 370.1213 167.8397 374.7042 167.9466 376.7426 168.9554 Z" id="fips-35028"/>
<path d="M 444.0512 166.9117 445.3131 168.4723 448.8588 168.5469 451.3537 170.0472 453.2358 169.4682 454.8774 166.7299 458.3131 167.6456 463.0074 167.595 466.9139 164.8956 467.7466 161.4233 470.7189 160.1899 472.9234 157.5713 476.2283 151.131 481.6041 142.7386 482.2392 138.7523 481.3596 136.7239 484.4414 133.3391 484.9455 129.4901 482.7872 126.2638 485.5899 123.7327 491.4028 122.2755 551.5502 121.7345 551.6194 128.5563 605.8879 127.6588 606.6081 128.4201 605.5693 131.5909 608.7369 134.144 608.0677 135.4958 610.0698 137.4798 608.8692 142.4576 610.3589 143.4907 610.6636 147.4748 614.5374 151.2833 613.4824 154.0506 615.2731 154.7996 615.9866 157.9785 615.4152 159.6332 617.3817 160.1359 618.534 162.9555 616.7157 164.4316 620.386 167.8865 617.2455 171.0425 617.0353 172.7978 618.4372 175.4401 614.8581 180.0699 613.7342 183.3974 612.6477 183.7475 615.9432 186.4558 614.0614 187.4946 615.7316 188.4649 614.3234 189.3979 616.1336 191.0852 615.2669 192.3637 616.4647 195.6948 615.4651 196.3201 604.5604 196.5956 593.0618 196.4727 567.0912 196.4711 534.6005 198.7331 533.0541 198.9962 532.2104 201.4325 528.6885 197.9945 525.2874 196.4328 521.4058 193.1287 516.1196 192.9366 512.7455 190.4051 508.5225 190.2093 505.0897 188.5161 491.0668 183.5622 468.6525 183.712 443.7351 183.7645 444.0512 166.9117 Z" id="fips-35033"/>
<path d="M 605.8879 127.6588 659.8801 126.7068 660.0244 133.5336 687.1905 133.0223 687.4555 146.8427 741.8057 145.4241 742.1839 159.1096 740.9425 159.1445 742.0549 199.7319 741.8936 213.3729 742.5637 238.0912 742.9688 253.4308 741.8231 254.5865 710.1562 255.3992 710.0305 250.2801 698.9807 250.4776 665.3562 191.8382 659.7336 195.1306 648.8404 195.314 615.4651 196.3201 616.4647 195.6948 615.2669 192.3637 616.1336 191.0852 614.3234 189.3979 615.7316 188.4649 614.0614 187.4946 615.9432 186.4558 612.6477 183.7475 613.7342 183.3974 614.8581 180.0699 618.4372 175.4401 617.0353 172.7978 617.2455 171.0425 620.386 167.8865 616.7157 164.4316 618.534 162.9555 617.3817 160.1359 615.4152 159.6332 615.9866 157.9785 615.2731 154.7996 613.4824 154.0506 614.5374 151.2833 610.6636 147.4748 610.3589 143.4907 608.8692 142.4576 610.0698 137.4798 608.0677 135.4958 608.7369 134.144 605.5693 131.5909 606.6081 128.4201 605.8879 127.6588 Z" id="fips-35021"/>
<path d="M 184.8526 557.4905 225.3463 557.9137 346.7281 559.1913 347.4198 558.5019 359.9983 558.5887 360.0852 572.5764 363.5103 572.5872 364.1012 615.6012 364.0844 625.5223 291.9225 661.2135 291.8946 668.0296 285.2882 667.9643 242.9285 667.4501 237.6478 667.4127 237.3259 694.7555 196.5595 694.211 182.2874 691.3153 179.6617 690.1868 181.2701 685.2635 181.063 680.3983 182.1144 679.5749 182.7366 675.8094 181.7714 673.5148 182.713 669.3686 182.064 666.9454 180.0373 665.9265 178.4273 662.6575 179.029 659.4711 177.3541 656.2164 175.4381 654.979 174.8221 648.1476 176.4867 646.0603 174.6988 639.4543 168.2561 637.6019 164.8196 631.4919 165.1122 625.4517 165.6381 623.0981 167.6761 621.3195 166.4609 618.4355 166.9685 616.9112 165.6521 610.8551 165.2887 605.9914 167.5157 603.2943 164.6422 602.1514 164.2355 600.5423 146.466 600.0259 147.243 556.6647 151.5317 556.7527 155.2874 557.3799 184.8526 557.4905 Z" id="fips-35051"/>
<path d="M 376.4059 201.9376 380.7741 199.362 381.0559 198.6731 381.7494 198.5008 383.6199 194.3963 386.1801 191.0232 386.308 190.6677 382.1163 190.4231 379.6102 190.513 376.7066 188.8767 376.6985 186.2956 377.0547 174.531 401.3324 174.529 401.3501 165.8924 401.13 165.3408 399.899 165.3465 399.6362 164.5384 399.9862 164.2046 399.1696 163.771 399.1926 163.4396 401.7635 163.368 409.7701 163.3489 412.7263 163.3417 444.1203 163.2172 444.0512 166.9117 443.7351 183.7645 443.5927 191.3419 443.6878 193.0204 443.699 195.6462 443.7393 205.3135 444.4106 217.76 444.2642 233.5776 444.3116 247.5314 444.5052 272.6116 444.822 286.5025 445.0602 313.7572 404.6268 314.0061 383.4296 314.0763 377.1212 314.1105 377.1084 286.5825 376.9914 282.9773 376.5188 272.6866 376.5353 261.2159 376.5575 250.9109 376.5914 241.0879 376.5967 237.241 376.6209 218.0636 376.4059 201.9376 Z" id="fips-35049"/>
<path d="M 196.5595 694.211 237.3259 694.7555 237.3282 696.2494 236.8438 755.0944 236.5498 776.6693 236.7689 782.8097 236.3053 823.4216 236.3013 823.4216 219.5954 823.2446 219.5622 823.2442 190.4433 822.8234 162.8465 822.3971 135.8156 821.9191 114.906 821.5045 114.8009 815.724 113.8533 815.7083 113.9834 808.8733 114.6587 775.1016 112.9352 775.0649 113.3425 755.1355 114.3554 706.6431 137.7481 707.093 154.7183 707.3274 154.9172 693.7066 196.5595 694.211 Z" id="fips-35029"/>
<path d="M 255.092 285.2772 285.2021 285.7262 310.6767 285.9723 315.039 286.0013 319.1905 286.0275 323.377 286.0559 323.7367 286.0584 324.1129 286.0792 326.105 287.7357 325.9856 289.2294 326.4558 288.4193 330.8649 286.169 331.7175 286.1087 332.3744 286.1129 334.8773 286.1086 343.8186 286.1475 349.5592 286.1645 356.8546 286.2717 377.1084 286.5825 377.1212 314.1105 377.1203 327.69 378.2748 327.6852 388.2921 327.6865 389.1878 328.2369 389.178 333.0789 389.1962 340.7392 362.0743 340.6765 355.5007 340.6724 355.5379 337.6193 355.164 337.2277 353.2395 335.4708 320.2773 334.9241 318.0846 338.1519 315.8587 340.2064 315.6327 340.5317 309.9244 340.5113 276.7282 340.2633 276.6544 340.0957 271.4364 326.5429 255.092 285.2772 Z" id="fips-35001"/>
<path d="M 696.1327 635.8022 700.8091 635.6753 702.4505 635.6327 701.7585 604.7601 701.2384 581.331 700.9356 568.2682 706.8134 568.112 706.2572 540.8307 733.7408 540.0568 793.4109 538.3052 793.7282 566.8504 793.7283 566.8538 793.892 576.0888 793.9095 578.3212 793.9812 586.9197 793.9375 587.5652 794.0579 593.3676 794.1976 605.6442 794.3723 621.1308 794.3778 621.6576 794.4457 626.1077 794.4705 627.7358 794.6255 633.2997 794.6525 634.1258 794.9334 643.3782 795.0101 646.614 795.0391 648.3387 795.0948 650.0062 795.0824 650.0749 795.1219 651.3121 795.2454 654.5825 795.2455 654.5913 795.2461 654.7296 795.4396 661.4536 795.4458 661.6087 795.4601 662.5956 795.6873 670.5309 795.7723 673.3391 795.8537 676.1472 795.8817 677.418 796.0761 683.0897 796.1511 686.5169 796.2607 690.067 796.2637 690.2967 796.3234 692.2403 796.6288 702.5412 798.3567 761.5906 798.4645 765.0286 798.6255 770.6621 799 784.207 796.1529 784.3013 795.7784 784.3144 778.9287 784.8009 772.0272 785.0039 772.0179 785.0278 771.6628 785.0375 770.5821 785.0534 764.2129 785.2391 711.584 786.6194 710.3394 731.3981 709.7408 704.867 697.6885 705.1445 696.1327 635.8022 Z" id="fips-35025"/>
<path d="M 230.16 6.0362 284.6489 6.5958 298.1936 6.6985 299.1225 7.913 314.0437 8.0074 323.428 7.9576 325.2159 7.9483 329.2979 7.9818 329.308 7.9797 330.7508 8.0135 330.7465 8.0192 345.3389 7.9554 348.3825 7.9549 365.0482 7.9395 371.2895 8.0042 376.8731 7.9496 376.9945 7.9532 382.7822 7.981 407.1711 7.7832 407.2108 7.7828 407.4178 10.7392 409.5179 16.3731 409.8006 19.5065 411.549 24.8592 411.2274 32.4943 409.9941 36.4776 410.5685 43.4801 410.3013 46.7611 410.8773 50.7445 410.4385 51.9208 411.7325 56.6693 412.058 60.3504 410.0439 60.3489 410.0395 62.5957 411.5356 62.1546 412.6026 69.9463 413.6712 73.5054 414.3999 78.6724 414.1984 82.625 415.3084 85.3386 415.8711 90.7417 413.7418 98.016 414.2079 104.9983 413.2134 108.0902 408.3655 111.3958 403.3078 112.6659 400.7793 117.161 426.2511 127.5413 428.6462 130.6341 438.3731 143.2409 441.6395 147.903 457.2319 155.9127 467.7466 161.4233 466.9139 164.8956 463.0074 167.595 458.3131 167.6456 454.8774 166.7299 453.2358 169.4682 451.3537 170.0472 448.8588 168.5469 445.3131 168.4723 444.0512 166.9117 444.1203 163.2172 412.7263 163.3417 409.7701 163.3489 401.7635 163.368 399.1926 163.4396 399.1696 163.771 399.9862 164.2046 399.6362 164.5384 399.899 165.3465 401.13 165.3408 401.3501 165.8924 401.3324 174.529 377.0547 174.531 377.0655 170.0492 376.7426 168.9554 376.8756 163.4553 359.7764 163.5794 358.6589 163.4345 317.6513 163.561 305.7325 163.5901 298.7261 163.5691 295.9615 163.4945 296.2593 129.406 274.9328 129.2274 249.6098 128.9746 243.2102 129.2056 229.7636 128.5103 202.8124 127.8627 202.9388 114.0444 203.1517 96.4439 203.147 96.3246 203.2294 87.1891 203.406 78.8431 203.5543 71.7456 203.9096 64.0991 204.1093 56.5226 204.6986 49.7441 204.8999 41.7139 204.9674 37.9211 204.9795 37.2882 205.6825 37.0457 206.0444 37.2524 206.6971 36.7786 206.3811 36.2514 207.0898 35.3496 207.6835 35.4608 207.8237 34.6351 207.2288 34.09 207.4009 32.6739 208.0772 31.6131 209.4063 31.6003 211.2115 30.4145 211.7455 29.4472 212.0921 28.4916 213.1517 28.8263 215.3192 28.5255 216.1426 27.6261 216.9927 25.8526 218.1514 24.9886 218.9401 25.3755 220.4074 25.2222 221.9981 23.7677 223.3149 22.3904 224.7126 22.1162 225.479 21.6586 226.2387 20.5745 226.3949 18.7146 225.7868 16.9702 226.3136 14.9773 225.8014 13.448 226.7356 12.0676 227.9874 10.947 228.8749 8.857 229.9812 6.4231 230.16 6.0362 Z" id="fips-35039"/>
<path d="M 418.1648 436.3399 497.5336 435.9324 497.4426 422.27 551.9538 421.7417 552.2352 462.2765 552.5789 503.6466 553.0446 504.836 553.3389 539.6453 553.3773 544.0808 553.6572 570.4338 554.6273 571.1942 554.672 578.3963 554.7857 584.8958 552.3357 584.9136 552.2833 598.2287 552.3911 611.0826 539.1829 611.9414 530.2063 612.0683 525.7841 612.5001 498.4421 612.6602 498.1766 585.448 489.7376 585.5996 444.6621 585.9492 444.451 572.5052 443.5712 572.5036 417.6952 572.6999 363.5103 572.5872 360.0852 572.5764 359.9983 558.5887 359.9516 530.2821 373.7009 530.3029 388.0451 531.9217 401.8198 531.9153 401.813 516.5312 401.8061 504.4415 418.4687 504.4151 418.1648 436.3399 Z" id="fips-35027"/>
<path d="M 700.1955 378.6997 704.3287 378.548 704.0376 364.8474 713.1218 364.7143 731.0945 364.3362 730.7374 350.6772 737.5046 350.5494 744.289 350.3883 743.9765 336.7085 757.5266 336.4034 757.1508 322.4315 788.1439 321.5274 788.412 330.0797 788.6167 337.804 788.8979 346.8928 789.1141 353.9206 789.4729 365.8536 789.5007 368.6891 789.6882 373.9076 790.3731 398.5236 790.3875 398.9757 790.3882 398.9932 790.4081 399.6206 790.6534 407.4836 790.6704 408.2334 790.6838 408.7932 790.7034 409.324 790.7153 409.837 790.7238 410.1132 790.7413 410.6944 790.7406 410.7382 790.7377 410.9126 790.7212 411.3305 790.724 411.5274 790.7242 411.5438 791.0381 422.0072 791.0382 422.0095 791.0918 423.5917 778.209 423.9296 764.1897 424.3004 755.442 424.5349 737.3133 425.0253 735.6432 425.063 701.0666 425.9637 700.1955 378.6997 Z" id="fips-35009"/>
</g>
</svg>