<?xml version="1.0"?>
<svg xmlns="http://www.w3.org/2000/svg" version="1.2" baseProfile="tiny" width="800" height="1193" viewBox="0 0 800 1193" stroke-linecap="round" stroke-linejoin="round">
<g id="cb_2018_us_county_5m">
<path d="M 98.6032 406.6278 71.586 454.0488 61.1027 459.3119 49.088 465.3454 40.4293 467.7172 40.2905 466.3023 42.5933 466.3862 42.7928 462.698 45.2171 462.7859 45.5169 454.1719 47.9956 454.2745 48.0367 451.8061 46.8168 451.7431 46.9046 449.2698 44.7955 444.3114 45.9899 441.8223 48.5879 441.9712 49.1077 434.624 43.739 434.4448 43.7559 433.5813 44.1955 422.7498 45.184 422.171 48.1681 424.2271 53.8383 423.8932 57.3529 418.7427 64.697 415.4018 68.4932 415.7661 73.6217 415.3058 74.4415 412.1821 81.4879 411.3587 87.0661 412.1698 88.7868 410.3587 91.1756 410.6423 99.132 405.7009 98.6032 406.6278 Z" id="fips-32029"/>
<path d="M 1.4004 489.7836 33.25 490.7114 34.3516 493.2093 34.2757 495.6898 60.7359 496.4288 80.903 497.1723 92.2129 497.7796 92.0607 508.6823 91.8791 513.543 87.5465 513.4029 79.8571 514.434 79.5966 519.2952 77.179 519.2088 76.6596 531.5165 74.3323 531.4669 74.131 536.452 76.5086 536.5095 76.3694 541.496 78.656 543.9778 77.9508 556.8178 84.4163 556.5535 85.3874 557.7531 85.2533 571.4464 87.7092 571.5288 87.252 590.8191 86.6052 590.1961 81.8663 585.816 81.1052 585.1964 71.4919 575.8706 71.4934 575.8708 65.9026 570.6392 65.8819 570.6185 54.1503 559.4802 53.941 559.2809 53.8621 559.2122 13.3273 520.6868 1 508.9796 1.2384 497.454 1.4004 489.7836 Z" id="fips-32005"/>
<path d="M 450.9694 177.795 505.8729 177.73 506.2094 234.316 527.0478 325.6608 548.5784 325.4156 548.9533 325.8514 549.5544 327.6066 548.2342 330.2135 548.973 334.3982 549.7728 338.087 549.8252 342.6796 549.1107 346.8157 549.6285 350.0233 550.9693 353.8857 551.2128 358.1612 553.1858 362.1809 552.7732 365.6215 553.0309 368.7792 554.2099 371.8516 553.4672 375.3035 551.7217 378.4479 552.1136 382.861 552.2491 387.1745 551.435 389.9963 549.3928 393.2469 549.9159 398.5685 550.6738 401.6406 550.7876 405.0446 550.5569 409.1028 551.4517 413.2094 551.8742 417.0137 549.8447 420.0425 549.7199 424.1445 548.7352 428.5203 548.2719 430.5257 547.2064 431.9981 546.549 432.515 545.8345 432.9893 545.421 434.0258 545.0097 434.6285 545.0325 436.7515 544.2642 437.6085 542.2218 438.5123 541.5736 439.2684 540.5949 439.4094 540.0501 439.1742 540.1388 445.6146 540.1764 455.122 540.4282 479.4206 540.5151 489.4344 529.2433 489.5173 527.9885 489.6311 449.2055 489.8645 449.7099 487.3563 449.7401 453.9969 450.2604 449.8281 450.5512 335.2819 449.2915 334.9904 449.8115 213.9251 449.6867 186.9461 450.9316 186.8506 450.9694 177.795 Z" id="fips-32011"/>
<path d="M 40.4293 467.7172 49.088 465.3454 61.1027 459.3119 71.586 454.0488 98.6032 406.6278 101.99 402.0322 111.0602 402.0128 110.7932 405.2453 112.2845 401.8877 114.5434 401.4762 121.3952 395.6155 128.3702 387.2953 128.4979 389.0835 125.931 390.2756 125.6539 404.8156 124.0749 404.7692 123.3985 424.7915 119.7976 424.6921 119.1112 446.7839 121.5067 446.9519 121.4858 449.337 123.8922 449.6819 123.8796 451.8617 126.3068 451.9427 126.2391 454.4107 128.6723 454.4826 128.5953 456.9525 131.059 457.0094 130.9777 459.4783 133.4438 459.5211 133.3405 462.2029 135.7026 462.1863 135.6466 464.6706 138.6167 464.7309 138.55 467.2314 141.0016 467.3102 140.935 469.7796 143.3828 469.8144 143.3527 472.2343 145.7784 472.2785 145.7158 474.7904 148.2687 474.8496 148.078 479.8642 151.1087 480.0048 151.0421 481.9901 153.5301 482.0632 153.4945 484.5753 155.8458 484.6514 155.7806 487.2863 158.4922 487.3726 158.418 489.6977 160.7566 489.7885 160.6948 494.7354 165.734 494.924 165.6082 501.2691 142.8155 500.8552 142.3601 501.0123 130.6582 522.6838 130.2883 538.2974 145.1367 538.5368 144.1193 553.2942 142.6574 612.7423 113.5408 612.0765 109.4252 611.8427 99.3269 602.3429 97.2573 600.2822 93.5987 596.9264 87.252 590.8191 87.7092 571.5288 85.2533 571.4464 85.3874 557.7531 84.4163 556.5535 77.9508 556.8178 78.656 543.9778 76.3694 541.496 76.5086 536.5095 74.131 536.452 74.3323 531.4669 76.6596 531.5165 77.179 519.2088 79.5966 519.2952 79.8571 514.434 87.5465 513.4029 91.8791 513.543 92.0607 508.6823 92.2129 497.7796 80.903 497.1723 60.7359 496.4288 59.665 487.6967 58.0003 484.5909 59.979 480.6531 59.958 477.9563 48.4695 477.4294 44.1736 474.8945 40.4293 467.7172 Z" id="fips-32019"/>
<path d="M 544.8885 882.9957 566.0999 882.8402 566.0692 880.944 698.8951 878.8743 698.9547 880.5041 779.9608 878.654 795.5494 878.2641 795.5494 878.2664 796.4063 909.9379 796.6018 915.2376 796.6883 915.8906 797.3979 936.4132 797.7888 940.9012 798.0164 946.0627 798.254 954.8568 798.3066 965.961 798.4408 967.6738 798.3413 972.0596 798.474 975.5695 798.7093 978.6626 798.783 979.5667 799 988.2369 797.1787 989.0864 796.1603 990.59 793.4564 996.8167 792.0616 1000.7083 791.609 1000.9714 790.5434 1001.052 789.2171 1001.9836 788.9177 1002.5038 788.8259 1003.3642 788.9368 1003.6611 789.743 1004.2919 790.2114 1004.9419 790.1689 1005.2423 787.2591 1011.3824 787.1072 1012.4555 787.2739 1013.5317 787.1586 1014.4673 785.846 1016.7526 785.3762 1017.3502 785.0494 1017.478 783.3412 1016.8674 781.921 1016.9205 779.8158 1018.1057 776.9156 1019.095 774.2329 1019.3904 773.476 1019.3643 771.5528 1018.4601 770.0898 1017.5247 769.586 1016.9783 769.0214 1015.8943 767.6675 1014.1256 762.9821 1012.2452 762.7671 1012.0255 762.677 1011.415 762.9238 1010.8138 763.7723 1010.0003 764.0513 1009.3845 763.6519 1008.1131 760.7713 1004.2779 759.5972 1003.8806 755.9699 1000.204 754.6871 998.0547 750.1006 997.4461 749.1564 997.489 748.5353 997.7572 747.1719 999.3932 744.5489 1001.2082 744.2665 1001.1404 743.6103 1000.4246 742.8898 999.1095 742.1641 998.9388 741.2751 999.1115 738.9977 1000.7595 737.7587 1001.0507 736.9261 1000.9098 736.6117 1000.757 736.424 1000.4727 736.3604 999.9292 736.4537 999.4462 736.5132 998.6112 736.5272 998.0659 736.2326 997.6239 735.5366 997.1861 730.8662 997.0749 727.2745 997.2648 723.8592 998.953 722.374 1000.3681 721.2326 1001.0456 720.5146 1000.7176 719.6656 999.2308 719.1323 999.0232 715.3268 1002.1844 714.9383 1002.9068 714.4473 1003.3562 708.5552 1005.1092 707.5245 1005.1404 704.949 1005.7567 703.4772 1007.035 702.5987 1008.1209 702.3388 1008.726 702.3742 1009.6685 702.5721 1010.0307 704.0759 1011.5088 704.4736 1012.3046 705.0874 1013.5326 705.0344 1014.2322 704.5522 1015.105 704.5705 1016.0496 704.546 1016.5021 704.7225 1017.0327 705.428 1017.3878 705.9744 1018.116 706.0846 1018.6477 705.9057 1019.7198 705.0756 1020.6919 704.6494 1021.1909 704.3507 1021.7687 704.2982 1022.3516 704.2977 1025.9842 704.7623 1027.5741 706.2691 1029.826 706.5112 1030.8196 706.1617 1032.9238 706.4175 1033.3426 708.3162 1034.4389 709.4598 1035.5415 709.376 1038.2117 710.5438 1039.9733 715.1799 1044.4469 714.87 1046.0977 713.182 1046.4389 711.044 1047.9146 710.7794 1049.0172 710.7963 1049.8788 711.3006 1051.4777 711.4075 1052.0147 710.3604 1054.7507 709.5221 1055.5139 709.2326 1056.1977 711.1016 1058.8692 710.8277 1062.4499 711.6557 1064.6518 711.5095 1068.4331 710.4809 1072.1989 710.478 1072.7581 711.0801 1073.9482 712.0781 1074.9435 713.599 1075.8937 713.9704 1076.5463 713.7743 1077.7873 712.7443 1080.0963 712.8713 1082.3427 714.5999 1083.9868 717.281 1087.7237 717.9709 1089.1147 717.8915 1091.3524 717.1945 1093.0784 716.3846 1094.2922 716.3204 1094.7767 716.8057 1097.1184 717.0049 1100.1969 717.2742 1101.2412 717.6704 1101.7239 717.7462 1102.061 717.6075 1102.7246 716.9236 1103.7557 715.4685 1104.905 715.0138 1105.6601 714.7826 1107.9515 715.0324 1109.6822 715.7142 1111.0284 716.6651 1113.5235 716.9825 1116.4567 717.3284 1117.3395 718.7777 1119.8614 722.2818 1123.1147 724.5916 1129.9139 725.6298 1132.5111 726.8876 1137.2841 726.7677 1142.0758 728.3238 1147.8964 728.9646 1151.9944 728.9309 1153.3768 729.4997 1156.7996 730.2234 1157.4169 730.6183 1158.3066 731.0773 1161.1934 731.1027 1164.6515 730.7468 1168.7785 729.9801 1170.4846 728.719 1171.3631 727.1494 1171.8518 724.2638 1171.8173 722.8837 1172.4165 720.9248 1174.5533 720.6043 1175.2429 721.1675 1176.1396 724.0131 1177.3977 725.3348 1178.3175 726.5285 1179.6906 726.8036 1180.7412 726.7199 1181.4815 726.311 1182.3853 723.5225 1184.8542 722.8099 1186.0777 722.2209 1187.6512 722.0902 1188.9763 722.3171 1190.9602 722.7833 1192.1265 698.6312 1169.3 698.521 1169.2015 681.5463 1153.1488 681.5325 1153.1465 679.1765 1150.9993 664.8801 1137.3682 657.2656 1130.2205 656.5815 1129.4901 653.3639 1126.5684 650.5573 1123.8638 650.4213 1123.7847 648.5588 1122.0423 648.4849 1122.0123 632.9692 1107.2904 628.4365 1103.0302 619.6198 1094.7499 616.1691 1091.5047 615.8252 1091.1582 614.3537 1089.7787 614.1389 1089.6109 613.1837 1088.545 600.9247 1077.1158 583.5279 1060.6101 583.3117 1060.302 580.5587 1057.7654 580.4919 1057.7046 580.445 1057.6591 577.5294 1054.8293 574.7118 1052.2346 566.1748 1044.3083 552.9941 1031.7336 552.8073 1004.9893 552.7474 996.734 545.8969 996.5425 544.8885 882.9957 Z" id="fips-32003"/>
<path d="M 2.4419 455.2148 2.6105 452.8374 2.9298 445.3049 3.5484 433.4161 3.549 433.4044 4.3267 417.5128 5.5555 386.3816 5.6527 384.3861 6.0307 376.6276 6.0223 376.4875 6.5892 364.5137 7.5374 346.6997 8.3242 327.148 8.3744 326.2256 8.4592 323.7924 8.6978 317.8961 9.6989 294.8208 9.7059 294.6392 10.083 284.8516 10.0868 284.7519 11.2717 254.5587 12.5058 217.0631 12.5732 212.1574 13.2362 192.4867 13.2463 192.223 13.2672 191.265 15.2469 138.5619 17.3881 85.0172 18.3291 64.8777 18.297 63.8365 19.2016 42.6576 19.9115 21.4732 20.7262 1.2025 20.7278 1.1524 22.2826 1 34.9317 1.2284 36.7168 1.2923 39.666 1.4315 47.0753 1.6498 55.1729 2.1433 90.5815 3.4465 101.2116 3.96 101.2186 3.9603 105.7459 4.1272 104.9295 27.3931 103.2275 72.5245 102.6812 102.3829 105.1385 102.4265 104.0536 132.9658 100.8241 132.7714 99.5353 179.3593 102.1204 179.4394 99.3754 254.3973 96.0906 254.3852 93.282 342.4489 108.1074 342.7548 107.4862 359.7045 109.764 359.7684 109.3346 374.9506 111.781 375.016 111.6817 378.7099 114.1325 378.7681 113.6445 397.0633 111.2063 396.9895 111.0602 402.0128 101.99 402.0322 98.6032 406.6278 99.132 405.7009 91.1756 410.6423 88.7868 410.3587 87.0661 412.1698 81.4879 411.3587 74.4415 412.1821 73.6217 415.3058 68.4932 415.7661 64.697 415.4018 57.3529 418.7427 53.8383 423.8932 48.1681 424.2271 45.184 422.171 44.1955 422.7498 43.7559 433.5813 43.739 434.4448 49.1077 434.624 48.5879 441.9712 45.9899 441.8223 44.7955 444.3114 46.9046 449.2698 46.8168 451.7431 48.0367 451.8061 47.9956 454.2745 45.5169 454.1719 45.2171 462.7859 42.7928 462.698 42.5933 466.3862 40.2905 466.3023 40.4293 467.7172 35.2142 468.6387 35.1192 471.0967 32.6635 471.0213 32.5777 473.4888 28.1734 474.4933 25.1998 474.4679 20.3652 478.0905 20.3316 480.5504 17.8427 481.4183 1.5907 480.8042 1.8057 470.6878 1.8281 470.102 2.2078 461.6423 2.3045 459.4888 2.4092 455.7414 2.4126 455.6561 2.4407 455.2322 2.4419 455.2148 Z" id="fips-32031"/>
<path d="M 108.1074 342.7548 202.1893 345.2159 326.8713 346.7555 327.1531 347.2197 328.1415 348.4518 328.9107 349.5458 329.646 351.4031 331.1084 352.1474 331.4367 354.4419 332.4288 355.4191 333.5405 356.1597 334.7167 356.9685 335.277 358.2468 335.8249 359.474 336.195 360.2412 336.1073 361.2418 336.2764 362.6181 336.4861 363.8421 336.7851 365.2536 337.0769 366.088 336.974 367.326 337.0407 368.5316 336.6758 369.9198 336.5084 371.2368 335.9881 372.3573 335.6492 373.7288 334.2392 375.3447 333.5779 376.6755 333.7355 377.9292 334.1132 378.9247 333.3603 379.9358 333.4528 382.4826 333.5179 383.8247 333.0913 384.7215 332.5853 385.7195 332.4811 387.0444 332.4709 388.0978 332.5513 389.2374 332.9117 389.8017 333.7009 390.642 334.2746 390.7833 334.7132 391.3822 334.9669 392.2005 334.5652 393.2166 334.11 394.3339 333.4582 395.5006 333.8036 396.3027 333.5179 397.4728 334.0843 398.4297 334.7011 399.5743 335.7636 400.6379 336.1628 401.3044 335.8793 402.2536 335.442 402.8445 335.3276 403.8803 334.5316 405.0457 334.571 406.1269 333.9675 406.871 333.5837 407.4924 334.2808 408.0743 334.7969 408.5193 335.8047 409.2564 336.412 409.7022 336.5258 410.7006 336.3691 411.4089 335.5766 412.5332 334.8371 413.5736 334.5546 414.3679 334.2714 415.332 334.4362 415.979 334.5455 417.2676 334.4062 418.5894 334.0138 419.6573 334.0206 420.8 334.0422 421.4572 333.7156 422.7608 333.4961 423.811 332.7825 424.517 332.4175 425.7185 331.9534 426.325 331.2445 426.6041 329.623 425.816 328.3669 425.9231 327.7015 426.413 326.9059 427.0725 325.2528 427.412 323.3796 427.5284 322.1913 428.4663 321.0146 428.3181 320.279 428.5479 319.8809 429.0358 319.8743 429.6468 319.9442 430.4451 319.8425 431.3776 319.066 431.8614 318.2704 432.3825 318.1557 432.8247 317.6616 433.2837 317.1473 433.2462 316.2599 433.7322 315.7076 435.2019 314.889 435.788 314.068 435.6158 313.305 436.445 312.34 436.651 311.2995 437.1323 310.9801 437.5048 310.9601 438.1176 311.1414 438.4368 311.952 438.5936 312.7543 438.9817 313.3571 439.9058 313.0471 441.012 312.9532 442.0631 312.6441 443.3499 311.4922 444.0675 310.3361 444.2991 309.0425 444.5298 308.2491 445.1355 308.1906 446.1912 307.3818 446.9116 307.3013 447.7315 307.0133 448.5781 306.5537 449.4261 305.997 450.3764 305.3423 450.9993 304.1477 451.1742 303.0821 451.4539 301.4596 451.8065 299.5058 451.3696 299.122 451.1048 298.4504 451.5236 298.0946 452.2027 297.1788 453.7343 296.7976 456.114 297.1094 457.2025 297.0111 458.901 297.5739 460.3307 298.058 461.8461 298.5685 463.9423 299.2764 465.4268 299.2814 466.8299 300.4925 468.6096 300.7534 470.6533 301.3773 472.0079 302.3405 474.0747 302.472 475.8663 302.0122 477.9079 301.8266 479.2455 300.9594 480.3188 300.0881 480.8048 299.0373 482.5718 297.8325 484.6444 296.3159 485.0116 294.2675 486.6722 292.9895 487.5619 292.5999 489.3939 293.0803 490.1708 292.5258 490.9676 291.9787 491.599 291.2672 491.6576 291.1707 492.6834 292.0821 493.0725 292.2641 494.6329 291.9935 495.6274 291.562 496.1357 291.2475 496.8284 291.756 497.4797 292.1329 497.8202 292.6583 497.89 293.159 498.1093 293.6197 498.3639 293.9942 498.8194 294.1268 499.1305 294.3573 500.081 294.5037 500.4313 282.6513 503.6291 165.6082 501.2691 165.734 494.924 160.6948 494.7354 160.7566 489.7885 158.418 489.6977 158.4922 487.3726 155.7806 487.2863 155.8458 484.6514 153.4945 484.5753 153.5301 482.0632 151.0421 481.9901 151.1087 480.0048 148.078 479.8642 148.2687 474.8496 145.7158 474.7904 145.7784 472.2785 143.3527 472.2343 143.3828 469.8144 140.935 469.7796 141.0016 467.3102 138.55 467.2314 138.6167 464.7309 135.6466 464.6706 135.7026 462.1863 133.3405 462.2029 133.4438 459.5211 130.9777 459.4783 131.059 457.0094 128.5953 456.9525 128.6723 454.4826 126.2391 454.4107 126.3068 451.9427 123.8796 451.8617 123.8922 449.6819 121.4858 449.337 121.5067 446.9519 119.1112 446.7839 119.7976 424.6921 123.3985 424.7915 124.0749 404.7692 125.6539 404.8156 125.931 390.2756 128.4979 389.0835 128.3702 387.2953 121.3952 395.6155 114.5434 401.4762 112.2845 401.8877 110.7932 405.2453 111.0602 402.0128 111.2063 396.9895 113.6445 397.0633 114.1325 378.7681 111.6817 378.7099 111.781 375.016 109.3346 374.9506 109.764 359.7684 107.4862 359.7045 108.1074 342.7548 Z" id="fips-32001"/>
<path d="M 105.7459 4.1272 114.961 4.4613 117.3769 4.469 120.3449 4.7301 146.4671 5.3454 172.3511 6.2368 174.6696 6.2455 174.841 6.246 184.8538 6.6334 196.7882 6.5457 209.5022 6.5551 247.789 7.0272 247.8118 7.0275 288.6351 7.4417 319.8453 7.873 320.1288 7.8143 342.9159 7.8436 347.8905 7.9507 371.3575 8.03 373.8494 7.9628 390.1422 8.1146 391.8083 8.1474 393.6366 8.1562 395.4918 8.1648 396.4882 8.2595 396.4989 8.2615 396.0948 92.9527 395.6816 177.7048 395.3711 238.3116 365.9931 238.2435 358.9102 257.928 359.1892 232.4555 314.876 230.6645 315.2444 201.2323 213.3494 199.9857 168.634 198.9578 169.0801 181.1625 102.1204 179.4394 99.5353 179.3593 100.8241 132.7714 104.0536 132.9658 105.1385 102.4265 102.6812 102.3829 103.2275 72.5245 104.9295 27.3931 105.7459 4.1272 Z" id="fips-32013"/>
<path d="M 661.2013 570.1224 771.9034 567.5831 772.7394 567.6108 787.1173 567.203 787.5765 584.9131 787.5767 584.9224 787.7345 589.1887 787.7571 589.8638 787.8781 597.3014 788.3804 613.4631 788.3772 613.4865 789.1296 637.2042 789.1029 639.7072 789.6096 656.8717 789.6104 656.8992 790.2372 682.1128 790.8934 702.224 790.9918 707.1197 791.1599 712.0139 791.3854 714.3471 791.3978 721.8614 791.2816 723.4448 791.2497 725.0272 791.2375 725.1479 791.2463 725.1904 791.6778 743.7931 791.8016 749.1424 791.7913 751.178 792.1745 763.8823 792.1733 763.9833 792.2459 766.4845 792.2923 768.2649 792.3946 771.6137 792.6059 778.5353 792.7595 780.7975 792.9559 788.8267 792.9572 788.8733 793.3283 801.9134 793.3307 801.9989 793.3464 803.4463 793.3495 803.5587 793.656 812.0328 793.9021 822.4582 793.9495 826.7423 794.0504 828.9142 794.0595 834.06 794.2549 836.2574 794.2764 836.6881 794.8346 851.6081 795.1113 858.8317 795.5494 878.2641 779.9608 878.654 698.9547 880.5041 698.8951 878.8743 566.0692 880.944 566.0999 882.8402 544.8885 882.9957 545.1982 879.6642 544.6179 809.5445 543.7354 678.0125 663.0607 676.4325 661.2013 570.1224 Z" id="fips-32017"/>
<path d="M 109.4252 611.8427 113.5408 612.0765 142.6574 612.7423 144.1193 553.2942 145.1367 538.5368 130.2883 538.2974 130.6582 522.6838 142.3601 501.0123 142.8155 500.8552 165.6082 501.2691 282.6513 503.6291 238.8132 515.4572 238.5802 529.1801 304.3885 605.7212 230.7964 685.0435 228.5376 687.8654 214.8124 702.7733 206.3063 702.576 205.9243 702.1241 204.6041 702.1444 194.9922 692.9891 185.6767 684.1508 179.1688 678.1598 167.0415 666.3777 162.821 662.419 159.5164 659.4645 148.141 648.5047 139.8787 640.6393 136.3437 637.3197 129.6655 631.249 125.8881 627.4979 119.097 621.1885 117.1817 619.1692 113.4442 615.6168 109.4252 611.8427 Z" id="fips-32021"/>
<path d="M 326.8713 346.7555 358.9102 257.928 365.9931 238.2435 395.3711 238.3116 395.6816 177.7048 450.9694 177.795 450.9316 186.8506 449.6867 186.9461 449.8115 213.9251 449.2915 334.9904 450.5512 335.2819 450.2604 449.8281 449.7401 453.9969 449.7099 487.3563 449.2055 489.8645 419.449 489.7278 353.0242 489.1569 294.5037 500.4313 294.3573 500.081 294.1268 499.1305 293.9942 498.8194 293.6197 498.3639 293.159 498.1093 292.6583 497.89 292.1329 497.8202 291.756 497.4797 291.2475 496.8284 291.562 496.1357 291.9935 495.6274 292.2641 494.6329 292.0821 493.0725 291.1707 492.6834 291.2672 491.6576 291.9787 491.599 292.5258 490.9676 293.0803 490.1708 292.5999 489.3939 292.9895 487.5619 294.2675 486.6722 296.3159 485.0116 297.8325 484.6444 299.0373 482.5718 300.0881 480.8048 300.9594 480.3188 301.8266 479.2455 302.0122 477.9079 302.472 475.8663 302.3405 474.0747 301.3773 472.0079 300.7534 470.6533 300.4925 468.6096 299.2814 466.8299 299.2764 465.4268 298.5685 463.9423 298.058 461.8461 297.5739 460.3307 297.0111 458.901 297.1094 457.2025 296.7976 456.114 297.1788 453.7343 298.0946 452.2027 298.4504 451.5236 299.122 451.1048 299.5058 451.3696 301.4596 451.8065 303.0821 451.4539 304.1477 451.1742 305.3423 450.9993 305.997 450.3764 306.5537 449.4261 307.0133 448.5781 307.3013 447.7315 307.3818 446.9116 308.1906 446.1912 308.2491 445.1355 309.0425 444.5298 310.3361 444.2991 311.4922 444.0675 312.6441 443.3499 312.9532 442.0631 313.0471 441.012 313.3571 439.9058 312.7543 438.9817 311.952 438.5936 311.1414 438.4368 310.9601 438.1176 310.9801 437.5048 311.2995 437.1323 312.34 436.651 313.305 436.445 314.068 435.6158 314.889 435.788 315.7076 435.2019 316.2599 433.7322 317.1473 433.2462 317.6616 433.2837 318.1557 432.8247 318.2704 432.3825 319.066 431.8614 319.8425 431.3776 319.9442 430.4451 319.8743 429.6468 319.8809 429.0358 320.279 428.5479 321.0146 428.3181 322.1913 428.4663 323.3796 427.5284 325.2528 427.412 326.9059 427.0725 327.7015 426.413 328.3669 425.9231 329.623 425.816 331.2445 426.6041 331.9534 426.325 332.4175 425.7185 332.7825 424.517 333.4961 423.811 333.7156 422.7608 334.0422 421.4572 334.0206 420.8 334.0138 419.6573 334.4062 418.5894 334.5455 417.2676 334.4362 415.979 334.2714 415.332 334.5546 414.3679 334.8371 413.5736 335.5766 412.5332 336.3691 411.4089 336.5258 410.7006 336.412 409.7022 335.8047 409.2564 334.7969 408.5193 334.2808 408.0743 333.5837 407.4924 333.9675 406.871 334.571 406.1269 334.5316 405.0457 335.3276 403.8803 335.442 402.8445 335.8793 402.2536 336.1628 401.3044 335.7636 400.6379 334.7011 399.5743 334.0843 398.4297 333.5179 397.4728 333.8036 396.3027 333.4582 395.5006 334.11 394.3339 334.5652 393.2166 334.9669 392.2005 334.7132 391.3822 334.2746 390.7833 333.7009 390.642 332.9117 389.8017 332.5513 389.2374 332.4709 388.0978 332.4811 387.0444 332.5853 385.7195 333.0913 384.7215 333.5179 383.8247 333.4528 382.4826 333.3603 379.9358 334.1132 378.9247 333.7355 377.9292 333.5779 376.6755 334.2392 375.3447 335.6492 373.7288 335.9881 372.3573 336.5084 371.2368 336.6758 369.9198 337.0407 368.5316 336.974 367.326 337.0769 366.088 336.7851 365.2536 336.4861 363.8421 336.2764 362.6181 336.1073 361.2418 336.195 360.2412 335.8249 359.474 335.277 358.2468 334.7167 356.9685 333.5405 356.1597 332.4288 355.4191 331.4367 354.4419 331.1084 352.1474 329.646 351.4031 328.9107 349.5458 328.1415 348.4518 327.1531 347.2197 326.8713 346.7555 Z" id="fips-32015"/>
<path d="M 102.1204 179.4394 169.0801 181.1625 168.634 198.9578 213.3494 199.9857 315.2444 201.2323 314.876 230.6645 359.1892 232.4555 358.9102 257.928 326.8713 346.7555 202.1893 345.2159 108.1074 342.7548 93.282 342.4489 96.0906 254.3852 99.3754 254.3973 102.1204 179.4394 Z" id="fips-32027"/>
<path d="M 282.6513 503.6291 294.5037 500.4313 353.0242 489.1569 419.449 489.7278 449.2055 489.8645 527.9885 489.6311 529.2433 489.5173 540.5151 489.4344 581.018 516.5303 582.2107 517.1642 661.2013 570.1224 663.0607 676.4325 543.7354 678.0125 544.6179 809.5445 545.1982 879.6642 544.8885 882.9957 545.8969 996.5425 552.7474 996.734 552.8073 1004.9893 552.9941 1031.7336 552.0358 1030.8179 546.4945 1025.7282 543.7458 1023.1418 518.8067 999.5115 518.309 999.0837 497.1786 979.0816 480.0347 962.9385 479.4236 962.5344 464.661 948.3016 462.9325 946.757 457.3186 941.3843 394.9456 882.3204 386.0436 874.0279 377.2333 865.5998 372.6432 861.2574 373.1056 793.8222 373.8178 688.8082 373.7184 686.4599 366.9757 678.5773 363.6834 678.1779 363.7265 674.8208 304.3885 605.7212 238.5802 529.1801 238.8132 515.4572 282.6513 503.6291 Z" id="fips-32023"/>
<path d="M 396.4989 8.2615 397.6273 8.4732 402.6855 8.3476 445.8706 8.6454 445.9744 8.7083 450.8949 8.7093 451.4902 8.6305 458.6669 8.6724 460.5423 8.7487 461.641 8.707 461.8888 8.8074 463.6489 8.7845 463.9931 8.7799 466.4611 8.8334 478.4504 8.8521 482.9547 8.669 504.2495 8.5365 504.6403 8.5425 520.0571 8.4627 520.0612 8.4707 521.0471 8.4667 521.0466 8.4694 522.5342 8.3955 522.5361 8.4022 523.384 8.3413 523.3849 8.3435 526.5793 8.2372 539.1 8.2257 540.1112 8.2441 541.3003 8.4251 572.1061 8.0196 577.0338 8.0546 611.46 7.7434 618.967 7.5281 619.4146 7.6171 646.2276 7.2052 647.0313 7.1919 661.8452 6.2612 663.7334 6.2255 666.6701 5.9303 672.3148 5.6697 675.429 5.673 686.2419 6.0604 701.6924 6.3569 714.2987 6.0536 714.3006 6.0473 718.162 5.811 741.577 5.4472 741.584 5.447 763.5608 4.9004 763.5828 4.9225 769.3155 4.7436 769.3149 4.7677 771.0181 4.7166 771.02 4.7323 771.842 4.7091 772.6586 23.1581 772.6486 28.967 772.6428 28.9634 773.2929 45.3681 773.938 67.2112 773.9269 68.8306 774.4467 88.4048 774.5786 89.7976 775.799 135.8727 775.6968 137.4088 775.8538 137.9425 776.8058 173.1861 776.8059 173.1911 777.8117 211.8988 777.7932 214.016 777.7923 214.1075 777.9951 219.597 778.8553 256.8677 778.8704 258.6981 778.8846 258.923 779.2403 269.8101 779.1887 270.7383 779.274 275.2363 780.096 303.4524 780.5919 322.9684 669.6627 324.723 594.2362 325.069 591.9276 324.951 548.5784 325.4156 527.0478 325.6608 506.2094 234.316 505.8729 177.73 450.9694 177.795 395.6816 177.7048 396.0948 92.9527 396.4989 8.2615 Z" id="fips-32007"/>
<path d="M 1.5907 480.8042 17.8427 481.4183 20.3316 480.5504 20.3652 478.0905 25.1998 474.4679 28.1734 474.4933 32.5777 473.4888 32.6635 471.0213 35.1192 471.0967 35.2142 468.6387 40.4293 467.7172 44.1736 474.8945 48.4695 477.4294 59.958 477.9563 59.979 480.6531 58.0003 484.5909 59.665 487.6967 60.7359 496.4288 34.2757 495.6898 34.3516 493.2093 33.25 490.7114 1.4004 489.7836 1.5907 480.8042 Z" id="fips-32510"/>
<path d="M 304.3885 605.7212 363.7265 674.8208 363.6834 678.1779 366.9757 678.5773 373.7184 686.4599 373.8178 688.8082 373.1056 793.8222 372.6432 861.2574 362.0091 851.179 359.1635 848.6716 344.3937 834.6607 327.7352 818.6443 327.628 818.6599 322.275 813.5773 316.85 808.6006 303.599 795.8207 299.3589 792.1174 283.3248 776.6447 277.5799 771.0798 273.7597 767.8756 264.3151 758.6678 255.8165 750.7404 255.8234 750.7358 254.1831 749.0713 227.9005 724.2443 204.6041 702.1444 205.9243 702.1241 206.3063 702.576 214.8124 702.7733 228.5376 687.8654 230.7964 685.0435 304.3885 605.7212 Z" id="fips-32009"/>
<path d="M 548.5784 325.4156 591.9276 324.951 594.2362 325.069 669.6627 324.723 780.5919 322.9684 780.6466 325.1237 780.7236 326.1971 780.9971 337.6944 781.196 343.3308 781.5642 358.7368 781.5645 358.7471 781.9684 373.1696 782.0251 377.7291 782.2606 383.622 783.2524 420.3821 783.5444 427.6407 785.6567 511.5309 786.401 533.0414 786.3512 533.4666 786.2326 533.6819 786.8671 554.8865 786.8889 558.4073 787.1173 567.203 772.7394 567.6108 771.9034 567.5831 661.2013 570.1224 582.2107 517.1642 581.018 516.5303 540.5151 489.4344 540.4282 479.4206 540.1764 455.122 540.1388 445.6146 540.0501 439.1742 540.5949 439.4094 541.5736 439.2684 542.2218 438.5123 544.2642 437.6085 545.0325 436.7515 545.0097 434.6285 545.421 434.0258 545.8345 432.9893 546.549 432.515 547.2064 431.9981 548.2719 430.5257 548.7352 428.5203 549.7199 424.1445 549.8447 420.0425 551.8742 417.0137 551.4517 413.2094 550.5569 409.1028 550.7876 405.0446 550.6738 401.6406 549.9159 398.5685 549.3928 393.2469 551.435 389.9963 552.2491 387.1745 552.1136 382.861 551.7217 378.4479 553.4672 375.3035 554.2099 371.8516 553.0309 368.7792 552.7732 365.6215 553.1858 362.1809 551.2128 358.1612 550.9693 353.8857 549.6285 350.0233 549.1107 346.8157 549.8252 342.6796 549.7728 338.087 548.973 334.3982 548.2342 330.2135 549.5544 327.6066 548.9533 325.8514 548.5784 325.4156 Z" id="fips-32033"/>
</g>
</svg>