<?xml version="1.0"?>
<svg xmlns="http://www.w3.org/2000/svg" version="1.2" baseProfile="tiny" width="800" height="613" viewBox="0 0 800 613" stroke-linecap="round" stroke-linejoin="round">
<g id="cb_2018_us_county_5m">
<path d="M 558.9933 310.5896 566.2858 309.2138 583.3521 305.9954 586.0171 305.5734 595.4129 303.8477 595.6248 303.2902 598.4987 301.4314 599.6263 302.2578 602.6757 297.6533 604.0876 297.4599 604.423 300.0724 605.3557 301.0239 607.4325 303.4891 608.7457 302.4058 608.1033 304.6623 608.027 305.9696 606.339 312.3196 606.3365 312.9537 606.0737 314.5127 604.4709 317.4115 604.3102 317.7797 602.6901 319.9494 601.0412 325.4145 601.0251 325.4673 601.9161 331.8234 600.8953 337.9829 599.9954 339.5903 598.8271 342.6093 599.0752 345.707 584.239 348.6355 552.3416 354.1484 551.4304 354.3087 551.2645 352.5916 553.1895 345.7551 554.7257 342.4739 554.9407 338.1464 554.0425 336.6166 553.3031 334.8783 554.0025 331.5066 557.9311 325.5936 560.1818 319.0164 560.5688 312.2877 558.9933 310.5896 Z" id="fips-36001"/>
<path d="M 433.1007 110.9116 436.2779 112.8296 451.0428 121.8655 459.8889 127.1122 466.0888 192.1124 454.8706 199.3284 438.5434 209.7093 424.7274 218.6381 402.8995 211.7896 401.9073 190.9043 401.1657 182.2873 400.0049 168.8606 393.7903 168.3627 394.7991 155.9335 402.8166 156.6537 417.8526 144.1711 420.4267 144.9926 423.7581 144.6512 423.0656 139.2022 427.7425 139.0102 427.7205 135.4035 428.5605 133.9769 427.6476 133.3816 429.4108 130.2856 423.4566 126.4028 424.6548 124.4409 433.1007 110.9116 Z" id="fips-36049"/>
<path d="M 283.5638 272.4401 308.2704 271.3362 305.6207 280.6935 306.093 288.8323 307.2572 292.1787 307.6037 296.3353 305.2489 302.9756 305.4358 307.7727 306.2108 313.3211 310.4652 319.1318 312.248 325.4772 314.3033 329.79 316.9535 333.2058 320.1335 335.5044 309.1224 335.7889 289.3271 336.2159 289.5569 331.1885 289.4292 319.7284 285.744 312.6517 284.6899 308.0283 284.653 306.0445 282.278 306.034 281.6542 304.8062 282.227 296.645 281.5666 293.4855 281.8031 291.8679 283.3114 291.3696 283.5638 272.4401 Z" id="fips-36099"/>
<path d="M 268.1441 343.6624 279.8794 343.7232 279.9726 346.639 282.3472 347.2252 289.7415 346.8198 288.7064 342.6506 289.3271 336.2159 309.1224 335.7889 309.9118 358.9804 309.4273 359.2295 309.1876 371.2311 316.3862 371.518 316.3078 376.1332 314.0124 378.1226 313.4342 377.5249 309.6812 377.5433 309.6875 376.0948 305.0006 376.0707 304.9596 369.904 294.0763 369.745 281.8959 370.4085 281.8498 371.6156 270.8818 371.8376 268.3904 372.2147 268.1441 343.6624 Z" id="fips-36097"/>
<path d="M 148.7411 335.6074 175.2685 336.454 175.6406 336.3906 175.116 336.7884 183.9113 337.0525 195.2708 337.4442 195.1626 343.2753 206.8209 344.032 205.7899 353.0918 204.7978 369.5985 204.0234 381.6416 202.5258 407.7251 195.2188 407.5666 194.2932 407.5451 177.7037 407.0562 174.3522 406.8742 174.3309 406.8705 164.9569 406.4538 156.7467 406.315 150.2691 406.1998 146.5702 406.021 148.7411 335.6074 Z" id="fips-36003"/>
<path d="M 137.0838 220.3916 146.4477 219.9936 147.5647 220.3704 158.1457 221.1329 159.8079 221.4278 168.5034 220.8261 172.4929 220.9301 180.3895 222.3846 183.1321 222.6364 182.8101 233.4774 182.6101 237.55 182.4385 242.3061 182.0652 253.9844 151.2264 253.2742 135.9601 253.1289 136.8653 241.325 136.6754 229.6258 137.0838 220.3916 Z" id="fips-36073"/>
<path d="M 568.3473 4.5166 570.3037 16.9294 570.7201 21.1504 570.7429 25.9069 573.0318 43.297 574.969 43.0781 577.2779 61.1543 578.5214 60.9506 581.1637 80.6741 558.8825 84.1182 560.9544 97.4996 564.1709 120.4285 545.9596 123.037 521.4521 126.2588 520.4264 116.7997 522.245 116.6118 511.7918 29.7447 509.7606 11.2173 502.2665 11.2462 501.6402 5.6053 501.9844 5.1701 503.9389 4.4398 505.6669 4.9113 506.1957 4.8574 506.708 4.731 507.2518 4.6298 507.8144 4.901 518.551 4.895 527.2874 5.0064 538.9768 5.5316 548.6223 5.3484 556.9593 5.2966 568.3473 4.5166 Z" id="fips-36033"/>
<path d="M 550.618 301.7392 551.2656 299.654 568.0509 287.8957 568.0302 286.8758 567.1041 279.9455 570.817 280.2283 575.7871 282.8086 580.8425 287.597 585.8544 285.6264 586.8532 293.7207 588.2556 293.7193 588.8856 295.9484 594.3532 303.1268 595.6248 303.2902 595.4129 303.8477 586.0171 305.5734 583.3521 305.9954 566.2858 309.2138 558.9933 310.5896 558.64 312.9559 553.1108 312.1794 549.9027 312.8589 546.558 308.4378 548.3567 307.1557 551.1497 307.051 552.1544 303.3303 550.618 301.7392 Z" id="fips-36093"/>
<path d="M 505.4176 236.2239 523.005 243.8557 543.4631 241.7467 543.9121 245.3791 553.8794 244.3149 553.4943 240.7074 561.7458 239.7836 563.5378 253.2667 566.5957 276.2996 527.9445 276.6033 522.6583 276.6156 501.0931 268.5007 500.7121 267.0815 499.6802 263.6603 501.0893 258.7603 504.1063 257.954 503.515 255.4052 505.9712 254.6947 505.0593 252.6204 507.2145 251.3228 505.4176 236.2239 Z" id="fips-36035"/>
<path d="M 568.6943 173.4225 628.8208 164.1105 625.7 168.5123 626.7834 168.8668 626.9107 172.6509 625.8623 177.253 624.7189 179.2773 623.9347 184.2918 621.9692 186.7386 620.7514 186.9571 614.8933 196.1071 612.5454 197.0243 613.181 198.3834 610.4642 205.9443 611.2536 207.3913 613.4677 221.2086 615.1643 231.6449 610.4767 232.0179 609.7468 234.0066 607.7111 233.5697 607.3542 234.6693 608.7775 236.2843 606.8591 237.0711 606.4045 235.2581 604.3854 235.565 601.2855 237.1971 600.723 240.538 598.8516 242.919 598.3143 243.3428 596.2183 240.4059 594.8675 239.6381 591.9057 239.8381 591.6515 237.6108 592.5548 236.2073 592.4956 232.2571 591.4029 232.1095 589.1686 228.9542 589.7077 227.9397 587.4636 224.2895 587.8742 223.2816 586.5751 219.8617 559.5115 223.9484 553.3605 175.8234 568.6943 173.4225 Z" id="fips-36113"/>
<path d="M 582.2916 499.9104 584.2709 496.6532 585.5669 490.3877 584.3535 489.6451 581.994 484.4983 586.6932 477.7413 610.9961 473.9905 612.9469 473.6147 615.5277 473.0704 622.3573 471.8066 627.377 471.5858 627.1358 478.0051 627.1295 478.1031 627.1228 478.2259 627.1144 478.3812 627.1161 478.451 627.1076 478.5187 627.0538 480.1939 627.0263 481.0502 627.0221 481.2461 627.0207 481.31 627.0175 481.6038 627.0149 481.8373 626.9565 483.2209 626.9227 483.9243 626.9084 484.1926 626.6442 487.9674 626.5104 491.9183 626.5098 491.9361 626.4106 493.322 614.7842 495.1199 602.6508 497.0925 600.8881 497.3794 594.3646 498.3781 591.1865 498.8982 582.1775 500.3176 582.2916 499.9104 Z" id="fips-36079"/>
<path d="M 533.5817 361.6085 539.9749 358.9725 543.2982 361.3788 550.209 360.2392 551.9168 358.0831 553.3662 358.3243 552.3416 354.1484 584.239 348.6355 599.0752 345.707 599.8248 346.0158 599.9613 350.3189 598.2746 357.7628 599.6073 364.5017 599.6208 369.4458 597.7557 374.1717 594.5706 375.8021 593.3436 377.4121 592.7072 382.6825 589.0656 385.9818 587.3367 391.4504 586.5636 391.2467 578.0252 384.9211 577.9456 386.7626 574.0463 385.8875 570.9824 395.9081 551.2397 394.2118 547.6328 393.9005 533.0999 386.7009 524.4819 382.4663 535.1199 362.3896 533.5817 361.6085 Z" id="fips-36039"/>
<path d="M 351.3353 305.9269 359.1411 305.5173 388.8665 303.4843 389.454 312.5487 390.9217 337.0089 391.8827 354.1607 376.2174 354.9561 372.5811 354.5849 365.3481 354.7587 353.0665 355.0456 352.0781 325.8712 352.0774 325.6202 351.3353 305.9269 Z" id="fips-36023"/>
<path d="M 545.9596 123.037 564.1709 120.4285 560.9544 97.4996 558.8825 84.1182 581.1637 80.6741 601.2525 78.1037 604.2943 78.6037 608.1151 76.2153 609.4243 76.7307 613.6531 75.1468 615.1683 72.7858 617.8511 71.9805 620.7748 72.1709 621.5251 70.3256 624.161 67.5342 623.747 65.1297 635.7539 63.5793 635.6983 63.9003 635.732 64.0581 636.4711 65.0343 636.5448 65.2558 636.5863 65.6914 636.7018 65.9355 636.7955 66.0309 637.2408 66.2022 637.4313 66.4443 637.5304 67.1118 637.5397 67.1747 637.5232 67.6346 637.5896 68.014 637.747 68.2353 638.3799 68.8547 638.9991 69.7711 639.2017 70.8626 639.2746 71.7341 639.7453 72.9482 639.8567 73.6672 639.9051 74.6579 639.8064 75.909 640.3116 77.087 640.4862 77.8012 640.4767 78.1244 640.4743 78.207 640.2997 79.4563 639.0036 82.9668 638.8475 84.0365 638.6204 84.8794 638.4358 85.2267 638.0698 85.6834 637.187 86.6095 636.8916 87.1169 636.7893 88.1792 636.8466 89.199 637.5977 90.8676 637.6381 91.0021 637.8326 91.6492 637.9592 92.2793 638.0063 93.4155 637.9609 94.25 638.0259 95.4937 638.2471 96.6355 638.8232 98.4887 639.2903 99.51 639.4351 100.2873 639.292 101.4921 639.2412 101.6483 638.9566 102.5243 638.6797 103.6421 638.3341 104.4143 638.2303 104.4553 637.7785 104.3474 637.6656 104.3842 637.3354 104.8363 637.0763 105.0342 636.4582 105.2545 636.56 105.7268 635.843 106.3097 635.7706 106.9075 635.3982 107.234 635.3521 107.3336 635.362 107.7811 635.1199 108.2414 634.7962 109.0358 634.751 109.284 633.9276 109.8458 633.7693 110.1715 633.4988 110.4888 633.2677 110.5509 632.835 110.8695 632.6818 111.4164 632.5543 111.4955 632.2481 111.5412 632.052 111.7397 632.0371 111.9851 632.1764 113.0377 632.1126 113.2775 631.5959 113.7908 631.5032 114.055 631.4636 114.3599 631.5434 114.7312 631.6728 114.9881 631.6627 115.0938 631.3674 115.6247 631.3047 116.561 631.0728 117.8458 630.9926 118.0587 630.5407 118.7351 630.1975 118.9531 629.8241 119.6378 629.8269 119.8136 630.0429 120.5446 630.27 121.6903 630.3267 122.3443 629.8895 124.1467 628.7087 126.879 628.6422 127.9202 628.4986 129.0401 628.0065 131.5434 628.0985 131.8689 628.7044 132.3708 628.9782 132.5039 629.4679 133.1596 629.7577 133.254 630.3288 133.5739 630.6861 133.9132 631.0009 134.6656 631.039 134.8046 631.1879 135.3471 631.207 135.9873 630.7883 139.4123 630.669 139.8857 630.6757 140.2555 630.8239 140.8437 631.2832 141.9497 631.4755 144.4435 631.2347 146.5943 631.3279 147.0032 632.0362 148.7185 632.4338 150.2449 632.5772 150.5955 633.825 152.1959 634.5617 153.6159 634.7987 154.2483 634.7942 154.4375 634.3244 155.7349 634.1332 156.4709 634.0955 157.0427 634.2071 157.3605 634.9299 158.0086 635.0596 158.1979 635.0839 158.3227 634.9536 158.6944 634.6822 159.1409 634.177 159.43 633.5598 160.1094 633.3951 160.5243 633.172 161.4981 633.2023 161.6887 633.4277 162.143 634.128 162.6731 634.3756 162.9851 634.528 163.3153 628.8208 164.1105 568.6943 173.4225 569.5329 166.4087 565.7426 164.7872 564.1735 165.3364 560.5567 163.6829 559.5159 162.0949 554.303 163.4383 553.2623 164.7301 541.0372 149.4833 548.7976 143.3454 545.9596 123.037 Z" id="fips-36031"/>
<path d="M 134.8675 288.3729 173.4506 289.231 173.426 290.1008 181.222 290.1581 185.208 290.5732 184.3347 316.9457 183.0853 317.5209 180.7552 323.9305 178.2543 324.5898 179.1287 326.0531 177.4177 327.8823 174.8735 328.5633 176.278 330.1325 174.818 331.4491 173.4623 334.8018 175.2662 334.539 175.6406 336.3906 175.2685 336.454 148.7411 335.6074 133.2545 335.3705 133.3941 333.0563 134.5815 300.1164 132.1171 300.0051 132.7067 288.2624 134.8675 288.3729 Z" id="fips-36121"/>
<path d="M 590.6552 571.0918 592.7415 571.8193 593.4542 572.3053 594.8509 572.2616 594.9121 571.9555 595.7074 570.7768 597.3647 570.2898 599.3051 569.8563 600.9645 569.624 602.7905 570.2622 603.5166 570.1012 604.0511 570.9737 604.5953 570.9123 605.2846 570.2339 607.261 572.5812 612.3207 576.5153 612.4553 577.7685 612.5238 578.279 611.7777 579.8604 610.0415 580.3691 609.4746 580.6728 609.6008 581.0735 609.8506 582.2086 610.0431 585.9143 609.8646 588.3308 610.2297 589.9283 609.4885 590.3976 609.0278 590.5415 608.7374 592.4312 608.3876 592.047 607.9154 592.5185 605.9487 593.6444 605.8182 593.9514 606.0536 595.2077 607.2945 595.8012 608.2228 595.5985 609.1418 598.1139 607.8019 598.608 607.128 598.3098 605.2803 598.496 599.2215 600.4545 592.0251 603.4088 588.4244 605.3026 589.0332 602.0649 589.0953 601.7348 594.0377 601.0273 597.6078 598.9408 599.1349 596.4094 599.2236 593.5647 597.6159 591.5391 596.9327 591.6103 596.589 587.7638 596.2028 587.3177 596.1583 587.1041 595.9834 586.7378 595.9339 586.501 595.7025 586.3973 595.3935 584.6893 594.2876 585.1864 592.5807 586.3963 591.2853 584.2825 590.7306 583.4173 589.8124 581.8528 589.7684 581.78 589.6468 581.5784 589.653 581.378 589.2661 580.5121 589.1183 580.3415 588.8494 580.2521 586.5633 578.8209 585.6935 579.1912 585.7906 578.3797 585.9059 578.1468 588.3843 574.5931 588.458 573.565 589.0881 573.7136 589.8194 573.0446 590.2042 572.7071 590.6552 571.0918 Z" id="fips-36081"/>
<path d="M 282.278 306.034 284.653 306.0445 284.6899 308.0283 285.744 312.6517 289.4292 319.7284 289.5569 331.1885 289.3271 336.2159 288.7064 342.6506 289.7415 346.8198 282.3472 347.2252 279.9726 346.639 279.8794 343.7232 268.1441 343.6624 268.1582 340.692 266.1786 341.8055 263.9741 341.3855 264.098 334.1228 264.7313 331.0288 254.8942 330.9089 242.5968 330.6599 242.7703 320.0353 242.7956 318.3078 244.2253 314.0028 245.9033 309.6217 248.2702 306.0962 248.4205 305.8113 267.2379 305.8938 282.278 306.034 Z" id="fips-36123"/>
<path d="M 561.3333 599.0748 561.7553 598.0979 561.2963 597.1982 561.4109 595.8544 561.285 594.7085 561.3993 593.918 561.58 593.685 561.9102 593.2591 562.8543 592.0414 563.502 591.7817 564.6085 591.9231 565.5413 592.0479 565.5534 592.0496 567.4171 592.2987 568.9601 592.0354 570.8121 591.4484 572.4736 591.3882 573.1765 590.9226 574.3031 591.3739 574.9525 592.2912 575.2085 594.6277 575.6818 595.6021 575.7246 595.6902 576.7389 597.3236 576.089 598.6312 575.8291 599.1541 573.4564 601.8903 570.7733 604.9969 569.2866 606.2997 568.2837 607.4052 567.5351 606.7322 567.5083 606.7486 566.4272 607.4084 564.8998 608.4455 563.6963 608.7574 561.8924 609.989 560.8145 610.3145 559.8732 611.2535 558.4952 611.4519 557.1256 612.175 556.4903 611.9173 555.6836 611.3436 555.8867 610.8282 556.5714 609.3041 557.096 608.3635 556.834 607.1972 556.7657 605.5751 557.7733 604.3851 558.9757 603.7895 560.0574 603.6931 560.0588 603.6892 560.5826 602.1404 560.9619 600.4235 561.3333 599.0748 Z" id="fips-36085"/>
<path d="M 183.1321 222.6364 183.2058 222.6432 185.0254 222.1681 186.1195 222.3476 187.3083 223.0022 190.2459 223.9619 192.0017 224.0103 194.8685 225.0744 200.6155 226.052 201.3621 226.2718 202.4814 226.6012 203.6813 226.713 206.1314 226.5198 206.4419 227.041 208.9981 228.0787 210.595 229.0104 211.7895 231.1068 215.7377 234.6165 216.3743 235.1067 218.8468 236.2717 219.4398 236.7417 221.3699 238.2708 223.7768 240.1762 226.3286 241.2488 227.9736 241.4475 227.9802 241.4483 231.299 239.3911 233.6979 238.8834 237.6439 237.461 239.8472 237.0278 242.177 236.119 243.6523 235.9763 243.5162 246.9479 243.4052 268.7814 232.1659 268.5544 232.1751 280.8983 222.511 280.568 216.8534 280.9728 204.851 280.6055 207.5021 280.0219 208.7664 275.4743 207.7902 274.2098 190.1348 273.8253 190.4171 271.794 190.8812 267.1878 186.2639 266.7238 190.83 254.7225 191.0612 254.1581 182.0652 253.9844 182.4385 242.3061 182.6101 237.55 182.8101 233.4774 183.1321 222.6364 Z" id="fips-36055"/>
<path d="M 359.5726 183.2622 376.9929 185.0007 376.7188 179.7509 401.1657 182.2873 401.9073 190.9043 402.8995 211.7896 397.1805 209.9959 390.0398 231.3815 392.3779 232.1652 390.2047 254.2617 386.1609 253.4171 385.4035 251.3916 379.8165 250.2595 379.4751 250.4627 378.3087 251.0004 374.2969 247.9003 371.1199 248.2534 370.5351 246.3022 372.1492 246.4673 367.6123 243.7607 363.3592 242.2845 358.9684 238.4369 358.1537 238.8449 358.1512 242.1487 359.7342 245.797 356.7505 247.4089 354.7726 246.0978 353.3899 242.995 351.7586 242.8065 353.0646 245.5578 351.1784 247.8889 348.7114 243.9043 344.957 243.5722 331.7111 244.1393 331.5634 240.2056 319.7985 240.4649 319.371 240.2169 318.4642 218.1167 319.4533 217.5565 323.8329 214.2105 326.3452 212.9342 326.8906 212.6569 327.8644 211.5446 328.4675 211.2111 329.3487 211.4919 331.307 210.6727 332.7487 208.3343 336.2014 206.151 338.1652 204.5404 338.8476 204.294 342.7388 203.989 342.9415 203.9731 345.2128 205.6658 346.6386 205.8754 349.9498 205.7832 353.6092 204.2119 355.9657 203.6188 356.6677 203.1203 357.7315 201.4853 358.5396 199.4687 359.1784 197.4695 359.6274 194.0332 359.924 187.3784 359.5726 183.2622 Z" id="fips-36075"/>
<path d="M 281.1797 409.0358 281.643 382.325 281.8498 371.6156 281.8959 370.4085 294.0763 369.745 304.9596 369.904 305.0006 376.0707 309.6875 376.0948 309.6812 377.5433 313.4342 377.5249 314.0124 378.1226 316.3078 376.1332 316.3862 371.518 324.4699 371.7607 324.6791 376.0405 324.4641 388.8196 321.842 388.7217 322.137 392.0546 323.8124 402.8102 322.1167 409.7546 322.0672 409.7532 314.0439 409.5712 302.853 409.3046 296.2119 409.2131 294.286 409.1715 285.689 409.0404 285.5785 409.0521 285.0569 409.0439 284.0538 409.028 283.5018 409.0327 281.184 409.0358 281.1797 409.0358 Z" id="fips-36015"/>
<path d="M 135.9601 253.1289 151.2264 253.2742 182.0652 253.9844 191.0612 254.1581 190.83 254.7225 186.2639 266.7238 190.8812 267.1878 190.4171 271.794 190.1348 273.8253 189.8201 279.5838 187.5684 279.4518 187.3187 284.8908 185.3151 284.7538 185.208 290.5732 181.222 290.1581 173.426 290.1008 173.4506 289.231 134.8675 288.3729 135.2829 276.621 135.8797 258.5186 135.9601 253.1289 Z" id="fips-36037"/>
<path d="M 584.4575 464.0557 584.8872 453.402 585.3065 451.3325 585.1896 450.4977 584.9441 449.787 584.8436 449.2755 585.0305 447.2145 585.3216 444.7706 585.313 444.3252 585.271 441.6598 584.6866 440.5998 584.1629 439.6725 584.2713 428.8583 585.0247 425.8354 582.5392 420.8643 585.0382 407.7863 585.3467 400.3635 585.9302 398.9542 585.5675 398.0367 587.7531 397.8808 596.7854 402.1333 607.6912 407.466 626.2162 410.7451 626.548 401.0159 629.0074 400.9942 629.9658 400.9752 629.8999 407.6677 629.7008 413.286 629.4639 418.1728 629.3841 422.2086 629.1258 426.7781 628.9415 431.4322 628.9367 431.5014 628.5511 440.2913 628.5488 440.4357 628.5127 442.6969 628.1969 449.9098 628.1184 452.7266 628.0221 456.1771 627.9885 459.0632 627.9884 459.0707 627.377 471.5858 622.3573 471.8066 615.5277 473.0704 612.9469 473.6147 610.9961 473.9905 586.6932 477.7413 581.994 484.4983 580.1228 482.358 580.1939 478.9006 580.2423 478.0104 580.2006 473.6997 580.452 472.6164 581.0711 470.5223 584.3353 465.1633 584.4575 464.0557 Z" id="fips-36027"/>
<path d="M 2.7421 363.5962 7.2362 361.8105 14.6547 357.9919 19.9352 354.7292 24.8235 352.0171 28.4509 349.6249 32.1883 346.8359 34.3452 346.0072 36.8784 343.7954 39.3819 340.5439 41.7988 338.8678 43.8499 337.1079 44.9096 335.9761 45.8751 335.9187 46.5811 336.1316 46.9478 336.0459 47.8167 335.3116 48.3772 334.6487 51.8586 333.2691 53.7895 331.7412 55.9979 330.6754 57.9784 330.1759 61.0095 328.9827 65.4723 328.1197 66.5412 326.7067 66.7537 326.0087 69.6281 326.0926 74.1157 330.6181 71.1111 403.2698 59.3643 402.7504 52.2305 402.5313 29.9298 401.6067 26.0747 401.4065 23.3272 401.2627 22.0328 401.1831 16.0837 400.8572 14.6366 400.7773 14.6376 400.7861 10.1517 400.5249 1.0225 400.1485 1 399.9781 1.1068 397.4177 1.7724 383.9412 1.8118 382.2866 1.966 379.663 2.0549 378.0504 2.1088 376.6143 2.15 375.7548 2.1855 375.2248 2.5453 367.2099 2.6188 366.0916 2.7421 363.5962 Z" id="fips-36013"/>
<path d="M 243.6523 235.9763 247.0942 235.6421 249.6962 235.6458 250.7336 236.0559 254.6422 236.2406 259.5844 235.4254 263.6031 235.8535 266.5336 235.0907 267.8048 235.374 269.6343 235.0952 273.9966 236.119 277.2579 237.4878 280.618 237.5124 281.7301 237.1198 284.6727 237.7749 285.2863 237.6921 288.248 235.8065 290.0373 234.9149 291.7487 234.6611 292.6816 234.8057 294.8957 234.0942 296.2164 233.1746 300.8382 232.6701 303.3776 231.515 305.5584 229.7863 307.1541 228.1953 307.9928 228.1707 309.5034 263.7741 307.9469 266.1199 307.8123 270.1039 308.2704 271.3362 283.5638 272.4401 266.8366 272.2451 266.8146 268.5414 255.8286 268.35 255.7036 269.0362 243.4052 268.7814 243.5162 246.9479 243.6523 235.9763 Z" id="fips-36117"/>
<path d="M 466.0888 192.1124 459.8889 127.1122 470.3413 133.3376 490.5595 130.5265 498.9598 209.2133 490.1123 229.1222 505.4176 236.2239 507.2145 251.3228 505.0593 252.6204 505.9712 254.6947 503.515 255.4052 504.1063 257.954 501.0893 258.7603 499.6802 263.6603 500.7121 267.0815 501.0931 268.5007 502.7034 270.737 502.7552 274.9669 503.0907 275.3446 501.0032 293.3711 489.5316 288.746 488.0386 297.7001 486.8518 298.6697 482.0684 295.8074 467.5496 287.5422 463.7413 294.1261 456.7391 294.5946 456.5747 291.4327 457.6342 291.3345 457.0113 283.2484 456.1068 272.1547 455.7828 268.1461 456.89 266.5209 459.3954 265.0462 459.6475 262.4211 461.481 259.707 470.4271 244.4577 465.1517 242.6373 461.2361 240.3071 462.6158 233.9951 465.3824 234.0504 466.6866 232.841 467.3311 231.2662 469.6108 230.5058 466.0888 192.1124 Z" id="fips-36043"/>
<path d="M 490.5595 130.5265 498.8974 129.4342 510.4249 127.8629 521.4521 126.2588 545.9596 123.037 548.7976 143.3454 541.0372 149.4833 553.2623 164.7301 554.303 163.4383 559.5159 162.0949 560.5567 163.6829 564.1735 165.3364 565.7426 164.7872 569.5329 166.4087 568.6943 173.4225 553.3605 175.8234 559.5115 223.9484 561.7458 239.7836 553.4943 240.7074 553.8794 244.3149 543.9121 245.3791 543.4631 241.7467 523.005 243.8557 505.4176 236.2239 490.1123 229.1222 498.9598 209.2133 490.5595 130.5265 Z" id="fips-36041"/>
<path d="M 185.208 290.5732 185.3151 284.7538 187.3187 284.8908 187.5684 279.4518 189.8201 279.5838 190.1348 273.8253 207.7902 274.2098 208.7664 275.4743 207.5021 280.0219 204.851 280.6055 216.8534 280.9728 222.511 280.568 223.7824 281.6314 225.6384 291.185 225.0393 292.7685 221.471 292.6919 221.1588 304.9809 218.8361 304.8978 219.8177 317.2388 230.9186 317.7234 230.5452 320.9499 230.2392 330.2665 213.4544 329.4501 213.1663 335.5667 207.2703 335.42 206.8209 344.032 195.1626 343.2753 195.2708 337.4442 183.9113 337.0525 175.116 336.7884 175.6406 336.3906 175.2662 334.539 173.4623 334.8018 174.818 331.4491 176.278 330.1325 174.8735 328.5633 177.4177 327.8823 179.1287 326.0531 178.2543 324.5898 180.7552 323.9305 183.0853 317.5209 184.3347 316.9457 185.208 290.5732 Z" id="fips-36051"/>
<path d="M 608.7457 302.4058 609.1437 300.7067 610.2099 299.7117 610.3285 297.548 608.5992 292.24 608.8156 290.0064 607.6404 287.6347 607.7015 286.4885 608.1402 284.9957 609.8999 282.2218 610.8481 281.4242 612.3393 280.9828 613.4164 280.9668 624.002 280.4237 630.5887 280.0928 632.263 278.205 636.3371 278.863 637.5736 279.9861 648.0033 279.7558 647.9979 279.914 647.9986 280.2004 648.0025 281.0002 648.0269 286.0227 647.9835 294.0852 647.9805 294.6466 647.417 294.4536 647.3136 294.5727 647.1995 296.4605 647.5506 297.2985 647.3161 298.0919 646.8827 298.9301 648.5277 306.4353 649.6638 306.4145 641.8325 338.4945 605.5992 344.6833 599.0752 345.707 598.8271 342.6093 599.9954 339.5903 600.8953 337.9829 601.9161 331.8234 601.0251 325.4673 601.0412 325.4145 602.6901 319.9494 604.3102 317.7797 604.4709 317.4115 606.0737 314.5127 606.3365 312.9537 606.339 312.3196 608.027 305.9696 608.1033 304.6623 608.7457 302.4058 Z" id="fips-36083"/>
<path d="M 568.3473 4.5166 582.9143 3.4952 593.5585 2.9984 601.911 2.8567 605.3192 2.7029 624.6033 1.4573 633.5869 1 632.975 3.2484 632.6813 3.8149 632.5769 4.1973 632.6389 4.6398 632.7687 5.0977 633.0398 5.6873 633.5842 6.4494 634.1747 7.0521 634.2258 7.2041 634.2738 7.7709 634.1763 10.0913 634.3557 12.686 634.3324 13.5547 634.1406 13.9714 633.9832 14.0876 633.51 14.4369 632.9687 14.9863 632.7346 15.3778 632.5684 15.8097 632.3689 16.3669 632.2086 17.1505 631.8652 19.3765 631.6433 20.5108 631.3852 21.0935 631.0336 21.3281 630.6539 21.8387 630.5335 22.9531 630.5511 23.4634 630.7593 24.4043 630.8321 24.4904 631.1585 24.6237 631.5633 25.3642 631.7302 25.5766 632.1199 25.9287 632.8586 26.3331 633.1654 26.5693 633.3105 26.7158 633.6385 27.2459 635.095 28.7987 635.2011 29.1217 635.2599 29.5235 635.3737 30.9299 635.328 31.4127 635.1537 31.8367 634.3575 32.6416 634.0999 33.0931 633.9622 33.737 633.4676 35.4984 633.1664 36.0839 632.6013 36.8771 632.4445 37.3494 632.5515 39.5254 632.5981 42.9463 633.0226 43.6003 633.0272 43.7144 632.6704 44.6658 632.2156 45.0414 632.2635 45.1879 632.4905 45.5148 632.5204 45.8892 632.1518 46.0317 632.0816 46.111 632.0277 47.2218 632.2923 47.575 632.3398 47.9238 632.255 48.0556 632.017 48.0356 631.9156 48.0886 631.462 48.8523 631.478 49.0668 631.5744 49.2443 631.5818 49.3694 631.1105 50.3477 631.5674 50.9147 631.4575 51.0681 630.7968 51.6243 630.7627 51.7368 630.9011 52.3404 630.8588 52.8978 630.7891 53.3386 630.5523 53.8919 630.5315 54.0635 630.5752 54.2166 631.2551 54.8773 631.4924 55.8087 631.8855 56.5599 631.9439 56.8797 631.9049 57.1187 631.8059 57.3383 631.4583 57.7883 631.4429 57.9597 631.8478 58.5145 632.0637 58.9259 632.2105 59.8108 632.9234 60.8599 633.4947 61.3884 633.6327 61.516 633.967 62.1319 634.1247 62.2627 634.6263 62.4554 635.3214 62.9073 635.7377 63.4174 635.7539 63.5793 623.747 65.1297 624.161 67.5342 621.5251 70.3256 620.7748 72.1709 617.8511 71.9805 615.1683 72.7858 613.6531 75.1468 609.4243 76.7307 608.1151 76.2153 604.2943 78.6037 601.2525 78.1037 581.1637 80.6741 578.5214 60.9506 577.2779 61.1543 574.969 43.0781 573.0318 43.297 570.7429 25.9069 570.7201 21.1504 570.3037 16.9294 568.3473 4.5166 Z" id="fips-36019"/>
<path d="M 500.3807 407.7186 511.4391 400.6588 522.9849 393.2782 523.509 392.4721 525.207 389.8762 527.9122 390.0515 533.0999 386.7009 547.6328 393.9005 551.2397 394.2118 570.9824 395.9081 574.0463 385.8875 577.9456 386.7626 578.0252 384.9211 586.5636 391.2467 587.3367 391.4504 586.3024 393.8028 585.5675 398.0367 585.9302 398.9542 585.3467 400.3635 585.0382 407.7863 582.5392 420.8643 585.0247 425.8354 584.2713 428.8583 584.1629 439.6725 584.6866 440.5998 585.271 441.6598 585.313 444.3252 585.3216 444.7706 585.0305 447.2145 584.8436 449.2755 584.9441 449.787 585.1896 450.4977 585.3065 451.3325 584.8872 453.402 584.4575 464.0557 576.0161 465.2873 574.3477 465.5117 572.8334 462.1114 570.6494 463.1497 569.7453 461.9971 566.1071 460.9222 567.0025 465.3821 560.8144 464.3743 554.3132 462.5123 554.4056 459.2776 552.9755 458.8542 548.9328 461.2632 545.344 464.1356 542.6879 464.6337 542.95 464.2153 541.7572 463.6736 539.7674 457.4662 521.4383 444.0904 526.3454 437.0689 530.1612 431.829 533.4319 426.3403 513.0626 414.701 511.145 413.6423 500.3807 407.7186 Z" id="fips-36111"/>
<path d="M 632.6809 553.0463 634.7718 556.1727 634.9695 559.1559 636.4136 560.5232 638.4319 571.425 638.5489 571.9553 639.2212 576.0268 639.5154 577.619 639.8824 579.758 639.9727 580.2684 640.0148 580.5063 640.1019 581.211 640.4631 583.2555 640.4909 583.4208 641.0337 588.8469 640.8975 589.4112 641.1951 595.0672 634.976 596.8484 632.6929 597.501 627.4244 599.1665 626.292 598.9259 625.847 598.8838 622.1007 598.5278 619.0382 599.2581 608.5956 598.9591 607.8019 598.608 609.1418 598.1139 608.2228 595.5985 607.2945 595.8012 606.0536 595.2077 605.8182 593.9514 605.9487 593.6444 607.9154 592.5185 608.3876 592.047 608.7374 592.4312 609.0278 590.5415 609.4885 590.3976 610.2297 589.9283 609.8646 588.3308 610.0431 585.9143 609.8506 582.2086 609.6008 581.0735 609.4746 580.6728 610.0415 580.3691 611.7777 579.8604 612.5238 578.279 612.4553 577.7685 612.3207 576.5153 607.261 572.5812 605.2846 570.2339 605.3696 570.1502 606.7701 567.4011 606.7158 566.6066 609.3085 563.0319 609.4605 562.5022 609.0276 561.3511 609.1366 561.2003 610.7489 560.6786 614.6756 562.3579 615.1687 562.1159 616.6657 561.3809 616.776 559.4484 618.0895 557.4744 618.8173 556.7018 619.5071 556.5238 620.4706 556.7035 622.0569 556.0047 622.7263 555.3814 625.271 554.2273 625.6572 554.1639 627.5253 555.077 630.4443 554.2495 630.8842 554.438 632.4023 553.6789 632.6809 553.0463 Z" id="fips-36059"/>
<path d="M 779.8222 503.1788 780.3391 502.1259 780.9046 501.0343 781.3427 500.5942 782.567 500.6276 784.1186 499.5007 785.244 499.5928 787.9707 498.8257 788.9035 498.5721 790.5809 498.0334 789.779 499.3575 788.6883 499.9822 787.0649 500.7736 785.4448 501.6494 783.8932 502.8712 783.1288 503.388 779.6622 503.9506 779.8222 503.1788 Z M 769.7275 524.8932 769.9339 524.4763 770.7793 523.9618 771.1525 523.4407 771.2822 522.4889 775.6711 524.1455 776.021 525.1552 775.6248 529.9864 774.7601 530.5994 774.6042 530.4892 774.4972 527.6628 773.8285 526.2536 773.4856 525.9438 772.0243 525.4252 770.1315 525.6005 769.8482 525.3529 769.7275 524.8932 Z M 762.0514 513.7244 764.5263 512.175 767.6408 511.565 767.405 512.7167 765.3299 514.1959 764.7744 515.4266 763.6158 516.6819 761.8759 515.4229 762.0514 513.7244 Z M 641.1951 595.0672 640.8975 589.4112 641.0337 588.8469 640.4909 583.4208 640.4631 583.2555 640.1019 581.211 640.0148 580.5063 639.9727 580.2684 639.8824 579.758 639.5154 577.619 639.2212 576.0268 638.5489 571.9553 638.4319 571.425 636.4136 560.5232 634.9695 559.1559 634.7718 556.1727 632.6809 553.0463 632.7215 552.9542 633.1582 550.4299 633.7964 549.8335 634.5232 550.3686 636.0322 550.9514 638.7979 551.2588 639.5082 551.9289 639.5786 552.5222 639.6406 553.0446 641.9654 553.1559 642.2661 552.4918 642.1574 550.1865 642.3824 548.5878 642.4904 548.423 643.1931 548.3911 645.1286 550.7294 646.0153 551.5023 647.3781 552.141 648.1169 552.3102 648.2526 552.0366 649.5494 551.6914 653.2676 552.2788 659.2542 554.4241 660.0427 554.7063 668.139 551.2649 668.1862 551.1106 668.3961 550.4237 668.4774 547.6178 668.8343 546.2121 671.9104 545.3442 673.4581 545.2183 674.8377 545.1059 678.1247 546.244 678.7384 546.4563 679.0609 546.1342 683.5867 545.7255 687.7401 545.6435 691.9643 546.0066 694.5678 545.8562 700.8723 544.7285 706.1819 545.1567 709.0649 544.6368 712.85 543.2376 715.1101 542.8306 717.3579 542.835 720.2125 542.4271 725.2531 540.1377 727.2245 538.4572 727.6475 537.6404 728.7582 537.0061 731.5528 534.4998 735.9816 532.3705 737.5901 530.3122 739.0761 527.6768 741.8407 527.3244 743.3529 526.0552 748.0641 520.0648 750.418 519.0176 752.2207 518.8163 754.3795 517.6685 755.6152 517.2352 756.2221 517.7125 756.7235 517.8094 758.9958 516.7641 759.7291 516.9681 759.7937 517.3783 758.286 520.0444 757.158 521.2582 753.6618 523.585 753.5943 520.9156 752.9215 520.1613 752.273 520.0913 751.7307 520.3031 750.8946 521.0072 750.0773 522.6444 750.1241 523.7387 750.1543 524.4452 752.0691 526.8365 754.0911 527.786 755.8567 527.803 756.2478 528.2845 755.6445 529.5032 756.6874 531.6689 758.0721 532.8927 760.0164 532.45 761.227 532.4576 762.455 532.914 764.0864 533.974 765.2332 533.8866 765.9591 533.4466 766.3281 533.0513 766.7557 531.9923 767.9364 530.9934 768.19 530.8966 768.8624 531.1349 770.6106 532.7074 770.8751 533.831 770.6835 534.835 772.9526 537.9978 773.7319 538.7369 774.4424 539.0551 775.1252 539.0483 776.3606 538.3075 776.6368 537.3538 776.696 536.945 776.99 536.574 778.4857 536.4641 778.8685 537.0764 778.9553 537.0587 779.1453 537.0044 779.5051 536.827 779.6966 536.3786 779.4578 535.5724 779.3932 534.9316 779.8353 534.6349 781.0323 534.8281 783.1029 533.7152 784.6413 532.1204 787.8705 530.8872 788.4398 529.9839 788.4818 529.2256 788.3358 528.6723 788.4951 527.6908 790.6284 526.764 792.5269 526.2619 794.5694 526.129 794.9711 526.5782 795.5854 526.778 797.619 526.7765 798.1249 526.5012 798.8529 526.9227 799 527.316 797.308 529.8657 794.3467 531.6324 791.1333 532.5812 781.8015 537.6115 773.2969 541.7259 745.1795 557.08 737.7356 560.5898 727.3221 564.9521 711.7246 571.1088 709.9953 571.7891 709.2034 572.2911 708.7849 572.1973 707.6759 572.6105 698.0911 576.7916 697.1127 577.2526 692.035 579.6428 683.0359 584.4636 678.7488 586.3866 669.5879 589.4767 663.1754 591.6326 660.0532 592.5013 657.7147 593.0556 657.4704 593.0677 653.182 593.2774 651.1047 591.6678 648.5333 592.0877 641.856 594.8777 641.1951 595.0672 Z" id="fips-36103"/>
<path d="M 342.9013 156.8594 345.5605 153.3646 348.2396 151.0765 350.0037 151.1213 349.3877 152.7867 346.7475 156.3833 344.1379 157.1676 342.9013 156.8594 Z M 393.1264 85.8293 426.9395 106.9731 433.1007 110.9116 424.6548 124.4409 423.4566 126.4028 429.4108 130.2856 427.6476 133.3816 428.5605 133.9769 427.7205 135.4035 427.7425 139.0102 423.0656 139.2022 423.7581 144.6512 420.4267 144.9926 417.8526 144.1711 402.8166 156.6537 394.7991 155.9335 393.7903 168.3627 400.0049 168.8606 401.1657 182.2873 376.7188 179.7509 376.9929 185.0007 359.5726 183.2622 359.1289 178.0584 358.4057 173.36 356.8915 166.5145 356.3329 166.1272 350.1302 161.821 350.376 159.3152 351.4353 157.8383 353.9532 155.9956 357.0747 155.3768 358.4993 153.5528 358.9604 154.8606 357.8085 158.3782 359.5421 158.5992 364.3863 154.9065 365.1289 155.1585 366.9098 153.9268 366.8873 153.1308 366.8376 151.3759 366.0299 148.9663 365.0026 148.0384 362.8548 145.689 359.8807 144.4238 359.1525 143.4228 354.6019 144.6161 352.9014 145.338 351.7717 145.0748 352.203 143.7534 353.2504 141.7617 353.1714 139.8887 351.9902 138.7952 350.5757 138.8765 350.057 138.2044 349.509 136.6012 348.1936 135.7893 344.2695 135.5136 342.9271 135.6979 342.1796 134.9046 342.3814 133.5904 343.485 132.9366 344.3108 130.1508 344.4302 128.1374 343.4857 126.3934 344.9834 121.9848 345.3061 121.4521 349.2304 113.1416 351.762 112.5244 355.3324 112.4992 355.7358 112.57 359.4932 111.1303 360.9947 110.2365 363.6303 107.7766 363.9038 102.2206 366.9093 100.0997 367.3248 100.3796 368.1396 100.3484 368.7419 99.9227 370.152 99.7266 375.2124 95.412 378.7811 93.7927 379.4945 93.2997 381.2908 93.3257 381.6874 93.3982 382.0193 93.4953 382.1901 93.8386 382.4666 93.9477 384.4637 93.1068 385.4207 92.265 386.4076 91.701 387.1077 90.8835 388.0029 90.5624 392.0194 86.9653 393.1264 85.8293 Z M 335.1418 154.6525 339.2354 149.9541 342.5544 150.5915 341.5011 152.3449 338.3842 154.2094 336.2874 155.7047 335.1418 154.6525 Z" id="fips-36045"/>
<path d="M 308.2704 271.3362 307.8123 270.1039 307.9469 266.1199 309.5034 263.7741 307.9928 228.1707 310.3641 228.1009 311.7044 227.0037 313.2236 225.1552 315.9274 220.5019 317.1146 218.8808 318.4642 218.1167 319.371 240.2169 319.7985 240.4649 331.5634 240.2056 331.7111 244.1393 332.2016 255.149 330.9053 255.6497 332.2641 260.4099 329.6995 260.9772 330.1391 274.1729 332.9983 274.0203 333.4421 284.3936 334.0222 295.7141 343.2741 295.3002 348.302 300.2201 351.2784 304.6825 351.3353 305.9269 352.0774 325.6202 352.0781 325.8712 332.9171 326.3683 332.8837 325.1796 317.4361 325.7244 312.248 325.4772 310.4652 319.1318 306.2108 313.3211 305.4358 307.7727 305.2489 302.9756 307.6037 296.3353 307.2572 292.1787 306.093 288.8323 305.6207 280.6935 308.2704 271.3362 Z" id="fips-36011"/>
<path d="M 628.8208 164.1105 634.528 163.3153 634.5333 163.3267 634.6402 163.6475 634.7609 164.3776 634.8522 164.6181 635.6682 165.3285 636.2334 165.7369 636.7312 166.3014 636.9534 167.3037 637.0365 167.5374 637.4597 168.1719 637.454 168.3714 637.098 169.2312 636.324 170.7354 635.6962 171.955 635.6487 172.227 635.6304 173.1321 635.7337 174.0452 635.6784 174.514 635.0094 175.5604 634.5146 176.0669 634.2399 176.4417 633.692 177.5169 633.5188 178.0996 633.3523 178.4239 633.0856 178.7288 632.7256 178.9433 632.4763 179.3405 632.4337 179.591 632.6194 180.0822 632.5678 180.5366 632.2766 181.6125 632.2431 181.7362 632.2262 182.1527 631.6332 183.6847 631.5592 184.4643 631.2581 185.0893 630.7996 185.3988 630.6407 185.5901 630.525 185.8216 630.3394 186.6441 630.4126 186.9279 631.3884 188.4022 631.4578 188.6216 631.4462 188.7706 630.9008 189.8962 630.8952 190.0809 631.0733 190.6811 631.1382 191.1505 630.8248 191.7323 630.3312 192.8582 630.2508 193.1638 630.2828 193.3316 630.5193 193.7364 630.7157 193.8691 631.3352 194.0536 631.6822 194.5523 632.8134 195.4077 633.343 195.7031 633.558 195.8088 633.7885 195.7998 634.1541 195.5433 634.8937 194.768 634.9692 194.5961 635.0407 194.267 634.9351 193.5224 634.8898 191.896 635.4362 191.493 635.8436 190.9911 635.9332 190.7786 635.9381 190.621 635.5567 189.7422 635.6937 189.4575 636.1294 188.8496 636.1333 188.766 635.8668 188.3625 635.9188 188.1264 636.21 188.0888 636.3831 188.2312 636.5405 188.2516 637.1665 188.0786 637.2152 188.0142 638.2961 188.3306 638.8144 187.8358 640.2289 187.8189 640.5945 187.5773 641.2134 187.5976 641.6882 187.9565 641.9051 188.0165 642.1781 187.5529 642.3176 187.478 642.5271 187.6021 642.6857 187.78 642.7372 187.9601 642.9627 189.7851 643.1869 189.884 643.6229 190.5238 643.7802 190.8778 643.7996 191.4701 643.7572 192.0519 643.719 192.2289 643.3787 192.9453 643.8326 193.2326 643.8594 193.3122 643.6395 193.5904 643.5596 193.8976 643.635 194.0664 643.7427 194.1245 644.5827 193.9996 644.9425 194.2184 644.9843 194.5106 645.1085 194.6647 646.1283 194.9428 646.6561 195.3454 647.2055 195.8616 647.8257 196.9381 648.2243 197.3313 648.2508 197.5035 648.0646 197.7993 648.1183 198.7427 648.3475 198.8194 648.4711 198.9455 648.5743 199.1477 648.9418 199.8683 648.986 199.8606 649.0155 200.2147 648.9776 200.6111 648.8398 200.8435 648.5093 201.1155 648.4335 201.4698 648.455 202.0004 648.5455 202.0471 648.5272 202.582 648.5655 208.588 648.5628 209.7538 648.5335 222.0205 648.5272 222.1169 648.5375 223.0339 648.546 224.2195 648.5574 229.6277 648.5726 237.1129 648.4671 240.9917 648.4647 241.0808 648.4481 242.8417 648.2929 259.1402 648.2646 260.3656 648.1042 267.2901 648.0986 267.9936 648.0033 279.7558 637.5736 279.9861 636.3371 278.863 632.263 278.205 630.5887 280.0928 624.002 280.4237 613.4164 280.9668 612.3393 280.9828 612.6443 277.1335 614.6938 275.5182 615.9145 271.9401 616.8915 266.2303 617.6289 265.3943 617.7078 258.4005 617.5149 256.863 616.131 254.8347 617.1108 252.2935 616.1067 249.9419 616.9424 248.1305 616.4398 246.8753 617.0206 244.7294 615.1551 239.9748 615.8818 237.3588 614.7263 236.7356 615.7851 232.383 615.1643 231.6449 613.4677 221.2086 611.2536 207.3913 610.4642 205.9443 613.181 198.3834 612.5454 197.0243 614.8933 196.1071 620.7514 186.9571 621.9692 186.7386 623.9347 184.2918 624.7189 179.2773 625.8623 177.253 626.9107 172.6509 626.7834 168.8668 625.7 168.5123 628.8208 164.1105 Z" id="fips-36115"/>
<path d="M 389.454 312.5487 435.19 309.6697 435.2594 310.6565 448.3572 309.8106 448.3063 313.2474 446.6559 317.1562 444.9644 319.2612 445.4742 323.0052 445.7223 326.1461 444.3171 327.476 445.3786 332.2679 444.336 334.3657 441.3674 335.6964 439.1846 341.2801 437.7624 341.6254 438.6001 344.5508 437.6714 345.6196 438.2082 348.0553 439.501 350.2228 440.6657 354.1341 438.8799 356.1753 437.4793 358.8966 438.7271 362.5967 438.3271 364.9318 436.6379 367.8942 436.5683 372.2809 436.3617 383.9769 429.8381 383.9678 414.4865 383.9143 414.3711 376.751 405.9772 376.6542 396.2731 376.6797 394.5603 377.3122 393.8377 375.2277 393.0457 363.6635 391.8827 354.1607 390.9217 337.0089 389.454 312.5487 Z" id="fips-36017"/>
<path d="M 582.1775 500.3176 591.1865 498.8982 594.3646 498.3781 600.8881 497.3794 602.6508 497.0925 614.7842 495.1199 626.4106 493.322 626.374 493.9787 626.1084 498.7401 626.0805 500.1402 626.1724 501.263 626.0052 502.9108 629.4327 508.0518 631.102 510.6439 633.1956 513.8925 632.9753 514.0306 631.8723 514.7222 630.5163 515.5721 630.0032 515.9061 625.9974 518.5026 624.9855 519.1579 624.9673 519.1697 620.0133 522.2922 618.233 523.413 617.4793 523.893 611.8371 527.5402 608.6442 529.6012 609.1935 530.5473 609.7907 531.3439 610.9194 533.129 612.1728 535.1103 612.9206 536.254 613.6797 537.4381 614.6816 538.9945 615.5043 540.2714 616.2707 541.2931 616.2719 541.2955 616.3453 541.4398 616.2656 541.9816 615.9031 543.0967 615.9822 543.9048 615.9074 544.6607 616.1239 544.981 616.1534 545.0246 616.3091 545.7734 615.9351 547.2936 615.7277 547.5953 615.4801 547.466 614.1073 548.0913 613.6182 549.9651 613.3033 550.4851 612.1474 551.2671 609.7468 552.3414 608.7439 553.3136 606.23 555.0426 604.3902 557.8586 604.8908 558.3379 605.2436 558.6137 605.3501 559.3131 605.2718 559.8955 603.5721 559.3545 599.5099 558.0751 599.4316 558.2566 599.105 558.1395 597.9552 557.7215 597.0387 556.1059 596.4568 555.6151 595.7344 556.8898 593.8652 556.197 589.7842 554.7146 589.8022 554.455 590.0023 553.7222 590.7793 550.1166 591.003 549.22 591.5695 546.9489 591.801 546.0202 592.0149 543.9239 592.0343 542.8302 592.3767 538.4638 591.7399 533.9964 591.782 530.9579 592.3187 526.1555 591.7629 523.2242 590.0195 521.3966 588.7012 518.4678 587.659 515.9635 585.939 513.5532 583.5601 510.253 583.907 507.6411 585.9053 504.3894 584.0681 503.2509 582.1775 500.3176 Z" id="fips-36119"/>
<path d="M 501.6402 5.6053 502.2665 11.2462 509.7606 11.2173 511.7918 29.7447 522.245 116.6118 520.4264 116.7997 521.4521 126.2588 510.4249 127.8629 498.8974 129.4342 490.5595 130.5265 470.3413 133.3376 459.8889 127.1122 451.0428 121.8655 436.2779 112.8296 433.1007 110.9116 426.9395 106.9731 393.1264 85.8293 396.9212 81.9313 398.1934 76.6168 402.2088 70.6595 405.9865 67.0275 408.9223 63.6883 412.2151 60.4052 416.4484 56.6687 420.0469 52.7707 427.2434 45.1332 429.9524 43.0863 435.0938 38.2051 436.0543 36.508 437.6706 35.8861 438.592 34.9988 440.0307 34.5795 440.602 33.7194 442.4957 31.5426 443.7199 31.4289 446.3214 28.7531 446.2068 27.3138 448.5455 25.6398 449.9672 24.8298 451.1844 24.4832 452.5393 23.2218 453.7509 23.0894 454.7114 22.0542 456.1965 21.7765 456.8431 21.258 457.6018 21.0044 459.8101 19.63 461.9249 18.686 462.7749 17.116 464.1298 16.3006 465.5224 15.8381 466.3304 15.0407 469.2349 14.6037 469.8311 14.0068 472.9586 12.3673 475.0463 10.756 475.5643 9.7378 475.5954 8.9662 476.2117 8.1777 478.1436 7.3603 480.6037 7.1713 481.2953 7.1989 484.3036 7.3181 484.9824 6.0448 486.2051 5.0507 487.2159 4.8646 488.034 4.8694 488.6752 4.6618 489.3864 4.3022 490.1695 3.6341 491.2621 3.0315 492.0328 2.867 492.6987 3.2625 493.3066 3.1666 494.0584 3.5023 494.6323 3.7493 495.2383 4.3487 497.5683 4.4279 498.3954 5.627 499.8885 6.2015 501.1623 6.2095 501.6402 5.6053 Z" id="fips-36089"/>
<path d="M 390.2047 254.2617 391.7941 255.4637 394.5682 253.6071 398.7075 253.8243 401.5836 252.3577 403.182 253.8694 405.9994 253.3511 407.6482 254.859 407.627 256.6793 410.4985 258.1766 411.3343 259.759 412.9701 259.905 414.3202 262.4021 414.1316 264.4278 418.2534 267.0237 418.5116 270.5343 422.8641 270.2422 423.0479 272.5567 423.8571 284.5237 432.3885 284.3643 433.6069 284.3343 434.3172 293.7531 453.0369 292.5781 453.3516 292.9779 453.0842 293.5083 453.1856 296.2342 453.8911 297.6203 452.5563 302.8281 452.7433 304.3311 450.5954 305.9704 449.9201 308.3953 448.3572 309.8106 435.2594 310.6565 435.19 309.6697 389.454 312.5487 388.8665 303.4843 387.5266 276.6856 386.8906 263.6183 386.6742 263.1326 383.5582 263.4536 381.1897 262.9537 381.0993 261.3172 382.1739 259.0923 383.1146 259.691 383.6899 257.3438 382.0132 257.0303 381.6392 254.3526 379.4751 250.4627 379.8165 250.2595 385.4035 251.3916 386.1609 253.4171 390.2047 254.2617 Z" id="fips-36053"/>
<path d="M 402.8995 211.7896 424.7274 218.6381 438.5434 209.7093 454.8706 199.3284 466.0888 192.1124 469.6108 230.5058 467.3311 231.2662 466.6866 232.841 465.3824 234.0504 462.6158 233.9951 461.2361 240.3071 465.1517 242.6373 470.4271 244.4577 461.481 259.707 459.6475 262.4211 459.3954 265.0462 456.89 266.5209 455.7828 268.1461 456.1068 272.1547 457.0113 283.2484 457.6342 291.3345 456.5747 291.4327 453.5827 291.775 453.0369 292.5781 434.3172 293.7531 433.6069 284.3343 432.3885 284.3643 423.8571 284.5237 423.0479 272.5567 422.8641 270.2422 418.5116 270.5343 418.2534 267.0237 414.1316 264.4278 414.3202 262.4021 412.9701 259.905 411.3343 259.759 410.4985 258.1766 407.627 256.6793 407.6482 254.859 405.9994 253.3511 403.182 253.8694 401.5836 252.3577 398.7075 253.8243 394.5682 253.6071 391.7941 255.4637 390.2047 254.2617 392.3779 232.1652 390.0398 231.3815 397.1805 209.9959 402.8995 211.7896 Z" id="fips-36065"/>
<path d="M 137.0838 220.3916 136.6754 229.6258 136.8653 241.325 135.9601 253.1289 135.8797 258.5186 135.0506 259.4431 132.553 259.2547 131.457 257.1059 130.3319 258.3145 128.4254 258.6707 127.404 257.6571 124.8708 258.1238 123.8217 260.2052 122.0581 260.2888 120.6663 258.1557 118.4243 256.8002 117.7268 258.9756 116.1485 258.1332 114.3376 258.8951 112.9781 258.0253 110.7715 258.6572 109.9508 257.9289 108.259 260.0064 102.5198 260.4103 100.4462 262.2529 99.5624 262.3961 100.011 264.3443 99.6998 265.1181 98.605 266.5198 93.9765 265.9538 93.6108 265.9874 93.1273 262.9688 92.221 261.9333 91.6805 261.4817 88.423 259.7019 82.0959 259.0958 81.1018 259.4963 75.7621 257.715 75.7709 257.001 76.2933 256.318 76.8039 255.6837 77.3103 254.0991 77.2338 253.2838 77.2017 252.707 77.1745 252.0536 77.4276 251.4401 77.7774 251.1767 78.2655 250.4885 78.541 250.1 79.0888 249.7171 79.2871 248.9685 79.2684 248.2245 79.124 247.6646 78.9779 246.4289 78.8039 246.111 78.4019 244.8783 78.5067 243.5313 78.7625 241.6821 78.5987 240.0133 78.664 238.8373 78.6911 238.35 78.4886 236.112 78.0182 234.3636 77.189 232.8288 82.2193 231.5174 86.9691 230.6869 91.0667 229.229 98.1653 227.1159 100.4704 226.1917 100.6815 226.3214 106.2524 225.2505 109.2916 224.3517 114.2578 223.6311 120.4675 221.6463 129.0486 220.342 134.8111 219.8368 135.43 219.9037 136.3372 220.4229 137.0838 220.3916 Z" id="fips-36063"/>
<path d="M 324.4699 371.7607 330.9 371.9143 330.8226 374.2589 336.6458 374.4236 336.8071 366.9464 343.2391 367.0174 343.2524 368.3475 349.4822 368.4294 349.4742 369.977 353.2714 370.0193 353.1795 366.2087 354.5707 362.6464 354.1409 360.9798 348.4424 358.0536 348.9322 355.3798 353.0665 355.0456 365.3481 354.7587 368.1147 368.2693 367.6009 371.3767 369.4773 372.5495 370.1654 375.3439 368.5712 375.4202 370.0989 379.0683 369.5103 384.9563 366.5539 385.107 366.7469 389.4544 367.2522 396.4997 367.1921 400.0777 367.5702 405.9099 367.4425 410.3251 365.651 410.3011 364.898 410.2963 363.4614 410.2926 343.5745 410.2159 342.9549 410.2018 331.6929 410.0226 331.2531 410.0058 330.6021 409.9882 322.1167 409.7546 323.8124 402.8102 322.137 392.0546 321.842 388.7217 324.4641 388.8196 324.6791 376.0405 324.4699 371.7607 Z" id="fips-36107"/>
<path d="M 501.0032 293.3711 503.0907 275.3446 502.7552 274.9669 502.7034 270.737 501.0931 268.5007 522.6583 276.6156 527.9445 276.6033 566.5957 276.2996 566.6605 276.7786 567.1041 279.9455 568.0302 286.8758 568.0509 287.8957 551.2656 299.654 550.618 301.7392 548.0563 303.4983 535.99 304.6647 531.6836 305.1983 520.9586 299.9443 512.4344 297.7976 502.2012 293.8424 501.0032 293.3711 Z" id="fips-36057"/>
<path d="M 365.3481 354.7587 372.5811 354.5849 376.2174 354.9561 391.8827 354.1607 393.0457 363.6635 393.8377 375.2277 394.5603 377.3122 396.2731 376.6797 405.9772 376.6542 414.3711 376.751 414.4865 383.9143 429.8381 383.9678 436.3617 383.9769 436.2499 389.9979 436.0683 404.6335 438.0417 410.3847 435.0581 410.3956 434.6312 410.3978 430.5246 410.3973 429.9219 410.4182 429.863 410.4202 422.9057 410.4477 417.1623 410.466 403.9273 410.6014 400.8041 410.5638 391.038 410.439 382.2354 410.3834 380.0438 410.3681 379.7597 410.3668 372.0332 410.3427 367.4425 410.3251 367.5702 405.9099 367.1921 400.0777 367.2522 396.4997 366.7469 389.4544 366.5539 385.107 369.5103 384.9563 370.0989 379.0683 368.5712 375.4202 370.1654 375.3439 369.4773 372.5495 367.6009 371.3767 368.1147 368.2693 365.3481 354.7587 Z" id="fips-36007"/>
<path d="M 206.8209 344.032 207.2703 335.42 213.1663 335.5667 213.4544 329.4501 230.2392 330.2665 233.7415 330.3977 242.5968 330.6599 254.8942 330.9089 264.7313 331.0288 264.098 334.1228 263.9741 341.3855 266.1786 341.8055 268.1582 340.692 268.1441 343.6624 268.3904 372.2147 270.8818 371.8376 281.8498 371.6156 281.643 382.325 281.1797 409.0358 276.9851 409.0278 276.9753 409.0237 271.3532 408.9798 265.2305 409.0147 231.9461 408.2648 227.0595 408.1437 216.5567 407.9732 202.5258 407.7251 204.0234 381.6416 204.7978 369.5985 205.7899 353.0918 206.8209 344.032 Z" id="fips-36101"/>
<path d="M 589.7842 554.7146 593.8652 556.197 595.7344 556.8898 596.4568 555.6151 597.0387 556.1059 597.9552 557.7215 599.105 558.1395 599.4316 558.2566 599.5099 558.0751 603.5721 559.3545 605.2718 559.8955 604.9722 562.1244 605.4113 562.5215 605.543 562.9355 605.4769 564.1876 605.1086 564.2362 604.5077 564.0073 604.0204 564.2733 603.9448 565.04 603.8084 565.2171 603.679 565.3286 603.5192 565.1689 603.2199 564.6312 602.9191 564.0282 603.062 563.3722 602.7699 562.7799 602.6142 562.8159 602.2697 563.2804 602.0474 563.8478 601.2909 563.665 600.6966 564.0506 600.4463 565.6225 600.4951 566.1686 600.8494 566.932 601.6209 567.8356 602.363 568.2177 603.5166 570.1012 602.7905 570.2622 600.9645 569.624 599.3051 569.8563 597.3647 570.2898 595.7074 570.7768 594.9121 571.9555 594.8509 572.2616 593.4542 572.3053 592.7415 571.8193 590.6552 571.0918 590.5341 571.0011 589.0242 570.0779 588.6485 569.542 588.5571 569.0525 588.565 567.9746 588.4681 566.8087 588.4542 565.7938 589.0093 564.3147 589.6091 563.2048 589.7984 562.8256 590.6363 561.5871 591.0113 560.6447 590.8416 560.0736 590.659 559.8971 590.169 560.3747 588.2944 559.5351 588.7241 558.5144 589.6113 555.2712 589.613 555.2635 589.7335 554.7291 589.7842 554.7146 Z" id="fips-36005"/>
<path d="M 222.511 280.568 232.1751 280.8983 232.1659 268.5544 243.4052 268.7814 255.7036 269.0362 255.8286 268.35 266.8146 268.5414 266.8366 272.2451 283.5638 272.4401 283.3114 291.3696 281.8031 291.8679 281.5666 293.4855 282.227 296.645 281.6542 304.8062 282.278 306.034 267.2379 305.8938 248.4205 305.8113 248.2702 306.0962 245.9033 309.6217 244.2253 314.0028 242.7956 318.3078 242.7703 320.0353 242.5968 330.6599 233.7415 330.3977 230.2392 330.2665 230.5452 320.9499 230.9186 317.7234 219.8177 317.2388 218.8361 304.8978 221.1588 304.9809 221.471 292.6919 225.0393 292.7685 225.6384 291.185 223.7824 281.6314 222.511 280.568 Z" id="fips-36069"/>
<path d="M 512.4344 297.7976 520.9586 299.9443 531.6836 305.1983 535.99 304.6647 548.0563 303.4983 550.618 301.7392 552.1544 303.3303 551.1497 307.051 548.3567 307.1557 546.558 308.4378 549.9027 312.8589 553.1108 312.1794 558.64 312.9559 558.9933 310.5896 560.5688 312.2877 560.1818 319.0164 557.9311 325.5936 554.0025 331.5066 553.3031 334.8783 554.0425 336.6166 554.9407 338.1464 554.7257 342.4739 553.1895 345.7551 551.2645 352.5916 551.4304 354.3087 552.3416 354.1484 553.3662 358.3243 551.9168 358.0831 550.209 360.2392 543.2982 361.3788 539.9749 358.9725 533.5817 361.6085 515.9774 352.4646 506.6097 339.9559 510.4368 333.6152 514.4968 325.1686 514.0665 322.3198 510.6494 308.464 510.7991 302.9043 512.4344 297.7976 Z" id="fips-36095"/>
<path d="M 81.1018 259.4963 82.0959 259.0958 88.423 259.7019 91.6805 261.4817 92.221 261.9333 93.1273 262.9688 93.6108 265.9874 93.9765 265.9538 98.605 266.5198 99.6998 265.1181 100.011 264.3443 99.5624 262.3961 100.4462 262.2529 102.5198 260.4103 108.259 260.0064 109.9508 257.9289 110.7715 258.6572 112.9781 258.0253 114.3376 258.8951 116.1485 258.1332 117.7268 258.9756 118.4243 256.8002 120.6663 258.1557 122.0581 260.2888 123.8217 260.2052 124.8708 258.1238 127.404 257.6571 128.4254 258.6707 130.3319 258.3145 131.457 257.1059 132.553 259.2547 135.0506 259.4431 135.8797 258.5186 135.2829 276.621 134.8675 288.3729 132.7067 288.2624 132.1171 300.0051 134.5815 300.1164 133.3941 333.0563 126.9996 334.7739 123.4079 336.3959 119.9884 335.8101 118.4521 337.0638 115.8477 337.6102 115.1195 338.5572 113.4621 338.283 110.0271 340.9262 109.6194 339.0994 105.9035 339.608 105.705 340.6498 103.2892 340.8632 101.5008 342.8753 100.1655 341.8113 95.9088 344.2098 91.7947 344.316 91.1292 344.7876 89.5711 343.2309 87.6148 344.063 87.7273 342.4917 85.6571 340.475 84.0685 339.8716 83.2349 336.9552 81.3425 335.3137 81.2254 333.093 76.8941 329.9989 74.1157 330.6181 69.6281 326.0926 66.7537 326.0087 67.5712 323.3228 67.9117 323.1867 68.3608 322.76 69.2411 321.2077 69.5156 320.2241 72.8972 316.7569 73.4419 316.7929 74.4103 316.1843 74.6895 313.0067 76.1321 310.2554 79.1718 308.7042 80.4461 308.3506 81.9362 308.3028 84.1186 306.7559 86.7337 304.9009 89.3361 304.288 94.4194 300.0284 95.9851 298.2381 96.2334 297.1938 95.7732 296.0275 95.4885 295.9624 95.3518 295.3221 95.128 294.2729 95.0019 292.4169 95.5608 291.3101 95.6912 290.4709 95.1423 288.9633 94.4916 288.8099 93.5443 286.8877 92.7383 284.4798 90.6928 284.168 91.4256 282.3863 91.5595 279.2297 91.2667 277.8804 90.9742 277.2615 90.3819 276.0079 89.098 274.7409 86.208 274.3691 84.9556 272.8325 81.4462 270.461 80.6702 269.1457 80.6834 266.507 81.6662 264.5648 82.4156 262.1494 82.4432 260.7756 81.9822 259.7897 81.1018 259.4963 Z" id="fips-36029"/>
<path d="M 579.7372 586.9023 580.427 586.6677 581.1187 586.1319 581.8726 585.5623 582.499 583.6361 584.0572 583.4105 584.7075 582.911 585.3284 581.7467 585.4218 581.6055 585.7117 581.0875 585.7381 579.7773 585.6935 579.1912 586.5633 578.8209 588.8494 580.2521 589.1183 580.3415 589.2661 580.5121 589.653 581.378 589.6468 581.5784 589.7684 581.78 589.8124 581.8528 590.7306 583.4173 591.2853 584.2825 592.5807 586.3963 594.2876 585.1864 595.3935 584.6893 595.7025 586.3973 595.9339 586.501 595.9834 586.7378 596.1583 587.1041 596.2028 587.3177 596.589 587.7638 596.9327 591.6103 597.6159 591.5391 599.2236 593.5647 599.1349 596.4094 597.6078 598.9408 594.0377 601.0273 589.0953 601.7348 589.2663 600.8245 588.5933 600.9211 588.2223 600.9744 587.1395 601.1297 586.4176 601.2332 585.7715 601.3257 584.3814 601.5247 583.1514 601.7005 581.0215 601.1772 582.0152 600.0531 582.1808 599.8657 581.8658 598.2972 581.307 598.0937 581.2213 598.0624 578.8141 597.185 578.4619 596.6221 578.4222 596.5587 578.1037 596.0496 577.7862 594.448 577.9171 593.8895 578.1745 592.791 578.4193 592.2851 578.4559 592.2096 578.513 592.0915 578.5606 591.9932 578.5767 591.9598 578.626 591.858 578.6508 591.8068 578.7941 591.5104 579.0627 591.1767 579.2747 590.9133 579.3812 590.7808 580.1763 589.7926 579.9038 587.1325 579.7372 586.9023 Z" id="fips-36047"/>
<path d="M 448.3572 309.8106 449.9201 308.3953 450.5954 305.9704 452.7433 304.3311 452.5563 302.8281 453.8911 297.6203 453.1856 296.2342 453.0842 293.5083 453.3516 292.9779 453.0369 292.5781 453.5827 291.775 456.5747 291.4327 456.7391 294.5946 463.7413 294.1261 467.5496 287.5422 482.0684 295.8074 486.8518 298.6697 488.0386 297.7001 489.5316 288.746 501.0032 293.3711 502.2012 293.8424 512.4344 297.7976 510.7991 302.9043 510.6494 308.464 514.0665 322.3198 514.4968 325.1686 510.4368 333.6152 506.6097 339.9559 503.3797 340.2458 500.5257 341.723 500.0377 341.5714 493.4272 340.7873 481.0729 346.8505 478.7395 350.6415 476.1809 348.8017 476.0188 352.2049 472.106 352.0155 468.692 353.3875 458.383 361.8548 458.9954 358.946 456.3425 360.6398 453.9814 360.964 451.9603 360.7563 451.2169 362.8331 448.8653 364.4383 447.4171 366.9002 444.0209 367.7879 440.4063 366.8055 436.6379 367.8942 438.3271 364.9318 438.7271 362.5967 437.4793 358.8966 438.8799 356.1753 440.6657 354.1341 439.501 350.2228 438.2082 348.0553 437.6714 345.6196 438.6001 344.5508 437.7624 341.6254 439.1846 341.2801 441.3674 335.6964 444.336 334.3657 445.3786 332.2679 444.3171 327.476 445.7223 326.1461 445.4742 323.0052 444.9644 319.2612 446.6559 317.1562 448.3063 313.2474 448.3572 309.8106 Z" id="fips-36077"/>
<path d="M 559.5115 223.9484 586.5751 219.8617 587.8742 223.2816 587.4636 224.2895 589.7077 227.9397 589.1686 228.9542 591.4029 232.1095 592.4956 232.2571 592.5548 236.2073 591.6515 237.6108 591.9057 239.8381 594.8675 239.6381 596.2183 240.4059 598.3143 243.3428 598.8516 242.919 600.723 240.538 601.2855 237.1971 604.3854 235.565 606.4045 235.2581 606.8591 237.0711 608.7775 236.2843 607.3542 234.6693 607.7111 233.5697 609.7468 234.0066 610.4767 232.0179 615.1643 231.6449 615.7851 232.383 614.7263 236.7356 615.8818 237.3588 615.1551 239.9748 617.0206 244.7294 616.4398 246.8753 616.9424 248.1305 616.1067 249.9419 617.1108 252.2935 616.131 254.8347 617.5149 256.863 617.7078 258.4005 617.6289 265.3943 616.8915 266.2303 615.9145 271.9401 614.6938 275.5182 612.6443 277.1335 612.3393 280.9828 610.8481 281.4242 609.8999 282.2218 608.1402 284.9957 607.7015 286.4885 607.6404 287.6347 608.8156 290.0064 608.5992 292.24 610.3285 297.548 610.2099 299.7117 609.1437 300.7067 608.7457 302.4058 607.4325 303.4891 605.3557 301.0239 604.423 300.0724 604.0876 297.4599 602.6757 297.6533 599.6263 302.2578 598.4987 301.4314 595.6248 303.2902 594.3532 303.1268 588.8856 295.9484 588.2556 293.7193 586.8532 293.7207 585.8544 285.6264 580.8425 287.597 575.7871 282.8086 570.817 280.2283 567.1041 279.9455 566.6605 276.7786 566.5957 276.2996 563.5378 253.2667 561.7458 239.7836 559.5115 223.9484 Z" id="fips-36091"/>
<path d="M 542.6879 464.6337 545.344 464.1356 548.9328 461.2632 552.9755 458.8542 554.4056 459.2776 554.3132 462.5123 560.8144 464.3743 567.0025 465.3821 566.1071 460.9222 569.7453 461.9971 570.6494 463.1497 572.8334 462.1114 574.3477 465.5117 576.0161 465.2873 584.4575 464.0557 584.3353 465.1633 581.0711 470.5223 580.452 472.6164 580.2006 473.6997 580.2423 478.0104 580.1939 478.9006 580.1228 482.358 581.994 484.4983 584.3535 489.6451 585.5669 490.3877 584.2709 496.6532 582.2916 499.9104 573.5093 508.5649 570.5818 511.4513 564.2932 517.6357 557.0346 524.9042 557.0228 524.8981 552.345 522.2634 550.0997 520.9973 548.1497 519.7043 543.4036 516.9031 542.2169 516.202 534.1567 511.0198 529.8594 508.4963 518.8493 501.8261 515.3596 499.8276 509.9151 496.5748 509.7649 496.5878 510.2999 496.177 510.4308 496.0112 510.453 495.7025 510.2847 495.2345 509.8914 494.8193 509.0426 494.1991 508.513 493.6907 508.3128 493.2608 507.9962 492.2232 507.7324 491.8521 507.232 491.573 506.2693 491.4521 505.9378 491.278 505.6865 491.0885 505.4345 490.714 505.1853 490.1863 505.1053 489.8145 505.1645 489.3371 505.4049 489.0579 505.7928 487.8073 505.7722 487.3865 505.7066 487.1649 505.5859 486.9281 505.4052 486.7392 505.1537 486.6718 504.862 486.7456 504.1713 487.1104 503.8026 487.497 503.7674 487.5181 502.9502 484.215 504.1088 482.2883 503.0539 478.6602 503.9107 478.2368 526.4099 476.8136 531.8794 476.5275 533.9584 472.5333 537.458 468.1307 538.5555 466.8262 542.6879 464.6337 Z" id="fips-36071"/>
<path d="M 587.3367 391.4504 589.0656 385.9818 592.7072 382.6825 593.3436 377.4121 594.5706 375.8021 597.7557 374.1717 599.6208 369.4458 599.6073 364.5017 598.2746 357.7628 599.9613 350.3189 599.8248 346.0158 599.0752 345.707 605.5992 344.6833 641.8325 338.4945 639.0485 349.9614 630.691 384.1619 627.7583 396.0851 629.0074 400.9942 626.548 401.0159 626.2162 410.7451 607.6912 407.466 596.7854 402.1333 587.7531 397.8808 585.5675 398.0367 586.3024 393.8028 587.3367 391.4504 Z" id="fips-36021"/>
<path d="M 309.1224 335.7889 320.1335 335.5044 316.9535 333.2058 314.3033 329.79 312.248 325.4772 317.4361 325.7244 332.8837 325.1796 332.9171 326.3683 352.0781 325.8712 353.0665 355.0456 348.9322 355.3798 348.4424 358.0536 354.1409 360.9798 354.5707 362.6464 353.1795 366.2087 353.2714 370.0193 349.4742 369.977 349.4822 368.4294 343.2524 368.3475 343.2391 367.0174 336.8071 366.9464 336.6458 374.4236 330.8226 374.2589 330.9 371.9143 324.4699 371.7607 316.3862 371.518 309.1876 371.2311 309.4273 359.2295 309.9118 358.9804 309.1224 335.7889 Z" id="fips-36109"/>
<path d="M 463.8109 430.333 478.7514 421.1159 500.3807 407.7186 511.145 413.6423 513.0626 414.701 533.4319 426.3403 530.1612 431.829 526.3454 437.0689 521.4383 444.0904 539.7674 457.4662 541.7572 463.6736 542.95 464.2153 542.6879 464.6337 538.5555 466.8262 537.458 468.1307 533.9584 472.5333 531.8794 476.5275 526.4099 476.8136 503.9107 478.2368 503.0539 478.6602 504.1088 482.2883 502.9502 484.215 503.7674 487.5181 503.377 487.7523 502.8589 487.7136 502.1521 487.3672 501.8898 487.3533 501.4066 487.5264 500.7712 487.898 500.1569 488.0034 499.8075 487.8702 499.6499 487.6951 499.2207 486.7124 499.1635 486.5279 499.1314 486.0694 499.0424 485.7949 498.5891 485.2592 498.3931 485.1603 497.9334 485.1464 497.3422 485.4862 496.8522 485.9919 496.5394 486.6772 496.2814 486.8197 496.0712 486.8479 495.6696 486.812 495.4379 486.7022 494.5546 485.9067 494.2449 485.5583 493.6749 485.1602 493.2304 484.9939 492.6126 485.0578 491.3989 485.5616 490.1898 485.8525 489.6605 485.7664 489.4456 485.6255 489.4054 485.33 489.5496 484.7997 490.1366 484.1001 490.131 483.9262 490.0023 483.5507 489.8228 483.3315 489.5224 483.1679 488.5968 482.9574 488.3235 482.7808 488.1967 482.3083 488.19 481.8389 488.0793 481.2569 487.7385 480.8319 487.255 480.642 486.566 480.6344 486.2873 480.4761 485.7016 479.9414 484.7685 479.7842 484.3809 479.8316 484.1361 480.1828 483.2973 480.7143 483.1106 480.7615 481.9335 480.6297 480.7411 480.3001 480.5693 480.1732 480.3984 479.7953 480.3366 479.5042 480.3687 479.0653 480.6432 478.0707 480.6711 477.7979 480.6468 477.4613 480.4405 476.7029 480.3097 476.5264 480.1075 476.4182 479.4758 476.4206 478.8989 476.6075 478.5404 476.5154 478.4844 476.3546 478.4815 476.1086 478.5909 475.6432 478.7556 475.2266 478.7565 475.0033 478.7162 474.8203 478.455 474.3629 477.8746 473.7719 477.3295 473.3791 477.1573 473.2843 476.5094 473.1487 476.3885 473.032 476.3319 472.8865 476.3235 472.2518 476.5211 472.0271 477.0456 471.851 477.194 471.6459 477.1734 471.3417 476.9467 470.6277 476.0452 469.0493 475.8556 468.9026 475.456 468.8439 475.0677 468.5823 474.7118 468.2284 474.3648 467.501 474.0668 466.4009 473.4472 465.7957 472.7222 465.3898 472.3489 464.8622 472.014 464.2314 471.7338 463.9278 471.2357 463.3882 471.2326 463.092 471.53 462.8747 471.9203 462.7856 472.4334 462.8504 472.7344 462.6917 472.7098 462.4887 472.5337 462.063 472.5445 461.9332 472.6911 461.7901 473.3208 461.6277 473.5225 461.6937 473.8747 461.9844 473.9845 462.01 474.1649 461.9532 474.2929 461.7128 474.3549 460.9481 473.8797 459.8212 473.8319 459.5826 473.7621 458.4923 473.81 456.5407 473.6799 455.6994 473.2645 454.941 472.9351 454.8433 472.8156 454.7469 472.7224 454.3875 472.7778 454.1048 473.3907 453.5576 473.5274 453.3509 473.5304 453.0164 473.3739 452.2136 472.9635 451.2295 472.6492 450.6898 471.8936 449.9227 471.7349 449.5556 471.7522 449.2875 471.9529 448.9566 472.5025 448.9063 473.4057 449.1083 473.5601 449.0299 473.6423 448.8485 473.6572 448.6076 473.2611 446.9826 473.1242 445.9011 473.3186 444.6097 473.2492 443.5555 472.5009 441.9269 472.0821 441.6531 471.7124 441.5728 471.2986 441.3716 471.1394 441.1417 470.9663 441.0077 470.6105 441.0522 469.2703 441.4442 469.0044 441.4451 468.446 441.3465 468.1924 441.0622 468.1065 440.8663 468.0746 440.6627 468.1361 440.0387 468.1785 439.6084 468.2977 439.001 468.3838 438.8063 469.2415 437.6612 469.6984 437.5035 470.395 437.6411 470.7108 437.5064 470.849 437.3649 471.0952 436.8663 471.316 436.0366 471.3551 435.5539 471.3112 435.307 471.085 435.1253 470.7173 435.1244 470.5409 435.1655 469.9426 435.5997 469.5709 435.6087 469.1616 435.3683 468.5049 434.701 467.1623 434.1101 467.0089 433.7211 466.9765 433.5033 466.9892 433.0962 467.1413 432.2856 467.1452 431.6916 467.0394 431.3028 466.918 431.161 466.5962 431.0034 465.6792 431.1322 465.3703 431.1013 464.4341 430.1705 464.074 430.2185 463.8109 430.333 Z" id="fips-36105"/>
<path d="M 577.1309 585.6008 577.7654 584.2918 579.4125 583.0037 579.6859 580.8383 579.7195 580.5716 579.7233 580.5493 579.8437 579.8495 580.1079 578.3121 580.3985 576.6207 580.7859 575.8059 580.8517 575.6675 580.9409 575.4966 581.5338 574.3605 581.6214 574.1927 582.3693 572.759 582.939 571.6668 583.2704 571.0311 583.3564 570.8663 584.5998 568.4803 584.7162 568.2569 584.9102 567.8845 584.92 567.8674 584.9209 567.8658 585.395 567.0384 586.2812 564.1737 586.8368 562.7594 587.8292 560.5558 587.8363 560.54 588.2944 559.5351 590.169 560.3747 590.659 559.8971 590.8416 560.0736 591.0113 560.6447 590.6363 561.5871 589.7984 562.8256 589.6091 563.2048 589.0093 564.3147 588.4542 565.7938 588.4681 566.8087 588.565 567.9746 588.5571 569.0525 588.6485 569.542 589.0242 570.0779 590.5341 571.0011 590.6552 571.0918 590.2042 572.7071 589.8194 573.0446 589.0881 573.7136 588.458 573.565 588.3843 574.5931 585.9059 578.1468 585.7906 578.3797 585.6935 579.1912 585.7381 579.7773 585.7117 581.0875 585.4218 581.6055 585.3284 581.7467 584.7075 582.911 584.0572 583.4105 582.499 583.6361 581.8726 585.5623 581.1187 586.1319 580.427 586.6677 579.7372 586.9023 579.3815 586.4108 577.4312 585.8599 577.2506 585.765 577.1309 585.6008 Z" id="fips-36061"/>
<path d="M 557.0346 524.9042 564.2932 517.6357 570.5818 511.4513 573.5093 508.5649 582.2916 499.9104 582.1775 500.3176 584.0681 503.2509 585.9053 504.3894 583.907 507.6411 583.5601 510.253 585.939 513.5532 587.659 515.9635 588.7012 518.4678 590.0195 521.3966 591.7629 523.2242 592.3187 526.1555 591.782 530.9579 591.7399 533.9964 592.3767 538.4638 592.0343 542.8302 592.0149 543.9239 591.1284 543.9283 590.8903 543.8934 590.6798 543.7782 590.1809 543.4074 585.337 540.663 576.8852 535.8637 576.8847 535.8635 571.5973 532.8812 571.1554 532.6327 562.3636 527.6832 561.0356 526.9912 559.3914 526.1339 557.0346 524.9042 Z" id="fips-36087"/>
<path d="M 436.3617 383.9769 436.5683 372.2809 436.6379 367.8942 440.4063 366.8055 444.0209 367.7879 447.4171 366.9002 448.8653 364.4383 451.2169 362.8331 451.9603 360.7563 453.9814 360.964 456.3425 360.6398 458.9954 358.946 458.383 361.8548 468.692 353.3875 472.106 352.0155 476.0188 352.2049 476.1809 348.8017 478.7395 350.6415 481.0729 346.8505 493.4272 340.7873 500.0377 341.5714 500.5257 341.723 503.3797 340.2458 506.6097 339.9559 515.9774 352.4646 533.5817 361.6085 535.1199 362.3896 524.4819 382.4663 533.0999 386.7009 527.9122 390.0515 525.207 389.8762 523.509 392.4721 522.9849 393.2782 511.4391 400.6588 500.3807 407.7186 478.7514 421.1159 463.8109 430.333 463.1637 430.6516 462.8004 430.6855 462.2936 430.4845 462.0282 430.2496 461.8206 429.9434 461.5639 429.2163 461.6271 428.165 461.5154 427.7272 461.3715 427.5501 460.9677 427.4101 460.7609 427.4501 460.5111 427.7802 460.3768 428.3553 460.2007 428.8262 460.0343 429.0542 459.9022 429.1338 459.7272 429.1105 459.5359 428.9555 459.403 428.7955 459.2768 428.4439 458.9797 428.1451 458.6315 427.9416 458.0109 427.8014 457.4343 427.8874 456.9096 428.1329 456.3954 429.0687 456.0343 429.4858 455.8346 429.4833 455.2409 429.2189 454.9428 428.9354 454.5204 428.3796 454.2792 428.1891 454.057 428.2228 453.5864 428.7074 453.2701 428.8788 452.6036 428.8661 452.331 428.645 452.101 428.3202 452.0125 428.0651 451.9968 427.7072 452.2294 427.3661 452.535 427.1205 452.6219 426.8473 452.3108 425.9475 452.0707 425.7694 451.5894 425.6535 451.2366 425.4688 451.1041 424.6852 451.0823 424.1529 451.5827 423.495 451.6013 422.8087 451.3806 422.2279 450.8106 421.123 450.6903 420.7665 450.6932 420.1629 450.6152 419.2292 450.4266 418.5118 449.3914 417.9792 449.2314 417.6898 449.1504 417.4129 449.1812 416.6858 448.9509 416.401 448.4623 416.4125 448.279 416.5009 448.1606 416.6444 448.1985 417.1722 448.1555 417.2426 447.9244 417.2655 447.2822 417.1603 447.0347 417.0032 446.4956 416.4577 446.3048 415.5631 446.0691 415.4524 445.3702 414.5719 444.7215 414.2927 444.3482 414.2303 444.0748 413.9495 444.0485 413.7564 444.513 412.3938 444.5311 412.0813 444.1751 411.2627 443.6279 410.9198 442.9312 410.6807 442.3208 410.3672 438.0417 410.3847 436.0683 404.6335 436.2499 389.9979 436.3617 383.9769 Z" id="fips-36025"/>
<path d="M 331.7111 244.1393 344.957 243.5722 348.7114 243.9043 351.1784 247.8889 353.0646 245.5578 351.7586 242.8065 353.3899 242.995 354.7726 246.0978 356.7505 247.4089 359.7342 245.797 358.1512 242.1487 358.1537 238.8449 358.9684 238.4369 363.3592 242.2845 367.6123 243.7607 372.1492 246.4673 370.5351 246.3022 371.1199 248.2534 374.2969 247.9003 378.3087 251.0004 379.4751 250.4627 381.6392 254.3526 382.0132 257.0303 383.6899 257.3438 383.1146 259.691 382.1739 259.0923 381.0993 261.3172 381.1897 262.9537 383.5582 263.4536 386.6742 263.1326 386.8906 263.6183 387.5266 276.6856 388.8665 303.4843 359.1411 305.5173 351.3353 305.9269 351.2784 304.6825 348.302 300.2201 343.2741 295.3002 334.0222 295.7141 333.4421 284.3936 332.9983 274.0203 330.1391 274.1729 329.6995 260.9772 332.2641 260.4099 330.9053 255.6497 332.2016 255.149 331.7111 244.1393 Z" id="fips-36067"/>
<path d="M 74.1157 330.6181 76.8941 329.9989 81.2254 333.093 81.3425 335.3137 83.2349 336.9552 84.0685 339.8716 85.6571 340.475 87.7273 342.4917 87.6148 344.063 89.5711 343.2309 91.1292 344.7876 91.7947 344.316 95.9088 344.2098 100.1655 341.8113 101.5008 342.8753 103.2892 340.8632 105.705 340.6498 105.9035 339.608 109.6194 339.0994 110.0271 340.9262 113.4621 338.283 115.1195 338.5572 115.8477 337.6102 118.4521 337.0638 119.9884 335.8101 123.4079 336.3959 126.9996 334.7739 133.3941 333.0563 133.2545 335.3705 148.7411 335.6074 146.5702 406.021 117.6585 404.9764 102.3098 404.6535 89.7837 404.2486 85.3694 403.9988 78.9419 403.6309 71.1111 403.2698 74.1157 330.6181 Z" id="fips-36009"/>
</g>
</svg>