<?xml version="1.0"?>
<svg xmlns="http://www.w3.org/2000/svg" version="1.2" baseProfile="tiny" width="800" height="871" viewBox="0 0 800 871" stroke-linecap="round" stroke-linejoin="round">
<g id="cb_2018_us_county_5m">
<path d="M 180.5081 664.7734 186.3603 665.24 186.0186 670.6556 190.1386 670.7704 192.5114 668.7386 195.7007 661.2029 232.2823 633.5898 273.0644 634.2643 272.5708 641.4163 270.4657 648.205 272.1787 655.1697 268.924 660.682 271.2632 665.1568 274.7638 667.3695 278.0339 664.9682 278.2864 669.1749 276.3423 677.7775 270.0691 712.1629 227.5465 720.5638 216.0087 720.07 209.9363 719.7801 188.9822 719.8162 178.5856 719.4094 179.1516 711.1402 180.5081 664.7734 Z" id="fips-39071"/>
<path d="M 375.7301 533.7221 376.2513 526.6423 379.7842 526.9651 380.399 518.0819 381.3072 505.7233 377.8356 505.5073 378.2701 498.3731 383.5182 498.7409 385.3031 498.8235 440.8448 502.2169 442.8092 500.9259 441.0911 523.462 455.1741 524.4254 453.8264 545.8231 460.9316 546.3011 459.4341 567.4841 437.8666 565.921 436.822 580.1578 414.1924 578.8054 413.7297 589.5967 393.1847 588.3769 392.9516 591.9129 372.1727 590.1938 373.2658 567.6744 375.7301 533.7221 Z" id="fips-39045"/>
<path d="M 267.4892 201.4276 267.8814 180.3351 285.4625 180.252 298.8509 180.792 320.2943 180.0907 373.3008 180.5111 373.569 189.7835 375.1393 243.0846 370.8167 243.7949 323.4326 243.7014 288.3322 243.6637 267.2794 243.7259 267.3994 210.2608 267.4892 201.4276 Z" id="fips-39147"/>
<path d="M 18.4785 69.4601 28.6209 69.1758 84.9487 68.7654 91.906 68.6683 91.697 90.161 94.78 90.28 94.4039 115.1341 101.4079 115.225 101.3046 122.1377 101.0838 136.1505 17.2803 134.7539 17.2809 134.7337 17.3425 132.4605 17.5532 119.719 17.6072 116.7836 17.749 109.5958 17.7492 109.5855 17.7498 109.5622 18.0394 89.5381 18.0632 88.7165 18.1681 85.1006 18.1778 84.8724 18.3288 74.6665 18.4785 69.4601 Z" id="fips-39171"/>
<path d="M 269.3127 120.7978 283.0149 120.6685 283.0824 131.2327 332.1571 131.5872 337.3803 131.5237 337.5989 131.5201 353.0464 131.3988 352.8985 138.186 361.9402 138.1358 371.9817 138.1486 372.5261 154.6188 373.0609 172.122 373.3008 180.5111 320.2943 180.0907 298.8509 180.792 285.4625 180.252 267.8814 180.3351 269.3127 120.7978 Z" id="fips-39143"/>
<path d="M 650.3387 430.3585 650.6384 408.5675 661.5736 408.6067 662.0507 377.1387 671.7123 377.4036 693.3271 377.2972 722.463 378.1659 736.5336 378.3064 735.6393 388.8418 734.6488 442.0768 692.6615 440.875 672.2337 440.0819 671.2224 440.7073 650.2182 440.5817 650.3387 430.3585 Z" id="fips-39067"/>
<path d="M 339.741 379.1305 340.5222 366.8663 351.2668 365.4115 351.3744 349.141 351.4908 330.3432 369.4759 327.785 369.7658 313.606 369.788 311.8153 393.8113 312.1323 400.7876 312.1731 412.1409 312.5573 412.3393 323.0262 408.8879 322.9583 409.0511 330.0172 412.604 330.0037 412.8364 351.1441 409.3101 351.1153 409.3079 357.8635 408.6656 400.6841 390.5212 399.5925 356.4879 397.4835 357.4069 383.7277 339.4925 382.7362 339.741 379.1305 Z" id="fips-39117"/>
<path d="M 504.0606 322.1705 549.7951 322.0548 591.4069 321.3832 591.6585 329.3652 588.0364 329.9509 588.4515 375.6624 581.1833 375.5267 547.4441 375.0783 546.3392 374.903 493.6525 373.5017 494.5009 345.2376 486.9677 346.4679 486.8911 340.0584 486.7316 322.4331 504.0606 322.1705 Z" id="fips-39075"/>
<path d="M 502.9652 243.9133 512.2232 244.0077 530.7086 244.153 583.4495 243.9599 590.8978 243.8785 591.1089 261.9074 591.3214 283.2486 591.4069 321.3832 549.7951 322.0548 504.0606 322.1705 503.9259 269.4347 503.3738 265.8976 502.9652 243.9133 Z" id="fips-39169"/>
<path d="M 323.4326 243.7014 370.8167 243.7949 375.1393 243.0846 394.2562 243.3372 393.8113 312.1323 369.788 311.8153 369.7658 313.606 327.174 314.0767 323.3636 313.9717 323.4326 243.7014 Z" id="fips-39033"/>
<path d="M 16.353 176.6993 79.2897 177.8426 79.1046 188.4948 100.1027 188.9935 99.9055 199.5137 99.0589 241.7897 88.5501 241.6836 14.8579 240.3304 14.9725 235.4507 15.4258 216.1733 15.6376 208.4097 15.6492 203.7877 15.8561 197.9553 15.8729 195.8863 15.8991 195.721 16.3528 176.7067 16.353 176.6993 Z" id="fips-39125"/>
<path d="M 636.3065 156.2615 706.8033 155.1527 706.8266 155.1525 707.245 173.5322 707.6216 190.2853 707.6303 190.6649 708.0066 206.8152 708.3358 224.249 708.8092 242.2158 693.3654 242.4474 675.6029 242.7214 673.4042 242.7602 672.0423 242.8358 643.8615 243.1163 637.3424 243.2599 637.2016 234.3354 637.1581 230.6582 637.1159 224.4769 637.0636 216.1961 637.0109 207.6616 636.5451 173.5802 636.3065 156.2615 Z" id="fips-39133"/>
<path d="M 147.4661 518.4301 168.6358 520.349 168.2693 523.9623 189.3964 525.7391 188.9593 531.7527 200.5934 533.4982 205.7239 535.9406 222.8625 537.412 222.7511 538.1285 222.421 539.8628 221.4633 551.6965 217.8959 591.9581 160.751 586.6644 145.876 585.1763 135.2122 584.1471 136.0402 574.374 135.8156 572.4555 139.2337 532.0382 140.1435 521.2472 147.1699 521.8717 147.4661 518.4301 Z" id="fips-39057"/>
<path d="M 305.1555 457.8395 311.8261 458.0704 311.9131 449.3247 340.1907 450.9802 341.2412 451.0825 342.3738 451.087 348.6408 451.4459 387.3763 453.7094 386.319 471.8071 385.1322 489.9229 383.5182 498.7409 378.2701 498.3731 377.8356 505.5073 381.3072 505.7233 380.399 518.0819 379.7842 526.9651 376.2513 526.6423 375.7301 533.7221 340.6481 531.367 320.7172 530.4577 297.8061 529.2039 296.4119 503.8333 301.3277 500.259 296.8238 491.0252 297.6386 486.9941 295.0771 482.8044 295.9892 472.1737 303.9788 472.2639 304.3 468.1036 305.1555 457.8395 Z" id="fips-39049"/>
<path d="M 78.7631 433.401 103.461 433.5534 118.2807 433.405 118.1737 434.493 154.3736 437.8652 151.4266 472.597 148.0781 511.3394 128.3953 509.5334 126.6713 503.1667 128.4558 500.5901 78.7038 500.5104 78.7413 437.3189 77.993 437.3138 78.7631 433.401 Z" id="fips-39109"/>
<path d="M 394.2562 243.3372 447.5536 243.9084 450.2832 243.901 450.6849 283.4038 449.8836 284.8802 452.2899 288.5647 455.8049 288.5711 455.6087 291.5088 457.5828 293.6297 457.7398 308.1612 464.9229 308.2442 465.1469 329.5719 465.5121 349.7671 458.5446 350.7941 412.8364 351.1441 412.604 330.0037 409.0511 330.0172 408.8879 322.9583 412.3393 323.0262 412.1409 312.5573 400.7876 312.1731 393.8113 312.1323 394.2562 243.3372 Z" id="fips-39139"/>
<path d="M 273.0644 634.2643 293.0837 600.826 344.2272 603.4525 346.809 604.7989 346.4362 607.4563 343.1606 609.8161 391.2272 612.7339 389.7494 636.9618 387.5785 668.5244 387.0535 675.7006 386.3354 685.421 382.7353 685.1763 372.5214 684.3804 315.4129 680.4364 276.3423 677.7775 278.2864 669.1749 278.0339 664.9682 274.7638 667.3695 271.2632 665.1568 268.924 660.682 272.1787 655.1697 270.4657 648.205 272.5708 641.4163 273.0644 634.2643 Z" id="fips-39141"/>
<path d="M 495.1614 226.6139 495.3456 208.8215 512.7624 208.8603 512.9778 193.5263 530.9152 193.3911 531.0175 175.2515 548.1813 175.0466 555.2583 174.853 560.9319 174.6777 579.6012 174.1849 583.2729 174.1688 583.3046 208.3176 583.4495 243.9599 530.7086 244.153 512.2232 244.0077 502.9652 243.9133 494.9277 243.9064 495.1614 226.6139 Z" id="fips-39103"/>
<path d="M 12.6452 341.2087 13.0862 323.6436 13.1643 319.9102 13.2426 316.4092 13.3378 312.8918 13.3552 312.3887 13.425 309.7119 13.5018 305.8122 13.5681 303.5047 76.9436 304.8413 76.7336 315.347 76.2586 343.6359 76.2062 347.1763 75.8271 371.8311 75.3133 394.2509 79.1686 395.3075 79.1224 395.3731 48.727 395.0061 11.0474 394.2667 11.0478 394.2457 11.3128 380.0474 11.7109 367.7156 11.7456 367.0295 12.1897 358.2317 12.3518 351.888 12.6452 341.2087 Z" id="fips-39107"/>
<path d="M 652.4211 324.5357 666.4571 324.5609 666.8989 306.8926 673.9538 305.4114 694.3545 305.3771 725.5267 304.9872 725.7641 325.1755 736.28 325.1749 736.2845 335.6177 736.219 346.2621 725.6801 346.2605 725.4434 367.6367 722.5748 367.604 722.463 378.1659 693.3271 377.2972 671.7123 377.4036 662.0507 377.1387 662.159 366.6798 662.4871 345.3074 652.0264 345.0869 652.4211 324.5357 Z" id="fips-39019"/>
<path d="M 247.9548 361.5508 266.6865 361.4319 297.9875 361.2161 297.9574 362.6762 297.819 376.4643 297.5572 424.7228 311.6057 424.8526 311.9131 449.3247 311.8261 458.0704 305.1555 457.8395 250.1426 456.5358 252.0901 428.979 241.6033 427.9387 245.3986 387.4753 247.9548 361.5508 Z" id="fips-39159"/>
<path d="M 88.4802 580.555 103.3644 580.9078 135.2122 584.1471 145.876 585.1763 160.751 586.6644 154.1106 662.5369 106.8712 657.9733 106.9824 657.2625 107.4419 656.623 106.3227 653.7173 92.9914 652.2846 89.4124 652.4603 92.145 623.4533 93.1685 612.8801 92.9478 608.6876 93.1522 606.5563 93.3813 603.1065 94.4866 590.5689 88.3698 591.5951 88.4802 580.555 Z" id="fips-39165"/>
<path d="M 221.4633 551.6965 296.0129 557.5066 293.0837 600.826 273.0644 634.2643 232.2823 633.5898 235.3946 593.5189 233.6733 593.366 217.8959 591.9581 221.4633 551.6965 Z" id="fips-39047"/>
<path d="M 183.7293 200.2849 267.4892 201.4276 267.3994 210.2608 267.2794 243.7259 260.4276 243.7222 260.3694 254.1594 256.8779 254.163 256.7956 264.6632 249.8523 264.5651 249.448 285.6 182.8017 284.4246 183.0602 260.116 183.7293 200.2849 Z" id="fips-39063"/>
<path d="M 154.1106 662.5369 160.751 586.6644 217.8959 591.9581 233.6733 593.366 235.3946 593.5189 232.2823 633.5898 195.7007 661.2029 192.5114 668.7386 190.1386 670.7704 186.0186 670.6556 186.3603 665.24 180.5081 664.7734 156.6658 662.7757 154.1106 662.5369 Z" id="fips-39027"/>
<path d="M 297.819 376.4643 313.1789 377.7517 339.741 379.1305 339.4925 382.7362 357.4069 383.7277 356.4879 397.4835 390.5212 399.5925 389.4414 417.1537 387.3763 453.7094 348.6408 451.4459 342.3738 451.087 341.2412 451.0825 340.1907 450.9802 311.9131 449.3247 311.6057 424.8526 297.5572 424.7228 297.819 376.4643 Z" id="fips-39041"/>
<path d="M 635.614 102.7132 652.8217 102.3901 652.759 85.2343 671.5042 84.8147 687.6751 84.4986 687.1949 66.8882 704.9908 66.3533 705.8235 101.116 706.1044 117.9588 706.8033 155.1527 636.3065 156.2615 636.0138 137.8847 639.0941 137.8002 638.9763 132.7569 635.9811 132.8175 635.614 102.7132 Z" id="fips-39055"/>
<path d="M 98.7182 273.6165 140.9584 273.8814 141.1401 263.3047 162.0398 263.5405 162.0807 259.9667 183.0602 260.116 182.8017 284.4246 182.2139 326.8031 140.4493 326.5893 140.4841 322.993 119.4148 322.886 119.5262 315.8704 87.6242 315.5429 88.1233 283.8581 98.6038 284.0058 98.7182 273.6165 Z" id="fips-39003"/>
<path d="M 159.2241 365.5676 160.9713 353.0001 176.6546 353.1678 181.922 352.4356 181.9174 354.0918 186.3099 354.4935 248.0014 360.291 247.9548 361.5508 245.3986 387.4753 241.6033 427.9387 198.4419 423.6394 198.699 420.0545 156.1982 416.2389 157.1711 405.6771 158.3785 406.7236 158.4425 387.9878 158.9809 387.2104 159.2241 365.5676 Z" id="fips-39091"/>
<path d="M 91.906 68.6683 92.4479 68.6606 98.9492 68.6173 98.9726 68.6168 139.7926 67.801 160.5722 67.2182 164.2773 67.2354 182.1729 66.7269 185.6434 66.7441 185.6708 66.7424 185.8804 91.5438 184.8967 95.8225 184.4463 122.9659 142.4311 122.6537 101.3046 122.1377 101.4079 115.225 94.4039 115.1341 94.78 90.28 91.697 90.161 91.906 68.6683 Z" id="fips-39051"/>
<path d="M 581.1833 375.5267 588.4515 375.6624 588.0364 329.9509 591.6585 329.3652 609.1045 326.6729 624.9525 323.8747 626.4495 321.2138 630.3184 322.1401 628.69 324.438 652.4211 324.5357 652.0264 345.0869 662.4871 345.3074 662.159 366.6798 662.0507 377.1387 661.5736 408.6067 650.6384 408.5675 650.3387 430.3585 597.7586 429.3848 598.5479 393.863 580.8048 393.4237 581.1833 375.5267 Z" id="fips-39157"/>
<path d="M 580.6639 446.3111 589.0549 446.5023 589.4632 429.2044 597.7586 429.3848 650.3387 430.3585 650.2182 440.5817 671.2224 440.7073 670.5989 493.6472 649.5125 494.3028 642.4346 494.2334 642.2977 501.3224 628.3005 501.0174 628.1465 508.0222 606.8968 507.5507 606.7566 521.7217 585.6093 521.1246 585.9306 499.8065 578.9726 499.6503 580.6639 446.3111 Z" id="fips-39059"/>
<path d="M 475.545 632.898 477.1721 611.4362 498.2848 612.9155 499.6852 591.076 520.512 592.3229 519.1333 614.2864 558.5397 616.3258 557.1989 648.2748 560.7614 648.3854 560.6441 651.9552 564.1703 652.101 563.9138 659.2323 581.9983 659.7611 581.433 672.7691 581.1747 672.9575 580.6254 673.7336 580.0026 675.1954 579.5688 677.5218 579.3352 678.1125 578.5125 679.1469 576.961 679.9153 576.4219 680.3596 575.8689 681.2603 575.8586 681.3697 537.3984 679.7535 479.6996 676.5122 481.1551 654.9448 473.9962 654.4766 475.545 632.898 Z" id="fips-39009"/>
<path d="M 493.6525 373.5017 546.3392 374.903 547.4441 375.0783 581.1833 375.5267 580.8048 393.4237 598.5479 393.863 597.7586 429.3848 589.4632 429.2044 589.0549 446.5023 580.6639 446.3111 579.6061 446.1341 493.6076 443.5011 494.2956 426.1439 491.8785 426.0501 493.686 374.3734 493.6525 373.5017 Z" id="fips-39031"/>
<path d="M 382.7353 685.1763 386.3354 685.421 387.0535 675.7006 408.196 677.0772 407.9358 680.1489 429.512 682.2462 428.8034 691.0265 450.4941 692.5417 448.5753 717.4283 444.9721 763.5015 422.5129 761.4002 422.2902 763.5759 408.2631 762.4806 387.4204 761.0793 388.8052 739.1986 378.7042 738.538 382.7353 685.1763 Z" id="fips-39079"/>
<path d="M 222.7511 538.1285 233.7316 539.2692 238.2199 520.0971 248.4138 482.5376 247.6202 481.0105 250.1426 456.5358 305.1555 457.8395 304.3 468.1036 303.9788 472.2639 295.9892 472.1737 295.0771 482.8044 297.6386 486.9941 296.8238 491.0252 301.3277 500.259 296.4119 503.8333 297.8061 529.2039 296.0129 557.5066 221.4633 551.6965 222.421 539.8628 222.7511 538.1285 Z" id="fips-39097"/>
<path d="M 373.0609 172.122 463.7839 173.5632 463.551 191.0471 463.5452 193.2513 464.0695 196.6847 464.243 208.7883 465.0686 226.232 446.7564 226.3918 447.5536 243.9084 394.2562 243.3372 375.1393 243.0846 373.569 189.7835 373.3008 180.5111 373.0609 172.122 Z" id="fips-39077"/>
<path d="M 442.8092 500.9259 451.0035 502.8195 485.2743 504.892 498.5632 505.7546 497.2693 527.1978 515.3169 528.1711 514.7063 539.1241 514.1137 549.5978 524.5368 550.2425 521.9906 592.4588 520.512 592.3229 499.6852 591.076 480.2094 589.8409 480.4756 582.9577 458.4883 581.5686 459.4341 567.4841 460.9316 546.3011 453.8264 545.8231 455.1741 524.4254 441.0911 523.462 442.8092 500.9259 Z" id="fips-39127"/>
<path d="M 617.7393 88.065 621.7622 83.704 625.9033 77.815 635.5332 69.478 641.8456 64.4006 651.0676 58.7421 653.6807 56.3544 654.9445 56.4062 657.7838 56.7955 657.8687 56.771 660.5759 55.9882 672.0647 49.6558 684.8127 41.9574 687.9076 40.7778 688.4223 40.5816 695.6951 36.4395 700.5968 34.675 703.0886 32.8151 704.4937 32.5741 704.5919 32.5572 704.7323 63.6255 704.9908 66.3533 687.1949 66.8882 687.6751 84.4986 671.5042 84.8147 652.759 85.2343 652.8217 102.3901 635.614 102.7132 618.0938 102.8845 617.9956 98.4847 617.7393 88.065 Z" id="fips-39085"/>
<path d="M 706.8033 155.1527 706.1044 117.9588 793.7215 116.4499 793.7914 119.0877 793.9606 125.4775 794.1201 130.7583 794.1587 132.0349 794.2291 134.8151 794.2751 136.6325 794.2693 136.6324 794.4583 145.7043 794.5064 147.3752 794.5678 150.0289 794.6744 154.9348 794.678 155.0786 794.6905 155.1971 794.6941 155.3422 794.6909 155.3427 794.7078 155.7966 794.708 155.8036 794.7152 156.0906 794.7331 156.683 794.7332 156.686 794.8867 161.7836 794.9897 163.45 795.1803 172.4469 795.1817 172.482 795.2182 173.2068 795.354 177.1468 795.4171 181.0883 795.4976 184.2798 795.571 186.7318 795.7455 195.9231 795.9072 202.1325 795.9717 205.066 746.7567 206.0259 708.0066 206.8152 707.6303 190.6649 707.6216 190.2853 707.245 173.5322 706.8266 155.1525 706.8033 155.1527 Z" id="fips-39155"/>
<path d="M 5.6297 545.6223 5.953 531.3688 5.9622 531.0584 6.0299 527.9386 6.1125 525.1238 6.1176 524.4432 6.2374 521.9278 6.2606 521.4082 6.3698 517.4703 6.3759 517.4428 6.4422 515.6058 6.4722 515.0045 6.6609 510.2437 6.8113 505.9235 6.8321 505.7414 7.0294 499.6177 67.6725 500.5663 67.5797 521.875 67.3914 563.8049 67.2515 579.7737 67.1991 585.1509 4.561 584.0438 4.5424 583.8847 4.9687 569.2582 5.1924 562.7414 5.213 559.5098 5.2933 556.7889 5.6293 545.6378 5.6297 545.6223 Z" id="fips-39135"/>
<path d="M 267.2794 243.7259 288.3322 243.6637 323.4326 243.7014 323.3636 313.9717 287.9142 313.9926 287.8891 317.5845 267.8569 317.4083 266.7715 317.5094 263.0241 317.2884 263.0673 313.735 252.8723 313.8137 253.0326 285.6791 249.448 285.6 249.8523 264.5651 256.7956 264.6632 256.8779 254.163 260.3694 254.1594 260.4276 243.7222 267.2794 243.7259 Z" id="fips-39175"/>
<path d="M 693.3654 242.4474 708.8092 242.2158 708.3358 224.249 708.0066 206.8152 746.7567 206.0259 795.9717 205.066 795.9719 205.0769 796.0502 207.0653 796.0504 207.0709 796.0506 207.0796 796.0426 207.0798 796.1096 209.2794 796.1377 211.8432 796.1775 212.9404 796.2453 215.3969 796.2983 217.4724 796.3574 219.179 796.3837 219.9399 796.395 220.1603 796.4464 222.4351 796.7329 233.5954 796.8427 238.4174 796.8897 240.3675 797.2754 256.403 797.2165 259.8884 797.2553 260.9086 797.2707 261.3145 797.2757 261.42 742.0694 262.5478 741.9713 255.573 728.4211 255.7575 728.5277 262.8173 693.6869 263.3474 693.3654 242.4474 Z" id="fips-39099"/>
<path d="M 469.7067 719.1393 472.5595 676.1272 479.6996 676.5122 537.3984 679.7535 575.8586 681.3697 575.7846 682.156 576.1744 683.5544 578.0399 689.1114 578.2547 690.6761 578.0827 691.4286 578.0444 693.347 578.1056 694.3334 578.5846 696.7559 578.4608 699.2236 578.3027 700.241 578.0135 701.284 577.6826 701.9404 577.6826 701.9406 576.7394 703.2809 575.1774 704.7003 574.4128 705.2163 572.4131 706.1082 571.3062 706.1925 570.5352 706.0796 569.5561 705.7997 568.1591 705.0646 567.2368 704.8323 566.3355 704.8173 565.8115 704.9919 565.4953 705.2854 565.2204 705.9652 565.1779 707.3682 565.3463 709.2043 565.6806 710.7244 566.1982 711.7831 567.268 713.5858 567.838 714.2328 569.1737 715.3374 570.4509 716.2367 573.0504 718.7241 574.1182 720.212 574.6937 721.3424 574.7157 723.4459 574.5566 724.4149 574.1803 725.0147 573.2888 725.815 572.9044 726.5839 572.6334 727.4513 572.4255 728.654 572.4815 729.4016 572.6223 729.7171 571.862 731.651 571.5172 733.5499 571.5658 733.87 571.7358 734.9888 572.099 735.7304 573.0283 736.7475 573.8363 737.4494 576.2594 740.2175 576.4273 741.0878 575.9947 742.4473 575.7199 742.9615 575.223 743.3796 574.5547 743.6709 573.8905 743.7302 573.0722 743.6821 571.7239 743.2517 570.8928 742.9245 569.4296 741.9699 568.8589 741.4211 566.9995 739.1156 565.4666 738.1505 564.4382 737.9558 563.4359 738.0658 562.9997 738.2406 562.222 738.7806 561.0049 740.3794 559.8167 742.4196 559.5544 746.1832 559.7042 746.9323 559.0953 749.0373 557.7377 751.1476 557.1882 751.7681 554.2083 753.9766 551.5168 755.6691 550.8392 755.7745 549.7636 755.6121 547.853 754.6919 547.5373 754.4931 546.4751 753.2995 544.376 751.5454 544.1777 751.0902 544.1075 750.6365 544.4115 749.1975 545.8215 747.4188 546.0697 746.9356 547.1547 745.7265 547.8272 745.2757 549.2106 743.5862 549.3884 743.3266 549.6583 742.309 549.2412 740.362 548.0953 738.5369 546.977 736.3513 545.8658 733.3987 544.2735 730.7741 543.0069 728.3307 542.3166 727.6706 541.3706 726.9822 539.5571 726.3361 538.0902 726.5433 537.7966 726.776 536.4953 727.1062 535.3493 727.2469 534.6751 727.1882 534.3139 727.0669 533.9758 726.7897 533.8089 726.4656 533.6597 724.948 533.4649 724.1033 532.8322 722.5368 532.0119 720.9959 531.3276 720.01 529.9458 718.7154 529.0406 718.3116 527.0669 718.2063 525.2476 718.6316 523.6181 719.3454 523.097 720.0264 522.5794 721.191 521.8339 724.6062 521.1876 726.1828 520.7415 726.8873 519.3954 727.9371 517.5056 729.2084 515.538 730.1414 513.7226 731.3875 513.2561 731.9228 512.9599 732.6014 512.6507 734.1516 511.9071 735.6701 512.4753 724.9159 469.53 722.651 469.7067 719.1393 Z" id="fips-39105"/>
<path d="M 693.6869 263.3474 728.5277 262.8173 728.4211 255.7575 741.9713 255.573 742.0694 262.5478 797.2757 261.42 797.281 261.5327 797.5554 266.9248 797.7109 273.2606 797.7184 273.5668 797.7128 273.7886 798.0191 285.3787 798.061 287.5365 799 324.6511 798.4742 325.1018 797.7933 325.3422 796.9791 325.3171 796.4981 325.4899 795.2709 326.3592 794.1203 326.9729 793.1653 327.2032 791.4359 328.4955 790.1658 330.009 789.4267 330.5341 788.5532 330.8533 787.9803 330.8478 787.2802 330.5704 785.6954 328.9208 785.3187 328.6472 784.4474 328.2812 783.5107 328.3517 781.3055 329.2191 779.2665 329.6931 777.9703 330.653 777.0759 331.8389 776.0946 333.7084 774.8887 335.1649 774.4818 335.4802 774.2583 335.47 772.9323 336.6969 772.3432 337.6474 771.9935 338.9213 757.4193 339.0509 757.3838 335.7459 736.2845 335.6177 736.28 325.1749 725.7641 325.1755 725.5267 304.9872 694.3545 305.3771 693.698 264.0126 693.6869 263.3474 Z" id="fips-39029"/>
<path d="M 184.4463 122.9659 184.8967 95.8225 185.8804 91.5438 185.6708 66.7424 189.4372 66.5111 206.8425 66.1721 206.8627 66.1717 216.6323 65.898 220.8955 65.6314 224.3984 65.5487 227.3561 65.4598 229.1476 65.4058 229.6893 65.3873 237.1651 65.1496 237.4177 65.1521 238.9146 65.1204 238.9704 65.1192 253.5772 64.7251 253.7398 64.7265 254.4078 64.7083 254.7692 64.6632 262.6944 64.5382 262.3647 65.775 262.3598 65.7933 263.521 69.8477 264.049 70.7885 264.1421 70.8427 264.6612 71.1457 270.609 74.614 273.6627 74.4685 276.705 75.7733 280.0768 75.5284 282.8425 74.1567 283.5436 72.9129 283.5534 71.7697 285.5639 72.2307 291.4705 77.2802 292.0507 78.2639 294.2516 79.4185 301.4949 84.52 302.5096 85.9833 302.665 86.2074 305.5346 87.5935 309.3592 89.4398 314.5578 91.3445 311.5451 91.3509 301.424 91.2715 269.3089 92.0482 241.4619 92.2761 238.1496 96.1613 233.6064 103.4188 231.2706 103.5641 217.113 113.3248 215.35 122.0607 211.6645 123.9949 208.9718 128.43 204.2407 129.0027 202.6759 132.4363 191.0093 138.171 189.4089 140.7085 184.1545 140.6272 184.4463 122.9659 Z" id="fips-39095"/>
<path d="M 389.7494 636.9618 410.8627 638.5529 411.1028 635.0703 432.9451 636.6081 433.5111 630.2469 454.4965 631.5262 475.545 632.898 473.9962 654.4766 481.1551 654.9448 479.6996 676.5122 472.5595 676.1272 469.7067 719.1393 448.5753 717.4283 450.4941 692.5417 428.8034 691.0265 429.512 682.2462 407.9358 680.1489 408.196 677.0772 387.0535 675.7006 387.5785 668.5244 389.7494 636.9618 Z" id="fips-39163"/>
<path d="M 390.5212 399.5925 408.6656 400.6841 409.3079 357.8635 409.3101 351.1153 412.8364 351.1441 458.5446 350.7941 465.5121 349.7671 486.9677 346.4679 494.5009 345.2376 493.6525 373.5017 493.686 374.3734 491.8785 426.0501 478.1661 425.8554 476.1791 426.0906 464.1079 425.9124 439.926 424.6408 440.1278 420.0705 389.4414 417.1537 390.5212 399.5925 Z" id="fips-39083"/>
<path d="M 462.5896 138.5306 465.1073 138.082 472.835 138.4826 477.0213 137.8817 479.5194 136.9986 490.5918 129.6584 491.4068 128.7934 491.8839 127.4984 492.1367 127.3518 492.7158 127.9302 495.6519 127.2337 508.5195 122.1674 514.3685 120.1637 523.3706 117.0748 526.5242 117.3395 527.6284 117.7762 531.3282 119.2388 531.1454 126.1098 531.1534 148.1826 531.082 156.764 548.2039 156.7523 548.1813 175.0466 531.0175 175.2515 530.9152 193.3911 512.9778 193.5263 512.7624 208.8603 495.3456 208.8215 495.1614 226.6139 465.0686 226.232 464.243 208.7883 464.0695 196.6847 463.5452 193.2513 463.551 191.0471 463.7839 173.5632 463.2155 156.6546 463.1835 155.6992 462.5896 138.5306 Z" id="fips-39093"/>
<path d="M 391.2272 612.7339 392.9516 591.9129 393.1847 588.3769 413.7297 589.5967 414.1924 578.8054 436.822 580.1578 437.8666 565.921 459.4341 567.4841 458.4883 581.5686 480.4756 582.9577 480.2094 589.8409 499.6852 591.076 498.2848 612.9155 477.1721 611.4362 475.545 632.898 454.4965 631.5262 433.5111 630.2469 432.9451 636.6081 411.1028 635.0703 410.8627 638.5529 389.7494 636.9618 391.2272 612.7339 Z" id="fips-39073"/>
<path d="M 591.4069 321.3832 591.3214 283.2486 591.1089 261.9074 611.4596 262.5454 632.6764 263.1703 633.129 243.3404 637.3424 243.2599 643.8615 243.1163 672.0423 242.8358 673.4042 242.7602 675.6029 242.7214 693.3654 242.4474 693.6869 263.3474 693.698 264.0126 694.3545 305.3771 673.9538 305.4114 666.8989 306.8926 666.4571 324.5609 652.4211 324.5357 628.69 324.438 630.3184 322.1401 626.4495 321.2138 624.9525 323.8747 609.1045 326.6729 591.6585 329.3652 591.4069 321.3832 Z" id="fips-39151"/>
<path d="M 2.255 647.4994 23.9812 648.1011 35.4799 648.2847 37.7169 646.6374 50.3597 647.869 61.1432 648.6046 65.1344 649.7155 68.4599 649.4855 89.4124 652.4603 92.9914 652.2846 106.3227 653.7173 107.4419 656.623 106.9824 657.2625 106.8712 657.9733 106.4758 659.4441 102.5271 662.379 95.3254 669.2224 97.2618 672.8029 101.9738 671.8066 103.4197 674.0984 101.115 678.2624 98.9951 681.1363 95.5127 709.3969 94.4802 717.9041 93.2631 716.5803 92.7281 716.1861 91.4457 715.2411 89.6418 714.2162 86.9568 713.1025 82.0161 712.0905 80.6459 712.0403 79.374 711.75 79.0704 711.9135 78.244 711.8977 75.5405 710.5696 74.7498 710.0413 74.3486 709.5733 74.0017 708.7685 73.575 706.5112 73.4495 705.2027 73.5676 703.9232 73.5374 702.5441 73.2317 701.8368 73.3887 700.4854 73.6034 700.0543 73.1335 698.1103 72.2105 696.3025 71.3697 695.1251 70.5313 694.3122 69.5025 693.6617 68.2524 693.2984 66.6567 693.3393 66.525 693.4045 65.5767 693.874 64.6838 694.4366 63.3799 695.8616 62.2151 697.8456 61.8142 698.2356 61.6793 698.3668 60.6266 699.2208 59.8649 699.5827 59.1712 699.9122 57.3248 700.2615 56.3681 700.2178 53.2688 698.4609 52.8585 698.3314 51.4875 698.3755 50.8037 698.7724 50.2084 699.4372 48.9706 701.2253 47.4639 702.4278 47.4058 702.4742 43.5833 703.354 41.8229 704.2773 40.6463 704.4642 38.3608 704.3621 37.7355 704.1312 36.063 703.5134 32.7807 699.8379 31.5058 698.8908 29.8489 698.2496 27.7681 698.1309 26.3539 697.5675 25.4542 696.6525 24.9582 695.8381 23.2441 693.0231 21.0477 689.6599 20.2275 688.577 18.8288 687.3602 17.7362 686.7306 15.4839 685.9533 14.2461 685.949 13.5487 686.1022 11.1986 688.0069 7.8529 692.8867 7.1458 693.5384 5.9812 694.0814 2.7843 694.9241 2.4938 695.4107 2.2042 695.5513 1 695.7674 1.2771 685.2278 1.3593 683.1661 1.644 668.3944 1.6838 666.3357 1.8448 662.201 1.8666 661.3617 1.8738 660.5849 1.9771 657.966 2.034 655.6126 2.255 647.4994 Z" id="fips-39061"/>
<path d="M 184.1545 140.6272 189.4089 140.7085 191.0093 138.171 202.6759 132.4363 204.2407 129.0027 208.9718 128.43 211.6645 123.9949 215.35 122.0607 217.113 113.3248 231.2706 103.5641 233.6064 103.4188 238.1496 96.1613 241.4619 92.2761 269.3089 92.0482 269.3127 120.7978 267.8814 180.3351 267.4892 201.4276 183.7293 200.2849 184.1545 140.6272 Z" id="fips-39173"/>
<path d="M 148.0781 511.3394 151.4266 472.597 193.7555 476.2823 247.6202 481.0105 248.4138 482.5376 238.2199 520.0971 233.7316 539.2692 222.7511 538.1285 222.8625 537.412 205.7239 535.9406 200.5934 533.4982 188.9593 531.7527 189.3964 525.7391 168.2693 523.9623 168.6358 520.349 147.4661 518.4301 148.0781 511.3394 Z" id="fips-39023"/>
<path d="M 465.0686 226.232 495.1614 226.6139 494.9277 243.9064 502.9652 243.9133 503.3738 265.8976 503.9259 269.4347 504.0606 322.1705 486.7316 322.4331 486.8911 340.0584 486.9677 346.4679 465.5121 349.7671 465.1469 329.5719 464.9229 308.2442 457.7398 308.1612 457.5828 293.6297 455.6087 291.5088 455.8049 288.5711 452.2899 288.5647 449.8836 284.8802 450.6849 283.4038 450.2832 243.901 447.5536 243.9084 446.7564 226.3918 465.0686 226.232 Z" id="fips-39005"/>
<path d="M 531.3282 119.2388 531.9131 119.4699 532.3289 120.4591 533.0955 121.1053 536.8427 122.814 547.8219 124.6483 550.9187 124.5229 551.3924 124.3671 555.2355 123.102 559.8579 121.5788 562.8097 121.3109 562.8625 121.3061 565.0194 121.4282 567.4587 122.4667 567.5096 122.4788 571.8367 123.5074 572.9199 123.1569 577.9195 119.9087 578.0446 119.7362 578.6485 118.9035 586.1765 112.635 586.1824 112.6301 588.8812 111.552 591.8033 110.384 597.8774 105.4256 604.4683 98.8357 606.7636 96.2651 610.366 92.2284 615.6333 90.0046 617.7393 88.065 617.9956 98.4847 618.0938 102.8845 635.614 102.7132 635.9811 132.8175 638.9763 132.7569 639.0941 137.8002 636.0138 137.8847 636.3065 156.2615 625.659 156.2051 613.4336 156.1317 610.0215 156.0662 598.8363 156.0798 600.6697 158.1138 601.2579 166.2782 603.5377 167.7519 605.0456 173.7529 600.4296 173.8615 585.897 174.1117 583.2729 174.1688 579.6012 174.1849 560.9319 174.6777 555.2583 174.853 548.1813 175.0466 548.2039 156.7523 531.082 156.764 531.1534 148.1826 531.1454 126.1098 531.3282 119.2388 Z" id="fips-39035"/>
<path d="M 392.3038 96.363 395.3616 92.4296 397.4395 92.4344 398.1397 92.8878 398.7239 94.2284 400.3669 94.4358 402.3506 92.5879 402.7807 92.8257 402.2589 98.4785 401.3017 100.2367 401.2891 100.2598 400.7988 100.5864 398.3957 100.6979 394.0904 98.3371 392.293 96.9383 392.3038 96.363 Z M 353.0464 131.3988 359.9048 131.275 374.4115 126.2641 374.4412 126.2508 377.1147 124.9861 391.6583 126.7377 395.2803 125.6095 399.7217 122.8228 400.8281 123.1746 400.954 123.2146 401.4954 123.957 406.3247 130.575 413.684 137.8348 413.8287 138.6588 416.552 140.4073 424.5175 145.5168 432.555 149.3092 435.2294 149.9598 438.4753 149.9998 442.2131 148.7867 447.519 146.2193 453.533 142.0687 460.1054 138.9729 462.5896 138.5306 463.1835 155.6992 463.2155 156.6546 463.7839 173.5632 373.0609 172.122 372.5261 154.6188 371.9817 138.1486 361.9402 138.1358 352.8985 138.186 353.0464 131.3988 Z" id="fips-39043"/>
<path d="M 101.3046 122.1377 142.4311 122.6537 184.4463 122.9659 184.1545 140.6272 183.7293 200.2849 120.5439 199.7993 121.6083 136.4574 101.0838 136.1505 101.3046 122.1377 Z" id="fips-39069"/>
<path d="M 143.7925 779.3527 155.5795 678.0474 156.6658 662.7757 180.5081 664.7734 179.1516 711.1402 178.5856 719.4094 188.9822 719.8162 209.9363 719.7801 216.0087 720.07 208.9399 812.0354 208.4017 812.0097 207.4163 811.5759 206.7553 811.0689 206.5741 810.6824 206.037 810.324 202.7486 809.9893 200.5409 809.5571 198.1823 808.9272 197.6849 808.7332 196.8874 808.1581 196.3644 807.4434 195.7085 805.3568 195.4604 804.2762 194.9666 800.9574 194.3062 798.3541 193.6579 797.4158 192.9917 796.8789 191.5144 796.1374 190.054 795.6491 188.6292 795.43 187.1307 794.8965 184.8549 793.3124 184.3545 792.8589 183.6309 791.8693 183.4315 791.298 183.2856 790.63 183.2515 789.8206 182.9074 788.1058 182.6332 786.9293 182.1712 785.7415 181.552 784.7047 180.2589 783.392 178.8546 782.5499 177.6096 781.9973 174.9912 781.1933 171.8297 780.534 171.8195 780.5318 170.1369 780.1215 169.3268 780.1341 167.4911 779.6503 167.1906 779.4912 167.224 778.9162 164.3268 776.6919 162.5316 776.0487 160.9189 775.7329 157.7719 775.7558 154.6192 776.9657 152.6043 777.3609 149.3804 778.5454 145.3354 779.5703 143.9892 779.3505 143.7925 779.3527 Z" id="fips-39015"/>
<path d="M 291.5753 721.8415 297.7924 723.3753 298.4591 725.9875 301.9852 727.6757 301.5855 732.5491 302.5342 735.3618 334.219 736.2868 342.4419 736.4646 378.7042 738.538 388.8052 739.1986 387.4204 761.0793 408.2631 762.4806 406.571 783.3704 405.8563 786.9248 399.7252 786.4436 398.5764 800.732 397.6481 803.9656 386.7928 803.3654 386.3548 811.8983 391.2261 823.3866 387.8045 824.8898 376.9222 829.7663 376.1382 829.2891 372.4785 826.0312 371.5786 824.893 371.0357 823.8516 370.2587 821.634 369.6994 819.4284 369.418 817.6486 369.2344 814.7318 369.3338 811.5407 368.7538 808.0826 368.0208 805.9299 366.8345 803.7762 365.8358 802.6502 365.3292 800.8723 365.4645 799.1318 365.7698 797.295 366.5493 794.0567 366.7018 793.1624 366.7987 791.6878 366.5393 788.9798 366.2954 788.2057 365.9667 787.5199 365.7503 787.0683 364.9976 786.0515 363.1699 784.9358 362.227 784.813 356.6591 786.3721 352.9855 788.006 350.0092 790.0056 348.156 791.4993 346.1351 792.1702 344.8711 792.0938 343.3819 791.5331 342.3825 791.3364 340.0207 791.1639 338.1449 791.4638 336.9802 791.8579 336.4535 792.2 336.4178 792.2377 336.0157 792.6614 335.4559 793.5426 334.985 794.4535 334.2427 796.3989 333.7885 797.0684 332.1995 799.4103 330.076 801.0593 326.31 802.9504 322.8094 803.8477 321.9216 804.3505 320.9858 805.201 319.9435 806.553 319.0509 808.2105 318.3248 811.5811 317.8164 812.7907 316.6596 814.843 315.9895 815.6698 315.1802 816.4419 312.5125 817.5236 311.0346 817.6319 309.5414 817.5797 305.9943 818.2025 303.9047 818.3462 302.2865 817.945 300.0171 816.583 298.2592 815.7481 296.917 815.4938 295.7716 815.6446 294.7241 816.0521 294.0673 816.7301 292.8252 816.8868 292.2783 817.1706 291.6049 817.9363 291.479 816.3228 291.5753 721.8415 Z" id="fips-39145"/>
<path d="M 266.7715 317.5094 267.8569 317.4083 287.8891 317.5845 287.9142 313.9926 323.3636 313.9717 327.174 314.0767 369.7658 313.606 369.4759 327.785 351.4908 330.3432 351.3744 349.141 351.2668 365.4115 340.5222 366.8663 339.741 379.1305 313.1789 377.7517 297.819 376.4643 297.9574 362.6762 297.9875 361.2161 266.6865 361.4319 267.2718 358.9542 266.5413 337.7383 266.6887 327.97 266.7715 317.5094 Z" id="fips-39101"/>
<path d="M 736.2845 335.6177 757.3838 335.7459 757.4193 339.0509 771.9935 338.9213 772.0505 339.9845 772.234 341.0525 773.0264 341.878 774.4119 343.0536 774.9556 343.6796 777.0661 347.0481 778.641 349.3609 779.1275 349.5391 779.6864 350.0408 780.7499 353.7164 781.0382 355.7031 781.626 358.1589 783.3423 361.1528 784.5876 362.4006 785.1958 362.7877 785.9183 364.5366 786.0697 365.4765 785.877 367.4167 785.5014 368.6354 784.4289 370.7415 784.3549 371.4933 783.2472 373.6729 783.0615 374.379 782.9643 375.712 783.1552 378.3204 783.1442 380.9578 783.3317 381.8728 783.2649 382.1647 782.7288 382.8548 780.3769 383.8783 780.0866 384.0933 779.6346 384.428 779.3951 385.2079 779.7917 386.408 779.9526 386.5416 782.0959 387.2487 782.9969 387.9532 783.8843 388.8515 784.3021 390.148 784.1432 391.9906 783.6111 393.6484 783.47 395.4663 783.4762 395.4912 783.8774 397.1019 785.408 400.2104 785.8888 401.8199 786.0196 402.6636 785.5277 405.2399 784.864 406.03 783.4021 408.9438 783.0901 410.5722 783.2751 413.7128 782.7437 415.4432 782.1729 416.2793 779.5222 418.1563 779.4992 417.9633 778.1555 418.9142 776.8073 420.4699 775.1495 424.1791 774.7002 426.7609 774.403 429.8885 774.1072 431.4921 773.317 433.2765 772.0577 434.7572 771.6536 434.9611 771.6178 434.9792 771.3115 435.2959 770.8768 435.9369 767.9098 441.8958 756.2183 442.6766 734.6488 442.0768 735.6393 388.8418 736.5336 378.3064 722.463 378.1659 722.5748 367.604 725.4434 367.6367 725.6801 346.2605 736.219 346.2621 736.2845 335.6177 Z" id="fips-39081"/>
<path d="M 4.2431 595.1023 4.4278 588.7928 4.568 584.3933 4.5736 584.1516 4.561 584.0438 67.1991 585.1509 67.2515 579.7737 68.1727 580.0023 88.4802 580.555 88.3698 591.5951 94.4866 590.5689 93.3813 603.1065 93.1522 606.5563 92.9478 608.6876 93.1685 612.8801 92.145 623.4533 89.4124 652.4603 68.4599 649.4855 65.1344 649.7155 61.1432 648.6046 50.3597 647.869 37.7169 646.6374 35.4799 648.2847 23.9812 648.1011 2.255 647.4994 2.2978 646.4598 3.1166 626.5713 3.9168 605.8835 4.1436 597.7607 4.1442 597.7366 4.2431 595.1023 Z" id="fips-39017"/>
<path d="M 387.3763 453.7094 389.4414 417.1537 440.1278 420.0705 439.926 424.6408 464.1079 425.9124 476.1791 426.0906 478.1661 425.8554 491.8785 426.0501 494.2956 426.1439 493.6076 443.5011 492.3935 478.8668 491.7535 495.9355 485.6478 495.7437 485.2743 504.892 451.0035 502.8195 442.8092 500.9259 440.8448 502.2169 385.3031 498.8235 383.5182 498.7409 385.1322 489.9229 386.319 471.8071 387.3763 453.7094 Z" id="fips-39089"/>
<path d="M 514.7063 539.1241 524.0923 539.6818 525.1658 539.5053 585.236 542.1875 595.9428 542.5816 595.5796 563.8077 606.2082 564.084 606.0591 582.7147 587.2822 582.087 582.3369 583.8634 581.227 596.4164 584.4259 596.5157 583.9932 606.5986 583.9173 608.6664 574.1104 606.8865 562.4884 605.6799 562.1101 616.5429 558.5397 616.3258 519.1333 614.2864 520.512 592.3229 521.9906 592.4588 524.5368 550.2425 514.1137 549.5978 514.7063 539.1241 Z" id="fips-39115"/>
<path d="M 296.0129 557.5066 297.8061 529.2039 320.7172 530.4577 340.6481 531.367 375.7301 533.7221 373.2658 567.6744 372.1727 590.1938 392.9516 591.9129 391.2272 612.7339 343.1606 609.8161 346.4362 607.4563 346.809 604.7989 344.2272 603.4525 293.0837 600.826 296.0129 557.5066 Z" id="fips-39129"/>
<path d="M 276.3423 677.7775 315.4129 680.4364 372.5214 684.3804 382.7353 685.1763 378.7042 738.538 342.4419 736.4646 334.219 736.2868 302.5342 735.3618 301.5855 732.5491 301.9852 727.6757 298.4591 725.9875 297.7924 723.3753 291.5753 721.8415 284.1757 715.3651 283.408 712.9851 270.0691 712.1629 276.3423 677.7775 Z" id="fips-39131"/>
<path d="M 76.7336 315.347 87.6242 315.5429 119.5262 315.8704 119.4148 322.886 140.4841 322.993 140.4493 326.5893 182.2139 326.8031 181.922 352.4356 176.6546 353.1678 160.9713 353.0001 159.2241 365.5676 97.2811 365.0382 96.8933 389.7871 79.3482 389.5746 79.1686 395.3075 75.3133 394.2509 75.8271 371.8311 76.2062 347.1763 76.2586 343.6359 76.7336 315.347 Z" id="fips-39011"/>
<path d="M 422.2902 763.5759 422.5129 761.4002 444.9721 763.5015 448.5753 717.4283 469.7067 719.1393 469.53 722.651 512.4753 724.9159 511.9071 735.6701 511.5933 736.311 510.0107 738.7638 509.6803 740.0234 509.745 741.2561 509.5422 741.9103 507.8105 744.7027 506.3411 747.3964 505.2375 748.4675 503.6676 750.2911 503.4137 751.8402 503.2943 753.8237 503.8876 755.3671 504.099 756.1847 504.3081 756.9929 504.46 758.2794 504.0301 761.5768 503.4342 764.2195 502.9119 765.0691 500.3107 768.0711 499.4983 768.6068 496.9465 769.8461 494.7459 770.4006 493.2267 771.9687 491.3481 773.434 490.3725 774.4021 489.8533 775.133 489.0543 777.1909 489.0729 778.9744 489.2824 780.4411 490.0126 781.7399 491.8049 782.7953 492.8665 783.6526 493.3708 784.2896 493.9959 785.5636 494.4524 788.283 495.1367 789.1977 495.4054 789.994 495.7422 792.7966 496.129 794.3899 496.5353 796.1041 496.4644 796.9024 496.0579 798.4279 495.1115 801.2864 494.9889 802.9793 495.6038 804.8372 495.9141 806.2618 496.0185 808.0019 497.2612 810.5813 497.7042 812.0534 498.1901 814.3713 498.4974 815.2154 498.6162 816.1092 498.6257 817.7289 498.055 820.3434 497.6647 821.482 496.7825 822.551 495.5032 823.6224 494.5499 824.0844 492.4067 824.4298 489.7987 824.4532 489.1939 824.5289 484.6857 822.837 483.4567 822.7709 481.6426 822.9253 479.869 823.6112 479.3416 824.0248 476.9284 826.7188 462.8265 826.1535 464.1033 804.1755 441.816 802.7497 442.835 788.4345 439.1175 788.0818 439.6657 780.9964 420.975 779.3904 422.2902 763.5759 Z" id="fips-39053"/>
<path d="M 154.3736 437.8652 156.1982 416.2389 198.699 420.0545 198.4419 423.6394 241.6033 427.9387 252.0901 428.979 250.1426 456.5358 247.6202 481.0105 193.7555 476.2823 151.4266 472.597 154.3736 437.8652 Z" id="fips-39021"/>
<path d="M 79.1686 395.3075 79.3482 389.5746 96.8933 389.7871 97.2811 365.0382 159.2241 365.5676 158.9809 387.2104 158.4425 387.9878 158.3785 406.7236 157.1711 405.6771 156.1982 416.2389 154.3736 437.8652 118.1737 434.493 118.2807 433.405 103.461 433.5534 78.7631 433.401 79.1224 395.3731 79.1686 395.3075 Z" id="fips-39149"/>
<path d="M 704.5919 32.5572 706.4441 32.2393 709.6979 31.6803 716.4165 30.5237 722.8471 28.8067 738.067 21.5263 739.1699 20.5565 740.5486 18.5849 743.4369 18.0651 743.9366 19.2368 748.2366 17.5178 754.8797 15.8235 779.6404 6.0878 784.6193 3.4988 790.7431 1 790.7552 1.3298 790.9723 9.1042 791.0566 12.6875 791.5578 31.9291 792.0884 52.3365 792.143 55.3953 792.2168 58.5689 792.4564 67.7271 792.6334 75.0386 792.6545 75.3915 792.8118 81.5515 793.4594 106.9319 793.5569 109.4762 793.7215 116.4499 706.1044 117.9588 705.8235 101.116 704.9908 66.3533 704.7323 63.6255 704.5919 32.5572 Z" id="fips-39007"/>
<path d="M 376.9222 829.7663 387.8045 824.8898 391.2261 823.3866 386.3548 811.8983 386.7928 803.3654 397.6481 803.9656 398.5764 800.732 399.7252 786.4436 405.8563 786.9248 406.571 783.3704 408.2631 762.4806 422.2902 763.5759 420.975 779.3904 439.6657 780.9964 439.1175 788.0818 442.835 788.4345 441.816 802.7497 464.1033 804.1755 462.8265 826.1535 476.9284 826.7188 476.144 827.5941 475.732 828.4663 475.6594 829.1194 475.7865 832.1165 475.3564 837.3886 474.9648 838.6476 474.496 839.5926 474.0108 841.0936 473.8085 842.4241 473.9931 845.6382 473.7837 847.5915 473.3869 848.9509 472.5831 850.7725 472.236 852.4797 471.9748 854.4226 471.1945 856.8937 470.0881 858.9794 468.8927 860.1372 466.9441 861.0041 463.2512 861.5878 459.157 862.5253 457.6468 862.6344 454.7751 861.4379 449.1945 863.696 448.8833 863.7939 446.7901 864.4527 444.4042 865.0157 439.3106 866.6248 435.3158 868.3992 431.215 869.7463 431.1677 869.7619 429.1554 870.1324 427.336 870.248 426.6278 870.1549 425.2762 869.977 423.6257 869.5157 422.1449 868.9108 421.6137 868.5828 420.044 867.2897 419.0141 865.7634 418.3972 864.5807 417.6664 861.9903 417.0295 856.5725 416.2483 854.5892 415.8202 853.7659 415.1861 853.024 414.3008 852.4061 413.2338 851.7768 412.1663 851.3018 410.6576 850.6304 408.633 849.2012 406.9933 847.6435 405.3965 845.4879 405.3838 845.4707 403.4568 843.1277 400.7604 838.1932 399.5009 836.6966 398.8531 836.1591 396.1863 834.6585 395.1422 833.9042 394.1618 832.9525 393.0058 832.5501 391.3747 832.6156 386.8142 832.2732 383.83 832.6038 381.8814 832.3779 379.9272 831.5947 376.9222 829.7663 Z" id="fips-39087"/>
<path d="M 372.811 85.7396 374.3605 70.8098 376.0619 67.4657 377.0212 67.0464 378.8056 68.0187 378.8112 68.0217 383.1994 73.6459 383.6929 74.2781 383.819 74.4396 381.9431 81.5258 378.2684 86.0058 375.8001 89.0132 373.0705 90.3099 372.8057 85.7909 372.811 85.7396 Z M 269.3089 92.0482 301.424 91.2715 311.5451 91.3509 314.5578 91.3445 318.1358 92.6542 325.718 93.7405 328.9462 95.4178 332.4512 98.1745 336.679 104.8114 339.3838 107.7974 344.4661 111.9554 349.9366 115.4316 356.3178 117.8372 362.9565 116.6705 364.6836 115.884 367.0358 114.1532 368.0891 113.1205 370.3856 109.6663 370.6767 105.8334 369.8975 102.8681 371.0897 101.1879 372.0495 100.6303 374.5026 100.1628 377.011 104.2584 381.689 110.1103 383.2859 111.517 383.4955 111.5191 385.7274 111.5418 389.7295 110.1197 395.5274 111.219 396.7843 112.4964 396.6581 114.7809 394.796 117.3258 394.9146 117.8063 395.1767 118.869 396.2466 120.9485 396.9515 121.9417 399.7217 122.8228 395.2803 125.6095 391.6583 126.7377 377.1147 124.9861 374.4412 126.2508 374.4115 126.2641 359.9048 131.275 353.0464 131.3988 337.5989 131.5201 337.3803 131.5237 332.1571 131.5872 283.0824 131.2327 283.0149 120.6685 269.3127 120.7978 269.3089 92.0482 Z" id="fips-39123"/>
<path d="M 106.8712 657.9733 154.1106 662.5369 156.6658 662.7757 155.5795 678.0474 143.7925 779.3527 141.7697 779.3761 140.2439 779.5162 135.9548 778.296 133.2358 777.2858 131.9633 776.4256 128.3258 774.7318 124.4219 773.3569 116.4464 771.7712 115.0899 771.345 113.7244 770.5676 112.0316 768.5931 111.4367 767.637 110.5528 765.474 110.51 765.2616 110.357 764.5022 110.0368 761.5661 109.9938 758.9284 110.4273 754.2702 110.4208 753.7874 110.4024 752.4288 110.3782 751.4993 110.017 749.3406 108.9751 747.4639 108.5075 746.9057 107.9665 745.9658 105.8948 742.0186 105.1964 741.1878 102.6036 737.5345 101.6774 736.6338 100.1709 734.0385 98.9238 730.9918 98.7341 726.8746 98.6043 725.811 98.2348 724.283 97.2765 721.7337 95.6337 719.1584 94.4802 717.9041 95.5127 709.3969 98.9951 681.1363 101.115 678.2624 103.4197 674.0984 101.9738 671.8066 97.2618 672.8029 95.3254 669.2224 102.5271 662.379 106.4758 659.4441 106.8712 657.9733 Z" id="fips-39025"/>
<path d="M 67.6725 500.5663 78.7038 500.5104 128.4558 500.5901 126.6713 503.1667 128.3953 509.5334 148.0781 511.3394 147.4661 518.4301 147.1699 521.8717 140.1435 521.2472 139.2337 532.0382 135.8156 572.4555 136.0402 574.374 135.2122 584.1471 103.3644 580.9078 88.4802 580.555 68.1727 580.0023 67.2515 579.7737 67.3914 563.8049 67.5797 521.875 67.6725 500.5663 Z" id="fips-39113"/>
<path d="M 493.6076 443.5011 579.6061 446.1341 580.6639 446.3111 578.9726 499.6503 585.9306 499.8065 585.6093 521.1246 585.236 542.1875 525.1658 539.5053 524.0923 539.6818 514.7063 539.1241 515.3169 528.1711 497.2693 527.1978 498.5632 505.7546 485.2743 504.892 485.6478 495.7437 491.7535 495.9355 492.3935 478.8668 493.6076 443.5011 Z" id="fips-39119"/>
<path d="M 208.9399 812.0354 216.0087 720.07 227.5465 720.5638 270.0691 712.1629 283.408 712.9851 284.1757 715.3651 291.5753 721.8415 291.479 816.3228 291.6049 817.9363 291.5775 817.9674 291.4188 818.72 287.9924 822.5331 287.5423 822.8357 286.5368 823.1649 285.0728 822.7708 283.9653 822.1237 283.2857 821.5171 282.1434 820.0762 281.8535 819.3511 281.671 818.4287 281.6001 816.8157 281.2628 814.903 280.2815 813.2343 277.9585 811.2391 274.867 809.2018 272.9453 808.0929 271.1296 807.3695 269.5362 806.947 264.3898 806.1024 262.8534 805.6238 259.0389 805.3672 257.7969 805.1679 255.9037 804.228 255.383 804.3077 253.829 803.8465 253.0605 803.1985 252.264 802.1911 250.3813 800.2797 249.0938 799.28 247.0237 798.0361 245.48 797.4274 243.9008 797.0917 241.561 797.2974 238.5416 798.0712 236.161 798.8744 234.7909 799.4726 233.6515 799.7265 233.7229 799.5036 225.9667 801.4874 223.8435 802.616 222.4891 804.0612 222.0689 804.7258 221.8417 805.3651 221.439 807.4786 221.3172 809.0979 220.7205 811.3147 220.1535 812.8237 219.4208 813.8444 218.8149 814.3575 218.3388 814.5625 217.6031 814.831 216.731 814.9817 215.9379 814.9398 213.7942 814.4406 212.6586 813.9799 209.1868 812.0473 208.9399 812.0354 Z" id="fips-39001"/>
<path d="M 182.8017 284.4246 249.448 285.6 253.0326 285.6791 252.8723 313.8137 263.0673 313.735 263.0241 317.2884 266.7715 317.5094 266.6887 327.97 266.5413 337.7383 267.2718 358.9542 266.6865 361.4319 247.9548 361.5508 248.0014 360.291 186.3099 354.4935 181.9174 354.0918 181.922 352.4356 182.2139 326.8031 182.8017 284.4246 Z" id="fips-39065"/>
<path d="M 583.2729 174.1688 585.897 174.1117 600.4296 173.8615 605.0456 173.7529 603.5377 167.7519 601.2579 166.2782 600.6697 158.1138 598.8363 156.0798 610.0215 156.0662 613.4336 156.1317 625.659 156.2051 636.3065 156.2615 636.5451 173.5802 637.0109 207.6616 637.0636 216.1961 637.1159 224.4769 637.1581 230.6582 637.2016 234.3354 637.3424 243.2599 633.129 243.3404 632.6764 263.1703 611.4596 262.5454 591.1089 261.9074 590.8978 243.8785 583.4495 243.9599 583.3046 208.3176 583.2729 174.1688 Z" id="fips-39153"/>
<path d="M 670.5989 493.6472 671.2224 440.7073 672.2337 440.0819 692.6615 440.875 734.6488 442.0768 756.2183 442.6766 767.9098 441.8958 767.6131 442.4913 767.3736 443.2787 767.1642 444.8783 766.698 446.5069 766.6744 449.6622 767.0359 451.3918 767.1706 451.59 767.3964 452.5488 767.4649 453.1278 767.31 454.462 767.0724 455.4109 766.8792 455.875 766.3761 456.5396 763.159 459.1281 762.0652 460.701 761.7559 461.7724 761.7969 462.7875 762.0908 464.3535 762.6372 465.6235 762.8641 465.8362 763.3228 468.1484 763.3362 468.7529 763.2857 470.5804 763.2747 470.9801 762.9704 471.9823 762.9641 472.0031 762.4275 472.8239 762.2385 473.3933 762.2722 474.5112 762.1981 475.047 761.7271 476.3968 761.5084 478.1668 761.494 478.7207 761.7187 480.8407 761.927 481.5444 762.2201 483.6707 762.0357 487.1392 761.4815 487.558 760.9218 488.2672 759.3042 489.4334 758.688 490.0083 757.82 491.413 757.6326 492.2068 757.6459 493.089 758.3313 497.3085 759.2157 499.3482 759.3943 500.3197 759.3163 500.9562 758.9877 501.8112 758.8088 502.0474 758.5596 502.1884 758.2006 502.1963 757.1435 502.0415 756.3247 501.657 754.4013 500.2824 752.003 499.723 751.1114 499.8043 750.5839 499.9782 750.1058 500.3834 749.8205 500.9198 749.5356 502.0446 749.4831 503.0637 749.6225 503.7574 750.1783 505.1776 750.9199 506.5396 752.0971 507.985 752.5144 508.6395 753.2802 511.1715 753.1938 512.3762 752.7724 513.2391 751.5418 514.4364 748.5042 515.9243 747.6199 516.6811 711.229 515.4359 711.2323 515.0263 670.3274 513.8362 670.5989 493.6472 Z" id="fips-39013"/>
<path d="M 88.5501 241.6836 99.0589 241.7897 99.9055 199.5137 120.5439 199.7993 183.7293 200.2849 183.0602 260.116 162.0807 259.9667 162.0398 263.5405 141.1401 263.3047 140.9584 273.8814 98.7182 273.6165 98.8384 262.8546 88.3409 262.7377 88.5501 241.6836 Z" id="fips-39137"/>
<path d="M 17.2803 134.7539 101.0838 136.1505 121.6083 136.4574 120.5439 199.7993 99.9055 199.5137 100.1027 188.9935 79.1046 188.4948 79.2897 177.8426 16.353 176.6993 16.444 172.255 16.4446 172.2219 16.4456 172.1749 16.9467 148.7973 17.1446 139.0451 17.1608 139.0288 17.1857 138.2326 17.2803 134.7539 Z" id="fips-39039"/>
<path d="M 558.5397 616.3258 562.1101 616.5429 562.4884 605.6799 574.1104 606.8865 583.9173 608.6664 583.9932 606.5986 584.4259 596.5157 581.227 596.4164 582.3369 583.8634 587.2822 582.087 606.0591 582.7147 627.4496 583.3128 627.2986 568.1596 631.2525 568.2311 631.1562 571.6875 638.4305 571.7425 638.4472 575.2805 641.9524 575.2753 642.0215 578.6929 649.2239 578.7489 662.8144 580.7183 662.8455 577.3416 666.3522 577.3938 666.2609 584.2972 669.7072 583.7017 708.8757 584.6792 708.6631 592.4407 707.5246 593.3687 706.6021 594.4521 706.2357 595.0838 704.6989 596.7008 702.8236 598.3692 701.8525 599.9186 699.0195 603.0391 697.3082 605.4408 694.8601 610.5406 694.7294 610.5429 693.5825 612.624 692.9925 613.6945 692.3 614.6744 691.5662 615.4374 691.2165 615.7339 690.5312 616.0605 687.8449 616.2533 685.8019 616.7703 684.4819 617.2798 682.7619 618.2903 682.3253 618.6819 681.6572 619.3712 680.796 621.12 679.0181 623.1482 678.1376 624.2557 677.5904 625.1452 677.1187 626.0201 677.0127 626.3925 677.1377 627.5801 677.0078 628.5824 676.7537 629.1481 675.9716 629.9029 675.2191 630.2586 674.8067 630.2922 671.3779 629.3303 670.0246 629.4215 668.0379 630.251 665.9987 630.474 665.0798 631.0036 664.0266 632.1159 661.0338 633.3444 659.6873 634.2946 656.9553 636.5747 655.7374 637.3445 653.9951 638.6759 652.6992 639.8453 651.783 640.409 650.0452 641.0627 647.3638 641.3736 646.488 641.475 645.7923 641.3927 644.8745 641.0756 643.6039 639.7971 643.1178 639.1049 642.7136 638.1805 641.7567 634.889 641.351 633.0344 640.5794 630.3428 639.4322 628.7808 638.5161 627.9383 637.9413 627.4096 636.4173 626.2234 635.0988 625.4928 633.0556 625.0626 631.2658 625.3542 629.1166 626.7148 628.1114 627.6006 626.3312 630.164 625.2013 631.5341 622.5926 634.1898 620.6863 635.7133 618.6815 637.0561 616.7924 637.8978 615.3365 639.2135 612.5376 642.6604 612.1695 644.6 612.1158 647.7206 611.2727 653.5359 611.2895 657.8161 610.9132 659.1512 610.3794 659.8836 607.5095 659.6612 606.9402 659.4169 605.6981 658.562 604.1582 658.0629 603.2102 657.9509 602.1849 658.134 600.8028 658.5612 596.6979 657.7524 594.2713 657.7428 591.6452 658.1107 590.1267 658.6625 589.143 659.355 588.06 660.5516 587.5852 661.2381 586.7931 662.7447 586.7017 664.7501 586.7748 665.3839 586.9544 666.1712 587.6323 667.8001 587.8613 669.2369 587.8163 669.7675 587.6226 670.1335 587.2153 670.7031 586.0429 671.5057 584.0388 671.9193 582.6473 672.3197 581.6596 672.6038 581.433 672.7691 581.9983 659.7611 563.9138 659.2323 564.1703 652.101 560.6441 651.9552 560.7614 648.3854 557.1989 648.2748 558.5397 616.3258 Z" id="fips-39167"/>
<path d="M 7.805 478.3066 8.1253 471.2654 8.2761 467.7089 8.6683 457.1417 8.799 453.6195 8.986 448.8331 9.0001 448.3474 9.5732 435.9977 9.7198 433.0679 9.7215 433.0498 9.7843 431.68 10.0319 425.4767 10.764 406.4197 10.8406 404.5839 10.8408 404.5787 11.0474 394.2667 48.727 395.0061 79.1224 395.3731 78.7631 433.401 77.993 437.3138 78.7413 437.3189 78.7038 500.5104 67.6725 500.5663 7.0294 499.6177 7.067 498.4457 7.1291 497.0982 7.6978 480.6624 7.805 478.3066 Z" id="fips-39037"/>
<path d="M 670.3274 513.8362 711.2323 515.0263 711.229 515.4359 747.6199 516.6811 747.0781 517.3756 746.75 518.0893 746.6072 518.7169 746.7737 520.1296 747.4098 522.1282 747.5248 522.7337 747.648 525.9396 747.1844 528.5176 746.9911 529.1285 745.3164 531.0738 740.2415 534.9288 739.6492 535.7779 739.1625 537.0881 739.0202 537.7706 739.4866 539.3185 739.9253 540.2443 741.9529 542.7803 742.3285 543.1479 743.5804 543.9024 745.4155 547.2229 745.8056 547.7814 746.0141 547.9632 746.3763 548.279 746.7438 549.5857 746.7474 550.1183 746.3869 551.622 746.0238 552.1517 745.0635 552.7682 744.0283 553.1754 742.6788 553.4168 742.2008 553.6898 740.8959 554.648 740.537 555.1154 740.1711 556.3906 740.09 557.1947 740.05 558.3277 740.332 562.1284 740.1829 564.5832 739.624 565.9786 739.4635 566.9522 739.5246 567.2221 739.4366 567.9015 738.5679 570.7931 737.7879 572.3522 735.6009 573.3529 734.799 573.3691 732.9783 573.0015 730.8591 572.9789 729.3344 573.326 727.9592 573.9788 727.2966 574.5233 726.0431 575.9248 721.1572 580.0855 719.6551 581.714 717.9945 583.2595 716.9111 584.7341 716.3415 585.2612 714.1609 586.8326 712.0706 588.6598 711.368 589.4224 710.8701 590.3429 710.2314 591.162 708.6631 592.4407 708.8757 584.6792 669.7072 583.7017 666.2609 584.2972 666.3522 577.3938 662.8455 577.3416 662.9182 552.8338 655.7485 552.8884 656.1656 513.669 670.3274 513.8362 Z" id="fips-39111"/>
<path d="M 585.6093 521.1246 606.7566 521.7217 606.8968 507.5507 628.1465 508.0222 628.3005 501.0174 642.2977 501.3224 642.4346 494.2334 649.5125 494.3028 670.5989 493.6472 670.3274 513.8362 656.1656 513.669 655.7485 552.8884 662.9182 552.8338 662.8455 577.3416 662.8144 580.7183 649.2239 578.7489 642.0215 578.6929 641.9524 575.2753 638.4472 575.2805 638.4305 571.7425 631.1562 571.6875 631.2525 568.2311 627.2986 568.1596 627.4496 583.3128 606.0591 582.7147 606.2082 564.084 595.5796 563.8077 595.9428 542.5816 585.236 542.1875 585.6093 521.1246 Z" id="fips-39121"/>
<path d="M 14.8579 240.3304 88.5501 241.6836 88.3409 262.7377 98.8384 262.8546 98.7182 273.6165 98.6038 284.0058 88.1233 283.8581 87.6242 315.5429 76.7336 315.347 76.9436 304.8413 13.5681 303.5047 13.5682 303.5006 13.6226 300.0821 13.7066 294.467 13.9761 285.9848 14.5392 256.5363 14.5401 256.4902 14.8568 240.3751 14.8579 240.3304 Z" id="fips-39161"/>
</g>
</svg>