<?xml version="1.0"?>
<svg xmlns="http://www.w3.org/2000/svg" version="1.2" baseProfile="tiny" width="800" height="402" viewBox="0 0 800 402" stroke-linecap="round" stroke-linejoin="round">
<g id="cb_2018_us_county_5m">
<path d="M 279.7184 12.0661 279.8358 12.07 280.3951 12.0921 291.4106 12.363 299.6294 12.6427 300.6591 12.677 300.7107 12.6787 311.4325 12.9953 312.2593 13.0819 314.3982 13.1209 320.5909 13.2698 322.1503 13.2974 325.1438 13.3495 325.556 13.3591 325.6873 13.3622 325.8961 13.3674 325.8959 13.3744 327.3735 13.3988 329.9607 13.4688 331.1276 13.9507 333.1068 20.2534 335.1262 22.5513 337.229 27.4253 342.6993 30.2259 342.3801 31.8172 344.38 34.4776 343.8855 60.3346 318.537 60.0856 315.184 60.0351 278.4255 59.112 279.7184 12.0661 Z" id="fips-40059"/>
<path d="M 404.1917 110.8245 407.5096 110.7616 443.8553 111.2025 443.9729 141.8924 443.9161 148.5279 443.8013 161.8826 433.8599 161.7972 433.8621 163.4669 433.7028 181.8129 426.8639 181.7619 404.6497 181.5147 403.8134 181.5027 403.8219 179.8414 404.0948 159.2522 404.1717 151.45 404.2778 141.4947 404.1917 110.8245 Z" id="fips-40011"/>
<path d="M 592.0978 192.0199 592.315 171.6991 632.4031 171.2498 632.5089 181.2971 642.3557 181.1374 642.6667 201.3313 652.6452 201.1897 652.7909 211.2069 647.7947 211.2939 609.5301 211.7417 609.4231 200.551 609.32 191.2775 608.9291 192.3107 607.0524 192.4066 606.3406 191.7399 604.9841 193.4594 605.438 194.5286 604.1759 195.803 602.1039 195.5575 601.8217 194.7203 598.7918 192.9266 597.4166 194.8002 598.6043 195.1883 598.1521 196.5767 600.3866 197.9098 600.5445 200.2016 598.7275 198.9915 596.6857 198.9827 595.8202 197.8867 594.5261 199.5763 592.2696 199.1622 592.0978 192.0199 Z" id="fips-40107"/>
<path d="M 453.6492 15.2531 459.7831 15.2676 460.2849 15.2679 460.8312 15.269 482.1517 15.3224 482.1531 15.3224 483.8843 15.3124 483.8896 15.2992 485.2451 15.3275 491.8353 15.3353 496.128 15.3229 497.3549 15.3149 500.1702 15.3658 504.0372 15.3663 505.6974 15.3634 505.7525 15.3678 507.4652 15.3639 512.4752 15.3679 513.443 15.3719 513.4615 42.0304 513.4445 62.0435 470.5425 61.9591 454.0569 61.8703 453.8287 21.7173 453.6532 21.7158 453.6492 15.2531 Z" id="fips-40053"/>
<path d="M 454.0569 61.8703 470.5425 61.9591 513.4445 62.0435 513.5237 62.0423 513.612 111.499 493.6242 111.4593 477.0514 111.4164 453.7766 111.2716 453.9474 76.9046 454.0569 61.8703 Z" id="fips-40047"/>
<path d="M 443.8553 111.2025 453.7766 111.2716 477.0514 111.4164 493.6242 111.4593 493.6723 146.4525 493.6753 162.0168 483.7081 162.0211 467.0148 161.9165 463.6666 161.9651 457.0112 161.9398 443.8013 161.8826 443.9161 148.5279 443.9729 141.8924 443.8553 111.2025 Z" id="fips-40073"/>
<path d="M 374.7071 71.0144 385.5121 71.2465 387.6958 75.3391 388.7581 76.5348 391.5297 77.9893 396.2421 78.4083 397.838 81.122 398.7316 81.8182 405.5736 84.5987 408.5329 84.6974 412.3402 83.5539 414.0957 84.1174 414.1715 76.5539 453.9474 76.9046 453.7766 111.2716 443.8553 111.2025 407.5096 110.7616 404.1917 110.8245 374.5179 110.8121 374.6286 102.8238 374.1987 100.9882 374.7071 71.0144 Z" id="fips-40093"/>
<path d="M 404.047 261.7975 411.0882 261.8584 426.0426 262.0002 453.8969 262.2416 454.2284 263.8802 454.1123 282.2713 449.1181 282.2349 448.9547 302.3033 439.2711 302.2192 439.2291 307.2196 434.3151 307.2022 434.2978 308.8719 414.4353 308.6448 414.3989 311.9817 404.4592 311.854 404.4431 313.5223 399.4594 313.4866 399.5927 301.7906 397.3569 301.7628 384.0128 301.602 384.1517 291.5731 384.5412 261.4934 404.047 261.7975 Z" id="fips-40031"/>
<path d="M 334.8827 109.8207 374.5179 110.8121 404.1917 110.8245 404.2778 141.4947 404.1717 151.45 397.5674 151.3577 396.967 151.4193 334.6785 150.4035 334.38 140.4108 334.6408 127.2644 334.8827 109.8207 Z" id="fips-40043"/>
<path d="M 667.6439 13.9492 669.3041 13.9325 670.1148 13.9107 671.3509 13.8912 671.7706 13.8846 673.9651 13.8442 674.2564 13.8362 674.6709 13.8181 675.9335 13.8132 676.8722 13.7806 678.0139 13.7614 678.9101 13.7462 682.0583 13.6876 682.5852 13.673 683.3594 13.6578 683.7086 13.6562 687.2541 13.5892 690.8598 13.5159 691.9625 13.4998 692.9595 13.4852 702.5162 13.2876 702.5264 13.2874 702.6435 19.7996 700.4445 19.8382 701.3135 59.6082 666.3531 60.2785 666.0253 41.9045 665.6389 20.5956 667.7712 20.5579 667.6439 13.9492 Z" id="fips-40105"/>
<path d="M 632.4031 171.2498 632.0886 146.1323 636.834 146.044 642.0104 145.9793 646.9609 145.9505 658.6099 145.8201 666.8653 145.7415 668.2016 145.6407 671.8872 145.5971 672.1424 160.6523 677.1159 160.5575 677.4892 180.6077 667.2358 180.7993 667.3092 190.9095 662.4143 191.0306 662.5725 201.0484 654.5729 201.1624 652.6452 201.1897 642.6667 201.3313 642.3557 181.1374 632.5089 181.2971 632.4031 171.2498 Z" id="fips-40111"/>
<path d="M 275.2026 194.0103 315.0422 195.0238 315.2756 184.9763 326.8069 185.2078 335.1014 185.3836 334.999 190.3918 334.8965 195.4635 334.8056 220.4572 334.6146 230.5653 330.081 230.5065 329.9868 230.733 327.0814 231.2988 327.0361 230.441 294.8117 229.7173 294.5609 239.7022 284.602 239.447 274.0603 239.1695 274.5029 221.6216 275.2026 194.0103 Z" id="fips-40009"/>
<path d="M 493.6242 111.4593 513.612 111.499 523.5533 111.5092 523.5368 112.1122 523.5885 131.6644 523.6465 132.1343 526.4046 129.1864 529.111 129.7946 529.9296 132.6818 530.9163 133.5261 533.9152 133.6303 535.9678 134.5019 537.6162 136.7766 540.5299 137.2044 543.2759 135.6725 543.4961 137.081 543.5025 138.749 543.5391 162.1529 533.6159 162.1337 533.6152 162.1412 521.9724 162.1051 513.6515 162.1058 508.6428 162.0799 506.9766 162.069 497.0021 162.0297 493.6753 162.0168 493.6723 146.4525 493.6242 111.4593 Z" id="fips-40083"/>
<path d="M 563.8525 322.4497 568.8438 322.3839 568.7428 302.4417 573.826 302.4164 603.59 302.2388 603.6925 312.1269 607.6906 312.0875 609.467 312.2048 613.8132 312.1571 614.1029 342.2361 609.6918 342.2799 609.7478 347.2269 597.2008 347.3441 597.4859 346.0893 595.1277 344.4348 593.8705 341.9898 591.7552 341.1956 590.6336 341.9934 589.0753 340.7561 563.9324 340.8966 563.8525 322.4497 Z" id="fips-40069"/>
<path d="M 563.616 262.3238 563.7683 261.9648 563.7239 249.6571 563.7909 249.5709 565.6144 250.3037 568.0178 254.0241 571.1363 253.7142 574.8015 251.8599 576.2531 253.539 576.2367 256.3111 578.406 256.9849 580.3119 256.9881 581.6067 260.4848 582.9885 261.8803 586.1374 260.5517 586.853 258.853 585.9629 256.5059 584.5149 255.5839 585.5797 253.4367 588.5844 253.4917 590.5667 256.6326 592.9421 256.9808 595.4016 256.1522 597.1578 254.9145 599.0691 255.1732 599.1809 257.0276 600.3464 259.0894 601.7925 260.2868 603.2975 259.5944 605.3193 255.5269 608.2227 254.8225 611.5723 256.2565 613.0567 253.1303 613.3169 255.6979 613.3304 256.8809 613.4629 271.9203 613.5832 282.0103 603.5564 282.1102 603.7575 302.2172 603.59 302.2388 573.826 302.4164 573.7602 292.3651 563.7865 292.4219 563.7679 287.4036 563.6466 267.2991 563.616 262.3238 Z" id="fips-40123"/>
<path d="M 683.3389 290.915 698.2876 290.5927 698.0726 280.5711 741.1535 279.6549 752.6915 279.3468 753.2119 299.3953 742.8554 299.612 743.6009 329.9702 733.6391 330.1849 733.3648 340.2109 678.7337 341.3742 678.7087 341.4052 674.0021 341.4594 673.3726 301.8983 673.3199 301.1549 683.5453 300.9439 683.3389 290.915 Z" id="fips-40127"/>
<path d="M 671.684 110.2903 674.9621 110.2616 675.5953 110.3085 679.9587 110.1896 684.9334 110.074 686.3459 113.3977 689.7834 113.8018 689.7901 116.3348 691.2897 118.1399 689.5637 120.0415 701.8108 119.8044 708.8374 119.6453 723.4094 119.3863 723.4629 123.4005 721.8836 123.4408 721.9539 126.9714 720.802 129.4417 719.5211 129.4887 717.1125 132.28 717.9756 134.1822 718.0813 136.258 717.0466 137.4881 717.0017 139.2014 719.2981 142.2372 721.6623 142.7073 722.1567 143.9163 721.8162 145.1888 719.8357 147.2212 718.7212 149.6315 716.7054 149.6888 713.2741 149.7381 709.6728 148.7583 704.3189 151.5207 698.955 151.1016 695.187 152.4959 691.6559 153.0344 691.0013 153.1384 689.4741 155.262 688.5233 155.7777 687.3923 154.3403 685.5646 154.4265 683.9735 153.309 683.6705 147.8569 682.6927 145.3611 671.8872 145.5971 668.2016 145.6407 666.8653 145.7415 666.824 140.5329 672.2151 140.4727 672.2095 139.5052 672.0396 130.3815 672.0318 129.8023 671.9809 127.0339 671.9534 125.3654 671.9234 123.6927 671.8316 118.6397 671.8017 117.008 671.7744 115.3336 671.7426 113.664 671.684 110.2903 Z" id="fips-40145"/>
<path d="M 711.0999 69.4607 724.3686 69.1521 740.9442 68.7974 741.6145 95.4772 741.6958 98.789 741.2478 100.5502 741.2826 102.2509 741.4551 108.9089 731.4903 109.1755 731.7462 119.2084 730.2777 119.2408 723.4094 119.3863 708.8374 119.6453 701.8108 119.8044 701.5277 106.4138 701.393 99.994 701.8013 99.7342 701.5725 88.5378 701.5564 87.9006 701.3706 79.7023 701.1546 69.6827 711.0999 69.4607 Z" id="fips-40097"/>
<path d="M 276.5528 141.1769 279.2146 140.3421 280.4117 139.0742 283.6669 137.5843 285.5555 134.9722 284.9617 132.8527 285.3921 131.5205 287.3126 129.1221 288.5158 129.1571 290.4591 127.3726 292.0575 127.0525 294.6942 127.8933 295.2831 131.1858 294.7272 132.4708 294.4268 136.0873 295.2003 138.2109 297.2403 139.9016 297.5026 140.8601 298.8793 141.7435 300.2499 141.6349 302.928 144.2543 306.5713 145.346 308.8691 145.4989 311.964 146.4926 313.6806 144.9371 317.7479 143.8613 318.6575 139.9344 321.9212 137.0541 323.8649 130.992 325.5888 130.2203 327.9344 128.0186 330.8067 127.3049 334.6408 127.2644 334.38 140.4108 334.6785 150.4035 333.9856 180.4117 335.1967 180.4373 335.1014 185.3836 326.8069 185.2078 315.2756 184.9763 315.0422 195.0238 275.2026 194.0103 275.78 171.3426 276.5528 141.1769 Z" id="fips-40129"/>
<path d="M 712.7991 236.7665 752.5175 235.8457 752.6647 241.0071 752.8785 249.2165 746.2294 249.3934 746.508 259.4245 740.6782 259.5769 740.9605 272.9521 741.1535 279.6549 698.0726 280.5711 698.3403 260.5344 697.9303 240.4568 712.852 240.133 712.7991 236.7665 Z" id="fips-40077"/>
<path d="M 592.2696 199.1622 594.5261 199.5763 595.8202 197.8867 596.6857 198.9827 598.7275 198.9915 600.5445 200.2016 600.3866 197.9098 598.1521 196.5767 598.6043 195.1883 597.4166 194.8002 598.7918 192.9266 601.8217 194.7203 602.1039 195.5575 604.1759 195.803 605.438 194.5286 604.9841 193.4594 606.3406 191.7399 607.0524 192.4066 608.9291 192.3107 609.32 191.2775 609.4231 200.551 609.5301 211.7417 609.7383 231.8339 605.1165 231.8718 605.3193 255.5269 603.2975 259.5944 601.7925 260.2868 600.3464 259.0894 599.1809 257.0276 599.0691 255.1732 597.1578 254.9145 595.4016 256.1522 592.9421 256.9808 590.5667 256.6326 588.5844 253.4917 585.5797 253.4367 584.5149 255.5839 585.9629 256.5059 586.853 258.853 586.1374 260.5517 582.9885 261.8803 581.6067 260.4848 580.3119 256.9881 578.406 256.9849 578.1844 228.7879 578.065 225.4497 577.9589 212.0382 577.8946 198.7359 580.939 198.5784 582.7508 196.4419 583.3255 197.9403 584.8632 197.4578 589.4555 200.1787 592.2696 199.1622 Z" id="fips-40133"/>
<path d="M 334.6785 150.4035 396.967 151.4193 397.5674 151.3577 404.1717 151.45 404.0948 159.2522 403.8219 179.8414 403.8134 181.5027 404.6497 181.5147 404.6194 183.282 404.5162 191.5833 364.8311 190.9305 334.999 190.3918 335.1014 185.3836 335.1967 180.4373 333.9856 180.4117 334.6785 150.4035 Z" id="fips-40039"/>
<path d="M 666.4182 80.3212 666.0911 60.2783 666.3531 60.2785 701.3135 59.6082 710.8555 59.3935 711.0999 69.4607 701.1546 69.6827 701.3706 79.7023 701.5564 87.9006 701.5725 88.5378 701.8013 99.7342 701.393 99.994 701.5277 106.4138 701.8108 119.8044 689.5637 120.0415 691.2897 118.1399 689.7901 116.3348 689.7834 113.8018 686.3459 113.3977 684.9334 110.074 679.9587 110.1896 675.5953 110.3085 674.9621 110.2616 671.684 110.2903 670.0167 110.3355 668.6365 110.3582 666.6852 110.3904 666.6439 107.5016 666.5746 103.267 666.5183 100.3773 666.783 98.7039 666.6654 92.0164 666.6067 88.6797 666.5221 83.6873 668.1853 83.6414 668.1154 80.2899 666.4182 80.3212 Z" id="fips-40131"/>
<path d="M 560.5634 352.6127 560.6197 340.9073 563.9324 340.8966 589.0753 340.7561 590.6336 341.9934 591.7552 341.1956 593.8705 341.9898 595.1277 344.4348 597.4859 346.0893 597.2008 347.3441 599.1002 350.1801 599.6298 352.0479 600.864 353.0835 598.3157 356.1462 598.4138 358.1022 597.5399 359.7359 596.5295 358.61 595.4999 359.6399 593.5266 359.5441 594.4331 361.624 596.4879 363.8031 597.3485 363.4628 598.1507 364.623 596.373 366.9843 597.6801 371.0911 597.1209 372.642 596.6965 372.5612 595.2995 372.6753 593.3167 372.7225 593.1414 372.6152 591.7987 371.4125 590.2733 370.1923 589.8411 370.1267 589.5758 370.1666 589.2496 370.4027 588.9812 370.7086 588.8065 371.0746 588.2787 372.5661 588.0488 373.9489 588.1858 374.8201 588.1781 375.1392 587.9471 376.4049 587.623 377.3628 587.3863 377.9008 586.5474 379.1644 586.0836 379.6321 585.7333 379.8608 585.3241 380.0284 582.1111 380.7367 581.3458 380.8623 580.6235 380.8967 580.1778 380.7788 579.8753 380.5484 579.7493 380.3024 579.1565 378.8834 579.1098 378.1711 578.8737 377.0465 578.7782 376.7985 578.4964 376.4047 577.4596 375.7955 575.6864 375.3747 573.8306 375.135 573.3303 375.5399 573.1061 375.8816 573.0099 376.4295 572.9438 377.6684 572.5347 378.1226 572.0864 378.3287 571.5601 378.2999 570.5657 377.6544 569.7144 376.8123 568.9696 375.9513 567.7339 372.6877 567.5893 371.9352 567.6518 370.7409 567.354 368.3914 567.0625 367.4381 566.7896 366.8406 566.5837 366.5185 566.2037 366.0674 565.7267 365.6281 565.5044 365.4994 565.1698 365.4261 564.9642 365.4756 564.2032 365.8798 563.9614 366.0343 563.925 359.2855 560.5883 359.2959 560.5634 352.6127 Z" id="fips-40095"/>
<path d="M 93.5962 6.3761 96.1443 6.4765 96.1442 6.4792 105.1407 6.8357 132.7635 7.874 132.8736 7.872 137.0189 8.0144 137.0209 8.0145 140.3428 8.1362 143.4412 8.2552 149.9002 8.4748 150.0048 8.4741 153.2828 8.5865 154.9826 8.6458 155.1552 8.6481 168.4656 9.0733 168.5967 9.069 181.896 9.4712 181.9227 9.472 183.1045 9.5098 186.8671 9.6214 188.3493 9.6896 193.0294 9.843 193.0383 9.8432 192.4063 27.0567 191.6481 27.0634 190.1613 67.2238 188.0405 67.1493 181.7299 66.9294 181.0747 66.903 178.0463 66.8295 128.249 64.8374 125.8421 64.7306 125.4963 64.7159 121.3403 64.5462 120.3594 64.4795 113.8811 64.1974 113.7725 64.1935 113.6453 64.1889 113.5185 64.1844 113.0794 64.1688 109.5324 64.0293 109.5268 64.0154 99.9544 63.4869 90.5257 63.0459 92.4425 22.9256 92.8245 22.4974 93.5962 6.3761 Z" id="fips-40139"/>
<path d="M 647.9509 14.3198 651.3126 14.2415 653.8221 14.1823 654.6382 14.172 656.2889 14.1352 659.3278 14.0897 659.5021 14.0871 659.6229 14.0854 660.2711 14.0792 665.6922 14.0042 667.6439 13.9492 667.7712 20.5579 665.6389 20.5956 666.0253 41.9045 666.3531 60.2785 666.0911 60.2783 666.4182 80.3212 659.7888 80.4129 656.4397 80.469 648.9451 80.5872 648.919 78.7347 648.4084 44.5767 648.3748 40.6537 647.9509 14.3198 Z" id="fips-40147"/>
<path d="M 643.229 271.5589 643.1013 261.5275 643.072 239.0282 644.9115 238.215 645.4758 234.5781 647.658 232.2901 648.5077 230.8148 650.3604 231.1213 650.01 228.3201 652.8126 227.1517 654.8112 227.0242 658.0316 227.9883 659.9622 227.9691 661.7852 226.5332 663.3967 223.0157 666.3175 223.1504 670.661 221.5897 673.032 223.6579 674.2127 223.8447 675.4702 222.0577 677.9364 222.3776 678.7573 220.8702 681.8239 220.1035 681.0232 219.2041 682.0073 217.9296 686.1056 215.6054 687.8781 215.2836 688.1349 216.9155 686.6802 218.1419 688.0377 218.6111 689.1542 218.24 691.3227 215.7936 696.889 213.1709 696.2854 211.6384 697.9929 209.1379 702.6213 209.605 702.8881 220.3452 702.5924 225.218 708.3632 225.1411 712.5375 225.0397 712.6292 228.9852 712.7991 236.7665 712.852 240.133 697.9303 240.4568 698.3403 260.5344 698.0726 280.5711 698.2876 290.5927 683.3389 290.915 663.4243 291.2983 663.2538 281.2808 643.3639 281.5745 643.229 271.5589 Z" id="fips-40121"/>
<path d="M 609.5301 211.7417 647.7947 211.2939 652.7909 211.2069 652.8126 227.1517 650.01 228.3201 650.3604 231.1213 648.5077 230.8148 647.658 232.2901 645.4758 234.5781 644.9115 238.215 643.072 239.0282 643.1013 261.5275 643.229 271.5589 613.4629 271.9203 613.3304 256.8809 613.3169 255.6979 613.0567 253.1303 611.5723 256.2565 608.2227 254.8225 605.3193 255.5269 605.1165 231.8718 609.7383 231.8339 609.5301 211.7417 Z" id="fips-40063"/>
<path d="M 334.6146 230.5653 362.842 231.0751 392.0862 231.5267 393.5406 233.2161 393.9517 232.0306 395.2458 231.9118 395.641 232.9065 397.1722 232.1016 399.1778 232.4665 399.4519 231.3111 401.466 230.7681 401.5006 231.8165 402.5048 230.9048 403.4311 231.6606 404.2469 233.8636 404.2448 235.8589 404.047 261.7975 384.5412 261.4934 384.1517 291.5731 367.5449 291.3378 367.628 286.3253 357.9481 286.1624 358.7471 282.6072 363.624 281.7586 364.2825 280.6473 362.8618 278.9112 358.4872 279.5698 353.714 278.6696 352.8181 277.7354 353.2282 276.1639 351.5504 272.5313 353.5487 271.9718 352.2928 270.4244 352.6118 268.1911 353.9089 267.6249 353.5225 264.2233 354.398 264.0351 354.4242 261.7178 353.0424 261.9021 350.9135 260.5036 347.9037 264.3004 344.7363 264.7106 343.822 263.0254 341.7949 262.6683 341.4079 261.5552 339.1595 260.5155 338.1433 258.8995 338.3069 257.273 340.6295 257.2461 340.8309 255.3915 340.0382 252.8745 337.0194 250.4333 336.7475 247.2 335.471 245.9638 336.7124 245.3915 336.7779 245.0699 336.7426 244.7532 336.6045 244.3323 336.6999 244.0539 336.9265 243.2274 337.0007 242.8809 337.3524 242.7085 337.5429 242.2787 337.5601 241.8967 337.432 241.5991 337.5113 239.2695 335.4018 238.9985 334.0178 237.076 333.7848 233.8773 330.9532 233.0247 329.9868 230.733 330.081 230.5065 334.6146 230.5653 Z" id="fips-40075"/>
<path d="M 752.5175 235.8457 752.0833 219.218 762.7758 218.966 762.4619 205.0232 764.2587 204.5428 765.6799 201.7588 767.7297 201.0206 770.6363 201.7586 773.9716 203.951 775.1332 205.2391 775.229 206.8054 776.1578 207.9054 778.1271 208.2868 781.0989 206.7154 782.9986 203.9085 785.4155 204.1061 786.8314 205.8421 788.8335 206.4611 790.3722 205.8168 792.5675 206.7065 793.7354 205.7158 792.3828 203.4162 792.3409 201.9466 793.6446 200.7856 793.0218 199.3531 794.333 198.033 796.7858 197.4825 797.9141 196.7135 798.0335 197.3625 797.981 197.8847 798.1831 198.651 798.144 198.9059 798.1788 199.4237 798.1631 205.9269 798.1172 207.6578 798.1211 208.1199 798.1588 209.4553 798.1279 209.6437 798.1284 209.9246 798.1285 209.9858 798.13 212.4308 798.0655 213.3428 798.0574 213.681 798.1053 214.6405 798.113 216.9398 798.1005 217.2175 798.0826 218.5197 798.0984 218.947 798.1394 219.6842 798.1326 221.4573 798.1386 221.7764 798.1426 222.4214 798.1671 226.4142 798.1541 227.4617 798.1624 234.0576 798.1736 243.7751 798.179 248.8811 798.1834 253.2704 798.2051 253.4677 798.2203 253.8818 798.2198 255.6462 798.2273 257.2506 798.2294 257.555 798.2321 257.9332 798.2389 261.1407 798.2618 272.5108 798.2697 276.6006 798.2805 282.4251 798.3111 283.3483 798.3703 293.3849 798.3787 293.6849 798.4056 298.0425 753.6782 299.4254 753.2119 299.3953 752.6915 279.3468 741.1535 279.6549 740.9605 272.9521 740.6782 259.5769 746.508 259.4245 746.2294 249.3934 752.8785 249.2165 752.6647 241.0071 752.5175 235.8457 Z" id="fips-40079"/>
<path d="M 334.999 190.3918 364.8311 190.9305 404.5162 191.5833 404.1481 221.5533 404.6728 221.5615 404.2469 233.8636 403.4311 231.6606 402.5048 230.9048 401.5006 231.8165 401.466 230.7681 399.4519 231.3111 399.1778 232.4665 397.1722 232.1016 395.641 232.9065 395.2458 231.9118 393.9517 232.0306 393.5406 233.2161 392.0862 231.5267 362.842 231.0751 334.6146 230.5653 334.8056 220.4572 334.8965 195.4635 334.999 190.3918 Z" id="fips-40149"/>
<path d="M 723.4094 119.3863 730.2777 119.2408 731.7462 119.2084 731.4903 109.1755 741.4551 108.9089 761.3503 108.4357 761.9422 129.7904 762.1861 138.4422 761.2412 138.4669 762.0707 168.6875 751.7768 168.9603 742.8483 169.2148 732.1112 169.4212 731.7018 151.3203 731.7015 151.0364 731.6577 149.3893 718.7212 149.6315 719.8357 147.2212 721.8162 145.1888 722.1567 143.9163 721.6623 142.7073 719.2981 142.2372 717.0017 139.2014 717.0466 137.4881 718.0813 136.258 717.9756 134.1822 717.1125 132.28 719.5211 129.4887 720.802 129.4417 721.9539 126.9714 721.8836 123.4408 723.4629 123.4005 723.4094 119.3863 Z" id="fips-40021"/>
<path d="M 761.3503 108.4357 783.1371 107.756 783.1399 107.7726 783.3256 108.8784 784.3337 114.5986 784.8182 117.346 784.8362 117.4619 786.1942 125.4302 786.2933 126.0186 786.4261 126.6918 786.604 127.7186 787.0309 130.2191 787.0455 130.2635 787.4434 132.5503 787.4768 132.7427 787.6381 133.6513 787.6682 133.7928 787.6663 133.8036 787.6682 133.8668 788.2556 137.5829 789.3788 144.0017 789.6074 145.4099 789.7452 146.2426 789.9105 147.2937 790.121 148.5302 790.1673 148.8298 790.1936 148.9648 790.2958 149.6226 790.3641 150.0183 790.8723 152.9035 791.0057 153.6386 791.0555 153.9514 791.6019 157.3852 791.6712 157.7398 793.3765 167.787 762.0707 168.6875 761.2412 138.4669 762.1861 138.4422 761.9422 129.7904 761.3503 108.4357 Z" id="fips-40001"/>
<path d="M 193.0383 9.8432 196.796 9.9276 196.8256 9.9074 197.984 9.9638 201.2943 10.0753 205.0962 10.1518 205.8461 10.1765 209.5801 10.2918 210.3702 10.2974 212.4253 10.3998 217.8464 10.5047 221.7279 10.6012 222.0551 10.6014 225.5817 10.6703 225.5894 10.6732 229.1425 10.7432 229.2418 10.7596 261.4125 11.5363 262.141 11.5504 262.2678 11.565 262.7115 11.5719 269.3154 11.7365 271.7275 11.8138 279.4294 12.0564 279.7184 12.0661 278.4255 59.112 278.0879 69.887 270.1044 69.6868 261.6644 69.4597 249.6882 69.1228 249.6537 69.1165 249.6325 69.1224 248.4385 69.0825 247.4855 69.0825 247.4833 69.0848 245.8755 69.032 245.8747 69.0303 243.4003 68.9628 243.3967 68.9544 240.166 68.8644 240.1581 68.867 239.4489 68.8408 239.4463 68.8455 238.2777 68.8095 237.6203 68.7891 237.6203 68.7858 230.1107 68.5801 229.3628 68.5494 229.3472 68.5624 229.2792 68.5545 229.2794 68.5487 227.8982 68.5056 224.9411 68.4021 224.9412 68.3993 224.4541 68.3863 224.4394 68.3812 223.6055 68.3611 223.6052 68.3565 223.5999 68.3563 218.4445 68.1928 218.4448 68.1891 217.5734 68.1605 217.5733 68.1624 212.8685 68.0051 212.8688 68.0014 211.4134 67.9531 211.4134 67.9505 207.9496 67.8358 207.9498 67.8315 204.1507 67.7038 204.1486 67.7037 203.8469 67.6921 203.8454 67.6874 202.1778 67.6374 202.1761 67.6374 199.716 67.5441 198.9005 67.5176 196.6418 67.4405 196.6331 67.4402 193.4573 67.3369 191.8347 67.2823 190.1613 67.2238 191.6481 27.0634 192.4063 27.0567 193.0383 9.8432 Z" id="fips-40007"/>
<path d="M 653.7725 341.7763 660.6907 341.6894 674.0021 341.4594 678.7087 341.4052 678.7337 341.3742 733.3648 340.2109 734.0022 365.5402 733.502 365.4869 732.9636 365.2542 732.7619 365.0425 731.2749 364.0695 727.8759 362.8562 727.203 362.8271 726.8146 362.9732 724.7417 366.145 724.683 366.6001 724.7468 366.8836 724.9163 367.2349 724.9905 368.0481 724.9863 368.5066 724.7943 369.3937 724.5471 369.6879 724.0475 370.0387 723.7818 370.1296 722.944 369.826 722.6771 369.8659 722.4399 369.9731 722.2612 370.1808 722.2107 370.4536 722.1206 371.5081 722.1182 372.0515 721.9619 372.6491 721.5462 372.981 720.8831 372.9449 719.4685 372.4098 717.9147 371.8219 717.16 371.7714 717.0588 371.831 717.0487 372.8632 716.6598 373.7887 715.3986 373.941 713.2081 373.936 710.0988 374.2251 706.3083 374.0115 704.7726 373.6442 704.6875 373.524 704.9234 372.3307 704.7835 372.0782 704.589 371.9893 704.1088 372.0688 703.3006 372.8692 702.0242 373.4113 701.0417 373.4403 700.6765 373.2578 700.6324 373.0053 700.6402 372.116 700.2656 371.6824 699.7625 371.5765 699.3041 371.7945 698.8169 372.2469 698.0651 372.7602 697.4457 372.9174 696.9278 372.8827 696.6233 372.6064 696.2515 371.9595 696.2149 371.2692 696.473 370.4701 696.4901 369.7049 696.2843 368.9466 695.7061 367.523 695.4604 367.1638 695.3052 367.0087 695.0728 366.9394 692.9157 366.7178 691.6038 366.7699 691.2384 367.5894 688.0964 370.0204 687.1136 370.1122 685.9078 369.7757 685.3821 369.896 684.9432 370.1678 684.2965 371.1713 683.5547 371.992 682.4048 372.5907 681.0754 372.6915 680.8197 372.6302 679.3771 371.6676 678.5064 371.4224 677.5672 371.4633 676.7096 371.8392 676.5245 372.0745 676.1969 372.9108 676.1529 373.9525 676.2244 374.1145 672.0926 374.5125 668.718 374.1025 666.7072 372.6167 666.0027 370.4882 664.9799 369.3724 661.113 368.3639 659.513 366.5057 659.2493 365.7313 658.9214 345.3499 657.805 344.8999 657.4224 342.696 653.7725 341.7763 Z" id="fips-40023"/>
<path d="M 449.0711 327.3332 464.0249 327.4977 503.9771 327.6046 503.9632 340.9996 503.9555 351.3685 504.1313 352.7318 504.1153 360.5786 506.4124 362.7805 504.1084 362.769 504.0775 372.7255 502.0146 372.3495 501.5655 372.1539 501.3922 371.9875 500.7205 370.8524 500.642 370.3801 500.6553 370.1082 500.7344 369.892 500.8369 369.7944 501.1789 369.1904 501.4385 366.4625 501.3651 366.2699 499.5036 364.5928 497.1462 363.0731 495.004 362.1214 494.4998 361.9673 493.5174 361.9019 491.9634 362.4476 491.4766 362.7816 491.0154 363.5142 490.4158 365.1252 489.8856 366.0846 489.2061 366.9276 488.3901 367.6884 487.7217 368.1884 487.5824 368.2224 487.3118 368.2007 487.1281 368.1028 485.7436 368.142 484.8047 368.445 484.8138 368.854 485.0824 369.504 485.122 370.2402 485.0426 370.4273 484.7026 370.7666 484.5421 370.8478 483.8513 370.7479 482.7936 371.1851 483.1148 371.8458 483.1758 372.4899 483.0851 372.917 482.6971 373.4804 481.0764 374.1083 480.8933 374.6777 480.7057 375.0253 477.9319 377.2618 474.9203 378.2043 474.3763 378.2473 473.8083 378.1028 471.9598 377.2027 471.127 376.5603 468.1419 374.7416 467.9453 374.6616 467.5694 374.6652 467.2117 374.7743 466.7569 374.8251 466.0662 374.7348 465.1744 374.356 464.5643 373.8676 464.2188 373.4926 464.214 373.4874 463.6526 372.6469 463.5774 372.4303 463.5808 372.243 463.6772 371.8635 464.0225 371.0127 464.136 370.8813 464.3121 370.882 464.675 371.4063 464.9867 371.6399 465.505 371.4813 465.8745 371.1426 466.2076 370.6718 466.5437 369.5308 466.6435 368.9427 466.5787 368.1402 466.4769 367.9866 466.3773 367.9387 465.6196 368.1596 465.3778 368.1637 464.879 368.0532 464.7534 367.963 464.6047 367.6878 464.5955 367.3948 464.7409 367.2003 465.4045 366.8735 465.9218 366.3534 466.2536 365.5977 467.3173 362.1588 467.3391 361.9927 467.2685 361.8895 467.1637 361.852 466.6744 361.9579 466.3722 361.9539 466.1361 361.871 465.6886 361.4784 465.1844 360.7507 464.8689 360.1842 464.6305 360.0354 464.241 360.1865 463.8031 360.5804 463.3642 360.8231 461.6155 361.2586 460.294 361.5004 459.5114 361.5476 458.2269 361.5291 456.8831 361.2467 454.2464 360.4741 454.0157 360.3751 453.7361 360.1174 452.28 357.375 452.1033 357.1319 452.1051 356.8377 452.2462 356.5653 452.4386 356.4405 452.8226 356.3377 452.8927 356.2542 452.9638 356.0234 453.0011 355.6032 452.7252 355.139 451.2557 353.5582 450.9304 353.0049 450.7261 352.4204 450.6533 351.367 450.8104 350.9984 452.2619 349.4263 452.7414 348.727 453.1479 347.9352 453.4091 347.277 453.5806 346.6947 453.6712 345.9774 453.6278 345.7501 452.522 343.8251 452.0369 343.1652 451.8094 342.9818 451.3288 342.9077 450.4827 342.9238 449.7704 343.381 449.1985 344.0155 448.9855 344.3812 449.0711 327.3332 Z" id="fips-40067"/>
<path d="M 513.443 15.3719 513.4491 15.3719 520.569 15.3491 521.7199 15.3458 528.3129 15.3265 542.4015 15.2693 544.714 15.2697 544.9268 15.2715 546.4003 15.2652 546.7338 15.2664 552.3361 15.2425 553.2291 15.2465 558.247 15.2115 559.0009 15.202 562.0132 15.1853 562.8735 15.1736 563.1845 15.1693 563.6283 15.1632 564.8785 15.1616 565.0098 15.1582 567.3836 15.1348 568.1911 15.1316 572.3075 15.1088 574.8473 15.1284 575.1359 15.0895 579.022 15.0834 579.0559 21.7265 578.9808 40.0747 575.6318 40.1107 575.6415 41.7692 572.5122 41.7953 572.6103 43.8137 571.4679 44.5816 568.481 43.5057 566.349 43.7163 564.7016 45.4992 563.4696 47.6658 562.4711 51.2441 560.7877 51.5372 559.129 50.974 556.9167 51.101 555.897 50.431 553.9421 50.4462 553.3379 49.5058 550.2579 51.5225 550.4708 55.3788 551.3048 56.1586 552.0961 60.904 550.9232 61.9548 543.3344 61.9409 513.5237 62.0423 513.4445 62.0435 513.4615 42.0304 513.443 15.3719 Z" id="fips-40071"/>
<path d="M 652.7909 211.2069 652.6452 201.1897 654.5729 201.1624 662.5725 201.0484 662.4143 191.0306 667.3092 190.9095 667.2358 180.7993 677.4892 180.6077 682.2656 180.5293 685.782 180.4639 690.7863 180.369 711.1442 179.8974 711.9673 179.9272 712.1954 189.5864 712.649 209.729 708.2785 205.8577 706.3245 206.3718 704.8731 208.4656 702.6213 209.605 697.9929 209.1379 696.2854 211.6384 696.889 213.1709 691.3227 215.7936 689.1542 218.24 688.0377 218.6111 686.6802 218.1419 688.1349 216.9155 687.8781 215.2836 686.1056 215.6054 682.0073 217.9296 681.0232 219.2041 681.8239 220.1035 678.7573 220.8702 677.9364 222.3776 675.4702 222.0577 674.2127 223.8447 673.032 223.6579 670.661 221.5897 666.3175 223.1504 663.3967 223.0157 661.7852 226.5332 659.9622 227.9691 658.0316 227.9883 654.8112 227.0242 652.8126 227.1517 652.7909 211.2069 Z" id="fips-40091"/>
<path d="M 278.4255 59.112 315.184 60.0351 315.1308 63.1828 314.3808 99.9131 315.2133 99.9226 314.9826 109.4434 334.8827 109.8207 334.6408 127.2644 330.8067 127.3049 327.9344 128.0186 325.5888 130.2203 323.8649 130.992 321.9212 137.0541 318.6575 139.9344 317.7479 143.8613 313.6806 144.9371 311.964 146.4926 308.8691 145.4989 306.5713 145.346 302.928 144.2543 300.2499 141.6349 298.8793 141.7435 297.5026 140.8601 297.2403 139.9016 295.2003 138.2109 294.4268 136.0873 294.7272 132.4708 295.2831 131.1858 294.6942 127.8933 292.0575 127.0525 290.4591 127.3726 288.5158 129.1571 287.3126 129.1221 285.3921 131.5205 284.9617 132.8527 285.5555 134.9722 283.6669 137.5843 280.4117 139.0742 279.2146 140.3421 276.5528 141.1769 277.0713 121.0468 278.3985 69.8947 278.0879 69.887 278.4255 59.112 Z" id="fips-40045"/>
<path d="M 404.5162 191.5833 404.6194 183.282 404.6497 181.5147 426.8639 181.7619 433.7028 181.8129 434.1671 181.8411 434.3219 185.8738 434.1854 201.9034 434.7062 201.9071 453.9469 201.9876 454.2638 222.0454 454.0452 235.308 453.9489 247.2249 453.8698 258.8978 453.8969 262.2416 426.0426 262.0002 411.0882 261.8584 404.047 261.7975 404.2448 235.8589 404.2469 233.8636 404.6728 221.5615 404.1481 221.5533 404.5162 191.5833 Z" id="fips-40015"/>
<path d="M 671.8872 145.5971 682.6927 145.3611 683.6705 147.8569 683.9735 153.309 685.5646 154.4265 687.3923 154.3403 688.5233 155.7777 689.4741 155.262 691.0013 153.1384 691.6559 153.0344 695.187 152.4959 698.955 151.1016 704.3189 151.5207 709.6728 148.7583 713.2741 149.7381 716.7054 149.6888 718.7212 149.6315 731.6577 149.3893 731.7015 151.0364 731.7018 151.3203 732.1112 169.4212 732.2509 174.3806 731.9563 182.4169 733.1001 184.7527 735.362 186.8733 736.6768 189.8883 739.8794 189.9827 738.1348 191.1784 737.1382 193.0357 736.6416 196.172 735.1817 197.1643 733.2387 200.1246 731.7192 199.2765 729.7265 200.5502 731.5927 202.0959 730.7549 203.2334 728.4448 202.7481 727.7685 204.3429 728.976 207.3984 728.4346 208.4212 726.2938 208.2121 725.7491 209.8586 724.1771 211.9349 722.4986 213.0583 720.4661 212.334 717.9361 209.3703 715.7175 208.5551 712.649 209.729 712.1954 189.5864 711.9673 179.9272 711.1442 179.8974 690.7863 180.369 685.782 180.4639 682.2656 180.5293 677.4892 180.6077 677.1159 160.5575 672.1424 160.6523 671.8872 145.5971 Z" id="fips-40101"/>
<path d="M 613.8132 312.1571 638.7381 311.8176 638.5813 301.7453 643.5865 301.6687 643.6342 300.7627 643.3639 281.5745 663.2538 281.2808 663.4243 291.2983 683.3389 290.915 683.5453 300.9439 673.3199 301.1549 673.3726 301.8983 674.0021 341.4594 660.6907 341.6894 653.7725 341.7763 643.1928 341.8962 629.2559 342.0678 614.1029 342.2361 613.8132 312.1571 Z" id="fips-40005"/>
<path d="M 702.5264 13.2874 709.5497 13.1203 709.8149 13.1161 709.8397 13.1156 710.3449 13.1053 722.0485 12.8165 723.7046 12.783 725.3905 12.7413 725.7213 12.7331 725.7383 12.7328 728.7775 12.6617 733.2497 12.5551 735.4575 12.4925 736.5283 12.4755 737.2209 12.4559 738.958 12.4103 739.3087 12.4039 736.8873 13.0742 737.2662 15.5763 738.0806 16.8966 740.7672 18.0805 740.2566 18.8659 741.0505 50.2665 740.6871 58.6867 740.9442 68.7974 724.3686 69.1521 711.0999 69.4607 710.8555 59.3935 701.3135 59.6082 700.4445 19.8382 702.6435 19.7996 702.5264 13.2874 Z" id="fips-40035"/>
<path d="M 274.0603 239.1695 284.602 239.447 284.3768 249.3916 299.2281 249.7293 299.7475 259.7785 300.0516 259.7793 299.8182 269.9847 303.1506 270.068 303.1257 271.7542 304.7879 271.7914 304.743 275.1546 304.2335 300.2045 287.3272 299.8532 286.5423 299.2804 285.0784 297.3983 284.7676 296.8743 284.6914 296.4973 284.5872 296.2938 283.4111 294.8875 282.7981 294.2764 282.5886 294.1202 282.3109 294.0818 280.7433 292.8709 280.1834 292.364 280.0617 291.8654 279.4872 291.602 277.9409 291.2685 277.0992 291.3717 276.8907 291.5591 276.8048 291.8284 276.8018 291.9966 276.6691 292.159 276.0176 292.7681 275.4433 293.1761 275.1368 293.2676 274.0835 293.3837 272.9781 293.3158 272.7053 293.299 273.2394 271.89 273.2397 271.8782 274.0603 239.1695 Z" id="fips-40057"/>
<path d="M 329.9607 13.4688 334.4857 13.5457 337.3962 13.5332 346.3997 13.7704 349.1031 13.8208 360.0206 14.026 360.4407 14.0333 367.3581 14.1687 369.2319 14.1551 371.9031 14.2064 372.4489 14.2167 382.9187 14.3922 382.9712 14.3983 383.9429 14.4093 390.5677 14.5065 390.912 14.5113 391.0753 14.5103 393.8673 14.5273 397.836 14.606 398.1996 14.6244 413.8104 14.8129 413.8299 14.8132 414.1646 21.3577 414.3557 61.4611 414.1715 76.5539 414.0957 84.1174 412.3402 83.5539 408.5329 84.6974 405.5736 84.5987 398.7316 81.8182 397.838 81.122 396.2421 78.4083 391.5297 77.9893 388.7581 76.5348 387.6958 75.3391 385.5121 71.2465 374.7071 71.0144 374.903 60.406 373.8407 60.2368 370.0779 55.5787 369.1961 55.3122 369.1413 53.1567 368.164 52.427 366.9155 50.2018 367.2786 49.2303 365.7315 46.843 363.6215 46.1023 362.4646 43.7237 359.8176 41.3168 358.6314 38.9375 356.1736 38.0244 354.0977 38.362 352.1236 37.9443 348.4381 38.533 346.6184 37.9572 344.4358 36.049 344.38 34.4776 342.3801 31.8172 342.6993 30.2259 337.229 27.4253 335.1262 22.5513 333.1068 20.2534 331.1276 13.9507 329.9607 13.4688 Z" id="fips-40151"/>
<path d="M 543.5391 162.1529 543.5025 138.749 543.4961 137.081 591.9649 136.837 592.315 171.6991 592.0978 192.0199 560.157 192.1471 543.6053 192.1708 543.5391 162.1529 Z" id="fips-40081"/>
<path d="M 621.8069 111.083 624.5609 111.0837 635.1768 111.0608 636.3568 111.0453 641.0728 110.9677 645.4487 110.8996 647.6716 110.8524 649.4199 110.8213 649.2794 104.1377 649.2456 101.5066 649.2407 101.2453 649.2428 100.5988 649.1239 93.981 648.9451 80.5872 656.4397 80.469 659.7888 80.4129 666.4182 80.3212 668.1154 80.2899 668.1853 83.6414 666.5221 83.6873 666.6067 88.6797 666.6654 92.0164 666.783 98.7039 666.5183 100.3773 666.5746 103.267 666.6439 107.5016 666.6852 110.3904 668.6365 110.3582 670.0167 110.3355 671.684 110.2903 671.7426 113.664 671.7744 115.3336 671.8017 117.008 671.8316 118.6397 671.9234 123.6927 671.9534 125.3654 671.9809 127.0339 672.0318 129.8023 672.0396 130.3815 672.2095 139.5052 672.2151 140.4727 666.824 140.5329 666.8653 145.7415 658.6099 145.8201 646.9609 145.9505 646.9257 144.2631 647.2162 140.8428 647.1489 135.8166 647.0684 130.7852 646.9957 125.7634 646.9669 124.0971 646.9148 120.7625 642.7689 120.8 640.2574 120.835 633.2561 120.9186 621.9383 121.0506 621.8069 111.083 Z" id="fips-40143"/>
<path d="M 732.1112 169.4212 742.8483 169.2148 751.7768 168.9603 762.0707 168.6875 793.3765 167.787 794.2238 172.8941 794.3182 173.4825 794.3577 173.6709 794.4469 174.1991 795.2239 179.0501 796.0269 184.0596 796.0356 184.1082 797.4303 191.9242 798.1234 195.805 798.1094 195.8543 798.0415 196.0923 797.8946 196.6076 797.9141 196.7135 796.7858 197.4825 794.333 198.033 793.0218 199.3531 793.6446 200.7856 792.3409 201.9466 792.3828 203.4162 793.7354 205.7158 792.5675 206.7065 790.3722 205.8168 788.8335 206.4611 786.8314 205.8421 785.4155 204.1061 782.9986 203.9085 781.0989 206.7154 778.1271 208.2868 776.1578 207.9054 775.229 206.8054 775.1332 205.2391 773.9716 203.951 770.6363 201.7586 767.7297 201.0206 765.6799 201.7588 764.2587 204.5428 762.4619 205.0232 761.1192 203.4377 760.9026 200.6612 759.3521 199.6378 757.4512 201.3241 754.0927 202.5531 752.7109 202.3562 752.8047 201.2102 754.6931 199.4962 754.888 198.1933 753.9524 196.6506 751.7234 197.2962 749.9245 196.2348 744.2861 195.109 742.3687 193.0909 742.2407 190.5924 739.8794 189.9827 736.6768 189.8883 735.362 186.8733 733.1001 184.7527 731.9563 182.4169 732.2509 174.3806 732.1112 169.4212 Z" id="fips-40135"/>
<path d="M 597.1209 372.642 597.6801 371.0911 596.373 366.9843 598.1507 364.623 597.3485 363.4628 596.4879 363.8031 594.4331 361.624 593.5266 359.5441 595.4999 359.6399 596.5295 358.61 597.5399 359.7359 598.4138 358.1022 598.3157 356.1462 600.864 353.0835 599.6298 352.0479 599.1002 350.1801 597.2008 347.3441 609.7478 347.2269 609.6918 342.2799 614.1029 342.2361 629.2559 342.0678 643.1928 341.8962 653.7725 341.7763 657.4224 342.696 657.805 344.8999 658.9214 345.3499 659.2493 365.7313 659.513 366.5057 661.113 368.3639 664.9799 369.3724 666.0027 370.4882 666.7072 372.6167 668.718 374.1025 672.0926 374.5125 676.2244 374.1145 676.3273 374.3476 676.6531 374.6823 677.0528 375.9994 676.9814 376.2854 676.6344 376.7422 676.1022 376.9965 675.3022 377.4871 675.1859 377.4872 674.8989 377.3411 673.7643 376.0715 673.5727 375.9192 672.5162 375.5311 672.104 375.5276 670.6317 375.8797 670.5327 376.0925 670.5349 376.2295 670.6383 376.7683 670.7528 377.0328 670.8128 377.4906 670.7794 377.6837 670.6471 377.9418 670.4588 378.1533 669.9416 378.4734 669.5889 378.5822 669.0552 378.5359 668.8148 378.4425 668.4504 378.1648 668.2696 377.9573 667.8565 377.4831 666.9239 376.6341 664.8213 375.7272 664.2225 375.3649 663.6585 374.8781 662.4939 374.0365 661.4686 373.4171 660.8183 373.1267 659.6183 372.7606 659.5295 372.7937 659.4309 373.0457 659.4717 373.3061 659.5881 373.5364 659.6224 373.7256 659.6271 374.1432 659.5099 374.6616 659.0821 375.7048 658.7966 375.9176 658.1006 376.2503 656.1359 376.3552 655.2881 376.03 654.965 375.4478 654.5205 375.1705 654.2689 375.1743 654.0656 375.2532 653.7697 375.466 653.6812 375.865 653.7217 376.4894 653.6982 376.875 653.6387 377.0064 652.9834 377.655 651.6229 378.2444 651.4477 378.0955 651.3826 377.945 651.3355 377.6077 651.3887 377.2631 651.3542 377.0552 651.0692 376.927 650.6596 376.8951 650.4893 377.0871 649.9384 378.1912 648.8319 378.7577 648.2047 378.5602 647.3797 378.1965 645.3906 377.6337 643.9084 377.5032 643.7785 377.6504 643.7919 377.764 643.8482 377.935 644.0072 378.1425 644.1591 378.6558 644.1854 379.2557 644.0059 379.518 643.5543 379.4944 642.9853 379.3104 642.1944 378.6892 641.7336 378.456 640.208 378.5697 639.333 378.7384 639.1371 378.9649 639.001 379.4172 639.2918 380.8819 639.1062 381.1391 637.8185 381.1548 636.7046 381.4432 636.608 381.5244 636.4163 381.9164 636.5797 382.5405 636.794 382.9023 636.9995 383.0598 637.2552 383.1921 637.5959 383.3574 638.0499 383.555 638.0001 384.4048 637.3865 386.5601 636.8997 387.3076 636.5762 387.6783 635.7685 388.1663 634.8317 388.5398 634.4961 388.6735 632.5273 389.2436 631.7119 389.1814 629.8564 387.9418 627.7684 386.8828 627.0604 386.7383 625.6077 387.138 625.3814 387.3306 624.7409 388.6072 624.6199 388.9402 624.3368 390.0813 624.2212 390.7735 624.308 391.7193 624.2749 392.5029 624.0067 393.6002 623.3545 394.9318 623.1815 395.1923 622.959 395.3854 620.9023 396.3454 620.3622 396.4203 619.6287 396.3394 619.0235 395.8092 618.9306 395.5341 618.9107 394.747 618.5441 393.5795 618.2836 392.9388 617.3319 391.912 616.875 391.419 614.9972 389.5797 614.5159 389.0201 614.0348 388.2741 613.7625 387.3111 613.6234 386.9741 613.3888 386.5163 613.1283 386.1727 612.4001 385.8796 611.8007 385.7252 610.6895 385.624 610.454 385.6775 609.9091 386.2077 609.6322 386.3031 607.0576 386.5856 605.6972 386.6485 605.5029 386.5494 604.572 385.635 604.1822 384.9112 604.1656 383.6282 604.1011 383.1411 603.7737 382.2021 603.3881 381.4263 603.1178 381.1091 602.8696 380.9691 602.521 380.8713 600.7677 381.3347 599.3251 381.4195 598.6889 381.3578 597.3272 380.3438 596.7634 380.014 595.9625 379.6283 593.8596 378.8227 593.2685 378.3665 593.1965 378.1306 593.2196 377.7474 593.2926 377.5692 593.6303 377.0899 594.9031 375.6417 595.8833 375.1943 596.2961 374.9282 596.9828 374.281 597.2296 373.8656 597.429 373.3227 597.4179 373.054 597.1769 372.6527 597.1209 372.642 Z" id="fips-40013"/>
<path d="M 739.3087 12.4039 740.4422 12.3736 753.5099 12.1087 753.8222 12.1001 754.6383 12.0831 755.5253 12.0617 760.4924 11.9317 763.9802 11.8439 764.1771 11.8409 766.4211 11.7631 767.4298 11.7322 767.6194 11.7279 774.4697 11.5466 775.1363 11.5003 775.1378 11.8111 775.1447 11.9843 775.2997 17.1143 775.3045 17.5285 775.3304 18.5628 775.346 19.4772 775.366 19.8698 775.3663 19.8817 775.4102 21.5703 775.4638 23.2338 775.4843 25.1885 775.6232 28.9589 775.909 38.2599 776.15 45.7616 776.27 49.4461 776.2757 49.6199 761.7873 50.0441 761.1045 49.7383 755.6972 49.8929 741.0505 50.2665 740.2566 18.8659 740.7672 18.0805 738.0806 16.8966 737.2662 15.5763 736.8873 13.0742 739.3087 12.4039 Z" id="fips-40115"/>
<path d="M 591.7091 111.6678 591.9098 111.2493 612.23 111.0854 621.8069 111.083 621.9383 121.0506 633.2561 120.9186 640.2574 120.835 642.7689 120.8 646.9148 120.7625 646.9669 124.0971 646.9957 125.7634 647.0684 130.7852 647.1489 135.8166 647.2162 140.8428 646.9257 144.2631 646.9609 145.9505 642.0104 145.9793 636.834 146.044 632.0886 146.1323 632.4031 171.2498 592.315 171.6991 591.9649 136.837 591.9229 134.7962 591.7091 111.6678 Z" id="fips-40037"/>
<path d="M 287.3272 299.8532 304.2335 300.2045 304.743 275.1546 327.808 275.5834 325.9823 274.9467 326.5234 274.239 326.5704 270.4746 329.5605 270.5458 329.647 265.4747 344.3485 265.7847 344.7363 264.7106 347.9037 264.3004 350.9135 260.5036 353.0424 261.9021 354.4242 261.7178 354.398 264.0351 353.5225 264.2233 353.9089 267.6249 352.6118 268.1911 352.2928 270.4244 353.5487 271.9718 351.5504 272.5313 353.2282 276.1639 352.8181 277.7354 353.714 278.6696 358.4872 279.5698 362.8618 278.9112 364.2825 280.6473 363.624 281.7586 358.7471 282.6072 357.9481 286.1624 360.1781 288.3846 359.2992 288.8008 359.7834 291.6199 358.1974 291.217 356.0872 291.9012 355.1072 291.4016 352.1494 291.8178 350.09 294.7467 350.6668 297.3172 348.8851 297.0226 347.5427 301.6929 346.5221 302.5017 346.4195 305.9918 347.1421 306.9282 345.7416 307.4028 346.1856 309.599 345.6792 311.1212 344.7361 310.4766 344.9657 313.2392 345.7752 313.2295 345.593 314.8496 346.976 314.0051 347.4108 314.7174 346.3771 316.3489 347.5275 316.3767 348.9059 318.6337 348.35 320.3801 347.1607 320.7417 346.9386 320.2694 346.5413 320.1298 346.3095 320.1422 346.097 320.2948 345.6991 320.3217 345.3353 320.2217 345.0905 320.0051 345.0304 319.8057 344.9559 318.726 344.6908 317.6544 344.1675 316.4983 343.6014 316.106 343.3677 316.206 343.0473 316.5085 342.6699 316.4754 341.4915 315.4204 341.1517 315.0339 341.1158 314.8379 341.2491 314.7296 342.1485 314.6854 342.4667 314.5225 342.6803 314.331 342.4825 312.9151 342.2153 312.7201 339.7872 311.5717 339.3394 311.4895 338.9142 311.6136 338.0335 312.083 337.2601 312.2771 337.0711 312.2631 336.9542 312.1949 336.5272 311.5429 336.1207 310.622 335.622 310.0188 334.9358 309.5996 334.0869 308.8896 333.4986 308.2952 333.4675 307.9752 333.5024 307.7884 333.6927 307.4329 333.7131 307.1799 333.33 306.7109 332.3089 306.3646 331.7626 306.3373 331.2223 306.5469 329.8656 308.2306 329.6312 310.3116 329.6299 310.9241 329.6662 311.0858 329.906 311.3229 330.1157 312.4382 329.508 315.6256 329.2785 315.9429 328.9559 316.1208 328.5539 316.2139 328.3946 316.1911 327.3102 315.2839 326.2905 316.0762 325.3637 315.9762 324.9715 315.3035 324.2651 314.326 322.5423 313.3442 322.1473 313.3447 321.9168 313.345 321.0013 313.142 320.7004 312.9355 320.3624 312.3453 320.0854 311.9967 319.8251 311.7751 318.4665 311.237 318.1499 311.1775 317.572 311.4293 316.9872 311.5041 315.1415 311.32 314.5052 311.0848 313.9207 310.7637 313.2115 310.6221 312.7674 310.6285 312.2227 310.8045 311.7813 311.8301 311.68 312.9286 311.7372 313.727 311.6452 313.9891 311.4332 314.3357 310.5828 315.3237 310.225 315.5982 307.9247 315.6766 307.2929 315.3828 305.5196 314.897 305.0805 315.2753 304.5841 315.5097 304.2645 315.5845 303.9533 315.5194 303.4502 315.1015 302.799 314.8468 301.0743 314.6656 300.0035 313.8921 299.5577 313.4914 299.3619 313.0725 299.4278 312.6939 299.3538 312.3543 299.233 312.114 298.8766 311.7049 297.9307 311.1134 296.9365 310.6847 295.6859 309.9038 294.4762 308.814 294.4404 308.6574 294.712 308.2704 294.7203 308.136 294.6496 308.0129 293.7037 307.2144 293.0163 307.1824 292.0253 306.0608 290.1256 303.4447 289.7288 302.4243 289.7888 302.0956 289.1372 300.9557 288.4246 300.6538 287.3272 299.8532 Z" id="fips-40065"/>
<path d="M 504.1313 352.7318 560.5634 352.6127 560.5883 359.2959 563.925 359.2855 563.9614 366.0343 563.0257 366.6319 562.2922 367.1698 560.3634 368.1924 560.2425 368.2043 559.9405 368.0036 559.6644 367.5287 559.5441 366.657 559.5765 366.3511 559.7017 365.9684 559.6946 365.8477 559.5108 365.8256 558.8851 366.0255 558.6049 366.2538 558.2767 366.6581 558.1745 366.878 558.0997 367.5205 558.216 368.6365 558.3157 368.9881 558.8238 370.1964 559.1955 371.7615 559.2953 373.2335 559.1457 373.8749 556.0757 378.0809 555.5005 378.7666 554.0716 379.4585 553.8434 379.5175 552.9099 378.5072 552.4378 377.4526 551.2649 376.9134 549.4329 377.7294 549.1274 378.7221 549.8021 379.2245 552.2582 379.8979 553.1186 380.9666 553.1928 381.8595 551.2954 382.211 550.28 382.4134 549.3809 382.8789 548.9891 383.4161 548.7369 384.0582 548.6943 384.5647 548.8228 385.1499 549.4104 386.87 549.6666 387.8581 549.727 388.4935 549.7224 389.2821 549.5826 390.3441 549.1192 391.3617 548.8322 391.8377 548.5395 392.2056 547.8352 392.8074 547.4134 393.0756 546.999 393.2488 546.2484 393.4394 545.7692 393.468 544.6731 393.2735 543.5346 392.897 542.99 392.6137 542.2134 392.0542 541.3438 391.1098 540.4126 389.0019 539.838 387.4104 539.5846 386.0921 539.1628 385.6106 538.3497 384.2308 538.1381 383.7539 538.1143 382.7937 538.1744 381.7515 538.3153 381.4107 538.6787 380.7765 538.8907 380.491 539.0479 380.3744 539.2527 380.3157 539.9648 380.3612 540.4321 380.3043 541.3635 379.8452 541.8214 379.2608 541.8376 378.4641 540.5798 373.2913 540.4605 372.9514 540.0174 372.3196 538.0347 370.7611 537.577 370.5569 536.0853 370.7247 534.5985 371.6922 534.3264 372.0598 534.2091 372.3766 533.9261 375.2852 533.4477 376.4128 533.3141 376.6003 533.2195 376.6479 531.7931 376.7348 531.4278 376.659 531.0677 376.5065 530.4089 376.0505 529.6183 375.1436 529.1373 374.7111 528.8287 374.7116 528.3489 374.9396 527.6886 376.2327 527.5453 376.3655 527.3225 376.4485 526.9281 376.4699 526.7563 376.3462 526.5322 375.5827 526.429 375.4383 526.2746 375.3767 525.9144 375.3773 525.5718 375.5636 525.2982 376.1627 525.1551 377.0147 524.4458 378.9003 523.4739 380.498 522.8051 381.2194 522.4955 381.4838 522.0939 381.7166 518.5086 381.7902 516.9665 381.7276 515.2715 381.2245 514.4227 380.6761 513.847 379.98 513.4841 379.1517 513.6151 378.2546 513.7988 377.8218 513.9853 377.6133 514.573 375.7925 514.6215 373.4347 513.9405 372.2556 513.7198 371.9892 511.4565 370.6286 511.2204 370.4867 510.4216 370.2258 509.838 370.1814 508.0962 370.8728 507.5121 371.09 506.7997 371.6857 505.7929 372.2943 504.9991 372.6788 504.668 372.7552 504.3554 372.7761 504.0775 372.7255 504.1084 362.769 506.4124 362.7805 504.1153 360.5786 504.1313 352.7318 Z" id="fips-40085"/>
<path d="M 315.184 60.0351 318.537 60.0856 343.8855 60.3346 344.38 34.4776 344.4358 36.049 346.6184 37.9572 348.4381 38.533 352.1236 37.9443 354.0977 38.362 356.1736 38.0244 358.6314 38.9375 359.8176 41.3168 362.4646 43.7237 363.6215 46.1023 365.7315 46.843 367.2786 49.2303 366.9155 50.2018 368.164 52.427 369.1413 53.1567 369.1961 55.3122 370.0779 55.5787 373.8407 60.2368 374.903 60.406 374.7071 71.0144 374.1987 100.9882 374.6286 102.8238 374.5179 110.8121 334.8827 109.8207 314.9826 109.4434 315.2133 99.9226 314.3808 99.9131 315.1308 63.1828 315.184 60.0351 Z" id="fips-40153"/>
<path d="M 454.1123 282.2713 455.7257 282.2607 459.0471 282.2538 473.1975 282.3176 493.9793 282.4041 503.9936 282.4399 503.9933 282.8475 503.9738 295.803 503.9448 302.0764 504.0197 302.5028 504.005 312.6121 503.9771 327.6046 464.0249 327.4977 449.0711 327.3332 449.1522 315.6353 449.2299 302.5606 448.9547 302.3033 449.1181 282.2349 454.1123 282.2713 Z" id="fips-40137"/>
<path d="M 523.9839 302.5254 543.7522 302.507 543.2935 301.857 543.1444 301.7309 542.8806 301.3282 542.9961 301.2114 543.3571 301.1539 543.7012 301.0116 543.7546 300.8034 541.7514 299.729 542.4452 297.3904 540.6775 295.039 541.5283 293.1061 539.411 292.2105 538.3849 289.1309 543.8573 289.1328 543.8231 287.4583 563.7679 287.4036 563.7865 292.4219 573.7602 292.3651 573.826 302.4164 568.7428 302.4417 568.8438 322.3839 563.8525 322.4497 554.7883 322.4989 554.593 322.2421 553.6491 321.8287 553.4576 321.4513 554.1434 320.754 554.2889 317.8604 552.823 317.5638 523.9993 317.5692 523.9839 302.5254 Z" id="fips-40099"/>
<path d="M 284.602 239.447 294.5609 239.7022 294.8117 229.7173 327.0361 230.441 327.0814 231.2988 329.9868 230.733 330.9532 233.0247 333.7848 233.8773 334.0178 237.076 335.4018 238.9985 337.5113 239.2695 337.432 241.5991 337.5601 241.8967 337.5429 242.2787 337.3524 242.7085 337.0007 242.8809 336.9265 243.2274 336.6999 244.0539 336.6045 244.3323 336.7426 244.7532 336.7779 245.0699 336.7124 245.3915 335.471 245.9638 336.7475 247.2 337.0194 250.4333 340.0382 252.8745 340.8309 255.3915 340.6295 257.2461 338.3069 257.273 338.1433 258.8995 339.1595 260.5155 341.4079 261.5552 341.7949 262.6683 343.822 263.0254 344.7363 264.7106 344.3485 265.7847 329.647 265.4747 329.5605 270.5458 326.5704 270.4746 326.5234 274.239 325.9823 274.9467 327.808 275.5834 304.743 275.1546 304.7879 271.7914 303.1257 271.7542 303.1506 270.068 299.8182 269.9847 300.0516 259.7793 299.7475 259.7785 299.2281 249.7293 284.3768 249.3916 284.602 239.447 Z" id="fips-40055"/>
<path d="M 702.6213 209.605 704.8731 208.4656 706.3245 206.3718 708.2785 205.8577 712.649 209.729 715.7175 208.5551 717.9361 209.3703 720.4661 212.334 722.4986 213.0583 724.1771 211.9349 725.7491 209.8586 726.2938 208.2121 728.4346 208.4212 728.976 207.3984 727.7685 204.3429 728.4448 202.7481 730.7549 203.2334 731.5927 202.0959 729.7265 200.5502 731.7192 199.2765 733.2387 200.1246 735.1817 197.1643 736.6416 196.172 737.1382 193.0357 738.1348 191.1784 739.8794 189.9827 742.2407 190.5924 742.3687 193.0909 744.2861 195.109 749.9245 196.2348 751.7234 197.2962 753.9524 196.6506 754.888 198.1933 754.6931 199.4962 752.8047 201.2102 752.7109 202.3562 754.0927 202.5531 757.4512 201.3241 759.3521 199.6378 760.9026 200.6612 761.1192 203.4377 762.4619 205.0232 762.7758 218.966 752.0833 219.218 752.5175 235.8457 712.7991 236.7665 712.6292 228.9852 712.5375 225.0397 708.3632 225.1411 702.5924 225.218 702.8881 220.3452 702.6213 209.605 Z" id="fips-40061"/>
<path d="M 733.3648 340.2109 733.6391 330.1849 743.6009 329.9702 742.8554 299.612 753.2119 299.3953 753.6782 299.4254 798.4056 298.0425 798.4687 308.1703 798.4725 308.7604 798.4787 310.115 798.5081 315.0899 798.4937 315.952 798.6252 334.6458 798.7574 354.0041 798.7575 354.0086 798.758 354.0236 798.765 354.26 798.779 361.4388 798.7832 361.8451 798.8001 363.332 798.8042 363.6976 798.8552 370.1817 798.8416 370.2153 798.8505 373.6571 798.8625 376.0958 798.8795 379.239 798.8798 379.2664 798.8857 380.0649 798.8796 380.8384 798.9091 384.6085 798.9089 384.9136 798.9104 385.2429 798.9103 385.2678 798.9277 389.1659 798.9491 389.7877 798.9409 392.0627 798.9624 392.4865 798.9479 395.3126 798.9769 396.473 799 398.2518 798.8728 399.2845 798.5033 399.7364 797.2614 400.285 795.731 400.8054 795.1888 400.518 794.9274 400.222 794.8249 399.5837 794.9575 399.3096 794.8579 398.7725 794.4543 398.4133 793.9199 398.3956 793.4494 398.646 792.9441 398.6611 792.5995 398.4013 792.5028 397.9654 792.7078 397.6693 792.7006 397.0142 792.6059 396.6457 792.1182 396.2889 791.3913 396.4117 791.0022 396.5583 790.8048 396.5304 790.6578 396.2985 790.6773 395.9941 790.9174 395.5481 790.8518 395.2125 790.5598 394.816 790.1554 394.4229 789.8883 393.9443 789.2115 393.8093 788.8514 393.9888 788.554 394.4027 788.2539 394.7152 787.6646 394.7325 787.2407 394.6436 786.8394 394.3516 786.3193 393.8266 785.8937 393.6703 785.2867 394.0593 785.02 394.5735 784.5822 394.9912 783.8572 395.181 783.5456 395.0887 783.3081 394.623 783.342 393.8119 783.2729 393.3412 783.1496 392.9397 782.8878 392.6096 782.2231 392.4952 779.7932 393.4618 777.576 393.234 777.3585 393.0933 777.2866 392.6916 777.2728 392.1782 777.3839 391.7713 777.2127 391.0787 776.8418 390.9057 776.4423 390.8068 776.1707 390.9246 775.9622 391.1139 775.8194 391.4851 775.5842 391.8219 775.1857 391.7597 774.7145 391.259 774.6668 391.1112 774.5149 390.6407 774.6488 389.9397 774.4463 389.2112 774.1277 388.7063 773.1136 388.4409 772.5341 388.457 772.1614 388.2104 771.6866 387.5629 771.6407 386.977 771.8072 386.3484 771.7679 386.0192 771.6078 385.7299 771.3305 385.6275 770.9323 385.5651 769.5568 386.6305 768.7079 386.8373 767.6874 386.3146 767.4054 386.0287 766.8861 386.006 766.4631 386.1644 766.1934 386.3552 766.0876 386.982 765.9122 387.2803 765.6416 387.4344 764.6067 387.5357 763.8727 387.5377 761.9392 386.865 761.4158 386.4995 761.1759 386.1537 761.318 385.7739 761.2512 385.1664 760.9343 384.6976 760.719 384.6299 760.2645 384.752 760.0518 384.4527 758.6946 383.4458 758.3092 383.2366 757.8128 383.2276 757.0066 382.3359 756.9503 381.9605 756.9841 381.4321 757.2132 380.5784 757.22 380.2202 757.1144 379.752 756.9537 379.5866 756.7145 379.4044 756.4614 379.298 756.0865 379.3267 755.7158 379.5247 755.3892 379.6085 755.029 379.599 754.5707 379.4224 754.1318 378.7556 754.0318 377.8727 753.2266 376.8222 752.5778 376.6064 752.4034 375.2972 752.0806 373.8657 751.8344 373.733 751.6465 373.7829 751.3844 374.0067 750.8853 374.8909 750.7299 375.0021 750.2352 375.0554 749.831 374.898 749.5443 374.3311 749.0809 373.7589 748.2915 373.3659 747.5352 373.9261 746.9752 374.1221 745.5511 374.1073 744.6497 373.863 744.4106 373.6932 743.4109 371.0995 743.1746 370.1283 742.7398 369.6443 742.1831 369.4262 741.4612 369.8149 740.9877 370.4138 740.3723 370.4288 740.0317 370.1279 739.8946 369.7449 739.9054 369.1109 739.5585 368.532 739.3344 368.2747 739.087 368.1106 738.3581 368.2055 737.4918 367.9018 737.2537 367.5829 737.2326 367.228 737.3329 366.1205 736.988 365.7407 736.3749 365.4961 734.618 365.6059 734.0022 365.5402 733.3648 340.2109 Z" id="fips-40089"/>
<path d="M 603.59 302.2388 603.7575 302.2172 603.5564 282.1102 613.5832 282.0103 613.4629 271.9203 643.229 271.5589 643.3639 281.5745 643.6342 300.7627 643.5865 301.6687 638.5813 301.7453 638.7381 311.8176 613.8132 312.1571 609.467 312.2048 607.6906 312.0875 603.6925 312.1269 603.59 302.2388 Z" id="fips-40029"/>
<path d="M 494.0464 262.3739 512.3873 262.3736 530.1441 262.3703 563.616 262.3238 563.6466 267.2991 563.7679 287.4036 543.8231 287.4583 543.8573 289.1328 538.3849 289.1309 539.411 292.2105 541.5283 293.1061 540.6775 295.039 542.4452 297.3904 541.7514 299.729 543.7546 300.8034 543.7012 301.0116 543.3571 301.1539 542.9961 301.2114 542.8806 301.3282 543.1444 301.7309 543.2935 301.857 543.7522 302.507 523.9839 302.5254 504.0197 302.5028 503.9448 302.0764 503.9738 295.803 503.9933 282.8475 503.9936 282.4399 493.9793 282.4041 494.0464 262.3739 Z" id="fips-40049"/>
<path d="M 523.5368 112.1122 543.3992 112.0455 543.3354 101.9962 563.4016 101.8992 573.2626 101.8372 573.3286 111.9312 591.2481 111.6451 591.7091 111.6678 591.9229 134.7962 591.9649 136.837 543.4961 137.081 543.2759 135.6725 540.5299 137.2044 537.6162 136.7766 535.9678 134.5019 533.9152 133.6303 530.9163 133.5261 529.9296 132.6818 529.111 129.7946 526.4046 129.1864 523.6465 132.1343 523.5885 131.6644 523.5368 112.1122 Z" id="fips-40119"/>
<path d="M 740.9442 68.7974 740.6871 58.6867 741.0505 50.2665 755.6972 49.8929 761.1045 49.7383 761.7873 50.0441 776.2757 49.6199 776.485 55.9907 776.5002 56.6534 776.5279 57.5439 776.605 60.0072 776.6343 61.0467 776.7373 64.701 776.7431 64.8038 776.7374 65.0126 776.8045 66.9106 776.8147 67.2331 776.8643 69.0283 777.1551 70.6825 777.3222 71.6856 777.5783 73.3752 778.2886 77.9173 778.6039 79.8294 778.674 80.192 778.9335 81.8598 779.664 86.6626 779.9023 88.1799 780.4893 91.9154 780.656 92.9265 781.4335 97.6393 781.4338 97.7006 781.6426 98.7871 781.7512 99.5204 781.7722 99.6283 781.8268 99.9431 782.1234 101.8076 782.183 102.1257 782.1846 102.134 782.7119 105.246 782.8171 105.8579 783.1371 107.756 761.3503 108.4357 741.4551 108.9089 741.2826 102.2509 741.2478 100.5502 741.6958 98.789 741.6145 95.4772 740.9442 68.7974 Z" id="fips-40041"/>
<path d="M 453.9469 201.9876 461.3288 202.0121 462.3569 204.0379 462.987 203.7652 467.1681 205.7139 467.9521 204.5232 467.9365 202.3904 469.3323 202.5736 470.3951 204.8678 472.2062 204.8843 472.0595 205.8101 473.8461 205.4017 475.8532 203.9323 476.4084 205.8845 478.5803 206.9927 479.0471 207.1099 481.0727 206.3691 482.4953 207.3122 484.6384 205.8264 485.3675 206.4396 487.6372 208.357 490.5661 208.2226 493.8185 206.9679 493.8792 207.3185 493.8805 212.1455 493.8873 227.2049 493.8281 253.9964 493.8045 262.0741 494.0464 262.3739 493.9793 282.4041 473.1975 282.3176 459.0471 282.2538 455.7257 282.2607 454.1123 282.2713 454.2284 263.8802 453.8969 262.2416 453.8698 258.8978 453.9489 247.2249 454.0452 235.308 454.2638 222.0454 453.9469 201.9876 Z" id="fips-40051"/>
<path d="M 579.022 15.0834 579.8103 15.0485 580.241 15.0398 582.6438 15.0229 583.1087 15.0271 599.6614 14.9371 601.9889 14.9221 609.7992 14.7863 611.7445 14.7524 622.3449 14.6227 622.5944 14.6198 628.0052 14.5748 629.6196 14.5587 631.0235 14.5191 631.0285 14.519 633.8532 14.487 634.0036 14.4976 634.2498 14.4956 634.4859 14.4944 634.8479 14.4766 635.032 14.4926 647.9509 14.3198 648.3748 40.6537 648.4084 44.5767 648.919 78.7347 648.9451 80.5872 649.1239 93.981 649.2428 100.5988 649.2407 101.2453 649.2456 101.5066 649.2794 104.1377 649.4199 110.8213 647.6716 110.8524 645.4487 110.8996 641.0728 110.9677 636.3568 111.0453 635.1768 111.0608 624.5609 111.0837 624.4606 109.7361 626.8719 106.3732 625.5365 103.7247 617.7974 103.3229 613.3992 99.0959 609.0075 96.9829 607.8535 92.9179 606.8125 91.6721 604.0362 91.9684 602.7023 94.5738 601.4308 95.6268 598.478 95.6792 596.002 93.6762 596.0399 91.815 597.3077 89.88 599.6055 89.0037 601.0265 86.7891 600.2652 84.5874 598.9478 83.8881 595.7325 86.921 593.2949 86.0316 592.8489 83.6144 591.5753 82.8749 590.1104 81.0294 586.5194 81.692 585.1233 81.3082 582.6704 79.1092 582.4788 77.7038 583.5283 75.1312 583.1941 73.5648 581.7763 72.1902 581.4666 69.0416 580.5867 66.7966 579.0653 65.3662 577.5897 65.0537 574.945 66.4381 572.8386 68.1565 571.3079 70.2414 571.2967 71.2806 570.0371 73.6501 567.8615 76.0082 564.4204 76.3831 561.8558 77.817 559.2428 77.2705 555.7912 74.3338 555.3797 71.9264 556.6257 69.3801 558.2167 68.6538 560.111 68.7481 563.2296 66.6277 565.2732 66.7506 566.6104 64.0348 564.3043 61.2757 563.5874 61.0823 560.9912 62.326 555.9776 63.2085 552.9208 62.8023 550.9232 61.9548 552.0961 60.904 551.3048 56.1586 550.4708 55.3788 550.2579 51.5225 553.3379 49.5058 553.9421 50.4462 555.897 50.431 556.9167 51.101 559.129 50.974 560.7877 51.5372 562.4711 51.2441 563.4696 47.6658 564.7016 45.4992 566.349 43.7163 568.481 43.5057 571.4679 44.5816 572.6103 43.8137 572.5122 41.7953 575.6415 41.7692 575.6318 40.1107 578.9808 40.0747 579.0559 21.7265 579.022 15.0834 Z" id="fips-40113"/>
<path d="M 413.8299 14.8132 425.2824 14.9844 425.461 14.9835 426.3148 14.9945 431.3684 15.104 432.0056 15.1095 432.0941 15.1102 442.0776 15.1907 443.7537 15.2204 444.7921 15.2082 447.6105 15.227 450.385 15.2284 453.6492 15.2531 453.6532 21.7158 453.8287 21.7173 454.0569 61.8703 453.9474 76.9046 414.1715 76.5539 414.3557 61.4611 414.1646 21.3577 413.8299 14.8132 Z" id="fips-40003"/>
<path d="M 4.3335 1 5.7177 1.26 5.8251 1.2606 6.3924 1.2949 19.0098 1.8711 21.2879 1.9755 22.8752 2.0937 24.8196 2.2272 26.5278 2.4014 28.1559 2.5856 32.1654 3.0924 63.5914 4.7716 63.5982 4.7799 72.2652 5.219 77.0749 5.5273 79.2799 5.6489 91.1832 6.266 92.3083 6.3213 93.5962 6.3761 92.8245 22.4974 92.4425 22.9256 90.5257 63.0459 82.2403 62.6502 81.9259 62.6769 78.5082 62.5147 70.8908 62.1053 70.3845 62.1194 1 58.4841 1.1606 55.4702 1.6977 46.7139 1.7873 45.0496 2.1463 38.375 2.4686 33.2872 3.7522 11.4149 3.7396 11.1817 4.3335 1 Z" id="fips-40025"/>
<path d="M 503.9771 327.6046 504.005 312.6121 504.0197 302.5028 523.9839 302.5254 523.9993 317.5692 552.823 317.5638 554.2889 317.8604 554.1434 320.754 553.4576 321.4513 553.6491 321.8287 554.593 322.2421 554.7883 322.4989 563.8525 322.4497 563.9324 340.8966 560.6197 340.9073 560.5634 352.6127 504.1313 352.7318 503.9555 351.3685 503.9632 340.9996 503.9771 327.6046 Z" id="fips-40019"/>
<path d="M 493.8486 202.2178 502.9033 202.2335 503.7909 202.2366 505.7815 202.2343 507.9542 202.23 509.6215 202.2236 512.1145 202.215 513.7832 202.2119 515.4751 202.2189 517.1342 202.2131 527.0698 202.2049 528.7291 202.1977 543.5817 202.2109 543.6075 207.2414 543.6491 223.5053 543.6795 228.9071 543.7006 233.9196 543.7292 243.9341 543.7386 253.9189 542.584 253.5531 538.653 253.9268 538.4374 252.5913 536.5954 252.0857 535.6537 253.4871 535.1986 252.3633 532.4672 251.9619 531.3048 249.9416 528.8694 249.7602 528.1088 250.9864 524.9145 249.8372 524.2824 247.3678 524.8738 246.8116 523.3458 241.8054 524.0525 239.8018 523.6994 236.8563 522.3658 235.8688 519.1822 235.7418 519.1217 232.1957 518.7053 229.7756 515.7671 228.7524 515.2451 227.1881 508.633 222.4171 506.0455 221.0162 504.0928 218.6564 503.6926 217.1802 504.7952 215.5052 504.374 212.1964 502.5199 210.9117 500.6381 210.7333 498.8715 210.5167 495.6098 207.2653 493.825 206.7865 493.8486 202.2178 Z" id="fips-40027"/>
<path d="M 555.3797 71.9264 555.7912 74.3338 559.2428 77.2705 561.8558 77.817 564.4204 76.3831 567.8615 76.0082 570.0371 73.6501 571.2967 71.2806 571.3079 70.2414 572.8386 68.1565 574.945 66.4381 577.5897 65.0537 579.0653 65.3662 580.5867 66.7966 581.4666 69.0416 581.7763 72.1902 583.1941 73.5648 583.5283 75.1312 582.4788 77.7038 582.6704 79.1092 585.1233 81.3082 586.5194 81.692 590.1104 81.0294 591.5753 82.8749 592.8489 83.6144 593.2949 86.0316 595.7325 86.921 598.9478 83.8881 600.2652 84.5874 601.0265 86.7891 599.6055 89.0037 597.3077 89.88 596.0399 91.815 596.002 93.6762 598.478 95.6792 601.4308 95.6268 602.7023 94.5738 604.0362 91.9684 606.8125 91.6721 607.8535 92.9179 609.0075 96.9829 613.3992 99.0959 617.7974 103.3229 625.5365 103.7247 626.8719 106.3732 624.4606 109.7361 624.5609 111.0837 621.8069 111.083 612.23 111.0854 591.9098 111.2493 591.7091 111.6678 591.2481 111.6451 573.3286 111.9312 573.2626 101.8372 563.4016 101.8992 563.3558 91.8885 553.4063 91.9387 553.3672 83.6948 553.311 71.9337 555.3797 71.9264 Z" id="fips-40117"/>
<path d="M 513.5237 62.0423 543.3344 61.9409 550.9232 61.9548 552.9208 62.8023 555.9776 63.2085 560.9912 62.326 563.5874 61.0823 564.3043 61.2757 566.6104 64.0348 565.2732 66.7506 563.2296 66.6277 560.111 68.7481 558.2167 68.6538 556.6257 69.3801 555.3797 71.9264 553.311 71.9337 553.3672 83.6948 553.4063 91.9387 563.3558 91.8885 563.4016 101.8992 543.3354 101.9962 543.3992 112.0455 523.5368 112.1122 523.5533 111.5092 513.612 111.499 513.5237 62.0423 Z" id="fips-40103"/>
<path d="M 399.4594 313.4866 404.4431 313.5223 404.4592 311.854 414.3989 311.9817 414.4353 308.6448 434.2978 308.8719 434.3151 307.2022 439.2291 307.2196 439.2711 302.2192 448.9547 302.3033 449.2299 302.5606 449.1522 315.6353 449.0711 327.3332 448.9855 344.3812 448.6214 345.0063 447.5047 346.5686 447.2112 346.8278 446.0894 347.5455 443.9597 347.3482 443.1381 347.2236 442.7919 347.1182 441.5787 346.6317 440.9006 346.2497 440.7419 346.0006 439.2463 345.3143 438.5822 345.5841 437.769 345.7202 435.4947 345.5559 434.2014 345.2839 433.6012 345.0993 431.8438 343.7203 431.4816 343.3371 431.2097 343.1844 427.5367 342.4514 427.2048 342.5542 425.8874 343.3186 425.5845 343.6773 424.2253 345.7226 423.9779 346.437 424.0226 346.4902 424.2448 346.5362 424.2057 348.4749 424.0685 349.0028 422.6551 350.7062 422.3297 350.9387 422.1209 350.9991 421.906 350.9338 421.8242 350.8742 421.6237 350.7281 421.3143 350.6417 420.9664 350.627 420.2048 350.7707 419.9444 350.9026 419.8559 351.016 419.6752 351.3431 419.6535 351.6276 419.5952 351.788 419.3397 352.0122 416.8447 353.0466 416.1768 353.2702 415.7678 353.2283 414.0747 352.085 411.8087 349.4586 411.5844 348.8937 411.0546 348.024 409.6703 346.6276 408.9488 345.592 408.8024 345.0203 407.6476 343.6378 407.2056 343.1869 405.06 341.8253 404.6602 341.8579 404.1919 342.1669 404.067 342.2141 404.3389 321.8664 399.3581 321.8415 399.4594 313.4866 Z" id="fips-40033"/>
<path d="M 443.8013 161.8826 457.0112 161.9398 463.6666 161.9651 467.0148 161.9165 483.7081 162.0211 493.6753 162.0168 493.6554 173.773 493.6456 177.1313 493.6361 182.1606 493.897 183.7727 493.8955 184.5905 493.8922 186.3405 493.8906 187.2006 493.8645 189.6647 493.8694 191.3613 493.8729 191.6078 493.8618 192.6462 493.8572 195.4966 493.8535 198.8634 493.8486 202.2178 493.825 206.7865 493.8185 206.9679 490.5661 208.2226 487.6372 208.357 485.3675 206.4396 484.6384 205.8264 482.4953 207.3122 481.0727 206.3691 479.0471 207.1099 478.5803 206.9927 476.4084 205.8845 475.8532 203.9323 473.8461 205.4017 472.0595 205.8101 472.2062 204.8843 470.3951 204.8678 469.3323 202.5736 467.9365 202.3904 467.9521 204.5232 467.1681 205.7139 462.987 203.7652 462.3569 204.0379 461.3288 202.0121 453.9469 201.9876 434.7062 201.9071 434.1854 201.9034 434.3219 185.8738 434.1671 181.8411 433.7028 181.8129 433.8621 163.4669 433.8599 161.7972 443.8013 161.8826 Z" id="fips-40017"/>
<path d="M 493.825 206.7865 495.6098 207.2653 498.8715 210.5167 500.6381 210.7333 502.5199 210.9117 504.374 212.1964 504.7952 215.5052 503.6926 217.1802 504.0928 218.6564 506.0455 221.0162 508.633 222.4171 515.2451 227.1881 515.7671 228.7524 518.7053 229.7756 519.1217 232.1957 519.1822 235.7418 522.3658 235.8688 523.6994 236.8563 524.0525 239.8018 523.3458 241.8054 524.8738 246.8116 524.2824 247.3678 524.9145 249.8372 528.1088 250.9864 528.8694 249.7602 531.3048 249.9416 532.4672 251.9619 535.1986 252.3633 535.6537 253.4871 536.5954 252.0857 538.4374 252.5913 538.653 253.9268 542.584 253.5531 543.7386 253.9189 544.6319 253.1706 549.6558 253.8103 550.4094 254.8515 552.2337 254.683 555.6947 256.2696 557.581 255.3858 560.2495 253.1123 561.234 251.2134 563.7239 249.6571 563.7683 261.9648 563.616 262.3238 530.1441 262.3703 512.3873 262.3736 494.0464 262.3739 493.8045 262.0741 493.8281 253.9964 493.8873 227.2049 493.8805 212.1455 493.8792 207.3185 493.8185 206.9679 493.825 206.7865 Z" id="fips-40087"/>
<path d="M 493.6753 162.0168 497.0021 162.0297 506.9766 162.069 508.6428 162.0799 513.6515 162.1058 521.9724 162.1051 533.6152 162.1412 533.6159 162.1337 543.5391 162.1529 543.6053 192.1708 543.6003 195.5212 543.5817 202.2109 528.7291 202.1977 527.0698 202.2049 517.1342 202.2131 515.4751 202.2189 513.7832 202.2119 512.1145 202.215 509.6215 202.2236 507.9542 202.23 505.7815 202.2343 503.7909 202.2366 502.9033 202.2335 493.8486 202.2178 493.8535 198.8634 493.8572 195.4966 493.8618 192.6462 493.8729 191.6078 493.8694 191.3613 493.8645 189.6647 493.8906 187.2006 493.8922 186.3405 493.8955 184.5905 493.897 183.7727 493.6361 182.1606 493.6456 177.1313 493.6554 173.773 493.6753 162.0168 Z" id="fips-40109"/>
<path d="M 543.5817 202.2109 543.6003 195.5212 543.6053 192.1708 560.157 192.1471 592.0978 192.0199 592.2696 199.1622 589.4555 200.1787 584.8632 197.4578 583.3255 197.9403 582.7508 196.4419 580.939 198.5784 577.8946 198.7359 577.9589 212.0382 578.065 225.4497 578.1844 228.7879 578.406 256.9849 576.2367 256.3111 576.2531 253.539 574.8015 251.8599 571.1363 253.7142 568.0178 254.0241 565.6144 250.3037 563.7909 249.5709 563.7239 249.6571 561.234 251.2134 560.2495 253.1123 557.581 255.3858 555.6947 256.2696 552.2337 254.683 550.4094 254.8515 549.6558 253.8103 544.6319 253.1706 543.7386 253.9189 543.7292 243.9341 543.7006 233.9196 543.6795 228.9071 543.6491 223.5053 543.6075 207.2414 543.5817 202.2109 Z" id="fips-40125"/>
<path d="M 357.9481 286.1624 367.628 286.3253 367.5449 291.3378 384.1517 291.5731 384.0128 301.602 397.3569 301.7628 399.5927 301.7906 399.4594 313.4866 399.3581 321.8415 404.3389 321.8664 404.067 342.2141 403.907 342.2746 403.4392 342.2854 402.9698 342.1905 401.6346 341.6654 400.924 341.3214 400.4615 341.3263 400.2204 341.4765 399.7304 342.0301 396.4148 344.8825 395.8005 344.8328 393.9359 344.5302 393.8 344.4705 392.2016 344.5301 392.0879 344.592 391.9566 344.8017 391.914 345.0756 391.6963 345.4874 391.4547 345.6991 390.7542 345.839 390.016 345.784 389.7697 345.5182 389.7885 345.2915 389.6913 344.8863 389.5751 344.7238 389.219 344.4206 386.7079 343.5397 385.3152 342.1194 384.7332 341.8186 383.0074 341.3677 380.6737 341.3969 380.5073 341.4554 380.4499 341.6236 380.3898 342.4172 380.2227 342.7397 379.9903 342.8289 379.4604 342.7611 378.975 342.2978 378.8256 342.0583 378.8199 341.8999 379.0851 341.5101 379.1862 341.2159 379.1577 340.9833 379.0286 340.8021 375.5737 339.4951 374.7244 338.9836 374.501 338.7956 374.274 338.4992 373.87 337.8968 373.8069 337.7191 372.6742 336.4353 371.7178 335.5001 371.5324 335.3937 371.5177 335.3853 370.9517 335.238 370.7297 335.3298 370.5824 335.5255 370.5953 336.0933 370.5558 336.2907 370.1851 336.6705 369.9277 336.6694 369.4428 336.4009 369.2134 336.0834 369.0202 335.6265 368.7774 334.7757 368.2186 334.3478 367.8804 334.2953 366.9296 334.7405 366.6696 335.1026 366.7091 335.7582 366.4316 335.9999 365.7316 336.3837 363.5277 335.9241 363.4139 335.9751 363.2636 336.1786 363.0703 336.6163 362.8266 336.916 362.3196 336.9078 361.4384 336.6219 361.3714 336.5416 361.3401 336.3484 361.2305 336.1355 360.6538 335.7065 359.7525 335.3674 359.4142 335.3277 358.2045 335.5618 356.6153 336.2173 355.617 336.3914 354.9178 336.2349 354.6131 336.0686 354.4192 335.7221 354.4545 335.4957 354.5992 335.1709 354.8465 334.9931 354.9361 334.815 354.852 334.5075 354.7615 334.4161 354.5631 334.3388 353.8377 334.3553 353.2803 334.8525 351.8372 335.506 348.9425 334.8304 348.7001 334.5518 348.6491 334.3053 348.7134 333.9184 348.9173 333.3465 348.9116 333.0613 348.8222 332.751 348.4167 331.8543 348.2725 331.3635 348.3264 329.448 348.5729 328.1276 348.4907 327.1565 348.4295 327.0835 348.0518 327.1128 347.7241 327.0179 347.3578 326.8296 347.1558 326.4987 346.9859 325.8174 346.848 323.69 347.0329 323.3132 347.2329 322.0531 347.1607 320.7417 348.35 320.3801 348.9059 318.6337 347.5275 316.3767 346.3771 316.3489 347.4108 314.7174 346.976 314.0051 345.593 314.8496 345.7752 313.2295 344.9657 313.2392 344.7361 310.4766 345.6792 311.1212 346.1856 309.599 345.7416 307.4028 347.1421 306.9282 346.4195 305.9918 346.5221 302.5017 347.5427 301.6929 348.8851 297.0226 350.6668 297.3172 350.09 294.7467 352.1494 291.8178 355.1072 291.4016 356.0872 291.9012 358.1974 291.217 359.7834 291.6199 359.2992 288.8008 360.1781 288.3846 357.9481 286.1624 Z" id="fips-40141"/>
</g>
</svg>