<?xml version="1.0"?>
<svg xmlns="http://www.w3.org/2000/svg" version="1.2" baseProfile="tiny" width="800" height="463" viewBox="0 0 800 463" stroke-linecap="round" stroke-linejoin="round">
<g id="cb_2018_us_county_5m">
<path d="M 322.1759 52.2644 333.1058 52.1576 345.5938 52.3796 345.6224 52.3838 350.0882 52.5072 372.1786 52.5713 373.4109 52.5671 383.1384 52.5204 401.8144 52.3566 402.489 85.3024 402.8188 101.2865 403.4674 134.4792 403.6522 145.9198 351.0212 146.6144 342.7783 146.4814 322.301 120.7802 322.1759 52.2644 Z" id="fips-42105"/>
<path d="M 588.8654 132.7115 587.8915 138.1455 580.9316 162.4554 577.4974 174.4298 564.3107 174.9711 559.0541 180.9458 545.391 178.0085 539.4194 176.0828 518.0165 158.1788 508.9751 125.1511 513.6727 125.6933 588.8654 132.7115 Z" id="fips-42113"/>
<path d="M 654.4334 276.1225 661.0303 271.4926 662.247 270.4177 662.8593 269.6921 674.4398 266.2933 675.569 272.9656 677.0792 275.6296 678.5461 275.6513 681.6551 278.0577 685.4899 275.238 687.5299 281.2623 689.8683 284.9857 690.4068 285.5721 692.4005 289.4797 694.4586 288.425 697.2635 286.9986 699.2633 285.9858 699.3297 287.0127 704.567 292.9799 705.3126 293.1915 706.6733 296.3456 705.042 299.0294 704.9753 299.7727 703.3434 302.6508 713.1488 310.2333 702.9947 319.3368 693.1809 332.0984 686.8114 327.1384 679.8973 321.7457 671.2274 314.8414 666.5708 311.1269 657.5944 303.983 636.481 286.9808 641.4087 284.0099 647.7499 281.2958 651.7535 277.2422 654.4334 276.1225 Z" id="fips-42077"/>
<path d="M 293.3164 123.4884 293.3102 120.8541 322.301 120.7802 342.7783 146.4814 351.0212 146.6144 351.0402 165.9006 336.857 192.904 317.4873 190.3963 317.8549 173.7036 315.1966 173.6602 315.3254 159.0864 292.9515 158.8977 293.3164 123.4884 Z" id="fips-42023"/>
<path d="M 65.533 215.4023 69.662 210.1079 79.1275 197.409 94.5656 197.6742 120.3188 198.1798 120.8879 198.5826 120.4276 223.7325 119.7509 248.1254 119.3482 262.7522 118.6694 288.5414 113.2458 288.5151 105.9544 287.9402 87.1949 287.2398 81.6906 287.1976 77.6677 286.8971 67.5721 286.5473 67.1565 286.3986 56.6692 286.2408 56.4796 277.2906 56.4414 273.6905 56.3049 265.7417 56.1595 253.7264 56.1116 248.0195 55.9399 227.6085 64.9901 216.1659 65.533 215.4023 Z" id="fips-42019"/>
<path d="M 401.8144 52.3566 415.7932 52.2144 422.2983 52.2042 466.6013 52.0381 474.7443 51.7783 482.2239 51.6411 482.2372 51.6462 487.8167 51.511 487.8223 51.5108 490.9052 51.4262 491.6392 51.4008 492.9739 51.3871 497.0541 85.8925 497.1778 88.5609 500.1882 119.805 500.7697 124.0065 500.2964 125.1564 494.4253 126.9268 493.8529 128.7193 491.6381 129.0594 488.9689 131.4563 489.3541 132.3056 403.4674 134.4792 402.8188 101.2865 402.489 85.3024 401.8144 52.3566 Z" id="fips-42117"/>
<path d="M 221.253 118.9694 221.2522 118.8866 240.0773 118.9695 259.3204 119.1007 263.4839 118.5789 284.719 118.4497 284.7583 123.3976 293.3164 123.4884 292.9515 158.8977 315.3254 159.0864 315.1966 173.6602 317.8549 173.7036 317.4873 190.3963 284.0178 187.7736 262.1617 185.822 261.9271 192.3438 253.4814 195.0642 253.5587 189.9661 249.7563 189.8501 250.2132 184.0627 220.2208 165.8847 218.5367 163.2752 215.7166 164.666 211.9464 167.8707 210.9577 166.6516 205.9045 167.8473 204.3556 167.0902 201.8408 169.4955 202.2609 154.658 206.0897 154.7293 206.3867 149.3419 218.0753 149.761 218.0401 152.4188 220.4235 152.4323 220.6792 136.55 221.253 118.9694 Z" id="fips-42047"/>
<path d="M 580.9316 162.4554 587.8915 138.1455 588.8654 132.7115 591.4798 113.5236 602.5784 112.5926 602.7357 114.1058 606.2819 113.7952 647.2492 113.2459 649.1969 113.0994 655.6461 113.1517 654.4285 114.3438 648.6145 125.5501 645.0631 134.7258 649.0155 138.1818 641.1347 152.1241 639.3458 153.0194 635.838 154.2415 618.3614 160.2917 615.6062 160.4895 585.028 162.2302 580.9316 162.4554 Z" id="fips-42131"/>
<path d="M 520.8119 200.0961 528.1404 203.2121 533.2764 202.8658 536.1333 214.6405 536.4527 219.3425 543.1211 221.0446 544.2083 224.5406 543.8953 230.7254 550.8206 237.9628 551.1984 240.2669 548.9119 241.3716 550.204 243.7793 549.2503 251.7195 547.383 251.7407 546.0221 251.607 543.7236 245.8828 545.1693 241.7007 539.1337 241.1456 534.5181 237.2227 532.1661 237.7458 530.9442 236.6209 521.0103 239.183 512.9631 240.2241 514.1906 237.0246 515.3385 229.6109 520.692 214.4525 520.8119 200.0961 Z" id="fips-42093"/>
<path d="M 227.1003 51.7345 232.9846 51.908 249.6711 51.9971 270.1105 51.8771 308.6233 52.2351 313.5519 52.3414 322.1759 52.2644 322.301 120.7802 293.3102 120.8541 293.3164 123.4884 284.7583 123.3976 284.719 118.4497 263.4839 118.5789 259.3204 119.1007 240.0773 118.9695 221.2522 118.8866 222.7246 81.7913 226.3533 81.7589 227.153 79.9762 227.0165 76.2235 227.0343 59.8495 227.1003 51.7345 Z" id="fips-42083"/>
<path d="M 549.1133 310.5315 562.2745 320.966 591.1347 343.7676 595.7313 345.7336 602.3465 352.5983 581.1259 363.9276 570.3671 365.9191 563.6522 367.2453 545.8119 374.9839 545.2411 374.6706 542.1239 364.683 537.3437 349.4815 531.3065 330.0513 529.8403 325.2511 549.1133 310.5315 Z" id="fips-42075"/>
<path d="M 723.821 410.5713 725.5511 409.4966 727.1998 408.2181 727.394 408.0909 729.1048 406.9716 730.4373 406.1022 732.7109 404.6138 733.0097 404.3921 733.1597 404.2602 733.3615 404.0593 733.2892 404.0087 731.6241 402.4377 728.8587 400.545 725.7656 397.5269 725.0798 396.6744 726.7005 394.6172 729.5732 390.8047 730.4829 389.5405 735.4153 393.0147 737.0026 390.8285 740.4904 393.2956 742.1992 394.4957 746.1959 397.3532 746.4246 397.4947 746.43 397.4785 747.3457 396.4148 749.339 394.2308 748.0311 393.3031 748.8782 392.1758 749.9145 390.7472 751.3964 388.9668 753.0963 386.5123 753.6324 385.9921 754.3017 385.3407 758.13 381.6108 758.8527 380.56 761.2674 382.3108 761.8304 381.4929 765.8328 383.8121 767.236 388.0167 765.2573 391.8583 763.4569 394.9954 764.9544 396.3729 764.9015 396.4084 763.6724 397.5267 762.8791 398.5229 760.4873 401.152 760.0577 401.4893 759.4633 401.8319 757.5015 402.6034 756.2295 403.1034 755.2395 403.8396 755.1944 403.8731 754.6417 404.6813 753.6366 406.8696 753.5073 407.0344 751.9156 409.0623 749.663 410.1035 749.6093 410.1162 748.9662 410.269 747.087 411.0348 747.0084 411.0668 745.5086 411.9939 744.8842 412.4791 744.4731 412.7986 744.046 413.243 743.6017 414.0294 743.5417 414.3304 743.3387 415.3492 743.3551 417.7206 743.3947 417.97 743.5422 418.9008 743.8589 419.8634 743.8758 419.9148 744.2723 420.7289 744.6033 421.6531 744.2671 423.7479 743.9309 424.477 743.066 425.8957 743.0378 425.9419 742.7446 426.2744 742.3564 426.6688 742.3434 426.682 741.6218 426.9737 738.3454 427.1662 737.1777 427.2347 736.3171 427.4943 735.5103 428.1834 733.4892 430.2385 733.4281 430.2771 732.7062 428.4339 729.3173 429.2005 725.9667 427.5408 725.8757 426.5086 726.961 425.2551 727.6617 423.4957 728.1955 421.2397 728.8012 418.2259 729.7496 417.4949 728.6025 416.6745 728.0183 416.3875 727.4006 415.445 727.8541 412.994 724.0086 411.8926 723.3109 410.9446 723.821 410.5713 Z" id="fips-42101"/>
<path d="M 92.5168 372.8202 104.8165 367.6582 101.5159 366.5969 104.0926 361.6072 103.256 357.9263 105.9615 356.872 104.2594 355.0724 106.3446 343.9832 107.9076 338.3682 113.6841 335.2643 112.9287 334.5936 116.1336 332.0592 116.7261 320.8801 116.9222 314.422 114.1595 311.3857 112.2516 310.0389 108.3249 309.8574 108.2567 309.6652 107.1824 306.2542 107.5223 303.7425 108.7195 302.1201 110.7311 301.0857 114.5714 299.5531 115.8164 297.4042 119.0859 293.4054 118.716 288.5446 122.056 286.7617 126.1156 289.4423 128.7573 293.24 128.9444 293.2347 129.4414 293.4605 129.7211 293.7536 129.9223 294.1544 129.9917 294.6043 129.9291 295.2211 129.8032 295.7331 129.8192 296.2171 129.946 296.6442 130.056 296.7298 132.3148 296.1029 132.8897 296.5033 132.5539 298.33 133.2274 300.1086 134.0142 301.1362 137.8192 300.7648 135.693 302.6081 136.2469 307.8815 140.9267 311.8808 142.884 311.8613 144.8472 315.0152 149.3534 313.5297 151.2664 314.2716 149.8989 316.4313 150.8029 321.6552 150.5952 322.2794 150.6246 322.5058 150.8938 322.8599 151.4638 323.1392 151.5792 323.1309 152.3779 322.4177 153.8001 321.7028 154.7124 324.5431 157.0298 324.4106 158.5008 327.5215 161.4581 328.1633 162.7192 323.8711 163.0442 327.0759 165.2617 328.0553 166.3312 325.3479 168.0586 328.4854 171.5074 327.0581 171.3486 328.7107 171.3027 331.6821 175.2339 331.0524 175.1389 334.7644 178.6356 332.366 186.0848 335.5778 191.1262 336.2118 192.168 338.7722 196.3842 339.4382 194.9752 340.7404 195.6882 343.6795 199.0907 343.7026 201.0274 340.343 204.3547 341.9557 208.6254 337.4758 207.9276 335.5552 210.1771 334.9564 213.9513 336.499 215.8586 339.3987 215.8821 339.5904 207.0864 355.266 204.5875 358.3804 204.4577 359.1629 201.1574 363.9953 198.2266 370.3452 194.6103 374.2802 194.6075 377.0006 192.2145 377.8828 192.5278 380.8663 189.6994 381.2614 189.385 384.8204 186.2712 390.3739 182.7871 388.6927 180.5455 392.3671 176.488 394.0597 173.3411 400.8312 171.1696 402.6032 164.6404 402.0488 162.7582 396.3613 157.5774 393.2987 153.8798 389.9034 150.2868 386.0928 145.386 383.6159 142.4325 384.0948 138.2267 386.6347 137.5147 388.7661 132.1816 390.1945 130.1679 394.3652 126.2379 392.0436 123.8554 394.0917 121.1116 391.4393 117.4959 388.3835 112.5169 388.468 109.551 385.6469 104.5883 385.5768 91.8167 385.0741 91.2917 385.48 87.6315 380.4639 89.2658 378.5708 93.2521 379.2335 95.2056 376.4962 92.5168 372.8202 Z" id="fips-42129"/>
<path d="M 492.4897 298.1188 496.7262 302.5121 501.098 299.8985 503.892 298.164 507.3957 298.4492 511.3266 296.8992 511.4867 295.4189 512.1544 294.5502 513.6414 295.6636 519.6584 293.3264 526.1974 292.3581 543.3639 306.0304 549.1133 310.5315 529.8403 325.2511 531.3065 330.0513 537.3437 349.4815 542.1239 364.683 545.2411 374.6706 545.8119 374.9839 545.7215 375.181 545.1514 375.3964 543.8457 375.3637 543.5843 376.0383 543.0763 376.3092 542.8708 376.119 541.2337 376.5544 540.3166 376.2572 536.3176 379.8921 535.3468 380.7023 530.7748 383.6665 527.8889 382.4684 524.6817 389.025 522.5157 388.1068 519.7846 378.8502 518.7628 378.4283 513.6705 374.7814 512.91 374.6993 510.587 374.5311 508.2935 370.9806 505.6025 370.1641 503.6299 368.1464 499.4678 364.2789 497.9913 362.053 496.5364 358.8879 496.8079 356.5318 498.1074 352.6668 497.7415 351.8982 494.5978 346.7218 484.9273 346.6423 483.189 345.2608 482.0747 340.7861 484.1794 338.7635 483.7116 334.6679 485.4912 334.359 488.5712 330.6765 491.1952 329.0963 492.7768 326.7009 492.2348 322.8291 490.0361 321.604 487.8167 318.2507 488.1954 313.385 486.7213 309.0665 491.4546 304.1445 492.4897 298.1188 Z" id="fips-42043"/>
<path d="M 446.2692 286.7394 465.0081 289.5768 470.5805 286.9316 472.7617 289.6855 477.2724 288.9762 480.6692 289.4734 480.852 292.5238 484.3934 292.494 485.9907 296.8143 490.2597 294.7304 493.0752 294.1526 493.7887 296.2707 492.4897 298.1188 482.4565 302.5092 479.9133 302.5389 471.558 304.1052 460.7366 306.6498 462.8445 310.7121 458.6369 312.0404 454.1179 314.5515 446.2366 318.2001 420.0687 334.2443 412.0934 339.7792 413.1848 343.9456 408.6188 345.5126 404.0068 348.9772 398.9911 353.6186 394.1228 359.4748 393.2683 360.7764 389.8449 364.1966 389.4814 362.8075 383.0984 343.5532 383.8301 342.454 387.2326 338.1608 397.5871 327.3951 402.1604 323.3363 402.1434 319.1568 407.3839 314.9023 413.0485 310.9898 417.8031 306.9735 417.7498 301.9901 421.6607 299.2332 435.353 291.4725 446.2692 286.7394 Z" id="fips-42067"/>
<path d="M 258.8573 367.3757 260.8603 364.4284 260.3368 362.4161 260.1298 361.62 259.8188 360.4251 264.2058 352.32 276.5752 358.5609 279.8551 359.5858 287.7214 367.3525 289.6582 356.9647 295.2797 360.2534 309.5371 367.8983 313.8991 357.9018 316.7158 371.086 330.5911 381.8172 327.2673 389.5697 320.7217 395.9536 321.2018 399.0655 324.1148 400.9067 323.2254 402.9975 320.9857 403.8594 320.9381 409.4674 318.7943 412.6355 312.1517 428.7304 307.7371 442.7168 303.5753 450.6349 296.3719 461.1254 288.3112 461.0792 285.1919 460.9877 274.6537 460.9762 273.4506 460.8985 269.378 460.9202 264.6303 460.8592 258.0139 460.771 248.9844 460.6449 237.2753 460.5406 243.1163 447.6047 244.5211 442.5727 244.1381 400.6244 245.7098 397.4237 247.3724 398.4015 256.2599 373.0496 258.8573 367.3757 Z" id="fips-42009"/>
<path d="M 240.0588 248.0735 240.3872 232.291 240.5998 207.4433 245.898 194.8235 253.4814 195.0642 261.9271 192.3438 262.1617 185.822 284.0178 187.7736 317.4873 190.3963 336.857 192.904 341.211 200.5313 344.2852 204.2944 340.1144 209.6906 334.2485 211.3464 336.3395 218.6881 337.1324 221.0499 341.252 222.4342 341.6978 224.8286 338.5199 226.3469 341.3059 231.2428 341.0223 232.7696 337.6195 233.0325 337.0518 235.3899 338.8373 239.274 334.4793 240.8578 332.9799 242.3233 330.8746 239.5763 326.5774 238.8659 328.279 242.2362 326.1238 243.2027 324.7363 245.7819 319.5277 247.4811 318.2438 249.6292 319.401 251.5905 315.5317 255.2266 315.4862 257.7657 312.7095 259.2444 310.1522 258.7512 308.2638 261.6562 308.5989 263.3188 306.6016 266.1051 303.3467 267.8293 302.7379 270.7659 298.0777 275.8061 300.3134 279.7404 301.5957 281.143 252.2749 280.8318 240.1677 280.6692 239.5551 279.7277 240.0588 248.0735 Z" id="fips-42033"/>
<path d="M 74.1064 410.8417 74.8308 406.2231 77.8977 405.4577 80.1262 408.8423 82.9084 408.1277 85.7767 404.3498 88.3724 404.2284 90.5258 403.1605 90.9658 401.6359 89.0169 399.3279 90.8146 396.924 88.4733 393.8505 93.1308 394.71 96.4113 391.9142 94.6588 387.4787 91.2917 385.48 91.8167 385.0741 104.5883 385.5768 109.551 385.6469 112.5169 388.468 117.4959 388.3835 121.1116 391.4393 123.8554 394.0917 126.2379 392.0436 130.1679 394.3652 132.1816 390.1945 137.5147 388.7661 138.2267 386.6347 142.4325 384.0948 145.386 383.6159 150.2868 386.0928 153.8798 389.9034 157.5774 393.2987 162.7582 396.3613 164.6404 402.0488 171.1696 402.6032 165.9779 411.0688 163.5725 415.2135 156.2874 427.455 153.5424 435.8215 158.3973 438.9472 158.4658 440.742 160.589 441.9166 160.095 445.3366 161.7018 448.9539 158.5132 447.3529 156.8747 449.4972 158.6404 451.1633 155.6725 453.4993 156.4345 455.7223 154.2127 457.173 156.5944 457.629 156.5869 459.6476 144.9562 459.4988 135.0387 459.3617 126.7873 459.129 126.4562 459.1059 105.3053 458.7404 99.1832 458.609 92.9976 458.473 92.9662 458.4723 84.2626 458.2352 86.0813 454.2213 82.4945 451.6924 81.9991 447.3332 85.6139 445.2281 84.0941 441.8142 83.6228 437.1504 81.7269 435.6675 82.9301 434.7516 83.3162 434.4272 83.6562 434.1186 83.6814 433.8844 82.8808 431.761 85.0536 429.6169 83.3347 425.6264 83.7751 423.3949 83.8198 421.5937 79.5849 416.3748 74.5503 416.9497 72.4403 415.207 74.1064 410.8417 Z" id="fips-42051"/>
<path d="M 674.4398 266.2933 678.6649 264.0242 692.6259 260.9017 696.8094 260.1541 700.3712 258.6501 705.4869 257.3534 713.2329 252.9774 718.1863 250.9684 723.444 245.7532 723.7792 243.0054 726.7915 239.6026 738.6796 233.6607 739.8079 231.9288 739.8195 231.9412 739.9196 232.2601 739.8142 232.7094 739.8672 232.959 739.93 233.1339 740.0934 234.0787 740.2664 234.6732 741.1179 235.5296 741.9145 237.0216 742.0187 237.6253 743.1304 239.3186 743.442 239.7631 745.7025 241.5365 746.0401 242.2466 746.1733 242.7524 746.3348 243.9853 746.2557 244.7893 746.5518 245.4122 747.739 246.5419 749.4045 248.6498 749.7166 249.2574 749.8197 249.6418 749.7753 250.2487 749.2301 250.6899 748.0702 252.2065 748.2367 252.9045 747.8766 253.3833 747.2241 253.4397 746.847 253.1733 746.4155 253.0189 744.4816 253.2032 743.8389 253.6016 743.6573 254.0404 743.7164 254.9976 744.0093 255.3897 745.3279 256.6097 745.5709 257.0119 745.5751 257.6109 745.3911 258.0658 743.9848 259.8641 743.706 260.2187 743.4498 260.7134 743.3987 261.0906 743.4906 261.5349 743.4222 262.1126 742.4241 263.7078 742.0472 263.9337 742.0452 263.9349 741.3012 264.0561 740.4671 264.5499 740.1046 265.05 739.3887 266.5234 739.149 266.859 739.0019 266.928 738.3633 266.9763 736.961 266.8072 735.0021 266.2201 734.2036 266.2288 733.9271 266.368 733.6964 266.6654 733.4052 267.2504 733.2602 268.01 733.2001 268.8198 733.0003 269.2442 732.4708 269.7191 731.2993 270.3859 730.678 271.1593 730.6416 271.436 730.7304 271.9653 730.8721 272.2601 732.2173 273.6944 732.6415 274.3314 732.7509 274.7106 732.703 274.9995 732.2086 276.0841 731.8276 277.1739 731.4037 277.5634 731.3717 277.6095 731.1678 277.904 730.6298 279.4873 729.9964 281.9863 730.4368 283.0514 731.0036 283.7889 731.8767 284.1077 732.6987 283.9765 733.2398 284.0694 733.6537 284.3501 733.7713 284.7089 733.6946 285.2719 733.0138 286.4829 732.3199 286.8921 731.9336 287.2401 731.1775 288.4878 730.6951 289.5634 730.7054 289.98 731.4426 290.7595 731.9838 291.786 732.444 293.93 732.365 294.4959 732.1815 294.7775 731.2042 294.9191 730.8257 295.1058 730.6816 295.3201 730.7585 295.7778 731.1634 296.3292 731.4101 296.8451 723.4076 301.7284 717.7428 306.2299 713.6877 309.861 713.1488 310.2333 703.3434 302.6508 704.9753 299.7727 705.042 299.0294 706.6733 296.3456 705.3126 293.1915 704.567 292.9799 699.3297 287.0127 699.2633 285.9858 697.2635 286.9986 694.4586 288.425 692.4005 289.4797 690.4068 285.5721 689.8683 284.9857 687.5299 281.2623 685.4899 275.238 681.6551 278.0577 678.5461 275.6513 677.0792 275.6296 675.569 272.9656 674.4398 266.2933 Z" id="fips-42095"/>
<path d="M 296.3719 461.1254 303.5753 450.6349 307.7371 442.7168 312.1517 428.7304 318.7943 412.6355 320.9381 409.4674 320.9857 403.8594 323.2254 402.9975 324.1148 400.9067 321.2018 399.0655 320.7217 395.9536 327.2673 389.5697 330.5911 381.8172 338.1711 387.4539 359.2626 393.2389 359.3104 392.8679 367.6981 400.4916 365.1068 402.8342 360.1241 410.9306 356.7323 422.2097 355.0563 424.645 355.0043 426.8361 352.4299 434.5615 348.6138 442.6704 345.0434 447.4579 340.0558 455.0242 339.3886 456.7112 335.2763 461.3383 320.9067 461.2702 320.6919 461.2506 315.7344 461.2329 315.352 461.2341 311.7815 461.1976 311.7716 461.1934 303.2485 461.135 302.3648 461.1708 302.0294 461.1525 301.8969 461.1588 301.6175 461.1526 301.5842 461.1525 296.3719 461.1254 Z" id="fips-42057"/>
<path d="M 118.6694 288.5414 119.3482 262.7522 119.7509 248.1254 120.4276 223.7325 120.8879 198.5826 121.0357 198.764 121.5352 199.3797 121.9857 199.8821 122.2007 200.1749 122.3411 200.5584 122.2684 201.2311 122.1784 201.426 122.0898 201.6036 121.7577 202.0446 121.5285 202.3454 121.4239 202.5216 121.3346 203.1572 121.5063 203.5591 121.7881 203.9286 121.9155 204.1088 122.0733 204.3211 122.193 204.5506 122.2848 204.7965 122.3631 205.8049 122.2158 206.5833 122.1888 207.3564 122.2242 208.4623 122.1038 209.1296 121.9748 209.7068 121.9483 210.2546 121.9508 210.6282 121.92 210.9531 122.0187 212.0893 122.094 212.7312 122.24 213.3245 122.4006 213.7938 122.4985 214.0248 122.6676 214.2914 122.9395 214.5606 123.1909 214.6575 123.5758 214.9369 124.1708 215.4363 124.3951 215.7475 124.7056 216.0232 124.8701 216.2516 124.9484 216.3855 125.044 216.5675 125.1309 216.7294 125.2483 216.9996 125.1955 217.5319 124.9238 217.9438 124.1349 218.5455 123.7535 218.9859 123.6732 219.156 123.6648 220.0817 123.7599 220.4112 124.0269 220.7027 124.2093 220.8017 124.4527 220.9053 124.7443 220.9804 125.0714 221.081 125.3488 221.1132 125.6852 221.2347 125.9238 221.3563 126.5244 221.7637 126.9975 222.0583 127.3675 222.2724 127.7569 222.6146 128.1307 222.7056 128.4738 222.8197 128.8601 222.9551 129.0292 223.0283 129.2633 223.1322 129.383 223.1974 129.8774 223.3863 130.3758 223.4706 131.1356 223.3749 131.5141 223.1352 131.8181 222.8936 132.2422 222.7913 132.6494 223.013 132.7571 223.2414 132.755 223.8787 132.6557 224.3596 132.5968 224.6026 132.5365 224.8518 132.3018 225.6053 132.2038 225.8383 132.1467 225.9584 132.0898 226.0737 131.8966 226.3509 131.7169 226.631 131.583 226.8018 131.3886 227.115 131.245 227.7217 131.2882 228.2123 131.4305 228.4164 131.7992 228.5382 132.7921 228.5574 133.4487 228.6733 133.9082 228.8198 134.1502 228.9449 134.6797 229.4698 135.019 230.0573 134.807 230.8876 133.9112 230.9754 131.7083 230.4825 130.9909 230.7549 130.5231 231.0096 129.866 231.4493 129.1775 232.49 129.2741 233.5427 130.8975 234.3681 132.9009 235.1398 133.8694 234.8031 134.541 233.6858 135.7925 232.4569 136.8679 232.1331 138.8037 233.0455 139.6108 232.8531 140.8026 232.821 141.9597 233.4905 143.3924 234.0162 143.6577 232.8506 144.2944 232.1539 144.8386 232.4941 145.0997 233.1448 146.0016 233.9092 146.9079 232.9063 147.0492 231.7624 147.4145 231.0194 147.9947 230.6914 148.5313 230.8713 149.808 230.8899 151.0278 231.6571 151.5156 231.5713 151.9277 232.0792 151.4449 232.3178 151.3273 233.0416 151.9934 233.0402 152.9268 233.0347 153.9782 232.1711 155.0008 232.4434 156.3026 231.787 156.6046 230.66 156.7573 229.4779 157.4118 229.0308 157.8704 229.3707 157.6534 229.913 158.2561 230.3493 158.6365 230.2491 159.0322 230.7789 158.8527 231.3745 159.1009 232.1314 159.5352 232.0991 159.9717 231.6966 160.0832 231.2509 160.6916 231.1251 161.8086 230.9109 162.6264 231.1568 162.4293 231.7706 162.0118 231.7185 161.447 232.0848 161.9839 232.7447 162.3823 232.6713 162.6871 232.6523 162.6375 233.2639 162.0812 233.8411 161.948 235.229 163.0175 235.6604 163.4241 234.8527 163.5753 233.7089 163.8991 231.1351 164.261 229.9072 164.5489 229.5797 164.8006 229.4514 165.1201 229.5671 165.2579 229.8182 165.5427 230.1521 166.4493 230.4487 167.1762 230.3738 167.4794 229.9871 167.6855 229.7885 167.9043 229.7163 168.2061 229.7801 168.29 229.9705 168.3773 230.2397 168.7507 230.3038 169.0068 230.1568 169.666 230.065 170.2664 229.9516 170.6302 229.8585 170.9527 229.7179 171.1264 229.5403 171.191 229.4056 171.524 229.0221 172.001 228.6258 172.6108 228.1228 172.7304 227.9033 172.954 227.8406 173.2832 228.1352 173.849 228.1557 174.1404 228.3451 174.6201 228.4925 175.1053 228.6022 175.5357 228.5419 175.8559 228.2613 176.1546 227.8733 176.4966 227.5335 176.6199 227.268 177.0843 227.0316 177.3201 226.9266 177.6889 226.6127 178.0063 226.1274 178.2185 225.6631 178.3318 225.4835 178.4287 225.3247 178.4922 225.1998 178.6956 225.0092 179.0197 224.882 179.3654 224.7304 179.8023 224.5908 180.025 224.501 180.321 224.2641 180.7418 224.089 181.103 224.0485 181.3954 223.7318 181.4643 223.5962 181.5329 223.4642 181.7559 223.1031 181.8778 222.8884 182.3908 222.4351 182.96 222.0872 184.4886 221.5373 184.8139 221.3613 185.4893 221.6279 184.4039 246.3571 184.029 270.6638 166.9931 293.6146 164.0764 297.546 151.2664 314.2716 149.3534 313.5297 144.8472 315.0152 142.884 311.8613 140.9267 311.8808 136.2469 307.8815 135.693 302.6081 137.8192 300.7648 134.0142 301.1362 133.2274 300.1086 132.5539 298.33 132.8897 296.5033 132.3148 296.1029 130.056 296.7298 129.946 296.6442 129.8192 296.2171 129.8032 295.7331 129.9291 295.2211 129.9917 294.6043 129.9223 294.1544 129.7211 293.7536 129.4414 293.4605 128.9444 293.2347 128.7573 293.24 126.1156 289.4423 122.056 286.7617 118.716 288.5446 118.6694 288.5414 Z" id="fips-42005"/>
<path d="M 56.6692 286.2408 67.1565 286.3986 67.5721 286.5473 77.6677 286.8971 81.6906 287.1976 87.1949 287.2398 105.9544 287.9402 113.2458 288.5151 118.6694 288.5414 118.716 288.5446 119.0859 293.4054 115.8164 297.4042 114.5714 299.5531 110.7311 301.0857 108.7195 302.1201 107.5223 303.7425 107.1824 306.2542 108.2567 309.6652 108.3249 309.8574 112.2516 310.0389 114.1595 311.3857 116.9222 314.422 116.7261 320.8801 116.1336 332.0592 112.9287 334.5936 113.6841 335.2643 107.9076 338.3682 106.3446 343.9832 104.2594 355.0724 105.9615 356.872 103.256 357.9263 104.0926 361.6072 101.5159 366.5969 104.8165 367.6582 92.5168 372.8202 88.9582 373.2637 80.4015 369.1678 78.9778 366.2382 86.7775 362.7845 70.5548 356.005 65.0978 353.7454 59.3794 351.3534 50.424 347.5371 49.8167 346.9177 43.4634 339.5979 26.7392 320.7657 38.3439 310.4587 45.2661 304.1213 45.8518 303.7488 45.8907 303.4115 46.1303 303.286 46.3996 302.9304 46.6499 302.9606 46.6343 302.5458 47.2562 302.7763 47.5949 302.4937 47.7649 301.953 48.0657 301.745 48.1472 301.5107 51.1373 300.1084 52.0873 297.7915 54.9775 297.8971 56.8717 297.1744 56.6364 286.3194 56.6692 286.2408 Z" id="fips-42003"/>
<path d="M 664.8743 364.552 672.5007 351.6231 681.6304 336.0965 682.8774 333.9384 686.8114 327.1384 693.1809 332.0984 698.537 335.9511 703.461 339.7162 704.5991 340.5616 711.4516 345.6594 713.3928 347.1305 714.0541 347.6292 726.8491 357.0357 730.9146 359.9649 739.6645 366.5311 741.6234 368.0027 745.9605 371.2123 750.9693 374.8736 756.852 379.0936 758.8527 380.56 758.13 381.6108 754.3017 385.3407 753.6324 385.9921 753.0963 386.5123 751.3964 388.9668 749.9145 390.7472 748.8782 392.1758 748.0311 393.3031 749.339 394.2308 747.3457 396.4148 746.43 397.4785 746.4246 397.4947 746.1959 397.3532 742.1992 394.4957 740.4904 393.2956 737.0026 390.8285 735.4153 393.0147 730.4829 389.5405 729.5732 390.8047 726.7005 394.6172 725.0798 396.6744 725.7656 397.5269 728.8587 400.545 731.6241 402.4377 733.2892 404.0087 733.3615 404.0593 733.1597 404.2602 733.0097 404.3921 732.7109 404.6138 730.4373 406.1022 729.1048 406.9716 727.394 408.0909 727.1998 408.2181 725.5511 409.4966 723.821 410.5713 722.3403 408.279 721.4719 407.0605 718.7976 403.0172 717.5421 403.699 716.4137 401.8783 713.4062 397.2245 711.7486 395.0006 707.4355 395.9424 703.4832 389.5425 698.5774 391.3701 697.7434 388.6509 696.3459 387.1043 697.5403 385.6836 697.6571 384.7381 693.2454 384.5569 691.0641 382.7955 691.8525 378.718 688.5888 380.5371 688.2127 377.1611 686.723 376.0197 685.5951 373.9859 684.1657 370.2923 682.0007 372.4883 677.9666 364.9109 676.5245 367.6522 674.3444 365.9236 671.9237 364.7842 668.9188 363.8668 667.7108 364.3589 666.0301 365.5425 664.8743 364.552 Z" id="fips-42091"/>
<path d="M 80.5583 140.2717 83.1248 136.2294 86.2281 136.1964 88.3235 131.9446 91.0246 131.9915 95.2789 125.5163 97.4035 125.551 101.0991 123.3348 101.2208 121.4321 103.9112 120.7043 104.0885 117.115 112.2075 117.496 133.0604 118.6403 133.0848 117.4191 146.6167 117.5616 146.031 146.1726 144.6898 150.5818 150.535 150.769 150.3973 160.4058 150.1505 169.5212 141.649 169.3155 141.5901 171.999 133.1388 171.7459 132.915 179.7196 129.8186 179.6363 129.0135 183.857 126.6492 183.7882 126.6178 190.2191 123.9446 193.5476 123.7173 196.4101 120.059 196.0633 120.3188 198.1798 94.5656 197.6742 79.1275 197.409 80.5583 140.2717 Z" id="fips-42121"/>
<path d="M 215.8586 339.3987 222.9422 324.2025 231.9647 302.1096 233.863 296.5678 240.5218 281.9709 240.1677 280.6692 252.2749 280.8318 301.5957 281.143 293.5776 295.549 289.0272 296.0338 288.211 304.9965 282.8994 314.0658 278.4466 316.1964 275.4942 320.2398 274.8 323.732 275.3679 325.5859 273.8721 329.1183 271.98 344.5589 266.7155 347.6814 264.2058 352.32 259.8188 360.4251 260.1298 361.62 260.3368 362.4161 260.8603 364.4284 258.8573 367.3757 234.1054 366.7808 232.8633 366.7472 232.6608 366.5452 232.1715 366.5882 231.757 366.9983 230.0319 365.9985 227.815 366.7357 226.3046 361.9043 225.2531 361.2328 222.3845 360.6267 222.01 359.5537 221.3526 359.4089 204.4577 359.1629 204.5875 358.3804 207.0864 355.266 215.8821 339.5904 215.8586 339.3987 Z" id="fips-42021"/>
<path d="M 171.1696 402.6032 173.3411 400.8312 176.488 394.0597 180.5455 392.3671 182.7871 388.6927 186.2712 390.3739 189.385 384.8204 189.6994 381.2614 192.5278 380.8663 192.2145 377.8828 194.6075 377.0006 194.6103 374.2802 198.2266 370.3452 201.1574 363.9953 204.4577 359.1629 221.3526 359.4089 222.01 359.5537 222.3845 360.6267 225.2531 361.2328 226.3046 361.9043 227.815 366.7357 230.0319 365.9985 231.757 366.9983 232.1715 366.5882 232.6608 366.5452 232.8633 366.7472 234.1054 366.7808 258.8573 367.3757 256.2599 373.0496 247.3724 398.4015 245.7098 397.4237 244.1381 400.6244 244.5211 442.5727 243.1163 447.6047 237.2753 460.5406 220.6871 460.3733 220.301 460.3692 204.5035 460.1423 202.9901 460.1296 156.5869 459.6476 156.5944 457.629 154.2127 457.173 156.4345 455.7223 155.6725 453.4993 158.6404 451.1633 156.8747 449.4972 158.5132 447.3529 161.7018 448.9539 160.095 445.3366 160.589 441.9166 158.4658 440.742 158.3973 438.9472 153.5424 435.8215 156.2874 427.455 163.5725 415.2135 165.9779 411.0688 171.1696 402.6032 Z" id="fips-42111"/>
<path d="M 693.1809 332.0984 702.9947 319.3368 713.1488 310.2333 713.6877 309.861 717.7428 306.2299 723.4076 301.7284 731.4101 296.8451 732.0565 297.8867 732.3776 299.8599 732.415 300.0893 732.3453 300.7242 731.8456 301.6195 731.7953 302.0255 731.8344 302.2217 731.9592 302.6375 732.2009 302.9895 732.9923 303.8374 733.4921 304.191 734.5741 304.582 735.4919 304.7132 736.2742 304.6921 736.8709 304.46 738.338 303.0015 739.0708 302.5979 739.7713 302.494 742.4368 302.8646 743.3216 303.2936 744.7793 303.7622 745.4286 304.3548 747.8629 307.1728 749.2451 308.2207 749.4451 308.6886 749.5789 309.2329 749.8162 311.0916 749.7496 312.2893 749.7787 313.8662 749.9117 314.9464 750.3807 317.2666 750.4702 318.2211 750.4586 319.1148 750.1979 319.9491 749.7494 320.6763 749.7359 321.4404 749.8583 322.0878 749.4607 323.647 749.4674 323.8594 749.9349 325.0742 750.6334 327.7328 750.8886 329.6223 751.0099 329.8876 751.2762 330.4696 751.6626 330.8166 752.9908 331.1831 753.2804 331.4127 753.4679 331.5613 753.6559 331.8388 753.6716 331.862 754.377 332.3962 755.5276 332.883 756.0137 332.9443 757.039 332.6988 758.9156 332.0611 759.5448 331.6376 759.8528 331.5495 760.8843 331.8314 761.3698 332.3257 761.7517 332.5834 763.5737 333.3618 764.1465 333.7803 764.3651 334.149 765.8393 337.443 765.8843 337.5435 766.6303 339.5521 767.0452 340.8795 767.2291 342.666 767.4364 343.516 767.5541 343.6777 768.0189 344.316 768.9502 345.1658 769.8337 345.8015 771.1606 347.0154 772.4378 347.9611 773.1294 348.1717 774.0764 348.2298 774.7455 348.5848 775.3771 349.0488 776.2944 349.8626 778.0532 351.6723 778.5616 352.468 779.1729 353.5436 779.7613 354.8134 780.2715 356.1758 780.2731 356.1799 781.2286 358.1062 781.8674 359.5761 782.7151 360.3199 784.4415 361.1054 785.0622 361.6233 788.432 363.1423 790.4117 364.4933 791.798 365.5429 791.9342 365.6983 792.4558 366.902 793.3391 368.3933 793.3735 368.4514 793.9394 370.139 794.1343 370.6174 794.3218 370.8804 794.6491 371.1725 794.6899 371.2089 795.7457 371.5851 796.7125 372.162 797.198 372.702 798.8614 375.1413 798.9848 375.5323 799 376.3583 798.8992 376.9697 798.8867 377.0453 798.6725 377.5921 798.4956 377.8706 796.5111 379.7894 796.2006 379.9441 795.7905 379.9945 794.4983 379.9502 794.0119 380.0884 793.4751 380.3759 792.5876 381.0173 790.9083 382.5739 790.4999 382.678 790.0055 382.6772 788.3583 382.303 786.6599 381.6249 786.2638 381.5356 786.1756 381.5158 785.8059 381.5465 785.3581 381.7056 784.8813 382.2252 784.5601 382.8833 784.0085 384.4477 783.7401 385.8587 783.3603 386.4109 782.6386 387.0106 781.5988 387.5493 781.1566 387.8878 780.8792 388.2207 780.7651 388.4595 780.6609 388.6774 780.4646 389.385 780.3208 389.6055 779.9318 389.8883 777.701 390.5748 776.6754 391.1484 773.7981 392.2512 773.7897 392.2526 773.4017 392.3184 772.1728 392.1436 771.5574 392.2359 770.6235 392.6801 768.9786 393.6689 764.9544 396.3729 763.4569 394.9954 765.2573 391.8583 767.236 388.0167 765.8328 383.8121 761.8304 381.4929 761.2674 382.3108 758.8527 380.56 756.852 379.0936 750.9693 374.8736 745.9605 371.2123 741.6234 368.0027 739.6645 366.5311 730.9146 359.9649 726.8491 357.0357 714.0541 347.6292 713.3928 347.1305 711.4516 345.6594 704.5991 340.5616 703.461 339.7162 698.537 335.9511 693.1809 332.0984 Z" id="fips-42017"/>
<path d="M 150.3973 160.4058 160.8225 160.5799 161.0071 151.6785 166.7322 152.4471 186.9844 153.0552 186.4743 170.8433 185.4217 216.3008 184.8139 221.3613 184.4886 221.5373 182.96 222.0872 182.3908 222.4351 181.8778 222.8884 181.7559 223.1031 181.5329 223.4642 181.4643 223.5962 181.3954 223.7318 181.103 224.0485 180.7418 224.089 180.321 224.2641 180.025 224.501 179.8023 224.5908 179.3654 224.7304 179.0197 224.882 178.6956 225.0092 178.4922 225.1998 178.4287 225.3247 178.3318 225.4835 178.2185 225.6631 178.0063 226.1274 177.6889 226.6127 177.3201 226.9266 177.0843 227.0316 176.6199 227.268 176.4966 227.5335 176.1546 227.8733 175.8559 228.2613 175.5357 228.5419 175.1053 228.6022 174.6201 228.4925 174.1404 228.3451 173.849 228.1557 173.2832 228.1352 172.954 227.8406 172.7304 227.9033 172.6108 228.1228 172.001 228.6258 171.524 229.0221 171.191 229.4056 171.1264 229.5403 170.9527 229.7179 170.6302 229.8585 170.2664 229.9516 169.666 230.065 169.0068 230.1568 168.7507 230.3038 168.3773 230.2397 168.29 229.9705 168.2061 229.7801 167.9043 229.7163 167.6855 229.7885 167.4794 229.9871 167.1762 230.3738 166.4493 230.4487 165.5427 230.1521 165.2579 229.8182 165.1201 229.5671 164.8006 229.4514 164.5489 229.5797 164.261 229.9072 163.8991 231.1351 163.5753 233.7089 163.4241 234.8527 163.0175 235.6604 161.948 235.229 162.0812 233.8411 162.6375 233.2639 162.6871 232.6523 162.3823 232.6713 161.9839 232.7447 161.447 232.0848 162.0118 231.7185 162.4293 231.7706 162.6264 231.1568 161.8086 230.9109 160.6916 231.1251 160.0832 231.2509 159.9717 231.6966 159.5352 232.0991 159.1009 232.1314 158.8527 231.3745 159.0322 230.7789 158.6365 230.2491 158.2561 230.3493 157.6534 229.913 157.8704 229.3707 157.4118 229.0308 156.7573 229.4779 156.6046 230.66 156.3026 231.787 155.0008 232.4434 153.9782 232.1711 152.9268 233.0347 151.9934 233.0402 151.3273 233.0416 151.4449 232.3178 151.9277 232.0792 151.5156 231.5713 151.0278 231.6571 149.808 230.8899 148.5313 230.8713 147.9947 230.6914 147.4145 231.0194 147.0492 231.7624 146.9079 232.9063 146.0016 233.9092 145.0997 233.1448 144.8386 232.4941 144.2944 232.1539 143.6577 232.8506 143.3924 234.0162 141.9597 233.4905 140.8026 232.821 139.6108 232.8531 138.8037 233.0455 136.8679 232.1331 135.7925 232.4569 134.541 233.6858 133.8694 234.8031 132.9009 235.1398 130.8975 234.3681 129.2741 233.5427 129.1775 232.49 129.866 231.4493 130.5231 231.0096 130.9909 230.7549 131.7083 230.4825 133.9112 230.9754 134.807 230.8876 135.019 230.0573 134.6797 229.4698 134.1502 228.9449 133.9082 228.8198 133.4487 228.6733 132.7921 228.5574 131.7992 228.5382 131.4305 228.4164 131.2882 228.2123 131.245 227.7217 131.3886 227.115 131.583 226.8018 131.7169 226.631 131.8966 226.3509 132.0898 226.0737 132.1467 225.9584 132.2038 225.8383 132.3018 225.6053 132.5365 224.8518 132.5968 224.6026 132.6557 224.3596 132.755 223.8787 132.7571 223.2414 132.6494 223.013 132.2422 222.7913 131.8181 222.8936 131.5141 223.1352 131.1356 223.3749 130.3758 223.4706 129.8774 223.3863 129.383 223.1974 129.2633 223.1322 129.0292 223.0283 128.8601 222.9551 128.4738 222.8197 128.1307 222.7056 127.7569 222.6146 127.3675 222.2724 126.9975 222.0583 126.5244 221.7637 125.9238 221.3563 125.6852 221.2347 125.3488 221.1132 125.0714 221.081 124.7443 220.9804 124.4527 220.9053 124.2093 220.8017 124.0269 220.7027 123.7599 220.4112 123.6648 220.0817 123.6732 219.156 123.7535 218.9859 124.1349 218.5455 124.9238 217.9438 125.1955 217.5319 125.2483 216.9996 125.1309 216.7294 125.044 216.5675 124.9484 216.3855 124.8701 216.2516 124.7056 216.0232 124.3951 215.7475 124.1708 215.4363 123.5758 214.9369 123.1909 214.6575 122.9395 214.5606 122.6676 214.2914 122.4985 214.0248 122.4006 213.7938 122.24 213.3245 122.094 212.7312 122.0187 212.0893 121.92 210.9531 121.9508 210.6282 121.9483 210.2546 121.9748 209.7068 122.1038 209.1296 122.2242 208.4623 122.1888 207.3564 122.2158 206.5833 122.3631 205.8049 122.2848 204.7965 122.193 204.5506 122.0733 204.3211 121.9155 204.1088 121.7881 203.9286 121.5063 203.5591 121.3346 203.1572 121.4239 202.5216 121.5285 202.3454 121.7577 202.0446 122.0898 201.6036 122.1784 201.426 122.2684 201.2311 122.3411 200.5584 122.2007 200.1749 121.9857 199.8821 121.5352 199.3797 121.0357 198.764 120.8879 198.5826 120.3188 198.1798 120.059 196.0633 123.7173 196.4101 123.9446 193.5476 126.6178 190.2191 126.6492 183.7882 129.0135 183.857 129.8186 179.6363 132.915 179.7196 133.1388 171.7459 141.5901 171.999 141.649 169.3155 150.1505 169.5212 150.3973 160.4058 Z" id="fips-42031"/>
<path d="M 621.1818 244.9586 622.7054 244.1264 629.4823 240.7616 641.2241 234.9325 645.0157 232.023 647.4344 231.8149 656.7806 227.0482 655.248 222.8637 653.3667 222.9319 651.4192 219.629 651.3756 216.8394 651.9186 213.3685 651.6322 211.927 656.2949 210.0352 661.5816 204.8195 664.9728 204.2441 667.4162 206.282 667.9674 207.9564 671.4294 208.5281 672.5398 211.2038 677.5617 215.8668 679.6131 219.0573 688.84 230.0172 678.3567 236.7355 686.3812 249.6672 690.7156 256.8255 692.6259 260.9017 678.6649 264.0242 674.4398 266.2933 662.8593 269.6921 662.247 270.4177 661.0303 271.4926 654.4334 276.1225 640.4988 265.0636 638.7713 263.6299 636.669 262.0023 635.608 260.8509 621.5982 245.4648 621.1818 244.9586 Z" id="fips-42025"/>
<path d="M 711.7486 395.0006 713.4062 397.2245 716.4137 401.8783 717.5421 403.699 718.7976 403.0172 721.4719 407.0605 722.3403 408.279 723.821 410.5713 723.3109 410.9446 724.0086 411.8926 727.8541 412.994 727.4006 415.445 728.0183 416.3875 728.6025 416.6745 729.7496 417.4949 728.8012 418.2259 728.1955 421.2397 727.6617 423.4957 726.961 425.2551 725.8757 426.5086 725.9667 427.5408 729.3173 429.2005 732.7062 428.4339 733.4281 430.2771 732.0543 431.1439 730.1492 432.009 729.0019 432.4052 725.2085 433.4433 722.151 433.6506 719.8985 433.4646 718.6779 433.5428 718.0323 433.5842 717.0442 433.7561 715.4975 434.3267 713.7872 435.4828 711.4453 437.7597 708.928 440.04 707.1461 441.4909 705.6118 442.5382 703.789 441.2752 700.1944 439.3735 699.3342 438.9917 698.9773 438.8333 698.8548 438.7789 698.8371 438.7727 696.363 437.8901 693.9176 437.1973 693.796 437.1762 691.2022 436.7265 688.3123 436.457 688.2247 436.4562 684.0189 436.4194 682.7272 436.5373 682.7144 436.5389 682.4105 436.0534 682.1837 435.801 681.6947 435.5597 681.4184 435.7626 680.9019 436.7663 680.8269 436.7757 680.658 436.8114 680.8393 431.3017 680.0734 430.1824 683.6966 427.6332 684.8456 425.1649 687.4324 420.5212 690.0978 421.1769 689.9578 417.4109 692.8933 415.4928 701.8374 409.7571 699.3598 408.272 705.9918 402.0215 704.4577 399.4725 710.1342 396.0078 711.7486 395.0006 Z" id="fips-42045"/>
<path d="M 569.6459 270.623 579.4885 265.7314 580.4934 260.4352 582.2962 250.9899 592.5002 238.9205 606.5825 243.5109 617.0432 247.0207 621.1818 244.9586 621.5982 245.4648 635.608 260.8509 636.669 262.0023 638.7713 263.6299 640.4988 265.0636 654.4334 276.1225 651.7535 277.2422 647.7499 281.2958 641.4087 284.0099 636.481 286.9808 622.7692 294.0244 620.4083 305.2129 619.5587 305.9289 614.1561 304.9968 613.1584 305.0081 611.2667 307.4897 607.6933 308.2575 601.0357 311.4353 598.8152 313.3248 592.3149 314.5686 587.3568 316.7485 576.0179 317.2551 571.9241 318.3578 565.2226 320.9795 562.2745 320.966 549.1133 310.5315 543.3639 306.0304 526.1974 292.3581 526.3084 291.4288 545.033 282.9739 557.5822 276.6234 569.6459 270.623 Z" id="fips-42107"/>
<path d="M 636.481 286.9808 657.5944 303.983 666.5708 311.1269 671.2274 314.8414 679.8973 321.7457 686.8114 327.1384 682.8774 333.9384 681.6304 336.0965 672.5007 351.6231 664.8743 364.552 649.9152 376.4432 641.0899 383.9284 631.5283 376.1469 617.2743 364.6589 617.2652 364.6517 610.6204 359.3139 602.3465 352.5983 595.7313 345.7336 591.1347 343.7676 562.2745 320.966 565.2226 320.9795 571.9241 318.3578 576.0179 317.2551 587.3568 316.7485 592.3149 314.5686 598.8152 313.3248 601.0357 311.4353 607.6933 308.2575 611.2667 307.4897 613.1584 305.0081 614.1561 304.9968 619.5587 305.9289 620.4083 305.2129 622.7692 294.0244 636.481 286.9808 Z" id="fips-42011"/>
<path d="M 421.8681 421.4952 428.6853 414.781 431.118 412.4014 437.9731 410.7814 451.5088 407.5648 461.0685 405.9284 462.0936 404.6179 464.279 401.9177 467.6422 398.614 473.8235 401.442 477.1812 405.9124 484.0598 408.5316 491.4111 422.6071 491.3365 426.0221 489.0667 430.1071 493.084 436.6393 492.7933 436.8638 489.857 438.3355 488.212 440.7509 488.0893 440.8672 487.7696 440.9933 487.3017 441.2556 487.1245 441.2934 486.9114 441.805 487.208 461.2816 480.5844 461.3128 479.0507 461.2906 478.9541 461.3096 457.1402 461.5027 457.1302 461.5028 453.9627 461.525 453.4791 461.5283 423.6382 461.6913 422.7577 438.4075 421.8681 421.4952 Z" id="fips-42001"/>
<path d="M 2.3187 412.6412 4.7866 414.2291 8.3078 414.6451 11.5157 410.9048 19.2814 410.3321 21.6984 407.4857 31.4347 405.6591 32.569 403.0483 36.4008 404.464 36.3333 406.4213 40.9344 405.2734 47.6213 406.8117 49.7558 405.754 52.2702 407.3587 56.0447 409.4665 62.0212 409.2797 65.8611 405.9599 68.5379 408.3405 67.1698 411.5291 74.1064 410.8417 72.4403 415.207 74.5503 416.9497 79.5849 416.3748 83.8198 421.5937 83.7751 423.3949 83.3347 425.6264 85.0536 429.6169 82.8808 431.761 83.6814 433.8844 83.6562 434.1186 83.3162 434.4272 82.9301 434.7516 81.7269 435.6675 83.6228 437.1504 84.0941 441.8142 85.6139 445.2281 81.9991 447.3332 82.4945 451.6924 86.0813 454.2213 84.2626 458.2352 62.2047 457.6062 39.3763 457.0063 30.08 456.7496 29.9687 456.7498 14.5184 456.3149 1 455.8679 1.3097 445.3033 1.4463 440.6488 1.9779 425.4309 2.1777 417.1709 2.208 416.7727 2.2943 413.638 2.3054 413.1449 2.3187 412.6412 Z" id="fips-42059"/>
<path d="M 301.5957 281.143 300.3134 279.7404 310.8155 279.1139 331.3647 278.0162 333.4464 278.722 330.3671 281.3794 321.3883 286.4458 319.0424 290.2679 322.2394 295.0329 322.3878 296.6034 326.5777 300.465 324.1286 304.5244 324.9295 306.595 322.3453 311.1366 324.9697 315.2909 326.5349 316.0112 328.7657 314.2297 331.6919 309.4643 329.119 315.6887 328.2641 323.7136 330.6937 321.988 331.5153 323.3538 330.8693 326.4742 327.9474 332.6965 317.5476 350.3823 313.8991 357.9018 309.5371 367.8983 295.2797 360.2534 289.6582 356.9647 287.7214 367.3525 279.8551 359.5858 276.5752 358.5609 264.2058 352.32 266.7155 347.6814 271.98 344.5589 273.8721 329.1183 275.3679 325.5859 274.8 323.732 275.4942 320.2398 278.4466 316.1964 282.8994 314.0658 288.211 304.9965 289.0272 296.0338 293.5776 295.549 301.5957 281.143 Z" id="fips-42013"/>
<path d="M 435.7406 259.2542 447.212 247.9117 457.3152 232.9343 465.3591 223.6 465.3313 219.1987 469.4304 219.1315 476.9538 216.096 487.8003 215.581 490.0888 204.6153 498.7789 206.2741 499.7215 213.0467 504.0848 218.2549 503.2858 227.652 502.7534 232.2141 500.9858 236.8446 505.2739 246.8447 509.063 250.8776 512.2901 252.3046 512.3844 252.9186 508.8405 251.2666 497.6517 251.9557 493.0195 251.4306 483.6505 254.9823 481.823 257.0253 478.119 254.9214 475.1282 255.1369 467.6083 257.811 441.5519 264.5814 436.805 266.3626 436.7032 259.6897 435.7406 259.2542 Z" id="fips-42119"/>
<path d="M 682.7144 436.5389 680.9019 436.7663 681.4184 435.7626 681.6947 435.5597 682.1837 435.801 682.4105 436.0534 682.7144 436.5389 Z M 606.4877 459.2374 608.7707 458.9171 608.6258 456.5991 611.1713 458.7214 612.4056 457.0331 611.0816 455.9186 613.498 454.3514 613.7951 452.0087 615.8934 452.2149 616.9667 448.62 618.1558 447.8911 620.1551 442.6889 619.6624 440.1122 622.4453 439.3921 622.0099 435.2843 623.8244 435.1687 624.4409 431.4301 625.8994 432.4703 625.2578 427.0625 624.8684 421.7253 626.5014 420.0383 625.1285 417.484 628.0573 411.088 630.838 405.8348 632.8928 402.0098 632.6995 394.6268 631.727 389.63 632.3193 388.7865 641.0899 383.9284 649.9152 376.4432 664.8743 364.552 666.0301 365.5425 667.7108 364.3589 668.9188 363.8668 671.9237 364.7842 674.3444 365.9236 676.5245 367.6522 677.9666 364.9109 682.0007 372.4883 684.1657 370.2923 685.5951 373.9859 686.723 376.0197 688.2127 377.1611 688.5888 380.5371 691.8525 378.718 691.0641 382.7955 693.2454 384.5569 697.6571 384.7381 697.5403 385.6836 696.3459 387.1043 697.7434 388.6509 698.5774 391.3701 703.4832 389.5425 707.4355 395.9424 711.7486 395.0006 710.1342 396.0078 704.4577 399.4725 705.9918 402.0215 699.3598 408.272 701.8374 409.7571 692.8933 415.4928 689.9578 417.4109 690.0978 421.1769 687.4324 420.5212 684.8456 425.1649 683.6966 427.6332 680.0734 430.1824 680.8393 431.3017 680.658 436.8114 680.54 436.8364 677.5898 437.4744 675.1991 438.2203 674.2673 438.5659 671.3591 439.9301 670.7722 440.2815 668.2049 441.8176 666.14 443.383 664.9469 444.477 664.0081 445.3377 663.6782 445.6884 663.0857 446.3183 662.6485 446.783 661.3789 448.3151 660.3189 449.759 659.1621 451.622 658.3275 453.2576 658.1976 453.5122 657.4455 455.2215 656.4723 458.1147 654.4274 458.1627 652.8802 458.1861 651.4296 458.2155 651.1744 458.222 625.3923 458.8508 623.4 458.8309 621.391 458.8882 608.1076 459.2004 606.4877 459.2374 Z" id="fips-42029"/>
<path d="M 134.0346 76.8019 134.7558 50.062 142.6877 50.2791 144.4138 50.338 148.0767 50.4294 153.2162 50.5557 182.9368 50.9775 192.4409 51.0112 208.0959 51.2782 218.5321 51.4764 227.1003 51.7345 227.0343 59.8495 227.0165 76.2235 227.153 79.9762 226.3533 81.7589 222.7246 81.7913 221.2522 118.8866 221.253 118.9694 149.1159 117.5812 146.6167 117.5616 133.0848 117.4191 134.0346 76.8019 Z" id="fips-42123"/>
<path d="M 467.6422 398.614 475.4204 391.1785 482.4401 384.4969 484.6705 384.3716 490.336 382.7725 489.3895 381.3888 496.1101 381.9509 499.2907 381.1186 496.8791 379.1025 498.8764 376.6312 495.9941 375.5611 498.344 374.1621 499.4548 370.6124 501.1274 372.0869 504.5266 372.0308 505.6025 370.1641 508.2935 370.9806 510.587 374.5311 512.91 374.6993 513.6705 374.7814 518.7628 378.4283 519.7846 378.8502 522.5157 388.1068 524.6817 389.025 525.5868 389.7482 528.0774 392.1391 532.7526 399.1309 535.4201 400.0216 545.5259 402.1082 550.5556 401.0148 553.0878 407.026 553.72 407.7767 553.7543 407.9473 555.6604 410.7493 556.1424 414.4427 558.6395 419.1258 562.6414 421.8487 570.5929 425.5862 572.3052 430.0318 572.6195 433.7567 576.4235 437.2959 578.2223 441.761 581.3692 443.867 586.9372 449.9517 591.9848 457.9994 592.1366 459.5535 572.7175 459.8932 572.6484 459.8943 570.577 459.9467 569.366 459.9598 567.3862 459.9809 567.3727 459.9991 564.1319 460.0455 557.2756 460.1409 553.795 460.1941 546.5887 460.3188 546.5712 460.3191 541.019 460.4035 528.8787 460.5791 526.8877 460.6068 526.3767 460.6135 516.5242 460.7898 516.5004 460.7902 513.8349 460.8579 513.4479 460.8445 503.5183 461.0054 502.2727 461.025 501.2413 461.0362 495.8485 461.0392 488.3487 461.2759 487.208 461.2816 486.9114 441.805 487.1245 441.2934 487.3017 441.2556 487.7696 440.9933 488.0893 440.8672 488.212 440.7509 489.857 438.3355 492.7933 436.8638 493.084 436.6393 489.0667 430.1071 491.3365 426.0221 491.4111 422.6071 484.0598 408.5316 477.1812 405.9124 473.8235 401.442 467.6422 398.614 Z" id="fips-42133"/>
<path d="M 533.2764 202.8658 539.7833 202.408 559.0541 180.9458 564.3107 174.9711 577.4974 174.4298 576.4807 192.2232 576.7748 193.2729 582.4514 206.3928 589.0112 205.0779 588.9917 221.0409 592.5002 238.9205 582.2962 250.9899 580.4934 260.4352 579.4885 265.7314 569.6459 270.623 565.4635 260.2512 553.0558 262.0424 552.0792 258.1427 553.3779 256.8121 552.2722 251.6982 549.2503 251.7195 550.204 243.7793 548.9119 241.3716 551.1984 240.2669 550.8206 237.9628 543.8953 230.7254 544.2083 224.5406 543.1211 221.0446 536.4527 219.3425 536.1333 214.6405 533.2764 202.8658 Z" id="fips-42037"/>
<path d="M 394.1228 359.4748 398.9911 353.6186 404.0068 348.9772 408.6188 345.5126 413.1848 343.9456 412.0934 339.7792 420.0687 334.2443 446.2366 318.2001 454.1179 314.5515 458.6369 312.0404 462.8445 310.7121 460.7366 306.6498 471.558 304.1052 479.9133 302.5389 482.4565 302.5092 492.4897 298.1188 491.4546 304.1445 486.7213 309.0665 488.1954 313.385 487.8167 318.2507 490.0361 321.604 492.2348 322.8291 492.7768 326.7009 491.1952 329.0963 488.5712 330.6765 485.4912 334.359 483.7116 334.6679 484.1794 338.7635 482.0747 340.7861 483.189 345.2608 484.9273 346.6423 494.5978 346.7218 497.7415 351.8982 489.6603 355.2408 484.1225 356.2998 472.9452 357.1767 460.7566 359.5592 458.1232 359.6891 449.1757 361.2574 443.4072 363.2528 440.8971 361.8562 441.9386 358.9035 439.4941 359.8309 433.4229 364.2106 431.0507 365.2566 428.2095 365.0948 430.0971 362.0998 436.841 356.2944 436.8054 354.967 432.1081 356.8896 427.7176 359.9454 421.3006 365.7918 412.6474 372.1363 410.0474 372.1234 408.1632 373.3992 403.2559 378.2187 401.9854 375.8533 403.6112 370.5233 401.7647 369.7347 398.5167 372.4253 397.134 370.8825 397.7064 365.538 394.69 366.2678 396.2321 362.9613 394.1228 359.4748 Z" id="fips-42099"/>
<path d="M 436.805 266.3626 441.5519 264.5814 467.6083 257.811 475.1282 255.1369 478.119 254.9214 481.823 257.0253 483.6505 254.9823 493.0195 251.4306 497.6517 251.9557 508.8405 251.2666 512.3844 252.9186 512.2901 252.3046 512.5015 253.0103 510.6274 258.6001 505.7696 265.3726 504.5512 270.4422 504.7905 276.0958 504.352 283.0055 501.8285 287.4208 498.6143 289.8044 493.7887 296.2707 493.0752 294.1526 490.2597 294.7304 485.9907 296.8143 484.3934 292.494 480.852 292.5238 480.6692 289.4734 477.2724 288.9762 472.7617 289.6855 470.5805 286.9316 465.0081 289.5768 446.2692 286.7394 437.2515 285.3416 436.805 266.3626 Z" id="fips-42109"/>
<path d="M 493.7887 296.2707 498.6143 289.8044 501.8285 287.4208 504.352 283.0055 504.7905 276.0958 504.5512 270.4422 505.7696 265.3726 510.6274 258.6001 512.5015 253.0103 512.2901 252.3046 509.063 250.8776 505.2739 246.8447 500.9858 236.8446 502.7534 232.2141 503.2858 227.652 504.0848 218.2549 499.7215 213.0467 498.7789 206.2741 499.628 204.1594 499.6704 203.944 499.8282 203.6155 500.2185 203.2222 500.3492 203.0185 500.7912 202.844 513.2349 199.5199 520.8119 200.0961 520.692 214.4525 515.3385 229.6109 514.1906 237.0246 512.9631 240.2241 521.0103 239.183 530.9442 236.6209 532.1661 237.7458 534.5181 237.2227 539.1337 241.1456 545.1693 241.7007 543.7236 245.8828 546.0221 251.607 547.383 251.7407 549.2503 251.7195 552.2722 251.6982 553.3779 256.8121 552.0792 258.1427 553.0558 262.0424 565.4635 260.2512 569.6459 270.623 557.5822 276.6234 545.033 282.9739 526.3084 291.4288 526.1974 292.3581 519.6584 293.3264 513.6414 295.6636 512.1544 294.5502 511.4867 295.4189 511.3266 296.8992 507.3957 298.4492 503.892 298.164 501.098 299.8985 496.7262 302.5121 492.4897 298.1188 493.7887 296.2707 Z" id="fips-42097"/>
<path d="M 2.6259 402.9094 2.9701 392.0321 2.9826 391.837 3.0747 388.651 3.4063 377.1897 3.484 374.843 3.4841 374.8382 4.3475 346.4719 4.4095 344.4374 4.694 339.7976 4.8629 334.2498 4.8676 334.1105 5.2517 322.8324 5.1356 320.8161 5.1551 320.1524 26.604 320.756 26.7392 320.7657 43.4634 339.5979 49.8167 346.9177 50.424 347.5371 59.3794 351.3534 65.0978 353.7454 70.5548 356.005 86.7775 362.7845 78.9778 366.2382 80.4015 369.1678 88.9582 373.2637 92.5168 372.8202 95.2056 376.4962 93.2521 379.2335 89.2658 378.5708 87.6315 380.4639 91.2917 385.48 94.6588 387.4787 96.4113 391.9142 93.1308 394.71 88.4733 393.8505 90.8146 396.924 89.0169 399.3279 90.9658 401.6359 90.5258 403.1605 88.3724 404.2284 85.7767 404.3498 82.9084 408.1277 80.1262 408.8423 77.8977 405.4577 74.8308 406.2231 74.1064 410.8417 67.1698 411.5291 68.5379 408.3405 65.8611 405.9599 62.0212 409.2797 56.0447 409.4665 52.2702 407.3587 49.7558 405.754 47.6213 406.8117 40.9344 405.2734 36.3333 406.4213 36.4008 404.464 32.569 403.0483 31.4347 405.6591 21.6984 407.4857 19.2814 410.3321 11.5157 410.9048 8.3078 414.6451 4.7866 414.2291 2.3187 412.6412 2.3197 412.6009 2.3264 412.4291 2.6259 402.9094 Z" id="fips-42125"/>
<path d="M 13.4371 50.8146 24.7926 46.1118 28.2485 45.1422 33.2101 43.0374 33.3689 43.0665 34.5391 42.3805 36.4283 42.0273 39.0179 41.0371 43.227 38.9849 43.5124 38.8457 52.4901 33.9069 53.0215 33.6499 58.2194 31.1344 61.2331 29.1313 62.848 27.5754 65.3981 21.3228 66.1986 20.1952 67.9848 18.4438 71.8563 17.3151 73.327 17.6983 73.8478 18.1795 72.9396 19.0604 73.9712 20.5722 73.0965 21.2135 73.0479 21.2491 73.3636 21.904 73.9274 22.2418 75.3724 22.4944 80.776 19.4149 85.0872 16.955 92.9159 11.8131 93.9035 11.6914 96.985 10.1203 98.9967 8.6891 101.4433 7.6567 104.5618 6.9231 110.7894 3.3911 115.6956 1 115.6185 4.3225 115.5596 5.8121 115.3599 16.4825 115.3311 17.1886 115.3063 18.333 115.2845 20.2445 115.2222 22.3921 115.1083 25.8864 115.1134 28.0881 114.6956 46.0335 114.6423 49.4423 114.6782 49.668 126.8463 49.836 132.828 50.0201 132.8264 50.0084 134.7558 50.062 134.0346 76.8019 124.9085 76.3484 94.1985 75.8069 77.4476 75.5008 54.5381 75.0913 35.2615 74.468 27.8918 74.2329 12.7336 73.7862 13.1751 59.4954 13.2641 56.8344 13.4321 51.0597 13.4371 50.8146 Z" id="fips-42049"/>
<path d="M 8.723 203.8553 26.8321 204.1474 26.9055 204.1481 43.993 204.3723 43.9703 206.2812 58.9363 207.3243 65.533 215.4023 64.9901 216.1659 55.9399 227.6085 56.1116 248.0195 56.1595 253.7264 33.8807 253.4722 7.2074 253.0067 7.3544 248.302 7.3742 244.2922 7.375 244.2085 7.3757 244.13 7.3811 243.8284 7.3946 243.0702 7.5826 240.4881 7.9616 228.5811 8.0077 227.1331 8.1265 223.5529 8.3777 215.2651 8.4341 213.576 8.4349 213.4122 8.447 212.8468 8.4741 211.5788 8.5212 210.0376 8.573 208.2131 8.5892 207.3978 8.675 205.4955 8.7168 203.8616 8.7228 203.8617 8.723 203.8553 Z" id="fips-42073"/>
<path d="M 690.1867 112.3899 685.6526 48.2474 686.4529 48.1993 691.9122 48.061 692.4796 48.0437 696.4454 47.9283 702.1331 47.7605 702.9554 48.1568 703.8898 48.4512 704.629 48.8887 705.1306 49.9654 705.1175 50.3816 704.5472 52.2095 704.5888 52.4654 704.9621 52.8296 705.4605 52.9 706.3324 53.2494 707.2919 54.3968 707.6091 54.5362 707.8937 55.7194 708.6293 56.4267 708.9636 56.6273 709.821 56.7456 710.1274 56.7073 710.1821 56.6123 710.1134 55.9116 710.2658 55.7167 710.5064 55.593 711.1556 55.5612 711.4715 55.9323 711.4558 56.9003 711.573 57.2658 711.7957 57.6453 713.1903 58.3188 713.4658 59.2664 713.6018 60.5057 713.6189 61.3086 713.7911 61.7786 714.587 63.2289 714.9005 63.994 714.8995 64.9074 714.257 65.7992 714.3044 66.5065 714.5077 67.5442 714.983 67.7779 715.6269 67.9159 715.9522 68.1446 716.3968 69.3309 716.2907 69.6972 715.8931 70.0341 715.5956 70.4956 715.6288 70.9712 715.7554 71.3074 716.0724 71.7317 716.4423 72.0166 717.3287 72.011 717.7432 71.7724 718.352 71.112 718.6461 71.0597 718.9733 71.305 719.5541 72.0299 719.9602 72.3969 720.7584 72.7286 721.024 72.7252 721.4895 72.1583 722.1407 70.8963 722.8296 70.5521 723.5931 70.4183 724.4228 70.5839 724.8928 70.8429 725.298 71.2303 725.4779 71.6937 725.6602 71.902 725.9198 72.1017 726.1532 72.1268 726.326 72.0165 726.5393 71.7076 726.7571 71.0753 726.9157 70.3059 727.2363 69.8585 727.5099 69.7983 728.0514 69.9709 728.2488 70.2017 728.4124 70.7802 728.3648 72.1805 728.7311 73.139 729.0176 73.5392 729.3785 73.8427 730.0591 74.0931 730.5409 74.0358 731.3902 73.5902 731.7359 73.429 732.2129 73.3531 733.4894 74.5596 733.9011 74.5904 735.1155 74.3882 735.5487 74.587 735.715 74.7714 735.869 75.2851 735.8844 76.0753 735.7102 77.1585 735.7074 77.7003 735.758 77.989 735.9753 78.5012 737.7803 79.242 738.6762 80.1075 739.2285 80.4135 739.7223 80.389 740.5026 79.7915 740.7355 79.7308 741.2243 79.7197 741.5313 79.9537 741.5981 80.2806 741.5629 80.924 741.2981 82.035 740.9879 82.7064 740.8092 82.8993 740.3942 83.0891 739.4634 82.9294 738.8616 83.1546 737.7611 84.7065 737.6534 84.9683 737.5159 85.7803 737.4744 86.354 737.4141 87.186 737.4637 87.4558 737.5846 87.7135 737.9315 88.0831 738.677 88.1955 739.0305 88.1854 740.7983 87.6189 741.2697 87.5478 741.5044 87.7201 741.724 88.0207 742.2809 88.2743 742.775 88.3687 743.3412 88.7188 744.3919 90.8599 744.5206 92.2599 744.3068 93.9841 744.526 95.418 745.1085 97.5662 745.097 97.8872 744.994 98.1313 744.7914 98.2407 743.584 98.0024 742.8553 98.0878 742.5998 98.5347 742.5861 98.8918 742.8097 99.3748 743.8405 100.3698 744.2768 101.0771 744.8562 102.3724 745.0919 103.4349 745.0994 103.88 744.9249 104.1596 744.129 104.9079 744.0651 105.2859 744.2014 105.7609 744.3636 105.8851 744.8048 106.0039 745.383 106.9988 745.5849 108.1135 745.5884 110.7111 745.7187 112.1592 745.7905 112.475 746.4609 113.958 746.4049 114.9773 746.2429 115.3015 746.0052 115.3831 745.8583 115.3527 745.3801 114.9777 745.1098 114.8968 744.2785 115.134 744.0885 115.3292 744.0786 115.5022 744.3274 116.0626 744.367 116.3318 743.9725 116.5531 743.2882 116.4842 742.7725 116.6158 742.3846 116.9148 742.399 117.3087 743.0795 118.0098 730.4647 141.1496 728.044 144.2522 728.3166 147.0129 724.1028 150.5034 720.8844 151.1032 719.6975 152.7442 719.3548 157.3166 717.9999 159.9808 713.6585 161.0231 712.1494 159.738 710.2294 161.3447 708.4861 159.5793 706.5856 161.1521 708.5904 165.1499 712.0951 167.5098 711.8665 170.8844 709.252 178.6823 707.5056 179.5248 708.4185 181.4501 706.092 184.2553 705.0979 184.4496 686.363 185.9937 687.6019 184.0903 691.0023 183.9419 695.0033 181.1634 692.9135 151.1242 691.5277 131.7505 690.1867 112.3899 Z" id="fips-42127"/>
<path d="M 577.4974 174.4298 580.9316 162.4554 585.028 162.2302 615.6062 160.4895 618.3614 160.2917 635.838 154.2415 639.3458 153.0194 641.1347 152.1241 641.8845 158.006 646.6462 160.8227 654.0155 166.0301 661.372 167.4628 660.6187 173.843 662.6619 176.6016 662.9835 180.85 666.3616 181.8764 667.1593 193.9607 668.004 196.5796 671.6586 197.142 673.8487 199.0847 669.4675 206.094 667.4162 206.282 664.9728 204.2441 661.5816 204.8195 656.2949 210.0352 651.6322 211.927 651.9186 213.3685 651.3756 216.8394 651.4192 219.629 653.3667 222.9319 655.248 222.8637 656.7806 227.0482 647.4344 231.8149 645.0157 232.023 641.2241 234.9325 629.4823 240.7616 622.7054 244.1264 621.1818 244.9586 617.0432 247.0207 606.5825 243.5109 592.5002 238.9205 588.9917 221.0409 589.0112 205.0779 582.4514 206.3928 576.7748 193.2729 576.4807 192.2232 577.4974 174.4298 Z" id="fips-42079"/>
<path d="M 146.6167 117.5616 149.1159 117.5812 221.253 118.9694 220.6792 136.55 220.4235 152.4323 218.0401 152.4188 218.0753 149.761 206.3867 149.3419 206.0897 154.7293 202.2609 154.658 201.8408 169.4955 200.2726 172.0616 195.8166 169.2679 193.7668 171.533 189.4392 169.9108 186.4743 170.8433 186.9844 153.0552 166.7322 152.4471 161.0071 151.6785 160.8225 160.5799 150.3973 160.4058 150.535 150.769 144.6898 150.5818 146.031 146.1726 146.6167 117.5616 Z" id="fips-42053"/>
<path d="M 313.8991 357.9018 317.5476 350.3823 327.9474 332.6965 330.8693 326.4742 331.5153 323.3538 330.6937 321.988 328.2641 323.7136 329.119 315.6887 331.6919 309.4643 328.7657 314.2297 326.5349 316.0112 324.9697 315.2909 322.3453 311.1366 324.9295 306.595 324.1286 304.5244 326.5777 300.465 322.3878 296.6034 322.2394 295.0329 319.0424 290.2679 321.3883 286.4458 330.3671 281.3794 333.4464 278.722 337.6964 280.2096 356.8993 287.3098 360.7169 284.8323 373.1909 277.969 380.8093 282.316 387.5974 280.8893 388.7462 283.1764 392.6801 280.4533 393.3271 282.8424 389.9864 284.9081 389.6363 289.4076 392.507 288.9036 383.1276 297.9719 378.2061 301.6069 373.5884 307.563 370.8279 312.7534 374.2842 321.7278 373.0066 323.0317 360.9717 339.9353 364.5449 341.2533 368.9247 346.0107 371.2995 345.2667 373.9967 346.7914 375.1247 345.3454 381.7833 345.3173 383.0984 343.5532 389.4814 362.8075 389.8449 364.1966 385.0655 368.9618 380.9019 374.8838 377.0544 381.5882 368.7595 399.1156 367.6981 400.4916 359.3104 392.8679 359.2626 393.2389 338.1711 387.4539 330.5911 381.8172 316.7158 371.086 313.8991 357.9018 Z" id="fips-42061"/>
<path d="M 542.2878 51.0494 553.5804 51.0675 554.4469 51.0684 555.0323 51.0756 570.015 50.9263 570.8394 50.9239 597.2866 50.3434 601.3535 97.0364 602.5784 112.5926 591.4798 113.5236 588.8654 132.7115 513.6727 125.6933 508.9751 125.1511 500.7697 124.0065 500.1882 119.805 497.1778 88.5609 497.0541 85.8925 492.9739 51.3871 493.668 51.3799 493.8146 51.3605 505.2537 51.2365 507.8166 51.2251 516.6525 51.1167 531.5453 51.0842 542.2219 51.0492 542.2878 51.0494 Z" id="fips-42015"/>
<path d="M 641.1347 152.1241 649.0155 138.1818 645.0631 134.7258 648.6145 125.5501 654.4285 114.3438 655.6461 113.1517 664.7281 112.9414 689.2691 112.4465 690.1867 112.3899 691.5277 131.7505 692.9135 151.1242 695.0033 181.1634 691.0023 183.9419 687.6019 184.0903 686.363 185.9937 684.8256 188.4207 681.3484 187.651 674.1255 198.7965 673.8487 199.0847 671.6586 197.142 668.004 196.5796 667.1593 193.9607 666.3616 181.8764 662.9835 180.85 662.6619 176.6016 660.6187 173.843 661.372 167.4628 654.0155 166.0301 646.6462 160.8227 641.8845 158.006 641.1347 152.1241 Z" id="fips-42069"/>
<path d="M 403.4674 134.4792 489.3541 132.3056 488.9689 131.4563 491.6381 129.0594 493.8529 128.7193 494.4253 126.9268 500.2964 125.1564 500.7697 124.0065 508.9751 125.1511 518.0165 158.1788 539.4194 176.0828 545.391 178.0085 559.0541 180.9458 539.7833 202.408 533.2764 202.8658 528.1404 203.2121 520.8119 200.0961 513.2349 199.5199 500.7912 202.844 500.3492 203.0185 500.2185 203.2222 499.8282 203.6155 499.6704 203.944 499.628 204.1594 498.7789 206.2741 490.0888 204.6153 487.8003 215.581 476.9538 216.096 469.4304 219.1315 465.3313 219.1987 462.6005 219.2434 447.8913 200.6951 445.031 198.209 445.3566 196.6573 441.2347 192.4009 437.3325 192.2458 437.3423 190.6371 434.5388 189.8966 430.6451 186.3283 426.5216 181.1229 424.3901 180.1225 422.8565 177.0975 420.7662 175.3757 420.1922 171.0631 417.052 168.3301 413.3619 167.454 411.54 165.7406 411.2772 163.3713 408.2227 157.7429 406.6951 156.1453 405.4822 152.6103 403.7841 152.6589 403.6522 145.9198 403.4674 134.4792 Z" id="fips-42081"/>
<path d="M 392.6801 280.4533 396.5896 277.7224 404.641 274.7709 425.6647 263.4187 434.9266 259.3746 435.7406 259.2542 436.7032 259.6897 436.805 266.3626 437.2515 285.3416 446.2692 286.7394 435.353 291.4725 421.6607 299.2332 417.7498 301.9901 417.8031 306.9735 413.0485 310.9898 407.3839 314.9023 402.1434 319.1568 402.1604 323.3363 397.5871 327.3951 387.2326 338.1608 383.8301 342.454 383.0984 343.5532 381.7833 345.3173 375.1247 345.3454 373.9967 346.7914 371.2995 345.2667 368.9247 346.0107 364.5449 341.2533 360.9717 339.9353 373.0066 323.0317 374.2842 321.7278 370.8279 312.7534 373.5884 307.563 378.2061 301.6069 383.1276 297.9719 392.507 288.9036 389.6363 289.4076 389.9864 284.9081 393.3271 282.8424 392.6801 280.4533 Z" id="fips-42087"/>
<path d="M 667.4162 206.282 669.4675 206.094 673.8487 199.0847 674.1255 198.7965 681.3484 187.651 684.8256 188.4207 686.363 185.9937 705.0979 184.4496 706.092 184.2553 713.0715 183.5128 736.9837 181.0254 735.9948 187.0702 733.9313 199.4069 744.7513 200.7282 750.1318 209.9617 751.7058 211.5162 756.5343 209.1291 756.5396 209.6954 756.6513 209.7913 757.0252 209.8432 757.494 209.7699 757.9553 209.5186 758.744 208.7357 759.1763 208.4539 759.5251 208.3505 759.7958 208.4759 759.8512 208.6517 759.9023 208.8143 759.7151 209.8319 759.3785 210.293 757.8454 211.4431 756.9386 211.6258 756.203 211.9665 755.5731 212.4566 754.696 213.6346 754.0527 213.6598 753.8655 213.8887 753.5295 214.81 753.4663 215.3521 753.2964 215.8462 753.0475 216.3077 752.2033 217.5005 752.1239 217.87 752.2734 218.5356 752.2317 218.6994 751.5733 218.9703 751.0693 219.2849 750.2627 220.2093 749.8137 220.4908 746.2952 222.6957 745.6989 222.9823 744.8745 223.0607 743.7115 223.5085 743.6474 223.7346 742.9623 224.5519 742.2804 224.961 741.1533 225.4659 740.9635 225.8183 739.26 226.9575 738.7611 227.3638 738.3194 227.8916 738.1901 228.2897 738.2243 229.005 738.1593 229.429 738.0397 229.8616 737.7282 230.4668 737.7445 231.0159 737.9967 231.5174 738.3334 231.8119 738.6453 231.8563 739.5155 231.6181 739.8079 231.9288 738.6796 233.6607 726.7915 239.6026 723.7792 243.0054 723.444 245.7532 718.1863 250.9684 713.2329 252.9774 705.4869 257.3534 700.3712 258.6501 696.8094 260.1541 692.6259 260.9017 690.7156 256.8255 686.3812 249.6672 678.3567 236.7355 688.84 230.0172 679.6131 219.0573 677.5617 215.8668 672.5398 211.2038 671.4294 208.5281 667.9674 207.9564 667.4162 206.282 Z" id="fips-42089"/>
<path d="M 524.6817 389.025 527.8889 382.4684 530.7748 383.6665 535.3468 380.7023 536.3176 379.8921 540.3166 376.2572 541.2337 376.5544 542.8708 376.119 543.0763 376.3092 543.5843 376.0383 543.8457 375.3637 545.1514 375.3964 545.7215 375.181 545.8119 374.9839 563.6522 367.2453 570.3671 365.9191 581.1259 363.9276 602.3465 352.5983 610.6204 359.3139 617.2652 364.6517 617.2743 364.6589 631.5283 376.1469 641.0899 383.9284 632.3193 388.7865 631.727 389.63 632.6995 394.6268 632.8928 402.0098 630.838 405.8348 628.0573 411.088 625.1285 417.484 626.5014 420.0383 624.8684 421.7253 625.2578 427.0625 625.8994 432.4703 624.4409 431.4301 623.8244 435.1687 622.0099 435.2843 622.4453 439.3921 619.6624 440.1122 620.1551 442.6889 618.1558 447.8911 616.9667 448.62 615.8934 452.2149 613.7951 452.0087 613.498 454.3514 611.0816 455.9186 612.4056 457.0331 611.1713 458.7214 608.6258 456.5991 608.7707 458.9171 606.4877 459.2374 593.0209 459.5372 592.9925 459.5378 592.1366 459.5535 591.9848 457.9994 586.9372 449.9517 581.3692 443.867 578.2223 441.761 576.4235 437.2959 572.6195 433.7567 572.3052 430.0318 570.5929 425.5862 562.6414 421.8487 558.6395 419.1258 556.1424 414.4427 555.6604 410.7493 553.7543 407.9473 553.72 407.7767 553.0878 407.026 550.5556 401.0148 545.5259 402.1082 535.4201 400.0216 532.7526 399.1309 528.0774 392.1391 525.5868 389.7482 524.6817 389.025 Z" id="fips-42071"/>
<path d="M 602.5814 50.2503 608.6861 50.1167 618.9603 49.8846 619.3382 49.8767 622.2527 49.8222 633.9584 49.5959 646.9471 49.4293 651.1007 49.373 668.6915 48.7434 676.3263 48.5243 685.5742 48.2522 685.6526 48.2474 690.1867 112.3899 689.2691 112.4465 664.7281 112.9414 655.6461 113.1517 649.1969 113.0994 647.2492 113.2459 606.2819 113.7952 602.7357 114.1058 602.5784 112.5926 601.3535 97.0364 597.2866 50.3434 599.197 50.2992 600.1984 50.2797 602.5814 50.2503 Z" id="fips-42115"/>
<path d="M 6.0411 291.1673 6.8766 263.6072 6.9347 262.0054 7.187 253.3983 7.2003 253.2341 7.2074 253.0067 33.8807 253.4722 56.1595 253.7264 56.3049 265.7417 56.4414 273.6905 56.4796 277.2906 56.6692 286.2408 56.6364 286.3194 56.8717 297.1744 54.9775 297.8971 52.0873 297.7915 51.1373 300.1084 48.1472 301.5107 48.0657 301.745 47.7649 301.953 47.5949 302.4937 47.2562 302.7763 46.6343 302.5458 46.6499 302.9606 46.3996 302.9304 46.1303 303.286 45.8907 303.4115 45.8518 303.7488 45.2661 304.1213 38.3439 310.4587 26.7392 320.7657 26.604 320.756 5.1551 320.1524 5.3692 312.8702 5.3688 312.8701 5.5976 305.3848 5.7654 299.8979 5.7611 299.8999 5.905 295.1916 5.9115 295.1907 6.0411 291.1673 Z" id="fips-42007"/>
<path d="M 336.857 192.904 351.0402 165.9006 351.0212 146.6144 403.6522 145.9198 403.7841 152.6589 405.4822 152.6103 406.6951 156.1453 408.2227 157.7429 411.2772 163.3713 411.54 165.7406 413.3619 167.454 417.052 168.3301 420.1922 171.0631 420.7662 175.3757 422.8565 177.0975 424.3901 180.1225 426.5216 181.1229 430.6451 186.3283 434.5388 189.8966 437.3423 190.6371 437.3325 192.2458 441.2347 192.4009 445.3566 196.6573 445.031 198.209 447.8913 200.6951 462.6005 219.2434 465.3313 219.1987 465.3591 223.6 438.8959 234.047 431.5843 235.681 425.2995 236.3997 416.0412 238.5046 415.2666 237.3175 409.2175 228.041 406.3194 223.4391 408.7606 221.5329 408.0625 220.1981 404.8407 219.1922 404.2306 217.9249 400.637 215.5135 395.5959 213.7693 395.1016 212.4108 391.3415 212.8258 389.1962 211.4596 387.6372 213.0636 384.3677 212.5895 382.0069 209.887 379.6399 205.8511 377.9154 206.3945 377.8524 200.1047 376.6959 199.2415 363.9649 199.9019 363.2361 186.5202 359.7958 191.2457 357.7175 191.9114 357.4678 194.295 354.9557 192.8434 353.1087 195.2312 353.1083 200.8297 349.5636 202.6205 348.9663 205.8814 347.1057 204.381 344.2852 204.2944 341.211 200.5313 336.857 192.904 Z" id="fips-42035"/>
<path d="M 12.7336 73.7862 27.8918 74.2329 35.2615 74.468 54.5381 75.0913 77.4476 75.5008 94.1985 75.8069 124.9085 76.3484 134.0346 76.8019 133.0848 117.4191 133.0604 118.6403 112.2075 117.496 104.0885 117.115 103.9112 120.7043 101.2208 121.4321 101.0991 123.3348 97.4035 125.551 95.2789 125.5163 91.0246 131.9915 88.3235 131.9446 86.2281 136.1964 83.1248 136.2294 80.5583 140.2717 74.9624 140.3717 63.6332 141.5739 44.8471 140.5163 22.5486 139.2431 20.7292 138.2344 10.7228 138.5158 10.7816 136.5568 10.952 131.3784 10.9865 129.4875 11.5725 110.6386 11.7149 106.0638 11.7141 105.8013 11.8906 100.3716 12.0986 93.5699 12.1776 91.2133 12.2661 88.9426 12.7336 73.7862 Z" id="fips-42039"/>
<path d="M 151.2664 314.2716 164.0764 297.546 166.9931 293.6146 184.029 270.6638 184.4039 246.3571 240.0588 248.0735 239.5551 279.7277 240.1677 280.6692 240.5218 281.9709 233.863 296.5678 231.9647 302.1096 222.9422 324.2025 215.8586 339.3987 213.9513 336.499 210.1771 334.9564 207.9276 335.5552 208.6254 337.4758 204.3547 341.9557 201.0274 340.343 199.0907 343.7026 195.6882 343.6795 194.9752 340.7404 196.3842 339.4382 192.168 338.7722 191.1262 336.2118 186.0848 335.5778 178.6356 332.366 175.1389 334.7644 175.2339 331.0524 171.3027 331.6821 171.3486 328.7107 171.5074 327.0581 168.0586 328.4854 166.3312 325.3479 165.2617 328.0553 163.0442 327.0759 162.7192 323.8711 161.4581 328.1633 158.5008 327.5215 157.0298 324.4106 154.7124 324.5431 153.8001 321.7028 152.3779 322.4177 151.5792 323.1309 151.4638 323.1392 150.8938 322.8599 150.6246 322.5058 150.5952 322.2794 150.8029 321.6552 149.8989 316.4313 151.2664 314.2716 Z" id="fips-42063"/>
<path d="M 401.9854 375.8533 403.2559 378.2187 408.1632 373.3992 410.0474 372.1234 412.6474 372.1363 421.3006 365.7918 427.7176 359.9454 432.1081 356.8896 436.8054 354.967 436.841 356.2944 430.0971 362.0998 428.2095 365.0948 431.0507 365.2566 433.4229 364.2106 439.4941 359.8309 441.9386 358.9035 440.8971 361.8562 443.4072 363.2528 449.1757 361.2574 458.1232 359.6891 460.7566 359.5592 472.9452 357.1767 484.1225 356.2998 489.6603 355.2408 497.7415 351.8982 498.1074 352.6668 496.8079 356.5318 496.5364 358.8879 497.9913 362.053 499.4678 364.2789 503.6299 368.1464 505.6025 370.1641 504.5266 372.0308 501.1274 372.0869 499.4548 370.6124 498.344 374.1621 495.9941 375.5611 498.8764 376.6312 496.8791 379.1025 499.2907 381.1186 496.1101 381.9509 489.3895 381.3888 490.336 382.7725 484.6705 384.3716 482.4401 384.4969 475.4204 391.1785 467.6422 398.614 464.279 401.9177 462.0936 404.6179 461.0685 405.9284 451.5088 407.5648 437.9731 410.7814 431.118 412.4014 428.6853 414.781 421.8681 421.4952 424.1846 416.3927 418.4783 410.5401 415.1055 404.2081 413.3506 402.7267 413.0068 398.8621 409.5759 393.413 409.0908 390.0423 402.8844 384.0795 400.2272 377.6444 401.9854 375.8533 Z" id="fips-42041"/>
<path d="M 184.8139 221.3613 185.4217 216.3008 186.4743 170.8433 189.4392 169.9108 193.7668 171.533 195.8166 169.2679 200.2726 172.0616 201.8408 169.4955 204.3556 167.0902 205.9045 167.8473 210.9577 166.6516 211.9464 167.8707 215.7166 164.666 218.5367 163.2752 220.2208 165.8847 250.2132 184.0627 249.7563 189.8501 253.5587 189.9661 253.4814 195.0642 245.898 194.8235 240.5998 207.4433 240.3872 232.291 240.0588 248.0735 184.4039 246.3571 185.4893 221.6279 184.8139 221.3613 Z" id="fips-42065"/>
<path d="M 743.0795 118.0098 743.4625 118.4042 743.9292 119.2322 744.4436 119.9214 745.4212 120.4369 746.2656 121.2213 746.6995 122.6747 747.1857 123.6307 747.671 124.0895 748.1961 124.4244 748.7291 124.4891 748.9863 124.6779 750.2387 126.7474 750.5645 127.6896 750.6024 128.0936 750.4122 128.3714 749.7211 128.6233 749.4662 128.9289 749.4991 129.7729 749.5794 129.9646 749.744 130.1158 750.6099 130.2744 750.842 130.3947 751.58 130.8989 752.3718 131.6657 752.7347 132.2654 752.7945 132.5075 752.801 132.8046 752.5964 133.3644 752.467 133.9871 752.4793 134.3143 752.5592 134.5263 753.0388 134.6368 753.7993 134.3689 754.6388 134.3445 754.9112 134.4816 755.0911 134.7121 755.3913 135.7141 755.4352 136.1611 755.4075 136.5248 755.0768 137.8572 755.0492 138.4422 755.1414 138.8274 755.3815 139.3244 755.6141 139.4874 757.2103 139.8859 758.7794 140.0218 759.0259 139.9528 760.1224 139.2176 760.4357 138.7421 760.9493 138.6661 762.1949 138.844 762.9917 139.5357 763.3676 139.737 764.2835 139.7239 764.9326 139.9604 765.4002 140.5143 765.5673 141.285 765.5924 141.9092 765.7771 142.5335 766.1464 142.7593 767.3838 143.0083 767.7886 143.216 768.0347 143.5016 768.2187 143.9968 768.232 144.228 767.476 145.1783 767.3024 145.8886 767.366 146.2805 767.6565 146.4607 768.3628 146.5576 769.9599 146.1301 771.5557 145.4192 772.3746 145.3135 772.9711 145.5198 773.7423 146.0304 774.1659 146.4836 775.367 147.5123 775.6788 147.6507 776.2138 147.685 776.4922 147.6404 776.8302 147.4423 777.2225 146.5201 777.8562 145.8309 778.6304 145.359 779.2418 145.3622 779.5056 145.4872 780.1264 146.1848 780.2542 146.547 780.3125 147.1559 780.395 147.3995 780.9991 148.6924 781.2145 148.9202 781.6834 149.0856 782.4963 148.9249 783.3279 148.4094 783.9643 148.1628 784.3133 148.1726 785.2645 148.6098 785.9544 148.644 786.4652 148.3194 786.5112 148.2902 786.988 147.7635 787.8935 147.2551 788.2787 147.1471 788.6151 147.2285 788.8618 147.4738 789.0303 147.7847 789.1251 148.0774 789.1668 148.6365 788.6943 150.3133 788.3843 150.6927 788.322 151.3299 788.4411 151.8218 788.7904 152.5156 789.138 153.0053 789.4785 153.2491 789.9251 153.4696 791.2087 153.5984 791.8832 153.9529 792.2466 154.4379 792.7028 155.8078 792.9836 156.3731 793.7049 157.0318 794.8542 157.8286 795.3911 158.3678 795.6308 158.9849 795.6119 159.3963 795.4436 159.6213 794.7466 160.1857 794.9458 160.1634 794.1996 160.706 793.6867 160.816 793.1451 161.0706 791.5087 162.0905 790.2452 162.3872 789.535 162.3162 787.1652 162.4709 786.8047 162.6937 786.2478 163.5451 785.8759 165.1321 785.4619 165.6876 784.8274 166.3351 784.3877 166.4858 783.4862 166.5347 782.4803 166.7401 782.0785 166.9007 781.6975 167.2838 781.604 167.627 782.0959 168.4058 782.1633 168.8436 782.0933 169.0277 780.2132 170.436 779.547 171.3573 779.0649 171.7345 778.2462 172.1784 777.1858 173.4079 776.683 174.5195 776.1271 175.226 776.0832 175.3764 775.7925 176.3709 775.1425 177.8135 775.1265 178.0838 775.3471 178.7091 775.2514 179.2714 775.1199 179.5683 774.8559 179.9594 774.0937 180.1079 773.9164 180.1887 773.7684 180.3949 773.2032 181.7441 773.1774 182.4578 772.6534 183.4599 772.5151 184.2486 772.597 184.4085 773.4346 185.1975 773.65 185.5155 773.6171 185.7736 773.5236 186.0685 772.6472 187.6619 771.7989 189.5259 771.2755 190.9911 771.2643 191.528 770.8125 192.7417 769.8728 194.0738 768.5298 195.4523 768.3451 195.8738 768.2779 196.3211 767.843 197.3648 765.5283 200.5912 764.4796 201.4813 762.6237 202.3217 762.2823 202.829 762.3447 203.16 762.2718 203.3204 760.1129 205.0669 759.8453 205.1778 759.4368 205.1552 758.9527 205.2684 758.0295 205.8204 757.7261 206.2218 756.5343 209.1291 751.7058 211.5162 750.1318 209.9617 744.7513 200.7282 733.9313 199.4069 735.9948 187.0702 736.9837 181.0254 713.0715 183.5128 706.092 184.2553 708.4185 181.4501 707.5056 179.5248 709.252 178.6823 711.8665 170.8844 712.0951 167.5098 708.5904 165.1499 706.5856 161.1521 708.4861 159.5793 710.2294 161.3447 712.1494 159.738 713.6585 161.0231 717.9999 159.9808 719.3548 157.3166 719.6975 152.7442 720.8844 151.1032 724.1028 150.5034 728.3166 147.0129 728.044 144.2522 730.4647 141.1496 743.0795 118.0098 Z" id="fips-42103"/>
<path d="M 10.7228 138.5158 20.7292 138.2344 22.5486 139.2431 44.8471 140.5163 63.6332 141.5739 74.9624 140.3717 80.5583 140.2717 79.1275 197.409 69.662 210.1079 65.533 215.4023 58.9363 207.3243 43.9703 206.2812 43.993 204.3723 26.9055 204.1481 26.8321 204.1474 8.723 203.8553 8.7231 203.8511 8.7478 202.3734 8.7481 202.3653 8.8224 200.1873 8.9611 195.5759 9.2146 188.7528 9.2625 186.9314 9.3358 184.5614 9.4535 181.6359 9.5171 178.7085 9.5203 178.1694 9.5207 178.1434 9.7551 171.4636 9.7483 170.2236 9.8475 166.4371 9.8475 166.4348 9.859 165.9948 9.8656 165.7817 9.8658 165.7765 9.8722 165.4392 9.8747 165.4389 9.878 165.3311 9.8737 165.2428 9.877 165.1359 10.0031 161.4935 10.0686 159.523 10.1028 158.2819 10.3422 151.5465 10.3465 151.5468 10.3885 150.1972 10.4527 148.1325 10.4776 147.1842 10.5805 143.2614 10.7228 138.5158 Z" id="fips-42085"/>
<path d="M 344.2852 204.2944 347.1057 204.381 348.9663 205.8814 349.5636 202.6205 353.1083 200.8297 353.1087 195.2312 354.9557 192.8434 357.4678 194.295 357.7175 191.9114 359.7958 191.2457 363.2361 186.5202 363.9649 199.9019 376.6959 199.2415 377.8524 200.1047 377.9154 206.3945 379.6399 205.8511 382.0069 209.887 384.3677 212.5895 387.6372 213.0636 389.1962 211.4596 391.3415 212.8258 395.1016 212.4108 395.5959 213.7693 400.637 215.5135 404.2306 217.9249 404.8407 219.1922 408.0625 220.1981 408.7606 221.5329 406.3194 223.4391 409.2175 228.041 415.2666 237.3175 416.0412 238.5046 425.2995 236.3997 431.5843 235.681 438.8959 234.047 465.3591 223.6 457.3152 232.9343 447.212 247.9117 435.7406 259.2542 434.9266 259.3746 425.6647 263.4187 404.641 274.7709 396.5896 277.7224 392.6801 280.4533 388.7462 283.1764 387.5974 280.8893 380.8093 282.316 373.1909 277.969 360.7169 284.8323 356.8993 287.3098 337.6964 280.2096 333.4464 278.722 331.3647 278.0162 310.8155 279.1139 300.3134 279.7404 298.0777 275.8061 302.7379 270.7659 303.3467 267.8293 306.6016 266.1051 308.5989 263.3188 308.2638 261.6562 310.1522 258.7512 312.7095 259.2444 315.4862 257.7657 315.5317 255.2266 319.401 251.5905 318.2438 249.6292 319.5277 247.4811 324.7363 245.7819 326.1238 243.2027 328.279 242.2362 326.5774 238.8659 330.8746 239.5763 332.9799 242.3233 334.4793 240.8578 338.8373 239.274 337.0518 235.3899 337.6195 233.0325 341.0223 232.7696 341.3059 231.2428 338.5199 226.3469 341.6978 224.8286 341.252 222.4342 337.1324 221.0499 336.3395 218.6881 334.2485 211.3464 340.1144 209.6906 344.2852 204.2944 Z" id="fips-42027"/>
<path d="M 335.2763 461.3383 339.3886 456.7112 340.0558 455.0242 345.0434 447.4579 348.6138 442.6704 352.4299 434.5615 355.0043 426.8361 355.0563 424.645 356.7323 422.2097 360.1241 410.9306 365.1068 402.8342 367.6981 400.4916 368.7595 399.1156 377.0544 381.5882 380.9019 374.8838 385.0655 368.9618 389.8449 364.1966 393.2683 360.7764 394.1228 359.4748 396.2321 362.9613 394.69 366.2678 397.7064 365.538 397.134 370.8825 398.5167 372.4253 401.7647 369.7347 403.6112 370.5233 401.9854 375.8533 400.2272 377.6444 402.8844 384.0795 409.0908 390.0423 409.5759 393.413 413.0068 398.8621 413.3506 402.7267 415.1055 404.2081 418.4783 410.5401 424.1846 416.3927 421.8681 421.4952 422.7577 438.4075 423.6382 461.6913 422.2964 461.6969 422.2785 461.697 413.4052 461.7047 413.2136 461.7111 394.6067 461.6482 394.2179 461.6466 393.9039 461.6348 387.0522 461.6374 385.8779 461.603 384.415 461.5848 380.9153 461.5605 378.0209 461.532 377.9371 461.5312 366.2453 461.409 338.7503 461.3494 338.4691 461.3511 335.2763 461.3383 Z" id="fips-42055"/>
</g>
</svg>