<?xml version="1.0"?>
<svg xmlns="http://www.w3.org/2000/svg" version="1.2" baseProfile="tiny" width="800" height="199" viewBox="0 0 800 199" stroke-linecap="round" stroke-linejoin="round">
<g id="cb_2018_us_county_5m">
<path d="M 434.8984 45.9431 438.309 45.7151 440.5893 46.0822 447.0206 43.9882 453.1381 48.3443 454.725 45.8178 457.5582 54.2051 460.1583 54.3555 463.6151 57.7581 461.345 67.1703 459.9693 69.8851 458.1169 70.8675 456.0851 76.2446 450.6658 79.3595 437.0909 81.0829 434.4001 73.2003 437.7841 64.9683 437.5113 57.9359 434.3305 51.8854 434.8984 45.9431 Z" id="fips-72101"/>
<path d="M 555.45 125.6698 560.4922 123.6604 564.9051 116.0701 564.3115 109.2892 567.5083 103.0961 569.6992 103.2343 570.942 102.2705 571.5054 96.6208 574.0202 92.4919 585.172 89.6993 584.9705 93.831 591.5399 99.525 591.4377 109.8186 590.8043 110.504 591.8961 116.3877 594.1536 117.9331 592.5353 123.4548 590.5173 131.6701 582.0427 133.82 577.9474 131.4169 567.8978 137.23 567.0583 130.7638 555.6771 126.6552 555.45 125.6698 Z" id="fips-72129"/>
<path d="M 398.2652 40.3796 405.2683 33.0023 411.4904 35.4437 415.1649 41.751 414.2508 52.155 412.4862 54.294 397.4861 56.2415 399.9911 45.2289 398.2652 40.3796 Z" id="fips-72054"/>
<path d="M 500.2582 103.5918 508.6587 107.1999 510.045 99.8318 517.2673 98.1646 521.1782 91.367 528.5664 90.1763 529.424 99.5061 536.2533 95.7753 540.9921 104.0674 540.3864 107.9698 542.9289 108.3906 540.9931 113.8992 536.0746 117.9558 532.4564 117.7523 532.1499 119.6838 522.4959 116.0258 519.4708 119.3408 517.3514 115.9824 515.8683 118.3234 507.1867 116.4281 505.1785 109.4803 499.5918 104.9968 500.2582 103.5918 Z" id="fips-72041"/>
<path d="M 492.6109 84.9158 503.9278 82.1451 506.7607 75.8081 510.3007 75.2018 511.6108 75.2766 514.842 80.7016 518.492 84.5682 521.1782 91.367 517.2673 98.1646 510.045 99.8318 508.6587 107.1999 500.2582 103.5918 493.4805 103.5467 491.5033 92.9153 492.9462 88.5377 492.6109 84.9158 Z" id="fips-72045"/>
<path d="M 567.8978 137.23 577.9474 131.4169 582.0427 133.82 590.5173 131.6701 592.5353 123.4548 598.042 121.5302 606.8091 123.97 608.9917 126.9729 615.4701 124.1539 615.5068 129.8145 621.0436 134.2615 630.5986 138.8549 629.1195 142.3248 626.9646 142.8599 624.6283 140.841 624.6049 140.8577 622.0669 142.6706 621.0628 144.0536 621.0302 144.0984 620.534 144.7817 619.6101 148.3917 619.6218 148.5456 620.1752 155.8263 618.0711 155.7832 614.7481 156.7581 610.6876 152.5125 606.4144 154.1392 598.1357 149.4095 590.3565 149.1455 577.4394 141.679 574.2886 142.3512 567.822 139.6604 567.8978 137.23 Z" id="fips-72151"/>
<path d="M 266.3176 70.8907 266.233 73.7433 275.6968 74.1805 293.1497 77.445 295.4869 80.5337 296.9266 80.5761 297.218 82.0968 298.2892 81.9395 297.9766 80.5494 299.6418 80.0212 301.1922 81.2702 304.2378 82.6329 304.6215 82.3194 302.9548 88.5184 307.2879 102.5137 283.7069 96.2141 276.2323 100.6437 271.5292 100.0196 267.7001 93.0204 262.6079 90.1014 260.9069 84.5472 253.3533 81.5827 259.2882 76.9282 265.6262 76.3625 266.3176 70.8907 Z" id="fips-72083"/>
<path d="M 459.9693 69.8851 461.345 67.1703 463.6151 57.7581 471.5381 47.0344 477.248 47.1934 481.0721 46.394 489.1855 58.7509 483.9182 81.1299 478.8697 83.6725 475.1064 84.1075 471.0018 86.9615 467.8703 86.1761 458.4095 75.64 459.9693 69.8851 Z" id="fips-72047"/>
<path d="M 230.4223 112.9176 248.4365 111.3438 251.9556 114.0511 249.7293 116.3666 250.2368 121.6011 253.9233 124.2013 253.4655 127.3757 247.7568 127.4533 240.2319 124.722 238.0218 119.5468 230.4223 112.9176 Z" id="fips-72067"/>
<path d="M 585.172 89.6993 588.5559 88.1998 586.6726 82.478 594.6692 77.0587 607.545 82.2978 614.0201 81.6859 614.2268 83.8357 607.5577 93.7712 601.3074 98.0042 591.8961 116.3877 590.8043 110.504 591.4377 109.8186 591.5399 99.525 584.9705 93.831 585.172 89.6993 Z" id="fips-72077"/>
<path d="M 298.8766 113.7593 305.5391 115.2926 310.1558 113.1316 319.3378 117.7293 321.3109 110.2284 325.2378 107.8691 328.007 107.6626 328.3072 111.0695 334.8214 114.8404 336.7203 119.3582 337.0909 123.0611 332.8581 125.6566 333.0467 127.1142 335.3264 132.47 331.083 138.7211 328.6058 147.3794 330.6384 151.5158 327.2144 154.7821 328.2834 160.6574 325.115 171.0692 320.521 174.4464 320.37 174.3872 319.5919 174.0823 319.2921 173.9648 318.4098 174.6536 317.3412 161.1471 311.0651 152.8561 310.2408 149.9937 306.2657 148.1979 300.5444 128.53 303.2168 125.4318 298.8766 113.7593 Z" id="fips-72153"/>
<path d="M 512.3457 16.5046 513.8138 16.3197 515.9217 15.5507 516.2806 16.0595 517.2855 17.4838 520.225 19.0077 523.4022 20.5842 525.7864 20.2582 525.7985 20.2565 528.9623 17.2193 530.2078 14.2462 532.7596 14.6543 532.7187 16.7941 529.7461 17.827 520.9792 27.5101 520.0638 30.5845 515.6964 30.9946 512.6333 32.5781 512.9453 40.405 502.1137 36.7119 496.6526 38.9084 493.1969 28.9167 495.0576 20.1164 503.0896 20.3037 512.3457 16.5046 Z" id="fips-72137"/>
<path d="M 522.1244 145.1887 530.1072 149.2386 535.7262 141.2035 533.0073 133.2567 537.8001 132.7789 540.7692 128.1793 550.754 129.1514 555.2799 127.4545 550.8409 136.289 544.6628 143.2408 546.7714 150.4343 542.9743 153.7687 549.9229 162.5464 550.4176 171.0022 547.0585 170.9482 536.8455 176.3442 533.6681 177.0251 531.3125 178.7528 527.5306 181.0472 525.3356 182.458 524.3319 182.3253 521.7531 181.2028 519.5776 180.5112 517.1342 180.4488 516.1015 180.3597 514.1601 180.1923 513.0845 182.2698 510.7955 183.9909 509.4516 185.0014 506.6782 186.7218 504.7706 183.7197 505.6019 178.5679 510.3863 172.1319 510.5508 156.6587 517.9148 152.9154 522.1244 145.1887 Z" id="fips-72057"/>
<path d="M 510.6979 63.0375 510.9091 63.0765 511.6326 59.0364 511.0188 56.6615 512.2085 55.667 511.937 53.4276 512.4757 52.2005 512.1675 51.1376 512.8641 49.3916 512.9453 40.405 512.6333 32.5781 515.6964 30.9946 520.0638 30.5845 520.9792 27.5101 524.1986 30.4211 532.1003 29.4535 535.1233 32.6208 534.3147 37.3449 535.9975 43.4732 531.2628 44.9247 529.1792 48.8709 531.4885 57.2508 529.1567 61.0463 529.6283 67.7882 530.281 68.4564 528.5667 74.2732 523.362 73.3698 514.842 80.7016 511.6108 75.2766 510.3007 75.2018 508.1195 66.0529 510.6979 63.0375 Z" id="fips-72021"/>
<path d="M 594.3405 36.0148 600.0024 32.6973 608.794 34.1447 606.9008 43.4903 609.5558 43.6317 606.8554 48.7946 610.9823 61.1459 609.4375 69.6482 618.7614 75.4081 615.8733 80.7192 614.0201 81.6859 607.545 82.2978 594.6692 77.0587 597.9754 76.4189 595.4977 70.1717 599.1415 61.4374 595.37 52.9723 595.0093 46.8958 596.1562 43.3321 593.0562 41.3132 590.8125 38.9015 594.3405 36.0148 Z" id="fips-72029"/>
<path d="M 564.3697 66.3488 580.0853 64.7317 587.6416 69.8671 588.5659 71.9339 594.6692 77.0587 586.6726 82.478 588.5559 88.1998 585.172 89.6993 574.0202 92.4919 571.5054 96.6208 566.7701 90.8689 568.0164 86.1069 566.6774 78.8022 568.3515 74.6382 561.9894 70.7294 561.7839 67.5448 564.3697 66.3488 Z" id="fips-72063"/>
<path d="M 282.6796 175.1139 288.3328 163.0562 289.3065 150.4288 307.961 153.299 311.0651 152.8561 317.3412 161.1471 318.4098 174.6536 317.5046 175.3601 317.2087 177.6315 313.1633 176.6134 312.5833 175.4862 311.3645 175.189 306.6006 176.4826 305.4186 175.9188 305.1489 175.7901 303.7808 175.9812 303.7454 175.9862 302.8138 176.7356 300.8307 181.4324 300.8095 181.4825 299.4743 183.0663 298.4647 183.0783 294.2142 181.1861 290.1465 181.6079 288.855 178.929 286.4801 176.7486 282.8358 175.3791 282.6796 175.1139 Z" id="fips-72055"/>
<path d="M 290.09 9.3467 293.8659 8.5788 296.2774 9.1341 304.8334 11.1031 304.9225 11.1236 306.5178 10.8201 306.5661 41.4653 307.1604 47.4121 305.7603 47.4813 301.1326 43.5434 300.4057 39.0231 292.9934 36.4094 295.5724 31.003 292.8486 25.2043 287.3389 21.4656 290.09 9.3467 Z" id="fips-72115"/>
<path d="M 238.7889 39.9938 240.876 33.9671 248.598 25.314 261.0584 17.9693 262.1269 21.8655 269.5825 38.8751 265.1893 50.4668 263.606 51.9893 266.9704 58.5868 262.0398 65.6396 258.8526 64.1121 245.7899 61.4536 241.8781 60.2192 239.3005 62.0729 238.0605 53.2367 240.3966 45.5435 238.7889 39.9938 Z" id="fips-72099"/>
<path d="M 478.8697 83.6725 483.9182 81.1299 489.1855 58.7509 494.9231 58.149 502.403 60.4166 507.0422 57.4317 510.6979 63.0375 508.1195 66.0529 510.3007 75.2018 506.7607 75.8081 503.9278 82.1451 492.6109 84.9158 484.5787 84.5697 480.6977 86.0944 478.8697 83.6725 Z" id="fips-72105"/>
<path d="M 467.8703 86.1761 471.0018 86.9615 475.1064 84.1075 478.8697 83.6725 480.6977 86.0944 484.5787 84.5697 492.6109 84.9158 492.9462 88.5377 491.5033 92.9153 493.4805 103.5467 500.2582 103.5918 499.5918 104.9968 497.9645 109.5187 489.3258 106.8754 478.431 113.7113 476.2347 109.5682 467.7415 109.5763 461.1336 107.043 464.0766 98.7109 467.6224 100.7077 467.8703 86.1761 Z" id="fips-72019"/>
<path d="M 283.7998 116.0219 284.479 116.1488 285.5557 116.7251 298.8766 113.7593 303.2168 125.4318 300.5444 128.53 306.2657 148.1979 310.2408 149.9937 311.0651 152.8561 307.961 153.299 289.3065 150.4288 282.2866 147.712 282.103 144.2156 282.9313 136.1067 281.9211 127.3947 285.9861 119.7051 283.7998 116.0219 Z" id="fips-72121"/>
<path d="M 271.5292 100.0196 276.2323 100.6437 283.7069 96.2141 307.2879 102.5137 317.2576 102.8469 317.5886 106.5363 325.2378 107.8691 321.3109 110.2284 319.3378 117.7293 310.1558 113.1316 305.5391 115.2926 298.8766 113.7593 285.5557 116.7251 284.479 116.1488 283.7998 116.0219 273.2576 109.1687 262.2254 106.6045 267.2093 103.0796 272.2419 101.7433 271.5292 100.0196 Z" id="fips-72093"/>
<path d="M 392.7313 59.2869 394.7173 55.762 397.4861 56.2415 412.4862 54.294 414.2508 52.155 415.5232 52.4888 420.6585 48.8627 428.9699 47.6195 431.9266 47.1374 434.8984 45.9431 434.3305 51.8854 437.5113 57.9359 437.7841 64.9683 434.4001 73.2003 437.0909 81.0829 433.7846 84.8073 423.7805 81.3511 418.8935 90.8967 420.8402 105.6746 414.817 112.5977 411.4203 110.3034 414.9784 105.0421 414.483 98.7453 409.7458 92.5486 405.1819 85.7239 408.0529 73.6979 404.5617 68.4539 399.0991 60.9915 391.5167 61.0814 392.7313 59.2869 Z" id="fips-72039"/>
<path d="M 417.6511 113.7502 432.7286 105.7638 440.3554 106.1226 442.116 107.2693 443.2865 107.0921 447.749 115.8144 444.4819 124.7424 447.1578 130.2458 444.5336 135.3539 437.3915 135.6007 426.3128 130.3653 418.7119 134.4253 415.2514 127.6534 417.6511 113.7502 Z" id="fips-72149"/>
<path d="M 247.362 1.3704 255.0678 9.2942 260.5072 12.0891 261.0584 17.9693 248.598 25.314 240.876 33.9671 238.7889 39.9938 231.6571 38.5482 230.6341 31.8684 230.7917 31.7678 231.6775 30.8236 232.0811 29.1515 231.6978 24.4663 230.2132 20.1662 228.1011 16.1754 228.1153 12.4264 229.5542 9.6804 229.8696 9.4005 235.8209 4.1177 237.1657 3.4153 237.2982 3.3723 240.8596 2.2158 247.362 1.3704 Z" id="fips-72005"/>
<path d="M 514.842 80.7016 523.362 73.3698 528.5667 74.2732 539.1492 74.7868 545.3997 72.5457 547.1499 68.7734 551.3617 66.904 548.1003 81.3712 544.3373 90.3089 536.2533 95.7753 529.424 99.5061 528.5664 90.1763 521.1782 91.367 518.492 84.5682 514.842 80.7016 Z" id="fips-72007"/>
<path d="M 643.9253 41.4019 646.2831 42.8117 648.7983 42.2613 648.8142 42.2434 649.8425 41.0856 649.0578 39.0561 649.4843 38.2754 653.1691 39.2499 654.4225 43.9813 654.4415 44.0529 658.9281 46.5648 661.6297 46.9515 663.5227 46.4448 666.2322 47.8393 667.703 47.9766 662.8298 58.3397 653.0215 65.6102 649.408 71.1887 643.0237 68.6819 641.4849 70.5876 640.4023 65.8061 642.9967 54.8473 638.0094 47.2639 643.9253 41.4019 Z" id="fips-72089"/>
<path d="M 536.2533 95.7753 544.3373 90.3089 548.1003 81.3712 551.3617 66.904 557.4549 68.098 558.5616 64.1026 563.2326 64.9363 564.3697 66.3488 561.7839 67.5448 561.9894 70.7294 568.3515 74.6382 566.6774 78.8022 568.0164 86.1069 566.7701 90.8689 571.5054 96.6208 570.942 102.2705 569.6992 103.2343 567.5083 103.0961 564.3115 109.2892 564.9051 116.0701 560.4922 123.6604 555.45 125.6698 550.4344 118.1271 551.4914 114.7594 542.9289 108.3906 540.3864 107.9698 540.9921 104.0674 536.2533 95.7753 Z" id="fips-72025"/>
<path d="M 414.3926 11.8694 415.4934 11.5188 420.7272 13.3844 432.8323 15.7925 432.8406 15.7926 436.8776 15.84 439.0173 15.2007 440.498 13.3363 441.1039 12.5734 441.1661 12.495 441.7205 10.7114 442.0568 10.6534 441.8562 17.9031 441.8774 33.9297 439.069 41.0814 440.5893 46.0822 438.309 45.7151 434.8984 45.9431 431.9266 47.1374 428.9699 47.6195 420.6585 48.8627 415.5232 52.4888 414.2508 52.155 415.1649 41.751 411.4904 35.4437 411.2863 31.5122 417.9187 27.4975 413.1261 26.0224 416.1156 19.819 414.3926 11.8694 Z" id="fips-72091"/>
<path d="M 328.4656 60.6638 344.8173 61.5439 344.9053 60.1946 354.9262 52.5947 359.6651 56.752 360.3754 63.1056 373.7763 60.3952 392.7313 59.2869 391.5167 61.0814 399.0991 60.9915 404.5617 68.4539 400.9978 72.9301 395.5073 72.9078 392.7757 86.9993 387.3786 84.4577 386.4015 94.4626 378.7187 108.264 380.2063 111.582 379.1157 111.4903 374.0315 113.4352 372.1238 114.012 375.7429 106.4454 370.759 102.6863 370.8769 97.5722 367.2412 93.6354 363.1344 93.6876 355.963 90.8772 353.8542 92.4929 347.6167 90.8199 346.4292 87.1782 341.4481 83.2845 337.6912 83.3933 336.4304 89.5212 330.999 89.4137 330.9183 87.8417 328.5338 85.0962 328.0927 85.1564 327.4345 71.6706 328.4656 60.6638 Z" id="fips-72141"/>
<path d="M 620.9411 29.5884 613.9041 36.3582 611.8268 42.4303 609.5558 43.6317 606.9008 43.4903 608.794 34.1447 600.0024 32.6973 594.3405 36.0148 591.0596 28.1506 581.9527 26.6631 580.2677 26.9715 572.7477 19.0665 572.791 18.8667 572.8814 18.4499 573.338 18.3268 582.8089 21.1047 592.4322 23.0797 595.0192 23.1537 597.6801 22.444 598.4878 21.1959 606.2074 25.0677 615.4171 26.6121 617.8699 27.0232 617.8942 27.0272 620.0529 28.57 620.9411 29.5884 Z" id="fips-72087"/>
<path d="M 507.1867 116.4281 515.8683 118.3234 517.3514 115.9824 519.4708 119.3408 522.4959 116.0258 532.1499 119.6838 532.4564 117.7523 536.0746 117.9558 540.9931 113.8992 542.9289 108.3906 551.4914 114.7594 550.4344 118.1271 555.45 125.6698 555.6771 126.6552 555.2799 127.4545 550.754 129.1514 540.7692 128.1793 537.8001 132.7789 533.0073 133.2567 535.7262 141.2035 530.1072 149.2386 522.1244 145.1887 511.5833 146.422 511.6595 139.772 504.9733 131.222 504.2802 124.642 507.1867 116.4281 Z" id="fips-72035"/>
<path d="M 245.1871 142.9857 257.2784 139.8673 266.5855 142.5279 274.9053 141.8111 282.103 144.2156 282.2866 147.712 289.3065 150.4288 288.3328 163.0562 282.6796 175.1139 282.2064 174.3107 282.3482 172.4292 281.553 171.0955 281.2142 170.5273 278.0483 170.2618 276.7089 171.5726 275.737 172.5237 272.7941 170.1508 269.9232 169.445 258.7737 168.4497 254.637 170.307 252.8316 172.6228 250.7125 175.3407 247.2861 176.8098 247.2087 176.8173 244.7823 177.0521 247.0807 168.0553 244.82 155.4083 243.1609 149.9964 245.1871 142.9857 Z" id="fips-72079"/>
<path d="M 404.5617 68.4539 408.0529 73.6979 405.1819 85.7239 409.7458 92.5486 414.483 98.7453 414.9784 105.0421 411.4203 110.3034 410.2183 113.3819 408.5901 113.7121 397.3712 107.3934 383.9794 113.8048 380.2063 111.582 378.7187 108.264 386.4015 94.4626 387.3786 84.4577 392.7757 86.9993 395.5073 72.9078 400.9978 72.9301 404.5617 68.4539 Z" id="fips-72073"/>
<path d="M 606.8091 123.97 611.058 117.1611 613.6521 105.6894 615.8668 105.4806 618.8404 106.3014 621.8636 98.5177 631.7129 96.5234 641.1073 99.9441 639.4956 104.1156 647.4062 106.7571 646.094 109.6956 641.6712 111.984 639.2758 114.5186 636.1656 120.4562 630.5973 134.5291 630.7252 135.7369 631.1723 136.0947 631.1972 136.1146 631.102 137.6738 631.0969 137.6858 630.5986 138.8549 621.0436 134.2615 615.5068 129.8145 615.4701 124.1539 608.9917 126.9729 606.8091 123.97 Z" id="fips-72069"/>
<path d="M 410.2183 113.3819 411.4203 110.3034 414.817 112.5977 420.8402 105.6746 418.8935 90.8967 423.7805 81.3511 433.7846 84.8073 437.0909 81.0829 450.6658 79.3595 456.0851 76.2446 458.1169 70.8675 459.9693 69.8851 458.4095 75.64 467.8703 86.1761 467.6224 100.7077 464.0766 98.7109 461.1336 107.043 449.4171 110.2436 446.4928 107.5595 440.3554 106.1226 432.7286 105.7638 417.6511 113.7502 411.0798 115.085 410.2183 113.3819 Z" id="fips-72107"/>
<path d="M 306.5178 10.8201 309.8787 10.1805 316.4967 8.9205 321.686 8.9455 325.4141 9.9077 325.5036 9.895 327.7376 14.5308 329.2568 33.1456 332.0756 40.0245 333.0402 41.136 329.038 54.6052 320.1 50.7731 313.586 50.2954 309.7847 46.8395 308.7916 47.1134 307.1604 47.4121 306.5661 41.4653 306.5178 10.8201 Z" id="fips-72027"/>
<path d="M 532.1003 29.4535 536.6201 24.8212 537.7165 24.6721 538.9216 25.0418 539.0669 28.5401 541.9861 31.9806 541.4175 33.3467 539.4709 42.4082 544.3016 44.7561 544.8071 50.2899 541.9225 52.6128 541.497 54.7797 545.045 57.2493 545.7778 67.7836 547.1499 68.7734 545.3997 72.5457 539.1492 74.7868 528.5667 74.2732 530.281 68.4564 529.6283 67.7882 529.1567 61.0463 531.4885 57.2508 529.1792 48.8709 531.2628 44.9247 535.9975 43.4732 534.3147 37.3449 535.1233 32.6208 532.1003 29.4535 Z" id="fips-72061"/>
<path d="M 695.4861 124.4106 704.1062 123.24 714.2102 119.0174 720.6291 118.0365 727.0508 115.5773 736.0838 111.2381 747.0947 109.8578 755.3623 111.1763 766.2638 114.1273 772.3789 115.1615 773.7741 114.8825 775.6666 116.1325 777.8351 115.5814 779.8603 113.9419 783.6423 118.1408 783.3392 118.9131 781.2725 118.5975 777.5282 120.1678 769.6763 120.6478 768.3922 121.4225 765.0896 125.0462 764.055 125.3794 761.5716 125.2289 759.9539 125.1156 761.4641 121.6963 760.1071 121.1576 757.0309 121.3072 754.751 122.3315 754.3037 124.2216 754.5544 126.4655 752.0081 127.0952 751.0118 125.7471 748.9963 126.4207 747.1044 126.2628 747.0913 126.2659 743.5929 127.0917 741.1502 128.9219 740.4391 129.4546 740.0845 129.7203 739.3436 130.9646 731.9955 133.3678 730.3984 132.8565 727.7445 132.8897 727.7025 132.8161 727.1604 131.8646 726.8797 131.3718 723.6377 130.2425 715.578 131.7367 710.6173 134.7479 705.3689 135.0202 700.5002 133.6582 697.362 131.8327 696.9655 130.0708 695.1275 128.2569 695.4861 124.4106 Z" id="fips-72147"/>
<path d="M 622.3325 76.074 626.0687 70.7832 630.7275 70.9621 631.4004 68.7921 633.8561 69.5651 639.1588 73.8704 640.4677 76.5448 652.3649 82.4109 658.0811 80.1432 663.7803 82.2083 660.856 86.4515 667.3385 91.358 671.2125 91.5137 669.8565 96.3904 669.3751 96.2667 661.5781 100.0501 660.4825 102.5193 661.5176 104.9907 660.0982 104.8955 659.9966 104.8417 658.6586 104.133 655.6756 102.5527 655.1923 101.8802 653.587 101.5681 650.5191 102.9969 648.7076 104.6163 647.4909 106.5676 647.4062 106.7571 639.4956 104.1156 641.1073 99.9441 631.7129 96.5234 621.8636 98.5177 621.0344 89.3035 624.8528 79.3179 622.3325 76.074 Z" id="fips-72103"/>
<path d="M 345.0905 118.9001 350.7828 125.4969 357.3223 125.7013 361.3689 119.8185 367.1003 120.313 371.7792 129.5365 371.1032 136.8409 368.4157 148.2038 369.1799 163.2714 365.5454 167.5654 362.3916 166.1575 361.3549 164.4092 360.3093 163.6101 356.1493 163.1971 351.7031 163.5935 350.2059 164.6819 349.0464 164.6314 348.7607 164.6189 348.1337 162.1641 348.1158 162.0941 347.6108 161.108 351.0743 157.1918 355.6116 155.2148 353.0557 151.1828 354.6572 147.5178 349.6012 145.3004 346.1837 148.5599 344.9129 142.4268 345.9882 135.2087 344.8739 133.4654 347.4497 126.1248 345.0905 118.9001 Z" id="fips-72111"/>
<path d="M 207.4401 44.2089 210.8489 52.4267 220.156 58.1692 223.8444 63.5241 212.7328 65.7393 211.3437 68.5294 211.145 68.5058 208.4936 67.5014 204.7215 60.8951 199.1178 51.0773 199.0844 51.019 197.9644 48.1778 198.8774 46.7424 201.1065 45.7618 207.4401 44.2089 Z" id="fips-72117"/>
<path d="M 591.8961 116.3877 601.3074 98.0042 607.5577 93.7712 614.2268 83.8357 614.0201 81.6859 615.8733 80.7192 618.7614 75.4081 622.3325 76.074 624.8528 79.3179 621.0344 89.3035 621.8636 98.5177 618.8404 106.3014 615.8668 105.4806 613.6521 105.6894 611.058 117.1611 606.8091 123.97 598.042 121.5302 592.5353 123.4548 594.1536 117.9331 591.8961 116.3877 Z" id="fips-72085"/>
<path d="M 207.4401 44.2089 211.0634 43.3202 213.9256 42.1493 218.2836 39.7494 218.4751 39.6272 221.5636 37.6569 230.6341 31.8684 231.6571 38.5482 238.7889 39.9938 240.3966 45.5435 238.0605 53.2367 239.3005 62.0729 234.7297 60.5911 223.8444 63.5241 220.156 58.1692 210.8489 52.4267 207.4401 44.2089 Z" id="fips-72003"/>
<path d="M 223.8444 63.5241 234.7297 60.5911 239.3005 62.0729 241.8781 60.2192 245.7899 61.4536 258.8526 64.1121 262.0398 65.6396 265.5153 67.6142 266.3176 70.8907 265.6262 76.3625 259.2882 76.9282 253.3533 81.5827 237.5548 84.3085 237.6161 82.5973 235.9181 76.8797 230.1361 75.9116 222.3113 77.7752 221.7146 73.4041 221.6849 73.3552 219.9423 70.484 217.1146 69.4999 215.8697 69.0666 211.3437 68.5294 212.7328 65.7393 223.8444 63.5241 Z" id="fips-72011"/>
<path d="M 532.7596 14.6543 534.0499 14.8606 534.087 14.8665 536.4851 15.4935 543.6491 16.4973 545.5974 17.541 545.7373 17.6159 546.2431 17.8869 546.4192 17.9651 548.9608 19.0935 557.9639 20.4494 559.0863 20.2043 559.9333 21.5077 558.0586 23.3781 561.9475 28.43 563.3409 29.6063 573.0795 35.797 570.8256 43.1558 563.3386 43.2619 560.3393 46.3861 561.182 50.7032 560.3014 54.206 560.327 61.7833 558.5616 64.1026 557.4549 68.098 551.3617 66.904 547.1499 68.7734 545.7778 67.7836 545.045 57.2493 541.497 54.7797 541.9225 52.6128 544.8071 50.2899 544.3016 44.7561 539.4709 42.4082 541.4175 33.3467 541.9861 31.9806 539.0669 28.5401 538.9216 25.0418 538.8693 23.0487 532.7187 16.7941 532.7596 14.6543 Z" id="fips-72127"/>
<path d="M 290.09 9.3467 287.3389 21.4656 292.8486 25.2043 295.5724 31.003 292.9934 36.4094 300.4057 39.0231 295.61 44.1908 274.8697 38.3523 269.5825 38.8751 262.1269 21.8655 261.0584 17.9693 260.5072 12.0891 255.0678 9.2942 247.362 1.3704 250.2093 1 254.4425 1.7882 271.7261 2.6681 280.8873 6.6764 280.9318 6.689 285.7394 8.0573 289.4979 9.1266 290.0266 9.3596 290.09 9.3467 Z" id="fips-72071"/>
<path d="M 609.5558 43.6317 611.8268 42.4303 613.9041 36.3582 620.9411 29.5884 624.4023 33.5563 627.5963 33.5048 631.6093 29.9283 632.4916 30.9162 632.6578 31.1023 633.8344 32.8336 636.5875 32.5054 636.6367 32.4995 637.9294 32.8074 638.1621 33.8776 637.5952 34.8669 639.856 37.2138 643.8444 41.3535 643.9253 41.4019 638.0094 47.2639 642.9967 54.8473 640.4023 65.8061 641.4849 70.5876 639.1588 73.8704 633.8561 69.5651 631.4004 68.7921 630.7275 70.9621 626.0687 70.7832 622.3325 76.074 618.7614 75.4081 609.4375 69.6482 610.9823 61.1459 606.8554 48.7946 609.5558 43.6317 Z" id="fips-72119"/>
<path d="M 473.6361 155.7881 483.4111 143.1014 487.2675 142.2401 488.8603 139.3987 495.2771 137.2412 499.7668 136.8467 500.4039 131.8916 504.9733 131.222 511.6595 139.772 511.5833 146.422 522.1244 145.1887 517.9148 152.9154 510.5508 156.6587 510.3863 172.1319 505.6019 178.5679 504.7706 183.7197 506.6782 186.7218 505.0562 187.7279 499.5196 187.3184 496.3886 185.366 497.1758 181.4509 497.1768 181.4461 495.2689 180.1919 493.3224 177.8324 493.311 177.8185 489.9833 176.6713 485.5368 177.2209 483.5074 173.3121 483.4933 173.2987 477.8415 167.8984 475.8698 167.3269 471.6114 167.9603 470.3004 162.6877 473.6361 155.7881 Z" id="fips-72123"/>
<path d="M 262.0398 65.6396 266.9704 58.5868 263.606 51.9893 265.1893 50.4668 269.5825 38.8751 274.8697 38.3523 295.61 44.1908 300.4057 39.0231 301.1326 43.5434 305.7603 47.4813 307.1604 47.4121 308.7916 47.1134 303.8617 66.9573 304.6215 82.3194 304.2378 82.6329 301.1922 81.2702 299.6418 80.0212 297.9766 80.5494 298.2892 81.9395 297.218 82.0968 296.9266 80.5761 295.4869 80.5337 293.1497 77.445 275.6968 74.1805 266.233 73.7433 266.3176 70.8907 265.5153 67.6142 262.0398 65.6396 Z" id="fips-72131"/>
<path d="M 247.7568 127.4533 253.4655 127.3757 253.9233 124.2013 250.2368 121.6011 249.7293 116.3666 251.9556 114.0511 253.2134 108.4196 262.2254 106.6045 273.2576 109.1687 283.7998 116.0219 285.9861 119.7051 281.9211 127.3947 282.9313 136.1067 282.103 144.2156 274.9053 141.8111 266.5855 142.5279 257.2784 139.8673 245.1871 142.9857 248.1147 139.5142 246.2292 137.4982 247.7568 127.4533 Z" id="fips-72125"/>
<path d="M 346.5199 11.0529 351.0838 13.3464 353.2022 13.9743 355.5693 14.3566 362.3791 14.6295 362.3857 14.6273 365.1301 13.6947 367.0492 13.0425 370.3013 11.937 371.4289 10.8337 375.9749 9.9551 381.4027 9.6633 387.622 7.9959 398.7052 10.8655 400.6685 16.0712 398.4002 25.4924 399.7331 25.4375 398.2652 40.3796 399.9911 45.2289 397.4861 56.2415 394.7173 55.762 392.7313 59.2869 373.7763 60.3952 360.3754 63.1056 359.6651 56.752 354.9262 52.5947 344.9053 60.1946 345.592 28.6137 344.9512 26.5686 345.5679 13.0415 346.5199 11.0529 Z" id="fips-72013"/>
<path d="M 481.6723 42.0424 491.31 42.1314 496.6526 38.9084 502.1137 36.7119 512.9453 40.405 512.8641 49.3916 512.1675 51.1376 512.4757 52.2005 511.937 53.4276 512.2085 55.667 511.0188 56.6615 511.6326 59.0364 510.9091 63.0765 510.6979 63.0375 507.0422 57.4317 502.403 60.4166 494.9231 58.149 489.1855 58.7509 481.0721 46.394 477.248 47.1934 478.5962 43.0562 481.6723 42.0424 Z" id="fips-72135"/>
<path d="M 408.5901 113.7121 410.2183 113.3819 411.0798 115.085 417.6511 113.7502 415.2514 127.6534 418.7119 134.4253 426.3128 130.3653 437.3915 135.6007 444.5336 135.3539 444.6068 137.1043 446.3562 145.8825 445.509 147.5336 447.2519 154.7372 438.638 165.883 437.31 164.7835 435.4139 163.7051 431.0368 163.7054 430.2183 163.7055 430.167 163.7055 426.5834 163.7054 426.5645 163.7103 421.1403 165.1202 421.0744 165.1373 412.1415 168.2649 411.8339 163.282 415.1199 159.7409 411.6663 151.1001 413.0949 147.9353 410.5032 144.0682 410.7753 139.4484 407.7946 134.5766 409.6652 131.1465 405.9914 125.0674 405.1244 117.6157 408.5901 113.7121 Z" id="fips-72075"/>
<path d="M 559.9333 21.5077 559.9532 21.5383 563.8184 23.445 563.8459 23.4586 568.739 23.3022 571.473 21.5822 572.7115 19.2334 572.7452 19.078 572.7477 19.0665 580.2677 26.9715 581.9527 26.6631 591.0596 28.1506 594.3405 36.0148 590.8125 38.9015 593.0562 41.3132 596.1562 43.3321 595.0093 46.8958 595.37 52.9723 599.1415 61.4374 595.4977 70.1717 597.9754 76.4189 594.6692 77.0587 588.5659 71.9339 587.6416 69.8671 588.6392 65.146 583.4655 62.2036 575.974 49.8078 573.7419 47.5436 573.1901 44.096 570.8256 43.1558 573.0795 35.797 563.3409 29.6063 561.9475 28.43 558.0586 23.3781 559.9333 21.5077 Z" id="fips-72031"/>
<path d="M 520.9792 27.5101 529.7461 17.827 532.7187 16.7941 538.8693 23.0487 538.9216 25.0418 537.7165 24.6721 536.6201 24.8212 532.1003 29.4535 524.1986 30.4211 520.9792 27.5101 Z" id="fips-72033"/>
<path d="M 639.1588 73.8704 641.4849 70.5876 643.0237 68.6819 647.699 75.7313 653.6398 77.605 658.8013 75.9371 660.2172 72.0388 663.996 75.302 668.6857 71.2748 678.0075 72.6139 681.2534 71.081 681.5402 75.0301 686.1503 79.2996 686.6679 79.7788 686.8605 79.9572 695.5132 83.012 691.3657 89.5606 688.4584 94.386 685.1833 95.0282 685.0951 94.8088 683.1387 89.9456 676.9599 89.4435 677.146 90.8817 677.1462 90.8838 677.1467 90.8875 679.8571 96.8368 677.8488 98.4437 669.8565 96.3904 671.2125 91.5137 667.3385 91.358 660.856 86.4515 663.7803 82.2083 658.0811 80.1432 652.3649 82.4109 640.4677 76.5448 639.1588 73.8704 Z" id="fips-72037"/>
<path d="M 440.3554 106.1226 446.4928 107.5595 449.4171 110.2436 461.1336 107.043 467.7415 109.5763 476.2347 109.5682 478.431 113.7113 476.6545 121.7699 479.6346 124.1894 490.7479 133.9386 494.5641 135.1633 495.2771 137.2412 488.8603 139.3987 487.2675 142.2401 483.4111 143.1014 473.6361 155.7881 466.1325 149.2877 461.5954 150.6259 445.509 147.5336 446.3562 145.8825 444.6068 137.1043 444.5336 135.3539 447.1578 130.2458 444.4819 124.7424 447.749 115.8144 443.2865 107.0921 442.116 107.2693 440.3554 106.1226 Z" id="fips-72043"/>
<path d="M 764.9585 52.1711 765.4832 51.7979 767.3636 54.1285 769.5927 55.2395 773.0883 55.3246 773.0977 55.3353 774.6897 57.1435 776.4754 57.6038 778.8022 56.9183 784.8144 55.1465 788.8826 53.9472 799 60.4188 798.6444 63.6633 790.7533 67.9688 789.2509 68.8726 787.7076 69.8008 786.9531 70.1735 780.9867 73.12 780.9811 73.118 780.0717 72.7874 767.9273 68.3705 765.0451 64.5367 767.9837 59.7823 767.9883 59.7748 763.6243 53.1202 764.9585 52.1711 Z" id="fips-72049"/>
<path d="M 320.521 174.4464 325.115 171.0692 328.2834 160.6574 327.2144 154.7821 330.6384 151.5158 328.6058 147.3794 331.083 138.7211 335.3264 132.47 333.0467 127.1142 332.8581 125.6566 337.0909 123.0611 336.7203 119.3582 340.5861 117.7576 345.0905 118.9001 347.4497 126.1248 344.8739 133.4654 345.9882 135.2087 344.9129 142.4268 346.1837 148.5599 349.6012 145.3004 354.6572 147.5178 353.0557 151.1828 355.6116 155.2148 351.0743 157.1918 347.6108 161.108 346.3524 158.6506 344.6436 158.7591 340.2951 161.8693 340.2955 161.9491 340.3111 164.9266 340.3235 167.2857 339.6466 168.9562 333.4638 171.1918 329.304 174.6227 324.5447 176.023 320.521 174.4464 Z" id="fips-72059"/>
<path d="M 468.181 10.4587 471.5596 10.6713 471.6732 10.6784 478.1942 14.0415 478.3251 14.0549 477.6284 21.3477 482.7603 29.7355 481.6723 42.0424 478.5962 43.0562 477.248 47.1934 471.5381 47.0344 463.6151 57.7581 460.1583 54.3555 461.2752 45.8008 463.9003 40.277 464.3129 38.5454 465.4765 30.6332 468.7181 28.214 468.181 10.4587 Z" id="fips-72143"/>
<path d="M 304.6215 82.3194 303.8617 66.9573 308.7916 47.1134 309.7847 46.8395 313.586 50.2954 320.1 50.7731 329.038 54.6052 328.4656 60.6638 327.4345 71.6706 328.0927 85.1564 328.5338 85.0962 330.9183 87.8417 330.999 89.4137 326.4723 89.7856 325.3834 103.1642 328.007 107.6626 325.2378 107.8691 317.5886 106.5363 317.2576 102.8469 307.2879 102.5137 302.9548 88.5184 304.6215 82.3194 Z" id="fips-72081"/>
<path d="M 414.2501 193.3921 418.7942 189.2026 422.2875 189.5539 422.2853 193.7462 418.7898 196.8885 414.5962 198.2834 414.491 196.7965 414.2501 193.3921 Z M 367.1003 120.313 372.1259 120.4926 374.0315 113.4352 379.1157 111.4903 380.2063 111.582 383.9794 113.8048 397.3712 107.3934 408.5901 113.7121 405.1244 117.6157 405.9914 125.0674 409.6652 131.1465 407.7946 134.5766 410.7753 139.4484 410.5032 144.0682 413.0949 147.9353 411.6663 151.1001 415.1199 159.7409 411.8339 163.282 412.1415 168.2649 400.3337 172.3961 399.5915 172.6557 399.3046 172.2721 397.7723 170.2229 397.7058 170.134 396.3151 169.7323 393.1871 170.244 387.6807 166.52 385.2848 165.9932 381.2563 166.7562 377.6851 168.4985 376.1721 170.0251 375.7448 170.4562 373.2674 171.0113 365.5454 167.5654 369.1799 163.2714 368.4157 148.2038 371.1032 136.8409 371.7792 129.5365 367.1003 120.313 Z" id="fips-72113"/>
<path d="M 330.999 89.4137 336.4304 89.5212 337.6912 83.3933 341.4481 83.2845 346.4292 87.1782 347.6167 90.8199 353.8542 92.4929 355.963 90.8772 363.1344 93.6876 367.2412 93.6354 370.8769 97.5722 370.759 102.6863 375.7429 106.4454 372.1238 114.012 374.0315 113.4352 372.1259 120.4926 367.1003 120.313 361.3689 119.8185 357.3223 125.7013 350.7828 125.4969 345.0905 118.9001 340.5861 117.7576 336.7203 119.3582 334.8214 114.8404 328.3072 111.0695 328.007 107.6626 325.3834 103.1642 326.4723 89.7856 330.999 89.4137 Z" id="fips-72001"/>
<path d="M 222.3113 77.7752 230.1361 75.9116 235.9181 76.8797 237.6161 82.5973 237.5548 84.3085 253.3533 81.5827 260.9069 84.5472 262.6079 90.1014 267.7001 93.0204 271.5292 100.0196 272.2419 101.7433 267.2093 103.0796 262.2254 106.6045 253.2134 108.4196 251.9556 114.0511 248.4365 111.3438 230.4223 112.9176 229.6972 113.1442 224.2869 108.2723 231.8095 100.0182 232.5596 97.3978 231.0105 93.3056 226.6274 88.979 225.9558 83.763 225.9372 83.6187 222.3199 77.8379 222.3113 77.7752 Z M 132.8801 39.66 136.0292 37.2398 138.8074 38.6493 140.8752 42.4935 138.0722 45.2647 133.5537 43.4962 132.8801 39.66 Z M 2.9359 124.4577 3.6142 123.8717 9.8837 121.9317 15.4872 123.7376 16.846 124.1798 19.9814 123.7159 21.9378 122.2814 24.369 121.2834 28.2402 125.5846 29.6882 129.7548 29.5436 132.7686 29.0434 133.7412 26.743 134.8795 23.0422 138.7907 21.3019 141.1371 15.0877 142.5435 14.1069 142.7654 11.6251 140.6482 7.4228 139.3823 4.7758 137.6749 1 134.2008 2.9359 124.4577 Z" id="fips-72097"/>
<path d="M 478.431 113.7113 489.3258 106.8754 497.9645 109.5187 499.5918 104.9968 505.1785 109.4803 507.1867 116.4281 504.2802 124.642 504.9733 131.222 500.4039 131.8916 499.7668 136.8467 495.2771 137.2412 494.5641 135.1633 490.7479 133.9386 479.6346 124.1894 476.6545 121.7699 478.431 113.7113 Z" id="fips-72009"/>
<path d="M 224.2869 108.2723 229.6972 113.1442 230.4223 112.9176 238.0218 119.5468 240.2319 124.722 247.7568 127.4533 246.2292 137.4982 248.1147 139.5142 245.1871 142.9857 243.1609 149.9964 244.82 155.4083 247.0807 168.0553 244.7823 177.0521 239.4172 176.3063 237.8107 175.1366 228.0398 171.6514 224.6525 171.1063 223.1977 171.7446 221.652 175.3577 222.0111 176.8226 223.4654 179.454 223.1722 181.4975 219.8452 180.961 219.6486 180.6856 219.2202 180.0856 217.2377 177.0292 214.953 174.8237 214.9357 174.7141 214.7871 173.7718 214.1406 171.789 213.8923 165.2919 214.874 162.3524 216.1377 160.8053 224.9066 157.4868 225.9653 156.7909 226.5288 155.6326 226.6131 153.62 226.1404 152.6523 220.4197 150.3724 215.5434 149.2427 219.4591 139.6668 219.027 136.4716 218.7223 132.0505 219.9104 130.5066 223.2583 128.1934 223.7751 126.7053 225.4821 113.571 224.8869 111.0131 224.2513 108.3113 224.2869 108.2723 Z" id="fips-72023"/>
<path d="M 438.638 165.883 447.2519 154.7372 445.509 147.5336 461.5954 150.6259 466.1325 149.2877 473.6361 155.7881 470.3004 162.6877 471.6114 167.9603 471.5415 167.9708 464.4543 170.5146 463.6944 171.5648 462.6138 173.763 461.7885 175.6902 461.7872 175.6934 460.3022 177.1386 457.8297 179.5448 456.0166 177.4397 453.7483 175.8625 449.8731 173.8976 440.0736 167.0716 438.638 165.883 Z" id="fips-72133"/>
<path d="M 546.7714 150.4343 554.1106 148.1112 558.1063 151.4981 557.1657 157.7859 565.2319 167.2666 563.9226 168.0286 557.299 174.5429 556.5798 174.6345 556.5579 174.6228 554.016 173.2684 553.8781 173.1949 550.7999 171.0083 550.4176 171.0022 549.9229 162.5464 542.9743 153.7687 546.7714 150.4343 Z" id="fips-72015"/>
<path d="M 574.2886 142.3512 577.4394 141.679 590.3565 149.1455 598.1357 149.4095 606.4144 154.1392 610.6876 152.5125 614.7481 156.7581 609.0472 158.4302 607.6443 159.5993 604.7733 164.0268 604.3804 163.9636 601.5582 163.5096 601.4914 163.4989 598.7886 165.4483 596.2864 166.5248 587.6743 162.8356 584.7937 153.3947 576.2511 149.792 576.8207 148.5374 575.1633 146.591 575.2745 144.9683 574.1147 142.9765 574.2886 142.3512 Z" id="fips-72095"/>
<path d="M 689.6496 38.8547 691.9719 38.633 696.7422 41.9979 697.6559 42.6424 697.9674 49.4336 698.4748 52.6209 697.4835 54.3997 694.7248 51.7185 692.1019 44.0192 689.3465 41.9191 689.6496 38.8547 Z M 643.0237 68.6819 649.408 71.1887 653.0215 65.6102 662.8298 58.3397 667.703 47.9766 668.9644 48.0943 672.1709 46.8893 673.39 44.6828 675.1309 42.9947 675.4057 42.8808 680.8111 40.6393 680.9034 40.6011 682.714 40.3844 683.9227 42.1984 682.3237 46.7268 678.2389 52.8771 678.9102 54.4558 680.2803 57.6775 681.2534 71.081 678.0075 72.6139 668.6857 71.2748 663.996 75.302 660.2172 72.0388 658.8013 75.9371 653.6398 77.605 647.699 75.7313 643.0237 68.6819 Z" id="fips-72053"/>
<path d="M 442.0568 10.6534 447.299 9.75 450.3978 9.3648 455.0169 9.4065 455.1022 9.4073 459.7331 9.896 460.0832 9.933 461.3917 10.031 468.181 10.4587 468.7181 28.214 465.4765 30.6332 464.3129 38.5454 463.9003 40.277 461.2752 45.8008 460.1583 54.3555 457.5582 54.2051 454.725 45.8178 453.1381 48.3443 447.0206 43.9882 440.5893 46.0822 439.069 41.0814 441.8774 33.9297 441.8562 17.9031 442.0568 10.6534 Z" id="fips-72145"/>
<path d="M 325.5036 9.895 328.7872 9.4319 336.4392 8.3517 342.0074 8.7846 346.5199 11.0529 345.5679 13.0415 344.9512 26.5686 345.592 28.6137 344.9053 60.1946 344.8173 61.5439 328.4656 60.6638 329.038 54.6052 333.0402 41.136 332.0756 40.0245 329.2568 33.1456 327.7376 14.5308 325.5036 9.895 Z" id="fips-72065"/>
<path d="M 478.3251 14.0549 485.3006 14.7716 487.5129 14.8146 489.5848 12.9824 491.5767 12.3161 495.0302 13.356 495.5843 13.7565 495.696 13.8372 496.9265 14.7266 499.7844 15.8745 506.1288 16.7147 511.0367 16.6695 512.3457 16.5046 503.0896 20.3037 495.0576 20.1164 493.1969 28.9167 496.6526 38.9084 491.31 42.1314 481.6723 42.0424 482.7603 29.7355 477.6284 21.3477 478.3251 14.0549 Z" id="fips-72051"/>
<path d="M 555.2799 127.4545 555.6771 126.6552 567.0583 130.7638 567.8978 137.23 567.822 139.6604 574.2886 142.3512 574.1147 142.9765 575.2745 144.9683 575.1633 146.591 576.8207 148.5374 576.2511 149.792 584.7937 153.3947 587.6743 162.8356 596.2864 166.5248 593.0893 167.9002 583.3665 169.5846 577.8699 170.5361 577.8533 170.5389 575.5191 170.0063 575.28 169.2521 572.3874 167.0546 568.7 166.5834 565.8866 166.8855 565.2319 167.2666 557.1657 157.7859 558.1063 151.4981 554.1106 148.1112 546.7714 150.4343 544.6628 143.2408 550.8409 136.289 555.2799 127.4545 Z" id="fips-72109"/>
<path d="M 570.8256 43.1558 573.1901 44.096 573.7419 47.5436 575.974 49.8078 583.4655 62.2036 588.6392 65.146 587.6416 69.8671 580.0853 64.7317 564.3697 66.3488 563.2326 64.9363 558.5616 64.1026 560.327 61.7833 560.3014 54.206 561.182 50.7032 560.3393 46.3861 563.3386 43.2619 570.8256 43.1558 Z" id="fips-72139"/>
<path d="M 398.7052 10.8655 399.4972 11.0705 405.0153 10.6936 405.0354 10.6671 405.6973 9.79 405.5311 9.1528 405.5596 9.156 406.9906 9.3162 413.9214 12.0195 414.3926 11.8694 416.1156 19.819 413.1261 26.0224 417.9187 27.4975 411.2863 31.5122 411.4904 35.4437 405.2683 33.0023 398.2652 40.3796 399.7331 25.4375 398.4002 25.4924 400.6685 16.0712 398.7052 10.8655 Z" id="fips-72017"/>
</g>
</svg>