<?xml version="1.0"?>
<svg xmlns="http://www.w3.org/2000/svg" version="1.2" baseProfile="tiny" width="800" height="643" viewBox="0 0 800 643" stroke-linecap="round" stroke-linejoin="round">
<g id="cb_2018_us_county_5m">
<path d="M 130.9167 14.9336 131.631 14.6191 132.0376 14.1387 132.2582 13.6555 132.6614 13.3698 133.1474 13.364 133.5084 13.5138 133.9091 13.3582 134.1254 13.1345 134.132 12.779 134.2455 12.3246 134.4615 12.1011 134.8647 11.8154 135.3716 11.6615 135.8493 11.6694 136.5126 11.6803 137.209 11.9019 137.2481 12.022 137.4564 12.3774 137.797 12.6428 138.2215 12.6498 138.8889 12.4333 139.6389 12.0234 140.0062 11.589 140.3276 11.2732 140.3903 11.1967 140.5338 11.1161 142.1611 11.0516 143.1932 11.1121 143.9071 10.9956 144.7028 9.9234 145.2713 9.3744 145.8368 9.1216 147.1224 8.803 147.7468 8.9869 148.456 8.9952 149.7635 8.3109 150.4968 8.4665 150.9182 9.0223 150.9481 9.4372 150.909 10.1648 151.1808 10.9198 151.5464 10.9703 153.0874 10.8283 153.7343 10.4664 154.0006 9.8542 155.0454 7.3724 155.6573 5.4003 156.4486 4.3038 156.8056 4.0045 157.8458 3.548 159.1565 3.1682 160.4388 1.4324 160.8994 1 161.3079 1.0075 162.3442 1.9974 162.3768 2.5794 162.8936 3.6653 163.1726 4.5174 163.0926 4.9497 162.8535 5.4096 162.7484 5.8865 162.7923 6.216 162.9794 6.7571 163.4483 7.2574 164.0305 7.713 164.3432 7.8686 164.7228 7.8144 165.5016 7.2279 165.6407 6.9309 165.6338 6.572 165.6877 6.2439 165.9845 6.0089 167.2708 5.7483 167.8582 5.6293 168.7665 5.5909 169.3129 5.9211 169.48 6.3897 169.5818 6.443 169.8273 6.4305 170.5015 6.1087 170.6587 6.1142 171.0142 6.4432 171.0452 6.8984 171.636 7.2504 172.2205 7.3124 173.1285 6.7091 173.465 6.1477 173.6316 6.0676 174.9 5.6994 176.8436 5.3346 177.9863 4.6198 178.9639 4.3818 179.2359 4.3762 180.2106 4.3563 183.0619 4.6836 187.4205 5.1144 187.4858 5.1193 189.8298 5.2951 189.8752 5.2986 188.8249 37.0719 188.2033 55.0449 188.2022 55.08 187.8674 62.0886 187.7588 64.0822 187.4147 70.4047 187.1829 74.6382 187.9587 73.9763 189.755 76.0301 189.7571 76.1098 189.8123 76.2804 189.8895 76.3939 189.9899 76.4621 190.1563 76.4832 190.2129 76.501 190.3252 76.6187 190.4338 76.7147 190.5719 76.8013 190.7126 76.9148 190.8997 77.0926 190.9525 77.1906 191.0191 77.2353 191.058 77.233 191.2219 77.1683 191.2969 77.1646 191.4414 77.2055 191.5404 77.2508 191.692 77.3754 191.8324 77.5225 191.8882 77.5549 192.1765 77.7693 192.2567 77.9005 192.4098 78.0862 192.4689 78.1888 192.5412 78.4024 192.6509 78.5071 192.755 78.6649 192.8174 78.7382 192.9976 78.8891 193.0519 78.9912 193.0491 79.1396 193.0848 79.2413 193.3426 79.5028 194.2084 80.6527 194.2657 80.7002 194.4519 80.8177 194.6312 81.016 194.7245 81.1429 194.9563 81.488 195.0318 81.5521 195.1262 81.6583 195.2044 81.8073 195.314 82.0415 195.433 82.2567 195.5233 82.3337 195.6238 82.4714 195.7913 82.8279 195.8685 83.0432 195.8742 83.3622 195.8348 83.488 195.8266 83.5314 195.8345 83.7486 195.8617 83.7843 196.1527 83.8137 196.243 83.8004 196.3699 83.7539 196.4792 83.7342 196.8755 83.5702 197.0283 83.5223 197.109 83.5097 197.1908 83.5208 197.2691 83.6091 197.2743 83.6598 197.2573 83.8 197.4062 84.1039 197.6012 84.3596 197.1649 85.6011 199.3565 88.5792 200.1536 87.8545 197.2539 95.294 194.8388 101.1945 191.5356 109.5597 189.1303 115.588 184.5576 127.5334 184.757 137.7769 171.7075 148.0315 163.3176 140.7061 158.9339 135.8491 154.8299 133.8361 153.1328 125.0255 149.1608 119.6266 148.7144 112.8463 147.7851 113.2403 146.8594 110.8988 148.719 108.2752 147.6665 107.2767 147.8557 95.2411 149.2011 94.1399 149.3303 91.3318 149.7994 88.9791 148.7604 88.4062 148.3929 84.8933 144.1358 80.3787 145.2524 79.3515 144.1818 77.7063 145.3387 76.0334 143.8903 75.8897 144.6697 73.7875 144.7288 72.8809 144.8664 72.3813 143.9589 71.9299 144.2972 71.0776 144.0101 70.5659 144.2685 69.1169 143.4547 68.2808 143.8627 67.0602 142.8756 66.2588 143.3022 65.0218 139.7535 58.8002 138.9676 58.5788 138.2259 53.4199 138.003 50.7405 134.6884 48.1893 137.0485 46.6738 135.5475 42.9727 136.4516 40.7174 127.1739 42.0672 128.6372 37.2455 126.5211 35.4139 127.6555 31.6485 130.5333 30.8939 131.1457 28.8095 128.3148 28.8797 119.632 31.4784 113.8142 30.4818 107.6859 31.3726 101.8079 33.6616 99.4029 29.5309 100.5128 29.5832 101.1008 29.2708 101.5913 28.5099 101.6268 28.0515 101.9019 27.5068 102.407 27.3868 103.171 27.5625 103.7308 27.3464 104.1496 26.7019 104.9738 25.9786 105.1908 25.6915 105.2285 25.1374 105.325 24.8604 105.6536 24.4319 106.237 24.4025 106.7289 24.6275 107.5727 24.7075 108.9238 24.0092 109.4593 23.7962 109.9348 23.837 110.3302 23.9088 110.9433 23.6612 111.8286 22.5402 112.0303 22.096 111.9858 21.6424 111.6791 21.0548 111.5799 20.6974 111.6117 20.407 111.723 20.1178 111.9945 19.7347 112.212 19.5008 112.3621 19.4025 112.4093 18.9953 112.4942 18.45 112.8955 18.1985 113.3461 18.1419 114.0041 18.3152 114.2873 18.7405 114.5698 19.1983 114.6961 19.5239 115.1673 19.7911 116.3549 19.808 117.1021 19.5663 117.8253 19.0617 118.1796 18.4858 118.6334 18.1116 119.1971 17.7921 119.7022 17.6392 120.3592 17.8769 120.9344 18.2425 121.2764 18.3456 121.8592 18.2911 122.2915 17.9475 122.5613 17.4443 123.1775 16.611 123.7037 16.4925 124.2983 16.2153 124.3892 16.0506 124.6251 15.9131 125.0774 15.7592 126.2835 15.7804 126.9713 16.0545 127.9131 15.8148 128.628 15.0386 128.9772 15.0015 129.6637 15.1717 129.8502 15.2973 130.2406 15.2312 130.9167 14.9336 Z" id="fips-45045"/>
<path d="M 351.5788 359.2903 354.2698 359.7391 357.1143 364.9957 362.5635 366.1183 369.1382 370.6993 375.055 372.3182 379.5846 376.6556 383.6077 377.6847 391.3219 382.0752 395.6851 385.5002 398.9082 386.7938 402.5441 390.8504 406.9361 393.8609 407.2817 395.2665 407.8002 394.7062 414.6781 399.899 416.1323 406.8499 422.7873 412.2227 406.3927 422.5847 408.2827 430.3905 406.2786 435.4235 404.6037 435.6601 399.3707 427.1515 374.9223 442.3661 374.207 440.6435 371.7536 437.8461 367.7746 436.9638 363.7701 431.4394 356.3253 423.8335 354.0885 421.6238 352.5081 417.5058 350.5869 415.3601 351.7607 406.2774 351.761 395.6082 352.7853 374.1037 353.1401 367.757 351.5788 359.2903 Z" id="fips-45009"/>
<path d="M 244.4727 218.9257 243.0591 214.6246 243.4956 212.3937 246.1408 210.1025 249.7452 211.5771 254.3982 210.983 258.5275 212.8646 261.0055 211.3499 265.5132 210.3243 267.5765 208.6441 271.3024 211.5742 274.2148 211.6456 277.3161 215.0713 283.2344 217.0911 286.03 221.4212 290.1201 222.7094 294.5449 226.5106 297.8579 227.6944 298.545 228.9869 299.4446 230.1473 303.6113 230.0723 305.6259 231.7411 310.5694 231.2604 307.1192 239.7332 299.9445 255.93 293.9458 269.6245 293.7377 271.1798 291.5957 273.1503 280.2573 283.6763 268.7109 280.0648 259.5188 277.1993 251.518 272.8468 249.7539 273.1628 245.9958 270.091 243.942 267.7968 240.0725 251.0028 233.8401 250.6375 221.1092 253.5656 220.863 252.965 224.3806 246.2475 231.6295 238.157 234.8181 230.4129 244.4727 218.9257 Z" id="fips-45081"/>
<path d="M 42.5691 41.9382 59.1138 36.8867 60.57 36.4412 77.4996 31.5506 74.0206 35.4587 73.5385 39.5741 69.6401 45.0218 70.4261 46.4921 74.1465 48.3899 73.5378 50.7444 76.069 55.78 75.1314 59.006 76.4159 62.3799 74.8945 64.011 75.5312 68.6026 76.7994 75.4429 76.5894 82.3669 78.7204 84.64 77.6946 90.8392 75.7788 94.4925 80.1806 95.7115 83.0832 98.1779 81.317 102.6456 83.8409 103.8794 83.3449 109.2912 85.3637 112.7213 88.1861 112.4159 85.426 114.2519 82.7734 118.1962 85.1995 118.6416 84.4121 119.5102 83.0746 119.4999 83.1307 120.2439 82.1348 118.8745 80.7645 119.6991 81.0898 120.4885 82.6745 121.4271 59.4752 147.0317 59.3993 147.0555 58.9534 147.7339 58.9712 148.37 57.6736 148.4134 53.3594 145.9094 52.8256 146.122 52.4638 146.0213 50.9884 144.9212 50.2605 144.0143 50.0736 143.6409 49.2814 142.0579 48.726 141.8811 47.446 142.3728 46.7995 142.157 43.9273 139.3214 43.9898 138.9494 45.482 137.7871 45.4673 137.5676 44.3798 136.3128 43.8997 136.0792 43.1142 135.8882 43.0651 135.9067 42.398 136.1578 41.5213 136.0071 41.362 135.7571 41.3124 135.1084 41.2581 134.3971 38.2218 130.3206 37.5238 129.9296 37.1093 129.9807 35.4524 128.6785 33.4008 126.5639 33.1157 124.5692 30.8653 123.9563 30.5414 123.6678 30.4552 122.3804 30.6325 121.7392 30.7108 121.3682 30.6484 121.0499 30.0892 120.6922 29.1004 120.4975 26.1942 120.8376 25.743 120.3452 23.8029 119.7973 22.1794 119.9524 20.4719 119.6418 18.588 118.2523 19.0647 116.996 19.0668 116.9559 18.4294 116.5815 17.8442 115.4835 16.7172 114.252 15.574 113.703 13.9804 113.3442 13.0079 112.7274 11.6138 111.4806 10.59 110.7935 9.3158 109.1013 9.232 108.2734 8.7245 107.6629 8.0224 107.5031 7.1121 107.7483 6.7827 107.6657 6.4592 106.5619 6.314 106.3171 5.9879 105.9942 5.3586 105.5825 4.5512 105.1965 3.57 105.3352 3.1676 105.0306 3.1206 104.6669 3.0844 104.0917 3.0805 104.0312 2.923 103.6194 2.5991 103.1582 2.238 102.6962 1.7297 102.1624 1.4763 101.8616 1.3912 101.5421 1.4561 101.1812 1.7673 100.6446 1.7949 100.2827 1.4674 99.7124 1.2962 98.7101 1.2337 98.465 1.0611 98.152 1.0604 98.1262 1 95.6087 1.7696 93.9109 3.4705 92.9275 6.6229 89.5244 6.4954 88.3654 6.7117 86.6927 6.1444 83.468 7.8562 81.4605 9.5388 81.0002 9.9521 80.6877 9.9255 79.7493 9.6929 79.2625 9.6985 79.0335 9.7975 78.8295 9.9711 78.6503 10.2912 78.635 10.6485 78.6435 11.1395 78.5634 11.6483 77.7504 11.6999 77.0135 11.9082 76.6229 12.7415 76.9307 13.0068 77.2814 14.2197 78.2071 14.959 77.9075 15.4765 77.3266 15.674 75.0506 15.2526 74.1473 15.6748 72.5318 16.1965 72.3205 16.5797 72.3294 16.9601 72.4936 17.2393 72.6295 17.642 72.517 17.8292 72.3587 17.9759 72.0297 18.1963 70.9451 18.6248 70.4471 19.1029 69.9706 19.1585 69.0372 19.4032 68.5552 20.1918 68.3297 20.6061 67.7298 20.5981 67.1076 20.5252 66.5449 20.7905 66.2707 21.6398 66.0907 22.1654 65.7301 23.6615 66.1227 24.799 65.2105 25.3863 65.7295 26.0532 65.7723 26.806 64.8835 26.2747 63.7405 26.4918 63.0559 27.4401 62.8107 27.9208 62.2599 28.6415 62.2568 29.2856 61.9513 30.2428 60.9338 30.5784 60.23 31.3967 59.7141 31.9519 59.0598 32.3357 58.3356 32.9164 58.1533 33.5858 58.2856 34.0745 57.9254 34.4459 57.0936 34.8874 56.6934 35.4354 56.5297 36.5239 57.0485 36.959 57.0262 38.6427 55.8552 38.7593 55.5728 38.6947 55.0058 38.8468 54.5603 39.0841 54.4228 39.5555 54.6473 39.9862 54.4529 40.2333 54.2441 40.3434 53.8181 40.2327 53.5301 39.9572 53.1567 39.348 52.2939 39.3259 51.282 39.7695 50.9982 40.319 50.262 40.2312 49.3254 40.4858 48.3698 41.8954 46.8966 42.2451 45.9525 42.7534 45.545 43.1945 44.2267 43.192 43.5336 43.055 42.8154 42.5691 41.9382 Z" id="fips-45073"/>
<path d="M 615.8411 185.8971 632.702 148.5852 645.3564 120.6448 660.7339 135.6259 665.2677 140.2766 666.3555 141.3825 666.626 141.7094 669.4148 144.521 672.7706 148.0374 678.9878 154.5469 679.8083 155.3649 684.6709 160.2101 684.7876 160.3264 687.5351 163.0623 688.6842 164.1618 688.7033 164.18 688.9232 164.4353 695.5359 170.9544 696.9252 172.3243 709.0668 184.2699 706.6259 185.187 705.4141 188.621 699.7855 193.599 692.1555 186.9205 685.4848 193.4542 681.2607 193.7621 677.9716 192.8711 675.8939 190.7496 672.1323 189.353 670.3333 190.9241 658.7758 185.1601 652.7169 184.9817 649.1265 186.2936 647.9096 186.5229 641.1948 187.5679 634.0398 194.9916 629.0254 195.9734 630.1923 199.1926 627.8597 193.7934 621.2351 187.3307 618.4644 186.031 615.8411 185.8971 Z" id="fips-45033"/>
<path d="M 507.0828 173.1436 529.2557 158.9813 542.0672 150.7988 547.079 147.5615 550.1093 148.7313 557.8274 145.6173 560.4526 148.3863 564.5368 148.2638 567.964 146.6822 570.917 147.9665 573.7449 147.5627 577.2396 143.991 577.4823 141.517 580.4941 139.069 582.7618 139.2795 582.219 142.9982 585.3305 146.2287 586.2493 148.4511 589.3903 148.5761 590.6177 146.0586 592.7431 146.3381 593.7045 141.9003 595.2917 144.4428 599.7375 146.1508 600.7379 147.9079 598.7329 152.3535 596.2518 151.9846 596.2054 155.473 596.1061 158.245 600.3815 162.1254 602.0452 166.6997 604.3042 164.4717 607.3156 165.6818 606.3549 169.1836 608.9806 170.6339 605.8436 174.1948 611.3136 181.0729 611.7851 184.4996 607.3902 188.687 599.8987 186.6421 596.2016 196.3092 596.7209 196.7454 593.0777 196.001 590.7462 195.9382 588.1193 194.8478 585.1558 196.8068 582.1219 199.1855 573.437 205.97 569.512 209.033 561.6846 215.1521 559.5879 216.7902 543.7694 229.1357 542.6275 229.1617 539.115 224.8967 533.1242 220.7417 528.9422 214.1723 536.4818 206.9331 536.6006 200.5873 535.5924 198.6453 534.6678 195.6113 532.7547 192.2416 532.5423 191.8153 532.5898 189.382 527.6943 185.0528 525.9598 181.0491 525.5433 173.0328 523.2096 172.95 520.7584 178.5155 514.5123 181.637 513.0351 178.2292 508.6509 176.0395 507.0692 173.559 507.0828 173.1436 Z" id="fips-45031"/>
<path d="M 248.0536 126.7448 250.5592 116.3113 253.1187 109.6504 260.1749 78.1474 266.9611 69.1662 272.1208 63.1006 276.5831 63.0469 280.0123 65.9553 282.7997 65.6814 283.7628 69.4652 288.5468 70.5448 292.66 68.3323 299.7517 71.8806 304.4832 70.4571 309.8942 72.6265 313.9289 78.1153 313.1776 79.7698 310.4131 81.6627 314.4853 89.664 314.5207 93.8567 309.6739 97.142 310.3059 101.3044 313.9281 101.3001 314.2699 107.3535 314.2367 111.067 316.2394 115.3878 320.5155 119.4556 319.3204 131.8107 319.79 132.9059 318.4717 140.3498 319.1441 147.4026 315.8298 147.139 313.2628 148.8563 311.5744 147.4247 308.9757 148.2221 299.5123 157.1653 296.9607 153.3818 297.6537 150.7853 291.7504 146.7002 286.9926 140.9952 285.4322 141.6992 282.744 139.2756 277.1978 134.3484 271.0663 135.0868 265.2626 132.1658 256.8991 130.7922 249.9095 125.5406 248.8249 126.7342 248.0536 126.7448 Z" id="fips-45087"/>
<path d="M 409.1819 155.013 431.6639 138.5092 432.6021 138.5923 431.2939 143.9966 432.2426 150.5382 436.6439 149.062 437.3247 145.4904 439.1456 143.3086 440.6487 143.4354 442.8105 147.8913 445.7366 150.7985 450.0689 148.2151 450.0915 150.3887 453.1406 146.5001 453.0387 148.7356 455.5502 147.4486 463.8565 147.8121 464.6514 144.9528 467.4034 145.6583 463.5437 134.3886 487.0086 123.3292 490.0777 126.3913 491.8286 129.4127 491.5077 131.5433 493.0295 136.9561 495.9502 140.0836 496.1486 142.1357 499.2872 144.3035 500.4819 146.761 500.5382 151.6993 501.6124 161.1008 503.2336 161.5004 504.7886 166.4059 506.5878 167.8197 507.5587 167.6244 507.0828 173.1436 507.0692 173.559 504.9272 174.9368 501.0589 178.5809 494.6497 178.5612 494.3269 180.8509 496.4644 185.8255 491.6565 185.4751 488.5272 187.4958 485.0885 187.6903 482.4911 189.6689 483.5468 191.245 483.6274 201.2122 481.5767 204.8897 479.6998 205.0503 478.0414 210.9636 475.5251 212.9516 458.9048 226.8098 452.5111 224.9739 452.9059 226.8938 445.8173 229.6666 440.144 230.5986 435.764 233.0766 426.4084 224.1061 418.994 216.9853 413.7948 211.9855 410.9489 210.4523 411.1907 209.4555 415.5256 198.9624 418.0192 192.9697 427.294 171.2062 425.3837 169.4518 425.0886 165.3092 423.3861 163.9422 418.0559 164.2322 415.9143 162.8025 409.1819 155.013 Z" id="fips-45055"/>
<path d="M 59.4752 147.0317 82.6745 121.4271 84.4121 119.5102 85.1995 118.6416 86.4586 117.2513 94.0758 108.8464 112.755 98.2304 119.4539 94.4244 137.2823 84.274 144.1358 80.3787 148.3929 84.8933 148.7604 88.4062 149.7994 88.9791 149.3303 91.3318 149.2011 94.1399 147.8557 95.2411 147.6665 107.2767 148.719 108.2752 146.8594 110.8988 147.7851 113.2403 148.7144 112.8463 149.1608 119.6266 153.1328 125.0255 154.8299 133.8361 158.9339 135.8491 163.3176 140.7061 171.7075 148.0315 161.1856 156.0332 159.4023 157.3916 158.6692 157.9502 109.6668 194.4358 99.8488 201.5106 99.8172 201.1347 100.1392 200.2125 100.1601 199.9534 99.521 198.8904 99.6884 198.4054 99.9448 197.8371 99.5187 195.2662 99.5013 194.8834 99.683 193.3712 98.9444 191.1482 98.9636 191.008 99.3039 190.5523 98.7898 189.6464 97.9515 188.5871 96.8164 187.4765 96.6607 187.3736 96.2741 187.457 95.3497 186.6638 94.9023 185.9842 93.8372 184.3662 93.6214 183.1168 92.8063 181.5992 92.1727 178.9422 92.0811 178.1616 92.1568 177.436 91.723 175.6756 91.5339 175.4334 91.0422 175.3524 89.1284 173.5725 88.1878 172.7917 86.9308 171.7482 85.2483 170.6373 85.0397 170.2663 84.9842 169.641 85.0375 168.6936 84.8386 166.9269 84.0542 165.4146 83.9852 164.9366 84.1153 163.9693 84.0138 163.4784 83.2928 161.3815 83.1599 160.9948 83.1381 159.2828 83.007 158.6229 82.5691 158.0182 82.083 156.9115 81.9096 154.5578 81.2099 153.3933 81.0933 153.0371 81.1446 151.8413 80.9101 151.5716 80.3886 151.2458 78.7271 150.5737 78.5707 150.1087 78.6788 149.669 78.8478 149.4939 79.0292 148.9719 78.5426 148.2001 77.5648 147.4377 74.317 145.9876 73.3721 146.0691 70.9568 146.8241 70.4787 146.7341 70.042 146.2433 67.9984 145.8203 66.8962 147.1034 65.679 147.5405 64.7058 146.5766 61.5822 146.3717 59.4752 147.0317 Z" id="fips-45007"/>
<path d="M 99.8488 201.5106 109.6668 194.4358 158.6692 157.9502 159.4023 157.3916 161.1856 156.0332 171.7075 148.0315 171.5281 150.7819 179.3591 158.247 182.6987 163.1109 175.5942 169.5029 167.9441 176.3698 171.718 180.88 172.1684 189.503 179.2075 196.112 181.9419 201.2704 183.0906 209.4141 182.9994 212.6518 181.914 216.4464 178.4059 223.567 168.344 232.3109 160.0681 233.5452 147.4179 232.7566 142.3552 228.4853 139.6641 230.2735 134.5078 230.2249 129.7184 235.2611 123.6816 241.6916 123.4948 241.2505 123.4697 240.768 123.7944 239.2874 123.7208 238.7238 123.4608 238.3579 122.3277 237.475 121.2474 236.4322 120.6558 235.0365 119.7068 234.1164 119.4181 233.4888 119.3769 232.9859 119.2328 232.6621 118.4505 231.6562 117.7911 231.2289 117.3574 231.3632 116.9544 231.3323 116.2068 230.7863 115.6517 229.8443 115.3856 229.0746 115.4694 228.4735 115.8802 228.0255 116.3054 227.0303 116.3422 226.7688 116.2534 226.6202 116.1638 226.5036 116.2075 226.1133 116.1253 225.8405 115.235 224.6976 115.0458 224.5288 114.3861 224.3054 114.0819 224.1712 113.3368 223.6013 113.2526 223.5143 113.0575 222.8374 112.8065 222.6609 111.9916 221.4742 111.81 220.1516 110.6635 218.1993 110.3213 217.816 108.841 217.2279 108.1744 216.445 107.8835 216.3006 107.3217 216.3249 106.6212 216.2113 105.8993 215.8591 104.0595 214.3881 103.7136 213.9121 102.8059 210.8043 102.472 210.0191 101.5954 208.7715 101.4289 208.275 101.3577 207.8316 101.468 205.3049 101.3456 204.864 99.8798 201.8796 99.8488 201.5106 Z" id="fips-45001"/>
<path d="M 543.7694 229.1357 559.5879 216.7902 561.6846 215.1521 569.512 209.033 573.437 205.97 582.1219 199.1855 585.1558 196.8068 588.1193 194.8478 590.7462 195.9382 593.0777 196.001 596.7209 196.7454 596.2016 196.3092 599.8987 186.6421 607.3902 188.687 611.7851 184.4996 615.4077 185.2543 615.8411 185.8971 618.4644 186.031 621.2351 187.3307 627.8597 193.7934 630.1923 199.1926 630.8677 201.4407 630.1964 204.5108 626.3319 208.3885 626.8388 210.4466 631.0562 215.0906 633.0292 220.164 635.5678 220.14 634.3723 222.0694 635.9595 225.9711 633.6045 225.4719 633.8761 231.2677 636.5014 236.2373 636.592 242.7219 637.3106 244.4743 635.9591 246.7029 639.4946 251.6219 641.9451 252.661 640.0772 255.5349 641.8212 257.9511 650.8655 265.817 655.4874 266.7575 654.0934 268.2859 657.5144 270.667 657.4872 271.897 661.1321 276.6937 665.0488 276.704 666.4113 278.7012 670.1037 279.9477 670.2022 283.7803 668.6033 285.3826 665.9107 284.6848 663.9001 282.2361 658.2608 282.1045 658.1973 283.8162 650.444 286.8948 649.0893 288.6216 644.1436 288.7425 639.9437 290.5584 616.7695 284.221 616.5916 282.2792 614.4168 282.8626 609.6736 283.0314 607.92 285.0155 601.732 283.149 598.6094 279.0652 589.4385 279.0602 583.2555 269.6758 581.2056 269.3172 579.9021 267.8737 577.9937 269.3815 576.4595 269.2108 571.9843 268.4861 564.7352 269.1674 559.8549 257.0537 573.2831 248.6012 571.5682 245.7597 562.874 242.162 557.9055 238.7179 555.4919 237.062 555.3556 236.7378 551.0991 231.6819 543.7694 229.1357 Z" id="fips-45041"/>
<path d="M 171.7075 148.0315 184.757 137.7769 184.5576 127.5334 189.1303 115.588 191.5356 109.5597 194.8388 101.1945 197.2539 95.294 200.1536 87.8545 202.6056 89.3085 205.1344 95.1873 206.1839 93.7993 207.5585 96.2559 210.4218 96.1623 211.177 101.2029 213.198 102.0819 212.3511 104.3319 214.6193 104.9777 217.372 108.3856 222.0607 111.6041 223.8376 113.0289 229.0408 114.0075 233.3023 116.7714 238.6773 124.8589 241.2439 125.2113 241.952 127.3637 243.8757 126.293 246.4922 129.6048 248.0536 126.7448 248.8249 126.7342 249.9095 125.5406 256.8991 130.7922 265.2626 132.1658 271.0663 135.0868 277.1978 134.3484 282.744 139.2756 272.741 155.4662 269.5414 156.0359 267.0885 159.854 259.4285 172.9312 254.0515 176.5149 250.2988 177.4074 248.4341 181.1748 245.2516 182.5772 241.0067 185.2391 239.1904 193.2658 235.237 201.8892 232.1645 205.1852 227.8788 201.3217 226.7029 198.1052 224.439 197.2467 221.9301 197.3673 218.9175 193.934 214.7616 191.8275 214.3231 190.2707 209.3739 185.6299 205.015 183.8254 203.3583 184.6375 201.0838 180.5976 197.553 178.9615 195.3252 179.2482 193.8828 173.6099 190.1455 169.7887 188.7653 170.0009 186.4118 166.7695 185.2706 166.7261 182.6987 163.1109 179.3591 158.247 171.5281 150.7819 171.7075 148.0315 Z" id="fips-45059"/>
<path d="M 566.0393 84.2879 566.1039 84.2891 566.1372 84.2896 572.0694 84.3844 575.4913 84.4382 591.4963 84.1664 591.6245 84.1605 596.2254 84.1653 596.3588 84.1708 604.7962 84.2137 605.2489 84.2159 605.5974 84.2199 607.7061 84.2266 614.5613 90.9203 615.0018 91.3522 626.6746 102.6234 627.8836 103.7393 631.5558 107.3095 633.6003 109.2962 633.8054 109.4956 638.6312 114.1518 640.4558 115.9709 640.4603 115.976 641.7491 117.4476 642.2303 117.8181 643.426 118.811 643.4669 118.845 643.7263 119.0622 645.3564 120.6448 632.702 148.5852 615.8411 185.8971 615.4077 185.2543 611.7851 184.4996 611.3136 181.0729 605.8436 174.1948 608.9806 170.6339 606.3549 169.1836 607.3156 165.6818 604.3042 164.4717 602.0452 166.6997 600.3815 162.1254 596.1061 158.245 596.2054 155.473 596.2518 151.9846 598.7329 152.3535 600.7379 147.9079 599.7375 146.1508 595.2917 144.4428 593.7045 141.9003 592.7431 146.3381 590.6177 146.0586 589.3903 148.5761 586.2493 148.4511 585.3305 146.2287 582.219 142.9982 582.7618 139.2795 586.9186 123.749 591.2744 122.8125 588.1232 115.9067 582.4283 114.1233 578.3409 110.9227 577.6087 110.0386 575.8945 107.4544 571.929 97.2057 569.1503 94.6941 566.5726 92.5698 565.0083 85.3602 566.0393 84.2879 Z" id="fips-45069"/>
<path d="M 404.7745 30.7908 408.2812 35.3918 408.3454 35.4833 410.6379 38.7482 415.5986 45.8075 418.6967 50.2123 421.1295 53.5135 421.1827 53.5847 425.2054 59.0261 424.4732 65.7509 423.0658 78.6612 422.7562 81.4976 422.6667 82.3185 425.9361 82.3342 426.9121 82.3437 434.3056 82.412 441.3739 82.4743 443.5227 82.4926 447.552 82.5262 447.8727 82.5304 450.9359 82.5943 450.9497 82.5899 451.7363 82.6012 461.5483 82.7151 464.4098 89.4385 468.8126 93.6896 473.8142 101.795 473.4812 102.2076 473.6953 105.3458 476.258 107.7917 478.2982 110.8709 483.124 114.3102 482.5792 117.8638 487.0086 123.3292 463.5437 134.3886 467.4034 145.6583 464.6514 144.9528 463.8565 147.8121 455.5502 147.4486 453.0387 148.7356 453.1406 146.5001 450.0915 150.3887 450.0689 148.2151 445.7366 150.7985 442.8105 147.8913 440.6487 143.4354 439.1456 143.3086 437.3247 145.4904 436.6439 149.062 432.2426 150.5382 431.2939 143.9966 432.6021 138.5923 431.6639 138.5092 409.1819 155.013 405.9564 149.2049 408.7714 146.5104 409.4733 137.87 410.2392 135.8985 408.6726 129.5167 407.177 127.0979 406.3575 119.3793 407.6659 112.6772 412.3231 107.2075 411.3781 105.1348 409.3535 94.5104 409.7106 88.6937 406.0696 82.1267 407.6296 80.03 411.2049 76.7895 409.3301 73.8504 409.363 65.6218 411.1887 60.371 410.0686 53.1451 410.0316 53.0981 409.8964 53.1128 409.7913 53.1597 409.6336 53.3073 409.5258 53.3894 409.4787 53.4608 409.3638 53.4606 409.2864 53.5363 409.1059 53.6621 408.9534 53.1886 408.9793 53.0451 408.939 52.964 408.839 52.8523 408.7549 52.8149 408.706 52.8567 408.6688 52.9866 408.6763 53.1416 408.6455 53.1522 408.5619 53.1532 408.3887 53.0236 408.3252 52.9339 408.3907 52.6695 408.3829 52.5034 408.5437 52.3217 408.5892 52.1798 408.6664 52.0965 408.6871 52.0672 408.6832 51.9905 408.5768 51.8208 408.5416 51.731 408.4582 51.581 408.4423 51.4842 408.4698 51.3963 408.4621 51.3256 408.3736 51.2656 408.3579 51.2206 408.4136 51.1214 408.3531 51.0114 408.1826 50.9178 408.1104 50.8133 408.1095 50.6927 408.0846 50.5724 408.1038 50.4742 408.103 50.3816 408.0354 50.1947 408.0047 49.96 407.9263 49.7527 407.8714 49.6688 407.7765 49.4921 407.7745 49.3883 407.8383 49.2855 407.8389 49.2361 407.8054 49.1931 407.6662 49.2212 407.6073 49.1886 407.5578 49.1057 408.1935 48.101 405.4146 44.9816 404.2377 42.7882 406.2148 39.4898 404.8285 36.7411 404.7745 30.7908 Z" id="fips-45057"/>
<path d="M 386.9623 271.0044 389.5874 272.2678 389.0485 274.9191 391.3101 275.5523 391.3931 277.3064 394.6887 277.4874 397.2092 278.8862 398.9153 281.3806 403.5002 280.4897 402.7961 284.3449 405.9283 285.3442 409.0526 283.969 411.3972 286.5602 416.1179 288.3299 417.4893 291.4851 419.754 290.9069 421.1065 292.2836 425.2175 293.3479 424.9028 294.9328 429.0958 292.321 431.1672 294.7801 431.2213 291.8269 432.8313 295.8075 435.3062 293.6499 441.3107 295.921 445.9025 292.5004 446.3497 294.8266 452.417 298.461 450.8274 299.3315 453.2404 304.7653 457.5116 310.2968 461.62 311.1947 461.5993 313.9333 466.8435 318.3688 465.7777 321.36 468.9536 323.8607 469.262 327.7078 472.0198 328.8521 470.0405 332.2564 473.2242 335.5037 470.7385 339.539 465.8807 334.8612 463.8489 334.1415 455.2624 336.1756 454.1382 337.1157 457.8964 339.4861 451.7586 347.5302 451.7214 349.5657 454.0118 353.2448 451.336 352.5672 446.0222 353.1482 439.8002 345.2315 440.171 342.9627 433.851 337.3989 421.1153 326.449 408.1428 323.5967 402.3747 326.1613 399.012 325.4945 398.3208 318.5072 394.7166 322.1831 391.591 318.2605 381.8097 305.7274 390.3125 300.7122 396.3685 299.5854 398.0642 297.2818 401.5105 295.7771 399.0106 293.2997 394.498 291.6786 386.6526 290.8528 383.4979 294.2989 382.9475 298.0822 379.2083 297.7053 379.9548 291.3839 381.0619 289.1997 382.5413 277.3681 382.6954 272.8473 386.9623 271.0044 Z" id="fips-45017"/>
<path d="M 182.6987 163.1109 185.2706 166.7261 186.4118 166.7695 188.7653 170.0009 190.1455 169.7887 193.8828 173.6099 195.3252 179.2482 197.553 178.9615 201.0838 180.5976 203.3583 184.6375 205.015 183.8254 209.3739 185.6299 214.3231 190.2707 214.7616 191.8275 218.9175 193.934 221.9301 197.3673 224.439 197.2467 226.7029 198.1052 227.8788 201.3217 232.1645 205.1852 235.1831 206.6814 236.7643 210.4885 238.8422 210.6249 238.2963 212.4425 239.9304 216.6197 244.4727 218.9257 234.8181 230.4129 231.6295 238.157 224.3806 246.2475 220.863 252.965 221.1092 253.5656 214.6489 255.1861 215.0264 249.1281 209.9297 249.8618 197.4382 248.2483 194.5916 250.9566 189.1834 249.773 185.9203 247.3572 183.0495 242.7528 181.8397 241.6047 171.5238 250.9411 168.344 232.3109 178.4059 223.567 181.914 216.4464 182.9994 212.6518 183.0906 209.4141 181.9419 201.2704 179.2075 196.112 172.1684 189.503 171.718 180.88 167.9441 176.3698 175.5942 169.5029 182.6987 163.1109 Z" id="fips-45047"/>
<path d="M 319.4012 498.773 322.1529 498.7447 326.5626 495.6082 331.5397 494.0552 333.1523 489.9779 344.5763 479.9195 342.0767 469.2781 344.8864 467.1022 348.6718 466.3633 348.8184 459.6347 351.7589 457.0137 374.9223 442.3661 377.907 445.0534 379.829 449.8364 383.7712 452.9691 388.8619 461.544 390.9847 467.6857 392.6822 468.3683 395.6793 472.5089 398.0521 472.7083 405.5648 481.3241 406.29 485.7433 411.3016 492.8171 414.2846 501.916 414.8529 503.9547 418.0394 507.1242 416.1969 508.0281 412.8168 512.8201 410.7049 515.8356 405.1655 523.7392 402.3714 522.7338 400.6281 520.7222 395.6602 519.5267 394.9933 517.3504 396.8812 515.99 397.8334 510.5258 394.7434 509.0464 392.728 503.9203 389.4828 501.8429 386.2318 497.3183 353.6115 525.8541 351.0062 527.1903 341.0347 536.6652 341.0303 536.6604 338.4227 535.4078 338.2208 535.3311 337.7742 535.3659 336.3482 535.7357 334.3872 536.0152 333.0068 535.6688 326.5549 532.4594 326.3212 531.0203 326.226 529.8545 326.0961 529.6118 325.7901 529.4522 325.5181 529.4314 324.9977 530.0106 324.4935 530.0472 324.1925 529.9191 322.8003 528.7614 322.7874 528.7506 322.0285 527.3605 321.4836 526.7057 320.2024 525.5706 318.9935 524.1179 317.8628 521.9068 317.9072 520.8405 318.1484 520.5521 318.5307 520.2946 318.759 520.3103 319.0735 521.2076 319.2855 521.513 319.4425 521.5732 319.7914 521.4464 320.5443 520.5524 320.564 520.3875 320.3111 520.14 320.1684 519.2494 320.4273 519.1086 321.9543 517.8775 322.2194 517.4827 322.0886 517.0909 321.3314 516.5216 320.1551 516.4731 319.8346 515.6679 319.8176 515.4588 319.9292 515.2676 320.3335 514.2091 320.8943 512.2653 320.8587 511.7307 319.6819 508.7625 319.5067 508.689 319.3996 508.7065 319.2694 508.7875 319.1997 508.9504 319.1225 509.1134 318.87 509.2118 316.5746 507.549 316.4436 507.3416 317.5229 505.3234 317.6463 503.6656 317.993 501.1882 318.9918 499.8892 319.1822 499.677 319.3028 499.3666 319.3521 499.0557 319.4012 498.773 Z" id="fips-45049"/>
<path d="M 410.7049 515.8356 412.8168 512.8201 416.1969 508.0281 418.0394 507.1242 421.1554 510.1113 428.7 512.931 431.8045 513.1568 432.757 511.5345 438.2944 513.3465 438.8328 515.084 441.9276 513.3997 444.7797 514.4908 442.2503 517.5287 442.7729 519.2284 445.0742 518.8648 446.2188 525.4924 448.242 528.7634 451.3243 529.8949 452.8077 531.7995 454.3638 530.0551 456.3771 531.8218 458.6471 530.7871 460.376 532.4712 459.2554 534.7955 461.8804 534.7403 462.714 537.8461 464.5562 534.867 467.1203 542.1963 470.9233 545.2613 471.9628 547.0024 472.5371 548.6588 477.2379 550.9625 476.6778 552.5671 475.9494 555.8685 476.668 558.4903 476.715 558.6619 478.8607 563.0283 480.5816 566.0321 484.742 565.9362 485.2609 567.7162 485.3807 570.1479 484.5423 573.057 482.6706 578.0549 480.7529 580.7627 481.0359 582.8546 479.1492 584.3249 470.4172 588.4456 466.7648 590.8204 465.7051 591.8169 461.396 593.5954 457.1004 593.5523 453.3892 596.2444 449.8977 597.1684 448.6032 595.2733 448.8754 589.9681 447.2531 589.4736 441.4477 587.7028 437.0159 583.1309 434.7999 583.9862 433.787 584.377 433.1992 587.0758 430.4269 586.9195 428.2927 589.7749 429.1065 592.2963 432.758 595.2478 433.0445 595.4792 436.4887 594.9117 443.2828 601.0376 444.7638 604.9741 441.4232 608.1538 435.8925 616.3004 431.1995 620.3786 424.246 623.9258 420.419 626.4866 418.8836 626.7194 417.7158 625.7898 417.1822 625.8929 414.988 626.4954 412.5548 628.5284 409.2577 632.5001 404.1528 632.8233 405.4384 626.1107 400.7268 623.9787 404.102 622.2896 398.5214 620.9767 395.0827 623.1441 394.1068 620.2608 396.3859 620.0634 397.309 614.9107 389.5196 609.0804 386.4601 604.6473 386.4448 601.0788 390.0001 594.6984 387.4981 586.9692 391.6159 587.0945 399.621 588.2703 399.7181 584.2762 401.844 577.8881 406.9045 577.5098 409.3573 579.0824 410.0162 574.4336 415.4061 571.2537 415.2431 569.5491 417.5579 565.9193 414.382 565.8852 414.4231 562.4023 417.3988 555.7564 419.343 555.386 419.5561 553.6485 419.0807 549.9951 415.9443 543.9444 415.864 536.6006 417.0401 528.7997 414.3002 525.087 410.7049 515.8356 Z" id="fips-45013"/>
<path d="M 489.7193 476.0067 506.536 477.2423 508.1608 477.8445 510.9731 478.9296 530.868 483.8587 532.4247 483.6836 531.3087 482.353 530.343 479.3328 526.559 478.2607 526.0918 475.3382 529.8451 476.571 530.0395 472.5398 536.2155 469.4807 536.6449 467.042 537.3173 468.7611 539.8753 468.7217 540.9941 470.0106 542.304 466.2623 543.9852 461.7584 542.9226 460.7644 542.2422 460.0991 540.3105 458.1268 534.4232 452.2153 533.4792 451.4327 533.7269 451.1131 533.8797 451.244 533.9309 451.0432 535.3485 451.4242 538.5917 450.2159 534.2472 447.4836 532.6666 450.4893 530.2703 448.1384 528.9488 446.8682 529.7915 445.2553 529.6437 444.4852 530.0877 443.156 532.0241 443.0115 534.9204 445.2237 539.8618 447.0573 540.6632 449.6759 542.499 448.8688 547.8479 447.3312 548.6518 449.0366 550.4942 450.7101 550.1084 455.3324 550.3071 456.2529 551.115 458.0394 551.5897 459.0605 553.3848 462.9655 553.4086 463.0322 554.4334 465.2455 555.3652 467.2772 558.3205 466.6728 559.7534 466.3716 565.6866 465.1227 563.3702 471.6134 564.2145 474.4396 565.5414 475.7777 568.6398 476.8133 569.5711 482.395 571.116 483.3834 571.9422 483.3958 573.3179 482.5093 574.8905 481.0433 574.743 475.3634 580.416 473.0717 583.778 468.271 584.8884 463.0557 586.3851 462.488 586.9227 462.9752 590.6379 460.9211 593.8296 458.2279 595.8732 458.4683 597.0868 455.1795 596.0977 453.1074 597.2372 449.0465 602.7884 443.8899 605.15 438.5317 607.0945 437.4474 611.8198 430.3808 614.1499 428.3508 616.6538 422.3681 622.149 418.6943 630.8151 414.9813 635.302 417.408 637.3694 416.8445 638.7959 412.9164 641.436 410.6222 642.0919 407.7229 645.2488 403.9565 646.3271 404.7218 649.7817 403.2741 651.1733 402.918 656.8887 408.9047 666.059 415.079 676.091 416.3281 680.0072 418.6953 676.2838 423.6578 676.1438 423.7157 669.7583 427.7853 668.5886 431.354 668.9154 432.7429 668.2915 435.7696 664.9418 444.5873 657.5838 445.2487 655.4202 444.6944 654.2306 443.0502 647.9207 444.6322 644.1574 445.9628 643.2392 443.0497 640.1323 439.6807 637.5126 439.2054 631.6379 442.1082 627.7744 445.1329 626.8235 448.1795 624.4223 450.6292 623.4968 452.0529 621.6907 455.995 621.6917 457.5725 622.522 459.5816 623.6778 461.3472 623.71 461.3458 627.0971 461.2033 627.7947 460.2147 628.9221 459.5612 629.3174 459.685 629.8156 461.1232 628.8132 465.2436 619.5593 468.8962 615.5025 472.137 608.8546 476.6925 608.1452 478.789 607.5684 479.6421 604.735 481.6786 604.9795 482.7577 605.2873 484.116 603.679 485.666 589.4539 491.6465 588.2565 493.7886 584.5413 495.7404 583.1636 496.0688 580.7569 494.8312 580.6397 493.2154 580.6187 492.9262 579.3886 491.4841 577.9567 490.4367 576.7756 489.5725 570.5074 490.854 569.8216 492.726 569.7341 494.6328 569.653 496.3996 574.7214 496.7672 578.0076 497.0048 579.854 500.1968 579.5321 501.6199 576.7487 506.8327 577.1413 510.3518 571.9841 514.3123 563.1035 519.4474 561.9574 519.4964 560.0059 522.1531 559.2048 524.1674 557.6909 526.2876 556.0448 525.7069 551.5144 525.4656 544.7988 526.9065 537.3178 529.5306 532.7594 531.9806 529.5888 535.7352 528.8486 538.5042 526.8911 539.7476 525.7426 538.3794 525.2505 538.0479 523.1722 536.6479 516.2386 541.5957 515.6977 541.9061 511.2289 544.4696 509.7471 541.7778 503.9458 545.6971 503.5635 543.2595 499.2189 542.6603 498.8254 544.2678 502.9928 547.1973 501.0437 549.2175 498.2434 547.9019 493.777 541.7506 487.4062 538.6898 490.8668 535.5992 492.0957 533.0172 490.8085 528.5741 492.2179 526.056 492.2502 524.5732 491.9401 524.1779 490.9809 524.0364 487.0898 527.0152 485.5425 522.8638 488.7066 522.5472 491.9145 517.2874 489.1442 517.2637 486.6813 513.9404 487.3595 508.7799 486.1912 504.8767 480.9888 499.8494 482.2566 494.8441 483.981 490.2989 488.7239 485.5205 490.926 478.7903 489.7193 476.0067 Z" id="fips-45019"/>
<path d="M 310.5694 231.2604 311.4643 229.118 315.1114 231.0196 318.435 229.9768 323.5193 232.3389 324.4464 230.6002 316.4188 220.5685 322.0391 210.9775 326.8425 210.7749 330.5839 207.243 332.8085 207.0733 336.8689 209.2371 338.8722 214.168 337.2819 217.9764 337.2516 218.4213 341.1526 223.1878 343.2086 227.2425 350.2646 226.389 358.1067 228.2315 360.3249 228.7573 360.5935 229.414 363.7002 231.3273 365.9018 233.1523 368.2282 235.6892 368.8528 236.5236 370.664 239.4789 371.7785 242.2095 379.7937 246.561 381.3966 251.4633 385.8162 259.6211 386.0914 260.5021 386.1088 260.5522 384.0762 263.8959 387.5658 266.1812 386.9623 271.0044 382.6954 272.8473 382.5413 277.3681 381.0619 289.1997 379.9548 291.3839 379.2083 297.7053 382.9475 298.0822 383.4979 294.2989 386.6526 290.8528 394.498 291.6786 399.0106 293.2997 401.5105 295.7771 398.0642 297.2818 396.3685 299.5854 390.3125 300.7122 381.8097 305.7274 379.4968 306.4659 374.4908 308.0664 357.6487 316.5494 354.2888 315.3455 342.6835 307.805 341.7084 308.1771 341.1916 308.4224 338.3721 306.0866 329.2806 302.3908 319.6341 300.483 317.7191 298.2474 316.2404 291.7625 312.1497 287.3792 309.7785 287.1096 303.5701 284.1846 299.9956 280.2747 297.8037 274.9324 295.5101 274.1212 293.7377 271.1798 293.9458 269.6245 299.9445 255.93 307.1192 239.7332 310.5694 231.2604 Z" id="fips-45063"/>
<path d="M 319.3204 131.8107 348.6892 133.5957 379.2893 135.8087 388.7665 136.9027 409.4733 137.87 408.7714 146.5104 405.9564 149.2049 409.1819 155.013 415.9143 162.8025 418.0559 164.2322 423.3861 163.9422 425.0886 165.3092 425.3837 169.4518 427.294 171.2062 418.0192 192.9697 405.1201 194.8784 395.4344 196.3247 382.4691 200.1681 382.0594 199.4008 377.5187 200.2654 373.1938 203.9456 359.0271 202.6186 361.0566 207.8281 359.48 211.8041 351.5082 205.5246 347.3772 206.0596 342.9206 200.6827 339.8782 199.1118 336.509 198.6818 334.3306 194.7306 332.3211 193.146 332.7785 188.5187 330.4159 185.9162 328.3688 181.2998 327.4623 176.1066 323.7288 168.9709 323.2295 166.19 319.4297 155.5482 320.8341 152.72 319.1441 147.4026 318.4717 140.3498 319.79 132.9059 319.3204 131.8107 Z" id="fips-45039"/>
<path d="M 466.8435 318.3688 472.9228 312.242 476.0498 304.2091 480.1042 304.3428 480.9452 299.5188 484.0119 299.3502 484.8571 302.2016 483.4489 304.6574 490.5322 303.892 489.6708 297.6073 489.6291 293.3989 510.1536 289.6711 512.0424 287.6258 513.2457 285.9953 523.2181 278.9258 533.1656 272.8779 535.4767 272.703 548.5368 263.6259 559.8549 257.0537 564.7352 269.1674 571.9843 268.4861 576.4595 269.2108 569.9666 282.646 565.1104 284.3835 556.6502 292.9529 560.2776 302.2237 557.158 305.6907 552.6348 317.5072 548.6611 326.5699 539.3422 347.515 535.7163 346.4091 530.9362 351.2533 532.2628 354.1493 531.1994 357.3555 524.3552 357.5355 521.5699 356.5925 521.449 358.5269 519.2171 358.3291 516.5733 359.1754 515.8335 357.169 510.7803 359.4905 510.0969 357.738 502.4232 360.9033 497.0662 361.1236 490.5829 358.1555 483.322 351.8152 482.8396 346.8049 479.3287 346.644 479.9833 345.0498 477.9216 342.5643 481.4423 342.2917 480.6661 337.9995 477.8981 338.9857 475.1064 335.1826 473.2242 335.5037 470.0405 332.2564 472.0198 328.8521 469.262 327.7078 468.9536 323.8607 465.7777 321.36 466.8435 318.3688 Z" id="fips-45027"/>
<path d="M 630.1923 199.1926 629.0254 195.9734 634.0398 194.9916 641.1948 187.5679 647.9096 186.5229 649.1265 186.2936 652.7169 184.9817 658.7758 185.1601 670.3333 190.9241 672.1323 189.353 675.8939 190.7496 677.9716 192.8711 681.2607 193.7621 685.4848 193.4542 692.1555 186.9205 699.7855 193.599 699.847 198.1991 698.7938 199.1855 699.4476 200.0508 695.6649 202.9959 692.8438 208.1579 689.5015 209.2818 686.923 215.575 687.3012 218.0417 680.015 226.8365 681.3275 231.1943 677.7226 236.0659 671.6102 239.1312 670.518 243.3676 666.6626 246.0716 666.9034 249.2819 665.6361 251.163 670.3206 256.5836 669.4238 258.2526 674.6388 265.9866 675.2468 264.8893 678.4152 266.4415 679.6126 269.1785 678.8152 277.0664 681.084 279.0394 679.2365 282.0615 681.3647 288.1419 684.4388 292.615 686.0639 293.5776 686.1057 295.3231 690.2554 299.3543 691.2679 303.7764 681.9288 306.0219 682.8563 304.1275 678.4938 304.5035 677.0984 303.3844 677.625 300.7647 675.7511 301.9751 674.279 299.3847 675.1425 297.6835 674.047 295.1332 669.8748 289.2289 668.8078 287.4647 668.6033 285.3826 670.2022 283.7803 670.1037 279.9477 666.4113 278.7012 665.0488 276.704 661.1321 276.6937 657.4872 271.897 657.5144 270.667 654.0934 268.2859 655.4874 266.7575 650.8655 265.817 641.8212 257.9511 640.0772 255.5349 641.9451 252.661 639.4946 251.6219 635.9591 246.7029 637.3106 244.4743 636.592 242.7219 636.5014 236.2373 633.8761 231.2677 633.6045 225.4719 635.9595 225.9711 634.3723 222.0694 635.5678 220.14 633.0292 220.164 631.0562 215.0906 626.8388 210.4466 626.3319 208.3885 630.1964 204.5108 630.8677 201.4407 630.1923 199.1926 Z" id="fips-45067"/>
<path d="M 539.3422 347.515 548.6611 326.5699 552.6348 317.5072 557.158 305.6907 560.2776 302.2237 556.6502 292.9529 565.1104 284.3835 569.9666 282.646 576.4595 269.2108 577.9937 269.3815 579.9021 267.8737 581.2056 269.3172 583.2555 269.6758 589.4385 279.0602 598.6094 279.0652 601.732 283.149 607.92 285.0155 609.6736 283.0314 614.4168 282.8626 616.5916 282.2792 616.7695 284.221 639.9437 290.5584 644.1436 288.7425 649.0893 288.6216 650.444 286.8948 658.1973 283.8162 658.2608 282.1045 663.9001 282.2361 665.9107 284.6848 668.6033 285.3826 668.8078 287.4647 669.8748 289.2289 666.4325 290.339 665.0223 294.2302 657.4509 303.0806 654.7308 307.7227 653.0879 315.864 650.915 321.2999 649.4499 326.4453 650.9799 330.3052 650.6406 331.1146 647.0879 334.0959 642.8191 338.385 641.1899 341.6752 640.1501 342.6833 633.7139 346.5643 632.6497 348.4579 625.1332 357.3876 624.2009 361.8156 619.4012 368.1281 617.8781 371.8132 614.8883 374.0211 610.7775 379.002 610.2062 382.4542 610.8885 385.3905 605.3886 382.1788 600.2907 382.1625 597.5138 380.4854 596.651 378.0562 593.2013 372.8768 590.7082 371.0111 588.8213 372.0024 587.7695 370.1008 580.8712 366.063 579.9435 363.5935 576.9907 360.9386 578.7211 360.5031 574.1766 355.9086 571.479 355.5192 570.7099 353.9659 561.2438 346.578 555.6288 347.6204 554.3258 345.7358 542.5987 345.7162 539.3422 347.515 Z" id="fips-45089"/>
<path d="M 357.6487 316.5494 374.4908 308.0664 379.4968 306.4659 381.8097 305.7274 391.591 318.2605 394.7166 322.1831 398.3208 318.5072 399.012 325.4945 402.3747 326.1613 408.1428 323.5967 421.1153 326.449 433.851 337.3989 440.171 342.9627 439.8002 345.2315 446.0222 353.1482 451.336 352.5672 454.0118 353.2448 451.7214 349.5657 451.7586 347.5302 457.8964 339.4861 454.1382 337.1157 455.2624 336.1756 463.8489 334.1415 465.8807 334.8612 470.7385 339.539 473.2242 335.5037 475.1064 335.1826 477.8981 338.9857 480.6661 337.9995 481.4423 342.2917 477.9216 342.5643 479.9833 345.0498 479.3287 346.644 482.8396 346.8049 483.322 351.8152 490.5829 358.1555 497.0662 361.1236 502.4232 360.9033 510.0969 357.738 510.7803 359.4905 515.8335 357.169 516.5733 359.1754 519.2171 358.3291 518.7673 365.2358 519.2306 368.8575 516.5658 368.9008 516.3757 376.8896 515.0455 379.5511 514.0946 387.369 507.3029 393.0309 503.909 394.4846 498.8742 391.751 496.7435 392.3785 496.0049 395.8625 490.5647 394.4379 485.0491 395.8475 475.38 391.4125 473.5852 386.8982 473.748 383.1583 472.2857 380.4867 424.0669 411.4397 422.7873 412.2227 416.1323 406.8499 414.6781 399.899 407.8002 394.7062 407.2817 395.2665 406.9361 393.8609 402.5441 390.8504 398.9082 386.7938 395.6851 385.5002 391.3219 382.0752 383.6077 377.6847 379.5846 376.6556 375.055 372.3182 369.1382 370.6993 362.5635 366.1183 357.1143 364.9957 354.2698 359.7391 351.5788 359.2903 348.1888 359.0497 344.785 356.9426 338.4144 350.9608 331.2478 350.9938 326.4503 349.0573 326.7595 348.6532 332.7244 342.7923 352.8856 321.5825 357.6487 316.5494 Z" id="fips-45075"/>
<path d="M 341.0347 536.6652 351.0062 527.1903 353.6115 525.8541 386.2318 497.3183 389.4828 501.8429 392.728 503.9203 394.7434 509.0464 397.8334 510.5258 396.8812 515.99 394.9933 517.3504 395.6602 519.5267 400.6281 520.7222 402.3714 522.7338 405.1655 523.7392 410.7049 515.8356 414.3002 525.087 417.0401 528.7997 415.864 536.6006 415.9443 543.9444 419.0807 549.9951 419.5561 553.6485 419.343 555.386 417.3988 555.7564 414.4231 562.4023 414.382 565.8852 417.5579 565.9193 415.2431 569.5491 415.4061 571.2537 410.0162 574.4336 409.3573 579.0824 406.9045 577.5098 401.844 577.8881 399.7181 584.2762 399.621 588.2703 391.6159 587.0945 387.4981 586.9692 390.0001 594.6984 386.4448 601.0788 386.4601 604.6473 389.5196 609.0804 397.309 614.9107 396.3859 620.0634 394.1068 620.2608 395.0827 623.1441 398.5214 620.9767 404.102 622.2896 400.7268 623.9787 405.4384 626.1107 404.1528 632.8233 409.2577 632.5001 404.6154 638.0882 406.8333 639.7309 407.9949 641.5706 406.7249 641.5002 403.7132 641.1403 402.4917 640.971 401.6494 640.6541 400.9758 640.1476 399.8184 638.9661 398.1743 636.9034 396.2606 634.7343 395.4238 634.2041 392.1186 632.9861 391.3874 632.5235 390.6059 631.5992 389.9271 630.1934 389.4856 629.5104 388.5511 628.6247 388.1322 628.4165 387.3758 628.1938 386.4882 628.3884 385.7987 628.9397 385.1017 629.8929 384.8418 630.2483 382.9596 631.3385 382.008 631.5337 379.9718 631.3616 378.2358 630.9176 377.1372 630.3437 374.3105 628.2438 373.6271 627.6964 373.5144 627.6062 373.0667 626.9949 372.9622 626.2335 372.6412 626.1429 371.4383 626.1499 369.6227 625.98 369.2491 625.7382 368.5879 624.8533 368.1267 621.5074 368.2768 619.9349 368.414 619.4738 368.1293 617.6865 368.0749 617.4095 367.7936 615.9795 367.6071 615.7584 366.7069 615.4549 366.5035 615.2135 366.5436 614.9486 366.7603 614.5116 367.3809 613.9074 367.9531 613.3505 368.2423 613.2509 368.2556 612.9016 368.074 612.588 368.1772 612.0864 368.5021 611.2645 368.4531 610.4815 367.6237 608.0448 366.7552 606.5762 365.4441 605.7247 365.3231 605.5616 364.238 603.9402 363.6647 602.8933 362.4814 600.7322 362.065 599.97 361.9658 599.4815 362.1355 599.058 363.3738 597.2397 363.8029 595.575 365.387 593.7125 366.3558 593.3337 366.8321 592.9937 367.957 591.3508 368.2641 590.7293 368.263 590.7157 368.2312 590.3277 367.8147 587.155 367.7138 586.7733 367.5448 586.4919 367.2905 586.3707 365.5504 583.2948 365.2299 582.5713 365.3328 582.2102 366.0141 581.2485 365.9157 579.9435 364.6814 578.3141 364.4108 578.0122 364.1565 577.9713 363.5448 578.3109 363.4004 578.6806 363.2988 578.8544 363.0412 579.0167 362.7839 579.0267 362.5819 579.0262 362.4625 579.0041 362.3891 578.9712 362.325 578.9058 362.2705 578.7534 362.2989 578.4275 362.2898 578.1667 361.1566 576.959 359.7357 575.9056 359.6124 575.6234 359.6648 575.4029 359.8729 575.0482 359.9776 574.6565 359.8752 574.2763 359.1817 573.6408 358.0281 572.2368 357.8907 572.0695 358.392 571.2295 358.5489 569.8047 357.9245 568.8391 356.4391 566.6663 355.5602 565.8203 353.8392 563.3454 353.288 560.8944 353.4897 560.5829 353.9507 560.3547 354.2806 560.1257 354.4499 559.8197 354.5286 559.498 354.5293 559.2834 354.3491 558.9914 354.2078 558.6537 354.2089 558.3164 354.3264 557.9948 354.573 557.7658 355.1459 557.6687 355.9789 556.8283 356.8812 555.5062 356.9666 555.2656 356.7472 555.0039 356.5609 554.9631 356.0182 555.1219 355.6118 555.0604 354.7326 554.4754 352.6391 552.3201 350.0917 549.2597 349.0691 548.3316 348.2792 546.8229 348.2056 546.2388 348.2602 545.9789 348.5496 545.737 348.8674 545.5637 349.0059 545.2617 348.8998 544.761 348.4882 544.5499 347.1487 544.3434 346.6636 544.3589 346.3324 544.4961 345.8157 544.3357 341.7232 540.8889 341.8762 540.2589 342.122 539.7409 342.1033 539.1355 342.0557 538.9257 341.3818 537.0381 341.0347 536.6652 Z" id="fips-45053"/>
<path d="M 123.6816 241.6916 129.7184 235.2611 134.5078 230.2249 139.6641 230.2735 142.3552 228.4853 147.4179 232.7566 160.0681 233.5452 168.344 232.3109 171.5238 250.9411 181.8397 241.6047 183.0495 242.7528 185.9203 247.3572 189.1834 249.773 194.5916 250.9566 197.4382 248.2483 209.9297 249.8618 215.0264 249.1281 214.6489 255.1861 196.4807 259.7696 197.6506 265.1023 196.331 268.1916 196.9597 270.0748 203.228 279.8188 201.5914 280.2202 196.5009 289.2384 193.2814 292.5815 194.591 297.0858 191.4033 300.9117 194.1491 307.7347 197.8274 308.9003 197.0518 310.4916 199.378 311.0965 199.8001 313.9908 203.3438 314.8822 205.7901 319.2158 202.6766 325.9273 202.3887 326.679 202.1851 326.6798 201.539 326.9932 200.6125 327.814 200.0726 327.9712 199.3311 327.8395 197.7768 327.0683 197.416 326.783 196.7924 326.29 196.4243 325.7102 196.0537 324.6284 195.5694 324.1582 195.2306 323.937 194.6348 323.742 194.2626 323.6481 192.5607 323.2186 191.6479 322.6389 190.6073 321.6343 188.889 319.6635 188.1623 316.3771 188.4308 314.2291 188.4255 313.484 188.4249 313.3962 188.2869 312.8155 187.0152 311.748 186.8086 311.3661 186.4273 310.2451 185.6406 308.8121 185.3481 308.4269 184.6774 307.8506 182.7248 305.5968 182.3085 304.052 182.5663 302.748 182.0521 299.4308 181.8448 298.6189 180.9148 296.3075 180.7129 295.0507 179.4311 293.6076 178.9688 293.4528 178.7309 293.4865 178.1122 293.1332 177.9205 292.8255 177.82 292.37 177.6379 292.1661 177.3747 291.9805 176.9205 291.9216 175.7243 291.0779 175.1716 290.262 174.3911 289.4474 173.7361 289.0418 173.2857 288.9604 172.8643 289.0626 172.318 288.7235 172.1376 288.4159 172.1069 288.125 172.2464 286.2479 172.1956 285.6246 172.0447 285.2835 171.6054 284.8194 170.5942 284.2056 169.8794 283.5301 169.6512 283.0661 168.052 281.3293 165.8462 279.867 164.3488 278.4109 163.5299 277.9704 160.675 276.735 160.2344 276.4397 159.821 276.0767 158.9264 274.9596 158.0656 274.2756 157.1479 273.7128 156.2853 273.3128 155.5011 272.4467 154.9468 272.0097 154.2038 271.8292 153.2165 272.0095 152.611 272.2242 151.7874 272.3078 150.7336 271.872 150.4062 271.6245 149.1783 270.2262 148.8722 269.9797 147.6121 269.4742 146.459 268.6314 145.7595 267.6693 144.0265 266.3463 142.356 264.5004 140.2455 262.8889 139.7276 262.1365 138.523 259.5887 137.8649 258.492 136.9984 257.3708 135.0932 256.0563 134.7239 255.9689 133.4962 255.9718 132.5469 256.378 131.9857 256.4897 130.1019 255.8822 129.7177 255.5678 128.471 253.4607 128.4627 253.4467 128.2862 252.8669 128.2296 251.8179 127.8891 250.8337 127.6332 250.4454 126.8357 249.7434 126.3768 249.149 126.0471 248.5958 125.894 248.0505 125.8997 247.5129 126.0017 247.1389 126.2989 246.8104 126.6209 246.6104 126.7879 246.3701 126.7603 246.1397 126.6504 245.9256 126.4008 245.7935 125.4642 245.4678 124.9979 245.0854 124.5069 244.4812 124.1029 242.6868 123.6816 241.6916 Z" id="fips-45065"/>
<path d="M 214.6489 255.1861 221.1092 253.5656 233.8401 250.6375 240.0725 251.0028 243.942 267.7968 245.9958 270.091 249.7539 273.1628 251.518 272.8468 259.5188 277.1993 268.7109 280.0648 280.2573 283.6763 269.5337 293.6277 258.9565 303.4282 245.1394 316.2041 232.7912 327.5831 231.6064 328.6712 219.5256 339.8516 218.2193 339.2103 217.6234 338.6211 217.6297 338.0591 216.836 337.2065 216.0387 336.8921 215.7317 336.3456 215.3293 335.2356 213.8513 333.3773 213.4147 333.1633 212.4148 333.0489 212.3092 332.9838 211.9523 332.7639 210.0801 331.0131 209.4051 330.5777 207.0065 329.9258 205.901 329.4851 205.5322 329.2139 205.1256 328.7495 203.9064 326.8712 203.3842 326.6752 202.3887 326.679 202.6766 325.9273 205.7901 319.2158 203.3438 314.8822 199.8001 313.9908 199.378 311.0965 197.0518 310.4916 197.8274 308.9003 194.1491 307.7347 191.4033 300.9117 194.591 297.0858 193.2814 292.5815 196.5009 289.2384 201.5914 280.2202 203.228 279.8188 196.9597 270.0748 196.331 268.1916 197.6506 265.1023 196.4807 259.7696 214.6489 255.1861 Z" id="fips-45037"/>
<path d="M 452.9059 226.8938 452.5111 224.9739 458.9048 226.8098 475.5251 212.9516 475.3235 224.2131 487.9524 230.4389 492.408 230.553 501.8921 230.5758 504.9836 234.0004 506.3928 238.7693 510.7028 239.6163 513.9589 248.2196 517.5273 247.5934 524.1775 245.612 525.5619 256.1971 528.177 255.131 543.8089 244.8542 551.0661 244.6722 555.3556 236.7378 555.4919 237.062 557.9055 238.7179 562.874 242.162 571.5682 245.7597 573.2831 248.6012 559.8549 257.0537 548.5368 263.6259 535.4767 272.703 533.1656 272.8779 523.2181 278.9258 513.2457 285.9953 512.0424 287.6258 510.1536 289.6711 489.6291 293.3989 489.6708 297.6073 490.5322 303.892 483.4489 304.6574 484.8571 302.2016 484.0119 299.3502 480.9452 299.5188 480.1042 304.3428 476.0498 304.2091 472.9228 312.242 466.8435 318.3688 461.5993 313.9333 461.62 311.1947 457.5116 310.2968 453.2404 304.7653 450.8274 299.3315 452.417 298.461 454.8263 295.5958 456.3867 289.7772 453.1238 284.1455 452.5455 279.1676 450.126 276.4876 451.4894 273.6468 452.8604 267.8786 450.0068 263.5042 452.0934 260.2011 450.9647 257.1867 453.0394 253.8301 450.1038 253.5365 447.9258 246.9752 451.4359 246.156 455.4691 238.9809 454.5508 235.2486 453.3111 235.3837 449.5306 230.2395 452.9059 226.8938 Z" id="fips-45085"/>
<path d="M 285.45 428.2754 297.7164 415.5867 312.5974 420.3503 327.4268 425.844 331.9772 425.8339 334.3344 425.827 344.3382 425.3651 353.4004 423.4282 356.3253 423.8335 363.7701 431.4394 367.7746 436.9638 371.7536 437.8461 374.207 440.6435 374.9223 442.3661 351.7589 457.0137 348.8184 459.6347 348.6718 466.3633 344.8864 467.1022 342.0767 469.2781 344.5763 479.9195 333.1523 489.9779 331.5397 494.0552 326.5626 495.6082 322.1529 498.7447 319.4012 498.773 319.3549 498.5184 319.2136 498.2347 318.9766 498.0638 318.549 497.9199 318.4079 497.6081 318.3148 497.2399 318.365 496.7593 318.5823 496.1383 318.371 495.6279 318.1832 495.146 317.758 494.5781 317.3791 494.2648 316.9376 494.0601 316.7383 494.0066 316.6914 493.865 316.6928 493.6104 316.765 493.4412 316.8372 493.3002 316.9937 493.1388 317.3381 493.0201 317.5776 492.7385 317.6027 492.484 317.6276 492.2862 317.605 492.0598 317.4399 491.8045 317.0841 491.6326 316.7049 491.3759 316.3974 491.0349 316.2812 490.5534 316.45 490.13 316.9648 489.5876 316.9293 488.8131 316.9984 487.269 317.1937 485.5369 317.8756 484.8948 318.0895 484.5078 318.1788 483.9999 317.748 481.3818 317.5845 480.5868 316.7704 479.4589 314.0483 477.5693 313.893 477.4638 313.679 477.3945 312.9127 477.7598 312.6072 477.9991 312.3754 477.9928 312.1453 477.6278 311.808 476.7532 312.3138 475.646 312.605 473.8512 312.3516 472.97 312.178 472.7461 309.7993 472.2098 309.4052 472.2894 308.4722 472.0079 307.8814 471.3134 308.2845 470.0333 309.198 469.4425 309.3443 469.4269 310.3929 468.3332 310.4938 467.9694 310.1835 467.5509 309.67 467.3081 307.9547 466.3831 307.825 464.8149 307.2973 463.1334 305.3044 461.1545 304.5073 460.9451 304.0728 460.3924 304.0282 459.7224 304.5652 458.715 304.587 458.4609 303.8207 457.833 303.3142 457.2067 303.1335 456.647 303.0855 456.2874 303.0704 456.008 303.0887 455.7686 303.2069 455.5898 303.2585 455.3906 303.3101 455.1714 303.4286 454.9527 303.6303 454.8343 303.952 454.8502 304.2851 454.8595 304.5455 454.68 304.6072 454.4869 305.4223 451.637 305.9946 448.3396 306.0413 447.8606 306.0164 445.8014 305.8775 445.5467 304.2382 444.3776 302.7025 441.8231 302.3691 441.6684 301.2922 441.5339 298.0802 439.504 297.8645 439.2158 297.5316 438.361 297.4618 438.2813 297.1697 437.9477 296.7447 437.8967 295.891 438.374 295.5863 438.4928 295.0204 438.2956 294.7991 438.0766 294.6589 437.8341 294.5802 437.4954 294.6658 436.9548 294.7069 436.723 294.6679 436.4811 294.4467 436.2622 294.3055 436.1887 294.184 436.1879 294.1029 436.1873 293.9814 436.1865 293.7372 436.3538 293.3917 436.5448 293.0268 436.5905 292.3621 436.4539 291.451 435.4925 291.0083 434.7342 290.5414 433.8626 289.75 433.088 289.386 433.0129 289.0577 433.2718 288.7363 433.2741 287.9493 432.8817 287.8099 432.5425 287.7921 432.2041 287.9361 431.8667 288.1216 431.409 288.1447 431.0227 287.8046 430.4403 287.5627 430.2935 287.2375 430.3132 286.6867 430.8837 286.3236 430.8644 286.1824 430.7909 286.1429 430.6456 286.1864 430.2351 286.2404 429.8443 286.2543 429.245 286.0356 428.6875 285.7136 428.4195 285.45 428.2754 Z" id="fips-45005"/>
<path d="M 84.4121 119.5102 82.6745 121.4271 81.0898 120.4885 80.7645 119.6991 82.1348 118.8745 83.1307 120.2439 83.0746 119.4999 84.4121 119.5102 Z M 77.4996 31.5506 92.0027 27.2689 95.624 26.0771 96.3791 25.9756 96.7288 26.186 96.7396 26.2049 97.132 26.3964 97.5002 26.8503 97.3104 27.7432 97.0173 28.3825 96.8782 28.6747 96.8713 29.0302 96.7644 29.3077 96.5213 29.7502 97.2662 30.3011 98.4755 30.056 99.4029 29.5309 101.8079 33.6616 107.6859 31.3726 113.8142 30.4818 119.632 31.4784 128.3148 28.8797 131.1457 28.8095 130.5333 30.8939 127.6555 31.6485 126.5211 35.4139 128.6372 37.2455 127.1739 42.0672 136.4516 40.7174 135.5475 42.9727 137.0485 46.6738 134.6884 48.1893 138.003 50.7405 138.2259 53.4199 138.9676 58.5788 139.7535 58.8002 143.3022 65.0218 142.8756 66.2588 143.8627 67.0602 143.4547 68.2808 144.2685 69.1169 144.0101 70.5659 144.2972 71.0776 143.9589 71.9299 144.8664 72.3813 144.7288 72.8809 144.6697 73.7875 143.8903 75.8897 145.3387 76.0334 144.1818 77.7063 145.2524 79.3515 144.1358 80.3787 137.2823 84.274 119.4539 94.4244 112.755 98.2304 94.0758 108.8464 86.4586 117.2513 85.1995 118.6416 82.7734 118.1962 85.426 114.2519 88.1861 112.4159 85.3637 112.7213 83.3449 109.2912 83.8409 103.8794 81.317 102.6456 83.0832 98.1779 80.1806 95.7115 75.7788 94.4925 77.6946 90.8392 78.7204 84.64 76.5894 82.3669 76.7994 75.4429 75.5312 68.6026 74.8945 64.011 76.4159 62.3799 75.1314 59.006 76.069 55.78 73.5378 50.7444 74.1465 48.3899 70.4261 46.4921 69.6401 45.0218 73.5385 39.5741 74.0206 35.4587 77.4996 31.5506 Z" id="fips-45077"/>
<path d="M 519.2171 358.3291 521.449 358.5269 521.5699 356.5925 524.3552 357.5355 531.1994 357.3555 532.2628 354.1493 530.9362 351.2533 535.7163 346.4091 539.3422 347.515 542.5987 345.7162 554.3258 345.7358 555.6288 347.6204 561.2438 346.578 570.7099 353.9659 571.479 355.5192 574.1766 355.9086 578.7211 360.5031 576.9907 360.9386 579.9435 363.5935 580.8712 366.063 587.7695 370.1008 588.8213 372.0024 590.7082 371.0111 593.2013 372.8768 596.651 378.0562 597.5138 380.4854 600.2907 382.1625 605.3886 382.1788 610.8885 385.3905 613.0453 386.6955 618.6393 387.7131 622.7699 390.3963 630.2264 391.6692 630.4585 393.7163 632.3413 393.1575 632.9196 395.0626 641.779 398.8488 643.6587 396.8383 645.1642 400.0606 647.702 398.9323 649.7817 403.2741 646.3271 404.7218 645.2488 403.9565 642.0919 407.7229 641.436 410.6222 638.7959 412.9164 637.3694 416.8445 635.302 417.408 630.8151 414.9813 622.149 418.6943 616.6538 422.3681 614.1499 428.3508 611.8198 430.3808 607.0945 437.4474 605.15 438.5317 602.7884 443.8899 597.2372 449.0465 596.0977 453.1074 597.0868 455.1795 595.8732 458.4683 593.8296 458.2279 590.6379 460.9211 586.9227 462.9752 586.3851 462.488 584.8884 463.0557 583.778 468.271 580.416 473.0717 574.743 475.3634 574.8905 481.0433 573.3179 482.5093 571.9422 483.3958 571.116 483.3834 569.5711 482.395 568.6398 476.8133 565.5414 475.7777 564.2145 474.4396 563.3702 471.6134 565.6866 465.1227 559.7534 466.3716 558.3205 466.6728 555.3652 467.2772 554.4334 465.2455 553.4086 463.0322 553.3848 462.9655 551.5897 459.0605 551.115 458.0394 550.3071 456.2529 550.1084 455.3324 550.4942 450.7101 548.6518 449.0366 547.8479 447.3312 542.499 448.8688 540.6632 449.6759 539.8618 447.0573 534.9204 445.2237 532.0241 443.0115 529.4834 440.8815 526.2776 438.3985 514.7537 429.4472 508.2113 424.3582 500.4673 418.3272 504.6546 415.7167 507.0872 411.4669 501.2754 407.6881 498.2707 397.5626 496.0049 395.8625 496.7435 392.3785 498.8742 391.751 503.909 394.4846 507.3029 393.0309 514.0946 387.369 515.0455 379.5511 516.3757 376.8896 516.5658 368.9008 519.2306 368.8575 518.7673 365.2358 519.2171 358.3291 Z" id="fips-45015"/>
<path d="M 374.9223 442.3661 399.3707 427.1515 404.6037 435.6601 406.2786 435.4235 408.2827 430.3905 406.3927 422.5847 422.7873 412.2227 424.0669 411.4397 432.957 413.5343 437.6139 416.3195 440.6604 420.1194 444.2385 426.9351 451.6109 432.6416 452.0986 434.2736 457.5436 436.0893 463.9521 435.2197 467.5465 433.6847 468.5535 435.3829 472.2359 436.0852 473.4722 434.9665 477.1805 434.7079 487.7587 438.2394 491.1858 438.5482 491.845 440.983 491.0441 442.0474 488.7147 443.7744 488.3713 450.6846 486.7433 452.4116 489.4849 458.2829 488.9452 464.7519 492.3929 470.4422 489.8979 473.193 489.7193 476.0067 490.926 478.7903 488.7239 485.5205 483.981 490.2989 482.2566 494.8441 480.9888 499.8494 486.1912 504.8767 487.3595 508.7799 486.6813 513.9404 489.1442 517.2637 491.9145 517.2874 488.7066 522.5472 485.5425 522.8638 487.0898 527.0152 490.9809 524.0364 491.9401 524.1779 492.2502 524.5732 492.2179 526.056 490.8085 528.5741 492.0957 533.0172 490.8668 535.5992 487.4062 538.6898 493.777 541.7506 498.2434 547.9019 501.0437 549.2175 502.9928 547.1973 498.8254 544.2678 499.2189 542.6603 503.5635 543.2595 503.9458 545.6971 509.7471 541.7778 511.2289 544.4696 510.9523 544.6282 501.7176 552.3181 500.7147 552.1975 499.7665 549.78 496.3616 548.7319 493.5317 550.7004 492.5031 552.2207 491.5348 552.9233 487.9936 553.8744 487.5763 553.5947 487.2422 552.7927 487.1273 549.8183 486.849 549.35 486.2828 548.3974 483.5766 547.3078 481.4353 548.5582 479.1279 548.9658 478.0498 548.6358 477.2379 550.9625 472.5371 548.6588 471.9628 547.0024 470.9233 545.2613 467.1203 542.1963 464.5562 534.867 462.714 537.8461 461.8804 534.7403 459.2554 534.7955 460.376 532.4712 458.6471 530.7871 456.3771 531.8218 454.3638 530.0551 452.8077 531.7995 451.3243 529.8949 448.242 528.7634 446.2188 525.4924 445.0742 518.8648 442.7729 519.2284 442.2503 517.5287 444.7797 514.4908 441.9276 513.3997 438.8328 515.084 438.2944 513.3465 432.757 511.5345 431.8045 513.1568 428.7 512.931 421.1554 510.1113 418.0394 507.1242 414.8529 503.9547 414.2846 501.916 411.3016 492.8171 406.29 485.7433 405.5648 481.3241 398.0521 472.7083 395.6793 472.5089 392.6822 468.3683 390.9847 467.6857 388.8619 461.544 383.7712 452.9691 379.829 449.8364 377.907 445.0534 374.9223 442.3661 Z" id="fips-45029"/>
<path d="M 424.0669 411.4397 472.2857 380.4867 473.748 383.1583 473.5852 386.8982 475.38 391.4125 485.0491 395.8475 490.5647 394.4379 496.0049 395.8625 498.2707 397.5626 501.2754 407.6881 507.0872 411.4669 504.6546 415.7167 500.4673 418.3272 508.2113 424.3582 514.7537 429.4472 526.2776 438.3985 529.4834 440.8815 532.0241 443.0115 530.0877 443.156 529.6437 444.4852 529.7915 445.2553 528.9488 446.8682 530.2703 448.1384 532.6666 450.4893 534.2472 447.4836 538.5917 450.2159 535.3485 451.4242 533.9309 451.0432 533.8797 451.244 533.7269 451.1131 533.4792 451.4327 534.4232 452.2153 540.3105 458.1268 542.2422 460.0991 542.9226 460.7644 543.9852 461.7584 542.304 466.2623 540.9941 470.0106 539.8753 468.7217 537.3173 468.7611 536.6449 467.042 536.2155 469.4807 530.0395 472.5398 529.8451 476.571 526.0918 475.3382 526.559 478.2607 530.343 479.3328 531.3087 482.353 532.4247 483.6836 530.868 483.8587 510.9731 478.9296 508.1608 477.8445 506.536 477.2423 489.7193 476.0067 489.8979 473.193 492.3929 470.4422 488.9452 464.7519 489.4849 458.2829 486.7433 452.4116 488.3713 450.6846 488.7147 443.7744 491.0441 442.0474 491.845 440.983 491.1858 438.5482 487.7587 438.2394 477.1805 434.7079 473.4722 434.9665 472.2359 436.0852 468.5535 435.3829 467.5465 433.6847 463.9521 435.2197 457.5436 436.0893 452.0986 434.2736 451.6109 432.6416 444.2385 426.9351 440.6604 420.1194 437.6139 416.3195 432.957 413.5343 424.0669 411.4397 Z" id="fips-45035"/>
<path d="M 501.2681 83.2383 503.9255 83.2671 507.3985 83.3042 515.5878 83.3889 516.2894 83.4023 527.9068 83.6195 532.5376 83.7038 537.8432 83.799 538.0035 83.7978 541.4333 83.8588 542.144 83.8494 547.1155 83.9392 549.6386 83.9936 551.9786 84.0365 554.0783 84.0748 566.0393 84.2879 565.0083 85.3602 566.5726 92.5698 569.1503 94.6941 571.929 97.2057 575.8945 107.4544 577.6087 110.0386 578.3409 110.9227 582.4283 114.1233 588.1232 115.9067 591.2744 122.8125 586.9186 123.749 582.7618 139.2795 580.4941 139.069 577.4823 141.517 577.2396 143.991 573.7449 147.5627 570.917 147.9665 567.964 146.6822 564.5368 148.2638 560.4526 148.3863 557.8274 145.6173 550.1093 148.7313 547.079 147.5615 542.0672 150.7988 529.2557 158.9813 507.0828 173.1436 507.5587 167.6244 506.5878 167.8197 504.7886 166.4059 503.2336 161.5004 501.6124 161.1008 500.5382 151.6993 500.4819 146.761 499.2872 144.3035 496.1486 142.1357 495.9502 140.0836 493.0295 136.9561 491.5077 131.5433 491.8286 129.4127 490.0777 126.3913 487.0086 123.3292 482.5792 117.8638 483.124 114.3102 478.2982 110.8709 476.258 107.7917 473.6953 105.3458 473.4812 102.2076 473.8142 101.795 468.8126 93.6896 464.4098 89.4385 461.5483 82.7151 461.5569 82.7152 471.7572 82.7273 473.0722 82.8157 474.157 82.8251 479.6925 82.8717 480.1697 82.8827 482.4655 82.9466 483.9397 82.9722 484.9812 83.0139 485.1712 83.0048 485.4053 83.0267 488.2319 83.0908 496.4435 83.1848 501.2681 83.2383 Z" id="fips-45025"/>
<path d="M 232.1645 205.1852 235.237 201.8892 239.1904 193.2658 241.0067 185.2391 245.2516 182.5772 248.4341 181.1748 250.2988 177.4074 254.0515 176.5149 259.4285 172.9312 267.0885 159.854 269.5414 156.0359 272.741 155.4662 282.744 139.2756 285.4322 141.6992 286.9926 140.9952 291.7504 146.7002 297.6537 150.7853 296.9607 153.3818 299.5123 157.1653 308.9757 148.2221 311.5744 147.4247 313.2628 148.8563 315.8298 147.139 319.1441 147.4026 320.8341 152.72 319.4297 155.5482 323.2295 166.19 323.7288 168.9709 327.4623 176.1066 328.3688 181.2998 330.4159 185.9162 332.7785 188.5187 332.3211 193.146 334.3306 194.7306 336.509 198.6818 331.7581 205.5736 332.8085 207.0733 330.5839 207.243 326.8425 210.7749 322.0391 210.9775 316.4188 220.5685 324.4464 230.6002 323.5193 232.3389 318.435 229.9768 315.1114 231.0196 311.4643 229.118 310.5694 231.2604 305.6259 231.7411 303.6113 230.0723 299.4446 230.1473 298.545 228.9869 297.8579 227.6944 294.5449 226.5106 290.1201 222.7094 286.03 221.4212 283.2344 217.0911 277.3161 215.0713 274.2148 211.6456 271.3024 211.5742 267.5765 208.6441 265.5132 210.3243 261.0055 211.3499 258.5275 212.8646 254.3982 210.983 249.7452 211.5771 246.1408 210.1025 243.4956 212.3937 243.0591 214.6246 244.4727 218.9257 239.9304 216.6197 238.2963 212.4425 238.8422 210.6249 236.7643 210.4885 235.1831 206.6814 232.1645 205.1852 Z" id="fips-45071"/>
<path d="M 669.8748 289.2289 674.047 295.1332 675.1425 297.6835 674.279 299.3847 675.7511 301.9751 677.625 300.7647 677.0984 303.3844 678.4938 304.5035 682.8563 304.1275 681.9288 306.0219 691.2679 303.7764 697.7209 309.378 697.8259 313.2285 698.8132 313.2545 703.1277 323.8683 707.2372 324.6874 706.3989 328.4524 706.6136 330.1973 720.8176 329.9879 720.9084 330.7229 723.254 329.9644 722.3096 331.2086 718.8881 337.9379 716.8121 339.9012 709.6766 348.0803 706.9455 352.6769 701.4279 364.248 699.4922 369.4267 698.821 374.9243 697.808 378.5791 697.1716 379.7072 694.3903 394.4349 694.4013 397.6855 695.8741 403.9632 693.3799 410.6042 692.1004 412.1705 688.8024 414.3215 685.0265 418.0994 683.7482 420.5675 676.2838 423.6578 680.0072 418.6953 676.091 416.3281 666.059 415.079 656.8887 408.9047 651.1733 402.918 649.7817 403.2741 647.702 398.9323 645.1642 400.0606 643.6587 396.8383 641.779 398.8488 632.9196 395.0626 632.3413 393.1575 630.4585 393.7163 630.2264 391.6692 622.7699 390.3963 618.6393 387.7131 613.0453 386.6955 610.8885 385.3905 610.2062 382.4542 610.7775 379.002 614.8883 374.0211 617.8781 371.8132 619.4012 368.1281 624.2009 361.8156 625.1332 357.3876 632.6497 348.4579 633.7139 346.5643 640.1501 342.6833 641.1899 341.6752 642.8191 338.385 647.0879 334.0959 650.6406 331.1146 650.9799 330.3052 649.4499 326.4453 650.915 321.2999 653.0879 315.864 654.7308 307.7227 657.4509 303.0806 665.0223 294.2302 666.4325 290.339 669.8748 289.2289 Z" id="fips-45043"/>
<path d="M 263.3242 9.2521 268.1833 9.4707 271.831 9.634 277.648 9.9872 283.2415 10.3248 288.4637 10.6383 293.9104 10.9636 299.9047 11.2732 308.2549 11.7011 308.3968 11.6881 313.6469 11.9797 315.1254 12.0615 316.2366 12.1219 329.1912 12.8201 329.2062 12.8209 323.4725 18.4558 323.0503 24.3456 322.1677 36.1023 313.5005 36.2115 309.0536 40.4202 311.0388 49.3769 308.2768 56.4972 311.3155 58.7028 311.7584 63.4373 310.4658 65.9108 312.9912 74.9595 314.5881 76.6979 313.9289 78.1153 309.8942 72.6265 304.4832 70.4571 299.7517 71.8806 292.66 68.3323 288.5468 70.5448 283.7628 69.4652 282.7997 65.6814 280.0123 65.9553 276.5831 63.0469 272.1208 63.1006 268.347 58.9824 265.0084 59.4851 261.7697 47.5653 258.7459 38.3263 256.5573 38.2523 256.7233 35.7717 256.8245 34.2674 256.3925 32.8615 252.409 23.7003 251.0111 20.5232 245.8407 8.3384 245.8824 8.3402 257.7506 8.9995 262.6282 9.2206 263.3242 9.2521 Z" id="fips-45021"/>
<path d="M 475.5251 212.9516 478.0414 210.9636 479.6998 205.0503 481.5767 204.8897 483.6274 201.2122 483.5468 191.245 482.4911 189.6689 485.0885 187.6903 488.5272 187.4958 491.6565 185.4751 496.4644 185.8255 494.3269 180.8509 494.6497 178.5612 501.0589 178.5809 504.9272 174.9368 507.0692 173.559 508.6509 176.0395 513.0351 178.2292 514.5123 181.637 520.7584 178.5155 523.2096 172.95 525.5433 173.0328 525.9598 181.0491 527.6943 185.0528 532.5898 189.382 532.5423 191.8153 532.7547 192.2416 534.6678 195.6113 535.5924 198.6453 536.6006 200.5873 536.4818 206.9331 528.9422 214.1723 533.1242 220.7417 539.115 224.8967 542.6275 229.1617 543.7694 229.1357 551.0991 231.6819 555.3556 236.7378 551.0661 244.6722 543.8089 244.8542 528.177 255.131 525.5619 256.1971 524.1775 245.612 517.5273 247.5934 513.9589 248.2196 510.7028 239.6163 506.3928 238.7693 504.9836 234.0004 501.8921 230.5758 492.408 230.553 487.9524 230.4389 475.3235 224.2131 475.5251 212.9516 Z" id="fips-45061"/>
<path d="M 189.8752 5.2986 193.2285 5.5592 194.8627 5.7002 196.2785 5.8319 197.7874 5.8695 202.4995 6.0449 207.8872 6.4354 210.5923 6.6308 217.3468 6.9175 218.7827 6.978 225.0533 7.2411 230.3139 7.5529 237.4867 7.9753 245.8407 8.3384 251.0111 20.5232 252.409 23.7003 256.3925 32.8615 256.8245 34.2674 256.7233 35.7717 256.5573 38.2523 258.7459 38.3263 261.7697 47.5653 265.0084 59.4851 268.347 58.9824 272.1208 63.1006 266.9611 69.1662 260.1749 78.1474 253.1187 109.6504 250.5592 116.3113 248.0536 126.7448 246.4922 129.6048 243.8757 126.293 241.952 127.3637 241.2439 125.2113 238.6773 124.8589 233.3023 116.7714 229.0408 114.0075 223.8376 113.0289 222.0607 111.6041 217.372 108.3856 214.6193 104.9777 212.3511 104.3319 213.198 102.0819 211.177 101.2029 210.4218 96.1623 207.5585 96.2559 206.1839 93.7993 205.1344 95.1873 202.6056 89.3085 200.1536 87.8545 199.3565 88.5792 197.1649 85.6011 197.6012 84.3596 197.4062 84.1039 197.2573 83.8 197.2743 83.6598 197.2691 83.6091 197.1908 83.5208 197.109 83.5097 197.0283 83.5223 196.8755 83.5702 196.4792 83.7342 196.3699 83.7539 196.243 83.8004 196.1527 83.8137 195.8617 83.7843 195.8345 83.7486 195.8266 83.5314 195.8348 83.488 195.8742 83.3622 195.8685 83.0432 195.7913 82.8279 195.6238 82.4714 195.5233 82.3337 195.433 82.2567 195.314 82.0415 195.2044 81.8073 195.1262 81.6583 195.0318 81.5521 194.9563 81.488 194.7245 81.1429 194.6312 81.016 194.4519 80.8177 194.2657 80.7002 194.2084 80.6527 193.3426 79.5028 193.0848 79.2413 193.0491 79.1396 193.0519 78.9912 192.9976 78.8891 192.8174 78.7382 192.755 78.6649 192.6509 78.5071 192.5412 78.4024 192.4689 78.1888 192.4098 78.0862 192.2567 77.9005 192.1765 77.7693 191.8882 77.5549 191.8324 77.5225 191.692 77.3754 191.5404 77.2508 191.4414 77.2055 191.2969 77.1646 191.2219 77.1683 191.058 77.233 191.0191 77.2353 190.9525 77.1906 190.8997 77.0926 190.7126 76.9148 190.5719 76.8013 190.4338 76.7147 190.3252 76.6187 190.2129 76.501 190.1563 76.4832 189.9899 76.4621 189.8895 76.3939 189.8123 76.2804 189.7571 76.1098 189.755 76.0301 187.9587 73.9763 187.1829 74.6382 187.4147 70.4047 187.7588 64.0822 187.8674 62.0886 188.2022 55.08 188.2033 55.0449 188.8249 37.0719 189.8752 5.2986 Z" id="fips-45083"/>
<path d="M 329.2062 12.8209 335.535 13.1492 341.6683 13.4651 345.1523 13.6436 345.8429 13.6789 349.7089 13.876 350.0911 13.8989 366.6952 14.8679 371.1879 15.127 371.4415 15.1417 376.7016 15.5692 382.2223 16.0159 382.346 16.1424 382.2575 16.3145 382.0958 16.409 381.6513 16.9625 381.5301 17.2461 380.9712 19.3544 380.998 19.6723 381.0991 19.7941 382.9782 20.7511 383.3396 21.504 383.9531 23.2729 384.0395 24.0187 383.9837 24.417 383.6287 25.2082 383.232 25.5215 382.7693 25.6395 381.7272 25.9051 381.1424 26.2653 380.8129 26.7749 379.9613 28.8105 379.8257 31.4081 379.8839 33.568 380.204 34.0328 381.1352 35.0134 382.5333 37.1328 385.5216 35.0485 389.8991 31.9932 391.143 31.1246 391.9675 30.5488 396.2913 27.5278 400.0598 24.5657 404.7218 30.7217 404.7745 30.7908 404.8285 36.7411 406.2148 39.4898 404.2377 42.7882 405.4146 44.9816 408.1935 48.101 407.5578 49.1057 407.6073 49.1886 407.6662 49.2212 407.8054 49.1931 407.8389 49.2361 407.8383 49.2855 407.7745 49.3883 407.7765 49.4921 407.8714 49.6688 407.9263 49.7527 408.0047 49.96 408.0354 50.1947 408.103 50.3816 408.1038 50.4742 408.0846 50.5724 408.1095 50.6927 408.1104 50.8133 408.1826 50.9178 408.3531 51.0114 408.4136 51.1214 408.3579 51.2206 408.3736 51.2656 408.4621 51.3256 408.4698 51.3963 408.4423 51.4842 408.4582 51.581 408.5416 51.731 408.5768 51.8208 408.6832 51.9905 408.6871 52.0672 408.6664 52.0965 408.5892 52.1798 408.5437 52.3217 408.3829 52.5034 408.3907 52.6695 408.3252 52.9339 408.3887 53.0236 408.5619 53.1532 408.6455 53.1522 408.6763 53.1416 408.6688 52.9866 408.706 52.8567 408.7549 52.8149 408.839 52.8523 408.939 52.964 408.9793 53.0451 408.9534 53.1886 409.1059 53.6621 409.2864 53.5363 409.3638 53.4606 409.4787 53.4608 409.5258 53.3894 409.6336 53.3073 409.7913 53.1597 409.8964 53.1128 410.0316 53.0981 410.0686 53.1451 411.1887 60.371 409.363 65.6218 409.3301 73.8504 411.2049 76.7895 407.6296 80.03 406.0696 82.1267 383.8587 82.0473 359.8903 82.0119 334.6481 81.6399 310.4131 81.6627 313.1776 79.7698 313.9289 78.1153 314.5881 76.6979 312.9912 74.9595 310.4658 65.9108 311.7584 63.4373 311.3155 58.7028 308.2768 56.4972 311.0388 49.3769 309.0536 40.4202 313.5005 36.2115 322.1677 36.1023 323.0503 24.3456 323.4725 18.4558 329.2062 12.8209 Z" id="fips-45091"/>
<path d="M 310.4131 81.6627 334.6481 81.6399 359.8903 82.0119 383.8587 82.0473 406.0696 82.1267 409.7106 88.6937 409.3535 94.5104 411.3781 105.1348 412.3231 107.2075 407.6659 112.6772 406.3575 119.3793 407.177 127.0979 408.6726 129.5167 410.2392 135.8985 409.4733 137.87 388.7665 136.9027 379.2893 135.8087 348.6892 133.5957 319.3204 131.8107 320.5155 119.4556 316.2394 115.3878 314.2367 111.067 314.2699 107.3535 313.9281 101.3001 310.3059 101.3044 309.6739 97.142 314.5207 93.8567 314.4853 89.664 310.4131 81.6627 Z" id="fips-45023"/>
<path d="M 219.5256 339.8516 231.6064 328.6712 232.7912 327.5831 245.1394 316.2041 258.9565 303.4282 269.5337 293.6277 280.2573 283.6763 291.5957 273.1503 293.7377 271.1798 295.5101 274.1212 297.8037 274.9324 299.9956 280.2747 303.5701 284.1846 309.7785 287.1096 312.1497 287.3792 316.2404 291.7625 317.7191 298.2474 319.6341 300.483 329.2806 302.3908 338.3721 306.0866 341.1916 308.4224 341.7084 308.1771 342.6835 307.805 354.2888 315.3455 357.6487 316.5494 352.8856 321.5825 332.7244 342.7923 326.7595 348.6532 326.4503 349.0573 325.5847 349.7126 302.2988 370.6282 261.6092 407.3065 261.4194 406.8779 260.8507 406.5716 260.5348 406.1873 259.8672 403.7517 259.6518 403.4084 258.8016 402.6578 258.0637 402.5106 257.7769 402.6486 257.6234 402.9083 258.2363 403.8978 258.1963 404.6204 257.9585 404.9195 257.0146 405.2523 256.0574 405.1834 253.5429 404.5579 253.1923 404.3136 253.0935 404.0918 253.0703 402.947 252.8242 402.3021 252.4737 402.0578 251.1519 401.4834 249.7617 401.0486 249.1608 400.1223 249.1325 400.0787 248.2535 399.2457 246.6625 398.4083 245.7592 397.2678 245.7332 397.235 245.5712 396.5906 246.5751 393.4675 247.3837 393.4273 247.7949 393.3397 248.0911 392.9293 248.1119 392.1509 247.1525 391.0032 245.8526 390.0067 244.2632 389.4489 243.9493 388.9237 244.2523 387.0992 244.9603 386.7849 245.6989 386.772 245.9149 386.995 246.2525 386.7974 246.8481 385.9399 246.659 385.3476 245.5993 384.6258 243.2096 383.856 242.788 384.0727 241.8711 385.1682 240.4841 384.5518 240.0775 383.2424 238.2943 382.1424 238.343 381.7184 238.3708 381.0766 238.1651 380.6685 237.8134 380.3731 237.4238 380.5416 237.163 381.1358 236.7688 381.7553 236.2922 381.7505 236.1172 381.5099 235.9668 381.0573 235.6271 380.669 234.7912 379.9957 234.6603 379.673 234.8702 378.2397 233.7434 377.4747 232.3978 377.8221 231.6432 377.7941 231.2266 377.5286 231.2157 376.9662 231.537 376.5807 231.9291 376.1102 232.0716 375.3084 230.4281 373.6845 230.0996 373.0185 230.1736 372.3565 230.6132 372.0198 231.3011 371.9869 232.132 372.7186 232.8016 372.8813 233.6289 372.2925 233.786 371.6916 232.7883 370.4891 232.0554 366.9118 231.7529 366.2242 231.8159 365.6348 232.1606 365.2752 232.9011 365.1241 234.1543 364.8421 234.652 364.3479 234.8084 363.8729 234.7946 363.3733 234.507 363.0077 233.8699 362.6219 233.4837 361.9071 233.5672 361.1589 233.8758 360.6175 234.594 360.284 235.349 359.8644 235.8404 359.0052 235.828 358.5586 235.8188 358.2305 234.6172 356.0564 233.7823 354.0144 233.7184 353.8583 233.2052 353.2705 232.4232 352.7603 231.1536 352.4055 230.37 352.0558 228.8869 351.2675 226.939 350.2318 225.8548 349.8184 224.6688 349.5243 223.7866 349.0125 223.2249 348.3034 222.9662 347.4573 223.0737 346.1482 222.8213 345.4072 221.2824 342.2371 220.7842 341.87 220.3175 341.6841 220.235 341.5827 219.8491 340.1525 219.601 339.8886 219.5256 339.8516 Z" id="fips-45003"/>
<path d="M 261.6092 407.3065 302.2988 370.6282 325.5847 349.7126 326.4503 349.0573 331.2478 350.9938 338.4144 350.9608 344.785 356.9426 348.1888 359.0497 351.5788 359.2903 353.1401 367.757 352.7853 374.1037 351.761 395.6082 351.7607 406.2774 350.5869 415.3601 352.5081 417.5058 354.0885 421.6238 356.3253 423.8335 353.4004 423.4282 344.3382 425.3651 334.3344 425.827 331.9772 425.8339 327.4268 425.844 312.5974 420.3503 297.7164 415.5867 285.45 428.2754 285.3103 428.199 284.8654 428.1474 282.432 428.3952 281.5894 428.5896 280.7316 428.5429 280.044 428.2565 278.0385 426.5139 273.8315 424.573 271.5839 423.7716 271.0965 423.7274 270.5406 423.8433 270.2888 423.781 268.1991 422.2374 266.9973 421.1429 263.7385 418.7055 261.8561 416.6609 260.525 415.063 260.3171 413.8362 259.9396 412.7886 258.9987 410.8323 259.0001 410.6717 260.1377 409.3366 260.6256 409.2806 260.997 409.0831 261.6336 407.3617 261.6092 407.3065 Z" id="fips-45011"/>
<path d="M 699.7855 193.599 705.4141 188.621 706.6259 185.187 709.0668 184.2699 709.0687 184.2717 709.0813 184.2842 721.8174 196.7693 727.2389 202.0759 736.3435 210.9765 739.7619 214.3149 742.293 216.7854 745.5739 220.0157 752.9791 227.2998 755.936 230.2058 760.1444 234.3394 769.8725 243.8832 770.2247 244.2864 771.4737 245.349 778.3185 252.184 780.1724 253.9768 780.3875 254.1848 780.3922 254.1894 785.3204 258.9525 786.2456 259.8463 792.3022 265.8595 799 272.502 796.8722 273.2088 791.7388 274.0359 777.2827 279.7112 770.377 283.3613 765.8921 286.4079 765.0554 286.9761 760.7293 289.9122 754.1232 295.0741 745.9255 302.831 737.5388 312.0079 733.6239 316.2868 730.0577 320.9939 723.254 329.9644 720.9084 330.7229 720.8176 329.9879 706.6136 330.1973 706.3989 328.4524 707.2372 324.6874 703.1277 323.8683 698.8132 313.2545 697.8259 313.2285 697.7209 309.378 691.2679 303.7764 690.2554 299.3543 686.1057 295.3231 686.0639 293.5776 684.4388 292.615 681.3647 288.1419 679.2365 282.0615 681.084 279.0394 678.8152 277.0664 679.6126 269.1785 678.4152 266.4415 675.2468 264.8893 674.6388 265.9866 669.4238 258.2526 670.3206 256.5836 665.6361 251.163 666.9034 249.2819 666.6626 246.0716 670.518 243.3676 671.6102 239.1312 677.7226 236.0659 681.3275 231.1943 680.015 226.8365 687.3012 218.0417 686.923 215.575 689.5015 209.2818 692.8438 208.1579 695.6649 202.9959 699.4476 200.0508 698.7938 199.1855 699.847 198.1991 699.7855 193.599 Z" id="fips-45051"/>
<path d="M 336.509 198.6818 339.8782 199.1118 342.9206 200.6827 347.3772 206.0596 351.5082 205.5246 359.48 211.8041 361.0566 207.8281 359.0271 202.6186 373.1938 203.9456 377.5187 200.2654 382.0594 199.4008 382.4691 200.1681 395.4344 196.3247 405.1201 194.8784 418.0192 192.9697 415.5256 198.9624 411.1907 209.4555 410.9489 210.4523 413.7948 211.9855 418.994 216.9853 426.4084 224.1061 435.764 233.0766 440.144 230.5986 445.8173 229.6666 452.9059 226.8938 449.5306 230.2395 453.3111 235.3837 454.5508 235.2486 455.4691 238.9809 451.4359 246.156 447.9258 246.9752 450.1038 253.5365 453.0394 253.8301 450.9647 257.1867 452.0934 260.2011 450.0068 263.5042 452.8604 267.8786 451.4894 273.6468 450.126 276.4876 452.5455 279.1676 453.1238 284.1455 456.3867 289.7772 454.8263 295.5958 452.417 298.461 446.3497 294.8266 445.9025 292.5004 441.3107 295.921 435.3062 293.6499 432.8313 295.8075 431.2213 291.8269 431.1672 294.7801 429.0958 292.321 424.9028 294.9328 425.2175 293.3479 421.1065 292.2836 419.754 290.9069 417.4893 291.4851 416.1179 288.3299 411.3972 286.5602 409.0526 283.969 405.9283 285.3442 402.7961 284.3449 403.5002 280.4897 398.9153 281.3806 397.2092 278.8862 394.6887 277.4874 391.3931 277.3064 391.3101 275.5523 389.0485 274.9191 389.5874 272.2678 386.9623 271.0044 387.5658 266.1812 384.0762 263.8959 386.1088 260.5522 386.0914 260.5021 385.8162 259.6211 381.3966 251.4633 379.7937 246.561 371.7785 242.2095 370.664 239.4789 368.8528 236.5236 368.2282 235.6892 365.9018 233.1523 363.7002 231.3273 360.5935 229.414 360.3249 228.7573 358.1067 228.2315 350.2646 226.389 343.2086 227.2425 341.1526 223.1878 337.2516 218.4213 337.2819 217.9764 338.8722 214.168 336.8689 209.2371 332.8085 207.0733 331.7581 205.5736 336.509 198.6818 Z" id="fips-45079"/>
</g>
</svg>