<?xml version="1.0"?>
<svg xmlns="http://www.w3.org/2000/svg" version="1.2" baseProfile="tiny" width="800" height="497" viewBox="0 0 800 497" stroke-linecap="round" stroke-linejoin="round">
<g id="cb_2018_us_county_5m">
<path d="M 596.68 306.8304 633.5566 305.9403 635.2111 356.1743 619.654 356.6989 598.3228 357.1752 597.5953 345.6485 596.68 306.8304 Z" id="fips-46035"/>
<path d="M 456.6262 159.3579 466.9089 159.3149 493.329 159.0631 493.8236 209.0535 495.0448 209.0546 495.6538 259.4456 467.3329 260.0668 465.5397 258.4195 461.5919 256.7892 458.3981 256.5469 458.0501 209.2951 456.7535 209.3009 456.6262 159.3579 Z" id="fips-46069"/>
<path d="M 6.3333 299.6141 76.3166 302.1397 147.1248 304.7079 145.5766 310.8992 146.0682 312.891 141.4743 316.8135 137.2503 323.5995 135.8491 323.4898 134.7714 326.6433 133.0531 328.0046 133.8405 328.3294 133.3023 331.1679 131.3835 332.6248 129.8815 331.3798 128.4339 332.27 127.3112 331.0638 124.1689 329.8319 122.345 331.7273 121.9657 334.7717 120.8033 337.7559 118.1198 338.407 116.4713 337.6096 113.6665 339.3611 113.0651 357.784 16.491 353.6852 3.9383 353.2534 4.1029 349.6474 4.1045 349.6108 4.4414 341.7179 4.5975 338.7541 4.62 338.1622 4.6205 338.1136 5.6692 314.8037 5.6905 314.3302 5.7603 312.7292 6.3333 299.6141 Z" id="fips-46033"/>
<path d="M 739.4574 165.8894 738.6644 141.2534 782.0816 139.2669 782.0818 139.2695 782.1544 141.3755 782.5316 148.8044 782.578 149.378 782.6728 151.7478 783.2808 163.8126 783.2815 163.8271 783.3059 164.9388 783.3358 165.709 783.3546 165.9697 783.4701 168.0078 783.5901 170.0632 783.5791 170.2466 783.8936 176.2614 783.9633 178.4389 784.4176 188.6901 784.4186 188.7123 784.426 188.7815 784.9831 201.1551 784.9755 201.2154 740.8948 203.1217 739.4574 165.8894 Z" id="fips-46039"/>
<path d="M 693.5404 354.2455 721.7032 353.2356 742.8865 352.3571 744.2885 386.9249 745.3176 411.798 720.6788 412.8454 720.2232 400.445 695.3795 401.424 693.5404 354.2455 Z" id="fips-46125"/>
<path d="M 555.3841 195.7378 592.3887 195.1663 629.4022 194.3873 641.76 194.0972 642.4474 206.487 643.8352 256.3786 594.8509 257.4556 557.0983 258.2447 556.0685 208.1442 555.6178 207.8871 555.3841 195.7378 Z" id="fips-46005"/>
<path d="M 644.262 256.3658 693.341 254.8259 695.1301 304.3141 670.5126 305.0656 645.5253 305.718 644.262 256.3658 Z" id="fips-46097"/>
<path d="M 626.9234 119.8569 676.0311 118.5933 677.2938 155.4462 677.5983 155.7758 678.007 168.2397 679.1663 205.4084 642.4474 206.487 641.76 194.0972 629.4022 194.3873 628.4278 157.1391 627.8581 157.1515 626.9234 119.8569 Z" id="fips-46025"/>
<path d="M 626.6092 107.4085 625.4003 57.6757 685.9864 55.899 687.0061 59.9969 700.7579 59.5835 702.2362 96.7876 703.01 117.6157 701.6332 117.7567 676.0311 118.5933 626.9234 119.8569 626.6092 107.4085 Z" id="fips-46037"/>
<path d="M 205.0367 372.8217 296.6859 374.5278 296.0479 430.4459 295.923 430.4474 295.8058 430.4396 267.5718 430.1626 254.5048 430.0763 245.2928 429.8606 231.0441 429.2045 206.7485 428.6874 207.2667 410.1423 204.4032 410.0662 205.0367 372.8217 Z" id="fips-46007"/>
<path d="M 467.3329 260.0668 495.6538 259.4456 502.154 259.1401 533.9957 258.6688 534.4835 296.035 493.316 296.8357 490.3464 296.737 491.2949 292.7331 491.2894 289.9976 490.4737 288.0219 483.4557 281.7476 481.5776 280.7578 474.1921 279.6539 471.8083 277.5773 469.3102 274.4096 468.878 273.0483 469.723 269.2894 471.0664 266.0801 469.955 263.0765 467.3329 260.0668 Z" id="fips-46017"/>
<path d="M 546.7526 295.818 547.4472 295.848 595.7487 294.4633 596.0122 305.8766 596.68 306.8304 597.5953 345.6485 598.3228 357.1752 558.3991 357.9217 549.1944 358.108 548.0806 308.1817 547.0685 308.2121 546.7526 295.818 Z" id="fips-46003"/>
<path d="M 716.2302 204.1894 740.8948 203.1217 784.9755 201.2154 784.9736 201.2306 785.0615 203.6109 785.1503 205.0294 785.2207 206.4686 785.4292 211.2964 785.4338 211.6068 785.5439 213.1 785.6576 215.7926 785.985 223.1983 786.0184 224.0569 786.1657 227.4171 786.1936 228.1731 786.2541 229.5333 786.2902 229.9771 786.2908 230.2027 786.3674 231.9947 786.3748 232.2953 786.4707 234.098 786.4669 234.2829 786.5686 236.198 786.5698 236.4335 786.6274 238.0509 786.6352 238.4777 786.7316 240.0087 786.751 240.4378 786.8361 242.3933 786.8147 242.4924 787.1841 250.7309 787.1848 250.7473 755.067 252.3446 742.5498 252.8496 717.9446 253.7889 716.2302 204.1894 Z" id="fips-46011"/>
<path d="M 552.5312 108.6448 626.6092 107.4085 626.9234 119.8569 627.8581 157.1515 628.4278 157.1391 629.4022 194.3873 592.3887 195.1663 555.3841 195.7378 554.9394 170.887 554.7179 158.1914 553.59 158.2046 552.5312 108.6448 Z" id="fips-46115"/>
<path d="M 493.329 159.0631 553.59 158.2046 554.7179 158.1914 554.9394 170.887 555.3841 195.7378 555.6178 207.8871 556.0685 208.1442 557.0983 258.2447 533.9957 258.6688 502.154 259.1401 495.6538 259.4456 495.0448 209.0546 493.8236 209.0535 493.329 159.0631 Z" id="fips-46059"/>
<path d="M 719.8788 303.4883 744.6221 302.4518 783.7873 300.8677 789.412 300.3368 789.7201 306.6725 789.7896 308.6278 790.4435 323.1632 790.536 325.2521 790.9618 334.5418 790.9807 334.8843 791.1038 337.6487 791.1145 337.8118 791.6872 350.1828 777.4126 350.8143 776.6146 350.858 776.6146 350.8603 776.3516 350.8709 765.3632 351.3641 761.1855 351.5424 757.0274 351.7297 756.7575 351.7449 746.4836 352.1951 742.8865 352.3571 721.7032 353.2356 720.3515 315.8926 719.8788 303.4883 Z" id="fips-46099"/>
<path d="M 676.0311 118.5933 701.6332 117.7567 703.01 117.6157 737.4762 116.5027 738.6644 141.2534 739.4574 165.8894 727.1647 166.3968 702.5972 167.3487 678.007 168.2397 677.5983 155.7758 677.2938 155.4462 676.0311 118.5933 Z" id="fips-46029"/>
<path d="M 533.9957 258.6688 557.0983 258.2447 594.8509 257.4556 595.7487 294.4633 547.4472 295.848 546.7526 295.818 534.4835 296.035 533.9957 258.6688 Z" id="fips-46073"/>
<path d="M 430.2674 259.8881 433.1493 265.6743 435.8144 269.2448 438.2946 270.0834 447.6906 268.3044 449.5693 268.7114 459.4347 273.0967 462.0009 273.6074 463.773 272.778 465.1345 269.8965 463.9226 266.3167 461.3697 264.4452 459.0145 263.5285 455.1375 263.022 453.5944 261.2873 453.6306 260.0555 456.2984 256.9984 458.3981 256.5469 461.5919 256.7892 465.5397 258.4195 467.3329 260.0668 469.955 263.0765 471.0664 266.0801 469.723 269.2894 468.878 273.0483 469.3102 274.4096 471.8083 277.5773 474.1921 279.6539 481.5776 280.7578 483.4557 281.7476 490.4737 288.0219 491.2894 289.9976 491.2949 292.7331 490.3464 296.737 489.6218 299.4631 490.7853 302.7444 493.165 304.085 495.3923 307.2588 492.1613 313.261 489.4919 317.0356 484.9875 319.6286 484.1158 323.896 485.3052 326.2225 485.416 329.536 483.8964 330.8322 480.3472 332.2095 479.0389 334.2401 480.1253 336.6602 483.172 337.1768 487.0982 336.2147 488.7512 336.4208 490.8148 338.4746 492.1152 342.2314 492.5682 347.2344 494.239 350.0457 498.4747 354.2831 498.5543 356.1163 497.0186 358.7725 497.0069 358.7994 472.4888 359.0268 471.4801 359.0487 468.7564 359.0487 466.0699 359.067 464.2998 359.088 463.2446 357.5391 463.2302 355.1418 463.2158 352.8361 463.1903 348.9793 463.1804 347.6863 463.1525 343.8943 463.1224 339.6229 463.0714 335.487 463.0175 330.671 462.9956 325.1223 462.8645 324.5959 462.7868 324.6608 462.7105 324.6964 462.4968 324.9228 462.2853 325.1308 462.0805 325.2541 461.7919 325.3772 461.5459 325.453 461.2198 325.4189 461.0978 325.3111 460.948 325.1102 460.9896 324.8353 461.065 324.5469 461.1001 324.4114 461.0759 324.0188 461.1368 323.8042 461.1659 323.3978 461.1271 323.1085 461.0987 322.8643 460.9699 322.3509 460.7224 321.8983 460.3853 321.6882 460.0472 321.4686 459.5666 321.0739 459.3348 321.0026 459.0156 321.0244 458.7888 321.1767 458.5853 321.2677 458.4444 321.4664 458.4456 321.7634 458.5225 322.0813 458.5978 322.2755 458.6895 322.5389 458.6739 322.8533 458.7552 323.1364 458.8122 323.3364 458.8501 323.6172 458.8585 324.2258 459.0027 324.4929 459.0069 324.9443 459.0148 325.3043 458.9384 325.5625 458.7708 325.8112 458.611 325.9869 458.4835 326.1725 458.3016 326.2875 458.1135 326.3949 457.7737 326.5191 457.0096 326.5209 456.6532 326.5428 456.4932 326.4534 456.3811 326.2941 456.201 326.1299 456.0645 325.7354 456.1234 325.3796 456.2172 325.1157 456.3961 324.8586 456.5004 324.6912 456.6253 324.5319 456.6784 324.3896 456.7913 324.2027 456.8873 323.9432 456.9851 323.7591 457.0462 323.5676 457.0165 323.3165 456.9587 323.0982 456.9187 322.8292 456.7964 322.6074 456.6616 322.3751 456.4614 322.1754 456.1814 322.0535 455.9254 321.902 455.7008 321.9292 455.4154 322.1564 455.2487 322.4097 455.15 322.6901 454.9907 322.9596 454.8529 323.1069 454.6618 323.1822 454.4965 323.3282 454.3555 323.5312 454.2361 323.8629 454.2068 324.0862 454.1578 324.3015 454.0621 324.4946 454.0439 324.7386 454.0737 325.097 454.0816 325.3871 454.0296 325.7067 453.9742 325.8404 453.742 326.0501 453.3152 326.5577 452.8786 327.0167 452.722 327.3477 452.5103 327.5586 452.3837 327.7163 452.1536 327.8326 451.8396 327.8521 451.6058 327.7696 451.4433 327.665 451.2657 327.525 451.1208 327.3964 450.9665 327.1801 451.1334 326.9518 451.2171 326.6317 451.2879 326.3691 451.37 326.0707 451.3437 325.7233 451.3518 325.519 451.2237 325.3629 451.1337 325.1347 451.0984 324.8959 451.0784 324.7445 451.0222 324.1196 450.9624 323.8949 450.7944 323.7071 450.529 323.6172 450.1381 323.6724 449.7889 323.8296 448.8703 324.7142 448.6682 326.4845 449.2144 327.2063 450.2478 328.4312 450.1164 329.1254 449.9661 329.089 449.7591 329.1267 448.3856 328.9911 446.5003 329.2087 445.6902 329.0387 444.854 329.1876 444.9085 329.6561 444.3161 330.6092 442.8761 331.1754 441.5386 331.8537 439.6786 330.9048 438.961 330.444 438.772 331.0124 439.2701 331.541 439.4487 331.8215 439.0627 332.0556 438.678 331.8285 438.3167 331.7829 438.3478 332.9816 438.0753 334.2161 437.044 334.4397 436.4193 334.1855 435.712 333.3981 435.9872 333.0082 435.3311 331.682 434.0194 330.811 433.2241 331.4456 432.812 331.7603 431.9683 332.4534 431.1757 331.7923 430.3981 331.1982 429.2593 330.9684 429.0105 330.9514 428.8093 331.3559 428.7512 331.7087 428.3137 332.1256 427.5286 331.7664 426.7853 331.7166 426.6176 332.0581 425.847 332.2108 425.6814 331.6463 424.9183 330.7833 424.146 330.6953 424.246 331.1268 423.7872 331.7807 423.4404 331.7851 423.1203 331.0172 423.4024 330.2319 422.9726 329.5986 422.2438 329.9848 421.7443 330.4462 421.2749 330.8022 420.7266 330.6188 420.2092 330.1342 419.3054 330.515 419.429 331.0087 418.6999 331.7625 417.9702 331.7953 416.1284 331.8494 415.6699 332.5624 414.8114 332.6083 414.3255 332.1615 412.9499 331.9639 412.9135 332.4181 412.3696 332.8136 411.6875 332.0067 411.1803 330.9299 410.5096 330.3282 409.5935 330.1192 409.2882 330.6653 409.469 330.8092 409.7452 331.0202 409.3907 331.418 409.0565 331.2763 407.6354 330.1811 406.7667 329.9387 405.6648 329.8776 404.5124 329.8445 403.5937 330.413 403.4962 331.0017 403.1463 331.9555 402.8299 332.571 402.304 332.9971 402.1388 332.6771 401.519 331.9882 400.91 330.6033 401.024 329.3768 400.9138 328.8544 400.401 328.7083 400.2833 328.746 398.0812 330.2732 396.6962 329.4165 395.2005 331.1835 392.988 327.8473 389.1124 328.2986 389.091 309.7001 386.3305 309.7081 386.296 263.7221 386.2977 260.016 430.2674 259.8881 Z" id="fips-46085"/>
<path d="M 466.4362 109.5613 552.056 108.649 552.5312 108.6448 553.59 158.2046 493.329 159.0631 466.9089 159.3149 466.4362 109.5613 Z" id="fips-46049"/>
<path d="M 451.2249 10.2658 453.7196 10.2436 455.8105 10.2132 461.8517 10.164 464.0762 10.1458 473.5833 10.1678 473.8702 10.1682 482.7157 10.0818 484.2756 10.06 484.9792 10.0532 488.3116 10.0324 488.3301 10.0322 491.0037 10.0077 493.0516 9.9984 494.3739 9.9788 495.1394 9.9708 496.9804 9.9673 500.5063 9.9227 500.5657 9.9222 501.3635 9.9056 501.4701 9.9054 512.4224 9.7536 513.3669 9.7367 522.025 9.6451 522.0362 9.645 531.9916 9.5495 532.0957 9.5478 549.9908 9.3555 550.8681 58.9983 452.585 59.9201 451.6087 59.9211 451.2249 10.2658 Z" id="fips-46089"/>
<path d="M 619.654 356.6989 635.2111 356.1743 672.2501 354.9512 693.5404 354.2455 695.3795 401.424 670.5662 402.3422 633.7413 403.4677 624.7758 403.7383 625.5546 401.3507 621.2984 399.7541 619.8664 358.6746 619.654 356.6989 Z" id="fips-46067"/>
<path d="M 693.341 254.8259 717.9446 253.7889 742.5498 252.8496 744.6221 302.4518 719.8788 303.4883 695.1301 304.3141 693.341 254.8259 Z" id="fips-46079"/>
<path d="M 549.9908 9.3555 559.8294 9.233 571.5946 9.1308 580.7868 9.0392 603.5289 8.5459 603.6276 8.5437 614.9649 8.2515 621.1553 8.0971 621.1653 8.0969 623.2726 8.0584 624.0788 8.0396 624.734 32.8056 625.4003 57.6757 626.6092 107.4085 552.5312 108.6448 552.056 108.649 551.62 83.8198 551.163 59.9158 550.8681 58.9983 549.9908 9.3555 Z" id="fips-46013"/>
<path d="M 633.5566 305.9403 645.5253 305.718 670.5126 305.0656 670.8513 317.4176 671.1999 321.8802 672.2501 354.9512 635.2111 356.1743 633.5566 305.9403 Z" id="fips-46061"/>
<path d="M 594.8509 257.4556 643.8352 256.3786 644.262 256.3658 645.5253 305.718 633.5566 305.9403 596.68 306.8304 596.0122 305.8766 595.7487 294.4633 594.8509 257.4556 Z" id="fips-46111"/>
<path d="M 678.007 168.2397 702.5972 167.3487 727.1647 166.3968 739.4574 165.8894 740.8948 203.1217 716.2302 204.1894 679.1663 205.4084 678.007 168.2397 Z" id="fips-46057"/>
<path d="M 670.5126 305.0656 695.1301 304.3141 719.8788 303.4883 720.3515 315.8926 721.7032 353.2356 693.5404 354.2455 672.2501 354.9512 671.1999 321.8802 670.8513 317.4176 670.5126 305.0656 Z" id="fips-46087"/>
<path d="M 397.307 109.6262 452.7836 109.5892 466.4362 109.5613 466.9089 159.3149 456.6262 159.3579 382.6588 159.51 381.5554 155.8127 380.7484 146.3111 382.3259 143.1972 384.1862 141.0067 386.8975 140.7342 391.6803 142.6662 394.3355 142.8356 395.3352 142.1073 395.1416 140.1281 391.6167 136.4256 390.8766 134.2987 390.7197 130.7004 394.228 125.1233 395.4109 122.1914 395.8174 116.5619 397.1935 112.8433 397.307 109.6262 Z" id="fips-46107"/>
<path d="M 125.8139 109.9314 127.3684 85.1743 129.8061 35.7065 130.8705 5.3923 133.0136 5.4706 137.0082 5.5963 154.4229 6.1399 157.4818 6.2027 157.6409 6.2117 158.2161 6.2198 159.7127 6.2437 160.6127 6.2767 168.9513 6.5569 169.7088 6.5947 177.1506 6.7777 177.9908 6.8041 178.7828 6.8368 180.0906 6.8719 182.1784 6.9341 182.1821 6.9414 182.6974 6.9438 183.6734 6.9685 184.0873 6.9912 184.8418 7.0296 185.0621 7.0285 185.4191 7.0289 185.426 7.0331 189.2413 7.1399 189.3309 7.1303 191.8287 7.22 202.7911 7.5063 206.8512 7.6163 206.8805 7.617 208.5951 7.6547 208.7415 7.6582 208.8977 7.6587 209.9941 7.6849 210.9959 7.7186 211.9737 7.7318 212.0538 7.7107 215.7361 7.8255 215.9779 7.8247 218.3812 7.8814 224.3667 8.0279 222.9701 75.4811 221.5945 137.5174 124.9721 134.6851 125.3953 122.3016 125.8139 109.9314 Z" id="fips-46105"/>
<path d="M 296.6859 374.5278 389.7256 375.0329 402.0142 374.9873 402.0636 412.4209 403.6353 412.4003 403.6829 430.9755 403.6807 430.9755 395.3841 430.9567 394.7652 430.9431 387.8825 430.9403 387.2701 430.9366 375.0035 430.8348 368.5643 430.8526 367.5519 430.8806 366.5991 430.8876 359.0424 430.8747 358.382 430.9419 333.7371 430.763 331.6014 430.8013 329.6345 430.7813 324.2348 430.7518 323.626 430.7335 319.8372 430.7499 315.3722 430.6457 296.2063 430.4441 296.1687 430.4444 296.0479 430.4459 296.6859 374.5278 Z" id="fips-46121"/>
<path d="M 472.4888 359.0268 497.0069 358.7994 495.8056 363.3489 498.8803 366.6206 501.4757 367.6915 510.6851 367.8446 512.1862 369.0115 515.0255 375.5891 516.8561 376.653 519.2756 381.4327 521.0764 384.0712 526.2375 388.2944 530.362 392.7585 534.082 394.2211 539.1807 394.3387 541.2108 397.2023 541.3341 403.8692 542.6286 406.7671 543.8949 407.4506 550.4905 407.982 552.2756 408.5487 554.7198 410.8464 558.5576 416.5816 561.1064 418.3 565.8557 418.9615 568.6175 418.4958 575.0363 420.5394 578.4975 423.2716 580.4502 426.0971 581.3669 429.0407 574.4159 429.2086 574.0117 429.1973 564.1076 429.407 563.9087 429.3976 555.885 429.5757 553.5875 429.6203 549.7285 429.7006 547.3574 429.7321 539.4194 429.8925 539.0835 429.8717 537.4132 429.9079 537.403 429.9082 532.9246 429.9728 528.9226 430.0362 526.6712 430.0568 526.6306 430.0757 520.5982 430.1461 520.403 430.1587 514.7501 430.2349 514.4274 430.2096 513.1631 430.2499 512.092 430.2468 508.5585 430.3438 504.4541 430.3702 502.381 430.4159 502.3646 430.4158 501.5014 430.4127 498.8533 430.4555 492.6609 430.5159 490.4298 430.5509 490.1692 430.5604 489.8403 430.5705 487.6136 430.5761 479.6916 430.683 479.3593 430.6699 477.6587 430.6767 477.294 430.6836 473.1374 430.7314 472.4888 359.0268 Z" id="fips-46053"/>
<path d="M 203.1106 328.3092 205.4365 326.6743 206.3901 328.2554 205.8574 329.6061 207.2192 330.6578 207.5308 329.2462 213.9903 330.2143 213.643 328.8566 214.9965 326.7957 215.5568 327.4927 216.4098 286.64 217.6239 286.661 314.5991 288.142 314.3526 310.13 311.8761 309.8886 312.0628 308.8916 309.8615 309.3567 309.9371 310.7056 308.1196 309.6013 306.7642 310.0169 307.1136 311.5536 304.9002 313.5088 304.3182 311.6034 303.2407 313.5642 302.3293 313.2474 301.4029 315.4524 299.6985 314.112 298.4717 315.2784 297.3772 317.3875 296.6859 374.5278 205.0367 372.8217 205.2835 360.3998 202.3885 360.3556 203.1106 328.3092 Z" id="fips-46071"/>
<path d="M 698.6112 5.7518 706.8801 5.4235 709.5526 5.2923 711.0224 5.1637 719.3262 4.9281 721.2362 4.874 721.4031 4.8006 731.7829 4.4033 740.6082 4.0551 741.9601 3.9373 750.9099 3.562 752.9611 3.486 755.021 3.4183 757.0892 3.3621 759.1494 3.2584 760.2566 3.2244 761.2206 3.1947 763.2576 3.0965 764.5697 3.0396 764.5449 4.3266 764.599 5.0654 764.6402 5.2801 764.4034 5.6668 764.3652 5.8472 764.4395 6.3883 764.5445 6.5256 764.6655 6.7302 764.4092 7.317 764.3217 7.6773 764.3753 8.2764 764.4019 9.3472 764.3737 9.7963 764.1265 10.0075 764.0646 11.4692 764.1725 12.1264 763.9277 12.8569 763.9644 13.1136 764.1291 13.5937 764.0981 16.2421 763.9173 16.7012 763.8321 16.9933 763.8687 17.6814 763.6921 18.7319 763.3975 19.5742 763.0224 20.1029 762.4304 20.4973 762.097 20.8085 761.6195 21.6105 761.0941 22.6743 760.6377 23.3566 760.0943 23.864 759.4031 24.3436 759.1722 24.5949 759.0213 24.8917 758.9329 25.3324 758.3706 26.4236 758.1864 26.9369 758.1216 27.6222 757.9326 28.4214 756.9926 30.3312 756.0122 31.5367 755.0499 32.4866 753.6406 33.4641 751.3097 34.7624 748.0295 37.1898 747.5223 37.6111 746.8909 38.7574 746.5443 39.264 742.7456 42.1659 740.239 44.3008 740.1192 44.4627 739.6057 44.6774 739.308 44.9856 738.8379 45.6279 738.5268 46.4577 737.9093 49.3686 737.86 50.0246 737.4692 50.8703 737.3785 51.3144 737.8104 51.8194 738.2502 52.2822 738.788 52.9134 738.8279 52.965 739.7249 54.054 743.2545 58.2999 743.55 58.4575 744.0972 58.9353 745.0521 60.2431 745.4674 60.9877 747.132 62.9996 747.6411 63.9105 748.4925 65.6956 749.3138 67.5847 749.5208 68.1871 749.5641 68.7274 749.6738 68.9983 750.1127 69.7268 750.3156 70.68 750.7757 71.8101 750.9208 72.0495 751.6705 72.8096 753.1093 74.8294 754.0554 76.3168 755.0592 77.5478 755.9758 78.3351 756.3129 78.4717 756.8162 78.4902 757.3295 78.4208 758.1448 78.6046 759.5769 78.3823 760.3102 78.4787 761.2535 78.4355 762.6108 78.5394 764.2996 79.167 765.9923 80.1611 766.604 80.6216 767.3726 80.9339 768.3211 81.4323 769.974 82.0788 770.605 82.1522 771.4966 82.3754 772.4329 82.7407 773.8528 83.7938 774.4824 84.1026 775.8352 85.2427 776.5595 86.7544 776.9278 87.686 777.9108 89.5063 725.4912 91.7163 724.1985 96.0607 702.2362 96.7876 700.7579 59.5835 698.6098 5.7518 698.6112 5.7518 Z" id="fips-46109"/>
<path d="M 670.5662 402.3422 695.3795 401.424 720.2232 400.445 720.6788 412.8454 722.1806 453.3146 721.8056 453.1109 721.4744 453.0047 720.9354 452.9051 720.263 452.8867 719.3005 452.6932 717.9534 452.6504 717.4984 452.5215 716.9185 452.1439 716.7514 451.9516 716.5897 451.6255 716.4617 450.6099 716.3318 450.2095 716.0172 449.5364 715.9621 449.2818 715.9804 447.2853 715.8205 446.9582 714.421 446.2253 713.7903 445.9905 712.6605 445.7106 712.3245 445.7163 711.8102 445.9523 710.6455 446.1849 708.3376 445.8515 707.0086 444.4465 706.5174 444.1862 706.2912 444.2367 706.0644 444.4573 705.3474 444.851 704.6848 445.0532 704.4904 445.1615 704.2729 445.4249 704.0441 445.5896 703.4862 445.8388 702.9648 445.9888 701.0456 446.209 700.8123 446.1733 700.0784 445.7279 699.3557 445.0995 699.2029 444.7898 697.4002 444.9878 696.8389 444.9236 696.2871 444.526 695.879 444.4567 695.3494 444.6155 694.9749 444.8333 694.3568 445.5337 694.1723 445.9614 694.132 446.1863 693.4857 446.9399 692.757 447.5985 692.4299 447.7364 691.3946 447.7969 690.9501 447.6849 690.6935 447.4957 690.3866 447.384 689.4528 447.2328 687.9468 447.2961 687.2533 447.1397 686.7497 446.927 686.4414 446.6563 686.3008 446.3718 685.8234 446.208 684.6833 446.9216 683.0338 447.4977 681.4096 447.8483 679.8985 447.9659 678.5675 447.709 676.7309 447.1705 675.9514 446.8537 675.4708 446.569 674.6281 446.5907 673.7499 446.8717 672.1883 447.6577 670.5662 402.3422 Z" id="fips-46135"/>
<path d="M 624.7758 403.7383 633.7413 403.4677 670.5662 402.3422 672.1883 447.6577 671.0215 448.2447 669.8695 448.7066 668.7826 448.9688 666.8783 449.1137 665.3517 448.9665 663.3027 448.5092 660.1642 448.3116 659.8042 448.3913 658.6595 448.4134 657.6384 448.3479 656.157 447.8776 654.7892 447.2569 654.4199 447.148 653.1268 446.7663 652.1894 445.9718 651.9025 445.7995 651.3084 445.8174 650.151 446.0029 648.8337 446.4188 648.0326 446.7613 647.039 447.3813 646.8827 448.0048 646.9018 448.2517 647.0407 448.5844 647.0303 448.9538 646.7191 449.542 646.6577 450.7271 646.1721 452.051 645.8205 453.3448 645.6531 453.6552 645.232 454.1577 644.1709 456.0191 643.7693 456.5971 643.0591 457.3331 642.4901 457.5707 641.3214 459.0544 640.9374 459.4152 639.5531 460.331 639.2046 460.4235 638.3092 460.4959 636.6747 460.3676 635.1287 461.098 634.3135 461.3855 634.0845 461.3906 633.7448 461.2708 632.9856 461.5585 632.5466 461.5544 630.6726 461.3487 630.4488 461.1376 629.9294 460.924 629.646 460.8297 628.916 460.7435 628.3842 460.4701 628.0399 460.1947 627.8723 459.4585 627.6867 459.0111 627.2042 458.5036 625.5554 457.1775 625.0222 456.9847 624.3013 456.5005 623.2069 455.219 622.886 454.9189 620.777 453.6166 620.6108 453.4635 619.64 451.8448 618.6699 450.8556 618.5512 450.8314 618.0288 450.9802 616.9566 449.4707 618.5528 449.4731 619.3627 447.2758 621.6939 446.5521 622.1245 443.4345 620.875 440.7149 622.5774 438.4008 623.2385 432.3448 623.8533 431.5535 621.6264 427.7083 621.8181 424.9241 623.4222 423.4692 622.5775 422.5533 621.691 415.3775 622.2808 411.759 623.2662 410.9219 623.5096 406.0285 624.7758 403.7383 Z" id="fips-46009"/>
<path d="M 13.7306 136.2632 14.4867 136.2785 15.6098 136.195 15.5674 135.9023 16.4089 118.2715 16.3736 118.134 16.9485 105.5829 64.9475 107.6221 121.4525 109.7655 122.7439 109.8729 125.8139 109.9314 125.3953 122.3016 124.9721 134.6851 124.805 135.3059 122.6658 184.5158 122.2048 196.847 60.8674 194.6022 53.6553 194.2616 35.1714 193.4184 32.799 195.7813 30.3855 195.3904 29.4181 194.2003 26.7307 194.4694 23.4403 196.5314 20.1112 196.0221 16.4111 197.0443 13.2794 195.8382 11.6827 196.3813 11.0554 197.1573 11.8667 179.9764 11.8707 179.6134 11.9311 178.6739 12.0754 175.3957 12.0709 175.3528 12.3644 169.0356 12.3662 168.9965 12.9751 154.8872 13.0874 153.7545 13.7306 136.2632 Z" id="fips-46019"/>
<path d="M 3.9383 353.2534 16.491 353.6852 113.0651 357.784 110.8484 425.8266 97.158 425.3087 97.0312 425.3041 75.3301 424.4944 68.6748 424.2595 58.183 423.8419 58.1705 423.8414 58.0733 423.8374 58.031 423.8357 50.7492 423.5362 50.6824 423.5422 46.3647 423.3743 42.7598 423.1201 36.2703 422.9074 25.9579 422.4059 25.7868 422.4125 14.3762 421.957 10.0676 421.6485 7.4797 421.5324 1 421.3906 2.8033 380.0999 2.8497 379.0654 2.8628 378.0183 2.9842 374.9417 3.3871 365.6559 3.6196 360.235 3.9383 353.2534 Z" id="fips-46047"/>
<path d="M 11.0554 197.1573 11.6827 196.3813 13.2794 195.8382 16.4111 197.0443 20.1112 196.0221 23.4403 196.5314 26.7307 194.4694 29.4181 194.2003 30.3855 195.3904 32.799 195.7813 35.1714 193.4184 53.6553 194.2616 60.8674 194.6022 59.176 231.7083 58.1556 244.2803 70.5652 244.7015 70.2045 255.1568 69.9755 261.2491 55.9435 260.7001 8.3292 258.553 8.5974 252.9418 8.967 242.9992 10.6945 204.7656 10.869 201.1088 11.0554 197.1573 Z" id="fips-46081"/>
<path d="M 400.2833 328.746 400.401 328.7083 400.9138 328.8544 401.024 329.3768 400.91 330.6033 401.519 331.9882 402.1388 332.6771 402.304 332.9971 402.8299 332.571 403.1463 331.9555 403.4962 331.0017 403.5937 330.413 404.5124 329.8445 405.6648 329.8776 406.7667 329.9387 407.6354 330.1811 409.0565 331.2763 409.3907 331.418 409.7452 331.0202 409.469 330.8092 409.2882 330.6653 409.5935 330.1192 410.5096 330.3282 411.1803 330.9299 411.6875 332.0067 412.3696 332.8136 412.9135 332.4181 412.9499 331.9639 414.3255 332.1615 414.8114 332.6083 415.6699 332.5624 416.1284 331.8494 417.9702 331.7953 418.6999 331.7625 419.429 331.0087 419.3054 330.515 420.2092 330.1342 420.7266 330.6188 421.2749 330.8022 421.7443 330.4462 422.2438 329.9848 422.9726 329.5986 423.4024 330.2319 423.1203 331.0172 423.4404 331.7851 423.7872 331.7807 424.246 331.1268 424.146 330.6953 424.9183 330.7833 425.6814 331.6463 425.847 332.2108 426.6176 332.0581 426.7853 331.7166 427.5286 331.7664 428.3137 332.1256 428.7512 331.7087 428.8093 331.3559 429.0105 330.9514 429.2593 330.9684 430.3981 331.1982 431.1757 331.7923 431.9683 332.4534 432.812 331.7603 433.2241 331.4456 434.0194 330.811 435.3311 331.682 435.9872 333.0082 435.712 333.3981 436.4193 334.1855 437.044 334.4397 438.0753 334.2161 438.3478 332.9816 438.3167 331.7829 438.678 331.8285 439.0627 332.0556 439.4487 331.8215 439.2701 331.541 438.772 331.0124 438.961 330.444 439.6786 330.9048 441.5386 331.8537 442.8761 331.1754 444.3161 330.6092 444.9085 329.6561 444.854 329.1876 445.6902 329.0387 446.5003 329.2087 448.3856 328.9911 449.7591 329.1267 449.9661 329.089 450.1164 329.1254 450.2478 328.4312 449.2144 327.2063 448.6682 326.4845 448.8703 324.7142 449.7889 323.8296 450.1381 323.6724 450.529 323.6172 450.7944 323.7071 450.9624 323.8949 451.0222 324.1196 451.0784 324.7445 451.0984 324.8959 451.1337 325.1347 451.2237 325.3629 451.3518 325.519 451.3437 325.7233 451.37 326.0707 451.2879 326.3691 451.2171 326.6317 451.1334 326.9518 450.9665 327.1801 451.1208 327.3964 451.2657 327.525 451.4433 327.665 451.6058 327.7696 451.8396 327.8521 452.1536 327.8326 452.3837 327.7163 452.5103 327.5586 452.722 327.3477 452.8786 327.0167 453.3152 326.5577 453.742 326.0501 453.9742 325.8404 454.0296 325.7067 454.0816 325.3871 454.0737 325.097 454.0439 324.7386 454.0621 324.4946 454.1578 324.3015 454.2068 324.0862 454.2361 323.8629 454.3555 323.5312 454.4965 323.3282 454.6618 323.1822 454.8529 323.1069 454.9907 322.9596 455.15 322.6901 455.2487 322.4097 455.4154 322.1564 455.7008 321.9292 455.9254 321.902 456.1814 322.0535 456.4614 322.1754 456.6616 322.3751 456.7964 322.6074 456.9187 322.8292 456.9587 323.0982 457.0165 323.3165 457.0462 323.5676 456.9851 323.7591 456.8873 323.9432 456.7913 324.2027 456.6784 324.3896 456.6253 324.5319 456.5004 324.6912 456.3961 324.8586 456.2172 325.1157 456.1234 325.3796 456.0645 325.7354 456.201 326.1299 456.3811 326.2941 456.4932 326.4534 456.6532 326.5428 457.0096 326.5209 457.7737 326.5191 458.1135 326.3949 458.3016 326.2875 458.4835 326.1725 458.611 325.9869 458.7708 325.8112 458.9384 325.5625 459.0148 325.3043 459.0069 324.9443 459.0027 324.4929 458.8585 324.2258 458.8501 323.6172 458.8122 323.3364 458.7552 323.1364 458.6739 322.8533 458.6895 322.5389 458.5978 322.2755 458.5225 322.0813 458.4456 321.7634 458.4444 321.4664 458.5853 321.2677 458.7888 321.1767 459.0156 321.0244 459.3348 321.0026 459.5666 321.0739 460.0472 321.4686 460.3853 321.6882 460.7224 321.8983 460.9699 322.3509 461.0987 322.8643 461.1271 323.1085 461.1659 323.3978 461.1368 323.8042 461.0759 324.0188 461.1001 324.4114 461.065 324.5469 460.9896 324.8353 460.948 325.1102 461.0978 325.3111 461.2198 325.4189 461.5459 325.453 461.7919 325.3772 462.0805 325.2541 462.2853 325.1308 462.4968 324.9228 462.7105 324.6964 462.7868 324.6608 462.8645 324.5959 462.9956 325.1223 463.0175 330.671 463.0714 335.487 463.1224 339.6229 463.1525 343.8943 463.1804 347.6863 463.1903 348.9793 463.2158 352.8361 463.2302 355.1418 463.2446 357.5391 464.2998 359.088 466.0699 359.067 468.7564 359.0487 471.4801 359.0487 472.4888 359.0268 473.1374 430.7314 472.9989 430.733 469.4549 430.7689 455.8692 430.8856 455.6379 430.8708 453.7844 430.8963 452.9887 430.9023 451.2794 430.91 448.6253 430.8952 446.5635 430.9224 445.3029 430.9355 444.9869 430.924 444.3548 430.9111 443.0487 430.944 440.1037 430.9333 439.068 430.968 438.0288 430.9539 437.2121 430.9575 432.9568 430.9805 431.9903 430.9762 429.6102 430.9602 429.5569 430.9597 428.4818 430.9571 423.9286 430.9632 421.518 430.9651 420.8307 430.9667 411.954 430.9465 411.2086 430.9445 411.1595 430.9445 403.6829 430.9755 403.6353 412.4003 402.0636 412.4209 402.0142 374.9873 401.9886 362.5516 400.2711 362.4591 400.2833 328.746 Z" id="fips-46123"/>
<path d="M 490.3464 296.737 493.316 296.8357 534.4835 296.035 546.7526 295.818 547.0685 308.2121 548.0806 308.1817 549.1944 358.108 497.0186 358.7725 498.5543 356.1163 498.4747 354.2831 494.239 350.0457 492.5682 347.2344 492.1152 342.2314 490.8148 338.4746 488.7512 336.4208 487.0982 336.2147 483.172 337.1768 480.1253 336.6602 479.0389 334.2401 480.3472 332.2095 483.8964 330.8322 485.416 329.536 485.3052 326.2225 484.1158 323.896 484.9875 319.6286 489.4919 317.0356 492.1613 313.261 495.3923 307.2588 493.165 304.085 490.7853 302.7444 489.6218 299.4631 490.3464 296.737 Z" id="fips-46015"/>
<path d="M 452.585 59.9201 550.8681 58.9983 551.163 59.9158 551.62 83.8198 552.056 108.649 466.4362 109.5613 452.7836 109.5892 452.585 59.9201 Z" id="fips-46045"/>
<path d="M 702.2362 96.7876 724.1985 96.0607 725.4912 91.7163 777.9108 89.5063 778.0363 89.7386 778.1147 90.3613 778.2008 90.6356 778.3493 90.8372 778.846 91.2833 779.3022 92.1599 779.413 92.7211 779.7127 93.0086 779.8388 93.4936 779.9593 95.4676 780.0455 97.6415 780.0465 97.6606 780.5117 106.2155 780.5558 106.8054 780.5664 107.0539 780.7165 110.5591 781.0762 118.3396 781.079 118.5389 781.3026 122.4691 781.2919 122.6559 781.575 128.6861 781.5878 128.8882 781.6338 130.0077 782.0816 139.2669 738.6644 141.2534 737.4762 116.5027 703.01 117.6157 702.2362 96.7876 Z" id="fips-46051"/>
<path d="M 370.1541 209.5441 456.7535 209.3009 458.0501 209.2951 458.3981 256.5469 456.2984 256.9984 453.6306 260.0555 453.5944 261.2873 455.1375 263.022 459.0145 263.5285 461.3697 264.4452 463.9226 266.3167 465.1345 269.8965 463.773 272.778 462.0009 273.6074 459.4347 273.0967 449.5693 268.7114 447.6906 268.3044 438.2946 270.0834 435.8144 269.2448 433.1493 265.6743 430.2674 259.8881 430.6115 258.3287 433.5349 255.5272 434.9654 253.196 433.7938 250.8582 431.7848 249.7196 427.9427 249.9878 425.4998 249.4489 422.2814 247.6787 419.7404 246.8895 415.1603 243.7407 406.9369 241.4389 404.2447 241.7287 400.1093 241.3101 389.4885 238.8077 386.5237 237.0164 385.6669 233.1036 384.4006 224.9363 381.9686 222.3797 375.3776 222.0049 369.1187 224.2357 367.5619 224.101 364.6492 221.7561 365.0992 217.4881 367.3875 215.0292 369.6007 214.1604 371.1477 211.402 370.1541 209.5441 Z" id="fips-46065"/>
<path d="M 373.5653 9.9994 377.1949 10.0195 380.3996 10.0174 381.0117 10.0287 381.4368 10.0348 382.4084 10.0483 393.9645 10.0907 394.8373 10.1111 394.9576 10.1368 395.8045 10.1414 395.8892 10.1381 406.2204 10.1977 408.0834 10.2 409.1126 10.196 412.2329 10.2116 412.4185 10.2079 414.8348 10.2165 416.34 10.2323 422.6554 10.2482 426.6028 10.2543 435.0999 10.243 435.1227 10.2432 439.2364 10.278 448.012 10.2816 448.1017 10.2781 448.1185 10.281 448.2631 10.2804 451.2249 10.2658 451.6087 59.9211 380.3314 59.8649 381.6804 54.1759 382.7126 51.983 385.329 50.4537 389.6285 50.1108 391.5746 48.645 392.4689 46.3347 392.4549 43.7326 388.2558 34.5815 385.8406 28.2747 385.1662 25.035 385.3436 22.2396 384.7096 20.6717 381.6806 18.5416 377.2264 13.448 374.62 11.9106 373.5653 9.9994 Z" id="fips-46021"/>
<path d="M 497.0069 358.7994 497.0186 358.7725 549.1944 358.108 558.3991 357.9217 558.6273 376.3923 561.3372 375.9006 621.2984 399.7541 625.5546 401.3507 624.7758 403.7383 623.5096 406.0285 623.2662 410.9219 622.2808 411.759 621.691 415.3775 622.5775 422.5533 623.4222 423.4692 621.8181 424.9241 621.6264 427.7083 623.8533 431.5535 623.2385 432.3448 622.5774 438.4008 620.875 440.7149 622.1245 443.4345 621.6939 446.5521 619.3627 447.2758 618.5528 449.4731 616.9566 449.4707 618.0288 450.9802 616.9689 451.2819 616.5233 451.3244 616.1466 451.3069 614.1771 450.7113 612.6151 450.0046 610.9889 449.1427 610.5195 448.8164 610.273 448.505 609.6949 448.0335 608.1093 447.035 607.7846 446.5504 607.573 446.4153 606.8908 446.208 605.8355 446.2675 604.6136 446.1762 602.7692 445.4965 601.473 445.1698 600.4465 444.9108 599.7753 444.6464 599.3713 444.3784 599.0758 444.0909 598.96 443.9462 598.7008 443.3631 598.4697 443.0675 597.9973 442.6372 597.5912 442.3751 596.3394 441.7223 594.5101 440.9615 593.3334 440.2342 591.976 439.6848 591.0738 439.2356 589.7035 438.3837 589.1227 438.3714 588.6384 438.4673 588.2721 438.8008 587.9836 438.9264 587.7271 438.9603 587.2634 438.8209 587.0796 438.628 586.9419 437.9882 586.8059 437.8038 586.3909 437.5326 585.7173 436.8348 585.3839 436.6916 584.7801 436.2574 583.523 434.0001 582.2711 431.9675 581.691 430.5386 581.3669 429.0407 580.4502 426.0971 578.4975 423.2716 575.0363 420.5394 568.6175 418.4958 565.8557 418.9615 561.1064 418.3 558.5576 416.5816 554.7198 410.8464 552.2756 408.5487 550.4905 407.982 543.8949 407.4506 542.6286 406.7671 541.3341 403.8692 541.2108 397.2023 539.1807 394.3387 534.082 394.2211 530.362 392.7585 526.2375 388.2944 521.0764 384.0712 519.2756 381.4327 516.8561 376.653 515.0255 375.5891 512.1862 369.0115 510.6851 367.8446 501.4757 367.6915 498.8803 366.6206 495.8056 363.3489 497.0069 358.7994 Z" id="fips-46023"/>
<path d="M 219.8528 212.877 219.9198 212.7731 220.0554 212.7576 220.9882 211.2724 222.0605 211.2213 222.9503 210.7764 224.1628 210.4627 225.8595 209.7531 226.781 210.0957 227.9509 210.2446 228.9539 209.9287 230.1376 209.5428 230.9935 209.3725 231.7147 209.509 232.1844 209.9926 232.972 210.0761 234.1102 210.3577 235.3829 210.5746 235.9888 210.8414 236.3774 211.3529 237.173 210.9396 237.9734 210.2496 238.9498 210.7612 238.9223 211.2909 239.8384 210.7758 239.7781 210.1446 240.2776 209.1841 241.9842 209.0557 243.1281 209.0352 244.768 207.9607 246.1707 206.4316 246.2048 205.229 247.2166 205.2801 248.4561 205.061 249.0444 204.141 250.0901 203.9127 251.1847 204.3067 251.6788 204.7146 252.6427 204.7498 253.2976 203.4897 254.5688 202.7815 255.5303 203.2455 256.4285 203.5526 257.1418 203.1464 258.0186 203.2491 258.1182 203.8596 258.4168 204.7104 259.3979 204.8169 260.7562 204.3488 262.0445 204.5878 263.5228 204.1181 264.7112 204.7918 265.4859 205.0839 265.7531 204.4699 266.2959 204.6878 267.0965 204.7606 267.5888 205.2259 268.3753 205.2886 269.085 204.736 269.5997 203.5169 270.4594 203.2179 271.0603 203.7241 271.5968 202.392 271.3112 201.5962 272.4118 200.7955 273.6196 200.6962 273.9873 199.8065 275.0432 199.5327 274.9362 198.8496 275.8473 196.7033 276.5517 195.7213 278.568 195.3527 280.4677 194.1342 281.6604 193.1289 282.9291 193.5878 283.9847 192.953 284.6359 192.0451 284.2523 191.6516 284.5429 190.7379 285.1331 190.9433 285.5909 189.9003 286.3351 188.7391 288.2809 188.3782 288.9713 189.2457 291.0002 189.257 292.1521 188.6194 294.8253 188.6224 296.0856 187.6643 297.4542 187.3421 299.3003 188.006 306.5576 183.1445 308.0196 180.5547 308.296 180.5486 308.1728 188.7189 306.4095 188.7015 305.785 238.2704 304.5975 238.2619 304.3199 263.2793 316.6063 263.3527 316.3761 288.1539 314.5991 288.142 217.6239 286.661 218.7086 236.7497 219.3566 236.5031 219.8528 212.877 Z" id="fips-46055"/>
<path d="M 8.3292 258.553 55.9435 260.7001 69.9755 261.2491 86.0642 261.851 102.8953 262.4768 108.0841 262.6639 111.145 262.775 179.04 264.911 177.4733 262.332 179.2275 260.9405 177.8248 260.2968 178.7137 255.925 180.8824 255.0598 180.9334 253.2941 182.5278 252.1712 181.6048 247.4511 182.4482 242.403 184.4321 238.0583 184.5611 235.2282 186.544 232.5237 187.6741 233.1539 188.9082 231.5906 188.5026 229.213 188.4864 223.1294 189.2307 223.6162 190.9198 221.1114 193.7965 221.4491 197.1312 220.7296 197.0684 221.9653 199.6166 223.416 202.9537 224.4291 205.058 222.0923 208.2503 223.3482 210.1985 220.7046 212.4545 218.8396 212.1099 217.831 214.3177 216.7078 216.1092 213.823 219.8528 212.877 219.3566 236.5031 218.7086 236.7497 217.6239 286.661 216.4098 286.64 215.5568 327.4927 214.9965 326.7957 213.643 328.8566 213.9903 330.2143 207.5308 329.2462 207.2192 330.6578 205.8574 329.6061 206.3901 328.2554 205.4365 326.6743 203.1106 328.3092 201.6721 327.5273 199.3408 330.1068 133.8405 328.3294 133.0531 328.0046 134.7714 326.6433 135.8491 323.4898 137.2503 323.5995 141.4743 316.8135 146.0682 312.891 145.5766 310.8992 147.1248 304.7079 76.3166 302.1397 6.3333 299.6141 6.9235 287.7568 6.9468 287.5354 8.3292 258.553 Z" id="fips-46103"/>
<path d="M 742.8865 352.3571 746.4836 352.1951 756.7575 351.7449 757.0274 351.7297 761.1855 351.5424 765.3632 351.3641 776.3516 350.8709 776.6146 350.8603 776.6161 351.494 776.7033 351.6242 777.0945 351.8585 777.4032 351.6941 777.5303 351.6983 777.9827 352.1358 778.1171 352.3032 778.5898 353.4985 778.0539 353.9707 778.2254 354.9802 778.2903 355.1963 777.9756 355.8874 776.7704 357.0567 776.5168 357.9511 776.5507 358.1296 777.5127 360.3036 777.6586 360.4377 778.005 360.5613 778.188 360.6265 778.7988 360.5238 779.5035 360.5575 780.0368 360.9849 780.1053 361.1355 780.0089 361.6795 779.7481 362.3388 780.2871 362.6023 780.913 363.2087 781.4836 364.0399 781.975 364.4005 783.6794 365.6187 784.2933 365.5126 784.3955 365.3935 784.3883 365.2304 784.4879 365.1998 784.8803 365.3848 785.0362 365.6002 785.3505 366.891 785.4407 368.2736 785.4465 368.465 785.3722 368.8489 784.9531 369.3877 784.8634 369.4211 784.9132 370.2561 785.0404 371.7416 785.1793 372.2357 785.2878 372.2571 785.3131 372.39 784.5772 373.6429 784.2791 373.9736 784.5171 375.0909 785.038 376.7878 785.4016 377.3569 785.3716 377.7114 784.9793 379.1548 783.9025 379.8442 782.6684 380.2856 782.432 380.0183 781.5727 380.0568 781.493 380.0604 780.988 379.9785 780.8149 379.8195 780.7081 379.6117 780.5036 379.4803 779.8047 379.6498 779.7382 379.8081 779.8129 379.9856 779.9142 380.0875 779.9623 380.2732 780.0073 380.6577 780.2125 382.4074 779.8931 382.9939 779.6896 383.0324 779.6709 382.7555 779.6071 382.7093 779.3339 383.0877 779.4818 383.8594 779.7298 384.0183 780.3596 383.9017 781.2496 384.6694 781.723 384.9948 782.1515 385.1128 782.4777 385.1243 782.6803 384.986 782.8673 385.1003 782.941 385.2933 783.0411 386.2404 782.9683 386.7924 782.3351 387.1251 781.7104 387.2839 781.1261 388.0655 781.452 389.1105 782.3363 390.12 782.4871 390.1265 782.6574 390.0256 782.7532 389.8271 782.8922 389.7293 783.5933 389.6781 783.9406 389.8031 784.4424 389.8134 784.882 389.5156 785.8271 389.9833 786.3438 390.4049 786.4778 390.7879 786.6568 390.8584 787.3597 390.7025 788.5617 390.3313 788.9907 389.899 790.1504 389.7698 791.0547 390.0385 791.1779 390.1702 791.2702 390.6957 791.6068 391.7985 791.7809 392.1208 791.7784 392.425 791.5076 393.3435 791.5593 394.6232 791.7356 395.2102 792.1165 395.3527 792.2889 395.348 792.5068 395.557 792.5388 395.6896 792.4052 398.2662 792.4243 398.9031 792.5724 400.2305 792.7398 400.6185 793.2985 401.1647 793.4165 401.1822 793.7558 401.0519 794.3076 401.301 795.0832 402.4684 795.1904 403.1764 795.3283 403.7642 795.4262 403.9826 795.5572 404.1433 795.8795 404.2887 795.6384 405.2907 794.7834 406.6843 794.4193 407.2702 793.5552 408.1019 793.3342 408.6158 793.3686 408.8724 794.1385 409.0492 794.2313 409.2313 794.2939 409.6045 794.2887 409.7217 757.6637 411.2974 745.3176 411.798 744.2885 386.9249 742.8865 352.3571 Z" id="fips-46083"/>
<path d="M 624.0788 8.0396 626.0717 7.9927 643.3713 7.5708 644.1194 7.5389 652.0997 7.3007 667.403 6.824 669.7426 6.74 669.7517 6.7397 672.4389 6.6775 673.4243 6.6404 689.616 6.0904 690.2826 6.0633 698.6079 5.7519 698.6098 5.7518 700.7579 59.5835 687.0061 59.9969 685.9864 55.899 625.4003 57.6757 624.734 32.8056 624.0788 8.0396 Z" id="fips-46091"/>
<path d="M 308.296 180.5486 313.7235 181.8491 316.5379 181.6327 319.8596 183.9516 322.6158 181.8314 323.4142 182.8687 324.6914 180.1057 326.7682 179.627 326.759 178.102 328.3121 178.5441 330.6194 177.5478 331.3343 175.5363 333.577 177.557 337.0784 176.0129 339.5023 175.6693 342.5981 178.4734 344.7752 177.2952 345.5772 179.2943 347.0824 178.9658 347.279 177.2271 348.9836 176.9978 348.9637 178.5213 350.8701 177.5045 354.152 179.8209 354.6073 180.8594 359.7303 182.3713 361.3653 186.6784 361.3872 189.3952 360.21 194.6183 358.401 198.8675 358.0621 202.2693 358.611 204.3064 360.5506 206.7494 363.382 208.209 369.0853 208.7997 370.1541 209.5441 371.1477 211.402 369.6007 214.1604 367.3875 215.0292 365.0992 217.4881 364.6492 221.7561 367.5619 224.101 369.1187 224.2357 375.3776 222.0049 381.9686 222.3797 384.4006 224.9363 385.6669 233.1036 386.5237 237.0164 389.4885 238.8077 400.1093 241.3101 404.2447 241.7287 406.9369 241.4389 415.1603 243.7407 419.7404 246.8895 422.2814 247.6787 425.4998 249.4489 427.9427 249.9878 431.7848 249.7196 433.7938 250.8582 434.9654 253.196 433.5349 255.5272 430.6115 258.3287 430.2674 259.8881 386.2977 260.016 386.296 263.7221 316.6063 263.3527 304.3199 263.2793 304.5975 238.2619 305.785 238.2704 306.4095 188.7015 308.1728 188.7189 308.296 180.5486 Z" id="fips-46117"/>
<path d="M 382.6588 159.51 456.6262 159.3579 456.7535 209.3009 370.1541 209.5441 369.0853 208.7997 363.382 208.209 360.5506 206.7494 358.611 204.3064 358.0621 202.2693 358.401 198.8675 360.21 194.6183 361.3872 189.3952 361.3653 186.6784 359.7303 182.3713 354.6073 180.8594 354.152 179.8209 350.8701 177.5045 349.7 175.0711 351.1576 170.3233 352.4809 169.303 355.0969 170.062 358.5873 174.5566 361.8903 177.7765 368.5381 178.9962 369.9463 178.2561 371.6929 175.4986 375.4986 171.1082 381.2311 167.2728 382.8527 165.3498 383.8423 162.7588 382.6588 159.51 Z" id="fips-46119"/>
<path d="M 221.5945 137.5174 222.9701 75.4811 276.0387 76.4519 275.7607 88.8598 274.2268 88.8353 273.4347 138.4569 271.9819 138.44 271.9298 144.8087 308.7549 145.2529 308.296 180.5486 308.0196 180.5547 306.5576 183.1445 299.3003 188.006 297.4542 187.3421 296.0856 187.6643 294.8253 188.6224 292.1521 188.6194 291.0002 189.257 288.9713 189.2457 288.2809 188.3782 286.3351 188.7391 285.5909 189.9003 285.1331 190.9433 284.5429 190.7379 284.2523 191.6516 284.6359 192.0451 283.9847 192.953 282.9291 193.5878 281.6604 193.1289 280.4677 194.1342 278.568 195.3527 276.5517 195.7213 275.8473 196.7033 274.9362 198.8496 275.0432 199.5327 273.9873 199.8065 273.6196 200.6962 272.4118 200.7955 271.3112 201.5962 271.5968 202.392 271.0603 203.7241 270.4594 203.2179 269.5997 203.5169 269.085 204.736 268.3753 205.2886 267.5888 205.2259 267.0965 204.7606 266.2959 204.6878 265.7531 204.4699 265.4859 205.0839 264.7112 204.7918 263.5228 204.1181 262.0445 204.5878 260.7562 204.3488 259.3979 204.8169 258.4168 204.7104 258.1182 203.8596 258.0186 203.2491 257.1418 203.1464 256.4285 203.5526 255.5303 203.2455 254.5688 202.7815 253.2976 203.4897 252.6427 204.7498 251.6788 204.7146 251.1847 204.3067 250.0901 203.9127 249.0444 204.141 248.4561 205.061 247.2166 205.2801 246.2048 205.229 246.1707 206.4316 244.768 207.9607 243.1281 209.0352 241.9842 209.0557 240.2776 209.1841 239.7781 210.1446 239.8384 210.7758 238.9223 211.2909 238.9498 210.7612 237.9734 210.2496 237.173 210.9396 236.3774 211.3529 235.9888 210.8414 235.3829 210.5746 234.1102 210.3577 232.972 210.0761 232.1844 209.9926 231.7147 209.509 230.9935 209.3725 230.1376 209.5428 228.9539 209.9287 227.9509 210.2446 226.781 210.0957 225.8595 209.7531 224.1628 210.4627 222.9503 210.7764 222.0605 211.2213 220.9882 211.2724 220.0554 212.7576 219.9198 212.7731 221.5945 137.5174 Z" id="fips-46137"/>
<path d="M 314.3526 310.13 314.9785 309.4916 315.0817 308.8487 315.1846 308.2438 315.5999 308.2435 316.1771 308.5836 316.9299 308.7102 317.5677 308.3119 318.1179 308.0316 318.1695 308.1703 318.3417 308.4467 318.1936 308.9658 317.8011 309.1788 317.8898 309.9101 318.2617 310.0195 318.8824 309.9514 319.7768 310.0381 320.7883 309.4264 321.3862 309.0145 322.4395 309.6003 322.3522 310.1833 322.9264 310.9162 323.6631 311.658 324.5179 311.466 325.1406 311.2734 325.1726 311.6482 324.8697 312.2304 324.2195 312.1105 323.7176 312.4748 323.7626 312.9214 324.238 313.6831 324.7286 313.8418 325.327 313.6853 325.5108 314.3972 325.4548 314.6379 326.0479 314.3854 326.7116 313.5567 326.9698 312.2879 327.5347 311.638 328.4714 311.989 329.1151 312.6117 329.4833 313.912 330.492 314.2208 331.1054 314.1935 331.5637 314.8189 331.4155 315.2908 330.6929 315.3511 330.5063 315.0954 330.2158 315.6315 330.8165 316.1243 331.5034 316.0921 331.8245 316.6397 331.3665 316.7162 331.3725 317.072 331.7152 317.1627 333.0186 316.8253 333.3781 315.9548 333.9646 316.375 333.9559 317.1294 333.7821 318.0603 333.6577 318.7114 334.261 318.9974 334.6524 318.5837 335.5348 318.1185 336.0594 318.799 336.7836 320.4156 337.4149 321.1964 337.362 321.6152 337.8805 321.6305 337.9133 321.2365 338.3444 320.6434 339.1071 320.7377 340.0779 320.9797 340.9201 321.6091 340.9259 322.0288 341.2071 322.785 341.8638 322.6863 342.0753 323.2109 341.9136 323.6205 341.3567 323.5299 341.0193 323.9246 341.3937 324.3733 341.8664 324.6457 342.337 324.6509 342.7449 324.7539 342.9066 325.0998 342.5814 325.5879 342.3608 325.5278 342.434 325.8921 343.0741 326.196 343.6374 326.0411 343.6274 326.4075 343.0667 326.5569 342.7785 326.4693 342.8255 326.954 343.6056 327.1026 344.9996 325.9529 345.4439 326.0611 345.9128 326.0368 346.0884 325.7459 345.8968 325.4047 345.6769 325.3022 345.924 325.0133 346.2734 325.4302 346.7019 325.6569 346.9133 325.368 346.9199 325.1902 347.1965 325.3132 347.2363 325.7621 347.2648 326.6143 346.7144 326.9917 346.7728 327.6232 347.3804 327.9685 347.987 329.1014 348.8223 329.2266 348.9629 328.5314 348.0202 328.1895 347.8745 327.7074 348.2552 327.5849 348.5622 327.5026 349.2216 327.7657 349.3765 328.2324 349.442 328.5624 349.6682 328.6082 349.8324 328.3124 350.0817 327.7873 350.7251 327.9303 351.4141 327.465 351.598 326.9753 351.7991 326.8764 352.1098 326.9984 352.1788 327.486 351.9998 327.7184 352.4023 328.2743 352.8543 328.6134 353.2574 328.7362 353.7679 328.9024 354.1734 328.0551 354.4549 327.3093 355.3126 326.7764 356.3443 326.2858 356.6726 325.9094 356.363 325.5216 355.9349 325.5403 355.371 325.6208 355.1152 325.0739 355.6288 324.4044 356.4234 323.7557 357.6531 323.6046 358.275 324.0987 358.2534 324.8297 358.0005 324.9016 358.2384 325.1541 358.995 324.7155 360.1756 324.4319 361.0116 323.4976 361.0311 322.3482 361.9186 321.6442 362.6291 321.2576 362.9197 320.9775 363.7075 320.8435 364.3156 321.3348 364.9599 322.8138 366.1753 323.0208 367.2094 323.0964 367.3377 323.6201 367.3389 324.0587 366.9469 324.7656 366.4157 324.5174 366.1787 324.7102 366.3442 324.9452 366.6853 325.1278 367.6833 325.3815 369.107 324.8379 369.5922 324.206 370.6017 324.3643 370.842 325.2428 370.7866 326.0591 371.3133 326.5163 372.1296 326.4333 373.0054 325.9201 373.8009 325.4009 374.033 325.8653 374.5727 326.5585 375.2569 326.5707 375.4436 326.2227 375.3576 325.7122 375.8747 325.7638 376.0612 326.2488 375.8787 326.9578 375.6033 327.5417 375.8888 327.4293 377.2429 327.5892 377.7952 326.8544 378.6033 326.3158 379.0948 326.9404 380.2939 327.8017 381.085 327.8695 381.4336 327.102 381.2205 326.1469 381.3448 325.6813 381.9102 325.975 382.768 326.3178 383.978 326.8462 385.1192 326.3791 385.4362 325.5674 386.3864 325.4743 387.2039 326.0044 388.4378 327.7488 389.1124 328.2986 392.988 327.8473 395.2005 331.1835 396.6962 329.4165 398.0812 330.2732 400.2833 328.746 400.2711 362.4591 401.9886 362.5516 402.0142 374.9873 389.7256 375.0329 296.6859 374.5278 297.3772 317.3875 298.4717 315.2784 299.6985 314.112 301.4029 315.4524 302.3293 313.2474 303.2407 313.5642 304.3182 311.6034 304.9002 313.5088 307.1136 311.5536 306.7642 310.0169 308.1196 309.6013 309.9371 310.7056 309.8615 309.3567 312.0628 308.8916 311.8761 309.8886 314.3526 310.13 Z" id="fips-46095"/>
<path d="M 133.8405 328.3294 199.3408 330.1068 201.6721 327.5273 203.1106 328.3092 202.3885 360.3556 205.2835 360.3998 205.0367 372.8217 204.4032 410.0662 207.2667 410.1423 206.7485 428.6874 206.7422 428.6872 169.3398 427.7258 164.4526 427.5999 132.6196 426.6049 110.8484 425.8266 113.0651 357.784 113.6665 339.3611 116.4713 337.6096 118.1198 338.407 120.8033 337.7559 121.9657 334.7717 122.345 331.7273 124.1689 329.8319 127.3112 331.0638 128.4339 332.27 129.8815 331.3798 131.3835 332.6248 133.3023 331.1679 133.8405 328.3294 Z" id="fips-46102"/>
<path d="M 380.3314 59.8649 451.6087 59.9211 452.585 59.9201 452.7836 109.5892 397.307 109.6262 396.5197 107.582 392.5663 103.1776 391.6372 99.4613 392.4858 97.4365 395.0913 94.1159 395.9114 90.3255 393.6332 85.9212 390.1692 81.3791 389.1263 77.3053 386.7934 73.4138 384.1493 71.7138 378.9118 72.0045 375.393 69.8161 374.6562 68.182 375.8172 64.8636 379.2513 62.1301 380.3314 59.8649 Z" id="fips-46129"/>
<path d="M 742.5498 252.8496 755.067 252.3446 787.1848 250.7473 788.1833 273.3714 788.183 273.6461 788.2458 275.2197 788.26 275.4578 788.3902 277.5777 788.397 277.8652 788.4581 279.6013 788.467 279.8659 788.5562 281.6639 788.5578 281.981 788.639 283.5341 788.6563 283.6249 788.7465 285.8709 788.7512 286.1128 789.2297 296.1744 789.2177 296.1846 789.2247 296.4066 789.4113 300.3222 789.412 300.3362 789.412 300.3368 783.7873 300.8677 744.6221 302.4518 742.5498 252.8496 Z" id="fips-46101"/>
<path d="M 558.3991 357.9217 598.3228 357.1752 619.654 356.6989 619.8664 358.6746 621.2984 399.7541 561.3372 375.9006 558.6273 376.3923 558.3991 357.9217 Z" id="fips-46043"/>
<path d="M 757.6637 411.2974 794.2887 409.7217 794.236 410.9153 793.9726 412.0002 793.7192 412.5156 793.4921 412.6766 792.9665 412.8612 792.7831 412.8371 792.439 412.6438 792.0567 412.8283 791.0776 413.8582 790.9377 414.0771 790.8826 414.4427 790.728 414.5479 789.5552 414.9102 789.1907 414.9134 788.7994 414.7511 788.6602 414.7672 787.8577 415.9266 787.9852 416.1812 788.154 416.2964 788.3472 416.2267 788.5829 416.1998 788.8561 416.5635 788.8599 416.6516 788.7175 417.3416 788.5094 417.6286 788.5014 417.8471 788.6517 418.2176 788.7431 418.3705 789.5861 419.0323 790.0093 419.0976 790.5365 419.7404 790.8538 420.4187 790.7765 421.0829 790.6254 421.5576 790.3986 421.9988 790.2859 422.0989 789.7807 422.2761 789.3033 422.3762 789.0358 422.5876 788.7567 423.1299 788.8444 423.4987 788.8591 423.9101 788.4193 424.5708 788.0035 424.7432 788.0759 425.1322 788.5572 425.7907 789.1132 425.9979 789.587 425.9637 789.7071 426.0303 789.9218 426.3999 790.2725 427.6427 789.8276 428.3399 789.5311 429.2296 789.4061 429.7192 789.2775 429.8329 788.8499 429.9567 788.3415 430.5388 787.7895 431.1717 786.2335 432.8178 786.1838 433.0947 786.2021 433.3653 786.3609 433.6459 786.6607 434.7705 786.7232 435.042 786.8255 435.4858 786.9135 436.1619 787.6762 436.5494 787.9454 437.1372 787.9789 437.4079 787.8423 437.5949 787.1464 437.6163 786.5546 437.7834 786.5304 437.8991 786.7524 438.2847 786.8617 439.3719 786.2527 439.9517 785.9938 439.9849 785.901 440.0969 785.6786 440.5974 785.6348 441.5347 785.6415 441.6161 786.0845 442.4396 786.3557 443.2843 786.2405 443.4791 785.6959 443.8338 785.391 443.8686 785.3014 444.067 785.3699 444.4207 785.5923 444.6658 784.9377 445.0353 784.7304 445.0609 784.5123 445.509 783.6165 445.4282 782.7301 445.3338 782.542 445.424 782.4847 445.9792 782.9931 446.6627 782.9868 446.8166 782.3551 448.0844 782.2342 448.2239 781.692 448.6309 781.2763 448.5809 781.174 448.6999 781.2385 449.3575 781.6088 449.4128 781.7446 449.5407 781.7654 449.6445 781.6278 450.6708 781.386 451.8458 780.6548 452.6242 780.5531 453.2076 780.4762 453.3091 779.3103 453.0802 778.9068 453.2357 778.6863 453.929 778.247 454.7689 777.8541 455.1628 777.6625 455.1744 777.5705 455.5415 777.7123 456.5096 778.1001 457.0617 777.9611 458.0909 777.7984 458.7756 777.4525 459.4543 777.0764 460.033 777.203 460.335 777.964 461.7079 778.547 461.5585 778.7189 461.6158 778.8144 463.2138 778.5488 463.8472 778.2888 464.0153 778.2189 464.4434 778.3276 464.5499 779.4153 465.2044 780.4318 465.9632 781.9123 466.7631 782.4186 466.8025 783.0521 466.9179 784.1616 467.4991 784.9587 468.382 785.1067 468.4182 785.792 469.3518 787.2794 470.387 787.6083 470.3884 787.7521 470.4736 788.2561 471.2095 788.3056 471.6749 788.24 472.2598 788.3119 472.4919 788.7686 472.8867 789.511 473.1901 790.6728 474.6745 790.794 475.068 790.7511 475.4491 791.5052 477.1686 792.0593 478.2487 792.5974 479.7822 792.5998 479.9788 792.4881 480.2872 792.5384 480.4798 792.6638 480.5753 792.9942 480.6867 793.2179 480.9501 793.2393 481.1941 793.1537 481.3848 793.1133 481.6513 793.1868 481.8478 793.6275 482.1781 794.1373 482.2922 794.2291 482.4397 794.2236 482.6512 794.1356 482.8449 793.8847 483.0563 792.9318 484.5255 793.4092 485.0881 795.278 485.0976 795.3382 486.4741 795.3284 488.0247 795.1456 488.8912 795.25 489.344 795.1693 489.6623 794.0486 490.2664 793.84 490.712 794.1734 491.389 794.8698 491.6567 795.3072 491.5232 795.52 491.735 795.991 492.5788 797.8481 494.0745 799 494.2854 797.5356 495.0101 796.927 495.4536 795.9058 495.9435 795.5689 496.0163 794.4398 496 793.1793 495.6806 792.7058 495.42 792.3902 495.153 791.5744 494.1063 791.3827 493.7387 791.2324 493.1825 791.0047 492.632 790.5016 491.8722 790.1029 491.4558 789.79 491.1987 789.0965 490.8067 787.9507 490.513 787.0072 490.5794 785.9586 490.9845 785.4867 491.3117 784.2906 492.4954 783.5932 492.8732 783.0858 493.0087 782.3005 493.0667 781.7264 492.9838 781.447 492.8718 779.8798 491.8704 779.6256 491.3973 779.2323 490.3628 779.058 489.703 778.9914 489.2774 778.9437 488.103 778.6874 487.052 778.3771 486.4479 777.759 485.668 777.2614 485.2219 776.1121 484.4788 774.274 483.8192 773.6875 483.4321 773.2069 482.9585 771.9173 481.2316 770.9075 479.9882 770.5788 479.3817 770.3747 478.7649 770.2774 477.821 770.2864 477.4464 770.451 476.7877 770.6613 476.2945 771.6836 474.4944 772.1034 473.8407 772.4602 473.5333 772.5846 473.2546 772.6464 472.7098 772.6221 472.3805 772.5543 472.2358 772.1581 471.8134 771.4722 471.4223 768.2382 470.4551 767.4564 470.4483 766.2567 470.6342 766.0053 470.715 765.8176 470.9194 764.4863 471.3157 762.9987 471.2346 761.4014 470.8687 760.8107 470.5763 760.5668 470.3699 760.4273 470.0213 760.5652 468.2839 760.4874 467.126 760.3283 466.2307 759.8178 465.4828 757.6637 411.2974 Z" id="fips-46127"/>
<path d="M 642.4474 206.487 679.1663 205.4084 716.2302 204.1894 717.9446 253.7889 693.341 254.8259 644.262 256.3658 643.8352 256.3786 642.4474 206.487 Z" id="fips-46077"/>
<path d="M 314.5991 288.142 316.3761 288.1539 316.6063 263.3527 386.296 263.7221 386.3305 309.7081 389.091 309.7001 389.1124 328.2986 388.4378 327.7488 387.2039 326.0044 386.3864 325.4743 385.4362 325.5674 385.1192 326.3791 383.978 326.8462 382.768 326.3178 381.9102 325.975 381.3448 325.6813 381.2205 326.1469 381.4336 327.102 381.085 327.8695 380.2939 327.8017 379.0948 326.9404 378.6033 326.3158 377.7952 326.8544 377.2429 327.5892 375.8888 327.4293 375.6033 327.5417 375.8787 326.9578 376.0612 326.2488 375.8747 325.7638 375.3576 325.7122 375.4436 326.2227 375.2569 326.5707 374.5727 326.5585 374.033 325.8653 373.8009 325.4009 373.0054 325.9201 372.1296 326.4333 371.3133 326.5163 370.7866 326.0591 370.842 325.2428 370.6017 324.3643 369.5922 324.206 369.107 324.8379 367.6833 325.3815 366.6853 325.1278 366.3442 324.9452 366.1787 324.7102 366.4157 324.5174 366.9469 324.7656 367.3389 324.0587 367.3377 323.6201 367.2094 323.0964 366.1753 323.0208 364.9599 322.8138 364.3156 321.3348 363.7075 320.8435 362.9197 320.9775 362.6291 321.2576 361.9186 321.6442 361.0311 322.3482 361.0116 323.4976 360.1756 324.4319 358.995 324.7155 358.2384 325.1541 358.0005 324.9016 358.2534 324.8297 358.275 324.0987 357.6531 323.6046 356.4234 323.7557 355.6288 324.4044 355.1152 325.0739 355.371 325.6208 355.9349 325.5403 356.363 325.5216 356.6726 325.9094 356.3443 326.2858 355.3126 326.7764 354.4549 327.3093 354.1734 328.0551 353.7679 328.9024 353.2574 328.7362 352.8543 328.6134 352.4023 328.2743 351.9998 327.7184 352.1788 327.486 352.1098 326.9984 351.7991 326.8764 351.598 326.9753 351.4141 327.465 350.7251 327.9303 350.0817 327.7873 349.8324 328.3124 349.6682 328.6082 349.442 328.5624 349.3765 328.2324 349.2216 327.7657 348.5622 327.5026 348.2552 327.5849 347.8745 327.7074 348.0202 328.1895 348.9629 328.5314 348.8223 329.2266 347.987 329.1014 347.3804 327.9685 346.7728 327.6232 346.7144 326.9917 347.2648 326.6143 347.2363 325.7621 347.1965 325.3132 346.9199 325.1902 346.9133 325.368 346.7019 325.6569 346.2734 325.4302 345.924 325.0133 345.6769 325.3022 345.8968 325.4047 346.0884 325.7459 345.9128 326.0368 345.4439 326.0611 344.9996 325.9529 343.6056 327.1026 342.8255 326.954 342.7785 326.4693 343.0667 326.5569 343.6274 326.4075 343.6374 326.0411 343.0741 326.196 342.434 325.8921 342.3608 325.5278 342.5814 325.5879 342.9066 325.0998 342.7449 324.7539 342.337 324.6509 341.8664 324.6457 341.3937 324.3733 341.0193 323.9246 341.3567 323.5299 341.9136 323.6205 342.0753 323.2109 341.8638 322.6863 341.2071 322.785 340.9259 322.0288 340.9201 321.6091 340.0779 320.9797 339.1071 320.7377 338.3444 320.6434 337.9133 321.2365 337.8805 321.6305 337.362 321.6152 337.4149 321.1964 336.7836 320.4156 336.0594 318.799 335.5348 318.1185 334.6524 318.5837 334.261 318.9974 333.6577 318.7114 333.7821 318.0603 333.9559 317.1294 333.9646 316.375 333.3781 315.9548 333.0186 316.8253 331.7152 317.1627 331.3725 317.072 331.3665 316.7162 331.8245 316.6397 331.5034 316.0921 330.8165 316.1243 330.2158 315.6315 330.5063 315.0954 330.6929 315.3511 331.4155 315.2908 331.5637 314.8189 331.1054 314.1935 330.492 314.2208 329.4833 313.912 329.1151 312.6117 328.4714 311.989 327.5347 311.638 326.9698 312.2879 326.7116 313.5567 326.0479 314.3854 325.4548 314.6379 325.5108 314.3972 325.327 313.6853 324.7286 313.8418 324.238 313.6831 323.7626 312.9214 323.7176 312.4748 324.2195 312.1105 324.8697 312.2304 325.1726 311.6482 325.1406 311.2734 324.5179 311.466 323.6631 311.658 322.9264 310.9162 322.3522 310.1833 322.4395 309.6003 321.3862 309.0145 320.7883 309.4264 319.7768 310.0381 318.8824 309.9514 318.2617 310.0195 317.8898 309.9101 317.8011 309.1788 318.1936 308.9658 318.3417 308.4467 318.1695 308.1703 318.1179 308.0316 317.5677 308.3119 316.9299 308.7102 316.1771 308.5836 315.5999 308.2435 315.1846 308.2438 315.0817 308.8487 314.9785 309.4916 314.3526 310.13 314.5991 288.142 Z" id="fips-46075"/>
<path d="M 720.6788 412.8454 745.3176 411.798 757.6637 411.2974 759.8178 465.4828 759.0786 465.193 758.4097 465.0241 757.3466 464.9732 755.8723 464.5222 755.1696 464.1209 754.038 463.3437 752.7242 462.9261 751.2443 462.8259 749.1044 461.6868 747.682 462.0833 747.3043 462.2566 746.6876 462.8372 746.0203 463.2951 745.5758 463.5788 744.7707 463.9121 744.0426 463.9824 743.4398 463.9118 743.2304 463.8055 743.0898 463.5521 742.9837 463.2593 742.9533 462.8939 743.377 461.5224 743.4075 461.1608 743.3609 460.9433 742.4835 459.0259 741.7844 458.4757 741.3784 458.239 741.0534 458.1856 739.9463 458.3831 737.5242 458.176 736.574 458.0946 736.0076 457.9335 735.6772 457.6331 733.6684 457.0992 732.2525 456.868 731.5963 456.8769 730.8146 457.0356 730.182 457.2524 729.0684 457.3984 728.5283 457.3681 727.4447 457.4535 725.3663 457.1697 725.0249 456.8159 724.7249 456.1927 724.7219 455.9024 724.5845 455.5552 723.8813 454.626 723.2067 453.8718 722.1806 453.3146 720.6788 412.8454 Z" id="fips-46027"/>
<path d="M 60.8674 194.6022 122.2048 196.847 122.6658 184.5158 124.805 135.3059 124.9721 134.6851 221.5945 137.5174 219.9198 212.7731 219.8528 212.877 216.1092 213.823 214.3177 216.7078 212.1099 217.831 212.4545 218.8396 210.1985 220.7046 208.2503 223.3482 205.058 222.0923 202.9537 224.4291 199.6166 223.416 197.0684 221.9653 197.1312 220.7296 193.7965 221.4491 190.9198 221.1114 189.2307 223.6162 188.4864 223.1294 188.5026 229.213 188.9082 231.5906 187.6741 233.1539 186.544 232.5237 184.5611 235.2282 184.4321 238.0583 182.4482 242.403 181.6048 247.4511 182.5278 252.1712 180.9334 253.2941 180.8824 255.0598 178.7137 255.925 177.8248 260.2968 179.2275 260.9405 177.4733 262.332 179.04 264.911 111.145 262.775 108.0841 262.6639 102.8953 262.4768 86.0642 261.851 69.9755 261.2491 70.2045 255.1568 70.5652 244.7015 58.1556 244.2803 59.176 231.7083 60.8674 194.6022 Z" id="fips-46093"/>
<path d="M 21.3803 1 58.7735 2.6657 59.5375 2.6979 59.5374 2.6993 67.8423 3.0354 69.6645 3.1314 81.9565 3.5986 82.2006 3.605 83.6242 3.6787 84.2911 3.6934 87.8479 3.8975 88.4763 3.8708 96.9165 4.1897 96.9182 4.1902 103.4394 4.4221 104.2099 4.4482 109.1123 4.6125 111.1284 4.6918 115.4036 4.8417 117.3291 4.905 120.3769 5.0037 122.5332 5.0816 125.5496 5.2038 125.5816 5.2051 126.1222 5.2169 130.8705 5.3923 129.8061 35.7065 127.3684 85.1743 125.8139 109.9314 122.7439 109.8729 121.4525 109.7655 64.9475 107.6221 16.9485 105.5829 17.7549 88.0129 17.8277 86.6699 18.0375 82.5506 18.1378 79.7995 18.5647 69.9134 18.6597 65.9 18.7709 64.5882 18.8066 64.1072 18.9913 59.0001 19.0766 57.3489 19.0966 56.3162 20.3335 28.8925 21.0177 11.9877 21.0228 11.4745 21.0888 10.0469 21.3803 1 Z" id="fips-46063"/>
<path d="M 276.0387 76.4519 362.1616 77.2874 389.1263 77.3053 390.1692 81.3791 393.6332 85.9212 395.9114 90.3255 395.0913 94.1159 392.4858 97.4365 391.6372 99.4613 392.5663 103.1776 396.5197 107.582 397.307 109.6262 397.1935 112.8433 395.8174 116.5619 395.4109 122.1914 394.228 125.1233 390.7197 130.7004 390.8766 134.2987 391.6167 136.4256 395.1416 140.1281 395.3352 142.1073 394.3355 142.8356 391.6803 142.6662 386.8975 140.7342 384.1862 141.0067 382.3259 143.1972 380.7484 146.3111 381.5554 155.8127 382.6588 159.51 383.8423 162.7588 382.8527 165.3498 381.2311 167.2728 375.4986 171.1082 371.6929 175.4986 369.9463 178.2561 368.5381 178.9962 361.8903 177.7765 358.5873 174.5566 355.0969 170.062 352.4809 169.303 351.1576 170.3233 349.7 175.0711 350.8701 177.5045 348.9637 178.5213 348.9836 176.9978 347.279 177.2271 347.0824 178.9658 345.5772 179.2943 344.7752 177.2952 342.5981 178.4734 339.5023 175.6693 337.0784 176.0129 333.577 177.557 331.3343 175.5363 330.6194 177.5478 328.3121 178.5441 326.759 178.102 326.7682 179.627 324.6914 180.1057 323.4142 182.8687 322.6158 181.8314 319.8596 183.9516 316.5379 181.6327 313.7235 181.8491 308.296 180.5486 308.7549 145.2529 271.9298 144.8087 271.9819 138.44 273.4347 138.4569 274.2268 88.8353 275.7607 88.8598 276.0387 76.4519 Z" id="fips-46041"/>
<path d="M 224.5715 8.0265 225.2102 8.0523 225.4771 8.0579 227.042 8.0935 228.6625 8.1238 235.6772 8.2575 239.0745 8.3398 241.027 8.3771 244.8407 8.4601 245.2931 8.4623 247.6652 8.5241 247.7532 8.5193 247.8542 8.5148 248.4174 8.5158 251.2531 8.5855 251.9173 8.6217 253.3679 8.6249 256.0476 8.6589 256.171 8.6775 258.4509 8.7091 261.3357 8.7721 267.9378 8.8896 268.4224 8.917 282.0742 9.1739 286.6586 9.167 286.9645 9.1809 287.5016 9.2034 290.6234 9.2353 292.6705 9.2627 295.2592 9.3044 296.8196 9.3097 301.5417 9.3943 303.5509 9.4368 306.0041 9.4653 306.3431 9.4567 306.8021 9.4654 307.5805 9.4805 309.2863 9.5101 309.6347 9.5141 313.1875 9.5321 313.7331 9.5584 325.7236 9.6436 326.1336 9.6764 327.3416 9.6932 329.8683 9.7116 330.2068 9.7275 334.7199 9.7498 346.6891 9.85 347.4486 9.8547 347.4524 9.8496 348.6117 9.8789 351.5483 9.8432 358.5102 9.9305 360.81 9.9472 372.3134 9.9921 372.3289 9.9921 373.5653 9.9994 374.62 11.9106 377.2264 13.448 381.6806 18.5416 384.7096 20.6717 385.3436 22.2396 385.1662 25.035 385.8406 28.2747 388.2558 34.5815 392.4549 43.7326 392.4689 46.3347 391.5746 48.645 389.6285 50.1108 385.329 50.4537 382.7126 51.983 381.6804 54.1759 380.3314 59.8649 379.2513 62.1301 375.8172 64.8636 374.6562 68.182 375.393 69.8161 378.9118 72.0045 384.1493 71.7138 386.7934 73.4138 389.1263 77.3053 362.1616 77.2874 276.0387 76.4519 222.9701 75.4811 224.3667 8.0279 224.369 8.028 224.3921 8.019 224.5631 8.0261 224.5715 8.0265 Z" id="fips-46031"/>
</g>
</svg>