<?xml version="1.0"?>
<svg xmlns="http://www.w3.org/2000/svg" version="1.2" baseProfile="tiny" width="800" height="197" viewBox="0 0 800 197" stroke-linecap="round" stroke-linejoin="round">
<g id="cb_2018_us_county_5m">
<path d="M 251.9738 7.5733 258.934 7.54 259.1052 7.5421 269.8477 7.496 270.6603 7.492 271.7106 7.4695 272.6875 7.4801 272.6887 7.4801 275.3003 7.489 278.7604 7.4995 279.0951 7.4949 279.8394 7.4987 281.7595 7.5083 284.813 7.5226 285.0967 7.5302 287.9037 7.5424 289.421 7.5509 289.4673 7.5505 300.0181 7.5802 299.0055 9.0999 299.4426 10.8609 298.2878 16.6173 296.7148 16.1555 298.5878 18.4808 299.652 18.0871 299.3795 22.536 298.601 28.1051 299.3486 28.8496 296.6083 30.0137 296.6546 33.15 295.438 33.616 294.9738 31.9684 293.9082 32.3851 293.9049 34.3641 291.5068 34.0179 290.6285 35.549 287.41 37.5717 286.1561 40.2465 284.5798 40.2484 284.0033 43.9111 282.4682 44.9764 263.2078 42.2334 261.6261 42.027 256.4885 41.3467 256.0313 38.3953 251.9738 7.5733 Z" id="fips-47125"/>
<path d="M 383.0646 8.143 383.1203 8.1477 383.7857 8.1897 394.346 8.7946 394.4627 8.7838 398.3267 9.1291 398.8042 9.1721 398.8379 9.1772 404.0372 9.3587 405.4863 9.4088 413.3541 9.8836 417.1622 10.0459 419.9642 9.9883 421.1377 10.0467 421.1406 10.0468 420.4292 10.9958 418.9101 23.9845 417.6705 33.964 411.4665 33.0027 410.7141 33.2484 403.8478 32.407 386.5042 30.3827 384.5008 26.0128 380.9895 25.4777 381.5473 25.0775 382.1493 22.2956 381.2881 20.7772 383.0646 8.143 Z" id="fips-47111"/>
<path d="M 387.9948 86.1291 387.8739 85.1395 391.0979 85.5802 394.4208 84.911 400.7382 85.3365 402.3837 86.2632 409.8736 94.6102 412.3664 97.0696 412.75 99.1031 410.1101 101.0672 406.3588 107.3906 404.9616 108.937 402.4452 113.679 403.6096 119.575 402.7431 120.3046 399.251 120.6108 398.758 121.5439 394.0136 121.1175 391.1086 119.5196 388.9458 119.4313 386.8914 117.1824 383.0681 114.6573 382.992 111.4145 384.1412 110.3719 384.9103 107.8337 384.7656 104.1684 385.5766 100.8236 386.5891 94.1022 387.5183 94.5082 388.0337 91.2813 389.0591 90.6818 387.8058 88.6149 387.9948 86.1291 Z" id="fips-47015"/>
<path d="M 410.4042 161.7574 411.0185 160.8322 411.1927 157.0603 413.3924 154.9596 414.4515 151.3549 412.8269 151.237 413.0527 149.9342 412.5865 144.1355 412.8987 138.9526 413.7556 136.9167 412.8932 135.817 413.6788 135.0102 417.7626 135.9901 418.9354 137.2049 421.6158 135.6752 425.0947 134.9411 429.7628 134.3994 438.6444 133.9952 442.164 136.9124 445.2302 139.0134 444.8211 141.9403 445.3606 145.3398 447.5504 146.2927 447.5102 148.0394 450.0393 148.166 449.7278 150.7649 448.1811 153.7186 444.8385 155.5909 443.3546 158.1249 436.4596 159.9542 434.3678 159.7548 431.1365 161.9956 429.369 161.6459 430.8776 167.3251 426.5696 170.0798 423.4644 169.707 418.9007 167.0597 416.7919 167.1979 414.2084 169.2305 410.9344 163.2332 410.4042 161.7574 Z" id="fips-47061"/>
<path d="M 94.0364 90.2866 99.8232 89.8378 101.1086 86.7879 102.701 86.402 106.9763 81.3171 108.6094 77.1929 108.9744 78.5751 110.5285 79.8765 113.3689 80.9638 114.2536 86.3248 113.678 88.6575 114.9244 90.3583 115.4346 93.0318 117.7364 93.2557 120.3187 94.5971 123.5082 94.1512 123.7058 95.8347 126.5367 97.2678 128.5399 97.4287 131.0158 98.8781 133.0799 100.9177 135.1834 102.5055 122.99 115.0316 121.7569 114.1603 119.4567 113.9735 118.6091 112.4374 117.6969 111.8838 114.244 111.5644 111.9847 109.161 109.3191 107.2747 106.3372 105.8846 100.2023 104.82 98.8793 102.8346 96.7337 102.6662 94.2102 100.4555 93.0895 98.0953 92.5993 97.4493 92.6 95.149 94.2719 92.419 94.0364 90.2866 Z" id="fips-47033"/>
<path d="M 112.4431 53.9742 130.158 54.8114 130.3507 52.4033 132.7191 55.6841 136.2028 57.7941 138.9539 62.3272 140.3678 62.6359 140.9707 63.989 144.7636 65.1829 147.735 65.4272 149.1203 66.2507 149.246 67.7373 154.4127 71.2367 153.9968 78.1632 152.4587 101.5496 152.3705 102.1129 133.0799 100.9177 131.0158 98.8781 128.5399 97.4287 126.5367 97.2678 123.7058 95.8347 123.5082 94.1512 120.3187 94.5971 117.7364 93.2557 115.4346 93.0318 114.9244 90.3583 113.678 88.6575 114.2536 86.3248 113.3689 80.9638 110.5285 79.8765 108.9744 78.5751 108.6094 77.1929 107.0447 75.775 110.9934 74.2528 112.4431 53.9742 Z" id="fips-47053"/>
<path d="M 143.9326 163.7727 149.6902 163.9183 150.8904 162.7721 152.6893 156.8568 154.0597 155.3877 154.2294 156.6394 155.9889 156.0986 154.9318 155.889 155.196 153.4975 157.3084 151.1843 163.7768 148.9356 171.6239 148.7525 183.1704 149.4797 182.7414 156.9009 182.0912 156.8837 181.8458 158.2123 182.5287 159.7113 180.6118 193.29 172.2939 193.0631 172.2868 193.0651 168.1561 192.987 142.7805 192.4663 142.9499 184.8137 143.1304 177.6969 143.9326 163.7727 Z" id="fips-47109"/>
<path d="M 258.1016 60.0225 262.1642 51.9881 263.2078 42.2334 282.4682 44.9764 284.0033 43.9111 285.8336 44.0614 288.0392 43.7853 288.8805 42.9016 290.3934 44.6582 294.0068 44.8876 296.2229 45.907 295.8795 49.7476 293.5408 51.0724 292.4754 52.2917 293.1256 53.082 294.2411 52.4536 295.0658 53.8461 293.8313 54.6598 292.9282 56.5275 295.513 58.8492 296.3927 60.5288 294.4578 61.756 294.9111 63.0364 294.2223 68.1749 294.1549 72.5726 293.2655 74.9731 291.8318 82.8997 290.4798 83.9883 291.1817 85.259 284.7409 84.5848 284.2157 84.9402 282.1958 84.1308 268.9904 82.2483 264.9246 82.1827 260.809 81.0857 259.1529 78.4293 259.8926 74.9781 260.0323 69.5585 259.3874 64.6035 258.1016 60.0225 Z" id="fips-47043"/>
<path d="M 161.5848 102.5262 163.7808 99.6295 164.9098 99.6588 165.1644 98.5701 201.0985 100.2296 199.6142 123.842 194.5755 132.8775 194.473 144.8943 194.0394 145.6777 183.4199 145.1621 183.2968 136.7562 182.0105 136.7237 178.5886 137.8488 177.9836 137.0748 173.5725 136.2 170.2565 134.2894 168.0604 131.9864 166.7027 129.9958 164.8746 125.6254 161.7414 125.0256 160.4345 125.4098 161.4616 121.1085 160.8529 118.7792 161.5848 102.5262 Z" id="fips-47077"/>
<path d="M 291.1817 85.259 290.4798 83.9883 291.8318 82.8997 293.2655 74.9731 302.2036 75.7185 305.1165 75.5377 306.4051 81.9536 308.5425 80.9911 316.6334 74.7794 329.2962 76.6883 330.5595 77.0895 334.0912 79.3783 336.4598 79.9717 337.3486 80.6523 342.3963 83.5993 344.8203 84.152 345.1009 84.54 344.5346 84.7112 345.4532 87.331 344.339 90.5795 345.5466 94.1538 345.2034 96.3861 346.2871 97.4105 346.4868 99.2833 345.2919 99.2698 344.3982 100.6635 345.7088 100.8911 345.5589 104.7857 342.4479 104.182 340.9872 104.7037 341.1254 107.3788 340.2016 106.8859 339.2215 109.3487 337.8287 109.0857 337.5952 113.0107 338.8014 113.901 333.2181 114.1261 332.7466 115.4263 329.9454 114.2595 327.1922 112.6696 324.0907 112.1183 320.17 109.9744 315.5439 107.8824 316.4705 106.0574 313.3248 105.489 312.6669 106.7603 309.4919 105.9029 308.4304 104.992 290.0723 97.6011 291.4226 87.3787 291.1817 85.259 Z" id="fips-47187"/>
<path d="M 118.6091 112.4374 119.4567 113.9735 121.7569 114.1603 122.99 115.0316 135.1834 102.5055 133.0799 100.9177 152.3705 102.1129 161.5848 102.5262 160.8529 118.7792 161.4616 121.1085 160.4345 125.4098 160.3302 127.5619 158.3198 131.3658 154.4121 136.5292 141.2822 143.2322 138.8922 143.1289 134.1213 142.9127 116.9244 142.1321 117.8677 126.1365 118.6091 112.4374 Z" id="fips-47113"/>
<path d="M 154.4127 71.2367 155.7399 70.8415 157.9893 71.1455 157.9812 65.1072 169.2984 65.5857 169.5674 61.4248 173.3878 61.6283 174.8007 61.7809 198.814 62.718 198.6789 65.6387 198.2062 81.2845 197.6344 96.7726 201.2818 96.9259 201.0985 100.2296 165.1644 98.5701 164.9098 99.6588 163.7808 99.6295 161.5848 102.5262 152.3705 102.1129 152.4587 101.5496 153.9968 78.1632 154.4127 71.2367 Z" id="fips-47017"/>
<path d="M 243.7887 98.4274 244.8464 90.8161 250.9203 88.8419 253.6271 85.9003 255.8679 85.5423 258.1958 86.1547 260.964 83.7751 260.809 81.0857 264.9246 82.1827 268.9904 82.2483 282.1958 84.1308 284.2157 84.9402 284.7409 84.5848 291.1817 85.259 291.4226 87.3787 290.0723 97.6011 288.1866 111.9191 287.1095 112.3707 286.1781 114.652 283.0511 115.0336 278.4038 119.2889 276.7266 119.2258 271.0139 123.1079 267.2208 124.1748 262.7799 122.6144 258.9563 122.3583 257.1687 119.8247 255.5027 119.689 253.6157 121.6078 252.0958 121.9852 251.7242 123.9112 248.8426 124.6049 246.2255 121.7979 242.7923 119.8559 241.0167 118.2823 241.6274 113.9218 244.137 113.8121 242.1162 111.2066 243.7887 98.4274 Z" id="fips-47081"/>
<path d="M 65.4243 146.8784 65.8028 146.1197 68.66 144.8529 74.0734 143.8691 80.216 144.2648 82.8706 144.4383 83.5 144.5959 107.0814 145.757 104.5537 189.5468 104.4401 191.5171 102.6583 191.4371 90.0642 191.1279 85.1255 191.0018 82.4036 190.9312 77.569 190.7521 76.9334 190.6878 75.3139 190.5907 70.2969 190.4022 62.946 190.1209 64.3548 167.1019 64.3257 165.7402 64.5883 158.0926 65.4243 146.8784 Z" id="fips-47047"/>
<path d="M 347.4464 53.0371 349.5794 51.0567 350.6225 48.2255 350.2013 46.2788 351.2677 44.6292 352.1307 44.4561 352.6383 47.8568 354.1203 49.2966 354.8779 46.9987 360.5418 42.7588 362.1974 42.261 363.5969 43.0792 363.8661 45.2573 364.5651 45.9401 366.1588 45.6571 366.2245 43.6519 367.4024 41.0231 368.8291 40.2538 370.1861 41.6845 370.225 43.4215 368.7643 45.5088 371.6593 44.6818 374.445 45.4088 374.778 42.8753 375.9846 41.4107 376.9463 41.401 377.6926 43.5952 376.885 45.7498 377.7144 46.8468 379.1042 46.1511 379.5424 42.6701 380.8752 41.1956 381.1421 41.9528 383.0153 41.954 383.2454 43.1301 385.0624 44.6105 385.8271 43.5225 389.4213 47.2681 390.5225 50.7217 391.3728 50.3331 391.035 52.3526 390.8544 54.6014 391.7816 54.9205 394.9374 65.5442 395.9604 66.7886 396.564 71.1288 396.2285 72.9474 397.7083 74.3722 397.1552 75.9329 398.7847 77.3383 398.3356 79.9155 399.6497 81.0725 400.7382 85.3365 394.4208 84.911 391.0979 85.5802 387.8739 85.1395 387.9948 86.1291 387.2669 85.1274 378.9186 85.3756 373.4626 83.1756 373.5532 82.5338 372.0537 82.6638 368.5596 79.8003 366.3365 77.8627 366.8735 76.9459 365.7144 77.4258 362.4114 75.2573 362.0454 75.2773 354.6411 69.4956 352.7712 68.6324 353.5229 64.9236 350.8541 65.5794 350.9583 64.3937 349.5751 61.1704 349.1492 58.7991 347.4464 53.0371 Z" id="fips-47189"/>
<path d="M 318.2653 37.2675 318.64 36.4008 320.0042 36.5404 321.6591 38.5074 323.6569 38.7564 326.3255 41.0434 329.7856 39.9417 329.4575 37.992 330.3016 36.5359 331.9127 36.008 332.7915 34.7363 333.624 35.0127 335.274 38.522 335.8627 41.9843 340.0833 44.9718 340.6335 46.7048 343.0821 48.1152 343.3373 51.8879 344.8309 52.5519 345.5368 53.0322 347.4464 53.0371 349.1492 58.7991 349.5751 61.1704 350.9583 64.3937 350.8541 65.5794 353.5229 64.9236 352.7712 68.6324 354.6411 69.4956 353.7035 74.4206 353.5413 72.5196 351.9252 71.0829 351.7922 73.3698 349.9579 75.3868 350.3182 76.9169 349.8781 77.0101 346.7854 79.5769 345.6841 80.0694 346.1081 83.2286 345.1009 84.54 344.8203 84.152 342.3963 83.5993 337.3486 80.6523 336.4598 79.9717 334.0912 79.3783 330.5595 77.0895 329.2962 76.6883 316.6334 74.7794 308.5425 80.9911 306.4051 81.9536 305.1165 75.5377 306.2502 76.0318 306.5868 69.9905 310.3333 66.1361 311.6887 56.9209 311.6643 55.1167 313.5898 50.3965 315.0291 48.6504 317.3047 43.7849 318.894 39.1378 318.2653 37.2675 Z" id="fips-47037"/>
<path d="M 92.5993 97.4493 93.0895 98.0953 94.2102 100.4555 96.7337 102.6662 98.8793 102.8346 100.2023 104.82 106.3372 105.8846 109.3191 107.2747 111.9847 109.161 114.244 111.5644 117.6969 111.8838 118.6091 112.4374 117.8677 126.1365 116.9244 142.1321 107.3268 141.701 107.0814 145.757 83.5 144.5959 82.8706 144.4383 80.216 144.2648 81.131 127.9526 79.9001 127.8707 80.4856 126.3169 78.2727 123.9835 80.1154 122.5248 81.2942 122.4176 81.9458 112.4781 83.2044 112.5365 85.2462 107.212 85.7656 105.2358 84.6161 105.1713 84.7048 103.0917 86.7181 99.3897 88.0179 98.3076 88.3992 96.7474 92.5993 97.4493 Z" id="fips-47075"/>
<path d="M 585.0237 47.6086 585.6039 46.1946 586.698 46.3048 587.7235 44.3675 588.0789 37.9502 589.7322 36.2706 589.2228 34.1607 589.5493 32.5983 592.3058 34.0555 593.9487 32.0225 593.6393 30.3682 595.5476 30.1671 597.6602 28.5934 599.6772 29.1557 600.26 30.2372 602.7516 28.3258 603.9595 29.749 603.7692 30.8713 606.6149 32.4477 608.6334 35.7138 608.608 37.4148 609.6633 38.4909 611.665 38.3003 612.8677 36.0479 615.672 38.3961 613.8366 43.9562 613.8528 45.8795 612.6615 46.5835 612.568 49.2044 613.3801 48.7042 613.6161 50.6216 613.0948 54.0396 611.5871 54.9683 610.5865 57.0102 611.8693 57.9206 610.2457 59.0115 605.2567 58.9888 594.5133 58.9185 594.4266 59.8398 593.2686 58.9094 592.7921 58.9158 591.0003 57.0252 588.4169 54.3876 584.5256 47.6283 585.0237 47.6086 Z" id="fips-47173"/>
<path d="M 740.5582 28.1578 741.6372 28.2476 744.8293 25.2883 749.5359 27.2567 750.6996 27.2868 757.8804 21.3621 758.5914 20.2719 760.5062 20.3476 763.9759 16.9487 767.6503 16.0341 768.8522 14.203 768.8338 15.0467 772.1399 18.148 770.7162 19.2872 765.0155 27.9171 762.7147 30.5247 764.2733 30.9799 765.4808 34.2298 768.0791 34.1598 769.2605 36.1601 770.1041 39.2348 773.0785 42.0984 774.7532 41.6719 774.261 42.6939 772.4648 45.9572 766.87 57.36 766.9025 57.4725 766.7073 58.0393 766.3236 58.5005 765.8801 58.4404 765.3085 57.9759 764.3664 57.8579 764.2068 58.1953 764.2229 58.5591 763.7751 59.4445 763.2489 59.593 762.1211 60.2689 762.0885 60.3615 762.0147 60.36 761.5552 60.3506 760.4013 60.4352 760.1146 60.3907 759.7567 60.1899 759.4218 60.3071 758.8754 60.6269 757.7851 60.6971 757.4543 60.4836 756.7176 59.0165 756.8281 58.54 756.8029 57.9602 756.3722 57.136 756.0304 56.2395 755.656 55.6519 754.9297 55.8427 754.4851 56.0403 753.718 56.0656 753.4532 56.0997 753.3028 56.2315 753.1484 56.4026 752.8532 56.4806 752.5132 56.4475 752.4089 56.3722 752.3032 56.2628 752.007 55.9939 751.6267 55.9045 751.3093 55.7813 750.9386 55.4895 750.693 55.2437 750.4023 55.0164 749.8083 54.82 749.5695 54.8188 749.1542 54.9821 748.8286 55.1008 748.034 51.3074 746.2607 49.5256 744.3673 49.2291 745.3187 46.5583 742.6289 44.5636 739.4057 43.7112 737.5256 44.6494 737.3063 43.3862 739.4978 36.1913 740.3323 32.5867 740.6692 31.0421 740.5582 28.1578 Z" id="fips-47019"/>
<path d="M 256.2068 148.7018 261.6374 148.7985 262.3255 146.93 265.2263 146.9593 265.2264 146.0558 267.9701 146.3188 268.0482 142.0836 279.4175 142.3668 279.3009 143.3576 282.3022 143.7311 282.2338 144.0204 288.4607 145.5347 288.6258 144.2757 290.4444 145.1113 289.6125 151.0108 289.5193 160.7437 287.94 161.0784 289.49 161.784 289.6163 168.5063 288.7862 174.6652 290.9416 175.909 289.4506 180.3686 288.3783 188.8285 288.3899 194.4677 287.785 194.4444 284.107 194.3075 281.3886 194.2217 276.723 194.0903 275.7884 194.0623 273.7578 194.0076 272.8034 193.9683 270.3725 193.9086 269.9864 193.9032 269.3276 193.8828 268.5391 193.8694 252.7801 193.5888 252.2667 191.8338 252.8678 189.9231 255.3894 190.0683 255.9588 188.4617 254.474 187.3756 255.0986 177.7471 255.5756 172.7636 255.6488 168.424 256.2068 148.7018 Z" id="fips-47099"/>
<path d="M 212.8596 2.4095 215.2093 2.4659 218.2162 2.6265 230.9429 4.1921 232.9932 4.3818 232.607 7.8416 242.5112 7.6579 247.13 7.6179 251.9738 7.5733 256.0313 38.3953 244.7515 38.1792 244.0691 39.0663 240.9792 40.999 238.3781 41.9706 234.9432 42.5342 231.3017 42.3476 228.4449 41.7525 223.7027 39.4666 220.4253 39.506 219.5059 38.7137 215.4975 31.7958 213.2161 29.0617 214.1331 25.9737 214.0675 23.0287 214.0754 23.0291 214.3317 22.7007 214.8118 22.2506 215.3569 21.54 215.5154 21.151 215.5684 20.6989 215.529 20.3358 215.5857 20.0217 215.7194 19.7817 215.8871 19.1919 216.0563 18.1088 215.9583 16.8471 215.8117 15.7062 215.4683 14.443 215.3475 13.1503 215.0262 11.0033 214.1129 7.8536 214.1357 7.2582 214.0142 6.7064 213.8794 6.3882 213.3635 5.5212 213.0342 4.5033 212.8596 2.4095 Z" id="fips-47161"/>
<path d="M 632.6938 9.1211 641.5629 8.8439 650.5563 8.4744 651.9589 8.9197 652.9436 8.883 652.9807 8.8861 653.069 8.8914 673.1909 8.2225 673.292 8.2243 677.135 8.106 685.9932 7.8272 691.2432 7.6054 686.4398 10.1216 680.4952 13.7654 679.5107 12.4161 677.4444 13.702 676.8021 11.7423 674.9126 11.6026 672.2487 13.0367 665.0486 17.6052 663.8819 19.5316 660.9871 22.5879 661.4897 23.6759 657.4658 26.087 658.7224 28.0126 656.132 29.7013 650.902 31.6319 648.7203 32.4289 648.323 31.1547 645.3281 30.2457 644.2725 28.9803 640.8979 30.4067 641.1221 29.8279 642.4408 27.429 642.5517 24.5474 639.6461 16.0175 636.38 11.7652 632.6938 9.1211 Z" id="fips-47067"/>
<path d="M 24.5035 144.4623 25.2755 144.3761 25.7346 144.2778 26.439 143.9523 26.2859 142.2942 26.7344 141.8274 27.6514 143.162 41.7233 144.3335 42.218 144.3197 43.9268 144.4286 49.9547 144.5817 51.9494 145.0497 52.2047 143.0827 56.441 143.6928 59.0935 142.9333 58.98 145.1526 64.6337 145.6546 64.2758 147.365 65.4243 146.8784 64.5883 158.0926 64.3257 165.7402 64.3548 167.1019 62.946 190.1209 62.9245 190.1201 55.4748 189.8751 53.8498 189.8208 52.1896 189.7973 48.8766 189.7494 47.2069 189.6942 43.9163 189.5845 40.6712 189.4599 40.6356 189.4582 39.7377 189.4153 38.9879 189.3851 30.7597 189.0498 27.4937 188.9147 24.1667 188.7758 20.8597 188.6365 1.0543 187.7771 1 186.7954 1.0637 186.1768 1.3789 185.228 2.003 184.0462 2.3601 183.0244 2.5281 182.7806 2.6356 182.7241 2.8703 182.6008 5.3455 182.8712 5.4818 182.9564 5.5096 183.1967 5.5977 183.3255 6.1378 183.5635 8.5301 184.0202 9.0652 184.1962 9.8413 184.6724 10.0146 184.7082 10.4814 184.6411 11.3711 183.9626 11.7658 183.4558 11.7222 182.7404 11.7265 181.9362 11.8026 181.3236 11.9621 180.6858 13.3691 177.3694 13.8816 175.0337 14.2087 174.365 14.2552 174.3194 15.0084 173.5815 15.5135 173.191 15.9004 172.96 16.9673 172.5468 17.1439 172.5415 17.4893 172.6797 20.1761 174.5035 20.9841 174.7851 21.9182 174.6392 22.2869 174.4834 22.6005 174.2801 23.7785 173.1953 24.2245 172.7113 24.343 172.5222 24.4279 172.1917 24.2986 170.9965 24.2577 170.9078 24.0384 170.6937 22.1027 170.321 21.8679 170.2029 21.5493 169.7639 21.2646 169.3546 20.9604 168.9437 20.7577 168.6267 20.5377 168.1769 20.452 167.7318 20.2752 167.7035 19.9985 167.3453 19.7301 166.6291 19.7279 166.3238 19.8882 165.4272 20.5502 165.3835 21.6145 165.9154 21.7021 165.9126 22.0334 164.9648 22.5073 163.9474 22.9144 164.1854 23.1781 164.454 23.5848 164.3939 23.8328 164.0973 23.8673 163.4648 23.8107 163.0776 23.6458 162.6211 23.4868 162.2278 23.1154 161.756 22.8182 161.3011 22.4221 160.5492 21.8012 159.6378 21.6642 159.472 21.157 159.1228 20.6972 158.9721 20.1064 158.9115 19.4446 158.977 18.6464 159.1521 17.875 159.2237 16.8062 158.7608 16.2071 157.9872 15.543 156.5934 15.3588 156.0738 15.3644 155.7427 15.7542 154.4835 15.8951 154.1557 16.1472 153.8426 16.3688 153.6592 16.8888 153.4573 17.2255 153.3907 18.1596 153.9349 18.8259 153.7717 19.6483 153.3432 19.8191 153.3492 20.2446 153.4967 21.0046 153.3434 21.2995 151.1192 21.6075 150.2443 21.0565 149.0409 21.1924 149.0688 21.3342 149.011 22.0207 148.0721 22.3661 147.448 22.6889 147.088 22.9684 147.0531 23.2184 146.7912 23.6199 146.1771 24.5035 144.4623 Z" id="fips-47157"/>
<path d="M 649.916 88.4586 651.0861 87.7766 652.6551 75.6431 654.036 76.764 654.3603 71.4142 655.8385 69.8901 654.4806 67.0983 656.2425 66.7121 656.9224 65.8471 655.0718 62.2975 657.4554 61.8458 656.8984 59.4044 657.6009 59.2563 659.6902 61.6147 661.5482 61.7293 660.43 56.1366 662.1757 55.6131 661.6774 58.3391 663.5576 59.6554 664.7915 61.4139 666.9888 62.1886 666.8158 63.3027 668.2113 62.2445 670.97 65.169 672.6481 65.5131 673.0196 66.9807 677.2914 71.1737 682.046 75.5304 687.6681 81.5977 687.6641 81.5964 687.3988 82.447 687.4365 83.1593 687.3696 83.3432 687.2772 83.4977 687.0138 83.6582 686.6239 83.7022 686.5548 83.8256 686.523 84.3107 686.575 85.0953 687.0417 85.9117 687.3018 87.0853 687.5666 87.5406 687.5773 87.8427 687.4169 88.1509 687.4009 88.3934 687.6826 88.7464 687.8144 89.014 687.873 89.2841 687.8358 89.6182 687.6981 89.8518 686.3294 90.6391 686.1667 90.8868 686.0827 91.2831 685.973 92.363 686.1697 93.0646 686.0845 93.4305 685.8005 93.7128 685.4155 93.8045 685.0293 94.0725 684.9175 94.4677 684.5514 95.1176 683.9692 95.3294 683.8179 95.4458 683.2516 96.4311 682.9337 97.1687 682.9066 97.3892 682.6645 97.9158 682.42 98.2468 682.3381 98.8605 682.406 99.1282 682.3463 99.2464 682.2435 99.4498 681.7324 99.5036 681.3 99.8457 680.9522 100.3336 680.4581 100.8745 679.729 101.3621 679.3865 101.4672 678.8615 101.4142 678.42 100.8996 677.8329 100.7587 675.6072 99.9705 675.3054 100.0523 675.0198 100.2179 674.8871 100.2293 674.6825 100.1786 674.4705 99.9747 674.0813 99.7782 673.5644 99.9444 673.2781 100.1211 673.0512 100.1436 672.2848 99.9796 672.1116 99.7911 671.6804 99.8675 671.0977 100.3058 671.0277 100.5549 670.0296 101.449 669.755 101.6064 669.7452 101.6023 669.7543 101.6087 669.5607 101.578 669.3552 101.6806 669.3376 101.7666 668.8231 102.0759 668.5334 102.1655 667.9472 102.6377 667.2466 102.4492 665.4817 102.8452 665.3825 102.9429 664.8293 102.9627 664.3543 102.9085 664.1452 103.0895 663.8469 103.4861 663.8038 103.6315 663.8794 104.0939 663.4126 105.0781 663.2569 105.0979 662.7451 105.3496 662.4558 105.9319 662.352 106.3212 662.0416 106.9691 661.7943 106.9876 660.8971 107.5066 660.7262 107.5307 660.3872 107.4025 659.4034 107.6754 659.1707 107.5328 658.89 107.4451 658.6476 107.5056 657.7792 107.5379 656.981 107.488 656.8573 107.8474 656.735 107.9771 656.0298 108.2974 655.6644 108.7287 655.6569 108.8586 653.7305 109.0902 653.1979 104.9507 653.6559 102.7105 652.6297 101.513 652.4241 99.8141 654.5866 96.9472 650.1899 91.2002 649.916 88.4586 Z" id="fips-47029"/>
<path d="M 768.8522 14.203 770.4556 11.488 773.3747 8.9988 773.6298 7.1989 778.3496 4.6663 778.6069 3.0874 782.6129 1.5129 790.7997 1.3389 799 1 796.3425 3.8392 796.1199 4.1459 796.2566 4.8913 796.4455 5.3963 796.4841 5.8146 796.2315 6.0659 795.6432 6.1738 795.2926 6.0994 795.1022 6.4468 795.1499 6.7924 795.3521 7.1304 795.4653 7.5501 795.4026 7.9812 795.072 8.3468 794.7613 8.8998 794.566 9.4383 794.5819 9.7662 793.8561 9.8714 793.8513 10.3383 793.947 11.0186 794.4373 11.6542 794.6468 12.2283 794.6944 12.3436 794.7463 12.4864 794.768 12.6425 794.9399 12.9825 794.9371 13.0856 795.0008 13.3852 794.9434 13.4818 794.7829 13.8538 794.7563 13.8995 794.798 14.1774 794.954 14.2608 795.0515 14.3792 795.1054 14.6897 795.2 14.8917 795.1117 15.6754 795.2542 16.7212 795.3923 16.8326 795.4258 16.9655 795.3843 17.5793 795.1587 17.9513 795.0492 18.0457 794.8787 18.025 794.2355 18.2829 793.6568 18.8796 793.6604 19.3187 793.7469 19.5865 793.7743 20.0333 793.6963 20.346 793.6819 20.6944 793.7278 21.0013 793.7389 21.2326 793.6027 21.6255 793.534 22.1276 793.3129 22.8472 792.5128 23.6957 792.1236 23.9511 791.7743 24.2622 791.6726 24.7307 791.7002 25.3089 791.879 25.8028 792.2653 26.083 792.4949 26.3532 792.5971 26.5416 792.6719 26.8085 792.6152 27.391 792.4994 27.7439 792.4559 28.1324 792.6232 28.4024 793.1168 28.9679 793.3277 29.482 793.3461 29.8676 793.39 30.1359 793.5032 30.5555 793.6364 30.7424 793.93 31.0376 794.3383 31.1342 794.9129 31.49 795.1627 31.9515 795.1201 32.3358 795.0037 32.7202 794.4836 32.866 794.1076 32.6491 793.7442 32.3842 793.2851 32.2101 792.8203 32.1384 792.4633 32.189 792.0494 32.3378 791.6066 32.5841 791.2999 32.6467 790.7006 32.7105 790.3744 32.6739 790.1229 32.6085 789.9642 32.5387 789.6251 32.5932 789.3488 32.3185 788.4986 31.7574 788.1856 31.6196 787.9335 31.6293 787.6182 31.5281 787.3539 31.1928 787.1826 30.853 786.8564 30.5205 786.3488 30.5187 785.6899 30.9996 785.2814 31.3666 784.4173 31.6627 783.4466 31.8763 782.7309 32.3671 782.3472 32.7221 781.8825 33.0694 781.3079 33.4049 780.8006 33.9497 779.836 35.2493 779.6836 35.6111 779.4032 35.8869 778.7085 36.4398 778.0493 36.6988 777.7615 36.682 776.8357 37.3431 776.0012 39.0784 774.7554 41.6674 774.7532 41.6719 773.0785 42.0984 770.1041 39.2348 769.2605 36.1601 768.0791 34.1598 765.4808 34.2298 764.2733 30.9799 762.7147 30.5247 765.0155 27.9171 770.7162 19.2872 772.1399 18.148 768.8338 15.0467 768.8522 14.203 Z" id="fips-47091"/>
<path d="M 591.0003 57.0252 592.7921 58.9158 593.2686 58.9094 594.4266 59.8398 594.5133 58.9185 605.2567 58.9888 610.2457 59.0115 611.0116 61.5183 613.4729 65.1988 614.5895 64.9014 616.4973 68.4043 614.2641 66.8666 612.6188 67.0702 614.0733 71.0135 616.2426 71.5399 616.0927 73.2083 617.2843 78.5239 618.3105 79.0806 616.8808 81.9348 615.1463 83.3115 615.4594 84.7967 614.1466 84.5003 610.4686 87.1946 607.8071 87.8919 605.4228 90.7251 603.9669 91.6483 603.7949 92.081 600.2345 96.0703 595.1047 95.5992 591.5062 92.3292 588.8022 93.8432 587.7998 92.335 583.8898 92.5257 585.4834 93.7068 585.6839 96.1621 584.273 96.4295 583.2774 95.0625 581.969 95.3817 581.5686 98.0956 580.3677 97.6615 579.2946 95.5064 577.0868 96.3223 575.1368 97.7967 575.2537 96.3273 573.15 95.7841 574.2123 97.4054 573.512 99.3107 573.9942 100.4002 573.4131 101.9048 571.9978 102.0012 571.3633 100.8874 571.1738 100.394 568.6071 97.5811 564.3181 92.8979 562.6004 90.9835 562.1835 90.6346 561.3957 89.146 563.1455 88.1157 561.2042 85.6965 562.9116 85.7249 564.6369 86.6277 563.8252 83.9917 565.9326 84.9976 566.5912 81.5659 567.9233 81.3746 568.228 79.5683 572.4439 80.1665 576.7987 77.2465 578.2916 76.6429 579.6365 75.2261 580.677 74.3568 577.4309 70.2288 583.1139 65.1733 584.3852 62.9912 585.1213 62.9157 587.8764 59.2075 591.0003 57.0252 Z" id="fips-47093"/>
<path d="M 138.8922 143.1289 141.2822 143.2322 154.4121 136.5292 158.3198 131.3658 160.3302 127.5619 160.4345 125.4098 161.7414 125.0256 164.8746 125.6254 166.7027 129.9958 168.0604 131.9864 170.2565 134.2894 173.5725 136.2 177.9836 137.0748 178.5886 137.8488 182.0105 136.7237 183.2968 136.7562 183.4199 145.1621 184.2318 146.5716 183.1704 149.4797 171.6239 148.7525 163.7768 148.9356 157.3084 151.1843 155.196 153.4975 154.9318 155.889 155.9889 156.0986 154.2294 156.6394 154.0597 155.3877 152.6893 156.8568 150.8904 162.7721 149.6902 163.9183 143.9326 163.7727 143.139 154.4643 138.7281 148.0627 138.8922 143.1289 Z" id="fips-47023"/>
<path d="M 653.601 43.5695 655.6425 44.3243 655.0229 43.0234 657.2211 42.9531 658.5724 41.3725 658.8457 39.6331 660.339 40.7347 660.1157 38.3966 661.881 36.9045 662.1747 38.3067 664.6532 42.4108 666.9822 43.8978 667.6477 45.7404 669.6232 48.3759 666.9888 50.9159 664.3428 54.8026 662.1757 55.6131 660.43 56.1366 661.5482 61.7293 659.6902 61.6147 657.6009 59.2563 656.8984 59.4044 657.4554 61.8458 655.0718 62.2975 656.9224 65.8471 656.2425 66.7121 655.504 64.8911 652.4125 61.6302 650.6249 60.8438 643.2921 59.2942 638.4354 59.3547 635.4225 59.3601 634.5859 57.1762 634.648 55.5577 636.1843 55.3528 636.0533 52.203 638.1755 52.8798 639.1112 51.9523 638.7046 50.0405 641.5579 46.7325 643.8838 46.3086 643.7708 45.0255 646.4555 44.3624 646.8871 42.9145 649.1163 46.0906 650.0519 44.933 650.5024 46.6728 651.586 46.4333 651.5161 45.1158 652.5755 45.2865 652.5173 44.0597 653.601 43.5695 Z" id="fips-47063"/>
<path d="M 58.5791 75.5034 60.9852 75.5439 61.1163 75.0887 61.3217 74.7517 62.3935 73.3688 62.7822 72.388 62.9225 71.845 63.25 69.8441 63.5592 67.507 63.7748 66.3577 63.8941 66.1179 64.5058 65.3188 65.0596 64.8861 65.8885 64.5355 67.2542 64.0702 68.6174 63.7479 68.9185 63.6125 69.8535 62.9964 71.0859 62.3937 71.3691 62.1404 71.8435 61.5399 71.9384 61.2574 72.0498 60.585 72.1275 59.6244 72.0952 58.9374 71.9145 58.3237 71.3552 57.2689 70.8179 56.4971 69.8221 55.4633 69.3229 55.0866 68.8136 54.8128 81.7676 54.9921 82.3471 52.1512 112.4431 53.9742 110.9934 74.2528 107.0447 75.775 108.6094 77.1929 106.9763 81.3171 102.701 86.402 101.1086 86.7879 99.8232 89.8378 94.0364 90.2866 93.0969 87.8072 90.3792 85.6494 89.1538 83.2548 88.3647 82.6347 80.6449 82.2619 80.6556 83.8017 78.3414 84.4145 74.4046 83.2644 73.3657 84.5245 71.7409 84.1546 69.7474 85.0665 67.6385 84.5204 66.3212 86.7285 66.1629 86.3068 65.8665 85.1824 65.7022 84.7593 65.3631 84.2527 64.0245 83.0704 63.5366 82.5136 62.6168 81.665 61.4508 80.9024 60.521 80.2142 60.1347 79.8356 59.7663 79.2252 59.6955 78.9204 59.6832 78.5008 59.8316 77.3222 59.8016 77.2118 58.979 76.3189 58.7369 75.9335 58.5791 75.5034 Z" id="fips-47045"/>
<path d="M 438.6444 133.9952 443.254 133.8081 448.9606 132.0939 452.2847 132.1516 452.8596 130.8627 455.6004 129.7796 454.4855 132.7555 456.8579 136.0874 457.5805 138.3122 465.9116 146.7715 474.1955 153.8416 472.3723 157.8682 459.4637 177.5678 458.7187 175.2809 459.3151 173.7844 459.0007 171.4047 457.9092 168.9414 454.0356 164.4785 449.5262 163.2036 449.3366 162.5606 443.5312 159.375 443.3546 158.1249 444.8385 155.5909 448.1811 153.7186 449.7278 150.7649 450.0393 148.166 447.5102 148.0394 447.5504 146.2927 445.3606 145.3398 444.8211 141.9403 445.2302 139.0134 442.164 136.9124 438.6444 133.9952 Z" id="fips-47153"/>
<path d="M 522.8696 166.0387 524.5465 165.3797 526.1815 162.9097 540.2331 162.8356 542.1059 160.6378 555.0926 166.2775 554.7369 167.0814 556.2473 167.7676 555.5991 169.2833 558.0242 167.8447 561.1575 169.2234 561.1574 169.2248 560.9434 171.9877 560.7212 173.6966 560.1957 178.9166 559.9248 182.1693 559.9128 182.2164 559.8106 183.7981 558.9171 194.1139 552.203 194.2894 552.1128 194.2956 541.4761 194.5017 541.3985 194.5058 530.9982 194.6593 530.6774 194.7049 521.1249 194.8637 520.7903 194.8615 516.6128 194.9625 518.0558 190.6614 519.0232 186.846 520.2197 184.2573 519.0831 183.7455 523.3429 174.0053 523.0008 172.4405 523.4731 170.6458 523.0475 168.5362 523.5043 167.4673 521.7489 166.8952 522.8696 166.0387 Z" id="fips-47139"/>
<path d="M 403.8478 32.407 410.7141 33.2484 411.4665 33.0027 417.6705 33.964 416.0536 48.0458 416.836 48.7678 417.8003 51.7801 419.109 52.5079 419.9464 51.7058 422.1717 53.72 421.6332 56.8316 419.5281 57.3098 420.7912 58.9938 419.7368 65.8456 417.7908 66.8739 416.9025 66.1712 414.5554 70.1714 411.7602 68.9156 411.5169 67.6294 410.3049 67.5609 410.2093 69.7688 407.7557 68.4633 406.7915 69.2755 405.7885 68.2975 403.3343 70.9843 400.9237 70.6578 400.824 71.4085 398.1283 70.7536 396.564 71.1288 395.9604 66.7886 394.9374 65.5442 391.7816 54.9205 390.8544 54.6014 391.035 52.3526 391.3728 50.3331 390.5225 50.7217 389.4213 47.2681 390.3987 47.4676 391.8066 44.1191 394.5299 40.4836 398.6303 37.4429 403.5115 35.8415 404.5581 33.1549 403.8478 32.407 Z" id="fips-47159"/>
<path d="M 345.1009 84.54 346.1081 83.2286 345.6841 80.0694 346.7854 79.5769 349.8781 77.0101 350.3182 76.9169 349.9579 75.3868 351.7922 73.3698 351.9252 71.0829 353.5413 72.5196 353.7035 74.4206 354.6411 69.4956 362.0454 75.2773 362.4114 75.2573 365.7144 77.4258 366.8735 76.9459 366.3365 77.8627 368.5596 79.8003 372.0537 82.6638 373.5532 82.5338 373.4626 83.1756 378.9186 85.3756 387.2669 85.1274 387.9948 86.1291 387.8058 88.6149 389.0591 90.6818 388.0337 91.2813 387.5183 94.5082 386.5891 94.1022 385.5766 100.8236 384.7656 104.1684 384.9103 107.8337 384.1412 110.3719 382.992 111.4145 383.0681 114.6573 379.5344 116.3563 379.5635 122.8413 375.6388 120.9853 374.0066 121.1998 373.5307 119.4689 370.6121 119.1655 369.6663 120.7612 367.218 121.6046 367.7384 122.9388 365.0972 124.3216 363.9763 123.8388 364.0006 121.9217 363.0107 120.447 360.1529 121.4034 360.0583 122.2448 358.5776 120.2427 356.5514 119.8626 354.5684 116.4058 352.0194 115.3518 343.4032 114.8339 343.1138 116.6632 339.1285 114.5797 338.8014 113.901 337.5952 113.0107 337.8287 109.0857 339.2215 109.3487 340.2016 106.8859 341.1254 107.3788 340.9872 104.7037 342.4479 104.182 345.5589 104.7857 345.7088 100.8911 344.3982 100.6635 345.2919 99.2698 346.4868 99.2833 346.2871 97.4105 345.2034 96.3861 345.5466 94.1538 344.339 90.5795 345.4532 87.331 344.5346 84.7112 345.1009 84.54 Z" id="fips-47149"/>
<path d="M 198.6789 65.6387 202.0504 62.5856 202.4426 60.3419 205.5893 56.4991 205.9352 54.5757 208.0017 54.0927 209.4976 51.6404 209.2538 50.5734 210.8556 50.288 210.5086 49.056 210.2244 45.9834 209.1685 44.134 210.1812 40.808 209.8904 38.646 215.7623 38.687 219.2475 38.8358 219.5059 38.7137 220.4253 39.506 222.6286 44.2184 223.5972 49.7025 223.0709 52.0859 222.8443 54.4535 223.8325 56.3983 224.4439 58.862 226.0342 61.5133 225.6666 65.0016 223.8878 67.385 221.8254 71.1065 219.0659 74.3808 217.9572 76.4793 218.0489 79.3744 216.0588 81.9242 215.8503 83.531 216.6839 85.7271 220.2355 86.8607 223.8833 86.6008 224.607 87.1192 224.351 90.5812 223.2204 95.0165 221.1076 97.8347 220.7076 98.5299 220.3225 100.6917 217.2914 100.5641 215.0134 101.1353 214.9488 97.8583 212.9281 96.6721 209.9088 97.4419 201.2818 96.9259 197.6344 96.7726 198.2062 81.2845 198.6789 65.6387 Z" id="fips-47005"/>
<path d="M 375.9846 41.4107 376.9706 40.1309 377.3006 29.4159 380.1904 29.5243 379.9321 25.6027 380.9895 25.4777 384.5008 26.0128 386.5042 30.3827 403.8478 32.407 404.5581 33.1549 403.5115 35.8415 398.6303 37.4429 394.5299 40.4836 391.8066 44.1191 390.3987 47.4676 389.4213 47.2681 385.8271 43.5225 385.0624 44.6105 383.2454 43.1301 383.0153 41.954 381.1421 41.9528 380.8752 41.1956 379.5424 42.6701 379.1042 46.1511 377.7144 46.8468 376.885 45.7498 377.6926 43.5952 376.9463 41.401 375.9846 41.4107 Z" id="fips-47169"/>
<path d="M 508.1375 153.8662 509.567 149.9397 513.0305 142.5803 515.5944 140.5934 518.3249 135.4145 520.3918 134.1549 523.3162 129.5212 523.5081 127.7229 525.6391 126.3564 527.8489 122.1199 529.8454 119.9819 533.1175 119.9492 533.1569 121.239 535.6069 121.5854 536.532 120.2394 538.5789 122.1524 538.9572 126.4728 540.6268 127.2872 546.5681 140.375 545.7364 140.7179 547.4566 141.9626 547.282 144.9107 548.2069 145.3854 548.2737 147.2701 549.8668 147.6365 549.9786 153.7921 550.7794 155.3585 545.9405 156.7451 542.1059 160.6378 540.2331 162.8356 526.1815 162.9097 524.5465 165.3797 522.8696 166.0387 523.3826 164.6496 521.6665 163.6996 520.3555 164.5249 519.0331 163.4644 518.501 162.1458 520.9719 161.0141 518.4799 160.8388 515.4032 157.911 511.4564 156.5898 508.9851 154.2613 508.1375 153.8662 Z" id="fips-47107"/>
<path d="M 520.967 37.4846 529.3922 48.7709 531.1409 48.0681 532.8851 49.1406 533.3411 52.4899 532.8972 53.3061 534.8436 52.838 542.3782 56.1108 542.6711 57.4824 545.222 60.6427 544.4716 63.1387 546.3032 64.2184 547.2382 66.8748 551.0725 68.278 554.6018 73.4876 552.4945 74.4299 550.9054 76.3742 545.1562 80.8467 541.376 81.0107 535.2644 83.4768 535.2067 85.0895 531.7232 85.1388 530.7063 84.7558 530.5025 85.8649 529.2471 87.2528 526.3519 87.7186 525.4392 89.1942 523.7168 90.0629 519.8585 80.2874 513.177 73.0487 511.8873 69.5375 510.1468 69.0845 509.4244 70.3148 505.7922 64.348 503.3297 63.2181 502.3724 62.1948 503.08 60.321 502.0732 58.7769 501.6969 56.2869 504.4286 52.7267 505.0808 47.4956 506.9188 46.4866 508.0946 47.2328 509.9703 45.7793 510.6448 46.4653 512.2102 46.0421 513.253 42.7367 514.2576 41.826 515.4366 42.3954 517.4676 41.2864 516.9099 39.7988 518.1831 39.8266 518.7593 36.9059 520.967 37.4846 Z" id="fips-47129"/>
<path d="M 95.9251 19.4969 100.12 19.1763 101.7618 19.2673 102.0538 19.3069 108.2339 19.5903 112.6137 19.8431 112.6325 19.8441 116.5966 20.057 116.8037 20.0678 119.3057 20.1624 120.9525 20.2247 122.1626 20.2688 124.3753 20.3518 126.576 20.4407 126.5867 20.4412 126.9169 20.4531 127.5346 20.4757 130.7857 20.6136 136.7222 20.7673 138.0871 20.8613 138.9879 20.8002 142.6319 20.8406 142.6539 20.8408 143.3231 20.8648 144.444 24.5415 144.0495 31.3694 141.3022 31.023 137.6373 33.2367 136.54 33.1013 135.3054 31.7534 131.9076 31.0856 131.6538 33.5192 130.3507 52.4033 130.158 54.8114 112.4431 53.9742 82.3471 52.1512 82.1165 51.2019 85.0921 50.4821 85.9493 49.661 87.4651 46.9996 88.7556 43.285 89.9237 40.8899 90.3282 38.8419 90.1026 36.5319 92.3147 33.7428 94.3066 30.1413 93.5617 27.2707 94.4805 24.7718 96.3458 22.6113 95.9251 19.4969 Z" id="fips-47131"/>
<path d="M 223.0709 52.0859 233.5997 53.4802 236.9365 52.1206 240.6478 52.5426 243.1182 53.2704 246.1619 54.7553 249.377 57.25 256.3694 57.7426 257.0474 59.4153 258.1016 60.0225 259.3874 64.6035 260.0323 69.5585 259.8926 74.9781 259.1529 78.4293 260.809 81.0857 260.964 83.7751 258.1958 86.1547 255.8679 85.5423 253.6271 85.9003 250.9203 88.8419 244.8464 90.8161 243.7887 98.4274 234.3802 98.5164 233.6924 99.9683 232.0094 100.3066 231.1921 102.2204 227.4983 99.7661 225.939 98.2073 221.1076 97.8347 223.2204 95.0165 224.351 90.5812 224.607 87.1192 223.8833 86.6008 220.2355 86.8607 216.6839 85.7271 215.8503 83.531 216.0588 81.9242 218.0489 79.3744 217.9572 76.4793 219.0659 74.3808 221.8254 71.1065 223.8878 67.385 225.6666 65.0016 226.0342 61.5133 224.4439 58.862 223.8325 56.3983 222.8443 54.4535 223.0709 52.0859 Z" id="fips-47085"/>
<path d="M 183.1704 149.4797 184.2318 146.5716 183.4199 145.1621 194.0394 145.6777 194.473 144.8943 196.6557 146.2282 198.1507 148.1896 198.571 149.9467 201.3734 148.5768 205.2042 149.5708 206.9566 148.8497 210.8834 145.8437 214.5213 148.7833 214.4856 151.3684 216.285 153.5246 215.1778 155.3441 215.0088 159.3463 216.8877 159.0708 218.3421 159.8454 217.4911 192.8124 216.0828 192.7821 197.1805 192.2057 197.2656 192.5041 197.3582 193.3761 197.4241 193.6209 192.4148 193.5339 192.0152 193.5364 182.1935 193.325 180.6118 193.29 182.5287 159.7113 181.8458 158.2123 182.0912 156.8837 182.7414 156.9009 183.1704 149.4797 Z" id="fips-47071"/>
<path d="M 412.75 99.1031 413.6026 98.4028 421.7534 98.6714 425.0462 97.8563 431.4887 99.951 431.6582 100.5615 435.2316 101.579 438.8287 104.0242 438.3814 106.7135 437.7235 107.8942 439.8781 108.6407 439.1731 110.1315 439.8224 110.8804 438.6945 113.8655 439.7447 124.1716 443.254 133.8081 438.6444 133.9952 429.7628 134.3994 425.0947 134.9411 421.6158 135.6752 418.9354 137.2049 417.7626 135.9901 413.6788 135.0102 413.1585 133.3143 411.1149 133.0644 407.0208 129.3881 407.165 126.8123 405.464 124.081 403.6096 119.575 402.4452 113.679 404.9616 108.937 406.3588 107.3906 410.1101 101.0672 412.75 99.1031 Z" id="fips-47177"/>
<path d="M 220.4253 39.506 223.7027 39.4666 228.4449 41.7525 231.3017 42.3476 234.9432 42.5342 238.3781 41.9706 240.9792 40.999 244.0691 39.0663 244.7515 38.1792 256.0313 38.3953 256.4885 41.3467 261.6261 42.027 263.2078 42.2334 262.1642 51.9881 258.1016 60.0225 257.0474 59.4153 256.3694 57.7426 249.377 57.25 246.1619 54.7553 243.1182 53.2704 240.6478 52.5426 236.9365 52.1206 233.5997 53.4802 223.0709 52.0859 223.5972 49.7025 222.6286 44.2184 220.4253 39.506 Z" id="fips-47083"/>
<path d="M 467.2589 19.9677 468.8345 15.1771 467.8648 13.7199 467.9232 9.1247 475.3133 9.1558 484.3798 9.3873 485.2676 9.4407 490.9136 9.6572 494.4042 9.9149 495.4628 10.0271 498.2919 10.3263 505.9925 10.9035 505.9907 10.9112 507.5152 11.0358 511.11 11.0778 512.7869 11.1525 517.8289 20.0272 513.0563 20.0708 509.9027 17.2642 505.8191 15.0741 502.3782 14.17 498.4175 13.8864 495.4228 14.7145 493.3255 15.7117 492.2896 14.8047 492.0762 15.7654 489.7231 17.0951 489.2452 16.5718 488.4192 20.6231 487.4022 20.1391 485.2628 23.3073 484.0803 33.5792 482.4722 33.9154 481.1305 33.9519 480.0077 30.6905 479.8854 28.3712 476.4138 24.5217 472.9129 21.7568 470.4625 20.863 468.6791 18.9311 467.2589 19.9677 Z" id="fips-47137"/>
<path d="M 378.4377 147.8142 379.4514 143.6346 380.5669 143.2277 379.628 142.4738 379.9055 137.3774 379.8501 129.8083 379.5635 122.8413 379.5344 116.3563 383.0681 114.6573 386.8914 117.1824 388.9458 119.4313 391.1086 119.5196 394.0136 121.1175 398.758 121.5439 399.251 120.6108 402.7431 120.3046 403.6096 119.575 405.464 124.081 407.165 126.8123 407.0208 129.3881 411.1149 133.0644 413.1585 133.3143 413.6788 135.0102 412.8932 135.817 413.7556 136.9167 412.8987 138.9526 412.5865 144.1355 413.0527 149.9342 412.8269 151.237 414.4515 151.3549 413.3924 154.9596 411.1927 157.0603 411.0185 160.8322 410.4042 161.7574 404.5153 158.5966 402.1465 158.867 400.1606 156.6584 399.2513 156.5693 398.9634 155.5938 387.6838 153.4757 384.3441 155.5411 384.0165 156.7968 382.6014 155.2694 380.7567 155.9251 379.1333 155.5326 378.0841 156.7927 377.6299 156.2259 379.5771 155.2209 376.8829 152.3899 378.8354 150.9065 376.37 150.6635 378.4377 147.8142 Z" id="fips-47031"/>
<path d="M 66.3212 86.7285 67.6385 84.5204 69.7474 85.0665 71.7409 84.1546 73.3657 84.5245 74.4046 83.2644 78.3414 84.4145 80.6556 83.8017 80.6449 82.2619 88.3647 82.6347 89.1538 83.2548 90.3792 85.6494 93.0969 87.8072 94.0364 90.2866 94.2719 92.419 92.6 95.149 92.5993 97.4493 88.3992 96.7474 88.0179 98.3076 86.7181 99.3897 84.7048 103.0917 84.6161 105.1713 85.7656 105.2358 85.2462 107.212 83.2044 112.5365 81.9458 112.4781 81.2942 122.4176 80.1154 122.5248 78.2727 123.9835 77.3578 123.7363 75.5821 121.3943 73.7817 120.9533 72.9908 120.0741 70.9284 119.4974 70.5122 118.6335 67.9897 117.241 67.3312 115.4604 66.5957 116.2674 64.7669 115.8646 64.7666 116.8365 63.3293 117.708 62.832 116.8524 61.2224 117.0742 60.9001 116.1548 57.6729 116.9269 57.5867 115.725 54.8927 115.2577 54.7703 116.1417 52.6239 116.9567 51.6115 116.31 50.5001 118.2739 48.437 119.1275 48.6716 120.3446 47.3432 120.5706 44.0893 122.7137 43.4843 122.1206 41.9035 126.2058 40.4853 127.5199 40.3415 127.4516 40.3421 127.1835 40.4432 126.8496 40.3774 126.4511 40.0734 126.1898 39.7758 126.1111 39.1557 126.0597 38.7018 125.931 37.5867 125.3195 37.2918 124.8813 37.106 124.5019 36.4849 123.0589 36.2769 122.4391 36.1799 121.9717 36.1898 121.7714 36.3093 121.4057 36.5654 120.9878 36.8557 120.631 37.4031 120.182 38.6208 119.5145 39.8283 119.061 40.5357 118.5381 40.6748 118.4884 41.0992 118.6622 41.6709 118.8065 41.9278 118.8362 42.1755 118.7708 43.8642 117.5659 45.0511 117.1378 45.7358 116.7461 46.0032 116.321 46.2181 115.6454 46.331 114.9723 46.3314 114.1497 46.1387 113.5049 45.6625 112.8016 45.4505 112.6797 45.1283 112.6315 44.4474 112.8231 43.969 113.0736 43.8366 113.2187 43.4043 114.0408 43.2065 114.3019 43.0116 114.4623 42.6806 114.5902 41.8986 114.7331 41.2322 114.6814 40.3825 114.4641 39.7171 114.1538 38.972 113.5855 38.4098 112.9195 37.9584 111.8313 37.3005 110.9745 37.0272 110.5106 36.8188 110.0243 36.762 109.4681 36.7979 107.6257 36.669 106.2365 36.7032 105.7968 36.9512 105.1592 37.1722 104.8514 37.5235 104.5987 40.7984 102.8485 41.0257 102.5852 41.3234 102.3576 41.733 102.4104 43.2975 103.4905 43.7033 104.0852 44.2674 104.5172 44.6737 104.5399 45.5264 103.854 46.1051 103.5918 47.1756 102.9862 48.4119 103.1246 49.15 103.0586 49.4958 102.9569 50.1319 102.6123 50.281 102.4794 50.6268 102.1244 51.5957 100.8993 51.8004 100.3738 51.8269 100.0865 51.6404 99.4132 51.9347 98.9335 53.3225 97.5844 54.8451 97.1334 54.8533 96.94 55.5473 97.0552 56.8971 97.6258 57.726 97.6139 58.7168 97.2829 59.0488 97.0467 60.349 96.3282 60.5605 96.1053 60.7717 95.662 60.8521 95.2105 60.8295 94.8957 60.7059 94.5307 60.5769 94.3472 60.1371 93.9694 58.3059 92.9132 56.4938 92.2442 55.1414 91.5869 54.6875 91.2015 54.4204 90.7891 54.3536 90.5216 54.3457 90.035 54.4291 89.5202 54.5469 89.128 54.849 88.3484 55.1485 87.831 56.0383 87.0922 57.4595 86.1522 59.8782 86.293 62.3075 87.4355 62.8622 88.2465 63.2882 88.7472 63.9654 89.0479 64.3227 89.0578 65.0594 88.8039 65.2773 88.679 65.7318 88.2425 66.0612 87.7936 66.3212 86.7285 Z" id="fips-47097"/>
<path d="M 616.4973 68.4043 617.2234 67.8213 615.7427 64.348 615.7356 63.3682 617.8208 63.2946 617.6034 65.5181 618.8463 66.463 619.9618 65.5825 620.013 63.4814 618.9654 62.8711 619.0747 61.0702 622.1214 61.6779 622.6307 58.717 623.4957 59.7445 623.9812 58.4468 625.6852 58.3681 625.3421 55.6912 626.1257 56.7617 627.7723 56.5437 628.9745 58.7291 630.1317 56.9234 632.4478 58.1612 633.1068 58.085 634.5859 57.1762 635.4225 59.3601 638.4354 59.3547 643.2921 59.2942 650.6249 60.8438 652.4125 61.6302 655.504 64.8911 656.2425 66.7121 654.4806 67.0983 655.8385 69.8901 654.3603 71.4142 654.036 76.764 652.6551 75.6431 651.0861 87.7766 649.916 88.4586 648.0676 86.7212 645.309 85.9633 642.7959 86.6553 642.5912 84.9976 640.1021 84.5021 638.3481 85.6367 637.5071 85.071 634.7157 85.8392 634.4855 85.0225 631.5867 84.0504 629.9234 81.2355 622.2143 75.6344 617.6918 72.6544 617.6619 73.6088 616.0927 73.2083 616.2426 71.5399 614.0733 71.0135 612.6188 67.0702 614.2641 66.8666 616.4973 68.4043 Z" id="fips-47089"/>
<path d="M 714.4328 69.8221 716.6206 65.3471 714.9028 63.3841 720.8566 57.1461 724.4973 56.2336 729.1142 56.1633 730.5959 55.136 730.8887 53.3019 732.2186 51.4715 735.136 49.3807 736.1823 47.2946 735.97 46.0685 737.5256 44.6494 739.4057 43.7112 742.6289 44.5636 745.3187 46.5583 744.3673 49.2291 746.2607 49.5256 748.034 51.3074 748.8286 55.1008 748.7308 55.3486 748.6054 55.8962 748.3068 56.2948 747.7329 56.8773 747.676 56.9905 747.5941 57.0875 747.4765 57.1764 747.1367 57.4274 746.9851 57.7527 746.8909 57.9314 746.6196 58.1606 746.216 58.0243 746.0804 57.8592 745.7983 57.8465 745.4295 57.8865 745.1716 58.3073 744.9694 58.6001 744.6916 58.6771 744.4868 58.6207 744.194 58.4279 743.7765 58.5478 743.6192 58.5202 742.8451 57.8007 742.752 57.7704 742.0107 58.0518 741.5443 58.3217 741.1542 58.6568 741.0353 58.8895 740.1905 59.5623 739.8951 59.7292 739.5547 59.7647 739.1963 60 738.9132 60.0676 738.5131 60.3149 737.5854 60.3188 737.4385 60.2428 737.2922 60.1144 736.8223 60.3045 736.3641 60.7788 736.3172 60.894 735.8131 61.2522 735.3771 61.4137 734.9978 61.5179 734.7173 61.8482 734.5776 62.2525 733.7173 62.5608 732.43 63.6721 731.9907 64.1682 731.3787 65.4041 727.6362 72.953 727.2839 73.1152 726.4282 73.8781 725.6942 74.1674 725.5904 74.3468 725.5859 74.6224 725.4975 74.7417 725.2519 74.8898 725.2486 74.8987 724.1172 75.9679 723.6633 76.5417 723.6569 76.5429 723.5095 76.5711 723.0095 76.797 722.6547 76.7775 722.2732 76.9433 722.0909 77.0868 721.3071 77.2596 720.9984 77.5337 720.5874 77.6377 720.2992 77.7766 719.6522 78.2254 719.3458 78.6527 718.9452 79.4343 718.0528 79.2809 717.3356 78.9861 717.1932 78.8924 717.0758 78.3343 716.768 78.1911 715.7557 78.1358 715.4953 78.2641 714.992 78.3655 714.3066 78.2327 714.0131 78.0861 713.9301 77.6327 713.9828 77.2863 714.3201 76.1341 714.5373 75.7986 714.2676 75.2565 713.7418 75.1265 713.7006 75.0698 713.4863 74.3598 713.5366 73.9935 713.5773 73.8553 713.7545 73.6776 714.3943 72.2887 714.7679 71.8658 715.1685 71.3678 715.2127 70.9577 715.0829 70.7028 714.8334 70.4525 714.6395 70.0887 714.4328 69.8221 Z" id="fips-47171"/>
<path d="M 143.3231 20.8648 143.3495 20.8658 144.2859 20.8934 145.855 20.9395 150.6143 21.0488 153.563 21.1402 158.5086 21.3062 166.1722 21.5186 169.1052 21.5992 171.7337 21.7016 171.7411 21.7016 169.5674 61.4248 169.2984 65.5857 157.9812 65.1072 157.9893 71.1455 155.7399 70.8415 154.4127 71.2367 149.246 67.7373 149.1203 66.2507 147.735 65.4272 144.7636 65.1829 140.9707 63.989 140.3678 62.6359 138.9539 62.3272 136.2028 57.7941 132.7191 55.6841 130.3507 52.4033 131.6538 33.5192 131.9076 31.0856 135.3054 31.7534 136.54 33.1013 137.6373 33.2367 141.3022 31.023 144.0495 31.3694 144.444 24.5415 143.3231 20.8648 Z" id="fips-47183"/>
<path d="M 533.1175 119.9492 533.9077 118.2885 535.9642 118.2582 538.0077 116.905 537.8929 115.3575 539.8042 111.6282 541.2805 111.6101 545.427 106.6288 546.5719 107.8652 547.5219 107.2902 548.3555 104.6335 550.9399 105.5039 551.6524 99.9023 552.3829 98.9288 554.5729 98.1438 555.3381 96.0874 556.0585 91.2226 560.5486 93.1135 560.38 90.0606 562.1835 90.6346 562.6004 90.9835 564.3181 92.8979 568.6071 97.5811 571.1738 100.394 571.3633 100.8874 570.7676 100.9788 570.2354 105.0851 572.8046 106.2679 571.3685 108.1173 570.993 111.4077 571.9798 113.0399 572.8458 115.7931 574.7829 117.2831 574.6674 118.5755 573.1638 121.064 569.817 123.0679 569.3992 122.2015 566.742 122.592 563.6774 122.0592 563.977 120.1855 561.1109 120.4079 559.643 119.5761 560.2394 118.2235 556.9157 117.1455 554.0388 117.1867 554.4641 118.4035 552.5411 119.887 550.3561 120.1014 549.5227 117.2253 547.8406 117.7758 547.9311 116.561 544.8304 117.3013 544.8458 118.0615 541.3094 118.5432 540.4847 117.3726 539.6604 119.8731 540.5415 122.6295 538.5789 122.1524 536.532 120.2394 535.6069 121.5854 533.1569 121.239 533.1175 119.9492 Z" id="fips-47105"/>
<path d="M 451.5317 196.3168 455.8258 193.5906 457.4849 189.7557 460.0267 189.2194 461.8689 184.3029 459.0529 180.6126 459.5956 178.7129 459.4637 177.5678 472.3723 157.8682 474.1955 153.8416 477.5399 146.5504 479.4005 142.2475 481.2225 143.3656 482.4649 141.8645 484.6566 142.0279 485.5696 145.2632 488.8074 144.2691 493.5546 147.3377 492.2116 150.7486 494.3344 150.2898 497.0117 152.584 498.5585 158.532 500.2418 161.0798 500.6229 161.6974 498.4276 164.2633 497.3234 168.1647 494.6103 172.9982 494.7294 174.0705 493.014 178.4272 494.7707 183.3514 494.8477 184.7887 495.683 185.1804 496.129 187.181 495.7918 187.9619 496.2178 189.9098 499.2995 192.1095 497.8678 195.2599 497.5988 195.2661 491.5235 195.4389 491.5113 195.4363 478.894 195.6879 478.3952 195.7029 475.5386 195.7729 475.4174 195.7743 475.1659 195.7886 475.0448 195.8014 474.2525 195.8105 473.7676 195.816 471.9595 195.8706 471.0181 195.8925 470.0114 195.915 469.8529 195.9167 468.2738 195.9707 467.6225 195.9978 467.2525 196.0017 467.2521 196.0018 466.9916 196.0159 465.2051 196.0739 461.8037 196.1835 459.842 196.2472 452.221 196.3209 451.5317 196.3168 Z" id="fips-47065"/>
<path d="M 278.4038 119.2889 283.0511 115.0336 286.1781 114.652 287.1095 112.3707 288.1866 111.9191 290.0723 97.6011 308.4304 104.992 309.4919 105.9029 312.6669 106.7603 313.3248 105.489 316.4705 106.0574 315.5439 107.8824 320.17 109.9744 324.0907 112.1183 327.1922 112.6696 329.9454 114.2595 328.559 115.9735 327.1818 115.4057 325.9343 126.2653 324.5364 127.3289 325.6835 128.4063 324.4631 130.0872 324.675 131.9671 323.5982 134.8364 321.5739 137.4465 321.1861 135.309 320.7053 138.4072 319.3165 139.871 313.7822 143.2069 313.2203 147.1241 310.9873 146.7965 310.4223 148.1129 307.9617 147.2269 306.5618 145.4086 304.1289 145.4418 302.949 144.3955 300.8464 144.2134 300.2244 143.3245 297.6471 142.5755 295.7115 143.5955 294.7471 144.901 290.4444 145.1113 288.6258 144.2757 288.4607 145.5347 282.2338 144.0204 282.3022 143.7311 284.1762 139.3415 283.3927 137.8033 284.694 136.792 283.4924 136.8934 283.2029 132.6462 282.1694 131.9231 280.2694 131.8269 279.8267 129.5668 277.1088 127.753 277.0929 123.9658 278.9736 122.0759 278.4038 119.2889 Z" id="fips-47119"/>
<path d="M 448.1382 34.7467 449.3392 28.9056 452.5292 23.9081 457.4386 23.1201 456.708 24.6285 458.3195 24.8981 457.6826 22.9863 462.4139 20.4115 465.979 21.0066 467.2589 19.9677 468.6791 18.9311 470.4625 20.863 472.9129 21.7568 476.4138 24.5217 479.8854 28.3712 480.0077 30.6905 481.1305 33.9519 482.4722 33.9154 482.6245 34.7502 482.466 42.8792 482.4557 45.5881 486.2615 57.8795 482.9306 63.7777 475.1498 62.988 464.1848 57.7391 463.8124 55.6733 460.2366 55.4003 455.2804 53.6784 453.7617 52.4405 453.7637 50.7238 452.1831 50.8264 452.097 49.0769 450.9605 48.7978 452.0691 48.6083 451.1784 47.192 451.5811 45.9741 448.267 46.2163 447.9681 37.9372 448.1382 34.7467 Z" id="fips-47133"/>
<path d="M 299.3486 28.8496 301.7093 30.0538 304.5643 32.7634 309.8325 36.1031 311.4001 38.7579 313.7652 37.8656 318.2653 37.2675 318.894 39.1378 317.3047 43.7849 315.0291 48.6504 313.5898 50.3965 311.6643 55.1167 311.6887 56.9209 310.3333 66.1361 306.5868 69.9905 306.2502 76.0318 305.1165 75.5377 302.2036 75.7185 293.2655 74.9731 294.1549 72.5726 294.2223 68.1749 294.9111 63.0364 294.4578 61.756 296.3927 60.5288 295.513 58.8492 292.9282 56.5275 293.8313 54.6598 295.0658 53.8461 294.2411 52.4536 293.1256 53.082 292.4754 52.2917 293.5408 51.0724 295.8795 49.7476 296.2229 45.907 294.0068 44.8876 290.3934 44.6582 288.8805 42.9016 288.0392 43.7853 285.8336 44.0614 284.0033 43.9111 284.5798 40.2484 286.1561 40.2465 287.41 37.5717 290.6285 35.549 291.5068 34.0179 293.9049 34.3641 293.9082 32.3851 294.9738 31.9684 295.438 33.616 296.6546 33.15 296.6083 30.0137 299.3486 28.8496 Z" id="fips-47021"/>
<path d="M 40.4853 127.5199 41.9035 126.2058 43.4843 122.1206 44.0893 122.7137 47.3432 120.5706 48.6716 120.3446 48.437 119.1275 50.5001 118.2739 51.6115 116.31 52.6239 116.9567 54.7703 116.1417 54.8927 115.2577 57.5867 115.725 57.6729 116.9269 60.9001 116.1548 61.2224 117.0742 62.832 116.8524 63.3293 117.708 64.7666 116.8365 64.7669 115.8646 66.5957 116.2674 67.3312 115.4604 67.9897 117.241 70.5122 118.6335 70.9284 119.4974 72.9908 120.0741 73.7817 120.9533 75.5821 121.3943 77.3578 123.7363 78.2727 123.9835 80.4856 126.3169 79.9001 127.8707 81.131 127.9526 80.216 144.2648 74.0734 143.8691 68.66 144.8529 65.8028 146.1197 65.4243 146.8784 64.2758 147.365 64.6337 145.6546 58.98 145.1526 59.0935 142.9333 56.441 143.6928 52.2047 143.0827 51.9494 145.0497 49.9547 144.5817 43.9268 144.4286 42.218 144.3197 41.7233 144.3335 27.6514 143.162 26.7344 141.8274 27.2548 141.2855 27.3849 141.0093 27.5019 140.5814 27.6563 140.3588 27.855 140.1741 28.7067 139.6668 28.7526 139.2228 28.9492 138.8124 29.1399 138.5184 29.222 138.2695 29.213 137.7264 29.2527 137.3955 29.4981 136.6677 29.7132 136.3211 30.0427 135.4861 30.0409 135.1459 29.9229 134.862 28.6178 133.623 27.8773 132.2749 27.6838 131.7853 27.4662 130.886 27.3503 129.6383 27.4898 128.8485 27.7856 128.0244 27.9311 127.7947 28.2134 127.1436 28.4633 125.949 28.6698 125.6963 29.1152 125.3588 29.5218 125.1681 29.9622 125.0609 30.5698 125.1225 31.1419 124.7899 31.4202 124.691 32.2838 124.5986 32.8384 124.6633 33.1691 124.7588 34.3492 125.5055 35.9444 126.9503 36.1003 127.2218 36.1785 127.7771 36.1603 127.925 35.9664 128.2696 35.9564 128.6032 36.0762 128.7896 36.532 129.2309 36.824 129.4439 37.0969 129.5339 38.1483 129.6694 39.0977 130.1722 39.4495 130.2486 39.8181 130.1198 40.1482 129.871 40.43 129.5239 40.5658 129.256 40.9611 127.9915 40.9202 127.8162 40.8146 127.6902 40.5199 127.5363 40.4853 127.5199 Z M 18.6964 138.2793 19.713 137.6984 20.3742 135.6829 20.6331 135.0224 20.8525 134.6835 21.2364 134.2797 21.8743 133.7954 22.4256 133.8219 22.7141 133.6387 23.983 133.6599 24.4258 133.9036 25.1371 134.6245 25.5205 135.1547 25.5756 135.3153 25.5528 135.7558 25.1261 136.9488 24.827 138.159 24.8011 138.7989 25.0822 140.0272 25.8371 140.9796 25.1353 141.7357 26.2859 142.2942 26.439 143.9523 25.7346 144.2778 25.2755 144.3761 24.5035 144.4623 24.2291 144.4121 24.0511 144.3175 23.3516 143.6569 22.8212 143.3524 22.5461 143.1228 21.8147 142.3852 21.6438 142.1678 21.3177 141.5566 21.143 141.3725 20.7426 141.1818 19.4954 140.8998 19.0617 140.9705 18.8003 141.1274 18.4377 141.4489 18.2639 141.6577 18.0997 141.9831 17.9786 142.4669 17.9892 142.9671 18.1783 143.8259 18.8681 145.0979 17.9876 145.2955 16.0139 145.2058 15.4582 144.8497 14.9264 144.3265 14.8545 143.9705 15.7567 141.1734 15.8024 140.2314 15.9656 139.8391 18.6964 138.2793 Z" id="fips-47167"/>
<path d="M 171.7411 21.7016 172.1139 21.7014 172.1458 21.7076 174.2208 21.7976 174.2331 21.7979 175.7424 21.8353 177.5722 21.8926 177.7906 21.8712 180.8797 21.9763 188.7014 22.1638 189.1496 22.1783 189.6158 22.1936 207.2959 22.7478 214.0675 23.0287 214.1331 25.9737 213.2161 29.0617 215.4975 31.7958 219.5059 38.7137 219.2475 38.8358 215.7623 38.687 209.8904 38.646 210.1812 40.808 209.1685 44.134 210.2244 45.9834 210.5086 49.056 210.8556 50.288 209.2538 50.5734 209.4976 51.6404 208.0017 54.0927 205.9352 54.5757 205.5893 56.4991 202.4426 60.3419 202.0504 62.5856 198.6789 65.6387 198.814 62.718 174.8007 61.7809 173.3878 61.6283 169.5674 61.4248 171.7411 21.7016 Z" id="fips-47079"/>
<path d="M 353.596 154.3763 356.9345 153.5855 358.2323 156.2721 361.1229 158.2578 363.1499 158.4705 363.9014 157.8316 364.3637 155.3141 367.8992 155.1614 368.9121 153.5634 370.1193 153.5874 371.7698 151.8577 375.0316 150.1431 375.6162 148.41 378.4377 147.8142 376.37 150.6635 378.8354 150.9065 376.8829 152.3899 379.5771 155.2209 377.6299 156.2259 378.0841 156.7927 379.5679 157.8655 378.6199 161.088 375.7034 165.2038 376.2622 167.2426 374.366 167.9857 375.1003 171.1663 373.4164 172.5069 373.4087 175.1468 372.6605 176.3986 372.9606 178.069 371.4159 178.0865 373.329 179.5197 372.8296 180.305 370.3538 180.0178 369.7527 178.0805 368.574 180.7352 367.9548 178.3407 368.1467 175.2306 365.9451 167.9701 364.4335 167.6695 363.9023 168.7984 363.0007 167.3175 364.0399 166.8348 364.1993 165.2268 362.7953 165.2248 361.7754 163.4385 359.5467 162.3646 359.5324 161.4348 354.5168 159.401 353.404 159.2899 352.2758 156.5682 353.596 154.3763 Z" id="fips-47127"/>
<path d="M 422.1717 53.72 422.2128 52.4817 425.5874 54.8012 427.254 54.2537 430.4315 55.0211 435.4685 55.502 435.5918 56.4387 440.9971 54.4486 442.6181 55.2657 442.7842 54.031 444.787 53.0401 444.7515 51.2007 446.7117 51.3962 447.0846 49.0213 448.3927 48.7713 448.267 46.2163 451.5811 45.9741 451.1784 47.192 452.0691 48.6083 450.9605 48.7978 452.097 49.0769 452.1831 50.8264 453.7637 50.7238 453.7617 52.4405 455.2804 53.6784 460.2366 55.4003 463.8124 55.6733 464.1848 57.7391 475.1498 62.988 482.9306 63.7777 484.7193 64.4559 481.8365 65.6662 479.9467 68.956 472.3076 68.3398 471.3392 68.926 471.1894 70.7672 471.6797 74.1325 470.9567 75.7789 470.1806 80.781 470.5162 82.8432 469.853 82.7752 465.4998 81.2471 465.6314 76.8533 464.0766 77.0251 459.8274 74.5465 457.6925 74.2606 447.3334 71.2914 442.4874 72.3038 441.597 73.9776 440.8085 73.4679 439.9219 76.0771 437.85 75.4607 436.8639 76.8981 434.9113 77.97 434.7965 79.0108 433.9846 79.2654 432.6095 77.3434 430.8793 73.3766 427.564 71.4429 425.3144 71.9755 424.7774 73.0537 423.4807 72.8223 422.6621 71.8893 423.2156 69.9909 421.5439 69.0925 419.7368 65.8456 420.7912 58.9938 419.5281 57.3098 421.6332 56.8316 422.1717 53.72 Z" id="fips-47141"/>
<path d="M 711.4172 6.8171 715.7995 6.5683 715.918 6.5637 716.4173 6.5357 722.526 6.1884 723.3083 6.1841 724.4123 6.2664 739.8669 5.499 740.1272 5.488 744.7698 5.2908 746.2773 5.2262 746.3627 5.2225 746.5698 5.2163 746.7271 5.1991 747.7027 5.1525 747.7494 5.1606 749.7577 5.1428 750.4653 5.1412 750.7843 5.1457 751.0827 5.1513 753.2014 5.0529 753.3978 5.0394 753.6709 5.0284 765.1628 4.5599 772.9366 4.2345 773.869 1.6863 782.6129 1.5129 778.6069 3.0874 778.3496 4.6663 773.6298 7.1989 773.3747 8.9988 770.4556 11.488 768.8522 14.203 767.6503 16.0341 763.9759 16.9487 760.5062 20.3476 758.5914 20.2719 757.8804 21.3621 750.6996 27.2868 749.5359 27.2567 744.8293 25.2883 741.6372 28.2476 740.5582 28.1578 737.0926 27.6868 734.1719 27.6742 732.6925 28.9818 733.6431 25.8085 730.4859 25.1783 730.7629 23.9997 729.209 23.7877 729.2012 22.8419 727.8124 23.9968 726.5663 23.3066 712.8758 26.2229 707.1811 24.2418 705.6012 25.5198 703.5254 22.8988 710.2468 18.1014 710.0846 16.0351 711.6568 15.3258 711.3757 12.3494 710.8247 8.491 712.3293 8.6959 711.4172 6.8171 Z" id="fips-47163"/>
<path d="M 290.4444 145.1113 294.7471 144.901 295.7115 143.5955 297.6471 142.5755 300.2244 143.3245 300.8464 144.2134 302.949 144.3955 304.1289 145.4418 306.5618 145.4086 307.9617 147.2269 310.4223 148.1129 310.9873 146.7965 313.2203 147.1241 316.4659 148.7991 316.2778 151.9085 316.9519 154.5255 318.595 156.2082 318.195 158.8689 319.9086 158.7532 320.0488 159.7477 322.5477 160.612 323.8693 158.124 325.422 161.2626 325.4242 164.6423 324.5293 195.5797 324.5233 195.5796 323.5821 195.564 323.2719 195.5551 322.7823 195.551 322.1203 195.5455 312.3359 195.2109 312.0456 195.1925 311.824 195.1838 311.6562 195.1937 309.2707 195.109 308.2298 195.0974 297.8404 194.7758 289.6287 194.5132 289.0767 194.4942 288.3899 194.4677 288.3783 188.8285 289.4506 180.3686 290.9416 175.909 288.7862 174.6652 289.6163 168.5063 289.49 161.784 287.94 161.0784 289.5193 160.7437 289.6125 151.0108 290.4444 145.1113 Z" id="fips-47055"/>
<path d="M 421.1406 10.0468 426.3248 10.1767 431.2651 10.4026 442.7544 10.5865 442.8033 10.5924 448.5699 10.6268 453.3081 10.1822 453.8839 10.128 462.6463 9.5862 463.5091 9.3953 465.7239 9.3846 466.1175 9.2226 466.1288 9.2208 466.614 9.146 467.9232 9.1247 467.8648 13.7199 468.8345 15.1771 467.2589 19.9677 465.979 21.0066 462.4139 20.4115 457.6826 22.9863 458.3195 24.8981 456.708 24.6285 457.4386 23.1201 452.5292 23.9081 449.3392 28.9056 448.1382 34.7467 447.2687 34.2172 444.9418 30.8335 442.1003 28.3275 441.7579 26.589 440.6996 27.0085 432.3148 24.292 429.6866 24.3176 428.9375 21.3155 426.0216 21.7436 427.8841 24.1534 424.426 24.0006 423.1753 21.9432 418.9101 23.9845 420.4292 10.9958 421.1406 10.0468 Z" id="fips-47027"/>
<path d="M 77.1257 37.8466 77.7623 37.7892 78.3416 37.6088 78.7893 37.3464 79.1976 37.0055 79.55 36.583 80.1249 35.3154 80.4922 33.7642 80.5125 33.601 80.4496 33.2243 80.1468 32.4704 79.1679 30.6676 77.6831 28.3811 77.5243 27.9682 77.4426 27.579 77.4335 27.1664 77.4898 26.6884 77.6556 26.2549 77.8981 25.9452 79.1781 24.85 79.3777 24.578 79.5485 24.2897 79.7885 23.687 79.9263 23.1144 79.9778 22.1578 79.8857 21.7849 79.7099 21.4789 78.6654 20.2919 78.2598 19.5384 82.0226 19.6658 82.5245 19.6947 83.1729 19.7479 83.0463 20.0327 82.3662 21.8614 82.2872 22.1694 82.2929 22.4824 82.3615 22.8376 82.5755 23.3678 82.9681 23.8254 83.8391 24.283 84.276 24.3931 84.968 24.3938 85.3113 24.2965 85.995 23.9601 86.428 23.617 87.5342 22.5121 88.2422 21.687 88.8513 20.8516 89.1575 20.3472 89.4024 19.77 90.6251 19.7961 91.8004 19.8398 92.6491 19.7542 92.8063 19.7188 94.9587 19.5827 95.9251 19.4969 96.3458 22.6113 94.4805 24.7718 93.5617 27.2707 94.3066 30.1413 92.3147 33.7428 90.1026 36.5319 90.3282 38.8419 89.9237 40.8899 88.7556 43.285 87.4651 46.9996 85.9493 49.661 85.0921 50.4821 82.1165 51.2019 82.3471 52.1512 81.7676 54.9921 68.8136 54.8128 68.1451 54.384 67.4408 53.7739 66.5449 52.8977 65.7146 52.3014 64.3392 51.1853 63.8459 50.7318 63.1755 50.1153 62.5527 49.4265 62.1328 48.883 62.0647 48.7554 62.0438 48.5761 62.0706 48.3764 62.2509 47.9825 62.609 47.4286 62.7321 47.1815 63.046 46.9446 63.403 47.0351 63.8583 47.3435 64.6032 47.5082 66.9515 47.3137 67.8938 47.4828 68.3825 47.6594 69.4979 48.2405 70.6985 48.74 71.1196 48.8614 71.4978 48.8993 72.8821 48.7883 73.789 48.502 74.1264 48.3331 74.9683 47.6522 75.2272 47.5649 75.6139 47.563 76.017 47.6555 76.4315 47.9128 76.8145 48.0069 77.1021 47.9699 77.3247 47.8713 77.7497 47.4576 77.806 46.409 77.745 45.412 77.5662 44.8667 77.408 44.6237 76.9332 44.2564 76.7701 44.2532 76.5218 44.4374 76.0536 44.5358 73.8767 43.2611 73.3605 42.6721 72.8716 42.2603 70.9042 40.7973 70.2693 39.451 70.1854 39.1886 70.2522 38.4461 70.6396 37.7146 71.1279 37.2348 71.5943 37.0463 72.0661 36.9765 73.7941 37.1053 75.7167 37.6937 77.1257 37.8466 Z" id="fips-47095"/>
<path d="M 455.6004 129.7796 466.8874 116.4845 470.0696 112.1258 469.5599 111.2935 470.0096 107.9023 471.0594 107.0647 484.9618 106.4076 486.6781 107.4526 490.7068 106.1221 491.8862 109.0068 501.1062 106.3436 501.9933 106.7115 502.2687 107.0789 490.3378 123.5533 484.8453 129.0074 485.7042 133.2843 483.84 133.8427 481.3815 138.1621 484.2242 139.9054 482.4649 141.8645 481.2225 143.3656 479.4005 142.2475 477.5399 146.5504 474.1955 153.8416 465.9116 146.7715 457.5805 138.3122 456.8579 136.0874 454.4855 132.7555 455.6004 129.7796 Z" id="fips-47007"/>
<path d="M 569.817 123.0679 573.1638 121.064 574.6674 118.5755 574.7829 117.2831 572.8458 115.7931 571.9798 113.0399 570.993 111.4077 571.3685 108.1173 572.8046 106.2679 570.2354 105.0851 570.7676 100.9788 571.3633 100.8874 571.9978 102.0012 573.4131 101.9048 573.9942 100.4002 573.512 99.3107 574.2123 97.4054 573.15 95.7841 575.2537 96.3273 575.1368 97.7967 577.0868 96.3223 579.2946 95.5064 580.3677 97.6615 581.5686 98.0956 581.969 95.3817 583.2774 95.0625 584.273 96.4295 585.6839 96.1621 585.4834 93.7068 583.8898 92.5257 587.7998 92.335 588.8022 93.8432 591.5062 92.3292 595.1047 95.5992 600.2345 96.0703 603.7949 92.081 603.9669 91.6483 605.4228 90.7251 606.3757 91.6017 606.4337 94.1638 607.4292 94.5651 609.0394 98.5528 610.7099 99.7279 610.0163 100.7046 612.79 106.3989 613.0733 108.5191 614.4984 109.5916 614.1615 110.4768 616.2983 110.6246 617.1017 113.3662 618.1437 112.7546 618.5019 126.5738 618.2008 126.554 617.5713 126.6186 617.2737 126.477 616.5489 126.6608 615.2861 126.7517 615.0261 126.8419 614.8933 126.8441 614.7292 126.7526 614.419 126.7545 613.1782 127.3784 612.9356 127.5526 612.0543 127.4311 611.7956 127.1755 610.4931 127.7008 609.8362 127.4384 609.5845 127.5717 609.1313 127.6923 608.4702 127.6437 608.3586 128.1764 607.7288 128.9987 607.121 129.3774 605.6916 130.0537 605.1259 130.6573 605.0317 130.8994 603.6012 132.1295 603.4287 132.0402 603.015 132.038 602.2556 132.4225 601.4943 132.7039 600.9898 132.5119 600.4912 132.4345 599.8321 132.5584 599.2562 132.5463 598.5741 132.8367 598.3483 133.0203 598.2036 133.5281 597.5081 134.6458 597.4218 134.7431 597.1788 134.7931 596.6651 135.411 596.6666 135.5561 596.7811 135.6769 596.7714 135.8019 596.6671 136.0401 596.2945 136.2732 596.0829 136.8093 595.9826 137.3449 595.7608 137.77 595.302 138.0565 595.0469 138.0907 594.5518 138.0441 594.1044 138.1183 593.4361 138.3419 592.9704 138.838 592.901 139.0867 592.319 139.5472 591.9969 139.6153 591.7545 139.3002 591.5297 139.2197 591.2305 139.2348 591.2313 139.2791 590.8319 138.4506 593.2497 136.4953 591.4731 136.3226 589.7598 135.111 588.9019 136.712 586.4732 133.4339 588.1416 131.7311 587.7599 129.211 583.4364 130.5395 581.1012 130.1142 579.8684 130.7305 578.6113 129.3835 579.2454 128.6227 578.4276 126.8644 577.4341 127.1093 576.903 125.5371 575.2083 126.8441 572.5275 125.0834 570.4426 124.3809 569.817 123.0679 Z" id="fips-47009"/>
<path d="M 560.668 11.5547 563.7721 11.465 563.7847 11.4649 572.889 11.3498 585.6449 11.2571 585.666 11.2574 586.1453 11.7327 586.0193 14.5624 588.7134 21.2043 590.0561 24.3576 592.0635 29.5196 594.1646 29.9941 593.6393 30.3682 593.9487 32.0225 592.3058 34.0555 589.5493 32.5983 589.2228 34.1607 589.7322 36.2706 588.0789 37.9502 587.7235 44.3675 586.698 46.3048 585.6039 46.1946 585.0237 47.6086 583.4416 47.4302 582.9155 44.6196 582.3528 44.098 581.6091 47.1322 580.357 48.4821 580.2364 49.9761 578.8549 49.8164 579.1168 52.3016 576.1264 53.0486 575.3924 51.9893 572.6684 52.0743 569.5925 51.4157 564.6233 50.9774 564.8042 54.2061 564.5228 58.1279 563.9071 58.5283 557.9025 53.8413 555.2447 55.3649 553.7599 54.5987 551.3702 54.4538 550.9577 49.5335 552.1964 48.1995 554.7864 47.417 555.1357 46.6019 554.4784 34.8926 556.5328 35.2491 553.4731 31.7721 552.8743 26.0234 553.6635 26.0883 554.5553 21.0732 558.5819 21.6265 560.3595 20.699 561.7429 18.1105 561.8409 14.6364 560.5113 14.4377 560.668 11.5547 Z" id="fips-47013"/>
<path d="M 538.5789 122.1524 540.5415 122.6295 539.6604 119.8731 540.4847 117.3726 541.3094 118.5432 544.8458 118.0615 544.8304 117.3013 547.9311 116.561 547.8406 117.7758 549.5227 117.2253 550.3561 120.1014 552.5411 119.887 554.4641 118.4035 554.0388 117.1867 556.9157 117.1455 560.2394 118.2235 559.643 119.5761 561.1109 120.4079 563.977 120.1855 563.6774 122.0592 566.742 122.592 569.3992 122.2015 569.817 123.0679 570.4426 124.3809 572.5275 125.0834 575.2083 126.8441 576.903 125.5371 577.4341 127.1093 578.4276 126.8644 579.2454 128.6227 578.6113 129.3835 579.8684 130.7305 581.1012 130.1142 583.4364 130.5395 587.7599 129.211 588.1416 131.7311 586.4732 133.4339 588.9019 136.712 589.7598 135.111 591.4731 136.3226 593.2497 136.4953 590.8319 138.4506 591.2313 139.2791 591.2314 139.2809 591.234 139.3832 591.2112 139.7642 590.8678 140.239 590.7369 140.2943 590.4402 140.2444 590.2934 140.2819 590.14 140.5774 590.1605 140.9936 589.6792 141.1306 589.2359 141.764 588.3828 142.2724 588.0192 142.7711 587.885 143.113 587.7968 143.6439 587.7378 143.7522 587.5278 144.0593 587.2491 144.2555 586.6709 144.8954 586.4019 145.2889 586.1353 145.3863 585.8585 145.5454 585.7585 145.8238 585.7926 146.1913 586.0547 146.6859 586.1214 146.764 586.3918 146.8258 586.4957 146.903 587.0625 147.7318 587.0643 147.8114 586.8513 148.2149 586.8005 148.421 586.9349 148.6113 587.0841 149.0403 587.1704 149.8603 586.49 150.6498 586.1267 151.2617 586.0399 151.4989 585.7456 151.88 585.6259 151.9193 584.6523 152.2911 584.4554 152.4077 584.4049 152.5781 584.9597 153.8761 585.0682 153.9198 585.2526 154.2843 585.1641 154.5954 585.0021 154.8155 584.9852 155.0496 584.9858 155.1875 584.7246 156.0514 584.7191 156.6093 584.7864 156.7101 585.3752 156.8783 585.5823 156.9986 586.0766 157.8861 585.8967 158.5278 585.4964 158.8788 585.3889 158.949 584.7554 159.363 584.1608 160.5495 583.2638 161.5269 582.9808 161.7384 582.242 161.9265 581.609 162.2713 581.2298 162.3485 580.6405 162.5939 580.4889 162.8551 580.4843 163.0601 579.6391 163.888 579.1541 164.195 578.71 164.1218 578.628 164.0478 578.1305 163.8829 577.6822 164.0468 577.5798 164.0377 577.5191 163.9613 577.496 163.8852 576.9502 163.8742 576.6027 163.9748 576.5388 164.0273 576.4348 164.3598 576.3936 164.596 576.2492 164.6829 576.094 164.7223 575.8397 164.6922 575.5475 164.5735 575.2375 164.4212 574.9192 164.3488 573.7879 164.4197 573.4551 164.4955 573.3208 164.7261 573.2382 164.7735 572.5545 164.527 572.3873 164.5308 571.7828 164.9313 571.6477 165.1278 570.7299 165.2278 570.3693 164.8829 569.7269 164.8288 569.6316 164.7171 569.4754 164.3676 569.3478 163.4607 569.1152 163.1804 569.0932 163.0216 568.4924 162.3064 568.0699 162.0993 567.3802 161.9892 567.0024 162.134 566.6385 162.4947 565.8817 163.6037 565.6265 163.8369 564.7253 164.2775 564.2781 164.6627 564.0469 165.1571 562.6612 165.9947 562.018 166.7937 561.956 166.943 561.5186 167.1922 561.3659 167.1717 561.3062 167.0711 561.1575 169.2234 558.0242 167.8447 555.5991 169.2833 556.2473 167.7676 554.7369 167.0814 555.0926 166.2775 542.1059 160.6378 545.9405 156.7451 550.7794 155.3585 549.9786 153.7921 549.8668 147.6365 548.2737 147.2701 548.2069 145.3854 547.282 144.9107 547.4566 141.9626 545.7364 140.7179 546.5681 140.375 540.6268 127.2872 538.9572 126.4728 538.5789 122.1524 Z" id="fips-47123"/>
<path d="M 220.3225 100.6917 220.7076 98.5299 221.1076 97.8347 225.939 98.2073 227.4983 99.7661 231.1921 102.2204 232.0094 100.3066 233.6924 99.9683 234.3802 98.5164 243.7887 98.4274 242.1162 111.2066 244.137 113.8121 241.6274 113.9218 241.0167 118.2823 242.7923 119.8559 246.2255 121.7979 248.8426 124.6049 249.707 126.8171 249.4459 129.2321 246.191 131.5438 245.679 136.4005 243.793 136.379 243.1522 138.8673 241.66 137.8967 235.1852 138.5695 232.9533 140.2516 230.0641 140.7159 229.4934 139.5049 225.6778 140.9837 223.2498 140.5754 221.3796 141.4077 219.4291 141.1653 217.9612 141.8581 215.7974 144.1934 216.16 145.2745 214.0245 144.7166 212.9919 142.8033 213.2429 141.1372 214.4855 139.7066 217.9969 138.5566 218.7303 137.7185 219.4217 135.01 218.8165 132.5825 217.2654 130.5306 214.0771 123.5678 213.9387 122.649 215.576 118.3082 215.7472 115.71 214.7654 114.4711 214.2218 111.7932 215.4813 109.4952 218.4456 106.8035 219.4127 104.864 220.3225 100.6917 Z" id="fips-47135"/>
<path d="M 214.5213 148.7833 215.6419 149.4128 218.6315 148.5481 219.2818 147.4237 219.1577 146.3727 216.16 145.2745 215.7974 144.1934 217.9612 141.8581 219.4291 141.1653 221.3796 141.4077 223.2498 140.5754 225.6778 140.9837 229.4934 139.5049 230.0641 140.7159 232.9533 140.2516 235.1852 138.5695 241.66 137.8967 243.1522 138.8673 246.0773 140.1068 249.7753 140.1641 249.6749 143.6537 253.3007 144.3719 254.203 147.1664 256.2068 148.7018 255.6488 168.424 255.5756 172.7636 255.0986 177.7471 254.474 187.3756 255.9588 188.4617 255.3894 190.0683 252.8678 189.9231 252.2667 191.8338 252.7801 193.5888 251.0239 193.5559 247.3799 193.5314 246.7013 193.5207 244.3321 193.4525 243.9866 193.4323 243.8209 193.4349 243.1529 193.4092 238.5505 193.2733 237.7388 193.2534 237.1814 193.2267 229.8863 193.0368 229.7441 193.0437 229.7331 193.0475 227.9536 193.0166 227.4768 193.0158 227.4555 193.0205 222.8894 192.9265 218.5552 192.8351 217.4911 192.8124 218.3421 159.8454 216.8877 159.0708 215.0088 159.3463 215.1778 155.3441 216.285 153.5246 214.4856 151.3684 214.5213 148.7833 Z" id="fips-47181"/>
<path d="M 500.2418 161.0798 501.9943 160.9233 505.9567 156.278 506.5114 153.0035 508.1375 153.8662 508.9851 154.2613 511.4564 156.5898 515.4032 157.911 518.4799 160.8388 520.9719 161.0141 518.501 162.1458 519.0331 163.4644 520.3555 164.5249 521.6665 163.6996 523.3826 164.6496 522.8696 166.0387 521.7489 166.8952 523.5043 167.4673 523.0475 168.5362 523.4731 170.6458 523.0008 172.4405 523.3429 174.0053 519.0831 183.7455 520.2197 184.2573 519.0232 186.846 518.0558 190.6614 516.6128 194.9625 513.6051 195.034 513.5067 195.0382 513.3861 195.0358 513.3614 195.0353 512.7519 195.0291 512.4535 195.0156 512.1246 195.0442 511.3982 195.0217 508.9537 195.0887 508.6477 195.0882 501.3783 195.1818 500.9017 195.1945 499.8576 195.2134 497.8678 195.2599 499.2995 192.1095 496.2178 189.9098 495.7918 187.9619 496.129 187.181 495.683 185.1804 494.8477 184.7887 494.7707 183.3514 493.014 178.4272 494.7294 174.0705 494.6103 172.9982 497.3234 168.1647 498.4276 164.2633 500.6229 161.6974 500.2418 161.0798 Z" id="fips-47011"/>
<path d="M 300.0181 7.5802 304.9611 7.5261 309.4651 7.4744 319.048 7.2717 319.0991 7.2666 323.8249 7.226 325.7527 7.1987 327.0997 7.1564 327.3023 7.1479 327.5898 7.1578 332.132 7.0348 332.5314 7.0238 336.6524 7.0034 346.4583 6.7197 346.5817 6.718 347.9637 6.6804 350.311 8.8495 350.3318 8.8404 346.7647 15.7499 344.8736 18.3484 343.8034 20.1473 343.2668 24.3502 342.2369 27.4243 340.0951 29.6991 338.2687 32.9567 338.4252 34.5604 334.566 33.2888 333.3948 33.2445 332.7915 34.7363 331.9127 36.008 330.3016 36.5359 329.4575 37.992 329.7856 39.9417 326.3255 41.0434 323.6569 38.7564 321.6591 38.5074 320.0042 36.5404 318.64 36.4008 318.2653 37.2675 313.7652 37.8656 311.4001 38.7579 309.8325 36.1031 304.5643 32.7634 301.7093 30.0538 299.3486 28.8496 298.601 28.1051 299.3795 22.536 299.652 18.0871 298.5878 18.4808 296.7148 16.1555 298.2878 16.6173 299.4426 10.8609 299.0055 9.0999 300.0181 7.5802 Z" id="fips-47147"/>
<path d="M 417.6705 33.964 418.9101 23.9845 423.1753 21.9432 424.426 24.0006 427.8841 24.1534 426.0216 21.7436 428.9375 21.3155 429.6866 24.3176 432.3148 24.292 440.6996 27.0085 441.7579 26.589 442.1003 28.3275 444.9418 30.8335 447.2687 34.2172 448.1382 34.7467 447.9681 37.9372 448.267 46.2163 448.3927 48.7713 447.0846 49.0213 446.7117 51.3962 444.7515 51.2007 444.787 53.0401 442.7842 54.031 442.6181 55.2657 440.9971 54.4486 435.5918 56.4387 435.4685 55.502 430.4315 55.0211 427.254 54.2537 425.5874 54.8012 422.2128 52.4817 422.1717 53.72 419.9464 51.7058 419.109 52.5079 417.8003 51.7801 416.836 48.7678 416.0536 48.0458 417.6705 33.964 Z" id="fips-47087"/>
<path d="M 662.1757 55.6131 664.3428 54.8026 666.9888 50.9159 669.6232 48.3759 670.4157 48.3908 674.1264 44.3073 675.09 45.0714 677.7274 42.8519 679.8413 39.5907 682.5501 37.4013 684.5606 38.0254 687.242 35.1181 691.3344 33.0362 693.6113 33.6941 696.7343 30.8085 699.3265 30.9915 701.496 28.7819 703.693 28.0269 710.1247 26.8327 710.3532 27.6472 709.8492 57.8602 710.3156 58.3364 712.7118 60.8895 714.9028 63.3841 716.6206 65.3471 714.4328 69.8221 714.126 69.7003 713.7875 69.2691 713.4229 69.1122 712.9978 69.0602 712.9887 68.5823 713.0491 68.2383 712.9123 68.0272 711.9956 67.3788 711.6219 66.9831 711.1717 66.9888 710.5972 67.3523 710.0129 67.9439 709.5928 68.1397 709.3676 68.1014 708.8773 68.3057 708.363 68.5642 707.9514 68.8644 706.9966 69.3901 706.8911 69.5194 706.8305 69.8633 706.542 70.2613 705.4395 70.7808 705.2551 71.0155 704.87 71.2918 704.1691 71.4887 704.1396 71.6834 704.1692 71.9842 704.1203 72.151 703.3038 72.7052 703.0454 72.6806 702.6817 72.7966 701.0585 74.1776 700.6614 74.3858 700.23 74.4132 699.6653 74.5706 698.7001 74.9362 698.5877 75.0874 698.4753 75.2976 698.4197 75.811 697.8993 76.352 697.9006 76.4505 697.9147 77.5052 698.2727 77.8603 698.4105 77.8777 698.5645 77.8235 698.7696 77.9191 698.9181 78.131 698.6776 78.7167 698.1953 78.9541 698.0664 79.0815 697.9967 79.2406 698.0256 79.6152 697.8459 80.4266 696.6868 81.3808 696.2141 82.1059 696.1887 82.2241 696.2323 82.4038 696.5298 82.9837 696.5231 83.111 696.3371 83.3279 695.9651 83.333 695.7803 83.3898 695.3262 83.7268 694.8079 83.9901 694.7399 83.9137 694.3907 83.1076 694.1119 82.752 694.0033 82.7513 693.7048 82.5319 693.065 81.9659 692.9424 81.7932 692.1277 81.1334 691.8736 80.9925 691.1291 81.2081 690.3264 80.8797 690.1963 80.7221 689.8723 80.653 688.9877 81.0836 688.2014 81.5681 687.8093 81.6455 687.6681 81.5977 682.046 75.5304 677.2914 71.1737 673.0196 66.9807 672.6481 65.5131 670.97 65.169 668.2113 62.2445 666.8158 63.3027 666.9888 62.1886 664.7915 61.4139 663.5576 59.6554 661.6774 58.3391 662.1757 55.6131 Z" id="fips-47059"/>
<path d="M 248.8426 124.6049 251.7242 123.9112 252.0958 121.9852 253.6157 121.6078 255.5027 119.689 257.1687 119.8247 258.9563 122.3583 262.7799 122.6144 267.2208 124.1748 271.0139 123.1079 276.7266 119.2258 278.4038 119.2889 278.9736 122.0759 277.0929 123.9658 277.1088 127.753 279.8267 129.5668 280.2694 131.8269 282.1694 131.9231 283.2029 132.6462 283.4924 136.8934 284.694 136.792 283.3927 137.8033 284.1762 139.3415 282.3022 143.7311 279.3009 143.3576 279.4175 142.3668 268.0482 142.0836 267.9701 146.3188 265.2264 146.0558 265.2263 146.9593 262.3255 146.93 261.6374 148.7985 256.2068 148.7018 254.203 147.1664 253.3007 144.3719 249.6749 143.6537 249.7753 140.1641 246.0773 140.1068 243.1522 138.8673 243.793 136.379 245.679 136.4005 246.191 131.5438 249.4459 129.2321 249.707 126.8171 248.8426 124.6049 Z" id="fips-47101"/>
<path d="M 513.4214 11.1612 527.4479 11.3383 534.9249 11.5786 538.869 11.4592 544.0846 11.4271 559.7695 11.5851 560.668 11.5547 560.5113 14.4377 561.8409 14.6364 561.7429 18.1105 560.3595 20.699 558.5819 21.6265 554.5553 21.0732 553.6635 26.0883 552.8743 26.0234 553.4731 31.7721 556.5328 35.2491 554.4784 34.8926 555.1357 46.6019 554.7864 47.417 552.1964 48.1995 550.9577 49.5335 551.3702 54.4538 549.597 56.2082 548.6305 59.2893 545.222 60.6427 542.6711 57.4824 542.3782 56.1108 534.8436 52.838 532.8972 53.3061 533.3411 52.4899 532.8851 49.1406 531.1409 48.0681 529.3922 48.7709 520.967 37.4846 522.2955 35.5054 524.7351 34.6434 521.5964 30.1166 519.4053 22.9372 517.8289 20.0272 512.7869 11.1525 512.7923 11.1527 513.4214 11.1612 Z" id="fips-47151"/>
<path d="M 514.5385 99.7133 519.3546 95.7821 521.7706 91.5307 523.5016 90.5607 523.7168 90.0629 525.4392 89.1942 526.3519 87.7186 529.2471 87.2528 530.5025 85.8649 530.7063 84.7558 531.7232 85.1388 535.2067 85.0895 535.2644 83.4768 541.376 81.0107 545.1562 80.8467 550.9054 76.3742 552.4945 74.4299 554.6018 73.4876 556.738 79.9736 561.3957 89.146 562.1835 90.6346 560.38 90.0606 560.5486 93.1135 556.0585 91.2226 555.3381 96.0874 554.5729 98.1438 552.3829 98.9288 551.6524 99.9023 550.9399 105.5039 548.3555 104.6335 547.5219 107.2902 546.5719 107.8652 545.427 106.6288 541.2805 111.6101 539.8042 111.6282 537.8929 115.3575 538.0077 116.905 535.9642 118.2582 533.9077 118.2885 533.1175 119.9492 529.8454 119.9819 529.0548 117.9929 528.9971 114.822 529.7958 112.7861 528.1673 110.9471 524.8922 113.4335 524.4652 111.7839 522.4151 111.7769 522.3983 109.0518 520.9604 109.0564 520.242 107.9019 520.0288 107.8302 517.1993 107.7068 517.5162 105.4274 518.6703 104.8485 517.7995 103.1598 513.9477 100.9658 514.5385 99.7133 Z" id="fips-47145"/>
<path d="M 350.3318 8.8404 351.4857 8.3384 351.6003 7.5612 352.2088 7.668 352.1725 8.0495 355.4625 6.7003 358.5916 6.7929 358.5993 6.7923 358.7109 6.7826 359.0481 6.7741 364.2622 6.9206 367.5851 7.0123 367.6954 6.9756 369.0385 7.0078 371.4144 7.1291 375.0388 7.5171 381.5411 8.019 381.8215 8.0263 382.0654 8.052 382.0861 8.0597 383.0646 8.143 381.2881 20.7772 382.1493 22.2956 381.5473 25.0775 380.9895 25.4777 379.9321 25.6027 380.1904 29.5243 377.3006 29.4159 376.9706 40.1309 375.9846 41.4107 374.778 42.8753 374.445 45.4088 371.6593 44.6818 368.7643 45.5088 370.225 43.4215 370.1861 41.6845 368.8291 40.2538 367.4024 41.0231 366.2245 43.6519 366.1588 45.6571 364.5651 45.9401 363.8661 45.2573 363.5969 43.0792 362.1974 42.261 360.5418 42.7588 354.8779 46.9987 354.1203 49.2966 352.6383 47.8568 352.1307 44.4561 351.2677 44.6292 350.2013 46.2788 350.6225 48.2255 349.5794 51.0567 347.4464 53.0371 345.5368 53.0322 344.8309 52.5519 343.3373 51.8879 343.0821 48.1152 340.6335 46.7048 340.0833 44.9718 335.8627 41.9843 335.274 38.522 333.624 35.0127 332.7915 34.7363 333.3948 33.2445 334.566 33.2888 338.4252 34.5604 338.2687 32.9567 340.0951 29.6991 342.2369 27.4243 343.2668 24.3502 343.8034 20.1473 344.8736 18.3484 346.7647 15.7499 350.3318 8.8404 Z" id="fips-47165"/>
<path d="M 482.4722 33.9154 484.0803 33.5792 485.2628 23.3073 487.4022 20.1391 488.4192 20.6231 489.2452 16.5718 489.7231 17.0951 492.0762 15.7654 492.2896 14.8047 493.3255 15.7117 495.4228 14.7145 498.4175 13.8864 502.3782 14.17 505.8191 15.0741 509.9027 17.2642 513.0563 20.0708 517.8289 20.0272 519.4053 22.9372 521.5964 30.1166 524.7351 34.6434 522.2955 35.5054 520.967 37.4846 518.7593 36.9059 518.1831 39.8266 516.9099 39.7988 517.4676 41.2864 515.4366 42.3954 514.2576 41.826 513.253 42.7367 512.2102 46.0421 510.6448 46.4653 509.9703 45.7793 508.0946 47.2328 506.9188 46.4866 505.0808 47.4956 504.4286 52.7267 501.6969 56.2869 502.0732 58.7769 503.08 60.321 502.3724 62.1948 500.0556 63.3706 499.6782 62.3929 497.6831 63.2215 496.6389 62.0986 494.3379 61.8317 493.4616 62.6389 491.1708 60.7437 488.7027 62.709 486.283 64.6648 486.4331 65.0907 484.7193 64.4559 482.9306 63.7777 486.2615 57.8795 482.4557 45.5881 482.466 42.8792 482.6245 34.7502 482.4722 33.9154 Z" id="fips-47049"/>
<path d="M 107.0814 145.757 107.3268 141.701 116.9244 142.1321 134.1213 142.9127 138.8922 143.1289 138.7281 148.0627 143.139 154.4643 143.9326 163.7727 143.1304 177.6969 142.9499 184.8137 142.7805 192.4663 139.3865 192.3918 136.7795 192.3338 133.4343 192.1584 129.8678 192.1819 121.3109 191.9407 120.4344 191.9155 109.9604 191.6939 109.9474 191.6961 108.2989 191.6923 104.4401 191.5171 104.5537 189.5468 107.0814 145.757 Z" id="fips-47069"/>
<path d="M 545.222 60.6427 548.6305 59.2893 549.597 56.2082 551.3702 54.4538 553.7599 54.5987 555.2447 55.3649 557.9025 53.8413 563.9071 58.5283 564.5228 58.1279 564.8042 54.2061 564.6233 50.9774 569.5925 51.4157 572.6684 52.0743 575.3924 51.9893 576.1264 53.0486 579.1168 52.3016 578.8549 49.8164 580.2364 49.9761 580.357 48.4821 581.6091 47.1322 582.3528 44.098 582.9155 44.6196 583.4416 47.4302 585.0237 47.6086 584.5256 47.6283 588.4169 54.3876 591.0003 57.0252 587.8764 59.2075 585.1213 62.9157 584.3852 62.9912 583.1139 65.1733 577.4309 70.2288 580.677 74.3568 579.6365 75.2261 578.2916 76.6429 576.7987 77.2465 572.4439 80.1665 568.228 79.5683 567.9233 81.3746 566.5912 81.5659 565.9326 84.9976 563.8252 83.9917 564.6369 86.6277 562.9116 85.7249 561.2042 85.6965 563.1455 88.1157 561.3957 89.146 556.738 79.9736 554.6018 73.4876 551.0725 68.278 547.2382 66.8748 546.3032 64.2184 544.4716 63.1387 545.222 60.6427 Z" id="fips-47001"/>
<path d="M 502.2687 107.0789 503.2578 105.7214 505.3474 105.1159 513.069 99.7196 514.5385 99.7133 513.9477 100.9658 517.7995 103.1598 518.6703 104.8485 517.5162 105.4274 517.1993 107.7068 520.0288 107.8302 521.1878 110.9826 520.183 113.06 520.2046 115.0234 518.6234 116.2104 517.5995 116.1083 517.3827 114.0178 516.2052 113.907 514.8224 116.9053 515.1996 120.2347 514.4809 121.5932 515.3036 123.8024 514.9139 125.9076 512.3898 127.3515 512.5811 128.9003 513.83 130.7334 511.9353 131.5783 508.1836 130.6441 506.5162 131.1123 505.9361 132.3748 506.2439 133.9776 507.6241 135.0727 507.9053 137.1398 506.5872 138.1956 504.6503 138.7938 503.8254 140.0466 503.9272 141.9342 503.1607 143.4023 501.5571 144.0631 500.0419 143.7891 498.4639 142.3321 497.8576 140.7469 496.8055 140.3982 496.4129 140.8356 496.8725 143.8796 493.5546 147.3377 488.8074 144.2691 485.5696 145.2632 484.6566 142.0279 482.4649 141.8645 484.2242 139.9054 481.3815 138.1621 483.84 133.8427 485.7042 133.2843 484.8453 129.0074 490.3378 123.5533 502.2687 107.0789 Z" id="fips-47143"/>
<path d="M 469.3143 104.5681 470.4546 105.1402 470.7177 104.615 471.612 104.6629 471.1079 106.9144 470.8655 106.7634 470.7029 106.4004 470.8815 106.0974 470.6287 106.0153 470.5899 105.7503 470.9293 105.6842 470.783 105.3371 470.2231 105.5771 469.7499 105.4922 469.5474 105.1856 469.2012 105.0323 469.3143 104.5681 Z M 431.4887 99.951 434.0984 100.3139 436.0555 98.0829 432.661 97.874 435.577 94.1671 434.87 93.294 432.7355 93.9785 434.2365 91.54 433.1458 83.9789 436.1125 79.9722 434.7965 79.0108 434.9113 77.97 436.8639 76.8981 437.85 75.4607 439.9219 76.0771 440.8085 73.4679 441.597 73.9776 442.4874 72.3038 447.3334 71.2914 457.6925 74.2606 459.8274 74.5465 464.0766 77.0251 465.6314 76.8533 465.4998 81.2471 469.853 82.7752 469.7481 84.2927 471.9187 90.2764 474.6483 90.5479 474.5352 91.8475 472.9684 92.5223 473.8246 94.3148 472.1737 102.0578 471.5365 103.2881 469.6122 103.9195 468.8423 102.1425 469.9726 100.6623 461.0337 103.6249 455.3927 101.6411 450.6757 100.7781 448.368 102.6354 446.7045 101.5913 445.8587 102.5694 446.5015 104.2945 444.3336 103.7154 441.707 102.6839 438.984 102.7121 438.8287 104.0242 435.2316 101.579 431.6582 100.5615 431.4887 99.951 Z" id="fips-47185"/>
<path d="M 705.6012 25.5198 707.1811 24.2418 712.8758 26.2229 726.5663 23.3066 727.8124 23.9968 729.2012 22.8419 729.209 23.7877 730.7629 23.9997 730.4859 25.1783 733.6431 25.8085 732.6925 28.9818 734.1719 27.6742 737.0926 27.6868 740.5582 28.1578 740.6692 31.0421 740.3323 32.5867 739.4978 36.1913 737.3063 43.3862 737.5256 44.6494 735.97 46.0685 736.1823 47.2946 735.136 49.3807 732.2186 51.4715 730.8887 53.3019 730.5959 55.136 729.1142 56.1633 724.4973 56.2336 720.8566 57.1461 714.9028 63.3841 712.7118 60.8895 710.3156 58.3364 709.8492 57.8602 710.3532 27.6472 710.1247 26.8327 703.693 28.0269 706.0487 26.4595 705.6012 25.5198 Z" id="fips-47179"/>
<path d="M 438.8287 104.0242 438.984 102.7121 441.707 102.6839 444.3336 103.7154 446.5015 104.2945 445.8587 102.5694 446.7045 101.5913 448.368 102.6354 450.6757 100.7781 455.3927 101.6411 461.0337 103.6249 469.9726 100.6623 468.8423 102.1425 469.6122 103.9195 469.3143 104.5681 469.2012 105.0323 469.5474 105.1856 469.7499 105.4922 470.2231 105.5771 470.783 105.3371 470.9293 105.6842 470.5899 105.7503 470.6287 106.0153 470.8815 106.0974 470.7029 106.4004 470.8655 106.7634 471.1079 106.9144 471.0594 107.0647 470.0096 107.9023 469.5599 111.2935 470.0696 112.1258 466.8874 116.4845 455.6004 129.7796 452.8596 130.8627 452.2847 132.1516 448.9606 132.0939 443.254 133.8081 439.7447 124.1716 438.6945 113.8655 439.8224 110.8804 439.1731 110.1315 439.8781 108.6407 437.7235 107.8942 438.3814 106.7135 438.8287 104.0242 Z" id="fips-47175"/>
<path d="M 343.1138 116.6632 343.4032 114.8339 352.0194 115.3518 354.5684 116.4058 356.5514 119.8626 358.5776 120.2427 360.0583 122.2448 360.1529 121.4034 363.0107 120.447 364.0006 121.9217 363.9763 123.8388 365.0972 124.3216 367.7384 122.9388 367.218 121.6046 369.6663 120.7612 370.6121 119.1655 373.5307 119.4689 374.0066 121.1998 375.6388 120.9853 379.5635 122.8413 379.8501 129.8083 379.9055 137.3774 379.628 142.4738 380.5669 143.2277 379.4514 143.6346 378.4377 147.8142 375.6162 148.41 375.0316 150.1431 371.7698 151.8577 370.1193 153.5874 368.9121 153.5634 367.8992 155.1614 364.3637 155.3141 363.9014 157.8316 363.1499 158.4705 361.1229 158.2578 358.2323 156.2721 356.9345 153.5855 353.596 154.3763 348.1896 152.5157 346.7147 153.197 344.976 152.9824 341.2858 145.178 341.3262 142.8215 340.7576 138.7478 341.803 129.3799 343.4689 129.0099 340.8268 128.4922 341.8988 127.894 343.1138 116.6632 Z" id="fips-47003"/>
<path d="M 396.564 71.1288 398.1283 70.7536 400.824 71.4085 400.9237 70.6578 403.3343 70.9843 405.7885 68.2975 406.7915 69.2755 407.7557 68.4633 410.2093 69.7688 410.3049 67.5609 411.5169 67.6294 411.7602 68.9156 414.5554 70.1714 416.9025 66.1712 417.7908 66.8739 419.7368 65.8456 421.5439 69.0925 423.2156 69.9909 422.6621 71.8893 423.4807 72.8223 424.7774 73.0537 425.3144 71.9755 427.564 71.4429 430.8793 73.3766 432.6095 77.3434 433.9846 79.2654 434.7965 79.0108 436.1125 79.9722 433.1458 83.9789 434.2365 91.54 432.7355 93.9785 434.87 93.294 435.577 94.1671 432.661 97.874 436.0555 98.0829 434.0984 100.3139 431.4887 99.951 425.0462 97.8563 421.7534 98.6714 413.6026 98.4028 412.75 99.1031 412.3664 97.0696 409.8736 94.6102 402.3837 86.2632 400.7382 85.3365 399.6497 81.0725 398.3356 79.9155 398.7847 77.3383 397.1552 75.9329 397.7083 74.3722 396.2285 72.9474 396.564 71.1288 Z" id="fips-47041"/>
<path d="M 325.4242 164.6423 332.9828 165.905 333.935 165.0101 337.5441 161.0975 343.1813 158.1914 346.4128 157.5133 346.7147 153.197 348.1896 152.5157 353.596 154.3763 352.2758 156.5682 353.404 159.2899 354.5168 159.401 359.5324 161.4348 359.5467 162.3646 361.7754 163.4385 362.7953 165.2248 364.1993 165.2268 364.0399 166.8348 363.0007 167.3175 363.9023 168.7984 364.4335 167.6695 365.9451 167.9701 368.1467 175.2306 367.9548 178.3407 368.574 180.7352 369.7527 178.0805 370.3538 180.0178 372.8296 180.305 372.8296 182.1269 372.687 192.5886 372.7793 195.7621 365.4661 195.7031 362.0423 195.7663 358.8845 195.8077 354.2099 195.8023 353.2266 195.8009 350.6741 195.7624 349.2427 195.7547 349.2343 195.7546 347.5884 195.7297 346.5557 195.7222 342.7174 195.6547 342.7005 195.6546 341.0022 195.6435 339.9541 195.6165 339.6271 195.6153 339.4066 195.6067 339.3236 195.6064 329.4403 195.5844 329.4385 195.5844 325.9882 195.5868 324.5293 195.5797 325.4242 164.6423 Z" id="fips-47103"/>
<path d="M 493.5546 147.3377 496.8725 143.8796 496.4129 140.8356 496.8055 140.3982 497.8576 140.7469 498.4639 142.3321 500.0419 143.7891 501.5571 144.0631 503.1607 143.4023 503.9272 141.9342 503.8254 140.0466 504.6503 138.7938 506.5872 138.1956 507.9053 137.1398 507.6241 135.0727 506.2439 133.9776 505.9361 132.3748 506.5162 131.1123 508.1836 130.6441 511.9353 131.5783 513.83 130.7334 512.5811 128.9003 512.3898 127.3515 514.9139 125.9076 515.3036 123.8024 514.4809 121.5932 515.1996 120.2347 514.8224 116.9053 516.2052 113.907 517.3827 114.0178 517.5995 116.1083 518.6234 116.2104 520.2046 115.0234 520.183 113.06 521.1878 110.9826 520.0288 107.8302 520.242 107.9019 520.9604 109.0564 522.3983 109.0518 522.4151 111.7769 524.4652 111.7839 524.8922 113.4335 528.1673 110.9471 529.7958 112.7861 528.9971 114.822 529.0548 117.9929 529.8454 119.9819 527.8489 122.1199 525.6391 126.3564 523.5081 127.7229 523.3162 129.5212 520.3918 134.1549 518.3249 135.4145 515.5944 140.5934 513.0305 142.5803 509.567 149.9397 508.1375 153.8662 506.5114 153.0035 505.9567 156.278 501.9943 160.9233 500.2418 161.0798 498.5585 158.532 497.0117 152.584 494.3344 150.2898 492.2116 150.7486 493.5546 147.3377 Z" id="fips-47121"/>
<path d="M 329.9454 114.2595 332.7466 115.4263 333.2181 114.1261 338.8014 113.901 339.1285 114.5797 343.1138 116.6632 341.8988 127.894 340.8268 128.4922 343.4689 129.0099 341.803 129.3799 340.7576 138.7478 341.3262 142.8215 341.2858 145.178 344.976 152.9824 346.7147 153.197 346.4128 157.5133 343.1813 158.1914 337.5441 161.0975 333.935 165.0101 332.9828 165.905 325.4242 164.6423 325.422 161.2626 323.8693 158.124 322.5477 160.612 320.0488 159.7477 319.9086 158.7532 318.195 158.8689 318.595 156.2082 316.9519 154.5255 316.2778 151.9085 316.4659 148.7991 313.2203 147.1241 313.7822 143.2069 319.3165 139.871 320.7053 138.4072 321.1861 135.309 321.5739 137.4465 323.5982 134.8364 324.675 131.9671 324.4631 130.0872 325.6835 128.4063 324.5364 127.3289 325.9343 126.2653 327.1818 115.4057 328.559 115.9735 329.9454 114.2595 Z" id="fips-47117"/>
<path d="M 378.0841 156.7927 379.1333 155.5326 380.7567 155.9251 382.6014 155.2694 384.0165 156.7968 384.3441 155.5411 387.6838 153.4757 398.9634 155.5938 399.2513 156.5693 400.1606 156.6584 402.1465 158.867 404.5153 158.5966 410.4042 161.7574 410.9344 163.2332 414.2084 169.2305 415.1116 169.5767 415.1248 180.9139 415.1821 187.9752 415.1838 195.9649 396.7531 195.9012 373.4773 195.7674 372.7793 195.7621 372.687 192.5886 372.8296 182.1269 372.8296 180.305 373.329 179.5197 371.4159 178.0865 372.9606 178.069 372.6605 176.3986 373.4087 175.1468 373.4164 172.5069 375.1003 171.1663 374.366 167.9857 376.2622 167.2426 375.7034 165.2038 378.6199 161.088 379.5679 157.8655 378.0841 156.7927 Z" id="fips-47051"/>
<path d="M 201.0985 100.2296 201.2818 96.9259 209.9088 97.4419 212.9281 96.6721 214.9488 97.8583 215.0134 101.1353 217.2914 100.5641 220.3225 100.6917 219.4127 104.864 218.4456 106.8035 215.4813 109.4952 214.2218 111.7932 214.7654 114.4711 215.7472 115.71 215.576 118.3082 213.9387 122.649 214.0771 123.5678 217.2654 130.5306 218.8165 132.5825 219.4217 135.01 218.7303 137.7185 217.9969 138.5566 214.4855 139.7066 213.2429 141.1372 212.9919 142.8033 214.0245 144.7166 216.16 145.2745 219.1577 146.3727 219.2818 147.4237 218.6315 148.5481 215.6419 149.4128 214.5213 148.7833 210.8834 145.8437 206.9566 148.8497 205.2042 149.5708 201.3734 148.5768 198.571 149.9467 198.1507 148.1896 196.6557 146.2282 194.473 144.8943 194.5755 132.8775 199.6142 123.842 201.0985 100.2296 Z" id="fips-47039"/>
<path d="M 610.2457 59.0115 611.8693 57.9206 610.5865 57.0102 611.5871 54.9683 613.0948 54.0396 613.6161 50.6216 613.3801 48.7042 612.568 49.2044 612.6615 46.5835 613.8528 45.8795 613.8366 43.9562 615.672 38.3961 616.2866 39.7338 620.4844 38.1259 622.0491 36.7614 622.2995 35.5818 624.6143 35.8007 626.2601 35.378 627.9936 37.0244 630.3099 34.7829 631.2779 35.9271 631.1578 34.0295 632.4731 33.9112 634.0275 35.0495 635.5477 34.4239 634.5086 32.7583 636.1662 31.2405 637.1845 29.4911 638.3596 30.1189 638.5992 29.0502 641.1221 29.8279 640.8979 30.4067 644.2725 28.9803 645.3281 30.2457 648.323 31.1547 648.7203 32.4289 650.902 31.6319 650.2 33.4642 651.6585 34.3974 652.5539 37.2068 651.8073 40.2111 653.601 43.5695 652.5173 44.0597 652.5755 45.2865 651.5161 45.1158 651.586 46.4333 650.5024 46.6728 650.0519 44.933 649.1163 46.0906 646.8871 42.9145 646.4555 44.3624 643.7708 45.0255 643.8838 46.3086 641.5579 46.7325 638.7046 50.0405 639.1112 51.9523 638.1755 52.8798 636.0533 52.203 636.1843 55.3528 634.648 55.5577 634.5859 57.1762 633.1068 58.085 632.4478 58.1612 630.1317 56.9234 628.9745 58.7291 627.7723 56.5437 626.1257 56.7617 625.3421 55.6912 625.6852 58.3681 623.9812 58.4468 623.4957 59.7445 622.6307 58.717 622.1214 61.6779 619.0747 61.0702 618.9654 62.8711 620.013 63.4814 619.9618 65.5825 618.8463 66.463 617.6034 65.5181 617.8208 63.2946 615.7356 63.3682 615.7427 64.348 617.2234 67.8213 616.4973 68.4043 614.5895 64.9014 613.4729 65.1988 611.0116 61.5183 610.2457 59.0115 Z" id="fips-47057"/>
<path d="M 585.666 11.2574 590.8615 11.3464 594.1826 11.4017 603.8128 11.4505 612.7906 11.3588 612.9583 11.1492 613.0682 10.8274 613.4631 10.2475 613.7766 10.0227 613.9877 9.7323 614.1183 9.5011 614.1296 9.2467 614.6108 9.2354 614.612 9.2391 616.8542 9.2641 618.9559 9.4267 624.9642 9.334 632.6938 9.1211 636.38 11.7652 639.6461 16.0175 642.5517 24.5474 642.4408 27.429 641.1221 29.8279 638.5992 29.0502 638.3596 30.1189 637.1845 29.4911 636.1662 31.2405 634.5086 32.7583 635.5477 34.4239 634.0275 35.0495 632.4731 33.9112 631.1578 34.0295 631.2779 35.9271 630.3099 34.7829 627.9936 37.0244 626.2601 35.378 624.6143 35.8007 622.2995 35.5818 622.0491 36.7614 620.4844 38.1259 616.2866 39.7338 615.672 38.3961 612.8677 36.0479 611.665 38.3003 609.6633 38.4909 608.608 37.4148 608.6334 35.7138 606.6149 32.4477 603.7692 30.8713 603.9595 29.749 602.7516 28.3258 600.26 30.2372 599.6772 29.1557 597.6602 28.5934 595.5476 30.1671 593.6393 30.3682 594.1646 29.9941 592.0635 29.5196 590.0561 24.3576 588.7134 21.2043 586.0193 14.5624 586.1453 11.7327 585.666 11.2574 Z" id="fips-47025"/>
<path d="M 605.4228 90.7251 607.8071 87.8919 610.4686 87.1946 614.1466 84.5003 615.4594 84.7967 615.1463 83.3115 616.8808 81.9348 618.3105 79.0806 617.2843 78.5239 616.0927 73.2083 617.6619 73.6088 617.6918 72.6544 622.2143 75.6344 629.9234 81.2355 631.5867 84.0504 634.4855 85.0225 634.7157 85.8392 637.5071 85.071 638.3481 85.6367 640.1021 84.5021 642.5912 84.9976 642.7959 86.6553 645.309 85.9633 648.0676 86.7212 649.916 88.4586 650.1899 91.2002 654.5866 96.9472 652.4241 99.8141 652.6297 101.513 653.6559 102.7105 653.1979 104.9507 653.7305 109.0902 655.6569 108.8586 655.6561 108.8719 655.7585 109.1661 655.792 109.4934 655.7195 109.7669 655.6382 110.1264 655.738 110.4043 655.7128 111.0235 655.4962 111.5014 655.2168 111.8244 654.8407 112.0219 654.4895 112.2757 654.3096 112.7285 653.9381 112.9694 653.4181 113.1748 652.6925 113.5725 652.5591 113.7897 652.5423 114.4172 652.3206 115.0176 652.0142 115.5018 651.5469 115.7084 650.7944 115.9154 650.5838 115.8813 650.0937 115.4176 649.7853 114.9945 648.496 114.732 648.2534 115.0124 647.378 115.3353 647.1926 115.2978 646.9833 115.4176 646.7869 115.6946 646.6341 116.0233 646.6578 116.2838 646.5887 116.5499 646.4129 116.8675 645.636 117.8646 645.525 117.9278 645.3212 117.9338 645.1506 117.8131 645.0099 117.8601 644.7339 118.13 644.6306 118.377 644.4204 118.3596 643.6418 118.5109 643.6571 118.6507 643.3079 119.4875 642.9489 119.7687 642.3122 119.9481 642.0859 120.0834 641.5619 120.4709 640.7866 120.8873 640.7381 121.1017 640.6829 121.1501 639.6964 121.3213 638.8681 121.1413 638.4424 121.1467 638.3296 121.5074 637.8597 122.1756 637.5718 122.7389 636.9472 123.3773 636.1522 123.6621 636.0354 123.7998 636.0425 124.0925 635.8004 124.3019 635.4618 124.478 635.4419 124.5414 635.5272 124.9444 635.3421 125.2424 634.9161 126.2145 634.3547 126.3831 633.7491 126.8432 631.9716 126.9075 631.6941 126.6046 630.4304 126.7474 629.8115 126.6475 628.7673 126.8318 628.1097 126.7994 627.4747 126.6812 626.8905 126.7519 626.5328 126.9328 626.0142 127.0994 625.6814 127.0796 625.5346 126.9613 625.4617 126.6279 624.847 125.968 624.129 125.383 623.8525 125.2642 623.4747 125.2622 622.8981 125.8959 621.5839 126.6313 621.3375 126.5011 621.0192 126.6151 620.8977 126.7406 620.5943 126.8653 620.1343 126.9065 619.4166 126.6435 618.9724 126.5531 618.6988 126.6749 618.5081 126.5742 618.5019 126.5738 618.1437 112.7546 617.1017 113.3662 616.2983 110.6246 614.1615 110.4768 614.4984 109.5916 613.0733 108.5191 612.79 106.3989 610.0163 100.7046 610.7099 99.7279 609.0394 98.5528 607.4292 94.5651 606.4337 94.1638 606.3757 91.6017 605.4228 90.7251 Z" id="fips-47155"/>
<path d="M 414.2084 169.2305 416.7919 167.1979 418.9007 167.0597 423.4644 169.707 426.5696 170.0798 430.8776 167.3251 429.369 161.6459 431.1365 161.9956 434.3678 159.7548 436.4596 159.9542 443.3546 158.1249 443.5312 159.375 449.3366 162.5606 449.5262 163.2036 454.0356 164.4785 457.9092 168.9414 459.0007 171.4047 459.3151 173.7844 458.7187 175.2809 459.4637 177.5678 459.5956 178.7129 459.0529 180.6126 461.8689 184.3029 460.0267 189.2194 457.4849 189.7557 455.8258 193.5906 451.5317 196.3168 444.2135 196.2693 439.3116 196.2342 418.8688 195.9729 418.4667 195.9724 415.1838 195.9649 415.1821 187.9752 415.1248 180.9139 415.1116 169.5767 414.2084 169.2305 Z" id="fips-47115"/>
<path d="M 650.902 31.6319 656.132 29.7013 658.7224 28.0126 657.4658 26.087 661.4897 23.6759 660.9871 22.5879 663.8819 19.5316 665.0486 17.6052 672.2487 13.0367 674.9126 11.6026 676.8021 11.7423 677.4444 13.702 679.5107 12.4161 680.4952 13.7654 686.4398 10.1216 691.2432 7.6054 703.5225 7.1616 704.9724 7.1073 711.4172 6.8171 712.3293 8.6959 710.8247 8.491 711.3757 12.3494 711.6568 15.3258 710.0846 16.0351 710.2468 18.1014 703.5254 22.8988 705.6012 25.5198 706.0487 26.4595 703.693 28.0269 701.496 28.7819 699.3265 30.9915 696.7343 30.8085 693.6113 33.6941 691.3344 33.0362 687.242 35.1181 684.5606 38.0254 682.5501 37.4013 679.8413 39.5907 677.7274 42.8519 675.09 45.0714 674.1264 44.3073 670.4157 48.3908 669.6232 48.3759 667.6477 45.7404 666.9822 43.8978 664.6532 42.4108 662.1747 38.3067 661.881 36.9045 660.1157 38.3966 660.339 40.7347 658.8457 39.6331 658.5724 41.3725 657.2211 42.9531 655.0229 43.0234 655.6425 44.3243 653.601 43.5695 651.8073 40.2111 652.5539 37.2068 651.6585 34.3974 650.2 33.4642 650.902 31.6319 Z" id="fips-47073"/>
<path d="M 469.6122 103.9195 471.5365 103.2881 472.1737 102.0578 473.8246 94.3148 472.9684 92.5223 474.5352 91.8475 474.6483 90.5479 471.9187 90.2764 469.7481 84.2927 469.853 82.7752 470.5162 82.8432 470.1806 80.781 470.9567 75.7789 471.6797 74.1325 471.1894 70.7672 471.3392 68.926 472.3076 68.3398 479.9467 68.956 481.8365 65.6662 484.7193 64.4559 486.4331 65.0907 486.283 64.6648 488.7027 62.709 491.1708 60.7437 493.4616 62.6389 494.3379 61.8317 496.6389 62.0986 497.6831 63.2215 499.6782 62.3929 500.0556 63.3706 502.3724 62.1948 503.3297 63.2181 505.7922 64.348 509.4244 70.3148 510.1468 69.0845 511.8873 69.5375 513.177 73.0487 519.8585 80.2874 523.7168 90.0629 523.5016 90.5607 521.7706 91.5307 519.3546 95.7821 514.5385 99.7133 513.069 99.7196 505.3474 105.1159 503.2578 105.7214 502.2687 107.0789 501.9933 106.7115 501.1062 106.3436 491.8862 109.0068 490.7068 106.1221 486.6781 107.4526 484.9618 106.4076 471.0594 107.0647 471.1079 106.9144 471.612 104.6629 470.7177 104.615 470.4546 105.1402 469.3143 104.5681 469.6122 103.9195 Z" id="fips-47035"/>
</g>
</svg>