<?xml version="1.0"?>
<svg xmlns="http://www.w3.org/2000/svg" version="1.2" baseProfile="tiny" width="800" height="1003" viewBox="0 0 800 1003" stroke-linecap="round" stroke-linejoin="round">
<g id="cb_2018_us_county_5m">
<path d="M 248.0093 700.4109 296.9524 700.4411 309.375 700.518 319.3142 700.8996 319.3329 702.5729 365.5226 702.6741 356.5712 711.6504 354.4236 717.3723 352.6184 718.0888 353.3756 772.7269 336.3794 772.7209 319.1838 773.7562 259.0011 772.4733 262.4523 768.3456 262.1817 766.3226 266.8094 761.362 271.5499 759.5757 272.7833 757.675 269.2553 753.7185 269.6945 751.7336 273.8825 746.2811 274.2452 741.6729 275.7834 740.2951 276.3581 736.1113 275.1103 733.2187 272.1257 731.2895 269.389 726.6605 267.6305 726.486 265.7427 723.6622 265.8955 719.5015 263.7095 718.7034 262.3607 721.2298 259.4568 721.4346 258.1002 716.7133 254.0329 712.9196 251.8263 712.1853 250.6379 709.4315 247.7917 706.5011 249.2696 704.8229 248.0093 700.4109 Z" id="fips-49031"/>
<path d="M 542.6245 893.676 543.2738 892.6635 545.4065 890.1038 549.3306 887.5712 549.7497 883.6967 551.6526 880.2721 554.2466 879.3528 555.148 877.3105 555.4688 874.9116 557.6602 873.9741 561.0247 873.0985 562.4982 871.0042 564.5761 871.1951 564.8912 871.3636 565.9732 869.8933 566.5745 868.0798 567.898 863.828 567.943 860.742 570.308 858.5324 573.0252 854.975 573.5429 851.3211 576.0135 847.7549 576.6698 846.8056 575.068 846.4356 573.2146 847.1578 570.8456 846.9658 569.8388 845.3658 569.4241 842.9367 569.0672 841.0261 570.2116 839.9189 571.2759 839.8743 573.4867 839.8719 575.2346 837.8634 575.5488 835.1515 578.0802 832.5586 579.6321 832.0194 580.3194 830.2175 580.2756 828.5172 580.2842 825.3212 582.5783 823.9344 585.7089 823.2229 589.6026 823.2475 592.7003 823.3062 596.4331 823.4681 597.4108 825.0659 597.9503 827.5583 598.8594 827.9934 599.9975 826.6259 599.7975 825.5456 600.1597 823.1511 602.0205 821.4357 603.766 821.6527 607.5261 822.0355 609.4 822.551 611.4487 820.6272 611.9589 818.8566 611.6945 815.8625 611.2559 812.8314 613.029 811.0974 614.3857 810.1118 616.0747 808.7635 617.3143 807.6535 617.7339 805.4338 618.7471 803.9701 619.5715 803.5131 621.0478 801.6408 621.3897 800.5595 622.3821 799.6645 624.1397 799.3083 625.8398 799.3847 627.2168 800.722 628.2398 801.6306 630.5656 801.4601 631.5444 800.2011 631.2918 797.1688 631.9901 794.6374 632.9651 792.4157 634.7614 790.9913 636.1677 790.0645 636.3133 788.5199 636.0583 787.5299 635.8747 786.1734 636.4193 785.136 637.1812 783.9221 638.0156 783.0453 638.5362 782.0298 638.943 781.1561 639.6336 780.4444 640.3249 779.4352 641.5256 778.7006 642.4278 778.9349 643.0282 779.7234 643.7215 780.513 644.5911 780.482 645.6456 779.3541 648.4435 777.8192 649.5054 774.837 653.1234 773.2314 654.1999 770.4563 654.0833 770.0422 653.5695 768.8207 660.6712 762.7493 657.7965 761.774 660.1471 758.8225 655.4949 757.3453 655.1848 755.4642 659.8877 754.0365 658.0084 751.8032 655.4445 751.0792 657.7376 749.1898 656.4961 746.1639 653.9306 748.4532 652.5636 746.988 652.9668 743.6311 650.4543 742.7177 650.6567 739.1722 648.3226 737.128 647.583 734.7272 649.8631 733.1898 651.2713 730.505 649.5012 729.701 648.4266 732.4662 644.7438 730.3584 644.5022 727.8605 646.1046 725.4361 645.2764 722.855 641.8928 726.5932 639.6536 727.8336 639.8896 724.6788 636.9454 723.8182 641.3073 717.5036 637.51 711.3444 634.7423 710.3449 636.2875 708.8616 639.8513 711.2463 641.3148 704.713 637.5671 700.8371 723.4815 699.0297 788.3401 697.3087 789.5855 742.1148 790.6049 748.1909 793.0758 764.1443 793.1297 766.4711 793.8387 797.1541 793.8514 797.5997 793.9317 802.1525 794.6316 815.5177 794.684 820.7387 794.7006 822.3952 794.8915 828.528 794.9214 829.7702 795.1671 836.8966 795.3463 846.8992 795.4737 848.8485 795.6048 854.242 795.6202 854.6345 795.7868 863.645 796.0504 872.0784 796.0778 873.3022 796.2042 875.9924 796.6028 890.646 796.5953 890.6608 796.5719 896.7835 796.6047 899.8119 796.84 921.733 797.4928 946.6697 797.5686 946.7957 797.7959 954.4764 797.7675 956.2765 797.8997 961.174 798.3913 974.1782 798.3844 974.1995 798.4029 974.6969 798.4727 977.3284 798.5576 979.2905 798.6121 981.638 798.6055 982.0213 799 996.7126 777.3353 997.2852 768.946 997.5136 766.8632 997.5533 764.2388 997.6396 763.4704 997.6642 763.1701 997.6673 745.9704 998.1375 745.4624 998.1477 727.2776 998.6027 706.5098 999.2435 666.6597 1000.0448 646.7346 1000.5306 646.7338 1000.5279 646.7011 1000.4247 643.3686 1000.4654 571.8784 1001.7018 568.5613 1000.6337 567 1000.5152 551.2455 1000.8701 547.0852 1000.9245 547.071 1000.8638 527.141 1001.1819 476.784 1001.7597 466.0661 1002.1469 446.7482 1002.1861 443.0118 1002.3244 431.5434 1002.2514 433.7952 999.075 435.9103 998.5978 436.865 999.7304 438.6993 999.808 438.5312 998.1089 439.5905 996.3169 441.0355 995.6467 441.9999 994.872 440.3604 993.7483 438.7182 991.977 438.6893 990.0713 439.2292 989.1813 440.9521 989.882 442.4542 990.7482 445.3596 992.6502 446.7782 996.1379 447.2976 997.2031 449.4996 997.6135 450.2101 996.0826 449.7946 993.7368 449.1518 993.5143 447.8351 992.624 448.1528 991.2015 448.6848 989.5581 450.7778 989.4638 451.1744 990.4588 451.9917 991.2065 452.7163 990.9255 455.5985 987.0107 458.3714 982.4838 459.7137 981.6083 461.6594 981.8939 462.5211 983.1949 464.2763 984.5902 466.3875 982.9114 466.878 981.6773 468.6763 981.0389 470.4551 981.5508 474.2107 981.7022 475.5909 981.4003 477.1634 980.7806 477.6842 981.7113 478.9543 982.4537 480.3501 980.8757 484.5194 979.6045 487.1248 979.8783 488.5908 979.9874 489.781 979.3999 489.9545 977.9427 489.7342 977.325 490.3854 976.6349 491.2586 976.9047 492.2211 977.1865 493.8789 977.1732 494.5828 975.7512 494.6523 974.0924 494.2412 972.333 496.0197 972.2921 496.7775 972.5086 498.1836 971.2219 498.6997 969.0301 498.9584 967.6359 500.3322 966.4579 501.6054 966.907 502.6067 967.1198 503.2711 965.8018 503.2042 964.7158 504.3341 963.0326 504.5967 960.7848 503.8241 959.7875 504.5564 958.2427 505.9433 957.4809 506.8875 956.0833 506.6289 954.8323 505.8548 953.6236 505.3459 951.8823 506.1523 951.4092 507.5515 951.0495 508.996 950.2666 508.424 948.4378 508.4208 944.0283 511.76 943.2434 512.9119 940.0159 512.1823 938.2742 510.6897 937.3234 508.3901 936.7953 507.1512 934.8583 507.7632 932.285 509.657 932.4586 512.6578 934.5299 514.8918 935.8067 517.3202 937.4606 521.1616 937.2644 523.4765 935.8281 524.8253 935.4468 525.7044 934.1651 525.7733 932.6758 527.0982 932.0767 527.8382 933.0871 529.0312 931.6979 529.2864 929.9107 530.5428 928.6791 530.2238 926.7722 529.0499 925.8021 527.6335 924.5006 526.1495 922.5265 525.9147 921.5323 527.2721 920.4994 528.6566 920.9486 530.6346 922.0818 532.6673 920.7035 533.2509 919.5591 533.7805 917.5678 534.3347 916.1766 533.2716 914.5698 531.1671 915.0108 528.4033 912.8836 526.8167 911.1233 526.7646 910.6544 527.3575 909.9884 528.5197 910.188 529.6662 910.3525 530.2978 908.8724 530.2982 907.5577 531.3281 905.7082 534.8135 905.6317 540.2399 906.2526 542.6808 905.1657 543.6484 904.7717 543.4051 903.5335 542.3144 903.101 540.5073 903.115 539.3903 902.1726 539.5604 901.1612 540.1635 897.4424 541.9791 894.869 542.6245 893.676 Z" id="fips-49037"/>
<path d="M 385.032 244.0993 389.5685 241.676 392.111 242.8834 393.0681 245.1412 398.1244 247.8791 403.4202 245.5283 404.7122 241.7943 403.7898 239.9988 406.3334 237.4722 408.103 233.0317 409.405 232.1736 408.4178 229.2637 404.8447 224.348 404.0627 220.5352 401.9664 220.096 402.5446 213.1611 394.5949 212.2661 393.0209 210.7721 392.1972 205.631 393.3945 204.6814 396.2406 203.8587 397.9497 197.5787 401.7595 193.4149 405.1292 191.3219 410.1794 191.1129 414.305 187.5315 420.0386 188.9519 424.2441 186.4839 424.6467 182.3774 426.2999 177.9408 429.431 178.1899 431.4401 176.31 434.7833 177.8174 437.8533 175.2565 441.5732 175.0838 446.4089 175.2941 450.8787 171.1008 459.0053 167.1855 461.8874 164.286 461.308 162.4542 464.749 160.8699 466.0687 162.2481 469.9158 155.1226 471.6613 153.6856 474.2673 153.4306 474.5959 204.0596 519.2044 203.9077 524.5855 203.9525 550.9877 203.6521 556.8839 203.8974 575.7195 203.6034 594.5513 203.0956 596.4912 203.1974 613.3831 202.6976 613.9943 202.5773 625.0142 202.2951 631.3387 202.1291 632.2123 202.2056 632.9058 238.8632 632.5828 238.9262 631.6012 238.8357 630.9503 238.8681 630.3923 238.5133 630.0047 238.0709 629.4688 237.6539 628.8138 237.6573 627.9288 238.0133 627.0322 237.8936 626.6796 237.7198 626.1146 238.2018 625.8055 238.6733 625.0719 239.2855 624.0946 239.1429 623.2295 238.933 622.4614 239.3538 621.7416 239.7651 620.9774 239.7443 620.1283 239.6463 619.2832 239.7047 618.5995 240.0186 617.8665 240.2507 617.1611 240.1771 616.5042 239.7815 615.4003 239.6917 614.6167 239.6516 614.095 239.2354 613.4766 239.2001 612.2785 239.7424 611.1011 239.2201 610.756 238.9303 610.188 238.3391 609.1686 237.8723 608.2342 237.9596 607.5151 238.2326 606.7986 238.5999 605.8674 238.0723 605.3087 237.9852 604.8974 237.4982 604.5511 237.0798 604.3312 237.0023 604.0276 237.2516 603.4052 237.5436 602.5042 237.7701 601.7243 237.477 601.21 236.9879 600.5063 236.6791 599.8618 236.9685 598.7497 236.8098 598.5636 236.4696 598.0266 236.1802 597.6388 236.4239 596.6773 236.5107 595.9535 236.0498 595.322 235.7045 593.8827 235.4755 592.5123 235.6395 591.1403 236.2928 590.3916 236.6722 589.4956 236.6524 589.0732 236.3532 588.9255 235.9803 588.5181 235.6864 588.0208 236.0081 587.3776 237.1246 586.3643 237.434 585.4692 237.7819 584.7553 238.2411 583.5272 238.5193 582.4375 238.2339 581.8792 237.9591 581.3024 237.7553 580.9374 238.1581 580.1644 239.139 580.0441 240.0625 580.3226 240.6494 579.8876 241.4041 579.6005 242.0927 579.1492 242.6743 578.5532 243.2387 577.8227 243.5568 577.1572 244.2952 576.6855 244.8078 576.3223 244.7686 575.8897 245.0197 575.3143 245.1111 574.6042 245.0289 574.039 245.0436 573.5421 244.9509 573.1383 245.1138 572.6827 245.4039 571.9691 245.7029 571.2436 245.7071 570.7842 245.6132 570.3552 245.1286 569.5921 244.6537 569.1741 244.3857 568.7076 244.6568 568.4327 245.0463 568.1827 245.869 567.834 246.8612 567.0701 247.0653 566.5096 246.7636 565.8453 246.3858 565.1162 246.3467 564.4605 246.3718 564.1965 246.1695 563.7787 246.3792 563.459 246.752 563.4037 247.3762 562.4523 248.1349 561.5101 248.251 560.5254 247.7618 559.8352 246.928 559.4174 246.8372 559.1272 247.3139 558.8946 247.8344 558.233 248.4937 557.7216 249.117 557.1345 249.4348 556.5868 249.6402 555.9988 249.7179 555.3368 249.9565 553.987 250.4921 553.352 250.0397 552.8423 249.2804 552.5144 248.6033 552.0137 248.4945 551.1621 248.446 550.1406 248.6474 545.1298 250.5683 544.6477 250.4405 544.1249 250.5872 543.5667 250.9966 542.904 251.479 542.2034 251.5055 541.6067 251.4827 541.2887 251.1307 540.7915 250.7755 540.2673 250.4096 539.718 250.025 539.4307 249.559 539.1609 249.2135 538.6876 249.0721 538.3263 249.2761 537.7022 249.6609 537.3397 250.0853 536.9677 250.8711 536.4662 251.6325 535.8522 252.2008 535.3814 252.6475 535.3745 253.2391 535.095 253.7393 534.7153 254.2231 534.2733 254.6167 534.1105 254.8271 533.7124 254.9074 533.4062 254.8287 532.9116 254.6719 532.2694 254.7065 531.6262 254.9808 531.0443 255.2672 530.6098 255.1471 530.0622 254.8795 529.3546 254.7857 528.8121 254.7392 528.3872 254.3411 527.9634 253.8695 527.4297 253.6655 526.7693 253.2934 526.1489 253.003 525.6615 252.6324 525.2083 252.8048 524.8318 253.1166 524.4426 253.4127 524.0626 253.891 523.7173 254.0616 523.051 254.1068 522.3816 253.8625 521.9632 253.968 521.3753 254.1962 520.6475 254.1411 520.0978 253.8421 519.583 253.7818 519.1233 254.1278 518.7045 254.691 517.9207 254.8199 517.5796 254.8474 517.4164 255.1922 517.5031 255.4056 517.3661 255.9056 517.073 256.1135 516.5239 256.6084 515.9106 256.9007 515.1848 257.0166 514.7634 257.2732 514.3266 257.8813 513.7809 258.5841 513.3048 259.3742 512.5931 260.0584 512.1525 260.5579 511.4953 260.8709 510.8364 260.9216 510.1005 261.0245 509.3954 261.1271 508.599 261.024 508.0487 260.2735 507.3605 259.6625 506.6638 259.4859 506.1413 258.9887 505.6001 258.6077 505.2659 258.3727 504.7013 258.4776 504.2572 258.7676 503.3986 258.9771 502.5899 258.8912 502.0364 258.4338 501.4503 258.0604 500.9159 257.6829 499.8127 257.8663 498.549 257.924 498.2122 258.2942 498.1953 258.9058 498.4665 259.2401 498.9912 259.3073 499.2624 259.854 499.3628 260.3121 498.5748 260.4001 497.6294 260.6734 496.7359 261.9951 497.4348 265.5929 496.9596 267.7307 492.1128 267.3327 489.8923 271.148 490.5018 274.1317 487.8278 280.366 488.1268 281.8836 485.8684 284.83 481.1617 284.9001 478.489 287.9681 473.867 287.1615 470.0482 284.6418 463.9185 285.4761 462.3623 287.9003 461.5014 291.8915 459.3434 293.9085 454.8064 291.8997 449.7499 288.7221 446.1186 288.1454 442.0149 286.2284 436.2478 282.5282 432.6104 279.1037 426.3251 277.9637 423.0362 271.6454 423.1111 268.2125 421.9132 265.6013 419.6593 267.5708 415.9564 267.6829 416.9491 270.7275 410.4521 275.0452 408.4056 279.6261 408.0528 283.9002 402.1842 281.4095 398.3467 281.9433 394.5543 275.005 391.75 271.8767 390.5865 270.5287 392.3517 264.0201 391.1903 262.1533 390.3071 261.2792 387.695 257.5108 387.6913 253.1726 383.8115 249.1863 385.032 244.0993 Z" id="fips-49043"/>
<path d="M 6.9509 768.2838 131.5305 771.0474 253.5847 772.9406 253.24 806.8261 255.1285 806.8468 254.7862 824.2511 235.8418 824.0765 237.402 825.7447 237.2248 841.2357 227 840.6963 219.7685 840.8373 219.613 856.2455 220.121 858.4588 220.0584 893.1201 185.6415 892.7286 185.5534 901.4033 163.9976 901.1447 163.9299 906.1886 147.3086 905.9581 146.6721 904.6062 129.6662 904.0884 129.8486 894.7464 97.9452 894.1154 94.9156 894.066 95.1881 876.2633 77.2783 875.9049 77.2186 878.6212 3.7596 876.829 3.9466 870.5363 4.5975 848.6532 4.5898 848.6026 4.6116 848.4616 4.7477 846.6046 4.983 844.7518 5.4371 835.9228 5.3178 833.1672 5.4259 827.4064 5.6162 821.6484 6.104 797.9785 6.9502 768.3162 6.9509 768.2838 Z" id="fips-49021"/>
<path d="M 632.9058 238.8632 634.8699 240.037 636.5934 239.5921 637.762 301.6183 638.4608 338.8409 640.3302 439.9059 557.3039 441.1026 556.7188 440.1224 505.2068 440.3495 505.073 423.0932 499.8637 423.1488 498.8457 386.6693 498.5919 363.4638 498.1997 317.0299 497.2367 317.0324 496.9596 267.7307 497.4348 265.5929 496.7359 261.9951 497.6294 260.6734 498.5748 260.4001 499.3628 260.3121 499.2624 259.854 498.9912 259.3073 498.4665 259.2401 498.1953 258.9058 498.2122 258.2942 498.549 257.924 499.8127 257.8663 500.9159 257.6829 501.4503 258.0604 502.0364 258.4338 502.5899 258.8912 503.3986 258.9771 504.2572 258.7676 504.7013 258.4776 505.2659 258.3727 505.6001 258.6077 506.1413 258.9887 506.6638 259.4859 507.3605 259.6625 508.0487 260.2735 508.599 261.024 509.3954 261.1271 510.1005 261.0245 510.8364 260.9216 511.4953 260.8709 512.1525 260.5579 512.5931 260.0584 513.3048 259.3742 513.7809 258.5841 514.3266 257.8813 514.7634 257.2732 515.1848 257.0166 515.9106 256.9007 516.5239 256.6084 517.073 256.1135 517.3661 255.9056 517.5031 255.4056 517.4164 255.1922 517.5796 254.8474 517.9207 254.8199 518.7045 254.691 519.1233 254.1278 519.583 253.7818 520.0978 253.8421 520.6475 254.1411 521.3753 254.1962 521.9632 253.968 522.3816 253.8625 523.051 254.1068 523.7173 254.0616 524.0626 253.891 524.4426 253.4127 524.8318 253.1166 525.2083 252.8048 525.6615 252.6324 526.1489 253.003 526.7693 253.2934 527.4297 253.6655 527.9634 253.8695 528.3872 254.3411 528.8121 254.7392 529.3546 254.7857 530.0622 254.8795 530.6098 255.1471 531.0443 255.2672 531.6262 254.9808 532.2694 254.7065 532.9116 254.6719 533.4062 254.8287 533.7124 254.9074 534.1105 254.8271 534.2733 254.6167 534.7153 254.2231 535.095 253.7393 535.3745 253.2391 535.3814 252.6475 535.8522 252.2008 536.4662 251.6325 536.9677 250.8711 537.3397 250.0853 537.7022 249.6609 538.3263 249.2761 538.6876 249.0721 539.1609 249.2135 539.4307 249.559 539.718 250.025 540.2673 250.4096 540.7915 250.7755 541.2887 251.1307 541.6067 251.4827 542.2034 251.5055 542.904 251.479 543.5667 250.9966 544.1249 250.5872 544.6477 250.4405 545.1298 250.5683 550.1406 248.6474 551.1621 248.446 552.0137 248.4945 552.5144 248.6033 552.8423 249.2804 553.352 250.0397 553.987 250.4921 555.3368 249.9565 555.9988 249.7179 556.5868 249.6402 557.1345 249.4348 557.7216 249.117 558.233 248.4937 558.8946 247.8344 559.1272 247.3139 559.4174 246.8372 559.8352 246.928 560.5254 247.7618 561.5101 248.251 562.4523 248.1349 563.4037 247.3762 563.459 246.752 563.7787 246.3792 564.1965 246.1695 564.4605 246.3718 565.1162 246.3467 565.8453 246.3858 566.5096 246.7636 567.0701 247.0653 567.834 246.8612 568.1827 245.869 568.4327 245.0463 568.7076 244.6568 569.1741 244.3857 569.5921 244.6537 570.3552 245.1286 570.7842 245.6132 571.2436 245.7071 571.9691 245.7029 572.6827 245.4039 573.1383 245.1138 573.5421 244.9509 574.039 245.0436 574.6042 245.0289 575.3143 245.1111 575.8897 245.0197 576.3223 244.7686 576.6855 244.8078 577.1572 244.2952 577.8227 243.5568 578.5532 243.2387 579.1492 242.6743 579.6005 242.0927 579.8876 241.4041 580.3226 240.6494 580.0441 240.0625 580.1644 239.139 580.9374 238.1581 581.3024 237.7553 581.8792 237.9591 582.4375 238.2339 583.5272 238.5193 584.7553 238.2411 585.4692 237.7819 586.3643 237.434 587.3776 237.1246 588.0208 236.0081 588.5181 235.6864 588.9255 235.9803 589.0732 236.3532 589.4956 236.6524 590.3916 236.6722 591.1403 236.2928 592.5123 235.6395 593.8827 235.4755 595.322 235.7045 595.9535 236.0498 596.6773 236.5107 597.6388 236.4239 598.0266 236.1802 598.5636 236.4696 598.7497 236.8098 599.8618 236.9685 600.5063 236.6791 601.21 236.9879 601.7243 237.477 602.5042 237.7701 603.4052 237.5436 604.0276 237.2516 604.3312 237.0023 604.5511 237.0798 604.8974 237.4982 605.3087 237.9852 605.8674 238.0723 606.7986 238.5999 607.5151 238.2326 608.2342 237.9596 609.1686 237.8723 610.188 238.3391 610.756 238.9303 611.1011 239.2201 612.2785 239.7424 613.4766 239.2001 614.095 239.2354 614.6167 239.6516 615.4003 239.6917 616.5042 239.7815 617.1611 240.1771 617.8665 240.2507 618.5995 240.0186 619.2832 239.7047 620.1283 239.6463 620.9774 239.7443 621.7416 239.7651 622.4614 239.3538 623.2295 238.933 624.0946 239.1429 625.0719 239.2855 625.8055 238.6733 626.1146 238.2018 626.6796 237.7198 627.0322 237.8936 627.9288 238.0133 628.8138 237.6573 629.4688 237.6539 630.0047 238.0709 630.3923 238.5133 630.9503 238.8681 631.6012 238.8357 632.5828 238.9262 632.9058 238.8632 Z" id="fips-49013"/>
<path d="M 3.7596 876.829 77.2186 878.6212 77.2783 875.9049 95.1881 876.2633 94.9156 894.066 97.9452 894.1154 129.8486 894.7464 129.6662 904.0884 146.6721 904.6062 147.3086 905.9581 163.9299 906.1886 163.9976 901.1447 185.5534 901.4033 184.9385 944.2857 185.2726 945.0341 184.5288 1001.1168 173.8014 1000.9854 115.4227 1000.0386 89.5626 999.5435 79.4914 999.3382 14.4933 997.8432 14.4935 997.8334 1 997.4081 1.2596 979.8429 1.2608 979.3355 1.1662 976.7412 1.4717 970.695 1.4867 968.1368 1.6945 963.1005 2.0474 950.8361 2.2096 940.8604 2.213 940.7281 2.2837 939.0266 2.2863 938.926 2.6554 923.5817 2.6568 923.5269 2.9225 914.081 2.882 911.4133 3.0623 903.2678 3.1496 899.3268 3.2055 897.2321 3.2753 894.2889 3.2829 894.1703 3.621 879.2199 3.7596 876.829 Z" id="fips-49053"/>
<path d="M 248.6102 687.9502 250.5192 688.2614 250.5845 682.4331 253.438 682.4468 253.5709 673.659 255.0149 673.6665 256.4987 667.8408 259.3927 666.3981 273.5775 665.999 273.5514 667.4195 280.828 667.5639 280.8402 666.1422 285.1594 665.4811 285.1654 662.5552 289.3637 661.8808 292.3089 658.262 295.1693 657.4624 293.6534 650.1393 293.7363 635.4588 294.3888 630.0125 299.9735 630.0497 300.0016 627.1224 302.6302 627.3036 303.0035 621.8111 305.8927 621.752 305.7427 615.9674 308.5225 615.9864 308.5737 611.2243 319.2409 611.2766 319.1895 605.4599 320.6353 604.0186 326.4523 603.9988 327.2397 594.0942 352.7044 594.1601 352.17 596.6736 360.0669 596.6413 438.0943 596.7413 438.2864 599.6351 438.4098 668.6131 437.1824 668.6175 437.5158 700.9958 367.1013 701.0978 365.5226 702.6741 319.3329 702.5729 319.3142 700.8996 309.375 700.518 296.9524 700.4411 248.0093 700.4109 247.398 698.2223 248.2168 697.3362 248.6102 687.9502 Z" id="fips-49041"/>
<path d="M 384.9292 440.9735 396.5587 440.9749 445.4326 440.8001 445.5478 462.501 445.7081 509.8568 437.5137 509.8838 437.5465 518.7973 437.5725 538.5987 437.8321 544.3693 438.0943 596.7413 360.0669 596.6413 352.17 596.6736 352.7044 594.1601 327.2397 594.0942 327.2405 576.7015 327.155 540.3687 327.2023 535.9154 336.1146 535.9514 336.0311 530.1028 341.7552 529.9752 341.6572 527.0337 368.7213 526.8556 368.6749 520.0242 368.6301 511.4142 373.951 511.3752 373.9531 493.8392 373.6719 476.093 373.3263 464.5949 377.6288 464.4631 377.6123 461.4421 384.8283 458.4871 384.8432 455.5855 393.7131 455.4918 393.6901 446.687 387.9117 446.774 387.9706 443.8453 384.9123 443.8798 384.9292 440.9735 Z" id="fips-49039"/>
<path d="M 404.7657 4.4959 404.8438 4.4957 410.1686 4.4418 416.9715 4.2065 417.6596 4.2141 418.4053 4.2211 473.1881 3.8002 473.5711 48.0609 473.9153 87.9331 473.9398 90.7812 474.1333 128.2643 474.1069 131.6649 474.2171 146.6196 474.2671 153.4128 474.2673 153.4306 471.6613 153.6856 469.9158 155.1226 466.0687 162.2481 464.749 160.8699 461.308 162.4542 461.8874 164.286 459.0053 167.1855 450.8787 171.1008 446.4089 175.2941 441.5732 175.0838 444.9172 170.9787 447.4141 165.6819 446.5233 163.3641 447.9982 160.8687 443.4556 161.002 443.2182 158.1717 439.0489 158.9427 440.7872 156.5819 439.6146 154.7767 439.6062 148.4828 441.976 146.5633 441.9118 144.6185 437.3152 142.0977 436.9208 137.9961 432.0631 134.8866 431.3435 132.5285 426.0822 131.7144 423.4868 129.2558 418.034 131.8042 414.2532 130.7431 409.498 127.2258 409.8071 124.1282 404.9566 121.348 404.5077 119.5014 406.0025 111.2476 407.6307 110.8587 409.8505 105.1621 409.3825 103.3627 412.6201 99.9639 412.5272 97.7124 414.6199 97.8771 414.2789 95.2896 416.0808 93.431 416.8449 88.4803 416.534 80.5474 419.3916 78.6955 418.4962 76.3392 420.6546 72.4176 417.0912 68.8623 417.9042 59.3121 414.6474 57.033 414.4173 49.9241 412.7539 48.358 412.8492 43.5342 410.873 39.5723 404.8055 33.806 406.9055 26.912 404.2027 22.7698 409.1734 21.809 410.2084 18.7209 409.9157 14.8636 408.2543 9.3096 404.787 6.9196 404.7657 4.4959 Z" id="fips-49033"/>
<path d="M 9.1075 683.6138 143.1326 686.6001 143.2364 686.5347 165.5978 686.9653 234.8599 687.8352 248.6102 687.9502 248.2168 697.3362 247.398 698.2223 248.0093 700.4109 249.2696 704.8229 247.7917 706.5011 250.6379 709.4315 251.8263 712.1853 254.0329 712.9196 258.1002 716.7133 259.4568 721.4346 262.3607 721.2298 263.7095 718.7034 265.8955 719.5015 265.7427 723.6622 267.6305 726.486 269.389 726.6605 272.1257 731.2895 275.1103 733.2187 276.3581 736.1113 275.7834 740.2951 274.2452 741.6729 273.8825 746.2811 269.6945 751.7336 269.2553 753.7185 272.7833 757.675 271.5499 759.5757 266.8094 761.362 262.1817 766.3226 262.4523 768.3456 259.0011 772.4733 254.4091 772.6608 253.5847 772.9406 131.5305 771.0474 6.9509 768.2838 7.4361 748.0858 7.6251 745.1469 8.2384 717.2341 8.2437 717.2068 8.6763 698.1872 9.0056 689.4416 9.0219 688.6471 9.1072 683.6247 9.1075 683.6138 Z" id="fips-49001"/>
<path d="M 640.3302 439.9059 638.4608 338.8409 637.762 301.6183 636.5934 239.5921 641.9353 242.4212 645.3896 243.1796 646.6506 245.0577 648.7268 244.8923 652.823 248.4368 658.258 247.4472 658.5676 245.9456 664.9114 244.5136 668.6951 244.3792 670.4475 240.2855 674.1582 241.7689 675.3681 240.3806 679.4432 240.2841 681.9232 241.6335 688.5733 237.3319 693.0708 237.3493 696.3088 235.2246 697.6868 237.575 704.6254 234.8263 706.9005 241.1307 705.8233 243.6026 706.8602 249.7329 711.2657 251.8286 713.392 248.8377 718.4355 248.137 718.6589 244.2951 724.592 241.3974 724.2422 228.0004 753.0998 227.2004 753.6404 241.6812 759.5203 241.4921 759.846 244.3598 760.4565 261.864 766.1418 261.6438 766.2656 265.9826 777.6296 265.6145 777.7017 267.4115 777.9362 274.2692 778.0947 290.0177 778.1154 290.1084 778.2383 298.0818 778.3253 299.0521 778.5283 309.1777 779.8274 353.4275 780.0717 361.7697 780.0769 361.7969 780.8055 385.9728 780.8002 386.1056 781.9122 422.8186 783.0926 465.6345 783.9842 498.1249 781.2077 498.5502 780.6451 497.7948 780.1245 499.9362 778.4416 499.3565 777.288 503.5324 775.6258 505.5 645.2039 507.1128 634.3232 507.314 635.6857 502.8278 634.471 501.1805 633.6451 496.4165 630.3561 494.6266 632.7115 493.816 633.3303 490.5368 631.8181 487.9065 634.6656 484.2405 633.0761 481.0966 635.7057 476.1936 637.818 475.9403 635.723 473.8742 635.7457 471.8971 637.9803 471.8247 639.7113 468.2979 638.8506 464.2455 636.6269 464.6474 638.1179 460.6077 641.3894 459.8837 638.3134 453.323 642.1097 452.5535 643.1246 456.3883 644.8006 457.1071 644.0855 454.2865 645.7742 450.9013 647.8323 451.0019 649.0417 446.1501 647.5168 441.8062 649.2391 443.7391 652.6059 443.1367 655.6367 444.2178 656.0654 442.8982 653.5441 441.3469 654.7028 439.6302 640.3302 439.9059 Z" id="fips-49047"/>
<path d="M 632.2123 202.2056 632.3435 202.2076 636.0032 202.0238 654.1163 201.7343 654.2663 201.722 675.1858 201.1829 675.4162 201.163 681.0573 201.0148 701.0486 200.6092 702.3698 200.5814 707.5205 200.263 745.1514 198.9373 747.9688 198.6523 756.754 198.6533 775.3649 198.169 776.6478 232.9951 777.2138 255.2505 777.6296 265.6145 766.2656 265.9826 766.1418 261.6438 760.4565 261.864 759.846 244.3598 759.5203 241.4921 753.6404 241.6812 753.0998 227.2004 724.2422 228.0004 724.592 241.3974 718.6589 244.2951 718.4355 248.137 713.392 248.8377 711.2657 251.8286 706.8602 249.7329 705.8233 243.6026 706.9005 241.1307 704.6254 234.8263 697.6868 237.575 696.3088 235.2246 693.0708 237.3493 688.5733 237.3319 681.9232 241.6335 679.4432 240.2841 675.3681 240.3806 674.1582 241.7689 670.4475 240.2855 668.6951 244.3792 664.9114 244.5136 658.5676 245.9456 658.258 247.4472 652.823 248.4368 648.7268 244.8923 646.6506 245.0577 645.3896 243.1796 641.9353 242.4212 636.5934 239.5921 634.8699 240.037 632.9058 238.8632 632.2123 202.2056 Z" id="fips-49009"/>
<path d="M 304.2523 310.1271 306.2044 311.3408 308.7775 309.49 312.8124 313.3183 313.455 315.7963 316.2818 314.0309 320.3819 314.3139 324.7119 310.7163 325.7171 313.5309 329.4828 318.3061 333.1876 320.8133 338.6194 318.7599 341.179 316.7464 342.7856 315.0597 343.5795 313.224 343.6201 313.2155 343.6735 313.1991 344.5254 313.025 348.2669 309.3925 355.3932 308.7299 359.0922 306.0699 360.4979 305.0276 362.7578 301.0136 366.6282 297.9291 370.3994 298.1507 373.0119 298.7451 376.3814 296.6414 378.4279 297.5244 383.6449 293.5671 385.5186 290.2039 390.386 290.9151 392.1849 288.3867 396.1673 294.3438 394.4455 303.6998 395.0703 306.4604 388.0961 313.8266 389.5011 317.457 389.7012 317.5612 391.3505 316.7959 397.3594 326.175 398.1002 330.455 409.5009 331.2681 415.9825 339.3384 413.05 343.5254 415.1485 345.6888 425.6717 344.2182 427.7452 345.884 435.1983 346.3094 442.4038 355.0925 441.1127 359.1846 443.4543 363.9689 448.4635 370.0408 448.4375 374.5747 449.1248 378.5798 445.9674 386.312 446.9462 389.6581 444.9294 392.442 445.4152 393.9875 448.4076 396.3243 451.5962 393.9776 454.6355 399.4958 457.4322 402.7297 457.4836 405.2843 461.2538 405.9827 463.3209 409.2671 464.914 409.7218 463.0981 413.8778 465.0736 414.6474 470.4874 414.6712 470.6354 423.2652 499.8637 423.1488 505.073 423.0932 505.2068 440.3495 471.2678 440.4395 471.2701 440.8183 445.4326 440.8001 396.5587 440.9749 384.9292 440.9735 365.8702 441.4163 368.6085 436.72 370.2153 430.7381 367.167 428.2398 367.3094 425.8009 363.6476 423.3976 361.5137 417.3372 359.0239 415.6201 356.8568 414.0272 356.0585 415.4366 355.6145 418.7452 351.6827 420.597 350.5746 422.3897 348.2237 422.0538 344.853 423.8887 339.6836 432.4211 336.5934 436.1113 334.6869 442.0408 331.5568 441.1935 325.2987 447.1873 322.7388 448.0365 316.197 446.9925 318.2346 443.3313 319.9587 437.4663 318.4957 435.4685 317.5991 430.3948 320.996 427.3554 321.8711 424.76 317.6392 420.7971 317.0396 418.3288 314.2341 417.6616 314.4428 411.6481 313.3187 408.6651 309.9262 407.9829 305.6803 402.0434 302.6616 401.0482 303.8896 395.4986 302.1381 391.4608 306.2182 383.8355 307.1889 381.9762 303.356 377.0845 304.6326 374.0072 303.7155 372.5742 308.2682 368.8267 306.8936 367.0272 307.6337 364.3317 305.8259 363.6095 307.5176 361.0712 304.554 359.5307 302.9373 357.005 302.9871 353.5702 301.1618 350.7274 301.9656 346.0939 300.1455 342.0785 300.5296 338.3315 303.6927 336.3246 300.9129 331.5101 301.7274 328.9956 300.1523 326.9781 300.8837 319.2694 298.6337 317.0245 298.1053 312.4779 301.6096 309.8217 304.2523 310.1271 Z" id="fips-49049"/>
<path d="M 445.4326 440.8001 471.2701 440.8183 471.2678 440.4395 505.2068 440.3495 556.7188 440.1224 557.3039 441.1026 640.3302 439.9059 654.7028 439.6302 653.5441 441.3469 656.0654 442.8982 655.6367 444.2178 652.6059 443.1367 649.2391 443.7391 647.5168 441.8062 649.0417 446.1501 647.8323 451.0019 645.7742 450.9013 644.0855 454.2865 644.8006 457.1071 643.1246 456.3883 642.1097 452.5535 638.3134 453.323 641.3894 459.8837 638.1179 460.6077 636.6269 464.6474 638.8506 464.2455 639.7113 468.2979 637.9803 471.8247 635.7457 471.8971 635.723 473.8742 637.818 475.9403 635.7057 476.1936 633.0761 481.0966 634.6656 484.2405 631.8181 487.9065 633.3303 490.5368 632.7115 493.816 630.3561 494.6266 633.6451 496.4165 634.471 501.1805 635.6857 502.8278 634.3232 507.314 634.2993 507.3143 561.3681 508.3678 471.942 509.2055 471.361 509.6661 472.3546 504.9298 471.44 503.9801 470.6735 498.8737 467.3864 493.9018 465.8644 492.8406 465.3985 488.9222 463.3618 480.4929 459.2294 484.0793 455.0311 479.3994 452.7182 471.9481 449.5319 468.2775 449.504 464.9617 445.5478 462.501 445.4326 440.8001 Z" id="fips-49007"/>
<path d="M 185.5534 901.4033 185.6415 892.7286 220.0584 893.1201 271.1235 893.724 302.1907 895.1894 353.1368 895.6003 357.6837 894.7991 484.7294 894.3772 486.5296 894.2505 542.6245 893.676 541.9791 894.869 540.1635 897.4424 539.5604 901.1612 539.3903 902.1726 540.5073 903.115 542.3144 903.101 543.4051 903.5335 543.6484 904.7717 542.6808 905.1657 540.2399 906.2526 534.8135 905.6317 531.3281 905.7082 530.2982 907.5577 530.2978 908.8724 529.6662 910.3525 528.5197 910.188 527.3575 909.9884 526.7646 910.6544 526.8167 911.1233 528.4033 912.8836 531.1671 915.0108 533.2716 914.5698 534.3347 916.1766 533.7805 917.5678 533.2509 919.5591 532.6673 920.7035 530.6346 922.0818 528.6566 920.9486 527.2721 920.4994 525.9147 921.5323 526.1495 922.5265 527.6335 924.5006 529.0499 925.8021 530.2238 926.7722 530.5428 928.6791 529.2864 929.9107 529.0312 931.6979 527.8382 933.0871 527.0982 932.0767 525.7733 932.6758 525.7044 934.1651 524.8253 935.4468 523.4765 935.8281 521.1616 937.2644 517.3202 937.4606 514.8918 935.8067 512.6578 934.5299 509.657 932.4586 507.7632 932.285 507.1512 934.8583 508.3901 936.7953 510.6897 937.3234 512.1823 938.2742 512.9119 940.0159 511.76 943.2434 508.4208 944.0283 508.424 948.4378 508.996 950.2666 507.5515 951.0495 506.1523 951.4092 505.3459 951.8823 505.8548 953.6236 506.6289 954.8323 506.8875 956.0833 505.9433 957.4809 504.5564 958.2427 503.8241 959.7875 504.5967 960.7848 504.3341 963.0326 503.2042 964.7158 503.2711 965.8018 502.6067 967.1198 501.6054 966.907 500.3322 966.4579 498.9584 967.6359 498.6997 969.0301 498.1836 971.2219 496.7775 972.5086 496.0197 972.2921 494.2412 972.333 494.6523 974.0924 494.5828 975.7512 493.8789 977.1732 492.2211 977.1865 491.2586 976.9047 490.3854 976.6349 489.7342 977.325 489.9545 977.9427 489.781 979.3999 488.5908 979.9874 487.1248 979.8783 484.5194 979.6045 480.3501 980.8757 478.9543 982.4537 477.6842 981.7113 477.1634 980.7806 475.5909 981.4003 474.2107 981.7022 470.4551 981.5508 468.6763 981.0389 466.878 981.6773 466.3875 982.9114 464.2763 984.5902 462.5211 983.1949 461.6594 981.8939 459.7137 981.6083 458.3714 982.4838 455.5985 987.0107 452.7163 990.9255 451.9917 991.2065 451.1744 990.4588 450.7778 989.4638 448.6848 989.5581 448.1528 991.2015 447.8351 992.624 449.1518 993.5143 449.7946 993.7368 450.2101 996.0826 449.4996 997.6135 447.2976 997.2031 446.7782 996.1379 445.3596 992.6502 442.4542 990.7482 440.9521 989.882 439.2292 989.1813 438.6893 990.0713 438.7182 991.977 440.3604 993.7483 441.9999 994.872 441.0355 995.6467 439.5905 996.3169 438.5312 998.1089 438.6993 999.808 436.865 999.7304 435.9103 998.5978 433.7952 999.075 431.5434 1002.2514 422.721 1002.189 422.6649 1002.1924 421.5621 1002.1961 270.8747 1001.9048 269.0799 1001.8708 242.0286 1001.7222 241.7439 1001.7203 240.9904 1001.7 238.7771 1001.6864 230.6747 1001.5911 195.6404 1001.2445 184.5288 1001.1168 185.2726 945.0341 184.9385 944.2857 185.5534 901.4033 Z" id="fips-49025"/>
<path d="M 9.6931 662.7781 9.9844 652.43 10.183 648.2923 10.7901 623.34 10.9432 623.0947 11.0288 622.5984 11.5302 597.2797 14.4502 498.5897 14.5772 490.0436 50.2754 490.6734 50.3199 488.9659 192.3497 491.6598 275.2358 492.314 296.5587 492.3979 299.4852 494.6632 300.0217 497.6616 297.1363 498.8053 298.5354 505.22 299.9761 505.2334 299.9479 509.5768 299.9023 514.1678 299.793 523.3928 299.7738 526.7667 300.4581 537.2753 318.5012 537.3095 318.4706 540.2592 327.155 540.3687 327.2405 576.7015 327.2397 594.0942 326.4523 603.9988 320.6353 604.0186 319.1895 605.4599 319.2409 611.2766 308.5737 611.2243 308.5225 615.9864 305.7427 615.9674 305.8927 621.752 303.0035 621.8111 302.6302 627.3036 300.0016 627.1224 299.9735 630.0497 294.3888 630.0125 293.7363 635.4588 293.6534 650.1393 295.1693 657.4624 292.3089 658.262 289.3637 661.8808 285.1654 662.5552 285.1594 665.4811 280.8402 666.1422 280.828 667.5639 273.5514 667.4195 273.5775 665.999 259.3927 666.3981 256.4987 667.8408 255.0149 673.6665 253.5709 673.659 253.438 682.4468 250.5845 682.4331 250.5192 688.2614 248.6102 687.9502 234.8599 687.8352 165.5978 686.9653 143.2364 686.5347 143.1326 686.6001 9.1075 683.6138 9.6931 662.7781 Z" id="fips-49027"/>
<path d="M 352.6573 176.1681 354.4087 179.6238 352.7493 181.8349 352.7005 182.9054 353.2942 190.6265 356.0208 196.5156 355.3156 199.3475 358.617 202.7933 359.4949 202.927 360.8227 205.4261 364.8112 212.0936 358.8484 211.9705 359.2367 213.7928 362.0736 217.8467 365.816 229.3954 370.276 231.7028 369.1801 231.8269 367.2562 233.4144 359.112 235.8617 355.2104 237.7041 350.2987 239.5142 343.455 239.4721 340.1909 239.4667 335.9691 232.9004 335.2006 228.5023 337.1016 221.3122 337.1035 219.4907 329.6399 219.6246 308.4115 234.4736 291.396 249.7497 256.7043 188.0315 263.0291 186.0035 303.0029 173.1845 319.3411 173.3352 327.2753 173.3812 327.8728 173.3824 335.409 173.4118 337.628 175.8176 344.2428 176.9955 345.8526 176.6671 351.9034 176.4802 352.6573 176.1681 Z" id="fips-49011"/>
<path d="M 253.5847 772.9406 254.4091 772.6608 259.0011 772.4733 319.1838 773.7562 336.3794 772.7209 353.3756 772.7269 386.038 772.7762 386.0416 772.995 420.7699 772.1668 534.8673 771.9208 654.0833 770.0422 654.1999 770.4563 653.1234 773.2314 649.5054 774.837 648.4435 777.8192 645.6456 779.3541 644.5911 780.482 643.7215 780.513 643.0282 779.7234 642.4278 778.9349 641.5256 778.7006 640.3249 779.4352 639.6336 780.4444 638.943 781.1561 638.5362 782.0298 638.0156 783.0453 637.1812 783.9221 636.4193 785.136 635.8747 786.1734 636.0583 787.5299 636.3133 788.5199 636.1677 790.0645 634.7614 790.9913 632.9651 792.4157 631.9901 794.6374 631.2918 797.1688 631.5444 800.2011 630.5656 801.4601 628.2398 801.6306 627.2168 800.722 625.8398 799.3847 624.1397 799.3083 622.3821 799.6645 621.3897 800.5595 621.0478 801.6408 619.5715 803.5131 618.7471 803.9701 617.7339 805.4338 617.3143 807.6535 616.0747 808.7635 614.3857 810.1118 613.029 811.0974 611.2559 812.8314 611.6945 815.8625 611.9589 818.8566 611.4487 820.6272 609.4 822.551 607.5261 822.0355 603.766 821.6527 602.0205 821.4357 600.1597 823.1511 599.7975 825.5456 599.9975 826.6259 598.8594 827.9934 597.9503 827.5583 597.4108 825.0659 596.4331 823.4681 592.7003 823.3062 589.6026 823.2475 585.7089 823.2229 582.5783 823.9344 580.2842 825.3212 580.2756 828.5172 580.3194 830.2175 579.6321 832.0194 578.0802 832.5586 575.5488 835.1515 575.2346 837.8634 573.4867 839.8719 571.2759 839.8743 570.2116 839.9189 569.0672 841.0261 569.4241 842.9367 569.8388 845.3658 570.8456 846.9658 573.2146 847.1578 575.068 846.4356 576.6698 846.8056 576.0135 847.7549 573.5429 851.3211 573.0252 854.975 570.308 858.5324 567.943 860.742 567.898 863.828 566.5745 868.0798 565.9732 869.8933 564.8912 871.3636 564.5761 871.1951 562.4982 871.0042 561.0247 873.0985 557.6602 873.9741 555.4688 874.9116 555.148 877.3105 554.2466 879.3528 551.6526 880.2721 549.7497 883.6967 549.3306 887.5712 545.4065 890.1038 543.2738 892.6635 542.6245 893.676 486.5296 894.2505 484.7294 894.3772 357.6837 894.7991 353.1368 895.6003 302.1907 895.1894 271.1235 893.724 220.0584 893.1201 220.121 858.4588 219.613 856.2455 219.7685 840.8373 227 840.6963 237.2248 841.2357 237.402 825.7447 235.8418 824.0765 254.7862 824.2511 255.1285 806.8468 253.24 806.8261 253.5847 772.9406 Z" id="fips-49017"/>
<path d="M 315.4797 4.7283 329.914 4.643 339.8862 4.655 344.2114 4.6579 344.2433 4.6626 350.0504 4.6716 368.7065 4.5441 370.3503 4.544 404.7633 4.4959 404.7657 4.4959 404.787 6.9196 408.2543 9.3096 409.9157 14.8636 410.2084 18.7209 409.1734 21.809 404.2027 22.7698 406.9055 26.912 404.8055 33.806 410.873 39.5723 412.8492 43.5342 412.7539 48.358 414.4173 49.9241 414.6474 57.033 417.9042 59.3121 417.0912 68.8623 420.6546 72.4176 418.4962 76.3392 419.3916 78.6955 416.534 80.5474 416.8449 88.4803 416.0808 93.431 414.2789 95.2896 414.6199 97.8771 412.5272 97.7124 412.6201 99.9639 409.3825 103.3627 409.8505 105.1621 407.6307 110.8587 406.0025 111.2476 404.5077 119.5014 399.6369 123.0482 398.0383 119.4454 394.8282 118.3813 393.5752 120.4493 388.3817 119.6681 383.2746 122.5736 381.1885 118.3754 376.7092 120.7202 372.9947 118.6594 375.2056 123.16 372.1514 127.1079 372.2064 128.9513 367.098 130.3425 361.5858 125.6457 359.0847 126.51 350.94 124.3914 348.4179 118.8221 349.0064 115.8674 343.7751 112.0245 344.2905 110.1594 349.5255 109.2318 350.2637 106.9794 348.5824 104.8904 345.5362 104.7666 344.2671 97.8109 339.4223 93.5225 334.1849 97.2784 331.8769 92.5897 332.257 90.8844 330.4495 85.6139 330.5352 77.7553 329.4541 76.9741 328.741 71.638 323.7498 64.1565 325.1125 62.0621 325.2205 56.4657 328.2829 48.4357 330.2744 45.2834 327.0339 42.196 326.2508 38.7343 326.2141 38.7302 326.1057 38.7327 326.0644 38.7287 326.0247 38.7154 325.144 36.6975 323.8774 31.1978 318.9393 23.554 313.5521 18.568 311.0973 11.3472 309.2997 10.0887 307.2749 4.8646 307.3889 4.8629 315.4664 4.7283 315.4797 4.7283 Z" id="fips-49005"/>
<path d="M 634.2993 507.3143 634.3232 507.314 645.2039 507.1128 775.6258 505.5 777.288 503.5324 778.4416 499.3565 780.1245 499.9362 780.6451 497.7948 781.2077 498.5502 783.9842 498.1249 783.9844 498.1308 784.8318 524.2759 786.0979 572.3008 786.6759 597.4771 786.8689 608.8797 786.8804 608.9614 787.0047 616.3858 786.987 616.5601 787.1163 622.4354 787.0711 638.3235 787.1643 653.4164 787.7347 677.4826 788.3401 697.3087 723.4815 699.0297 637.5671 700.8371 637.4591 700.712 635.7316 700.0902 634.3135 698.7151 634.536 697.7623 636.6432 697.5193 639.2971 697.3733 641.3507 696.4138 641.8923 694.7345 640.7158 693.3156 641.7806 690.3209 642.9113 689.0787 642.9422 687.5888 641.4325 687.2499 640.7763 687.6475 638.4044 687.8914 636.7032 685.8908 634.3987 685.4933 633.0396 685.3556 632.5043 683.7313 634.0979 681.7359 637.1856 680.8769 638.397 682.8612 639.8517 683.4151 641.7771 681.7962 641.6895 679.6598 641.18 677.4242 638.2353 677.5336 635.1896 679.1064 633.0038 679.9183 631.0013 679.2994 633.1784 677.8223 633.5021 673.3934 634.798 671.585 635.3348 669.9999 633.5587 670.7028 631.8662 670.476 630.4305 669.6398 630.1061 667.9921 630.2407 667.4569 628.0036 667.3603 626.4288 667.0391 627.0663 666.281 626.1914 664.0041 626.1754 661.3077 627.2885 659.9227 623.9259 659.2138 621.8337 658.8848 623.0311 658.7136 623.7947 656.9693 624.1891 653.1669 627.0918 650.8528 626.8288 648.0648 625.0884 646.3095 622.7781 644.6677 621.941 643.3553 622.2172 641.9703 622.9744 641.7482 624.0246 639.7443 623.4079 638.1029 621.3522 636.1628 621.4964 634.8776 620.1844 634.3922 619.0584 634.3085 618.008 631.5883 619.1037 629.1125 615.303 623.7604 615.9193 616.1126 617.7247 609.9374 617.9378 608.1773 616.6622 606.9551 616.4788 606.4852 616.4715 605.3811 623.3884 604.5468 623.4024 605.2633 629.0806 605.3271 629.128 608.2291 632.0193 608.1772 633.5152 611.0505 639.2922 610.9502 639.2406 608.0483 636.3523 608.0998 636.3047 605.2007 633.4146 605.2519 633.3643 602.3487 630.4993 603.8512 624.8315 603.9483 624.7813 600.8698 618.9515 600.9572 616.441 601.8978 618.313 600.4913 615.8329 598.4295 617.8795 596.2516 615.3868 594.8421 617.8393 589.8091 616.9244 585.8871 617.8861 583.5732 621.166 582.0928 622.3847 578.6824 621.5116 577.1211 623.8415 574.0042 621.1949 570.7965 623.8756 567.5097 622.7869 565.6397 623.7594 563.374 626.8285 562.5171 627.6422 561.004 626.8698 555.9941 630.4597 555.513 628.9917 551.2084 629.4005 548.5383 626.784 546.0738 628.2573 542.4606 630.9618 541.0702 629.4102 539.7185 630.098 535.1992 631.101 536.0753 633.1969 531.3608 635.024 530.7187 634.4764 525.6383 636.5726 517.8477 634.5716 516.5315 634.558 511.8976 635.5061 509.751 634.2993 507.3143 Z" id="fips-49019"/>
<path d="M 291.396 249.7497 308.4115 234.4736 329.6399 219.6246 337.1035 219.4907 337.1016 221.3122 335.2006 228.5023 335.9691 232.9004 340.1909 239.4667 343.455 239.4721 350.2987 239.5142 355.2104 237.7041 359.112 235.8617 367.2562 233.4144 369.1801 231.8269 370.276 231.7028 375.1096 233.3482 381.5646 233.8651 381.2421 237.4754 384.3364 239.0817 385.032 244.0993 383.8115 249.1863 387.6913 253.1726 387.695 257.5108 390.3071 261.2792 391.1903 262.1533 392.3517 264.0201 390.5865 270.5287 391.75 271.8767 394.5543 275.005 398.3467 281.9433 396.7225 286.8155 392.1849 288.3867 390.386 290.9151 385.5186 290.2039 383.6449 293.5671 378.4279 297.5244 376.3814 296.6414 373.0119 298.7451 370.3994 298.1507 366.6282 297.9291 362.7578 301.0136 360.4979 305.0276 359.0922 306.0699 355.3932 308.7299 348.2669 309.3925 344.5254 313.025 343.6735 313.1991 343.6201 313.2155 343.5795 313.224 342.7856 315.0597 341.179 316.7464 338.6194 318.7599 333.1876 320.8133 329.4828 318.3061 325.7171 313.5309 324.7119 310.7163 320.3819 314.3139 316.2818 314.0309 313.455 315.7963 312.8124 313.3183 308.7775 309.49 306.2044 311.3408 304.2523 310.1271 304.4539 309.3063 303.5962 306.6234 302.0625 300.7847 303.4204 299.2004 303.0796 287.4965 304.0373 282.7908 300.8762 277.7095 299.2745 260.4549 296.8015 259.0046 296.6659 258.8776 295.8839 257.8183 291.396 249.7497 Z" id="fips-49035"/>
<path d="M 17.8011 375.4329 18.4998 352.4743 19.3921 319.2742 19.5887 313.9847 19.7105 312.8976 20.0117 300.085 20.01 299.8199 20.1132 297.6687 21.5722 253.8296 21.6987 247.3678 21.7058 247.2604 21.8683 244.7744 23.2658 199.2382 149.8521 201.9853 210.4708 202.8851 256.7043 188.0315 291.396 249.7497 295.8839 257.8183 296.6659 258.8776 296.8015 259.0046 299.2745 260.4549 300.8762 277.7095 304.0373 282.7908 303.0796 287.4965 303.4204 299.2004 302.0625 300.7847 303.5962 306.6234 304.4539 309.3063 304.2523 310.1271 301.6096 309.8217 298.1053 312.4779 298.6337 317.0245 300.8837 319.2694 300.1523 326.9781 301.7274 328.9956 300.9129 331.5101 303.6927 336.3246 300.5296 338.3315 300.1455 342.0785 301.9656 346.0939 301.1618 350.7274 302.9871 353.5702 302.9373 357.005 304.554 359.5307 307.5176 361.0712 305.8259 363.6095 307.6337 364.3317 306.8936 367.0272 308.2682 368.8267 303.7155 372.5742 304.6326 374.0072 303.356 377.0845 307.1889 381.9762 306.2182 383.8355 302.1381 391.4608 303.8896 395.4986 302.6616 401.0482 295.8941 405.5335 293.9523 411.1941 288.7849 415.4795 283.8974 415.9247 282.797 413.5606 280.6786 414.3438 279.2504 412.6475 278.0911 414.3644 278.733 418.5427 277.6927 422.2867 138.8591 420.4861 16.6031 417.5152 17.1772 399.393 17.3124 392.7586 17.7442 379.2343 17.724 377.9684 17.8011 375.4329 Z" id="fips-49045"/>
<path d="M 365.5226 702.6741 367.1013 701.0978 437.5158 700.9958 437.5179 703.0266 556.2289 702.0708 637.5671 700.8371 641.3148 704.713 639.8513 711.2463 636.2875 708.8616 634.7423 710.3449 637.51 711.3444 641.3073 717.5036 636.9454 723.8182 639.8896 724.6788 639.6536 727.8336 641.8928 726.5932 645.2764 722.855 646.1046 725.4361 644.5022 727.8605 644.7438 730.3584 648.4266 732.4662 649.5012 729.701 651.2713 730.505 649.8631 733.1898 647.583 734.7272 648.3226 737.128 650.6567 739.1722 650.4543 742.7177 652.9668 743.6311 652.5636 746.988 653.9306 748.4532 656.4961 746.1639 657.7376 749.1898 655.4445 751.0792 658.0084 751.8032 659.8877 754.0365 655.1848 755.4642 655.4949 757.3453 660.1471 758.8225 657.7965 761.774 660.6712 762.7493 653.5695 768.8207 654.0833 770.0422 534.8673 771.9208 420.7699 772.1668 386.0416 772.995 386.038 772.7762 353.3756 772.7269 352.6184 718.0888 354.4236 717.3723 356.5712 711.6504 365.5226 702.6741 Z" id="fips-49055"/>
<path d="M 16.6031 417.5152 138.8591 420.4861 277.6927 422.2867 278.733 418.5427 278.0911 414.3644 279.2504 412.6475 280.6786 414.3438 282.797 413.5606 283.8974 415.9247 288.7849 415.4795 293.9523 411.1941 295.8941 405.5335 302.6616 401.0482 305.6803 402.0434 309.9262 407.9829 313.3187 408.6651 314.4428 411.6481 314.2341 417.6616 317.0396 418.3288 317.6392 420.7971 321.8711 424.76 320.996 427.3554 317.5991 430.3948 318.4957 435.4685 319.9587 437.4663 318.2346 443.3313 316.197 446.9925 322.7388 448.0365 325.2987 447.1873 331.5568 441.1935 334.6869 442.0408 336.5934 436.1113 339.6836 432.4211 344.853 423.8887 348.2237 422.0538 350.5746 422.3897 351.6827 420.597 355.6145 418.7452 356.0585 415.4366 356.8568 414.0272 359.0239 415.6201 361.5137 417.3372 363.6476 423.3976 367.3094 425.8009 367.167 428.2398 370.2153 430.7381 368.6085 436.72 365.8702 441.4163 384.9292 440.9735 384.9123 443.8798 387.9706 443.8453 387.9117 446.774 393.6901 446.687 393.7131 455.4918 384.8432 455.5855 384.8283 458.4871 377.6123 461.4421 377.6288 464.4631 373.3263 464.5949 373.6719 476.093 373.9531 493.8392 373.951 511.3752 368.6301 511.4142 368.6749 520.0242 368.7213 526.8556 341.6572 527.0337 341.7552 529.9752 336.0311 530.1028 336.1146 535.9514 327.2023 535.9154 327.155 540.3687 318.4706 540.2592 318.5012 537.3095 300.4581 537.2753 299.7738 526.7667 299.793 523.3928 299.9023 514.1678 299.9479 509.5768 299.9761 505.2334 298.5354 505.22 297.1363 498.8053 300.0217 497.6616 299.4852 494.6632 296.5587 492.3979 275.2358 492.314 192.3497 491.6598 50.3199 488.9659 50.2754 490.6734 14.5772 490.0436 15.799 446.7945 15.906 439.8565 16.1365 434.4964 16.6027 417.5273 16.6031 417.5152 Z" id="fips-49023"/>
<path d="M 418.034 131.8042 423.4868 129.2558 426.0822 131.7144 431.3435 132.5285 432.0631 134.8866 436.9208 137.9961 437.3152 142.0977 441.9118 144.6185 441.976 146.5633 439.6062 148.4828 439.6146 154.7767 440.7872 156.5819 439.0489 158.9427 443.2182 158.1717 443.4556 161.002 447.9982 160.8687 446.5233 163.3641 447.4141 165.6819 444.9172 170.9787 441.5732 175.0838 437.8533 175.2565 434.7833 177.8174 431.4401 176.31 429.431 178.1899 426.2999 177.9408 424.6467 182.3774 424.2441 186.4839 420.0386 188.9519 414.305 187.5315 410.1794 191.1129 405.1292 191.3219 401.7595 193.4149 397.9497 197.5787 396.2406 203.8587 393.3945 204.6814 392.1972 205.631 393.0209 210.7721 394.5949 212.2661 402.5446 213.1611 401.9664 220.096 404.0627 220.5352 404.8447 224.348 408.4178 229.2637 409.405 232.1736 408.103 233.0317 406.3334 237.4722 403.7898 239.9988 404.7122 241.7943 403.4202 245.5283 398.1244 247.8791 393.0681 245.1412 392.111 242.8834 389.5685 241.676 385.032 244.0993 384.3364 239.0817 381.2421 237.4754 381.5646 233.8651 375.1096 233.3482 370.276 231.7028 365.816 229.3954 362.0736 217.8467 359.2367 213.7928 358.8484 211.9705 364.8112 212.0936 360.8227 205.4261 359.4949 202.927 358.617 202.7933 355.3156 199.3475 356.0208 196.5156 353.2942 190.6265 352.7005 182.9054 352.7493 181.8349 354.4087 179.6238 352.6573 176.1681 352.9183 173.0872 349.6125 170.0414 350.173 166.4889 352.3895 164.489 358.4984 163.0817 361.1703 160.5976 368.7897 161.1338 369.3689 163.3444 369.8161 163.475 370.1725 163.7048 370.5822 163.7804 371.1893 164.2755 371.2592 164.4794 371.6345 164.6311 371.9355 164.5865 372.2168 165.3531 372.4369 165.3463 372.927 165.7225 373.175 166.136 373.3822 166.2287 373.5028 166.527 379.4633 167.7933 382.376 166.8936 385.1214 164.2531 387.5363 163.9678 389.3846 162.1337 389.7929 158.2091 391.6742 156.3457 397.2275 156.0042 400.9033 156.8099 402.2774 158.2906 406.6245 158.6523 407.0283 155.7876 409.5644 154.9947 412.4964 149.3288 415.1653 146.1251 413.7654 140.8728 415.5588 139.2988 415.4342 136.4413 417.1512 135.505 418.034 131.8042 Z" id="fips-49029"/>
<path d="M 28.8022 1 35.8877 1.3891 50.7884 2.6925 61.3355 2.8652 65.2069 2.8328 69.8885 2.872 109.0176 3.0614 109.656 2.9735 119.2979 3.0678 123.6507 3.0804 124.5015 3.0791 130.2685 3.2669 132.8738 3.1385 146.1162 3.2065 146.3661 3.0926 183.2154 3.2885 183.3312 3.2899 186.4206 3.3278 196.7529 3.3697 200.7918 3.399 201.0512 3.4027 208.0989 3.4117 208.1049 3.4198 214.7145 3.4292 226.4622 3.446 235.5659 3.5493 264.8282 3.7096 264.8651 3.6822 274.4205 3.756 292.4097 3.9161 296.2427 3.8963 303.0879 3.9486 305.9944 4.883 307.2749 4.8646 309.2997 10.0887 311.0973 11.3472 313.5521 18.568 318.9393 23.554 323.8774 31.1978 325.144 36.6975 326.0247 38.7154 326.0644 38.7287 326.1057 38.7327 326.2141 38.7302 326.2508 38.7343 327.0339 42.196 330.2744 45.2834 328.2829 48.4357 325.2205 56.4657 325.1125 62.0621 323.7498 64.1565 328.741 71.638 329.4541 76.9741 330.5352 77.7553 330.4495 85.6139 332.257 90.8844 331.8769 92.5897 334.1849 97.2784 339.4223 93.5225 344.2671 97.8109 345.5362 104.7666 348.5824 104.8904 350.2637 106.9794 349.5255 109.2318 344.2905 110.1594 343.7751 112.0245 349.0064 115.8674 348.4179 118.8221 343.557 121.5886 336.9328 118.5419 335.3988 120.0369 336.1091 125.0192 334.9274 128.3563 336.7255 130.9378 327.7118 135.3715 326.9538 136.6592 326.0307 136.6725 295.5014 136.51 280.1056 156.9198 280.0849 156.9479 256.7043 188.0315 210.4708 202.8851 149.8521 201.9853 23.2658 199.2382 23.266 199.2324 24.5066 157.7693 24.3579 157.1323 24.581 155.3343 26.2472 101.1304 26.1862 99.4857 26.8979 76.4581 27.0205 74.5566 27.7423 48.8558 28.0923 29.5431 28.0988 29.5477 28.5055 22.7246 28.8022 1 Z" id="fips-49003"/>
<path d="M 438.0943 596.7413 437.8321 544.3693 437.5725 538.5987 437.5465 518.7973 437.5137 509.8838 445.7081 509.8568 445.5478 462.501 449.504 464.9617 449.5319 468.2775 452.7182 471.9481 455.0311 479.3994 459.2294 484.0793 463.3618 480.4929 465.3985 488.9222 465.8644 492.8406 467.3864 493.9018 470.6735 498.8737 471.44 503.9801 472.3546 504.9298 471.361 509.6661 471.942 509.2055 561.3681 508.3678 634.2993 507.3143 635.5061 509.751 634.558 511.8976 634.5716 516.5315 636.5726 517.8477 634.4764 525.6383 635.024 530.7187 633.1969 531.3608 631.101 536.0753 630.098 535.1992 629.4102 539.7185 630.9618 541.0702 628.2573 542.4606 626.784 546.0738 629.4005 548.5383 628.9917 551.2084 630.4597 555.513 626.8698 555.9941 627.6422 561.004 626.8285 562.5171 623.7594 563.374 622.7869 565.6397 623.8756 567.5097 621.1949 570.7965 623.8415 574.0042 621.5116 577.1211 622.3847 578.6824 621.166 582.0928 617.8861 583.5732 616.9244 585.8871 617.8393 589.8091 615.3868 594.8421 617.8795 596.2516 615.8329 598.4295 618.313 600.4913 616.441 601.8978 618.9515 600.9572 624.7813 600.8698 624.8315 603.9483 630.4993 603.8512 633.3643 602.3487 633.4146 605.2519 636.3047 605.2007 636.3523 608.0998 639.2406 608.0483 639.2922 610.9502 633.5152 611.0505 632.0193 608.1772 629.128 608.2291 629.0806 605.3271 623.4024 605.2633 623.3884 604.5468 616.4715 605.3811 616.4788 606.4852 616.6622 606.9551 617.9378 608.1773 617.7247 609.9374 615.9193 616.1126 615.303 623.7604 619.1037 629.1125 618.008 631.5883 619.0584 634.3085 620.1844 634.3922 621.4964 634.8776 621.3522 636.1628 623.4079 638.1029 624.0246 639.7443 622.9744 641.7482 622.2172 641.9703 621.941 643.3553 622.7781 644.6677 625.0884 646.3095 626.8288 648.0648 627.0918 650.8528 624.1891 653.1669 623.7947 656.9693 623.0311 658.7136 621.8337 658.8848 623.9259 659.2138 627.2885 659.9227 626.1754 661.3077 626.1914 664.0041 627.0663 666.281 626.4288 667.0391 628.0036 667.3603 630.2407 667.4569 630.1061 667.9921 630.4305 669.6398 631.8662 670.476 633.5587 670.7028 635.3348 669.9999 634.798 671.585 633.5021 673.3934 633.1784 677.8223 631.0013 679.2994 633.0038 679.9183 635.1896 679.1064 638.2353 677.5336 641.18 677.4242 641.6895 679.6598 641.7771 681.7962 639.8517 683.4151 638.397 682.8612 637.1856 680.8769 634.0979 681.7359 632.5043 683.7313 633.0396 685.3556 634.3987 685.4933 636.7032 685.8908 638.4044 687.8914 640.7763 687.6475 641.4325 687.2499 642.9422 687.5888 642.9113 689.0787 641.7806 690.3209 640.7158 693.3156 641.8923 694.7345 641.3507 696.4138 639.2971 697.3733 636.6432 697.5193 634.536 697.7623 634.3135 698.7151 635.7316 700.0902 637.4591 700.712 637.5671 700.8371 556.2289 702.0708 437.5179 703.0266 437.5158 700.9958 437.1824 668.6175 438.4098 668.6131 438.2864 599.6351 438.0943 596.7413 Z" id="fips-49015"/>
<path d="M 256.7043 188.0315 280.0849 156.9479 280.1056 156.9198 295.5014 136.51 326.0307 136.6725 326.9538 136.6592 327.7118 135.3715 336.7255 130.9378 334.9274 128.3563 336.1091 125.0192 335.3988 120.0369 336.9328 118.5419 343.557 121.5886 348.4179 118.8221 350.94 124.3914 359.0847 126.51 361.5858 125.6457 367.098 130.3425 372.2064 128.9513 372.1514 127.1079 375.2056 123.16 372.9947 118.6594 376.7092 120.7202 381.1885 118.3754 383.2746 122.5736 388.3817 119.6681 393.5752 120.4493 394.8282 118.3813 398.0383 119.4454 399.6369 123.0482 404.5077 119.5014 404.9566 121.348 409.8071 124.1282 409.498 127.2258 414.2532 130.7431 418.034 131.8042 417.1512 135.505 415.4342 136.4413 415.5588 139.2988 413.7654 140.8728 415.1653 146.1251 412.4964 149.3288 409.5644 154.9947 407.0283 155.7876 406.6245 158.6523 402.2774 158.2906 400.9033 156.8099 397.2275 156.0042 391.6742 156.3457 389.7929 158.2091 389.3846 162.1337 387.5363 163.9678 385.1214 164.2531 382.376 166.8936 379.4633 167.7933 373.5028 166.527 373.3822 166.2287 373.175 166.136 372.927 165.7225 372.4369 165.3463 372.2168 165.3531 371.9355 164.5865 371.6345 164.6311 371.2592 164.4794 371.1893 164.2755 370.5822 163.7804 370.1725 163.7048 369.8161 163.475 369.3689 163.3444 368.7897 161.1338 361.1703 160.5976 358.4984 163.0817 352.3895 164.489 350.173 166.4889 349.6125 170.0414 352.9183 173.0872 352.6573 176.1681 351.9034 176.4802 345.8526 176.6671 344.2428 176.9955 337.628 175.8176 335.409 173.4118 327.8728 173.3824 327.2753 173.3812 319.3411 173.3352 303.0029 173.1845 263.0291 186.0035 256.7043 188.0315 Z" id="fips-49057"/>
<path d="M 392.1849 288.3867 396.7225 286.8155 398.3467 281.9433 402.1842 281.4095 408.0528 283.9002 408.4056 279.6261 410.4521 275.0452 416.9491 270.7275 415.9564 267.6829 419.6593 267.5708 421.9132 265.6013 423.1111 268.2125 423.0362 271.6454 426.3251 277.9637 432.6104 279.1037 436.2478 282.5282 442.0149 286.2284 446.1186 288.1454 449.7499 288.7221 454.8064 291.8997 459.3434 293.9085 461.5014 291.8915 462.3623 287.9003 463.9185 285.4761 470.0482 284.6418 473.867 287.1615 478.489 287.9681 481.1617 284.9001 485.8684 284.83 488.1268 281.8836 487.8278 280.366 490.5018 274.1317 489.8923 271.148 492.1128 267.3327 496.9596 267.7307 497.2367 317.0324 498.1997 317.0299 498.5919 363.4638 498.8457 386.6693 499.8637 423.1488 470.6354 423.2652 470.4874 414.6712 465.0736 414.6474 463.0981 413.8778 464.914 409.7218 463.3209 409.2671 461.2538 405.9827 457.4836 405.2843 457.4322 402.7297 454.6355 399.4958 451.5962 393.9776 448.4076 396.3243 445.4152 393.9875 444.9294 392.442 446.9462 389.6581 445.9674 386.312 449.1248 378.5798 448.4375 374.5747 448.4635 370.0408 443.4543 363.9689 441.1127 359.1846 442.4038 355.0925 435.1983 346.3094 427.7452 345.884 425.6717 344.2182 415.1485 345.6888 413.05 343.5254 415.9825 339.3384 409.5009 331.2681 398.1002 330.455 397.3594 326.175 391.3505 316.7959 389.7012 317.5612 389.5011 317.457 388.0961 313.8266 395.0703 306.4604 394.4455 303.6998 396.1673 294.3438 392.1849 288.3867 Z" id="fips-49051"/>
</g>
</svg>