<?xml version="1.0"?>
<svg xmlns="http://www.w3.org/2000/svg" version="1.2" baseProfile="tiny" width="800" height="716" viewBox="0 0 800 716" stroke-linecap="round" stroke-linejoin="round">
<g id="cb_2018_us_county_5m">
<path d="M 400.2165 260.0019 401.0263 260.0076 412.3095 258.2549 417.9081 261.3608 427.9129 258.1299 430.1042 254.8035 441.6817 247.4175 448.8104 250.875 448.9006 279.1771 444.0023 281.472 442.2219 279.6979 438.3892 285.6633 428.3788 290.0818 407.9817 292.2066 405.3428 291.3805 401.8915 286.2237 399.9779 285.4944 399.4759 273.4622 398.9811 262.4096 400.2165 260.0019 Z" id="fips-54091"/>
<path d="M 116.3589 650.0497 117.1684 650.1308 119.4354 647.0067 128.3124 642.5783 133.143 645.4522 134.469 651.4623 141.8381 651.8688 152.6154 654.041 155.5193 652.3144 155.8793 650.1663 160.5014 648.6795 164.8491 651.1213 166.4116 649.4207 170.077 654.6946 176.9382 655.4926 178.0955 655.0506 182.3288 658.425 183.9086 657.9624 187.4212 658.8485 188.5049 657.3744 193.406 656.9466 195.1114 658.4593 194.1347 659.8175 197.0726 663.0424 198.1021 664.2269 203.6699 660.9756 207.5606 665.4003 217.9897 669.4073 209.4265 687.4051 208.7355 687.7657 208.6112 688.0607 208.436 688.4923 208.2217 688.6145 208.2387 688.8766 208.441 689.1115 208.5092 689.5028 207.8886 690.2164 207.6678 691.0302 207.3598 691.3566 206.8806 691.3874 206.4146 691.5102 205.7592 691.3471 205.6293 691.2969 205.4832 691.0349 205.3321 690.9527 205.0986 691.0696 204.074 691.7875 203.3589 692.9832 203.3286 693.5716 203.5487 693.8747 203.6349 694.2624 203.4058 694.5795 202.7398 694.8453 202.2606 695.4375 202.4714 695.8964 201.5538 698.0786 201.4634 698.3346 201.4872 698.5037 201.147 699.2696 200.295 700.7427 198.4227 701.1838 197.6137 700.8267 195.0539 701.2453 194.9224 701.4505 194.068 701.9804 193.2893 702.0841 193.0077 702.2769 193.1225 702.6163 193.0991 702.8978 192.7452 703.4455 190.3639 704.4163 189.7413 705.2439 189.1747 705.3461 187.7297 705.2584 187.1609 704.9548 186.7831 704.4797 186.7206 704.0819 186.8331 703.9536 186.8341 703.8061 186.6523 703.7781 185.9269 704.9042 185.7601 705.4153 185.6375 705.9172 185.3748 706.5863 185.3925 707.6677 185.2053 708.8044 184.9609 709.0592 182.971 710.2153 181.8539 710.4325 180.9192 710.9232 179.0304 711.4562 178.9009 711.5789 178.2188 712.9104 177.4867 714.0034 177.0672 714.2134 176.9388 714.2408 176.8695 714.1523 176.6984 714.0573 176.3188 714.3618 156.8197 715.2267 156.7568 715.0213 156.2995 714.7732 155.9911 714.3503 155.8806 713.2153 155.959 713.1426 155.437 712.7926 154.0468 712.6796 153.4213 711.7087 150.6671 709.4768 150.5946 708.3212 150.0553 707.594 149.481 707.0236 148.9659 707.0114 148.6291 707.1528 147.7758 707.4953 146.9109 707.4562 146.7908 707.3356 146.017 706.5581 145.9734 706.2143 146.1218 705.8665 146.1121 705.5038 146.5472 704.1669 146.4351 704.0132 146.213 703.9391 145.8168 703.3105 145.8148 702.6436 145.7204 702.1707 145.4661 702.0153 144.8663 701.841 144.7294 701.7484 144.6014 701.5292 144.2564 701.2948 143.8451 700.8132 143.8175 700.5811 143.8169 700.4126 143.8385 699.9823 143.413 699.7167 143.1605 699.6181 142.9901 699.683 142.8142 699.7168 142.5889 699.7387 142.1492 699.9169 141.0171 699.7797 141.0067 699.7713 140.5835 699.5525 140.2511 699.2318 140.2557 698.6934 139.6399 698.145 138.6228 697.75 138.4921 697.8563 137.9319 698.3117 137.8978 698.2043 137.988 697.9246 137.9119 697.6531 136.3122 697.4082 135.9627 697.4649 135.65 697.97 135.3264 698.0016 135.0987 698.0034 134.6529 698.3907 134.0735 698.6382 133.5884 698.7263 132.6881 698.6885 131.137 698.2046 131.1543 697.9296 131.3206 697.6303 131.1531 697.4448 130.4388 697.2424 129.8493 697.3983 129.7075 697.3902 129.1024 697.577 128.5839 697.4498 127.9943 696.9271 127.9201 696.1664 128.0239 695.4581 127.8763 694.3795 127.9582 694.2806 128.0143 694.2062 127.8952 692.9996 127.6355 692.9604 127.0356 693.3636 126.6397 693.1745 126.1956 692.595 126.1208 692.5035 126.0458 692.3683 126.0896 692.2365 126.3795 691.8014 127.0104 691.449 126.9591 691.0842 125.7888 690.0023 125.3324 690.0317 124.9291 689.4754 124.8427 689.1099 124.0044 688.3135 123.9513 687.706 123.8053 687.6372 123.5901 687.8274 122.8958 687.9179 122.5854 687.9011 122.4592 687.8097 121.6037 688.0105 121.4552 688.0144 121.2942 687.7467 121.2912 687.6153 121.1767 687.6117 121.0918 687.6219 120.5432 685.8852 120.5396 685.7134 119.9646 685.4478 119.8338 685.2982 119.4774 685.3505 119.4074 685.3526 119.2506 685.2757 119.1577 685.1362 118.6789 684.1003 118.578 684.076 118.5026 683.9709 117.7208 683.9584 117.1369 683.1062 117.0712 682.6862 116.9319 682.4746 116.261 682.2793 116.1093 681.9388 115.7986 681.58 116.1078 680.7577 115.5813 680.34 115.5356 680.3105 114.9411 679.0495 115.1325 678.7439 114.9582 677.9991 114.631 677.8367 114.4932 677.382 115.0374 675.6238 115.8481 674.6724 115.9426 673.7969 115.5388 673.0426 115.6723 672.2881 116.1237 671.9714 116.3839 671.9689 116.5939 671.8181 116.7742 671.037 115.3001 670.2174 114.5731 669.2283 114.0044 667.3186 114.4619 666.6899 114.891 665.8057 114.8465 665.3874 114.3202 664.9499 113.9351 664.9398 113.6557 665.0515 113.176 664.9852 112.5971 663.838 111.067 663.325 109.9223 663.5428 109.3114 662.825 109.4053 662.5825 108.2032 661.3808 107.5696 661.3664 106.7552 661.9567 106.4076 661.8344 105.5565 660.5652 105.0256 658.7017 104.8932 657.2697 105.5168 655.9755 106.029 655.5858 106.7159 655.4291 107.6027 655.491 107.7913 655.6692 108.0515 655.6733 109.2004 654.5872 110.1593 653.8555 111.4366 654.287 112.0893 654.2427 112.187 654.1377 112.1837 653.7448 111.9506 653.5042 111.9204 653.341 111.9788 652.564 112.1368 652.2559 112.3561 652.1059 112.7934 652.0444 113.3253 652.151 113.6658 651.942 113.6321 651.0993 113.8256 650.7623 114.1407 650.585 115.6122 650.0905 116.3403 650.0682 116.3589 650.0497 Z" id="fips-54047"/>
<path d="M 232.3188 494.8743 254.06 482.0352 263.3549 476.5285 284.7178 463.6939 300.064 450.4642 298.7896 447.174 292.3889 445.9609 289.6855 444.5085 305.3475 434.0138 309.3917 437.379 310.8893 440.6571 316.5437 438.3569 327.2159 440.5014 322.7347 445.3061 327.2613 457.4146 328.8488 461.816 325.4331 464.242 329.7115 471.8775 331.3267 476.3385 333.4098 473.7182 333.961 475.4615 362.2079 494.4267 346.5117 508.7546 337.759 516.2525 330.5307 522.4525 317.1617 533.6147 310.963 532.1136 289.2902 528.4977 289.2604 522.2347 286.1913 524.5228 278.2714 515.0273 279.2217 509.6848 275.19 505.2437 272.8013 503.6593 268.8446 503.8877 268.8586 507.1613 264.4264 504.0361 263.8371 502.382 260.6854 503.5464 261.7984 505.5406 258.566 506.1841 257.8038 509.087 256.2842 507.4211 252.0415 505.5637 248.2997 500.9023 245.1662 502.7203 239.7609 500.5222 238.697 497.9015 236.7369 497.9901 232.2855 494.9161 232.3188 494.8743 Z" id="fips-54067"/>
<path d="M 327.2159 440.5014 350.3268 415.734 358.6346 396.2391 360.601 398.7996 369.0732 398.6308 375.5587 397.9903 379.2273 400.8103 381.2494 407.602 387.4448 405.3805 399.0553 431.2842 403.2253 440.5854 393.3137 469.1257 379.5237 480.1427 375.9423 478.16 374.7261 503.0308 362.2079 494.4267 333.961 475.4615 333.4098 473.7182 331.3267 476.3385 329.7115 471.8775 325.4331 464.242 328.8488 461.816 327.2613 457.4146 322.7347 445.3061 327.2159 440.5014 Z" id="fips-54101"/>
<path d="M 374.7261 503.0308 375.9423 478.16 379.5237 480.1427 393.3137 469.1257 394.8284 467.8365 400.3506 463.1306 404.3859 459.6887 409.6208 455.2119 414.4828 451.2941 421.4691 452.7538 428.5033 454.222 436.5924 448.4888 444.8542 442.5482 450.137 438.7502 455.3949 434.7839 455.6827 433.6001 455.9976 432.3275 456.3283 430.9932 456.6084 429.4508 456.5622 427.8071 457.3613 426.0938 457.6441 424.9056 458.3801 423.4632 458.6156 422.4622 458.4437 421.3606 458.0261 420.5312 457.9317 419.471 457.9483 418.5344 458.0854 418.3453 458.5327 418.4254 458.8147 418.5959 459.3478 418.689 459.9316 418.2524 460.6652 416.8555 460.2523 416.1006 460.0395 414.8789 460.7202 413.8075 461.9802 412.9225 462.116 411.7142 462.3387 410.9422 462.5611 410.5865 462.8315 409.9181 463.1422 409.3845 463.1148 408.8751 463.2411 408.4577 463.9489 407.6606 464.135 406.66 464.1569 405.4527 465.0403 404.3421 465.4565 403.6516 465.4831 402.7273 465.1946 402.5544 465.0351 401.9279 465.4026 401.2586 466.4349 400.4794 466.4753 399.5633 467.1172 398.725 467.6794 398.0539 468.2054 396.9877 468.2795 396.217 468.7458 395.7341 469.6221 395.7052 470.3077 396.0943 471.0424 396.5453 472.1169 396.7434 472.8027 397.2989 473.1392 398.1921 473.4451 399.2706 474.0399 399.6361 475.0354 399.879 475.7263 400.7881 476.144 401.1082 476.3905 400.9951 476.464 401.5095 476.0114 401.7219 475.5635 402.4341 475.5874 403.2245 475.5984 404.3691 475.2963 405.0176 475.3679 405.3016 475.2885 405.9329 474.9488 406.0819 474.6799 406.8335 475.1082 407.4538 475.797 408.134 477.0159 408.1638 477.7291 407.9904 478.3857 407.0266 479.9251 406.6368 481.0883 407.6243 481.3563 408.4125 481.8015 409.0636 482.0409 410.2579 482.99 410.9143 483.9986 411.029 484.7951 411.0417 485.0362 410.2806 485.1803 408.9777 485.1017 407.6674 486.2466 406.8229 487.4261 406.2071 487.8434 405.7241 488.6583 405.9861 488.976 406.2933 490.0835 407.1156 491.2579 407.561 492.5883 407.4011 493.3073 407.7888 493.4476 408.7447 493.1305 409.4765 492.3448 410.4421 492.2542 411.0883 492.554 411.7511 493.2362 411.7229 493.6184 410.9903 495.0725 412.1919 492.5183 416.8809 494.9516 420.0083 490.1548 426.1578 489.0442 429.3569 488.715 430.023 488.5207 430.1083 488.1743 431.215 488.3231 431.4423 488.5591 432.2308 488.0263 432.6317 487.6186 432.5527 486.9598 434.9322 486.9078 436.2023 487.3746 437.2587 487.0742 438.1151 486.4023 439.2667 486.6328 439.5141 486.9271 439.6359 487.421 440.1719 488.0517 441.3308 488.2052 441.9952 487.9803 442.2889 487.6227 442.3551 487.3153 442.5456 487.1218 442.7349 487.0664 442.9523 487.0666 442.9715 486.8543 443.6326 486.2623 443.0768 485.2361 443.0457 485.0458 443.5471 485.0484 444.3198 484.8324 444.9853 483.9686 446.0626 483.4859 445.9458 483.3283 446.0085 482.9693 446.4788 482.4845 447.9424 482.5899 448.4926 482.8402 449.1395 483.1731 449.2283 483.0556 449.7914 482.831 449.8913 482.276 450.4575 482.1781 450.7043 482.2996 451.556 482.8456 451.7193 483.5898 452.8177 483.9598 453.8608 484.0479 454.2437 484.0874 455.5741 483.966 455.7705 483.5628 456.4522 483.8859 457.2338 483.5934 457.8513 483.5544 458.5015 483.6779 459.0083 483.8467 459.2419 483.8878 459.5381 481.1557 462.8349 480.7547 463.6018 480.7884 464.1241 480.1553 465.0708 479.435 465.8005 478.597 468.3155 477.9989 468.8306 477.4342 470.2345 477.154 471.6888 477.3527 471.9281 477.8135 472.031 477.9598 472.2105 478.1301 473.1878 478.1685 473.6661 478.1084 473.7914 477.9342 474.0003 477.5612 474.0878 477.1215 474.438 476.7137 475.1578 475.7374 475.7139 475.1682 475.7471 473.2923 475.0564 472.9548 475.0192 471.8463 475.2485 471.3903 475.9018 471.5355 476.4254 470.9811 478.3098 470.4735 479.6286 469.4719 480.4536 468.3796 480.6157 466.6666 482.1708 466.4119 483.0719 466.1775 483.4927 465.4527 484.1708 464.7069 485.1124 464.4762 485.681 464.4856 486.0284 464.9119 486.7204 465.4917 487.3546 465.6063 487.7573 465.7075 488.7156 466.5127 488.7126 466.9081 489.0889 467.8489 490.9662 468.231 492.6004 468.0103 493.5587 467.8181 493.7787 466.8456 494.0457 466.4879 494.1439 466.0094 495.0811 465.1869 495.5631 464.2609 495.3199 463.903 495.7865 463.6625 496.4356 463.6633 496.7312 463.8066 497.1622 463.4371 497.5935 463.0351 497.8627 462.8083 497.8558 462.1061 497.4017 461.1925 497.5763 460.8549 498.0233 460.6863 498.565 460.667 498.9935 460.513 499.2044 460.1268 499.3358 459.2294 499.2773 458.8665 499.3869 458.666 499.6131 458.0436 501.0073 456.9624 501.4854 455.8853 502.9782 453.3791 505.6893 452.5427 506.3511 452.1863 506.3363 451.9204 506.4618 451.345 507.03 451.2804 507.2956 451.2254 507.5002 451.1361 508.0272 450.2461 509.4542 448.9991 510.3059 448.2041 510.5366 447.6392 510.4373 447.3263 510.8851 447.3571 511.2786 447.213 511.4139 446.5419 512.1189 446.5704 512.207 447.2938 512.6093 447.2744 513.1277 446.9739 513.7196 446.9309 514.1844 447.0959 514.6077 447.3989 514.5993 447.5642 514.6688 447.5947 514.786 446.9966 517.4406 446.2724 518.2611 445.9251 518.3488 445.8827 518.3966 445.372 519.5053 445.3623 519.6078 445.3231 520.5789 444.5571 521.4718 443.0864 521.7272 442.7475 522.3016 443.7422 526.4494 443.891 526.6273 444.4963 526.8394 445.2629 526.9421 445.8157 527.3637 445.604 527.8492 445.0544 528.5659 444.5867 529.0343 444.5334 529.3466 444.3958 529.5824 443.8789 529.9608 443.2139 530.6219 442.1195 532.1595 441.4036 532.7379 441.2643 532.9651 440.344 535.4107 440.3922 536.4468 416.3084 538.2344 406.1231 542.3944 401.4302 540.9941 398.4516 541.2062 390.464 540.2768 374.2591 526.2389 374.7261 503.0308 Z" id="fips-54075"/>
<path d="M 300.0744 165.0706 300.8506 164.4377 303.4943 163.2197 304.5773 162.215 304.9573 161.4814 305.0559 160.4471 304.448 158.254 304.1021 157.6826 303.1183 156.4156 302.5077 155.2293 302.0581 153.9966 301.9521 153.3972 302.0179 152.5218 302.2857 151.5602 302.542 151.1047 302.9616 150.766 303.419 150.6271 304.1878 150.5753 306.2402 151.1051 307.8675 152.3264 308.5643 152.6738 309.4708 152.8283 309.7798 152.8288 309.9971 152.7126 310.1558 152.5131 310.4557 151.7846 310.5358 151.2387 310.4017 150.3996 309.6818 148.6275 309.1773 144.9848 309.1836 144.2258 309.3609 143.547 310.1361 142.3567 310.678 141.8748 312.0934 140.9048 312.5894 140.3063 313.0747 139.9574 313.3035 136.9783 313.0942 135.1438 312.9292 134.5344 312.7787 132.7067 312.8023 132.2307 313.0263 130.713 313.4588 129.5618 313.5334 129.1025 313.527 128.1405 313.7012 127.6547 314.1795 126.9598 314.1854 126.942 320.3868 127.5286 324.3852 127.9356 327.1413 128.204 348.3127 130.4709 348.3111 141.5039 348.3096 141.703 348.3098 141.7497 348.3127 142.3334 348.3178 142.9047 348.3314 146.5374 348.3107 146.9995 348.3783 156.5709 348.3129 174.2115 348.3228 179.6063 348.3453 191.8515 298.0632 191.9425 297.8875 191.782 297.5631 191.2937 296.0508 188.4005 294.9888 187.7261 294.6729 187.4024 292.9793 185.1801 292.6204 184.3749 292.2503 183.0341 292.3865 182.45 292.8316 181.333 293.3583 180.6147 297.8026 177.4022 299.2827 175.7631 299.4614 175.2417 299.9121 173.0338 299.8706 170.2741 299.7839 169.751 299.2768 168.0192 299.1621 166.8009 299.2975 166.264 299.5942 165.6569 300.0744 165.0706 Z" id="fips-54051"/>
<path d="M 324.6563 12.7173 324.9833 11.6292 325.5097 10.8241 326.6758 9.7963 326.8679 9.8097 327.2245 9.5469 328.292 8.3193 329.1747 6.7322 329.9686 5.7308 331.1035 4.9321 332.8679 4.5661 334.7832 3.8654 335.5907 3.8239 336.333 4.1563 336.6515 4.3991 337.9815 5.8496 338.5782 6.1023 339.0712 6.1187 339.8293 5.8621 340.4761 5.4258 341.6001 4.1506 343.1147 3.0749 343.9412 2.8965 344.9439 2.3923 346.0178 1.67 346.4352 1.5313 347.1354 1.5695 347.7263 1.3767 348.1879 1 348.1856 5.661 348.1782 5.6623 348.1843 11.1166 348.1892 11.1141 348.1963 17.4704 348.2059 26.1421 348.2063 26.1421 348.2251 34.5785 348.2268 35.3473 348.4353 37.6768 348.4031 50.7447 339.5601 50.7286 330.6981 51.718 330.9523 51.539 332.997 50.707 333.4724 50.1246 333.5358 49.8749 333.3931 49.0845 333.4563 46.8171 333.3453 44.5706 333.4561 43.4266 333.6303 42.8233 334.6279 40.9719 334.707 40.3271 335.6728 38.5382 336.0209 37.4981 336.2263 35.834 336.1153 35.0228 335.5292 33.5045 335.0137 33.1593 333.9677 32.0612 332.5519 29.4522 332.0962 27.3289 331.8887 25.615 331.0486 22.4334 330.578 21.9907 330.163 21.8276 328.8551 19.8072 327.1079 16.8683 326.6528 16.319 325.4847 15.2802 324.8197 14.5544 324.6836 13.6324 324.6563 12.7173 Z" id="fips-54029"/>
<path d="M 265.3415 339.8338 270.3546 339.8554 276.3497 334.5271 285.0968 332.2816 290.4723 326.7507 293.6634 326.5384 294.3358 324.4668 297.4943 324.7959 301.4188 321.2473 301.0691 319.1798 314.7342 322.0581 316.5737 340.2174 320.3652 344.8287 334.5295 361.9239 328.8249 365.9509 324.1368 364.3106 310.0119 373.8411 298.1727 382.6629 272.97 400.5698 270.6473 393.7771 266.9261 390.7816 265.4791 391.8036 262.1589 387.5992 261.3927 384.8222 265.28 382.5862 268.6608 378.8573 268.6734 374.9965 270.2337 373.8137 269.4423 362.5877 268.4987 357.888 270.29 355.9213 268.9418 350.6991 270.1739 349.9678 264.9032 343.2881 265.3415 339.8338 Z" id="fips-54021"/>
<path d="M 265.0337 229.4422 266.4087 228.374 266.9747 227.6823 267.4214 226.9006 268.0412 226.2589 269.8763 224.7295 271.7839 223.4219 272.2845 222.9801 273.2462 221.7337 274.706 220.4379 276.0311 219.0676 280.3183 215.5878 289.5594 221.1561 295.0024 216.6476 295.9301 216.8491 296.348 220.4304 298.9916 222.0112 299.6265 226.5606 301.785 225.0048 306.102 227.9797 305.8 230.1347 312.8291 235.2487 313.9118 239.6762 315.7373 239.7681 317.6182 242.9422 321.6296 244.0659 324.1522 243.0989 324.0207 245.3745 326.9857 244.1577 332.4521 248.2567 327.6532 249.7858 326.0093 251.8684 317.2303 252.4366 313.915 259.7373 298.522 270.5143 288.9477 280.6714 289.7277 277.8708 288.3698 274.2434 289.6154 273.0994 289.796 266.851 286.4753 263.2205 285.4629 263.8504 282.027 260.9173 280.1769 264.1131 279.3137 269.08 277.0464 271.2124 273.0865 269.5954 271.9523 270.8812 269.818 268.819 268.8044 257.8723 267.4365 249.8931 267.0492 245.6792 266.3731 244.4938 264.3338 244.3045 261.3475 242.6627 262.4984 244.5379 262.0023 245.3916 258.5067 244.4957 256.0172 246.5363 254.0169 245.304 251.6552 246.4989 252.6835 244.7319 252.796 244.7325 255.0042 240.3951 256.5246 238.3638 259.0244 235.7368 259.8909 234.4237 261.5378 233.0264 262.8923 231.6666 263.2203 231.1306 264.0356 230.2174 265.0337 229.4422 Z" id="fips-54095"/>
<path d="M 55.4944 559.2691 58.0763 556.9125 60.8328 553.3019 70.3479 543.6312 72.5975 542.9309 74.5705 538.2387 72.4713 537.5535 71.9265 533.6223 67.6274 531.9045 66.8009 527.5097 63.3846 525.3053 62.6771 522.807 64.1358 519.856 59.6385 517.4517 62.0259 512.3949 61.1547 504.8352 63.0386 503.839 63.3627 499.977 67.3619 491.2874 72.9332 487.7619 71.5033 483.4361 70.8872 483.1277 74.6571 483.2137 78.1402 477.2564 80.1101 477.9337 87.8081 476.4613 91.2194 471.6702 96.5461 469.8224 99.4102 470.3529 99.9488 478.0943 98.858 487.8463 107.1852 492.9143 108.2353 491.0221 109.7174 490.8508 120.7864 480.8346 125.5583 483.1589 131.8693 483.536 134.5808 481.6625 136.8087 483.1001 138.4425 487.7102 139.0087 493.8376 137.6846 495.3381 137.8099 503.0245 133.898 502.394 133.8092 505.1613 130.7494 510.273 130.8134 512.717 127.4221 511.886 127.3616 514.6214 125.0262 513.6938 124.7175 517.1708 126.197 520.1201 122.1157 519.1398 118.2583 516.8267 115.547 519.9071 113.9532 523.7606 115.1457 525.8679 112.0943 529.8159 110.6615 537.9895 113.5024 540.2874 121.5701 542.4175 117.0754 543.2698 115.2573 544.1283 107.8518 543.233 102.1697 544.5486 101.4741 545.3244 98.6746 545.2008 85.0045 549.6794 74.5902 553.1278 55.5954 559.237 55.4944 559.2691 Z" id="fips-54043"/>
<path d="M 92.932 348.7212 93.6016 347.4294 93.8982 346.1016 94.1664 345.5236 94.5781 345.0723 96.1641 344.0362 97.8748 343.2724 99.5253 342.2161 100.7038 341.3396 101.1014 340.7422 101.6885 339.3985 102.3972 336.4748 102.8654 335.483 103.3271 334.9074 104.7427 334.3256 106.3159 333.9959 108.0113 334.1257 108.7818 334.4912 109.9447 335.6326 110.5137 336.4945 111.1887 337.8366 111.7019 339.1971 111.8527 339.9278 111.951 341.2365 112.0881 341.5187 112.3735 341.764 112.6817 341.8755 113.2604 341.9394 114.2488 341.8412 115.3746 341.583 115.6317 341.3886 116.8975 341.2395 118.4445 341.8316 119.2445 342.4427 119.8252 343.0245 120.8662 345.1521 122.1839 347.4421 123.0813 350.0048 123.9999 351.9078 124.9494 353.501 125.2697 355.1847 125.0174 356.0549 124.8594 356.2748 123.6362 357.701 123.0488 358.0755 122.0917 359.0943 121.8687 359.5051 120.6209 361.0075 120.3309 362.2397 120.3823 362.6315 120.544 363.0272 122.3148 364.5784 123.2048 365.6266 123.4724 365.8039 123.2177 366.5036 124.3665 368.9668 135.7572 386.5353 142.0968 396.307 138.4381 400.0775 144.9498 407.2202 115.8769 411.6007 114.9102 411.8485 97.3302 421.7093 98.4302 449.5 72.1697 424.6845 74.413 424.716 76.263 424.4613 77.092 424.0825 78.2132 423.1858 78.9929 422.2833 79.3509 421.3111 79.893 419.0724 79.9166 417.6782 79.832 416.9066 79.5843 416.1742 79.2119 414.1697 78.8598 412.894 77.8418 410.6495 77.7862 409.1499 77.5473 407.9178 77.055 406.3067 77.1937 404.8523 78.0638 402.4111 78.4434 401.1063 78.5201 400.4207 78.2044 398.9375 77.9031 397.5586 77.6686 395.1401 77.4532 394.4496 76.8826 393.6488 76.5436 391.2995 76.0311 390.1909 75.6099 389.6327 74.7138 388.8739 73.1932 387.9302 72.5908 386.798 72.4395 385.5317 72.4587 383.9966 73.1863 382.2415 73.6472 381.6228 74.5053 380.8091 76.1498 379.5854 77.4873 378.266 79.3908 377.8325 81.6098 376.8167 82.319 376.3718 84.6153 373.8402 85.0812 373.1194 85.6459 370.8572 86.0807 368.0283 85.9754 366.9182 85.8116 366.2186 85.6458 365.5109 85.166 364.171 85.3079 362.4666 85.5569 361.1387 86.943 359.6006 87.9134 358.7008 89.2303 356.4121 90.7748 354.0438 90.9621 353.4848 90.9308 352.4228 91.2399 351.3455 92.6494 349.2664 92.932 348.7212 Z" id="fips-54053"/>
<path d="M 493.6184 410.9903 494.209 410.0266 498.7251 411.1345 498.292 406.069 504.1866 399.8342 505.0216 396.6481 508.2009 393.6764 509.5881 390.2258 512.2856 386.5305 512.6249 382.4057 509.4256 379.6042 510.0374 376.2548 507.4322 373.9553 511.1538 369.3739 512.0455 366.7409 510.4822 363.3881 516.4245 364.5021 522.6111 361.8642 520.7467 355.3736 522.6981 354.7868 527.2079 356.7264 533.8189 357.0961 534.9244 356.2486 537.7597 349.404 565.9751 372.8696 573.1234 378.8799 585.7967 389.4776 585.7521 389.7281 585.213 390.4658 584.5884 390.9551 583.3633 392.412 583.341 393.0158 583.1713 393.539 582.7434 394.1498 582.2561 395.0946 581.9003 396.1413 581.35 397.212 581.0735 398.1533 581.2014 399.0043 580.2425 401.8718 580.2825 402.322 580.3318 402.517 580.6012 403.9056 581.0479 404.3977 581.4584 404.6612 581.6613 405.1366 581.137 407.7887 580.6329 408.7338 580.3793 410.0909 580.3582 410.7779 578.1925 411.5006 577.3357 410.7862 575.9207 410.7056 575.5972 410.7939 574.3948 411.8125 574.1897 412.1905 573.8077 413.6953 573.5032 414.1082 573.4923 414.1795 573.3622 414.4553 573.2644 414.8201 573.1847 415.3705 572.8461 415.5425 572.368 416.133 571.7329 417.9327 571.6957 417.9704 571.0162 419.0267 570.3813 420.9919 570.3551 421.4101 570.5591 421.9688 569.7961 423.0839 569.851 424.4776 569.9668 424.6006 569.907 424.9346 569.1567 426.8614 568.5408 427.6578 568.4233 427.8096 567.9827 428.7532 567.8608 429.2752 568.0313 429.7721 567.9861 430.0017 567.4132 430.3415 567.3539 430.3876 567.0674 430.5574 566.4024 431.7334 565.9091 433.4895 565.1251 434.3551 564.409 435.4067 563.8577 436.6016 563.1539 438.4649 562.4483 439.1627 561.6726 442.7335 562.3363 443.535 562.1955 444.1812 562.1983 444.2448 561.9148 445.1958 561.8693 445.4652 561.8665 445.476 561.7787 445.7517 561.0378 446.5232 560.4158 446.9115 560.0431 447.4592 560.129 448.3418 559.5929 448.9596 559.3752 449.2106 558.4135 449.7309 557.9626 449.9521 557.052 450.6256 556.7491 451.7768 556.7994 453.2906 556.6802 453.8933 555.9169 454.0866 554.9764 453.5753 554.7531 453.5514 553.6902 455.2045 553.4071 455.9363 553.3337 456.1089 553.0218 456.5277 552.6923 457.2506 551.9374 457.4586 551.5388 457.6807 550.2974 458.5853 550.2112 458.6763 550.2292 458.8063 550.2663 459.1914 550.5812 459.6728 550.6372 459.9546 550.7364 460.2242 550.67 460.9355 550.218 461.4968 549.7839 461.2629 549.5744 460.9941 549.3192 460.9135 548.978 460.9607 548.7721 461.1989 548.141 461.5198 547.8125 461.8765 547.4384 462.2045 545.4593 462.8597 535.9561 459.7934 518.5461 453.7797 514.675 445.3999 511.0513 437.9099 509.3365 436.0781 509.1203 435.6853 509.084 435.3735 508.503 434.4022 508.3956 434.316 508.2729 434.2176 507.5698 433.9344 505.4537 432.5022 503.691 432.0439 502.7947 431.9292 490.1548 426.1578 494.9516 420.0083 492.5183 416.8809 495.0725 412.1919 493.6184 410.9903 Z" id="fips-54071"/>
<path d="M 222.8633 302.9555 219.8037 306.6768 220.762 308.7196 217.7727 310.1055 222.4921 314.5538 224.4285 313.9604 226.3455 319.1814 228.2776 319.2975 229.2824 326.6157 226.6692 329.4326 229.84 329.9866 230.3498 334.3293 233.9043 334.9348 234.482 333.1489 241.7694 333.0831 244.5362 335.3497 226.5752 354.8512 225.6166 359.3127 220.6704 360.6838 215.2662 363.1069 203.4977 357.918 198.1847 353.517 195.0473 356.4315 189.3193 358.3714 183.6494 352.8448 181.8348 348.0323 185.0871 345.9161 184.7165 340.11 176.7966 335.7149 181.3563 330.9545 202.3044 313.1722 206.0829 312.7232 222.8633 302.9555 Z" id="fips-54105"/>
<path d="M 748.5057 207.1564 750.3703 210.3338 750.5951 210.5751 751.1252 210.8839 751.8358 211.0404 753.5825 211.0517 755.9991 211.0515 756.5002 210.734 757.2609 209.6241 758.2307 209.1466 759.364 209.2436 760.0662 209.9439 760.0751 212.9018 760.9266 214.0411 762.0548 213.5242 762.4383 211.9789 762.4901 209.0696 760.9842 207.7039 761.0121 207.3077 761.3957 206.9545 762.1058 206.8588 762.8564 207.1437 763.5402 207.9081 764.0197 209.1984 764.542 209.7568 765.8699 210.1486 767.6805 210.5262 769.5358 211.0554 769.7948 211.1292 770.8041 210.9524 771.1847 210.5584 771.2162 209.2826 771.0719 208.8917 770.2345 207.8307 770.2177 207.5836 770.5128 207.3132 772.1886 207.5716 773.1757 208.1989 774.9388 208.8241 775.6425 208.9617 777.3474 208.8815 778.1197 209.0933 778.8513 209.735 779.1442 210.1073 779.539 212.1886 779.5535 212.9713 779.439 214.2468 779.1132 216.3722 778.8849 216.8502 778.6443 217.3537 777.7209 217.8058 775.5281 217.815 773.9505 218.0831 772.8283 218.0443 771.9129 218.1554 770.7008 218.8288 770.4148 219.0942 770.3131 219.3354 770.2788 219.7744 770.7062 220.595 773.144 222.1187 774.172 223.3156 774.3311 223.7059 774.3608 224.0527 774.2804 225.4264 774.1327 226.1593 774.1786 227.6289 774.3779 227.889 774.5885 228.1639 775.1519 228.2942 776.869 227.978 778.1777 227.1155 778.2091 225.1059 778.4332 224.6992 778.7673 224.4699 779.3136 224.3579 780.341 224.7785 780.6428 225.0359 780.9196 225.7083 780.9646 226.0879 780.7503 227.3835 780.1466 228.1222 777.6265 229.9849 777.2183 230.7324 777.2817 230.9137 777.4156 231.2968 778.6406 231.9105 780.8518 232.4015 777.679 242.3263 771.7475 248.6703 764.6436 256.3272 762.0467 256.5457 758.9309 259.4094 754.4766 271.0986 748.4497 278.2244 748.8954 281.0436 741.185 275.0872 740.912 274.8761 736.4568 271.4303 731.1598 267.1433 728.3272 265.2113 723.5204 261.0518 720.5601 258.8172 716.7158 255.5593 716.9314 254.7689 721.2386 244.0898 724.7942 228.2595 727.7048 219.3622 729.9906 213.0405 732.3735 212.9744 737.0469 215.2725 739.4049 211.5497 742.7161 211.7545 748.5057 207.1564 Z" id="fips-54003"/>
<path d="M 698.5292 204.9717 698.8432 205.0538 701.897 206.0291 702.6862 206.2996 706.7575 208.0981 708.6708 208.2216 709.3622 208.3754 709.6393 208.2734 709.9012 207.7669 709.8797 206.7804 710.0426 205.9338 711.289 203.8983 712.441 202.8967 713.7877 201.3375 715.4236 200.3135 715.8286 199.8695 716.0529 199.4018 716.0018 199.0888 714.494 197.4912 714.4605 196.9917 714.7041 196.6717 715.3716 196.2923 718.6643 196.2333 719.2716 196.0793 719.5631 195.8192 720.2404 194.9254 720.8828 193.4422 721.0895 193.1986 722.3978 192.1548 723.3743 191.9504 724.2185 192.0018 725.7071 192.3718 726.9988 192.985 728.7091 192.9637 730.0423 193.3662 730.4524 193.6315 731.8628 193.869 733.818 194.4525 734.4601 194.5298 735.4465 194.8881 736.198 195.3098 737.4014 196.6282 737.603 196.7178 738.6166 196.6991 739.3878 197.1536 739.8697 197.597 740.7966 198.6129 740.9118 198.7391 743.6065 201.3395 743.9408 201.925 744.3189 202.3812 744.6438 202.6061 745.7594 203.3786 746.2329 203.8651 747.2194 205.5563 748.2538 206.7271 748.5057 207.1564 742.7161 211.7545 739.4049 211.5497 737.0469 215.2725 732.3735 212.9744 729.9906 213.0405 727.7048 219.3622 724.7942 228.2595 721.2386 244.0898 716.9314 254.7689 716.7158 255.5593 711.1236 250.8975 706.9985 247.9987 697.318 240.493 697.3096 240.4865 682.5949 233.7521 677.5431 230.3937 678.4438 229.5293 678.7306 228.4512 678.6949 227.7617 678.5418 227.002 678.6328 226.6445 678.9501 226.3788 680.2652 226.1862 680.507 225.8897 680.4743 225.5677 680.4176 225.2782 680.486 225.0183 680.8539 224.7835 681.1525 224.7765 681.7002 225.2097 682.2906 225.7098 682.6052 225.5881 682.7972 225.0931 682.8412 224.6071 682.8271 224.0263 682.9654 223.5707 683.5105 223.4609 684.0798 224.0343 684.5463 224.082 685.0167 223.974 685.2872 223.8382 685.3789 223.513 685.1656 222.937 684.6184 221.998 684.0829 221.4205 682.1943 220.5561 680.229 219.0697 679.5435 218.372 678.8779 217.1166 678.8997 216.1138 679.0276 215.6658 679.446 215.3273 679.9753 215.0577 680.8039 214.8237 681.2543 214.8272 683.6692 215.6935 684.5256 216.2158 685.0068 216.7045 685.2325 216.8229 686.9506 217.3057 688.0795 216.9411 688.6299 216.566 688.9595 216.0869 688.9198 215.4308 688.5833 214.8436 687.7278 214.1641 686.0743 213.2226 684.8038 212.239 683.9904 211.3393 683.0033 209.9298 682.7562 209.5119 682.648 209.1526 682.6885 208.6708 683.1628 208.0931 683.8529 207.8148 684.713 207.9039 685.9596 208.4838 688.7137 209.4612 689.5437 210.2651 690.711 210.9038 691.5816 211.0353 692.1318 210.9267 692.3726 210.7346 692.5153 210.3835 692.4857 210.1558 691.3799 208.9694 690.7433 208.1276 690.6573 207.9059 690.6504 207.5377 690.788 206.8839 691.0997 206.6383 692.2692 206.3808 693.1111 206.6786 693.3982 206.9619 694.0029 207.2562 694.6688 207.3372 695.0774 207.1862 695.3727 206.8742 695.4326 206.625 695.3895 206.2358 695.0721 205.6866 694.5536 205.2569 694.4171 204.7416 694.6077 204.4082 695.0907 204.2056 695.6217 204.2112 698.5292 204.9717 Z" id="fips-54065"/>
<path d="M 330.6981 51.718 339.5601 50.7286 348.4031 50.7447 348.4027 50.9062 348.41 57.3339 348.2498 62.7149 348.2523 65.0722 348.2866 97.9406 348.2866 97.9462 348.282 100.6657 342.8324 99.0537 336.1457 97.0654 331.429 97.0219 325.2374 96.6625 325.3264 96.5583 325.5189 95.9603 325.2539 95.8894 325.2814 95.2167 322.4071 95.2838 322.759 95.1166 323.8726 93.8691 324.5889 92.3508 324.8759 90.9779 325.1952 88.2947 325.6342 86.0839 327.1361 82.9283 328.3278 81.618 329.5034 80.8278 329.5192 80.9942 331.8384 79.4343 332.3466 78.727 332.839 77.25 332.7437 74.5459 333.0452 73.1521 334.3624 70.6765 334.9497 70.0107 335.4254 67.8055 335.33 67.0775 334.949 65.6838 333.6952 62.9799 333.3827 61.5869 333.3779 61.5653 333.5364 60.0052 334.028 58.5906 334.2022 57.0096 333.8692 55.8864 333.1238 55.096 332.3628 54.4719 330.5329 53.8203 330.3972 53.7021 330.0803 52.6622 330.3024 51.9966 330.6981 51.718 Z" id="fips-54009"/>
<path d="M 405.3428 291.3805 407.9817 292.2066 428.3788 290.0818 438.3892 285.6633 442.2219 279.6979 444.0023 281.472 448.9006 279.1771 450.0021 278.4883 454.3696 282.1474 456.2818 290.1576 461.353 291.374 462.8467 293.4322 460.1785 301.0359 460.1109 308.0496 458.4529 314.1823 460.5791 317.3272 458.8221 321.4213 456.7082 321.6681 454.5021 326.3481 453.0165 334.3311 450.7247 340.8425 449.3508 347.0552 418.8106 352.7101 422.2295 349.6774 420.6847 349.0111 424.0201 346.8669 423.6111 340.5882 425.2613 339.5705 422.9123 337.1205 423.6239 334.3065 421.597 333.7968 411.7277 333.9032 407.8813 326.8837 405.27 323.575 400.122 321.3153 398.5351 321.5724 395.6619 318.3728 396.0108 306.2627 405.3428 291.3805 Z" id="fips-54001"/>
<path d="M 514.9491 297.9935 516.7021 298.4365 517.8021 297.6794 520.4458 296.7264 522.5037 295.5856 524.9586 293.2443 524.8393 292.0981 525.584 291.0074 526.9167 290.6432 530.8792 285.3889 532.6083 283.7809 534.9888 283.3801 536.2027 282.7152 537.7814 281.0165 537.8067 280.7972 537.4812 280.2637 537.6722 279.47 539.5797 278.1145 542.402 277.1461 544.4221 278.1218 545.9704 278.2712 546.3669 278.1419 547.3838 275.9799 547.614 273.1861 549.166 271.9321 554.7164 273.2774 571.4023 275.0155 596.5616 290.1714 593.2304 299.0596 587.8279 308.562 589.0368 310.2565 584.6856 320.7558 579.5755 331.9703 581.5562 335.3504 580.9859 339.8766 587.0154 354.6978 582.5872 360.8921 580.6624 361.9859 581.5796 365.4881 576.5733 374.3129 573.1234 378.8799 565.9751 372.8696 537.7597 349.404 536.4777 347.9648 539.2129 346.8655 543.9527 334.1685 545.7755 325.2102 543.1125 325.8643 539.9441 323.327 536.481 322.5734 537.8461 318.1327 540.2879 315.7915 540.128 309.7648 543.7687 302.5958 546.8581 300.9486 543.8794 296.8088 537.7892 296.0615 534.6062 299.1023 531.8044 298.2453 530.1417 300.5152 522.1448 301.9934 518.1485 303.605 514.9291 300.2945 514.9491 297.9935 Z" id="fips-54023"/>
<path d="M 462.8467 293.4322 481.6755 285.1085 483.0479 284.9508 511.585 295.9025 514.9291 300.2945 518.1485 303.605 522.1448 301.9934 530.1417 300.5152 531.8044 298.2453 534.6062 299.1023 537.7892 296.0615 543.8794 296.8088 546.8581 300.9486 543.7687 302.5958 540.128 309.7648 540.2879 315.7915 537.8461 318.1327 536.481 322.5734 539.9441 323.327 543.1125 325.8643 545.7755 325.2102 543.9527 334.1685 539.2129 346.8655 536.4777 347.9648 528.2018 346.1352 526.2218 346.6095 514.2858 345.5515 512.8642 347.1346 512.0059 346.0615 490.3504 340.0561 467.0909 333.5854 468.4789 331.6787 468.6956 325.4126 464.7436 318.9139 460.5791 317.3272 458.4529 314.1823 460.1109 308.0496 460.1785 301.0359 462.8467 293.4322 Z" id="fips-54093"/>
<path d="M 272.97 400.5698 298.1727 382.6629 310.0119 373.8411 324.1368 364.3106 328.8249 365.9509 334.5295 361.9239 336.929 366.1871 336.5575 368.947 338.1461 371.3495 342.2827 369.5289 344.548 372.3975 348.0219 370.6191 355.88 376.6322 354.0391 383.5235 357.6043 384.4053 358.541 388.6798 360.4351 388.2557 359.6345 394.1609 358.6346 396.2391 350.3268 415.734 327.2159 440.5014 316.5437 438.3569 310.8893 440.6571 309.3917 437.379 305.3475 434.0138 289.6855 444.5085 288.0319 438.2877 283.765 436.6297 284.5272 432.7296 282.3896 429.4405 277.7134 426.7462 275.2536 426.4791 274.3543 419.8887 265.3358 410.9553 272.97 400.5698 Z" id="fips-54007"/>
<path d="M 780.8518 232.4015 780.9621 232.426 783.707 233.0483 785.86 232.8256 786.7439 231.88 787.4061 231.3064 787.8541 231.0831 789.0115 230.9571 789.5634 231.0259 790.3806 231.7007 790.4693 232.2598 790.234 232.6194 789.5044 233.0847 787.9647 233.7382 785.7975 234.9094 785.3448 236.0213 785.7857 236.9363 786.7691 237.6205 787.8648 238.0909 787.9525 238.5133 787.7306 238.9097 787.148 238.9929 785.7079 238.9546 785.3404 239.7169 785.8107 240.5 786.908 241.4045 786.9744 242.3149 786.4046 242.9866 785.6845 243.3419 785.3394 244.0943 786.0547 244.8918 787.326 245.6554 789.4054 245.8629 791.2528 245.6824 792.0019 245.9976 792.6646 246.425 792.9292 246.7073 793.0155 247.3476 793.9119 249.2441 795.1721 251.1275 795.8107 252.9833 795.9117 253.6087 795.8582 254.0103 795.5846 254.3381 795.1592 254.5184 793.7296 254.821 793.3345 255.0088 793.1531 255.2714 793.1027 255.7873 793.1964 256.0558 794.7506 258.7514 794.8283 259.83 794.5424 261.2393 793.8509 262.0461 792.5452 262.912 792.1797 263.5382 792.3395 264.3477 792.7834 265.0071 793.5246 265.407 796.7663 266.768 797.9444 267.7052 799 267.7421 798.9422 268.0814 798.6781 268.3394 797.3447 268.9702 796.5861 269.6722 794.7089 273.3556 794.2672 274.5597 793.9106 275.8015 793.8291 276.4374 793.8924 276.9268 793.8893 277.0583 793.5675 277.5158 793.4903 277.6464 793.089 278.7787 793.0445 279.0055 792.6736 279.9317 792.5894 280.078 792.4464 281.0373 791.8612 281.2856 791.6217 281.227 791.4702 281.4899 791.2656 281.5879 791.2078 281.7385 791.2105 282.884 791.2591 282.9589 791.7923 282.945 791.2756 285.2841 791.2086 285.5873 790.1863 287.1745 789.6867 287.6889 789.3231 288.2889 788.5556 290.1527 787.8048 291.2414 787.6742 292.042 787.1318 293.2332 787.0925 293.4601 787.2501 294.5658 787.2223 294.8611 786.2184 297.6833 786.2751 297.9676 786.1896 298.7662 786.0574 299.1452 785.5773 299.9624 785.234 300.1819 784.9424 300.7197 784.1604 302.7723 783.7006 303.3837 783.4949 304.3591 783.491 304.839 783.6309 305.4004 783.6563 305.9719 782.7419 307.5938 782.718 307.5751 748.9524 281.0876 748.8957 281.0438 748.8954 281.0436 748.4497 278.2244 754.4766 271.0986 758.9309 259.4094 762.0467 256.5457 764.6436 256.3272 771.7475 248.6703 777.679 242.3263 780.8518 232.4015 Z" id="fips-54037"/>
<path d="M 209.4265 687.4051 217.9897 669.4073 220.9942 671.7873 222.7096 670.4226 218.6733 662.1347 223.46 659.5292 225.9371 654.8107 228.8052 653.3736 229.7998 652.4493 232.826 651.6372 234.2065 651.8574 236.5243 645.0113 236.7479 638.1131 247.2387 633.5184 248.6876 634.7333 251.7358 634.3752 253.9542 635.4811 292.6335 668.7367 292.0394 669.7576 291.7053 670.7382 291.6994 671.348 291.8167 671.9342 292.0954 672.4241 288.6926 678.2188 294.2625 685.9371 291.6334 687.2589 291.026 687.663 289.181 689.6698 285.7912 692.5524 282.6863 694.3811 281.3966 694.8928 280.721 695.0592 279.5575 695.5949 277.9385 696.5059 274.8464 697.2672 273.6318 697.4111 272.5969 697.1368 272.4027 696.9858 272.2639 696.453 272.7753 695.5067 272.6967 695.1531 269.9756 695.711 269.2188 696.0568 267.9125 696.4247 265.6792 696.8166 263.1502 697.615 255.3923 698.7948 253.6009 699.152 250.653 699.9983 245.7064 701.9125 242.9594 702.6836 241.6207 703.196 239.7727 704.2047 235.3437 707.2908 231.9649 708.9622 223.8317 701.9362 216.3246 695.4415 209.4265 687.4051 Z" id="fips-54055"/>
<path d="M 244.5362 335.3497 248.816 332.3441 251.6339 332.8981 254.2131 337.3035 261.119 340.1678 265.3415 339.8338 264.9032 343.2881 270.1739 349.9678 268.9418 350.6991 270.29 355.9213 268.4987 357.888 269.4423 362.5877 270.2337 373.8137 268.6734 374.9965 268.6608 378.8573 265.28 382.5862 261.3927 384.8222 262.1589 387.5992 265.4791 391.8036 266.9261 390.7816 270.6473 393.7771 272.97 400.5698 265.3358 410.9553 256.8223 422.5392 253.862 416.9052 250.3189 418.5548 249.0656 417.029 244.6866 415.8016 242.5841 409.1503 243.4345 405.1734 242.5585 402.5929 242.6554 395.8586 238.7883 390.0829 233.6998 384.6895 235.2611 383.6253 234.2073 377.9643 235.728 378.1969 234.8487 374.2072 230.7127 372.1959 232.0691 366.4362 228.652 363.7524 230.2602 363.2959 228.1251 360.1291 225.6166 359.3127 226.5752 354.8512 244.5362 335.3497 Z" id="fips-54013"/>
<path d="M 24.4562 461.431 27.9261 459.9826 32.3376 458.698 34.4004 458.2605 36.2132 457.7348 36.4827 457.6566 41.3259 455.8232 43.7721 456.9098 45.0729 456.8458 48.612 456.1197 51.7992 455.6903 53.4919 454.9827 54.5426 454.0098 55.5348 452.2365 56.2542 450.1251 56.5168 448.4581 56.8487 446.9955 57.5756 445.4437 57.9435 444.2815 58.1618 442.6045 58.066 439.8346 58.266 438.6935 58.7127 437.4111 59.1344 436.6071 59.4959 435.5314 59.969 431.0024 59.9184 428.4205 59.9937 427.8598 60.3652 427.1173 61.0568 426.3795 63.1851 424.1087 63.6467 423.7632 65.1854 423.208 66.7486 423.1111 67.8043 423.1923 71.6481 424.7376 72.1697 424.6845 98.4302 449.5 98.7824 459.5032 99.4102 470.3529 96.5461 469.8224 91.2194 471.6702 87.8081 476.4613 80.1101 477.9337 78.1402 477.2564 74.6571 483.2137 70.8872 483.1277 71.5033 483.4361 72.9332 487.7619 67.3619 491.2874 63.3627 499.977 61.5723 500.1398 57.739 497.5636 55.5978 491.6797 57.4193 487.6897 56.9527 486.1169 59.4736 484.3191 61.7843 484.4069 58.2558 479.2652 55.6536 478.5717 53.0018 480.1032 53.2992 481.9602 50.9404 483.561 50.6022 483.8359 32.9774 468.7991 27.2265 463.8539 24.4562 461.431 Z" id="fips-54011"/>
<path d="M 144.9498 407.2202 148.6918 406.647 149.1501 406.7422 157.2418 418.6953 151.8946 424.9186 150.2449 424.2519 147.4441 428.0432 148.7951 433.7587 147.5954 439.9059 149.5051 441.2739 151.9818 450.0346 151.8198 451.9957 136.2261 459.2467 135.6906 459.1939 133.2577 460.0885 131.5658 460.9331 126.7241 463.718 123.5838 465.5782 122.8584 468.9232 120.7864 480.8346 109.7174 490.8508 108.2353 491.0221 107.1852 492.9143 98.858 487.8463 99.9488 478.0943 99.4102 470.3529 98.7824 459.5032 98.4302 449.5 97.3302 421.7093 114.9102 411.8485 115.8769 411.6007 144.9498 407.2202 Z" id="fips-54079"/>
<path d="M 195.0041 552.1025 194.5786 553.8049 198.3313 556.128 201.9172 555.0358 207.4053 555.9979 212.9132 554.461 216.9921 559.5912 221.1805 561.3292 220.3602 563.529 221.3352 572.7014 257.7704 575.7361 257.8506 578.8783 253.2485 579.1422 254.5581 580.9399 261.3856 579.4084 260.3532 584.1407 265.178 585.4156 273.3646 584.6941 278.7816 587.6337 281.8607 589.5985 282.653 592.9976 285.6867 595.2135 287.0971 598.5537 285.839 600.6385 283.1935 601.6287 282.3059 603.6531 286.3491 606.347 287.772 612.1361 289.7483 614.0984 289.4781 616.0628 286.0607 617.3809 286.5102 614.6299 283.6873 611.7712 278.389 609.2053 273.4359 609.3801 274.1596 612.6082 271.4623 615.3497 266.053 618.6947 265.0782 620.9895 258.8069 624.4454 258.9832 630.8456 253.9542 635.4811 251.7358 634.3752 248.6876 634.7333 247.2387 633.5184 236.7479 638.1131 236.5243 645.0113 234.2065 651.8574 232.826 651.6372 227.7436 646.9087 226.3543 648.0386 218.1243 642.7409 218.3676 637.7607 216.5214 633.339 204.3737 610.7885 199.9286 602.7801 194.3949 594.3617 191.3293 595.0409 185.1662 592.8178 184.8093 587.1542 182.8428 586.3939 178.9702 585.785 177.6082 582.2958 177.2719 573.5547 178.8686 571.3 177.1784 569.5348 177.5908 566.1055 176.0329 564.3205 178.796 560.5198 178.6655 558.8119 181.5219 555.3655 183.5567 555.3233 186.7075 551.7955 189.6616 553.3638 195.0041 552.1025 Z" id="fips-54081"/>
<path d="M 36.2719 577.4199 40.6485 580.0557 39.2026 575.7664 55.4944 559.2691 55.5954 559.237 74.5902 553.1278 73.4799 555.6233 76.0506 558.2506 78.799 566.1876 85.0375 568.9912 84.4061 573.4659 87.0688 577.3455 86.7194 578.8029 81.4661 581.4277 83.4387 584.1887 83.6163 587.6352 88.5331 590.1798 87.7788 592.2275 88.7116 596.617 87.0206 596.6524 85.9041 600.5965 87.6279 600.0331 90.5665 603.8405 90.6415 603.8565 91.4118 610.2672 98.2257 610.3694 101.1843 617.3737 105.0101 621.2268 105.9096 623.1773 106.1777 621.8266 108.2991 617.4901 114.0095 616.9261 116.393 614.7362 119.1056 615.0869 120.9776 619.1086 125.5321 617.3196 127.173 615.5105 129.5605 618.5683 131.5983 616.9853 135.4405 620.5317 137.3487 619.4746 138.4919 625.5239 137.4607 628.8818 133.0162 632.428 131.9304 638.4026 128.3643 639.8948 128.3124 642.5783 119.4354 647.0067 117.1684 650.1308 116.3589 650.0497 116.5301 649.8791 116.5904 649.6371 115.499 648.6308 113.7555 648.1387 113.2038 647.5687 113.1123 647.3245 113.1385 646.815 113.7347 646.2473 113.7318 646.109 113.4022 645.9424 112.1535 646.6913 111.6423 646.5935 111.4709 646.3099 111.5233 645.6104 111.6071 645.3925 111.5386 645.1961 111.2115 645.1868 109.848 645.6672 109.5727 645.3489 109.7451 644.6288 110.2329 643.934 110.3094 643.5491 109.4659 642.813 108.4335 643.0221 107.6893 643.6497 107.4175 643.7601 106.5905 643.5338 106.3287 643.5967 105.7377 644.46 105.4987 644.6044 103.2794 645.3898 102.984 645.4756 102.1977 645.3969 101.8777 645.2345 101.725 644.3509 101.409 643.9265 101.0578 643.9307 100.3489 644.3912 99.7589 644.5058 98.4375 643.432 98.2705 642.5577 98.1173 642.3456 97.4831 642.2452 97.1555 642.583 97.0867 643.0392 97.135 643.6022 95.4731 644.6288 95.0326 644.5934 94.4035 644.7692 94.0627 644.7211 93.8846 644.5801 93.8298 644.1317 94.0241 643.5296 93.9091 642.9894 92.4867 640.7804 92.1951 640.6091 90.6145 640.6701 89.8622 640.5344 87.7633 640.0632 87.7155 639.7815 87.5751 639.6458 85.3541 639.7156 84.1258 636.1948 84.1412 635.9045 83.9319 635.6482 83.6739 634.0528 83.2214 633.0305 82.9293 632.6109 81.356 632.2458 80.5457 632.756 80.2076 633.1124 78.8485 632.6985 78.7152 631.8673 77.6254 629.5097 77.0201 629.3994 76.8732 629.1109 76.8605 628.4533 75.6453 627.356 74.8756 626.5854 74.7169 626.1396 74.898 625.5543 74.1603 625.4044 74.0281 625.3776 73.9264 625.5092 73.0821 625.7714 71.639 625.2702 71.429 625.3523 71.2725 625.6307 71.115 625.6948 70.2304 625.8268 69.6055 625.7525 69.2527 625.5724 69.3949 625.2985 68.5301 623.964 68.5238 623.783 68.7221 623.553 69.1298 622.7166 69.1345 622.431 68.7039 622.0901 68.0076 621.7401 67.7933 621.2267 67.7155 620.1964 67.6247 619.9566 65.4678 618.1761 65.2412 618.1055 64.7214 618.2682 63.3296 619.0867 62.5323 619.1054 60.7659 617.8962 60.1025 617.5981 59.1613 616.2874 57.7506 616.235 57.459 616.6251 56.8698 616.4237 56.4432 616.1444 56.3978 615.7671 56.4968 615.5356 56.4713 614.5821 56.4157 614.5145 56.2178 612.8674 56.1974 612.6812 55.9487 612.5339 55.3483 611.8939 55.1317 611.2847 55.293 610.7591 56.0699 610.0253 56.1933 609.4894 55.9628 609.1231 55.4963 608.6999 54.7208 608.5664 54.4683 608.3618 53.925 607.1799 53.869 606.3403 53.7749 606.0385 53.0457 605.4485 52.7939 604.1579 52.7428 603.047 52.6506 602.8975 52.5202 602.7617 51.3513 602.3543 50.3476 601.355 50.2984 601.3059 50.2682 600.8718 51.1696 599.8071 52.2996 599.2476 52.3817 598.3821 51.3642 596.9484 51.0188 596.9086 50.7417 596.7511 50.3139 596.2715 50.303 596.0809 49.9926 594.3697 49.7304 594.1839 49.5225 593.8703 49.4947 593.5745 49.6214 593.129 49.4225 592.0678 49.3013 591.9512 47.9256 591.6922 47.0565 590.4425 46.7558 590.2796 45.9235 590.1452 45.5007 589.9278 45.3113 589.6434 45.2223 589.3225 44.8659 588.8349 44.5098 588.5948 43.707 588.4939 43.2952 588.3093 43.1317 587.2008 42.9667 586.6592 42.059 585.2883 41.8441 585.1172 41.6497 585.1135 39.739 582.6366 38.4149 581.4528 38.2442 581.2111 37.746 579.5054 37.5871 579.3878 36.8962 579.3074 36.3888 579.0592 36.3915 578.9162 36.2719 577.4199 Z" id="fips-54059"/>
<path d="M 364.025 191.8707 381.9419 191.8057 382.0709 191.8013 392.8506 191.7569 419.3192 191.6144 444.8941 191.536 454.9846 191.4928 455.0209 191.4925 462.1907 191.4243 469.2867 191.3534 469.3343 196.3281 465.9528 204.5953 465.3912 211.5727 461.7871 217.7291 455.8466 227.8418 450.779 236.4542 447.9216 241.2352 448.8104 250.875 441.6817 247.4175 436.9931 245.2637 432.8293 240.799 430.0345 240.2768 429.2997 237.2921 429.1333 237.0805 428.8021 236.8871 428.4678 236.9172 428.3483 236.7939 428.0799 236.8618 427.7541 236.6421 427.376 236.6227 427.3294 236.4447 427.1947 236.3769 426.6416 236.4845 424.8198 232.8664 411.0997 220.5583 407.02 214.7633 404.1464 214.7561 381.4692 214.5898 375.8963 214.5917 372.6699 210.0828 368.1626 209.307 368.2304 200.3263 366.2645 192.5809 364.025 191.8707 Z" id="fips-54061"/>
<path d="M 278.7816 587.6337 301.6164 577.336 310.6271 584.2326 322.258 597.246 324.2907 599.4124 325.0905 605.9197 325.5665 609.485 319.5029 620.7339 318.8566 621.8664 311.0916 635.8898 302.7698 649.5043 292.8129 668.9988 292.6347 668.7347 292.6335 668.7367 253.9542 635.4811 258.9832 630.8456 258.8069 624.4454 265.0782 620.9895 266.053 618.6947 271.4623 615.3497 274.1596 612.6082 273.4359 609.3801 278.389 609.2053 283.6873 611.7712 286.5102 614.6299 286.0607 617.3809 289.4781 616.0628 289.7483 614.0984 287.772 612.1361 286.3491 606.347 282.3059 603.6531 283.1935 601.6287 285.839 600.6385 287.0971 598.5537 285.6867 595.2135 282.653 592.9976 281.8607 589.5985 278.7816 587.6337 Z" id="fips-54089"/>
<path d="M 292.8129 668.9988 302.7698 649.5043 311.0916 635.8898 318.8566 621.8664 319.5029 620.7339 325.5665 609.485 325.0905 605.9197 326.4949 606.8311 350.8845 614.3456 358.0289 613.8989 360.1167 615.8506 369.338 608.9516 369.5442 612.0158 371.6146 610.9421 370.8761 613.9724 374.7644 614.6142 376.2281 610.8112 378.2932 611.4756 377.0647 613.7813 378.9451 615.0324 381.912 615.3828 385.5589 614.1336 386.1905 615.7559 386.2037 615.8066 388.3461 621.3453 389.8432 623.0241 389.8385 623.0352 390.318 623.6203 390.3555 623.6404 390.7438 623.7429 390.751 623.7398 391.0049 623.8272 391.0066 623.8312 392.4609 624.3975 392.4671 624.3935 394.9664 625.3572 397.9916 627.4055 397.5998 628.3606 397.1688 629.0129 394.83 631.7482 393.2664 632.7625 391.7649 634.1455 391.0013 634.5906 389.8847 635.0579 387.8939 636.2447 385.8469 637.6485 380.3109 640.6747 382.9808 644.4272 382.6405 644.8693 381.5227 645.4349 381.0056 645.513 380.4939 645.7289 380.0315 646.5165 383.4965 648.3494 386.4115 646.4408 387.9416 647.057 385.0873 652.3202 383.4322 653.2505 383.5157 653.4473 382.6131 653.8533 381.6534 654.2857 380.5864 655.0182 379.7726 655.3604 377.8332 655.6984 374.0314 657.2217 374.6399 658.235 373.6048 658.9457 373.1928 659.4733 372.1444 660.0353 371.4468 660.2481 368.5858 661.9308 368.1017 662.3464 364.3332 664.5283 361.4681 666.9788 360.0911 667.8317 359.1092 668.2022 357.8707 669.4783 356.5531 669.9723 356.0899 670.1459 352.9024 667.6286 352.501 665.609 353.2078 662.9094 350.1608 657.9357 349.828 658.3992 349.5425 658.5826 348.1651 658.9297 347.3611 658.8342 346.6967 658.8856 346.519 659.0352 345.4727 659.427 344.6386 659.3928 343.4496 659.6292 341.8965 660.4184 341.0949 661.0847 337.8649 663.1505 337.1409 663.8494 336.9531 664.2356 335.495 665.3319 332.7526 666.7324 331.8743 667.4552 331.7839 668.0091 331.1723 668.0047 330.1807 668.2549 329.8461 668.4417 329.352 668.8275 329.3231 668.9973 329.4233 669.2231 327.9445 670.3305 326.6723 670.8779 326.1601 671.279 324.9325 671.9786 324.7905 671.9795 321.5485 673.9718 320.3688 674.5704 318.1366 676.0521 316.4367 676.8642 315.094 677.3716 313.7715 678.1088 312.7042 678.5575 311.4654 679.0627 310.937 679.0747 309.0892 680.1472 307.4021 680.6686 306.32 678.3123 306.3008 678.2183 305.3882 677.2003 305.2091 676.8602 305.2195 676.4141 305.0773 676.0406 304.0643 675.8138 302.6504 675.7822 302.3895 675.796 301.451 675.3081 301.2862 674.6265 301.4157 674.0503 301.018 673.6017 300.5441 673.3435 296.4513 669.8289 296.2484 669.5573 295.5884 669.4906 295.1673 669.9922 294.8183 670.0249 294.1037 669.4679 293.6898 669.2921 293.0562 669.2593 292.8316 669.0265 292.8129 668.9988 Z" id="fips-54063"/>
<path d="M 123.4724 365.8039 125.0976 366.6338 126.0195 366.7951 126.6044 366.7179 128.9528 365.3152 131.5594 363.4741 132.0443 362.9512 133.2538 361.1624 133.819 359.3632 133.705 358.7156 134.005 355.4824 135.0673 353.7506 136.1457 352.3991 136.8253 351.95 137.204 351.8083 138.0682 351.7337 138.949 351.9217 140.2484 352.7827 141.8022 354.8037 142.2822 355.2873 143.5219 356.1379 144.2303 356.436 145.3815 356.8333 146.0844 356.891 146.6569 356.8532 147.2376 356.616 147.6732 356.2661 147.9198 355.8292 148.3187 354.668 148.1915 353.9157 146.1619 351.4855 145.4808 350.8655 144.7016 349.9717 144.4038 349.3263 144.2798 348.3603 144.2443 348.0838 144.5785 346.4568 145.2707 344.808 145.1557 344.5337 145.1224 343.8894 145.325 342.8586 145.5753 342.1177 145.9211 341.4637 146.7038 340.793 147.0393 340.2844 147.1953 339.4538 147.2181 337.6434 146.7455 336.6593 145.8564 335.3578 143.6697 333.1656 142.589 332.3663 141.462 331.3893 140.9845 330.8212 140.1 329.2488 139.6758 328.3275 139.4184 327.013 139.31 325.4298 139.3743 324.2236 139.6242 323.6441 139.9021 323.3979 140.3562 323.2581 141.1312 323.289 141.9198 323.5073 143.1069 324.1677 143.9435 324.4281 144.6044 324.5405 145.5582 324.4902 147.296 323.7628 147.9638 323.334 149.3356 322.1439 150.1734 321.0096 150.1735 321.0095 176.7966 335.7149 184.7165 340.11 185.0871 345.9161 181.8348 348.0323 183.6494 352.8448 189.3193 358.3714 185.2895 361.7152 186.0625 377.6987 183.8485 397.9755 181.6764 409.3971 185.5287 421.8482 176.34 429.1803 167.4005 433.8081 157.2418 418.6953 149.1501 406.7422 148.6918 406.647 144.9498 407.2202 138.4381 400.0775 142.0968 396.307 135.7572 386.5353 124.3665 368.9668 123.2177 366.5036 123.4724 365.8039 Z" id="fips-54035"/>
<path d="M 581.4195 241.1309 583.3662 241.8265 583.6146 241.389 583.6917 240.6531 583.7675 239.9299 583.9895 239.4639 584.2941 239.2539 584.975 239.1378 586.5036 240.5696 586.7237 241.284 586.7167 241.7031 587.0233 242.4408 587.6007 242.9216 587.9527 242.9869 589.1688 242.5615 589.7141 242.5572 590.8684 243.771 593.0027 245.0003 595.9376 246.2558 597.3568 247.344 597.797 248.0693 598.1198 248.3443 599.3228 247.9981 599.5159 247.9425 599.7119 247.52 599.9752 243.068 601.0464 242.5292 601.7758 241.7211 602.2576 240.8504 602.2057 240.6085 601.8202 240.2821 601.6343 239.7142 601.6811 239.4276 602.2392 238.8461 603.0546 238.3217 604.1132 238.1309 605.5397 238.3428 605.8025 238.1952 607.0097 236.0592 609.1013 232.8178 609.7337 231.3875 610.5536 230.606 611.6682 230.8713 612.0329 230.855 612.3589 230.5655 613.2507 228.7264 613.2554 228.493 615.9 224.4128 616.0378 223.9531 615.9849 222.7303 617.7447 221.3437 617.9821 221.1566 619.3138 221.5355 619.9493 222.0987 620.7597 222.4935 621.4994 222.2553 621.9957 220.9907 621.7237 220.2404 620.903 219.2292 619.8957 219.0312 619.9043 216.6384 620.0942 216.3425 621.0376 216.2955 622.0783 214.7459 622.0763 214.1584 622.4946 212.5845 623.7106 212.8208 623.9349 213.1452 624.352 213.2066 624.6612 212.7766 624.7237 211.9894 624.6134 211.2642 623.6318 208.5192 624.5197 206.4622 624.7338 206.402 625.3164 206.2382 627.7996 204.6484 629.2933 204.0356 629.4317 204.5323 629.3927 204.9701 628.9644 205.9569 628.4877 206.1539 628.2538 206.4708 627.372 209.0863 627.3795 209.4514 627.5375 209.6434 628.8212 210.0924 629.8479 210.1828 630.8694 209.3142 632.1669 208.6028 633.0722 208.8287 634.1589 209.5099 634.6081 210.7858 634.5821 211.1198 633.7527 212.018 632.4861 212.8779 632.1364 212.7089 632.1071 212.2858 631.7544 212.0068 630.3147 212.0283 629.0994 212.3193 627.718 213.3205 627.5281 213.726 627.524 213.8787 628.1599 214.7059 628.5085 214.8718 628.7741 215.1793 629.1141 215.8824 629.1503 216.3372 629.2905 216.7313 630.4826 217.8171 631.0419 218.1105 632.7022 218.3152 633.1946 218.062 633.6656 217.0236 633.9423 216.8798 634.666 216.8027 634.8118 217.4091 635.0336 219.1374 635.9735 220.7367 636.2029 221.4841 636.2704 221.4948 637.8489 221.7446 638.0835 221.8492 638.8557 222.9231 639.1109 223.113 641.1226 223.6133 641.4173 223.8738 641.5554 224.1186 641.6499 224.7689 641.9853 225.1523 643.1217 225.5284 644.227 226.2287 645.3321 226.2483 646.1101 226.9365 647.1723 227.2698 639.9353 235.2344 635.8677 242.4643 629.8973 245.9093 626.4912 250.6523 626.1951 253.196 623.2466 260.7394 616.7765 270.5318 611.7833 271.0573 605.619 278.4965 604.9861 281.4339 599.805 285.321 596.5616 290.1714 571.4023 275.0155 554.7164 273.2774 549.166 271.9321 549.6297 271.5574 551.8761 270.454 552.0996 270.1702 552.0406 266.6615 552.2992 266.1211 554.9298 265.6601 555.9805 264.6092 557.4121 264.6926 558.4339 264.2268 560.1652 261.5878 560.9432 259.8567 561.3227 259.5058 561.6777 259.462 562.3043 259.759 563.9271 259.3503 564.2936 258.5562 564.6737 258.4199 565.3363 258.5614 565.8586 258.2971 566.1072 257.4861 565.9493 256.7073 566.7414 254.404 567.0795 254.1643 567.4011 254.1591 567.9876 254.3581 568.3203 255.0296 568.6454 255.2327 568.9872 255.2273 569.309 255.2221 569.5678 255.0619 569.742 254.6424 569.8499 253.8596 570.0429 253.3618 570.6829 253.1433 571.4045 253.0014 571.7809 252.6569 571.9099 251.9517 571.824 251.2542 571.8714 250.6489 572.664 249.8739 573.0633 249.9543 573.4038 249.8707 573.6406 249.6065 573.7965 249.3176 573.8462 248.8443 573.8707 248.3394 574.2303 247.7427 575.2078 247.2215 575.7956 246.6686 577.1577 243.6929 577.0306 243.0719 576.6853 242.4734 576.5478 242.0982 576.5729 241.8524 576.7017 241.7181 576.9468 241.5629 577.2366 241.4636 577.7813 241.6306 579.0791 241.8229 581.4195 241.1309 Z" id="fips-54057"/>
<path d="M 319.045 101.1705 321.7189 96.107 322.106 95.5647 322.376 95.2986 322.4071 95.2838 325.2814 95.2167 325.2539 95.8894 325.5189 95.9603 325.3264 96.5583 325.2374 96.6625 331.429 97.0219 336.1457 97.0654 342.8324 99.0537 348.282 100.6657 348.3148 113.9467 348.3239 117.6385 348.3165 117.8649 348.3127 130.4709 327.1413 128.204 324.3852 127.9356 320.3868 127.5286 314.1854 126.942 314.4675 126.0863 314.4851 125.7429 314.5655 124.1724 314.5661 123.6522 314.2182 121.6545 314.0273 121.4671 313.5828 120.3638 313.3617 119.0112 313.3469 118.1374 313.6348 117.2224 314.6078 115.8921 317.4285 113.7316 317.8748 113.1703 318.0505 112.7752 318.2742 111.964 318.4345 110.82 318.3872 110.3206 318.2124 109.4916 318.1005 109.3184 317.8245 107.8237 317.9088 105.1109 318.3429 103.72 318.5555 102.3488 318.7776 101.6766 319.045 101.1705 Z" id="fips-54069"/>
<path d="M 222.8633 302.9555 222.3282 299.3912 229.2245 286.0283 232.4238 285.8012 235.4016 277.5704 243.654 278.0936 251.5586 276.4016 258.0708 272.8724 261.3253 274.6585 263.9071 273.4013 265.1673 268.933 269.818 268.819 271.9523 270.8812 273.0865 269.5954 277.0464 271.2124 279.3137 269.08 280.1769 264.1131 282.027 260.9173 285.4629 263.8504 286.4753 263.2205 289.796 266.851 289.6154 273.0994 288.3698 274.2434 289.7277 277.8708 288.9477 280.6714 284.8913 285.1021 301.0691 319.1798 301.4188 321.2473 297.4943 324.7959 294.3358 324.4668 293.6634 326.5384 290.4723 326.7507 285.0968 332.2816 276.3497 334.5271 270.3546 339.8554 265.3415 339.8338 261.119 340.1678 254.2131 337.3035 251.6339 332.8981 248.816 332.3441 244.5362 335.3497 241.7694 333.0831 234.482 333.1489 233.9043 334.9348 230.3498 334.3293 229.84 329.9866 226.6692 329.4326 229.2824 326.6157 228.2776 319.2975 226.3455 319.1814 224.4285 313.9604 222.4921 314.5538 217.7727 310.1055 220.762 308.7196 219.8037 306.6768 222.8633 302.9555 Z" id="fips-54085"/>
<path d="M 157.2418 418.6953 167.4005 433.8081 176.34 429.1803 185.5287 421.8482 187.8452 428.1214 191.3675 432.7985 193.6134 435.747 194.6426 435.0152 213.5125 436.9667 220.9644 438.3774 225.7045 441.1111 234.4597 439.0881 238.7596 439.9909 224.351 451.2277 224.2119 452.1751 228.7581 472.1967 230.7047 484.3868 232.3188 494.8743 232.2855 494.9161 218.5409 512.0881 216.2044 511.7004 216.2318 512.8169 216.6025 513.338 216.0544 514.3624 215.5206 516.0706 207.4053 555.9979 201.9172 555.0358 198.3313 556.128 194.5786 553.8049 195.0041 552.1025 193.4541 547.6531 194.5434 543.8273 189.6728 535.3912 187.172 536.7558 181.9292 533.5042 182.5273 529.1883 185.5456 525.9882 182.5881 524.0877 179.0735 519.8501 176.8175 520.7126 173.429 517.1643 171.5283 512.952 166.2547 512.2233 163.9878 510.6367 163.3739 506.8712 164.8334 503.2116 162.2404 502.6146 157.7714 503.6764 155.9925 501.5502 151.4893 502.912 152.2122 504.3403 149.5517 507.7336 146.6907 506.2904 145.1111 501.5812 141.9421 500.9094 141.6712 504.2902 137.5669 505.4706 136.9264 507.4735 138.9548 511.567 135.8077 509.9445 133.8092 505.1613 133.898 502.394 137.8099 503.0245 137.6846 495.3381 139.0087 493.8376 138.4425 487.7102 136.8087 483.1001 134.5808 481.6625 131.8693 483.536 125.5583 483.1589 120.7864 480.8346 122.8584 468.9232 123.5838 465.5782 126.7241 463.718 131.5658 460.9331 133.2577 460.0885 135.6906 459.1939 136.2261 459.2467 151.8198 451.9957 151.9818 450.0346 149.5051 441.2739 147.5954 439.9059 148.7951 433.7587 147.4441 428.0432 150.2449 424.2519 151.8946 424.9186 157.2418 418.6953 Z" id="fips-54039"/>
<path d="M 314.7342 322.0581 319.1407 323.1867 322.3107 316.691 326.269 312.6112 330.6777 313.0036 336.0828 307.2117 337.8428 306.9174 343.702 308.9381 344.1662 310.4981 348.6962 311.5902 350.4071 310.8688 356.8651 311.6437 359.4702 313.1382 383.8751 320.2778 383.1226 329.1021 382.1874 333.5338 381.0671 339.1036 378.4096 342.6197 379.844 347.2613 380.7845 348.246 380.5721 351.1173 376.2014 354.4231 377.802 355.0539 373.963 361.3234 373.0876 365.5218 369.9818 367.9867 367.9146 380.6847 366.3786 390.1553 369.0732 398.6308 360.601 398.7996 358.6346 396.2391 359.6345 394.1609 360.4351 388.2557 358.541 388.6798 357.6043 384.4053 354.0391 383.5235 355.88 376.6322 348.0219 370.6191 344.548 372.3975 342.2827 369.5289 338.1461 371.3495 336.5575 368.947 336.929 366.1871 334.5295 361.9239 320.3652 344.8287 316.5737 340.2174 314.7342 322.0581 Z" id="fips-54041"/>
<path d="M 596.5616 290.1714 609.6358 297.9427 618.965 300.8578 636.7241 307.6543 642.2812 307.9239 649.1074 312.442 654.5163 313.8166 657.84 309.194 664.5038 310.9034 673.2853 319.6161 672.6624 320.4114 671.9707 321.0676 672.0638 321.431 671.9411 321.9494 671.0157 323.3251 670.411 323.9303 669.5873 324.3033 668.2394 325.5596 667.6164 326.4191 667.3836 326.7403 667.0564 326.9523 666.0303 328.2267 665.6456 328.9704 665.1347 329.5968 663.2566 331.6325 664.263 332.7949 664.3882 332.8687 664.6737 332.7805 665.2729 333.1567 665.6525 333.7858 666.7853 334.4531 666.4937 334.8116 666.0797 335.0812 665.3709 335.773 665.011 336.3785 663.6316 337.9612 662.066 340.2827 661.831 340.7394 661.6918 341.3633 660.7897 342.8064 660.0838 344.2086 659.6464 344.5775 659.1839 344.7222 658.7927 345.3586 658.7602 345.7605 657.6508 344.7149 657.1663 343.3951 656.6619 343.4653 655.9643 343.8485 655.7383 343.1757 655.7312 342.3536 655.6381 342.0824 654.7944 342.1061 654.1747 342.4753 653.9715 342.7462 653.7236 343.2934 653.7308 343.7603 652.8042 345.429 651.4777 345.183 650.5792 346.7553 650.175 348.2026 649.5555 349.5462 649.0723 349.9047 648.4755 350.7757 648.3716 351.2731 647.7347 352.4107 646.1904 354.21 646.0002 354.1043 644.929 354.3476 644.4251 354.8962 643.4944 356.2881 642.3724 356.3888 641.0579 357.783 640.5006 358.5928 640.3394 358.7073 640.1005 358.6571 639.9064 358.3809 639.713 357.5654 639.9024 355.3934 639.8451 355.0043 639.8346 354.8998 639.7826 354.6459 639.848 354.0935 640.2183 352.1046 639.9985 352.4757 639.3687 353.0845 639.1104 353.2062 638.7606 353.1955 636.7215 353.997 634.893 356.3769 634.2588 358.1481 634.2896 358.5334 633.8533 359.0678 633.5721 359.6302 631.3817 361.0871 630.3508 361.4084 629.2669 362.494 628.9507 362.9299 628.6403 363.9866 628.4026 364.5082 627.6696 365.1446 625.8076 369.0179 625.3872 370.3914 624.7441 372.0739 623.8072 374.3012 622.8578 376.2705 622.0761 377.7891 621.6139 378.3994 619.574 381.8778 617.154 386.7488 616.8128 387.7474 616.2822 388.599 595.7299 370.8451 595.0638 371.4291 594.7338 371.8389 594.9753 372.7609 594.9541 372.9461 594.4263 373.6968 593.9969 375.0781 593.8163 375.8722 593.8546 376.2046 593.7927 376.3722 593.571 376.6675 592.9296 377.0742 592.1531 377.1711 591.7067 377.6159 591.0089 379.4389 590.964 380.5845 591.1301 380.8106 591.2095 381.6416 590.5521 383.0059 590.2318 383.2404 589.5994 383.2514 587.4225 383.0599 587.0384 383.3578 586.0832 384.4149 585.9793 384.9786 586.1987 385.4744 586.5118 385.7605 586.6458 386.008 586.7253 386.86 586.6813 387.1313 586.3255 387.1998 586.0223 387.4964 585.8595 388.415 585.7967 389.4776 573.1234 378.8799 576.5733 374.3129 581.5796 365.4881 580.6624 361.9859 582.5872 360.8921 587.0154 354.6978 580.9859 339.8766 581.5562 335.3504 579.5755 331.9703 584.6856 320.7558 589.0368 310.2565 587.8279 308.562 593.2304 299.0596 596.5616 290.1714 Z" id="fips-54031"/>
<path d="M 344.3648 252.6749 348.526 251.448 349.4787 246.5329 352.4607 244.2428 381.5319 250.8279 386.4344 251.1916 400.2165 260.0019 398.9811 262.4096 399.4759 273.4622 399.9779 285.4944 401.8915 286.2237 405.3428 291.3805 396.0108 306.2627 395.6619 318.3728 392.1846 320.881 383.8751 320.2778 359.4702 313.1382 356.8651 311.6437 350.4071 310.8688 348.6962 311.5902 344.1662 310.4981 343.702 308.9381 337.8428 306.9174 336.0828 307.2117 336.7853 303.9593 339.4618 305.5033 346.9471 301.2457 347.4356 298.3894 340.9415 296.0444 343.9872 293.1156 338.1225 288.5015 339.0348 283.262 334.7599 282.4525 338.3594 276.1051 341.1832 275.176 342.3232 271.8239 346.4221 267.0314 344.4438 265.7099 344.8965 261.3297 343.8502 257.9671 345.2435 256.5926 344.3648 252.6749 Z" id="fips-54033"/>
<path d="M 647.1723 227.2698 647.4038 227.3424 651.4257 226.7534 651.7588 226.5892 651.7812 226.3125 652.6666 226.2263 654.0406 226.5953 655.2798 227.0912 655.4446 227.2495 656.308 227.4116 656.7579 227.0654 657.0857 226.968 657.365 227.0295 657.49 227.1843 657.6598 227.7186 657.9043 228.0512 658.4468 228.4594 658.488 228.4904 659.7973 228.7371 660.8226 229.6141 661.5972 230.1109 661.7629 230.1559 661.9215 230.1989 663.3237 229.7341 664.0256 229.7471 664.4505 229.8803 665.0177 229.8059 667.9997 228.9772 669.0415 228.9251 670.2982 229.3636 671.9892 230.135 672.659 230.0667 674.1525 230.2646 674.7936 229.916 675.0582 229.886 675.6011 229.9872 676.6572 230.5287 677.1411 230.5459 677.5431 230.3937 682.5949 233.7521 697.3096 240.4865 696.946 241.2879 697.6559 241.8367 697.5781 243.0845 697.41 243.6756 697.3663 244.3054 697.5812 244.7259 697.5191 245.3513 697.3327 245.7791 696.4766 246.5894 697.3563 247.7985 697.57 248.472 697.3239 249.1415 696.881 249.9509 696.0395 250.9486 695.6192 251.66 695.5466 252.3916 695.8881 253.3899 697.2923 254.7998 697.2224 255.7156 698.3364 256.5318 696.5581 260.1543 695.3503 262.0009 694.6881 262.7662 695.4355 263.0613 697.6331 263.6399 698.9611 263.8675 699.2247 264.611 699.1791 264.8794 698.8696 265.522 698.6693 265.2743 698.4813 265.2906 697.8997 265.9942 697.8671 266.137 698.2256 266.4812 698.1004 266.8831 696.1697 271.0158 696.0024 271.3765 695.7546 271.3272 695.2565 271.4904 694.8824 272.9908 694.1933 273.519 693.7038 274.063 691.9607 276.2388 691.7502 276.5474 691.7681 276.9604 691.5268 277.5641 690.8173 278.7437 689.9708 279.109 689.4133 279.9747 689.4902 280.0735 689.3406 280.3442 687.5605 282.7937 686.7529 284.1524 686.895 284.4427 687.2951 284.5694 687.5332 284.4965 688.4374 285.1344 689.983 286.8529 690.0029 286.9055 689.2845 287.4766 689.1774 288.147 689.1147 289.5702 687.2016 292.4623 686.2498 293.6206 685.6318 294.351 685.3349 294.6906 685.1215 294.96 684.9715 295.1774 684.203 296.2263 683.954 296.5896 684.2815 296.8714 685.221 296.9387 686.1933 297.5246 686.2978 297.7604 685.6127 298.8049 686.019 299.7226 688.3818 301.7534 689.1981 302.1149 689.7427 302.8203 688.3449 304.3971 688.1364 304.74 686.0121 305.9752 684.5572 308.307 684.409 309.6146 684.158 310.3034 680.9536 314.2916 679.8599 314.4199 679.4053 314.7749 679.2929 315.015 678.8267 315.4256 678.4803 315.574 678.1571 315.18 677.9764 315.0916 677.0434 315.6277 675.3191 316.9958 675.1959 317.4175 673.8769 319.0263 673.2853 319.6161 664.5038 310.9034 657.84 309.194 654.5163 313.8166 649.1074 312.442 642.2812 307.9239 636.7241 307.6543 618.965 300.8578 609.6358 297.9427 596.5616 290.1714 599.805 285.321 604.9861 281.4339 605.619 278.4965 611.7833 271.0573 616.7765 270.5318 623.2466 260.7394 626.1951 253.196 626.4912 250.6523 629.8973 245.9093 635.8677 242.4643 639.9353 235.2344 647.1723 227.2698 Z" id="fips-54027"/>
<path d="M 211.3186 270.2988 213.6315 270.0853 215.1396 269.558 215.939 269.0915 217.0772 268.1115 218.6026 267.0013 219.6657 266.3635 222.0615 264.4571 223.2388 263.6667 225.8381 262.6702 226.7663 261.7346 227.5675 261.2975 229.3263 261.1468 231.052 260.4732 232.2181 260.4221 235.1488 261.3187 235.5042 261.2981 236.1587 261.0073 236.8466 260.3738 237.0766 259.8923 237.2083 259.0326 237.1245 258.0084 237.2231 257.6903 237.6463 256.9472 238.1349 256.193 238.9145 255.258 240.4846 253.5492 241.2604 252.0622 241.849 251.4827 242.2325 251.1546 243.7324 250.3201 244.8783 249.9085 246.6463 249.505 248.9613 249.3934 249.5574 249.1263 249.8642 248.8783 250.5108 248.2368 251.1261 247.4078 251.6552 246.4989 254.0169 245.304 256.0172 246.5363 258.5067 244.4957 262.0023 245.3916 262.4984 244.5379 261.3475 242.6627 264.3338 244.3045 266.3731 244.4938 267.0492 245.6792 267.4365 249.8931 268.8044 257.8723 269.818 268.819 265.1673 268.933 263.9071 273.4013 261.3253 274.6585 258.0708 272.8724 251.5586 276.4016 243.654 278.0936 235.4016 277.5704 232.4238 285.8012 228.9688 280.7702 218.8209 279.412 218.8743 275.7052 215.022 273.096 212.4616 274.732 211.3186 270.2988 Z" id="fips-54073"/>
<path d="M 117.0754 543.2698 121.5701 542.4175 113.5024 540.2874 110.6615 537.9895 112.0943 529.8159 115.1457 525.8679 113.9532 523.7606 115.547 519.9071 118.2583 516.8267 122.1157 519.1398 126.197 520.1201 124.7175 517.1708 125.0262 513.6938 127.3616 514.6214 127.4221 511.886 130.8134 512.717 130.7494 510.273 133.8092 505.1613 135.8077 509.9445 138.9548 511.567 136.9264 507.4735 137.5669 505.4706 141.6712 504.2902 141.9421 500.9094 145.1111 501.5812 146.6907 506.2904 149.5517 507.7336 152.2122 504.3403 151.4893 502.912 155.9925 501.5502 157.7714 503.6764 162.2404 502.6146 164.8334 503.2116 163.3739 506.8712 163.9878 510.6367 166.2547 512.2233 171.5283 512.952 173.429 517.1643 176.8175 520.7126 179.0735 519.8501 182.5881 524.0877 185.5456 525.9882 182.5273 529.1883 181.9292 533.5042 187.172 536.7558 189.6728 535.3912 194.5434 543.8273 193.4541 547.6531 195.0041 552.1025 189.6616 553.3638 186.7075 551.7955 183.5567 555.3233 181.5219 555.3655 178.6655 558.8119 178.796 560.5198 176.0329 564.3205 177.5908 566.1055 177.1784 569.5348 178.8686 571.3 177.2719 573.5547 177.6082 582.2958 178.9702 585.785 182.8428 586.3939 184.8093 587.1542 185.1662 592.8178 182.499 593.1038 176.637 597.6367 174.8618 598.5198 169.8179 593.1807 165.8543 590.1408 165.9137 589.4304 163.0902 584.3249 160.7021 583.8798 154.5565 585.9749 150.8596 588.6154 149.5331 585.3945 147.3573 584.5147 147.2299 581.4542 142.5075 579.2727 141.2931 576.5105 145.1341 572.6659 144.3143 568.6196 141.5988 562.5087 138.3707 562.0929 136.0687 559.7908 128.5575 559.4659 121.9163 556.7108 120.4132 553.8803 113.9431 554.3497 109.1326 551.2407 117.0754 543.2698 Z" id="fips-54005"/>
<path d="M 289.2902 528.4977 310.963 532.1136 317.1617 533.6147 330.5307 522.4525 337.759 516.2525 346.5117 508.7546 362.2079 494.4267 374.7261 503.0308 374.2591 526.2389 390.464 540.2768 398.4516 541.2062 401.4302 540.9941 406.1231 542.3944 416.3084 538.2344 440.3922 536.4468 439.0482 539.7836 438.5546 540.4911 438.1242 541.3935 438.1454 541.6556 438.4134 542.2035 438.1667 542.9432 437.9133 543.4613 437.6746 543.6288 437.3971 543.6716 437.0938 543.9829 436.2322 545.7445 436.2054 545.9675 436.3632 546.2742 436.1535 546.7809 435.5036 546.9802 434.7125 548.1079 434.5652 548.538 434.6511 549.0539 434.5336 549.5361 434.0078 550.6122 433.4999 551.2555 432.456 551.6656 431.917 552.1264 431.8041 552.3748 431.8612 552.6749 431.7668 553.0389 429.9685 554.5793 428.0006 556.4622 426.0166 558.647 425.5854 558.7806 424.7238 559.7385 424.6407 559.8308 423.5226 560.6419 423.0498 560.8107 421.752 561.8485 421.603 562.3888 420.7246 563.2478 419.7254 564.4978 418.1615 566.8864 417.1151 566.7261 416.4816 567.6063 414.8386 569.3647 414.4995 569.9238 414.4785 570.2561 414.7471 570.5536 414.7064 571.1492 414.2369 571.3567 413.84 571.0861 413.7417 571.108 412.7713 571.9059 412.623 572.1023 412.5311 572.6224 412.3861 572.8723 410.7484 574.3134 410.0594 573.9347 409.8631 573.6271 409.5935 573.4295 408.7971 574.4882 407.4291 575.8897 406.3275 577.5612 405.8271 578.5983 405.8221 579.0307 405.0664 580.2907 404.2291 580.5662 404.0262 580.9996 403.9489 581.7982 404.6401 583.2639 404.2508 583.5587 403.4934 583.6876 402.1399 584.9387 401.3248 585.8273 400.7986 586.5095 400.3123 587.6185 400.2096 588.2331 399.4756 588.938 398.6127 589.5199 398.4962 589.586 398.2211 589.5293 396.8362 591.8029 396.4886 592.6838 396.4477 593.1686 396.6988 593.2959 398.0012 595.0703 398.2438 595.042 398.693 595.311 398.7356 596.2489 398.5983 596.465 398.5327 596.5463 398.4112 596.3972 397.7201 596.0843 396.7868 595.9643 396.3004 596.0879 396.0473 596.6475 394.5097 597.9394 393.6039 598.1791 392.8816 599.2955 393.0297 599.6397 393.138 600.5112 392.8376 600.7714 392.0494 600.6693 391.8849 600.7299 391.018 604.4264 391.4254 605.4276 392.7926 606.1904 392.7613 606.7241 392.6225 607.0081 391.7928 608.1115 390.7633 608.4955 389.5204 610.0097 389.0265 610.779 387.0428 613.167 385.8918 613.7019 385.5589 614.1336 381.912 615.3828 378.9451 615.0324 377.0647 613.7813 378.2932 611.4756 376.2281 610.8112 374.7644 614.6142 370.8761 613.9724 371.6146 610.9421 369.5442 612.0158 369.338 608.9516 360.1167 615.8506 358.0289 613.8989 350.8845 614.3456 326.4949 606.8311 325.0905 605.9197 324.2907 599.4124 322.258 597.246 310.6271 584.2326 301.6164 577.336 311.0715 578.1469 300.9034 560.6398 307.644 553.1341 304.9813 552.1857 304.9644 549.2736 303.1443 544.8289 298.0888 543.4565 297.8711 541.0202 300.6817 540.2619 302.7374 536.9429 299.5455 536.5386 297.058 538.8434 291.8884 537.8987 287.3605 533.4538 288.8412 532.8645 289.2902 528.4977 Z" id="fips-54025"/>
<path d="M 469.2867 191.3534 493.7978 191.007 494.1821 191.0217 503.7471 190.9915 515.2379 190.7906 515.4555 206.7846 515.3956 207.0392 515.2699 207.1872 515.283 209.7902 515.385 230.2003 514.8233 230.2073 514.8437 231.6652 514.8052 232.3562 514.9917 269.2025 514.7181 269.2058 514.7239 279.1813 514.6315 282.6026 514.7834 282.972 514.7305 285.6665 514.9075 285.7132 514.9568 285.7262 514.9491 297.9935 514.9291 300.2945 511.585 295.9025 483.0479 284.9508 481.6755 285.1085 462.8467 293.4322 461.353 291.374 456.2818 290.1576 454.3696 282.1474 450.0021 278.4883 448.9006 279.1771 448.8104 250.875 447.9216 241.2352 450.779 236.4542 455.8466 227.8418 461.7871 217.7291 465.3912 211.5727 465.9528 204.5953 469.3343 196.3281 469.2867 191.3534 Z" id="fips-54077"/>
<path d="M 189.3193 358.3714 195.0473 356.4315 198.1847 353.517 203.4977 357.918 215.2662 363.1069 220.6704 360.6838 225.6166 359.3127 228.1251 360.1291 230.2602 363.2959 228.652 363.7524 232.0691 366.4362 230.7127 372.1959 234.8487 374.2072 235.728 378.1969 234.2073 377.9643 235.2611 383.6253 233.6998 384.6895 238.7883 390.0829 242.6554 395.8586 242.5585 402.5929 243.4345 405.1734 242.5841 409.1503 244.6866 415.8016 249.0656 417.029 250.3189 418.5548 253.862 416.9052 256.8223 422.5392 249.1156 432.0785 238.7596 439.9909 234.4597 439.0881 225.7045 441.1111 220.9644 438.3774 213.5125 436.9667 194.6426 435.0152 193.6134 435.747 191.3675 432.7985 187.8452 428.1214 185.5287 421.8482 181.6764 409.3971 183.8485 397.9755 186.0625 377.6987 185.2895 361.7152 189.3193 358.3714 Z" id="fips-54087"/>
<path d="M 149.0128 303.2746 149.0238 303.1807 149.5173 302.4167 149.9899 302.0453 151.3397 301.4152 152.0679 300.5417 152.2806 300.0381 152.6999 298.0453 153.2647 296.8001 153.7526 296.1434 153.9786 295.9864 154.1767 295.8488 155.032 295.6241 156.2369 295.3074 157.969 294.9917 158.9934 294.3246 159.3551 293.8427 159.529 293.5317 159.5782 293.0761 159.4098 291.8355 158.8591 290.4205 158.7202 289.7395 158.67 289.1929 158.7885 287.4694 159.4998 286.1891 159.9219 285.608 160.8773 284.6002 161.7372 284.0241 163.0544 283.5797 165.3207 283.3158 167.4078 283.3726 170.9227 284.1507 172.1201 283.8108 173.0057 283.6738 173.8189 283.7891 175.1337 284.2494 176.1851 285.0098 176.6699 285.2313 179.1342 285.4802 179.608 284.8608 179.9582 283.7198 180.029 280.0371 180.8701 275.0512 180.9785 272.3677 181.3338 270.7065 183.8102 267.7973 185.0888 266.6946 186.7306 266.0084 188.482 264.8935 190.1522 263.6211 192.4493 261.3889 193.4486 260.2329 195.0312 258.0635 195.9136 257.3217 197.7896 256.1944 199.3351 255.9795 201.0842 256.3906 202.2038 257.0456 203.4912 258.0966 203.9752 258.5631 204.7464 259.3062 205.7022 260.673 206.3123 263.004 206.6243 264.6076 207.3818 267.4584 207.7111 268.2617 208.1154 268.867 209.183 269.9924 209.9663 270.2836 210.5631 270.3685 211.3186 270.2988 212.4616 274.732 215.022 273.096 218.8743 275.7052 218.8209 279.412 228.9688 280.7702 232.4238 285.8012 229.2245 286.0283 222.3282 299.3912 222.8633 302.9555 206.0829 312.7232 202.3044 313.1722 181.3563 330.9545 176.7966 335.7149 150.1735 321.0095 150.471 320.4513 150.7405 319.5597 150.8966 318.6875 151.0521 316.5668 150.6881 314.473 150.6551 313.623 150.7261 311.9733 150.889 311.3293 150.7353 309.9788 149.241 305.1605 148.9335 303.9496 149.0128 303.2746 Z" id="fips-54107"/>
<path d="M 383.8751 320.2778 392.1846 320.881 395.6619 318.3728 398.5351 321.5724 400.122 321.3153 405.27 323.575 407.8813 326.8837 411.7277 333.9032 421.597 333.7968 423.6239 334.3065 422.9123 337.1205 425.2613 339.5705 423.6111 340.5882 424.0201 346.8669 420.6847 349.0111 422.2295 349.6774 418.8106 352.7101 416.8461 356.7858 418.1727 358.7422 414.9875 363.218 416.7804 374.9248 412.3937 394.6602 409.6909 394.7215 394.4237 395.1768 387.4448 405.3805 381.2494 407.602 379.2273 400.8103 375.5587 397.9903 369.0732 398.6308 366.3786 390.1553 367.9146 380.6847 369.9818 367.9867 373.0876 365.5218 373.963 361.3234 377.802 355.0539 376.2014 354.4231 380.5721 351.1173 380.7845 348.246 379.844 347.2613 378.4096 342.6197 381.0671 339.1036 382.1874 333.5338 383.1226 329.1021 383.8751 320.2778 Z" id="fips-54097"/>
<path d="M 137.3487 619.4746 139.0065 617.3315 152.3804 611.6334 154.1171 611.1704 151.2724 608.2049 143.9061 600.5791 147.5239 598.0226 153.3287 598.2383 155.5914 596.0591 158.6637 596.3859 161.6408 594.9424 164.7771 595.4354 169.8179 593.1807 174.8618 598.5198 176.637 597.6367 182.499 593.1038 185.1662 592.8178 191.3293 595.0409 194.3949 594.3617 199.9286 602.7801 204.3737 610.7885 216.5214 633.339 218.3676 637.7607 218.1243 642.7409 226.3543 648.0386 227.7436 646.9087 232.826 651.6372 229.7998 652.4493 228.8052 653.3736 225.9371 654.8107 223.46 659.5292 218.6733 662.1347 222.7096 670.4226 220.9942 671.7873 217.9897 669.4073 207.5606 665.4003 203.6699 660.9756 198.1021 664.2269 197.0726 663.0424 194.1347 659.8175 195.1114 658.4593 193.406 656.9466 188.5049 657.3744 187.4212 658.8485 183.9086 657.9624 182.3288 658.425 178.0955 655.0506 176.9382 655.4926 170.077 654.6946 166.4116 649.4207 164.8491 651.1213 160.5014 648.6795 155.8793 650.1663 155.5193 652.3144 152.6154 654.041 141.8381 651.8688 134.469 651.4623 133.143 645.4522 128.3124 642.5783 128.3643 639.8948 131.9304 638.4026 133.0162 632.428 137.4607 628.8818 138.4919 625.5239 137.3487 619.4746 Z" id="fips-54109"/>
<path d="M 7.9246 495.1107 7.9891 495.1121 9.4935 495.5297 10.9494 495.5271 11.2893 495.3772 11.6593 494.9228 12.2652 493.6417 12.8927 491.7684 12.9496 489.5115 12.6158 488.9232 12.2977 488.0351 12.1978 487.3708 12.1849 485.9555 11.6987 485.1641 11.6666 484.8822 11.9431 484.1354 12.4725 483.1033 13.3922 481.7651 13.551 481.4302 13.5748 480.978 13.4552 480.3468 12.9529 478.8143 12.8043 478.3609 11.455 477.127 11.0528 476.1752 10.771 475.8215 10.3173 475.5214 9.673 475.26 9.445 474.8263 9.4687 472.1257 9.6082 470.6804 9.7612 470.1643 10.2219 469.2356 10.3902 468.5659 10.1081 467.2907 10.0371 466.97 10.0393 466.968 9.4297 465.7026 9.3613 465.3614 9.4547 464.7805 9.6983 464.3728 10.1822 463.0977 9.8895 461.2997 9.8896 460.6869 10.0466 459.6911 10.49 458.8414 11.3457 460.1754 12.6702 461.3193 13.1205 461.612 14.382 462.1618 15.7923 462.5914 16.9511 462.7711 17.5583 462.8652 19.125 462.8015 20.8626 462.5222 20.9036 462.5098 24.4562 461.431 27.2265 463.8539 32.9774 468.7991 50.6022 483.8359 50.9404 483.561 53.2992 481.9602 53.0018 480.1032 55.6536 478.5717 58.2558 479.2652 61.7843 484.4069 59.4736 484.3191 56.9527 486.1169 57.4193 487.6897 55.5978 491.6797 57.739 497.5636 61.5723 500.1398 63.3627 499.977 63.0386 503.839 61.1547 504.8352 62.0259 512.3949 59.6385 517.4517 64.1358 519.856 62.6771 522.807 63.3846 525.3053 66.8009 527.5097 67.6274 531.9045 71.9265 533.6223 72.4713 537.5535 74.5705 538.2387 72.5975 542.9309 70.3479 543.6312 60.8328 553.3019 58.0763 556.9125 55.4944 559.2691 39.2026 575.7664 40.6485 580.0557 36.2719 577.4199 36.1931 576.4353 35.9456 576.2398 35.8278 575.947 35.8618 575.6712 36.1878 575.4872 36.9451 574.1063 36.786 573.7458 36.6907 573.1779 36.7406 571.7248 36.6529 571.3609 36.3806 570.9745 35.1536 570.4023 34.6529 570.0542 34.0846 568.5614 33.633 567.8806 32.1702 566.999 28.2718 567.9602 28.0579 567.9798 27.7257 567.7541 25.6645 564.2405 25.5506 563.9999 24.3637 562.1184 23.9753 561.8488 23.3852 560.8168 23.3776 560.4928 23.6413 560.1315 24.1768 558.8135 24.1852 558.275 24.1853 558.2717 24.2906 558.0869 24.5189 558.0485 25.7367 558.349 26.1854 558.2007 26.8806 557.5713 27.8663 556.3903 28.4242 555.5247 28.4514 555.3444 28.2885 555.1885 28.8789 552.6324 29.6149 551.8564 29.7799 551.1445 29.7616 550.4954 29.5679 550.2067 29.3184 550.0356 28.5671 549.7607 26.2537 547.8657 25.9753 547.3136 25.6419 547.1946 23.9886 547.1009 22.7982 546.5862 22.3685 546.6321 21.7949 546.9481 21.353 546.8859 21.1327 546.6159 21.0629 546.3491 21.1494 545.7989 21.1164 545.363 20.7846 545.0822 20.3239 544.1506 19.8211 542.7672 19.8526 541.3437 19.6527 541.094 19.1167 540.8318 18.377 540.0966 17.7989 539.0165 17.7385 538.5142 18.0133 537.9136 18.053 537.3935 17.4196 536.7058 16.9981 535.9291 16.8659 535.4832 16.8726 534.5968 16.4851 534.0531 16.146 533.6362 16.1415 532.4879 15.8762 532.0202 14.5196 531.5674 13.5486 529.9226 12.1897 529.589 10.5962 527.7733 10.3748 527.0207 10.4482 526.2315 10.397 524.3679 10.0638 523.9703 9.4141 523.7421 9.1197 523.5357 8.4211 522.4683 8.0813 522.1562 7.678 521.9474 7.0393 521.4147 5.4723 521.5101 4.9342 521.3893 4.7904 521.2338 4.6653 520.8643 4.7041 519.0423 4.5537 518.7439 3.8964 518.4337 2.5824 518.0231 2.2277 517.7674 2.0957 517.5168 1.9552 516.5893 1.9765 514.7859 1.9075 513.83 1 511.9897 1.3034 511.1486 1.9551 510.8395 4.1756 511.0179 5.1547 511.344 6.1317 511.1124 6.4881 510.8483 7.7197 507.5256 8.5673 505.5474 8.6596 504.7634 8.8023 501.3556 8.4961 501.0251 7.624 500.5493 7.1134 500.0145 6.8948 499.362 6.5779 497.7355 6.6272 497.4172 7.5093 495.3781 7.809 495.1082 7.9246 495.1107 Z" id="fips-54099"/>
<path d="M 74.5902 553.1278 85.0045 549.6794 98.6746 545.2008 101.4741 545.3244 102.1697 544.5486 107.8518 543.233 115.2573 544.1283 117.0754 543.2698 109.1326 551.2407 113.9431 554.3497 120.4132 553.8803 121.9163 556.7108 128.5575 559.4659 136.0687 559.7908 138.3707 562.0929 141.5988 562.5087 144.3143 568.6196 145.1341 572.6659 141.2931 576.5105 142.5075 579.2727 147.2299 581.4542 147.3573 584.5147 149.5331 585.3945 150.8596 588.6154 154.5565 585.9749 160.7021 583.8798 163.0902 584.3249 165.9137 589.4304 165.8543 590.1408 169.8179 593.1807 164.7771 595.4354 161.6408 594.9424 158.6637 596.3859 155.5914 596.0591 153.3287 598.2383 147.5239 598.0226 143.9061 600.5791 151.2724 608.2049 154.1171 611.1704 152.3804 611.6334 139.0065 617.3315 137.3487 619.4746 135.4405 620.5317 131.5983 616.9853 129.5605 618.5683 127.173 615.5105 125.5321 617.3196 120.9776 619.1086 119.1056 615.0869 116.393 614.7362 114.0095 616.9261 108.2991 617.4901 106.1777 621.8266 105.9096 623.1773 105.0101 621.2268 101.1843 617.3737 98.2257 610.3694 91.4118 610.2672 90.6415 603.8565 90.5665 603.8405 87.6279 600.0331 85.9041 600.5965 87.0206 596.6524 88.7116 596.617 87.7788 592.2275 88.5331 590.1798 83.6163 587.6352 83.4387 584.1887 81.4661 581.4277 86.7194 578.8029 87.0688 577.3455 84.4061 573.4659 85.0375 568.9912 78.799 566.1876 76.0506 558.2506 73.4799 555.6233 74.5902 553.1278 Z" id="fips-54045"/>
<path d="M 418.8106 352.7101 449.3508 347.0552 450.7247 340.8425 453.0165 334.3311 454.5021 326.3481 456.7082 321.6681 458.8221 321.4213 460.5791 317.3272 464.7436 318.9139 468.6956 325.4126 468.4789 331.6787 467.0909 333.5854 490.3504 340.0561 512.0059 346.0615 512.8642 347.1346 514.2858 345.5515 526.2218 346.6095 528.2018 346.1352 536.4777 347.9648 537.7597 349.404 534.9244 356.2486 533.8189 357.0961 527.2079 356.7264 522.6981 354.7868 520.7467 355.3736 522.6111 361.8642 516.4245 364.5021 510.4822 363.3881 512.0455 366.7409 511.1538 369.3739 507.4322 373.9553 510.0374 376.2548 509.4256 379.6042 512.6249 382.4057 512.2856 386.5305 509.5881 390.2258 508.2009 393.6764 505.0216 396.6481 504.1866 399.8342 498.292 406.069 498.7251 411.1345 494.209 410.0266 493.6184 410.9903 493.2362 411.7229 492.554 411.7511 492.2542 411.0883 492.3448 410.4421 493.1305 409.4765 493.4476 408.7447 493.3073 407.7888 492.5883 407.4011 491.2579 407.561 490.0835 407.1156 488.976 406.2933 488.6583 405.9861 487.8434 405.7241 487.4261 406.2071 486.2466 406.8229 485.1017 407.6674 485.1803 408.9777 485.0362 410.2806 484.7951 411.0417 483.9986 411.029 482.99 410.9143 482.0409 410.2579 481.8015 409.0636 481.3563 408.4125 481.0883 407.6243 479.9251 406.6368 478.3857 407.0266 477.7291 407.9904 477.0159 408.1638 475.797 408.134 475.1082 407.4538 474.6799 406.8335 474.9488 406.0819 475.2885 405.9329 475.3679 405.3016 475.2963 405.0176 475.5984 404.3691 475.5874 403.2245 475.5635 402.4341 476.0114 401.7219 476.464 401.5095 476.3905 400.9951 476.144 401.1082 475.7263 400.7881 475.0354 399.879 474.0399 399.6361 473.4451 399.2706 473.1392 398.1921 472.8027 397.2989 472.1169 396.7434 471.0424 396.5453 470.3077 396.0943 469.6221 395.7052 468.7458 395.7341 468.2795 396.217 468.2054 396.9877 467.6794 398.0539 467.1172 398.725 466.4753 399.5633 466.4349 400.4794 465.4026 401.2586 465.0351 401.9279 465.1946 402.5544 465.4831 402.7273 465.4565 403.6516 465.0403 404.3421 464.1569 405.4527 464.135 406.66 463.9489 407.6606 463.2411 408.4577 463.1148 408.8751 463.1422 409.3845 462.8315 409.9181 462.5611 410.5865 462.3387 410.9422 462.116 411.7142 461.9802 412.9225 460.7202 413.8075 460.0395 414.8789 460.2523 416.1006 460.6652 416.8555 459.9316 418.2524 459.3478 418.689 458.8147 418.5959 458.5327 418.4254 458.0854 418.3453 457.9483 418.5344 457.9317 419.471 458.0261 420.5312 458.4437 421.3606 458.6156 422.4622 458.3801 423.4632 457.6441 424.9056 457.3613 426.0938 456.5622 427.8071 456.6084 429.4508 456.3283 430.9932 455.9976 432.3275 455.6827 433.6001 455.3949 434.7839 450.137 438.7502 444.8542 442.5482 436.5924 448.4888 428.5033 454.222 421.4691 452.7538 414.4828 451.2941 409.6208 455.2119 404.3859 459.6887 400.3506 463.1306 394.8284 467.8365 393.3137 469.1257 403.2253 440.5854 399.0553 431.2842 387.4448 405.3805 394.4237 395.1768 409.6909 394.7215 412.3937 394.6602 416.7804 374.9248 414.9875 363.218 418.1727 358.7422 416.8461 356.7858 418.8106 352.7101 Z" id="fips-54083"/>
<path d="M 288.9477 280.6714 298.522 270.5143 313.915 259.7373 317.2303 252.4366 326.0093 251.8684 327.6532 249.7858 332.4521 248.2567 335.7939 250.0407 338.1629 248.0392 344.3648 252.6749 345.2435 256.5926 343.8502 257.9671 344.8965 261.3297 344.4438 265.7099 346.4221 267.0314 342.3232 271.8239 341.1832 275.176 338.3594 276.1051 334.7599 282.4525 339.0348 283.262 338.1225 288.5015 343.9872 293.1156 340.9415 296.0444 347.4356 298.3894 346.9471 301.2457 339.4618 305.5033 336.7853 303.9593 336.0828 307.2117 330.6777 313.0036 326.269 312.6112 322.3107 316.691 319.1407 323.1867 314.7342 322.0581 301.0691 319.1798 284.8913 285.1021 288.9477 280.6714 Z" id="fips-54017"/>
<path d="M 368.1626 209.307 372.6699 210.0828 375.8963 214.5917 381.4692 214.5898 404.1464 214.7561 407.02 214.7633 411.0997 220.5583 424.8198 232.8664 426.6416 236.4845 427.1947 236.3769 427.3294 236.4447 427.376 236.6227 427.7541 236.6421 428.0799 236.8618 428.3483 236.7939 428.4678 236.9172 428.8021 236.8871 429.1333 237.0805 429.2997 237.2921 430.0345 240.2768 432.8293 240.799 436.9931 245.2637 441.6817 247.4175 430.1042 254.8035 427.9129 258.1299 417.9081 261.3608 412.3095 258.2549 401.0263 260.0076 400.2165 260.0019 386.4344 251.1916 381.5319 250.8279 352.4607 244.2428 353.1313 241.5544 356.0381 240.7531 356.7326 237.2354 354.5699 234.8737 351.7795 224.74 354.6425 220.5574 354.8797 217.6595 359.3313 217.9999 359.5809 214.4525 362.0748 212.8744 360.5408 210.948 362.2276 208.9155 368.1626 209.307 Z" id="fips-54049"/>
<path d="M 298.0632 191.9425 348.3453 191.8515 364.025 191.8707 366.2645 192.5809 368.2304 200.3263 368.1626 209.307 362.2276 208.9155 360.5408 210.948 362.0748 212.8744 359.5809 214.4525 359.3313 217.9999 354.8797 217.6595 354.6425 220.5574 351.7795 224.74 354.5699 234.8737 356.7326 237.2354 356.0381 240.7531 353.1313 241.5544 352.4607 244.2428 349.4787 246.5329 348.526 251.448 344.3648 252.6749 338.1629 248.0392 335.7939 250.0407 332.4521 248.2567 326.9857 244.1577 324.0207 245.3745 324.1522 243.0989 321.6296 244.0659 317.6182 242.9422 315.7373 239.7681 313.9118 239.6762 312.8291 235.2487 305.8 230.1347 306.102 227.9797 301.785 225.0048 299.6265 226.5606 298.9916 222.0112 296.348 220.4304 295.9301 216.8491 295.0024 216.6476 289.5594 221.1561 280.3183 215.5878 281.425 214.4077 282.006 213.9527 283.2023 213.4191 284.5212 213.1515 286.3442 213.2139 287.9034 213.5671 288.5937 213.5694 290.4954 212.753 291.1979 211.4278 292.0034 208.9582 292.0927 208.3757 292.0456 208.1423 292.2032 207.3081 292.7121 206.1192 292.8896 204.0108 292.7233 200.736 292.7804 199.7624 292.8664 199.0724 293.2068 197.983 293.525 197.5883 294.6671 196.7906 295.0838 196.5655 296.2498 196.3853 297.1488 196.056 297.9874 195.5453 298.3105 195.097 298.6509 193.8111 298.6585 193.3529 298.3686 192.2215 298.0632 191.9425 Z" id="fips-54103"/>
<path d="M 238.7596 439.9909 249.1156 432.0785 256.8223 422.5392 265.3358 410.9553 274.3543 419.8887 275.2536 426.4791 277.7134 426.7462 282.3896 429.4405 284.5272 432.7296 283.765 436.6297 288.0319 438.2877 289.6855 444.5085 292.3889 445.9609 298.7896 447.174 300.064 450.4642 284.7178 463.6939 263.3549 476.5285 254.06 482.0352 232.3188 494.8743 230.7047 484.3868 228.7581 472.1967 224.2119 452.1751 224.351 451.2277 238.7596 439.9909 Z" id="fips-54015"/>
<path d="M 207.4053 555.9979 215.5206 516.0706 216.0544 514.3624 216.6025 513.338 216.2318 512.8169 216.2044 511.7004 218.5409 512.0881 232.2855 494.9161 236.7369 497.9901 238.697 497.9015 239.7609 500.5222 245.1662 502.7203 248.2997 500.9023 252.0415 505.5637 256.2842 507.4211 257.8038 509.087 258.566 506.1841 261.7984 505.5406 260.6854 503.5464 263.8371 502.382 264.4264 504.0361 268.8586 507.1613 268.8446 503.8877 272.8013 503.6593 275.19 505.2437 279.2217 509.6848 278.2714 515.0273 286.1913 524.5228 289.2604 522.2347 289.2902 528.4977 288.8412 532.8645 287.3605 533.4538 291.8884 537.8987 297.058 538.8434 299.5455 536.5386 302.7374 536.9429 300.6817 540.2619 297.8711 541.0202 298.0888 543.4565 303.1443 544.8289 304.9644 549.2736 304.9813 552.1857 307.644 553.1341 300.9034 560.6398 311.0715 578.1469 301.6164 577.336 278.7816 587.6337 273.3646 584.6941 265.178 585.4156 260.3532 584.1407 261.3856 579.4084 254.5581 580.9399 253.2485 579.1422 257.8506 578.8783 257.7704 575.7361 221.3352 572.7014 220.3602 563.529 221.1805 561.3292 216.9921 559.5912 212.9132 554.461 207.4053 555.9979 Z" id="fips-54019"/>
</g>
</svg>