<?xml version="1.0"?>
<svg xmlns="http://www.w3.org/2000/svg" version="1.2" baseProfile="tiny" width="800" height="615" viewBox="0 0 800 615" stroke-linecap="round" stroke-linejoin="round">
<g id="cb_2018_us_county_5m">
<path d="M 401.6899 235.7039 432.8847 235.608 435.0958 235.7936 448.2363 235.7439 448.2222 236.9428 521.1031 236.2252 561.5576 235.3424 561.5952 237.8994 562.0768 238.647 563.0089 290.968 563.3914 313.2295 563.8724 334.3593 564.0521 343.6257 563.565 343.7199 563.771 349.814 564.4231 352.1629 563.8771 352.7174 564.5385 385.2868 564.605 395.8636 503.3078 397.1478 403.0451 397.124 400.9122 397.1243 400.7441 344.5988 405.4188 344.6128 405.3577 331.3856 405.2924 292.177 403.7024 292.1928 403.6519 240.0457 401.6756 240.031 401.6899 235.7039 Z" id="fips-56025"/>
<path d="M 2.5614 567.7167 2.562 567.7033 2.7677 562.5602 3.2212 551.2375 3.3633 548.6645 4.5665 520.2832 4.6507 518.1261 57.3256 520.2799 117.4058 522.4358 114.8196 610.1726 106.4727 609.9887 106.006 610.0577 93.21 609.8256 91.7462 609.6784 77.4838 609.3809 63.2273 608.9199 58.7768 608.5201 38.8001 607.7862 34.7328 607.5561 1 606.0397 2.5614 567.7167 Z" id="fips-56041"/>
<path d="M 695.8242 366.0545 722.1569 365.1056 723.7185 407.1142 727.3086 509.6934 656.7287 511.3088 656.3059 498.4082 655.5063 445.9501 652.9918 394.1765 653.1764 394.1827 652.2469 370.8875 651.999 367.8068 666.5259 367.2633 670.7222 366.9474 685.0582 366.4446 695.8242 366.0545 Z" id="fips-56031"/>
<path d="M 690.7453 231.3988 783.3348 227.4578 783.3366 227.4965 783.4974 231.314 783.8085 238.7053 784.0655 244.443 784.4998 254.2721 784.6563 257.5277 784.7392 258.6331 784.7859 259.7283 786.6903 303.441 788.2618 340.6263 788.2965 341.3218 788.9459 356.4216 789.0287 358.8529 789.065 359.3155 789.1637 362.211 735.9355 364.6491 722.1569 365.1056 695.8242 366.0545 694.8833 339.7658 694.3251 339.5756 690.7453 231.3988 Z" id="fips-56027"/>
<path d="M 664.5569 5.1145 668.639 4.994 668.6553 4.9936 670.0435 4.9603 670.6826 4.9352 670.7936 4.9155 697.8545 4.2503 698.4116 4.2496 701.9871 4.0619 708.5306 3.976 708.667 3.9334 729.3373 3.2633 729.3698 3.2621 752.8671 2.406 773.4238 1.6949 774.4105 20.184 774.3998 21.3879 775.0979 36.3113 775.0997 36.3527 775.3895 43.0366 775.3983 43.0814 775.5569 46.5492 775.5823 47.5448 775.6125 47.9277 776.3835 66.1081 776.5606 70.2897 776.7222 74.1596 778.5043 114.6156 779.0489 125.1297 745.0721 126.3984 744.2741 126.3212 668.0351 129.7025 667.701 129.4086 667.2898 123.6033 666.0684 76.5863 664.5893 37.4166 665.5135 37.4815 665.3455 24.6466 664.5569 5.1145 Z" id="fips-56011"/>
<path d="M 563.2037 8.5274 573.5382 8.3407 575.0082 7.3537 575.0989 7.2075 582.0849 7.1516 633.056 5.9821 664.5569 5.1145 665.3455 24.6466 665.5135 37.4815 664.5893 37.4166 666.0684 76.5863 667.2898 123.6033 667.701 129.4086 668.0351 129.7025 668.8227 161.4525 669.382 182.5149 669.8518 195.6649 670.9224 231.2526 671.033 232.1794 604.6728 234.2844 568.2159 235.1484 567.2818 185.7628 568.1978 185.7325 566.4255 133.094 565.6537 79.9748 566.2655 79.0449 566.0491 73.4634 565.7453 62.5557 565.5738 53.9305 565.072 51.8373 564.7186 29.052 563.741 27.4008 563.2037 8.5274 Z" id="fips-56005"/>
<path d="M 403.0742 423.2342 403.0451 397.124 503.3078 397.1478 564.605 395.8636 564.8783 395.8561 565.6133 448.2805 565.7136 448.2781 566.0693 463.9198 567.4032 530.0921 568.1386 552.8587 552.2849 553.1222 539.2657 553.3051 540.3032 613.1785 532.8574 612.9785 532.2299 612.9823 527.7657 612.9554 527.0272 612.9586 526.7821 612.9342 525.15 612.9436 479.0388 613.3396 462.7315 613.3409 435.2645 613.5761 426.5189 613.579 420.8504 613.5766 391.3735 613.7369 357.9442 613.6596 358.3515 553.7111 356.9017 553.6999 357.0869 515.036 357.0942 514.2177 404.5669 514.641 405.0394 502.0755 405.2029 449.524 403.1259 449.5248 403.0742 423.2342 Z" id="fips-56007"/>
<path d="M 561.5576 235.3424 568.2159 235.1484 604.6728 234.2844 671.033 232.1794 690.7453 231.3988 694.3251 339.5756 694.8833 339.7658 695.8242 366.0545 685.0582 366.4446 670.7222 366.9474 666.5259 367.2633 651.999 367.8068 652.2469 370.8875 653.1764 394.1827 652.9918 394.1765 647.5561 394.366 646.5474 396.2147 646.6074 398.3523 645.502 398.3868 645.5836 402.6974 644.5221 402.7362 645.0951 411.3551 642.8503 411.4506 643.3127 415.8088 629.3817 416.1862 626.4456 416.4229 625.3651 415.5877 618.2488 415.3033 616.6091 414.2942 616.2703 403.2588 620.6283 403.1762 620.5377 398.8031 622.6992 398.7484 622.6289 395.0684 564.8783 395.8561 564.605 395.8636 564.5385 385.2868 563.8771 352.7174 564.4231 352.1629 563.771 349.814 563.565 343.7199 564.0521 343.6257 563.8724 334.3593 563.3914 313.2295 563.0089 290.968 562.0768 238.647 561.5952 237.8994 561.5576 235.3424 Z" id="fips-56009"/>
<path d="M 291.4677 134.1403 341.3573 134.6438 381.3724 134.861 385.4047 135.0919 443.794 135.1137 445.7716 135.1002 446.1433 188.0001 447.6678 187.9726 448.1856 227.3806 448.2363 235.7439 435.0958 235.7936 432.8847 235.608 401.6899 235.7039 395.0829 235.697 395.0906 213.7572 381.8376 213.8396 381.9024 200.5916 355.591 200.4846 355.6692 187.5935 331.8207 187.3999 329.5122 185.9613 330.7289 182.9613 317.1509 183.0951 317.2666 174.5286 304.1656 174.3849 304.5814 160.9715 297.7939 160.9261 297.857 147.6311 291.2817 147.6087 291.4677 134.1403 Z" id="fips-56043"/>
<path d="M 564.8783 395.8561 622.6289 395.0684 622.6992 398.7484 620.5377 398.8031 620.6283 403.1762 616.2703 403.2588 616.6091 414.2942 618.2488 415.3033 625.3651 415.5877 626.4456 416.4229 629.3817 416.1862 643.3127 415.8088 642.8503 411.4506 645.0951 411.3551 644.5221 402.7362 645.5836 402.6974 645.502 398.3868 646.6074 398.3523 646.5474 396.2147 647.5561 394.366 652.9918 394.1765 655.5063 445.9501 656.3059 498.4082 656.7287 511.3088 657.7469 560.5488 658.0091 568.1908 658.7926 592.9829 659.4868 610.8458 659.4551 610.8467 608.3773 612.2803 607.7363 612.2978 569.9849 613.0216 555.2159 613.1791 552.1314 613.2091 540.3032 613.1785 539.2657 553.3051 552.2849 553.1222 568.1386 552.8587 567.4032 530.0921 566.0693 463.9198 565.7136 448.2781 565.6133 448.2805 564.8783 395.8561 Z" id="fips-56001"/>
<path d="M 66.3714 269.9291 66.7114 261.401 92.4892 262.3684 92.9007 249.2506 114.6729 249.9186 120.9413 250.1419 124.4145 250.2702 125.4409 237.1312 158.0022 238.2854 157.8816 243.263 157.64 252.9999 160.0104 253.0415 162.7749 251.8748 164.1824 253.1324 163.6335 258.4985 166.4465 261.6854 164.8926 265.8974 165.5963 266.9727 164.0336 268.4316 165.7225 270.9658 166.3844 273.9892 165.671 276.0052 167.3963 277.9134 168.2032 283.367 170.5111 283.9776 171.446 289.7181 174.6176 291.3427 177.934 296.2417 178.7581 299.8493 177.2769 301.2489 178.4256 304.0599 178.5464 307.0007 184.086 307.4382 185.1769 309.7572 187.9742 310.3366 189.2872 313.6898 191.6861 314.0224 193.9844 315.9943 195.4185 318.4867 198.4397 317.5648 200.9999 321.4884 202.5668 325.2662 202.9723 328.6091 204.2753 331.2475 207.8502 332.6768 209.3717 336.1634 211.6933 339.0341 215.7458 340.8717 213.896 341.7544 212.7459 344.6335 214.1278 345.6799 217.3296 344.7678 219.0312 347.4479 224.2287 349.5994 222.4683 351.0674 224.5797 354.0088 223.8668 356.1285 230.7132 356.3729 230.3801 395.712 233.2464 395.7383 232.7862 421.445 176.9306 420.2288 119.8261 417.6811 104.0814 417.1835 102.7644 416.2784 78.3431 415.5333 65.3031 414.872 66.0258 389.0065 60.808 388.8339 62.2374 349.2768 58.53 349.1273 58.9155 338.6922 62.8818 338.8395 63.1972 329.2043 64.7442 286.3827 65.7825 286.3961 66.3714 269.9291 Z" id="fips-56035"/>
<path d="M 26.4049 1.0418 26.4893 1.0451 54.1855 1.9141 56.6722 2.4664 57.8125 2.8105 62.6388 3.8445 78.9668 4.4576 79.5309 4.4442 85.8443 4.6826 94.9498 4.778 99.2841 3.8984 101.4736 4.2046 103.3643 4.2518 107.3777 4.7327 116.7 5.1324 126.2913 4.2633 135.2406 4.5686 135.3262 4.5806 137.8936 4.7071 138.5831 4.741 151.3354 5.0888 159.566 5.4779 159.5876 5.4789 164.6897 5.7021 173.9994 5.8011 183.5515 6.0226 203.6463 6.1446 204.7914 6.2115 216.1713 6.3507 216.7984 6.3541 233.9059 6.6034 236.0728 7.5951 238.2916 7.6335 250.2722 7.8118 278.8478 8.1727 285.4516 8.2431 285.2841 27.7361 288.3034 27.7799 288.0645 44.9585 287.7281 69.9424 287.5999 80.7795 289.6568 80.8229 289.4773 94.7011 288.9468 134.1078 291.4677 134.1403 291.2817 147.6087 265.039 147.2244 264.8904 160.6198 251.3746 160.4392 251.5071 173.467 231.8823 173.1687 231.5571 186.3033 227.2348 186.4675 212.0268 186.1491 207.6094 186.4849 206.732 183.3282 205.3016 182.1174 201.8952 181.8975 200.5081 175.816 198.5195 175.5391 196.9751 171.7357 194.7605 170.9617 193.8958 168.4617 190.6317 168.1237 190.2928 165.5954 186.3145 166.9716 183.8823 164.6002 181.1849 164.5037 179.5199 166.0389 177.9913 166.7766 177.547 166.0784 175.7758 167.5323 174.047 168.5745 170.7305 172.1085 169.5131 175.5528 168.7295 176.9849 168.876 178.526 169.2173 180.0158 168.4646 180.8563 167.1438 180.8931 165.6884 181.4616 164.3838 182.0594 163.1937 182.0003 161.9383 182.5009 160.651 183.3575 159.8787 184.1891 159.0944 184.6658 158.9071 184.5135 158.3795 184.479 158.2576 184.7743 157.3968 185.3123 156.5799 185.8301 156.2008 186.3837 155.8697 186.6613 155.3029 186.6643 154.7724 186.4125 153.8451 185.8312 153.0423 185.2578 152.4626 184.8302 151.9599 184.7582 151.5718 184.3894 151.5442 183.9736 151.1819 183.5907 150.8848 183.7739 149.9437 184.1766 148.9136 183.4172 148.4865 182.2792 148.887 181.4994 148.4264 180.5755 148.6964 179.7011 149.4369 179.0372 150.3918 178.9173 151.3494 178.7902 152.2968 178.4522 152.7386 178.0677 152.894 177.6497 152.6716 177.3748 151.7489 177.0554 151.344 176.5182 151.5353 175.8021 151.9955 175.6254 152.0572 174.0261 151.4337 173.554 149.7789 172.0318 149.2693 171.04 149.5259 169.729 149.3747 168.6511 148.5091 168.0975 147.5896 167.7899 147.6028 166.1562 148.69 164.8546 148.7717 163.6215 147.4819 163.7582 146.3029 164.281 142.141 164.7227 139.0352 162.7149 135.4397 163.3142 133.7477 163.9045 133.1776 163.2841 133.0942 163.1606 133.105 162.7977 133.1584 162.4663 133.2764 161.9439 133.1832 161.6347 133.1664 161.4678 132.8657 161.3228 132.5706 161.3595 132.0398 161.2683 131.592 161.3156 131.3581 161.1272 131.335 160.4455 131.3187 159.9002 131.3545 159.4322 131.1125 159.1526 130.8283 158.8264 130.87 158.525 130.6105 158.1088 130.4497 157.6652 130.1475 157.2174 129.9206 156.802 129.9955 156.4865 129.8663 155.8863 128.2648 154.983 127.7515 154.9862 127.8122 152.9364 128.2128 139.2658 128.2633 136.2359 121.3128 135.5604 120.9361 135.2277 120.7337 134.4641 120.4738 134.3556 120.4973 133.8779 120.638 133.3152 120.4485 132.9481 120.5251 132.4529 120.5432 131.7539 121.1935 131.3448 121.3396 130.8005 121.3624 130.2285 121.1799 129.964 121.2602 129.3883 121.7563 129.007 122.5944 128.5537 122.3547 128.0249 121.8465 128.3167 121.3438 127.7947 121.1652 127.0174 121.6744 126.7625 121.8467 126.8787 122.4601 126.3322 121.7966 125.8206 121.21 125.5084 121.3824 124.5675 121.7672 124.4334 122.3531 124.0307 122.1341 123.6576 121.7512 123.2944 121.5142 123.4629 120.6862 122.7384 120.1044 121.7839 119.8601 120.4217 120.1249 118.9206 120.0903 118.1787 119.4431 117.7979 119.2188 116.8035 119.1303 115.877 118.7006 114.7718 119.0648 113.8854 118.6878 112.238 117.5791 111.1036 116.6421 110.877 116.2117 110.2266 116.1075 109.8644 115.4274 110.0645 115.0062 109.9553 114.9627 109.6501 114.6786 109.2626 113.4813 109.4288 112.8912 109.1576 112.5729 108.6489 112.5273 108.0264 112.8041 108.065 112.8861 108.1906 112.9357 108.1655 112.8914 107.9474 112.7237 107.7362 112.6701 107.6024 112.6912 107.6383 112.7661 107.6271 112.7974 107.5557 112.8763 107.467 112.9292 107.3656 113.045 107.4183 113.115 107.3548 113.1302 107.2167 113.1336 107.0847 113.1769 107.1268 113.1852 107.2283 113.1996 107.2944 113.2156 107.2592 113.2076 106.9949 113.0956 106.8759 113.0507 106.8073 113.1354 106.7434 113.1165 106.6382 113.0595 106.4819 112.988 106.1342 112.4234 105.8391 111.6608 105.5726 111.0007 105.11 110.7208 104.5788 110.6225 103.9338 110.8429 103.3844 110.6522 102.5521 110.6087 102.0034 110.508 101.2246 110.592 100.6235 110.498 99.845 110.4681 99.2353 110.2583 98.6533 109.9188 98.0721 109.3797 97.5261 109.1316 97.1363 108.565 96.8003 108.0593 96.6524 107.8829 96.0918 107.8938 95.6712 107.8245 95.0286 107.8089 94.5149 107.4348 93.8805 107.1323 93.5051 106.5752 93.2941 106.2271 93.1156 105.8923 93.01 105.4217 92.8806 105.081 92.5555 104.7405 92.3009 104.3628 91.8003 104.1638 91.126 103.8377 90.764 103.4278 90.0918 103.5536 89.5288 103.8722 89.2828 103.909 88.5366 104.2699 87.4796 104.3709 86.7232 104.268 85.803 104.3396 85.2058 104.3191 84.6877 104.2545 84.2464 104.386 84.0547 104.621 83.9819 104.7788 84.0111 105.0516 83.7278 105.1832 83.4283 105.263 83.0297 105.2094 82.5854 105.0767 81.6899 105.0989 81.278 105.3811 80.6453 105.7682 80.1341 105.7737 79.7237 105.6209 79.0329 105.742 78.5826 105.7614 78.0817 105.9982 77.5887 105.8893 76.9955 105.451 76.3077 104.9453 75.7504 104.5044 75.4776 104.197 75.588 103.9123 75.4714 103.7711 75.1936 103.8487 75.0276 103.9813 74.7048 104.1331 74.4 104.289 74.122 104.5 74.0708 104.7869 73.7623 104.699 73.3507 104.1244 72.6077 103.3706 71.9526 102.5657 71.4345 101.9604 71.2801 101.5856 71.4255 100.9735 71.4452 100.5204 71.4859 100.2586 71.8623 100.2771 72.1882 100.1794 72.2629 99.9955 72.3927 99.8364 72.3293 99.4446 72.2769 98.8483 71.9875 98.0823 71.7092 97.2174 71.4668 96.6323 70.8844 96.1474 70.5205 95.671 70.2266 95.062 69.941 95.0707 69.3673 95.5136 69.1468 95.6578 67.765 95.2413 66.9404 78.6791 66.4068 64.2531 65.8722 64.5982 58.0779 64.74 53.2574 52.7843 52.7394 40.9881 52.3625 32.403 52.0237 28.9804 51.8828 23.1199 51.6169 23.4857 42.69 23.549 38.9717 24.2609 21.3349 24.8333 11.2312 24.7867 10.8777 25.3227 1 26.4049 1.0418 Z" id="fips-56029"/>
<path d="M 23.1199 51.6169 28.9804 51.8828 32.403 52.0237 40.9881 52.3625 52.7843 52.7394 64.74 53.2574 64.5982 58.0779 64.2531 65.8722 78.6791 66.4068 95.2413 66.9404 95.6578 67.765 95.5136 69.1468 95.0707 69.3673 95.062 69.941 95.671 70.2266 96.1474 70.5205 96.6323 70.8844 97.2174 71.4668 98.0823 71.7092 98.8483 71.9875 99.4446 72.2769 99.8364 72.3293 99.9955 72.3927 100.1794 72.2629 100.2771 72.1882 100.2586 71.8623 100.5204 71.4859 100.9735 71.4452 101.5856 71.4255 101.9604 71.2801 102.5657 71.4345 103.3706 71.9526 104.1244 72.6077 104.699 73.3507 104.7869 73.7623 104.5 74.0708 104.289 74.122 104.1331 74.4 103.9813 74.7048 103.8487 75.0276 103.7711 75.1936 103.9123 75.4714 104.197 75.588 104.5044 75.4776 104.9453 75.7504 105.451 76.3077 105.8893 76.9955 105.9982 77.5887 105.7614 78.0817 105.742 78.5826 105.6209 79.0329 105.7737 79.7237 105.7682 80.1341 105.3811 80.6453 105.0989 81.278 105.0767 81.6899 105.2094 82.5854 105.263 83.0297 105.1832 83.4283 105.0516 83.7278 104.7788 84.0111 104.621 83.9819 104.386 84.0547 104.2545 84.2464 104.3191 84.6877 104.3396 85.2058 104.268 85.803 104.3709 86.7232 104.2699 87.4796 103.909 88.5366 103.8722 89.2828 103.5536 89.5288 103.4278 90.0918 103.8377 90.764 104.1638 91.126 104.3628 91.8003 104.7405 92.3009 105.081 92.5555 105.4217 92.8806 105.8923 93.01 106.2271 93.1156 106.5752 93.2941 107.1323 93.5051 107.4348 93.8805 107.8089 94.5149 107.8245 95.0286 107.8938 95.6712 107.8829 96.0918 108.0593 96.6524 108.565 96.8003 109.1316 97.1363 109.3797 97.5261 109.9188 98.0721 110.2583 98.6533 110.4681 99.2353 110.498 99.845 110.592 100.6235 110.508 101.2246 110.6087 102.0034 110.6522 102.5521 110.8429 103.3844 110.6225 103.9338 110.7208 104.5788 111.0007 105.11 111.6608 105.5726 112.4234 105.8391 112.988 106.1342 113.0595 106.4819 113.1165 106.6382 113.1354 106.7434 113.0507 106.8073 113.0956 106.8759 113.2076 106.9949 113.2156 107.2592 113.1996 107.2944 113.1852 107.2283 113.1769 107.1268 113.1336 107.0847 113.1302 107.2167 113.115 107.3548 113.045 107.4183 112.9292 107.3656 112.8763 107.467 112.7974 107.5557 112.7661 107.6271 112.6912 107.6383 112.6701 107.6024 112.7237 107.7362 112.8914 107.9474 112.9357 108.1655 112.8861 108.1906 112.8041 108.065 112.5273 108.0264 112.5729 108.6489 112.8912 109.1576 113.4813 109.4288 114.6786 109.2626 114.9627 109.6501 115.0062 109.9553 115.4274 110.0645 116.1075 109.8644 116.2117 110.2266 116.6421 110.877 117.5791 111.1036 118.6878 112.238 119.0648 113.8854 118.7006 114.7718 119.1303 115.877 119.2188 116.8035 119.4431 117.7979 120.0903 118.1787 120.1249 118.9206 119.8601 120.4217 120.1044 121.7839 120.6862 122.7384 121.5142 123.4629 121.7512 123.2944 122.1341 123.6576 122.3531 124.0307 121.7672 124.4334 121.3824 124.5675 121.21 125.5084 121.7966 125.8206 122.4601 126.3322 121.8467 126.8787 121.6744 126.7625 121.1652 127.0174 121.3438 127.7947 121.8465 128.3167 122.3547 128.0249 122.5944 128.5537 121.7563 129.007 121.2602 129.3883 121.1799 129.964 121.3624 130.2285 121.3396 130.8005 121.1935 131.3448 120.5432 131.7539 120.5251 132.4529 120.4485 132.9481 120.638 133.3152 120.4973 133.8779 120.4738 134.3556 120.7337 134.4641 120.9361 135.2277 121.3128 135.5604 128.2633 136.2359 128.2128 139.2658 127.8122 152.9364 127.7515 154.9862 126.8424 183.2758 127.0524 184.2596 125.4409 237.1312 124.4145 250.2702 120.9413 250.1419 114.6729 249.9186 92.9007 249.2506 92.4892 262.3684 66.7114 261.401 66.3714 269.9291 40.4718 268.9636 40.9374 257.0572 28.4194 256.6276 15.6071 255.7661 16.719 227.7507 17.2126 215.3498 17.6708 203.8584 17.7917 200.5444 17.7904 199.9586 17.8035 199.8214 17.8101 199.5134 17.9945 194.3413 18.0217 193.6632 18.0347 193.6014 18.562 180.1672 19.1764 166.1816 19.5598 156.1141 19.5983 154.8315 19.673 152.3425 19.6147 149.2893 19.9094 143.1957 19.9122 143.13 19.9383 142.8185 20.292 134.9717 20.2847 133.4436 21.6981 98.8806 21.8949 95.6646 22.2815 86.4642 22.2985 86.1247 22.5554 80.684 22.2108 80.0128 22.8642 57.8627 23.1199 51.6169 Z" id="fips-56039"/>
<path d="M 361.3754 8.762 378.5834 8.8983 393.7522 8.9103 393.8624 8.9 398.0912 8.8737 406.2471 8.8175 421.2884 8.8066 444.53 8.9194 445.4448 9.0239 447.5792 9.1119 449.8004 9.4228 450.8637 9.3557 453.4525 9.4286 460.2175 9.4152 470.3475 9.3856 470.7863 9.3915 505.2368 9.22 537.6519 8.9381 537.6657 8.9379 563.2037 8.5274 563.741 27.4008 564.7186 29.052 565.072 51.8373 565.5738 53.9305 565.7453 62.5557 566.0491 73.4634 547.7525 73.8096 520.8797 74.5092 507.8371 75.4145 479.328 75.5561 455.7511 75.5298 419.4871 75.5811 419.3163 75.2036 419.0563 73.8399 418.7876 72.6703 418.7057 72.0539 418.0759 71.3533 417.8912 70.6586 417.4229 70.1615 416.6646 69.822 415.8365 69.5434 415.0341 69.6599 414.1179 69.3617 413.7591 68.4936 413.2311 67.7862 412.5883 68.0673 412.6473 68.1668 412.354 68.3817 411.8824 68.5471 411.5551 68.676 410.6002 68.3869 409.8458 68.0207 408.8396 67.5981 408.2095 67.2375 407.2928 65.7821 406.5027 64.8141 406.2118 63.8791 405.3558 63.2827 404.9989 63.6133 403.7753 64.4623 402.3734 63.8552 401.8314 62.5986 402.2236 61.7347 402.8017 61.1478 402.7003 59.9981 401.9892 59.4826 400.9198 59.5838 400.2586 58.9658 400.0861 58.0922 398.9467 57.3051 397.2989 56.7096 395.9527 56.1594 395.1281 55.1561 393.4965 54.8155 392.4663 55.1643 391.6158 55.4555 390.317 55.6748 389.3248 55.5455 388.6525 56.3263 388.3718 56.9408 387.6922 57.2388 387.3775 57.3239 386.7574 56.9253 386.1467 56.2497 385.5973 55.4524 385.9189 54.2017 385.3469 53.5061 384.5991 53.1669 383.8583 53.5535 383.1681 53.1209 381.8885 52.6479 380.8147 51.9111 380.1472 52.159 379.0757 51.8196 378.6075 51.0125 378.5205 50.6977 379.1445 49.9955 379.1304 48.6005 378.7703 47.5963 378.8015 46.8993 378.8843 46.1165 378.4898 45.8985 378.2894 45.4113 378.2959 44.6368 377.5946 43.5234 376.2867 43.2342 374.5102 42.8621 373.5586 42.2092 372.7006 41.4926 370.5247 40.4734 369.7686 39.4805 370.3616 38.6358 370.8411 38.2512 371.387 37.098 371.4706 36.5866 370.9054 36.0328 370.6007 36.0943 370.3429 35.7317 370.3476 35.3628 369.9642 34.8386 370.0499 33.6867 369.8512 32.583 369.5887 32.3534 368.8785 31.69 368.1597 29.936 367.5079 29.2204 366.5113 28.4955 366.5331 27.3381 366.7477 26.489 366.9027 24.933 367.5288 24.3988 367.7285 24.3014 367.8282 23.6907 367.6452 23.0526 367.5445 22.0159 366.7553 21.1895 365.7669 20.1722 364.9667 19.3361 364.4579 17.6718 364.8268 16.2287 364.9398 15.5095 365.0209 14.8146 364.9501 14.0795 364.6876 13.3648 364.5017 12.2664 364.5057 11.405 363.9465 10.542 362.9888 9.9138 361.7574 9.5742 361.3748 8.8547 361.3754 8.762 Z" id="fips-56033"/>
<path d="M 119.8261 417.6811 176.9306 420.2288 232.7862 421.445 300.3186 422.451 403.0742 423.2342 403.1259 449.5248 405.2029 449.524 405.0394 502.0755 404.5669 514.641 357.0942 514.2177 357.0869 515.036 356.9017 553.6999 358.3515 553.7111 357.9442 613.6596 343.317 613.5791 327.9382 613.7182 320.012 613.7064 291.4698 613.4243 288.4999 613.4662 276.578 613.2366 247.6943 612.8289 228.7554 612.4227 214.6485 612.1292 207.998 611.8165 205.8551 611.932 177.3243 611.5946 173.4147 611.6515 172.4138 611.6254 157.2702 611.2172 152.996 611.1273 152.8209 611.1341 136.9722 610.7914 136.8582 610.7954 123.1432 610.3631 120.3677 610.3704 120.2686 610.3642 119.6104 610.2749 114.8196 610.1726 117.4058 522.4358 118.7014 483.5446 119.4736 457.5922 118.6944 454.0609 119.8261 417.6811 Z" id="fips-56037"/>
<path d="M 722.1569 365.1056 735.9355 364.6491 789.1637 362.211 789.1646 362.2377 789.1695 362.3551 789.8232 379.1117 791.3614 415.6492 791.4106 416.8975 791.3735 416.899 791.9075 428.941 791.9529 429.4655 792.0848 433.9334 792.1358 434.4589 792.2057 435.7892 792.3877 441.2146 792.4727 443.3295 792.4732 443.3416 792.8115 451.3882 792.862 452.2101 792.9548 454.4166 792.9741 454.8768 792.99 455.4372 792.9845 455.493 793.0965 458.3105 793.1284 458.756 793.4569 467.528 793.518 468.8622 793.6346 471.9879 794.5969 494.9673 794.8079 500.3243 795.1218 508.2984 795.1612 509.3598 795.251 511.6623 795.3348 513.0598 795.4518 516.2975 795.6589 520.5242 786.7663 520.8638 734.6341 522.8041 727.7935 522.9926 727.3086 509.6934 723.7185 407.1142 722.1569 365.1056 Z" id="fips-56015"/>
<path d="M 127.7515 154.9862 128.2648 154.983 129.8663 155.8863 129.9955 156.4865 129.9206 156.802 130.1475 157.2174 130.4497 157.6652 130.6105 158.1088 130.87 158.525 130.8283 158.8264 131.1125 159.1526 131.3545 159.4322 131.3187 159.9002 131.335 160.4455 131.3581 161.1272 131.592 161.3156 132.0398 161.2683 132.5706 161.3595 132.8657 161.3228 133.1664 161.4678 133.1832 161.6347 133.2764 161.9439 133.1584 162.4663 133.105 162.7977 133.0942 163.1606 133.1776 163.2841 133.7477 163.9045 135.4397 163.3142 139.0352 162.7149 142.141 164.7227 146.3029 164.281 147.4819 163.7582 148.7717 163.6215 148.69 164.8546 147.6028 166.1562 147.5896 167.7899 148.5091 168.0975 149.3747 168.6511 149.5259 169.729 149.2693 171.04 149.7789 172.0318 151.4337 173.554 152.0572 174.0261 151.9955 175.6254 151.5353 175.8021 151.344 176.5182 151.7489 177.0554 152.6716 177.3748 152.894 177.6497 152.7386 178.0677 152.2968 178.4522 151.3494 178.7902 150.3918 178.9173 149.4369 179.0372 148.6964 179.7011 148.4264 180.5755 148.887 181.4994 148.4865 182.2792 148.9136 183.4172 149.9437 184.1766 150.8848 183.7739 151.1819 183.5907 151.5442 183.9736 151.5718 184.3894 151.9599 184.7582 152.4626 184.8302 153.0423 185.2578 153.8451 185.8312 154.7724 186.4125 155.3029 186.6643 155.8697 186.6613 156.2008 186.3837 156.5799 185.8301 157.3968 185.3123 158.2576 184.7743 158.3795 184.479 158.9071 184.5135 159.0944 184.6658 159.8787 184.1891 160.651 183.3575 161.9383 182.5009 163.1937 182.0003 164.3838 182.0594 165.6884 181.4616 167.1438 180.8931 168.4646 180.8563 169.2173 180.0158 168.876 178.526 168.7295 176.9849 169.5131 175.5528 170.7305 172.1085 174.047 168.5745 175.7758 167.5323 177.547 166.0784 177.9913 166.7766 179.5199 166.0389 181.1849 164.5037 183.8823 164.6002 186.3145 166.9716 190.2928 165.5954 190.6317 168.1237 193.8958 168.4617 194.7605 170.9617 196.9751 171.7357 198.5195 175.5391 200.5081 175.816 201.8952 181.8975 205.3016 182.1174 206.732 183.3282 207.6094 186.4849 207.9013 187.5903 211.7424 189.0554 213.0312 192.5205 215.973 194.132 220.0066 202.1136 222.6905 204.0592 222.4547 216.0668 248.455 216.6246 248.4524 218.8099 261.5471 218.9361 261.4784 223.4285 274.5847 223.587 274.4498 230.1664 287.4895 230.2902 287.4345 234.7224 300.5132 234.8888 300.4641 239.2571 313.5491 239.4229 313.5185 241.5854 331.7909 241.7433 333.4538 241.7754 333.4682 240.1088 395.0767 240.102 395.0829 235.697 401.6899 235.7039 401.6756 240.031 403.6519 240.0457 403.7024 292.1928 405.2924 292.177 405.3577 331.3856 405.4188 344.6128 400.7441 344.5988 400.9122 397.1243 403.0451 397.124 403.0742 423.2342 300.3186 422.451 232.7862 421.445 233.2464 395.7383 230.3801 395.712 230.7132 356.3729 223.8668 356.1285 224.5797 354.0088 222.4683 351.0674 224.2287 349.5994 219.0312 347.4479 217.3296 344.7678 214.1278 345.6799 212.7459 344.6335 213.896 341.7544 215.7458 340.8717 211.6933 339.0341 209.3717 336.1634 207.8502 332.6768 204.2753 331.2475 202.9723 328.6091 202.5668 325.2662 200.9999 321.4884 198.4397 317.5648 195.4185 318.4867 193.9844 315.9943 191.6861 314.0224 189.2872 313.6898 187.9742 310.3366 185.1769 309.7572 184.086 307.4382 178.5464 307.0007 178.4256 304.0599 177.2769 301.2489 178.7581 299.8493 177.934 296.2417 174.6176 291.3427 171.446 289.7181 170.5111 283.9776 168.2032 283.367 167.3963 277.9134 165.671 276.0052 166.3844 273.9892 165.7225 270.9658 164.0336 268.4316 165.5963 266.9727 164.8926 265.8974 166.4465 261.6854 163.6335 258.4985 164.1824 253.1324 162.7749 251.8748 160.0104 253.0415 157.64 252.9999 157.8816 243.263 158.0022 238.2854 125.4409 237.1312 127.0524 184.2596 126.8424 183.2758 127.7515 154.9862 Z" id="fips-56013"/>
<path d="M 10.3315 376.9505 10.8385 366.5546 11.9865 345.4196 12.8788 322.3962 13.3899 310.5221 13.4613 308.8648 13.4932 308.1042 13.5319 307.2607 13.7841 300.6636 13.787 300.5568 13.8003 300.0719 13.8316 299.7754 13.8333 299.7356 13.8433 299.4988 13.8546 299.0663 13.9418 297.231 13.9554 296.7432 13.9653 296.492 14.0165 295.2045 14.0477 294.3745 14.081 293.4882 14.0926 293.1783 14.1208 292.5523 14.772 276.7174 14.7694 276.6999 14.8186 275.6112 14.856 274.8853 14.8894 273.9275 15.6071 255.7661 28.4194 256.6276 40.9374 257.0572 40.4718 268.9636 66.3714 269.9291 65.7825 286.3961 64.7442 286.3827 63.1972 329.2043 62.8818 338.8395 58.9155 338.6922 58.53 349.1273 62.2374 349.2768 60.808 388.8339 66.0258 389.0065 65.3031 414.872 78.3431 415.5333 102.7644 416.2784 104.0814 417.1835 119.8261 417.6811 118.6944 454.0609 119.4736 457.5922 118.7014 483.5446 117.4058 522.4358 57.3256 520.2799 4.6507 518.1261 5.8321 487.9239 7.1497 454.3898 7.9754 433.0881 8.0158 432.1096 8.2303 427.0163 8.3011 425.1871 8.8381 412.1868 9.2645 401.8132 10.2653 378.3071 10.3315 376.9505 Z" id="fips-56023"/>
<path d="M 285.4516 8.2431 290.0328 8.2892 291.3767 8.2914 298.3533 8.5076 322.8999 8.6688 325.2279 8.8081 325.2367 8.8086 326.4364 8.7055 328.5398 8.672 335.9306 8.6494 351.8399 8.7256 352.1942 8.6758 361.3754 8.762 361.3748 8.8547 361.7574 9.5742 362.9888 9.9138 363.9465 10.542 364.5057 11.405 364.5017 12.2664 364.6876 13.3648 364.9501 14.0795 365.0209 14.8146 364.9398 15.5095 364.8268 16.2287 364.4579 17.6718 364.9667 19.3361 365.7669 20.1722 366.7553 21.1895 367.5445 22.0159 367.6452 23.0526 367.8282 23.6907 367.7285 24.3014 367.5288 24.3988 366.9027 24.933 366.7477 26.489 366.5331 27.3381 366.5113 28.4955 367.5079 29.2204 368.1597 29.936 368.8785 31.69 369.5887 32.3534 369.8512 32.583 370.0499 33.6867 369.9642 34.8386 370.3476 35.3628 370.3429 35.7317 370.6007 36.0943 370.9054 36.0328 371.4706 36.5866 371.387 37.098 370.8411 38.2512 370.3616 38.6358 369.7686 39.4805 370.5247 40.4734 372.7006 41.4926 373.5586 42.2092 374.5102 42.8621 376.2867 43.2342 377.5946 43.5234 378.2959 44.6368 378.2894 45.4113 378.4898 45.8985 378.8843 46.1165 378.8015 46.8993 378.7703 47.5963 379.1304 48.6005 379.1445 49.9955 378.5205 50.6977 378.6075 51.0125 379.0757 51.8196 380.1472 52.159 380.8147 51.9111 381.8885 52.6479 383.1681 53.1209 383.8583 53.5535 384.5991 53.1669 385.3469 53.5061 385.9189 54.2017 385.5973 55.4524 386.1467 56.2497 386.7574 56.9253 387.3775 57.3239 387.6922 57.2388 388.3718 56.9408 388.6525 56.3263 389.3248 55.5455 390.317 55.6748 391.6158 55.4555 392.4663 55.1643 393.4965 54.8155 395.1281 55.1561 395.9527 56.1594 397.2989 56.7096 398.9467 57.3051 400.0861 58.0922 400.2586 58.9658 400.9198 59.5838 401.9892 59.4826 402.7003 59.9981 402.8017 61.1478 402.2236 61.7347 401.8314 62.5986 402.3734 63.8552 403.7753 64.4623 404.9989 63.6133 405.3558 63.2827 406.2118 63.8791 406.5027 64.8141 407.2928 65.7821 408.2095 67.2375 408.8396 67.5981 409.8458 68.0207 410.6002 68.3869 411.5551 68.676 411.8824 68.5471 412.354 68.3817 412.6473 68.1668 412.5883 68.0673 413.2311 67.7862 413.7591 68.4936 414.1179 69.3617 415.0341 69.6599 415.8365 69.5434 416.6646 69.822 417.4229 70.1615 417.8912 70.6586 418.0759 71.3533 418.7057 72.0539 418.7876 72.6703 419.0563 73.8399 419.3163 75.2036 419.4871 75.5811 421.2011 78.2458 423.2438 78.4941 424.0821 81.0381 427.6488 84.5027 426.5717 90.0907 426.9747 90.8 429.3686 90.7934 429.3383 92.0424 433.257 93.9136 437.6 92.6822 437.4057 95.267 437.9192 99.7879 440.1183 99.1832 441.2052 100.665 440.4282 103.2186 442.0282 104.4875 439.5333 105.9214 439.0978 107.5307 440.8774 109.4906 443.8736 111.1646 443.794 135.1137 385.4047 135.0919 381.3724 134.861 341.3573 134.6438 291.4677 134.1403 288.9468 134.1078 289.4773 94.7011 289.6568 80.8229 287.5999 80.7795 287.7281 69.9424 288.0645 44.9585 288.3034 27.7799 285.2841 27.7361 285.4516 8.2431 Z" id="fips-56003"/>
<path d="M 419.4871 75.5811 455.7511 75.5298 479.328 75.5561 507.8371 75.4145 520.8797 74.5092 547.7525 73.8096 566.0491 73.4634 566.2655 79.0449 565.6537 79.9748 566.4255 133.094 568.1978 185.7325 567.2818 185.7628 568.2159 235.1484 561.5576 235.3424 521.1031 236.2252 448.2222 236.9428 448.2363 235.7439 448.1856 227.3806 447.6678 187.9726 446.1433 188.0001 445.7716 135.1002 443.794 135.1137 443.8736 111.1646 440.8774 109.4906 439.0978 107.5307 439.5333 105.9214 442.0282 104.4875 440.4282 103.2186 441.2052 100.665 440.1183 99.1832 437.9192 99.7879 437.4057 95.267 437.6 92.6822 433.257 93.9136 429.3383 92.0424 429.3686 90.7934 426.9747 90.8 426.5717 90.0907 427.6488 84.5027 424.0821 81.0381 423.2438 78.4941 421.2011 78.2458 419.4871 75.5811 Z" id="fips-56019"/>
<path d="M 656.7287 511.3088 727.3086 509.6934 727.7935 522.9926 734.6341 522.8041 786.7663 520.8638 795.6589 520.5242 795.7306 522.2696 795.725 522.2809 795.7831 524.0186 795.7962 524.3272 795.9224 526.8601 795.9624 527.8557 796.5753 542.6466 796.6579 544.1875 796.731 546.3571 796.7315 546.3712 797.0677 555.8386 797.1662 557.261 797.1501 557.2893 797.1686 558.0088 797.4127 563.7498 797.4001 563.778 797.4065 564.1967 798.0264 582.0281 798.3281 588.4925 798.3922 589.9233 798.4879 592.1455 798.4739 592.2292 798.9167 603.0577 798.9173 603.2447 799 605.5721 797.4367 605.6222 795.2589 605.7032 793.1481 605.793 790.9826 605.869 780.9659 606.2773 780.6562 606.293 780.5986 606.2819 751.761 607.4102 748.4089 607.4822 748.3984 607.4791 736.7283 607.971 728.01 608.3292 716.9504 608.8619 710.5123 609.1662 707.579 609.4454 697.5306 609.7565 662.0059 610.7719 661.8066 610.7802 659.4868 610.8458 658.7926 592.9829 658.0091 568.1908 657.7469 560.5488 656.7287 511.3088 Z" id="fips-56021"/>
<path d="M 668.0351 129.7025 744.2741 126.3212 745.0721 126.3984 779.0489 125.1297 779.2929 131.0691 780.5502 161.7483 780.5463 161.9838 781.0318 174.5386 781.6511 188.4183 781.7267 190.1127 781.7483 190.6139 782.8114 215.2874 782.8155 215.3387 782.8467 215.9648 782.9575 219.1042 783.3348 227.4578 690.7453 231.3988 671.033 232.1794 670.9224 231.2526 669.8518 195.6649 669.382 182.5149 668.8227 161.4525 668.0351 129.7025 Z" id="fips-56045"/>
<path d="M 207.6094 186.4849 212.0268 186.1491 227.2348 186.4675 231.5571 186.3033 231.8823 173.1687 251.5071 173.467 251.3746 160.4392 264.8904 160.6198 265.039 147.2244 291.2817 147.6087 297.857 147.6311 297.7939 160.9261 304.5814 160.9715 304.1656 174.3849 317.2666 174.5286 317.1509 183.0951 330.7289 182.9613 329.5122 185.9613 331.8207 187.3999 355.6692 187.5935 355.591 200.4846 381.9024 200.5916 381.8376 213.8396 395.0906 213.7572 395.0829 235.697 395.0767 240.102 333.4682 240.1088 333.4538 241.7754 331.7909 241.7433 313.5185 241.5854 313.5491 239.4229 300.4641 239.2571 300.5132 234.8888 287.4345 234.7224 287.4895 230.2902 274.4498 230.1664 274.5847 223.587 261.4784 223.4285 261.5471 218.9361 248.4524 218.8099 248.455 216.6246 222.4547 216.0668 222.6905 204.0592 220.0066 202.1136 215.973 194.132 213.0312 192.5205 211.7424 189.0554 207.9013 187.5903 207.6094 186.4849 Z" id="fips-56017"/>
</g>
</svg>