<?xml version="1.0" encoding="utf-8"?>
<!-- Generator: Adobe Illustrator 24.0.3, SVG Export Plug-In . SVG Version: 6.00 Build 0)  -->
<svg version="1.1" id="Layer_1" xmlns="http://www.w3.org/2000/svg" xmlns:xlink="http://www.w3.org/1999/xlink" x="0px" y="0px"
	 viewBox="0 0 555.7 428" style="enable-background:new 0 0 555.7 428;" xml:space="preserve">
<g id="cb_2018_us_state_5m">
	<path d="M-162.5,388.2L-162.5,388.2l0.6,0.3l0.4-0.1l0.5-0.3l0.6,0l0.4,0.1l0.3,0.2l1,1.9l0,0.2l-0.3,0.3l-0.3,0.2l-0.4,0.5
		l-1.5,0.2l-0.3,0l-0.3-0.2l-1-1.1l-0.3-0.8l0-0.4L-162.5,388.2z M-177.2,390.4l0.5-0.3l0.3,0l0.1,0.1l0,0.2l0.1,0.2l0.5,0.6
		l0.7,0.3l0.3,0.1l0.7,0.7l0.5,0.4l0.1,0.3l-0.1,0.2l0,0.2l0,0.1l0.8,1.3l0.5,1.7l0.2,0.4l0.4,0.6l0.2,0.2l0.2,0.1l0.2,0.1l0.1,0.7
		l0,0.4l0,0.3l0,0.1l0.3,0.3l1,0.5l0.7,0.3l0.2,0.2l0.6,0.9l0,0.1l-0.3,0l-0.7-0.2l-0.1-0.1l0-0.1l-0.2-0.3l-1.6-0.4l-0.4-0.7
		l0.1-0.3l-0.1-0.2l-1.1-1.8l-0.4-0.6l-0.1-0.7l-0.1-0.6l-0.3-1l-0.1-0.3l-1.1-1.5l-0.1-0.1l-0.5-0.1l-0.2,0l-0.2-0.2l-0.7-0.8
		l-0.7-1.2l0-0.1L-177.2,390.4z M-176.4,381.7l0.3-0.1l0.2,0.1l0.9,0.8l0.2,0.2l0.1,0.5l-0.1,0.1l-0.5,0.3l-0.6,0.3l-0.3-0.1
		l-0.2-0.1l-0.1-0.3l0-0.6l0.1-0.7L-176.4,381.7z M-180.6,383.6l0.9,0.6l0,0.1l0.1,0.2l0.1,0.2l0,0.1l0.2,1l0,0.3l-0.3-0.3l-0.2-0.2
		l-0.1,0l-0.2-0.2l-0.1-0.1l0-0.1l-0.4-1.3L-180.6,383.6z M-180.6,378.2l0.3-0.2l0.2,0l0-0.1l0.3,0.2l0.3,0.5l0,0.1l-0.1,0.7
		l-0.3,0.2l-0.6-0.2l-0.2-0.4l0-0.1L-180.6,378.2z M-193.7,375.2l0.5-0.1l0.6,0l0.2,0.1l1-0.4l0.1-0.1l1.1,0.1l1,0.4l0.3-0.1
		l0.2-0.3l0.1-0.1l0.2-0.5l1.1-1.1l0.4-0.3l0.7-0.1l0.5,0.9l0,0.5l-0.3,0.3l-0.2,0.1l-0.1-0.1l-0.2,0l-0.2,0l-0.7,0.6l-0.2,0.2
		l-0.4,0.1l-0.1,0l-0.7,0.3l-0.2,0.2l0,0.3l0,0.1l0.3,0.3l0.1,0.1l0.4,0.1l0,0.1l-0.1,0.3l-0.2,0.2l-0.1,0l-0.6-0.1l-0.9-0.7
		l-0.9-0.7l-0.6,0l-0.5,0.2l-0.6,0.5l0,0.1l0.1,0.1l-0.2,0.5l-0.3,0.3l-0.2,0l-0.1-0.1l0-0.2l0.1,0l0-0.1l-0.2-0.4l-0.3-0.6
		l-0.3-0.2l-0.1-0.1L-193.7,375.2L-193.7,375.2z M-206.3,355.7l0.5,0.1l0.5,0.5l0.1,0.3l-0.5,0.3l-0.4-0.2l-0.1-0.1l-0.1-0.3
		l-0.1-0.5L-206.3,355.7z M-225.4,335l0.4,0l0.1,0l0.4,0.5l0.1,0.2l0,0.4l0,0.2l0,0l-0.6-0.4l-0.4-0.5L-225.4,335L-225.4,335z
		 M-226.7,333.8l0.3,0.3l0.2,0.2l0.1,0.4l-0.3,0.1l-0.3-0.4l-0.1-0.3L-226.7,333.8L-226.7,333.8z M-227.5,332.6l0.2,0.1l0.2,0.2
		l0.3,0.5l0,0.2l-0.1,0.1l0-0.1l0-0.1l-0.4-0.2l-0.1-0.4L-227.5,332.6L-227.5,332.6z M-237.9,336.7l0.6-0.4l1,0l0.1,0l0.2,0.4
		l0.1,0.1l0.3,0.2l0.4,0l0.1,0l0.4-0.2l0-0.1l0-0.2l0.2,0l0.4,0.3l0.8-0.4l0.8,0.3l0.7,0.4l0.4,0.3l0,0.1l0,0.1l-0.3,0.1l-0.2-0.1
		l-0.6,0.1l-0.3,0.3l-0.2,0.2l0,0.2l0.1,0.1l0,0.1l0,0.3l-0.2,0.5l-0.4,0.9l-0.9-0.5l-0.1-0.1l0-0.1l-0.2-0.7l0-0.4l0-0.2l-0.4-0.2
		l-0.3,0.1l-0.5-0.1l-0.4-0.2l-0.2-0.2l-0.1-0.2l-0.6-0.7l-0.1-0.1L-237.9,336.7L-237.9,336.7z M-243.2,318.9l2.9-0.3l0.2,0l1.3,0.7
		l4.2,3.1l0.1,0.2l0.1,0.1l0.2,0.5l0,0.4l0.3,0.7l0.3,0.1l0.2,0.1l0.4,0.7l0.7,2.7l-0.1,0.4l-0.1,0l-0.1-0.1l-1.4-0.7l-0.2-0.2
		l-0.4-1l-0.1,0l-0.3,0l-0.4,0.2l-0.5,0.5l-0.2,0.1l-0.4,0l-0.1,0l-0.2-0.1l-1.3-1.2l-1.6,0l-0.9-1.3l-0.2-1.1l0.3-0.5l0.2-0.3
		l0-0.4l-0.9-1.9l-0.7-0.3l-0.5-0.1l-0.5-0.1l-0.5-0.5L-243.2,318.9z M539.6,350.9l0.3-0.6l0.2,0l0.4,0.4l0,0.1l-0.1,0.4l0.2,0.4
		l0,0.1l-0.3,0.1l-0.5-0.3l-0.2-0.2L539.6,350.9z M537.4,355.3L537.4,355.3l0.9-0.8l1.7-1.3l0.2,0l0.1,0.2l-0.1,0.3l0.6,1.1l0.1,0
		l0.2-0.1l0.3,0l0,0l0,0l0,0.2l-0.4,1.3l-0.1,0.2l-1.1,0.4l-1.9-0.7l-0.4-0.3L537.4,355.3z M535.7,356l0.3-0.7l0.5-1l0.4,0.1
		l0.2,0.3l-0.1,0.6l-0.3,0.3l-0.1,0.3l-0.3,0.3L535.7,356z M534.7,354.1l0.2-0.4l0.1-1.1l-0.3-0.4l0-0.5l0.2-0.2l0.3,0l0-0.5
		l-0.3-0.2l-0.4-0.2l-0.2-0.2l-0.6-1.4l0-0.9l0.2-0.3l0.1,0l0.2,0l0.6,0.3l0.3,0l0.2,0l0.1,0.2l0.4,0.4l0.3,0.1l0.2-0.1l0.2,0
		l0.3,0.1l0.8,0.5l0.3,0.3l-0.1,0.1l-0.1,0.3l0.8,2l0.1,0.6l-0.1,0.7l-0.1,0.2l-1.3,0.5l-0.2-0.1l-0.2-0.2l0-0.1l-0.4-0.1l-0.5,0.7
		l-0.1,0.3l-0.2,0.1l-0.2,0l-0.5-0.3L534.7,354.1z M529.4,347.5l-0.2-1.4l0-0.1l0.3,0l0.3,0.1l0,0l0.1,0.2l0.1,0.1l0.6,0.2l0.8,0.6
		l0.5,0.2l0.3,0.1l0.4,0.4l0,0.4l-0.3,0.4l0.4,1.4l-0.1,0.7l0.1,1.8l-0.9-0.6l-0.6-0.5l0-0.1l0-0.1l-0.8-1.7l-0.3-0.3L529.4,347.5z
		 M513.2,323.6l0-0.7l-0.1-0.3l0.3-0.1l0.2,0.3l0,0.2l-0.1,0.2l0,0.2l-0.3,0.2L513.2,323.6z M513.1,326.8l-0.1-0.6l0.4-1l0.3-0.1
		l0.9,0.3l0.2,0.2l0.1,0.5l-0.9,1.1l-0.3,0.1l-0.6-0.1L513.1,326.8z M511.2,324.8L511.2,324.8l0.3-0.8l0.1-0.1l0.3-0.1l0.1-0.6
		l0.1-0.5l0.1-0.3l0.1,0l0.1,0.1l0.1,0.4l0,0.7l-0.2,0.6l-0.1,0.1l0.2,0.8l-0.1,0.2l-0.2,0.1l-0.8-0.4L511.2,324.8z M518.7,361
		l0.3-0.6l0.5,0.1l0,0.3l0.2,0.4l-0.1,0.4l-0.4-0.1L518.7,361z M508.2,332.3l0.1-0.7l-0.1-0.5l0.2-0.2l0.3,0.1l0.1,0.4l0.6,0.5
		l0.3,0.4l0.7,0.8l0.3,0.7l0.6,0.6l-0.1,0.2l-0.4,0l-0.1,0.4l-0.3-0.1l-0.5-0.3l-0.6-0.5l-0.4,0.1l-0.2-0.4l-0.1-0.3l0-0.3l-0.1-0.2
		L508.2,332.3z M506.8,329.5l0.1-0.1l0.1-0.4l0.2-1.2l0,0l-0.1-0.1l0-0.1l0.1-0.2l0.3-0.3l0.2-0.3l0.3-0.3l0.4-0.2l0.3-0.1l0.5,0.2
		l0.3,0l0.1-0.1l0.1-0.3l0.1-0.1l0.6-0.4l0.3,0l0.7,0.1l0.6,0.3l0.1,0.1l0.3,0.6l-0.3,0.5l-0.1,0.2l-0.1,0.4l0,0.2l0.2,0.3l0.3,0.2
		l0.2,0.4l0.1,0.2l0.1,0.5l-0.6,0.6l-0.7,0.3l-0.8,0.6l-0.4,0.1l-1-0.5l-0.4-0.4l-0.7-0.1l-0.5-0.1l-0.4-0.2L506.8,329.5
		L506.8,329.5z M509.9,352.3l0.2-0.5l0.6-0.3l0.2,0.2l0,0.2l-0.1,0.5l-0.4,0.3l-0.3,0.1l-0.3-0.2L509.9,352.3z M510.4,366.4l0.4-0.1
		l0.4,0.6l0.3,0.9l0.3,0.6l0.2,0.4l-0.1,0.3l-0.8-0.7l-0.2-0.8l-0.3-0.6L510.4,366.4z M504.1,349l0.3-0.6l-0.1-0.7l-0.2-0.6l0.3,0
		l0.8,0.3l0.1,0.5l0.1,0.1l-0.2,0.5l-0.2,0.6l-0.2,0.6l-0.6-0.5L504.1,349z M503.1,348.1l0.5-0.4l0.2,0.1l0,0.6l-0.7,0L503.1,348.1z
		 M503.3,349.8l0.1-0.3l0.4,0.4l0.1,0.2l-0.3,0.1l-0.2-0.2L503.3,349.8z M503.5,353.5l-0.1-2l0-0.2l0.2-0.4l1.6-0.3l0.5,0.1l0,0
		l0.1,0.7l0,0.2l-0.2,0.2l-0.2,0.1l-0.1,0.1l0,0.5l0,0.1l0.1,0.1l0.3,0l0.5-0.5l0.3-0.6l-0.1-0.4l0-0.5l0,0l0.7,0.2l0.5-0.3
		l-0.2-0.3l0-0.5l0-0.2l0.2-0.3l0.9-0.3l0.7,0.5l0.2,0l0.1,0.1l0.1,0.2l0,0.6l-0.1,0.5l-0.5,0.9l-0.2-0.1l-0.3-0.2l-0.1,0l-0.4,0.3
		l-0.4,0.9l0.2,0.3l0.5-0.2l0.1,0l0.1,0.1l0.1,0.3l0,0.5l-0.1,0.1l-0.3,0.1l-0.6,0.5l-0.8,1.3l0,0.8l0,0.5l0.1,0.7l0,0.1l-0.2,0
		l-0.2-0.1l-1.1-1l0-0.1l-0.1-0.3l0.2-0.2l0.2-0.5l0.1-0.4l-0.1-0.9l-0.4-0.7L504,353l-0.1,0.1l-0.2,0.1L503.5,353.5z M499.8,341.7
		l0.2-0.3l0.2-0.3l0.2-0.7l0.3-1.7l0.1-0.2l0.3-0.3l0.5-0.2l0.4,0l0.4-0.3l0-0.3l-0.4,0.1l-0.7,0l-0.3-0.4l0-0.5l0.2,0l0.6,0.2
		l0.2-0.4l0-0.4l-0.1-0.2l-0.5-0.1l-0.4-0.2l-0.6,0l-0.5-0.2l0-0.3l0.3-0.1l0.2-0.4l-0.2-0.4l-0.2-0.2l-0.3-0.4l-0.3-0.7l0-0.4
		l0.1,0l0.1,0l0.2-0.4l0-0.1l0-0.1l0.3-0.3l0.1-0.1l2.3-0.2l1.2-0.4l0.6,0l0.7-0.1l0.4-0.4l0.5,0.2l1.3,1.3l0.2,0l0.1,0.2l0.8,1.1
		l0.1,0.7l-0.1,0.1l0,0.2l0,0.1l0.1,0.2l0.3,0l0.3-0.1l0.3,0.2l0.1,0.5l0.3,0.3l0.3,0.2l0.4-0.1l0.2,0.4l0,0.2l0.5,0.2l0.1-0.4
		l0.5-0.2l0.2,0.2l3.3,1.5l0.3,0.2l0.1,0.1l0.1,0.2l0.5,0.4l0.9,0.5l0.7,0.6l0.7,0.6l0.8,2.3l0.1,0.2l0.2,0.1l0.4-0.1l0.3-0.1l0.2,0
		l0.4,0.3l0.7,1.1l0.2,0.4l0.6,0.5l1,0.3l0.7,0.1l0.2,0.1l0.8,0.7l0.1,0.2l0,0.1l-0.2,0.3l-0.2,0l-0.7-0.3l-0.2-0.1l0-0.1l-0.3-0.1
		l-1-0.2l-0.1,0l-2.9-0.6l-0.3,0.4l0.4,0.3l-0.6,1.8l0.1,0.1l0,0.1l0.4-0.2l0.4-1.2l0.5,0.3l1-0.6l0.5,0.6l0.3-0.2l0.7,0.1l0.5,0.3
		l0.1,0.1l0,0.1l-0.2,0.2l-1.5,0.7l0.6,0.6l1.4-0.9l0.2,0l0.7,0.8l0.9,0l0.5,0.7l0.6,0.8l0.2,0.1l0.2-0.1l0,0.3l0,0.2l-0.3,0.7
		l-0.3,0.1l-0.7,0l-0.1,0.2l0.3,0.3l0.1,0.1l1.2,0.1l0.3-0.1l0.2-0.2l0.1-0.4l-0.1-0.3l-0.1-0.1l0-0.2l0.1-0.4l0.2-0.5l0.1-0.1
		l0.4,0.2l0.1,0.1l0.6,1l0.3,0.7l0,0.4l-0.5,0.5l0,0.2l0.1,0.4l0,0l0.3,0l0,0.9l-0.4,1.4l-0.6,0.8l-0.2,0.1l-0.2,0.1l-0.2,0.2l0,0.1
		l0.2,0.3l0.7-0.1l0.1-0.1l0.6-1l0.3-0.6l0.1-0.1l0.4-0.1l0.3,0.1l1.3,4.1l0.1,0.1l0.2,0.3l0.3,0.7l0.1,0.3l-0.1,1.6l-0.1,0.6
		l-0.1,0.3l-1.4,0.7l-0.3,0l-0.3-0.2l-0.3-0.1l-0.9-0.2l-0.1,0l-0.2,0.2l0,0.1l0.1,0.2l0,0l-0.4,0l-0.4-0.5l-0.6,0l-0.3-0.7
		l-0.8,0.2l-0.8,0.5l-0.3-0.1l0.5-1.3l1.3-0.2l0-0.1l0.1-0.2l0.1,0l-0.3-0.5l-1.2-0.5l-1,0l-1.2-0.5l-0.4-0.2l-0.5-0.3l-0.1-0.1
		l-0.1-0.2l0-0.3l0.2,0l0.2-0.2l0-0.1l-0.3-2.5l-0.2-0.3l0,0l-0.2,0l-0.4,0.4l-0.1,1l0,0.2l0,0.1l0,0.1l-0.1,0l0,0l-0.2-0.4l-0.1-1
		l0-0.7l0-0.2l0.1-0.2l0,0l0-0.3l-0.5-0.5l-0.2-0.1l-0.1,0.4l0.2,0.2l0,0.1l0.1,0.5l-0.3,0.3l-0.4,0.3l-0.5,0.3l0.6,0.7l0.7,1.1
		l0,0.4l0,0.1l-0.5,0.9l-1-0.1l-0.8-0.1l-0.8-0.2l-0.2-0.2l-0.2-0.3l0-0.1l0.2-0.3l0.2-0.8l0.1-0.4l-0.1-0.2l-0.5-0.7l-0.8-0.8
		l-0.1,0l-0.6,0.1l-0.3,0.3l-0.6-0.5l-0.1-0.4l-0.9-0.1l-0.1,0.4l1.1,1.4l1.2,1.1l0.6,1.1l0.1,0.3l-0.2,0.3l-0.1,0.2l0.2,0.3
		l0.8,0.1l1.3,2.1l0,0.2l0.5,0.3l1,0.4l0.3-0.2l0-0.1l-0.2-0.5l-0.1-0.1l-0.1-0.1l-0.1-0.3l0.2-0.3l0.9-0.4l1.3,0.5l0.4,0.4l0.6,1.8
		l0.4,0.7l0,0.3l-0.2,0.4l-0.4-0.1l-0.3-0.2l-0.4-0.5l-0.1-0.3l-0.2-0.1l-0.2-0.1l-0.1,0l-0.3,0.2l0,0.1l0.1,0.2l0.2,0.1l0.6,0.8
		l1.2,1.7l0.1,0.1l0,0l-0.2,0.2l-1.1,0.2l-1.4-0.2l-0.1,0l0-0.4l-0.1-0.3l-0.3-0.5l-0.3-0.3l-0.3-0.2l-0.1,0l-0.3,0.1l-0.2-0.1
		l-1.6-1.2l-1.3-1.2l-0.5-0.4l-0.6-0.3l-0.2-0.4l-0.1-0.6l-0.4-0.7l-0.1,0l-0.3,0.1l-0.2-0.1l-0.7-1.1l0.2-0.2l0.1,0l1-0.3l0.1,0
		l0.1-0.1l-0.4-0.1l-1.2,0l0.2-0.3l-0.6-1l-0.1-1.1l-0.4,0.1l-0.3,0.4l-0.5,0.4l-0.2,0.1l-0.3-0.3l-0.1-0.1l-0.2,0l-0.3,0.4
		l-0.1,0.1l-0.1,0.1l-0.2,0.1l-0.2-0.1l-0.4-0.6l-0.1-0.2l-0.1-0.3l-0.1-1l0-0.3l0.1-0.3l0.5-0.4l0.5-0.3l0.3,0l0.3,0.2l0.1,0.3
		l0,0.1l0.4,0.5l0.3,0l0.3-0.2l0-0.3l0-0.1l-0.3-0.1l-0.4-0.2l-0.1-0.2l0-0.2l0.1-0.3l0.1-0.2l0.3-0.5l0.2-0.1l0.4,0l0.4,0.1
		l0.2-0.3l0.6-0.9l-0.5-0.3l-0.7-0.6l-0.6-0.3l-0.2-0.3l0.2-0.3l0.4-0.1l-0.1-0.3l-0.3,0l-0.6-0.2l-0.2-0.7l0.4-0.3l-0.4-0.5l-1,0.8
		l-0.2-0.2l-0.3-0.1l-1.4-0.3l-0.8-0.4l0,0l-0.3-0.5l0.3-0.2l0.5,0l-0.3-0.6l-0.4-0.3l-0.1-0.7l-0.3-0.1l-0.8-0.2l-0.2,0.3l0.1,0.3
		l0.2,0.2l0,0l0.1,0.1l0.1,0.3l0,0.2l-0.4,0.4l-0.4,0l-0.4,0l-0.6-0.2l-0.3-0.1l-1.1-0.9l-0.1-0.2l0.3-1.1l0.4-0.3l0.8-0.4l1.4,0.3
		l0.7,0.2l0.9-0.7l0.1-0.1l0.2-0.4l-0.5-0.3L506,342l-0.9-0.1l-0.5,0.6l-0.4,0l-0.1-0.2l0.2-0.7l-0.3-0.8l0-1.4l-0.3-0.2l-0.3,1.1
		l-0.9,1.7l-0.4,0.3l-0.2,0.4l0.5,0.3l0.1,0.4l-0.1,0.3l-0.2-0.1l-0.3-0.5l-0.3-0.3l-1.3-0.4l-0.4-0.6L499.8,341.7z M489.9,310.6
		l0.3-0.5l0.3-0.2l0.6,0.1l0.2,0.4l-0.4,0.5l-0.3,0.3l-0.4,0.2L489.9,310.6z M498.4,343.5l0-0.1l0-0.1l0.5-0.5l0.2-0.1l0.2,0
		l0.2,0.1l0.2,0.4l0.1,0.2l0.1,0.3l0,0.1l0,0.4l0,0.5l-0.1,0.1l-0.4,0.1l-0.1,0l-0.3-0.2l-0.2-0.2l-0.4-0.6L498.4,343.5z
		 M492.9,345.2l0.3-0.5l0.3,0l0.6-0.3l0.1,0.3l0.2,0.6l0.3-0.4l0.7-0.5l0.3-0.1l0.1-0.4l-0.1-0.4l0-0.9l0.3-0.1l0,1l0.1,0.6l0.1,0.1
		l0,0.3l0,0.1l-0.1,0.1l-0.1,0l-0.3,0.2l-0.4,0.5l-0.2,0.4l-0.1,0.3l-0.3,0.6l-0.1,0.1l-0.4,0.2l-0.2-0.2l-0.3-0.1l-0.1-0.3l0.3-0.4
		l-0.3-0.2l-0.3-0.2L492.9,345.2z M486.2,323.3l0.5-1.3l0.6-0.6l0.1-0.8l0.3-0.1l0.7-0.2l0.5-0.2l-0.1-0.5l1.5,0.4l1,1.5l1.1,0.8
		l0.7-0.3l0.7-0.1l0.5,0.3l0.3-0.7l-0.1,0l-0.3-0.2l-0.1,0l-1.1-0.2l-0.4-0.5l-0.7-1l0.1-0.4l-0.5-0.7l-0.8-0.4l-1.3-0.7l0-0.9
		l0.2-0.4l1.4-1l1.6,0l1,0l1.2-0.2l1.1,0.1l1.3,0.1l1.1,0l0.2,0l0,0l0.1-0.1l0.1-0.2l0,0l0.2-0.1l2.6-0.6l1.8,1.1l0.3,0.3l0.8,1.2
		l0.4,0.7l0.1,0.4l0.5,0.3l0.4,0l0.2-0.1l0.4,0l1,0.7l0.5,0.6l0.1,0.3l1.2,0.5l0.6,0.1l0.1,0l0.1,0.2l0,0.2l0,0.2l0.1,0.1l0.1,0
		l0.3,0.3l0.2,0.2l0.3-0.1l0.2,0.1l0.1,0l0.1,0l0.2,0.3l0,0.2l-0.7,1l-0.2,0.2l0,0l-0.3,0.1l-0.5,0.7l-0.2,0.4l-0.8,0.7l-0.3,0.1
		l-0.8-0.1l-1.4,0.4l0,0.1l-0.8,0l-0.6,0.1l-0.3,0l-0.4,0l0,0.1l0.1,0.2l0.1,0.1l0.2,0l0.2,0.4l-0.2,0.7l-0.1,0.2l-0.5,0.5l-2,0.1
		l-0.1,0l-0.2-0.3l-0.2-0.1l-0.1,0l-0.3,0.1l-0.1,0.1l0,0l0,0.4l-0.2,0.7l-0.6,0.6l-0.2,0.1l-0.9,0.3l-0.5,0.1l-0.2,0l-0.1-0.1
		l-0.4-0.9l-0.3-0.8l-0.7-0.5l-0.5,0.8l-0.5,0.9l0.7,0.4l0.5,1.8l-1.1,0.4l0.1,0.7l0.4,0.2l0.4,0.7l-0.3,1.2l0.3,1.3l-0.1,0.6
		l-0.4,0.6l0.4,0.7l-0.1,1.4l-0.4,0.4l-0.3-0.1l-0.9,0.1l-0.2,0.4l0.2,0.8l-0.1,1l-0.8-0.2l-0.9-0.9l-0.7-1.2l-0.7-2.2l-1-1.6
		l-0.3-1.5l0.4-1.2l-0.4-1.1l0.2-0.8l0-1.4l-0.7-0.4l-0.7,0.3l-0.3,0l-0.2-1.6l-0.4-0.5l-0.9-0.4l-0.7-1.4l-0.2-0.9l-0.6-1.2
		L486.2,323.3z M469.2,288.6l0-0.2l0.9,0.6l1.5,1l0.1,0.1l0.1,0.4l0.4,0.4l0.3,0.1l0.4-0.1l0.1,0.1l0.4,1l0.1,0.2l0.2,0.5l0.3,0.6
		l0.1,0.1l0.1,0l0.1,0l0.6-0.3l0.2-0.3l0,0l0.1-0.3l0.4-0.4l0.3,0.2l0.3,0.1l0.3,0l0.3,0l0.2-0.1l0.2-0.1l0.4,0l0.2,0.1l0.5,0.2
		l0.6,0l0.1-0.1l0.1-0.2l0.5-0.3l0.5-0.3l0.5-0.1l0,0l0.3,0.6l0,0.1l-0.1,0.1l-0.1,0.5l0.2,0.6l0.1,0.1l0.2,0.2l0.5,0.3l0.7,0.5
		l0.1,0.2l0.1,0.2l0,0.1l-0.1,0.2l0,0.1l0.2,0.2l0.3,0.2l0.9,0.5l0.3,0.3l0.1,0.2l0.1,0.2l0.7,0.8l0.5,0.3l0.6,0.6l0.1,0.2l0,0.1
		l0,0.1l0.1,0.3l0.8,2.2l0.5,0.5l0.5,0.4l0.1,0l0.2,0l0.1,0.1l0.3,0.4l0.2,0.6l0,0.1l0,0.2l0,0.1l-0.3-0.1l-0.4-0.6l-0.1-0.3
		l-0.1-0.1l-0.9-0.8l-0.8-0.4l-0.1-0.1l-0.5-0.5l-0.5-0.9l-0.2-0.7l-0.4-0.6l-0.5-0.1l-0.6-0.3l-0.4-0.4l0,0l-0.1-0.2l-0.1-0.2
		l-0.1-0.1l-0.3-0.1l-0.4-0.1l-0.3,0.2l0,0.3l0.9,0.9l0.9,0.7l0.2,0.3l0.2,0.3l0,0.1l-0.5,0.6l0.4,0.4l0.2,0.2l1.7,1.3l0.1,0
		l0.3,0.1l0.6,0.3l0.4,0.3l0.1,0.3l0.1,0.8l0.1,0.2l0.2,0.4l0.3,0.3l0.3,0.2l0.3,0.2l0.6,0.9l-0.9,0.1l0.1,0.3l1.2,1.6l0.1,0.3
		l0,0.1l0,0.1l-0.8,1.6l-0.1,0.1l-0.2,0.1l-0.4-0.2l-0.4-0.1l-0.3,0l-0.5,0.2l0,0.1l0.3,0.4l0.1,0.1l-0.1,1.2l-0.3,1.2l-0.3,0.7
		l-0.9,1.5l-0.1,0l-0.5,0.5l-0.3,0.3l0.2,0.3l-0.1,0.4l-0.9,1.3l0,0.2l-0.1,0.2l-0.8,0.4l-0.5-0.1l-0.9-1.7l-0.9-2.7l0-0.3l0.2-0.9
		l0.3-0.6l0.5-0.7l-0.5-0.4l-0.2,0.1l-0.2-0.1l0-0.1l-0.4-1.3l0.2-0.3l0.4-0.1l0.1,0.2l0,0.1l0,0.1l0.6,0.3l0.1-0.1l0.1-0.5
		l-1.4-1.2l-1.1-1.1l0.1-0.3l0-0.3l-0.4-0.6l-1-0.8l-0.2-0.2l-0.7-1.6l-0.1-0.2l-0.1-0.1l-0.2-0.1l-0.2-0.3l-0.2-0.8l0.1-0.6
		l-0.3-1.2l-0.6-1.1l-0.2-0.3l-0.2-0.2l-0.7-1.9l-0.2-0.3l-0.2-0.2l-0.6-1.2l0-0.6l-0.1-0.3l0,0l-0.7-0.9l-0.7-0.7l-0.1-0.1l-0.2,0
		l-0.1,0l-0.2-0.2l-0.3-0.4l-0.8-1.5l-0.8-2L469.2,288.6z M467.7,286L467.7,286l0.6,0.2l0.3,0l1,0.3l1,1l0.9,1.2l0,0.1l-0.4,0.1
		l-1.6-2l-0.5,0.1l-0.7-0.2l-0.5-0.6L467.7,286z M460.5,275.3l0.3,0.1l0.8,1.1l0.2,1l-0.2-0.1l-0.3-0.4l-0.7-1.5L460.5,275.3z
		 M466.6,315.8l0.1-0.1l0.3-0.3l0.3,0l0.1-0.2l0-0.1l0-0.1l-0.1-0.1l0-0.1l0.1,0l0.2-0.3l0.2-0.2l0.2-0.1l0.2-0.3l-0.1-0.2l0,0l0,0
		l0,0l0,0l0-0.1l0-0.1l0,0l0.2-0.1l0.1-0.1l-0.2-0.7l-0.4-0.6l0.3-0.1l0.3-0.6l0.5-0.8l0.3-0.3l0.9,0l0.1,0.1l0.4,0.3l0.5,0.4l0,0.1
		l-0.1,0.4l0.2,0.2l0.4,0l0.2-0.1l0.2-0.2l0.2,0l0.8,0.5l0,0.2l0.2,0.2l0.2,0.1l1.2,0.2l0.3-0.1l0.2-0.1l1.3-0.4l0.4-0.1l0.6,0.1
		l1,1.4l0.2,1l-0.2,0.2l-0.1-0.1l-0.8-0.5l-0.5,0.1l-0.4,0.2l0,0.1l0.1,0.3l0,0.1l0.1,0l0.3-0.1l0.6,0.2l0.5,0.5l0.3,0.3l2.3,4.2
		l0.5,1.1l0.3,1l0.1,0.5l0.4,0.4l0.5,0.6l0.3,1.2l0.5,0.5l0.3,0.4l0.9,1.7l0.6,1.4l0.2,0.7l0.4,2l0,0.3l-0.1,0.1l-0.4,0.1l0.1,0.4
		l0.2,0.5l0.1,0.2l0.1,0l0.3,0.4l0.5,1.5l0.6,2.1l0.2,0.8l0.1,0.4l0.2,1.7l0,0.4l0,0.3l0,0.1l-0.1,0l-0.5-0.1l-1.7-1l-0.5-1
		l-0.4-0.6l-1.3-0.9l-0.6-0.6l-1-1.4l-0.7-0.9l-0.6-0.5l-0.1,0l-0.1-0.3l-0.1-0.7l0.1-0.3l0.2-0.3l0.2-0.3l0.1,0.1l0.2,0l0.2-0.2
		l-0.1-0.3l-0.2-0.3l-0.3,0l-0.4,0.1l0,0.2l-0.3,0.4l-0.3,0.3l-0.1,0.1l-0.2,0.1l-0.1-0.1l-0.6-1l0-0.1l-0.5-0.5l-0.4,0.4l-0.2-0.5
		l-0.7-0.1l-0.5-0.5l-0.3-0.4l0-0.1l0.2-0.3l0.2-0.1l-0.1-0.2l-0.4-0.1l-0.6,0.6l-0.6-0.4l-0.8,0.4l-0.6-0.1l-0.6-1l-0.7-0.7
		l0.8-0.3l0.7,0.4l0.4-0.4l-0.4-0.8l-0.3-1.3l0.5-1.3l0.1-0.9l-0.5-0.4l-1.1-0.4l-0.6-0.5l0.1-0.5l0.7-1l-0.3-0.4l0.2-0.5l0.3-0.4
		l-0.1-0.2l-0.1-0.5l0.1-0.2l0-0.3l-0.1-0.1l-0.5,0.1l-0.1,0l-0.2,0.1l-0.3,0l-0.3-0.1l-0.1,0l-0.3,0.2l-0.1,0.2l-0.4,0.5l-0.2-0.2
		l0-0.1l-0.2-0.2l-0.6-0.6l-0.1-0.1l0-0.1l-0.1-0.2l-0.4-0.2l-0.1-0.1l0-0.1l-0.6-0.3l-0.2-0.3l-0.2-0.1L466.6,315.8z M460,292.1
		l0.6-0.6l0.5-0.1l0.4,0l1,0.7l0,0.2l-1.3,0.5l-0.6-0.1L460,292.1z M465.3,319.3l-0.2-0.6l0.1-0.4l-0.5-0.9l0-0.4l0.6-0.2l0.5-0.3
		l0.7,0.2l0.3,0.2l0.9,0.4l0.9,1l0.2,0.3l0.6,0.2l0.3-0.4l0.4-0.5l0.6-0.1l0.5,0l0,0.7l-0.3,0.8l0,0.4l-0.5,0.2l-0.3,0.3l-0.3,0.1
		l-0.3,0.6l0.2,0.8l-0.2,0.6l0.1,0.6l-0.2,0.6l0,0.4l-0.6,0l-0.6,0.5l-0.5,0.2l-0.6,0.4l-0.4,0l-0.2-1.1l-0.2-1l0.3-0.7l0.6-0.5
		l0.1-0.6l-0.3-0.4l-0.5,0l-0.5,0.2l0-0.6l-0.8-0.5L465.3,319.3z M453.3,288.1l0-0.3l0.3-0.1l0.4,0.2l0.3,0.5l0.1,0.2l-0.1,0.2
		l-0.9-0.6L453.3,288.1z M455.2,295.5l0.3-0.6l0.8-0.6l0.1,0l0.1,0.2l0.2,0.9l-0.6,0.6l-0.4,0l-0.5-0.3L455.2,295.5z M452.1,305.4
		l-0.5-2.6l-0.1-0.7l0-0.3l0.1-0.4l0.4-0.4l0.3,0l0.1,0.1l0.2-0.5l0.2-0.5l0.6-0.6l-0.1-1.1l-0.2-0.5l-0.3-0.4l-0.3-0.4l-0.3-0.3
		l0-0.1l1-0.3l0.4,0l0.1,0.6l0.2,0.5l0.9,1.1l0.4-0.3l0.2-1l0.3-0.2l1.3-0.2l0.1,0.3l0.7-0.1l0.1-0.3l0.4-1l0.9-1.2l0.2-0.2l0.2,0
		l0.4,0.4l0.5,0.5l0.3,0.1l1.1-0.1l0.6,0.1l1,0.4l0.3,0.2l0.1,0.1l0,1.2l-0.1,0.5l-0.4,0.6l-0.5,1.3l0.4,1l0.3,0.2l0.3-0.2l0.1-0.2
		l0.1-0.5l-0.1-0.2l-0.1-0.4l0-0.1l0.1-0.5l0.4-0.8l0.3-1.3l0.3-0.3l0.1-0.1l0.2,0l1.8,0.7l0.2-0.1l1.9-0.3l0.3,0.1l0.1,0.1l0.2,0.3
		l1.2-0.1l0.1,0l0.3,0.2l0.3,0.3l0.5,0.9l0.2,1.1l0,0.3L472,301l-2-0.5l-0.4,0.3l0.2,0.4l0.3,0.2l0.2,0.1l0.9,0.1l1.1,0.5l0.6,0.3
		l0.1,0.2l-0.8,0.8l-0.5,0.3l-0.3-0.2l-0.3,0.3l0.2,0.2l0.2,0.3l0.5,0l0.5,0l0.1-0.1l0.3-0.5l0.5-0.1l0.2,0.1l0.2,0.4l0.3,0.8
		l0.1,0.6l1,1.2l0.3,0.5l1,2.2l0,0.5l-0.4,0.6l-0.3,0.2l-1.5,0.6l-0.8,0l-0.1,0l-0.1-0.1l-0.6-0.5l-1.7-0.8l-1.2-0.4l-1-0.3
		l-1.2-0.5l-0.6-0.3l-0.9-0.4l-0.2,0.3l-0.7,0.5l-0.6-0.5l-0.3,0.2l0.2,0.3l0.1,0.2l0.6,0.4l1,0.4l0.3-0.1l0.3-0.3l0.3,0.1l0.3,0.2
		l-0.1,0.2l-0.1,0l-0.3,0.2l-0.1,0.1l-0.1,0.3l0.1,0.4l0.3,0l0,0.8l0.4,0.7l-0.1,1.1l-0.6,1.4l-0.4,0.8l-0.2-0.1l-0.7-0.1l-1,0.1
		l-0.7-0.2l-0.2-0.2l-0.1-0.5l-0.7-0.3l-0.4-0.3l-0.8-0.6l-0.5-0.1L461,313l-0.5-0.4l-0.1-0.5l-0.5-0.2l-0.3,0.9l-0.5-0.4l-0.6-0.2
		l-0.3-0.7l-0.6-0.8l0.1-0.6l-0.6-0.7l-0.7-0.9l0.1-0.3l-0.1-0.2l-1-1l-0.1-0.1l0,0L455,307l-1-0.3l-0.3-0.4l-0.3-0.6l-0.7-0.3
		l-0.3,0.1l-0.2-0.1L452.1,305.4z M329.2,267.3l0.8,0l0.4,0.2l0.3,0.4l0.2,0.1l0.1,0.3l-0.3,0.2l-0.4,0.3l-0.5-0.2l-0.4-0.5
		l-0.5-0.7L329.2,267.3z M324.9,267.1l0.7-0.4l0.9,0.1l0.6,0.2l0.8-0.1l0.3,0.1l-0.1,0.7l-0.3,0.2l-0.6,0.1l-0.5-0.1l-0.6-0.4
		l-1-0.2L324.9,267.1z M308,256.7l0.9-0.7l0.2-0.1l0.2,0l0.1,0.1l0.1,0.1l0.2,0l0.1,0l0,0l0.2-0.1l0.2-0.1l0.2,0l0.5,0.3l0.1,0.1
		l-0.2,0.5l-0.4,0.4l-0.2,0.1l-0.6-0.1l0,0l-0.3-0.1l0,0l-0.4,0l-0.7,0L308,256.7L308,256.7z M306.5,261.7l-0.1-1.1l1.1-0.5l0.1,0
		l0.3,0.6l0.7,1.2l-0.4,1l-1.3,0.3l-0.4,0.1l-0.3-0.8L306.5,261.7z M307.1,272.3l0.1-0.3l0.9-0.4l0.9-0.7l0.1,0.7l-1.6,1.4l-0.2-0.2
		L307.1,272.3z M302.8,284.2l0.4-0.5l0-0.3l-0.2-0.5l0.3-0.6l0.4-0.3l0.6-0.1l0-0.5l-0.2-0.3l0.1-0.3l0.4-0.3l0.4-0.6l0.3,0l0.4-0.3
		l0-0.4l-0.3-0.1l0.1-0.4l0.7-0.4l0.6-0.5l0.4-0.7l0.8-0.6l0.9-1.1l0.3-0.8l0-0.3l0.5-0.6l0.1-0.8l0.5-0.4l0.6-0.6l0.3-0.6l-0.4-0.3
		l0.1-0.4l0-0.6l0.1-0.6l0.5-0.5l0.6-0.4l0.2,0.3l-0.2,0.3l0.2,0.3l0.5,0l0.5-0.1l0,0.3l-0.3,0.5l-0.3,0.3l0.4,0.3l0.3-0.3l0.6-0.4
		l0.3,0l0.1,0.4l-0.4,0.8l-0.3,0.3l-0.5,0.6l-0.8,0.9l-1,0.9l-0.4,0.5l-0.5,0.8l-0.5,0.8l-0.5,0.8l-0.2,0.8l0.1,0.5l-0.1,0.4
		l0.6,0.4l-0.4,0.3l-0.6-0.3l-0.4,0.3l-0.3,0.3l-0.2,0.4l0.4,0.5l0.3,0.1l0.7,0.6l-0.2,0.4l-0.6,0.6l-0.6,0l-0.4,0.2l-0.3-0.4
		l-0.7,0.1l-0.3,0.4l0.1,0.4l-0.4,0.5l-0.4-0.1l-0.6,0.2l-0.4,0.3l-0.3,0.4l-0.5,0.2l-0.4-0.2L302.8,284.2z M301.7,273l0.2-0.7
		l0.9-3.5l0.4-1.6l0.1-0.2l0.1,0l0.2,0.2l-0.1,0.5l0.4,0.4l0.2,0l0.3-0.2l0.1-0.1l-0.1-0.4l-0.1-0.1l-0.1-0.7l0-0.2l1.2-1.5l0.5-0.4
		l0,0l0.1,0.1l0.1,0.4l-0.1,0.6l-0.5,0.7l-0.1,1l0.1,0.7l-0.6,0.6l-0.2,0.2l0.1,0.4l0.6-0.1l0.1,0.1l0.1,0.4l-0.2,0.7l-0.3,0.8
		l-0.4,0.6l0.1,1l0,0.4l-0.1,0.7l-0.4,1.2l-0.1,0.1l-0.2-0.2l-0.5-0.4L303,274l0.2-0.1l0-0.1l0-0.2l-0.3-0.2l-0.7-0.1l-0.4,0.1
		l-0.1-0.1L301.7,273z M299.9,261.2l0.6-0.7l0.1,0.1l0.1,0.1l0.6,0.1l0.8,0.9l0,0.1l-0.1,0.4l-0.1,0.2l-0.8,0.4l-0.5-0.4
		L299.9,261.2z M272.8,252.6l0.1-0.6l0.1-0.2l0.7-0.1l0.1,0.2l0,0.2l-0.4,0.5l-0.4,0.4l-0.4-0.1L272.8,252.6z M267.9,297.2l0.4-0.4
		l0.5-1l0.4-0.5l0.7,0.4l0.1,0.2l-0.1,0.8l-0.4,0.3l-0.4,0.9l-0.5,0.3l-0.5-0.3l-0.1-0.1L267.9,297.2z M258.4,302.1l0.6,0.1l0.6,0.2
		l0,0.4l-0.2,0.3l-0.6-0.4l-0.5-0.3L258.4,302.1z M256.1,302.5l0.4,0.1l0.6,0.3l-0.1,0.3l-0.2,0.4l-0.7-0.3l-0.2-0.3L256.1,302.5z
		 M254.2,301.7l0.5-0.3l0.3,0l0.1,0.3l0,0.5l-0.2,0.3l-0.2,0l-0.4-0.2l-0.3-0.3L254.2,301.7z M254.2,325l0.3-0.9l0.6-0.2l0.3,0.4
		l0,0.9l-0.3,0.7l-0.6,0.4l-0.1,0l-0.3-0.6L254.2,325z M251.6,307.7l0.1-0.5l0.4-0.1l0.4,0.2l0.6,0.6l-0.8,0.2l-0.7-0.1L251.6,307.7
		z M251.1,272.7l0.1-0.4l0.7-1.1l0.4-0.3l0.2-1.5l0.1-0.9l0.3-0.1l1.1,0.7l0,0.1l-0.7,0.5l0.1,0.5l-0.6,0.2l-0.4,1l0.2,0.5l-1.5,0.7
		L251.1,272.7z M249.1,345.6l0.1-0.3l0.3,0.1l0.2,0.2l-0.1,0.4l-0.3,0l-0.4,0.1L249.1,345.6z M248,307.9l0.6-0.4l0.1-0.7l0.8,0.6
		l0.8-0.2l0.3,0.1l-0.1,0.2l-1.5,0.7l-0.8,0L248,307.9z M244.3,277.2l0.2-0.4l0.5,0.3l0.1,0.3l0.2,1.1l0,0.4l-0.1,0.1l-0.9-1.3
		L244.3,277.2z M234.3,328.8l0.1-0.1l1.3-1.7l0.4-0.2l0.1,0l0.2,0.1l0.5,0.5l0.4,0.5l0.4,0.3l0.2,0l0.1-0.4l-0.2-0.5l-0.5-0.6
		l-0.2-0.3l0.3-1.1l0.4-0.2l1.2,0.5l0.2,0l0.3-0.1l0.5-0.3l0-0.1l-0.1-0.2l-0.7-0.3l-0.3-0.2l-0.2-0.3l0-0.1l0-0.1l0.7-1l0.5,0.2
		l0.1,0.1l0.1,0.2l0.5,0.2l0.7-0.1l0.1-0.1l0.1-0.4l-0.2-0.1l-0.4,0l-0.1-0.1l-0.2-0.4l0-0.1l0.1-0.1l0.4-0.1l0.3,0.2l0.6,0.2
		l0.2-0.3l0.4-0.7l-0.2-0.1l-0.7-0.1l-0.6-0.7l-0.1-0.2l0,0l0.3,0.2l0.3,0l0.4,0l0.3-0.2l0.2-0.2l0-0.2l0.5-0.8l0.1,0l0.4,0.1l1-0.4
		l0.1-0.4l0-0.1l-0.1,0l-0.1,0.1l0,0l-0.4-0.3l-0.2-0.9l0-0.5l0.4-0.6l0.3-0.4l0.6-0.5l0.1,0l0.1,0.2l0,0.2l0.1,0.2l0.5,0l0.6-0.6
		l1.3-0.5l0.2,0l0.1,0.1l-0.1,1.1l-0.4,1.4l-0.2,0.2l-0.4,0.2l-0.6,1l-0.4,0.7l-0.1,0.2l-0.1,0.4l0.2,1.8l0.2,0.1l1.2-0.2l0.3-0.1
		l0.3-0.7l0-0.2l-0.1-0.3l0-0.1l0-0.2l0.4-0.3l0.1,0l0.2,0.1l0.3,0.3l0.7,1l-0.1,0.4l0.1,0.1l0.3,0l0.9-1l0.1,0l0.5,0.6l0,0.1
		l-0.4,0.9l-0.2,0.8l-0.1,0.7l0,0.4l0.4,0l0.1-0.3l0-0.5l0.3-0.7l1.2-1l0.1,0.1l0.2,0.4l0,0.1l0,1.5l-0.1,0.9l-0.2,0.4l-1.2,1.5
		l-0.4,0.1l-1.1-0.6l-0.4-0.5l0-0.2l0.1-0.1l0.2,0l0-0.1l-0.4-0.8l-0.1,0.1l-0.5,0l-0.4,0.5l0.6,2.1l-0.1,0.2l-0.9,0.2l-0.8,0
		l-0.3-0.2l-0.7,0l-0.4,0.4l-0.2,0.5l0,0.1l-0.1,0.1l-0.2,0l0,0l-0.2-0.7l0.2-1.1l0-0.3l0-0.2l-0.3-0.2L245,326l-0.2,1.6l-0.2,0.8
		l-0.3,0.5l-0.7,0.3l-0.8,0.1l0.1,0.8l-0.7,0.5l-0.7-0.1l0,0.1l-1,0.3l-0.5,0l-1.5-0.5l-1.4-0.6l-0.1-0.1l-0.1-0.2l0,0l-0.9-0.2
		l-0.7,0.2l-0.3,0l-0.7-0.5L234.3,328.8z M232.8,296.2l0.6,0l1.2-0.6l0.3,0.1l0.5,0.8l0.1,0.5l-0.3,0.5l-0.6,0.3l-1.3,0l-0.4-0.3
		l-0.3-1L232.8,296.2z M231.4,357.5l0.2-0.3l0.6-0.2l0.2,0.1l-0.4,0.4l-0.4,0.1L231.4,357.5z M224,362.3l0.5-0.4l0.3,0.1l0.7-0.6
		l0.3,0.4l0.1,0.6l-0.1,0.1l-0.3,0l-1.4,0L224,362.3z M221.2,366l0.3-0.5l0.4-0.5l0.3-0.2l0.6-0.3l0.3-0.1l0.2,0.1l0.1,0.1l0.3,0.1
		l0.7-0.1l0.3-0.2l0.1,0l0.1,0l0.1,0.1l0.1,0.3l0,0.3l0,0.2l0.4,0.7l0.2,0.1l0.2,0l0.9-0.2l0.3-0.2l0.5,0l0.1,0.2l0,0.2l-0.3,0.4
		l-0.9,0.6l-0.6,0.1l-1.7,0l-0.3-0.1l-0.3,0l-0.5,0.1l-0.5,0.3l-1-0.3l-0.5-0.2l-0.1,0l-0.2-0.3L221.2,366z M216.1,345.6l0.7,0.1
		l0.3-0.4l0.1-0.5l0-0.3l0-0.2l0.1-0.6l0.9-1.5l0.1-0.1l0.2-0.1l0.1,0l0.7-0.5l0.3-0.9l0.1,0l0.1,0.1l0.4,0.1l0.5-0.3l0.3-0.3
		l0.9-0.8l1.6-0.7l0.4-0.1l0.1,0.2l1.3,0.3l0.4-0.1l0.3-0.2l0.5,0.1l0.1,0.2l0,0l0,1.1l0,1.3l0.1,0.3l0.3,0l0.1,0.1l0.1,0.1l0,0.1
		l0,0.2l0,0.5l0.4-0.1l0.2-0.9l0.1-0.2l0.3-0.2l0.3-0.4l0.2-0.3l-0.1-0.2l-0.3-0.4l-0.1,0l-0.3-0.4l0-0.1l0.1-0.3l0.1-0.1l0.1,0
		l1.4,0.1l0.6,0.1l0.5,0.1l0.1,0l0.2-0.3l-0.1-0.2l-0.2-0.2l-1.6-0.7l-0.9-0.3l-0.3,0l-0.4,0.2l-0.2,0l0-0.2l0-2.7l1.5-1.3l0.9-0.4
		l0.4-0.2l0.9,0.3l1,1.2l0.3,1.1l0,0.6l0,0.1l-0.1,0.6l0,0.3l0.1,0.1l0.5,0l0.3-0.3l0.3-0.9l0.1-0.7l-0.2-0.5l-0.1-0.5l0.1-0.2
		l0.4,0.1l0.6,0.3l0.7,0.5l0.1,0l0.2-0.5l0-0.1l0-0.3l0,0l-0.9-0.2l-0.7-0.4l-0.2-0.1l-0.6-0.7l-0.2-0.3l-0.1-0.2l0-0.3l0.2-0.5
		l0.1-0.1l0.4-0.2l0.2,0l0.1,0.1l0.1,0.2l2.3,1.8l0.1,0l0.4-0.1l1.4,0.9l0.1,0l0.4-0.1l0.1-0.1l-1.4-1.6l-0.5-0.3l-0.5-0.4l-0.4-0.7
		l0-0.1l0.1-0.1l0.3,0l0.5,0l0.2,0.2l0.1,0.1l1.1,0.9l0.4-0.3l0.5-0.1l0.5,0.1l1.9,0.6l0.1,0l0.2-0.3l0-0.7l1.7-0.3l-0.2,1l-0.2,0.3
		l-0.7,0.8l-0.2,0.2l-0.9,1.2l-0.1,0.3l-0.1,0.5l-0.1,1l0.2,0.5l0.2,0.2l0.1,0.1l0.1,0l0.3-0.1l0-0.2l-0.1-0.1l0-0.4l0.1-1.3
		l0.1-0.2l0.2-0.3l0.4-0.4l0.4,0.4l0.1,0.1l0.3,0.4l0.2-1l0.5-0.5l0.4-0.2l0.2-0.4l0-0.1l0-0.3l0.1-0.1l0.6-0.2l0,0.5l0.2,0.2l0.2,0
		l0.3-0.3l0.5-0.7l0.2-0.5l0.5-0.3l0.1,0l0.1,0.1l0,0.1l-0.1,0.5l-0.2,0.2l0,0.1l0.1,0.1l0.5,0.2l0.3,0l0.5,0.2l-0.1,0.3l-0.4,0.5
		l-0.2-0.1l-0.1-0.1l-0.1-0.1l-0.1-0.2l-0.1,0l-0.4,0l-0.3,0.3l0.3,0.5l0.6,0.3l-0.3,0.5l-0.2,0.3l0.1,0.1l0.2,0.1l0.7-0.3l0.2-0.1
		l0.4,0.3l0.2,0.8l0.8-0.1l0.5,0l-0.4,0.5l-0.7,0.6l-0.6-0.4l-0.1-0.1l0-0.1l-0.1-0.1l-0.3-0.1l-0.8,0l-0.3,0.2l-0.1,0.1l-0.3,0.6
		l0,0.1l0.8,0.2l-0.3,0.6l0,0.5l0.3,0.3l0.5-0.5l0,0l0.3,0.3l-0.7,0.8l-0.4,0.9l-0.1,0.1l0,0.1l0.1,0.1l0.3,0.1l0.2-0.1l0.3-0.4
		l0.2-0.1l0.3-0.7l0.3-0.3l0.3,0.4l-0.1,0.3l0.8-0.1l1.1,0l0.2,0l0.1,0.1l-0.1,0.6l-0.1,0.2l-1.3,1.4l-0.4,0.3l-0.3,0.8l-0.1,0.4
		l0,0.6l0.2,0.2l-0.3,0.2l-0.3-0.1l-0.7-0.2l-0.8,0l0.3-0.5l-0.4-0.3l-0.2,0.4l-0.3,0.5l-0.7-0.4l-0.4-0.5l-0.6,0.1l-0.2,0.1
		l-0.3-0.1l-0.4-0.3l0-0.1l0-0.2l0-0.1l-0.3-0.3l-0.4,0l-0.4,0.2l-0.1,0l-0.2-0.1l-0.2-0.1l-0.6-0.2l-0.4,0.2l0.3,0.4l-0.3,0.4
		l1.3,0l0.7,0.4l0.3,0.2l0.3,0.4l0.7,0.5l0.6,0.2l0.1,0.1l0.3,0.5l-0.1,0.5l-0.3,1l-0.4,0.5l-0.5,0.5l-0.2,0.1l-0.1-0.1l-0.1-0.7
		l-0.5-0.1l-0.3,0.5l-0.2,0.3l-0.4,0.4l-0.9-0.6l-0.2-0.3l-0.1-0.5l-1-0.4l-0.3,0l-0.6,0.3l-0.3,0.2l-0.3,0.3l-0.2,0.3l0.2,0.3
		l0.1,0l0.8-0.2l0.3-0.1l0-0.1l0,0l0.6,0.4l0.4,0.6l0,0.1l-0.1,0.2l-0.6,0.4l-0.8,0.4l-0.3,0.1l-0.6,0l-0.5-0.1l-0.1-0.1l-0.4,0
		l-0.1,0.1l-0.1,0.1l0,0.1l0,0.1l0.6,0.6l0.6,0.1l0.4-0.2l0.3-0.1l1.7,0l0.9,0.6l0.1,0.1l0.1,0.2l-0.4,0.5l-0.1,0.1l-0.5,0.2l-0.6,0
		l-1.6,0.7l-0.1,0l-0.1-0.1l0-0.1l-0.2,0l-0.5,0.2l-0.5,0.5l-0.1,0.2l0,0.2l0,0l0.1,0.1l0.1,0l0.1,0.3l-0.1,0.2l-0.4,0.6l-0.9,0.4
		l-0.2,0l-0.5-0.4l0-0.1l0.4-0.6l0-0.2l-0.5-0.7l-0.4,0.3l-0.1-0.2l0-0.3l0.3-0.9l0.1-0.1l0.5-0.5l0.3-0.4l0.5-0.4l0,0l0-0.2
		l-0.3-0.3l-0.5,0l-0.2,0.2l0,0.1l0,0.1l-1.6,2.2l0,0.3l-0.1,0.2l-0.5-0.3l-0.4-0.3l-0.2-0.1l-1,0.2l-0.3,0.4l0,0.4l0.2,0l0.8-0.1
		l0.1,0l0.2,0.2l0.5,1.3l-0.2,0.6l-0.6,0.6l-0.4,0.1l-0.5,0.1l-0.4,0.1l0,0.4l0.1,0.8l0,0.3l-0.2,0.2l-0.5,0.2l-0.5,0.4l-0.6-0.3
		l-0.3,0.5l-0.4,0.7l-0.4,0.5l-0.8,0.6l-0.1,0.1l-0.2,0l-0.4,0l-0.1-0.3l-0.2-0.2l-0.2,0l-0.2,0.1l-0.3,0.2l-0.3,0.1l-0.3,0.1
		l-0.1,0l-0.2-0.1l0.3-0.9l0.7-1.4l0.1-0.1l0.2-0.1l0.2-0.1l0.1,0l0.6-0.8l0.7-0.6l0.6-0.2l0.5-0.4l0.2-0.4l-0.3-0.4l-0.6,0.1
		l-0.1,0.1l-0.1,0.1l-0.2,0.1l-0.6,0.1l0-0.2l0.2-0.9l0.7-1.3l0.4-0.9l0.2-0.1l0.2,0l0.7-0.6l0.3-0.5l0.1-0.3l0-0.4l-0.1-0.1
		l-0.2,0.1l-0.2,0.4l0,0.1l-0.5,0.5l-1.6,1.3l-0.2,0.4l-0.4,0.8l-0.4,0.7l-0.3,0.4l-0.6,0.3l-0.6,0.9l-0.7,0.2l-0.2,0.3l-0.1,0.3
		l0,0.2l-0.1,0.1l-0.6,0.4l-0.3,0.2l-0.1,0l0.1-0.1l0-0.3l0-0.7l-0.1-0.5l-0.1-0.2l-1-1l-0.3-0.2l-0.9-0.4l-0.5-0.1l-0.2-0.1l0-0.3
		l0.2-0.7l0.1-1.2l-0.1-2.2l0-0.4l-0.1-0.3l-0.4-1.1l-0.3-0.4l-0.2-0.3l-1-0.4l-0.1,0l-0.6,0.2l-0.5-0.1l-0.2-0.2l0-0.1l0.6-0.4
		l0.1-0.2l-0.2-0.4l-0.5-0.4L216.1,345.6z M215,368.4l0.4-0.7l0.5-0.8l0.5-0.6l2.4-1.9l0.1-0.1l0.1,0l0.9,0.1l0.5,0.3l0.1,0.2l0,0.1
		l-0.1,0.1l0.1,0.2l0,0.1l0,0.1l-0.6,0.5l-1.3,0.7l-0.6,0.2l-0.9,0.5l-0.5,0.5l-0.3,0.4l-0.2,0.3l-0.5,0.5l-0.1,0.1l-0.3,0l-0.1-0.1
		l-0.2-0.2l-0.1-0.2l-0.1-0.2L215,368.4z M201.6,382.8l0.8-0.4l0.5-0.4l0.3-0.8l0.7-0.4l0.3,0.1l0,0.5l-0.3,0.9l0.2,1l0,0.5
		l-0.4,0.7l-1.8-0.3l-0.1-0.2L201.6,382.8L201.6,382.8z M188,376.9l0.3-1l0.7-0.5l0.4,0.5l0.2,0.8l-0.6,0.5l0,0.5l-0.1,0.3l-0.7-0.7
		L188,376.9z M187.5,373l0.1-0.5l0.3-0.3l0.1,0.3l0,0.8l0,0.6l-0.2,0.2l-0.3-0.2l-0.1-0.5L187.5,373z M180.9,364.1l0.4-0.5l0.1-0.1
		l0.5-0.4l1.4,0.1l0.7,0.1l0.2,0.1l0.7,0.5l0.5,0.3l0.2,0.2l0,0.1l-0.2,0.1l-0.2-0.1l0-0.1l-0.1-0.1l-0.5-0.2l-0.8-0.1l-0.1,0
		l-0.3,0.2l-0.1,0.2l-0.3,0.1l-2.1,0l0-0.1L180.9,364.1z M172.8,368.2l1-0.5l0.3,0.3l0.1,0.9l-0.4,0.2l-1-0.8L172.8,368.2z
		 M158.1,379.8l0.3-1l0.2-0.3l1-0.2l0.7,0.4l0.6,0.9l0,0.2l-0.1,0.2l-0.3-0.1l-0.4-0.3l-0.6-0.6l-0.6,0l-0.3,0.6l0.4,0.3l-0.1,0.2
		l-0.7-0.1L158.1,379.8z M154.8,378.2l0.4,0.2l0.2,0.4l0.1,0.5l-0.7,0.1l-0.6-0.5L154.8,378.2z M150.1,401.8l0.1-0.1l0-0.1l0-0.2
		l-0.1-0.3l0.1-0.1l0.6-0.3l1,0.6l0,0.1l0,0.3l-0.2,0.4l-0.4,0.4l-0.5,0.2l-0.5,0l0-0.1l-0.2-0.5L150.1,401.8z M151.2,381l0.5-1.4
		l0.5-0.2l0.4,0.6l0.2,0.5l-0.1,0.3l-0.4,0.3l-0.6,0l-0.6,0.7L151.2,381z M148.3,400.3l0.2-0.6l0.2-0.3l0.4-0.3l0-0.5l-0.5-0.4
		l0.1-0.6l0.1-0.1l0.9,0.1l0.5,0.2l0.1,0.3l0,1.6l0,0.1l0,0l-1.4,0.6l-0.3,0L148.3,400.3L148.3,400.3z M146.2,403.1l0.3,0.1l0.7,1
		l-0.1,0.7l-0.4,0.1l-0.8-0.1l0.2-0.5l-0.1-0.9L146.2,403.1z M146,394.2l0.8,0.5l0.3-1l0.9-0.9l0,0l0.2,0.5l-0.1,0.3l-0.1,0.3
		l-0.4,0.5l0.4,0.2l0.1,0.1l0,0.5l-0.1,0.5l-0.1,0.1l-0.1,0l-0.4,0.6l-0.1,0.5l0.1,0.2l0.5,0.5l0,0.1l-0.1,0.1l-0.3,0.2l-0.1-0.1
		l-0.2-0.4l-0.5-0.1l-0.1,0.4l-0.3-0.1l-0.5,0.2l0,0l-0.1-0.1l-0.1-0.2l0-0.4l0.1-1.4l-0.1-1.5L146,394.2z M142.9,402.9l0.7-0.1
		l0.4-0.4l0.7,0.3l-0.2,0.4l-0.6,0l-0.5,0.4l-0.4-0.2l-0.2-0.4L142.9,402.9z M143.1,397.2l0.4-0.5l0.2-0.3l1.3-0.7l0.2-0.1l0.1,0.2
		l-0.2,0.7l-0.6,0.6l-0.6,0.1l-0.3,0.8l0,0.3l-0.3,0.1l-0.3-0.8L143.1,397.2z M140.1,390l0.4-0.2l0.3,0l0.2,0.3l0.2,0.2l-0.1,0.3
		l-0.3,0.1l-0.8-0.2L140.1,390z M137.1,399.6l0.1-0.1l0.3-0.1l0.8-1l0.7-0.7l0.4-0.3l0.4-0.1l0.1-0.1l-0.1-0.3l-0.1-0.1L139,397
		l-0.6-0.3l-0.1-1.4l0.1-0.2l1.2-0.9l0.4,0.4l0.2,0.3l0.1,0.3l0,0.1l-0.1,0l0,0.1l0,0.1l0.4-0.1l0.3-0.1l0.1-0.1l0-0.1l-0.1-0.5
		l-0.3-0.6l-0.1-0.5l0.1-0.1l0.4,0l0.3,0.3l0.1,0.2l0.1,0.1l0.4-0.2l0.4-0.7l0.8-1.6l0.1-0.1l0.1,0.1l0.3,0.5l0,0.4l0,0.1l-0.2,0.3
		l-0.1,0.1l-0.1-0.1l-0.3,0l-0.2,0.3l-0.3,1.3l0,0.2l0.2,0.3l0.3-0.1l0.1-0.4l0-0.2l0-0.1l0.2-0.1l0.4,0.1l-0.2,0.8l-0.1,0.4
		l-0.4,0.6l-0.2,0.1l-0.2-0.2l0-0.1l-0.3-0.2l-0.6,0.1l-0.1,0.1l0.1,0.3l-0.1,0.5l-1.6,1.3l-0.4,0.2l-0.5,0.2L138,400l0,0.3
		l-0.3,0.6l-0.4,0.2l-0.3-0.8L137.1,399.6z M146.3,307.8l0.2-0.6l0.1-0.3l0.2,0.3l0.2,0.5l0.1,0.6l0,0.4l-0.1,0.3l-0.3,0.2l-0.1-0.5
		l-0.3-0.6L146.3,307.8z M137.1,387.4l0.4-0.4l0.8-0.3l0.1,0l0.4,0.1l0.2,0.1l1,0.2l-0.2,1.5l0,0.1l-0.1,0.1l-0.1,0l-0.7-0.4
		l-1.1-0.2l-0.4,0l-0.2,0l-0.2-0.4l-0.1-0.3L137.1,387.4z M144.7,307.9l0.2-0.7l0.1-0.4l0.3-0.5l0.2,0.5l0,0.4l-0.1,0.3l-0.6,0.5
		L144.7,307.9z M129.7,389.1l0.3-0.5l0.7-0.9l0.3-0.1l1-0.2l0.3,0.1l0.3,0.1l0.2,0.3l0,0.1l-0.1,0.6l-0.1,0.3l0.5,0l0.7-0.9l0.1,0
		l0.3,0.1l0.4,0.3l-0.1,0.1l0,0.1l0,0.1l0,0.1l1.2,0.7l0.2,0l0.1-0.1l0.6-0.3l0.2,0l0.1,0.1l0.1,0.2l0.1,0.4l0.1,0.9l-0.4,1
		l-0.2,0.2l-0.4-0.2l-0.1-0.2l0-0.2l-0.1-0.4l-0.7-0.4l-0.1,0l-0.1,0.1l-0.2,0.1l-0.1,0l-0.1-0.1l-0.5-0.5l-0.1-0.3l0.3-0.2
		l-0.3-0.4l-0.1,0l-0.4,0.2l-0.3,0.4l0,0.2l0,0.1l0.1,0.7l0.2,0.2l0.3,0.2l0.4,1.6l0,0.3l-0.2,0.4l-0.5,0.8l-1.7-1l-0.2-0.4
		l-0.1-0.6l0-0.4l-1,0.3l-0.2,0.2l0,0.2l-0.5,1l-0.2,0.2l-0.2,0.2l0-0.1l0.2-0.5l0.2-0.3l0-0.3l-0.1-0.5l-0.3-0.5l0.3-2.2
		L129.7,389.1z M136.2,309.1l0.2-1.1l0.5-1.6l1.9-0.9l1,0l2-1.4l0.2,0.1l-3.2,5.4l-1.1,0.5l-1.5-0.1l-0.1-0.1L136.2,309.1z
		 M121.5,390.6l0.4-0.1l1,0.2l0,0.9l-0.1,0.5l-0.2,0.1l-0.8-0.7l-0.4-0.5L121.5,390.6z M117.8,390l0.2-0.4l0.4-0.2l0.5,0.1l1.1-0.3
		l0.1,0.2l-0.6,1l-1,0.1l-0.9-0.2L117.8,390z M114.5,392l0.1-0.6l0.2-0.4l0.6-0.3l0.3,0l1.2,0.6l0.2,0.2l0.2,0.5l0.2,0.2l0.2,0.1
		l0.2,0l0.6,0.4l0.4,0.4l0.1,0.1l0.2,0.5l0,0.1l-0.1,0.3l-0.1,0.1l-0.1,0l-0.2,0l-0.1-0.1l-0.2-0.3l0-0.1l0.1-0.2l-0.7-0.6l-0.3,0.1
		l-0.1,0.1l0,0.1l-0.2,0.2l-0.7,0.5l-0.3-0.2l-0.3-0.5l-0.3-0.6l0-0.3l0-0.1l-0.3-0.1l-0.4,0.4l-0.2,0.3l-0.6-0.7L114.5,392z
		 M106.5,395.5l1.5-1.1l0.2-0.1l0.8,0.2l0.2,0.1l0.1,0.1l0.2,0.4l-0.2,1.7l-0.1,0.2l-0.7,0.8l-0.1,0.1l-0.3,0.2l-0.3,0.1l-0.4-0.3
		l-0.8-1.1l-0.1-0.2L106.5,395.5L106.5,395.5z M134.4,184.6l0.5-0.4l0.4-0.4l0.3,0l0.4-0.2l0.2,0l0.3,0.2l0.1,0.2l0.5,0.1l0.1,0
		l0.1-0.1l0.1-0.1l0,0l0,0l0-0.1l0.2,0.1l0.3,0.2l0.2,0.8l-0.2,1l-0.4,0.1l-0.4-0.2l-0.6-0.1l-0.9,0l-0.1,0.1l-0.6-0.2l-0.6-0.5l0,0
		l-0.2-0.6L134.4,184.6z M99.2,406.2l0.1-0.8l0.1-0.3l0.4,0.1l0.8,0.4l1,0.6l0.5,0.2l0.7,0.3l0.3,0.6l0.5,0.3l0.6,0l0.7,0.2l0.3,0.2
		l0.5,0.5l-0.5,0.5l-0.6-0.2l-0.3,0.2l-0.3,0.4l-0.3-0.2l-0.7-0.8l-0.9,0.1L101,408l-0.3-0.4l-0.7,0.2l0,0.4l-0.3-0.1l-0.3-0.4
		l-0.6-0.9L99.2,406.2z M98,381.8l0.3-0.1l0.2,0l0.2,0.2l0,0.2l0,0.2l0,0.1l0,0.1l-0.1,0.1l-0.2,0l-0.3-0.2l-0.1-0.3L98,381.8z
		 M69.6,407l0.7-0.3l0.4,0l0.4,0.2l-0.1,0.3l-0.9,0.5l-0.3,0l-0.5-0.5L69.6,407z M64.2,408.6l0.4-0.3l0.9-0.2l0.7,0.2l0.3,0.2
		l0.2,0.1l0.4,0.1l0.3-0.3l0.4,0.1l0.6,0.1l0.2,0.2l0,0.3l0,0.1l-0.6,0.7l-0.1,0l-1.2,0l-2.2-0.9l-0.1-0.1L64.2,408.6z M60.3,408.5
		l0.2-0.1l0.4,0l1.7,0.1l0.7,0.1l0.1,0l0.3,0.8l0,0.1l-0.2,0.1l-0.5-0.1l-0.2,0.4l-0.4-0.4l-0.2-0.5l-0.4-0.2l-1.3-0.1L60.3,408.5
		L60.3,408.5z M58.9,409l0.5-0.3l0.5-0.1l0.1,0.5l0.3,0.2l-0.2,0.2l-0.3,0.1l-0.3-0.1l-0.4,0.1L58.9,409z M58.3,403.7l0.2-0.3
		l0.7-0.7l0.2,0l0.1,0.1l0.1,0.1l0.2,0.3l1-0.2l0.3,0.1l0.3,0.2l0,0.3l0,0l-0.5,0.1l-0.7,0.4l0,0.1l0,0.1l0,0.2l0.5,0.8l0.2,0.1
		l0.3,0l1,0.2l0.2,0.2l0.1,0.2l-0.3,0.4l-0.2-0.1l-0.1-0.1l-0.8-0.1l-0.1,0.1l-1,1l-0.3,0.4l-0.2,0.1l-0.1,0l-0.5-0.4l-0.2-0.3
		l0.2-1.6l0.3-0.2l0.4-0.2l0.1-0.1l0.1-0.1l-0.1-0.2l-0.1-0.1l-0.2-0.1l-0.1,0l-0.2,0.2l-0.2,0.1l-0.4-0.1l-0.1-0.2l0-0.2
		L58.3,403.7z M51.9,405.1l0.4-0.7l1.3-0.7l0.3-0.1l0.5,0.1l1,0.3l0.1,0.1l0,0.1l-0.1,0.3l-0.1,0.2l-0.1,0.1l0.1,0.4l0.1,0.1
		l0.3,0.2l0.1,0l0.1-0.1l0.5-0.4l0,0l0,0l0,0.2l0.6,0.4l0.1,0.1l0.1,0.3l0.1,0.7l0.7-0.1l0.1,0l0,0.3l-0.3,0.5l-1.5,0.4l-0.6-0.3
		l-1.1,0.7l-0.2-0.5l0-0.1l-0.1-0.1l-0.2-0.1l-0.2-0.1l-0.8,0l-0.5,0.1l-0.1,0.1l-0.3,0l-0.5-1.6l-0.1-0.5L51.9,405.1z M49.8,408.6
		l0.4-0.2l0.9,0.4l0.3,0.5l-0.6,0.2l-0.5-0.1l-0.5-0.2l0-0.2L49.8,408.6z M64.8,255.8l0.6,0.1l0.3-0.1l0.4-0.1l0.3-0.1l0.5,0.2
		l0.4,0.1l0.4,0l0.5,0.2l0.6,0.1l0.3,0.3l0.5,0.3l0.4,0l0.6,0l0.3,0.6l0.4-0.1l0.2,0l0.3,0.1l0.3-0.3l0.2-0.3l0-0.3l-0.2-0.5
		l0.4-0.3l0.6-0.3l0.5-0.2l0.4-0.3l0.6,0.1l0.5,0.3l0.4,0.1l0.2-0.2l0-0.5l0.4-0.2l0.5-0.2L77,254l0.5,0.5l0.4,0.5l0.3,0.2l0.5-0.2
		l0.6-0.2l0.6,0l0.4,0.1L81,254l0.3-0.2l0.2,0.5l-0.1,0.8l0.1,0.5l0,0.4l0.3,0.3l-0.2,0.4l0.5,0.2l0.6,0.3L83,257l0.5-0.3l0.5,0
		l0.6,0.4l0.6,0.2l0,0.4l0.6,0.2l0.4,0.5l-0.1,0.5l-0.3,0.4l-0.3,0l-0.1,0.3l0.3,0.3l0,0.7l-0.4,0.3l-0.2,0.4l0.2,0.3l0.3,0l0,0.3
		l0,0.5l-0.1,0.6l-0.3,0.3l-0.2,0.1l-0.2,0.3l0.3,0.4l0,0.6l0.4,0.3l-0.2,0.5l-0.1,0.3l0.2,0.5h0.3l0.6,0l-0.1,0.2l-0.2,0.2
		l-0.3,0.1l0,0.4l0.2,0.2l-0.3,0.4L85,268l-0.6-0.1l-0.4,0.3l-0.2-0.4l-0.5-0.1l-0.4,0l-0.5,0l-0.3,0.5l-0.1,0.2l-0.4-0.3l-0.3-0.3
		l-0.7,0l-0.6,0.1l-0.8,0.4l-0.4,0.2l-0.3,0.3l0.1,0.3l0.1,0.4l0.1,0.2l-0.3,0.4l-0.2,0l-0.5,0l-0.4-0.1l-0.2-0.3l0.1-0.4l-0.6-1.1
		l-0.5-0.4L76,268l-0.2-0.4l-0.5-0.4l-0.4-0.1l-0.6,0.1L74,267l-0.2-0.1l-0.5-0.1l-0.4-0.1l-0.3-0.4l-0.2-0.5l-0.5-0.4l-0.5-0.3
		l-0.1-0.3l-0.9-1.2l-0.8-0.7l-0.5-0.5l-0.4-0.2l-0.5-0.2l-0.4-0.1l-0.3-0.3l-0.4-0.5l-0.5-0.8l-0.1-0.5l-0.3-0.1l-0.4-0.1l-0.4-0.2
		l0.1-0.2l0.1-0.6l0-0.6l-0.2-0.5l-0.3-0.8l-0.2-0.6l-0.2-0.3L64.8,255.8z M23.1,419.2l1-0.3l1.4-0.8l0.3-0.1l0.6,0l0.4,0.3l2.1-0.4
		l0.3-0.2l0-0.1l0.3-0.1l0.9,0.3l0.3,0.2l0.2,0.3l0.4-0.1l0-0.6l0.4,0.5l0.2-0.6l0.4-0.2l0.2,0l0.5,0.4l0.1,0.1l0.2,0.1l0.1-0.1
		l0.3-0.5l0.1-0.8l1.2,0.5l0.1-0.6l-0.3-0.2l0-0.1l-0.1-1.4l0-0.2l0.1-0.1l0.3-0.2l0.5,0l0.2,0l0.1,0.2l0.2,0.2l0.1,0l0.8-0.2l0-0.2
		l-0.1-0.2l-0.1-0.2l-0.5-0.4l0.2-0.5l0.2-0.2l0.3-0.2l0.3-0.1l0.3,0l1.1,0.2l0.4,0.1l0.3,1.1l-0.1,0.4l0.4,0.1l0.4-0.1l-0.3-0.7
		l0.1-0.4l0.8-0.1l0-0.4l-0.9-0.5l-1.1-0.8l-0.2-0.2l-0.2,0l-0.1,0.1l-0.2,0.2l-0.2,0.1l-0.2,0l-0.1-0.1l-0.6-0.9l-0.7-1.2l0.2-0.9
		l1.5-1.2l0.5-0.3l1.6-0.4l0.8-0.1l0.9,0.1l1.1-0.3l0.1,0l0,0l0.1,0.3l0.8-0.2l0.4,0.2l0.1,0.1l0.2,0.3l0.2,0.5l0.1,0.6l-0.3,0.1
		l-0.2,0l-0.5,0.6l0,0.3l0.2,0.5l0.3,0.3l0.3,0.2l0.2,0.1l0.2-0.6l0.3-0.3l0.4-0.1l0.2,0.7l0.7-0.2l0.1-0.1l0-0.1l0.1-0.8l1.1-1.1
		l0.1,0l0.1,0.2l0,0.1l0,0.1l-0.2,0.4l0.5,0.5l0.7-0.4l0.2,0.2l0.6,1.2l0,0.1l-0.1,0.4l-0.5,0.7l-0.2,0.1l-1,0l-0.5,0.2l-0.6,0.5
		l-0.3,0.5l-0.5,0.2l-1.8,0.8l-0.2,0.5l0.1,0.3l1.1-0.3l0.2-0.2l0.6-0.3l1.3-0.3l0.5,0l1.4-0.3l0-0.1l0.1-0.2l0.2-0.2l1.2-0.2
		l0.1,0.1l0.2,0.3l0,0.1l-0.5,1.4l-1,0.9l-0.5,0l-1,0.4l-0.1,0.1l-0.2,0.2l-0.1,0l-2.5,0.5l-0.3-0.2l-1,0.2l-0.3,0.1l0.3,0.4
		l0.2,0.7l-0.8-0.2l-0.2,0.5l-0.3,0.7l-0.8-0.5l-0.1,0.5l-0.2,0.4L41,419l-0.1,0l-0.1,0l-0.6-0.4l-0.3-0.3l-0.1-0.2l-0.5,0.3
		l0.3,0.4l-0.1,0.5l-0.2,0.5l-0.5-0.4l-0.4,0.4l-0.7-0.4l-0.3,0.3l-0.6-0.4l-0.4-0.5l-0.2,0.5l-0.4,0l-0.5-0.6l-0.2,0l-0.1,0.4
		l-0.4,0.1l-0.6,0.1L34,419l-0.1-0.1l-1.1,0.5l-1.5,0.5l-0.3,0.6l-0.1,0l-0.6-0.1l-0.5-0.3l-0.9,0.3l-0.5,0.5l-0.4,0.6l-0.4-0.1
		l-0.2-0.2l-0.1-0.1l-0.7-0.4l-0.1,0l-0.2,0l-0.4,0.8l-0.3-0.1l-2-1.3l-0.4-0.5l-0.2-0.3L23.1,419.2z M84.5,139.9l0.2-0.1l0.1-0.1
		l0.3,0l-0.1,0.5l-0.3,0l-0.1-0.2L84.5,139.9z M88.2,123.3l0.4-0.7l1.5-0.7l1.4-0.3l1.3-0.2l2.2-0.6l2.6-1l0.8-0.5l1.2-0.6l1.8-0.8
		l0.3-0.2l1.5-0.8l2.6-1.1l0.8-0.4l2.1-0.7l5-2l0.2-0.1l0.7-0.3l1.5-0.4l2.8-0.9l2.3-0.7l0.6-0.1l4.3-0.9l3.2-0.4l0,0l0.5,0.1
		l2.5,0.2l1.1,0.2l0,0l0,0l0.6,0l0.9,0.2l0.9,0.3l0.5,0.3l0.6,0.5l-0.3,0l-1.2-0.1l-0.1,0.5l0.2,0.3l-0.1,0.4l0,0.2l-0.5,0.8
		l-0.4,0.4l-0.5,0.4l-0.2,0.2l-0.3,0.5l-0.3,1.5l0.1,0.5l0.1,0.1l0,0.6l0,0.2l-0.2,0.3l-0.7,0.6l-0.6,0.2l-0.9,0l-0.3,0.1l-0.2,0.4
		l0,0.1l0.1,0.1l0.7,0.2l0.9-0.1l0.2,0.8l0.1,0.6l0.1,0.4l0.3,0.6l0.2,0.5l0,0.2l0,0.3l1.4,0.3l0.9-0.1l0.4-0.2l0.1-0.1l1.5,0.3
		l0.3,0.3l0.2,0.2l1.1,0.4l0.2,0l0.5,0l0.5-0.1l0.5-0.1l1.2,0l0.9,0l0.4,0l0.6,0.8l0,0.1l0,0.1l0.3,0.4l0.1,0l0.9,0l0.8-0.2l0.3,0.3
		l0,0.4l0.2,0.2l0.2,0l0.4,0l0.6-0.2l0.7-0.3l0.7-0.4l0,0l0,0.2l0.1,0.1l0.9,0.2l0.7,0.7l1,0.6l0.2-0.2l0.1-0.2l0.2-0.3l0.3-0.4
		l1.1-0.8l0.2-0.2l0.5-0.7l0.1-0.2l0.1-0.3l0.9-1.5l0.7-0.5l1.1,0.2l0.3,0.1l0,0.3l0,0.2l0.1,0.3l0.1,0.1l0.5,0.2l0.6,0.2l0.6-0.2
		l0.6-0.3l0.2,0l0.1,0.1l0.2,0.1l0.4,0l0.1,0l0-0.1l0-0.1l0-0.3l0-0.1l-0.5-0.8l-0.1-0.6l-0.1-0.2l-0.1-0.3l-0.2-0.2l-0.3-0.2
		l-0.5-0.2l-1.3-0.8l-1.5-0.7l-1.7-0.2l-1.3,0.7l-1,0.3l0-0.1l0.5-1.2l0.1-0.4l0.2-0.6l0.2-1.2l0-0.6l-1.2-2l-0.5-0.6l0-0.1l0-0.3
		l0-0.4l-0.1-0.3l-0.1-0.4l-0.3-0.6l-0.4-0.6l-0.4-0.3l-0.7-0.3l-0.7-0.2l-0.6-0.1l-0.1-0.3l0-0.2l0-0.2l0-0.5l-0.2-0.7l-0.2-0.5
		l-0.2-0.3l-0.2-0.2l0-0.1l0-0.1l0-0.1l0.1-0.4l0.1-0.3l0.2-0.3l0.2-0.1l0.5,0l0.3-0.2l0.1-0.5l0.4-0.4l0.1,0.7l0.3,0.2l0.7-0.3
		l0.3-0.2l0.3,0.3l0,0.4l0,0.3l0.3,1l0.5,1l0.3,0.9l0.2,0.3l0.2,0.2l0.2,0.1l0.3,0.1l-0.1,0.5l-0.3,0.6l-0.2,0.2l-0.2,0.2l-0.1,0.1
		l-0.1,0.1l-0.1,0.2l0.1,0.4l-0.2,0.4l0,0.3l0,0.1l0.3,0.4l0.5,0.8l0.1,0.3l0.5,1l1,1.6l1.2,1.3l0.4,0.3l0.6,0l0.8-0.2l1.1-0.4
		l0.5-0.6l-0.1-0.4l-1-0.2l-0.5,0l-0.1,0l-0.1-0.1l-0.1-0.1l0-0.1l0.1-0.1l0.1-0.1l0-0.4l-0.4-0.6l-0.5-0.4l-0.6-0.5l-0.2-0.3
		l-1.4-2.3l-0.1-0.3l0.5-1l-0.1-0.4l0.1-0.5l0.2-0.4l0.2-0.1l0.3-0.3l0.2-0.3l0.1-0.3l0-0.6l0.3-0.3l0.6-0.4l0.4-0.6l0.1-0.3l0-0.1
		l0,0l0.1,0l0.9,0.8l0.7,0l0.1-0.2l0-0.4l-0.1-0.4l-0.2-0.3l-0.8-0.7l-0.7-0.2l-0.2,0.2l-0.4-0.8l-0.3-0.5l-0.1-0.1l-0.2-0.1l-0.1,0
		l-0.4,0l-2.3,0.3l-0.9,0.3l-0.2,0.1l0,0.1l0,0l-1.2-0.2l-0.5,0.2l-0.6,0l-0.3,0l-1.1-0.5l-0.3-0.4l-0.3-0.5l-0.6,0.2l-0.2-0.1
		l-0.5-0.5l-0.1,0.6l0.1,0.3l0,0.1l-0.2,0.1l-1.1-1l-1.1-0.6l-1.8-0.8l-0.9-0.5l-0.4-0.2l-0.5-0.2l-0.9-0.3l-0.7-0.3l-0.3-0.3
		l-0.3-0.5l0-0.3l0.2-0.6l0.1-0.5l0.1-0.6l0-1.2l-0.2-2.4l-0.1-1l-0.1-0.7l-0.7-3.1l-0.4-1.3l-0.2-0.4l-0.3-0.4l-0.5-0.6l-2.6-2.6
		l-1.8-2.7l-1-1.4l-1.1-1.6l-0.6-0.6l-0.4-0.7l-0.2-0.5l-0.6-0.9l-0.6-0.6l-0.3-0.3l-0.5-0.4l-1.6-1.1l-0.8-0.4l-0.7-0.4l-0.2-0.2
		l-0.6-0.7l-0.1-0.5l-0.2-1l-0.6-1.2l-0.7-0.9l-1.2-1.1l-1-0.7l-1.3-0.7l-1.4-0.2l0.5-0.3l0.9-0.2l3.2-0.6l0.2-0.1l0.2-0.1l0.2-0.2
		L121,60l0-0.1l0-0.1l0.3-1l0.7-0.9l0.1-0.2l0.1-0.3l0-0.1l0-0.2l0.2-0.6l0.4-1.2l0.2-0.3l0.1-0.3l0.6-2.1l0-0.3l0-0.3l0-0.4l0.1-1
		l0.1-0.3l0.1-0.1l3.4,1.1l1.2,0.5l0.8,0.2l0.4,0l1.7,0.3l3.2,0l0.8-0.1l0.6,0.1l1.4-0.1l1.2,0l2,0.1l0.4,0l0.9-0.2l0.3-0.1l0.6-0.4
		l0.9-0.2l0.8-0.5l0.4-0.4l0.3-0.2l1-0.5l0.7-0.5l0.9-0.7l0.4-0.4l0.9-1.2l1.7-1.7l0.3-0.3l0.3-0.3l0.5-0.9l0.5-1l0.2-0.7l0.1-0.4
		l0.2-0.5l0-0.1l0.3-1.5l0.1-0.5l0.2-1.7l0.2-0.6l0.3-0.7l0.1-0.2l0.6-1.4l0.1-0.2l0.3-0.7l0.4-0.8l0.2-0.3l0.8-0.8l0.7-0.7l0.3-0.2
		l0.4-0.6l0.8-0.9l0.6-0.8l0.5-0.7l0.2-0.4l0.3-0.4l0.4-0.3l0.2-0.3l0.3-0.5l0.3-0.3l0.6-0.6l0.5-0.5l0.4-0.3l0.8-0.5l1.3-0.8
		l0.2-0.1l0-0.1l0.5-0.3l0.5-0.2l0.1-0.1l0.5-0.3l0.3,0.1L168,22l0.9,0.4l0.9,0.4l0.7,0.2l0.3,0l0.4,0l0.4,0.1l0.1-0.1l0.5-0.1
		l1.3-0.4l0.4-0.1l0.3-0.1l1.7-0.7l1.8-1l1.2-0.8l2.4-2l1.5-1.6l1.3-1.3l1-0.9l1.4-1.4l0.5-0.3l0.5-0.2l1.1-0.4l1.9-0.7l0.1,1
		l0.2,0.4l0.4,0l0.9,0.6l1.5,0.4l0.8,0.1l0.7-0.2l0.4,0.1l0.5-0.2l0.4,0.1l0.3-0.2l0.1-0.3l0.9,0.1l0.8,0l1-0.2l1.2-0.4l0.4-0.2
		l0.6-0.3l0.5-0.3l1.8-1.3l0.7-0.6l0.2-0.3l1.3-1.5l1.2-1.8l0.4-0.6l1-1.3l1.3-1.8l0.3-0.3l1.1-0.9l0.2-0.1l0.4-0.2l0,0.5l0,0.4
		l0,0.1l0.2,0.4l0,0l0.9,0.7l0.4,0.2l0.3,0.1l0.2,0l0.7,0.1l1.1,0.5l0.3,1L216.4,5l-0.1,0.2l0,0.1l0.2,0.3l0.5-0.3l0.3-0.5l0.2,0.3
		l0.1,0.1l0.4,0l0.2-0.1l0.3,0.1l0.8,0.3l0.5,0.3l0.2,0.2l0,0.6l0,0.3l0.3,0.6l0,0.1l0,0.2l0,0.2l-0.2,0.3l-0.1,0.2l-0.7,0.4
		l-0.6,0.5l-0.1,0.2l-0.4,0.6l-0.6,0.5l-0.4-0.1l-0.6,0l-0.2,0.1l-0.2,0.3l0.1,0.7l-0.3,0.4l0,0.1l0,0.1l0.5,0.1l0.2,1l-0.1,0.4
		l0.5,0.2l1.1,0l0.7,0.2l0.8-0.5l0.3-0.3l0.1-0.3l0-0.1l0-0.3l0-0.4l0-0.4l-0.1-0.6l0.3-0.1l0.2-0.1l0.4-0.5l0.2-0.3l0.2-0.4
		l0.2-0.2l0.7-0.2l0,0.1l0,0.2l0.3,0.7l0.1,0.1l0.1,0l0.1-0.1l0.1-0.2l0.1-0.2l0-0.2l0-0.3l-0.1-0.3l-0.7-0.9l0-0.1l0-0.1l0.1-0.2
		l0,0l0.9-0.7l0,0l0,0.2l0,0.2l0.1,0.5l0,0.1l0.1,0.1l0.3,0l0.1-0.3l0-0.2l0-0.4L223.9,7l0.2-0.4l0.2,0l0.7,0.5l1.3,1.1l1.2,1.4
		l0.1,0.1l0.2,0.4l0.1,0.4l-0.2,0.3l-0.1,0.4l0,1.3l0,1l0.2,1l0.4,0.1l0.1,0l0.1-0.1l0.5-0.1l0.6-0.1l0.7,0.5l0.3,0.3l0,0.2
		l-0.1,0.4L231,16l0.1,0l0.3-0.2l0.5-0.4l0.6-0.7l0.2-0.3l0.2-0.5l0.1-0.4l0-0.1l0-0.1l0-0.1l0.3-0.2l0.7,0l0.5-0.1l0.3,0l0.4,0.1
		l0.4,0l0.7,0l0.3,0l0.5-0.1l0.5-0.2l0.3-0.1l0.6-0.4l0.1,0l0.7,0.1l0.8,0.1l0.1,0.3l0.3,0.2l0.6,0.1l0.2,0.2l0.5-0.4l0.5,0.4l0.7,0
		l0.8,0l0.8,0.3l1,0.3l0.3,0.2l0.5,0.2l0.6,0.3l0.3,0.6l0,0.1l0,0.1l-0.4,0l-0.2,0.1l-0.2,0.1l-0.7,1.4l0,0.4l-0.8,0.6l0,0.1
		l0.1,0.9l0.2,0.7l0.1,0.2l0.5,0.2l0.1-0.1l0.1-0.2l0.1,0l0.6,0.5l0.5,0.2l0.3,0l0.2,0l0.4,0l0.2,0.1l0.2,0.2l0,0.2l0,0.1l0.3,0.1
		l0.4-0.1l0.8,0.2l0.5,0.2l0.3-0.1l0.2-0.2l0.2,0l0.1,0l0.1,0.1l0,0l-0.1,0l-0.1,0.1l-0.2,0.4l-0.1,0.2l0.2,0.3l0.1,0.2l-0.4,0.3
		l-0.4,0l-0.8,0.3l-0.1,0.2l-0.1,0.3l0.4,0.4l0.2,0.1l0.3-0.1l0.5-0.1l1.1,0l0.4-0.1l0.4,0l0.9,0.2l0.9,0.4l0.4,0.2l0.4,0.7l0.8-0.1
		l0.1-0.4l0.4-0.3l0.3-0.6l0.2-0.2l0.3-0.4l0.3-0.2l0.4,0l0.4,0.2l0.3-0.1l0.3-0.2l0.4,0l0.4,0.3l0.3-0.4l0-0.4l1.2-0.2l0.2,0.3
		l0.7,0.3l0.3,0.5l-0.1,0.3l0.2,0.5l1.2-0.6l0.8,0l0.1,0l0.2-0.2l1.6-1.8l0.4,0.5l0.1,0l0.2,0l0.4-0.2l0.1-0.1l0.1-0.1l0.4-0.1l0,0
		l0.1,0.1l0.6,0.2l0.1,0l0.2-0.1l0.1-0.1l0.1-0.2l0.4-0.3l0.3,0.3l0.1,0.3l0.2,0l0.7-0.2l1.1,0.2l0.8,0.5l1.1,0.9l0.2-0.1l0.6,0.1
		l0.6,0.5l0.5-0.3l0.2-0.3l0-0.1l0.2,0l0.5,0.2l0.2,0.1l0.1,0.1l0.9,1.2l0.1,0.5l-0.1,0.5l0.1,0.2l0.1,0.1l0.3,0.1l0.4,0l0.1-0.1
		l0.6-0.7l0.1-0.2l0.4-0.3l-0.2,0.6l0.1,0.5l0.2,0.2l0.3-0.3l0.2-0.4l0-0.4l0.2-0.1l0.1,0.1l0,0l0,0.1l0,0l0.1,0.1l1,0.3l0.9,0.4
		l0.4,0.4l0.3,0.7l0.3,0.7l0.7,0.4l0.3-0.1l0.5,0l0.7,0l0.6,0.2l0.3,0.1l0.1,0l0.3-0.1l0.8-0.8l0.1,0.3l0,0.3l0.1,0.4l0.4,0.4
		l0.2,0.1l1.4,0.1l0.1-0.1l0.5-0.6l0.2-0.3l1.3,0.1l0.2,0l0.7-0.2l1-0.2l0.5,0l0.3,0.1l0.7,0l0.2-0.1l0.3,0l0.9,0.2l0.4,0.1l0.1,0.1
		l0.2,0.2l0.8,0l0.4,0l0.3-0.1l0.4-0.2l0.1-0.4l0.1,0l0.5,0.3l0.1,0.2l0.2,0.2l0.1,0.1l1.3,0.9l0.4,0.1l0.5-0.1l0.1,0.1l0.3,0.3
		l0,0.3l0.3,0.2l0.2,0.1l0.7,0.1l0.7,0L306,31l0.2,0.3l0.2,0.1l1.4,0.1l0.2,0.1l0.2,0.3l0.1,0.1l0.4-0.2l0.3-0.2l0,0l0-0.3l0,0
		l0.5,0.1l0.5,0.2l0.6,0l0.4-0.1l0.2-0.2l0.6-0.7l0.1-0.5l0.2-0.3l0.6-0.2l0.8-0.1l0.1-0.2l0.2-0.3l0.6-0.2l0.3-0.4l0.3-0.2l0.6-0.1
		l0.6-0.4l0.2-0.4l0.2-0.2l0.6,0.2l0.4-0.2l0-0.3l0.5-0.2l0.4-0.1l0.3-0.1l0.3-0.3l0.5,0.1l0.8,0.2l0.5-0.3l0.6-0.5l0.2-0.1l0.3,0.3
		l0.3,0.1l0.4,0.2l1.1,0.5l0.9,0.4l1.7,0.5l2.3,1.3l0.4,0.3l0.5,0.5l0.1,0.4l1.1,0l0.3,0.2l1.2,0.7l0.3,0.1l0.1,0l1.1,0.6l1,0.1
		l1.2,0.4l1,0.5l0.8,0.5l1,0.8l1.1,0.1l0.8-0.1l0.8,0.1l1.1,0.5l2.3,11.6l3.1,16.1l0,0l2.8,14.6l2.8,14.7l3,15.6l3.7,19.4l0,0
		l4.6,24.5l4.5,23.7l4.2,22.7l3.6,19.2l0.1,0.4l0.9,5l0.7,3.6l0.1,0.7l0.2,1.2l1.1,5.9l1.7,8.9l2.6,14.3l0.4,2.2l0.4,2.1l3,0.6
		l3.1,0.4l0.3-2.3l6.3,1.9l1.7-2.8l1-1.6l7.3-2l0.2,0.8l-0.3,5.9l1.1,0.9l1.1,1l0.3,0.1l1.5,0.4l1.7,0.5l1.2,0.2l0.6,1.4l0.3,0.9
		l0.7,0.9l1,0.7l2.4,1.6l2.4,1.5l2.6,1.7l2.9,1.9l3.8,2.4l1.6,3.1l1.2,2.8l0.1,1.9l0,0l0.9-0.3l1.7-2.8l4.1-4.5l0.3-0.6l2.9-0.9
		l0.6-2.5l0,0l-0.2-0.4l0.3-0.3l-0.6-2.2l-0.5-2.1l1.4,0.1l0.1-0.1l0.6-0.5l0.4-1.6l-0.2-0.8l-1.6-0.6l1.7-1.5l2.7-1.3l2.4-2.4
		l0.1-0.1l2.3-2.3l1.8,1l1.5,0.6l0.2,0l0.4,0.7l1,0.7l0.5-0.1l1.4,1.1l0.6,2.1l-0.4,0.7l-0.1,0.7l1.6,0.6l-0.2,1.1l1.3,1.3l3.3-0.1
		l0.6,1.3l1.8,1l1-0.3l0.7,0.9l1.1,1l0.1,1.5l1.1,0.1l0.1,0l0,1l1.2,1l0.2,0.1l4.1,1.2l1.9,0.4l2.4,2.3l2.4,1.5l2.8,1.5l-0.7,1.3
		l2,2l0.5,0.4l1.3,0.9l1.2,1l0.2,0.3l2.3,3.1l3.7,2.9l2.4,2.8l1.8,1.6l0.2,0.3l2,2.2l3.5,2.8l2.4,2.6l-0.6,3.3l4.4-0.3l0.2,3.9
		l0,0.4l3.7,0.5l0,1.3l0.9,1l1.1,2.3l3.1-1.4l1.9,0.9l4.5,1.1l1.4,0.6l0,0l4.2-0.5l2.8,1.6l1.2,0.1l1-0.2l1.3,2.1l1-0.1l1.6,0.2l0,0
		l1.6-1.3l2.2,2.2l0.6,2.3l0.2-0.1l0,0.1l-0.3,2.4l-0.4,0.6l0,1l0,0l0.5,1.2l0.7,0.6l0.6,2.4l1.1,1.7l1,0.8l1.2,2.5l0.9,0.6l0.2,0.4
		l-1,2.7l-0.2,1.4l0.1,0.5l-0.1,0.9l0.1,0.7l-0.4,2.5l-0.5,1.5l-0.7,1.5l-0.3,0.8l-1,1.8l-0.7,0.5l-0.2,0.6l0.5,0.3l-0.1,0.2
		l-0.4,0.6l-0.1,0l-0.8-0.6l-0.3-0.4l0.1-0.2l0-0.1l-0.1-0.3l-0.1-0.1l-0.6-0.3l-0.2,0l0.2,0.7l0,0.2l-0.1,0.3l-0.3,0.4l-0.2,0.1
		l-0.2,0l-0.5-0.1l-0.3-0.1l-0.3-0.3l-0.3-0.4l0-0.4l-0.4-1l-0.4-0.7l-0.1-0.3l-0.1-0.8l-0.1-0.1l-0.3,0l-0.6-0.2l-0.1-0.1l-0.1-0.8
		l0-0.9l0-0.1l-0.1-0.4l-0.4,0l-0.3-0.1l-0.4-0.3l-0.4-0.4l-0.1-0.2l-0.2-0.2l-0.1-0.1l-0.3-0.6l0,0l1-1.8l0.2-0.7l-0.1-0.4l0.3-0.3
		l0.2-0.1l0.5,0l0-0.1l-0.1-0.3l-0.1-0.1l-0.5-1l-1-1.4l-0.1-0.1l0-0.3l0-0.4l0.1-0.3l0-0.7l-0.2-0.9l-0.6-1.5l-1-2.2l-0.9-1.2
		l-0.9-0.8l-2.1-1.7l-1.4-0.7l-0.3-0.2l-0.6-0.5l-0.2,0.1l-0.1,0.1l0,0.2l0,0.2l0.1,0.2l1.5,0.9l1.7,1.3l0.4,0.6l0.4,0.7l0.1,0.1
		l0.8,0.7l0.7,0.6l0.5,0.8l0.8,1.6l-0.1,0.5l-0.4,0.3l0,0.3l0.4,1.6l0.9,1.7l0.4,0.2l0.6,0.9l0,0.2l-0.1,0.3l-0.1,0.2l-0.1,0
		l-0.1-0.4l-1-1.3l-0.2-0.1l-0.3,0l0.1,0.4l0.1,0.3l0.1,0l0.1,0.1l0.3,0.5l0.3,1.5l-0.3,0.9l-0.7,1.7l-0.3,0.2l-0.3,0.1l-0.4,0
		l-0.4-0.1l-0.6-0.5l-0.2-0.3l0.2-0.3l0.3-0.8l0-0.3l0-1.6l-0.1-0.2l-0.2-0.5l-0.1,0l-0.9,0.4l-0.2,0.2l0,0.1l0.2,0.4l0.4,0.2
		l0.3,0.3l0,0.2l-0.1,1l0,0.1l-0.4,0.5l-0.8,1l-0.3,0.1l-0.1,0l-0.2-0.2l-0.2-0.3l-0.4-0.4l-0.3-0.4l0.1-0.3l-0.2-0.2l-0.4-0.1
		l-0.2,0.1l0,0.1l0.1,0.8l-0.1,0.1l-0.2,0l-0.3-0.2l-0.3,0l-0.9-0.4l-0.9-0.1l-0.6-0.4l-0.1-0.1l-0.1-0.2l-0.1-0.1l-1.5-0.7
		l-0.3-0.2l-0.5-1.5l0-0.1l0.5-0.6l0.4-0.1l0.4-0.3l0.6-1.1l0.1-0.3l-0.3-0.3l-0.2,0l-0.3,0l-0.4-0.3l-0.1-0.1l0-0.1l0-0.2l0-0.4
		l-0.1-0.8l-0.1-0.2l-0.4-0.2l-0.2-0.2l0-0.5l0.1-0.2l0.6-0.6l0-0.4l0-0.1l-0.2-0.1l-0.4,0l-0.1,0.1l-0.1,0.1l0,0.1l-0.1,0l-0.2-0.4
		l-0.4-1.1l0.1-0.2l0.1-0.4l-0.1-0.3l-0.1-0.1l-0.4,0l-0.6,0.6l-0.7,0.3l-0.1,0.1l0.2,0.4l0.3,0.4l0.6,0.2l0.2,0.3l0,0.5l0,1.6
		l-0.1,0.3l0.2,0.9l0.1,0.3l-0.2,1l-0.2,0.8l-0.7-0.3l-0.2,0.3l0.1,0.2l0.5,0.8l0.4,0.8l-0.2,1l-0.2,0l-0.5-0.2l-0.5-0.3l-0.3-0.1
		l-0.5,0l-0.2,0.1l-0.4-0.1l-0.1,0l-0.6-0.4l-0.4-0.6l-0.1-0.2l0-0.2l0,0l-0.6-1l-0.3-0.4l-0.2-0.2l-0.4-0.4l-0.5-0.6l0-0.1l0.2,0
		l0.2,0.1l0.4,0.3l0.3,0l0.2-0.2l0-0.3l-0.2-0.6l-0.1-0.1l-0.1-0.4l0.6-0.5l0.2-0.1l0.2-0.6l-0.1-1.1l-0.3-2.1l-1-1.9l0.1-1.2l0-0.1
		l0.4,0.3l0.3-1l0-1.6l-0.2-0.3l-0.2,0l-0.4,0.2l-0.2,0.3l0.1,1.2l-0.3,0.2l-0.4,0.7l-0.6,1.5l1.3,2.1l0,0.4l-0.2,0.5l-0.1,0.1
		l-0.3,0l-0.5-0.1l-0.7,0.4l-0.3,1l0.1,0.3l0.2,0.2l0,0.1l-0.1,0.3l-0.6,0.2l-0.1-0.1l-0.5-0.5l-0.1-0.1l-0.1-0.5l0.2-0.4l-0.3-0.4
		l-0.5-0.1l-0.4-0.1l-0.3-0.8l-0.3-0.6l-0.3-0.2l-0.4-0.8l-0.5-0.1l-0.1,0.6l-0.5-0.3l-0.3,0.1l-0.1,0.4l0.3,0.4l0.1,0.2l-0.1,0.3
		l-0.6-0.4l-0.9-1l-0.5-0.6l-0.4-0.7l-0.4-1.7l0.2-0.6l0.2-0.1l0.1,0l0.3,0l0.4-0.2l0.1-0.2l0-1l0-0.2l0-0.3l0.2-1l0.1-0.2l1-0.7
		l0.1,0l0.1,0l0.3,0.3l0.5,0.5l0,0.1l0,0.2l0.3,0.2l0-0.1l0-0.4l-0.2-0.9l-0.5-0.8l-1.2-2.3l0-0.2l0.1,0l0.3,0l1.7,0.4l0.2,0.2
		l0.3,0.5l-0.1,0.1l0.2,0.3l0.3,0.3l0.3,0.2l0.1,0l0.1-0.5l0-0.1l-0.1-0.2l-0.8-1.2l-0.5-0.3l-0.3-0.2l-0.2,0.1l-0.1,0l-1.2-0.7
		l-0.1-0.1l-0.4-0.9l-0.6-0.1l-0.4,0.7l-0.4,0.1l0.1-0.5l-0.4-0.4l-1.3-0.3l-0.3-0.6l-0.2-0.5l0.4-0.6l-0.2-0.2l-0.4-0.5l0-0.5
		l-1.2-0.2l-2.1-0.8l-0.4-0.3l-0.1-0.2l0,0l0-0.1l-0.1-0.1l-0.4-0.4l-0.2-0.1l-0.3-0.1l-0.4-0.3l-0.8-0.8l-0.3-0.6l0.3-0.1l0.4-0.4
		l0.3-0.7l-0.5-0.9l-0.3-0.1l-0.2,0.1l0,0.2l-0.3,0.9l-0.3-0.1l-0.6,0l0,0.6l-0.6-0.5l-0.8-0.4l-0.7,0l-0.4,0.2l-0.4,0l-0.4-0.4
		l-0.1-0.2l0-0.1l-0.3-0.2l-0.1,0l-0.2,0.1l-0.8,0.9l-2.1-0.5l-0.8-0.2l-0.8-1.4l0-0.2l0.1-0.7l0.2-0.8l0.2-0.1l0.3,0l0.2,0.1
		l0.1,0.2l0.2,0l0.7-0.2l0.8-0.3l0.2-0.4l0-0.7l-0.1,0l-0.8,0.1l-0.1,0.1l-0.7,0l-0.6-0.1l-0.2,0l-0.2-0.1l-0.1-0.1l-0.1-0.3l0-0.2
		l0.1-0.2l-0.9-1.2l-0.5-0.8l-0.1-0.3l-0.2-1l0-0.1l0.2-0.1l0.1-0.1l0.1-0.3l-0.1-0.2l-0.4-0.1l-0.2,0.2l0,0.1l-0.1,0.1l-0.3,0.2
		l-0.2,0l-0.6-0.2l-0.8-0.6l-0.2-0.3l-0.2-0.5l-0.1-1.5l0-0.2l0.9-0.3l0.6,0.3l0.2,0.2l0.1,0l0.5,0l0.6-0.1l0.5,0.1l2.5,0.6l0.7,0.3
		l0.1,0l0.1-0.4l-0.2-0.2l-1.2-0.6l-0.4-0.2l-0.2,0l-0.4,0.1l-2.5-1.1l-0.9-0.5l-0.1-0.1l-0.1-0.1l0-0.3l-0.7-1.6l-0.4,0.1l-0.1,0
		l-0.2,0.4l0,0.3l0.1,0.6l0.1,0.2l0.1,0.1l0,0.2l0,0.1l-0.2,0.2l-0.2,0.1l-0.3-0.1l0,0l-0.1,0.1l-0.1,0l-2.7-2.8l-3.3-2.2l-1.3-2.7
		l0-1.5l-0.4-1l0.5-0.4l0.4-0.7l-0.5-0.7l-0.6-1.1l-0.3,0.1l0.1,1.8l-0.7,0.9l0.2,0.9l0.6,0.3l-0.2,0.5l0,0.8l-0.5-0.1l-0.8,0.7
		l-1.2,0.1l-0.8-0.2l-1,0l-0.2,0.4l-1.7-0.3l-1.2-1.3l-1.6-1.7l-0.8-2.2l-2.6-2.3l-1-1.4l0.8-0.3l-0.5-1.1l-0.4-1.2l-0.5-1l-0.4,0.4
		l-0.1,1l0.4,1.2l-2.3-2.2l-1.1-2.9l-0.2-0.6l-0.9-1.8l-0.7-1.2l-1-1.3l-1.5-1.4l-0.5-0.6l-1.8-0.3l-0.1,0.4l0.8,0.5l0.6-0.1
		l0.4,0.8l1,0.6l0.8,1.2l0.8,1.2l0,0.4l-0.3-0.1l-0.5-0.3l-0.4-0.5l-0.7-0.9l-1.2-1.1l-1.2-0.5l-1,0l1.4,0.8l0.9,0.6l0.7,1.1
		l0.4,0.4l0.6,0l0.2,0.3l0.1,1.2l0.2,0.2l0.1,0.3l-0.2,0.4l0.2,0.3l0.1,0.5l0.6,0.9l0.7,0.3l0.1,0.2l-0.1,0.3l1.1,1.5l0.2,0.1
		l0.4,0.4l0.1,0.2l0.4,1.1l1.9,2.5l0.3,0.6l0,0.3l-0.1,0l0,0l-0.2-0.2l-0.1-0.2l-0.3,0l0,0.1l0.1,0.4l0.5,0.6l0.7,1.1l1,1.6l0.9,1.6
		l0.4,0.9l0.1,0.5l0,0.1l-0.1,0l-0.2-0.3l-0.3,0.2l0,0.1l0.1,0.7l0.2,0.4l0.9,1.2l-0.2,0l-0.2-0.2l-0.3,0.1l-0.6,0l-0.9-0.4l-0.1,0
		l-0.2,0.1l-0.4,0.2l-0.1,0l-0.3-0.1l-0.7-0.5l-1-1.2l-0.2-0.3l-0.7-1.3l-0.2,0l-0.2,0.1l0,0.1l-0.5,0.4l-0.1-0.1l-0.5-0.3l-0.9-0.3
		l-0.1,0l-1,1.1l-1.2,0.5l-0.9,0.5l-0.1,0l-0.1-0.1l0-0.1l0.1-0.7l-0.2-0.8l-0.3-0.3l-0.1,0l-0.1,0.3l-0.1,0l-0.7-0.1l-0.2-0.1
		l-0.1-0.2l0.1-0.2l0.2-0.3l0.2,0l0.1-0.1l0.4-0.4l0.1-0.2l-0.1-0.5l-0.3-0.1l-0.4-0.7l-0.1-1.1l-1.8-1.9l-0.1-0.2l0-0.2l-0.1-0.3
		l-0.7-0.8l-0.6-0.5l-0.1-0.2l0.1-0.3l0.3-0.4l-0.5-1.8l-0.2-0.3l-1-0.8l-0.4-0.1l-0.2,0l0,0.1l0.1,0.3l0.2,0.3l0.5,0.5l0.6,1.4
		l0.1,2.7l-0.1,0.2l-0.6,0.2l-0.4,0.1l-2.2-0.9l-0.4,0l-0.6-0.2l-0.3-0.1l-1-2l-0.1-0.6l-0.3-0.2l-0.2,0.1l-0.1,0.2l0,0.3l0.1,0.4
		l0,0.5l-0.4,0.6l-0.5,0.1l-0.1,0l-0.3-0.2l-0.2-0.2l-0.3-0.2L444,282l-0.4,0l-0.1,0l-0.1,0.4l-0.4,0.2l-0.3-0.2l0-0.3l-0.4-0.4
		l-0.4,0.5l0.1,0.2l-0.1,0.6l0,0l0.1,0.2l0.1,0.2l0.8,0.2l1.3,0l0.3-0.2l1,0.3l0.8,0l0.4,0.1l0.7,0.3l1.1,0.7l1.8,1.8l0.1,0.2
		l-0.1,0.5l-0.2,0.4l-0.1,0.2l-0.1,0.1l-0.3,0.3l-0.3,0.6l0.3,0.1l0.8-0.8l0.4-0.5l0-0.5l0.1-0.2l0.9,0l0.1-0.3l0.2,0l0.8,2.1
		l0.8,0.5l0.3,0.5l0.5,0.3l0.1,0.3l0.5,0.6l0.1,0.3l0.3,0.5l0.2,0.4l0.4,0.8l-0.4,0.9l-0.2,0.2l-1.7,1.2l-0.1,0.1l-0.2,0l-0.1,0
		l-0.1-0.1l0-0.1l0-0.2l0-0.2l0.1-0.2l0.1-0.1l0-0.3l-0.1-0.1l-0.1,0l-0.6,0l-0.5,0.5l0.3,0.3l0.1,0l0.1,0.4l0,0.7l-0.1,0.1
		l-0.2,0.1l-1.1,0l-0.5,0.1l-0.4-0.1l-0.3,0.2l-0.1,0.4l0.2,0.4l0.1,0.2l0.2,0.6l-0.1,0.7l0,0.1l-0.3,0.2l-0.5,0.2l-0.6-0.2
		l-0.4-0.5l-0.2-0.3l0.1-0.4l-0.2-0.3l-0.4,0.1l-0.3,0l-1.1-0.4l0-0.3l-1.6-1.2l-0.6-0.1l-0.3,0l-0.1,0l-0.7,0.5l-0.4,0.2l-0.4-0.3
		l-0.7-0.4l-0.9-0.4l-0.2,0l-0.3,0l-0.3-0.1l-1.7-0.8l-1.3-0.7l-1.1-0.5l-0.6-0.2l-0.3,0.1l-0.6-0.3l-0.1-0.1l-0.1-0.6l-0.2-0.3
		l-0.1-0.1l-1.7-1.1l-1.2-0.5l-0.4-0.1l-0.4-0.3l-0.2-0.3l-0.1-0.2l0-0.1l0-0.1l0.1-0.2l0-0.2l-0.1-0.4l-0.2-0.6l-0.3-0.4l-0.5-0.5
		l-1.3-0.9l-1-0.6l-0.5-0.2l-0.2-0.2l-0.6-0.3l-0.9-0.3l-4.7-0.9l-1-0.6l-0.9-0.5l-1.2-0.6l-1-0.4l-1.7-0.4l-3.1-0.8l-1-0.3
		l-1.1-0.4l-1.7-0.7l-0.8-0.4l-2.1-1l-1.5-0.5l-0.1-0.2l0-0.1l0.1-0.3l0.1-0.1l0.4,0.1l0.2-0.3l-0.2-0.2l-0.1-0.2l0.3-0.4l0.4-1.1
		l0.9,0l0.2,0.1l-0.1,0.2l-0.3,0.1l0,0.1l0.1,0.2l0.2,0.1l0.4,0l0.1-0.1l0.3-0.3l0.1-0.1l0-0.1l-0.1-0.1l-0.1-0.1l0-0.5l0.6-1.3
		l0-0.4l-0.3,0l-0.2,0.1l-0.5,0l-0.1-0.2l0.1-0.2l0.1-0.2l-0.2-1l-0.4-0.7l-0.4-0.7l-0.3-0.8l0-0.7l0.2-0.1l0.3-0.4l0.4-0.5l0.1-0.1
		l-0.1-0.5l-0.2-0.2l0.1-0.2l0.2-0.3l0.2-0.3l-0.5-0.5l-0.3-0.5l-0.3,0.1l0,0.3l-0.2,0.6l-0.2,0.2l0.1,0.8l0,0.5l-0.2,0.2l-0.3,0.3
		l-0.5,0.2l-0.2,0.5l-0.3,0.7l-0.2,0.5l0.2,0.5l0,0.5l-0.7,0.6l-0.9,0.6l-0.8,0.5l-0.9,0.7l-0.9,0.6l-0.3,0.3l-0.2,0.4l-0.5,0.5
		l-0.6,0.4l-0.9,0.1l-2.1,0.2l-0.6,0l-0.6,0.1l-1.8-0.1l-1.3-0.1l-1.2-0.5l-2.3-0.7l-0.8-0.2l-2.7-0.8l-0.6-0.4l-0.3-0.6l0.2-0.1
		l0.7,0.1l1.4-0.8l0-0.8l0.3-0.8l-0.4-0.4l-0.1-0.4l-1.4-1.7l0-0.9l-0.2-0.3l-0.3,0.1l-0.3,0.6l-1-0.6l-0.5-0.1l0,0.4l0.4,0.6
		l0.9,0.9l1,0.6l0.5,0.6l-0.3,0.5l-1.4,1l-0.7,0.5l-1.7,0.3l-1.8-0.6l-0.6-0.2l-0.7-0.1l-0.4,0l-0.8,0.1l-0.5,0l-0.4,0l-1.5-0.2
		l-3.7-0.2l-0.6,0l-1.3,0.1l-1.4,0.2l-0.8,0.2l-0.4,0.1l-1.9,0.8l-0.8,0.3l-0.7,0.1l-2.6,0.6l-2.5,0.7l-0.9,0.4l-2.2,1.3l0,0
		l-1.8-0.6l-1.9,0.8l-2.5,2.9l-0.3,0.6l-1.5,2.1l-0.1,0l0.3-1.4l1.3-2.4l1.3-1.5l1.1-1.3l2-0.3l0-0.4l-0.9-0.9l-2.3-0.7l-0.4-0.5
		l-0.4,0.5l0.4,0.5l0,0.4l-0.2,0.5l-1.2-1.3l-0.2-0.3l-0.2-0.1l-0.4,0l-0.7-0.4l-0.1,0.1l-0.1,0.1l0,0.1l0,0l-0.5,0l-0.8-0.5l-3.1,0
		l-0.3-0.1l0.6-0.5l1.6-0.7l-0.8-0.3l-1.1-0.2l-0.2,0.3l-0.6-0.1l-0.2-0.5l0.5-1.4l0.4-1.1l0.2-0.3l0.2-0.7l-0.2-0.3l-0.3,0
		l-0.2,0.1l-0.2,0.4l-0.3,0.5l-0.7,0.4l-0.5,0.3l0.1,1l0,0.2l-0.5,1l-0.2,0.5l-0.3,0.1l-1-0.1l-0.4-0.1l-1.1-0.5l-2.2-1.1l-0.1-0.4
		l0.1,0l0-0.2l0-0.1l-0.4-0.2l-0.3-0.3l-0.4-0.2l-0.9-0.2l-0.8-0.1l-0.7,0.4l-0.6,0.5l-0.3,0.1l-0.8-0.2l-0.1-0.1l-0.1-0.1l0-0.1
		l0.5-0.7l0.6-0.3l0.7-0.5l0.9-1.7l-0.3-0.3l-0.3,0.1l-0.2,0.3l-0.2,0.4l-0.2,0.3l-0.1,0l-1.5,1.1l-0.8,0.6l-0.4,0.4l-0.4,0.3
		l-1.2,0.6l-0.4,0l-0.8-0.1l-0.1-0.1l-0.4,0.2l0,0.1l0,0.6l0.1,0.4l0.2,0l0.2-0.2l0.3-0.1l1.8-0.5l0.1,0l0,0.1l0,0.1l0.4,0.3
		l0.2,1.1l-0.7,0l-0.6,0.5l-0.6,0.4l-0.8,0l-0.9,0.4l-0.7,0.6l-0.4,0.3l-0.5,0.6l-0.8,0.8l-0.2,0.1l-0.2,0l-0.1,0L317,271l-0.1-0.2
		l0-0.1l0.1-0.2l0.4-0.4l0.6-0.5l0.3,0l0.3-0.5l0.2-0.3l-0.2-0.2l-0.4,0.1l-0.4,0.2l-0.2,0.3l-0.4,0.1l-0.8-0.2l-0.1-0.2l0-0.7
		l0-0.2l0.9-1.8l0.3-0.5l0.2-0.2l0.7-0.1l0.1,0.1l0.2,0.2l0.6,0.2l1-0.5l0.6-0.5l0.3-0.5l1.6-0.4l0.9-0.5l1.5-1l0.8-0.3l0.2,0
		l0.3-0.1l0.5-0.2l0-0.2l0,0l-0.3-0.2l-0.2,0l-0.3,0.1l-0.4,0.1l-0.1,0l0,0l0-0.4l0,0l-0.1-0.5l0.1-0.2l0.2-0.2l0.3-0.5l0-0.1l0,0
		l-0.1,0l-0.1,0l-0.2,0.1l-0.2,0.3l-0.1,0.1l-0.2,0.5l0,0.1l-0.1,0.4l0,0l-0.3,0.2l-0.4,0.2l0,0l0,0l0-0.1l0-0.1l0.1-0.4l0.3-0.7
		l0.3-0.4l0.1-0.1l0.2-0.3l0.1-0.2l-0.1-0.2l0,0l-0.8,0.8l-0.4,0.5l-0.1,0.1l-0.4,0.2l-0.4,0.2l-0.3,0.3l-0.2,0.1l-0.1,0.1l0,0.1
		l-0.5,0.2l-0.8,0.1l-0.1-0.1l-0.1-0.1l-0.1-0.2l0-0.1l0-0.1l0.1-0.1l0.8-1l0.1-0.1l0.4-0.4l0.2-0.1l0.3-0.2l0.6-0.7l0-0.3l-0.1-0.2
		l-0.2-0.3l0,0.1l0,0.1l-0.1,0.3l0,0.1l-0.3,0.4l-0.4,0.4l-0.1,0l-0.3-0.1l-0.1,0l0,0l0-0.2l-0.1,0l-0.1,0.1l-0.1,0.2l0,0.3
		l-0.1,0.1l-0.2,0.1l-0.5,0.1l-0.1-0.1l0-0.1l0-0.1l0-0.3l-0.4,0l-0.4,0.6l-0.1,0.5l-0.1,0.1l-0.7,0.3l-0.3,0.1l-0.2-0.2l-0.2,0
		l-0.6,0l-0.3,0.1l-0.2,0.2l-0.3,0l-0.2-0.2l-0.5-0.9l-0.1-0.2l1.1-0.5l0.5,0.1l0.7-0.6l0.4,0l1.2-0.5l0.6-0.4l0.6-0.4l0.8-1
		l0.1-0.4l0-0.1l-0.2-0.1l-0.9,0.1l-0.1,0.1l-0.2,0.5l-0.2,0.4l-0.2,0.2l-0.7,0.3l-1.9,0.3l-0.1,0l-0.9-1.4l-0.5,0l-0.4,0.6
		l-0.2,0.3l0,0.1l0.1,0.2l0,0.2l-0.1,0.1l-0.3,0.1l-0.5,0.1l-0.2-0.3l-0.1-0.6l0-0.3l0.3-0.3l0.1-0.3l0.2-0.1l0.4,0.3l0.3-0.2
		l-0.2-0.6l-0.3-0.3l-0.2-0.6l0-0.5l0.5-0.8l0.3-0.9l0.2-0.6l-0.1-0.3l0.2-0.4l0.4-0.3l2-0.2l2-0.3l0-0.2l-0.2-0.3l-0.2-0.2
		l-1.3,0.1l-0.3-0.2l-0.8,0.3l-1.4,0.2l-0.3,0.4l-0.4,1l-0.9,0.6l-0.1,0.1l0,0l-0.7,1.1l-0.1,0.5l0,0.2l-0.1,0.1l-0.1,0.2l-0.5,0.6
		l-0.5,0.3l-0.8-0.1l-0.2-0.1l0.4-0.4l0.4-0.4l0-0.5l-0.3-0.4l-0.1-0.7l-0.3-0.8l-0.4-0.5l-0.2-0.6l0.4-0.3l0.3-0.4l-0.3-0.1l-0.6,0
		l-0.4,0.1l-0.2,0.4l0.3,0.4l-0.2,0.4l-0.1,0.2l0.3,0.2l0.2,0.5l0.2,0.5l0,0.6l-0.2,0.2L310,254l-0.1,0.4l0.1,0.4l-0.1,0.2l-0.3,0.2
		l-0.1,0l-0.3-0.2l-0.1-0.1l-0.1-0.1l-0.1-0.2l0.1-0.2l0-0.3l0,0l-0.4,0.1l-0.2,0.1l0,0.3l0.1,1.1l-1,1l-0.1,0.1l-0.5-0.2l-0.4-0.1
		l0-0.1l0-0.7l-0.1-0.4L306,255l-0.2,0l-0.1,0.8l0,0.1l0,0l0.1,0.2l-0.2,0.5l-0.1,0l-0.2-0.2l-0.1-0.1l-0.1-2.7l0-0.3l0.2-0.8
		l0.1-0.3l-0.2-0.6l-0.1-0.1l-0.4,0.1l0.1,0.2l0,0.3l-0.3,1.6l-0.2,1.2l0.1,0.5l0.3,0.9l0.2,1l-0.1,0.6l-0.3,0.1l-0.5,0.1l0-0.1
		l-0.1-0.6l0.2-0.1l-0.1-0.2l-0.8-0.6l-0.4,0l-0.2,1l0.1,0.2l0.2,0.2l0.2,0l0.3,0.7l0,0.2l0,0l-0.1,0.1l-0.4,0.1l-0.6-0.1l-0.3-0.1
		l-0.7-0.1l0,0.2L301,259l-1.3,0.8l-0.8,0l-0.4-0.1l-0.1-0.1l-0.1-0.5l0-0.3l0.4-1.8l0.2-0.5l0.2-0.5l0.5-0.9l0.7-1.5l0-0.3
		l-0.1-0.7l0-0.1l0.7-0.9l1.2-1.9l0.1-0.8l0.5-0.9l-0.2-0.4l-0.1,0l-0.6,0.9l-0.2,0.6l-1,1.7l-0.7,1l-0.2,0.5l0,0.6l0,0.2l-0.7,1.3
		l-0.3,0l-0.1-0.1l-0.2-0.6l-0.3-0.9l-0.3-0.1l-0.2,0.2l0.1,0.7l-0.1,1.1l-0.2,0.7l-0.2,0.5l-0.2,0.4l-0.3,0.1l-0.2,0.5l-0.1,1.4
		l-0.1,0.6l-0.3,0.7l-0.1,0.1l-0.3,0l-0.2,0l-0.1-0.2l-0.4-0.3l-0.2,0.5l0,0.3l0,0.1l0,0.1l0.1,0.3l0.1,0.1l0.3-0.2l0.1,0l0.2,0.1
		l0.2,0.2l0.1,0.6l-0.1,1.3l0.1,0.4l0.3-0.2l0.2-0.7l0.5-1.1l0.1-0.1l0.5-0.2l1,0.1l0.3,0.2l0.2,0.2l0.3,1.5l0,0.4l-0.5,1l-1,0.8
		l-0.1-0.1l-0.2,0.1l-0.4,0.8l-0.1,0.4l-0.2,0.5l-0.1,0l-0.1,0.7l0,0.4l0.2,0.3l0.4-0.2l0.4-0.3l0.1-0.2l0-0.2l0.1-0.4l0.5-0.9
		l0.9-1l0.1-0.1l0.2,0l1.4,1.8l0.2,0.4L301,267l-0.1,0.1l0.5,0.9l-0.5,2.3l-0.3,1.8l-0.5,0.1l-0.6,0l-0.4-0.4l0-0.2l0-0.2l0-0.2
		l0-0.1l-0.3-0.3l-0.3-0.1l-0.3,0.2l0,0.3l0.1,0.3l0,0.1l-0.8,0.8l-0.3,0.2l0.1,0.4l1.2-0.4l1.1,0.5l0.5,0.5l0.5,0.3l0.6,0.5
		l0.5,0.5l0.8,0.5l0.3,0.4l0.5,0.8l0.3,0.2l0.1,0.3l-0.2,0.4l-0.3,0.7l-0.1,0.6l-0.5,0.6l-1.4,0.9l-0.8-0.3l-0.6,0.4l-0.9,0.2
		l-0.4,0l0.3-1.1l-0.7-0.8l-0.6-0.5l0.1-0.5l0.2-0.8l-0.3-0.8l-0.5-0.5l-0.4,0.6l0.2,0.7l-0.3,1.4l0.1,1.3l-0.2,0.6l-0.2,0.3
		l-0.5-0.4l-0.2-0.5l-0.3-0.6l-0.4,0.2l0,0.7l-0.2,0.6l-0.2,0.2l-0.6,0.6l-0.4-0.1l-0.1,0l-0.2-0.5l-0.9-0.3l-0.5,0.2l-0.2,0.6
		l-0.4,0.2l-0.2-0.3l-0.5-0.8l-0.6,0l-0.6,0.6l-0.4-0.4l-0.6,0.3l-0.4-0.3l0-0.3l0.4-0.8l0.5-0.9l-0.4-0.3l-0.4,0.3l-0.7,0.6
		l-0.4,0.8l-0.2,1.2l-0.5,1.7l-1.3,1l-0.5-0.3l0.3-0.8l0.3-0.4l0.1-0.9l0.4-0.9l-0.2-0.9l-0.2-0.9l-0.3-0.9l0-0.1l-0.1-0.7l-0.7-0.1
		l-0.2,0.6l0.1,0.8l0,0.1l0.1,0.7l0.4,0.4l0.3,0.7l-0.4,0.1l-0.1,0.4l-0.3,1.1l-0.2-0.2l-0.5,0.1l-0.4,0.4l0,0.5l-0.2,0.9l-0.4,0.4
		l0.2,1l0.6,0.3l0.5,0.3l-0.1,0.8l-0.1,0.8l-0.7-0.3l-0.5-0.3l-0.3-0.8l-0.2-0.8l-0.2-1l0.3-0.8l0-0.5l-0.5-1.2l-0.5-0.2l-0.3,0.2
		l0.1,0.5l0.2,0.6l-0.3,1.1l0.2,3.2l0.2,1l-0.2,1.4l-0.6-0.6l-0.7-1l-0.1-0.9l-0.7-0.6l-1.6-0.6l-0.2,0.4l0.4,0.4l0.5,0.2l0.6,0.5
		l0.2,0.8l-0.2,0.6l-1.2,1.4l-0.9,1.1l-0.9,0.9l-0.9,1.2l-0.5,0.8l0,0.8l-0.7,0.2l-0.1,0.8l-0.2,1l-0.6,0l-0.2-1.5l0.8-2.8l0.6-1.7
		l0-0.6l-0.4,0.3l-0.7,1.1l-0.2,1l-0.5,1.4l-0.3,0.1L271,294l-0.1-0.1l0-0.2l0-0.1l0-0.1l0-0.1l-0.1-0.2l-0.2-0.1l-0.1-0.3l-0.1-0.4
		l0-0.3l0.2-0.6l-0.1-0.4l-0.1-0.1l-0.1-0.1l-0.1,0l-0.2,0.3l-0.2,0.4l-0.1,0.3l-0.1,0.2l-0.2,0l-0.2-0.1l-0.1,0.1l0,0.4l0.1,0.3
		l0.2,0.3l0.3,0.2l0.1,0l0.1,0.1l0.1,0.4l0,0.1l0,0.2l0,0.4l0.1,0.1l-0.2,0.5l-0.6,0.1l0,0l-0.6-0.3l-0.5,0.2l0,0.6l-0.3,0.7
		l-0.3,0.3l-0.3,0.1l-0.2,0.1l-0.5,0.8l-0.4,0.2l0,0.2l0.2,0.5l0.1,0.3l0,0.1l-0.1,0.3l-0.5,0.6l-0.2,0l-0.2-0.1l-0.2,0.1l-0.1,0.2
		l-0.1,0l-0.1-0.2l0-0.3l0-0.1l0.1-0.2l0-0.3l-0.3,0.1l-0.1-0.2l-0.2-0.4l0-0.1l-0.1-0.1l-0.1,0.3l0,0.1l0,0.1l-0.2,0.3l-0.1,0
		l-0.2,0.2l0.1,0.6l0,0.3l-0.1,0.3l-0.2,0.2l-0.5,0.2l-0.3,0l-0.1-0.1l0-0.1l-0.2-0.2l-0.2-0.1l-0.5,0.1l-0.2-0.2l-0.1,0l-0.1,0.1
		l0,0.1l0,0.1l-0.1,0.1l-0.2,0.1l-0.5-0.3l-0.5-0.5l-0.1-0.2l0-0.4l-0.1-0.3l-0.1-0.1l-0.3,0.3l-0.1,0.4l-0.1,0.1l-0.5,0.3l-0.3,0.1
		l-0.1,0.1l-0.1,0.1l0.1,0.2l0.2,0.1l0.1,0.1l0,0.1l0,0.1l0,0.1l-0.2,0l-0.5-0.1l-0.2,0.1l-0.1,0.2l0,0.4l0,0.2l-0.1,0.1l-1.4,0
		l-0.1,0.1l-0.1,0.1l-0.2,0l-0.1-0.1l-0.2-0.4l0-0.7l0-0.3l0-0.1l-1,0.3l-0.5-0.1l-0.5-0.4l0-0.1l0.1-0.1l0.1,0l0-0.2l-0.3-0.2
		l-0.3,0.1l-0.1,0.1l-0.2-0.1l-0.2-1.5l0.3-0.8l0.1-0.1l0.4-0.1l0.3-0.2l0.1-0.3l0-0.2l-0.3-0.3l0-0.1l0.2-0.5l0.8-0.5l0.7-0.2
		l0.2,0l0.1,0.2l0.2,0l0.1-0.1l0.2-0.5l0.1-0.1l0.7-0.4l0.5,0.1l0.3-0.2l0.3,0.3l0.4-0.3l-0.1-0.5l0.2-0.5l0.5-0.4l0.5,0.2l0-0.3
		l0.4,0.1l0.6-0.7l0.6-0.3l0.3-0.4l0.6-0.1l0.9,0.2l0.1-0.2l-0.1-0.2l-0.3-0.2l-0.2-0.5l0-0.3l0.1-0.1l0.4-0.2l0.6-0.4l0.1-0.2
		l0-0.1l0.1-0.5l0.2-0.3l1-1.2l0.9-0.8l0.2-0.2l-0.3,0l-0.4,0.2l-0.2-0.1l-0.1-0.1l-0.3-0.1l-0.4,0.1l-0.6,0.4l-0.7,0.7l-0.5,0.5
		l-1.4,1.2l-0.6,0.1l-0.6,0.3l-0.1,0.1l0,0.1l0,0.2l-0.1,0.1l-0.2,0.1l-0.5,0.2l-1.7-0.3l-0.5-0.3l-0.8-0.6l-0.6-0.4l-0.4-0.4
		l-0.3-0.5l-0.1-0.3l-0.1-0.5l0-0.2l0.1-0.3l0.3-0.6l0.2-0.7l0.1-0.8l0.1-0.3l0.2-0.2l0.2-0.5l0.2-0.7l0.3-1.6l0.2-0.6l0.5-0.6
		l0.4-0.8l0.2-0.3l0.7-0.7l0.3-0.4l0.3-0.6l0.8-1.1l0.2-0.4l0.2-1l0.1-0.7l0-0.7l0-0.8l0-0.2l0.1-0.2l0.7-0.4l0.1,0.1l0,0l0.1-0.8
		l0.1-0.5l0-0.4l0-0.4l0-1.1l0-0.2l0.2-0.6l-0.1-0.1l-0.4-0.3l-0.3-0.3l-0.1-0.2l-0.1-0.2l0-0.1l-0.1-0.5l0-0.2l-0.1-0.3l-0.2-0.5
		l-0.3-0.5l-0.2-0.5l-0.1-0.4l0-0.2l0.3-0.2l0.2-0.1l0.7-0.2l0.4-0.2l0.1-0.1l0.1-0.2l0-0.1l0-0.2l0.1-0.1l0.5-0.2l1.3-0.1l0.5-0.1
		l0.3-0.2l0.1-0.1l0-0.1l0.1-0.2l1.4-1.1l0.1-0.1l0-0.1l0.4-0.4l0.4-0.3l0.4-0.5l0.8-0.7l0.3-0.5l0.9-0.4l0.2-0.2l0.8-0.5l0-0.1
		l0.1-0.1l0.6-0.2l0.3-0.2l0.3-0.3l0.3-0.1l0.3,0.2l0.2,0.2l0.4,0.8l0.3,0.6l0.3,0.5l0.9,1.1l0.6,0l0.4,0.3l0.4,0.1l0.4,0l0.3,0.4
		l0.3,0.1l0.3-0.7l0.3-0.3l0.8-1.4l0.2-0.2l0.2,0l0.2,0l0.6,0l1.6,0.9l0.8-0.2l2.8,0.9l2.8,0.3l0.3,0.3l0.7,0.5l0.4,0.3l0.1-0.2
		l-0.2-0.4l-1-1.3l-1.3-0.7l-1.6,0.4l-2.3-1.2l-1,0.1l-1.8-0.8l-0.2-0.2l-0.4-0.3l0-0.1l-0.3-0.4l-0.3-0.4l0,0l-0.3-0.1l-0.7-0.5
		l-0.6-0.7l-0.1-0.1l-0.5-0.2l-0.3-0.1l-0.3-0.2l-0.1-0.1l0.1-0.2l0.6-1l1-0.2l0.1-0.3l0.3-0.6l0.8-1.8l0.4-0.2l0.6-0.3l0.3-1.3
		l1-0.3l0.4-0.3l0.5,0l0.5-0.5l0,0l0.7-0.5l0-0.5l0,0l-0.6,0l-0.8-0.5l-0.8,0l0,0l-1.3,1l-0.5,0.4l-0.4,1.1l-0.8,0.3l-0.2,0.8
		l-0.2,0.7l0,1.5l-0.8,0.7l-1.1-0.3l-0.7-0.1l-0.9,0l-0.6,0.1l-0.1,0.1l-0.1,0l-0.2-0.1l-0.2,0l0,0l-0.1,0l-0.3,0.1l-0.7,0.1
		l-0.4,0.1l-0.5,0l-0.2-0.1l-0.1-0.1l-0.3-0.3l-0.5-0.4l-0.3,0l0,0l-0.2,0l-0.3-0.2l-0.2-0.3l-0.1,0l-0.1,0.1l-0.1,0.5l-0.1,0.2
		l-0.1,0.2l-0.2,0.2l-1.4,0.6l-0.2,0.1l-0.1,0.1l-0.6,0.3l-0.4,0.1l-0.2-0.1l0,0l-0.1,0l0,0.1l0,0.1l0,0.1l-0.1,0.1l-0.2,0.1
		l-0.2,0.1l-0.3,0.1l-0.1,0.1l-0.5,0.9l-0.1,0.2l-0.5,1.1l0,0.2l-0.1,0.2l-0.2,0.4l-0.3,0.4l-0.3,0.1l-0.7,0.1l-0.5,0.1l-0.2,0.1
		l-0.1,0.1l-0.2,0.3l-0.2,0.1l-0.2,0l-0.8-0.1l-0.5,0l-0.1,0l-0.7,0.5l-0.4,0.4l-0.6,0.5l-0.2,0.3l0,0.1l-0.5,0.5l-0.2,0.1l-0.3,0
		l-0.1,0.3l-0.2,0.3l-0.6,0.6l-0.1,0.1l-0.1,0.2l0,0.4l0.1,0.4l0.1,0.3l0.3,0.5l0.6,1.4l0,0.1l0,0.2l-0.1,0.1l-0.1,0.1l-0.3,0
		l-0.1,0l-0.1-0.2l-0.3-0.1l-0.2-0.1l-0.1-0.1l-0.1-0.2l-0.1-0.1l-0.3-0.2l-0.1,0l-0.1,0.1l0.2,0.3l0,0.1l0,0l-0.3,0.2l-0.6,0.2
		l-1.3,1.1l-0.4,0.7l-0.5,1.3l-0.4,0.4l-0.1,0.1l-0.2,0l-0.4,0.2l-0.8,0.8l-0.6,0.8l-0.1,0.2l-0.2,0.6l0,0.3l0,0.4l0.1,0.2l0.2,0.4
		l0.1,0.1l0.8,0.5l-0.8,0.6l-0.1,0.1l-0.1,0.2l-0.4,0.1l-0.2,0.1l-0.1,0.1l-0.1,0.1l-0.1,0.4l0,0.3l-0.1,0.3l-0.2,0.4l-0.1,0.1
		l-0.3,0l-0.1,0l-0.3,0.2l-0.6,0.6l-0.1,0.2l-0.1,0.3l-0.1,0.1l-0.8,0.1l0-0.1l0,0l0-0.1l-0.2-0.1l-0.2-0.3l-0.1-0.1l-0.3,0.1
		l-0.2,0l-0.4,0.2l0,0.2l-0.1,0.3l0,0.2l0.1,0.3l0.2,0.4l0.4,0.2l0.1,0l0.1,0.1l0,0.3l-0.2,0.3l0,0.1l0.3,0.4l0.3,0.1l0.5,0.4
		l0.3,0.5l0.1,0.3l-0.1,0.6l-0.2,0.3l-0.2,0.3l0,0.3l0,0.2l-0.5,0.5l-0.4,0.5l-0.2,0.9l-0.1,0.3l-0.1,0.1l-0.5,0.3l-0.6,0.2
		l-0.2,0.2l0,0.2l-0.6,0.1l-0.2-0.1l-0.1-0.1l-0.2,0l-0.2,0.1l-0.4,0l-0.2-0.1l-0.4-0.1l-0.2,0l-0.3,0.1l-0.4,0.3l-0.8,0.3l-0.8-0.1
		l-0.2,0.1l0,0.1l-0.4,0.4l-0.3,0.2l-0.1,0.2l0,0.1l0.1,0.1l0.3,0l0.3-0.3l0.2-0.1l0.2,0l0.2,0.1l0.5,0.4l0.4-0.2l0.3-0.4l0.8,0
		l0.2,0.1l0.1,0.1l0.1,0.4l0,0.5l-0.5,1.7l-0.3,0.8l-0.7,0.3l-0.2,0l-0.4,0.6l-0.7,0.5l-0.3,0l-0.2-0.1l-0.1-0.1l-0.2-0.6l-0.1-0.1
		l-0.2,0l-0.2,0.1l0,0v0.1l0.1,0.2l0.1,0.4l0,0.1l-0.1,0.1l-0.1,0l-0.4,0.1l-0.3-0.3l-0.2-0.1l-0.1,0l-0.2,0.1l-0.1-0.1l0-0.1l0-0.2
		l0.3-0.2l0.1-0.2l0.1-0.5l0.1-1l-0.8-1.3l-0.2-0.2l-0.1,0.7l0.1,0.5l0,0.4l0,0.3l0,0.4l0,0.3l-0.3,0.9l-0.1,0.2l-0.8,0.3l-0.3-0.2
		l-0.3-0.3l-0.2,0.3l-0.1,0.3l0,0.2l0.2,0.3l0.4,0.1l0.1,0.2l0,0.2l-0.3,0.8l-0.1,0.1l-0.4,0l-0.2-0.1l-0.2,0l-0.9,0.1l-0.5,0.2
		l-0.1,0.5l0.4,0.4l0.3,0.7l0.1,0.4l-0.4,0.7l-0.2,0.1l-0.8,0.2l-0.2,0l-0.5-0.2l-0.4,0.1l-0.2,0.1l-0.2,0.2l-0.3,0.5l-0.1,0l0-0.1
		l-0.1-0.1l-0.4,0l-0.1,0.1l0,0.1l0,0.1l-0.1,0.1l-0.2,0l-0.1-0.1l-0.1,0l-0.1,0l-0.1,0.1l-0.3,0.4l-0.2,0l-0.2,0l-0.1,0.1l0,0.2
		l0.2,0.3l0.9,0l0.1,0.2l0,0.3l-0.6,0.3l-0.5,0.3l-0.1,0.3l-0.2,0.6l-0.1,1.1l0.1,0.2l-0.6,0.9l-0.5,0.5l-0.4,0.2l-0.2,0l0,0.1
		l0.1,0.5l0.1,0.2l0.1-0.1l0.1-0.1l0.2-0.1l0.6,0.1l0.1,0.1l0.1,0.5l0,0.2l-0.1,0.2l-0.3,0.3l0,0.2l0.1,0.4l0.2,0.6l0.1,0.3l0-0.2
		l0.3-0.2l0.3-0.3l0.6-0.9l0.4,0l0.3,0l0.7,0.2l0.2,0.1l1,0.3l0.2-0.1l0.3-0.2l0.1-0.1l0.1,0l0.1,0l0.5,0.5l0-0.1l0-0.2l0.5-0.3
		l0.1,0l0.6,1.1l0.4,0.6l0.9,0.6l0.3,0.1l0.2-0.1l0.3-0.3l0.2,0.2l0.2,0.3l0.2,0.2l0.2,0l0.3,0.1l0.1,0.4l0.1,0.1l0.3,0.4l0.2,0.2
		l0.2,0l0.1,0.3l0.2,0.7l0,0.1l0,0.1l0.1,0.1l0.1,0.1l0.2-0.1l0.2,0.1l0,0.1l-0.1,0l-0.8,0.2l-0.1,0l-0.1,0l-0.1,0l-0.1,0.1
		l-0.1,0.2l-0.1,0.4l0,0.5l-0.2,0.8l-0.2,0.6l-0.3,0.5l-0.2,0.3l-0.2,0l-0.1-0.1l-0.1,0l-1,0.6l-0.3,0.4l-0.1,0.5l-0.1,0.3l-0.1,0.1
		l-1,0.6l-1.2,0.1l-0.4,0l-0.3-0.1l-0.2,0l-0.6,0.1l-0.1,0.2l-0.2,2l0.1,0.1l-0.3,0.4l-0.1,0.1l-0.3,0.2l-0.2,0l0-0.1l-0.3,0
		l-0.7,0.1l-0.1,0.1l-0.1,0.2l0,0.1l0,0.3l0,0.3l0,0.2l0.2,0.5l0.2,0.4l0.1,0l0.1,0l0.2,0l0.3,0.3l-0.2,0.4l-1.3,0.7l-0.5-0.1
		l-0.1-0.1l-0.1-0.1l-0.2,0l-0.1,0.3l0,0.6l0,0l0.1,0l0.2,0.2l0.6,0.9l-0.6,1.7l-0.4,0.5l-0.5,0.1l-0.3,0.7l0.3,0.3l0.1,0.2
		l-0.2,0.1l-0.6,0.1l-0.3-0.2l-0.7,1.1l-0.6-0.7l-0.5-0.6l-0.1-0.1l-0.3,0l-0.1,0.1l0.1,0.3l0.1,0.2l0,0.7l-0.2,0.9l-0.2,0.1l-0.3,0
		l-0.5-0.2l-0.4,0.7l-0.2,0.2l-0.8-0.4l-0.1-0.3l0.1-0.3l0-0.1l-0.1-0.1l-0.2,0l-0.1,0l-0.5,0.2l-0.1,0.1l-0.1,0.3l0,0.2l0,0.2
		l-0.2,0.2l-0.3,0.2l-0.1,0l-0.4,0L216,330l0-0.1l0-0.2l0-0.1l-0.6-0.2l-0.2,0l-1.3,0.3l-0.5,0.3L212,331l0.3,0.6l0.3,0.4l0.1,0.1
		l0,0.1l-0.1,0.5l-0.2,0.3l-0.2,0.2l-0.7,0.2l-1.1,0.7l-0.5,0.1l-0.3-0.1l-0.1-0.1l-0.3-0.1l-0.2,0.1l0,0.1l0,1l0.3,0.4l0.1,0.1
		l0.2,0.1l0,0l-0.1,0.5l-0.2,0.3l-1,0.3l-1.1-0.9l-0.5-0.4l-0.3-0.4l-0.1-0.2l-0.1-0.1l-0.3-0.1l-0.2,0.1l-0.2,0.1l-0.2,0.1
		l-0.1,0.2l-0.3,1.3l0,0.3l0.1,0.3l0.1,0.1l-0.2,0.8l-0.9,0.3l-0.3,0.2l-0.2,1l0.1,0.1l0,0.8l0,0.1l-0.7,0l-1.2-0.1l-0.5,0.3
		l-0.4-0.1l-0.3-0.1l-0.2-0.2l0-0.1l-0.3-0.3l-0.3,0l-0.1,0.1l-0.1,1.6l0,0.3l0.1,0.4l0.3,0.4l0,0.1l-0.1,0.3l-0.9-0.1l-0.1-0.1
		l-0.5-0.7l-0.6-0.3l-0.2,0l-0.2,0.1l0,0.4l-0.1,0.3l-0.1,0.1l-0.4,0l-1.2,0.5l-0.3,0.4l-0.2,0.2l-1.5,1.2l-0.4,0.1l-0.3,0.1
		l-0.1,0.2l-0.2,0.7l0.2,0.2l0.4,0.1l1.2-0.7l1.2-0.5l0.1,1.1l-0.2,0.7l-0.2,0.4l-0.2-0.1l-0.2,0l-0.3,0.2l0,0.2l0,0.5l0.1,0.2
		l0.4,0.4l0.2,0l0,0l0,0.2l-0.3,0.5l0,0.1l-0.2,0.2l-0.9,0.5l-0.3,0.5l0.2,0.2l0,0.1l0,0.2l-0.9,0.7l-0.4,0.2l-0.4,0.7l0.2,0.4
		l0,0.4l0,0l-0.1,0l-1.1-0.3l-0.4-0.1l-0.8,0.3l-0.3-0.3l-0.1,0.1l-0.3,0.3l-0.1,0.2l0,0.1l0,0.5l-0.2,0.7l-0.1,0.1l-0.3,0.2
		l-0.2-0.1l-0.4-1l-0.1-0.3l0-0.1l0,0l0-0.1l0-0.1l-0.1,0l-0.2,0l-0.1,0l-0.2,0.2l-0.1,0.9l-0.7,0.2l-0.3,0.2l-0.1,0.1l-0.3,0.3
		l-0.6,1.1l-1.2,0l-0.1,0.2l0,0.1l0.3,0.5l0,0.3l-0.3,0.4l-0.3,0.1l-0.2,0l-1.1-0.9l-0.1-0.1l0-0.2l-0.1-0.2l-0.4-0.5l-0.6-0.6
		l-0.2-0.1l-0.1,0l-0.4,0.1l-0.3,0.2l-0.2,0.3l0,0.2l0.1,0.4l0.1,0.1l0.1,0.1l0.2-0.1l0.2,0.1l0,0l0.1,0.5l0,0.2l-1.4,0.1l-0.2,0.2
		l-0.2,0.3l-0.1,0.2l-0.2,0.6l0.1,0.6l0.1,0.1l0.5,0.2l0.1,0l0.2-0.1l0,0l0.3,0.7l0,0.1l0,0.1l-0.1,0.2l-0.1,0.1l-0.4,0.1l-0.5,0
		l-0.1-0.1l-0.6-0.1l-0.2,0l-0.1,0l-0.3,0.2l-0.5,0l-0.4-0.5l-0.1-0.3l0-0.2l0-0.1l-0.2-0.6l-0.2-0.1l-0.1,0l-1.2,0.5l-1,0.2
		l-0.5,0.5l-0.5,0.5l-0.8,0l-0.3,0.3l-0.4,0.2l0.1,0.5l0.9,0.1l1.3-0.4l1,0.4l0.1,0.4l0.1,0.8l-0.1,0.3l-0.5,0.4l-0.2,0.2l-0.4-0.1
		l-1.1-0.6l-0.5-0.4l-1.1-0.3l-0.1,0.1l-0.2,0.4l0.1,0.1l0.1,0.1l0,0.1l-0.1,0.6l-0.1,0.1l-1.6-0.3l-0.5-0.4l-0.6-0.1l-1.1,0.6
		l-1.5,1.7l0,0.1l0,0.3l0.1,0.6l0.8,0l0.5,0.4l0.8,0.2l0.1,0l0.1,0l1.5,0.9l0,0.3l-0.2,0.3l-0.5,0.4l-0.3,0.1l-0.8,0.3l-0.1,0.4
		l0.1,0.1l0.9,0.2l1-0.3l0.2-0.2l0.8-0.1l0.1,0l0,0l-0.1,0.2l-1.7,0.9l-1.1,0.5l-0.9,0.6l-0.3,0.6l0,0.4l-0.1,0.7l-0.1,0l-0.3-0.2
		l-0.1-0.6l0,0l0.1-0.1l0-0.1l-0.1-0.1l-0.2,0l-0.1,0l-0.2,0.3l0,0.1l0.3,0.8l0.4,0.5l0.1,0.6l-0.1,0.2l-0.3,0.2l-0.1,0l-0.1-0.1
		l-0.2-0.7l-0.1,0l-0.4,0l-0.1,0.2l0.1,0.1l0,0.1l-0.1,0.4l-0.1,0.2l-0.2,0l-1-1.7l0-0.1l0.2-1.5l0.1-0.1l0.1-0.1l0-0.1l-0.3-0.3
		l-0.4,0.2l-0.2,0.2l-0.3,0.4l-0.1,0.5l0,1.1l0.1,0.1l0.1,0.2l0,0.2l0,0.3l-0.1,0.5l-0.2,0.7l-0.3,0.1l-0.9-0.1l-0.1-0.2l0-0.1
		l0.3-0.8l0.1-0.2l-0.2-0.2l-1.5,0l-0.7,1.2l-0.2,0.4l-1.3,0.1l-2,0.2l-1.9,0.3l-1.1,0.2l-0.4,0.1l-0.3,0.3l-0.1,0.1l-0.1,0.5
		l-0.1,0.5l0,0.3l-0.1,0.2l-0.2,0l-0.1-0.1l-0.4-0.9l0-0.3l0-0.1l0.1-0.2l0.3-1.1l-0.4-0.2l-0.2,0l-0.5,0.2l-0.1,0.2l0.4,0.7
		l-0.2,2.2l-0.2,0.4l-0.3,0.3l-0.2,0.2l-0.2,0.4l0,0.2l0.2,0.4l0,0.6l-0.3,0.4l-0.2,0.2l-0.9,0.9l-1.1,0.4l-0.5,0l-0.1,0l-0.1-0.7
		l0-0.1l0.1-0.2l0.2-0.1l0.7,0l0.1,0.1l0.4,0l0.2-0.3l-0.1-0.4l-0.1-0.2l-0.5-0.1l0-0.6l0.2-1.4l0.1-0.3l0.8-1.2l0,0l0.3,0l-0.1-0.2
		l-0.4-0.5l-0.9-0.5l-1.3-0.4l-0.4,0.1l-0.2,0.1l-0.1,0.1l0.1,0.4l0,0.5l-0.2,0.3l-0.2,0.1l-0.2,0l-0.6-0.5l-1,0l-0.2,0.1l-0.4,0.5
		l-0.1,0.1l0,0.1l0,0.1l-0.2,0.9l-1.1,0.9l-0.8,0.5l-1.3,0.3l-0.6-0.1l-0.4-0.2l-0.7-0.5l-0.1,0l-0.1,0.1l-0.1,0.1l-0.1,0.2l0,0.2
		l0.5,1l-0.7,0.6L136,384l-0.3,0.6l0,0.1l0,0.3l-0.1,0.2l-0.3,0.4l-0.3,0.2l-0.3,0.1l-0.2,0l0-0.7l-0.1-0.5l-0.2-1l-0.2-0.3l-0.3,0
		l-0.4,0.4l-0.2,0.2L133,384l-0.5-0.4l-0.4,0l-0.2,0l-0.2,0.1l-0.1,0.2l0,0.2l0.5,0.2l1,0.2l0.1,0.2l0.1,0.3l0,0.2l-0.1,0.4
		l-0.3,0.3l-1.6,0l-0.2-0.1l-0.5-0.5l0-0.4l0.1-0.2l0.2-0.2l0,0l-0.1-0.2l-0.3-0.2l-0.2-0.1l-0.6,0l-0.2,0.1l-0.3,0.2l-0.5,0.8
		l-0.1,0.2l0,0.1l-0.1,0.2l-0.2,0.3l-0.3,0.2l-3.2,1.4l-0.7,0l-0.6-0.2l0.1-0.1l0.1-0.2l0-0.2l-0.4-0.2l-0.3,0l-1.2,0.2l-0.2,0.2
		l-0.4-0.1l-0.3-0.1l0-0.6l0.1-0.1l0.2-0.1l0.2-0.5l0.2-0.5l0.2-0.9l-0.1-0.2l0.1-0.3l1.5-1.6l0.1-0.2l0.2-0.6l0-0.2l-0.1-0.2
		l-0.4-0.3l-0.3-0.1l-0.9-0.2l-0.6,0l-0.9,0.1l-0.2,0.1l-0.2,0.2l-1.5,1.9l0,0.1l-0.2,2.2l0.1,0.2l0,0.2l-0.6,0.7l-1.8,1.9l-0.1,0.1
		l-0.2,0.1l-0.1,0.1l-0.2,0.2l-0.2,0.4l-0.1,0.2l0,0.2l0,0.1l-0.1,0.1l-0.4,0.4l-0.2-0.1l-0.5-0.6l-0.3-0.2l-0.7-0.2l-0.2,0
		l-0.1,0.1l0,0.2l0.4,1.5l0.4,0.4l0.1,0.7l-0.1,0.3l-0.1,0.1l-1.4,0.6l-0.8-0.8l-0.1-0.5l0.2-0.4l-0.1-0.3l-0.2-0.1l-0.5,0l-0.7,0.8
		l-0.1,0.2l0,0.2l0.2,0.5l0.2,0.4l0,0.2l-0.5,0.7l-0.4,0.1l-0.1,0l-0.2-0.1l-0.2-0.1l-0.1-0.2l-0.1-0.2l0-0.1l-0.9-0.1l-0.7,0
		l-0.8-0.5l-0.2-0.4l-0.2-0.6l-0.1-0.4l0-0.3l0.2-0.1l0.7-0.1l0.1,0.1l0.1,0.2l0.1,0.2l0.2,0.2l0.1,0l0.1,0l0.1-0.4l-0.4-0.8
		l-0.5-0.3l-0.1-0.6l0-0.4l0-0.4l0-0.9l0-0.1l-0.8-1.3l-0.6-0.2l-0.3,0.1l-0.2,0.1l-0.3,0.4l-0.4,0.5l-0.2,0.5l-0.1,0.3l0.1,0.2
		l0.2,0.4l0.3,0.1l0.3,0l0.1,0.1l0.3,0.5l0.4,1l-0.1,0.2l0,0l-0.2,0.1l-0.1,0l-0.3,0.7l0.1,1.1l0.3,1l-0.2,1.1l-0.3-0.1l-0.3-0.4
		l-0.4-0.3l-0.6-0.1l-0.3,0.1l-0.1,0.1l-0.1,0.1l0.2,0.2l0,0.1l-0.1,0.2l-1,0.5l-0.9,0l-0.2,0l-0.5-0.3l-0.4-0.4l-0.6-1.4l0.1-0.4
		l0.1-0.1l0.1-0.3l-0.1-0.3l-0.4-1l-0.6-0.7l-0.2-0.2l-0.1,0l-0.5,0l-0.8,0.1l-0.4,0.1l-0.4,0.5l-0.2,0.4l0,0.2l0.1,0.3l0.1,0.1
		l0.3,0.3l0.2,0.1l0.4,0l1,1l0.2,0.3l0.1,0.7l-0.5,0.3l-1.3,0.8l-1,0.8L94,396l-0.8,0.3l-0.3,0.2l0,0.2l0.3,0.7l0.4,0.4l0.4,0.1
		l0.8,0.1l0.1,0l0.5-0.4l0.1,0L96,398l0.4,0.8l0.1,0.7l0.2,0.5l0.3,0l0,0.4l-0.2,0.3l-0.5-0.1l-0.4-0.2l-0.4,0l0-0.1l0.1-0.1
		l0.3-0.2l0.1-0.3l-0.2,0l-0.6-0.2l-0.1,0l-0.2,0.1l-0.1,0.4l-0.1,0l-0.3-0.4l-0.5-0.2l-0.4-0.7l-0.1-0.4l-0.1-0.3l-0.2-0.1l-0.1,0
		l-0.2,0l-0.2,0.1l-0.5,0.4l-0.1,0.1l0.1,0.2L92,399l-0.2,0.7l-0.1,0.2l-0.2,0l-0.5-0.1l-0.2,0l-1.3,0.6l-0.2,0.1l-0.1,0.1l-1.1-0.6
		l-1-0.4l-0.8-0.2l-0.8-0.1l-1.3-0.2l-0.2-0.1l-1.7,0l-1.4,0.3l-0.8,0.2l-0.4,0.2l-1.2,0.8l-0.1,0.1l-0.2,0.7l0,0.3l0,0.1l-0.3,0.3
		l-1,0.6l-0.6,0.2l-0.6,0l-0.3-0.1l-0.9,0.1l-0.3,0l-0.6,0.2l-1.4-0.3l-0.6-0.3l-0.7-0.5l-0.3-0.7l0-0.2l-0.2-1.3l0-0.2l-0.3-0.4
		l-0.1-0.3l0.1-1l0-0.1l0.3-0.4l0.2-0.1l1.3-0.3l1-0.1l0.3-0.1l0.2-0.1l0.3-0.2l1.5-2.1l1-1.5l0.3-0.6l0.1-0.6l0.2-0.3l1-0.6
		l0.8-0.1l0.1,0l0.7,0.6l0.1,0.2l0.1,0.2l0.1,0.1l0.7-0.1l1.3-0.4l0-0.1l0.7-0.4l0.7-0.3l0.1,0.2l0.3,0.1l0.4,0l0.4,0l0.6-0.2
		l0.5-0.3L86,390l0.3-0.3l0.2-0.1l0.1,0l0.2,0.1l0.2,0l0.6-0.1l0.4-0.1l0.2,0l0.4,0.3L90,390l1.1,0.1l0.5,0.1l0.1,0.2l-0.2,0.4
		l0,0.2l0.8,1l0.2,0.3l0.1,0.4l0.1,0.4l0.1,0.9l0,0.2l-0.2,0.2l-0.2,0.6l0,0.1l0.1,0l0.3,0l0.9-0.3l0.2-0.1l0.1-0.5l0-0.1l-0.2-0.4
		l-0.1-0.1l0-0.1l0.1-0.6l0.1-0.1l0.2-0.1l0.1,0l0.1,0.6l0.4,0l0.5,0.3l0-0.4l-0.6-0.6l0-0.5l0.3-1.1l-0.2-0.9l0.1-0.9l0,0l0-0.1
		l0-0.2l0.1-0.1l0.7-0.4l1-0.3l0.6-0.1l0.8-0.1l0.3,0.1l0,0.1l0.1,0.1l0.5,0.1l1,0.2l1.1-0.1l0.3-0.3l0.4-0.6l0-0.5l-0.1-0.1l-0.1,0
		l-0.2,0l-0.2,0.2l-0.2-0.1l-0.1-0.1l0,0l0-0.1l0.2-0.4l0.1-0.1l0.4-0.1l0,0.3l0.4-0.2l0.2-0.5l0.3-0.2l0.5,0l0.2,0.2l0.3,0l0.2-0.2
		l0.2-0.2l0.3-0.2l-0.1-0.4l0.4,0.1l0.3-0.2l0.1-0.3l0.2-0.3l0.1,0.7l0.4,0.2l0.1,0.1l0.3,0.3l0.3,0l0.2-0.1l0.4-0.2l0.2-0.3
		l0.1-0.1l0-0.5l-0.2-0.1l0-0.3l0.2-0.3l0-0.3l-0.1-0.2l-0.5,0.1l-0.4,0.1l-0.1-0.2l0.4-0.3l0.5-0.4l0.7-0.6l1.1-1.1l0.7-0.6
		l1.2-1.2l0.8-0.9l0.7-0.4l0.5-0.2l0.6-0.2l0.8-0.6l0.5-0.5l0.2-0.1l0.8-0.1l1.4-0.7l0.7-0.7l0.7-0.5l0.1-0.1l0.5-0.1l0.9-0.1l1-0.2
		l0.8-0.3l1.9-0.2l1-0.1l1.3-0.3l0.6-0.2l0.9-0.2l0.7,0l0.5,0.1l0.2,0.1l0.8,0.2l0.5-0.3l1.1,0.1l0.5,0.1l0.6,0l0.3,0.1l0.2,0.2
		l-1,0.4l0,0.3l-0.1,0.6l0.6,0.1l0.1,0.2l-0.1,0.5l0.1,0.6l-0.3-0.1l-0.1-0.2l-0.5,0l-1,0.2l-0.1,0.6l-0.3,0.4l0,0.4l0,0.3l0.1,0.2
		l1.5,2.1l0.6-0.4l0.4,0.3l0.8,0.7l0.1,0l0.1-0.2l0-0.2l-0.1-0.1l-0.2-0.2l-0.3-0.1l-0.7-0.7l-0.1-0.2l0-1.8l-0.3-0.4l0-0.3l0.3,0.1
		l0.4,0.4l0.5,0.3l0.8,0.2l1,0l0.2-0.1l0.3,0l0.3,0.1l0.2,0.1l0.2,0.6l-0.1,0.5l0.1,0.8l0.4,0.1l0.7-0.1l0.5,0.5l0.6,0.4l0.2,0
		l0.2-0.2l0-0.2l-0.3-0.5l-0.3-0.3l0-0.1l0.7-0.2l0.7,0.1l-0.2-0.5l-0.4-0.2l-0.7-0.4l-0.7-0.6l-0.5-0.5l-0.9-0.5l-0.6-0.5l0.1-0.5
		l0.1-0.3l0-0.2l0-0.1l-0.1-0.1l-0.2-0.1l-0.4,0.3l-0.2-0.1l0.3-0.5l1.3-1.6l0.1-0.2l0.5-0.9l0.7-1.6l0.3-0.9l0.2-0.5l0.4-0.6
		l0.3-0.3l0.4-0.2l0.6-0.3l0.8-0.6l0.2-0.2l0.2-0.3l0.8-0.6l0.9-0.2l1.2-0.6l0.4-0.2l0.6-0.4l1.7-1.5l0.2-0.1l2.5-0.9l1.4-0.6
		l1.3-0.8l0.8-0.5l0.4,0l0.7-0.4l0.4-0.1l0.2-0.2l1.5-0.8l0.7-0.4l0.2,0l0.8-0.5l0.3-0.2l0.9-0.8l0,0l0,0.2l0.2,0.4l0.3,0.3l0.2,0.2
		l0,0l0.3,0.3l0.2,0.1l0.9,0.4l0.6-0.3l0.9,0l0.3-0.3l0-0.5l0.2-0.4l-0.2-0.3l-0.3-0.8l0.1-0.6l-0.1-0.4l0.4-1.5l0.5-1l0.6-0.8
		l1-1.4l1.2-1.5l1-1.1l1.2-1.2l1.1-0.7l1.1-0.5l0.9-0.2l0.4-0.7l0.1-0.1l0.2,0l0.3-0.2l0.2-0.3l0.6-0.8l0.3-0.5l0.1-0.1l0.7-0.3
		l1.4-1.2l0.2-0.1l0.9-0.3l0.3,0l-0.1,0.1l0,0.5l0.3,0.9l0.4,0.3l0.4,0.1l0.2-0.7l0-0.2l-0.1-1.5l-0.1-0.6l-0.1-0.1l-0.6-0.1
		l-0.4,0.1l-0.1,0l-0.2-0.7l0.2-2l0.5-1.2l0.5-2.3l0.4-2.2l0.3-1.8l0.3-1.3l0.2-0.9l0-0.1l0.4-0.5l0.3-0.3l0.2,0l0.3,0l1.3-0.2
		l0.2-0.3l0.5-0.8l-0.2-0.3l-0.1,0l-0.2,0.1l-0.3,0.4l-0.2,0l-0.2-0.2l-0.9-1l-0.3-0.4l-0.1-0.1l-0.1-0.7l0-0.7l0.4-1.5l0.2-0.6
		l0.6-1.4l0.1-0.2l0.3-0.4l0.1-0.1l0.7-0.5l0.2,0.1l0.3-0.2l0.4-0.4l0.2-0.3l0.5-0.8l0.3-0.4l0.1-0.1l1-0.9l1.4-1.1l0.3-0.1
		l-0.1-0.4l0-0.8l0.2-0.6l0.6-0.9l0.2-0.5l0-0.5l-0.2-0.2l0.1-0.3l0.3-0.2l0.1-0.1l0.2-0.3l-0.1-0.9l0.2-0.5l0.4-0.2l-0.2-0.2
		l-0.3,0l-0.4,0.2l-0.4,0.4l-0.1,0.2l-0.1,0.8l-0.4,0.6l-0.6,0.5l-1,0.4l-0.1,0l-0.2,0.1l-0.3,0.1l-0.2,0l-0.2,0l-1,0.4l-1,0.6
		l-0.7,0.1l-0.6,0.3l-0.1,0.1l-0.1,0.2l-0.1,0.2l-1.9,0.5l-0.3,0.1l-1,0.6l-0.7,0.4l-2.4,0.9l-0.9,0.3l-0.5,0.1l-0.6,0l-0.3-0.1
		l-0.2-0.1l-0.5-0.4l-0.3-0.3l-0.3-0.4l-0.1-0.1l0-0.1l0-0.1l0-0.3l-0.1-0.7l-0.1-0.4l-0.3-0.5l-0.3-0.3l-0.3-0.2l-0.4-0.2l-0.7-0.2
		l-0.3-0.2l-0.1-0.1l-0.2-0.3l0-0.1l0-0.2l0.1-0.6l0.5-0.3l0.7-3.5l-0.5,0l-1.3,2l-1.3,0.8l-0.2,0l-0.2-0.1l-0.3,0.2l-0.4,1.2l0,0.1
		l0,0.1l0.1,0.3l0.1,0.3l0.1,0.1l0,0.2l-0.2,0.4l-0.2,0.3l-0.2,0.1l-0.2,0.1l-0.3,0l-0.2,0.6l0.3,1.7l0.6,2l0.5,1.3l0.2,0.4
		l-1.3,1.7l-0.5,0.2l-0.7,0.1l-0.2,0l-0.6-0.2l-1.3-0.6l-0.2-0.2l-0.2-0.5l-1.1-2.9l-0.6-1.6l-1.2-3l-0.4-0.7l-0.7-0.9l-0.6-0.7
		l-0.4-0.3l-0.3-0.1l-0.3-0.1l-0.8-0.2l0.6-0.9l0.2-0.1l0.1-0.2l-0.1-0.3l-0.1-0.2l-0.1-0.3l-0.3-0.2l-0.2,0l-0.4,0.1l-0.3,0
		l-0.1-0.1l-0.1,0l-0.5,1.8l-0.7-0.2l0.1,0.9l-0.2,0.4l-1.4,0.5l-0.9-1.8l0.2-0.5l-0.8-0.5l-0.6,0.6l-0.7-0.2l0.1-1.2l-1,0.3
		l-0.6-1.2l-0.4-0.3l0.9-0.9l-0.6-1.9l-2.1,0.8l-2.3,1.3l-1.6,1.1l-1.1,1.9l-0.5-1.3l-1.7,0.5l-0.5,0.2l-0.5,0.2l-1.5,0.7l-2.1,0.9
		l-0.1,0.1l-0.5,0.7l-0.1,1l-2,0.5l-0.4,0.5l-1,0.1l-0.8,0.8l-0.9,0.2l0-1.2l-1.2-1.1l-2.5,0.1l-1.2-0.9l2.4-0.7l0.6,0.9l0.8-0.1
		l0.4-1l1.4-1.5l0.3-1.2l-0.1-1.8l0.2-1l0.1-0.7l-0.5-1.7l0.3-0.4l-0.4-0.3l-0.3-0.2l-1-2.2l-0.5-2.6l0-0.4l0.4-0.4l0.7-1.1l0.5-0.3
		l0.2-0.7l1-0.3l0.5-0.7l0.4-0.1l0.4-0.7l0.6,0.1l0.5-0.5l-0.5-1.7l-0.6-1l-0.5-1.4l0-1.2l-0.2-1.1l-1-2.3l-0.7-1.4l-0.1-1l0.2-0.6
		l-0.1-0.2l-0.1-0.3l-0.3-0.1l-0.3-0.5l-0.2-0.5l-0.1-0.5l-0.1-0.9l-0.4-0.4l0-0.4l-0.6-1.1l-0.3-1l-0.9-0.3l-0.6,0.7l-0.2,0.7
		l-0.1,0.9l0.1,0.8l-0.5,1.1l-0.4,0.2l-0.2,0.2l-0.5,0l-0.5,0.1l-0.3-0.1l-0.7-0.5l-0.4,0.1l0,0.3l-0.2,0.2l-0.4,0.4l-0.4,0.2
		l-0.7,0.1l-0.6,0.1l-0.3,0.2l-0.9,0.4l-1.2,0.4l-1.1,0.2l-2.2,0.3l-0.5,0l-2.1,0l-1.3-0.1l-0.5-0.1l-0.8-0.2l-1.9-0.5l-1.7-0.9
		L103,273l-0.2-0.3l-0.2-0.5l-0.3-1.3l0-0.5l0-0.2l0-0.1l0.1-0.1l0.3-0.1l0.2,0l0.4,0.1l0.2-0.2l-0.1-0.5l-0.6-0.9l-1.2-1l-0.4-0.1
		l-0.5-0.6l-0.7-1.6l-0.3-0.9l0.1-0.2l0-0.2l-0.1-0.3l-0.1-0.2l-0.3-0.2l-0.2-0.1l-0.4-0.5l-0.2-0.3l-0.1-0.2l-0.1-0.3l0-0.2l0-0.1
		l-0.4-0.8l-0.4,0.1l-0.6-0.2l-0.8-0.4l-0.5-0.4l-0.7-0.7l-0.4-0.6l-0.5-0.8l-0.6-1.3l0-0.1l0.1-0.2l0.1,0l0.7-0.1l0.2,0l0.4-0.2
		l0.2-0.2l0.6-0.6l0.1-0.5l0-0.2l0-0.1l-0.1-0.1l-0.2-0.1l-0.8-0.2l-1.8,0.8l-0.6-0.1L91,254l-0.1-0.2l-0.2-0.6l-0.1-0.4l0,0
		l0.1-0.1l0.5-0.4l0.2,0l0.2,0.1l0.4,0.2l0.3,0.1l0.3,0l1.3-0.9l0.1-0.1l0.4-0.5l1.2-0.7l0.1,0l0.1,0.1l0.2,0.1l0.5-0.2l0.3-0.3
		l0.1-0.1l0-0.2l-0.1-0.1l-0.4-0.5l-0.1-0.2l-0.1-0.2l0-0.3l0-0.3l0.1-0.1l0.1,0.1l0.1,0.1l0.5,0l0.4-0.2l0.3-0.2l-0.1-0.4l-0.9,0
		l-0.1,0l0-0.3l0-0.3l0.5-0.8l0.9-1l0.1-0.1l0.2,0l0.1-0.1l0.2-0.3l-0.2-0.1l-0.2,0l-0.3-0.1l-0.2,0.3l-0.4,0.2l-0.4,0.4l-1-0.6
		l-0.1,0l-0.4-0.5l-0.1-0.9l0-0.1l0.1-0.1l0.8-0.6l0.2-0.1l0.2,0l0,0l0.1,0.1l0.7,0.2l0.3,0l0.5-0.2l0.2-0.1l0.1-0.4l0.1-0.5
		l-0.5-0.2l-0.3,0.5l-0.5-0.3l-0.6-0.6l-0.4-1l-0.1-0.2l0-0.1l0.2-0.2l0-0.1l0-0.2l0-0.1l-0.3-0.2l-0.5-0.1l-0.4-0.8l-0.2,0
		l-0.3,0.3l-0.7,1.3l-0.2,0.6l-0.2,0.1L93,240l-0.5-0.2l-1.1-0.4l-0.3-0.5l-0.2-1.4l0.2-0.6l0-0.7l0.1-0.4l0.2-0.5l0.1-0.2l0-0.2
		l-0.1-0.2l-0.3-0.3l-1.4-0.7l-0.3,0l-0.1,0.1l-0.2-0.1l-0.3-0.4l-0.2-0.4l-0.2-1.4l0-0.4l0-0.2l0.1-0.2l1-0.3l0.5-0.1l0.1,0
		l0.3-0.1l0.3-0.4l0.1-0.3l0-0.2l-0.5-0.9l-0.6-0.3l-0.4-0.6l-0.6-0.1l-0.2,0.1l-0.1,0.1l-0.2,0.1l-0.4,0l-0.5,0l-0.2,0.2l0,0.5
		l0,0.2l-0.4-0.1l-0.2-0.3l-0.1-0.3l0-0.7l0-0.2l0-0.6l0-0.2l0-0.2l0.8-2.6l0.1-0.3l0.2-0.2l0.1,0l0,0.1l-0.1,0.3l-0.3,1l-0.2,0.7
		l0,0.2l0.1,0l0.9,0l0.3,0l0.2-0.1l0.6-0.1l0.8-0.1l1,0l0.2,0l0.1-0.4l-0.5-0.1l-0.8-0.6l-0.6-0.5l-0.1-0.2l-0.6-1.9l0-0.1l0-0.2
		l0.1,0l1.6-0.1l0.9,0.4l1.3,0.3l0.1,0l0.1-0.1l0-0.2l0.1-0.1l0.4,0l0.6,0.1l0.2-0.3l-0.4-0.9l-0.1-0.6l-0.2-1.2l0-1l0.2-0.9
		l0.3-0.8l0.6-0.7l0.5-0.7l0.7-0.7l1.7-1.7l1.8-1.7l0.5-0.4l0.4-0.4l0.3-0.6l0.4-0.5l1-0.9l1.4-1.1l0.5-1.4l0.3-0.3l0.6-0.9l0.1,0
		l0.9-0.5l0.7,0.2l0.4-0.4l0-2.5l0.1-0.3l0.1-0.2l0.4-0.8l0.2-0.3l0.5-1.2l0.5-1l0.2-0.3l0.8-1.1l0.4-0.3l1.3-0.7l0.1-0.3l-0.3-0.2
		l-0.3,0.1l0-0.1l0-0.1l0.1-0.3l0.1-0.1l1.9-1.7l0.9-0.7l0.7-0.2l1.8-0.3l0.8-0.1l0.8,0.1l0.3,0.1l0.7,0.4l0.6,0.5l0.2,0.3l1,0.3
		l0.4,0.1l0.2,0.1l0.1,0.1l0,0.1l0.1,0.5l0.5,0.8l0.3,0.5l0.3-0.1l0.6,0.4l0.1,0.3l0.1,0.3l0.3,0.4l0.4,0.3l0.2,0.2l0.5,0.8l0.5,0.5
		l2.1,0.1l0.9-0.1l0.2-0.1l0.6-0.6l1-0.6l0.2-0.1l0.7-0.6l0.1-0.1l0.1-0.1l0-0.6l0-0.1l0.1-0.1l0.2-0.2l0.6-0.2l0.1,0l0.1,0.1l0.3,0
		l0.4-0.1l0.3-0.2l0.9-0.9l0.3-0.3l1.8-2l0.1-0.1l0.1-0.3l0-0.2l0.1-0.2l0.5-0.6l0.4-0.4l0.6-0.4l0.4-0.3l0-0.1l0-0.1l-0.1-0.8
		l-0.1-0.3l0.1-0.1l0.5,0l0.6,0.4l0.4,0.4l0.3,0.2l0.2,0l0.4,0l0.3,0.6l-0.1,0.3l-0.1,0.1l0,0.1l0.1,0.3l0.1,0.3l1,0.2l1,0.1l0.8,0
		l0.7-0.2l0.3,0l0.9,0.4l0.1,0.2l0.3,0l1.1,0l1.6-0.1l1.4-0.3l0.6-0.3l0-0.1l0.2-0.6l0.2-0.3l0.8-0.7l1.4-1.4l0.3-0.3l1.3-1.7
		l0.3-0.5l0.3-0.5l0.1-0.5l0.1-1l-0.1-0.9l-0.1-0.9l-0.3-1.3l-0.2-0.6l-0.1-0.2l-0.2-1.6l-0.1-1l0.1-1.2l0.2-1.3l0-0.1l0.1-0.1
		l-0.2-0.8l-2.2-3.6l-0.3-0.7l-0.5-0.1l-0.9-0.7l-0.6,0l-0.1,0l-0.3,0.2l-0.1-0.4l0.5-1.5l0.2-0.5l0.9-0.5l0.2,0l0.1,0.2l0.1,0.2
		l0.3,0.2l0.9,0.5l0.4,0.1l0.4,0.1l0.8,0.1l0.6-0.1l0.1,0l0-0.1l0-0.2l-0.2-0.2l-0.1-0.1L155,164l0-0.1l0-0.1l0-0.1l0.6,0.1l0.2,0
		l0.3-0.1l1.6-1.3l0.1-0.2l0-0.1l0.3-1.4l0.1-0.9l-0.7-1.7l-0.6-1l-0.5-0.4l-0.9-1l-0.2-0.3l-0.3-0.5l-0.1-0.4l0-0.1l0.1-0.1
		l-0.3-0.2l-0.2,0.1l0,0.1l-0.1,0.3l0,0.2l0,0.1l-0.2,0.3l-0.6,0.5l-0.3,0.2l-0.4,0.5l-0.4,0.5l-0.1,0.3l0,0.3l0,0.1l-0.1,0.1
		l-0.4,0.2l-0.2,0.1l-0.9,0l-0.8-0.4l-0.3-0.2l-0.1-0.1l-0.2-0.3l-2.5,1.6l-0.3,0.1l-0.4,0.1l-1.7,0l-0.5,0.1l-0.3,0.1l-0.2,0.2
		l-0.4,0.4l-0.1,0.3l-0.2,0.6l-0.4,0.2l-0.2,0l-0.6,0.2l-2.3,1.2l-0.2,0.2l-0.8,1.1l0,0.1l0.1,0.3l0,0.2l-0.5,1.5l-0.2,0.1l-0.3,0.1
		l-0.6,0.3l-0.6,0.6l-0.3,0.2l0-0.1l-0.1-0.2l0-0.4l0.1-0.3l0.1-0.2l0.1-0.5l0-0.3l-0.2-0.8l-0.1-1l0.1-0.6l-0.7-1.2l-0.3-0.2
		l-0.7,0l-0.1,0l0-0.2l0.3-0.2l0-0.2l-0.3-0.5l-0.8-0.6l-0.2-0.8l-0.5,0.1l-1.2,0.9l0,0.4l0.5,0.6l0.8,0.3l0.5,0.9l0.9-0.1l-0.1,1
		l-0.8,0.9l-0.3,0.7l-0.1,0.1l-0.4,0.1l-0.2-0.1l-0.4-0.8l-0.1-0.7l0-0.3l-0.9-1.1l-0.6-0.6l-0.4-0.3l-1.4-1L128,159l-1.8-0.5
		l-0.5,0l-0.2,0.2l-0.9,0.2l-0.2,0l-0.5-0.3l-0.3-0.1l-0.8-0.2l-1.2-0.2l-0.5,0l-1.3,0.2l-0.8,0.2l-0.7,0.2l-3,1.1l-0.3,0.1l-0.4,0
		l-1.4-0.1l-0.1,0l-1.9-1.3l-1.9-1.1l-1.4-0.6l-2-1l-0.7-0.2l-1-0.4l-2.6-1.2l-0.4-0.3l-1.3-1.7l-0.2-0.4l-0.2-1.1l-0.1-0.7l0-0.4
		l0.3-1.3l0.1-0.3l0.6-0.2l0.2-0.2l0.1-0.2l0.1-0.1l0.1-0.4l0-0.2l0-0.3l-0.1-0.3l-0.7-1.5l-0.5-0.6l-0.2-0.3l-0.2-0.1l-0.5-0.5
		l-0.1-0.3l0-0.1l0.1-0.1L99,142l0-0.3l0-0.2l-0.3-0.5l-0.8-0.8l-0.3-0.4l-0.2-0.4l-0.2-0.5l0.1-0.2l0,0l0.1,0l0.1,0l0.1,0.1
		l0.3,0.3l0.1,0.2l0.1,0.1l0.6,0.3l0.9,0.2l0.3,0l0.1-0.3l0.3-0.2l0.9-0.1l0.1-0.1l0.4-0.3l0.2-0.2l0.1-0.1l0-0.2l0-0.1l0-0.6l0-0.2
		l0.3-0.2l0.8-0.3l0.5-0.5l-0.1-0.3l-0.1-0.3l-0.5-0.6l-0.4-0.4l-0.3-0.2l-0.3-0.1l-0.2,0l-0.3,0l-0.3,0.2l-0.3-0.1l-0.2-0.1
		l-1.1-0.5l-0.5-0.4l-0.4-0.4l-1.2-0.8l-0.7-0.3l-0.7-0.2l-2.2-0.8l-0.7-0.5l-0.8-1l-0.3-0.6l0-0.1l-0.7-1l-1.1-1.1l0-0.2l-0.5-0.4
		l-0.5-0.3l-0.3-0.1l-0.4-0.4l-0.2-0.2l-0.1-0.4l0-0.2l0,0l0-0.3l-0.2-0.4l0-0.4L88.2,123.3z M80.8,118.9l0.1-0.1l0.1-0.1l0.2,0
		l0.1,0.1l-0.1,0.6l-0.1,0.1l-0.1,0l-0.3-0.1l-0.1-0.1l-0.1-0.2L80.8,118.9L80.8,118.9z M3.6,425.6l0.3-0.1l0.7,0.1l0.3,0l0.2-0.1
		l0-0.8l0.3-0.4l0.9,0.2l0.7-0.6l0-0.7l0.2-0.4l1.2-0.4l0.4-0.5l0.1-0.2l-0.1-0.3l-0.1-0.1L8.6,421l-0.1-0.2l0-0.3l0.2-0.5l0.2-0.3
		l0.1-0.1l0.5-0.4l2.5-1.3l0.3-0.2l0.7,0.7l0.2,0l0.4,0l0.2-0.1l0.7,0.1l0.4,0.3l0.6,0.3l0.1,0l0.3-0.2l-0.1-1.2l0-0.2l-0.1-0.1
		l-0.6-0.3l-0.1-0.4l0.5-0.2l0.5-0.9l-0.2-0.6l0.4-0.4l0.9-0.9l0.4,0l0.3-0.1l1-0.5l0-0.1l0.6-0.2l0.8-0.1l2.1,0l0.3,0.2l0.2,0.2
		l0,0l-0.1,0.2l0,0.1l0.3,0.4l0.5,0.3l0.2,0.1l1,0.3l0.3,0l0.1,0l0,0l0,0.1l0,0.3l-0.1,0.2l-0.4,0.4l-0.6,0.4l-0.2,0.2l-0.1,0.2
		l0,0.2l0,0.2l0.1,0.1l0,0.2l-0.1,0.4l-0.1,0.2l-0.2,0.2l-0.3,0.2l-0.1,0l-1.3,0.3l-0.5,0.2l-0.4,0.2l-0.5,0.2l-1.9,0.5l-0.8,0.1
		l-0.2,0l-0.7,0.1l-0.4,0.3L16,420l-0.6,0.6l-0.2,0.7l-0.5,0.5l-0.3,0.1l-0.4,0.2l-0.4,0.3l-0.2,0.2l-0.2,0.2l-0.2,0.4l-0.7,0.3
		l-0.5,0.1l-0.3-0.1l-0.1-0.1l-0.4,0l-0.1,0l-0.5,0.3l-0.2,0.2l-1.1,0.5l-0.8,0.2l-0.4,1l-0.5,0L7.4,425l-1.6,0.6l-2.2,0.6l-1,0.1
		L3.6,425.6z M0,426.9l0.9-0.4l0.8-0.2l0.1,0.4l-0.4,0.5L1,427.4l-1,0L0,426.9z M-5.9,420.2l0.5-1l0.1,0l0.7-0.1l0.3,0l0.2,0.3
		l0,0.1l-0.2,0.6l-0.7,0.8l-0.4,0.2l-0.3-0.2l-0.2-0.4l0-0.1L-5.9,420.2z M15.1,334.1l0.4,0l1,0.5l0.9,0.3l0.8,0.2l0.3,0l0.3,0.1
		l0.4,0.3l0,0.1l-0.3,0.3l-1.3,0.7l-0.2,0l-0.7-0.3l-0.1-0.1l-0.1-0.1l-0.1-0.2l0-0.2l0.1-0.1l0-0.3l-0.1-0.1l-0.9-0.5l-0.3-0.6
		L15.1,334.1z M-5.5,417.8l0.2,0l0.2,0.5l-0.2,0.4l-0.3-0.1l-0.4-0.4L-5.5,417.8z M-10.1,422.3l0.3-0.2l0.2,0l0.5,0.1l0.5,0.3
		l0.7,0.1l0-0.4l0.3-0.1l0.5,0.2l0.7-0.2l0.3,0.1l0.6,0.3l0.4,0.7l-0.5,0.8l-0.5,0.7l-0.1,0.4l-0.4,0l-0.2-0.5l-1.1-1l-0.6-0.1
		l-0.1,0.2l-0.2,0.1l-0.5,0.1l-0.4,0l-0.2-0.1l-0.4-0.5l-0.1-0.7L-10.1,422.3z M-11.3,420.6l0.4-0.3l0.1-0.1l0.5,0.1l0.3,0.3
		l0.2,0.2l0,0.2l-0.1,0.3l-0.1,0.2l-0.1,0.1l-0.2,0.2l-0.6,0.2l-0.6-0.5l-0.1-0.5L-11.3,420.6z M-13.4,424.5l0.6-1.4l0.6,0.1
		l0.9,0.6l0.1,0.1l-0.1,0.2l-0.1,0.3l-0.3,0.4l-0.1,0.1l-0.5,0l-0.8-0.3L-13.4,424.5L-13.4,424.5z M10.3,318.8l0.2-0.5l0,0l0.3-0.2
		l0.2-0.1l0.8-0.1l0.3,0l0.2,0.2l0.3,0.1l0.4,0l1.1-0.1l0.1,0.2l-0.5,0.9l-1.8,0.8l0-0.4l-0.1-0.3l-0.3-0.1l-0.5-0.1l-0.8-0.3
		L10.3,318.8z M-23.4,424.8l0.4-0.7l0.1-0.1l1.5-0.7l0.9-0.2l0.5,0.2l0.7,0.6l0.2,0.2l0,0.2l-0.1,0.4l-0.2,0.2l-0.8,0.7l-0.5,0
		l-0.3-0.1l-0.1-0.1l0-0.1l-0.1-0.1l-0.1,0l-0.2,0l-0.7,0.2l-0.6,0.4l-0.2,0.2l-0.2,0.1l-0.7-0.6L-23.4,424.8z M-28,423.8l0.3,0.1
		l0.1,0.2l-0.1,0.4l-0.5,0l-0.3-0.3L-28,423.8z M-30.8,425.3l0.1-0.2l0.3-0.2l0.3-0.1l0.4-0.1l0.6,0.9l0,0.1l-0.4,0.6l-0.1,0.1
		l-0.4,0.2l-0.2,0l-0.6-0.2l-0.1,0l-0.1,0l0-0.6L-30.8,425.3z M36.9,163.1l0.3-0.7l0.7-0.8l0.5-0.4l0.2-0.3l0.1-0.2l0.1-0.9l0.1-0.4
		l0.1,0.1l0.1-0.1l0.1-0.1l0.1-0.2l0-0.2l0-0.4l0.1-0.6l0.1,0L40,158l0.1,0l0.1-0.1l0.1,0l0,0.1l0,0.3l0.1,0.2l0,0.3l-0.1,0.2
		l-0.1,0.1l-0.2,0.1l0,0.1l0,0.1l0,0.1l-0.2,0.5l0,0.1l0,0.2l0,0.1l0.2,0.3l0.8,0.8l1.3,1.1l1.7,1.1l0.9,0.7l0.6,0.4l0.9,0.5
		l0.5,0.1l0.1,0l0.5-0.2l0.6-0.3l1.5-0.6l1.1-0.3l1.4-0.2l0.2,0l0.1,0l0.2,0.2l0.7,0.3l0.2,0l0.1-0.1l0.1,0l0.3,0.1l0.3,0.3l0.1,0.3
		l0,0.2l0.6,1.2l0.2,0.2l0.1,0.1l0.3,0.1l0.2,0.1l0,0.6l0,1.6l-0.3,0.8l0.2,0.3l0.2,0.2l0.3,0.2l0.6,0.5l0.4,0.5l1.1,0.5l0.9,0.3
		l0.1,0.1l0.5,0.8l0.1,0.4l0,0.1l0.1,0.2l0.1,0.1l0.2,0.2L61,175l0.3,0.1l0.7,0.3l0.3,0.2l0.1,0.1l1.7,0.6l0.2,0l0.4,0l0.5,0.2
		l0.6,0.3l0,0.1l0,0l1.3,0.9l1.1,0.4l0,0.2l0,0.1l-0.5,0.8l-0.6,0.8l-0.5,0.7l-0.1,0.1l-0.4,0.3l-0.5,0.3l-0.1,0l-0.2-0.1l-0.6-0.5
		l-0.1-0.2l-0.2-0.1l-0.6-0.3l-0.7-0.2l-1-0.2l-0.7,0l-0.5,0l-0.9,0.1l-0.3,0.3l-0.6,0.4l-0.5,0.3l-0.5,0.2l-0.3,0.2l-0.4,0.4
		l-0.3,0.4l-0.1,0.2l0,0.1l-0.2,1.1l-1,0.7l-1-0.8l-0.1-0.1l0-0.1l0.3-0.2l0-0.1l-0.1-1.7l-0.2-1l-0.1-0.2l-0.3-0.6l-0.5-0.8
		l-0.4-0.4l-0.2-0.1l-0.1-0.2l-0.2-0.4l0-0.1l0,0l-0.4-0.4l-0.2-0.2l-0.3-0.2l-0.2,0l-0.2,0.1l0,0.1l-0.1,0l-0.7-0.2l-0.1-0.2l0-0.2
		l0.1,0l0-0.1l0.1-0.2l-0.1-0.8l-0.2-0.8l-0.2-0.5L50,173l-0.7-0.9l-0.4-0.5l-1.4-1.2l-1.4-1.1l-0.6-0.3l-0.4-0.2l-1-0.3l-0.4-0.1
		l-2,0.4l-0.1,0.1l-0.1,0.1l0,0l0,0.2l-0.1,0.2l-0.6,0.3l-1.2,0.3l-0.3-0.1l-0.8-1l-0.9-0.8l-0.7-0.5l-0.3-1.2l-0.1-0.6l0-0.2
		l0.1-1.2L36.9,163.1z M-50.7,424l1-0.9l0.1-0.1l1.6-0.4l0.4-0.1l0.6,0.2l1,0.9l0.1,0.3l0,0.4l-0.1,0.3l-0.2,0.2l-1.7,0.6l-1.8,0
		l-1.2-0.3l-0.1-0.1l-0.2-0.3L-50.7,424z M1.3,230.5l0.3-0.2l0-0.3l0.1-0.4l0.2-0.5l0.6-0.2l0.7-0.5l0.4,0.2l-0.2,0.5l-0.2,0.3
		l-0.1,0.3l0.1,0.6l0,0.6l0.3,0.7l0.2,0.3l0.4,0.9l0.5,0.6l0.7,0.8l0.4,0.5l0.8,0.6l0.8,0.2l0.3-0.1l0.4,0.4l0,0.2l0.3,0.6l0.5,0.7
		l0.3,0.5l0.3,0.3l-0.2,0L9,238.3l-0.5-0.1l-0.1-0.4l-0.1-0.4L7.8,237l-0.7-0.2l-0.7-0.2l-0.9,0.1l-0.3-0.1L5,236.1l-0.7-0.8
		l-0.2-0.1l-0.2-0.7l-0.5-0.9l-0.6-1.1l-0.1-0.1l-0.1-0.4l0-0.2l-0.3-0.2l-0.4-0.3l-0.4-0.3l-0.2-0.1L1.3,230.5z M2.4,225.8l0.2-0.1
		l0.1,0.3l-0.3,1l0,0.6l-0.1,0.2l-0.5-1.1L2.4,225.8z M-72,421.1l0.2,0l0.7,0.4l0.9,0.2l0.8-0.1l-0.4,0.4l0.7,0.6l0.1,0.1l0.1,0
		l0.2,0.1l0.6-0.4l0.7,0.3l1.1,0l0.5,0l0.3,0.1l0.1,0.3l0.5,0.2l0.5-0.2l0.2,0.2l-0.5,0.5l0.2,0.6l0.2,0.2l0.5-0.2l1.3,0.6l0,0
		l0,0.1l0.2,0.2l1.3,0.1l0.4,0.4l1,0.1l0.7,0.2l0.1,0.1l0.1,0.2l0.6,0.3l0.7,0.2l0.8,0.4l-0.1,0.1l-1.1-0.1l-0.2,0l-0.8-0.4
		l-0.8,0.2l-0.7-0.3l-1.6-0.4l-1.3,0.3l-0.3-0.5l-0.9,0.1l-0.5-0.1l-0.5-0.3l-0.8-0.8l-1.4-0.6l-1.3-0.4l-0.3,0l-0.1,0.1l-0.2,0
		l-0.9-0.5l-0.5-0.4l0.1-0.2l-0.3-1l-0.3-0.1l-0.2,0l-0.1-0.1l-0.2-0.4l-0.1-0.3L-72,421.1L-72,421.1z M-90.8,417.1l2,0.1l0.6,0.1
		l0.4,0.1l0.2,0.2l0,0l0,0.2l0.2,0.4l0.8-0.3l0.3-0.4l0.5,0.1l0,0.5l0.2,0l0.4-0.4l0.6,0l0-0.3l0.2-0.1l0.3-0.1l0.3,0.5l0.5,0.2
		l0,0.3l0.7,0.3l0.6,0.1l0-0.5l0.6,0l0.2,0.6l0.5,0.1l0.8-0.1l0.2-0.4l0.4,0.2l0.3-0.3l0.1-0.1l0-0.4l0.2-0.1l0.3,0.3l0.5,0l0.5,0.1
		l0.1,0.1l0.4,0.3l0.1,0l0.2-0.2l0-0.1l-0.6-0.7l0-0.3l0.2-0.1l0.8,0.3l0.5,0.3l0.4,0.2l0.4,0.1l0.9-0.4l0.1-0.7l-0.6-0.3l-0.3-0.2
		l-0.3-0.1l-0.1,0.1l-0.3-0.1l-0.5-0.4l-0.5-0.6l0-0.2l0.1-0.1l0.2-0.1l0.2,0l0.6,0.4l0.2,0.2l0.1,0l0.3-0.1l0.2-0.1l0.3-0.3l0-0.3
		l-0.1-0.3l0.1-0.2l0.1-0.1l2.2-0.2l0.4,0.2l1,1l0.4,1.2l0.2,0.7l0,0.2l-0.2,0.4l0,0.1l-1,0.9l-0.5,0.3l-0.3-0.1l-0.3-0.2l-1-0.5
		l-0.1,0l-0.3,0.2l-0.1,0.2l-0.1,0.4l0.1,0.2l0.2,0.3l0.5,0.5l0.4,0.9l0.1,0.2l0,0.1l-0.3,0.4l-0.1,0l-0.1,0l0-0.2l0-0.1l-0.3-0.3
		l-0.5,0.2l-0.5-0.3l-0.3,0.2l-0.1,0.3l-0.9-0.2l-0.2-0.6l-0.4-0.2l-0.2,0.1l-0.3,0.2l-0.4,0.3l-0.8,1.1l-0.4-0.7l-0.7-0.4l-0.1,0.1
		l-0.8,0l-0.3-0.2l-0.1-0.2l-0.4,0.2l-1.6,0l-0.3-0.1l-0.5-0.8l-1.4-0.8l-1.2-0.3l-0.5,0l-0.3,0.1l-0.1,0.3l-1.2-0.3l-0.1-0.1
		l-0.7-0.4l-0.8-0.2l-0.8-0.6l-0.3-0.1l-0.1,0l-0.1,0.1l-0.3,0l-0.2-0.4L-90.8,417.1z M-93.7,417.1l0.5,0l0.5,0l0.3,0.3l-0.1,0.4
		l-0.6-0.1l-0.6-0.2L-93.7,417.1z M-92.6,412.4l0.4-0.1l0.2,0.4l0.1,0.4l-0.3,0.2l-0.3-0.2l-0.1-0.4L-92.6,412.4z M-97.1,416.3
		l0.3-0.1l0.7,0.3l0.7,0.3l0.5,0.2l0,0.2l-0.1,0.3l-0.3-0.1l-0.6-0.4l-0.7-0.1l-0.5,0.1l-0.2-0.5L-97.1,416.3z M-99.9,414.8l0.7-0.1
		l1.4,0.5l0.1,0.1l-0.1,0.8l0,0.5l0.2,0.5l-0.1,0.2l-0.7-0.4l-0.5-0.8l0-0.5l-0.9-0.6L-99.9,414.8z M-102.6,411.3l0.4-0.4l0.6-0.2
		l0.7,0.5l0.5,0.2l0.1,0.6l0.3,0.4l-0.2,0.5l0.4,0.5l-0.2,0.3l-0.3-0.1l-0.3,0.1l-0.4,0.1l0,0.4l0.1,0.4l0.2,0.7l-0.2,0.3l-0.4,0.1
		l-0.2,0l-0.9-0.3l-0.8-0.8l0.5-1l-0.4-0.2l0.1-0.6l0-1L-102.6,411.3z M-105.1,416.8l0.6-1l0.2-0.1l0.4,0.2l0,0.1l0,0.1l0,0.2
		l0.2,0.3l0.6,0.3l0.3,0l0.2-0.2l0-0.1l0-0.1l-0.4-0.5l0.1,0l0.7-0.1l0.7,0.1l0.4,0.1l0.1,0.1l0,0.5l0.2,0l0,0.3l-0.1,0.3l-0.3,0.5
		l-0.2-0.2l-0.9-0.2l0.3,0.5l0,0.8l-0.3-0.2l-0.3-0.4l-0.6-0.5l-0.2,0.8l-0.3-0.4l-0.2-0.1l-0.2,0.4l-0.4,0.2l-0.2-0.6l0.2-0.4
		l-0.4-0.3L-105.1,416.8L-105.1,416.8z M-117.2,417.2l0.3-0.6l0.2-0.2l0.5-0.3l0.4-0.1l0.3,0.1l0.2,0l0.5-0.4l0.1-0.1l0-0.1l0.1-0.8
		l-0.3-0.2l-0.1-0.4l0.1-0.2l0.2-0.2l0.1-0.1l0.7,0.1l0.9,0.4l0.8-1l-0.2-1.1l0-0.5l0.5-0.6l0.3-0.1l0.6,0.1l0.2,0.1l0.3,0.2
		l0.5,0.5l0.5-0.3l0.1-0.2l0.5-0.3l0.2-0.1l0.1,0l0.2,0.3l0,0.2l-0.4,1.5l-0.3,0.3l-0.1,0l-0.1-0.2l-0.8,0l-0.1,0.1l-0.1,0.3
		l-0.2,0.5l0.5,0.7l0.4,0.3l0.4,0.1l0.2-0.1l1.7,0.1l1.2,0.4l0.3,0.1l0,0.1l0,0.2l-0.1,1.1l-0.3,0.7l-0.2,0.3l-0.5,0.6l-0.8-0.1
		l-1.1-0.6l-0.7,0.1l0.1-0.5l-0.6,0.2l-0.4,0.5l-1-0.1l-1,0.5l-0.3-0.2l0-0.5l-0.4-0.4l-0.2,0l-0.5,0.4l0.1,0.4l-0.1,0.6l-0.4-0.5
		l-0.9,0.2l-0.1-0.1l-0.1-0.5l0-0.2l0.3-0.4l-0.1-0.6l-0.3-0.2l-0.9,0.9l-0.7,0.8l-0.1,0l-0.2-0.1l-0.3-0.4l0-0.1L-117.2,417.2z
		 M-121.5,408.1l0.4-0.2l0.3,0.3l-0.1,0.5l-0.3,0.1l-0.4-0.1l-0.2-0.4L-121.5,408.1z M-126.5,411.3l0.2-0.1l1-0.2l0.5,0.5l0.5,0.4
		l0.3,0.1l0.3,0l0.4-0.2l0.6-0.1l2.8,0.3l0.7-0.1l0.5-0.2l0.2-0.2l0.3-0.5l0.3-0.9l0.3-0.9l0.1-0.1l0.1-0.1l0.2-0.1l0.4,0.1l0.7,0.5
		l0.4,0.9l0.1,0.3l-0.8,0.8l-0.7,0.1l-0.2,0.1l-0.3,0.4l-0.3,1.2l0,0.6l-0.1,0.2l-0.5,0.4l-1.8-0.1l-0.2-0.1l-0.3-0.2l-0.2-0.3
		l0-0.1l0-0.1l0.1-0.1l0-0.3l-0.2-0.3l-0.2-0.2l-0.4-0.3l-0.4-0.1l-0.4,0l-0.4,0.2l-0.4,0l-0.8-0.1l-0.4-0.2l-0.5-0.4l-0.1,0
		l-0.3,0.1l-0.3,0.5l0,0.3l-0.3,0l-0.2-0.3L-126.5,411.3L-126.5,411.3z M-132.2,404.4L-132.2,404.4l0.6-0.4l0.4,0l0.5,0l0.3,0.1
		l0.5,0.2l0.3,0.2l0.1,0.2l0.8,0.4l0.6,0l0.1,0.1l0.2,1l-0.3,0.4l0,0.1l0.6,0.4l0,0.6l0.1,0.1l0.9,0l0.4,0.4l0.3,0.3l0.7-0.2
		l1.1,0.2l0,0.1l-0.3,0.3l-0.5,0.2l-0.6,0l-0.1-0.1l-0.7-0.1l-1,0l-0.2,0.3l0,0.2l-0.4,0.3l-0.6,0.3l-0.1,0.2l0,0.1l0.1,0.2l0,0.1
		l-0.3,0.3l-0.3,0.1l-0.2,0l-0.1-0.1l-0.1-0.2l-0.1-0.1l-0.1,0l-0.4,0.3l-0.3,0.4l0,0.1l0,0.2l0,0.3l0,0.6l-0.1,0.2l-0.1,0l-0.3-0.2
		l-0.1-0.3l0-0.2l0.1-0.4l0-0.2l-0.1-0.1l-0.9,0.2l-0.4-1.3l-0.3,0.1l-0.3-0.3l-0.1-0.2l0.4-0.5l1.2,0.4l0.9,0.1l0.1,0l0.3-0.3
		l0.1-0.3l0.1-0.3l0-0.2l-0.1-0.2l-0.4-0.3l-0.6-0.2l-0.2-0.3l-0.2-0.4l0-0.2l-0.9-1.2l-0.4-0.6l-0.1-0.2l0-0.2L-132.2,404.4z
		 M-140.8,407.8l0.6,0.2l0.3,0.2l0.2,0.3l0.3,0.1l0.1,0.2l-0.3,0.3l-0.2-0.1l-0.4-0.3l-0.3-0.1l-0.4-0.3l0-0.4L-140.8,407.8z
		 M-143.5,407.5l0.4,0.2l0.8,0.7l0.3,0.4l-0.1,0.2l-0.9-0.3l-0.4-0.3L-143.5,407.5L-143.5,407.5z M-141.8,402.5l0.4-0.5l0.5-0.2
		l0.2,0l0.1,0.1l0.3,0.3l0.2,0.3l0.2,0.4l0,0.7l-0.5,0.5l-0.4,0l-0.2,0l-0.2-0.1l-0.1-0.1l-0.5-1.1L-141.8,402.5z M-147,411.1
		l0.3-0.3l0.2,0l0.4,0.6l0,0.5l-0.1,0.6l-0.6-0.2l-0.1,0.1l-0.2,0.2l-0.3,0.1l-0.1,0l0,0L-147,411.1z M-149.8,412.3l0.5-0.2l0.3,0.1
		l0.1,0.5l-0.1,0.5l-0.1,0.2l-0.6,0.4l-0.5,0l0-0.3l0.3-1.1L-149.8,412.3z"/>
</g>
</svg>
