<?xml version="1.0"?>
<svg xmlns="http://www.w3.org/2000/svg" version="1.2" baseProfile="tiny" width="800" height="1260" viewBox="0 0 800 1260" stroke-linecap="round" stroke-linejoin="round">
<g id="cb_2018_us_state_5m">
<path d="M 92.9023 1181.5399 94.5252 1180.7515 97.2046 1181.8572 97.168 1185.3534 96.8651 1188.578 90.718 1184.4736 92.9023 1181.5399 Z M 41.7525 1223.8867 43.1607 1219.0573 45.5691 1220.4362 46.0413 1225.8297 45.9745 1231.2171 43.7942 1233.0743 40.337 1229.2556 41.7525 1223.8867 Z M 26.9464 1254.8828 32.9557 1254.2743 36.5359 1254.0928 42.6717 1252.5612 50.8838 1251.0552 61.7512 1249.3497 66.0201 1249.4031 69.4893 1248.7541 72.467 1248.3613 73.8422 1245.3795 73.8866 1242.7274 82.4076 1249.0739 85.0916 1251.9274 84.8556 1252.7074 84.1873 1252.9885 80.9696 1254.0815 77.648 1258.1546 69.1939 1254.4009 64.2386 1253.763 54.8778 1254.7973 38.559 1258.3879 32.6702 1258.538 28.2906 1258.0157 26.9464 1254.8828 Z M 72.586 4.2633 72.4309 3.6992 72.207 1.6874 72.0071 1 115.6844 2.0675 118.9384 2.1181 121.3969 2.1561 131.4113 2.3079 141.9616 2.463 142.0106 2.4519 143.1122 2.4472 147.2238 2.4946 147.2491 2.4857 147.5776 2.4678 164.4335 2.8085 165.7215 2.8626 167.597 2.8978 178.2313 3.1506 179.7747 3.201 180.1576 3.1928 180.9559 3.235 186.4303 3.3612 187.9981 3.377 196.4168 3.3858 200.4745 3.439 236.8843 3.884 238.706 3.9047 240.2281 3.9436 241.1202 3.951 246.7367 4.0583 248.9419 4.1368 253.6335 4.2376 255.793 4.2903 266.5728 4.5355 272.8537 4.6995 281.352 4.9702 282.7496 5.0166 284.3365 5.0691 285.612 5.1062 304.5851 5.6119 328.5892 6.2292 330.994 6.2436 336.5058 6.4108 336.8932 6.3858 337.4051 6.4032 338.0761 6.4424 360.6825 7.0995 362.2119 7.1046 363.3429 7.1083 364.0596 7.1251 366.2339 7.1503 366.2477 7.1503 369.6179 7.1498 377.5883 7.1044 377.5926 7.1044 400.4235 7.042 400.6151 7.0417 401.1247 7.059 401.88 7.0581 404.3014 7.1086 408.2247 7.115 408.2636 7.1151 417.131 7.2277 419.5166 7.2334 423.3188 7.2726 423.3383 7.2728 426.6448 7.2746 432.5415 7.335 434.8129 7.3275 445.6111 7.2885 452.9052 7.1582 460.8133 6.9752 477.7069 7.0326 479.3194 7.0374 533.0857 7.1026 575.6586 7.0643 583.2416 7.0491 584.1704 7.0462 631.392 7.4531 632.7441 16.0833 632.8966 17.8813 633.7373 23.279 633.7439 23.321 636.5442 40.0492 641.5996 68.9658 643.6695 79.9123 643.6762 79.9603 646.2673 93.4223 646.2682 93.4438 647.8756 101.7322 647.9313 102.0537 649.5284 111.2761 651.8911 123.3564 652.6319 127.921 652.682 128.1834 652.6831 128.1889 653.0502 129.7394 653.9157 134.2063 655.2928 141.2015 655.3247 141.3517 659.4509 162.6027 661.9148 175.2764 662.7462 179.5497 664.7115 190.5233 665.5079 194.9675 665.6562 195.9382 666.2886 199.3155 666.3646 199.8835 672.3797 232.8126 672.6902 235.6205 674.1986 244.4262 674.5824 246.6655 677.7753 265.0117 677.9643 265.5911 679.6401 275.0232 682.5672 291.3875 684.7115 303.3632 684.9553 304.7786 688.422 324.8916 688.7402 326.4625 689.4827 331.1453 694.0491 356.5766 697.4811 375.6584 697.7732 377.2814 699.5793 387.3118 699.7991 388.8019 699.8209 388.9096 702.0978 401.2121 704.6219 415.585 718.4144 493.8607 719.4095 499.4913 721.6007 511.4194 721.936 513.2657 725.4447 532.396 726.5867 538.6171 729.9157 556.7361 730.6627 561.8401 731.0026 564.1622 731.0064 564.1879 737.9054 568.9522 734.8469 577.1956 742.6174 584.8364 745.1142 587.0899 741.4829 590.6431 743.4588 592.7969 746.0574 595.6289 747.0523 598.3391 745.2389 602.2388 747.1367 610.1199 751.8943 614.2221 753.052 617.2991 749.3911 620.8098 752.8987 624.2309 755.2274 630.3725 758.0112 637.7104 765.4824 644.7522 768.1753 647.2887 771.6746 652.2383 772.4814 655.8434 772.6981 656.8112 772.7346 656.9743 774.4007 664.4159 774.5256 664.9734 774.6036 670.756 779.8617 673.3981 781.8184 678.7004 779.2498 680.7464 778.9361 687.093 778.0748 689.4589 777.9127 689.9043 777.646 694.3804 772.2992 701.4434 773.7467 705.2731 783.9261 709.2698 788.9725 711.249 799 720.615 793.5978 724.1822 792.0371 728.9169 791.2784 731.2179 781.8666 732.1224 779.2764 735.3494 782.5616 736.2644 783.2289 737.5408 772.2959 742.5061 761.9303 754.3759 764.7434 767.1131 764.345 773.678 763.5622 786.5581 761.566 792.2822 758.9821 799.6863 757.5483 804.7577 749.3348 818.4049 747.1641 821.0025 744.6715 832.6759 747.1371 838.9451 746.0622 845.876 746.6992 848.1298 747.9177 852.4402 750.2278 860.6083 748.909 870.5398 758.6698 882.2611 763.3865 889.2423 764.549 902.9097 768.2616 909.7223 767.6805 916.6859 767.5572 916.9687 761.9261 929.8853 763.3422 939.5926 760.2975 945.1347 760.8872 948.3728 757.6914 957.6869 759.0955 963.679 758.739 971.9242 758.584 975.507 753.0986 980.5185 756.8071 991.9638 756.6935 997.951 755.0488 1004.1017 758.3211 1010.3884 762.1159 1011.7443 767.6177 1021.4912 771.5468 1024.3935 773.6914 1031.5142 774.3961 1032.9356 777.2332 1038.6573 779.6718 1051.3615 779.4651 1052.5114 774.5691 1052.5963 773.8025 1052.6123 773.2181 1052.6268 772.9821 1052.6324 768.268 1052.7292 767.6568 1052.7395 767.0417 1052.7499 747.1542 1053.0483 745.7457 1053.0201 745.7159 1053.0348 745.2128 1053.0425 725.1266 1053.3417 670.0529 1055.1091 667.8691 1055.1766 667.7822 1055.1793 649.5109 1055.5434 611.1629 1056.262 611.0936 1056.3823 578.7411 1057.0548 555.062 1057.4125 546.8788 1057.3584 546.8606 1057.3583 542.9348 1057.4074 542.09 1057.4436 528.4121 1057.5983 518.0534 1057.4661 516.6804 1057.4686 515.2776 1057.4533 514.1443 1057.406 512.5807 1057.4044 501.0518 1057.3888 496.9712 1057.5476 489.5806 1057.6021 486.1218 1057.5592 472.5315 1057.5128 471.5484 1057.5114 470.3597 1057.5175 467.1976 1057.6079 467.1825 1057.6084 466.4411 1057.6139 463.5177 1057.6585 452.2981 1057.7703 451.4833 1057.7189 442.1029 1057.9243 439.1995 1057.839 437.599 1057.9635 427.796 1057.4719 426.8609 1057.5043 404.9824 1057.7026 401.8949 1057.7068 399.6687 1057.6948 395.6129 1057.6724 391.3043 1057.1077 390.873 1057.1055 390.6254 1057.1434 386.8292 1057.2652 377.724 1057.0926 377.663 1057.0914 367.618 1056.9836 367.2941 1056.9897 358.0432 1056.9227 354.6302 1056.9357 345.6903 1056.8971 329.7675 1056.6279 328.4423 1056.4538 323.3166 1056.4615 321.2302 1056.4334 320.4142 1056.3672 317.3161 1056.4829 314.9895 1056.4624 313.9597 1056.4732 302.6395 1056.3718 301.2657 1056.5324 297.7091 1056.3311 292.7834 1056.4421 292.5639 1056.4492 278.782 1056.8917 277.7075 1056.9629 275.8659 1057.0849 271.9707 1056.5729 271.8328 1056.5905 271.515 1056.5951 271.2992 1056.5761 270.9095 1056.5985 270.7178 1056.5917 269.5858 1056.5683 264.3266 1056.5263 263.8557 1056.5224 261.4738 1056.491 260.9185 1056.5524 259.0817 1056.4802 254.1717 1056.5008 249.2861 1056.4851 247.4037 1056.4827 246.5405 1056.4593 233.4872 1056.4442 232.0187 1056.4059 228.0715 1056.3662 226.7435 1056.3465 226.0782 1056.3248 225.4065 1056.3692 225.3738 1056.3693 224.2374 1056.3687 224.2257 1056.3686 221.5608 1056.3436 221.3362 1056.3465 221.2145 1056.3444 212.3639 1056.4517 205.8251 1056.3195 200.7019 1056.2998 194.4966 1056.3647 194.4721 1056.365 194.4141 1056.8202 194.9517 1058.9556 195.6932 1060.183 195.8502 1060.9248 195.5103 1061.5972 195.5201 1061.9223 195.7541 1062.809 196.2277 1063.7456 196.6089 1065.049 195.9395 1068.4526 194.8314 1071.1672 194.5095 1071.7792 193.9672 1072.227 193.5128 1072.9587 192.3394 1075.5216 192.2331 1076.2014 191.7865 1077.5834 191.4113 1078.1291 190.8677 1079.703 190.6926 1080.8339 190.448 1081.5608 189.3831 1082.2159 189.0448 1082.587 188.9665 1083.5923 189.3199 1084.582 189.3457 1085.2205 189.0544 1085.7664 188.5257 1085.9496 187.3771 1087.1448 187.2524 1087.7818 186.1137 1090.8738 187.6132 1092.3971 188.0628 1093.1894 188.249 1093.9191 187.9924 1094.5675 187.7988 1095.5958 188.0777 1095.9833 188.5136 1096.1917 190.0509 1097.6111 190.4769 1098.487 190.3473 1099.1004 191.4586 1099.65 192.6313 1100.0074 193.1244 1100.7151 193.5561 1101.6335 193.8063 1102.8208 195.1969 1103.7879 196.6444 1104.3097 197.9944 1105.0112 199.1204 1106.1328 200.1923 1108.1451 201.0711 1108.5305 201.9539 1109.2833 202.8822 1110.3371 203.011 1110.8138 204.0546 1111.6936 204.4795 1111.7448 204.6823 1111.9267 206.2521 1113.9307 206.1723 1115.1283 205.9891 1115.6749 206.8625 1116.8672 208.0233 1118.1816 208.1472 1118.4838 208.3877 1120.2252 208.3911 1121.5349 209.004 1123.1904 211.0277 1124.5649 213.705 1125.8354 215.1796 1127.7421 215.8131 1128.9866 216.896 1129.3788 217.0643 1129.3194 219.2616 1129.8197 220.5716 1130.3509 220.887 1130.7622 220.9381 1131.3102 222.0927 1132.9665 223.0021 1133.3148 223.6026 1134.2636 223.913 1134.4882 226.0307 1135.361 227.2868 1134.7781 227.7471 1135.0154 229.0479 1136.1546 229.3391 1136.662 229.8934 1137.2431 230.7483 1137.7237 232.0251 1137.7368 233.2587 1139.1284 234.4649 1140.0261 235.997 1140.5404 237.3001 1141.3066 237.3884 1141.6082 237.2595 1142.1915 237.534 1143.5538 238.6899 1146.047 238.8099 1146.0295 239.4653 1146.7859 239.7056 1147.8109 239.4747 1148.4237 239.7506 1149.5149 240.266 1152.9559 240.2187 1153.9734 240.0571 1154.4488 239.7878 1154.9255 239.6061 1156.4057 239.6051 1156.6225 239.9153 1156.8891 239.9206 1157.0518 239.3959 1158.7706 238.9481 1159.5871 238.5149 1159.9037 237.74 1160.1644 237.2918 1161.071 236.7775 1165.3311 235.8641 1168.0775 235.4568 1168.0151 235.0598 1168.2778 234.5829 1168.907 234.5462 1169.0334 234.8977 1169.4446 234.9613 1169.8907 234.5055 1171.0623 233.9883 1171.3665 233.6523 1171.4249 233.5638 1171.1775 233.4377 1171.1647 232.8306 1171.5165 232.4029 1173.0677 231.594 1174.0865 230.7957 1174.2565 230.6871 1174.3764 228.1331 1180.1602 228.1596 1181.9364 228.4879 1183.347 228.4326 1183.5997 228.1338 1183.706 227.9499 1183.9518 227.8411 1184.1393 227.8572 1184.5216 228.5295 1185.304 228.8669 1185.493 229.6662 1185.5324 229.9862 1185.8734 231.5791 1188.3941 231.7086 1189.6291 231.1565 1191.2544 230.5616 1192.4069 230.7635 1192.7495 231.4637 1193.1475 231.6888 1193.4377 231.9072 1195.015 232.9199 1196.3337 235.2655 1198.5267 236.8052 1198.7713 237.5257 1199.6943 238.6108 1200.1988 239.2901 1200.3075 240.402 1200.0506 242.8475 1200.4571 245.2019 1201.3179 245.6724 1201.9071 246.0619 1202.9991 246.1361 1204.006 245.7695 1204.8555 245.091 1205.6184 242.6095 1207.6004 242.0934 1207.9305 241.6318 1208.2258 239.5201 1208.9766 238.8142 1209.6293 238.1291 1210.5976 237.7421 1210.9108 236.5163 1211.272 235.5417 1211.2143 234.1831 1210.8917 233.3895 1210.9136 232.5948 1211.1457 231.8203 1211.8506 231.5679 1212.284 231.317 1212.7146 230.7424 1214.2084 230.06 1214.6248 229.283 1215.7762 229.1656 1216.5373 229.231 1217.0367 229.7235 1218.2477 229.7217 1218.5892 229.0025 1219.7653 227.3489 1221.3069 226.8227 1222.1444 226.7062 1222.7216 226.6769 1223.9559 226.8878 1227.6438 226.5862 1228.2102 224.8283 1230.2485 224.1444 1230.8486 223.7125 1231.03 219.9872 1232.775 217.8527 1233.6382 216.5921 1235.0073 217.3343 1236.639 218.9587 1237.4001 223.849 1236.6781 223.2089 1239.1782 213.547 1241.7658 211.4974 1243.9294 211.5047 1244.8398 205.5475 1246.0555 202.4663 1246.3559 197.176 1247.6801 179.9932 1252.6884 162.1179 1254.9162 147.3259 1257.7586 138.7132 1258.2518 118.814 1257.2194 110.6061 1257.3576 102.025 1258.2553 98.7056 1259.1084 95.5617 1259.3976 95.3682 1258.9799 96.5884 1256.9775 109.5787 1255.7456 113.6896 1250.2875 116.6393 1249.0298 120.6586 1251.2144 121.6634 1252.6615 124.6683 1254.3479 126.311 1254.9667 129.4562 1255.1676 133.8333 1254.7638 143.4797 1251.1766 147.0315 1251.5342 150.2893 1251.2509 155.1028 1249.1635 157.7141 1245.2625 157.686 1241.6048 153.8168 1236.191 148.4077 1232.8605 145.5796 1230.6012 140.9513 1225.0145 140.6184 1224.181 139.3179 1220.9239 137.5468 1218.7739 135.5824 1218.4833 133.052 1217.1539 123.7457 1210.2511 123.1763 1208.9688 122.0706 1200.577 120.7962 1194.128 119.863 1192.6855 118.1335 1191.3544 117.8202 1189.7075 122.9473 1179.6483 124.2891 1176.5834 125.0356 1173.5377 125.1441 1173.0946 124.6254 1169.121 123.8005 1167.2399 123.0072 1166.4052 122.2337 1163.867 122.8573 1156.0176 121.3664 1150.6786 118.7574 1146.2818 117.4926 1145.0241 113.139 1144.603 107.4831 1140.2795 105.326 1139.3429 101.3613 1137.6208 100.4415 1138.0747 98.2387 1140.4981 97.1578 1143.7394 95.3541 1145.7619 93.1462 1146.0383 89.1316 1148.0094 89.6009 1154.793 90.8489 1156.5412 88.3143 1162.8696 86.0248 1165.3126 83.9179 1168.8308 83.5822 1169.3913 84.4104 1173.8516 84.0936 1178.4725 82.2807 1179.8023 79.9445 1183.4053 79.2632 1185.7213 79.4168 1187.7916 80.7389 1193.5803 79.8541 1196.1529 78.5173 1198.3651 78.979 1205.0529 78.1061 1218.1908 76.1954 1223.599 74.0693 1227.4995 73.2796 1228.3079 71.3843 1232.9551 66.9569 1231.2051 63.276 1231.8172 58.8114 1233.7773 57.8895 1232.6519 57.3329 1228.0278 57.8033 1226.7816 59.5817 1226.4189 59.5924 1225.6124 57.0204 1221.8354 56.015 1221.895 43.3377 1216.4019 38.3653 1216.2048 36.5077 1219.3672 31.7493 1219.7832 30.6382 1219.4848 29.9766 1216.7571 27.1304 1214.5879 25.0783 1214.2884 19.9326 1214.5997 17.5101 1215.1947 12.8382 1219.3778 11.7046 1182.2086 11.4993 1176.3607 11.4497 1173.6648 11.4373 1173.2177 11.3412 1169.3144 11.1482 1161.4696 10.9353 1152.803 10.9729 1150.4608 10.8549 1149.0621 10.6318 1140.714 10.3703 1130.8303 10.3469 1129.09 10.2621 1124.5067 10.2534 1124.1451 10.2267 1123.1392 9.3154 1088.7224 9.1373 1086.4447 8.7678 1073.3317 8.2267 1054.0789 8.2129 1053.5841 8.1988 1053.3369 7.2278 1023.5802 6.2944 993.1424 6.2749 992.8289 6.1615 988.7156 6.2283 987.2032 6.0766 983.2666 5.1841 960.0632 5.1785 960.0332 4.6473 942.9619 4.6546 942.8598 4.5065 939.0311 4.2666 932.8209 4.2328 927.0154 3.9825 922.1144 3.0053 890.1656 2.9599 889.5471 2.1959 870.1152 2.1958 870.0965 2.139 863.6921 1.6112 845.7008 1.304 829.8636 1.2816 829.7487 1.0567 823.497 1 818.5794 2.1136 809.0259 2.1739 808.2616 5.6288 780.3045 5.65 780.0795 6.0422 776.8062 8.6785 754.7873 9.7809 745.5706 9.7971 745.3795 11.6462 730.9875 12.4039 725.0866 14.147 709.7231 16.094 692.5995 16.4102 690.9997 17.0178 685.9486 18.611 672.6958 18.6115 672.6655 19.5943 663.3494 19.5954 663.3389 22.4114 639.0063 23.8845 626.2619 23.8975 626.1898 26.3542 603.9119 27.5928 594.5095 31.1785 561.0467 32.8025 546.8865 34.6709 530.5808 37.0506 509.2425 37.0692 509.0757 40.518 479.9423 41.0069 474.9014 41.6656 470.2835 43.698 452.5936 44.1166 448.9474 47.0325 423.5274 50.4401 393.7673 50.5897 392.7107 51.1322 388.1057 52.2663 378.4441 52.3872 377.9003 52.5017 376.8411 52.7315 374.712 52.9782 372.8885 53.0176 372.3002 54.2612 361.484 55.6669 349.249 55.7162 349.0375 56.0926 345.6462 56.1421 344.8585 56.695 339.4011 57.5116 332.7336 58.6906 323.1023 58.9846 319.4243 59.6877 315.4383 60.813 305.905 62.3342 294.1596 62.9995 289.0195 62.9999 288.9896 63.0236 288.6718 66.2359 263.0675 66.8527 258.1463 67.7196 250.5 68.5684 243.0934 69.4519 235.3792 71.4137 219.7915 71.7802 215.9138 72.4958 212.0713 72.759 207.8238 75.0822 189.1181 75.1349 188.6932 75.3855 186.5116 75.9356 181.556 77.8167 165.8451 77.884 165.2741 80.183 144.25 84.1153 113.1623 84.2964 111.5638 84.4153 111.1921 85.4918 102.4171 88.1871 83.3509 89.2593 75.7586 89.7622 69.9814 91.8912 52.8436 94.2433 31.7028 93.7944 31.2002 88.4242 28.9994 85.9305 27.5597 85.2846 27.0161 83.8753 25.7528 82.1181 23.6246 80.6529 20.6998 78.4648 14.9567 77.628 13.0268 76.8125 11.7169 75.233 9.7416 72.84 5.4335 72.586 4.2633 Z"/>
</g>
</svg>