<?xml version="1.0"?>
<svg xmlns="http://www.w3.org/2000/svg" version="1.2" baseProfile="tiny" width="800" height="700" viewBox="0 0 800 700" stroke-linecap="round" stroke-linejoin="round">
<g id="cb_2018_us_state_5m">
<path d="M 1 1.1329 10.3645 1.3171 16.7222 1.5062 42.0055 1.9335 56.6883 2.2812 70.7241 2.601 81.8968 2.8468 82.0246 2.8509 83.6898 2.862 83.9556 2.8652 87.3906 2.9109 87.9764 2.9205 105.4717 3.198 106.2274 3.2095 112.1951 3.2984 114.7056 3.3353 120.9963 3.4118 143.1652 3.6619 143.2403 3.6593 144.6243 3.6525 146.0523 3.6704 147.6158 3.6989 150.9627 3.7491 166.134 3.9678 177.2831 4.0938 178.4184 4.0999 191.2692 4.296 196.209 4.327 196.4262 4.3588 209.1121 4.4962 209.1141 4.4962 212.6071 4.539 213.0319 4.5442 235.351 4.7988 239.3756 4.8414 245.2864 4.8144 245.5027 4.8048 248.3992 4.8226 248.5682 4.822 276.3964 5.0473 276.45 5.0509 282.8355 5.0519 285.2607 5.0517 285.3015 5.0427 295.8961 5.1419 329.1565 5.1231 334.7682 5.0555 336.7329 5.0314 348.3538 5.0777 352.1492 5.1989 357.8162 5.2102 359.3776 5.3376 363.3544 5.2175 368.4471 5.227 369.8841 5.1887 384.7502 5.0578 385.1128 5.0659 385.5434 5.0603 387.4699 5.0645 395.3175 4.9872 397.324 4.9668 400.0931 4.9268 400.1105 4.9266 403.6188 4.927 407.3623 4.9219 410.2003 4.9293 410.4223 4.9284 414.7284 4.9167 416.2424 4.9338 421.137 4.9174 421.6084 4.9286 440.7562 4.7595 441.0135 4.7568 450.3475 4.6606 450.9773 4.6614 451.3833 4.6609 453.7464 4.6213 456.7193 4.5935 463.0237 4.5306 469.264 4.4473 469.518 4.45 471.7046 4.4156 476.4598 4.4036 478.2421 4.4165 480.4385 4.3854 483.0557 4.3479 483.8717 4.3769 491.3909 4.3117 492.9578 4.3065 493.3555 4.295 494.4897 4.3113 499.2259 4.3091 507.2406 4.48 507.8353 4.4925 509.3988 4.4951 509.9111 4.5128 514.0723 4.4979 514.0922 4.4999 514.411 4.486 514.4472 4.4946 542.8139 4.0761 544.2127 4.0696 544.4182 4.0776 558.9319 3.8532 563.7654 3.7529 563.8289 3.7566 576.2767 3.5459 577.7806 3.4831 582.143 3.4023 585.0493 3.3478 585.4352 3.3405 598.4455 3.1519 598.8213 3.1371 598.8696 3.1582 599.3165 3.1987 603.0441 3.0455 613.5946 2.8789 613.9052 2.8739 616.5865 2.8349 625.2855 2.7217 628.1957 2.6329 634.5475 2.5248 635.3068 2.5194 641.0479 2.3931 642.1831 2.3922 643.9643 2.3593 645.3952 2.3253 646.8591 2.3081 646.8699 2.308 659.0029 2.0863 659.823 2.0759 659.8952 2.0751 684.6037 1.6055 702.3264 1.3109 703.6374 1.2646 703.6422 1.2645 704.1821 1.2646 707.9161 1.1759 714.5373 1 714.2346 1.2296 714.3276 1.5233 713.388 4.328 713.5165 4.4061 716.2908 6.0917 716.488 8.5254 717.7593 13.1228 716.2815 15.5761 718.3571 17.39 721.8541 19.4949 726.5181 20.0435 728.874 22.8688 729.4352 28.693 727.2928 31.9066 726.9888 36.3643 729.6262 39.3996 727.3228 42.3354 726.6129 45.5762 721.6495 47.032 719.9873 51.4803 719.9887 54.2736 717.4535 54.699 715.3229 57.4217 711.0487 59.3015 710.0152 60.2795 708.266 61.9344 706.8384 63.9898 705.1181 63.4794 702.8374 68.6221 702.8919 72.5337 699.7366 75.0661 696.0679 77.0706 693.5567 78.0109 692.7516 80.9535 689.6957 82.6611 689.8673 85.5329 687.5299 87.175 686.6407 91.2483 684.8047 95.3096 680.665 101.5987 682.1389 101.5425 686.3346 101.4385 686.8455 101.4003 694.4086 101.1671 694.9597 101.151 694.9833 101.1503 715.8733 100.4968 720.932 100.3288 721.0899 100.3329 724.7049 100.14 745.7994 99.4636 746.9632 99.4708 747.6449 99.3899 747.8354 99.408 747.9183 99.406 757.2315 99.1037 757.2684 99.1025 758.0193 99.0701 761.3807 98.9583 761.4611 98.953 761.5407 98.9516 762.437 98.9156 778.3008 98.3237 778.3461 98.3202 783.5398 98.1743 783.5535 98.1829 784.2711 98.1464 784.5933 98.8792 785.0577 99.5251 786.5901 100.9932 786.6544 101.1826 786.5243 103.2533 786.5915 103.9835 786.7481 104.5075 787.4574 105.532 788.1726 106.1505 789.8696 107.2501 791.9866 108.4541 793.6835 109.8346 794.5953 110.7528 797.0591 112.6701 797.7058 113.5167 798.0385 114.2367 798.6779 116.1653 799 116.8835 798.6625 118.7686 798.1368 119.5867 797.3916 120.3967 797.025 120.638 795.7676 121.16 795.1433 121.1813 793.9294 120.7299 793.1318 119.9027 792.0758 118.5484 787.7137 116.8183 783.479 116.8334 781.1021 118.6254 779.6303 120.0094 779.1642 120.9439 778.7219 122.3357 778.5591 123.0321 778.4697 123.9387 778.5363 124.7863 778.6821 125.2454 779.1929 125.9358 780.0266 126.5588 782.4574 127.5591 785.6913 128.5303 789.0006 130.1746 789.8089 130.7859 790.054 131.092 790.3093 131.715 790.3829 132.2615 790.2916 133.0573 789.9715 133.8531 789.6268 134.2644 787.4367 135.6573 786.8832 136.1049 785.1907 136.7888 783.7461 136.8989 781.3293 136.0495 780.106 135.9234 780.1128 136.2615 777.5056 137.2119 775.2309 139.7139 774.7696 140.582 775.168 141.7359 775.153 142.2397 774.8529 143.1779 773.2956 145.4186 772.7308 146.0748 772.4851 146.3225 771.4127 146.992 770.8205 147.2066 769.5398 147.4012 767.3679 147.2932 765.5658 148.4645 764.5847 148.9841 763.1713 150.2719 762.4598 150.2763 761.4287 149.5838 760.6563 148.5907 757.8091 146.8761 757.0888 146.8281 756.5941 147.2571 756.2261 147.7407 750.7015 151.1456 750.1159 151.6241 749.7637 152.1845 749.4 153.3232 749.388 154.0935 749.7636 156.5018 749.9006 159.7183 750.06 160.6818 750.4765 161.5073 751.0035 162.2867 752.2443 163.7099 753.15 165.5586 754.2031 166.6592 755.5648 167.5698 756.7594 168.0391 758.2656 168.3265 759.4339 168.3447 760.7829 168.0113 761.3465 167.7525 761.6692 167.4519 761.9861 166.9752 762.6514 165.495 762.8666 165.2278 763.6742 164.7395 764.8416 164.332 765.4088 164.3812 765.792 164.571 766.699 165.7459 767.105 166.8495 767.1934 168.2839 767.0693 169.4697 766.7674 170.671 766.3468 171.441 765.1946 172.1978 763.1701 173.0723 760.3538 175.3554 759.9288 175.4961 759.4774 175.472 758.4642 175.2821 757.7049 175.0247 757.4676 175.1264 756.2897 176.1145 754.2317 177.0356 752.1792 178.3308 751.2725 179.1727 750.8045 179.8262 750.4028 180.5825 750.2338 181.2331 750.2381 181.5834 750.4579 182.3879 750.8879 183.4464 752.1277 185.8955 752.4928 186.5371 753.0548 187.2695 755.0666 188.2154 755.8726 188.3908 756.96 188.4137 757.4878 188.5187 758.0466 188.9417 758.2043 189.6294 758.064 190.2226 758.0918 190.6901 758.3502 190.7937 758.4123 190.8186 758.9431 191.0552 759.1409 191.2635 759.2312 191.5647 758.678 193.8124 758.47 194.2942 758.0157 194.9298 757.4666 195.3993 756.8373 195.6636 756.2153 195.5683 754.5044 194.7939 752.6551 194.6711 752.1691 194.5437 751.6367 194.2037 750.7936 193.4833 750.5644 193.1712 750.5458 192.5883 750.847 191.9665 750.8629 191.7068 750.6665 190.7469 750.3651 190.2902 747.4255 187.9428 745.2854 186.7682 744.6981 186.6372 743.7232 186.5843 742.2262 186.8386 741.7512 187.0411 740.7887 187.6827 739.7218 187.641 738.9648 187.8754 738.2758 188.2518 737.535 188.8883 737.202 189.3514 736.8947 191.4614 736.4725 192.6272 736.2434 193.0434 735.8159 194.5123 735.6577 195.9047 735.9947 198.0679 736.4714 199.6125 736.8619 200.4453 738.2996 202.7164 740.7108 204.736 740.9473 205.2183 740.9871 205.8114 740.5021 207.303 740.164 207.9307 739.8141 209.2262 739.7806 209.8076 739.8547 210.7536 739.7383 211.1966 739.4372 211.7299 739.1382 212.4668 739.1059 213.2459 737.6742 214.2225 737.3473 214.566 737.1018 214.9709 736.9437 215.7296 736.7464 216.2253 735.8965 217.2263 735.164 218.0889 733.0959 217.2392 734.2393 215.8449 732.8194 214.2656 732.1965 212.1539 732.1727 211.0352 732.5643 208.8926 733.1804 206.7662 733.1729 205.9955 733.0594 205.7216 732.333 204.8383 731.0139 203.658 730.2148 203.2809 727.998 203.3807 727.5143 203.7313 726.5492 203.7447 725.488 204.658 724.8616 205.4036 724.5152 206.0182 724.1345 207.198 723.1976 210.7839 721.4859 211.9068 716.8874 214.9216 716.6449 215.6233 716.6664 217.2709 715.3928 222.2459 715.5566 222.8591 716.541 223.714 717.5493 224.275 721.0038 224.2183 722.5194 223.7787 721.1786 221.635 720.7562 220.1578 720.6839 219.2866 720.8432 218.43 721.0948 217.8447 721.3756 217.4619 721.9738 216.8621 722.4132 216.5602 723.1625 216.3902 725.3697 216.7473 726.089 217.0366 726.4139 217.3389 727.0487 218.3693 727.3704 218.7301 728.7263 219.9374 729.2311 220.3082 730.1897 220.7818 731.4814 221.8583 731.8024 222.004 732.2865 222.062 730.9289 225.1476 730.2943 226.262 729.8861 226.7457 729.4019 226.8366 728.8774 227.4993 728.3417 228.6249 727.2443 230.3363 727.003 230.4525 726.7629 230.4185 727.8538 232.4576 727.4103 234.0166 727.1344 237.9272 725.8245 238.2765 725.066 238.0652 724.7672 238.0731 723.3777 238.9091 722.2324 239.2657 720.5435 238.4175 719.963 238.57 719.0771 238.9783 718.71 239.322 718.3035 239.8952 718.0927 240.4821 717.5475 242.7202 717.5733 243.2981 717.9506 244.1845 719.2592 246.5433 720.3878 247.8277 722.303 248.5196 723.6418 248.3115 725.0161 247.9199 726.1642 247.7344 727.2019 247.7762 728.0206 247.9894 728.9431 248.5436 729.2001 248.818 730.3814 250.3403 731.1534 251.6089 731.7208 252.3701 732.4195 253.1527 732.7393 253.8216 733.0759 254.5998 733.2161 255.2691 733.2237 256.3758 732.8227 256.9197 732.1193 257.0684 731.6302 256.6285 730.8943 256.2574 730.1762 258.0829 729.6994 259.7715 729.5467 259.7858 727.6324 258.9732 726.4816 259.1207 726.2977 260.7017 726.3344 261.2339 726.8794 262.454 727.4007 263.0489 727.7124 263.079 727.9095 263.846 728.3417 264.6068 728.7293 265.1377 729.3042 265.8215 729.8449 266.5045 730.448 267.2358 730.8704 267.4164 734.2886 267.8575 734.6942 268.2072 734.7751 268.3574 735.1286 270.428 735.0158 271.0134 734.8291 271.3561 734.1024 272.2482 732.1625 274.2672 731.6368 274.6557 731.0101 274.9672 729.3954 275.3225 727.9551 274.9186 723.0706 272.028 722.453 271.8242 722.1453 271.8526 720.3271 272.6884 719.6767 273.133 718.8368 273.8685 717.6009 275.2368 717.5246 275.3213 717.0252 276.5229 716.3801 280.6517 714.2783 286.5874 714.0678 287.717 714.0005 288.7936 714.0786 290.1967 714.2311 291.4397 713.5962 292.3662 712.1156 293.6457 711.3079 293.813 711.0015 293.7693 709.596 293.0226 708.6431 292.7734 704.4183 292.2353 703.4501 291.8785 703.2826 291.6634 703.2084 291.2474 702.9614 291.1136 698.6115 290.9094 698.2149 291.1498 698.0332 291.2599 697.7661 291.7031 697.2516 293.5239 696.288 295.6524 695.839 297.3412 695.7937 298.427 695.9931 300.1333 696.8319 302.2543 697.1622 302.8164 698.1714 303.9345 698.7226 304.275 699.6828 304.6607 700.5186 305.6112 701.18 306.1108 704.2364 307.4929 705.1758 308.0302 705.8295 308.7701 706.206 309.4141 706.5012 310.1236 706.7977 311.4535 706.8295 314.7472 706.5628 316.1179 706.295 317.0046 706.0144 317.4919 701.3196 321.0233 697.6801 323.0951 696.3893 324.1083 695.8379 324.796 697.3614 326.9728 697.4828 327.1462 697.6881 327.7848 697.6732 328.2037 697.4816 328.9733 696.9391 329.8444 696.3069 330.25 695.0183 330.152 694.3809 329.8598 692.85 328.6713 691.4995 327.1432 690.2434 328.2124 689.6064 328.607 685.1255 330.1448 681.6143 332.33 680.5866 332.8097 680.1542 333.0115 679.4703 333.0615 678.2411 332.7227 677.9889 332.5426 677.1666 331.2081 676.7981 329.7077 676.625 328.5043 676.6127 327.7365 677.0131 326.5006 677.0268 326.0865 676.8287 325.2863 675.7288 323.0176 675.4359 322.6556 674.9496 322.3209 674.364 321.9983 672.8667 321.4061 671.9014 321.2614 670.8726 321.472 669.3373 322.4328 668.6668 323.0517 668.0227 324.275 667.9347 324.6904 667.8792 325.8537 668.0995 327.4242 668.4264 328.1194 669.6903 329.7471 671.4774 332.6097 672.6417 334.8816 672.6818 335.475 672.3361 336.6661 671.3164 337.4515 670.4935 338.5727 670.2203 339.0893 669.9756 339.9027 669.8795 340.9385 670.07 341.8028 670.6096 343.3748 672.5563 346.6394 673.5534 348.7903 673.8804 349.8904 673.8792 350.5471 673.6977 351.4629 673.3084 352.3339 672.8317 352.8627 670.9038 354.0773 669.3108 354.5535 667.8188 354.7939 665.726 354.7342 663.571 353.6981 662.9741 353.0863 662.5131 351.9374 662.3481 350.9612 662.3293 349.9819 662.53 348.9987 663.1698 348.003 664.9463 346.7288 665.6062 345.6494 665.6554 345.3987 665.5552 344.6832 665.1828 343.6283 663.6379 340.4063 663.3004 339.3628 661.9628 339.2897 660.5923 339.6502 659.7547 340.0663 659.1595 340.6353 658.5494 341.5634 657.9955 342.8805 657.9146 343.4187 657.9755 343.9537 658.2638 345.0919 658.8845 346.8792 658.9183 349.2192 658.7487 349.8884 658.4332 350.5602 658.1475 350.8762 657.716 351.1952 657.2455 351.3815 656.7371 351.4649 656.1542 351.6256 655.5662 352.0577 655.265 352.4879 654.9819 353.1043 654.8523 354.3156 654.8767 354.8286 654.9802 355.127 655.2883 355.5664 658.5597 359.2785 659.7286 359.9112 661.3311 360.2711 662.4963 360.2914 664.4903 359.9749 666.6524 359.4209 668.215 359.2117 669.3462 359.182 670.1407 359.3034 670.8025 359.6403 671.4891 360.3075 672.0509 361.2012 672.2578 361.8965 672.2284 362.5936 671.7396 364.5445 671.1408 365.526 669.5602 367.4467 668.244 368.4774 666.8399 369.8499 665.8182 371.3268 665.01 372.1594 663.5493 373.3318 662.3627 373.8366 661.1064 374.0629 660.2915 374.0228 659.2169 373.6869 658.5684 373.2822 657.8723 372.3352 657.4687 371.4705 657.2893 370.407 657.4433 368.6577 657.6415 367.7215 658.0336 366.9707 659.7625 365.455 657.5222 362.0236 654.1979 362.473 653.286 363.0033 652.7663 363.7307 651.7523 365.5933 651.7417 366.0543 651.9518 366.6945 652.1634 369.4185 652.3937 370.3324 652.7241 371.0147 652.7386 371.1996 652.6746 371.4572 651.9415 374.4086 652.15 376.5692 653.0968 378.8394 654.2595 380.6043 655.0495 382.1379 655.9292 383.0868 657.1282 384.1924 658.5392 385.9213 659.1059 386.8738 659.9608 389.3242 660.0064 389.8738 659.9273 390.423 659.561 391.4149 659.2279 391.9438 657.69 393.3128 655.4091 394.5777 653.9431 396.3095 653.5352 397.0087 653.1631 398.7523 652.6871 399.5529 652.5421 400.271 652.3241 401.3506 652.1867 402.6067 652.4966 405.4309 653.0006 407.2739 653.2979 407.7492 654.4324 408.6185 654.9223 409.1018 656.0509 411.3659 656.3195 412.5548 656.2261 413.5212 655.9333 414.4659 655.4994 415.3661 654.8313 416.406 653.9725 417.3364 648.5896 421.3792 647.8527 421.7816 645.709 422.1335 645.1619 422.3085 644.1116 422.8234 641.3284 424.4967 641.8662 425.2544 640.0451 428.4736 640.0582 429.9153 641.0821 432.2586 641.1626 432.4427 641.6899 434.1181 641.6884 435.1235 641.4718 435.6042 641.071 436.4933 639.7746 436.9892 638.3377 437.0124 637.0305 436.4906 636.3639 435.9429 635.8375 435.1595 635.7217 433.7477 636.0414 431.9648 637.6218 429.0951 637.7703 427.1798 637.5272 426.4943 637.3041 425.9376 636.1114 426.0005 634.5378 426.5751 632.5859 427.0166 630.4831 427.0819 629.7886 426.985 627.7303 426.4198 626.3351 426.3055 625.3383 426.4542 624.3806 426.9678 623.7857 427.5038 623.579 427.8727 623.3743 429.2287 623.5129 430.5382 623.6206 430.8561 623.946 431.337 626.6486 433.6325 627.3632 434.8478 627.71 435.7584 628.0747 437.1032 628.052 438.4818 627.7062 439.3389 626.1733 441.9481 625.756 442.4359 624.1521 443.7204 622.9878 443.8554 618.8246 443.4355 617.9444 443.4374 616.3281 444.0657 615.0046 444.405 614.4252 444.7325 613.8111 445.2574 613.4335 445.7417 613.1505 446.4927 612.4553 449.9612 612.0048 452.7502 611.9995 453.9453 612.1135 454.7195 612.0411 455.3418 611.7084 456.5794 611.2875 457.7555 610.811 458.6517 609.9874 458.0935 609.3324 457.6675 607.6286 457.5865 605.6369 456.9598 603.0723 455.224 602.4513 454.6624 602.1496 454.1962 601.4252 451.9527 601.1456 451.4462 600.9541 451.2577 600.0767 450.9848 598.3077 450.8929 597.3503 451.3029 596.6243 452.1734 596.1594 452.8803 596.0441 453.3967 596.0918 454.8015 596.4059 456.3857 596.8358 457.2195 599.6228 460.7379 600.3302 461.3274 603.6342 463.0921 604.2981 463.6357 605.1431 463.1485 605.9984 462.8828 606.6051 463.3531 607.293 463.393 608.1262 463.1975 609.0196 462.705 609.5911 462.5783 610.9898 462.7204 612.4606 463.1441 614.0715 462.9233 616.0198 463.2419 616.7172 463.6791 617.1123 464.136 617.3393 464.6411 617.6163 466.3104 617.5286 467.502 617.0413 468.6177 616.2391 469.8286 615.153 471.0044 614.6471 471.4188 613.9011 471.8679 612.9508 472.2684 611.133 472.4947 610.0942 472.3866 608.2573 471.8104 607.7096 471.5027 606.2181 470.3363 605.1819 469.682 603.2928 467.8322 601.7709 467.1838 600.7094 466.9663 596.1449 470.3669 593.504 472.4456 592.7023 474.0776 592.8573 475.1182 593.2819 476.1021 593.4449 476.3287 594.5352 477.8442 594.9013 478.2155 599.0693 481.2178 599.5457 481.3903 600.2592 481.4387 602.3826 481.0261 603.6247 480.385 604.5202 480.3681 605.422 480.5916 606.0398 480.988 606.4244 481.3125 607.2143 482.5446 607.467 483.3186 607.4628 483.7607 607.243 484.5901 606.828 485.4557 605.6058 487.0929 604.9245 488.1651 604.6894 488.7973 604.5683 489.3925 604.5156 490.5976 604.8094 491.8888 604.8901 492.8322 604.8285 493.3479 604.5825 493.8919 604.0208 494.4828 602.8691 495.1098 600.375 495.5281 599.1562 495.282 598.8718 495.3009 597.0462 496.1002 595.7703 496.3603 594.5109 496.4245 593.162 495.961 591.1367 495.7194 590.1175 495.791 589.1605 495.9772 588.3069 496.2741 589.6792 500.0183 590.094 500.7184 591.1854 501.6307 592.7686 503.9813 592.8333 504.7347 592.4458 506.423 592.2104 506.8693 591.8135 507.3 591.2861 507.5973 590.2996 507.8832 589.2297 507.9618 588.5201 507.8515 587.3261 507.4066 586.451 506.7611 585.9641 505.8786 585.6182 504.669 584.1473 501.2139 583.2533 499.5056 580.8236 501.0964 579.8803 502.3078 579.3659 502.8092 578.445 503.1667 576.1546 503.1974 574.6829 503.339 573.9971 503.5247 573.3622 503.8286 572.7199 504.282 571.9515 505.193 571.7611 505.7288 571.6638 506.3131 571.6684 507.0521 571.8605 507.9779 572.1881 508.5827 572.6327 508.9924 573.477 509.3639 573.5614 509.401 578.8177 510.6514 580.6025 511.3517 583.2367 512.6328 584.4215 513.5804 584.8709 514.1553 584.9233 514.6216 584.7969 514.9119 583.718 516.2134 582.2803 518.4413 580.6083 520.3436 577.5755 523.4668 576.6104 524.5796 575.0489 526.7465 574.7443 527.6091 574.7223 528.593 575.043 530.1612 575.6754 531.9609 576.1026 532.6145 577.4924 534.2237 578.1447 535.1598 578.6779 536.2363 579.1543 536.8985 579.8879 537.3872 582.7597 538.719 583.6021 539.0064 585.6438 539.3462 586.9175 539.9327 588.3178 541.2946 588.735 542.1993 588.8824 542.8902 588.732 543.6785 588.4492 544.4351 588.0249 545.0754 587.0023 545.9721 584.9223 546.8947 583.1894 547.2541 582.6097 547.1329 578.0906 544.2025 576.9967 544.4285 572.8718 544.7296 572.2974 544.8584 569.2836 545.9292 568.5834 545.1534 567.5241 544.2812 566.5861 543.6813 565.7969 543.4251 565.1423 543.4391 564.8681 543.5631 564.2976 544.1453 563.8886 544.7085 563.5432 545.3685 563.0469 546.6632 563.1048 547.3272 563.3043 547.7026 563.6925 547.948 563.7858 548.1655 563.6636 548.9182 563.1757 549.7893 563.1867 550.2403 563.3991 550.6743 562.8909 552.7957 562.8853 553.6004 563.0307 554.3006 563.2113 554.72 565.292 557.1892 566.432 558.2609 567.7296 558.9272 569.3993 559.0368 570.4807 558.9571 572.3312 558.4636 574.7077 557.0319 575.8759 556.6036 576.6278 556.7095 577.269 556.9146 577.991 557.3678 579.46 558.5746 580.3895 559.8299 580.7683 560.4882 581.0883 561.2169 581.2689 561.9686 581.7253 562.0298 582.2183 562.223 582.2466 563.4441 582.0695 564.1384 581.5698 565.1641 581.1981 565.5077 579.6229 566.1349 578.9433 566.1857 577.5153 566.5364 576.2136 567.2921 574.3397 568.1936 573.4125 568.3973 572.738 568.3935 571.7696 568.215 570.6157 567.7932 565.7046 565.0809 565.2083 564.6365 563.3944 562.1144 560.5927 558.6715 560.3291 558.7258 559.774 559.0722 558.1445 559.494 555.769 559.7736 554.017 559.86 553.2472 560.0119 552.1453 560.5364 550.7533 561.6123 549.9866 562.6503 549.5712 563.5849 549.3925 564.6864 549.5373 565.9206 549.8233 566.4461 550.4174 567.2084 551.0791 567.8545 552.3707 568.4305 556.6562 569.3556 557.8444 569.8366 559.0345 570.4861 560.1966 571.3635 562.4914 573.3746 564.3784 574.8123 565.1916 576.0235 565.4369 576.72 565.7905 577.7238 565.8785 578.6938 565.7059 580.0049 565.5693 580.4959 565.3119 580.9963 564.5965 581.7199 562.3433 583.3743 561.4721 583.6537 560.9214 583.6647 558.3963 583.3756 558.0261 583.4521 557.5571 583.6741 556.2659 584.7429 554.7285 585.5899 553.9257 585.8589 550.8984 586.4114 550.4605 586.5752 549.7433 587.121 549.3586 587.7807 549.2676 587.9367 549.0896 588.5628 549.1405 589.4897 549.5616 590.6259 550.1566 591.781 551.3417 593.523 551.9495 594.1001 556.6851 597.7926 557.1494 598.4205 557.445 599.4077 557.4261 600.1566 557.0059 600.602 556.3944 601.2843 555.3677 602.1991 554.7241 603.2692 553.7408 605.1841 553.5674 605.8313 553.2759 606.1732 552.1287 606.9479 551.356 607.3022 550.8349 607.3644 549.4679 608.5069 549.3216 609.1333 549.2061 611.1065 549.0628 611.4538 548.7983 611.7927 548.926 612.1169 551.8898 612.9303 553.0696 613.0952 553.6448 613.0782 555.6541 612.5539 556.9226 612.094 557.7785 611.6483 558.517 611.0708 559.8109 609.2672 559.3828 607.3419 558.7238 605.4779 558.4828 604.0621 558.4379 602.6173 558.702 601.6995 559.2304 600.5158 560.0238 600.1851 560.5869 600.3481 561.236 600.8604 561.7086 601.2332 565.163 603.4943 567.0988 605.1548 568.0331 607.6495 568.33 608.9223 568.2557 609.8558 567.8377 610.9652 566.6138 612.4282 566.2958 613.0329 566.2977 613.3038 566.0827 613.6718 564.8853 614.3052 563.9333 614.1683 563.4725 614.2805 560.8762 615.3108 558.7497 616.3671 558.2369 616.3394 557.3917 615.868 556.1441 616.251 554.9181 616.1484 554.3864 616.451 553.9459 616.9735 553.3898 618.076 553.3096 618.5598 553.347 619.0875 553.5034 619.4088 554.0677 620.0347 556.3518 621.8328 558.7225 623.1532 559.5525 623.5027 560.4959 623.7532 562.5373 623.8851 564.7044 623.5463 567.5606 622.1077 569.1827 620.9735 570.2618 619.7756 571.5481 617.9364 572.1989 616.0901 572.1572 614.4615 571.7868 613.2641 571.7722 612.8683 571.8962 612.0958 572.2886 611.083 572.7291 610.3519 573.556 609.2958 574.3227 608.7661 574.9856 608.4669 575.5256 608.4271 576.677 608.5518 577.1651 608.8093 577.9826 609.4973 578.2943 610.2965 578.3616 610.4693 578.3177 613.7768 577.6524 615.2703 575.5337 618.3352 572.9783 620.3945 571.2406 622.1256 570.376 623.3395 568.154 626.8142 567.3833 627.5618 564.9005 629.3132 564.6381 629.5901 564.57 629.807 564.8088 632.2878 564.664 632.9913 564.4276 633.48 564.3807 633.9024 564.7797 636.6958 564.7932 639.6333 565.0593 640.2104 567.5124 643.4307 567.5281 644.5282 567.12 645.7719 568.7766 647.0283 568.9438 647.3016 569.4451 648.8317 570.0886 650.2191 570.8337 651.0302 571.8475 651.7469 572.0148 651.7351 572.3654 651.0437 572.7056 649.2759 573.2361 648.4063 573.4204 647.9095 574.0771 644.6553 574.4704 643.675 574.8705 643.1343 575.3162 642.7196 576.3003 642.1935 577.2161 641.9235 578.5967 641.9599 579.6576 642.2406 580.3656 642.7513 580.8757 643.4957 581.1394 644.3624 581.0922 645.3174 580.9036 646.2007 580.5097 647.2826 580.0744 649.0352 579.4697 650.0567 577.8659 651.8178 577.5919 652.691 577.0801 652.7072 576.6933 653.277 576.7641 653.8313 576.1991 653.9347 575.6038 653.8109 575.3479 654.0101 575.3547 654.529 575.2886 654.6619 574.7535 654.988 574.237 654.9904 573.2868 655.1685 573.6138 657.2747 574.1339 659.5901 574.6114 663.0923 574.5736 666.8803 574.477 668.0697 574.2707 669.4814 574.1671 670.1897 573.803 671.2921 573.2548 671.8816 571.4176 672.9255 569.7958 673.2978 566.8726 673.482 564.9274 673.3715 563.7553 673.2058 563.5044 672.989 563.3029 672.3375 562.0757 671.1364 561.8491 671.027 560.5563 670.873 558.1858 671.0914 557.3488 671.4756 556.6144 672.0963 556.2659 672.4988 555.2093 674.4219 555.1669 675.192 555.2987 677.498 555.3582 677.786 555.5207 678.0334 556.228 678.4954 558.76 679.6953 559.7941 681.0186 559.9957 681.4775 560.3378 681.7713 561.2737 682.0861 562.1515 682.1897 563.9655 682.9599 568.2036 686.3778 568.7898 687.3561 568.9482 687.9989 568.9374 688.2755 568.4471 689.8625 568.0988 691.5169 567.5386 692.4627 566.1589 693.4383 565.3318 693.7482 564.1118 693.9466 563.0515 694.5033 562.0272 695.2907 561.3942 696.9588 561.4465 698.394 544.9497 698.4021 541.7191 698.4552 537.1144 698.4572 535.3654 698.4612 534.9435 698.4614 534.7169 698.4615 534.1548 698.4588 533.6138 698.4434 526.4439 698.4688 518.1995 698.5106 516.4796 698.5115 513.548 698.5917 512.3757 698.59 507.5778 698.5823 505.7526 698.48 495.8535 698.5593 493.714 698.5646 492.4955 698.6618 492.4683 698.6529 487.6002 698.6866 486.1638 698.6666 484.6542 698.6945 484.4927 698.6941 466.5033 698.648 463.2468 698.7819 443.2287 698.765 430.7454 698.8727 430.4192 698.8926 410.8865 698.8312 385.2559 698.7254 373.6112 698.5438 366.4035 698.5043 361.9064 698.4531 360.6684 698.4364 344.0834 698.1835 338.8114 698.1516 338.4124 698.1511 334.0765 698.0946 303.8154 697.6684 303.0494 697.6483 301.7708 697.6587 301.5724 697.6543 301.5305 697.6534 300.1629 697.6503 289.6038 697.5194 283.8918 697.3344 281.6789 697.2516 281.6434 697.2443 279.9961 697.2253 277.7716 697.23 264.5946 697.0211 260.4965 696.9236 257.5674 696.8869 243.9015 696.7088 243.488 696.6852 242.1108 696.6705 238.8511 696.6777 238.774 696.6863 235.7255 696.6581 229.9541 696.6031 222.7775 696.5318 219.7356 696.4208 215.9086 696.4706 204.3109 696.3421 204.2748 696.3372 198.9483 696.259 192.8169 696.2235 177.8307 696.0023 177.8214 696.0023 174.0858 695.997 173.9168 695.9954 173.8546 695.9948 168.8414 695.9071 168.8375 695.907 168.1838 695.8958 167.0866 695.8828 135.1236 695.3435 121.516 695.1793 119.9098 695.1592 84.924 694.6767 84.3392 694.6809 83.03 694.659 82.096 694.6356 81.8428 694.6254 82.0131 682.6503 82.0808 680.0195 82.1827 671.8398 82.184 670.9907 82.1822 669.9345 82.3107 666.5944 82.4046 658.7459 82.4105 658.1734 82.4513 655.6789 82.5564 650.3926 82.5361 648.7415 82.5613 646.5999 82.6026 644.5487 82.6027 644.5455 82.6785 639.2176 82.7703 632.7698 82.8217 629.4206 82.8362 628.4774 82.8464 627.1537 82.9272 624.6875 82.9166 623.3861 82.9469 621.7603 83.074 614.9385 83.0902 612.7921 83.1049 611.8381 83.1772 604.9811 83.2254 600.8657 83.2318 600.8162 83.2763 600.4671 83.3666 590.6728 83.3858 588.862 83.3847 588.6974 82.9528 588.8758 82.261 588.912 81.3364 585.6828 78.6073 584.6482 73.5497 584.9398 70.0595 588.5097 66.9751 583.3634 63.826 581.0868 60.339 580.3694 55.6522 583.9529 53.0868 588.0549 49.1576 587.2185 51.1025 583.2859 48.8523 581.3723 45.7649 585.563 44.1857 583.5212 41.2454 583.2065 39.3049 588.0502 35.8294 587.7825 34.5846 584.8982 32.2046 586.1395 31.0947 589.5738 25.5589 587.894 26.3611 585.0529 28.099 583.2778 26.774 581.805 21.2718 582.6261 18.4961 579.1948 14.8677 578.3129 15.9245 574.249 14.8892 568.9936 11.2062 570.177 10.4478 570.3508 10.5577 567.2827 10.6053 565.2799 10.8683 560.4099 10.8669 559.6776 11.0727 555.757 11.0882 554.6835 11.387 547.9631 11.3892 547.9202 11.4145 547.3524 11.4406 546.8265 11.7079 540.3258 11.7837 538.993 11.841 537.6163 11.8429 537.569 12.0791 532.1499 12.2646 527.9455 12.5405 522.0125 12.5667 521.9558 13.0282 510.7757 13.052 510.1452 13.149 507.581 13.1763 506.8803 13.7614 494.5062 13.7693 494.0982 13.7698 494.0723 13.77 494.0646 15.1902 460.6894 16.5613 428.4609 16.6602 426.9764 17.0358 418.4003 17.1414 416.0654 17.1854 415.0481 17.9467 397.5891 18.2752 390.0772 18.2865 389.5594 19.0494 372.2584 19.0763 370.6649 19.5605 360.627 19.9005 353.5787 20.8453 333.9838 21.1118 328.4561 21.14 327.8042 21.1628 327.2794 21.289 324.5141 21.4431 321.474 21.4529 320.759 21.4325 320.4172 21.8063 312.8533 22.241 304.0546 23.0681 287.3095 23.6294 275.9437 23.7432 274.1399 24.0497 267.2581 24.0992 266.1464 24.1169 265.5959 24.2836 262.5415 24.2773 261.2677 24.2876 260.5301 24.4323 258.288 24.4781 257.8106 24.6662 253.8482 24.6677 252.1907 24.7112 251.6087 24.9022 250.0431 25.1138 245.8302 25.119 245.7247 25.1429 245.2408 25.2126 244.9188 25.2647 242.6146 25.2985 241.8181 25.5295 238.8399 26.1273 227.6364 26.1129 226.7412 26.2027 226.3055 25.9216 224.9676 26.0579 224.0724 25.9092 222.9437 25.8849 222.7595 26.1835 221.8845 26.3213 221.4805 26.3499 221.3968 25.4963 214.6496 23.7801 201.061 23.7695 200.9765 22.827 192.2752 21.9156 183.8494 21.8085 182.9315 21.7571 182.6035 21.6463 181.5816 20.6371 172.7084 18.5869 155.2492 18.4989 154.6324 17.8615 148.6687 17.8035 148.1254 17.6387 146.8472 17.0187 141.8321 16.9361 141.1444 16.8183 140.0022 16.7849 139.7673 16.7316 139.2472 16.4787 137.0984 16.2871 135.2733 16.1235 133.8265 15.8545 131.3806 14.4894 120.2242 13.8077 113.7708 13.81 113.6617 13.8142 113.6433 13.7751 113.3969 13.5779 111.8174 13.5374 111.4831 13.0555 107.5087 13.0341 107.4309 12.5212 103.086 12.3061 101.3015 12.1373 100.13 12.019 99.1077 10.3899 85.2619 10.3692 85.0606 9.7797 80.2854 8.5539 70.3431 8.3329 68.422 8.3296 68.3932 7.9479 65.0954 7.8214 64.032 7.1915 58.6252 7.1896 58.6107 7.1153 58.0575 6.7712 54.8198 6.7054 54.2726 6.6789 54.085 6.5575 52.8123 6.2951 50.9223 6.3 50.8167 5.3832 42.6304 5.1867 40.8741 4.5107 34.3881 4.2364 31.7535 3.4095 23.4165 3.1124 20.5209 3.0243 19.8901 2.6531 16.5688 1.8385 8.6828 1.5494 5.7502 1.3519 4.0076 1 1.1329 Z"/>
</g>
</svg>