<?xml version="1.0"?>
<svg xmlns="http://www.w3.org/2000/svg" version="1.2" baseProfile="tiny" width="800" height="931" viewBox="0 0 800 931" stroke-linecap="round" stroke-linejoin="round">
<g id="cb_2018_us_state_5m">
<path d="M 15.0348 697.4281 15.3187 696.9646 15.6054 695.9765 15.7916 695.5523 17.0529 693.763 17.5928 693.1316 17.7543 693.1252 18.0185 693.2592 19.3574 694.4709 19.9741 694.5121 20.7442 694.6861 20.9537 694.7571 22.2608 695.1218 23.4459 695.222 23.5253 695.2295 27.0196 695.816 28.9709 696.2987 29.3428 696.2778 29.3543 696.2772 29.3386 696.1165 29.492 695.3597 39.977 691.9322 41.656 691.9568 41.4842 690.289 41.0511 689.1353 40.9807 688.6991 41.0999 687.7912 41.1497 686.3747 41.2854 686.003 41.5594 685.55 42.5182 684.7008 42.7524 684.3969 42.8478 684.0568 43.4726 683.1335 44.2038 682.3414 46.0645 681.4631 46.1399 681.4314 46.4413 681.2829 49.0073 678.8394 49.9842 677.8117 50.5846 672.9856 50.5808 672.2698 50.5819 672.2325 51.0356 668.5764 51.0895 667.5882 51.0073 666.9754 50.9045 666.7362 49.6691 665.4823 49.2818 664.9759 48.9788 664.2058 48.7476 663.0624 48.7802 662.7734 49.1085 662.2065 49.7331 661.4736 50.1909 660.8033 50.4411 660.2648 50.6465 659.6745 50.7285 658.966 50.7023 657.955 50.5383 657.0629 50.2794 656.7673 49.5773 656.5666 48.9876 656.7954 48.8576 657.0532 47.8479 657.3706 47.6419 657.3748 47.266 657.0544 47.1028 656.6446 46.9236 655.69 46.7554 653.8236 46.4717 651.7852 46.0838 650.5904 45.6645 649.6219 44.9807 648.5497 44.5082 648.035 44.2963 647.8578 43.8087 647.4499 43.3417 647.2769 41.3182 646.8169 39.3068 646.6686 36.7947 646.1629 36.3147 646.1623 35.8819 646.3403 35.4427 646.7897 34.9633 647.4803 34.6542 647.6813 34.2686 647.7871 32.7285 647.8755 30.3067 647.5114 29.3603 647.1185 29.0252 646.8446 28.2565 645.5195 27.5529 644.4751 27.2777 644.2047 26.6915 643.8594 26.2684 644.1963 25.3975 645.7474 25.0007 646.2716 24.7211 646.4527 24.3814 646.4415 24.0123 646.2284 23.2466 645.5396 22.8748 644.8893 22.7042 643.9638 22.8605 642.3941 21.1916 640.0899 20.9254 639.2402 20.9145 638.7405 21.0292 638.1413 20.977 637.9491 20.5034 637.6489 20.2213 637.5685 19.3289 637.5182 18.8451 637.3919 18.6103 637.2036 18.4427 636.7179 18.4627 635.6846 18.7359 634.402 19.1171 633.036 20.1369 630.2183 21.1022 629.1574 21.5217 628.4656 21.903 627.5093 22.2423 626.361 22.658 625.6703 22.7604 625.1133 22.5855 624.0023 22.7752 623.1879 23.2449 622.0943 23.3281 621.4485 23.3642 621.0102 23.0111 619.1366 22.9517 618.5036 23.3523 617.309 23.7141 615.9462 23.7448 615.314 23.6399 614.9216 23.1694 614.124 22.5595 613.3512 21.6968 611.6374 21.6861 611.4447 21.8757 611.1992 23.7824 610.0102 24.124 609.5465 24.0908 609.2235 23.5059 607.6214 23.0485 607.0511 22.5345 606.6357 21.1777 605.9802 20.0397 605.5977 18.9119 605.3305 18.0104 605.0065 17.502 604.6928 17.2908 604.5071 16.2754 602.1311 16.2834 601.8691 16.4714 601.5962 17.3583 600.5837 19.1481 599.2503 19.5473 598.8028 19.9391 598.1048 20.5702 596.6135 21.0403 594.1075 21.042 593.4324 20.9439 592.6824 19.8894 590.1216 19.955 589.4692 19.9233 589.1566 19.7816 588.8901 19.0944 588.1977 17.8837 586.4419 17.5717 585.8503 17.547 585.5695 17.5863 585.4087 17.7914 585.1727 18.3104 584.9664 19.5578 585.1085 20.8082 584.9614 21.3685 584.5612 21.4968 584.378 21.5473 584.0574 21.6681 583.8866 22.73 583.4586 24.6442 583.4584 26.7313 584.3809 27.4867 584.4221 27.9377 584.3195 28.8016 583.8369 29.9351 582.8936 30.7152 582.0327 31.0832 581.1589 31.8084 578.8928 31.69 577.7569 31.7647 577.4208 33.253 575.1441 33.9018 574.499 34.7688 573.4529 35.0523 572.9841 35.4126 571.9593 36.233 570.5475 36.6979 570.0694 37.7734 569.4455 38.691 569.2962 39.2732 569.0394 40.4735 567.8458 40.5365 567.5972 40.5262 566.6067 40.7364 565.5689 40.8243 565.3926 43.1692 563.7187 45.5808 562.1953 45.6158 561.9591 45.3011 561.3321 44.1533 559.4497 44.1141 559.3887 43.578 557.5011 43.5849 555.7375 45.208 553.295 45.5446 552.9484 45.8236 552.5447 45.8633 552.0706 45.716 551.6861 45.4337 551.3103 45.2178 550.658 45.2129 549.8976 45.4098 549.4596 45.6338 548.9908 45.6544 548.2627 45.5406 547.6258 45.3952 547.1781 45.2796 546.6045 45.2649 546.1922 45.5417 545.725 45.7376 545.3186 45.9027 545.07 45.9862 544.9139 46.0197 544.6615 46.0023 544.3441 45.9032 544.1194 45.7778 543.8941 45.6017 543.6039 45.4205 543.2741 45.2592 542.7678 45.2066 542.1118 45.3852 541.4412 45.7493 540.8898 46.2828 540.3832 46.9524 539.9786 47.875 539.5461 48.8893 539.2908 50.061 538.6904 50.1726 538.4399 50.4223 536.9003 50.3565 535.8353 50.1524 535.0576 49.5935 534.5437 49.3503 534.148 49.1607 533.5756 48.8162 533.1634 48.3536 532.8843 48.0806 532.5386 48.6762 531.3512 48.9972 530.5832 49.2243 529.8294 49.2684 528.9513 49.2162 528.2827 48.9487 527.0556 47.7351 523.686 47.3311 521.8565 46.3246 519.2972 46.4508 519.1002 47.0662 518.6624 47.3487 518.1719 47.4676 517.6281 47.4116 517.2349 47.0477 515.9919 46.7743 515.4465 46.2685 513.8883 46.3143 513.2865 46.4555 512.7721 46.6943 512.3823 47.003 512.2081 48.0467 512.2963 48.3387 512.2201 49.5883 511.3347 49.8322 511.1001 49.9603 510.7372 49.9414 509.5899 49.822 509.282 48.7493 508.2709 48.2172 507.7588 48.0506 507.3879 47.9573 507.1108 47.9154 506.8046 47.9476 506.5615 48.0817 506.2907 48.29 506.0831 48.65 505.8054 49.0303 505.63 49.3401 505.3871 49.443 505.1984 49.4614 504.8732 49.3856 504.4968 49.009 503.6702 48.1017 502.5945 47.1863 501.7917 46.7836 501.5511 46.0783 501.1391 45.9126 500.7378 45.8748 499.7317 46.8558 497.6091 47.7955 496.3608 48.6379 495.9792 49.2591 496.1711 49.4851 496.141 50.8161 495.4396 51.4935 494.6345 52.9215 493.2563 53.1598 492.8994 53.2743 492.5047 53.398 492.3318 54.1628 491.8366 54.8242 491.2645 55.2798 490.4872 55.5184 490.3978 56.0351 490.3607 56.2024 490.2174 56.3338 489.9005 56.3251 489.4811 56.0226 488.6097 55.9914 488.2637 56.0404 487.9692 56.2724 487.7045 56.5819 487.59 57.1367 487.5838 57.766 487.3391 58.6455 486.7752 59.1033 486.2728 59.4255 485.746 59.7334 484.8603 59.9424 483.2814 59.8892 482.4907 59.5048 481.2401 59.4124 480.6486 59.4398 479.9824 59.7271 477.6961 60.0668 476.433 60.27 475.1886 60.3828 475.0228 61.1257 474.3288 61.3958 473.6412 62.1904 472.6138 62.8291 471.9502 63.4107 471.575 64.1926 471.35 64.8128 471.3487 66.2625 471.6446 67.8189 470.7226 69.1675 470.5094 69.5471 470.3469 70.3954 469.5527 70.9695 468.4489 71.4325 468.0217 72.1106 467.8215 73.7208 467.9339 75.2902 467.5309 75.8112 467.2383 76.995 466.2666 79.7083 462.753 80.4685 462.1516 82.0986 461.9296 83.0351 462.271 84.9569 461.7296 86.3242 460.8186 86.809 460.2419 88.3085 459.6769 88.6784 459.3698 88.9819 458.556 88.8908 457.2667 88.9886 456.9641 89.2391 456.7265 90.3249 456.1304 90.8339 455.7214 91.3237 455.0861 93.7314 452.6395 95.4988 451.1959 95.7273 450.9496 95.7936 450.7581 96.0243 450.3109 96.1937 450.028 97.0914 449.6551 97.3774 449.3324 97.4665 449.0598 97.5745 448.7623 97.7568 448.4645 98.0488 448.2752 98.433 448.2565 98.9053 448.2889 99.7447 448.1016 100.0659 448.1 100.8373 448.1331 101.2314 447.8557 101.4525 447.4982 101.4891 447.0305 101.4536 446.6085 101.219 445.7186 101.1793 445.2862 101.3289 444.6668 101.0483 443.397 100.9203 442.2046 101.1252 441.3779 101.1191 441.003 100.7732 440.5552 98.6288 438.5508 97.1548 434.9771 96.6334 434.0711 96.1039 433.3509 95.5453 432.8664 94.9604 432.4922 94.2217 432.1894 93.114 431.304 91.1939 431.0774 89.5477 430.4706 89.0784 429.9698 88.4933 428.6881 87.0524 427.1811 86.6067 426.7687 86.0646 426.43 84.5541 424.5564 84.1279 424.3563 82.4366 424.204 81.5451 423.8223 81.3002 423.6063 81.098 423.3285 80.904 422.8639 80.8682 421.8008 80.5334 421.174 79.7253 420.2676 78.2395 419.2613 77.3378 418.7301 76.3921 418.4729 75.8168 417.1435 75.5167 416.6802 75.205 416.3523 74.6388 416.1089 74.237 416.097 72.4258 416.3256 71.4245 416.6205 70.0333 416.7192 69.7587 416.5712 69.3583 416.1392 68.3366 414.8804 68.253 414.4565 68.2894 414.2077 68.8194 412.8526 69.0899 411.9394 69.1178 411.6391 68.9677 409.8348 69.0899 408.7185 69.234 408.1531 69.7106 406.8517 69.7386 405.3442 69.4463 403.1795 68.3281 400.9832 66.3495 396.5746 64.096 394.7035 63.1573 392.8768 63.1761 392.2056 63.1348 392.0365 63.493 391.6621 63.7909 391.4065 63.9336 391.1661 63.9872 389.8419 63.4095 389.1418 62.0862 387.9919 61.7693 386.5592 61.7585 386.3371 61.9545 385.2463 61.8171 384.5416 61.4583 383.8763 60.7733 383.0598 60.491 382.5785 60.4748 382.1133 60.3978 381.7179 60.5308 381.0163 60.5404 380.8282 60.5192 380.5416 60.4392 380.2533 60.2266 379.8082 60.154 379.5027 60.0909 379.0638 59.9543 378.7025 59.238 377.4011 58.8516 376.5078 58.5193 374.7695 58.4751 373.8229 58.2438 373.1964 58.098 372.9313 57.8262 372.7606 57.3441 372.6572 56.7268 372.3911 56.0958 371.8728 55.5593 370.9186 55.4231 370.7752 54.9188 370.3927 53.9286 369.827 53.0106 369.4194 52.1775 368.8789 51.6049 368.1392 51.4065 367.7158 51.021 367.1697 50.5026 366.5313 49.1 365.4639 48.241 364.6725 47.4885 363.8227 46.7221 362.6601 45.1653 359.2754 44.7439 357.3923 44.5379 355.8256 43.9644 354.0421 43.2456 352.4599 42.5364 351.5437 41.4539 350.4978 40.9826 350.1226 38.9277 348.8694 38.3983 348.3857 37.5286 347.2794 37.0658 346.1976 36.97 345.8496 36.8099 344.0965 36.8324 343.5414 37.0363 342.5535 37.7042 340.6014 37.7702 339.8537 37.4575 338.3124 37.472 337.761 37.643 336.7827 38.0094 335.4775 38.0287 334.7665 38.0319 334.4775 37.814 333.4092 37.4143 332.1545 37.4071 331.1364 37.5106 330.5006 38.1966 328.6046 38.3423 327.7338 38.3472 326.7965 38.2627 326.3279 37.8225 325.1522 37.4312 324.0052 37.3092 322.0823 37.4988 320.812 38.1405 319.3251 38.8841 318.1817 41.6815 315.9415 42.1179 315.091 42.2342 314.3819 42.0209 313.3559 40.941 311.9737 39.7163 311.0217 37.0445 309.6681 36.5472 308.7763 36.8884 308.1278 38.8731 306.1665 40.2274 305.6578 42.997 305.8346 44.528 305.4419 45.7817 304.6583 46.6007 303.0528 47.1428 299.0947 47.2862 295.7622 46.9856 292.9584 46.6495 292.0818 45.9845 291.4511 45.6046 288.1258 45.7042 286.7958 45.288 282.8167 44.0769 277.1331 44.4253 272.5241 43.45 267.8647 42.5795 265.3119 40.6931 258.6494 37.4868 255.3425 36.2183 252.8421 35.9293 251.9749 35.7677 249.1347 34.9766 246.6851 34.3877 245.3551 34.2324 243.6762 34.5665 241.4815 35.0402 240.7771 36.4937 239.7428 37.2009 238.784 37.3665 238.152 37.3103 237.8237 36.9534 237.3393 36.7459 236.3204 36.7054 233.3468 36.3541 231.0682 36.4395 230.605 37.2767 229.4767 38.0306 227.8497 38.2166 225.6995 37.6223 224.3261 35.231 220.5958 33.6518 218.9274 33.6402 216.7587 34.7426 214.5872 34.9918 213.4025 34.6673 212.7559 33.2535 211.7659 32.3441 210.7583 31.8244 209.5829 31.8546 209.0449 33.0275 205.4713 33.3539 201.8393 32.6671 199.679 33.1064 196.2465 31.4433 193.5829 31.7549 192.9391 32.5975 192.2462 33.7378 189.6652 33.6617 189.1431 33.2562 187.5795 33.2824 186.7495 33.5909 185.7016 35.7167 184.3877 37.3544 184.1431 37.7334 182.5699 33.5024 178.0352 32.468 176.2824 32.6803 173.7173 31.6367 172.5997 29.8677 171.4507 29.6427 171.0351 30.0824 169.0278 29.899 168.0599 28.5635 165.8187 28.196 164.266 28.3762 160.7712 28.4555 160.213 28.7709 159.6719 29.2048 159.213 30.05 158.319 30.2749 157.2964 30.1954 156.7795 29.7067 156.0518 29.0469 155.6752 28.9037 155.1561 28.9496 154.722 28.9789 153.8124 29.4851 152.9966 29.5706 152.3263 29.0421 151.1145 28.6997 150.3294 27.329 148.8329 27.157 148.4748 27.1696 147.5664 27.4492 146.9972 28.3466 145.9962 29.8232 144.8395 32.3268 144.3742 33.318 144.3953 39.0629 143.0015 39.5567 142.5936 39.9655 141.9179 43.7768 139.0663 44.2786 139.2925 45.0201 140.7647 45.6933 141.116 46.823 140.521 48.3196 139.2337 51.6832 137.7798 55.1419 137.7759 59.6219 138.1154 60.2686 138.5712 60.5296 139.011 60.489 139.5348 60.3904 140.335 60.2769 140.7949 60.311 141.3208 60.4771 141.6036 60.7715 141.7663 61.5642 141.9433 62.7685 141.725 65.0376 140.2534 65.9 140.1316 66.5886 140.332 67.2154 141.6329 67.8101 142.3542 68.0779 142.4335 70.6874 140.8186 72.0781 139.3131 72.688 139.0862 73.597 139.0921 77.9722 139.9067 79.0977 142.0381 82.3995 145.7559 83.5076 146.1969 86.0845 150.0302 86.4051 151.2732 86.1065 151.8516 85.2511 152.5917 84.9843 153.1577 85.0406 153.7494 85.2362 153.9716 89.6439 156.0151 90.8568 157.7845 91.3455 158.8556 91.8025 159.4065 93.1616 160.3797 94.9643 161.346 95.6902 161.4092 98.282 161.2596 101.1172 160.4535 103.1984 159.4191 104.5654 159.4393 106.1763 160.1125 106.4966 160.0061 106.9776 159.4548 108.3518 157.3223 108.5089 156.4281 108.4021 155.3844 108.6012 154.3598 111.7012 148.5998 111.7569 148.313 111.3392 147.6642 110.596 147.0168 110.504 146.7258 110.635 145.9027 110.9485 145.4174 112.269 144.5881 113.2967 144.5642 113.7446 144.3339 115.278 140.661 118.1852 134.8084 119.2384 133.4135 121.0306 132.6883 121.2533 124.3391 121.2275 123.466 121.1554 120.4797 121.2027 117.0978 121.5169 112.8855 121.4733 111.2318 121.9769 100.5524 122.1881 92.0857 122.2275 87.1123 122.0764 82.7783 122.4235 63.0165 122.3731 62.3845 122.4514 57.2813 123.2226 26.8051 123.2227 26.8029 123.7834 8.1128 123.8831 1.1603 134.9171 1.481 134.9169 1.489 188.0684 2.5974 196.304 2.7501 217.4509 3.1188 265.1899 3.8273 273.9622 3.925 283.0487 4.0202 311.6981 4.2795 318.3238 4.353 320.1338 4.363 320.7499 4.3792 320.9827 4.3806 343.1041 4.4909 344.5718 4.5181 467.7982 4.7815 468.7 4.7792 468.7459 4.7765 475.9605 4.8335 485.3389 4.9018 488.3945 4.7917 504.1921 4.7765 512.957 4.4703 554.1377 4.0566 570.436 3.8243 570.4476 3.874 573.8499 3.8356 586.7335 3.5696 588.0103 3.6689 590.7224 4.5473 649.1859 3.6682 651.9111 3.6418 651.9379 3.7263 651.9385 3.7285 668.233 3.3743 700.8219 2.8127 717.8057 2.3417 732.6771 2.0182 733.0925 2.0112 747.1584 1.6747 747.404 1.673 748.0324 1.6551 750.1786 1.592 751.8819 1.5655 758.7426 1.4031 776.4599 1 776.587 5.8256 776.5861 5.9264 776.98 21.2338 776.9784 21.3006 778.4927 77.9289 778.6116 82.3923 779.3556 112.5851 779.8886 134.3111 780.2269 144.8692 780.6858 163.5235 780.6872 163.5827 781.0097 176.0557 781.0042 176.0618 781.1629 182.1218 781.2052 183.5774 782.2913 226.5424 782.3008 226.9122 782.5603 237.9795 782.5645 237.998 783.2956 267.8202 783.401 271.2235 783.5306 275.4108 783.8692 286.356 784.1906 298.5185 785.1177 333.7244 785.1182 333.7408 785.6359 355.1501 785.7556 357.4894 785.7507 359.8163 785.9106 362.193 785.8736 364.5445 786.6599 395.8421 786.8911 405.1043 786.8918 405.1304 788.9253 490.4039 789.5127 510.8074 789.836 526.6155 789.9632 532.8546 790.4937 551.6183 791.274 586.7608 791.5133 592.4261 791.4813 592.8199 791.471 593.3713 791.5044 593.9764 791.5168 594.0248 791.8904 612.8323 792.0864 619.5398 792.0867 619.5512 792.3861 631.1232 792.3877 631.1944 792.5797 638.4805 792.5984 638.6411 792.6131 642.316 792.6134 642.4804 793.8148 689.9117 793.8157 689.9482 794.0759 703.6799 794.0885 704.2431 794.1018 704.8405 794.1213 705.648 794.2572 711.2505 795.1273 747.2595 796.3464 802.2882 796.3645 803.1073 796.5206 812.2312 796.595 814.5999 797.147 837.9037 797.1584 839.4389 797.1797 842.3219 797.3538 847.6934 797.3485 850.0151 797.9727 876.1027 798.398 898.4582 798.3939 898.4605 798.4222 901.6432 799 925.6939 767.1595 926.2196 690.3265 927.7497 666.4983 928.2956 646.99 928.4558 602.4168 929.2127 555.6547 929.5307 527.0397 929.9666 516.693 930.0142 509.5926 927.3194 475.9663 914.8541 448.982 904.7782 440.2205 901.5345 390.6781 883.0634 353.6756 869.2554 337.1944 863.1164 335.7097 862.639 332.4333 861.3464 267.7783 837.243 232.0732 824.143 219.4952 819.1638 203.4703 812.9191 181.5553 804.3405 146.2039 790.5732 141.9654 788.8463 77.7699 763.6771 43.6471 750.3165 1.0375 733.6546 1 733.171 1.2442 732.7177 1.4632 729.0045 3.7866 724.4849 1.3053 722.1481 3.4393 717.5064 2.221 713.6307 3.8819 712.4647 6.0145 711.6107 8.481 708.5558 13.4547 700.6329 13.5152 700.4989 13.5313 699.7444 14.5805 698.3438 15.0348 697.4281 Z"/>
</g>
</svg>