<?xml version="1.0"?>
<svg xmlns="http://www.w3.org/2000/svg" version="1.2" baseProfile="tiny" width="800" height="932" viewBox="0 0 800 932" stroke-linecap="round" stroke-linejoin="round">
<g id="cb_2018_us_state_5m">
<path d="M 439.2914 841.1117 439.666 841.1235 440.7171 841.515 444.0929 841.4509 445.2261 842.0289 447.7303 843.8047 447.7763 843.9713 448.9278 844.1211 449.5719 843.9013 452.1882 845.7724 454.0039 845.9121 457.4113 847.5662 458.3677 847.6128 458.5351 847.8229 458.8175 849.6472 462.1789 853.4671 462.8696 854.0293 463.3571 854.7188 463.9499 856.2262 463.8055 857.1978 462.8601 858.1061 462.1716 858.3162 460.6938 857.7342 459.2872 856.767 458.1029 856.3198 455.801 856.2663 452.7727 856.5229 451.4412 856.2278 450.6971 855.8231 449.33 854.0761 448.7555 852.8606 449.2453 851.5611 449.5672 849.957 449.0124 847.4452 448.6946 846.698 447.4501 846.2817 446.476 846.4696 446.4446 846.2106 445.8711 845.6648 444.7132 845.2991 442.974 845.4334 442.5875 845.3435 441.9724 844.865 441.5586 843.9999 440.0681 842.1674 439.4773 841.9143 439.2394 841.2643 439.2914 841.1117 Z M 439.5077 884.7192 440.4459 884.2269 441.9942 884.4053 442.5023 884.8692 442.8805 885.2784 442.8795 885.8905 443.3298 887.0897 444.9192 889.5457 445.8175 890.5124 448.5119 894.098 449.4673 895.0918 449.9831 895.3963 451.505 896.4372 452.656 897.7974 459.019 903.1956 460.3914 904.8662 460.147 905.3226 459.8165 905.0723 458.2149 904.6413 457.6057 904.5726 457.0166 904.7112 456.4699 905.0727 454.4889 907.021 454.172 906.5534 454.2574 906.4118 452.884 905.0902 450.3041 903.0567 449.3295 902.7911 448.6338 902.1181 447.7468 900.4772 447.6461 900.2036 447.7154 899.7209 446.2672 898.0879 446.274 897.8623 445.3372 896.8201 444.0449 893.0434 443.2333 891.8101 442.1868 890.7198 441.0527 886.919 440.2998 886.2366 439.4379 886.3102 439.5077 884.7192 Z M 402.052 840.0693 404.4713 839.4764 405.2541 841.0192 404.8762 842.9556 402.6498 843.5477 401.5783 842.3925 402.052 840.0693 Z M 371.7655 787.7132 373.982 789.1525 377.1579 787.9933 378.5072 788.6636 377.2586 790.4931 374.9479 791.0743 372.3468 790.7895 369.7446 789.0613 371.7655 787.7132 Z M 359.7382 860.9491 361.1193 861.6809 361.6751 861.4566 362.2963 860.7838 362.6069 860.7837 363.4977 860.3546 363.89 860.3349 365.7784 861.5146 367.5983 862.3774 368.9934 862.8381 369.5865 863.2842 371.9525 865.8657 370.7504 866.7426 369.0777 867.1107 368.1532 867.1028 366.1365 866.6116 365.2388 866.3722 364.7599 866.0105 362.4409 865.3603 360.8794 863.9914 360.8247 863.7388 360.7942 863.4843 360.416 862.9877 359.7382 860.9491 Z M 332.2168 782.9565 332.7269 782.9362 334.4846 783.397 337.2233 783.5586 339.766 784.6896 340.3411 785.3548 341.2252 785.4423 342.6865 784.9451 344.2305 785.1646 344.607 785.1344 344.8012 784.9606 345.4626 785.005 346.761 785.7318 347.8166 785.8697 348.9386 786.325 349.5816 786.8712 351.0472 788.6185 354.998 789.2704 356.4892 788.9506 357.0662 788.4836 357.7101 787.4781 357.3448 787.1183 357.3092 786.9128 358.6059 785.7153 360.2122 785.6686 360.7558 785.3426 363.7607 786.5431 364.4869 787.2158 364.3954 787.4126 363.5332 788.1251 363.0119 788.219 362.72 788.5026 362.2475 789.6021 362.3454 790.0267 361.7456 790.7733 361.2599 790.9967 360.0302 790.9497 358.8495 791.5638 358.3082 791.671 356.5082 791.8048 356.3434 791.6327 354.1877 791.7481 352.9622 791.9319 350.7486 793.2625 349.3827 793.5577 348.9434 793.9235 348.7535 794.312 348.2254 794.4922 346.4618 794.0695 345.8559 794.0798 345.2304 794.5222 342.1665 794.1518 338.3731 793.4174 335.8946 792.4297 335.5964 791.9033 335.1169 790.433 334.9685 789.6504 335.1611 789.3719 335.6199 788.2165 335.6702 787.381 334.3385 786.0641 332.448 784.8052 331.8753 783.7282 332.2168 782.9565 Z M 305.5886 790.1623 306.3004 789.613 307.0035 789.3698 307.7097 789.3523 308.7447 789.8196 309.7728 789.9606 312.0827 789.592 313.3561 788.6332 313.6853 787.9808 314.2762 787.8729 314.6416 787.8642 316.323 788.4818 318.3385 788.4995 319.6837 788.0512 320.5646 787.4036 320.6328 787.1292 320.9841 786.8027 321.1892 786.7658 322.1481 786.9587 322.0825 788.0307 321.7734 788.3798 321.5602 789.1495 321.6765 789.4852 321.8623 790.4522 322.2863 790.9908 323.5513 791.8714 324.7265 792.4297 325.3188 792.4664 326.9013 792.0444 327.3419 792.131 327.2523 793.4443 327.4947 794.7075 327.9556 795.3237 328.0246 795.9138 327.7456 796.0958 325.5337 796.176 324.1725 796.6757 321.7989 798.3002 321.6816 798.4921 321.6567 798.6725 321.5693 798.7904 319.2858 799.3319 317.5971 799.4231 317.0364 799.7685 316.7376 800.2695 315.7069 800.5968 311.8944 798.2908 311.0825 797.4163 310.2193 795.4867 310.0183 795.2351 309.5116 795.0418 309.3943 794.5829 308.6511 793.0675 307.4387 791.4304 305.4985 790.4137 305.5886 790.1623 Z M 289.2722 786.5649 290.4187 786.1338 291.7426 785.1483 292.0269 784.8711 292.347 785.0781 292.9687 785.3207 293.5698 785.351 293.9991 785.1785 295.3596 784.1495 295.8008 783.6533 295.8221 783.3183 295.6961 782.9566 295.851 782.8059 296.3363 783.1429 296.9142 784.4951 296.4816 784.8268 296.6135 785.3731 297.5552 785.7383 298.8356 785.503 299.8127 786.2059 300.2832 786.7372 301.1691 788.0136 300.9712 788.2465 299.956 788.4662 297.4733 788.3209 296.8547 788.5304 296.641 788.8101 295.2493 788.4324 292.4875 787.0973 292.013 787.0884 291.7028 787.4073 291.0204 787.745 288.8575 787.4652 289.2722 786.5649 Z M 143.8692 412.9597 144.4858 412.8325 144.9781 413.6478 145.294 414.6032 144.9748 415.249 144.2328 414.8627 144.2291 414.3532 143.809 413.3631 143.8692 412.9597 Z M 138.6838 409.8299 139.3035 409.1328 139.9015 408.7721 140.6358 409.019 140.8325 409.8252 140.8053 410.7087 140.7877 410.7086 139.5761 410.6994 138.8992 410.384 138.6838 409.8299 Z M 23.8608 1 30.0383 1.4451 31.8685 1.5369 31.9189 1.5505 32.8165 1.5888 32.9008 1.595 39.088 1.9597 51.1844 2.5215 52.0627 2.6211 52.104 2.6258 52.6442 2.6869 54.4385 2.6686 58.8728 2.7787 59.3594 2.8174 64.0205 3.1866 66.3936 2.8309 71.6128 3.014 73.5961 3.0195 74.1271 3.0578 75.2787 3.1408 75.5032 3.1553 75.5082 3.1505 80.1562 3.2343 83.987 3.6219 86.4665 3.7376 94.9289 3.6117 94.954 3.6113 97.7447 3.5633 100.4707 3.4153 101.1244 3.3221 105.6042 3.8613 106.9292 3.9595 108.4008 4.1991 115.9177 4.4693 119.3705 4.6391 120.6648 4.6221 126.1849 4.7337 132.5055 4.9397 138.1806 5.0588 147.885 5.0174 155.3693 5.2178 156.8076 5.1869 163.2187 5.5462 163.2352 5.5471 165.2946 5.6454 172.5372 5.8227 172.6018 5.8244 172.8748 5.8566 172.9662 5.8548 176.8427 6.1225 184.2115 6.4928 195.3585 6.86 205.4079 7.3165 205.6367 7.3265 206.7896 7.3704 207.7917 7.4157 214.6474 7.7305 219.047 7.8903 224.3248 8.0777 224.9005 8.0978 225.2368 8.1102 229.5121 8.1938 230.6622 8.2496 232.0945 8.3217 232.4424 8.2993 232.5407 8.2878 234.3148 8.2278 238.5907 8.3102 238.8427 8.365 247.6663 8.6197 249.9275 8.7887 254.2636 8.9884 265.5425 9.112 265.5748 9.1124 270.4568 9.1403 279.0524 9.2993 279.1775 9.3007 282.4491 9.3973 293.0638 9.4444 305.5973 9.6231 305.7816 9.6256 308.6572 9.655 316.2768 9.5614 329.3914 9.5835 329.5284 9.6425 329.4584 21.2986 329.4657 33.4786 329.3597 45.6601 329.3985 46.2575 329.2501 57.8436 329.0587 88.6454 328.9373 118.9671 328.9437 119.518 328.943 119.6697 328.9398 130.9871 328.9952 133.8079 329.0032 155.383 328.897 172.7623 328.8967 172.8197 328.8658 178.4537 328.8652 178.5583 328.727 191.8442 328.7014 195.239 328.6987 196.6396 328.6873 197.1709 328.6042 208.4283 328.3944 218.6902 328.2936 225.5869 328.301 225.6673 328.2294 230.1365 328.2109 231.286 328.0877 249.2147 327.9372 258.3705 327.9371 258.3773 327.8029 265.228 327.7596 269.5672 327.7068 270.9381 327.7064 270.9481 327.6981 271.1925 327.6978 271.2416 327.7074 273.3994 327.6918 274.6402 327.6306 279.5143 327.6287 279.8517 327.6931 285.6761 327.7504 290.8461 327.7995 295.2624 327.8759 301.8988 335.1968 308.4039 359.2653 329.8159 359.312 329.8539 359.4362 329.9647 366.4006 336.1564 366.4129 336.1679 369.7302 339.0748 369.7293 339.0747 375.439 344.2634 375.8889 344.6058 378.6994 347.0389 379.0835 347.3854 382.8517 350.7828 385.0209 352.6465 386.2509 353.7943 392.242 359.0753 394.6261 361.1734 396.8439 363.1491 397.9841 364.276 402.0112 367.7825 404.2554 369.872 408.2128 373.2435 410.3094 375.0893 415.2115 379.465 421.9625 385.5652 423.9194 387.2054 426.422 389.4069 433.62 395.9678 437.4763 399.2978 443.0008 404.2161 448.7014 409.3118 462.5144 421.6123 478.0933 435.4315 479.0675 436.3603 479.0636 436.3631 484.0986 440.7744 489.7008 445.9063 491.9574 447.6826 495.3641 450.7838 504.8705 459.406 507.3772 461.4626 515.2324 468.5852 518.4435 471.3543 521.6149 474.1858 521.6763 474.1749 531.5485 483.1023 540.297 490.9093 541.979 492.3029 548.2769 497.9192 550.9951 500.339 556.2137 505.0377 561.4823 509.6569 598.4049 542.5859 601.7283 545.5831 602.7495 546.4428 611.4899 554.3856 611.8485 554.6077 621.9906 563.6106 634.4913 574.7694 634.7849 575.0073 649.5365 588.1932 651.1619 589.6363 654.4364 592.4738 655.0033 592.985 662.7996 600.005 667.845 604.4264 669.5097 605.8734 671.2349 607.4543 671.2626 607.4797 671.3021 607.5136 672.9286 608.9283 673.0583 609.1022 683.3442 618.3176 690.5882 624.6957 691.1556 625.2938 691.282 625.3869 692.1515 626.1569 692.3551 626.3507 694.3945 628.1624 699.6047 632.7851 702.2833 635.1636 711.4537 643.3863 711.4967 643.4023 712.5969 644.3752 712.6765 644.4184 714.3359 645.9299 716.2352 647.5596 716.6408 647.9691 721.1393 651.9606 729.5882 659.5773 730.9788 660.7753 730.9867 660.7764 741.0148 669.7451 741.0798 669.8 755.3456 682.5551 755.6637 683.2348 755.7363 683.5101 755.7778 684.0693 755.7324 684.5956 755.4135 685.7597 755.382 686.1438 755.4345 686.7506 755.7322 687.4793 755.9127 688.1057 755.9245 688.2783 755.9467 688.7032 755.7902 689.4993 755.7347 690.091 755.7521 690.4205 756.0115 691.3243 756.0075 691.7734 755.702 692.9699 755.6273 693.5689 755.6401 693.901 755.8185 694.9385 755.8921 695.1414 756.219 695.7639 756.7896 696.3811 757.1279 696.6437 758.4117 697.2908 758.7102 697.4916 759.4047 698.0625 759.8706 698.5742 760.3737 699.4826 760.7996 700.518 760.9964 701.4421 761.3364 702.5443 762.4237 704.4864 762.9353 705.1423 763.4237 705.6123 763.9728 706.0422 764.8589 706.6102 765.1979 706.9656 765.4532 707.2723 765.5914 707.5151 765.9675 707.9282 766.4893 708.2098 767.0554 708.4081 767.672 708.6971 767.9905 708.9005 768.0784 708.9794 768.443 709.5221 768.8434 709.8003 769.2236 709.9288 769.5157 709.967 769.6857 710.0555 769.785 710.2064 769.9523 710.5686 770.0233 711.1308 770.3031 712.151 770.5753 712.6647 771.0633 713.4056 771.1617 713.6143 771.22 713.8729 771.2776 714.0515 771.4252 714.3065 771.4864 714.4744 771.5125 714.6443 771.5157 714.7569 771.4695 715.1817 771.534 715.4136 771.5655 715.6902 771.7563 715.9633 772.2028 716.4166 772.4478 716.7958 772.5628 717.2092 772.4974 717.869 772.5142 718.0009 772.7704 718.8395 773.6127 719.4605 773.9897 719.8497 774.02 720.6417 773.9463 720.7919 773.7809 720.9588 773.5851 721.1995 773.6176 721.2983 773.638 721.6994 774.283 722.7425 775.7132 723.748 777.0987 726.2794 777.8678 727.534 778.1434 728.8101 778.1973 729.7101 777.9744 730.5091 777.9151 730.8532 777.8946 731.5245 778.0685 732.5927 778.066 732.7731 777.9476 733.3306 777.6954 734.1642 777.6853 734.3143 777.755 734.5629 778.4225 735.2633 778.6812 735.5013 778.8517 735.5761 779.6757 735.4493 780.2583 735.2247 781.3264 735 781.5664 734.9875 781.915 735.1049 782.116 735.2851 782.3164 735.5466 782.7212 736.3109 783.2965 736.418 783.8584 736.6906 784.7905 737.2178 785.3141 737.7186 785.5428 738.0759 785.6139 738.7078 785.7511 738.9752 785.8845 739.1309 786.0405 739.2477 786.5893 739.4317 787.6036 739.4398 787.8669 739.5383 788.854 740.5812 789.1927 740.7566 789.4773 740.9806 790.4058 741.8084 790.8141 742.5437 791.117 742.8193 792.1257 743.1005 793.2796 743.1417 793.9806 743.6152 794.4346 743.7596 794.8003 743.954 795.1556 744.2155 795.5045 744.6188 795.8573 745.1333 796.9016 747.1911 798.272 748.2809 798.4988 748.5309 798.52 748.754 798.4365 749.2567 798.5682 749.9611 798.7945 750.7041 798.7343 751.0806 798.7781 751.3364 798.9592 751.8552 799 752.105 799 752.3856 798.885 752.6094 798.6633 752.794 798.2024 752.812 798.0112 752.8287 797.5201 752.9813 797.2374 752.9851 797.0095 753.015 796.8444 753.1422 796.7497 753.3285 796.6993 753.5111 796.6589 753.6779 796.5036 753.8842 795.9865 754.1504 795.8987 754.3272 795.7822 754.605 795.7517 754.7224 795.6271 754.8804 794.6418 755.8271 793.3218 757.4028 793.0597 757.8054 792.7756 758.0739 792.1567 758.4823 792.0186 758.6361 791.9745 758.8212 792.0887 759.5851 791.9457 760.0849 791.7397 760.286 790.873 760.696 790.6111 761.0633 789.8392 761.673 788.7198 762.0896 788.1462 761.9319 787.1857 762.1438 786.7608 762.5393 785.308 764.7656 784.6481 765.4025 784.3513 765.6023 783.4353 765.919 782.471 765.9307 782.0764 766.0831 781.8204 766.3603 781.5296 767.0461 781.0612 767.5607 780.8427 767.6761 780.0492 767.8689 779.1649 768.4943 778.2876 768.3888 777.9182 768.4198 777.4629 768.592 777.1338 768.844 776.7841 769.2706 776.3584 769.9216 776.2294 770.3445 775.819 770.7942 775.7595 770.8985 775.6962 771.65 775.5524 772.4192 775.4871 773.7955 775.5017 774.1939 775.5841 774.5418 775.871 775.2682 775.9394 775.7368 775.888 776.6878 775.7456 777.2306 775.578 777.5602 775.3285 777.8819 774.8307 778.2607 774.4671 778.4373 774.1369 778.468 773.9578 778.5514 773.8318 778.7204 773.8162 778.8982 773.8508 779.1029 774.0714 779.6073 774.096 779.8568 774.0323 780.052 773.9393 780.1456 773.6332 780.1929 773.4952 780.2578 773.2597 780.7432 772.8921 781.1163 772.4594 781.4486 772.3937 781.5577 772.3437 781.7985 772.2182 782.0228 771.4311 782.9136 771.0648 783.4263 770.3042 783.909 770.171 783.938 769.7919 783.854 769.3077 784.1224 768.8055 784.9119 768.319 786.2245 768.388 786.8221 768.5053 787.0531 768.9445 787.2641 769.1956 787.3879 769.7781 787.8216 770.3683 788.4182 770.6308 788.8923 770.6934 789.1129 770.6974 789.3076 770.6448 789.425 770.4715 789.5848 770.2529 789.7079 770.0513 789.8909 769.9368 790.0247 769.8694 790.1926 769.8614 790.339 769.9004 790.5194 769.9689 790.6799 770.0852 790.8928 770.4259 791.172 771.1117 791.722 771.197 791.8997 771.2611 792.5823 771.2015 792.8048 771.067 792.9564 770.3633 793.5448 770.1929 793.6045 769.567 793.6028 769.3911 793.7216 769.2668 793.9655 769.2063 794.2788 769.2067 794.6396 769.58 795.5432 769.7679 795.8549 770.042 796.5776 770.0935 796.8092 770.0477 797.139 769.902 797.4449 769.5555 797.7358 769.4894 797.8593 770.2069 799.3349 770.5318 800.4051 771.4099 802.3533 771.6257 803.0713 771.6875 803.4671 771.7016 803.9923 771.601 804.4525 771.445 804.9256 771.1447 805.662 771.3233 805.8546 771.6117 805.9983 771.8359 806.227 771.9752 806.5588 772.1382 806.7827 772.4948 807.0616 772.6522 807.5149 772.7403 808.1461 772.6622 809.0754 772.6072 809.2301 771.9367 809.6448 771.3441 809.8464 770.8142 810.149 770.4338 810.4226 770.1392 810.7504 769.9475 811.0966 769.8719 811.5048 769.9333 811.893 770.0527 812.1867 770.1757 812.3743 770.294 812.5387 770.379 812.6667 770.4484 812.7957 770.4733 812.984 770.4649 813.136 770.4223 813.233 770.3353 813.3891 770.2373 813.6407 770.0938 813.9326 770.1214 814.1774 770.2166 814.5135 770.3237 814.773 770.4208 815.1469 770.4419 815.5816 770.3299 815.8718 770.2326 816.1423 770.2704 816.595 770.4289 816.973 770.6143 817.1831 770.7197 817.4049 770.7178 817.6893 770.57 817.9433 770.3853 818.1662 769.5301 819.7002 769.6067 820.751 770.0125 821.8492 770.0386 821.8835 770.8087 822.9489 771.0248 823.307 771.0148 823.4494 769.6475 824.4742 768.3268 825.5855 768.2825 825.6948 768.2047 826.3232 768.2561 826.9126 768.2299 827.0638 767.5692 827.8331 767.234 828.0145 766.6941 828.1481 766.0817 828.5721 765.8265 828.8795 765.4021 829.7603 765.2341 830.3882 765.0866 830.6813 764.6177 831.3465 764.2605 831.7623 763.4774 833.1908 763.4483 833.3946 763.5707 834.0654 763.2418 835.4503 763.0624 835.9886 762.6367 836.5393 762.0042 837.1563 761.5113 837.4858 761.2472 837.5689 760.7951 837.5811 759.5093 837.1333 758.3684 837.2266 757.755 837.5332 757.6908 837.6408 757.6753 837.8342 757.6072 837.9495 757.2915 838.2151 756.5529 838.3636 755.8029 838.3396 755.503 838.4878 755.3915 838.6383 755.3754 838.736 755.403 838.902 755.6159 839.2391 756.4175 840.2259 756.8585 840.6048 756.9551 840.7566 756.9883 840.9413 756.9789 841.333 757.7239 842.8067 757.8165 843.2486 757.8463 843.6507 757.6801 845.1659 757.3718 846.0848 757.17 846.5195 756.9523 846.8054 755.9462 847.6865 755.4636 848.3327 755.3639 848.5043 755.3711 848.6607 756.0842 850.0263 756.2186 850.1265 756.5359 850.2886 757.0879 850.4377 757.7722 850.5419 758.4679 850.7143 759.3063 851.0386 759.6315 851.261 759.93 851.5783 760.3513 852.5039 760.3858 852.6946 760.2032 852.9874 759.1207 853.7882 759.0189 853.9436 759.034 854.0578 759.6259 855.0364 760.0245 855.4668 760.3411 855.9189 760.4214 856.1474 760.4318 856.5254 760.2779 857.3545 760.0933 858.0853 760.1574 858.4593 760.4527 859.5578 760.4511 859.8205 760.4307 860.2091 760.2004 860.8832 760.1241 861.3774 760.2787 862.0303 760.2429 862.367 760.0264 862.7985 759.8762 863.4987 759.6921 864.0867 759.4734 864.519 758.9461 865.1977 758.4657 866.925 758.3002 867.7569 758.1954 868.5338 758.2301 869.1501 758.352 869.4311 758.5005 869.5318 758.7945 869.5834 759.3287 869.5699 759.5004 869.6041 759.7963 869.7597 759.8361 869.8716 759.7948 870.234 759.8238 870.531 760.0209 871.024 761.1196 872.3146 761.0973 873.2568 761.2408 873.7995 761.4917 874.1686 761.9791 874.5414 762.2087 874.6503 762.4117 874.6404 762.5702 874.519 762.783 874.1876 763.2321 873.2217 763.469 873.0005 763.8339 873.1776 764.0102 873.3251 764.4766 873.9127 764.9945 874.6642 765.2065 874.8109 765.7883 874.9988 767.248 875.0976 768.1617 874.97 768.3868 874.8882 768.5619 874.7535 768.8164 874.319 769.0579 874.03 769.3077 873.903 769.5938 873.8799 771.1136 874.0587 772.3188 874.0489 773.5452 874.2242 773.8313 874.3044 774.1403 874.5235 774.2745 874.6187 774.5792 874.9021 775.035 875.5071 775.3286 876.0633 775.6135 876.7557 775.8744 877.9554 776.0588 879.0584 776.2085 879.618 776.3242 879.854 776.5626 880.0264 776.6852 880.0139 777.2724 879.7757 777.3383 879.6159 777.6793 879.4509 778.1067 879.5362 778.2742 879.6995 778.4122 880.2226 778.4733 880.8232 778.4563 881.249 778.3605 881.6105 778.2357 881.9432 777.9931 882.3646 777.654 882.8314 777.4838 883.1849 777.4775 883.3585 777.6666 884.0279 777.8818 884.4716 778.1353 884.7542 778.9278 885.4404 778.9998 885.5778 779.0763 885.9386 779.0886 886.5295 778.9826 888.7281 778.9837 888.7504 779.0181 889.1763 778.8771 892.0785 778.3411 892.7378 776.9219 894.3175 776.749 894.4206 776.7055 894.4431 775.6362 895.0566 775.2361 895.5638 774.9052 896.1438 774.8636 896.3509 774.7377 896.5432 774.2044 897.0954 774.0614 897.3785 773.9973 897.6063 774.0311 898.4519 774.0007 898.9981 774.0622 899.2544 774.372 899.92 774.5491 900.9043 773.5475 900.9715 767.4528 903.5223 767.3952 903.9803 767.4118 904.0752 767.4049 904.0761 767.1843 904.1066 765.9997 903.9144 763.8909 903.7353 763.8433 903.7348 763.1325 903.7328 762.3371 903.5793 762.2091 903.5473 761.7423 903.4812 761.3729 903.4867 760.5206 902.8306 760.3571 902.7637 760.2612 902.7753 759.9676 903.1775 759.296 904.3038 759.2039 904.5654 759.0772 905.1675 758.9288 905.4572 735.9598 908.456 697.9883 913.3625 650.3814 919.5326 645.5011 920.1706 644.7435 920.2694 643.8908 920.4208 636.9079 921.2884 609.8795 924.7833 602.7913 925.7345 584.2346 928.0841 583.9041 928.1256 578.0843 928.9415 576.6124 929.0502 570.011 929.9692 567.0199 930.3015 562.4114 930.9228 561.9191 930.989 561.505 928.8862 561.1273 926.967 561.1205 925.9917 561.1128 924.8785 560.7602 922.7721 560.5115 921.9693 558.7596 918.7382 557.9947 917.6557 557.028 916.7342 555.9788 916.1657 555.6641 916.0663 554.3263 916.2065 553.4485 916.6862 552.4563 917.8509 551.6522 918.0655 550.8392 915.0923 550.5871 912.5636 550.7269 910.6689 550.9411 909.9325 550.6721 906.6241 550.137 905.0575 548.463 903.2353 548.3284 901.5516 548.4032 901.2086 548.9847 900.3756 549.7203 900.6017 550.0653 900.2326 550.4202 899.561 550.695 898.3719 550.7579 898.1 550.4734 895.591 549.9155 892.5716 548.346 885.8441 548.0808 884.7065 547.002 882.5573 545.576 878.6995 545.0858 876.8613 543.9568 874.1236 541.0628 869.6456 538.63 866.3527 537.7544 865.3155 534.0784 860.04 532.0465 857.3628 529.0466 853.755 525.556 850.7629 523.5702 849.4876 521.5853 848.7831 521.5614 848.7384 520.5685 846.883 518.5857 844.5609 517.434 843.5887 514.217 841.584 513.837 841.7643 513.623 842.1128 513.6764 842.3653 511.7115 841.7665 510.7646 839.553 510.2848 839.0311 507.865 836.3978 505.9087 833.9754 504.5651 833.5319 503.5049 832.9755 501.3451 830.9362 498.3438 829.155 496.4602 828.4755 494.2291 827.9382 493.1083 826.5422 488.1755 823.2768 485.7766 821.1588 485.5671 820.9193 482.8654 817.828 480.8883 816.0238 479.8907 815.6194 478.6953 814.7785 477.2968 813.7943 476.1612 813.4129 475.3209 813.1305 473.8053 812.8304 473.3728 812.8898 472.8325 814.2497 473.1745 815.5233 473.2202 816.7848 470.8752 817.0075 469.2243 817.7814 467.1191 818.7676 465.6092 818.4609 463.9901 818.3625 462.3505 817.9448 461.8915 817.6664 461.0327 817.1452 459.2797 816.081 458.8032 815.6477 456.8067 815.2234 455.8699 815.7716 454.6762 815.1937 453.244 812.0164 453.6424 811.2992 455.1176 809.5054 455.9822 809.0948 456.1975 808.0088 456.1209 805.5208 454.4022 801.3446 453.6279 799.6283 451.933 795.8685 450.4273 793.0746 448.6073 790.4789 448.4853 790.3048 446.9602 788.5842 445.5954 787.4276 443.673 786.3743 441.7242 786.1134 441.5544 786.0906 438.7755 786.3717 438.2854 786.6327 433.528 786.4376 432.9563 786.5803 432.641 786.9956 430.4691 787.393 428.3459 787.0835 427.3289 787.1546 424.2192 788.211 423.924 788.4084 422.4769 790.2067 421.1338 788.9754 419.6013 787.6624 418.4406 787.0181 415.0751 786.5545 412.488 785.9235 411.6768 786.1692 411.1243 785.9817 410.3261 785.7107 408.4545 784.5844 406.894 783.996 406.2733 783.9714 403.6049 782.3383 401.4717 781.7671 400.973 781.6334 399.4656 780.8755 398.6816 780.7792 397.7471 781.249 396.0946 780.7159 391.3482 776.9372 390.1731 776.4046 389.5176 776.3679 389.0965 776.2522 388.3786 775.0634 388.1773 774.7301 387.4129 773.3583 385.793 769.7022 385.0692 767.6243 384.7235 765.8392 384.4351 765.2691 384.0331 764.4743 383.0374 763.6959 382.1342 763.9073 381.2528 763.6236 379.2754 762.1746 378.3269 760.8285 376.6148 759.3571 376.1766 759.1986 375.1704 759.5635 374.9927 759.4857 371.9754 756.0902 371.7091 755.8678 371.3199 755.8153 369.2889 754.0378 368.3494 753.8858 367.8984 753.7329 365.2848 752.8459 363.1627 751.948 361.3478 750.2 356.7187 749.4557 354.9439 749.9715 354.1537 749.8047 352.2824 749.9293 350.9672 750.2789 351.249 750.6894 350.677 751.1908 349.2789 751.9459 347.6412 751.894 346.3438 751.2077 343.088 749.921 342.3707 749.7629 339.0637 749.9293 337.6097 750.6863 335.9807 750.6028 331.8559 748.1328 329.3404 747.9897 328.093 747.0709 325.1877 745.5137 322.7105 745.2094 321.7542 745.3785 318.6979 745.5025 318.0039 745.3421 316.2998 744.5392 314.468 744.1882 311.054 744.4621 307.6699 744.4176 306.6605 744.6533 305.0669 744.7047 303.0341 744.6009 302.0646 744.3717 301.7321 744.4562 301.5164 744.7136 298.3228 745.4968 290.2078 746.1349 289.4422 746.559 287.8347 746.47 287.4373 743.8015 287.1396 743.2197 286.3299 742.3311 285.2407 740.2046 284.677 739.1035 283.6094 738.2783 279.0841 735.7232 276.9053 735.7287 276.6083 736.0273 275.7579 735.9734 274.5448 734.7677 273.922 733.3135 274.389 731.0363 275.6368 728.1124 277.5583 722.5074 277.6933 721.2836 277.6004 720.7862 276.5632 718.7245 275.6497 717.9949 274.7775 716.2439 275.9768 712.6038 276.5366 710.3627 277.0775 707.7856 277.064 706.2782 276.587 705.4367 274.7604 704.08 274.5403 702.736 274.1377 702.0487 272.8903 702.0292 272.2566 701.7352 274.0904 694.891 274.8351 692.1084 275.3812 689.1718 275.7027 686.3979 275.7485 684.7524 275.6638 682.4477 275.301 680.3073 274.6366 678.7548 274.1001 677.952 273.1999 677.3953 272.7573 677.5198 272.1927 677.4123 271.2503 676.6538 270.3087 675.618 269.8878 675.4161 269.0935 675.1335 267.4949 674.8719 266.3246 674.9233 265.8453 675.2195 265.6759 675.754 265.7274 676.6096 265.3745 676.6782 263.9069 675.7616 263.3521 674.8975 261.8287 674.1634 258.5454 672.2179 257.7995 672.0066 256.4671 670.1118 254.601 667.9172 254.6023 667.3198 255.2342 665.0003 256.0364 663.4125 257.0662 660.2051 257.4518 658.293 257.514 656.927 257.24 653.7685 257.0057 652.7654 255.8028 650.1177 254.8549 648.927 253.9823 648.2474 250.9051 648.4325 250.5728 648.3001 250.1731 647.7348 249.1017 647.088 248.5678 647.1942 246.402 646.9968 244.665 644.6353 242.5142 642.3602 241.9738 642.1423 238.7185 638.2639 236.8453 633.9087 236.2587 633.1759 235.4726 632.6162 233.6806 629.7168 231.9312 628.9302 231.4195 629.1563 227.0197 627.5236 225.3468 626.509 224.3553 625.7677 223.9992 624.2638 223.482 623.5314 222.8472 623.0338 222.0701 621.8937 222.0478 618.0606 221.3535 616.4028 220.781 615.047 219.6998 613.8461 218.8938 612.9505 216.4477 611.0171 215 608.9223 214.5191 607.8675 213.4346 607.3781 212.4475 606.6891 210.6875 604.8288 210.7912 603.7274 210.6296 602.99 209.9485 601.4635 208.9575 596.5105 207.679 593.5562 207.0213 592.9267 205.4335 592.134 203.7185 591.567 202.4659 591.3701 202.0789 591.0082 200.8828 588.5181 200.9856 588.1868 200.7189 587.0775 199.6284 586.3692 198.7272 584.8144 198.4887 583.643 197.9177 582.1877 194.0417 577.0794 191.1854 574.147 186.317 570.8795 184.9765 570.1825 184.1919 570.2913 183.6626 570.1488 182.6802 569.3797 181.9634 568.4934 181.7051 567.5357 180.7517 565.8158 178.9804 564.6742 177.9347 563.3043 177.4805 561.8267 177.6756 559.6196 176.7324 557.8516 176.9643 557.3067 177.0745 555.5515 176.9938 554.4031 176.8113 553.9485 176.1403 553.3315 175.923 552.3028 176.1636 551.2253 175.3856 548.4651 174.5111 546.6272 174.3091 545.7956 174.1977 545.3369 174.4124 544.238 174.4711 543.3078 174.0984 542.7724 174.0453 541.7874 175.2963 541.6933 175.5235 541.5009 175.092 538.0908 174.3214 537.4357 173.7652 537.3075 173.6151 537.655 173.1554 537.5971 171.9802 536.6979 171.5274 535.9903 172.1734 535.7852 174.5153 532.3924 174.7981 530.8497 174.9713 530.5766 175.5019 530.5691 175.9507 530.8151 178.532 533.3535 178.6003 534.0885 178.78 534.1223 179.9949 533.8491 180.8542 533.227 182.3366 531.4127 183.1759 529.9861 183.7488 528.7921 184.638 526.3052 185.29 523.2602 185.4844 519.7365 186.9668 514.5152 186.737 513.4154 185.4211 510.1113 185.3327 509.9142 184.0622 507.0767 181.4826 501.9096 180.1294 500.0576 179.0257 498.8861 178.1219 498.1694 176.3025 497.2242 175.5687 497.2155 174.6005 497.8363 172.9107 499.485 172.6685 499.4885 172.0539 499.0154 169.8461 498.3888 168.9816 498.601 168.6569 499.6682 166.859 499.8778 165.5862 499.8687 165.3904 499.8155 162.519 499.0353 159.8692 497.1052 158.7537 496.4975 156.3342 494.2202 154.8576 493.1521 151.3973 488.6043 150.7871 487.3056 148.9682 484.3975 148.3538 483.8348 147.3543 482.9192 146.7545 482.7278 146.0411 482.9711 145.4574 482.9659 144.9487 482.751 144.8197 482.4076 144.9862 481.4403 144.9427 480.9362 144.484 480.1243 143.2904 478.9666 143.1582 478.1784 142.773 477.2648 141.8492 476.4243 140.9734 476.2162 140.4829 475.7847 139.8852 474.9312 139.7912 472.6129 139.6683 472.0426 139.159 471.2857 138.9287 470.4346 139.001 469.7471 139.5782 468.0703 140.2566 463.4421 140.5937 461.1406 140.6961 458.9709 140.0898 457.4288 139.0542 455.6626 137.6021 451.3736 137.5008 448.8667 137.0854 446.9958 135.9146 445.2383 135.5733 444.9931 134.5097 445.5371 134.4422 445.5595 133.8906 445.7428 133.4737 445.4364 132.2062 442.8538 132.0353 441.2873 132.2868 440.5482 132.4299 440.4353 132.5339 439.842 132.2673 437.4961 132.3819 436.0816 133.6319 435.2404 134.0262 434.0303 134.3331 430.9199 134.2941 428.8511 134.2549 426.7707 133.8859 424.6368 133.6208 423.103 133.552 421.9533 133.343 418.4585 133.1802 417.5048 133.9112 416.7958 134.8688 416.8631 135.4249 416.6163 136.081 414.6611 136.6719 414.8904 137.1644 415.2985 140.1034 414.7698 140.1729 414.7697 141.531 414.7679 142.2321 415.3574 143.1765 416.8435 143.7422 422.3123 144.1792 422.5844 144.372 422.3347 144.5424 422.3712 145.1988 422.8911 144.7727 424.296 144.1112 424.0258 142.4645 424.8803 142.3219 424.9542 142.6673 427.7491 143.6481 429.4268 143.5179 430.383 143.3351 430.5697 142.5955 430.7395 142.6648 431.7978 144.2252 432.9647 144.9791 434.0113 144.7126 434.4514 143.8109 434.1045 143.5812 434.1617 143.1521 434.9489 144.5313 436.2704 147.8182 436.5273 147.9851 436.8843 147.9493 437.2352 148.6855 438.0569 152.0212 438.4094 152.8387 439.0729 153.3983 439.889 155.6745 441.8738 157.0393 442.0401 157.1254 443.4828 159.1286 445.3308 159.494 445.4482 160.1094 445.6459 160.5824 445.5148 161.3318 445.0233 162.4264 446.3874 163.0615 448.6594 163.6563 449.1594 165.0805 450.3559 166.5337 450.6224 167.3193 450.7663 167.404 450.7267 168.5435 450.1939 168.5891 450.1726 168.4567 449.9453 167.5313 448.3551 166.8353 446.8057 165.005 445.9463 163.562 445.1161 163.5629 444.7962 163.568 443.036 162.3607 439.8989 161.9615 439.6639 161.6952 439.2086 161.2022 437.7869 161.0173 437.1417 161.1776 435.93 161.1193 435.2884 160.7036 432.0125 160.0106 429.4017 159.9933 429.3366 159.4085 428.5204 158.7869 428.1191 157.4059 426.8324 156.9127 426.333 156.1578 426.2212 155.5702 425.5326 153.6695 423.8784 153.0007 422.5152 152.8601 422.1271 152.9387 421.6012 153.325 421.3563 153.8953 421.1109 154.0826 420.7789 153.2456 420.0241 152.4566 419.6642 151.5914 419.3769 150.769 419.147 150.1653 419.0358 149.3787 418.6006 148.2673 418.1371 147.4883 417.7101 147.3644 417.6421 147.3574 417.4263 147.326 416.4457 147.0335 416.085 147.2147 415.0982 148.0362 413.8102 148.5011 413.4717 149.3864 413.4335 149.5706 413.1829 149.6137 412.8899 149.8236 411.4621 149.1928 408.8834 149.2851 407.0459 149.0454 406.6227 149.0276 406.6026 148.2642 405.7358 147.4407 405.4235 145.7011 405.3721 145.2842 405.8078 144.8799 405.8278 144.0265 405.6743 143.4806 405.3699 143.2343 405.1705 143.1706 403.9524 142.8315 403.4941 142.3565 403.3518 141.4253 402.4595 141.1634 401.8403 140.2436 399.8953 140.2757 399.6723 141.3772 399.9297 141.6464 400.1939 141.8976 400.4903 142.5513 400.6601 143.1829 399.3116 145.0999 398.5694 145.5718 397.4272 145.5004 396.9964 145.2103 396.5885 145.0875 395.6567 145.1766 395.2113 145.5087 395.0612 145.8164 395.4835 147.2906 396.1381 147.9248 395.9968 147.9889 395.9433 148.7777 395.2857 149.2076 395.2344 150.3329 395.5232 151.7013 394.4108 152.5134 393.3782 153.35 392.3141 153.3696 391.6425 153.1575 390.9716 153.1014 390.7941 152.6553 389.3819 151.9251 388.5288 150.5308 386.3122 149.3608 385.6037 145.477 383.1804 143.5936 382.3609 143.2953 382.5182 142.3271 383.0286 139.9813 384.8455 139.1496 384.884 138.8058 384.6174 136.5313 384.9312 136.0948 385.2057 136.03 385.4246 135.9821 385.5863 136.0482 386.6764 136.2783 387.3557 136.4479 389.1532 135.7463 390.6356 135.1175 392.9843 135.2038 394.2352 135.4423 394.6587 136.4259 395.4254 137.8479 395.8853 138.5812 396.612 138.9098 397.3902 138.8988 397.7419 138.2511 398.2981 137.8059 398.0284 137.0765 397.9739 135.7456 399.4049 135.6136 399.5928 135.5964 400.1363 135.7656 401.1657 136.3098 401.5027 136.3985 401.8895 135.8824 402.2576 134.8291 402.0648 134.5439 402.3119 134.5195 403.0793 135.2291 403.7735 135.7835 403.7908 136.4036 404.1301 136.8574 404.9442 136.8081 405.7108 137.841 406.5749 138.6206 406.6628 139.2979 407.6116 139.3646 407.9018 138.4268 408.8332 137.4866 409.0283 135.9124 406.9032 134.5683 406.5128 134.8637 408.7604 135.8572 409.4581 136.2717 412.5462 136.0434 413.2321 135.7133 413.0947 134.0103 413.4915 132.165 413.7368 131.5757 412.6131 130.692 412.0081 129.7774 410.4533 128.0432 409.6742 126.7838 408.0786 124.8293 406.9439 123.8748 405.8106 122.6239 405.0684 120.9397 404.8089 120.6545 404.8146 119.7592 405.3012 119.0362 405.9961 117.1729 404.8768 116.7936 403.3383 116.5044 402.7809 115.1736 401.787 114.2942 401.5148 113.0227 400.1677 112.4305 398.3782 112.0192 397.6564 110.2435 395.6314 107.6065 393.5852 105.6727 392.6805 101.2684 391.875 99.9426 392.1392 98.7154 392.9237 97.9527 393.9845 97.8883 394.4561 98.0481 394.7987 98.2897 395.3113 98.4605 395.6355 94.6491 395.2569 94.9356 394.811 95.271 394.6133 95.6441 394.4561 97.2526 390.7665 99.9318 383.8988 100.6996 381.4224 100.9864 379.9169 100.9798 378.9404 100.7145 377.7934 99.8521 376.6431 99.8195 375.5268 99.7 375.1396 97.9836 372.069 97.846 371.632 97.9091 371.4304 98.3677 371.6572 99.8112 371.1871 99.9441 370.4278 99.2494 368.7193 98.5608 368.1797 97.9624 367.1865 97.7939 366.5581 97.3721 365.9313 97.2841 365.8006 95.7862 364.4193 94.694 364.0854 93.7402 364.3322 93.5368 364.8108 93.6353 365.1545 93.5112 365.4297 93.1447 365.5169 92.743 365.128 91.9758 363.1045 92.5012 361.8882 92.6063 359.4806 91.397 356.4367 90.1045 353.9414 88.7596 351.7612 88.3167 350.4627 87.0903 349.5356 85.5377 347.9579 82.8748 345.9613 79.3121 344.1863 76.5763 341.2248 75.8265 340.8793 73.2643 338.6166 72.4907 336.1925 72.0398 335.5096 70.385 334.4228 69.8789 332.9627 68.5444 330.4543 68.1853 330.2044 68.0131 329.4854 66.0782 326.4325 65.4413 325.1726 64.0278 323.4264 61.9055 321.8504 60.0629 320.8194 59.3245 319.6308 58.7491 318.1778 58.1535 317.3354 55.9535 315.1465 55.3755 314.6674 54.8798 314.6441 53.8767 313.5001 53.7954 313.0197 53.5271 312.639 51.088 310.4701 50.7819 310.4432 50.4306 310.2844 50.1042 309.3792 49.9641 308.2917 49.6035 307.602 47.5521 305.4521 45.9367 303.4605 44.8307 303.0002 44.7131 301.8151 44.8436 301.1492 43.97 299.3741 44.4284 299.3089 44.727 299.1585 45.3435 298.4803 46.1767 297.2027 47.3774 294.6063 47.9194 292.9779 48.0121 292.0172 47.8355 289.4463 46.5938 284.398 46.0559 282.7209 45.029 281.2753 44.8966 280.898 44.6678 278.7907 43.3688 276.1207 43.0093 275.903 42.4052 274.074 42.3409 271.6133 41.6702 268.9316 40.8648 268.2082 40.5323 267.4679 40.712 267.0106 40.6499 266.2042 40.1203 264.119 40.3707 263.0014 39.789 261.5638 39.4568 261.0543 39.2906 259.3885 39.2537 258.6146 39.6059 257.5277 39.763 254.9119 40.4889 251.0596 42.1336 246.6671 43.0756 245.027 43.5559 243.8694 44.6054 240.8533 44.5824 240.1631 43.2697 235.7338 43.5838 235.2624 43.7304 234.0987 43.6046 230.3341 43.2437 227.9528 42.2005 225.3059 40.995 224.5268 40.658 224.0283 40.5393 223.2839 40.3155 222.4781 40.1547 221.1371 40.3366 218.8163 40.2292 216.9143 39.5078 213.3226 39.364 213.1147 37.3446 211.9156 35.4672 210.1082 34.9664 208.884 34.9409 208.3158 34.0162 205.4787 32.2153 204.1558 31.7133 202.6404 30.5353 200.1586 29.4044 199.0706 27.4458 196.2176 26.6116 195.0016 25.1355 193.8574 24.4915 193.7798 24.1877 194.1052 23.9257 193.9607 23.4033 193.2401 23.5299 189.694 23.1158 188.4686 21.4932 185.9151 19.3651 184.5819 17.1087 183.7039 15.8664 183.0238 14.0092 179.9646 12.8579 178.8637 10.8905 177.5249 8.1836 174.9908 6.4606 173.1639 6.013 172.0901 4.9043 171.3879 4.2213 170.7204 3.4817 169.6543 3.5463 168.1681 4.9226 164.4823 4.6201 162.8257 4.3814 162.4625 4.0009 160.9741 3.9428 158.5462 3.4275 156.7539 3.0522 156.1576 2.1753 155.3094 1.4308 153.7994 1 152.2163 1.101 151.7205 2.089 149.9223 3.1047 147.2669 3.2856 146.2957 3.0315 145.7841 3.4184 144.4312 3.7145 144.0686 5.004 141.6098 7.8906 135.1374 9.0677 132.94 9.2682 132.7735 11.2028 129.1287 14.5014 123.8672 16.1683 120.6063 18.296 117.2216 20.3539 113.5609 21.8768 110.4654 23.6975 105.703 25.4152 99.5811 26.0541 95.8118 25.1818 93.7841 24.6512 93.3699 24.2734 93.1699 23.9301 93.1835 23.6046 93.2798 23.4707 93.4117 23.2978 93.439 23.1373 93.1921 23.1404 92.5698 23.2454 89.9151 22.8629 88.739 23.0911 86.5094 22.6658 85.7206 22.8163 84.8634 23.2387 84.4596 23.878 84.7032 24.3289 84.3501 26.1103 80.0385 27.4658 76.203 27.5659 75.1334 28.8399 70.6047 30.115 64.8629 30.748 62.1883 31.752 55.9172 31.7018 53.4589 31.6908 52.9198 31.132 49.8186 30.7784 48.8773 30.9249 45.3187 30.1952 44.7123 29.6396 43.1653 29.6673 42.2559 29.9949 41.6152 29.8232 39.9236 28.9167 38.4874 28.861 37.3057 28.6155 36.1711 27.5875 34.4669 27.3854 33.0573 27.4945 32.3571 27.2814 29.38 27.0406 28.5222 26.6002 27.4424 25.8982 26.3031 25.0063 25.7102 24.3929 26.3051 23.9629 26.6033 23.682 26.5213 23.0899 25.4913 20.6085 23.0497 20.4284 22.9204 19.9591 22.9532 19.4912 21.8024 20.3376 20.9384 21.5204 18.423 22.473 15.7625 23.5041 11.7392 24.1495 6.6228 24.2631 2.4848 23.8608 1 Z"/>
</g>
</svg>