<?xml version="1.0"?>
<svg xmlns="http://www.w3.org/2000/svg" version="1.2" baseProfile="tiny" width="800" height="581" viewBox="0 0 800 581" stroke-linecap="round" stroke-linejoin="round">
<g id="cb_2018_us_state_5m">
<path d="M 22.6528 1 40.496 1.7593 67.7153 2.7228 78.9495 3.1802 81.7503 3.2008 108.654 4.0484 116.1271 4.2221 130.6307 4.4078 144.4214 4.7867 175.9436 5.5582 203.7467 6.0301 209.0929 6.1529 217.3414 6.3367 243.2539 6.7044 258.6362 7.056 302.1446 7.6908 303.6846 7.7179 303.9153 7.7464 304.6121 7.7596 308.8233 7.8836 309.4153 7.8939 316.4358 8.2474 327.5949 8.5389 330.5059 8.5792 344.4443 8.7605 380.083 8.9283 380.6882 8.9264 428.9239 8.7423 428.9539 8.7422 431.1447 8.7338 431.333 8.7306 464.886 8.5978 474.3779 8.5394 477.1529 8.3447 483.2369 8.2089 493.6889 7.9668 501.927 7.8349 512.9549 7.6475 512.9648 7.6507 516.131 7.6624 543.3818 7.2868 543.4359 7.2987 543.7286 7.2913 553.1952 7.1468 555.2414 7.1273 557.2364 7.0935 559.2945 7.0696 560.7717 7.0601 562.2805 7.0221 563.9873 6.9395 564.5437 6.9689 569.453 6.8876 569.5899 6.8983 571.5121 6.8554 576.5963 6.7971 577.6849 6.726 579.6496 6.702 581.7516 6.663 593.3763 6.3922 612.3276 6.0554 612.4081 6.0538 620.6272 5.8879 621.7838 5.8224 628.7523 5.6519 628.7578 5.6572 631.4404 5.5113 633.0026 5.5214 634.8535 5.5331 635.1049 5.5275 665.8041 4.6909 665.9407 4.6937 667.77 4.6282 667.9358 4.6238 669.5025 4.5849 670.0131 4.5843 673.9602 4.4428 674.1676 4.4494 676.0428 4.4322 676.1729 4.435 678.09 4.371 678.214 4.3838 678.4095 4.3802 678.5258 4.3718 680.1173 4.2974 680.3036 4.3282 682.1906 4.2421 682.3568 4.2571 684.2379 4.1843 684.4266 4.1888 686.2983 4.1392 686.4773 4.1408 688.4062 4.0775 688.6264 4.099 690.4032 4.0025 690.7056 4.0001 692.4435 3.9356 692.7698 3.9557 698.5515 3.7449 699.2864 3.7426 700.5888 3.691 702.2029 3.6607 711.4744 3.3596 714.9629 3.2117 719.5199 3.1097 719.8383 3.1028 719.8646 3.1116 720.8813 3.0788 721.8774 3.0438 729.2825 2.7685 731.1569 2.7151 731.298 2.7044 740.9416 2.395 742.6126 2.3555 750.2754 2.0829 750.298 2.0788 750.3055 2.0819 750.4345 2.0773 752.5055 1.9984 752.966 1.9623 756.8259 1.832 758.9476 1.7361 759.2531 1.7279 761.206 1.6734 768.3304 1.4093 774.1779 1.1779 776.2087 1.1074 776.2198 1.107 777.6785 37.148 777.9594 44.5702 778.819 67.3453 778.9406 69.875 779.394 81.2958 779.5967 87.5171 779.6443 87.9889 779.8038 92.6977 779.8909 94.2448 779.9778 95.7888 780.4847 110.4867 780.5219 111.3639 780.8898 120.8514 780.9592 122.8935 781.7923 143.6144 782.6582 165.4766 782.7156 166.3792 782.7766 167.8283 782.8625 169.8706 783.7243 190.3232 783.8983 193.4283 783.9055 194.5372 784.2519 202.198 784.3684 204.8041 784.4053 205.6424 784.5887 209.8139 784.5879 210.1341 784.7545 214.4862 785.2422 226.3039 785.2701 227.0347 785.3723 229.1185 785.5585 233.381 786.0002 243.4467 787.0377 267.14 787.0656 267.6924 787.0904 268.1837 787.6019 279.9741 788.9989 313.3012 789.0801 315.2881 789.154 317.5726 789.2348 319.4824 789.3227 321.5557 789.3193 321.7257 789.6437 329.8241 789.6985 331.1095 789.7116 331.3705 789.7699 333.0118 789.7779 333.0508 789.8097 333.8109 790.0787 341.5679 790.0791 341.5794 790.2682 346.3666 790.3937 349.6301 790.4702 351.7608 790.59 354.6153 790.6713 357.2198 790.672 357.2393 790.9428 364.6218 791.1682 369.4657 791.2442 370.0168 791.3563 374.4959 791.779 384.7791 792.0166 390.9849 792.017 390.9949 792.0573 391.8987 792.1361 393.6666 792.7298 409.1059 792.7813 411.4988 792.8826 413.2094 793.198 422.8366 793.9113 439.5835 793.9216 439.8641 794.3005 448.1638 794.5532 454.4079 794.6712 457.3474 794.7815 459.4539 794.9901 463.5301 795.1233 466.6135 795.2136 468.7048 795.477 474.899 795.5413 477.004 795.6129 478.5989 795.6664 480.0556 795.8546 485.2492 796.0861 492.3659 796.1739 494.7606 796.1918 495.6061 796.3713 499.7688 796.5618 504.9855 796.7488 509.9244 796.7591 509.9404 796.8887 513.4832 797.0075 516.4359 797.0887 518.4567 797.141 521.6249 797.1551 521.6537 797.3987 527.8026 797.4779 529.4903 797.6505 535.1224 798.2536 551.7234 798.3257 554.1085 798.3305 554.1084 798.4307 555.9676 798.4391 556.7415 798.8182 566.9315 798.8412 567.0285 798.8332 567.3457 798.837 567.5416 798.8683 568.406 799 572.9212 797.6041 572.9706 782.8305 573.452 780.0927 573.5321 774.1159 573.6533 763.3569 574.015 763.3476 574.0055 724.3133 575.2028 719.301 574.9939 717.2679 574.9356 715.1367 574.898 712.7175 574.935 710.7415 574.9538 707.9123 575.0614 692.2409 575.6585 691.5353 575.6749 691.4023 575.6853 689.6623 575.5079 680.1046 575.7567 672.1507 575.957 606.3751 577.7647 606.2477 577.7636 575.0812 578.5813 547.4213 579.2279 537.3574 579.5203 516.7877 579.7312 504.7816 579.7675 504.6699 579.8796 502.4488 579.9324 492.5292 580.0119 492.519 580.0067 461.9125 580.2539 458.6435 580.3479 448.2005 580.0125 446.4163 580.0258 444.2962 580.0411 436.8319 580.0916 436.8197 580.0917 433.321 580.0399 414.1636 580.0405 414.123 580.0403 411.5241 580.0231 410.9772 580.0202 408.9331 580.0251 403.9556 580.0399 403.5395 580.0567 401.0952 580.0424 390.4286 580.0618 386.1813 580.0276 380.2805 580.0194 380.0534 580.0193 380.0526 580.0193 348.39 579.959 348.2403 579.9583 347.2318 579.963 347.1956 579.9632 324.9798 579.9921 319.7082 579.93 319.5977 579.926 314.5117 579.9402 308.8273 579.8411 293.6478 579.7466 290.8757 579.7269 277.5846 579.6878 277.5885 579.6826 276.2747 579.6421 276.2654 579.644 272.5477 579.5859 270.9193 579.5823 262.372 579.5636 248.7827 579.3743 247.944 578.2611 235.6087 578.0721 185.9876 577.1635 179.0566 577.0156 119.9401 575.5657 116.1992 575.4812 91.6058 574.8917 91.4626 574.8094 87.1974 574.6808 87.1615 574.6847 83.5099 574.5755 83.4807 574.5731 76.8094 574.372 58.9193 573.8115 49.4375 573.502 49.3671 573.4941 11.3349 572.1774 10.8268 572.1572 1 571.7552 1.3972 561.2535 1.4197 560.9804 1.4893 559.3027 1.5196 557.8986 1.5915 556.0176 1.6013 555.6618 1.6072 555.6469 1.8588 546.3444 1.9914 542.8436 2.0952 541.5606 2.2894 536.0694 2.2412 535.9758 2.9346 518.1519 3.7882 502.5002 3.9061 500.3379 4.2086 495.9706 4.2146 495.9604 4.6153 485.4863 4.651 483.5608 4.6887 482.6863 4.8956 476.6566 5.199 470.22 5.2065 469.9392 5.366 466.0849 5.3666 464.688 5.7084 457.543 5.8682 452.4468 5.9053 451.5591 6.0576 447.1745 6.1237 445.9919 6.3321 442.2645 6.4629 432.6955 6.6204 429.4436 6.6324 429.1251 7.577 407.2011 7.6487 405.5385 6.6433 394.0378 6.2048 389.6538 7.4489 357.6298 7.9641 343.4573 8.7093 326.262 9.3668 315.4912 10.1624 304.1599 10.3528 299.9626 10.3738 299.8391 10.6426 294.5372 10.6383 294.4783 11.0502 286.3353 11.8536 268.349 13.2788 234.0322 13.947 215.3427 13.9472 215.3386 14.8976 192.1216 16.1545 161.527 17.1686 135.2892 17.1789 135.1947 17.8532 117.9174 17.8508 117.8978 18.0893 111.9365 19.3577 80.3161 19.7166 73.0852 19.7029 72.389 20.0123 66.6969 20.002 66.6312 20.6741 55.3926 20.8492 50.4908 20.8875 49.2058 21.1089 41.7948 21.8192 25.8967 22.6528 1 Z"/>
</g>
</svg>