<?xml version="1.0"?>
<svg xmlns="http://www.w3.org/2000/svg" version="1.2" baseProfile="tiny" width="800" height="996" viewBox="0 0 800 996" stroke-linecap="round" stroke-linejoin="round">
<g id="cb_2018_us_state_5m">
<path d="M 1 299.1779 58.9228 240.4094 73.3422 228.235 108.2543 191.2139 129.9551 169.7927 183.5863 116.8352 249.3439 51.8702 294.0004 6.7468 299.6865 1 317.5627 19.7154 396.0035 96.7517 402.8258 104.0644 423.6733 125.0265 445.315 147.5769 445.6609 147.9373 485.8728 187.8938 675.4705 376.0999 701.3816 401.7969 730.0391 431.057 799 501.438 793.6866 507.0019 761.4673 539.2142 758.0555 542.6304 646.1838 655.3478 631.0086 669.0092 614.1485 686.4028 599.7254 701.2803 533.1009 769.9795 482.9871 816.7933 455.2678 847.5132 449.9506 849.4642 362.481 938.621 307.0649 995.0709 307.4863 950.3752 319.2789 881.6376 310.5428 878.223 306.7512 849.9459 310.5578 814.8502 306.3806 797.2985 298.7872 789.9837 293.4706 789.4947 290.0519 792.4188 284.7374 785.1044 284.3635 766.5785 286.307 761.2812 287.4039 758.2916 296.8971 758.2943 330.6981 750.9892 334.8821 708.0881 334.1469 706.3734 306.0399 640.8043 307.5601 633.4918 306.8037 622.2787 301.114 607.1641 290.8698 593.5106 290.2812 593.0784 282.9011 587.658 278.3461 589.119 282.1386 598.3832 279.479 606.6702 268.8502 609.5917 260.5044 597.4006 261.2672 587.6504 249.8888 568.6326 245.7159 564.2432 234.1218 563.9602 214.2376 522.3065 199.8465 470.6216 196.4334 467.6945 189.2272 463.3027 157.9012 459.2909 143.3195 457.4224 112.9766 446.1863 99.7051 437.8874 71.2753 412.5111 62.938 403.7279 51.9669 373.491 25.0677 343.7247 12.9507 325.6733 8.0393 308.6047 1 299.1779 Z"/>
</g>
</svg>