<?xml version="1.0"?>
<svg xmlns="http://www.w3.org/2000/svg" version="1.2" baseProfile="tiny" width="800" height="797" viewBox="0 0 800 797" stroke-linecap="round" stroke-linejoin="round">
<g id="cb_2018_us_state_5m">
<path d="M 724.2618 753.1947 726.7149 751.3392 729.3504 748.1326 730.0124 746.8377 730.5825 748.0049 731.6521 750.2286 729.7308 752.8579 726.4976 754.855 724.2618 753.1947 Z M 713.4569 759.8004 713.5008 758.0229 715.3181 757.3486 717.1245 755.7632 719.7707 754.8649 721.1151 755.2567 720.2943 757.2346 720.0585 758.0135 719.4575 758.7272 716.7836 760.0622 713.9707 759.8821 713.5163 759.9324 713.4569 759.8004 Z M 683.521 771.8045 687.9324 769.6549 692.6081 767.3435 698.3939 765.2399 704.0294 762.1769 707.183 763.1169 706.4104 765.2718 694.5939 770.5028 688.7518 773.817 685.531 773.9962 683.521 771.8045 Z M 608.1681 789.0856 609.4954 786.0128 613.6562 780.2176 615.375 778.0556 623.4027 773.2284 633.0105 768.6809 634.4723 766.2994 638.3153 765.1112 642.461 761.8719 648.4333 759.3172 655.6672 763.0198 661.465 764.7855 663.6794 766.2045 665.1162 771.5795 670.548 775.9332 668.9677 777.1171 662.9037 779.2314 657.4232 781.2448 653.1681 782.176 651.9778 779.3891 648.5343 779.9063 644.8638 779.5763 641.493 779.994 640.4777 782.5542 635.8957 783.9947 630.1248 786.9281 626.584 788.2369 624.2755 788.4515 622.0752 790.2236 612.1879 791.2764 608.0876 791.8932 608.1681 789.0856 Z M 585.8365 792.2741 590.0159 791.6078 596.4126 789.8886 599.9358 788.7005 601.2463 789.7376 599.8145 791.1779 597.2121 794.1875 590.5515 795.6477 585.7132 794.8821 585.8365 792.2741 Z M 569.3916 789.869 570.8999 788.3033 571.7319 786.2435 572.5722 785.8214 573.6882 785.7529 576.0077 786.8531 576.3534 787.2837 576.5363 788.7494 575.9883 790.1203 574.6327 791.5736 569.9432 791.6966 569.3082 791.2219 569.3916 789.869 Z M 558.1235 532.1177 559.0487 531.5196 559.1148 530.9488 560.0463 531.156 560.4828 532.6143 560.1111 533.3094 560.0498 533.9348 561.0357 536.5264 563.1052 540.8208 563.5423 543.6549 565.4773 548.8614 566.4787 552.7494 567.5413 555.8038 568.7882 557.3295 570.5951 558.7843 572.5237 558.8495 573.7689 559.2632 577.1962 561.4773 578.4372 560.1542 579.9912 559.6636 582.6088 561.2534 585.0766 561.4931 585.2818 561.5649 585.261 561.8307 579.9448 565.0605 578.6576 565.4749 577.8024 565.4772 576.1561 565.1312 573.0619 563.7713 570.6711 561.4598 568.0493 559.9913 567.6047 559.521 567.2034 558.9541 565.5956 557.1005 563.1426 550.2959 562.1114 548.1142 560.4373 545.1632 559.4032 539.9015 557.9877 537.3365 558.272 535.1512 557.7308 534.0157 558.1235 532.1177 Z M 484.8657 781.4019 486.7157 780.9899 490.7462 780.1234 492.5594 782.4379 489.1656 784.0259 484.7272 783.4861 484.8657 781.4019 Z M 305.4244 155.6692 308.6777 154.982 312.9579 152.6927 315.2372 150.7402 316.4778 151.0117 316.4218 154.0016 314.3912 155.9592 310.1198 157.7512 306.1206 158.3003 304.1517 157.0165 305.4244 155.6692 Z M 273.8665 9.3064 273.9285 9.3078 273.924 9.7435 273.8099 10.9702 273.4385 11.8192 273.431 12.1529 273.51 12.4368 273.6182 12.5884 274.0361 12.8731 274.0473 12.8371 274.2743 12.8782 275.2617 13.1894 275.5895 13.3535 275.8223 13.588 276.0588 14.1124 276.1042 14.3912 276.0922 14.9105 275.8012 15.8465 275.7063 16.3639 275.6285 17.0387 275.6742 17.3055 275.9273 17.5645 276.4815 17.8058 276.9093 18.1291 277.058 18.8813 277.3246 19.4547 278.3962 20.6492 278.7753 21.2975 279.0416 21.8952 279.753 22.9852 279.8752 23.0845 280.0126 23.2033 280.2051 23.3404 280.333 23.4571 280.4736 23.7261 280.4471 24.1814 280.2273 24.5188 280.1381 24.8589 280.1964 25.1643 280.4001 25.5296 280.5087 25.7789 280.568 26.0462 280.4954 26.3675 280.4079 26.6317 280.413 27.1259 280.6159 27.4733 280.9361 27.8018 281.061 28.0515 281.1031 28.3563 281.0983 28.5654 280.9782 28.8288 280.7095 29.1653 280.4717 29.5783 280.3489 29.9557 280.2992 30.7146 280.2395 31.1884 280.2953 31.6078 280.7427 32.4291 280.9976 33.0867 281.033 33.3653 280.9039 34.0271 280.9651 34.5358 281.1232 34.8894 281.993 36.3696 282.0493 36.6365 281.9767 37.0941 281.7423 37.8261 282.2587 38.4167 282.3108 39.3361 282.3903 39.4948 282.6364 39.6328 283.1331 39.7157 283.4684 39.5776 283.7697 39.5718 284.0382 39.6378 284.1917 39.7376 285.0608 40.8187 285.2815 41.6448 285.4204 41.9376 286.2789 42.5715 286.8526 43.2591 287.3635 44.5194 287.4913 44.5265 290.2941 44.6808 310.1607 46.1194 314.1472 46.4499 314.1614 46.4493 321.101 46.9484 321.55 46.9868 327.8403 47.5471 337.58 48.0521 338.1712 48.0825 347.7669 48.7767 347.8967 48.786 351.1478 48.9704 364.126 49.8992 365.9108 50.0729 368.4071 50.2295 371.1523 50.4012 372.2554 50.4772 372.7532 50.5229 372.9716 50.533 376.3274 50.7861 376.3305 50.7863 389.5251 51.7144 389.5352 51.7116 389.6027 51.7168 392.1321 51.9146 395.698 52.1744 396.7729 52.2754 403.7215 52.7759 410.669 53.2723 410.9511 53.2943 417.4333 53.7827 417.4359 53.7829 429.0503 54.5679 434.348 55.0088 435.2703 55.0635 436.3552 55.1364 436.3663 55.1337 440.4628 55.4319 441.5647 55.5197 443.8331 55.6979 445.5609 55.8333 448.613 56.0702 448.8408 56.0913 448.8685 56.0934 452.7053 56.3843 461.53 57.0489 462.8794 57.1517 464.0338 57.2253 464.776 57.2771 466.8154 57.4732 467.3542 57.5249 493.6216 59.4068 493.7797 59.4145 512.3328 60.7719 512.3623 60.7767 513.3117 60.8394 513.3347 60.8409 524.2915 61.5775 525.8235 61.6797 526.2149 61.7216 527.4965 61.8063 528.3397 61.8765 529.2577 61.935 530.4371 62.0203 537.216 62.4966 537.238 62.4982 541.4698 62.8047 546.0529 63.1351 555.1602 63.7991 558.2042 64.025 559.0639 64.108 562.7074 64.3771 562.7096 64.3861 562.755 64.5744 562.319 64.8837 561.8565 65.0286 561.4167 65.2913 560.9324 65.8683 560.5507 67.2442 560.5295 68.1743 560.6207 68.672 561.0592 69.4334 561.2012 70.1501 561.1 70.5712 561.4601 71.4234 561.6591 71.7192 562.3382 72.1582 562.929 72.814 563.5979 73.6433 564.1232 74.4533 564.1754 75.7491 563.7936 76.4227 563.4731 77.4338 563.4932 77.8658 563.648 78.0372 563.7756 78.48 563.8655 79.3657 563.6055 80.2633 563.2537 80.7789 563.2116 81.7731 563.8568 84.5823 565.0308 87.3047 565.354 87.6473 565.9855 87.9151 566.381 88.529 567.2707 89.5852 567.4226 89.6984 567.93 89.8054 568.2884 89.8269 568.6683 89.577 570.214 89.1533 573.0182 88.6705 574.2226 88.5485 574.4662 88.6078 574.5797 88.7607 574.5402 88.9082 575.2835 89.4566 576.7007 89.6914 578.0121 89.6421 578.8982 89.5014 579.9368 89.2555 579.9496 89.249 580.1609 89.1427 580.9062 88.3076 581.3121 87.373 581.4086 86.4783 580.852 85.084 580.7634 84.308 580.8469 83.4983 580.9696 82.9768 581.5883 81.9989 581.5382 81.3115 581.2494 80.5308 581.3527 80.0542 581.99 79.2798 582.182 78.9719 582.4648 77.7196 582.6404 76.5672 583.2576 75.6238 583.3391 75.1768 583.3026 74.1066 583.2044 73.5697 583.4456 73.1565 583.5551 71.0407 583.4429 70.4181 583.3212 70.2745 583.1238 69.7352 583.1735 68.8462 583.7012 66.5605 584.501 64.9385 584.2231 63.3058 583.7978 61.2831 583.42 60.3263 583.3369 60.2324 582.2493 59.7926 582.2078 59.7236 582.288 58.9287 582.0808 57.8994 581.513 56.9622 581.1286 56.5203 580.8845 56.0531 580.9712 55.5711 580.918 55.3083 580.6372 54.5671 580.2367 54.2887 579.8824 53.833 579.7782 51.3306 580.668 49.3818 581.2221 47.6638 581.0991 46.208 580.932 45.6603 580.7384 45.4312 580.4472 44.8812 580.7183 44.3239 580.8357 43.9249 580.8723 42.6952 580.941 42.5096 581.2523 42.2989 581.5972 42.337 582.0382 42.2985 583.1254 41.7778 583.6689 41.0482 583.7785 40.8264 583.1204 39.2919 582.4782 38.4108 582.4962 37.9845 582.5976 37.8264 583.1999 37.3816 584.1532 37.2239 584.4541 37.367 585.4952 38.0484 585.9247 38.5859 586.1591 38.7729 586.9221 39.1674 587.152 39.2091 587.1638 39.2036 587.6916 38.9569 588.8588 36.7737 588.9135 36.3004 588.8627 35.3346 588.8293 34.7072 588.8857 34.1798 589.135 33.7963 590.167 33.0284 590.8541 33.0329 591.3518 33.235 591.6591 33.791 591.7414 33.8761 592.8025 34.2172 594.2072 34.414 594.689 34.2759 594.951 34.0367 595.0961 33.8149 595.4026 33.7116 595.7829 33.7781 596.0762 33.9979 596.2465 34.3985 597.141 35.7017 597.7509 36.3764 598.6139 37.1892 600.2725 36.9782 600.9332 37.4451 601.3743 37.857 601.5495 37.9451 602.9355 37.6306 604.8542 37.4906 605.0494 37.5296 606.4945 38.1565 607.3761 39.4616 607.5548 39.9019 607.9178 40.1265 608.3487 40.0919 608.5982 39.945 608.8187 39.588 609.0541 39.4088 609.5547 39.4223 609.9754 39.7151 610.4204 40.0821 610.8151 40.2293 611.201 40.303 611.3323 40.3704 611.4655 40.4725 611.5548 40.6135 611.6334 40.8059 611.6708 41.0907 611.7085 41.1763 612.807 42.3258 613.3389 42.6489 614.0886 42.9226 616.6984 42.4506 616.9033 42.6081 617.0093 42.9831 617.0962 43.1215 617.3118 43.2902 618.9866 43.5819 619.2661 43.4232 619.3483 43.2898 619.4546 42.8894 619.5514 42.766 619.8351 42.6508 620.087 42.6587 620.6732 42.8251 620.8826 42.9707 621.1344 43.1457 621.1777 43.4113 621.136 43.9656 621.1793 44.3716 621.3196 44.6825 621.4505 44.8045 621.7686 44.9348 623.1042 44.6832 623.4818 44.3421 623.95 44.2653 624.2808 44.4841 624.3972 44.683 624.5269 45.2482 624.7319 45.5854 625.5818 45.7418 625.7706 45.5933 625.9704 45.1797 626.146 44.943 626.4366 44.8379 627.2242 45.1565 627.9353 45.3599 629.2978 45.5195 629.5374 45.6024 630.0813 46.0576 630.5523 46.3247 631.5008 46.1517 631.8529 46.2702 632.0886 46.465 632.3231 46.5088 632.5317 46.5527 632.714 46.5816 632.8832 46.5652 633.0514 46.4581 633.2707 46.2146 633.3754 46.022 633.4235 45.7901 633.552 45.5774 633.785 45.4245 634.0186 45.3622 634.7323 45.4564 635.2833 45.4885 636.2075 45.3971 638.0413 45.001 638.2704 45.0016 638.641 45.2632 639.4848 46.3604 639.8143 46.532 640.6617 46.7992 641.1286 46.8694 642.2999 46.9906 642.7769 46.9432 643.9685 47.7425 644.525 48.3416 644.1995 51.8023 642.9964 60.0813 643.0995 65.6071 644.0183 69.5404 643.1235 71.0758 642.6819 71.8333 643.4149 72.5523 644.8841 72.6539 646.4829 74.4166 646.9431 81.6615 647.9653 84.2401 648.1365 91.5586 648.677 95.976 649.3459 99.5468 649.956 102.0701 652.5928 112.9644 657.6883 136.2557 659.1716 141.1757 659.8487 142.7929 661.1667 144.5595 661.8264 146.6505 662.4588 149.6529 662.5398 151.6824 662.6399 154.1891 662.6636 154.3277 662.7716 154.9572 663.3843 158.5291 665.0959 164.0086 666.3759 166.9601 668.1247 172.2638 668.2671 172.6953 673.4511 186.1547 677.7311 195.8788 680.1072 201.5837 683.5173 209.7623 684.77 212.7638 686.0901 215.9254 693.1882 231.5789 694.2235 233.8586 694.8109 235.1518 695.2047 235.8967 697.1675 239.608 701.1563 245.1918 702.6364 248.57 704.3035 251.6436 705.5421 253.683 714.1709 267.87 720.1101 277.9468 722.5544 282.0888 729.3088 291.52 732.6202 296.7075 736.1777 301.1097 737.1573 302.6107 737.9961 305.3559 738.7329 309.1669 741.4697 315.422 742.6765 317.7235 742.5172 318.6628 738.7035 320.4056 737.5257 321.6344 736.1035 323.7001 735.2516 326.152 734.7268 328.5227 734.5347 329.3905 734.2122 332.7199 734.13 335.7676 734.3384 338.4246 734.6372 342.2341 736.2973 351.8496 738.9556 361.766 741.0413 367.3959 741.4198 368.2269 745.3263 376.797 752.1412 389.807 752.1316 389.9521 752.1235 390.0761 759.1425 404.4285 762.7581 416.1443 762.9114 417.8658 763.5976 419.321 765.0714 421.5543 765.799 424.9704 766.1901 426.3901 767.2761 430.3305 768.4602 433.2486 769.3173 433.2335 772.4448 442.8211 773.8028 447.723 776.0429 452.3344 776.8102 454.5653 779.8853 461.7272 780.5796 463.3433 784.0982 470.1353 785.019 472.9593 784.5024 473.5428 784.3679 473.6947 785.457 476.0637 786.7324 479.9123 789.1659 484.5945 791.7443 491.0489 793.3987 496.8289 796.0368 506.0373 797.2308 510.2013 798.482 515.6187 798.9787 517.7685 798.9638 519.5195 798.9531 520.7672 798.4963 520.8113 798.3887 521.4056 799 527.5687 798.9773 530.6488 798.7757 532.3396 798.8035 536.148 798.8288 539.6298 798.8315 540.0046 798.6796 545.2056 797.5703 552.4532 796.6111 560.3136 796.5136 561.8279 796.4885 562.2171 796.4688 562.5225 795.7669 573.4029 795.5853 573.5392 795.338 575.2747 795.297 575.5625 794.917 582.13 794.3324 583.9655 793.9584 586.0749 792.8388 596.2561 792.5261 602.4831 792.3809 602.8429 792.0791 603.5909 791.4021 615.7794 791.4237 617.1339 791.5377 624.304 791.2843 628.2487 791.339 629.5269 791.5019 633.3305 791.2926 636.128 790.7681 639.3612 790.7434 641.6538 790.2755 642.9199 789.8779 643.9954 789.7569 644.3226 789.0668 645.4816 788.1773 650.0822 788.0886 652.4474 788.2957 653.2313 788.0284 654.5972 787.3839 654.6809 785.5994 652.279 786.2573 649.187 786.8796 647.8146 786.6713 646.9591 785.9432 645.8982 784.6369 644.9913 783.2197 645.1608 779.8234 646.6553 778.6136 647.6798 778.1759 648.5472 777.5878 652.0672 775.9673 655.6773 775.923 655.9775 775.8509 656.4671 774.7819 658.2766 773.5672 659.0858 772.6789 660.1041 772.1792 661.1871 771.7657 663.6292 771.7998 665.7769 772.2023 666.7008 770.964 670.1598 769.8071 670.6097 769.7588 670.6492 769.6953 670.7011 769.3601 670.9754 768.259 675.0045 768.298 677.5101 768.5812 679.0806 769.5941 681.784 770.4463 682.4853 769.8262 684.2145 769.9378 687.2198 770.5327 687.9971 771.6363 688.1926 772.0349 688.8301 771.6678 690.1969 769.0135 694.3957 767.1521 695.5016 766.1527 695.805 764.8113 697.045 764.5886 698.4344 764.5171 698.88 765.766 700.8877 768.7706 700.2687 773.9718 696.6494 775.925 693.0987 776.1195 692.6276 778.2587 687.4438 783.4637 676.4311 786.0301 672.0631 786.0314 676.3201 783.2125 684.9925 778.2803 693.4973 778.1341 693.7694 774.7122 700.1298 770.0875 708.2457 766.8539 716.8209 761.5951 722.8089 757.0806 726.6209 752.3828 732.2533 743.8501 741.2695 734.4994 748.2112 733.3038 746.9532 740.839 739.8161 746.6856 734.1755 751.8838 729.887 754.8608 724.4065 755.6094 719.5113 755.5824 715.9767 757.5239 712.6253 755.1249 710.2761 751.7694 711.4475 750.7219 710.6463 749.6433 709.1427 748.8648 708.8706 746.6207 710.7354 743.694 711.1877 742.1446 711.4269 741.6858 711.4976 739.2645 711.5744 736.0969 712.7896 733.3538 713.2421 731.895 715.4256 729.1337 717.3706 728.0486 717.5503 726.7834 715.8616 724.6985 716.1744 724.673 717.8862 724.2592 718.1771 720.1396 715.6401 719.0863 714.0316 717.1612 713.6148 716.0698 715.0535 714.0505 714.7687 713.1476 714.6044 712.1604 714.8184 712.1406 714.8227 710.2526 715.1191 707.5783 716.6359 707.4198 717.6312 707.7241 718.3698 707.5526 719.3354 705.8716 719.1594 702.895 720.0237 701.3387 719.8904 699.7723 720.12 696.7858 721.3303 695.644 721.2012 694.1739 720.7367 691.1648 720.9062 687.9644 722.0856 686.35 721.1068 684.4227 718.9052 683.466 718.091 682.0447 717.6242 681.2203 716.719 681.0614 714.4116 680.5623 713.1932 679.5892 711.3979 677.7624 709.7056 677.8604 706.8585 678.1365 705.972 678.777 701.541 679.0706 700.4804 679.8268 699.6339 680.1824 698.1184 679.8469 697.3133 680.2543 696.3401 681.1191 695.3262 681.7926 695.0923 683.1631 695.5902 683.5053 694.8056 683.5969 693.6297 682.3413 690.5579 680.9314 690.4706 679.9297 689.7693 679.8999 688.327 680.2775 687.7084 680.3152 687.3121 677.8626 680.5446 676.6763 679.1589 675.3002 678.048 673.5025 675.6284 673.277 674.1878 674.0187 672.0952 673.8811 671.5233 673.3327 670.3573 671.5517 669.1847 670.7564 667.394 670.7045 665.7983 669.8772 664.3027 666.4858 662.4881 666.3159 659.6377 664.4866 657.2405 664.3579 653.6738 661.993 651.8355 659.134 653.0707 657.7959 653.4524 657.1913 651.8042 657.2473 648.7608 654.2871 646.2821 654.0924 642.9891 650.7595 642.1987 649.704 640.9767 644.8531 639.8563 644.4334 638.216 639.765 635.6298 636.176 634.3316 632.3929 631.0851 628.8728 629.0238 627.9194 628.646 626.1138 628.582 625.6277 628.5647 624.55 629.0998 623.5412 630.069 622.6025 633.571 621.9952 634.9456 621.2854 634.72 620.7661 634.0584 618.1668 628.6565 617.673 628.1195 616.6478 627.5012 616.1038 624.5698 615.4268 623.3052 614.6112 622.3878 614.1541 621.0836 614.3388 616.9993 614.0284 616.4995 613.289 616.2682 612.745 615.5832 608.4376 605.683 607.6235 597.9547 606.9851 595.4309 606.7277 591.3254 606.2923 587.7559 604.9095 580.7827 603.6552 576.7788 603.5153 576.4575 600.9829 570.638 598.9237 568.4097 597.4019 566.7623 597.3128 566.1224 596.3333 564.7977 595.0408 563.6554 593.4352 562.6469 591.4623 561.7726 590.6373 561.0993 590.3215 560.5085 590.4179 560.2423 590.0564 558.8606 588.8425 558.3272 587.0773 557.8623 585.7848 557.9638 585.2717 557.1468 585.764 555.4086 585.0826 552.555 582.2821 553.0521 582.2415 552.9891 580.4492 550.2059 580.3578 550.3814 579.3589 552.3004 579.4797 554.4555 580.5958 556.8086 578.9887 556.9575 576.5032 558.0061 575.3213 558.0092 574.6211 551.1342 573.8694 548.7049 573.4915 546.483 571.7984 539.4709 570.4897 537.4592 567.0675 534.1318 567.2505 532.3252 567.9323 531.6987 570.2912 531.4159 571.6574 531.5519 573.0864 531.9654 573.8338 533.0056 575.2066 535.8505 575.8912 536.4045 576.6356 536.0552 576.7755 535.5669 577.3129 533.6915 577.4938 531.6069 578.0481 529.8688 579.4676 526.7386 579.9491 523.3804 580.0157 522.9162 580.0107 521.1099 580.6888 519.51 580.3721 517.1489 580.3045 515.1343 580.4838 512.7022 580.2298 510.5492 579.422 509.8568 576.8166 509.0998 576.5632 506.9467 576.868 504.9311 577.6102 504.3733 579.2833 504.3686 579.9017 503.95 579.9612 503.0466 579.9324 502.8358 579.7715 501.6576 578.3441 500.689 578.0811 500.6951 574.9371 500.7675 573.9469 501.1867 573.1439 502.2308 571.7859 504.5962 569.1215 504.6714 568.3165 504.951 567.6982 505.7164 567.9505 508.0781 569.759 513.5629 570.7666 521.0639 570.3338 521.8289 567.9772 522.3896 567.3581 523.1549 566.3288 523.3629 564.103 523.8122 562.9004 523.5764 561.7522 523.3511 560.4872 523.93 559.6757 524.3284 559.3549 529.7966 557.7845 529.4985 558.0798 525.0687 557.5561 521.7057 557.3181 521.1208 555.4375 516.4989 554.0715 514.8322 548.6844 506.7645 546.0866 502.2151 543.4052 497.5153 541.4019 493.1892 538.5496 488.3672 536.9797 483.6174 536.4423 482.3121 536.0582 481.9639 535.1853 478.6257 532.9694 473.9417 531.3947 470.6109 531.3638 470.5514 528.4549 464.9523 527.8753 464.1419 526.3828 463.1974 525.2311 461.9117 525.2488 461.2 525.2885 459.5991 524.5628 458.3006 522.2466 455.1028 519.435 451.9011 517.406 448.572 517.4043 448.5699 513.9482 444.3832 512.1599 442.82 512.2495 441.9605 510.458 436.7247 509.7433 435.1758 508.675 433.5778 506.6979 431.4606 506.4077 430.5233 506.7627 430.4608 510.4362 432.3857 510.9749 435.4766 512.3263 435.6656 512.7554 435.5699 512.7047 434.2644 513.0599 433.6488 514.0264 432.8655 515.3781 432.4816 516.5895 432.4477 517.0964 431.1887 518.5969 428.9715 520.7478 426.6398 520.6447 425.2368 520.672 425.1785 520.783 424.9414 522.4162 423.885 523.687 423.6481 525.1912 422.0957 525.7214 421.2707 526.4884 418.4959 526.9317 417.697 528.7835 414.3582 530.1457 412.1678 531.2364 410.4135 533.311 408.7985 533.5822 408.7759 534.6424 408.6878 535.1575 408.3112 535.3014 407.4742 535.2127 406.8351 534.6595 405.9364 535.084 405.5014 537.3091 404.7384 539.7601 403.3148 540.0441 402.8631 539.8303 402.1385 541.4257 399.7599 541.4969 398.6213 542.3057 397.6929 543.1589 397.4749 544.1598 394.5059 544.1715 394.4713 543.7352 392.7656 543.1843 389.022 541.977 386.7496 540.0112 386.7615 539.4553 386.5589 537.9524 386.0109 537.0526 385.5157 537.0956 384.875 536.8327 384.4922 535.1259 383.571 533.8699 384.5469 533.7306 385.1633 534.1243 387.5205 534.0535 391.3202 534.8992 392.5682 535.8086 393.2823 536.106 393.7717 535.7199 396.2779 535.4169 396.4673 533.8587 396.271 531.5774 395.6156 527.0099 393.1394 527.1218 391.4182 528.6503 391.1542 529.2281 390.4537 529.5816 389.6321 528.5781 388.7245 528.2049 388.0472 528.3197 387.672 528.9537 387.1536 529.4352 386.4409 529.1824 382.9233 528.3835 380.9885 527.0299 378.8112 524.6724 378.5149 519.3748 374.7982 517.7324 372.7799 516.9426 372.3501 514.6923 371.1251 512.5104 371.4753 513.6591 374.7962 512.2192 376.7508 511.9219 377.3481 510.7787 379.6445 509.6669 379.8181 509.239 380.1312 508.8523 381.061 509.139 382.0192 509.2758 382.4762 510.352 383.4581 511.5937 384.0606 512.0594 384.2865 513.0082 384.915 514.4921 385.3171 517.92 386.2031 518.4424 386.4492 518.6639 387.9727 521.0216 390.1042 522.2557 392.0304 522.6404 393.745 523.2269 394.6766 523.5229 396.9736 521.2849 399.1215 520.3367 400.4501 519.6445 401.4197 518.9461 404.0292 518.805 404.5564 519.3888 407.1199 519.3127 407.8087 518.4638 409.7893 517.7988 410.5979 516.4386 411.0304 515.326 410.7863 515.2913 410.77 514.3959 410.3492 513.7859 410.3116 513.5822 411.6667 513.5763 411.7062 512.0262 411.0316 509.8979 411.2144 509.3401 412.0173 508.8842 414.5301 509.0318 415.4128 509.5955 416.9251 509.9974 417.5017 511.544 418.4469 510.7984 420.0827 507.7894 421.5662 507.4185 421.0389 506.526 417.4683 506.4541 415.8395 507.2331 413.6438 507.2898 410.2229 507.0473 408.8444 506.4203 407.2593 505.6195 406.6526 504.8522 405.5747 503.8867 402.8282 502.4913 400.902 501.7349 399.9569 498.5135 397.2703 497.648 396.2384 496.7918 394.4963 495.7413 392.3579 495.4672 391.2812 495.2636 388.4882 495.6265 385.6007 496.3757 382.3619 496.3798 382.3442 497.4041 379.3313 497.6533 372.4537 497.7514 369.7422 496.1784 362.8664 495.0589 354.7195 495.0478 353.924 494.9795 349.0361 495.4829 348.4698 496.9169 349.3439 497.2078 353.9754 497.4992 358.6111 499.326 367.8934 502.6345 368.0129 502.5359 361.9205 502.8104 359.3467 502.2519 357.2417 501.8177 356.3338 500.9329 356.4156 499.9269 356.0481 500.2936 353.9486 501.0813 352.0644 504.834 348.3016 504.6409 348.1734 504.6875 345.239 505.2266 344.0711 506.6009 343.208 508.0371 339.4959 507.7556 338.4729 508.1896 335.4901 509.6036 333.4035 509.8599 333.0253 510.8996 330.3013 510.8872 326.2797 511.8378 324.0045 513.2535 323.0585 513.8284 322.4026 513.9247 322.2927 514.2512 321.376 513.6591 319.5327 514.5098 318.6217 515.2965 316.2434 515.3598 315.7172 515.158 314.6842 514.7599 314.2677 514.8424 311.9578 514.9908 310.9524 515.4517 310.7123 515.5621 310.4517 516.1999 308.9464 515.6665 308.3495 515.676 307.8176 516.1679 306.1402 516.4827 303.3837 515.4341 301.4779 514.3192 296.5189 514.9441 290.8733 514.9623 290.7095 510.3415 287.6449 511.846 283.2861 508.4891 272.0182 512.8862 265.3259 511.4389 262.0169 510.7866 261.6498 509.1982 259.5271 507.947 257.0816 507.7304 254.4225 505.5056 254.7095 505.3316 254.7319 504.9635 253.9306 505.4605 253.0966 506.0875 250.6957 505.4431 247.3461 502.9508 246.0782 503.2469 244.9959 499.4059 244.665 498.7041 241.9203 500.2037 241.2342 501.0823 241.1787 501.301 240.5093 501.328 240.0431 500.6132 238.1861 500.7222 236.1587 498.369 234.7243 495.0873 234.2471 492.0225 234.2998 488.2898 233.314 487.2553 233.5366 485.894 233.539 482.7954 233.1515 482.2844 233.0394 481.483 232.0351 481.0094 231.9639 480.5339 232.2747 478.1882 235.4852 478.0912 236.7047 476.8848 237.581 474.4803 237.9532 474.1041 236.0868 472.9072 235.2497 473.69 233.0995 473.6707 232.4764 473.2458 231.4616 471.804 229.9482 470.8834 227.5889 472.2876 223.7826 472.0257 222.892 470.7947 221.5348 468.8495 221.2351 466.9494 220.0206 466.6929 219.5491 464.7561 218.7564 464.4066 218.6849 463.2481 219.0593 462.6847 218.7815 462.3185 218.6009 461.5826 215.7116 461.4329 214.0552 461.5823 213.8926 461.7351 212.0296 460.2685 209.7567 459.1056 208.4874 458.9388 206.0004 457.3147 202.8386 454.9638 201.2892 452.4969 200.9543 451.6459 201.3773 449.2586 200.6749 447.9792 198.0392 447.9105 196.9255 447.5256 196.1002 446.299 195.9552 445.4649 196.0932 443.4857 194.4143 442.796 193.1346 441.3689 193.1233 440.4294 192.6737 439.9425 191.5291 438.2347 191.0019 438.1042 190.2697 438.2953 189.0927 437.7717 183.616 437.8093 181.5313 438.4145 179.435 437.96 176.0662 437.1263 172.9019 437.0764 172.7126 436.8756 172.4631 434.619 171.6157 433.7392 171.6365 433.3634 171.863 432.6126 171.7126 429.7105 169.9909 429.675 169.016 428.6194 167.8165 426.6355 166.8205 424.0266 166.001 423.0376 164.8843 422.2292 163.6225 421.0951 161.3354 419.7463 160.4831 419.1514 159.5465 419.0179 158.5101 419.3405 158.1915 419.4661 157.6179 419.0713 155.2343 418.0855 153.2631 417.0737 152.2376 415.6844 151.5047 413.7059 146.1989 411.4214 144.5498 409.4281 142.2341 408.6805 141.5951 401.3108 137.3806 398.0424 135.0427 393.8686 134.2442 392.1392 132.4254 383.1962 127.3606 382.9738 127.1059 383.1658 126.743 383.0068 126.4836 380.2917 124.1966 376.9846 121.8602 376.0528 120.3629 373.6021 119.4768 371.047 119.4498 369.5515 119.6504 368.1767 120.3461 367.4377 120.7199 367.0216 120.7362 366.2227 120.3793 365.3834 120.531 364.2073 121.4972 363.0614 120.8618 361.9191 121.7619 359.6423 122.9742 358.5312 123.1141 357.3563 122.8835 355.3577 121.0714 355.0384 121.0613 354.85 121.3131 354.3607 121.4386 351.3299 121.2981 350.4397 120.3829 350.2649 119.399 349.3348 119.0644 347.9719 119.7843 347.6324 120.4198 347.4581 121.5384 347.8232 122.4638 347.7643 123.3541 347.0822 124.2899 345.7628 124.6399 344.9154 124.5959 340.7552 127.5636 337.6748 130.3763 338.0662 132.9114 338.2668 133.2772 339.5512 133.3724 340.0203 134.4705 340.1775 136.2042 340.3395 137.9917 340.6376 138.4193 340.889 140.6939 340.6361 141.9902 339.8301 143.5996 339.2299 143.9195 336.0937 144.3157 333.3854 143.29 331.4123 143.0435 330.3247 142.6225 329.36 141.7049 328.5496 139.842 326.5905 140.3598 324.0296 141.5928 322.2099 141.2448 319.6954 141.984 315.2922 144.5962 312.5566 145.962 311.506 146.9258 307.8113 149.3812 306.9138 150.4718 306.8913 150.9144 305.4873 151.5368 304.0045 151.2167 303.1484 151.4746 299.084 154.0751 296.3907 156.242 295.6154 156.1899 289.1234 159.7548 287.7574 160.0128 284.4616 161.5742 283.0232 162.5809 282.3376 163.954 281.8703 163.9136 280.9302 162.3151 282.2108 159.9145 283.6133 157.878 281.8757 156.3569 280.8159 156.2016 279.6573 156.5372 279.0213 157.7813 277.1317 160.4844 276.2556 161.092 274.4229 161.3686 273.875 163.2115 273.0032 163.9026 271.281 164.621 266.6612 164.9907 263.0219 163.9491 259.9213 163.9138 257.8377 164.2167 259.9591 168.0317 262.6673 169.3867 263.0227 173.39 269.0592 175.7575 280.7797 170.5124 291.668 166.6007 296.6655 162.3471 301.9868 158.085 302.931 159.4504 293.9131 167.8397 283.3509 172.0313 275.7412 175.8812 269.7931 178.628 265.4954 179.965 261.4621 176.4702 255.5556 174.0555 247.2253 168.5773 246.8697 168.5309 243.2381 168.0564 239.9927 167.6423 236.9982 167.8829 234.4095 168.9671 233.9655 169.5383 233.4284 170.4201 231.7312 167.8081 230.6438 165.6732 228.9329 160.5518 227.4309 153.3375 227.1046 149.8248 227.2971 148.1646 227.6409 146.9266 228.4938 145.3913 230.4984 143.9024 230.3381 147.913 230.1267 151.2726 230.2856 154.7671 231.048 159.0259 232.1595 164.2929 233.1151 165.9387 234.844 166.6049 236.6077 165.899 238.5168 162.6357 239.2238 153.9591 239.1251 152.6298 238.8948 152.2613 238.2193 151.8489 237.9159 150.8858 237.9164 149.883 238.1177 149.6826 237.661 148.8712 236.8896 148.1184 236.1301 147.9865 235.6834 147.5658 234.6655 144.7986 233.0022 141.502 230.8736 138.7859 230.4712 138.3641 228.8026 136.6144 226.6521 135.1824 223.0714 133.9205 222.131 134.1131 220.2242 133.6487 218.0214 132.3543 214.7528 129.3291 211.6426 125.5427 210.6896 124.1464 210.0333 121.9822 208.6846 121.8499 206.9317 120.6984 204.9706 119.6984 203.3186 119.1075 198.8357 116.6828 195.4394 114.0191 193.4296 111.7411 190.8413 109.2811 187.1839 106.515 180.3408 101.8106 175.7885 98.97 168.2476 94.9849 167.8523 94.7758 158.6008 90.5321 144.9542 85.2691 137.1097 82.6646 130.3449 81.0565 126.9132 80.4559 125.3862 80.1883 119.2877 79.5538 115.6089 79.6222 113.2454 78.9857 102.4836 77.4749 90.1989 77.5707 88.6788 77.7081 85.209 78.0211 85.04 78.0363 79.78 78.5089 73.5994 79.3116 72.5915 79.4851 47.8311 83.7204 42.5078 84.3315 36.0775 84.7333 34.5389 84.2762 33.25 83.6482 30.7151 84.2327 27.4706 84.6738 20.1735 86.2982 9.8459 87.8812 9.8589 87.4626 10.8368 86.502 15.31 85.473 15.6482 84.3344 13.3946 84.585 12.664 84.2082 12.3533 83.4459 12.9555 82.8375 13.9489 82.4761 15.6871 81.7358 15.8882 81.6597 16.2124 81.3952 17.0545 80.4875 17.2028 80.2322 17.1725 78.5335 17.2081 77.9667 17.2719 77.7033 17.528 77.3271 18.3134 76.646 18.6641 76.1174 18.6711 75.9605 18.4672 75.3957 18.4463 75.165 18.5138 74.8172 18.8905 74.3009 19.2107 74.1208 19.5009 73.4438 19.6236 73.2501 19.747 73.0551 20.1146 72.744 20.4829 72.6505 20.8469 72.6537 21.4636 72.8245 21.9091 72.8673 22.4773 72.7217 22.6602 72.5842 22.9916 72.1505 23.3268 71.8623 24.3079 71.5524 24.5248 71.4244 24.7672 71.2812 25.94 70.4116 26.2647 70.0723 26.4479 69.688 26.4321 69.224 26.2733 68.7156 26.0683 68.437 25.005 68.0022 23.8918 67.7746 23.3777 67.8741 23.0684 67.8129 22.5803 67.563 22.2668 67.1268 21.5657 66.9887 20.5306 65.9418 20.0903 65.3189 20.0187 64.5904 19.9208 64.4533 19.6072 64.2588 19.5209 64.098 19.8142 63.5782 20.0965 62.8405 20.0595 62.2707 19.3752 61.0858 19.2347 60.9238 18.8692 60.8924 18.718 60.8 18.4241 60.4292 18.4237 60.2533 18.4769 60.1689 18.5656 60.059 18.7044 60.0151 18.7343 59.8999 18.6094 59.2462 18.6293 58.4295 19.9041 55.8142 19.956 55.7608 20.3249 55.696 20.7139 55.2413 20.938 54.5356 21.2225 54.384 21.28 54.392 21.3161 54.5072 21.4711 54.486 21.7136 54.3547 21.9436 53.824 21.9226 53.6179 21.769 53.4231 21.7881 53.3656 22.018 53.0845 22.2046 52.9704 22.3901 53.0058 22.8584 51.759 23.1711 49.81 23.3929 49.4009 23.7527 49.294 23.957 49.1558 24.1769 48.788 24.4485 48.007 24.449 47.9322 24.3117 47.8045 24.3161 47.7049 24.4262 47.0278 24.5582 46.8133 24.6409 46.5975 24.681 46.1308 24.5072 44.5411 24.4006 44.0352 24.5175 43.7575 24.426 43.2825 24.1394 42.9241 24.0841 42.9301 23.5997 41.7653 23.4986 41.1348 23.5683 40.869 23.5333 40.729 22.9501 40.3552 22.2575 40.0934 21.7211 39.6609 21.1811 39.001 20.5963 38.9738 20.2134 38.7387 19.9699 38.4625 19.8457 38.2246 19.2704 37.6796 19.0638 37.5629 18.4777 37.8098 17.5233 37.3736 17.3851 37.2653 17.1272 36.8194 16.7169 36.6443 16.218 35.8642 16.2045 35.6115 16.0675 35.4174 15.4769 35.1515 14.4793 34.8852 14.4011 34.9097 13.9121 34.7116 13.6445 34.1293 13.0035 33.2289 11.8 32.6008 10.8979 31.9357 10.6472 31.165 10.6694 30.5633 10.591 29.7593 10.5397 29.6184 10.0318 28.9953 9.6533 28.4331 9.7472 28.1851 9.8056 27.6362 9.1229 26.6896 9.0333 26.6027 8.8395 26.5721 8.3775 26.1507 8.3271 25.9295 7.921 25.4301 7.5303 25.0697 7.1347 24.878 6.6803 23.9359 6.1849 23.402 5.5792 23.0574 4.9256 22.7938 4.3062 22.3265 4.2132 21.777 4.0322 21.348 3.8192 21.0147 3.2885 20.8311 2.7894 20.5603 2.8599 20.2807 2.6808 19.8713 2.0024 19.1939 1.8065 19.091 1.6858 18.9083 1.7933 18.4392 1.9226 18.1456 1.8506 17.8074 1.6591 17.436 1 16.7115 1.5781 15.3101 1.6469 15.0195 2.1949 14.4895 2.4404 14.4141 2.5838 14.1682 2.5836 13.8745 2.4399 13.4141 2.4941 12.9536 2.6558 12.7887 3.1556 12.5054 3.2809 12.1756 3.3819 11.6591 3.6596 10.9452 3.8415 10.7008 4.0713 10.0734 4.1325 9.7629 4.7169 8.6052 4.9384 8.2767 5.1951 8.08 5.3537 7.8042 5.911 6.5757 6.28 5.0236 6.1292 4.4187 5.9294 3.9807 5.8384 3.5696 5.8399 3.4201 6.0079 3.117 5.9495 2.7737 5.6323 2.1977 5.4251 1.2081 5.4601 1 5.4713 1.0003 8.3153 1.0732 10.662 1.1671 13.6554 1.3362 17.7123 1.4339 17.768 1.4368 17.871 1.4393 19.0915 1.495 19.0969 1.4952 19.6176 1.5144 19.6325 1.5149 19.9411 1.5057 20.2455 1.5267 20.8537 1.5578 22.6615 1.6417 23.3336 1.6837 29.3145 1.908 29.7096 1.9332 30.5721 1.9656 32.8106 2.0544 35.0609 2.1268 35.9013 2.1907 36.1569 2.1717 37.2478 2.2259 37.4636 2.2356 39.8729 2.3428 40.3912 2.3725 40.479 2.3788 40.658 2.375 40.7565 2.3873 40.9022 2.3906 40.9657 2.3848 42.7414 2.6851 43.5876 2.6599 44.0814 2.6452 50.4057 2.6729 50.5064 2.6733 52.766 2.705 54.3924 2.8572 55.025 2.8065 60.2117 3.0433 60.6839 3.0557 61.7499 3.1043 63.1721 3.1033 63.545 3.1474 64.5008 3.1955 66.8505 3.2783 67.4547 3.3806 74.7488 3.773 78.8464 3.9419 80.4113 3.9937 84.6512 4.1811 84.7998 4.1838 89.4032 4.4037 89.4311 4.4052 93.6026 4.6391 95.3454 4.6477 95.4597 4.6346 95.6574 4.6429 97.6226 4.9755 99.4818 5.0548 100.5024 5.0982 101.9182 5.1489 111.9544 5.431 112.3838 5.4321 116.8704 5.8255 117.6066 5.7957 118.9366 5.8846 123.2424 5.951 123.6151 5.9886 128.7629 6.1297 130.1046 6.1594 130.4447 6.1696 130.4517 6.1697 131.9037 6.1825 132.449 6.2001 132.8999 6.2176 139.1327 6.4728 140.7185 6.5521 144.1096 6.6544 145.9844 6.6519 151.2729 6.8582 151.9901 6.886 152.5092 6.9273 153.1525 6.9585 153.7824 6.9812 158.5322 7.2212 164.8104 7.3872 165.1987 7.3852 167.0008 7.4309 167.0091 7.4312 170.7628 7.5983 181.6347 7.8462 196.494 8.1027 196.5281 8.0487 214.1423 8.3919 222.5362 8.5466 222.5762 8.547 223.58 8.5545 248.8976 8.7183 258.1265 8.9384 258.3577 8.9438 258.3717 8.9376 259.018 8.9757 268.1565 9.1937 268.4392 9.1999 268.7201 9.2061 270.8868 9.2459 270.9953 9.2476 271.264 9.2514 271.6164 9.2577 273.8665 9.3064 Z"/>
</g>
</svg>