<?xml version="1.0"?>
<svg xmlns="http://www.w3.org/2000/svg" version="1.2" baseProfile="tiny" width="800" height="933" viewBox="0 0 800 933" stroke-linecap="round" stroke-linejoin="round">
<g id="cb_2018_us_state_5m">
<path d="M 1 1 9.635 1.3052 22.5273 1.7528 23.7416 1.7944 37.1743 2.0447 40.6345 2.0304 46.6341 2.0075 49.7852 1.9946 50.2449 1.9828 50.2457 1.9827 50.898 1.9943 52.047 1.9793 54.8326 1.9631 55.112 1.968 56.8873 1.9788 58.5474 1.9875 61.7366 1.982 62.5913 1.9966 63.9882 2.0203 64.2022 2.0038 64.6462 1.9913 64.8599 1.9949 69.8978 2.015 70.7776 2.0136 93.0275 2.2054 93.049 2.2105 103.7658 2.2128 104.2403 2.2154 107.7498 2.234 109.5911 2.2536 110.4318 2.2552 123.25 2.4585 123.7893 2.4748 128.1017 2.4808 129.3811 2.5572 129.9622 2.5236 130.4876 2.5625 131.5616 2.6043 131.6052 2.6064 131.8176 2.6168 131.9914 2.6145 137.2968 2.6412 144.6662 2.6756 145.2558 2.6965 162.104 2.9036 162.672 2.8396 181.0154 3.1008 181.1526 3.0976 199.917 3.2798 200.0762 3.2736 211.9237 3.3097 243.5378 3.7296 243.5548 3.7298 259.9122 3.8674 261.3257 3.8536 263.9723 3.8662 275.2527 3.9154 275.2887 3.9156 292.6056 4.0298 305.9566 3.9953 327.3144 4.2683 327.2837 3.1656 338.9242 3.1029 349.8454 2.9136 376.1793 2.4291 397.9367 1.6767 411.3823 1.4009 411.3834 1.4008 411.8917 2.2645 412.047 2.9781 412.0673 3.67 411.6603 4.997 411.1628 5.4165 410.8375 6.3677 409.4665 7.8735 409.2365 8.8338 409.3483 9.7667 408.818 10.5153 408.3819 10.8097 408.43 11.8194 409.061 12.6656 409.3461 13.0315 409.464 13.3163 409.365 13.7443 409.1233 13.959 408.6978 14.1637 408.2209 13.9513 407.9873 14.0945 407.8466 14.543 407.9258 15.1075 407.8165 15.3923 406.1637 16.6033 405.7294 16.6364 404.6281 16.1455 404.0845 16.3226 403.6535 16.7331 403.3036 17.5728 402.8244 17.9446 402.152 17.8291 401.5762 18.0256 401.2111 18.7582 400.673 19.4252 399.8683 19.9606 399.5509 20.6716 398.6202 21.7112 397.9843 22.0323 397.264 22.0533 396.7976 22.6151 395.856 22.8836 395.6566 23.5724 396.2169 24.7004 395.4873 25.6065 394.8196 25.5804 394.2193 25.0769 393.1057 26.0159 391.6001 25.6612 391.084 26.0343 390.2397 26.2351 389.9816 26.5155 390.0689 27.0754 390.0927 27.6964 389.6941 28.3057 388.9116 28.5504 388.6793 29.0377 388.6477 29.971 388.182 30.4587 387.7664 30.9665 387.5739 32.0549 387.4356 32.387 387.2526 32.5497 386.8529 32.672 386.5704 32.5433 386.1859 32.3889 385.8027 32.3895 385.2866 32.6134 384.906 34.2369 385.3503 35.1282 385.2111 37.4055 384.7087 37.9984 383.9774 38.3159 382.7413 37.4219 382.4672 37.0784 381.6263 36.7919 381.4281 37.187 381.3953 37.924 380.9076 38.7484 380.4188 38.8406 380.0615 38.8411 379.7419 38.8643 379.5729 39.0476 379.4792 39.2536 379.4795 39.4824 379.7244 39.9626 379.775 40.8989 379.3699 41.2212 377.6997 41.7227 376.04 43.7697 376.6895 46.975 376.516 48.6505 376.6731 49.8045 373.6088 53.2808 371.9337 54.305 371.2078 56.0194 371.3325 58.5315 371.3338 58.5572 371.5143 58.8654 371.5831 59.1086 371.7798 60.105 372.1217 60.6663 372.1033 61.0283 371.8059 61.5718 371.7503 61.9338 371.8436 62.2506 372.1045 62.5446 372.6263 63.0649 372.999 63.5172 373.3345 63.9696 373.5025 64.3768 373.5079 64.4371 373.5588 65.0105 373.6151 65.3724 374.0251 65.6665 375.0024 65.5036 375.8193 65.8689 376.4589 66.2642 376.793 66.5785 376.9445 66.8193 377.296 67.9133 377.6273 67.9876 378.531 67.7201 379.2369 67.8621 379.7599 68.459 379.8647 69.2835 381.1816 70.9414 382.2225 71.6019 383.6477 72.8119 384.6356 73.4036 386.2376 73.7221 387.3944 74.2418 388.5523 75.4433 389.1651 76.5251 389.8118 76.883 389.8107 76.9231 389.3663 78.1894 391.2847 79.5298 392.9994 79.7973 394.6182 79.6021 396.5714 80.1009 397.035 80.5812 399.9312 80.1693 400.9244 80.339 401.4925 80.6823 401.563 80.9986 401.4942 81.371 401.3333 82.0156 401.4522 83.2989 401.7833 83.5789 404.0482 84.1349 404.384 86.1194 406.4883 88.1798 408.1776 89.4387 408.5905 89.3774 409.2981 89.7505 412.4366 93.7453 412.509 94.4542 412.575 95.1007 412.7406 95.3463 413.6207 95.475 414.281 95.2077 414.3296 95.188 415.1196 95.3592 415.6054 95.5805 416.7242 96.8064 416.7444 97.0252 415.2826 98.2229 415.2296 98.5959 418.1723 101.3559 418.8239 101.5553 420.0908 101.0325 420.6504 101.1952 421.4824 102.7562 421.6786 103.1243 422.4292 104.0118 423.9317 105.0737 424.2958 105.1652 424.8239 104.9396 429.1994 107.3328 430.4951 107.2572 430.4612 106.6225 430.8897 105.934 430.9649 105.9084 433.054 105.197 436.181 105.324 437.178 106.2624 438.3835 105.7957 439.4525 104.4871 441.5056 104.8588 441.9545 105.338 442.4346 105.416 444.8293 104.6023 445.7716 104.4974 449.0542 105.8648 450.0507 106.6018 450.5566 107.3604 450.3885 107.8862 450.2241 108.0652 450.1272 108.5069 450.2953 108.9674 451.9728 109.5973 452.5022 109.9096 452.7435 110.1731 452.7225 111.3685 452.848 111.7213 453.5768 112.8667 453.8098 115.2127 454.3236 116.3057 454.7765 116.8986 454.9243 117.5543 454.9894 119.2634 455.132 119.6462 455.9057 121.7222 456.0196 122.2098 455.914 123.179 455.9951 123.6546 456.8173 125.1453 457.0607 126.9045 457.0314 127.8518 457.1028 128.4749 457.3205 128.8402 459.0301 129.9078 460.3126 130.9187 461.2724 131.675 463.23 133.405 463.7233 133.4737 463.9185 133.7108 464.3965 135.458 464.3392 136.1845 464.4504 136.9617 465.1508 139.5992 466.0036 141.0945 466.2508 142.3368 467.3561 143.9262 467.8204 144.5938 468.7641 145.3629 469.1484 145.27 469.3066 145.3689 470.4689 146.4499 471.3334 147.487 471.87 148.3789 471.5414 148.8423 471.5257 148.9829 472.3199 151.1844 472.1764 152.6991 472.2035 153.0809 472.6941 155.6377 472.4522 156.2116 472.2972 156.7 472.9626 157.7457 472.9482 158.005 472.6498 158.9339 472.6908 159.3085 472.7311 159.6763 474.271 162.6203 474.4044 163.0576 474.3578 165.5835 474.4402 166.0246 474.619 166.5163 475.5264 167.7405 475.8799 168.5164 476.8651 171.5975 477.2227 172.0643 479.0983 173.4877 479.8285 173.8216 480.5314 173.9177 481.0922 173.8796 481.3865 174.0166 482.0723 174.782 483.5663 175.3327 483.9179 175.707 485.1126 177.6283 485.3274 178.9446 486.1714 180.1096 486.4268 180.2797 486.6387 180.9508 486.725 181.0357 487.4839 181.5863 487.7913 181.7129 488.456 181.9197 488.6494 182.0836 489.5677 183.2029 489.6567 183.4733 489.6228 183.8642 489.7153 183.9784 489.8078 184.1246 489.7775 184.3867 489.3777 185.3911 488.9785 185.8486 488.9098 186.451 489.195 187.2131 489.7734 188.1401 490.5341 188.667 490.9376 188.6878 491.3675 188.543 492.0372 188.9535 492.8442 189.9387 492.9963 190.2585 493.0501 190.7597 493.3543 191.3793 494.3257 192.2748 494.9519 193.6541 496.0575 194.6688 497.2118 195.5225 497.4808 195.8816 497.5685 196.4426 497.2812 197.9293 497.3183 198.4105 497.516 198.8465 497.9619 199.83 498.4106 201.612 498.9164 202.2033 499.3919 202.5737 500.3359 202.8758 500.5887 203.0016 500.7039 203.2128 500.7372 203.4422 500.5764 203.6863 500.2596 203.894 499.9709 204.2294 499.8783 204.6055 499.886 205.1425 500.0527 205.6833 500.396 206.2277 500.8694 206.81 501.6839 207.4914 501.9494 207.8729 502.3142 208.8474 502.397 209.8937 502.5879 210.4683 502.5965 210.4821 503.895 212.5557 504.2868 212.8603 506.1842 213.4205 506.7422 213.2951 507.6806 212.8659 508.9072 212.8328 509.2785 212.9109 511.215 214.1766 512.1088 215.2751 512.7938 216.3542 514.0612 218.869 514.5974 219.6077 516.7464 221.1651 518.4617 222.9674 520.2264 224.246 520.9492 225.1897 522.1225 226.003 523.3942 226.4768 523.7062 226.7155 524.9679 228.0818 525.3011 228.3208 526.365 228.7302 527.1858 228.6263 527.7854 228.3969 528.7673 228.1926 529.5142 228.3545 530.079 228.7773 530.8841 229.6231 531.7559 230.0012 532.6868 230.5407 533.5639 231.2027 534.4857 232.2964 534.9078 232.6487 535.3553 232.9328 538.2385 234.0964 539.0676 234.5162 540.6001 235.9336 542.8403 237.3398 544.4814 239.0351 544.7209 239.4929 545.4519 240.15 546.4774 240.7381 546.9279 241.1909 547.0872 241.5279 547.1535 242.1492 547.0609 244.0275 547.0988 244.3172 547.2867 244.62 547.841 244.9452 548.2594 244.8328 548.7115 244.903 549.3759 245.292 550.1759 246.0864 550.7485 246.8877 551.9645 247.701 552.4198 247.7486 552.6874 247.9275 552.8744 248.1267 552.9861 248.5792 553.1854 248.8818 553.8123 249.2195 554.0491 249.18 554.5148 249.3231 555.8313 250.7331 556.0643 251.9834 557.0509 254.2691 557.2783 255.075 557.8745 258.3756 557.6493 259.6844 558.1037 261.2171 560.1104 263.4203 560.7948 263.9794 561.0966 264.357 561.9181 265.7689 562.3269 266.8793 562.5428 267.2557 563.8397 268.2907 563.992 268.8673 563.9948 268.955 564.0186 269.6991 563.8037 271.8513 564.6113 275.116 566.3768 277.0423 567.4412 278.0202 568.3675 278.5768 570.0784 278.964 570.4526 279.0486 571.0526 279.2287 571.3966 279.4413 571.8921 279.8991 572.2891 280.9706 572.6712 281.5407 573.3064 282.0179 573.674 282.294 575.2457 283.0261 575.9898 283.1394 576.5252 282.9691 577.4304 282.1265 578.0681 281.7976 578.2715 281.7918 579.2659 281.7635 579.7924 281.9465 581.0569 283.7927 581.4746 284.2466 581.8497 284.5084 582.965 284.9215 585.3773 285.5139 586.0624 285.9322 587.9759 287.635 588.338 287.846 588.445 287.9083 589.4467 287.9981 589.8882 288.2011 591.4106 290.0211 591.8401 291.12 592.1603 291.6584 592.9645 291.9529 593.7785 292.785 593.7861 293.3466 594.3959 293.9205 595.7167 294.5291 595.7929 294.5642 596.0473 294.8217 596.4681 296.2409 596.5531 296.3401 597.0239 296.5144 597.5306 296.8688 599.1463 299.9977 599.4167 300.7318 599.3418 302.042 599.6211 302.8809 600.1997 303.5754 601.0936 304.065 602.2855 304.3297 603.3787 304.7161 605.3502 305.7029 606.8511 306.454 607.6425 306.7841 608.9193 307.1074 609.7131 307.598 610.2403 308.1725 610.3079 308.3269 611.1924 310.3463 612.4463 312.4886 612.4636 312.8161 612.487 313.2619 612.0174 314.1323 611.2735 314.5699 610.5644 314.9206 610.2695 315.469 610.2046 316.2185 610.608 316.923 611.2539 317.2928 611.5502 317.651 611.5763 318.1498 611.4318 318.628 610.9468 319.134 609.702 319.4463 608.966 319.6154 608.6306 319.9831 608.5822 320.5734 608.9013 321.2529 609.7216 324.8085 610.7478 325.9853 610.6057 326.5894 609.7938 327.1978 609.1209 327.0517 608.273 326.3411 607.5866 326.3908 607.1559 326.738 607.0982 327.4011 607.4427 328.0583 609.1244 329.6403 609.0018 330.4448 608.6218 330.9244 608.3103 331.3174 608.3351 331.8789 608.7577 332.1339 609.5122 332.1434 610.8477 331.7634 611.9921 332.5 611.8177 333.937 611.9565 334.2561 612.808 334.9083 613.1568 335.2878 613.3183 335.7363 613.4989 335.9723 613.9751 335.9655 614.3536 335.337 614.5995 334.737 614.9845 334.5591 615.3431 334.8456 615.5586 335.2483 615.5467 335.89 615.5084 336.3148 617.3166 337.3701 617.755 338.6682 619.1556 339.2499 620.0445 338.1331 620.4603 337.9063 622.8661 338.6169 623.9424 339.312 624.1458 339.899 623.572 340.7702 623.2397 340.9759 623.0184 340.7584 622.281 340.7893 621.5816 341.1207 621.3238 342.9508 621.6502 343.4678 623.2515 343.986 624.5744 344.9498 625.5608 346.0728 625.5592 346.8509 625.2735 347.2682 624.8649 347.3658 624.0582 347.4257 623.1322 350.5702 623.3098 351.21 623.3366 351.2422 624.2669 352.3594 625.8766 353.1571 626.775 353.9677 626.8044 354.0106 627.4274 354.9212 628.8266 355.3216 630.1609 355.8632 630.517 356.0986 630.7786 356.7368 630.8299 357.88 630.934 358.0992 631.2902 358.3346 633.817 358.898 634.7748 358.9435 635.7094 358.5878 635.9396 358.2832 635.9618 357.5604 635.3254 356.5868 635.4723 356.3237 635.7554 356.1788 636.496 356.3078 637.3636 357.0369 637.5871 357.3746 638.3137 359.7914 638.6387 360.1677 639.2142 360.4597 639.4143 360.8833 639.44 360.9378 638.8464 362.6731 638.4803 362.8795 637.9944 362.9473 636.8908 364.309 636.8933 364.4695 637.8811 366.4009 638.2838 367.4382 638.5215 368.6587 639.8902 370.2226 641.8204 372.2192 645.1349 374.5747 646.362 375.6388 648.4869 377.1299 648.7399 377.186 649.2923 377.0566 649.7802 377.0888 652.0446 377.8346 656.2938 379.671 658.3393 381.3629 659.0331 381.6323 659.891 381.658 660.7278 381.4432 663.1519 381.1362 663.5975 381.177 663.7389 381.2499 664.0058 381.3874 664.3338 381.6473 664.5659 382.1989 664.5667 382.798 664.5224 383.1897 664.4889 383.601 664.5319 383.7451 664.6747 383.8151 665.0378 383.8256 665.5739 383.2422 665.8982 383.2146 666.1434 383.3553 666.4974 383.9288 666.4837 384.3154 666.3097 384.7772 666.174 385.1177 666.2001 385.4555 666.3476 385.7909 667.1432 386.1638 667.4641 386.1537 667.7857 385.887 668.151 385.9531 668.9603 386.7076 669.4479 387.567 669.9086 388.3139 670.842 389.2522 671.5092 389.3724 671.8725 389.3179 672.2128 389.1187 672.4526 388.9455 672.574 388.9434 672.655 388.942 672.7764 388.9398 672.9192 389.0098 673.1455 389.2232 673.1903 389.4638 673.1549 389.6965 673.0826 390.2386 673.1695 390.5751 673.3155 390.814 673.5418 391.0274 674.1118 391.2106 674.4131 391.0845 675.2541 390.5868 675.6798 390.6274 675.9796 390.9535 676.0513 391.0315 676.4047 391.8774 676.627 392.1601 679.8844 394.1099 680.9631 394.218 681.2998 394.3644 682.8959 396.8792 684.5614 398.0073 684.7064 398.2584 684.7815 400.3151 684.7466 400.7948 684.2554 404.1032 683.5109 406.9704 683.454 407.1649 683.1983 407.3506 682.8655 407.3494 682.5438 407.3413 682.3453 407.4645 682.2323 407.686 682.1861 407.9062 682.1394 408.1065 682.0257 408.288 682.0133 408.5277 682.0352 408.8065 682.0919 409.1645 682.286 409.7194 682.8071 410.3328 683.5876 410.9415 683.5721 411.1958 683.0603 412.2155 683.1211 412.8838 683.5685 413.4254 684.3697 413.6152 686.4081 415.5438 686.976 417.211 687.1436 418.7747 688.8791 419.6571 689.3979 419.8872 689.718 420.2978 689.626 420.6638 688.6055 421.782 688.4598 421.8012 687.5618 422.4138 687.1905 423.7025 687.7973 424.3821 688.7359 424.6406 689.1275 424.5515 691.516 425.0294 691.6948 425.2489 691.9693 426.1231 691.7221 427.9235 691.244 429.0421 691.6021 429.9078 691.8407 430.2669 692.0723 430.2676 692.3716 430.021 693.1279 429.6374 693.3434 429.7014 693.501 429.803 696.2653 431.6247 697.1056 432.7319 697.2882 433.5223 697.782 436.1277 697.7052 436.6374 697.501 437.0292 696.8356 437.6874 696.6826 439.4229 696.651 440.9674 696.7053 441.7403 696.2043 442.2949 696.0461 442.722 696.1739 443.2003 696.4892 443.5336 696.874 443.7808 697.2335 443.9439 697.4046 444.1949 697.4327 444.4206 697.4126 444.6189 697.3937 444.8738 697.1614 445.161 696.8203 445.288 696.6679 445.453 696.5993 445.5956 696.5313 445.7665 696.5361 446.0209 696.5863 446.1613 696.7866 446.2099 697.2325 446.4036 697.6185 446.7075 698.0569 447.2646 698.2561 447.7416 698.4794 448.2464 698.2775 448.8722 698.239 449.3536 698.3409 449.7192 698.4894 450.0273 698.9198 450.1607 699.1607 450.3257 699.3086 450.6057 699.361 450.8591 699.3188 451.1427 699.2772 451.4546 699.1643 451.7676 698.9792 451.9843 698.0133 453.3066 697.7271 455.7904 697.644 457.4499 696.6151 459.4929 696.751 459.6969 699.0834 461.3026 699.3332 461.1981 699.4063 461.0333 699.4719 460.8689 699.6 460.7848 699.7065 460.7647 699.8833 460.8338 701.1302 463.7711 701.1787 464.3044 700.6658 466.2603 700.2876 467.3279 700.1808 467.5216 700.2029 467.7302 700.5423 468.527 701.7182 468.5467 702.4881 469.0973 702.6281 469.4856 702.373 469.8865 700.8779 471.1538 700.6227 471.3008 700.7867 472.1872 701.0453 472.4284 701.0296 472.5937 700.2993 473.5053 699.954 473.6406 699.7958 473.5841 699.5767 473.2842 699.2409 472.3952 699.0126 472.385 698.637 472.6517 698.4032 472.9457 698.3846 474.0123 699.5671 476.1942 700.8094 477.6164 702.1162 478.7195 702.6762 479.3605 703.4676 480.7312 703.4807 480.7416 704.8988 481.8646 705.2025 481.9852 705.7052 481.9364 706.2109 481.345 706.4829 481.3592 706.7923 481.5112 706.928 481.7506 707.0512 482.9132 707.3192 484.3456 713.8393 487.3957 715.226 487.7083 717.1775 487.3814 718.5925 486.9772 719.0376 486.9316 719.2411 487.0034 721.875 488.1917 721.8796 488.1963 722.2352 488.5606 722.9535 490.4304 723.0061 490.6389 723.0394 491.2434 722.8064 491.767 722.6688 492.4002 726.8383 495.7452 727.3581 495.893 727.6856 495.7477 728.1695 495.7206 729.512 495.8943 729.9281 496.0953 730.0461 496.5931 729.9151 496.8982 729.602 497.0791 729.3188 497.3278 729.2705 497.589 729.358 498.1709 730.1831 499.6593 731.2266 500.5619 733.8438 503.5583 735.986 505.6614 736.8779 506.2246 737.2852 506.2762 737.8232 506.1043 738.0102 506.1405 738.2356 506.3967 738.1561 506.6393 737.287 507.9823 736.4755 508.8424 735.9057 508.9533 735.665 509.1882 735.5554 509.5124 735.5624 509.8495 735.7116 510.1836 735.8986 510.4709 735.903 510.6854 735.8322 511.0088 735.6705 511.3187 735.3466 511.5555 734.8917 511.7948 734.6978 512.111 735.3072 514.5469 737.085 516.9784 737.9829 517.8025 739.5181 519.9378 740.1648 520.8876 740.0424 522.3153 739.562 523.1669 739.7032 523.3308 740.8887 524.7059 741.5964 525.3242 741.7077 525.7016 741.6127 526.0956 741.4133 526.4551 741.3663 526.6767 741.4962 526.9558 742.9402 527.974 744.1006 529.1534 744.1159 529.4138 744.0954 529.7403 744.1535 529.8912 744.2191 529.955 744.2931 529.9861 744.4128 530.0053 744.6146 530.0009 744.8712 529.9846 745.1246 529.8162 745.2218 529.6401 745.3571 529.2671 745.9597 528.9129 746.2147 528.9476 746.4921 529.2427 747.7635 530.8412 747.893 532.1429 747.2359 533.1205 747.1417 533.4839 747.4791 534.1992 749.2902 537.231 749.547 537.3459 749.7225 537.6231 749.8324 538.0021 750.3241 541.1626 750.3652 541.5496 750.3667 541.5632 750.0749 542.1917 748.9911 543.8609 748.5237 544.2122 747.5654 544.6143 746.0283 546.514 745.6396 548.1882 744.4468 550.0354 744.2875 550.4627 744.3982 550.9485 744.8322 551.7002 746.0653 553.8313 746.6627 554.8637 747.7849 556.4578 747.9096 556.6179 749.239 557.437 750.1412 558.8838 751.0275 561.2989 751.0952 562.0802 750.7904 562.9096 750.6993 563.4134 750.8881 563.7224 750.8832 564.0718 750.5968 564.1784 750.0388 564.7488 749.4335 565.3677 749.2276 565.8097 749.1939 566.0754 749.4027 566.3118 750.3088 566.5932 750.5002 566.8097 750.8152 568.2321 750.8762 568.5077 751.203 570.287 751.0771 570.7512 750.9647 572.3264 751.5049 575.6593 752.1862 576.5276 752.565 576.7603 754.3817 576.886 755.5826 576.8499 755.9052 576.9327 756.0277 577.6911 756.4893 578.2912 756.6039 578.3786 757.2993 578.9092 760.1715 580.9394 761.2821 581.4864 763.0259 581.8881 765.0629 582.0109 766.0084 581.7927 767.8615 580.6576 768.1126 580.296 768.7858 579.3265 769.461 578.7588 770.3426 578.5429 771.103 578.7471 771.5262 578.945 772.4803 579.8076 772.9373 580.4796 773.6484 581.8682 774.4507 582.7731 775.1917 583.2177 778.5205 584.3552 779.3685 584.8648 781.3307 586.9865 783.0211 589.0083 784.2047 590.1612 784.8892 590.6511 785.7376 590.9475 786.9611 591.0872 789.9764 591.3741 791.2459 591.4138 795.7856 593.4941 796.9331 592.8676 798.4994 593.3214 799 595.9026 798.8096 597.6461 797.7684 600.5546 795.4144 604.4119 792.0613 606.554 789.5783 608.6225 787.3029 609.7395 784.2532 609.5715 783.9985 607.2209 780.8981 607.188 776.9048 610.4841 776.4197 614.0416 777.6837 615.574 780.0891 616.3319 782.3147 616.036 783.4982 616.7718 781.3815 619.4246 777.3552 623.1849 773.8274 627.3405 772.5326 627.5501 770.0732 625.4524 765.4252 623.8063 761.3847 623.7164 762.6028 627.5598 762.5558 629.1074 761.9456 630.1979 759.7025 631.9754 759.7957 633.3985 762.9974 634.6008 764.0609 634.6381 764.5621 634.1255 765.9558 634.4718 766.4565 635.1514 766.5011 636.5226 764.76 638.5399 761.3688 645.4656 759.877 646.9997 756.4433 648.7069 750.9056 654.9355 749.5802 655.3169 746.7885 654.3194 745.7598 653.9517 740.2616 653.0442 739.3341 654.5037 738.4781 655.8506 741.4976 659.3876 745.8422 661.3242 746.9341 660.8046 747.382 659.8844 747.808 659.6961 749.5072 659.5366 750.9334 660.3374 750.2223 662.8179 750.1222 664.5579 751.0065 668.6226 750.8362 674.8751 748.1475 680.928 746.4678 685.5878 744.3554 688.5483 743.3756 688.6449 742.6001 687.7526 742.0783 686.1633 740.6657 686.1792 738.968 686.1982 737.2645 688.3574 732.815 689.5107 730.4904 688.8304 729.5197 690.3875 728.9274 693.5505 729.0139 693.8792 729.8124 694.2386 736.804 694.4512 737.5575 694.2614 739.9122 692.3169 741.0307 692.6473 743.0166 694.2382 743.5993 695.287 743.8018 696.3536 741.7391 699.1035 739.2571 705.2691 732.2691 715.5159 730.3386 719.2396 727.0298 726.774 727.0002 730.0027 726.4823 734.9569 727.9239 734.9787 729.0429 735.3612 731.34 737.0735 730.3338 739.4101 728.8376 741.331 728.0378 742.3575 727.8007 749.3294 726.816 751.4369 725.8098 755.2382 725.9914 758.1285 725.1597 759.0949 723.171 759.1665 721.5817 758.844 717.3996 763.1444 714.7539 767.1517 713.7818 769.4382 714.0545 770.7847 712.5753 773.348 709.3965 774.0754 707.1878 773.9372 706.8045 775.6961 706.5904 779.3656 707.1004 783.5638 707.1392 786.244 704.9262 795.528 704.0427 797.5541 703.3218 798.1746 701.9933 798.3374 701.6032 798.0136 701.5553 797.3799 700.1418 797.6356 698.7237 797.892 697.6507 798.9664 697.4185 799.887 695.7236 801.8571 692.1022 804.1456 691.601 805.6442 692.7782 807.2129 694.7131 807.905 695.2957 807.1073 696.2392 806.8871 698.536 807.9154 699.6303 809.6688 703.1495 809.6264 704.2596 806.1024 704.9849 805.4635 706.2452 805.3341 707.19 809.2894 707.0706 819.2651 703.2975 833.7543 702.9272 834.8004 701.3613 836.7932 700.2296 839.0168 698.8582 842.9462 698.1096 847.1764 697.9936 850.434 698.3097 852.7762 700.143 858.0337 701.0693 859.1974 700.2784 859.2846 698.3328 859.1038 697.5569 858.9955 696.1468 858.5667 695.5974 858.2875 694.1806 856.4806 693.5616 856.0526 693.1814 856.0557 690.1441 856.7454 688.6118 856.9134 687.6968 856.8697 686.511 856.7258 686.1243 856.8332 685.7399 857.0911 685.5299 857.4465 685.4536 857.8324 685.2828 858.154 684.9224 858.5622 684.6448 858.7431 684.3644 858.7731 684.0614 858.7283 683.7146 858.6591 683.3248 858.5905 682.9307 858.2711 682.3445 858.0804 680.773 858.3843 679.9874 857.9489 679.078 857.2025 678.6791 857.069 676.4155 856.8277 675.2324 856.5023 673.9205 855.9868 673.4398 856.1664 673.152 856.5625 672.8267 857.2527 672.5154 857.5025 671.1027 857.2576 670.7574 856.7012 670.5336 855.765 670.3374 855.4367 669.7852 855.0792 669.0094 855.2147 668.3879 855.7876 666.1751 856.2284 665.6453 856.0176 665.4262 855.8172 665.1887 855.3035 665.1107 854.6299 665.1716 853.7088 665.0957 853.2685 664.6753 852.9823 664.3256 852.7442 663.3502 852.4779 662.9319 852.4692 662.4629 852.6653 662.3042 852.872 662.1337 853.5386 661.9993 853.7614 661.5379 854.0298 658.754 853.5742 658.3936 853.2978 658.2473 853.0695 658.0658 852.4486 657.7233 852.1906 653.3992 853.0189 652.151 852.5773 651.2634 852.0499 649.4229 850.16 649.3591 850.0184 649.2927 849.5462 649.1595 849.228 649.0091 848.9954 648.7864 848.828 648.5675 848.7184 647.926 848.6027 647.2687 848.3649 646.5247 847.7631 645.8221 847.2841 644.991 847.2702 644.6031 847.5717 644.2424 848.1682 643.8306 848.4164 643.1161 848.4812 642.5102 848.1144 642.207 847.3863 640.7243 845.2341 638.3164 844.2175 637.992 844.1561 634.8096 844.421 632.5142 844.9667 632.222 844.8234 631.4837 844.1467 630.3802 843.3826 627.6307 843.761 626.1861 842.4257 625.1638 841.3156 623.6596 839.1664 623.3708 838.504 622.8807 838.144 622.2486 838.0399 621.7415 838.2167 621.5039 838.5874 621.0727 838.9889 620.2752 839.2264 617.9408 838.9231 616.1746 838.3744 616.0368 838.2345 615.5184 837.3162 614.6892 836.9889 613.5488 836.993 611.8475 838.2853 611.4396 838.9264 611.3539 839.8032 611.4188 840.8444 611.5177 842.4474 611.434 843.2343 609.5297 846.8791 608.6575 847.2975 608.6379 847.3069 608.2557 847.2414 606.9835 846.5989 606.5917 846.2923 605.8707 845.4069 604.1324 844.2927 603.631 844.06 602.0511 844.3378 601.0582 845.0863 600.8922 845.3504 600.8688 846.0586 601.9479 847.5111 603.0633 850.0485 602.8847 850.4185 601.9935 851.6391 600.1969 852.5217 599.4656 852.5929 598.8926 852.5354 598.3791 852.8903 598.2679 853.1996 598.2255 855.2422 598.0368 855.9066 597.5952 856.8364 598.0867 857.7449 598.4115 858.1222 598.6972 859.0287 598.9232 861.444 598.0292 864.3057 596.5816 867.556 596.7921 871.7091 597.387 872.4598 598.056 872.9154 598.5332 874.1414 598.6254 874.5768 598.4887 875.3785 598.9008 876.1501 599.5455 876.8774 600.5019 878.4242 600.8612 880.1295 600.7399 881.4505 600.8099 881.5645 602.6216 882.2765 602.7609 882.4311 603.4023 884.0133 604.1384 887.3642 604.6241 890.07 603.3209 892.776 602.4792 896.5792 602.41 898.0556 602.7457 898.9477 602.9499 899.1841 603.1453 900.2158 602.9952 903.7297 602.6009 904.4197 602.772 905.3093 602.8486 907.085 602.72 907.8283 601.7097 909.4046 601.4355 911.3203 600.9847 913.4037 600.6706 913.9179 599.6244 915.2139 599.4601 916.0066 599.951 917.2977 600.0445 918.4378 599.032 920.071 598.8362 920.9387 598.7097 922.284 598.8683 923.5705 599.8128 925.8754 599.6659 927.362 599.0062 928.92 597.7816 930.3182 597.4325 930.4981 597.4113 930.5091 595.6911 930.9343 594.2226 931.1825 592.0468 931.2859 589.691 930.9195 588.4492 930.0215 588.5125 929.7761 588.3219 929.5242 587.9167 929.4297 585.9195 929.6519 581.2723 930.499 578.7132 931.2276 578.0863 931.6485 577.4912 931.6187 576.6475 931.4494 576.3937 931.2639 574.9011 929.5255 574.2356 928.513 573.1835 928.0788 572.642 927.5154 570.6528 923.0159 569.5401 918.3638 569.5952 916.7129 570.1714 915.8514 570.5897 914.3574 570.4271 912.8886 570.2087 912.1557 569.9493 911.8737 569.9094 911.157 570.4264 909.4735 571.05 908.3492 570.9441 906.1991 570.0601 904.863 568.9376 903.4972 567.9471 902.4182 566.8135 901.7004 566.4786 901.2127 565.8683 899.8038 566.0299 899.1033 565.7835 897.9157 565.0443 896.6589 564.8856 895.8342 564.9068 894.2898 565.5198 891.9996 566.3151 891.0338 567.0411 890.5906 567.8066 890.3426 568.5256 889.822 568.4475 889.5102 568.4437 889.4952 562.3921 889.1074 560.9639 888.9835 555.9082 888.6574 540.7815 887.7008 533.1691 887.2251 526.1403 886.7829 526.1037 886.7807 514.8443 886.0964 512.8854 885.9732 511.3606 885.8904 509.9599 885.787 507.8313 885.6664 507.181 885.6028 504.6364 885.4569 486.4376 884.4033 486.3994 884.4011 484.8224 884.3115 484.7733 884.304 453.9547 882.3317 453.6921 882.3214 410.0572 879.5849 409.162 879.5068 405.7734 879.2109 404.5404 879.1356 402.6229 879.0301 400.3811 878.8789 385.7204 877.9023 379.3462 877.4739 379.3002 877.4708 378.9217 877.4392 373.8509 877.089 370.9803 876.8886 367.2116 876.6248 365.3808 876.4945 358.5751 876.057 358.5566 876.0616 356.7544 875.9557 355.2222 875.8778 346.42 875.2196 327.1247 874.0761 327.1203 874.0758 316.3502 873.3532 315.8816 873.3204 304.3386 872.5899 292.7936 871.8519 291.0073 871.6985 285.0826 871.3143 280.8797 871.0194 280.7675 871.0115 280.7508 871.0164 258.8276 869.6478 258.8225 869.6475 253.2464 869.2706 252.8835 869.2567 252.0563 869.1873 250.2234 869.0751 245.6625 868.8254 241.5149 868.5973 238.5485 868.3317 216.9836 866.9534 211.5821 866.6877 211.3664 866.6738 195.4211 865.6399 194.4389 865.5967 178.257 864.8768 167.8025 864.0223 167.0563 863.9639 155.5241 863.218 155.5004 863.2191 148.875 862.7175 115.8593 860.5597 111.2022 860.3355 110.9897 860.3252 110.1224 858.2384 109.1592 857.1031 107.7238 856.0603 107.4887 855.5756 107.1097 854.2064 105.6501 852.421 105.3936 852.257 104.9466 852.1505 104.4464 852.1636 103.8915 852.3966 103.0654 852.2647 102.6545 852.0382 102.5201 851.7756 102.4197 850.2495 101.5532 849.2747 101.9316 848.0564 102.0452 847.2957 101.9476 846.853 100.4807 844.4049 100.2128 843.8194 100.1035 842.9753 100.3079 841.875 100.245 841.4127 99.8116 840.3235 99.0563 838.9646 98.9573 838.2687 99.0493 837.4812 99.1204 836.2203 99.3186 835.5922 99.7073 834.9036 100.1485 834.3418 100.3441 833.903 100.3488 833.5557 100.2743 833.0499 100.0631 832.6367 99.5263 832.0946 99.184 831.5201 99.1681 830.6994 99.3095 830.2596 99.4252 829.7251 99.3227 829.2819 99.1387 828.869 98.7948 828.2647 98.6934 827.7581 98.8364 827.1923 99.1962 826.6295 99.2335 825.8729 98.9959 825.4278 98.7817 825.2354 98.4598 825.0099 98.2298 824.8141 98.0254 824.6506 96.8274 822.8483 96.3761 821.8586 95.7366 820.7861 93.9389 818.8142 93.4873 817.8648 93.229 816.6172 92.5135 816.085 91.5895 815.6903 91.1652 815.263 91.0853 814.8205 91.2043 813.6988 91.354 812.8383 91.8232 811.2804 91.8352 810.4177 91.7557 809.9552 91.3549 809.0866 90.9646 808.6997 90.4179 808.4309 88.773 807.9251 88.3955 807.8593 88.3774 807.9192 87.6791 807.451 87.497 807.2004 87.3616 806.7297 87.369 806.1753 87.9729 804.7609 88.1437 802.7221 88.1447 801.9983 88.0417 801.9966 88.2264 801.1242 86.6641 791.3703 84.6337 786.9346 84.1294 785.8326 82.6606 780.3465 79.7308 778.0352 75.7624 770.4625 72.8988 769.3345 70.5503 764.457 71.9504 759.8042 72.1785 755.2385 69.6195 746.414 73.9235 742.7251 74.1266 739.9951 74.5939 733.7125 73.6647 729.1058 76.3242 722.0774 75.9511 719.5921 78.4059 715.4382 77.5562 707.9964 82.1604 698.2793 82.2612 698.0665 82.8706 692.7674 80.2001 687.4778 79.6393 677.0207 76.2073 671.5777 69.04 662.3939 70.2841 654.8484 68.7173 648.5591 67.891 645.2402 67.4591 643.5048 68.4456 638.2429 66.715 633.3987 68.8976 624.5531 70.6163 622.6245 77.2121 612.4136 78.4284 608.5793 80.5786 602.9935 82.24 598.6751 83.1486 588.8667 83.6114 583.8675 81.7734 574.0796 89.9706 565.278 98.4338 561.7585 97.9556 560.7682 95.4709 559.9892 97.5258 557.5907 104.7299 557.1322 105.3648 555.3953 106.6708 551.8211 110.8801 549.2323 103.4559 541.8392 99.6531 540.2048 91.9828 536.9048 90.9716 533.9471 95.2237 528.6897 95.5364 525.281 95.671 524.9452 96.386 523.1612 96.7803 518.3265 98.7903 516.8286 97.4267 512.7348 93.4789 510.5895 93.5609 506.1755 93.4792 505.747 92.3899 500.0281 92.3661 499.9028 92.2245 499.159 91.6971 496.3885 89.1482 492.5259 87.1556 490.5243 81.6274 484.9676 79.6834 479.3003 78.0574 474.557 75.4652 471.8605 78.3447 469.272 77.537 466.8958 74.0079 463.6487 72.7538 457.5889 74.2335 454.6581 73.5411 452.5657 71.6282 450.3411 70.1737 448.6491 73.0319 446.0275 71.1825 444.2466 65.4423 438.2256 67.9794 432.0113 62.8334 428.2065 62.8312 428.1868 62.6293 426.4067 62.1856 422.4941 60.0943 408.5878 59.3772 403.8132 57.1752 389.1309 56.9652 387.714 55.5902 378.5592 54.9711 374.2387 46.4053 314.1778 44.8406 303.1498 43.413 293.7075 43.3991 293.6248 43.2689 292.4826 42.1436 284.7853 41.9617 283.5399 39.8248 268.897 36.9841 249.3818 36.5363 245.7908 36.3333 244.5845 34.1987 229.1541 34.0486 228.0682 32.717 218.8787 30.9003 206.3216 29.8622 199.0843 29.7328 198.6377 27.765 184.5621 27.5294 182.8442 26.6037 176.089 26.4386 173.9391 22.6933 148.6684 22.6499 148.2332 22.2542 145.641 22.1659 144.8968 21.6725 141.4866 20.4552 133.0662 19.9309 129.7855 18.3775 120.0559 15.7777 103.7415 15.7573 103.6261 14.8874 98.2554 14.3425 94.8263 14.1025 93.6344 14.1019 93.6301 14.0704 93.4287 13.6233 89.9281 12.1334 80.6537 11.1539 73.5785 11.1198 73.3318 10.1085 66.969 10.1083 66.9525 8.4811 56.6185 8.4773 56.5817 7.1827 48.1795 4.0791 25.9945 2.3794 13.1635 2.3755 13.1314 1.8752 8.9928 1.8058 7.6173 1 1 Z"/>
</g>
</svg>