<?xml version="1.0"?>
<svg xmlns="http://www.w3.org/2000/svg" version="1.2" baseProfile="tiny" width="800" height="525" viewBox="0 0 800 525" stroke-linecap="round" stroke-linejoin="round">
<g id="cb_2018_us_state_5m">
<path d="M 28.2116 1.6338 40.5196 2.0623 42.808 2.125 57.6527 2.6115 58.8625 2.663 58.8966 2.6602 76.4014 3.2259 99.5332 3.9278 99.558 3.9284 102.7539 4.0165 104.3376 4.0599 113.9415 4.3293 114.0326 4.3312 141.2714 5.0163 144.6438 5.0321 144.6519 5.0277 146.0588 5.0502 148.5133 5.0689 148.5136 5.0548 148.5465 5.0562 150.9726 5.1588 150.9838 5.1667 156.5694 5.3043 156.5741 5.3044 156.5771 5.3045 158.0861 5.3242 158.1502 5.327 173.0682 5.6196 173.0929 5.6297 173.809 5.5131 177.4125 5.638 181.5723 5.7394 183.0833 5.7506 183.1548 5.771 184.6434 5.8535 188.5381 5.8776 189.4731 5.91 196.7766 6.0139 196.871 6.0307 199.2222 6.0664 201.6037 6.0989 203.9877 6.1991 206.4107 6.2438 208.8073 6.2919 211.2006 6.3287 213.5717 6.375 213.5777 6.3751 213.6104 6.3757 213.6237 6.3759 216.9067 6.4213 218.4808 6.4377 218.6629 6.4395 220.1737 6.4667 220.4542 6.4597 220.8535 6.4663 249.6234 6.8958 255.6815 7.0091 256.2636 7.0086 267.1651 7.1451 269.9836 7.1272 270.4899 7.1421 270.4915 7.1422 276.7897 7.2291 278.3728 7.2606 293.9874 7.4179 310.6376 7.5597 310.8561 7.5584 312.5115 7.5698 312.6858 7.5711 327.4124 7.7796 348.511 7.89 348.6929 7.887 351.8025 7.8963 358.107 7.9123 359.0049 7.9144 359.4698 7.9149 360.1416 7.9153 366.2689 7.9311 370.0557 7.939 374.9278 7.9496 377.1101 7.9513 380.3001 7.9614 380.7458 7.9618 384.4934 7.9651 384.5 7.9651 385.596 7.9716 386.35 7.9607 387.46 7.9741 387.9714 7.9619 392.8015 7.9585 396.3558 7.954 411.699 7.9471 416.8769 7.8973 424.0745 7.8723 438.5427 7.8068 441.5287 7.7908 441.5385 7.7907 443.5253 7.7743 460.117 7.6761 469.7587 7.5982 474.3676 7.4733 479.7666 7.4276 481.5181 7.4123 481.9706 7.4083 483.9545 7.3906 486.277 7.3689 486.7743 7.3641 498.3529 7.2016 498.3569 7.2015 509.0421 7.071 510.9177 7.0358 515.7539 6.9434 516.08 6.9622 518.2299 6.9334 520.5677 6.9078 531.3972 6.7627 531.5971 6.7548 541.0773 6.6055 543.4789 6.538 552.5176 6.3914 554.1954 6.3724 555.4029 6.3587 555.4212 6.3584 571.0836 6.1145 572.0528 6.0854 583.0092 5.864 586.1542 5.7983 588.2868 5.7624 588.5555 5.7458 591.6451 5.6698 591.8385 5.6813 593.8003 5.654 596.5691 5.6162 596.7965 5.6055 597.1854 5.5872 597.5433 5.5703 597.5604 5.5701 601.1125 5.5126 604.7138 5.4477 606.2168 5.4122 607.0614 5.4072 607.8411 5.3779 608.4619 5.3572 608.962 5.3646 609.0984 5.3656 609.1285 5.3583 610.1681 5.2944 610.7499 5.29 611.157 5.2794 611.2188 5.282 611.4123 5.2966 611.9424 5.2882 611.9501 5.2881 614.3314 5.2344 619.1584 5.1253 620.3397 5.1024 621.2331 5.0745 626.3863 4.9334 629.5174 4.8732 629.9583 4.8571 631.823 4.8216 632.3232 4.8345 637.68 4.6299 640.1363 4.6367 640.7781 4.5438 641.0537 4.5566 654.012 4.1988 655.8296 4.2352 659.3248 4.1324 659.2719 4.6861 659.3791 5.7173 659.6885 6.7415 659.6144 7.3513 659.133 8.9994 658.6544 9.9732 658.0748 10.4737 657.7563 10.9126 657.6523 11.2868 657.6424 11.722 657.793 12.4189 658.2427 13.3073 660.9418 16.6447 661.1436 16.9855 661.4483 17.5 661.6978 18.142 661.8168 18.6712 661.8158 19.372 661.9758 20.2745 662.1574 20.9029 662.2208 21.5478 662.0911 22.4655 661.8979 23.12 661.4314 24.3034 661.2994 24.9572 661.1491 25.1802 660.4416 25.7913 660.2543 26.144 660.2905 26.4975 661.3355 28.6892 661.6685 29.1245 661.9276 29.2421 663.6054 29.4465 664.4465 29.7025 665.6847 30.4934 667.6762 31.4601 669.8098 32.2444 670.3653 32.5162 670.8193 32.783 672.2372 33.9105 673.5239 34.8202 676.2368 38.3647 676.9789 39.8564 677.763 41.1689 678.0193 41.7193 678.0528 42.2503 677.9252 42.8907 677.952 43.2614 678.0724 43.4434 678.289 43.5607 679.275 43.5859 679.527 43.7247 679.6675 43.9526 679.7665 44.3344 679.7743 44.5667 679.5858 45.4702 679.2637 46.3775 678.8182 47.034 678.1776 47.7387 677.3127 48.9113 676.3534 49.9972 673.9477 52.6109 673.2607 53.2402 672.623 53.6807 672.2677 54.2078 672.0762 54.8315 672.0384 55.772 670.9213 58.0445 670.7146 58.2136 670.3997 58.7925 670.1019 59.8742 669.9017 61.0642 669.5669 61.7399 668.3989 63.3449 667.8949 63.7527 666.7069 64.3157 666.1278 64.7835 665.9286 65.2577 665.8296 65.7543 665.8088 66.4022 665.9009 67.4388 666.2771 69.9165 666.139 73.8318 666.1672 75.0389 665.9966 75.4434 665.9266 75.9692 666.131 76.4993 666.1175 76.8591 666.6366 80.7246 667.5035 83.9081 668.9434 88.5167 669.041 89.0636 669.051 89.1198 669.1174 90.715 669.2555 91.119 669.8405 91.9776 670.2137 92.6922 670.4031 93.1543 670.5631 94.0036 670.5576 94.2866 670.1722 95.9528 670.0974 96.7196 670.117 97.0036 670.6817 98.6287 670.8454 99.2537 670.9253 99.8693 670.9262 100.2403 670.7104 101.1905 670.6844 101.6284 670.6966 102.0418 670.7803 102.3505 670.8936 102.6826 671.0615 102.8932 671.7197 103.0244 674.2619 104.2735 674.4985 104.4607 674.9232 105.0347 675.9342 105.8675 676.3721 106.3364 676.6897 107.5381 676.6726 109.4305 676.8358 110.1826 677.1407 110.9308 677.5853 111.5993 677.6447 111.8246 677.2632 114.3121 677.4112 114.9986 677.8966 115.247 678.7904 115.0988 679.3014 115.4667 679.2574 116.6934 679.4713 118.9794 679.8428 120.8082 680.2494 122.0828 680.4315 122.8639 680.5188 124.109 680.6891 125.081 681.4838 126.0032 681.8589 126.3417 681.8839 126.6505 681.7346 126.9893 681.5321 127.1117 681.2438 127.1518 681.2259 127.7666 681.3723 128.1737 681.9242 128.23 682.1839 128.428 682.4119 128.7383 682.606 129.1743 682.627 129.865 682.7683 130.242 683.0741 130.439 683.2335 130.4504 683.6472 130.395 683.9369 130.1475 684.5177 130.152 685.0069 130.3272 685.4361 130.7898 685.571 131.1075 685.6173 131.5828 685.7566 132.0627 686.1235 132.4756 687.3111 133.2165 687.5021 133.267 688.2433 133.0968 689.4156 133.7169 689.9881 134.1135 690.8376 134.9168 691.8865 136.5145 692.244 136.8559 692.6787 137.1037 693.8104 137.4055 695.3848 138.4324 695.7817 138.6209 696.7238 138.8804 697.2781 138.9378 698.1491 138.7905 698.9048 138.5396 699.2079 138.5462 700.1671 138.9259 701.8053 139.9897 702.221 140.1421 703.3913 140.5708 705.8899 141.1167 707.6963 141.7106 708.754 141.9691 710.1301 142.1607 714.519 143.0027 715.6027 143.2818 716.7646 143.3985 717.9033 143.6154 719.0279 143.964 721.0883 144.4918 722.6321 144.7951 723.9808 145.197 725.3507 145.9309 725.7155 146.2365 726.1779 146.7891 726.4233 147.4981 726.5381 148.157 727.3266 149.4538 727.5899 150.1342 728.1441 151.9736 728.1968 152.7356 728.3102 153.2029 728.504 153.5558 729.296 154.8789 729.5922 155.2497 730.1359 155.6669 731.5531 157.0504 731.9027 158.7186 732.5588 160.0274 733.6309 160.9565 733.8595 161.5641 734.3343 163.6607 734.8619 165.1399 734.8682 166.0545 734.1705 166.863 733.5204 168.6111 732.6623 169.7039 732.6617 169.708 732.6027 170.1217 732.6583 171.0514 732.9683 171.8893 733.8991 172.956 734.6316 173.4941 736.7153 175.0241 738.962 176.1792 740.9341 176.7797 741.9669 177.2529 743.3783 177.6598 743.7249 177.8662 744.0676 178.1284 744.6904 179.0793 744.9163 179.8001 745.0371 181.0489 745.1228 181.3331 745.451 181.8408 746.3203 182.3137 750.124 183.8613 751.4588 184.5178 752.2994 185.0295 752.8525 185.5313 753.5497 186.3906 753.9511 186.7012 754.2653 186.7918 754.8133 186.7581 755.17 186.8823 755.5694 187.2117 755.6089 187.2553 756.0612 187.7555 756.7866 189.2108 757.0656 189.5667 758.3266 190.8444 759.1256 191.1922 759.4365 191.4843 761.1814 194.4757 761.8428 195.1582 762.3482 195.4965 762.6451 195.813 762.9713 196.3662 763.0592 196.7639 763.0352 196.9952 762.9299 197.2271 762.5814 197.6159 762.4715 197.8813 762.5897 198.6122 762.6087 199.6622 762.2055 201.6809 761.9039 202.1254 761.473 203.2234 761.4904 204.2177 762.395 206.1592 762.6692 207.2248 763.0525 208.1146 763.4392 208.5645 764.1809 209.1915 765.4384 210.5527 766.0618 211.5548 766.2258 212.2266 766.695 212.8061 768.724 214.5059 769.9784 215.1729 771.0144 215.9801 773.3385 216.2479 774.5693 216.5807 775.8831 217.7194 775.9052 217.7385 778.3212 218.682 780.3767 220.0573 782.0144 220.7186 783.7072 221.1002 784.3647 221.1338 786.274 222.0657 787.6216 222.9131 788.6437 223.4226 789.4851 224.064 789.7612 224.6475 789.9137 225.2421 790.0789 226.3039 790.618 227.6377 791.1357 228.0793 791.9991 228.4425 792.368 228.4875 794.401 228.4461 794.8416 228.8819 795.4499 229.816 795.5933 230.2992 795.7306 231.5263 795.7365 232.7672 795.5755 234.6533 795.0419 236.6429 795.4722 238.8124 795.5798 240.7489 795.7368 242.2182 795.8758 242.4953 796.462 242.9113 797.0604 243.6692 797.4019 244.0618 797.4914 244.2567 797.6559 244.7288 797.7577 245.3711 797.9003 245.8089 798.4663 246.6407 798.8267 247.6165 799 248.5545 798.9791 249.762 798.3617 251.0939 798.3822 252.2261 798.1092 252.7459 797.4902 253.461 796.5481 255.6312 796.335 256.4905 796.283 257.7098 796.4431 258.3569 796.8644 259.0208 797.3441 259.4452 797.9011 260.2758 798.0451 260.6122 798.0292 260.9597 797.9273 263.1804 797.958 264.673 797.5892 266.1174 796.6871 268.522 796.1195 269.7649 795.849 271.4874 795.8754 272.9416 795.6468 273.5781 794.9194 275.1007 794.8668 275.3408 794.6809 276.5086 794.6755 277.0362 795.0212 278.7648 795.2224 280.5238 795.2007 280.9613 795.0893 281.3456 794.3725 282.0234 790.8441 283.4616 790.1931 283.8529 787.7676 285.6371 787.7676 285.6372 787.0138 286.1914 785.8053 286.9876 785.2479 287.5382 783.3776 288.3996 780.4948 291.3901 779.5613 292.7254 779.0512 294.0669 778.9433 294.9657 778.819 296.0009 778.8763 296.7236 779.4386 298.1731 779.5036 298.4977 779.5501 299.3447 779.4944 300.0694 779.3591 300.6154 779.0528 301.1525 778.7413 301.4883 777.5 302.4937 777.231 302.8044 776.9934 303.2436 776.8116 305.7501 776.0846 308.7002 776.1368 309.7137 776.8649 316.7105 776.6652 318.0486 776.4711 318.5216 773.9257 319.9792 771.8078 320.5556 769.7725 321.3615 768.8253 321.9966 767.963 322.5746 767.6046 322.9868 766.8611 324.4607 766.5057 324.7372 766.2558 324.9316 765.5843 325.2884 764.9078 326.2108 764.1098 327.57 762.1701 329.735 760.5888 330.423 758.6583 330.7406 757.4264 330.8147 757.3294 330.8205 755.7668 330.6256 753.2623 329.8145 752.2736 329.6491 751.7077 329.7633 750.3826 330.0305 749.0529 331.1905 748.5748 331.4065 747.2265 331.6521 746.1203 332.0723 745.6082 332.3891 744.7781 333.2489 744.5669 334.753 744.3711 335.2253 742.8549 336.8067 741.1481 337.9118 740.2198 338.841 739.0211 340.2615 738.34 340.7665 737.0541 341.0586 735.7838 341.0673 734.0005 341.8226 732.7404 342.1799 729.9677 342.6851 728.2376 343.0938 726.6713 343.2265 723.9857 343.1247 723.2474 343.065 722.1563 342.829 719.5343 342.6493 717.3621 342.7172 715.7783 342.5743 714.6426 342.6897 713.7719 342.9215 713.2861 343.1291 712.0982 343.9201 710.5786 345.1558 709.2362 346.1336 708.0518 346.8811 705.7284 347.8768 705.1202 348.3489 704.4209 348.6121 701.9448 348.2272 701.516 348.0883 699.8152 347.3112 698.737 346.6888 698.1568 346.65 697.526 346.7437 694.9546 348.1051 694.196 348.3119 692.2341 348.605 691.0873 349.2343 690.753 349.4924 690.2527 349.9435 690.0243 350.2513 689.7989 350.7875 689.5372 352.5995 689.5108 354.6778 689.4504 355.0575 687.8462 357.7942 687.6819 358.44 687.1734 362.7108 687.153 363.7189 687.1523 363.7578 687.0853 367.072 686.9211 368.3841 686.606 369.0166 685.4706 370.2887 684.8617 371.5464 683.8153 374.8586 683.4239 375.7118 682.722 376.7318 682.2648 377.7521 682.3712 379.1839 682.5464 379.5778 682.9036 379.9729 684.022 380.9452 685.034 382.23 686.5176 383.5528 687.6089 384.7323 688.5292 385.9756 689.9467 388.2219 691.7302 391.4348 693.1812 391.8251 693.5339 391.8427 695.3545 391.3661 695.9748 391.3047 697.2023 391.8708 697.58 392.1823 698.2658 392.9784 699.3728 395.1172 700.7414 397.1642 701.411 398.8985 702.5354 400.2743 703.9343 402.6361 703.9896 402.9501 703.7959 404.6722 703.7054 406.6208 703.7465 406.9688 703.7665 407.0283 704.2387 408.4309 704.4065 410.0015 704.5399 410.5992 704.7561 412.2831 704.7828 412.9092 704.4729 415.4831 704.5425 416.7052 704.4566 417.6094 704.0492 419.4918 703.3921 420.9152 703.0574 422.0955 703.0791 422.6143 703.4852 423.7305 703.8232 425.0127 703.9356 425.6493 703.9225 426.3466 702.9755 429.3165 702.7225 431.2194 702.4338 431.7807 701.9876 432.2106 700.7254 432.8472 699.9543 433.4321 698.3369 434.148 697.7189 434.6605 696.9873 435.4436 696.7153 435.8509 696.5409 436.1121 695.5552 438.236 694.8337 439.0629 693.6851 439.7835 693.4021 440.0366 692.7285 440.922 692.4077 441.5468 692.0723 442.5773 691.3417 444.282 691.0599 444.6355 690.0231 445.382 688.7604 446.8463 687.2231 448.3473 686.8721 448.9489 686.4308 450.5346 686.3573 451.5412 686.4491 452.0547 687.093 453.6265 687.2482 454.6505 687.2226 455.8177 686.7225 457.9224 686.4922 458.5774 685.9689 459.6158 685.2777 460.6561 685.0222 461.5622 684.4455 464.9633 684.5329 465.5051 684.7038 465.8932 685.1057 467.7524 685.1495 468.5858 685.0501 469.6267 684.9912 469.7513 684.6368 470.5016 684.1762 473.1634 684.0406 473.685 683.8483 474.0398 683.6652 474.2981 681.9222 475.7194 679.9084 476.9879 676.0525 479.6738 675.8603 479.8076 674.4882 480.0424 671.8901 479.7245 668.1826 479.8304 667.526 479.9188 666.8791 480.1501 666.0457 480.6339 664.638 480.9453 660.8367 482.0422 656.7032 484.2656 655.5818 484.9244 654.9316 485.463 654.2086 486.2703 652.4718 489.5078 651.8103 490.8774 649.1274 493.4356 648.672 494.2474 648.5401 494.7178 648.4966 495.4293 648.5977 496.2346 648.8739 496.8214 649.3124 497.1994 650.1104 497.5532 650.9254 497.7781 651.3803 498.1195 651.7287 498.5599 653.4076 501.1306 653.5653 501.468 654.0701 503.1902 654.1601 504.1574 654.1479 504.8375 654.0448 505.8298 653.6837 507.4222 652.4838 510.4853 652.278 511.2025 652.1048 512.2158 652.0806 512.7957 652.2107 513.9827 652.6691 515.4773 653.1965 516.8679 653.3828 517.9297 653.4106 519.637 653.3726 519.9857 653.0439 521.1954 652.7141 521.5708 652.2748 521.9204 651.4754 522.3894 650.3896 522.7156 648.3663 522.9063 648.0301 523.0634 647.5706 523.5927 647.1929 523.1572 646.7645 522.9096 644.7781 522.3319 641.7609 522.5698 639.3121 522.8531 638.7338 520.1891 638.8058 519.7792 638.8164 519.5461 638.7322 519.4731 638.5633 519.4771 638.0861 519.8014 637.5251 519.8988 636.6109 519.6565 636.4215 519.5241 636.3307 519.3285 636.1191 519.1255 635.4888 518.8473 634.9318 518.8361 634.4296 518.6871 634.1372 518.5082 633.8981 518.075 633.806 517.5311 633.8577 517.0009 634.4867 515.8867 634.7694 515.0806 634.7483 514.8278 634.6438 514.6888 634.004 514.7351 633.4785 514.616 633.0045 514.2094 632.8957 513.9566 632.896 513.5437 633.0957 513.2189 633.8152 512.5535 634.0683 512.248 634.1612 511.9759 634.1782 511.611 634.063 510.936 633.9024 510.688 633.7648 510.5615 633.4544 510.506 631.5379 510.6917 630.4097 510.6143 628.9917 510.2775 628.4941 510.0723 627.5967 509.5317 626.8684 508.6586 626.7134 508.3527 626.5919 508.0517 626.4651 507.3207 625.9849 505.9826 625.4698 505.1531 624.9765 504.7145 623.2272 503.9149 622.6536 503.5391 622.1237 503.149 621.7948 502.7673 621.5486 502.2843 621.406 501.5743 621.4175 501.129 621.8147 499.5834 621.8839 498.2946 621.7434 497.4576 621.602 497.1727 621.3658 496.9326 620.9498 496.741 619.3112 496.4374 617.2452 495.8756 615.1373 495.6302 613.7765 495.3104 612.8797 494.6055 612.6056 494.1952 612.4983 493.8104 612.4936 493.3708 613.1894 491.3751 613.2254 491.0241 613.0954 490.6972 612.776 490.2827 611.8086 489.5154 609.8086 488.4106 609.1983 487.8442 608.7733 487.3549 607.5903 485.3659 600.4324 485.8689 599.2405 485.957 598.6407 485.9935 596.8967 486.0989 595.5281 486.1814 594.5636 486.2656 590.0375 486.6415 581.0995 487.125 580.6183 487.185 580.0397 487.2571 577.1035 487.3694 573.6111 487.5439 569.706 487.7312 564.882 487.9897 564.6776 487.9725 563.0618 488.0983 562.953 488.0888 561.7326 488.1358 561.2901 488.1849 550.7704 488.5679 548.7043 488.6759 548.0096 488.7012 545.9992 488.756 543.6172 488.8413 535.7614 489.1305 531.6676 489.2972 531.6375 489.3128 529.1988 489.4188 529.1949 489.419 525.5512 489.594 516.2074 489.9146 515.2147 489.9155 512.6808 490.0146 512.5923 490.0235 512.3153 490.0217 500.2425 490.6183 492.9716 490.9092 492.8044 490.9155 486.8139 491.1426 486.4148 491.1339 483.2918 491.2159 479.804 491.3065 477.8888 491.3728 468.9701 491.4982 468.979 491.5111 468.085 491.5232 465.2679 491.5651 464.5557 491.6012 462.5176 491.5884 461.1775 491.6481 459.4422 491.69 454.6387 491.7415 452.6 491.8065 436.4722 492.3985 434.9854 492.4701 434.8325 492.4777 430.1247 492.6843 414.3678 493.0806 407.1719 493.1187 403.6573 493.1514 400.0028 493.187 391.4953 493.265 388.5244 493.2252 388.3236 493.2405 381.0968 493.1724 380.657 493.1797 380.5851 493.1911 378.0463 493.1815 377.3264 493.1999 376.9586 493.211 376.7011 493.2184 376.4663 493.1991 375.9054 493.2254 375.8334 493.2367 375.7856 493.2297 371.8508 493.3288 364.4188 493.5073 364.0323 493.5102 363.6988 493.5056 362.8235 493.5226 361.7813 493.5394 360.1102 493.5775 356.0557 493.6063 355.3092 493.6199 354.185 493.6176 353.4905 493.6196 352.5481 493.5832 350.0218 493.5928 349.5024 493.5962 344.3076 493.6288 343.8984 493.6591 341.0945 493.6971 339.4875 493.7212 333.8467 493.7948 333.7216 493.8057 333.5246 493.8161 331.8723 493.8417 329.1288 493.8846 329.0492 493.8919 328.9508 493.8686 328.7575 493.8904 328.6022 493.9048 325.5706 493.9614 323.9413 493.9721 319.0507 494.0631 316.6965 494.1032 310.8762 494.1788 310.8459 494.1786 309.7434 494.1864 309.5047 494.1696 291.6802 494.1948 284.7211 494.1966 283.7785 494.2177 281.7698 494.1683 279.9968 494.159 278.508 494.1448 278.4891 494.1484 275.7615 494.136 266.7435 494.0945 262.9097 494.0674 261.5762 494.0717 261.5048 494.0717 259.2234 494.065 253.5926 493.9926 253.1911 493.9838 253.0321 493.9818 252.589 493.9688 252.5478 493.9683 246.0021 493.8599 241.201 493.7604 234.8179 493.5737 230.738 493.4473 230.5183 493.4442 223.2834 493.2093 218.5885 493.0457 217.4793 492.9983 217.0027 492.953 207.7841 492.6733 207.1975 492.6405 205.5008 492.5807 200.4232 492.3952 198.9901 492.3423 195.8125 492.3115 186.0639 491.9388 184.6985 491.8925 182.4441 491.8236 181.2315 491.8095 180.8416 491.7948 180.7963 491.7863 180.5996 491.7789 179.5139 491.7275 175.2656 491.5715 174.0596 491.5219 169.2392 491.3417 168.0856 491.2983 168.0627 491.2972 167.9208 491.2902 167.8436 491.2869 167.3228 491.2648 167.1553 491.2578 166.8094 491.2431 152.418 490.7691 149.6155 490.6702 147.5863 490.5591 147.5825 490.559 142.3496 490.3574 135.5484 490.1149 128.4752 489.8576 128.3126 489.8461 127.4929 489.8078 124.7466 489.6787 122.3396 489.5649 117.6705 489.3618 113.7912 489.1421 108.0385 488.9717 108.0312 488.9713 100.5974 488.6858 98.1762 488.5763 99.0438 487.9735 99.7853 487.3502 100.1936 486.6608 100.3567 486.1808 100.4004 485.6184 100.2817 485.0356 100.0911 484.6623 99.257 483.8586 98.4684 483.2839 98.1717 482.995 97.9172 482.5753 97.7849 482.0462 97.7863 480.2408 97.6927 479.5554 97.5161 479.0348 97.1066 478.1981 96.4186 477.214 95.8487 476.5368 95.4904 476.1723 94.7469 475.6542 93.6467 475.2085 92.4095 475.0613 91.3127 474.7538 90.3303 474.1644 90.1631 474.064 88.8526 472.9814 88.6079 472.5804 88.468 472.1214 88.2807 470.189 88.0594 469.5262 87.7268 468.8328 86.9011 467.8469 85.523 467.0729 84.9262 466.7837 84.7085 466.7498 83.9475 466.1812 83.6901 465.5898 83.291 463.7893 83.3375 463.0529 83.6164 462.0949 84.0258 461.1537 84.6304 460.2977 85.367 459.5642 85.798 459.2389 86.8551 458.7319 87.9895 458.3044 88.7773 457.8293 89.2658 457.4314 89.7774 456.8715 90.0346 456.5574 90.2566 456.1189 90.4091 455.4804 90.4051 455.3526 90.3841 454.688 90.2342 454.2097 89.2956 451.9971 89.1284 450.7387 89.2078 450.0786 89.3354 449.6866 90.0419 448.2946 90.2272 447.4702 90.2605 446.7756 89.7881 445.0572 89.1007 443.6134 88.9439 442.872 88.9423 442.464 89.058 441.924 89.1707 441.6915 89.5462 441.1194 89.7457 440.9556 90.2298 440.6488 91.9688 440.2293 92.6577 439.8426 93.1276 439.4552 93.6305 438.7384 93.8138 438.3373 93.9888 437.5861 93.9696 436.8841 93.8409 436.4716 93.5347 435.8337 93.4342 435.6244 92.8981 434.9643 91.4292 433.5632 91.1452 433.1831 90.7384 432.4406 90.5844 431.9259 90.3732 430.5786 90.3384 429.3868 90.6776 427.621 91.7554 425.4492 91.9813 424.0386 91.9026 423.4861 91.761 423.0426 91.374 422.3123 90.7175 421.6585 90.0487 421.1346 89.031 420.7385 88.0978 420.13 87.684 419.7697 87.2276 419.0489 87.0076 418.3191 86.9871 417.7452 87.1414 417.2001 87.4755 416.4279 88.2585 415.1194 88.3887 414.0927 88.3379 413.4103 88.2466 413.0432 88.0882 412.7828 87.1089 411.7958 85.9331 410.4162 85.6543 409.7579 85.5987 409.2243 85.7508 408.4317 86.1804 407.7147 87.1417 406.803 87.812 405.9676 88.0295 405.4515 88.2084 404.643 88.1474 403.7491 87.9082 402.4951 87.9286 399.7301 87.609 398.5905 86.3938 396.3284 86.0204 395.3369 85.8891 394.1859 85.8949 393.5209 86.1928 392.6978 86.2387 392.6374 86.842 391.8432 87.4028 391.364 87.6901 391.2543 87.9767 391.2782 88.2566 391.4409 89.7817 391.8829 90.6129 391.6896 91.1703 390.9733 91.2603 390.3444 91.2628 390.3274 90.9379 389.3872 90.1942 388.6683 89.3795 388.2634 88.3848 388.0363 82.7543 388.5271 82.145 388.3935 81.6899 388.1145 81.0974 387.3826 81.094 387.3745 80.7693 386.5917 80.6119 385.5063 80.9786 384.0202 82.2578 382.0943 82.5886 381.4385 82.8231 380.6469 82.8333 380.2813 82.7894 379.6149 82.1326 377.6349 81.648 376.1736 81.6015 375.1579 81.318 373.7621 81.2627 373.4896 80.8308 372.3422 80.7357 371.7244 80.7606 370.8351 80.7693 370.528 81.0598 369.5219 81.9707 369.0988 83.7668 369.1829 83.9604 369.4046 83.9323 370.4182 84.5394 372.0377 85.6269 372.9917 86.61 372.5055 87.3133 371.9099 87.8328 371.1927 87.8509 371.0999 88.0362 370.1507 87.6883 368.2619 87.2763 367.3524 86.6842 366.6375 85.9965 366.2191 84.6838 365.833 82.8705 365.9481 81.8393 365.7692 81.3953 365.5736 79.7302 364.4119 78.8067 363.5209 78.0608 362.5349 77.6383 361.5915 77.6433 360.9763 77.8925 360.5511 78.2371 360.2783 79.6524 359.6538 80.3526 359.1583 80.9327 358.493 81.2322 357.6035 81.1923 356.8042 80.5014 355.2048 80.3153 354.1045 80.2556 353.751 80.3457 353.2061 81.1531 351.6007 81.3088 350.7484 81.3058 350.1124 81.0384 348.946 80.964 347.7287 81.0972 347.3194 81.2918 346.9957 82.1658 346.0481 82.4346 345.6699 82.6015 345.3021 82.707 344.7031 82.6722 344.0961 82.4119 343.3903 82.0324 342.7782 81.1559 342.0188 80.6795 341.7737 80.0413 341.5771 79.4813 341.577 78.1522 342.0963 77.491 342.0778 77.102 341.9502 76.1284 341.2887 74.9562 340.8455 73.9565 340.7172 72.2623 340.3403 71.7572 340.0432 71.4039 339.6714 70.8534 338.7664 70.4857 337.9139 70.4583 337.6781 70.5382 337.4699 70.9574 336.923 72.0577 336.1285 73.2653 334.9736 73.4908 334.6193 73.7818 334.1618 73.9306 333.7935 73.9701 333.4334 73.9763 332.9154 73.8539 331.8937 73.2264 329.3363 73.0354 328.9204 72.5622 328.4312 71.9544 328.1591 71.1558 328.0437 70.7549 328.0887 70.3137 328.305 69.7871 328.8354 69.6371 329.0746 69.3091 331.1145 68.7771 333.5 68.4727 334.1239 68.2812 334.294 67.9534 334.4362 67.0319 334.3763 66.3467 334.0917 65.8317 333.6387 65.1456 332.8411 64.6826 332.1323 64.0168 331.3285 63.1095 330.7777 62.1608 330.3505 61.9809 330.1483 61.4744 328.8877 61.2535 327.5626 61.3136 326.9511 61.6287 325.7315 61.8656 325.2705 62.7733 324.1763 63.086 323.6206 63.2537 323.1193 63.272 322.6184 63.2017 322.0977 63.0207 321.6046 62.7403 321.1958 62.3875 320.89 60.8163 320.167 60.4556 319.8917 59.8629 319.2578 59.338 318.3427 59.1076 317.7563 58.9145 317.0454 58.8642 316.4624 58.903 315.8214 59.1375 315.1271 59.4087 314.7361 61.1357 312.871 61.5254 312.1967 61.8971 310.922 61.8782 310.0282 61.5956 309.0306 61.3712 308.6333 59.9642 307.3399 59.5441 306.8826 59.1705 306.3424 58.8329 305.7563 58.7655 304.9427 58.7685 304.9013 58.8351 303.9832 59.0027 303.5513 59.3166 303.0502 60.0516 302.482 60.9117 302.1517 62.7021 302.6207 63.7164 302.5295 64.5366 301.9718 64.9119 301.4272 65.0131 301.1219 65.0013 300.7995 64.9013 300.4838 64.6941 300.0467 64.1559 299.2492 63.1955 298.5186 61.3643 297.4922 61.0143 296.8776 60.9369 296.3856 60.9413 295.837 61.1966 294.7936 61.4366 294.447 62.1022 294.0121 62.8305 293.8109 63.7141 293.3562 64.3264 292.6129 64.545 292.0036 64.5146 290.3803 64.7198 289.3102 65.2839 288.4649 66.1534 287.5092 66.406 286.8367 66.3797 286.2991 66.0982 285.5592 65.8237 285.0717 65.1166 284.3349 64.4501 283.9267 62.8778 283.4397 62.336 283.1869 61.6727 282.6768 61.215 282.0751 61.0132 281.5616 60.8546 280.8188 60.856 280.3788 61.2749 278.8081 61.2808 278.1333 61.0291 277.385 60.591 276.6644 60.3229 276.3623 59.4743 275.719 58.5698 275.3204 58.0086 274.9173 57.5603 274.3757 57.198 273.938 56.9118 273.432 56.7301 272.9051 56.6598 272.4788 56.6239 271.2681 56.4585 270.7106 56.0643 270.0408 55.3458 269.1722 54.9307 268.3863 54.9214 267.7652 55.0851 267.356 55.3018 267.0279 55.9068 266.6536 57.4094 266.2083 57.7397 265.9759 58.1197 265.3243 58.2089 264.8773 58.1682 264.2712 57.3707 262.5467 57.2574 261.8517 57.3937 261.3623 57.5252 261.1342 58.4473 260.1124 58.7215 259.5373 59.2799 257.9904 59.3387 257.2287 59.2739 256.903 58.9147 256.4009 57.8594 255.7965 55.98 255.3931 55.4686 255.381 54.5504 255.5382 53.7884 255.8689 53.4091 255.9467 52.542 255.8577 52.2961 255.73 51.778 255.1642 51.668 254.9426 51.6076 254.5367 51.957 253.7406 52.5732 252.7378 52.7065 252.3594 52.7469 251.9903 52.6279 251.5464 52.2248 250.92 51.4364 250.5061 50.0173 250.3605 48.8757 250.751 48.5631 251.2132 48.0135 252.2735 47.7462 252.5853 47.549 252.6991 47.0196 252.736 46.1975 252.374 45.6916 251.8716 45.5368 251.6071 45.5048 251.2754 45.5818 250.6016 45.9894 249.7249 47.3792 248.7156 47.9255 248.0676 48.1764 247.4846 48.173 246.9268 47.9562 246.2898 47.7399 245.9717 46.9629 245.2935 46.2004 244.9458 45.1624 244.8246 44.2 245.1532 44.0021 245.3753 43.3848 245.2066 43.0499 245.0487 42.4772 244.6217 42.1476 244.1662 41.9809 243.7865 41.9782 243.7792 41.6772 242.9885 41.3656 241.5774 41.3085 239.932 41.3612 239.3106 41.6872 238.0921 42.0349 237.3519 42.3404 236.9023 42.8911 235.676 43.0576 234.503 43.0062 233.3365 42.8293 232.7777 42.4366 231.9655 42.1166 231.5587 41.6138 231.0931 40.829 230.7117 38.9515 230.2471 38.3626 229.931 37.8601 229.4659 37.4212 228.8168 37.0697 227.6687 36.775 227.0807 36.0207 226.2507 34.5618 225.2525 34.0367 224.6871 33.4124 223.6158 33.2033 222.7377 33.1552 221.8384 33.5857 220.309 33.5291 218.9721 33.4077 218.5512 33.1368 218.0046 32.2463 216.7582 32.1653 216.2987 32.3977 215.7171 32.5863 215.549 32.5944 215.5418 34.0259 215.2057 34.7632 215.131 35.1076 215.0036 35.6485 214.5786 36.7174 213.2332 36.8363 212.9753 36.8432 212.6136 36.0024 211.4901 36.1405 211.2184 36.3388 209.8765 36.2177 209.0837 35.9455 208.2936 35.4012 207.3812 34.7559 206.643 32.9615 205.358 32.9595 205.3557 32.4385 204.7771 31.859 203.7582 31.5655 202.7548 31.6251 200.7984 31.565 200.0109 31.4863 199.5868 31.2812 199.032 30.8729 198.3251 29.8274 197.0364 28.3704 196.1582 27.5683 195.5821 26.9681 195.0207 26.2785 194.0016 25.8471 192.6469 25.8186 192.1088 25.8723 191.4416 25.9892 190.9893 26.395 190.2565 27.1347 188.5918 27.0775 187.6918 26.4312 185.6818 26.4054 184.5411 26.6818 183.2864 26.9197 182.7955 30.0086 179.3077 30.4402 178.5239 30.9328 177.0269 31.0351 176.1821 30.9458 174.4824 30.5081 172.5714 30.4426 172.3362 29.2603 170.6992 29.2505 170.6953 27.6517 170.0623 27.1534 169.9802 25.8864 169.7715 23.2495 169.4063 21.9332 169.0533 19.9177 167.1436 19.4495 166.1206 19.2224 165.855 18.7027 165.9687 17.9199 165.5927 17.5958 164.776 17.879 164.2788 19.2345 163.6835 19.3575 163.3219 19.2784 162.7868 19.5704 161.799 19.7252 160.0014 19.7829 158.3991 17.6165 158.2124 17.115 157.515 18.3559 155.9005 18.6665 155.6788 18.7865 155.4624 18.8124 155.2177 18.7196 155.0379 18.1389 154.8577 17.6585 154.4331 17.5915 154.1982 17.663 153.893 17.78 153.6799 17.7777 153.3949 17.5427 153.0682 17.1699 152.9081 17.0332 152.7855 16.9928 152.5574 17.1508 152.2101 17.1663 151.9819 16.6843 150.1527 16.1418 148.8479 15.4266 146.7826 15.5117 146.3447 15.4076 145.8769 14.1979 144.046 13.3651 143.6243 12.8721 143.1236 12.8102 142.8476 12.9406 142.1754 12.9263 141.6309 12.41 140.7301 12.2513 140.6178 11.87 140.5852 10.2412 139.2448 9.5332 138.0976 9.3649 138.0418 8.5225 136.9428 7.2898 136.1646 6.566 135.9712 5.9826 135.878 4.3402 134.8111 3.232 133.8356 2.0315 132.9743 1.9153 132.8406 2.0361 132.3507 2.3532 132.1802 2.7199 131.4705 2.7575 129.6083 2.5636 129.5257 1.8736 129.6443 1.1187 127.9805 1 127.6185 1.4898 126.9826 1.9539 126.228 2.2061 125.4493 2.4629 124.2686 2.0644 123.592 1.99 122.4559 2.1308 122.0389 2.354 122.0435 2.8461 121.6235 3.4335 120.6907 3.7535 119.9075 4.2359 119.7651 5.5664 120.14 5.6651 120.0295 5.8371 119.3626 6.7573 118.5286 7.1469 117.1887 7.4019 116.0114 7.3873 115.8891 7.2418 115.728 6.8176 115.6291 6.8039 114.8604 6.9336 114.7321 7.4109 114.8291 8.0775 114.4081 8.2307 114.2576 9.081 112.8469 9.1027 112.669 8.5767 111.8286 8.6947 111.1901 8.9212 111.1032 9.9403 111.296 10.9715 111.4738 11.2661 110.9747 11.5088 110.9645 12.3022 110.5975 12.0672 110.2924 12.0207 109.8759 12.1429 109.6542 12.4998 109.6425 13.1642 109.2824 13.3159 109.0672 13.08 108.0623 12.6431 107.0656 12.6429 106.9706 12.7808 105.8879 13.0852 105.3284 13.2033 105.2072 13.5066 105.1931 14.2667 104.578 14.2412 103.307 14.0197 102.839 14.0585 102.7071 14.7603 102.569 15.5693 102.6095 15.745 102.4055 15.7314 102.0885 15.474 101.3816 14.6257 100.8606 14.5865 100.0683 14.5093 99.544 14.4621 99.2234 14.2192 97.8912 14.0612 97.5509 14.0652 97.2353 14.1486 96.919 16.1063 95.1565 16.8053 94.4745 17.4492 93.8473 17.9565 93.744 18.1162 93.6242 18.3068 93.0682 18.7336 92.0645 19.3144 91.2979 19.0237 89.8238 18.8092 89.3752 18.6761 89.2867 18.1235 89.2818 17.4981 88.9892 17.0013 88.1804 16.9537 87.7227 17.4519 87.5618 18.0236 86.8371 18.0449 86.3586 17.9775 85.9228 18.3517 85.3203 18.6817 85.1002 19.2446 85.0291 19.8469 84.8712 19.987 84.7656 20.2912 84.2754 20.5106 83.7392 20.6622 82.9764 20.3576 82.16 19.8062 81.3652 19.3216 81.2497 18.4058 80.4031 18.3142 80.2172 18.1745 79.7735 18.2041 79.5209 18.4722 79.2077 18.7017 78.4211 18.7055 78.3186 18.4227 77.8712 18.1468 77.8802 17.9163 77.9429 17.7313 77.7935 17.6073 77.4863 18.646 76.2175 18.809 76.2119 19.2476 76.4368 19.6705 76.4674 21.0643 76.1576 21.2535 76.0501 21.3516 75.6314 21.5342 75.3908 22.7657 74.2888 23.2263 74.1108 23.6072 74.3672 23.8177 74.4125 24.4445 74.2478 24.7228 74.0825 25.0648 73.5088 25.4717 72.2757 25.6443 70.8968 25.6613 70.7614 25.6236 70.3228 25.5329 70.103 24.6567 69.8256 24.6407 69.5248 24.945 68.9498 26.0248 68.0668 26.5018 67.4217 27.6236 65.8864 27.9969 64.7474 27.6367 64.5485 27.4998 64.3499 27.4067 64.0876 27.3017 63.3931 27.2437 62.5621 26.4534 61.1358 25.8368 60.7951 25.4311 60.9142 25.2959 60.8829 24.6991 60.1971 24.5413 59.7316 24.4937 58.1787 24.5311 57.4385 24.9272 54.464 24.9025 54.3073 24.6694 54.0445 24.4691 54.0337 24.0408 53.8327 23.8912 53.1356 23.9511 51.6472 24.3511 50.6079 24.3825 50.2554 24.2107 49.8654 23.9238 48.5553 23.866 47.9374 23.7354 47.7732 22.7119 47.3767 21.3551 47.4174 20.817 47.8783 19.3885 48.1956 18.5588 48.3103 18.3579 48.2117 18.2384 47.7551 17.6787 47.2178 16.6266 46.5868 16.089 46.8906 15.5081 46.8316 15.1171 46.654 14.2994 46.6475 14.129 46.7479 13.9993 46.9689 13.7924 47.0699 13.6182 47.0482 12.6874 45.7948 12.4074 44.5528 13.1581 43.7016 13.8974 43.5762 14.6628 43.25 14.7989 42.6169 14.7715 41.5096 14.7042 41.279 14.4981 41.1289 14.2502 41.2702 13.873 41.2262 13.3873 41.0491 12.8689 40.6275 11.9088 39.6539 11.1677 39.7299 10.8951 39.5224 10.7959 38.6139 11.1481 38.2009 11.2178 38.2604 11.2135 38.5833 11.4531 38.5577 11.8784 37.9078 11.8046 35.8602 11.7884 35.4103 11.7501 35.1905 11.6422 35.0629 11.5722 34.8501 11.6642 34.6728 12.4905 34.542 12.7152 34.7136 12.8195 34.9645 13.0054 35.1651 13.5833 35.3074 13.6759 35.3108 14.676 35.3468 14.925 35.6789 16.3974 35.2832 17.7106 34.5852 18.3009 32.9488 18.3689 32.5408 18.0007 31.8468 17.556 29.831 17.3849 28.5134 17.7615 28.158 18.7325 26.7749 18.7156 26.6185 18.5919 26.5835 18.4772 25.9977 18.4692 24.2638 18.4898 23.2913 18.597 23.261 19.1335 22.6758 19.2557 22.2378 19.267 22.0153 19.2922 20.4042 19.0491 18.8785 18.8885 18.6142 18.4509 18.3629 18.3325 18.3889 18.3256 18.5788 18.1959 18.7072 17.474 18.7725 15.6122 17.2002 15.0764 16.7362 14.4929 15.719 13.8242 14.9574 13.224 14.6013 13.5883 13.8616 13.7513 13.2401 13.686 13.0592 13.1078 12.5136 12.2939 12.4084 11.576 12.4701 11.37 12.3772 10.9799 12.2015 10.8234 12.0323 9.9125 9.4221 9.8899 9.2121 10.2681 8.1992 11.7755 6.9571 12.2054 6.1857 12.1505 5.9291 12.0465 4.7429 12.7123 4.2459 12.2767 2.8161 12.1367 2.6095 11.6533 2.0599 11.5063 2.0431 11.133 2.2047 10.7015 1.8963 10.6126 1.7373 10.6706 1.0026 10.6708 1 11.6001 1.0243 28.2116 1.6338 Z"/>
</g>
</svg>