<?xml version="1.0"?>
<svg xmlns="http://www.w3.org/2000/svg" version="1.2" baseProfile="tiny" width="800" height="1241" viewBox="0 0 800 1241" stroke-linecap="round" stroke-linejoin="round">
<g id="cb_2018_us_state_5m">
<path d="M 50.4215 529.9486 50.2818 529.7397 50.1155 529.153 49.6825 525.893 48.7303 522.0995 47.5039 518.2995 46.8184 517.0571 45.7817 515.7015 45.4145 515.5326 45.0731 515.6004 44.2444 515.4237 43.1706 514.8211 42.8274 513.9455 42.7882 513.1555 42.7964 512.8105 42.8964 512.543 43.269 512.0514 43.5019 511.8928 43.8616 511.7205 45.6414 511.5346 46.1817 510.9899 46.7174 509.4321 46.7931 508.0781 46.9035 507.2683 47.1532 506.8487 48.8111 503.9766 50.4726 500.7988 50.6634 500.0901 50.6045 499.5571 50.3661 499.0016 48.2733 496.4524 47.0142 494.9206 45.7606 493.7968 45.43 493.1282 45.3631 492.4062 45.427 492.0639 46.2993 490.2631 46.7462 489.1894 46.8658 488.3283 46.4958 486.3005 45.8747 484.3496 45.6064 483.6997 45.1963 482.9278 44.928 482.5606 44.5209 482.0657 43.1772 480.8174 42.7402 480.1914 42.7167 479.816 42.7912 479.4824 43.5703 477.8542 43.6204 477.3326 43.3913 476.6282 43.028 476.1356 42.1397 475.447 40.9069 475.031 39.8529 473.9532 39.3552 473.3111 39.1716 472.8337 39.1078 472.3548 39.0831 471.2518 39.1845 470.803 39.1622 469.7853 39.0844 469.5684 38.6253 469.0653 38.2778 468.7791 37.8239 468.5882 36.4903 468.3415 35.7357 468.0818 35.2285 467.767 34.674 467.1358 34.4592 466.511 34.451 466.3164 34.5115 464.2621 34.7367 463.8353 35.186 463.2056 35.9074 462.4792 36.1936 462.2801 36.5199 461.8039 37.1928 459.606 37.2355 459.0722 37.7152 457.1748 37.9468 456.873 38.0696 456.4853 38.2185 455.0255 38.0155 454.2652 37.6364 453.755 37.6391 453.6706 37.8513 447.1895 37.8866 445.9802 37.8979 445.5911 38.2989 433.2756 39.2093 405.3683 39.7982 385.0716 39.8765 383.2489 41.5389 330.1726 41.6908 325.3379 41.8384 320.5632 41.9564 316.792 42.0796 312.8785 42.2544 306.9362 42.7687 291.4608 42.8474 288.1465 42.8845 286.5846 43.0555 282.3293 43.1223 279.9837 43.2488 276.0287 43.4059 271.0265 43.4906 268.4724 43.6735 260.6346 43.6992 259.7175 43.7055 258.7759 43.7849 254.3219 43.7989 254.2659 43.9253 251.5231 44.1713 242.8201 44.4431 233.2192 44.4434 233.2113 44.4536 232.892 44.4597 232.3297 44.5788 228.2464 44.6656 225.3768 44.742 223.1619 44.7413 223.0525 44.7324 221.6119 44.7471 221.4363 44.7654 218.662 44.7715 218.5977 44.8043 217.9519 44.8178 217.6655 44.9361 215.5374 45.1915 207.8378 45.2299 204.9141 45.9187 183.9197 45.9648 182.5164 46.0391 180.5629 46.4945 168.6029 46.4952 168.5861 46.7545 161.5629 47.0131 154.6343 47.4748 146.0132 47.5098 145.4352 47.4908 145.2776 47.5073 144.896 47.5105 144.801 47.512 144.7534 47.5246 144.2449 47.5286 144.1795 47.7796 140.0416 49.1083 111.4054 49.1102 111.3451 49.3907 102.2891 49.3971 102.2168 49.4315 101.0438 49.4332 100.9916 49.815 88.7211 50.6131 67.4825 50.6738 66.1202 50.916 61.1352 51.4871 44.7901 52.1514 27.7947 52.3456 22.8305 53.0303 1 84.8386 1.801 84.8337 1.7741 124.1099 2.7191 128.9058 2.753 129.7075 2.6604 166.7127 3.4584 165.043 88.7979 164.9975 91.1315 164.9254 94.8319 164.5937 106.7444 164.362 124.9739 164.1493 131.1594 164.1094 135.5102 163.994 137.6779 163.9449 141.417 163.7342 157.4996 163.5651 163.884 163.512 165.8915 163.4871 167.7523 163.5332 168.906 163.2672 179.4502 163.1954 183.4243 163.1939 183.5111 164.4264 184.5009 165.3887 184.294 168.0192 188.1842 168.0376 188.9714 169.4353 191.234 170.091 192.9591 170.786 194.1464 172.4481 194.731 172.8984 195.4648 173.1007 197.5375 175.861 200.4485 178.5216 205.4968 179.4063 205.7519 179.558 206.6352 180.2135 207.3462 182.5975 206.2681 183.3188 207.4062 183.7824 208.7921 186.0386 210.2844 186.6779 212.6328 186.4106 213.7321 186.4344 217.6732 187.232 218.5291 187.8358 220.445 187.7997 221.9669 188.2124 222.8838 188.9917 223.456 191.5651 222.4519 192.3356 222.7882 194.1258 225.0234 193.8571 227.6313 194.4704 228.9611 194.977 229.649 196.0575 229.7181 196.7437 229.4473 198.5509 230.727 200.0445 232.1015 200.9567 233.6793 200.3934 236.7551 199.2582 240.8334 199.9724 243.064 201.9416 244.2319 202.5596 244.3487 204.1326 246.3196 204.2603 250.612 202.7608 253.9112 200.7162 255.0775 199.6809 255.7952 196.725 258.9312 197.0307 260.3694 198.4802 261.2542 201.2387 262.0942 202.5413 261.96 203.7102 263.184 202.0365 263.9343 201.9096 265.2127 203.9531 267.7889 204.8471 270.8306 205.1857 270.9475 207.0174 270.2221 207.8584 272.0249 209.2605 272.101 210.8957 271.4379 211.5003 271.799 210.2801 275.042 209.1163 275.8864 206.2234 276.3011 205.1968 275.756 200.8712 276.5345 199.505 277.5424 197.3307 278.2381 195.8912 281.4167 197.1526 281.6175 198.5394 281.1424 200.4438 281.2974 201.3738 282.8715 203.1379 282.8926 205.859 284.1738 206.0425 285.3036 207.9884 285.7341 209.7101 289.7302 212.7384 288.9516 217.495 291.7752 217.5393 293.4507 218.8288 294.2885 219.9451 294.2271 220.8035 295.261 220.5885 297.5074 221.851 298.6896 223.1145 303.1 225.5341 304.8393 228.1803 306.3528 228.8532 306.8708 230.2603 306.0674 231.5648 306.7672 231.5777 307.3247 232.1288 307.6486 234.7571 307.287 235.9892 307.9506 236.1571 308.924 237.5562 310.0473 240.3218 309.5492 243.3054 310.8966 245.712 310.4591 248.073 311.8646 247.444 313.3835 248.24 315.2414 248.9254 316.1452 249.5045 316.2417 250.4798 316.9762 251.2657 319.7787 250.7945 320.5146 250.1325 322.7349 250.224 323.5949 251.7084 324.1755 254.764 324.7307 255.5162 326.2403 255.7183 328.1985 257.031 330.2022 259.622 330.5724 261.8368 332.1735 263.7695 333.9492 264.7287 336.1641 265.4758 337.9442 267.0789 338.7262 268.8877 339.0445 269.221 339.8962 269.1254 341.5432 270.6611 345.053 273.5408 348.4587 274.5417 348.4314 275.499 348.8052 277.0383 352.3465 278.1134 356.7535 278.8958 358.7901 280.2433 362.2831 282.1572 361.9346 282.5925 361.2176 285.8504 361.8977 286.0653 362.9326 287.6171 365.4356 289.6939 367.7516 290.8633 368.7937 290.7066 369.3016 294.1914 371.1377 295.0549 371.4634 295.3606 372.372 294.6341 372.8945 293.5566 375.1039 294.2362 377.7968 293.9911 378.949 293.2356 379.932 292.5824 380.2589 292.1307 381.6394 292.9978 382.2573 294.3335 382.4973 295.0145 383.8514 294.5183 384.6447 294.6963 386.3322 296.08 387.7526 297.9725 388.256 298.4624 389.4362 298.1521 390.8567 299.0416 391.5908 300.4172 390.2544 302.1639 389.7567 302.6028 390.2537 302.7386 391.4049 304.5762 393.3058 305.5453 393.5885 306.3889 395.2688 307.8491 395.5653 309.0029 395.4098 310.4174 396.2899 311.2924 395.8845 311.5956 396.1089 312.065 397.7766 314.1369 399.7065 313.9195 403.1073 313.1327 404.2707 312.3678 404.6509 311.4434 407.2681 311.7505 408.1374 313.6341 409.5572 314.0287 410.4335 315.9532 410.2803 317.1125 407.8612 318.8572 407.3517 320.0699 407.4079 320.9938 405.9641 322.1579 402.8791 322.5376 402.8616 325.0524 403.2827 326.6629 403.552 328.4702 404.6046 330.0172 407.1547 331.4307 408.4852 331.2566 411.5336 330.2091 412.7963 329.0896 413.5473 329.3753 415.7581 329.7713 417.0744 331.4202 417.2996 332.3329 417.8605 332.7 419.1913 332.1585 419.8028 332.8091 420.9373 334.7684 421.5227 335.1995 421.6514 336.4838 421.4605 338.1863 420.1685 340.8746 419.1687 344.0568 420.5462 346.3097 420.6439 348.5488 421.9102 350.5078 421.6082 351.9388 420.2268 351.8776 418.9099 355.362 416.8995 356.9988 417.4573 357.9087 417.0738 358.98 416.1533 363.2043 415.3986 366.5603 416.8464 366.5749 416.8527 367.4508 418.1177 367.6559 419.9919 367.7203 425.6071 365.324 429.5388 366.669 431.4746 366.6398 432.1197 366.6221 432.5085 365.6825 433.8986 364.7608 436.2243 365.0978 437.9493 364.5258 439.9848 365.3962 441.7155 364.1332 443.8254 361.3661 444.8659 360.2462 444.2902 358.2818 444.8211 357.9624 445.4798 358.3746 449.22 359.06 450.5632 360.4451 451.1149 360.8699 452.1857 360.4277 453.8708 361.4785 455.1647 361.6919 456.4459 360.4316 457.2082 360.2959 460.0996 359.9234 461.0371 357.4609 462.6032 355.6833 465.0983 357.0116 468.6924 357.1243 469.7521 356.8438 473.0906 356.758 474.1103 354.5799 478.5549 354.3658 479.479 355.3322 482.5796 355.1236 483.3333 354.1347 484.5708 353.4181 485.0671 351.9647 485.5733 350.53 485.1894 349.8663 486.2135 350.1412 489.4777 352.1357 490.8046 352.8574 494.3337 352.4688 495.1167 353.2061 497.5545 352.8823 502.6676 352.1131 503.5678 350.7567 503.7062 348.928 504.9734 347.5931 503.7748 344.9655 504.0084 343.2365 508.258 343.7463 510.8297 347.1767 512.9161 349.4156 513.496 351.175 516.2101 350.9571 519.4767 350.2628 521.6248 346.9525 524.9724 345.7056 526.222 345.5249 527.8949 347.1075 528.3643 348.7177 527.9824 349.5075 530.3982 348.2657 531.8473 347.9241 533.2238 348.9373 534.6036 349.6782 534.5382 350.5142 533.9246 351.6671 534.1827 352.5661 535.4082 354.7639 535.5987 357.1021 537.2139 357.4153 538.3542 358.1081 539.1216 358.2879 540.1012 357.9899 541.0869 357.1053 541.7128 356.611 542.501 355.6676 543.1708 355.174 543.9604 354.7317 544.2434 354.7531 544.6463 356.9671 548.9183 358.0561 550.3233 359.1924 550.6805 360.1656 552.8454 360.036 554.0485 357.8478 557.0981 357.4618 559.1747 357.0672 559.3402 355.3702 558.3578 353.2763 557.6413 351.3991 558.8947 349.8614 559.7448 348.8392 560.0438 347.5985 559.6522 346.0413 560.0285 344.4945 561.3514 344.2311 562.7398 344.5426 563.7597 342.6861 565.1469 340.8352 570.0916 339.508 571.008 338.194 573.191 340.6659 576.2436 340.8277 578.7389 343.3181 581.3788 344.9862 581.7638 346.1387 583.4201 346.9053 585.6229 345.3863 587.9704 345.2949 589.072 346.4255 589.8039 346.3906 591.6672 345.405 593.4458 343.6192 595.1406 342.6901 594.6157 341.9394 594.9169 338.8238 596.8047 338.5025 597.2443 338.5453 598.2668 339.7005 600.4373 340.8144 600.9001 341.6502 602.6344 339.6931 605.3768 339.1682 606.4654 339.0714 609.8849 340.2479 610.7868 343.1401 608.9912 344.1666 609.4565 345.5773 611.027 346.5858 611.6861 349.5991 610.3075 351.2311 610.6574 351.7014 613.7066 352.4305 613.9618 353.8983 615.0975 356.7704 619.7333 360.1323 620.9345 362.6203 622.7249 362.9797 623.1295 363.5926 626.0016 365.5405 628.5001 367.0003 628.6019 373.6659 624.8263 374.7133 623.8531 375.832 622.1391 377.5172 617.1143 377.4667 615.538 377.0125 614.7312 377.4658 613.3077 379.9572 613.2017 382.9635 615.1024 384.3044 614.9156 385.0791 613.3356 385.8678 612.2931 388.9788 612.0166 391.393 611.2025 392.1447 609.7837 392.2029 609.1655 391.7357 608.5448 391.8438 608.207 392.9633 606.4706 395.6777 606.0867 397.3662 605.2263 397.9134 604.2045 397.7766 602.9646 397.9365 601.671 399.6667 598.7737 403.8549 595.0594 405.6699 595.0498 406.1266 594.0963 406.2679 593.3497 405.4791 591.2229 405.4091 589.3035 405.5453 587.2376 405.9949 586.6723 409.5529 585.1608 411.6151 586.3765 412.7428 587.6725 415.4974 586.6204 415.5028 586.6447 416.3834 590.6281 418.9172 594.1084 420.2322 595.0063 420.6591 596.1967 420.067 597.513 419.7643 599.6379 422.0757 600.4984 425.0995 599.3025 429.8447 601.2309 431.877 603.0353 432.3583 604.7083 432.5414 606.091 432.2616 606.9343 430.3144 609.3643 428.5741 617.4184 431.7146 617.5349 432.4868 616.9546 433.2608 616.894 435.5113 616.8811 436.556 617.0883 436.8 617.6083 436.9498 620.6375 437.8133 623.3552 437.283 624.9222 434.9114 628.9578 435.0265 629.5045 437.3726 633.085 437.4199 634.6568 435.859 635.88 436.2184 637.4377 437.8699 637.4704 441.1784 639.9321 441.3445 640.3147 441.4407 641.2156 441.0885 644.8017 440.5444 648.183 440.7551 650.9753 441.1509 651.7604 446.9623 659.0552 447.1349 660.3128 446.7136 661.2861 446.6647 662.2953 447.5668 664.3107 448.3444 665.0845 448.8829 665.0539 449.9783 665.5967 451.0561 666.4363 451.9338 667.6125 452.2775 668.742 453.6133 671.4245 458.3021 675.2266 459.5267 677.7033 458.9605 679.641 462.1391 684.0191 461.5226 686.2443 464.6868 688.9048 467.2501 688.2654 469.6132 688.5141 470.1007 689.6901 469.3105 691.2896 468.3597 692.9265 472.3196 696.0514 473.5818 697.7142 475.1253 697.6442 475.8656 697.2643 476.9511 698.2428 477.0682 700.8052 477.2659 702.4846 478.8525 707.4355 477.7314 708.9358 477.7489 711.388 478.0377 712.8822 478.2118 715.7454 477.5815 716.8729 475.2853 717.8706 474.371 717.7533 473.6119 717.4962 471.9178 717.8204 471.3959 718.9351 472.3815 721.526 474.44 725.489 476.7469 730.8796 481.1864 736.7798 484.4346 737.1693 486.86 737.9294 489.5203 740.2887 490.8165 743.653 490.7469 743.9561 489.7463 744.5757 489.8472 745.2307 491.4079 746.423 496.3987 743.8556 496.9719 743.0756 499.2534 741.3918 503.128 739.5241 504.2082 741.0596 507.8626 741.8949 509.792 743.083 511.1891 744.5738 511.7123 745.6977 513.6838 747.114 514.3787 746.7625 516.5921 747.4561 517.7508 748.1169 517.7841 749.5445 517.0078 750.3743 517.3909 751.6632 519.6837 754.2082 521.5574 755.7757 521.7452 759.3786 522.1674 761.3287 524.2114 762.3652 525.6681 764.408 526.0445 765.6095 525.7265 766.4905 526.0285 768.5078 526.3918 769.7362 528.1985 771.8936 528.4935 773.2231 527.9959 774.6772 527.5975 775.1306 526.4946 775.3741 525.481 776.0032 524.2561 778.0901 524.4446 779.2383 525.9846 780.1906 527.1916 782.4264 530.1921 784.6579 530.0844 785.6847 529.1571 787.0385 529.6573 788.5851 534.1281 791.3566 534.1993 792.6816 532.9631 795.2549 531.842 796.504 532.8369 799.1912 534.3534 800.9188 534.8388 804.5956 537.6458 807.458 541.4946 810.2196 545.7899 812.3921 549.9672 813.5474 550.4153 816.7216 553.8121 820.2387 555.1462 820.5203 558.1696 818.2123 558.9276 817.1168 559.056 816.9312 559.0823 814.4312 557.8559 811.7834 556.0194 809.1384 556.9327 805.6238 560.7698 801.6154 563.3219 798.102 566.7056 796.8128 568.4254 795.3768 570.4127 794.4179 571.8377 794.6188 576.4917 796.5864 577.3516 797.4158 578.4891 797.2331 585.2054 796.426 587.4673 798.0732 588.8122 798.1086 591.6814 797.3429 592.7627 797.4851 595.7051 798.8563 596.5882 799.7804 596.6464 800.48 598.0954 801.0424 601.4276 797.9638 603.064 798.6835 606.2697 800.981 612.3664 803.3185 614.619 799.8904 615.7654 796.4859 616.0253 795.2712 615.5645 788.9829 616.1235 787.77 616.7891 787.2136 620.504 787.0388 621.0167 786.5326 620.9723 785.0964 621.2251 784.4744 621.8651 783.731 624.5056 781.7494 627.9549 781.4689 629.9551 781.6639 631.572 782.5586 632.021 783.8724 631.719 784.8944 632.7258 785.9196 637.5208 787.6254 638.0528 787.6181 639.9052 786.0392 643.4482 786.2446 644.3933 786.8536 644.9335 788.2087 647.2783 789.4968 647.9302 789.474 648.5789 789.0374 648.919 787.8293 651.9316 786.4854 653.8984 786.7809 655.9951 787.5573 656.3077 786.2435 656.1686 785.3701 656.4381 784.6648 658.829 785.3483 661.2048 786.4922 663.0058 786.2172 666.6107 783.7427 667.0224 782.5452 672.5893 782.2861 674.5258 781.1323 676.6992 780.9518 679.5024 785.1281 680.4306 787.5264 683.1734 790.396 684.8639 789.9106 684.9931 788.0365 690.533 786.5209 690.8782 785.8166 692.4132 784.529 693.5553 784.085 696.2782 783.9056 696.9804 782.7056 697.5883 780.9203 700.4322 780.8809 708.5494 782.4253 708.9288 782.4973 710.5465 781.5182 711.6895 780.1902 712.4343 779.9266 715.3628 781.1668 716.15 781.264 717.3803 780.7594 720.2768 782.19 721.3356 784.0251 723.2447 783.5481 726.8929 783.2768 727.3634 782.6067 727.1314 781.288 724.2077 779.8511 722.5216 779.6687 722.1717 778.6448 722.5176 777.4126 720.8169 776.1688 719.9948 773.2565 719.8667 772.3362 720.1836 770.3466 722.0813 768.5248 721.0906 766.104 722.1436 765.0777 723.2745 765.0249 725.8743 761.3198 726.2236 759.0828 725.1602 758.3622 724.2597 757.4812 723.5086 755.2785 723.5884 754.4418 723.9859 753.9491 724.5611 753.7028 729.8084 751.4541 730.9607 751.4802 731.6765 752.5336 732.9429 753.0644 734.8205 750.7684 735.1899 747.0071 734.7568 746.6427 735.211 745.5998 736.2996 745.1026 737.2975 745.7114 737.6138 745.9044 738.731 747.2833 738.7011 747.9679 740.1457 749.8099 741.2232 749.9608 742.6049 748.7814 744.1824 750.2032 746.545 753.0872 751.4515 759.8299 750.5139 762.1003 751.5327 763.5347 753.5862 762.7768 757.3571 767.5103 755.7644 770.1145 756.7404 774.0459 757.6245 775.7795 760.5473 775.7987 762.4215 776.5109 763.2243 777.6572 763.2806 779.3186 764.1981 780.2602 766.5873 781.3843 769.5125 782.9595 768.8452 785.7989 770.2572 788.7622 772.8155 790.7483 777.9936 791.7892 779.9518 792.1136 780.4191 792.8593 780.6637 799.2048 780.6779 799.6008 781.1463 810.3264 781.2382 814.0814 783.033 854.3676 783.1932 856.1418 783.5603 865.2906 783.5609 865.655 783.5642 865.7317 783.8256 872.8382 784.1955 876.3787 784.3551 879.2768 784.4373 880.7704 784.9874 892.5008 785.6548 908.8044 786.3666 924.4583 786.3576 924.5314 786.3928 925.3215 786.6878 931.3463 786.7105 931.7046 786.7087 931.8652 786.7679 932.5455 786.9536 936.406 787.551 949.7961 788.1949 964.2456 789.6464 996.8872 790.586 1018.0461 790.6407 1019.1616 790.668 1020.0081 790.717 1021.2771 790.7218 1021.2972 791.5077 1039.7472 791.5358 1040.4768 791.5525 1040.8378 791.6 1041.8703 791.6445 1042.837 791.7103 1044.3369 791.7232 1044.6296 791.7549 1045.1973 791.832 1047.3368 791.8609 1047.84 791.8724 1048.116 791.8743 1048.1623 791.8667 1048.5097 791.8984 1049.074 791.9054 1049.1982 792.2535 1056.8827 792.2904 1057.8658 792.3272 1058.7521 792.4052 1060.6833 792.9636 1074.5197 794.1559 1101.3372 794.8629 1125.9862 795.2755 1138.1044 795.3293 1139.6857 796.4264 1167.0708 796.9262 1179.1542 797.5477 1194.2972 797.6405 1196.4273 797.8785 1202.3603 797.9252 1203.5 799 1228.3058 750.7119 1230.4128 750.0541 1230.4301 749.4471 1230.445 743.4556 1230.8667 738.7617 1231.0816 738.693 1231.0843 738.6908 1231.0844 708.345 1232.2035 706.8953 1232.2548 690.4456 1232.9476 685.3236 1233.1197 685.2953 1233.1166 681.4805 1233.248 672.6845 1233.5459 659.9552 1234.0665 659.9435 1234.0669 652.8225 1234.4344 652.7221 1234.4393 651.593 1234.4949 649.0012 1233.7595 642.9614 1233.9234 639.5807 1234.0585 623.7064 1234.4674 615.2743 1234.6937 615.2426 1234.719 589.4205 1235.4662 581.3851 1235.6502 571.0189 1235.9898 565.1863 1236.1805 565.1808 1236.1736 558.9615 1236.3775 558.7326 1236.382 555.1677 1236.4774 546.0487 1236.7501 543.3213 1236.8091 543.2191 1236.8113 510.6927 1237.7364 510.4755 1237.8443 498.7857 1238.1766 496.49 1238.367 491.3942 1238.3715 490.6432 1238.3979 486.8008 1238.5152 478.2873 1238.7159 477.7264 1238.8123 443.1793 1239.7912 439.0451 1239.893 435.6282 1240.0344 426.3115 1240.1884 413.1167 1239.4698 406.849 1239.3312 405.9942 1239.3363 405.9927 1239.32 404.2214 1239.3338 404.2227 1239.3088 398.2608 1239.3623 398.2385 1239.3389 375.3878 1239.3966 375.3805 1239.3966 351.0415 1239.2261 347.0235 1239.3806 347.0214 1239.3871 333.9157 1239.4043 317.8705 1238.7293 306.6464 1238.0686 303.4111 1237.9905 297.5404 1238.1258 294.4821 1238.362 292.5196 1238.3536 277.1069 1238.963 276.2716 1238.9574 248.4084 1238.733 247.9456 1238.6296 240.1425 1238.6694 204.3773 1238.1428 199.2601 1237.9838 167.2563 1237.6338 166.0259 1237.4158 164.9762 1237.3712 151.9734 1237.0668 148.6534 1237.0964 148.6526 1237.0941 147.7705 1237.1358 147.7687 1237.1288 146.222 1237.1679 146.2226 1237.1651 145.1987 1237.1442 145.1947 1237.1358 129.1834 1236.8263 128.7777 1236.8101 106.6625 1236.402 101.9809 1236.4762 89.5328 1236.1472 86.9716 1236.0278 86.6141 1236.0236 84.7861 1236.0018 84.5313 1235.8911 83.3895 1235.9059 81.4443 1235.778 73.994 1235.5479 73.3739 1235.6144 68.2653 1235.4851 68.1591 1235.417 23.3333 1233.9732 18.0791 1233.9696 16.9131 1233.7197 16.902 1233.7173 15.8701 1233.5925 16.4818 1212.8549 16.497 1210.1036 16.7175 1204.2675 17.7 1170.6637 17.7544 1166.8989 19.003 1123.5073 19.9843 1091.4203 19.9887 1091.3931 19.9966 1091.3445 21.0651 1053.0334 21.0704 1052.9891 23.9347 955.6467 23.9371 955.4442 23.9966 952.8076 24.0133 952.3846 24.0443 951.6228 24.0606 951.349 24.1027 949.8056 24.1202 948.5811 24.13 947.9785 24.1624 947.3008 24.2234 946.1068 24.4005 940.3396 24.4518 938.3765 24.4912 937.4462 24.5077 937.0591 24.5989 932.9709 24.6568 931.4518 24.737 928.2632 24.7666 928.0824 25.1583 915.0111 25.7668 913.3852 25.8149 913.2565 25.6294 912.2546 24.4796 911.1238 24.9494 909.5443 25.5208 909.1603 26.371 909.1841 27.0798 909.4423 27.5785 909.0476 27.7647 908.3624 27.4014 907.7315 26.3031 907.2826 25.9005 906.8677 26.1318 906.0688 27.4581 905.5256 28.9576 905.1527 29.171 905.1172 29.9247 905.3178 30.1578 905.2476 31.0211 904.6719 31.1022 904.4749 31.4999 902.4954 32.043 899.7916 32.0212 898.7775 31.9299 897.9777 31.6933 896.3053 33.4482 896.024 34.1957 895.3248 34.2579 893.6648 33.3089 892.9063 33.1587 892.1231 33.6671 891.3383 34.1819 889.7796 34.2426 888.6297 34.4514 887.8203 34.5408 887.374 34.0005 886.9882 33.1985 887.118 32.4686 885.9807 33.3887 885.3792 34.5414 884.452 37.2976 884.2387 37.5627 883.0144 36.7547 881.2337 37.6111 879.6583 37.9541 877.7912 37.9364 877.3397 37.6335 876.3484 36.903 875.2213 35.3083 873.8971 33.2798 872.7998 33.1969 872.682 33.1136 871.9319 32.8554 866.3322 33.2626 865.8272 34.1683 865.388 35.4623 865.2836 37.23 864.9265 37.9149 864.4379 38.4533 863.9074 39.1732 862.6428 39.2621 862.2728 43.3434 854.7769 43.5039 854.482 43.728 853.8148 43.767 853.4495 43.6109 851.4913 43.0897 850.4914 42.7682 850.0207 39.969 847.8099 38.7116 847.347 38.0673 847.3727 37.4604 847.7137 37.1634 847.7779 34.9162 847.2072 34.6961 847.1205 34.1521 846.6326 33.952 844.7285 34.014 841.5701 34.3153 839.8599 34.1377 839.0956 33.8543 838.582 32.4842 838.077 30.7005 838.0401 28.6914 837.9791 28.2772 837.8481 27.6534 837.3986 27.3675 837.3236 26.8231 837.3506 26.3101 837.6579 25.4769 838.3436 25.0118 840.2294 24.8042 840.6223 24.4212 840.7716 24.0473 840.7168 23.6176 840.3865 23.2931 839.2529 22.3284 838.0298 20.9637 836.9515 19.6018 835.4367 19.4327 835.0651 19.1484 833.4559 19.0319 833.1709 18.5572 832.3527 18.107 831.7625 17.8653 831.5538 17.4328 831.3951 16.9349 831.3966 16.1182 831.6748 15.73 831.9026 14.4406 833.2968 14.2222 833.7147 14.1343 834.2075 14.0163 834.4268 13.4238 835.0436 12.8031 835.2195 11.0748 835.301 9.407 835.001 6.6007 832.7813 5.9841 832.256 3.6926 829.6187 3.0301 827.9704 3.0627 827.7271 3.3769 827.3106 3.378 827.3068 3.6906 826.2979 3.8287 826.1161 4.0335 825.9675 5.2726 825.536 5.554 825.3272 7.0438 822.6221 7.1322 822.4501 7.3773 821.5078 7.3955 821.23 6.6471 819.4811 6.5032 819.2923 5.3355 817.8785 4.8932 817.4237 4.1108 816.9644 2.7671 815.5425 1.897 814.4771 1 811.4272 1.0765 810.4464 2.0811 809.9286 3.1036 808.9187 3.3071 808.5467 4.2841 806.2965 4.7254 805.1644 4.8995 801.4886 4.8145 800.4774 4.6636 799.5382 4.1574 797.5628 3.8147 796.8922 3.6689 796.2984 3.6595 795.916 3.7841 795.3983 3.9142 795.1577 4.8997 794.7617 5.5516 794.9242 5.8313 794.88 6.9606 793.7934 7.7491 792.4327 7.9974 791.8429 8.1637 791.2287 8.1435 790.6808 8.3984 790.0717 8.9809 789.0538 9.4795 788.4172 11.29 788.3919 12.0726 788.1108 13.1931 786.9756 13.6147 786.2217 14.3057 784.5683 14.5248 782.5308 13.9242 781.6462 13.8964 781.2523 14.199 780.5152 14.6605 780.0311 15.2231 779.7726 15.7504 779.3933 16.7834 778.312 16.9535 777.9149 16.9445 776.1534 17.655 772.4992 18.0255 771.5439 18.4348 770.7198 19.2648 770.3528 20.5943 767.9986 21.0641 766.0159 20.8651 765.0617 21.0211 763.7696 21.6253 763.0703 23.0184 760.4047 23.0595 759.9556 23.269 758.9987 24.1783 757.5551 25.2465 757.0399 25.5165 756.5134 25.7662 753.8725 25.5682 752.9006 27.9248 749.7977 28.6852 749.2846 31.7925 747.8502 32.7585 748.0232 33.6539 747.9868 34.5318 747.519 35.2368 746.9756 36.3544 746.0208 36.9913 745.2282 37.2482 745.0064 37.7679 744.7924 40.0084 744.3641 41.5595 743.5449 41.8272 743.3763 42.2068 742.8052 42.3582 742.3333 42.3514 742.1391 42.082 741.5139 42.0063 741.106 42.0291 740.7538 42.385 739.7058 42.7785 739.0822 43.7592 738.0523 45.7037 734.5073 46.3305 733.336 46.962 732.1556 48.5923 730.449 50.9345 728.3402 52.0216 726.5769 52.6311 725.3931 52.8997 724.3518 53.5135 722.3006 54.0548 720.6095 54.552 719.0925 55.1818 718.162 55.3752 717.7445 55.4065 717.4572 54.9812 716.1003 53.6936 714.1439 53.1933 712.9672 53.1185 712.6603 52.352 709.3016 52.574 708.3312 53.9788 705.6224 54.1706 705.3532 54.2184 702.9068 54.1032 702.3466 53.8467 701.7648 53.8626 701.6111 54.7295 700.1704 56.1458 699.4319 56.7785 699.0044 58.9026 696.8032 60.3495 695.1469 62.1254 692.2489 62.124 692.0207 62.113 690.2809 62.2275 689.318 62.3681 688.9364 63.3661 687.2445 65.919 685.8253 68.9549 681.3273 69.1651 680.9524 69.2816 680.5516 69.937 677.2985 69.9754 675.7868 71.9455 670.2806 72.0888 669.5187 71.9858 667.7723 72.043 667.3823 72.8537 663.8243 73.8614 661.2189 74.4815 659.6372 75.0176 658.9559 75.0415 658.9255 75.8006 658.4403 76.4926 657.7268 76.6352 657.4691 76.885 656.2703 76.9822 655.2579 76.9708 653.6553 76.7917 650.7727 76.9308 649.5119 79.6113 644.3653 83.0749 637.9364 84.0584 636.1672 86.7973 633.668 87.4847 631.1128 88.0759 628.3828 88.9451 627.3349 89.6324 626.7279 91.145 625.4165 91.4266 625.2393 92.2888 624.9576 92.3133 623.2174 91.8728 621.9238 91.8776 621.7278 92.6147 618.5859 93.2564 616.6127 93.8706 615.9561 94.9495 614.0625 96.5047 610.3031 99.1672 606.8402 100.74 605.4859 101.6522 605.065 101.7827 604.9111 104.1451 600.5779 104.2157 598.2872 104.0196 597.8945 103.4583 597.4198 103.098 596.6567 102.5617 595.5187 101.9769 593.9799 101.3535 592.2278 100.5636 591.1671 98.4317 588.5518 97.031 587.2108 96.5168 586.5224 95.6844 584.693 95.5828 583.8237 95.4632 580.5977 95.8322 577.2031 95.6641 576.6601 94.5593 574.2205 94.2668 573.9025 93.7209 573.7741 93.0039 573.439 90.8484 571.2101 88.9824 569.2224 87.5144 568.7491 84.2154 567.9678 83.7446 568.1916 83.2634 568.5969 82.4332 568.8331 80.8013 568.7559 80.1082 568.3886 78.3444 566.2991 77.5603 564.0343 76.3745 561.5672 76.269 561.438 75.0157 560.6532 74.6071 560.4397 74.1546 560.3385 71.6051 560.3759 71.079 560.665 70.483 561.1897 69.7621 561.6742 69.2256 561.9201 68.6688 562.0628 68.2272 561.9781 65.9032 560.3643 65.2414 559.191 65.1585 558.9166 65.1922 558.3409 65.3814 557.7354 65.368 557.0186 65.106 556.0269 64.6088 554.9042 64.4245 554.4879 62.2997 551.0656 61.6983 550.4518 60.3985 549.4519 58.7667 548.3718 57.1466 546.2306 56.8509 545.6747 56.0729 543.9435 55.7266 542.7275 55.0936 538.9698 53.7993 536.5334 53.1347 533.7322 50.9482 531.1101 50.4215 529.9486 Z"/>
</g>
</svg>