<?xml version="1.0"?>
<svg xmlns="http://www.w3.org/2000/svg" version="1.2" baseProfile="tiny" width="800" height="1432" viewBox="0 0 800 1432" stroke-linecap="round" stroke-linejoin="round">
<g id="cb_2018_us_state_5m">
<path d="M 20.755 546.8497 21.5071 546.0648 22.0398 545.8473 25.1889 545.7078 26.8957 545.286 28.1698 544.6207 28.8771 544.1127 29.4166 543.5564 30.0178 541.7067 30.1034 541.1692 30.1903 538.5209 29.9825 536.8606 29.2714 534.6647 28.6752 532.3127 28.5641 530.463 28.6458 529.5661 28.9914 528.009 29.3649 526.9132 31.4574 522.2584 32.1382 519.8181 32.3736 518.2881 32.4445 517.2351 32.3787 515.7291 31.7282 513.021 31.5097 512.4859 29.1049 508.3721 28.5988 507.6627 27.9201 507.0985 26.6748 506.6869 25.4656 506.0771 24.8152 505.4575 24.432 504.5266 24.3369 503.2708 24.4587 502.1714 24.6989 501.4527 25.4665 500.2296 29.8182 496.4719 30.9476 494.4005 33.8858 489.5172 35.0676 488.3218 36.1161 487.5372 37.9038 486.6029 44.4777 483.4765 50.4509 482.0702 52.6558 481.6963 53.984 481.011 55.004 480.7024 56.028 480.6162 61.7804 480.7387 65.7815 481.4322 67.9253 481.1744 68.2334 480.9819 74.4135 477.1177 77.6308 475.3077 80.4405 473.24 80.7438 472.8539 81.0689 472.3189 81.3191 471.521 82.2367 467.4317 82.8433 466.2964 82.944 466.1079 83.1778 464.5026 83.1739 463.2077 82.6936 460.2955 82.4585 459.6808 82.3647 458.8345 83.5191 453.6087 83.9844 452.2243 85.1352 450.6657 86.0256 449.0972 86.4329 448.0999 87.3692 444.8773 87.4984 443.0705 87.3366 441.4718 86.4595 438.9864 86.3567 438.1835 86.5479 436.6294 87.3535 434.2066 87.9435 433.3015 90.4409 431.0946 92.51 428.9232 94.1739 427.8469 94.6377 427.3208 95.9009 424.736 96.4999 423.1651 97.045 422.222 98.1568 420.9021 98.6148 420.5319 100.4501 419.5043 101.6318 418.2788 103.3224 415.0643 103.6129 414.673 104.0656 414.0629 105.2595 412.9063 106.2567 412.1601 108.8181 411.176 110.058 410.3295 112.063 409.4409 112.7875 408.8093 113.2781 407.9621 113.8167 405.0332 115.5129 400.505 115.5869 399.4257 115.4618 398.4305 115.0368 396.4177 114.4933 394.6568 114.4997 393.8513 115.1094 392.0486 116.2373 389.8939 117.0137 387.009 117.2165 385.6148 117.203 383.7159 117.8817 379.752 117.8886 378.7799 117.6835 376.1543 117.5228 375.218 117.3841 372.7717 116.7606 370.5619 116.7342 370.4682 116.6973 369.9259 116.988 366.9139 117.4212 364.2609 117.3598 363.7702 115.3743 360.0027 113.7382 357.7841 112.8346 355.0454 110.8719 351.7681 109.3218 348.3689 108.3206 347.0825 107.7596 346.5705 105.9011 345.5986 104.9352 345.6457 102.0772 346.243 101.5319 346.1885 99.3137 345.4715 96.7986 340.356 94.7759 336.7663 93.4462 334.7689 91.8465 332.8574 89.65 330.6933 88.1814 328.6247 86.5237 327.0319 86.0009 326.3922 85.76 325.7684 85.7059 323.5422 86.4933 321.997 87.6601 320.4712 88.3325 319.1798 90.2106 314.1296 91.2516 312.2285 93.1096 310.3458 93.6468 309.3904 94.003 307.3706 94.3639 302.2419 94.3681 302.1816 94.4778 300.6216 95.5972 294.0454 95.9019 293.0578 98.6003 288.9428 98.7233 288.3592 98.9257 285.142 99.472 282.3555 99.8628 281.5425 100.2407 281.0833 101.051 280.4233 101.5891 280.0495 103.4151 279.1634 106.4779 278.8613 107.6694 278.5997 111.76 276.6901 112.7447 276.5938 113.6408 276.6989 115.2633 277.7465 117.8385 279.082 118.4921 279.3303 122.2994 280.1183 123.4035 279.7649 124.3827 279.0807 128.0606 277.7184 129.9542 276.6524 132.1106 275.2419 134.5617 273.4457 136.4642 272.3126 137.2332 272.0288 138.6006 271.7372 140.3696 271.6465 142.813 271.9907 146.1848 272.0541 150.2344 272.5358 151.9072 272.986 153.0468 273.1357 157.2012 273.502 159.639 273.4179 162.3523 272.9192 166.689 272.3519 168.6699 271.8964 171.4927 270.8649 173.4623 270.9501 175.4781 270.5976 176.5731 269.8683 178.5417 267.7613 180.0528 266.3941 182.7844 264.815 185.2576 262.4835 185.598 261.7671 186.0423 259.4539 187.396 258.1867 188.2145 257.7359 189.9618 257.171 192.071 256.8954 192.8288 256.5981 194.9804 254.9047 197.0551 254.5939 197.9413 254.461 199.4611 254.7941 203.2802 256.2452 205.6872 256.6686 205.838 256.6672 207.7534 256.6483 210.7708 256.3066 213.2757 255.3639 216.4514 252.1618 217.7944 250.1187 218.9149 248.7426 219.9837 248.2423 220.3863 247.9606 220.9588 247.5601 222.2263 245.3352 222.8141 244.7247 224.1959 243.8966 225.7139 242.9866 228.932 241.897 232.2603 241.1692 236.3202 239.11 236.658 238.3926 237.072 236.3357 236.4892 225.4426 236.4875 223.8689 237.8449 219.3567 238.3226 215.489 238.7253 214.8274 239.1667 214.3672 241.1697 212.9068 241.6788 212.4111 242.1957 211.6032 242.4481 210.7681 242.5912 209.6501 242.5852 208.3347 242.5099 207.8269 241.7514 205.5383 241.719 204.4147 241.9928 202.8213 242.2304 201.4377 243.1261 199.3999 244.6778 197.4049 249.3814 192.9983 252.3485 191.8101 253.2559 191.0009 255.1918 189.8622 256.4039 189.0627 256.404 189.0626 260.3042 186.4887 261.3443 185.9336 266.9276 183.9816 268.0921 182.9879 268.295 182.4015 268.3629 181.7256 268.1887 178.986 267.7882 176.2822 267.838 175.4656 268.2176 173.6717 268.3181 173.304 269.5653 171.0031 269.9696 170.0352 270.0427 167.7813 270.5972 165.1351 271.5748 163.2548 273.1623 159.6017 273.8474 157.3939 273.917 155.0802 274.2494 151.6494 274.3014 151.1127 274.1044 150.5805 273.3061 149.251 272.5957 148.5563 271.9946 147.4955 271.7971 146.481 271.9736 144.597 272.3714 143.2831 274.0027 139.9963 275.0187 138.9372 275.4829 138.1537 275.54 136.399 276.6021 134.3849 276.7295 132.5169 276.5345 131.0509 276.0524 129.512 275.2402 128.1799 275.0536 127.4909 274.9463 126.4883 274.7284 125.7446 274.605 125.4357 274.1064 124.8012 273.2382 123.581 272.3621 122.8912 272.1683 122.4513 272.0404 120.1642 272.0261 117.1574 271.5298 113.7648 272.5138 110.7259 272.9119 107.8182 273.0006 105.8965 272.8845 103.9859 272.7001 103.2266 271.8307 101.7329 271.1818 101.0237 268.0264 100.9293 267.458 100.8309 266.148 100.2011 265.38 99.4771 264.6495 97.37 264.477 95.7131 264.2874 94.7807 263.9054 93.8558 262.6515 92.7971 261.1069 91.9285 259.0843 90.5115 256.1976 88.92 255.1809 88.8167 252.5866 88.0939 250.0996 86.9424 247.0215 84.653 243.3503 83.0041 243.3175 82.9727 241.3706 81.1074 239.4887 80.4964 235.9069 79.9008 234.3645 78.5704 232.4724 77.4401 229.4612 74.6506 228.7796 73.7169 228.5784 72.6641 227.6911 71.0641 225.8493 68.8588 224.749 67.8304 224.1851 67.1038 223.6612 65.6964 223.3203 64.0254 222.0715 60.9494 222.1231 59.4087 222.878 57.7423 223.3806 57.0777 224.1653 53.9839 224.2189 52.357 224.0935 51.2163 224.2848 50.814 224.8558 50.2391 225.0374 49.8884 225.0929 49.5323 224.9881 48.9097 224.5261 48.0279 224.0909 47.5148 223.3343 46.9517 222.363 45.8438 219.8949 41.0772 219.436 40.6007 218.2249 40.0002 216.3714 37.9242 215.967 37.3516 214.9579 35.0423 214.2963 34.2328 214.2386 34.1621 213.6455 33.6212 213.1024 33.4012 212.2503 33.4107 211.7705 33.246 211.1728 32.734 210.1601 31.3496 209.3424 30.5298 208.08 29.6723 206.0629 28.5522 200.2896 25.8609 198.9797 25.0612 198.5111 24.2498 198.4008 23.8033 198.3125 21.8606 198.0195 20.7273 197.1296 19.2069 196.6192 18.7744 196.0982 18.428 193.9428 17.6884 192.3795 16.8757 189.3704 15.7929 185.9796 13.8305 182.8713 11.3001 181.7786 10.4104 180.4207 8.687 180.0067 7.3658 179.9943 5.9225 180.1185 5.2866 180.1197 5.2804 181.5365 3.6553 182.6829 1 187.4533 1.1834 188.0503 1.1994 197.3885 1.4671 199.2086 1.5193 200.102 1.4865 201.3119 1.4998 201.3978 1.5027 203.6955 1.573 211.3999 1.6777 213.731 1.7662 214.5848 1.7614 221.7949 1.9539 223.8155 2.0055 227.7017 2.1041 234.4029 2.1406 234.9181 2.1469 234.9349 2.1471 235.9272 2.1776 247.11 2.2176 252.9944 2.2768 253.6658 2.235 254.0822 2.2618 256.7463 2.3728 257.2219 2.3321 262.4367 2.3328 265.69 2.3763 270.348 2.3481 273.6195 2.333 277.6945 2.4101 286.8017 2.5776 287.1785 2.5107 290.8579 2.5196 301.3106 2.8789 301.6213 2.9234 304.9879 3.0107 305.3869 3.0554 307.585 3.1597 307.694 3.1522 313.3529 3.4201 318.7298 3.4271 318.8292 3.4272 318.8502 3.4271 335.7274 3.6287 342.5118 3.705 342.9286 3.714 344.0212 3.7103 346.6168 3.759 348.643 3.7801 353.8229 3.7998 363.1199 3.9318 363.7662 3.912 368.0416 3.9968 371.3246 4.1049 372.4932 4.1354 378.3412 4.3156 380.2203 4.4244 380.617 4.4089 380.89 4.3982 381.8825 4.4557 387.6555 4.6999 395.6137 4.9252 401.1887 5.0441 401.3036 5.0446 402.8837 5.0732 414.1264 5.2917 414.3615 5.2688 414.6198 5.3051 414.9193 5.3295 418.6378 5.3805 418.6408 5.3805 425.3683 5.4389 425.4124 5.4425 426.2179 5.5084 439.6527 5.8333 445.0195 5.9964 447.2836 6.0647 448.0037 6.0305 451.5578 6.0553 451.9398 6.0788 463.2606 6.265 463.6072 6.2416 471.1735 6.3414 472.0758 6.3321 472.7254 6.353 476.1359 6.4572 481.4353 6.5281 486.8053 6.5102 492.3372 6.5432 492.3633 6.5457 492.7437 6.5467 496.3577 6.555 496.3767 6.5554 505.7501 6.7702 506.2964 6.7865 535.5261 7.4806 537.4632 7.4621 539.5801 7.4416 550.6027 6.9986 563.6681 6.553 582.3341 6.4656 588.7165 6.431 597.3708 6.4342 605.7366 6.3671 627.164 6.1365 633.4381 6.0639 633.5608 6.0549 637.5421 5.7638 643.8517 5.6728 647.0316 5.6151 647.1801 5.613 663.1688 5.3823 667.1766 5.4097 675.6243 5.4643 686.9576 5.5261 690.5526 5.6076 704.0606 5.6802 704.4873 5.6814 714.8322 5.7088 720.1037 5.7301 723.0303 5.6859 723.5708 10.8826 723.1303 18.1603 722.7726 24.0628 722.754 24.8007 722.7281 25.823 722.5387 33.3178 720.4985 38.7358 719.1299 39.2576 717.8788 47.408 717.7651 48.8028 717.2728 54.8378 718.5817 62.9623 721.8462 72.7325 724.2725 78.8295 732.2864 93.052 734.2021 96.448 735.7598 99.2081 735.7653 99.2179 739.1041 104.4485 741.7784 107.6012 747.3364 112.562 749.4992 117.0099 749.705 118.3865 749.4628 119.6814 750.1044 124.5245 750.588 126.0682 754.273 137.8231 755.6676 142.2678 755.9936 143.3064 756.8851 146.1462 757.8262 149.1431 757.8322 149.1735 759.1324 155.8033 759.2825 156.5681 759.5052 157.1345 760.1013 157.2861 760.581 158.144 761.2297 159.3222 761.2764 159.3242 761.5894 159.3374 761.5944 159.3489 761.7158 159.6237 761.7228 160.0123 761.5336 160.392 761.248 160.6101 761.3876 161.6236 760.8251 162.1706 760.9421 165.6393 762.3575 171.7245 764.1525 176.4368 765.8536 178.9562 766.1505 179.3959 766.8039 180.3634 766.8174 180.3834 768.0237 182.169 768.0295 182.1972 768.1077 182.5759 768.9943 186.8697 772.1077 191.9704 775.5973 195.4909 777.9432 196.4538 779.3315 202.6791 779.4265 206.7135 779.2811 208.1858 779.3539 211.0205 779.444 215.1953 779.669 225.6334 779.6619 226.2781 779.7293 228.8294 779.8604 235.7727 779.9214 239.003 780.0174 244.0878 779.9602 245.146 780.123 252.7493 780.1404 254.5553 780.2217 262.9877 780.2707 268.076 780.2711 268.1192 780.3604 272.3711 780.4609 277.0196 780.7657 291.1271 780.6829 297.5851 780.8909 312.4431 780.8916 312.4755 781.5662 346.4904 781.5776 347.0656 781.5777 347.8568 781.5778 348.0391 781.5694 348.2048 781.6009 349.62 781.6231 350.8409 781.6684 353.3064 781.7537 357.9913 782.2555 382.906 782.3578 386.5801 782.3669 386.641 782.8822 412.0163 782.8826 412.036 782.9741 416.2266 782.8983 416.5821 783.0559 420.0842 783.0309 420.3207 783.2166 426.8539 783.7106 457.1243 783.7109 457.141 784.6394 509.0864 784.6291 509.1635 784.8314 520.3885 784.8324 520.4755 784.8751 524.1058 784.8748 524.1778 784.8731 524.4925 784.8861 527.9712 785.2497 582.5137 785.2649 582.6772 785.3748 597.6877 785.3748 597.6923 785.4034 601.4622 785.4173 603.3095 785.4604 608.9589 785.4606 608.9837 785.4152 609.9528 785.5072 612.8573 785.9299 644.1656 785.9304 644.1901 785.9882 647.1435 785.9901 647.7266 785.9968 650.3867 786.0147 652.9065 786.0061 653.5981 786.0273 654.6121 786.3496 677.2901 786.3502 677.3228 786.7034 695.9 786.7532 697.711 786.7887 699.6909 786.8547 703.4294 787.4711 733.5618 787.6098 738.3992 787.6254 738.3927 787.8394 748.4009 788.078 759.5621 788.1761 764.2439 788.2587 769.121 788.3006 770.8164 788.4588 777.221 788.4895 778.2051 788.5499 781.9637 788.55 781.9662 788.5936 783.9596 788.6114 784.7724 788.7127 789.0907 788.7938 792.1175 788.7988 792.3949 789.0339 807.6257 789.1518 815.2816 786.6636 814.0324 784.6498 817.2715 779.8795 817.394 777.7648 819.1107 775.6018 824.5455 776.1501 827.9981 776.2438 828.7936 773.8114 832.4866 774.8037 837.9134 775.1039 838.3372 777.2709 841.3956 779.2747 842.3592 780.1951 845.0809 781.1799 848.8177 780.7191 850.7036 778.4643 854.173 772.1356 860.2232 768.2456 862.369 767.817 864.7494 767.2288 868.015 767.8676 872.2173 770.0899 874.7221 769.9831 875.8599 769.9992 876.8258 770.1404 877.7897 770.5259 878.4273 771.5363 879.0544 772.7911 879.3549 773.185 880.4752 773.3371 882.0833 773.981 883.1996 774.9944 883.9873 777.4368 884.6684 782.2965 890.3469 781.9121 896.3425 783.0453 900.1 781.2378 904.7236 781.4549 908.0259 791.3146 912.1966 794.8647 916.6462 793.6781 924.7165 791.9808 928.7489 788.7395 932.0556 788.1696 937.0887 787.0181 940.2734 787.6111 941.2384 790.8871 943.0009 792.6028 943.9236 793.5506 949.6355 792.4526 951.8358 798.8241 961.9163 798.5256 966.0524 798.4365 967.286 799 971.1551 797.6294 973.5473 795.0577 978.0339 794.562 982.9768 792.2839 986.4122 791.4385 986.9189 789.4341 988.12 779.7911 990.9244 774.5893 998.2117 774.2239 1003.5334 773.2798 1007.013 773.9619 1009.1889 774.0256 1009.9538 773.5235 1010.7147 772.9402 1011.007 771.2559 1011.412 768.5656 1016.7032 768.7821 1019.7743 766.824 1023.7127 767.9059 1028.8214 768.3209 1029.8003 768.2705 1031.2116 767.7017 1032.4437 766.3846 1033.5585 763.443 1034.7658 760.4967 1037.4956 756.3206 1039.6668 752.9507 1040.0209 751.1985 1040.9893 750.4173 1042.8823 750.5256 1045.1377 752.0516 1046.6687 753.2069 1048.3177 753.1072 1049.25 751.0481 1051.173 750.4563 1056.6166 750.3018 1058.037 747.4258 1062.2 743.4299 1067.9802 738.1877 1070.0451 734.8831 1074.2789 732.9421 1079.9942 733.1589 1084.531 733.3941 1086.5577 733.0422 1088.116 731.435 1091.5515 730.4452 1092.4523 728.6879 1092.8108 726.9651 1091.5751 726.2867 1089.0812 727.4039 1085.0973 726.8503 1083.958 725.6731 1083.3424 724.4375 1083.8902 723.2836 1085.5812 722.51 1088.3407 721.9322 1090.3502 719.9382 1091.8779 717.8026 1094.7179 716.9321 1094.8455 715.9609 1094.3577 715.6014 1092.8599 716.358 1091.1888 717.4653 1089.3729 717.5474 1087.7258 716.0879 1086.8048 714.3737 1087.0123 711.8948 1088.6518 710.9404 1092.1331 709.0026 1093.3768 709.6478 1095.981 711.0445 1096.9455 710.2519 1098.2404 708.2234 1099.2131 707.7002 1100.944 707.8879 1102.1963 707.4456 1102.9698 706.4038 1103.166 705.6742 1102.9236 705.3337 1102.0332 705.4563 1101.389 702.9997 1098.0474 701.9357 1097.7296 701.859 1097.9745 701.7539 1098.3107 701.6225 1100.0515 701.9556 1102.1085 702.397 1104.8548 702.4717 1105.3191 702.672 1110.0334 704.4164 1113.136 707.7676 1116.5602 712.3356 1119.6396 713.052 1121.65 713.0774 1123.7204 714.3694 1124.8293 714.7879 1126.2914 714.3315 1127.5107 712.8574 1128.0766 710.8043 1131.4068 708.6741 1129.8167 707.7419 1130.0359 706.3491 1130.0432 705.6613 1130.8823 704.9471 1132.9751 705.0239 1135.4113 703.8771 1136.2925 702.4533 1136.5355 700.1461 1136.2207 697.1577 1137.5379 696.4449 1139.163 697.4157 1142.2388 698.9285 1142.557 707.4974 1138.2976 708.6183 1141.3161 707.7621 1143.9022 706.5881 1146.8019 702.2523 1149.8267 699.7154 1150.9025 692.8133 1151.0937 691.5309 1154.4509 693.7799 1156.3474 696.4587 1155.2743 698.5072 1156.6913 695.3616 1160.2624 695.7176 1165.2798 697.6679 1170.1251 697.629 1172.8363 696.9572 1174.1257 696.0378 1174.7103 694.5466 1174.972 693.7795 1174.935 692.8295 1175.3897 692.9878 1179.0282 689.3578 1181.5776 688.18 1181.3854 686.3562 1182.7648 687.1472 1185.0439 694.2807 1186.3309 696.3476 1186.6774 697.7683 1191.3098 696.7025 1192.9858 695.0917 1192.3309 692.1814 1192.176 689.2302 1192.349 685.9455 1191.2102 682.9075 1188.6956 680.9899 1188.694 680.5487 1189.8051 681.1689 1191.815 681.6022 1192.2904 684.5546 1195.5294 686.8959 1201.4453 688.9131 1203.5236 693.8722 1205.0011 695.3161 1207.7686 692.5147 1210.0627 690.9533 1210.2404 688.452 1209.9822 685.6165 1208.3905 683.6526 1208.1527 682.2005 1209.6407 683.8046 1213.1186 686.7434 1215.6377 689.056 1215.3393 691.7467 1213.6197 693.5349 1213.3538 694.7905 1214.8632 695.0795 1215.9875 694.1903 1216.7365 693.5136 1217.8901 692.9375 1219.8583 692.5463 1223.0134 692.2091 1224.2962 690.7527 1227.675 688.8209 1230.6544 687.9736 1231.686 686.2083 1233.0884 684.3028 1233.8579 683.4973 1234.3319 681.5027 1235.7425 680.2766 1237.0889 679.2132 1237.648 677.0373 1238.532 676.1054 1239.2895 675.5781 1239.9632 674.1153 1242.5444 673.7351 1244.003 671.4845 1246.3239 670.2375 1248.2684 668.9275 1251.0029 668.697 1251.6999 668.5423 1252.7979 668.5767 1253.6375 668.8813 1254.9829 668.9606 1257.3393 669.296 1259.177 670.168 1261.737 672.3583 1266.6308 672.6719 1267.807 672.7902 1268.8092 672.6565 1269.9438 672.8664 1271.0787 673.6618 1272.6582 674.245 1274.2103 674.6104 1274.5325 676.689 1275.7457 678.1748 1277.2684 679.9794 1278.7953 680.895 1280.0341 682.6379 1283.0259 683.6252 1284.1769 684.0072 1284.4139 685.6795 1284.9495 686.8757 1285.7602 687.5454 1286.6613 688.7408 1289.105 688.8993 1289.6678 688.8624 1291.0698 689.1746 1291.7864 689.1852 1291.8106 688.953 1294.2045 688.6472 1295.2228 688.8934 1295.8968 689.0531 1295.9794 689.0322 1296.2939 688.6451 1297.146 687.9391 1297.9159 687.7793 1297.8334 686.9802 1297.4201 685.8443 1298.3141 684.6008 1300.2476 683.8908 1300.6786 683.3351 1300.6853 683.1744 1300.5182 683.1715 1300.2647 682.2166 1300.1921 679.4358 1300.394 675.6363 1300.9178 674.6884 1300.6587 674.1737 1300.6463 669.7012 1301.9049 666.6958 1302.2797 665.9805 1302.7569 663.257 1303.2746 659.5145 1303.7547 655.8193 1304.5145 653.2066 1304.6907 649.6435 1304.7432 644.2347 1305.8666 640.9416 1307.3875 637.9336 1309.0198 636.9323 1310.1661 636.1834 1310.5525 634.2662 1311.9586 633.7466 1312.5059 630.6659 1316.7804 628.6242 1318.3098 628.6099 1318.3211 627.9891 1318.8124 627.1901 1319.1461 626.0114 1318.8816 625.551 1318.4704 624.7074 1317.0654 622.6121 1315.3687 620.6208 1314.0559 619.2259 1313.4232 618.2651 1313.1556 617.3861 1313.3557 617.0244 1313.5654 616.2677 1314.004 614.76 1314.6723 613.2878 1315.0119 612.0315 1315.4736 609.8299 1316.7016 608.6332 1317.5443 606.6284 1319.604 605.7426 1320.7164 604.4554 1323.1424 604.0816 1326.1908 603.3651 1328.8847 603.2805 1331.3839 602.9183 1333.7837 602.4198 1335.3363 601.7386 1336.5144 600.9672 1338.4142 599.6665 1340.9653 598.757 1343.5384 598.0327 1344.704 597.4586 1345.9512 596.8228 1347.908 596.5726 1349.6883 597.8945 1352.4206 598.4491 1354.1531 597.9674 1355.3223 598.2368 1355.8018 599.7374 1357.5119 601.4695 1358.8214 602.5255 1359.9386 603.0026 1360.7858 604.1012 1363.6539 604.424 1364.258 605.7565 1366.0755 606.7422 1366.8738 608.4363 1367.7595 610.1141 1369.4179 610.7142 1370.3195 611.9351 1374.042 612.4482 1375.917 612.8102 1376.3604 613.7269 1379.9937 613.663 1380.458 614.1418 1381.4256 614.4701 1381.8427 614.8436 1382.0741 615.6133 1383.4405 615.5416 1384.0919 613.5476 1390.1543 613.3183 1390.5087 611.764 1394.6065 611.7653 1394.7803 611.93 1394.9528 611.5649 1397.3356 608.6617 1403.7464 605.1377 1405.2087 603.7552 1405.5047 602.2699 1405.3202 602.2272 1405.3302 599.3181 1406.0138 597.2772 1406.0373 595.8198 1405.9568 593.7307 1405.5574 590.8811 1404.8532 587.8616 1403.3266 587.073 1402.6799 585.9296 1401.742 584.4133 1400.8147 583.3946 1399.6071 581.8231 1397.2767 580.8502 1396.7405 579.357 1395.3798 577.2313 1393.9342 574.2505 1392.2233 573.2786 1391.8311 571.7624 1391.7611 570.3426 1391.374 561.5021 1387.1643 560.2221 1386.7133 558.4586 1386.3383 554.8286 1386.8727 554.1669 1386.7335 552.3825 1386.0307 551.1809 1385.3778 549.5046 1384.0847 548.0619 1383.2834 545.5278 1381.2443 543.3446 1379.678 542.6184 1378.7243 541.0751 1377.1626 538.927 1375.5565 537.2086 1374.5998 534.0797 1373.6825 531.1762 1372.59 524.0836 1369.2079 517.2357 1366.7591 514.3385 1365.4813 513.5284 1365.3603 512.0609 1364.8861 511.2953 1364.6386 511.0217 1364.599 509.1661 1364.3301 504.0899 1364.0633 500.7172 1364.3806 497.083 1365.4905 495.5313 1366.4764 496.0675 1366.3171 494.4096 1367.6354 491.1299 1368.914 489.574 1370.7735 488.8154 1371.0452 485.3739 1374.6841 481.6409 1378.2011 479.5252 1380.6553 478.2098 1383.0161 477.6314 1384.574 477.4437 1385.6535 476.9557 1387.0014 474.4622 1392.6465 473.5598 1393.4893 472.5553 1394.0804 472.2357 1394.6329 471.6082 1395.2844 469.581 1396.7103 469.3926 1396.9888 468.9025 1398.3514 468.2672 1399.1346 467.182 1399.9462 466.5236 1400.1743 466.2156 1400.0047 465.5553 1400.4115 462.7606 1404.1939 461.9797 1405.7476 461.1883 1407.3221 460.4347 1409.6542 460.0257 1411.3812 459.7903 1413.7064 460.1312 1416.3928 460.5166 1417.9161 461.6237 1420.3676 462.1332 1421.2269 463.0953 1422.4464 464.2856 1423.2927 468.8644 1427.1452 470.0021 1427.9257 468.375 1428.606 467.696 1428.679 466.5069 1429.0645 464.0584 1430.3179 462.3604 1430.9536 460.8715 1430.8021 459.1708 1430.1236 457.8105 1428.4553 457.2056 1425.9385 457.2088 1423.2907 456.4979 1420.2848 456.0238 1419.141 455.1503 1418.1406 450.9432 1415.2973 449.1801 1413.6993 448.3168 1412.2626 446.7984 1408.4164 444.8922 1404.7497 443.8599 1406.7939 442.9243 1406.6014 439.6545 1406.4914 439.0141 1406.3393 438.9739 1406.1011 436.8442 1405.941 434.0283 1405.3417 433.9117 1405.6719 433.3868 1408.3681 433.6769 1409.4317 434.0879 1410.2917 434.6311 1411.0309 435.3265 1411.6972 437.4207 1412.8785 440.192 1413.9816 442.5423 1415.905 443.8342 1417.2958 444.3251 1419.3029 443.1017 1423.2788 442.5414 1424.2432 441.8563 1424.9893 440.9009 1425.7363 439.9878 1426.2049 437.208 1425.2946 432.9905 1420.9467 432.0601 1419.987 430.8645 1419.1291 429.1816 1418.1354 426.1307 1416.6909 422.7567 1415.4897 419.4934 1413.0485 418.8024 1412.17 418.3326 1411.2852 418.1806 1410.8187 418.03 1409.0469 418.0827 1408.3729 419.3864 1405.0927 420.0461 1402.5176 420.0693 1401.1191 419.438 1398.89 418.3193 1396.6515 417.5251 1395.5642 416.4217 1394.6043 413.5433 1392.5078 412.6657 1391.6811 412.1039 1391.0246 409.8296 1387.6222 407.8622 1384.0479 407.2378 1381.6774 403.5957 1374.7547 402.4226 1371.8154 402.2586 1370.8274 401.2536 1366.9996 401.2837 1366.0611 403.1878 1361.2969 403.2862 1360.7239 403.2049 1359.5718 403.087 1359.1606 402.7057 1358.6658 402.3026 1358.4215 400.6898 1357.9427 398.9079 1358.0148 396.9517 1358.4053 396.708 1358.454 395.3864 1356.605 394.177 1355.2445 393.2643 1354.0049 391.8092 1351.777 391.1723 1350.5494 390.9074 1349.627 390.9004 1348.6336 391.0469 1347.9423 391.4504 1347.0884 391.6874 1346.0691 391.8073 1344.9226 392.2654 1343.1089 392.7083 1342.2259 393.0224 1341.866 394.891 1340.3723 395.7 1339.5241 396.5193 1337.836 396.9052 1337.3949 396.97 1337.3208 397.6019 1336.9467 397.955 1336.7377 399.9342 1336.0961 404.0041 1335.8224 405.4744 1335.5203 407.8385 1334.5065 408.4974 1333.835 409.1362 1332.5748 409.4577 1331.4935 410.7358 1325.2196 410.9425 1323.3815 410.8912 1322.2457 410.6604 1320.9429 409.9562 1318.2775 408.2935 1313.2812 407.1468 1310.6106 406.3882 1309.3384 404.8641 1307.288 400.7365 1303.048 399.8558 1301.7787 396.4946 1295.9391 395.3514 1293.1164 394.839 1291.0519 394.2943 1289.7834 393.3716 1288.1176 392.3665 1286.6997 391.5446 1285.2156 391.4228 1284.772 390.613 1280.5109 390.4499 1278.7249 390.4954 1277.3147 390.5334 1276.1378 390.5448 1275.784 390.6015 1274.0275 390.6997 1273.4652 390.9049 1273.0557 391.5749 1272.606 392.1055 1272.5281 393.0042 1272.7038 396.166 1273.7547 397.7993 1273.571 398.8116 1273.0286 399.5438 1272.2811 399.8578 1271.1639 399.8803 1270.4498 399.7637 1269.7909 399.3815 1268.9354 397.8786 1266.7946 393.6527 1262.1684 392.8499 1260.4378 391.8083 1259.2249 391.3906 1257.994 391.512 1257.3319 391.7743 1256.878 391.7708 1255.5258 391.5874 1254.1632 391.7383 1251.1015 392.1998 1248.8876 392.5893 1247.7529 392.6002 1246.5833 392.1462 1245.4483 391.6532 1244.7148 390.583 1243.7537 389.8133 1243.244 388.6529 1242.7513 387.1795 1242.5595 381.4631 1240.9531 380.0755 1240.4632 378.0812 1239.3725 377.2913 1238.2739 376.4673 1236.701 375.4023 1234.3029 374.2157 1233.3678 372.9246 1232.5387 372.1662 1232.4441 371.5354 1231.8446 371.4139 1231.346 371.4721 1230.3411 371.3804 1230.0874 371.1998 1229.9439 369.8238 1230.0913 369.0095 1230.3408 367.9135 1230.9411 365.4551 1230.8437 364.618 1230.9962 362.8013 1230.416 361.8061 1229.8069 361.3616 1229.2779 361.264 1228.8967 360.8732 1227.3712 361.1896 1226.1592 361.6735 1225.0501 362.2829 1223.1928 362.4866 1221.8283 362.4628 1220.4718 362.2739 1219.9791 361.7351 1219.3068 360.5943 1216.95 359.6317 1216.1542 358.9797 1215.6151 357.915 1214.9071 355.1319 1213.2031 353.8553 1212.5575 350.8878 1210.2424 348.4695 1207.8158 347.8007 1206.9287 347.0548 1205.6387 346.3611 1204.7488 344.3071 1204.7212 343.4624 1204.8768 342.8009 1204.5489 341.8635 1203.7581 341.2077 1203.4637 339.3587 1203.363 338.2375 1202.8983 337.7902 1202.5869 336.902 1203.4459 335.4151 1202.0644 334.9371 1201.4294 334.0835 1199.0731 334.1953 1198.3673 334.6394 1197.64 334.5752 1196.2344 334.3156 1195.7527 333.3861 1195.3676 331.4137 1194.1354 326.8397 1190.4695 325.545 1189.5849 325.1109 1189.4846 323.8338 1189.8849 321.3985 1191.6885 320.57 1192.5547 318.5948 1195.1736 317.594 1196.1197 314.3566 1198.1507 313.4306 1198.6024 311.0924 1198.6292 309.086 1198.3463 306.2047 1197.2849 306.0412 1197.1758 303.5309 1195.5003 303.1469 1195.0608 299.3222 1186.769 298.9222 1186.1465 298.808 1185.7445 298.6833 1183.8101 300.0268 1182.6017 301.2723 1181.864 301.8196 1180.3658 304.3043 1180.3521 306.2493 1178.86 307.3623 1178.5337 308.8157 1176.8371 308.9369 1176.4018 308.8901 1175.3196 307.1171 1175.5303 306.6933 1175.4137 306.4842 1175.0354 306.3282 1174.0156 305.4532 1172.6865 302.8414 1173.5585 297.952 1174.5074 296.451 1174.6462 294.2564 1174.3608 293.6482 1174.0102 291.9859 1172.547 287.1569 1166.0368 284.426 1164.7741 283.7804 1164.339 283.3277 1163.8528 283.0234 1163.251 282.8961 1162.5969 282.5274 1161.6878 282.1535 1161.0632 281.7303 1160.7545 280.5802 1160.3995 279.1103 1160.3519 277.3438 1160.7389 275.8616 1160.6347 274.7469 1160.0918 271.3683 1157.8099 269.9801 1156.4648 268.2231 1154.1277 268.147 1153.2818 268.2879 1151.5852 268.2204 1150.4693 267.8753 1149.2421 267.3489 1148.5412 264.5729 1146.7883 261.7511 1145.2845 261.1367 1145.2376 260.7599 1145.3732 258.9586 1146.5668 252.3774 1142.0108 251.9272 1141.699 249.5955 1140.0836 244.6983 1135.3066 243.3157 1132.0975 242.8435 1131.4429 242.8075 1131.3801 238.3852 1123.6435 236.7517 1121.8619 235.2151 1120.2942 233.2592 1119.0337 231.2147 1118.1499 229.9592 1117.9057 228.8486 1117.3403 227.0036 1115.7728 226.4634 1115.1594 222.5627 1108.9408 222.2613 1108.305 222.1143 1107.9949 221.4526 1106.1755 220.6081 1103.1147 220.0293 1099.5757 219.8967 1098.0909 219.3029 1095.084 219.1272 1093.4099 218.7372 1091.3612 218.8024 1088.114 219.261 1085.5683 219.1638 1080.6693 219.5423 1078.0452 220.0909 1076.3256 222.565 1071.1779 223.952 1066.7486 224.6988 1065.6646 225.2419 1064.8567 225.3171 1064.7449 225.801 1064.222 228.3096 1061.5108 229.5741 1060.5995 235.1095 1054.2268 236.4598 1051.228 237.2027 1049.9485 237.4691 1047.9927 238.2094 1044.0626 238.5057 1042.4892 239.1942 1040.6676 239.4173 1038.9432 240.1745 1036.4266 240.4586 1035.0504 240.7106 1033.8296 241.7612 1030.1411 241.7642 1030.1305 242.4945 1028.1288 243.0184 1027.1929 244.5622 1024.4344 244.8445 1023.93 249.9166 1016.1807 250.3441 1015.8249 251.4394 1015.2451 252.7854 1013.9206 253.7151 1013.2028 254.331 1012.7273 255.6579 1011.2476 256.5174 1010.0976 257.5837 1007.8128 258.0251 1006.8668 259.2243 1002.3435 259.3986 1001.1596 259.4841 998.8657 259.485 998.8403 258.8602 994.5791 258.8489 994.5018 258.808 994.2869 258.5637 993.0032 257.826 990.5712 256.0921 987.2509 255.5952 986.7019 254.7008 985.7134 254.6914 985.697 253.3197 983.2994 252.7832 980.9726 252.8218 979.3746 252.9325 978.4994 252.9812 978.3133 253.2482 977.2914 254.2117 975.7301 257.0392 972.9791 258.6392 971.9923 260.0889 970.0496 260.3469 968.5572 261.129 966.9419 262.0981 965.4325 262.1315 965.3806 266.1209 962.7443 270.9055 958.93 272.0116 956.9568 272.6396 954.5658 273.8251 948.8033 273.7813 947.2301 273.0097 945.7372 265.3932 941.053 262.4281 938.6474 258.3386 936.3572 257.6598 936.0399 256.6776 935.8995 256.1986 935.6618 253.8963 933.2248 253.0442 932.3226 251.1546 930.5119 249.7015 929.5994 247.4333 928.5486 245.733 927.3633 244.9773 927.0587 244.3844 926.9807 243.2199 927.0743 241.8066 926.4862 240.6155 926.2369 240.2861 926.168 239.0353 926.0665 236.0246 926.1963 234.5403 926.1436 233.8721 925.9815 232.2563 924.9827 230.9375 924.4716 229.0736 923.5027 226.5094 921.5859 219.2042 917.7056 218.6777 917.4522 216.6761 916.4884 214.5698 915.8098 213.2213 915.5907 210.8939 915.4402 209.0923 914.9654 207.8295 914.4733 205.6834 914.3389 205.6798 914.3403 203.3416 915.1921 202.2552 915.8241 201.3745 916.5771 199.2562 920.253 199.063 920.8501 199.0339 921.2872 199.1582 922.765 198.2731 925.0028 195.5778 928.9779 194.0773 930.9253 192.1537 931.9142 189.268 934.8968 186.6297 937.9571 186.2559 938.2199 184.272 939.0198 182.4724 939.4023 182.0837 939.4848 180.042 939.584 178.7062 939.3836 176.329 937.793 170.4113 934.1882 169.7488 933.4132 168.3135 930.2115 167.525 929.0816 165.9222 928.0661 164.9011 927.0084 164.0983 925.9301 163.2869 924.6996 162.9044 923.9058 162.4909 922.3163 162.49 922.3113 161.8162 918.6956 161.3097 917.6245 160.5292 915.0728 160.4512 914.1246 160.5341 909.4112 160.2077 907.4059 159.4613 905.6069 159.1432 905.2736 158.891 904.8284 158.3578 903.887 158.1473 903.3758 157.9305 902.1274 157.4687 900.9623 155.8825 897.7326 154.4808 894.3073 153.761 893.125 153.3826 891.2671 153.3984 890.8574 153.614 890.4751 155.7342 888.3193 155.9454 887.0748 156.1041 886.722 159.7144 882.5138 159.8719 882.0735 160.0992 879.3636 159.4691 876.0063 159.1808 874.9136 158.8687 874.3538 157.4541 871.8163 156.3758 870.3125 155.8987 869.4506 155.4692 868.3076 154.9567 866.311 154.7268 865.2107 154.6443 860.6156 154.5543 859.7264 153.8166 857.4075 153.2643 854.2759 153.2836 852.8896 153.4509 851.8785 153.4833 850.9272 153.3958 850.0236 152.4983 847.3784 152.6545 845.8163 152.5851 845.1564 151.5919 840.3827 151.0185 839.155 150.2313 838.3148 149.2238 837.576 147.28 836.9654 146.7427 836.6189 143.6068 832.7989 142.4105 830.0643 142.0647 829.4734 140.4658 828.3215 139.119 826.8154 138.9357 825.7678 138.5941 825.1062 137.4373 824.1592 133.9813 822.1841 133.108 821.3521 129.44 816.9556 127.9894 815.6813 125.7041 814.0649 118.8743 809.813 117.6403 808.4965 117.1451 807.7099 117.1063 807.15 116.7258 806.6605 116.1078 806.2849 114.7869 805.9637 113.5369 805.4925 112.8221 805.1046 112.0087 804.4673 110.9838 803.2648 110.6673 801.9163 110.4693 801.3564 110.3484 801.0145 110.0384 800.5076 109.698 800.181 108.2158 799.2438 106.3993 798.8217 104.4189 798.02 103.4377 797.4336 102.4332 796.3437 101.3689 795.7617 99.2379 795.0736 97.2907 793.8355 95.6728 792.4972 93.3847 790.8932 90.5191 788.32 87.6503 784.7291 86.4173 782.9648 85.8542 781.5956 85.5902 776.2971 83.4468 774.1355 82.5868 772.8574 81.3418 770.4026 80.1016 767.2459 78.6756 764.7851 75.9069 764.1044 73.4621 763.7591 69.1823 762.7425 68.1326 762.087 67.1709 760.8272 66.2036 759.3821 65.2896 757.7205 65.038 756.5213 64.7477 753.3308 64.2915 750.7216 64.216 750.3747 63.5769 749.1007 62.8238 747.9277 62.0467 747.2801 56.0066 744.5603 54.6936 743.8903 53.524 743.0248 51.2154 740.5941 50.77 739.8105 50.3283 738.7047 49.7812 737.7712 47.5095 735.6168 46.3098 733.5328 44.5032 731.2287 43.1039 730.0667 41.0578 728.8227 39.3628 727.5269 38.8218 726.398 38.563 726.1534 36.4033 724.1122 33.7182 722.0237 31.0591 719.6448 29.6196 718.0933 26.7332 714.4748 26.3084 713.5627 26.3993 710.3359 26.9603 708.0702 27.2427 707.5419 27.443 706.8329 27.328 705.2223 27.4334 702.6572 27.6294 701.507 28.2803 700.0552 28.3303 699.4196 27.9929 698.0554 27.146 696.0741 25.7783 693.8585 25.235 693.2224 23.7182 692.0804 21.3633 690.5845 19.7415 689.1634 18.1239 688.2164 15.2058 686.1254 14.5512 685.3985 13.9642 684.105 12.0844 677.6376 11.8459 675.682 12.0618 674.3764 12.8056 671.6743 15.7764 668.1016 17.4198 666.3028 17.6279 665.8778 17.8766 664.4414 17.8039 662.9973 17.3499 661.6299 16.6009 660.3746 15.9738 659.5909 14.7349 658.3888 14.4239 658.0869 13.5732 656.8057 12.5064 654.6621 12.0372 653.16 11.1212 651.5813 10.3423 649.5725 10.2137 649.343 9.4073 648.8182 9.0995 648.2556 8.8514 647.4087 8.7532 646.5347 8.3991 645.3141 6.9018 641.7497 5.6362 639.0495 5.0137 638.0351 3.6184 634.5798 4.8004 629.1983 3.7563 625.6841 3.3529 623.7888 2.8162 620.4987 1.9117 616.0455 1.3674 612.4841 1.197 610.9013 1.0465 605.9709 1.0928 605.4103 1.7842 603.6082 1.8131 603.2635 1.1656 599.9506 1 597.8577 1.038 597.2073 1.4651 595.224 1.7821 594.5762 2.6096 593.4971 2.8281 592.8177 2.7293 592.3861 2.4421 591.1318 2.3544 589.9479 2.4602 588.3483 3.0443 586.1068 3.0936 584.1958 2.7811 583.5186 2.6899 583.0005 2.8396 582.3505 3.3821 581.1692 3.8647 580.6021 4.4174 580.1781 4.5918 579.8372 5.9901 577.1044 6.1186 576.3746 6.0261 575.734 5.5957 574.4047 5.5986 573.0275 5.6844 572.2675 6.2996 570.2635 7.0946 568.3812 10.057 562.2898 10.5176 560.9941 11.1985 557.9029 12.1286 555.8755 14.1489 553.0243 15.0498 551.6394 15.3676 550.9526 15.6662 550.6129 16.7669 549.7644 18.7358 548.8303 19.2981 548.4315 20.755 546.8497 Z"/>
</g>
</svg>