<?xml version="1.0"?>
<svg xmlns="http://www.w3.org/2000/svg" version="1.2" baseProfile="tiny" width="800" height="1226" viewBox="0 0 800 1226" stroke-linecap="round" stroke-linejoin="round">
<g id="cb_2018_us_state_5m">
<path d="M 156.1183 17.8101 156.9276 17.33 158.118 19.0964 159.0474 21.4732 160.3327 23.0258 168.1882 28.8723 168.8125 29.0043 169.7107 27.6517 170.1246 27.3784 173.0566 25.4424 178.7781 23.7169 180.8483 24.3234 181.9651 25.6241 184.3034 27.6145 179.5093 33.1078 175.4069 34.6462 177.4614 37.2208 178.9171 38.2218 182.4027 39.1723 185.5274 40.0238 186.1917 40.2682 192.1766 42.4686 201.5869 44.5752 210.0092 44.9165 212.1125 45.7074 215.9946 45.5657 224.936 44.4865 225.3921 44.4313 232.9866 42.8826 239.2139 40.6068 239.2026 38.114 247.2377 36.681 248.4893 38.1053 260.6615 33.3896 260.9928 33.261 269.7784 29.4007 291.2059 18.8281 291.6867 18.4011 297.1363 13.559 304.884 10.2338 316.5231 3.4604 316.798 3.462 318.5295 3.4723 321.1969 3.4878 321.8496 3.4915 322.0492 3.4926 322.0712 3.4894 333.4367 3.6333 334.1019 3.6416 334.4628 3.6388 358.5543 3.8542 358.595 3.8545 358.8567 3.8439 385.3921 3.9961 386.5158 4.0018 390.5356 3.9791 443.0813 3.8402 444.6692 3.8339 453.6959 3.8878 453.7021 3.8878 455.6449 3.8863 464.5426 3.8005 476.2062 3.6821 476.7524 3.6909 476.8441 3.6858 485.6868 3.6764 491.1598 3.6687 496.0966 3.6604 507.4717 3.7979 507.4895 3.7981 511.2291 3.8158 511.2472 3.8158 530.9683 3.8674 530.9811 3.8674 534.1365 3.8777 534.8137 3.8671 553.2979 3.8683 553.3044 3.8682 557.0377 3.8175 557.2682 3.8169 562.6668 3.8017 562.7761 3.8007 568.6086 3.7663 583.4506 3.6618 585.5152 3.6464 586.2151 3.6346 589.6444 3.5976 591.4148 3.6063 591.9599 3.6157 595.2347 3.5467 595.41 3.5804 615.8663 3.2802 616.3918 3.325 635.5169 3.048 636.6435 3.0304 647.7351 2.8682 654.369 2.7891 658.8474 2.7187 661.7095 2.6874 663.9974 2.6273 666.2368 2.6237 667.6544 2.6279 667.6724 2.628 671.8849 2.6393 672.0589 2.594 672.227 2.5651 681.2487 2.5092 689.5096 2.4414 689.5409 2.4412 695.1323 2.4077 706.3853 2.2252 707.722 2.2208 725.5487 1.8911 725.9203 1.9424 740.814 1.8614 741.1 1.8077 743.3879 1.7661 743.5492 1.7987 750.0475 1.6231 774.6193 1.1425 774.6344 1.142 776.0671 1.0975 779.0414 1 779.0746 6.2499 779.1176 7.9415 779.1445 9.3823 779.2153 13.1775 779.2901 17.1858 779.3358 20.684 779.4205 27.2959 779.7671 40.2497 779.7668 40.5396 779.8243 45.1318 779.8373 46.1752 780.524 71.5907 780.5245 71.6203 780.5247 71.6334 780.7227 80.7585 780.8084 84.4848 781.2104 100.6587 781.2516 103.5454 781.2519 103.5711 781.3143 107.9887 781.3246 109.0001 781.3049 109.0216 781.5652 121.4028 782.1539 151.0844 782.155 151.144 782.156 151.1861 782.273 156.8286 782.2732 156.8381 782.6912 180.9825 782.6666 181.1936 782.7533 183.8192 782.7951 191.2288 783.0217 197.0927 783.1577 206.9526 783.5867 231.4315 783.6952 237.6279 783.6962 237.6847 784.1322 258.1452 784.1334 258.2037 784.9471 295.5927 785.0445 306.3677 785.2288 313.4958 785.3366 317.8356 785.3367 317.8408 785.372 320.7717 785.4763 325.7231 785.5262 329.1228 785.5301 329.7619 785.5911 334.2294 785.6728 338.6751 785.7666 343.4158 786.1138 365.7234 786.2922 379.2876 786.4134 387.3445 786.3028 398.5294 786.2941 399.4016 786.4234 415.068 786.8167 433.0959 786.8173 433.1226 787.0845 446.2168 787.0845 446.2234 787.0815 448.5566 787.1293 472.7734 787.1328 480.6569 787.1233 482.3981 787.122 482.4212 787.086 486.146 786.9903 501.8449 786.9973 502.4619 787.0046 508.5446 787.0187 513.0204 787.0606 526.4484 787.0507 530.9688 787.0034 539.9194 786.9875 542.9141 787.1031 563.7979 787.0929 565.5109 787.1048 567 787.1661 574.7802 787.149 575.0124 787.1778 580.5019 787.1803 586.5525 787.1729 587.3169 787.182 589.6513 787.1758 589.6865 787.2372 594.6888 787.2342 595.3493 787.2099 598.5472 787.2381 599.4112 787.2762 602.9871 787.3486 606.9491 787.3528 607.3435 787.6655 625.4464 787.6659 625.4661 787.8045 639.6332 787.8404 643.0899 787.9779 647.1916 788.0238 655.4724 788.2224 674.0544 788.254 674.2553 788.2755 674.3914 788.2805 674.6985 788.325 680.2884 788.4091 688.3043 788.4166 691.6521 788.4171 691.6828 788.539 702.0019 788.5661 728.2952 788.5274 753.5755 788.5254 754.897 788.6524 765.204 788.6985 768.1934 788.6988 771.5222 788.7287 772.5083 788.7431 773.5745 788.7462 778.8297 788.7991 781.4443 789.1783 800.2046 789.1772 802.8252 789.3533 816.2146 787.909 816.6407 786.7405 817.351 784.7911 819.4186 782.4283 821.6155 779.8283 824.7669 777.4018 826.1219 773.1662 828.4859 771.9927 829.7053 771.1844 831.2807 771.2538 832.8064 771.9563 833.6662 773.2415 836.3341 774.7546 838.3955 775.9161 839.3636 777.8214 840.9515 779.1671 842.731 781.0401 845.2071 782.6562 847.7236 782.8844 848.4346 783.463 849.5353 785.2259 851.3554 785.8885 852.337 786.791 854.3301 787.5048 856.3529 787.7139 858.0428 787.094 860.487 786.5041 861.5713 779.5546 868.7686 778.142 870.5301 776.5115 873.2815 776.1719 874.5895 776.2926 875.4202 776.7406 876.7611 778.3103 879.1956 778.4317 879.3839 778.9983 879.7606 780.6827 880.1879 787.9221 880.1929 790.6549 880.6969 792.1686 880.7754 795.1758 881.9729 798.1056 884.1788 798.5283 884.6348 798.8175 885.1769 799 886.7461 798.7379 888.5393 798.1657 890.1371 797.5392 891.3003 796.9048 892.166 796.6924 892.375 794.6609 894.3735 791.3681 896.6711 789.9077 897.9924 788.9423 899.325 788.3726 900.6479 788.4155 902.2525 789.1157 904.3206 791.7156 908.3669 792.3551 909.9261 792.9411 912.2023 792.9333 913.3072 792.6794 914.2579 792.2652 914.7559 790.6595 915.2053 788.9032 915.2043 787.2326 914.8997 784.283 913.7753 782.1222 913.1596 774.6786 911.918 773.2445 912.2316 771.3579 913.2132 768.1906 915.264 763.9737 917.3455 762.0448 917.9558 760.4729 918.0882 756.8959 917.2935 753.0154 916.9686 750.3184 917.2835 748.9053 917.8038 747.9542 918.4444 745.1583 920.9425 742.3501 922.419 738.2238 924.5876 736.5586 925.9357 733.6382 927.7884 730.8585 928.8649 729.8033 929.5153 728.4279 930.7799 723.9633 933.493 723.4062 933.954 722.5427 935.0996 722.5644 935.3576 719.1388 938.3378 716.3716 941.0938 715.0346 942.096 713.0883 943.2699 710.8721 944.2735 706.9642 945.6032 705.8642 945.5177 703.4304 945.7924 702.6551 945.6973 699.9895 944.8204 699.2874 944.5894 697.1749 943.4622 695.2696 941.7927 694.0701 940.4254 690.9897 935.2297 690.0735 934.0916 689.0786 932.3878 686.1017 930.6004 683.9881 929.9661 682.1118 929.5966 678.8089 929.2537 674.7819 929.5322 668.8675 931.115 668.3318 931.3118 666.4461 932.0045 663.8605 932.7243 661.0933 933.0954 660.9771 933.111 658.9507 933.1016 652.1794 931.5107 649.6743 931.1978 648.3098 931.4593 647.0228 931.9135 644.153 933.5931 643.2751 934.5381 642.2144 936.5612 640.6534 938.5666 639.8855 939.8083 639.0005 944.0216 638.7764 946.0259 638.9069 947.2732 639.1538 948.1857 641.7461 951.8485 643.233 955.1398 643.5036 958.3373 643.1382 963.4175 643.2266 970.1656 643.4225 971.6939 643.7085 972.8215 644.0246 973.8724 645.9504 977.5284 648.0058 981.429 649.0104 984.4899 649.1661 986.9886 649.1139 989.7758 648.7166 991.4925 647.3608 994.3252 646.718 995.2069 645.0187 996.6579 644.9662 996.7027 642.9131 997.8655 638.8996 999.6816 637.9381 1000.2426 636.9417 1000.9649 635.6237 1002.2056 635.1171 1002.8873 634.3358 1004.6613 633.9129 1005.8279 633.5032 1007.7229 633.1135 1008.5472 631.0935 1011.9427 629.3208 1013.9421 624.9928 1016.0942 622.5418 1017.0571 620.292 1017.7539 616.2662 1018.464 610.9885 1018.6875 607.9877 1019.5702 604.1407 1022.1798 603.2339 1023.0462 600.1689 1028.0405 600.2182 1028.4725 599.9167 1029.8896 597.9434 1034.4434 597.2417 1036.4874 597.0642 1037.1876 596.0465 1041.2025 596.045 1041.2178 595.9386 1042.289 596.0851 1045.5693 595.9104 1047.005 594.1623 1052.7062 592.4037 1057.5725 590.9126 1059.9509 588.8104 1062.6918 587.3064 1065.5269 587.1211 1065.6908 585.259 1067.3365 584.6651 1067.6997 578.1717 1071.6698 573.2761 1074.6607 572.0051 1075.4369 570.5343 1076.1202 569.0622 1075.9143 566.6184 1074.4859 565.2831 1072.928 565.4725 1072.3132 565.4229 1072.0678 563.629 1070.3283 561.7929 1069.6327 559.2375 1069.6165 559.2345 1069.6176 558.636 1069.8347 558.1558 1070.2058 556.5916 1070.7364 553.3158 1071.3682 551.4873 1072.1147 550.143 1073.2884 548.8301 1075.9662 548.0746 1079.2552 548.1081 1081.1582 547.7167 1084.6469 547.7152 1084.6602 546.3301 1087.5838 546.2628 1087.6865 544.8996 1089.7649 540.7826 1093.2295 539.9884 1093.9791 539.6592 1094.2898 539.3464 1094.585 537.9709 1095.8829 534.4909 1100.4731 533.7963 1101.7656 533.346 1102.9728 531.1459 1108.869 531.0036 1115.347 532.0783 1124.2355 532.0794 1124.2453 532.2383 1127.5601 531.8698 1131.8903 530.1936 1135.8269 529.6026 1137.9476 529.2833 1139.3685 528.9561 1141.7128 528.686 1145.7461 528.2596 1148.4935 528.0161 1149.5555 527.654 1150.3576 527.291 1151.1618 526.1317 1152.746 525.0716 1153.9438 523.9026 1155.0142 522.4185 1155.8611 521.8385 1156.1921 521.0085 1156.6656 519.3562 1156.9764 515.0667 1157.3161 510.0957 1158.4036 509.5187 1158.4956 507.0609 1158.8874 504.2729 1159.6367 502.1329 1160.7102 501.4188 1161.492 500.8075 1163.1164 500.7459 1164.2174 501.2134 1167.5454 500.9837 1169.3145 500.5847 1170.2114 500.06 1170.9352 499.0522 1171.3469 498.3609 1171.2751 497.573 1170.9363 496.2489 1169.65 494.3496 1167.2744 493.5891 1165.9588 491.9379 1162.4076 491.1417 1160.5232 491.3665 1159.8768 491.0235 1159.4175 489.8974 1158.223 488.0815 1156.9137 486.0846 1155.7508 483.0835 1154.38 480.65 1153.813 478.3842 1153.5926 475.1195 1153.7644 468.7705 1155.4905 467.5905 1155.4796 465.9452 1155.0556 463.0531 1153.4843 459.298 1151.8189 455.9256 1149.9659 454.6789 1148.322 452.8542 1146.4738 448.7615 1144.473 446.0273 1142.3587 444.6682 1141.0072 444.5668 1140.8445 443.0489 1137.8401 441.8061 1131.1296 441.8211 1128.3035 443.6156 1118.6013 443.4752 1116.2184 439.6167 1110.0249 435.6607 1107.0094 432.5258 1105.463 429.4169 1102.9309 428.7432 1102.382 425.142 1098.5656 422.0914 1097.5095 418.8498 1099.1781 418.5001 1099.9437 417.7976 1101.4818 417.9666 1105.9231 419.3396 1108.1335 423.7132 1109.5504 430.3984 1111.1694 431.5249 1113.2878 430.9977 1115.8621 429.8024 1117.7512 428.1718 1118.8664 423.9868 1119.1043 418.4648 1118.4337 417.3891 1118.8487 415.5898 1120.2719 413.4097 1125.4401 412.0946 1126.1732 411.2694 1126.0478 407.9653 1122.3926 404.8305 1119.8006 400.4714 1119.455 398.7009 1120.2783 397.7521 1121.3069 397.216 1121.8881 396.5287 1123.3729 396.4914 1125.7232 397.0584 1127.4447 398.2794 1128.9123 404.257 1131.8823 405.2094 1134.378 404.5518 1137.8972 403.2314 1139.9657 399.8511 1143.0101 395.0812 1144.3124 393.0273 1144.5047 390.5175 1144.4702 388.2725 1144.4392 385.4394 1144.8342 384.1007 1145.3877 383.5881 1145.8141 383.0002 1146.7071 382.2317 1149.9124 382.3658 1152.7585 382.2959 1154.5126 382.0458 1156.2768 381.9972 1158.9658 382.2158 1164.047 382.1361 1168.2234 382.4567 1170.0842 383.2568 1172.4594 383.7217 1173.271 385.1682 1174.7628 385.9395 1176.1331 386.5037 1177.9925 386.6021 1179.7486 386.3074 1180.328 385.5365 1181.1577 383.5384 1182.3673 381.3457 1183.4498 379.9204 1183.9405 378.3293 1183.9779 376.4438 1183.6745 372.1472 1182.335 368.7401 1182.0232 367.2323 1182.2823 366.7372 1182.6262 364.9025 1184.7289 364.3353 1185.7473 363.9927 1187.0387 363.927 1188.7378 364.3816 1193.8548 364.3372 1195.1232 364.0713 1196.8618 364.532 1197.8687 364.5685 1198.2727 364.3747 1199.1254 362.7854 1201.9162 361.6817 1202.7914 360.2114 1203.5692 357.6472 1205.2759 355.5799 1206.3181 354.6099 1206.6603 352.2405 1207.0479 351.1522 1206.9787 350.4789 1206.7083 349.76 1206.2032 348.9497 1204.4902 348.7504 1202.268 349.0635 1200.4859 349.7648 1198.4583 352.1233 1193.354 353.0966 1190.6659 353.2738 1189.6242 353.2534 1188.3459 352.9262 1187.0668 352.5487 1186.4231 351.8226 1185.8078 349.2083 1185.0473 346.2665 1184.4689 344.3546 1184.4278 343.1197 1185.0136 341.665 1186.4054 337.8169 1189.5071 335.794 1190.8156 335.2294 1191.1046 334.3114 1191.246 332.0808 1190.7157 331.2944 1190.0221 327.3753 1184.9971 323.998 1178.9577 320.4178 1171.5676 318.4948 1166.5478 317.8885 1164.3275 316.8411 1161.5834 312.9996 1159.0541 312.0721 1158.5807 311.9487 1158.5178 310.787 1158.3528 309.9584 1158.487 307.1247 1160.0628 303.7617 1161.1872 302.0809 1162.014 300.3111 1163.4754 299.4065 1164.4522 298.5631 1165.6802 297.2263 1167.0547 295.8971 1168.0427 295.0137 1169.0038 293.2722 1171.5843 290.7513 1174.5657 289.6022 1175.521 289.5691 1175.5426 286.6347 1177.4524 284.592 1177.9623 283.2331 1177.9578 280.4987 1178.3693 275.6146 1178.686 274.584 1178.5327 272.2065 1179.3204 272.1767 1179.3303 266.2612 1181.6798 264.5555 1182.5033 258.92 1186.4708 256.7659 1189.0013 256.0635 1190.3816 255.7785 1191.5791 255.8559 1192.2833 256.2713 1193.3762 256.4398 1194.6316 256.5145 1196.1336 256.3088 1197.4373 254.9707 1200.8182 254.424 1202.675 253.4196 1208.3095 252.8099 1210.7107 250.9348 1215.9054 250.3296 1217.2556 249.6163 1218.5165 248.1848 1220.0445 247.9825 1220.2603 244.7493 1222.8103 242.4925 1223.7624 239.7604 1224.3907 237.7962 1224.2695 235.7867 1223.5779 235.2822 1223.0919 234.4434 1221.3651 233.4296 1216.7377 233.4288 1216.7341 232.3744 1213.9886 229.6216 1208.9871 228.3294 1207.2903 227.5013 1206.58 226.8874 1206.2498 225.4432 1205.8968 223.2015 1206.1644 217.8302 1205.3687 215.3698 1204.5969 213.3106 1203.6821 205.0492 1198.0103 203.2049 1196.2958 201.8264 1194.4993 201.5403 1194.1265 200.4644 1193.1667 193.7404 1188.3327 193.6742 1188.2972 189.473 1186.0444 186.6397 1185.2404 186.058 1185.2484 185.7573 1185.4413 183.4593 1184.3096 181.6156 1182.7651 181.1153 1182.1059 180.2551 1181.3933 179.4466 1181.2412 178.9707 1180.8229 176.8893 1178.4402 176.7982 1178.277 176.9651 1177.9254 176.8694 1177.8211 176.7766 1177.7661 174.9909 1176.7079 172.3406 1175.7673 169.9464 1174.9172 169.5937 1174.5936 165.7396 1173.779 163.3336 1173.7338 161.3121 1173.898 158.6592 1174.4057 158.0084 1174.6969 157.833 1174.8083 154.3322 1177.0314 149.2335 1181.0995 148.2351 1182.1716 145.6082 1184.4447 144.0595 1185.1703 143.0852 1185.2503 140.9818 1183.3207 138.2719 1182.1535 134.8173 1180.1504 134.1925 1179.7327 133.5265 1179.2874 131.5969 1177.5017 130.0443 1175.3969 129.446 1174.3766 128.5928 1172.4487 128.0774 1170.1769 128.3215 1167.7859 128.0284 1166.216 127.2698 1165.0385 126.5033 1164.4441 125.3497 1163.8134 124.8714 1163.7129 124.4083 1163.6156 123.6571 1163.666 122.733 1163.9596 121.5854 1164.6489 120.9889 1165.7453 120.6336 1166.9067 120.6176 1168.0423 121.0183 1168.8157 120.3243 1171.6606 119.1886 1173.1911 117.0622 1175.0212 115.5557 1176.5632 114.7162 1178.6161 114.8248 1180.2337 115.3247 1181.8719 116.0181 1183.5376 116.7339 1184.7222 119.5558 1187.2591 121.1204 1188.2252 122.2811 1189.2638 123.6004 1190.8794 124.2867 1196.5388 124.1799 1198.9338 123.4886 1200.2566 119.7513 1205.7192 118.3173 1207.1804 117.5882 1207.7424 115.2436 1208.5969 112.6172 1209.1905 110.1742 1209.4962 107.9161 1209.4195 105.1695 1208.9421 103.7522 1208.4069 103.0023 1207.5957 102.1381 1206.1735 101.7937 1204.8485 101.5265 1203.0669 101.6347 1200.1501 103.1915 1197.0956 103.7394 1196.347 104.7973 1195.4163 105.4647 1194.6134 105.9811 1193.6912 106.3108 1192.3845 106.3186 1191.1171 105.831 1188.6733 105.4885 1187.9706 104.2996 1186.8127 103.2754 1186.0503 102.1651 1185.6204 101.2745 1185.5378 100.2232 1185.8358 97.2081 1187.3555 97.1519 1187.3839 94.7713 1188.3826 92.9972 1188.762 91.6224 1188.8972 89.2913 1188.1573 87.6335 1188.0371 82.2576 1189.0987 80.1162 1190.4893 79.6205 1191.0082 77.0117 1193.0477 76.336 1193.4057 75.3952 1193.6124 75.2429 1193.6459 74.2022 1193.7638 71.0929 1193.7364 65.6308 1193.2362 64.8339 1192.9744 63.8239 1192.2063 63.0879 1191.4089 62.991 1191.0793 62.994 1189.7617 62.2899 1188.4101 62.0777 1188.0678 59.2929 1185.7173 58.9417 1185.0572 57.9327 1182.2522 57.3531 1181.2602 55.6929 1179.4064 54.5498 1178.4543 53.1092 1177.7521 50.9022 1177.1932 49.546 1177.2965 47.9029 1178.0719 43.7054 1183.2169 42.3766 1185.0896 42.2085 1185.3266 41.1328 1186.4133 39.9794 1187.8452 39.5866 1188.3859 39.1568 1189.3395 38.9467 1190.6656 38.88 1191.9445 39.1038 1193.2147 39.5349 1194.5713 39.9807 1195.4127 42.0942 1198.2845 45.054 1201.1294 46.1401 1203.0531 46.7161 1204.8456 47.5733 1210.9545 47.3537 1212.5579 46.7904 1214.0526 45.7398 1214.7906 43.7707 1215.685 41.7195 1216.3465 40.4922 1216.9929 39.901 1217.7347 39.9405 1218.7771 39.6468 1219.4237 38.9731 1219.9605 37.471 1223.8185 36.9864 1224.3556 36.4631 1224.6938 35.4901 1224.8605 33.6926 1224.3723 31.2572 1221.6765 30.8982 1220.8127 29.8045 1219.7618 27.8921 1218.5604 27.2153 1218.4241 26.2525 1217.8388 25.7936 1217.306 24.8332 1216.6995 23.0025 1215.9053 20.4805 1215.3088 19.052 1215.4411 17.3393 1216.0787 17.0363 1214.7291 15.5969 1212.8839 13.4587 1213.1322 10.1934 1215.0768 7.4301 1215.3437 4.024 1212.2321 2.2416 1208.03 4.0243 1206.3138 6.3531 1206.672 9.6699 1208.6754 12.6377 1209.0785 14.5027 1208.9266 17.9208 1206.3021 16.3031 1202.952 10.4545 1201.0034 8.1294 1198.4518 5.5587 1191.3188 2.163 1187.3497 1.6647 1186.7671 1 1184.3504 1.5657 1183.0444 3.8481 1183.1195 7.3721 1186.2295 11.24 1187.7108 14.759 1187.6176 18.2174 1187.9132 20.1107 1188.7545 21.4406 1186.7997 19.9188 1181.23 17.4714 1180.7386 9.0277 1178.9337 8.1696 1176.19 10.3908 1174.6174 11.7857 1174.8912 16.1995 1171.9945 16.1442 1167.6565 17.2915 1167.1514 18.2033 1167.2247 19.9878 1166.9701 21.1035 1166.3092 21.9503 1164.7997 22.0959 1161.5732 19.9519 1155.7299 19.712 1149.7425 23.587 1145.611 21.2006 1143.8456 17.9728 1145.0209 15.3654 1142.6771 17.0149 1138.7289 25.2372 1138.7651 28.2963 1137.5811 33.5681 1134.1455 35.0719 1130.7379 36.1859 1127.6917 34.9625 1124.055 24.6067 1128.7988 22.8178 1128.3622 21.775 1124.6631 22.6831 1122.7554 26.2885 1121.3013 29.0232 1121.7643 30.7268 1121.5294 32.1242 1120.5241 32.1222 1117.6206 33.0492 1115.1562 33.8988 1114.1835 35.5568 1114.2281 36.6745 1114.0027 39.1517 1115.9772 41.7179 1112.0907 43.4933 1111.4733 44.0813 1110.0391 43.637 1108.2824 42.1398 1106.9128 42.1856 1104.4468 41.4069 1102.0258 36.0827 1098.1849 32.2197 1093.9801 30.2574 1090.2196 30.1925 1084.5991 30.1208 1084.0435 29.6964 1080.7569 29.3757 1078.2952 29.5962 1076.2276 29.7337 1075.8314 29.834 1075.5427 31.0888 1075.9617 33.8898 1080.034 33.7201 1080.7964 34.0926 1081.8695 34.9522 1082.1859 36.1995 1081.9922 36.7544 1081.0881 36.5771 1079.59 37.2636 1077.5491 39.714 1076.4687 40.7051 1074.9572 39.0781 1073.7556 38.406 1070.6304 40.7585 1069.2237 42.0228 1065.1154 45.034 1063.2582 47.082 1063.0767 48.7853 1064.229 48.6269 1066.1868 47.242 1068.3065 46.2798 1070.2671 46.6525 1072.0641 47.7906 1072.682 48.8315 1072.5633 51.4782 1069.2638 53.908 1067.5211 54.6699 1065.1507 55.6925 1061.8949 57.1284 1059.9257 58.6193 1059.3207 59.998 1060.0986 60.6149 1061.4762 59.1382 1066.1766 59.8539 1069.1717 61.859 1070.7088 63.9641 1070.3491 65.1756 1069.3144 67.2153 1065.2857 67.6917 1063.4439 67.4864 1061.0219 67.3957 1055.6122 69.9171 1048.8819 74.0072 1043.9675 80.3237 1041.7096 85.294 1034.9806 88.8714 1030.1342 89.1078 1028.4489 90.0136 1021.9906 92.5359 1019.7799 92.6891 1018.6738 91.3747 1016.6664 89.6147 1014.7852 89.5693 1012.0959 90.5693 1009.872 92.6911 1008.786 96.7158 1008.4934 101.7677 1006.068 105.3762 1002.9307 108.9228 1001.6057 110.5321 1000.3289 111.2548 998.8838 111.3671 997.2054 110.9093 996.0241 109.8106 989.9005 112.2877 985.2865 112.1438 981.622 115.5429 975.4253 117.5631 975.0076 118.2683 974.6819 118.8943 973.7951 118.8468 972.8821 118.1155 970.2654 119.3686 966.1589 120.0012 959.8371 126.4648 951.3602 138.0494 948.3901 140.4804 947.0368 141.5057 946.4659 144.3457 942.463 145.1197 936.5972 148.3484 931.3541 150.0693 928.5585 149.5424 923.9306 149.6944 922.4655 150.2039 917.5526 142.9937 905.3078 144.383 902.7303 143.4676 895.8939 141.4594 894.7298 137.6249 892.5062 136.9549 891.3346 138.4447 887.5872 139.3111 881.6169 143.2935 877.8041 145.4649 873.0684 147.1792 863.5059 143.119 858.0728 131.5366 852.7306 131.4018 848.7908 133.7267 843.3554 132.5183 838.8388 133.2005 831.7156 127.6277 824.7694 124.7455 823.8653 123.5686 822.8887 122.8439 821.5351 122.7231 819.6149 122.2962 818.266 120.8137 817.8603 119.6343 817.0751 119.1993 816.3013 119.0674 815.1485 119.0844 813.9979 119.2542 812.6474 116.7026 809.5805 116.0997 804.5532 116.9226 800.6879 117.5222 797.8705 122.2339 795.4646 129.9957 788.5038 132.8104 784.4597 133.4299 782.2322 132.3979 777.7459 131.4046 774.4705 129.0552 773.2468 126.5905 769.5228 126.249 769.0069 125.2719 762.5084 128.3068 758.2049 128.2252 757.2542 127.7025 753.123 130.4823 746.7357 133.0647 744.7728 138.7485 744.8094 141.2681 741.0302 144.1834 742.6125 144.3317 733.4938 144.6268 715.3528 144.6313 715.0224 144.6491 711.4159 144.6916 706.2713 144.7011 705.3029 144.7246 702.9282 144.7246 702.9252 144.7947 698.4483 144.7955 697.2756 144.8494 689.6451 144.8637 687.6251 144.9499 681.816 145.0104 676.2387 145.1492 662.9425 145.2739 651.02 145.2552 651.0271 145.2736 645.263 145.6847 609.3682 145.7483 604.9152 145.7815 602.5568 145.7911 600.3991 146.0783 578.2705 146.0788 578.2315 146.5605 551.2225 146.574 550.0145 146.6107 549.1915 146.6856 546.1912 146.7793 543.0243 146.7993 542.3301 146.8433 538.8121 146.8437 538.7829 147.5388 501.4966 147.5406 498.0354 147.6318 496.8836 147.6325 496.854 147.7979 490.1272 147.8521 487.9277 147.9628 483.4388 147.9629 483.4334 148.4084 465.5605 148.3966 465.3653 150.0636 400.424 150.1823 396.2824 150.1965 395.9079 150.1997 395.8222 150.2889 391.4991 150.2911 391.3955 150.4838 378.0256 150.4991 377.9343 151.4052 316.0642 151.4055 316.0443 151.9933 279.9927 152.0264 272.2087 152.0654 271.9282 152.014 267.7534 152.1181 267.3331 152.1724 262.3414 152.1726 262.3179 152.5483 232.0927 152.5398 232.0198 152.5614 227.6425 152.9375 197.9664 153.0191 192.3866 153.0617 189.4501 153.083 187.9959 153.1009 186.3102 153.1174 186.1133 153.1245 185.8963 153.1553 184.9545 153.1643 184.2693 153.6943 143.7547 153.6948 143.7162 154.0306 126.0225 154.383 118.3386 154.575 101.5347 154.6384 95.9977 154.6996 90.9333 154.7008 90.8818 154.8429 84.8233 155.0784 74.7831 155.1289 72.6327 155.235 63.5763 155.3449 62.319 155.4313 56.2628 155.4862 52.4155 155.6043 44.1459 155.6248 41.1066 155.6587 40.3395 155.8035 27.9064 155.8615 22.9338 155.8869 19.5569 156.1183 17.8101 Z"/>
</g>
</svg>