<?xml version="1.0"?>
<svg xmlns="http://www.w3.org/2000/svg" version="1.2" baseProfile="tiny" width="800" height="414" viewBox="0 0 800 414" stroke-linecap="round" stroke-linejoin="round">
<g id="cb_2018_us_state_5m">
<path d="M 16.1225 1 30.027 1.5361 31.3163 1.5828 37.8169 1.8805 38.7305 1.8947 41.25 2.0071 41.5407 2.0241 59.8502 2.7056 59.9806 2.6979 68.5844 3.0112 81.4666 3.4699 82.1015 3.4988 82.2137 3.5039 85.8848 3.6015 89.1269 3.6985 90.9143 3.7414 91.0666 3.7451 94.1615 3.862 94.9276 3.8862 98.8306 4.0107 102.2967 4.1165 104.6471 4.1972 106.0292 4.2424 107.0703 4.2633 110.9645 4.3966 118.238 4.6273 121.6005 4.7314 130.9018 5.0092 149.3098 5.4813 149.9944 5.5224 151.3715 5.5442 151.9416 5.5532 152.2907 5.5835 153.1952 5.6122 157.0811 5.6879 159.4728 5.7571 160.9959 5.8323 165.5832 5.9409 166.2213 5.9467 169.0579 6.0263 170.6405 6.0637 174.8486 6.1686 177.3129 6.2351 178.3583 6.2609 178.4784 6.2615 179.2083 6.284 181.4458 6.3249 182.2695 6.3462 187.3216 6.453 203.6557 6.8202 203.88 6.8153 205.3308 6.8529 207.2326 6.9087 207.5802 6.9049 207.9171 6.9098 208.1378 6.9202 209.206 6.9341 209.2089 6.9342 228.4782 7.3025 228.9233 7.3039 232.8884 7.3368 233.2746 7.3741 234.7165 7.4077 237.1683 7.4491 246.7856 7.6185 250.6805 7.645 251.0438 7.6293 251.8587 7.6756 252.6193 7.7152 253.673 7.6665 255.1859 7.6878 256.4565 7.7089 265.8722 7.8331 265.8817 7.8333 266.1163 7.8366 266.1839 7.8374 278.9254 7.9792 279.2134 7.992 279.3514 7.9997 279.7841 8.0016 281.0979 8.0167 286.9945 8.041 288.1202 8.1078 289.0751 8.1048 300.6984 8.2292 301.1159 8.2241 301.4963 8.2464 304.4833 8.2489 304.8588 8.2682 308.3654 8.2926 310.303 8.3077 311.1991 8.3169 311.3995 8.3249 312.2069 8.3319 312.2244 8.332 313.168 8.3472 317.9942 8.3548 318.9765 8.3589 321.8558 8.3894 323.772 8.3988 328.5878 8.4207 328.7567 8.4126 331.497 8.4501 333.5445 8.4563 333.6029 8.4536 334.708 8.454 334.7172 8.4602 337.4124 8.4856 347.763 8.5207 349.1933 8.5336 353.6692 8.5484 353.9025 8.5525 358.9127 8.5878 358.9208 8.5878 360.5601 8.5995 362.3457 8.5797 362.5162 8.5625 362.6355 8.5571 364.4374 8.5877 364.7567 8.5825 366.396 8.6064 366.5341 8.6101 367.7499 8.5801 370.5306 8.6 372.6364 8.5948 374.506 8.5984 376.0164 8.6291 377.8105 8.6309 379.8875 8.6274 381.8061 8.6312 383.2423 8.6337 405.5788 8.6074 406.1768 8.6102 408.0554 8.6323 413.8866 8.5807 415.3482 8.5952 416.0751 8.5997 417.6663 8.5949 419.1945 8.5901 423.5657 8.6079 426.0028 8.5901 426.7593 8.5803 428.6827 8.5839 428.9497 8.5953 432.3598 8.5773 432.7988 8.5849 436.7159 8.5735 440.8796 8.5626 440.8811 8.5626 446.6115 8.5257 448.552 8.5198 450.5195 8.5292 452.2505 8.5062 452.261 8.5064 452.4746 8.511 456.835 8.4551 457.4932 8.4764 457.6553 8.4729 457.8057 8.472 483.8459 8.2746 484.2509 8.271 484.3662 8.2786 489.2118 8.2028 491.1329 8.1954 493.1152 8.1628 493.9009 8.1579 494.1065 8.1588 498.9166 8.0991 498.9167 8.0991 498.9265 8.099 500.8047 8.0956 500.869 8.0887 511.7105 8.0231 511.7198 8.0292 516.1313 7.977 516.3497 7.9597 518.2491 7.935 522.3054 7.8886 522.7773 7.8392 531.8753 7.7779 533.8204 7.7469 536.0518 7.6976 545.618 7.5441 545.6504 7.5436 549.3254 7.4921 549.5528 7.4859 549.8825 7.4829 550.0109 7.4806 557.0282 7.3735 575.9375 7.0591 577.181 7.0725 577.7445 7.0603 580.1258 7.0043 580.2223 7.002 581.2529 6.9649 582.5928 6.955 584.5405 6.9319 585.7635 6.8831 591.658 6.7711 591.9061 6.7566 592.3005 6.7574 592.308 6.7574 608.711 6.4465 609.0707 6.4379 615.4477 6.2835 615.4514 6.2834 617.032 6.2413 617.4102 6.2336 624.1948 6.102 624.2072 6.1077 624.9369 6.0861 627.1256 6.039 627.1408 6.0339 630.8524 5.9351 631.7165 5.9022 634.778 5.8084 637.6231 5.7369 639.0058 5.7123 644.4217 5.5868 652.2155 5.385 661.946 5.1178 661.955 5.1176 662.3104 5.1061 704.4892 3.8827 708.1322 3.7629 711.3882 3.6547 711.4054 4.4947 711.4843 4.9151 711.5602 5.1151 712.0567 5.7393 713.4058 6.5899 714.9735 7.2902 715.4882 7.6391 716.3573 8.7921 716.8175 9.5486 717.6096 10.3625 718.5416 10.8285 719.0229 10.9491 719.6058 10.949 720.7266 10.823 721.1178 10.8742 721.4 10.9651 722.3801 11.5048 722.7278 12.1333 722.8173 12.9438 722.7086 13.7177 722.3583 14.709 722.3129 15.1212 722.3386 15.4657 722.3925 15.6366 722.8045 16.1911 723.0779 16.3627 723.6582 16.6146 724.1002 16.6977 725.1428 16.6476 725.8716 16.3576 727.133 15.6455 727.5247 15.5969 728.1877 15.748 728.5678 15.9724 728.8113 16.269 728.9582 16.7927 728.983 17.1383 728.9137 17.9577 729.0013 18.4217 729.2403 18.9792 729.6187 19.4155 729.868 19.6086 730.5602 19.9461 732.8812 20.5374 734.5368 21.2898 735.075 21.4399 735.4339 21.4492 738.4133 20.9839 739.4836 20.887 739.9314 20.7714 740.5069 20.3739 740.9162 19.9299 741.1488 19.2223 741.1693 18.9356 741.0439 17.874 741.1019 17.474 741.1821 17.2687 741.7332 16.4173 742.2967 16.049 742.7795 15.9446 743.257 15.9534 744.3439 16.2647 744.6703 16.3582 745.0133 16.3913 745.9608 16.2482 747.4275 15.7001 747.8444 15.6125 748.6481 15.7359 749.4518 16.0296 750.4434 16.6343 750.9747 17.2357 751.1614 17.5847 751.2281 17.8713 751.2584 18.3697 751.1536 18.901 750.8638 19.4161 750.1371 20.2043 749.9489 20.5541 749.7945 21.0104 749.8011 21.6116 750.1143 22.2294 750.3434 22.5097 751.5748 23.6038 752.5547 24.2654 753.2838 24.4685 753.9872 24.5195 755.0662 24.4075 755.3967 24.4423 755.6658 24.5571 756.2989 25.0957 756.5527 25.4094 756.7359 25.7754 756.7981 26.1605 756.8042 26.1985 756.9047 27.1783 756.8971 28.0409 756.4737 29.3446 756.1645 29.7746 755.537 30.1499 755.2637 30.2314 751.8993 30.5397 751.4887 30.7534 751.1817 31.0344 750.9419 31.4681 750.9042 32.0386 750.9709 32.4802 751.0886 32.741 751.5884 33.3345 751.9557 33.6721 752.96 34.3823 753.433 34.58 754.0576 34.5457 754.7805 34.2704 755.172 33.9925 755.1947 33.9728 755.2918 33.8888 755.307 33.8755 755.3266 33.8586 755.3344 33.8519 756.3075 33.0094 756.5564 32.8555 756.5604 32.8553 757.6131 32.5813 757.7686 32.5888 758.0333 32.7404 758.2381 32.9481 758.4698 33.3165 758.74 33.8721 758.9241 35.1316 758.9214 35.1529 758.8503 35.6955 758.619 36.585 757.9192 37.7437 757.3722 38.317 756.5129 38.8483 755.7371 39.1338 754.9587 39.2781 754.6171 39.2695 753.8379 39.0856 752.9687 38.7131 751.7269 37.8737 750.7421 37.0742 750.1571 36.719 749.7389 36.5708 749.3335 36.5363 749.0603 36.5832 748.5777 36.9547 748.0574 37.513 747.5653 38.4669 747.4987 38.8488 747.5435 39.677 747.8956 41.7852 747.915 43.7312 747.839 44.2601 747.7069 44.6207 747.2146 45.318 746.6872 45.7062 746.423 45.8216 745.4561 46.0298 744.6472 46.0718 743.8599 46.197 743.2169 46.4231 742.9127 46.6219 742.2852 47.2355 741.9849 47.6549 741.0316 49.3804 740.8839 49.8259 740.3404 50.5556 739.859 51.448 739.498 52.4755 739.3634 53.2015 739.3565 53.6515 739.5706 54.4971 739.6165 54.6785 740.1832 55.6924 740.3584 56.3168 740.3774 56.5922 740.3163 57.1927 740.1251 57.9453 739.5878 58.9207 739.3805 59.1871 739.1159 59.39 738.6078 59.6801 738.1153 59.8187 737.8209 59.8423 737.3485 59.7728 735.9982 59.2467 735.3556 59.325 735.0121 59.4621 734.5931 59.7342 734.2762 60.0865 734.1745 60.28 733.6638 62.2801 733.6394 62.9806 734.1374 64.5333 734.4408 65.1461 734.8465 65.7124 735.9473 66.9 737.0205 67.8759 737.583 68.2815 739.4848 69.2113 739.8152 69.4918 740.271 70.0111 740.4519 70.3389 740.5407 70.7533 740.7635 72.6309 740.919 73.3595 741.0786 73.6922 741.6211 74.4907 741.975 74.8413 742.4138 75.2044 742.9365 75.5342 744.2795 76.2232 746.385 76.7704 746.9759 77.0157 747.838 77.7438 748.2073 78.3111 748.4834 79.5864 748.8882 80.2446 749.3278 80.5829 749.6259 80.8124 750.8117 81.2323 751.1974 81.5059 751.5607 81.9104 751.739 82.3024 751.7311 83.1016 751.7971 83.6474 751.8739 83.8867 752.2638 84.4586 752.515 84.6579 752.7114 84.7891 752.7861 84.839 753.1555 84.9578 754.2562 85.0585 754.6563 84.9515 755 84.7804 755.6392 84.4171 756.4248 83.8573 757.1318 83.7272 757.4587 83.7487 757.7617 83.8559 758.1854 84.1944 758.6366 84.9725 758.8345 85.52 758.8759 86.0679 758.6676 86.7927 758.285 87.2752 757.7063 87.6853 757.0974 87.8291 756.8732 87.9325 756.5229 88.2217 756.0429 88.7315 755.8362 89.0735 755.7819 89.3063 755.7717 89.4404 755.7388 89.8749 756.1343 93.1847 756.3188 94.0214 756.4794 94.7498 756.7368 95.5055 757.0895 96.3115 757.6232 97.0976 758.5124 98.1053 758.9949 98.5117 759.4491 98.7897 760.5851 99.1904 761.6983 99.689 762.8452 100.3651 763.7581 101.1471 764.4549 101.9482 764.9033 102.7912 765.1363 103.8818 765.1078 104.3465 764.9556 104.9303 764.2694 106.3259 764.2695 106.755 764.4413 107.1343 764.6461 107.3765 765.4996 108.1607 765.8295 108.3161 766.7801 108.5531 768.033 108.5819 769.3073 108.3101 769.6751 108.3647 769.9221 108.4908 770.3194 108.8289 770.5746 109.2124 771.1731 110.6175 771.9774 111.9468 773.1387 112.804 774.2385 113.1648 774.2398 113.1651 774.8067 113.277 776.1519 113.2505 777.1342 113.0227 778.9447 111.8505 779.8652 111.1477 780.5796 111.0112 781.7591 111.2736 782.3272 111.6414 782.5305 112.3413 782.7549 113.1137 782.5917 114.5284 783.8303 114.9499 784.9509 115.0391 786.6093 114.4997 787.4343 114.0077 788.1609 113.9105 788.9059 114.0011 789.5105 114.2323 789.9529 114.578 790.2434 116.5338 789.9977 117.1505 789.2157 118.1801 788.6984 119.0503 788.5786 119.4326 788.5786 120.2359 788.7238 123.4286 788.7244 123.4431 788.7582 124.5065 788.8581 126.6589 788.947 129.494 788.9493 129.5689 789.102 134.4448 789.2117 137.9523 789.2305 138.3669 789.3647 141.3258 789.4545 143.3067 789.4657 143.5759 789.5082 143.9256 789.4994 143.9972 789.4996 144.0002 789.5089 144.2307 789.7081 149.1373 789.7503 150.1772 789.7629 150.4871 789.7892 151.1373 789.8705 153.1018 789.8766 153.2498 789.8855 153.3622 789.8876 153.4212 789.915 154.1783 789.9495 155.0125 789.9929 156.0621 790.1449 158.704 790.1505 158.9625 790.193 160.9254 790.4318 170.1651 790.4355 170.3995 790.4443 170.7494 790.7938 184.58 790.8655 185.9752 790.8493 186.5859 790.906 188.0949 791.0692 192.015 791.0678 192.0189 791.0587 192.4997 791.2083 196.0963 791.2067 196.3524 791.2082 196.3941 791.3473 200.2768 791.478 203.9261 791.5095 204.9057 791.5193 205.0688 791.5321 205.8165 791.5322 205.8208 791.7404 211.6593 791.8879 215.8004 791.9589 217.2796 791.9782 217.7786 792.0776 220.349 792.108 221.0501 792.2981 224.898 792.3792 226.4331 792.4064 227.0041 792.4477 227.7181 792.5153 229.3739 792.5582 230.8688 792.5659 231.0719 792.6896 233.6978 792.8767 238.0879 792.9336 239.5384 792.9735 240.5794 792.9824 240.795 793.0403 242.6433 793.0551 243.0746 793.087 244.4429 793.174 247.4914 793.1794 248.4717 793.2274 249.9341 793.6561 261.0261 793.661 261.2202 793.6963 262.0022 793.6965 262.0066 793.8298 265.1009 793.8304 265.1154 794.0486 271.1025 794.0472 271.731 794.1287 273.9868 794.2345 276.6134 794.2395 276.8206 794.2681 277.5764 794.2727 278.0604 794.2862 278.6083 794.3059 278.9444 794.3625 281.4026 794.3919 282.6888 794.409 283.3104 794.465 285.3206 794.4885 286.4668 794.5293 287.2497 794.5627 288.5131 794.5959 290.0583 794.6144 290.9159 794.6537 291.955 794.7082 294.3928 794.869 300.6513 795.0941 306.4728 795.1171 307.4868 795.3082 311.7914 795.3382 312.128 795.3398 312.2651 795.3428 312.8633 795.408 314.0853 795.4081 314.0882 795.5299 316.7023 795.5305 316.715 795.6296 318.9221 795.7925 322.5104 795.7841 322.6418 796.0026 327.7036 796.0013 327.7572 796.0504 328.3597 796.0944 329.6658 796.1122 330.1803 796.2803 333.6343 796.3269 334.4806 796.5052 339.56 796.564 341.4577 796.5884 342.058 796.6093 342.6942 796.6117 342.708 796.6422 343.4594 796.73 345.4731 796.7926 347.3952 796.845 349.3642 796.9182 351.3198 797.0656 355.1946 797.0662 355.2123 797.0923 355.6276 797.0932 355.6529 797.2209 359.1176 797.223 359.3298 797.2991 361.1126 797.699 372.3013 797.7053 372.6836 797.7533 373.7951 797.7569 373.9584 797.7973 375.0488 797.8583 376.6962 797.8514 376.7551 797.9181 378.457 797.9492 379.2525 797.9698 380.2743 798.0075 381.1355 798.0984 383.0951 798.0986 383.0989 798.2771 386.8426 798.2906 387.191 798.3644 389.4229 798.4201 390.6604 798.4688 391.6409 798.4818 392.0453 798.4825 392.0691 798.521 393.0191 798.5196 393.0862 798.5923 394.5462 798.7012 397.0046 798.7782 399.1925 798.9429 403.4328 799 404.7928 798.2221 404.856 790.2241 405.1619 790.0027 405.1695 788.825 405.2193 786.2053 405.341 785.9754 405.3471 781.9032 405.4974 776.1037 405.7167 775.0681 405.7538 774.1152 405.7847 773.7506 405.799 758.492 406.2849 757.1685 406.3356 756.759 406.3478 754.7308 406.4244 753.922 406.4566 752.6716 406.4908 750.0939 406.5935 744.8718 406.7777 741.3231 406.9013 741.3032 406.9019 740.917 406.9159 738.9485 406.987 737.0146 407.0482 723.3486 407.5404 722.7586 407.5591 722.7297 407.5599 722.42 407.5683 714.2187 407.8558 714.2068 407.8562 703.0469 408.2119 701.8826 408.2419 700.5948 408.2751 696.3841 408.4076 692.2436 408.5317 691.8358 408.5381 690.9317 408.5659 690.3164 408.5897 686.6398 408.6989 685.5932 408.7281 684.2599 408.7653 683.1638 408.8154 681.689 408.8374 681.2052 408.8638 680.865 408.8769 678.3021 408.9523 677.812 408.9655 676.3684 409.004 675.4216 409.0399 673.4826 409.0807 671.2035 409.1698 664.8722 409.3266 664.115 409.342 663.9739 409.3456 663.7704 409.3509 660.2212 409.4427 658.2935 409.5065 657.3403 409.5288 654.4096 409.6298 650.4838 409.7638 635.3948 410.1278 635.1796 410.1114 634.757 410.1368 634.4811 410.141 634.1936 410.1465 634.0178 410.136 630.7185 410.2087 630.7126 410.2088 629.0731 410.2725 627.1874 410.3114 620.8673 410.4311 620.5759 410.4377 608.1942 410.72 605.9222 410.7834 596.7996 411.0376 594.0808 411.0836 574.7444 411.389 574.2012 411.3897 571.3943 411.4383 570.8913 411.4536 569.9707 411.5038 565.4308 411.5575 565.094 411.6064 562.1267 411.6138 557.3178 411.6895 556.3746 411.7029 553.6015 411.7584 553.4481 411.764 551.9875 411.7806 551.4691 411.793 551.1059 411.8017 550.1009 411.8256 546.5818 411.8808 545.7011 411.9007 539.839 412.0008 538.7957 412.0065 532.2507 412.1002 531.8609 412.1027 530.1395 412.1272 529.8909 412.1277 527.1891 412.1542 510.7292 412.3845 503.0263 412.4828 501.6816 412.4999 493.363 412.608 493.3558 412.608 492.225 412.6144 486.3712 412.6667 484.3701 412.6907 484.3057 412.6861 482.3659 412.7084 477.8476 412.7515 474.5575 412.7238 473.1241 412.7469 468.1084 412.8095 460.4079 412.8742 458.8237 412.8562 458.8177 412.8716 456.7949 412.9026 456.7933 412.9027 431.8796 413.0753 431.2413 413.08 430.6549 413.0851 423.4872 413.135 419.6725 413.1416 416.4303 413.17 413.1367 413.1784 411.9234 413.2039 409.9644 413.1873 398.297 413.2003 398.1936 413.2003 397.4489 413.2007 391.5421 413.1265 390.5442 413.1228 390.3355 413.1257 376.95 413.0466 376.9272 413.0465 358.6816 412.9892 358.2565 412.9715 353.6176 412.9205 350.3544 412.9295 350.1635 412.9324 349.7612 412.9303 342.0177 412.8848 340.882 412.8818 340.8206 412.8753 328.5824 412.7769 327.9445 412.7703 324.822 412.7375 322.6321 412.7722 314.546 412.6836 314.055 412.6793 301.2927 412.5484 298.1324 412.5163 287.6066 412.328 284.205 412.3712 278.9153 412.3255 275.8905 412.2689 274.1632 412.2549 274.1633 412.2466 273.9192 412.2426 273.7656 412.2403 273.2838 412.2331 269.7843 412.2012 267.9613 412.1841 260.7213 412.0698 258.2208 412.0447 257.2535 411.9516 244.7176 411.6839 244.6573 411.6824 243.4532 411.652 233.8433 411.4029 220.964 411.1894 220.31 411.1688 220.1727 411.1654 219.8349 411.1568 210.829 410.9447 208.0086 410.8766 200.2871 410.7449 199.7684 410.7409 199.62 410.7249 198.7682 410.7151 161.1518 410.0969 161.0355 410.0787 156.881 410.0282 156.8719 410.0249 152.7484 409.9755 152.3659 409.9781 147.8271 409.8994 141.4882 409.8242 139.0845 409.7223 138.1608 409.7227 133.7941 409.6202 132.9171 409.5979 128.4714 409.5412 124.6001 409.4394 123.2452 409.3834 123.2108 409.4072 118.8166 409.3407 118.8062 409.3406 113.3328 409.2011 111.5992 409.134 107.1989 409.0353 105.8168 409.0012 105.7856 409.0004 90.232 408.6417 90.0788 408.6478 74.5116 408.2607 74.3098 408.2594 72.3217 408.204 68.4877 408.0994 68.3654 408.101 60.8109 407.8969 57.1869 407.7828 53.3014 407.6673 53.2991 407.6672 48.4506 407.5339 48.3218 407.5372 16.0111 406.541 5.4872 406.1935 5.4874 406.1904 2.5066 406.0925 1 406.0383 1.1947 401.7806 1.2263 400.965 1.2365 400.7804 1.2664 400.4826 1.2516 400.3896 1.6151 390.7749 1.6619 390.0462 1.6992 388.2896 1.6946 388.2894 1.7956 386.0402 2.4046 370.3778 2.6421 365.0666 2.6874 363.473 2.8954 357.6705 2.8842 357.6423 3.0603 354.658 3.1276 352.7509 3.2261 349.9644 3.3565 346.622 3.3479 346.6062 3.524 341.9462 3.7169 337.0248 3.8452 333.0956 3.8887 332.2989 3.9771 330.0397 4.268 323.328 4.4626 318.4285 4.5165 317.0543 4.5633 315.5487 4.6535 313.5638 4.8497 307.7176 4.9147 305.7437 5.0106 302.8334 5.107 298.9837 5.1546 296.9942 5.2547 294.2204 5.4659 288.3282 5.7068 280.4933 5.7173 280.2286 6.2541 264.4236 6.6531 255.345 6.6815 253.7285 6.8063 251.4739 7.3663 236.9083 7.4205 235.2397 7.4482 234.3867 7.4485 234.3772 7.6755 228.5227 8.0254 218.8198 8.2459 214.5988 8.2146 214.0748 8.3553 209.5024 8.6387 202.5391 8.6396 202.5206 8.7531 200.0652 8.8487 197.3716 8.9323 195.362 9.0526 192.2834 9.2247 187.7671 9.2251 187.7563 9.5395 180.4411 9.5652 179.7239 9.5606 179.6866 9.6259 178.1387 9.6327 177.8924 9.6753 176.6794 9.9637 169.0392 9.9793 168.8796 10.0488 166.9232 10.1129 165.1212 10.2111 162.9673 10.2805 161.0927 11.4199 129.648 11.8097 118.5226 11.8227 118.0588 11.8373 117.5373 12.6166 95.1805 12.9486 85.6826 13.0904 81.6608 13.1492 79.6938 13.1773 79.0045 13.5986 67.8562 13.7664 63.7516 13.791 63.4506 13.9297 59.5146 13.9576 58.7236 14.0425 56.2646 14.2891 49.0356 14.3652 47.9924 14.4337 45.0599 15.1554 25.7657 15.2278 23.8391 15.2792 22.4721 15.2929 21.6192 16.1225 1 Z"/>
</g>
</svg>