<?xml version="1.0"?>
<svg xmlns="http://www.w3.org/2000/svg" version="1.2" baseProfile="tiny" width="800" height="346" viewBox="0 0 800 346" stroke-linecap="round" stroke-linejoin="round">
<g id="cb_2018_us_state_5m">
<path d="M 49.4598 277.5318 48.8973 277.1099 46.6484 275.0494 46.0606 274.5929 45.5965 273.9509 45.3552 273.5019 44.8429 272.2285 44.6784 271.4436 44.5606 270.0664 44.7284 268.8855 44.9722 268.0133 45.4037 266.8397 45.8388 266.0532 46.2681 265.2772 47.7677 263.4066 48.112 263.2129 48.2651 263.3059 48.6046 263.2033 49.1733 262.8121 49.5126 262.426 49.7901 261.7413 49.8917 261.6033 50.9522 260.9185 51.2849 260.5994 51.4588 260.3243 51.982 260.0439 52.4584 259.6329 53.8436 256.8063 54.1197 256.1291 54.2376 255.5826 54.5641 254.8002 55.282 253.6239 56.409 252.4166 58.3806 250.7013 60.2065 248.9178 60.5979 248.7951 61.4279 247.8795 63.1225 247.2962 63.9931 246.6587 63.7171 246.7287 64.5268 246.2585 66.3983 245.7687 68.1203 245.6775 70.6966 245.92 71.6349 246.0961 71.7732 246.122 72.1575 246.2643 72.894 246.5368 73.3036 246.6155 74.7507 247.3279 78.183 248.7204 81.7205 250.594 83.1747 251.212 84.7473 251.7455 85.6016 252.2695 86.661 253.1337 87.4136 253.9625 87.7632 254.4641 88.8413 255.3087 90.088 256.4018 90.8053 256.8408 91.6312 257.5355 92.229 257.8937 93.1221 258.2897 93.4559 258.3746 95.3136 258.1785 96.2029 258.4068 96.8448 258.6637 101.2549 260.9967 101.9692 261.2241 102.7391 261.2917 103.2254 261.5122 104.7064 262.4475 105.7579 263.2295 106.4894 263.9549 106.9733 264.2489 107.7245 265.4705 108.2178 266.1078 108.97 266.6127 109.5323 267.1151 109.9201 267.4616 111.4247 268.3038 112.86 268.7231 113.9146 268.9708 114.6544 269.0427 115.6933 269.0738 117.1876 268.7866 117.2096 268.7824 117.9614 268.9079 118.671 268.7861 120.4943 268.1148 122.1043 264.9068 122.3395 263.6993 122.2592 263.6079 122.2622 263.5192 123.138 261.4624 123.262 261.2865 124.4024 258.237 124.4524 257.9064 124.0891 257.1933 123.9038 257.0674 123.7454 256.8478 123.5219 256.3442 123.564 256.1088 123.1731 254.2367 122.9981 254.0029 122.7759 253.0359 122.232 251.1119 121.9454 250.6395 121.1262 249.7584 120.2826 249.2709 119.7977 248.843 119.1575 247.8881 119.0058 247.5733 118.5064 246.0875 118.2813 245.6455 117.7673 245.0535 116.9132 244.3492 116.1853 243.4455 116.0582 243.1954 116.3276 242.6093 116.0814 241.7142 115.4657 240.2931 115.6301 239.3906 115.9943 238.4063 116.3124 237.7825 116.7051 237.2035 117.2215 235.9106 117.9364 234.6373 118.3685 233.685 118.7396 233.0987 119.0256 232.3176 119.2599 231.1017 119.355 229.8292 119.7757 228.4708 120.0295 226.9245 120.7351 225.7147 121.2089 225.1663 122.272 224.1585 122.8985 223.7542 124.0443 223.1746 124.6931 222.9658 125.4493 222.8237 126.2304 222.5149 126.6246 222.3072 126.813 222.208 127.2645 222.1246 127.7477 222.2813 128.4443 222.6334 129.4302 223.3448 130.4609 224.2542 130.8608 224.9884 131.0865 225.2078 131.6808 225.3676 132.0943 225.2143 132.4205 224.977 132.4279 224.9715 133.4988 224.2349 135.1556 222.1209 135.4315 221.8528 136.4364 221.1766 136.8255 220.9954 137.359 220.4322 138.9238 219.6637 140.6313 218.958 143.4072 218.4999 145.2215 218.5487 146.5547 218.5142 148.4511 218.2052 150.3657 218.0398 151.7625 217.8337 152.1365 217.6056 153.6738 217.4783 155.9763 216.9316 156.238 216.9488 156.715 217.101 158.6596 216.9147 160.0791 216.8708 160.5636 216.9281 160.5597 217.0574 160.638 217.146 160.921 217.1544 161.2914 216.9498 161.9646 215.9905 162.5614 215.5588 162.9595 215.7865 163.0391 215.832 163.4145 215.4545 163.6293 215.0283 163.6466 214.8684 163.567 214.8229 163.4558 214.4741 163.6327 213.9614 163.8009 212.7459 163.7961 212.7334 163.6521 212.3614 163.7003 211.6475 163.6314 211.3572 163.0741 210.086 162.7521 209.6124 162.1602 209.1737 161.3203 208.8651 161.1309 208.7361 160.6525 208.1284 159.8281 206.5662 159.388 205.9152 158.5016 205.0985 157.7773 204.2907 156.7449 203.6281 156.5656 203.4561 156.3014 202.6525 155.9296 201.8304 155.8466 201.2474 155.9384 200.6718 155.8992 200.1584 155.7642 199.5522 154.7521 197.0111 154.3621 195.6876 154.2299 194.7437 154.239 193.5408 154.1122 192.8485 154.1123 192.4198 154.2141 191.8634 154.346 191.513 155.0701 190.1469 155.7455 189.1822 156.9396 188.047 157.1637 187.3116 157.9624 186.027 158.2449 185.6947 158.7351 185.3284 159.8611 184.924 160.414 184.6617 161.0663 184.0014 162.1111 183.3248 162.531 183.1003 163.517 182.7485 164.4449 182.0712 164.8978 181.5635 165.9436 180.0859 166.7559 178.3947 166.9545 177.748 167.22 176.1482 167.5546 175.1573 167.9234 174.5837 168.3917 174.2208 169.1272 173.9549 169.7389 173.9041 170.8149 174.1699 171.5944 174.5176 172.0024 174.7813 172.1963 175.0113 172.6054 175.2659 172.8943 175.3271 173.7069 175.8494 174.1699 176.304 174.3195 176.6754 175.349 177.8398 176.1156 178.0563 176.5326 177.9889 176.758 177.8463 176.9677 177.6183 177.6279 175.9725 177.9186 175.7454 178.0471 175.4697 178.035 175.0232 178.2913 174.708 178.8192 174.4363 179.6997 174.1615 180.5461 173.7867 180.9989 173.4751 181.2467 172.8374 181.3479 172.1517 181.0092 169.5323 180.7711 168.7624 180.3153 167.9341 179.0622 166.7037 178.1713 165.4653 177.9845 165.1031 177.8063 164.5205 177.7164 163.9757 177.7508 163.4283 177.8467 162.8614 178.035 162.4549 178.2055 162.2249 178.7054 161.6166 179.1705 161.1558 179.2436 161.055 179.8205 160.2587 181.6397 158.0731 182.3461 157.748 182.9267 157.7093 183.8682 157.9578 184.4812 158.2645 184.9658 158.6769 185.6675 159.4776 185.9108 159.9047 186.3296 161.11 186.4768 161.394 187.6573 162.4121 187.7465 162.5595 188.0415 163.1412 188.0342 163.7054 188.0741 163.8469 188.3853 164.1914 188.8138 164.5245 189.1535 164.6399 191.4877 164.8769 192.8176 164.9016 193.2634 164.8555 193.3287 164.8418 193.732 164.7572 194.0228 164.6067 195.1481 163.7443 195.3625 163.5242 196.2849 162.9378 198.5894 162.5058 199.298 162.5642 200.2918 162.8907 200.8806 162.8386 201.6412 162.6836 202.6642 162.266 202.6884 162.2541 203.9851 161.616 204.4362 161.4929 204.8168 161.532 205.2898 161.7207 205.7244 162.0515 206.2277 162.5523 206.371 162.8546 206.5684 163.903 206.5592 164.4457 206.4122 165.0038 206.1871 165.3965 205.8979 165.7375 205.4411 166.1316 205.2032 166.4498 204.5233 167.7512 204.4637 168.9997 204.5698 169.7637 204.711 170.3325 205.0742 170.9451 205.3913 171.2956 205.9951 171.5307 207.1679 171.7467 208.1335 171.7891 209.18 171.6685 210.3062 171.4254 211.3131 171.0694 211.6276 170.8318 212.2477 170.2122 213.8715 167.8889 214.1733 167.3254 214.23 166.3003 213.9623 163.8742 213.4054 163.1769 212.9136 162.7272 212.2487 162.307 211.0532 161.2088 210.7524 160.6985 210.4634 159.9824 210.2571 159.2789 210.2181 158.5858 210.5866 157.7103 211.2381 157.0565 212.1562 156.2819 212.6491 155.6313 212.959 154.4162 212.7911 154.0834 212.8032 153.5972 212.9605 153.1015 213.2208 152.6345 213.7148 152.3442 214.1115 152.2225 214.4331 152.204 214.6307 152.2477 214.8349 152.2927 215.3255 152.5677 215.6507 152.8254 215.9698 153.3327 216.088 154.0061 215.9726 155.0289 216.1826 156.0038 216.5387 156.8328 216.79 157.2722 217.4445 158.18 218.2618 158.9528 218.5447 159.1463 218.81 159.3277 220.2787 160.2001 221.4326 160.7113 222.3236 161.5465 222.7407 161.5164 223.4065 161.2123 224.5407 160.2502 224.9728 159.7954 227.1727 158.0752 228.6805 157.1382 228.756 157.0913 229.0358 156.9694 230.173 156.7633 231.0386 156.7017 232.0676 156.7313 233.7127 157.0965 233.8621 157.2366 234.8824 157.6108 236.0119 158.0249 236.771 158.4856 236.8104 158.5096 236.8509 158.5546 236.7779 158.7045 236.8161 158.7748 237.6956 159.8039 237.8973 159.985 238.2425 160.0536 238.6072 160.3624 238.8182 160.6468 239.5999 161.316 240.5778 161.8105 240.7073 161.7291 240.9562 161.7282 242.1646 162.0846 243.9516 163.0673 243.9798 163.0828 246.8342 165.1815 247.2901 165.5971 247.4108 165.758 247.9923 166.5332 248.7734 167.2752 252.2818 169.7395 253.1585 170.1402 254.2076 170.4813 256.5019 170.8452 257.4622 170.7403 258.0784 170.8978 258.3396 171.0418 258.6905 171.3495 259.2356 172.0817 260.3904 174.2353 260.8289 175.4155 260.8293 175.4171 261.2418 177.403 261.5928 178.1461 261.8064 178.3564 262.6629 178.6612 263.5027 178.7217 264.6745 178.4645 265.6443 178.0666 267.0392 176.9888 267.1268 176.8972 267.7462 176.2491 268.0571 175.7123 268.3223 175.1368 269.1483 172.9206 269.4201 171.895 269.8756 169.4867 270.118 168.694 270.706 167.2522 270.8 166.6948 270.7749 166.0514 270.7085 165.5131 270.5358 165.0433 270.5059 164.7415 270.6334 164.2299 270.9402 163.642 271.8734 162.5679 274.3027 160.8937 275.0362 160.5486 277.5778 159.5684 277.5906 159.5643 278.6114 159.2375 279.0517 159.3076 281.1427 159.1934 282.3145 159.0292 282.8958 159.0371 283.7721 158.8278 285.0363 158.023 285.0506 158.0139 285.5466 157.6098 286.6389 156.3444 287.3958 155.2472 287.7781 154.8396 288.3514 154.4224 288.9296 153.8398 289.2961 153.3177 289.6876 152.9035 290.4516 152.2856 291.1745 151.939 292.6185 151.4724 293.8381 150.8102 294.1932 150.7565 294.6895 150.8322 294.742 150.8597 295.1367 151.0665 296.7686 152.1664 297.2042 153.3459 297.4533 154.2993 298.253 156.457 299.7509 159.6371 301.1682 162.238 302.822 164.407 303.1552 164.7075 304.1072 164.9444 304.5006 164.8879 304.7435 164.7667 305.615 164.2154 307.2756 162.9044 307.9045 162.315 308.4355 162.0697 309.2533 162.0958 310.5093 162.3565 311.6244 162.6938 311.9323 162.9605 312.0908 163.2378 312.225 163.787 312.2278 164.3344 312.1472 164.7796 311.7185 165.9263 310.6859 168.1014 310.3766 168.9665 310.2345 169.7281 310.3096 170.6806 310.6484 171.4177 310.9537 171.6372 311.2405 171.756 311.7059 171.7904 312.7214 171.635 313.138 171.4928 314.0273 171.0558 315.1322 170.3364 315.7649 170.01 316.2411 169.6401 316.9339 168.4522 317.0208 168.088 317.007 167.9148 316.8145 167.4816 316.9362 166.7384 316.961 166.1954 316.79 164.0024 316.8259 163.2752 316.9784 162.7237 317.2258 162.2902 318.0204 161.3981 318.2338 161.2531 318.8802 161.1489 320.3365 161.2977 322.1688 161.8904 322.9741 162.0288 323.6551 162.0199 324.2671 161.8162 325.2103 161.3626 326.0708 160.8536 326.4045 160.5018 326.5332 160.255 326.4992 159.5027 326.2663 158.704 325.9425 158.1138 325.3305 157.4686 325.1353 157.119 324.8039 156.0985 324.6753 155.3003 324.7285 153.5125 324.6583 151.336 324.6915 150.1849 324.8066 149.4307 324.8446 148.68 324.8003 147.4608 325.1439 146.092 325.3995 145.7123 325.6208 145.532 326.1961 145.3011 327.4102 145.1447 328.3706 145.168 329.4443 145.1941 330.324 145.121 332.3709 144.5849 333.8313 143.2968 334.4057 142.4171 334.7033 140.9134 334.3073 139.8406 331.7633 138.5422 331.2476 137.9084 331.013 137.1688 331.0398 136.1628 331.3407 135.5302 331.5727 135.2838 331.9834 134.8477 332.7448 134.5033 334.6084 134.6709 335.9377 135.7947 337.3346 137.3745 337.6871 137.4318 338.2532 137.124 339.2099 134.9212 339.9863 134.3201 340.4485 134.1473 342.8082 134.4594 344.6 134.3765 345.3028 133.9065 345.823 133.1031 346.0604 132.0034 345.5882 131.0914 342.7352 130.368 340.8703 129.7417 340.293 128.7891 340.2412 126.8871 340.5489 126.2318 340.702 125.9057 342.0968 125.206 343.3972 125.6719 344.9205 127.3221 345.2062 127.5601 346.5248 128.6582 347.859 129.3344 349.5379 130.6434 351.1603 133.3124 351.2094 134.3331 350.3969 138.4786 350.3774 139.6885 350.8783 142.5671 351.514 143.8603 351.5566 143.9304 352.132 144.5152 353.2922 145.4329 355.0342 146.3081 355.8065 147.1078 356.3324 147.8172 357.7669 148.626 359.366 149.3562 360.5963 150.0422 361.2984 150.2312 361.8033 150.2413 364.5279 149.5313 365.9257 149.4727 366.8942 149.5775 367.9329 149.8314 369.2108 150.4321 370.0599 150.9392 370.831 151.5081 371.3073 152.0247 371.452 152.2229 371.3528 152.4987 371.6849 153.3091 372.3751 154.8372 372.6945 155.404 373.4963 156.4298 374.057 156.9867 374.3926 157.1354 374.6881 157.1693 375.1212 156.9977 375.3491 156.6902 375.5239 156.308 375.6303 155.5516 375.4456 154.1245 375.477 153.6534 375.746 152.9607 376.0552 152.6293 376.9759 152.1796 378.1723 151.8716 379.2258 151.7152 379.4732 151.6785 381.6053 151.2358 383.4424 151.1102 384.1509 150.9848 384.5082 150.7859 384.7579 150.6469 385.3969 150.2912 385.9021 149.8383 386.3612 149.3303 386.8646 148.6575 387.0236 148.3148 387.1822 147.9731 387.2913 147.5196 387.4864 146.3453 387.6206 144.6197 387.7714 143.6175 387.9145 143.0107 388.1772 142.1055 388.9126 140.4279 389.0902 138.5758 389.0375 137.1559 389.0371 137.1517 388.6182 133.3414 388.7089 130.5688 389.6776 128.0549 389.8759 127.5402 390.179 126.9901 391.6894 125.0413 392.284 124.492 392.4192 124.3671 392.5615 124.2356 392.9048 123.9184 394.6826 122.4544 395.2755 121.5711 395.3048 121.5274 395.911 120.2823 395.9117 120.2766 396.0953 118.785 396.0898 117.9702 396.4283 116.5659 397.0025 115.4257 397.5832 114.9295 398.3691 114.6185 399.7738 114.3633 400.4457 114.1435 400.6528 113.9869 400.91 113.8967 400.9113 113.8963 402.0047 113.9151 402.7872 114.2215 403.5468 114.9745 403.5669 115.0797 403.4831 115.3421 404.0473 116.0152 405.0864 116.638 405.7155 116.7331 406.348 116.4475 406.8955 116.1212 409.0043 114.8638 411.8014 113.1948 412.0572 113.0421 412.8617 112.3464 412.9418 112.2771 413.5985 111.0706 414.5108 109.9072 415.1599 108.8961 415.935 106.8214 416.7095 104.3893 416.7909 103.7755 416.7434 102.3708 416.7939 101.9127 416.7946 101.9062 417.2488 100.1925 417.328 99.8936 417.6377 99.0221 418.5033 97.0822 418.6389 96.4771 418.6198 96.292 419.9546 94.1687 420.3467 93.8021 422.0051 92.7034 423.2934 92.3397 425.553 92.269 427.2791 91.9841 428.2451 91.6965 429.2985 91.2959 431.1607 90.3953 431.9286 89.548 432.8088 88.1042 432.9794 87.7533 433.1636 86.9442 433.3499 86.4469 433.6925 85.6913 433.9125 85.402 434.4823 84.8772 434.9121 84.5728 435.3262 84.3373 437.0522 83.5791 437.9363 83.0911 437.9589 83.0722 438.6929 82.4593 438.9721 82.085 439.5655 80.8791 439.7435 80.1463 439.7788 78.9536 439.7238 77.8835 439.3081 76.5688 438.4466 74.8896 437.6395 73.3158 437.5091 72.8646 437.392 72.3807 437.3153 71.7257 437.3089 68.8373 437.4889 66.665 437.388 65.2954 436.767 63.8798 435.6747 62.3 435.5733 61.9084 435.5233 61.374 435.6286 60.5173 436.0269 58.7185 436.3614 58.1908 437.0388 57.3401 437.5021 56.4794 437.8823 56.0791 439.1182 55.374 439.6711 55.1858 440.2563 55.0804 441.327 55.2262 444.2174 55.9392 445.0845 55.9529 445.1344 55.9468 446.3203 55.8012 447.4302 55.5055 448.2405 55.2181 448.4707 55.1365 451.0092 54.4874 452.7339 54.3875 454.1459 54.55 454.9471 54.7171 455.8487 54.9987 457.1144 55.7779 457.5322 56.5117 457.919 57.0031 459.2131 59.2414 459.7201 59.8322 460.5277 60.5558 461.4265 61.0483 461.7259 61.1506 462.8627 61.5386 463.194 61.5831 464.2369 61.4772 464.7073 61.5191 466.386 60.9689 467.3391 60.5501 468.1776 60.0572 468.7545 59.6347 469.9516 58.4687 471.4317 57.2099 471.4235 57.0994 471.7985 56.6134 472.0391 56.4188 473.9625 55.2794 474.557 54.7449 475.0117 54.4717 476.2064 54.0245 477.4649 53.2458 478.1839 52.677 479.96 51.769 481.1688 51.1508 482.3771 50.0955 482.7872 49.826 483.3944 49.6102 484.5501 49.4885 486.2095 49.6465 487.7367 50.0039 488.41 49.9549 489.2385 49.7032 491.053 48.8331 492.4182 47.9709 493.2303 47.5601 493.8455 47.4329 497.0256 48.0006 497.9475 48.2746 499.2047 48.7702 499.9183 48.9087 500.67 48.9178 501.3593 48.7333 501.5389 48.5223 501.6521 48.1167 501.6605 47.6439 501.4204 46.6671 501.154 45.9968 500.0601 44.2526 499.7701 43.3643 499.7592 42.6775 500.0093 42.1142 500.4287 41.5487 501.06 40.9905 502.48 40.0235 503.3589 39.1784 503.4508 39.09 503.7263 38.7227 504 38.2281 504.2523 37.5472 504.3729 36.7812 504.3022 36.1089 504.1809 35.8755 504.0021 35.6783 502.7585 34.7201 501.477 34.193 500.8295 34.152 499.6623 33.923 496.5638 33.8854 495.8449 33.6943 495.6041 33.5304 495.5531 33.4492 494.8927 32.3999 494.7072 31.824 494.6594 31.4679 494.8109 30.91 495.5216 29.7407 496.1345 28.9939 499.1426 25.9485 499.4002 25.4875 499.677 24.4448 499.5955 23.7208 499.2994 22.8518 498.9225 21.9947 498.6435 21.5714 497.8976 20.7841 497.6551 20.3104 497.5608 20.005 496.8809 18.9205 496.0909 17.852 495.5233 17.0841 494.7153 16.3954 494.2227 15.9756 493.5848 15.0863 493.0473 13.9386 492.7507 13.5673 492.7281 12.9142 493.0815 12.2442 493.5895 11.7282 495.4134 10.7376 496.4584 10.1697 497.586 8.8342 498.6076 7.9059 499.4517 7.0309 499.9551 6.7328 500.5753 6.5576 501.2263 6.4213 501.3816 6.3404 501.5319 6.0715 503.2561 5.5636 503.8806 5.2505 504.2547 4.8854 505.9974 2.1825 507.245 1.1112 507.6216 1.017 508.2943 1 509.5302 1.3869 510.1337 1.7118 510.9125 2.3507 511.3749 2.926 512.6204 4.7184 513.5953 6.2205 513.8774 6.655 514.3804 7.138 515.1575 7.4219 516.29 7.4538 517.2003 7.7762 517.9076 8.2707 519.7479 10.2158 520.6662 10.5252 521.0095 10.6408 522.253 10.6606 522.8894 10.5407 523.8317 10.0117 525.895 9.4742 525.9259 9.4481 526.7261 8.7714 527.371 7.7809 527.6842 7.4105 528.0496 7.1842 528.7938 7.1389 529.0188 7.2028 530.7299 8.1088 531.2504 8.1177 532.2482 7.8992 532.62 7.7094 533.0283 7.5009 533.5871 7.0207 533.6583 6.9473 533.8701 6.7292 534.4724 5.6335 535.1588 4.8392 535.6352 4.5197 536.1432 4.2499 536.2138 4.2124 537.0802 4.1654 537.765 4.3433 538.334 4.6806 538.8021 5.1091 539.2771 5.7355 539.8065 6.7031 540.0918 7.7517 539.9818 7.9892 539.9174 8.7256 540.0944 9.1051 540.1321 9.8537 540.0877 10.5505 540.176 11.2593 540.4427 12.4787 540.6436 12.9105 540.8688 13.1585 541.3066 13.4332 542.7959 14.1125 543.2451 14.1083 543.4075 14.0148 544.1031 14.1527 544.8483 14.1587 547.5482 14.6316 549.0241 15.1949 550.02 15.7236 550.7313 16.217 551.028 16.4229 551.7097 17.1231 552.3557 17.7865 553.2879 19.1599 553.8478 20.5299 554.0721 21.3542 554.159 21.9299 554.3255 24.1635 555.0499 25.7992 555.9083 27.1857 556.4254 27.6607 557.8902 29.6051 558.2824 30.0456 559.4686 32.1578 559.7769 32.6601 560.0395 32.9561 560.6344 33.9595 560.8639 35.1266 560.8913 35.6312 560.9222 36.369 560.9331 36.6312 560.7692 39.1685 560.8331 40.6009 561.0521 42.1911 561.1469 42.6013 561.1734 42.7161 561.6868 43.8775 562.0247 44.3878 562.9746 45.4343 563.7283 45.8355 564.4718 46.0461 568.8289 46.7843 570.9708 47.471 572.9728 48.3351 573.6773 48.7828 575.1698 49.2897 577.5185 49.8865 578.3452 49.7869 579.4437 49.743 579.5505 49.7388 580.2851 49.8375 582.4667 49.2183 584.1999 48.5251 585.2883 48.2794 586.9823 47.5735 588.6915 47.5127 589.5723 47.6594 590.5573 47.9813 592.1652 49.1452 592.1558 49.4582 592.3215 49.54 593.3261 49.7747 593.7659 49.7553 594.6862 49.9525 594.6917 49.9535 596.4191 50.2632 597.8537 50.6598 598.5384 50.941 599.3141 51.3769 600.0366 52.0704 600.3889 52.6242 600.658 53.2625 600.825 53.8975 601.0381 54.8239 601.0691 55.2632 601.1586 55.6239 601.2756 55.9312 601.6838 56.4579 601.9626 56.6966 603.2229 57.5224 604.0451 57.7893 604.8223 57.8866 605.623 58.1295 606.4367 58.5098 606.8068 58.7913 607.1734 59.2912 607.5719 60.6956 607.8909 62.4913 608.0422 63.0747 608.4303 64.1985 608.7254 64.5788 609.1673 64.8791 609.4404 64.9769 610.7312 65.2831 611.9368 65.4842 613.728 65.6158 614.0252 65.8023 614.1296 66.0095 614.4963 66.2749 615.0382 66.4956 615.3309 66.5014 615.4652 66.504 617.3804 67.5011 618.0042 67.7341 619.1761 67.9726 619.6075 67.9833 620.0789 67.8881 620.4743 67.731 620.7298 67.6123 621.051 67.3243 621.4334 66.7584 621.7183 65.9298 622.0084 64.7162 622.0498 63.8344 622.2362 62.6799 622.3498 62.329 622.5679 61.9615 623.2813 61.1555 624.4172 60.5099 628.5993 59.3138 628.564 59.436 629.1789 59.2807 629.9138 58.9348 631.1944 58.4621 632.8224 57.9957 634.09 57.8483 634.9527 58.0067 635.8004 58.314 636.9437 58.9584 637.6582 59.482 638.7099 60.492 639.1579 61.0272 639.5852 61.3677 640.4362 61.5947 640.7177 61.5434 641.7603 62.0254 642.4378 62.1149 644.5133 62.1964 645.3549 62.4331 648.1627 62.814 649.0344 63.0195 650.0315 63.385 651.092 63.9584 652.802 65.0186 654.094 66.0676 654.6524 66.9595 654.8648 67.9937 654.928 68.8692 655.0412 69.3676 655.2096 69.7572 655.852 70.5229 656.2303 70.8423 656.8416 71.1772 657.6426 71.3692 658.1836 71.1751 658.4234 71.0038 660.2258 68.88 660.3005 68.4686 660.3149 68.4513 660.6689 68.0251 660.9615 67.8626 661.6336 67.7586 661.9799 67.3803 662.5425 67.143 663.1621 67.0438 663.8948 67.1617 664.8622 67.5888 666.1153 68.2947 667.0001 68.4882 668.1326 68.3786 670.0492 67.9867 670.8608 67.9925 671.6616 67.9114 673.0936 67.2834 673.5213 66.8516 673.8725 66.3923 674.4693 65.2597 674.7268 64.5947 675.0696 62.7523 675.5289 61.8382 676.0742 61.0878 676.5693 60.6116 677.0436 60.3251 678.9307 59.7848 680.9466 58.7006 682.0743 57.7727 682.9013 56.4763 683.1376 56.1057 683.5109 55.0375 683.7526 54.5355 684.043 54.0483 684.2549 53.812 684.2737 53.791 684.5545 53.5972 685.1808 53.3656 686.1947 53.1745 687.4797 53.2327 688.0253 53.3245 688.8425 53.6069 689.53 53.6294 690.6169 53.2345 691.6002 52.3951 693.1856 51.264 695.1551 50.3212 698.1542 49.3907 698.668 49.4433 699.6774 50.0221 700.1017 50.5633 700.2261 50.8054 700.415 51.1731 700.5593 51.5901 700.7416 53.0576 700.7116 53.8602 700.6425 54.3484 700.2689 56.1196 700.1312 57.1222 700.0844 58.0699 700.3867 59.0284 700.9461 59.6253 701.6231 60.7778 702.054 61.9366 702.4218 63.8069 702.4166 65.5424 702.5609 67.1246 702.7409 68.0875 703.0782 69.2777 703.5339 70.4712 703.8446 71.0289 704.3505 71.634 706.3872 73.3496 706.8201 73.5973 708.4795 74.5459 709.5523 74.9423 710.6137 75.036 712.2288 74.8118 714.7099 74.9298 715.5944 74.8698 716.2281 75.0713 716.7749 75.5738 717.3532 75.9682 718.8238 76.7439 719.1837 77.0264 719.8904 77.8209 721.4294 80.4623 722.5112 81.7069 722.5184 81.7161 723.4181 82.8638 724.332 83.6859 725.4528 84.4325 726.2821 84.7749 726.8688 85.0172 727.4577 85.3433 727.9477 85.6659 728.3032 86.0597 728.5482 86.5008 729.0025 87.567 729.4307 90.502 729.8668 91.899 730.2197 92.5326 729.9673 93.0826 729.9001 93.7156 729.9197 94.1022 730.1618 95.2269 729.8974 96.0465 729.7569 96.3114 729.7166 96.6807 729.7706 96.8937 730.1954 97.6725 730.1941 97.6739 730.2491 97.8739 730.4678 98.6693 730.3831 99.097 730.1222 99.6974 730.0423 100.0277 730.0005 100.9438 730.0719 102.6479 730.2295 102.9142 730.6441 103.0587 730.9398 103.2336 731.1288 103.4477 731.4128 104.0353 732.303 104.7708 732.4112 105.0521 732.7769 106.0028 732.8724 106.3971 732.8719 106.6831 732.7825 106.8993 732.2452 107.7726 731.9443 108.4404 731.7938 108.9202 731.823 109.097 732.1549 109.5807 732.2082 110.4731 732.2924 110.8889 732.5213 111.439 732.7505 111.7995 732.7867 113.2248 732.4507 114.4263 732.1094 115.2536 731.8906 115.552 731.6811 115.6573 730.7631 115.7051 729.8011 115.4894 729.7604 115.4906 729.6874 115.4927 729.5071 115.6725 729.0158 116.9866 728.9948 117.1889 729.2465 118.2048 729.4051 118.6095 729.7442 118.9306 730.3093 119.2031 730.5129 119.4018 730.5314 121.5559 730.4982 122.0533 730.0267 123.3281 729.3559 125.463 729.1395 125.6409 728.5307 125.818 727.903 125.6434 726.4971 125.6012 726.0959 125.8169 725.9313 126.3571 726.5622 127.4891 726.6361 128.0899 726.68 129.2282 726.7981 129.8088 726.8894 129.9627 727.1211 130.1127 727.9628 130.33 728.3872 130.5048 728.4915 130.6883 728.5249 131.8388 728.6156 132.0679 728.7112 132.1614 729.0544 132.2206 730.0395 132.1107 730.4592 132.4265 730.7202 132.5453 730.9443 132.7314 731.4188 133.3826 731.611 133.5035 732.028 133.6268 732.2506 133.867 732.3422 135.041 732.321 135.5411 732.4845 136.0089 733.547 137.1036 734.4144 137.271 735.0789 138.2777 735.9487 138.5204 736.1309 138.807 736.1702 139.5311 736.3973 139.7834 736.6589 140.1141 736.6828 140.6734 736.7803 140.9505 737.0708 141.4271 737.492 141.8408 737.4834 142.1702 737.3292 142.5578 737.3832 142.8727 737.782 143.5357 738.2717 143.976 738.618 144.1244 738.752 144.2756 738.7773 145.1746 739.1382 146.0313 739.4582 146.6044 739.6764 146.771 739.711 147.0449 739.6739 147.3947 739.7264 147.5609 739.8738 147.7242 740.1545 147.7494 740.5061 147.5319 740.7756 147.4893 741.5425 147.7762 742.5879 147.783 742.8019 147.8474 742.9949 148.1869 744.5137 149.309 744.9961 149.4586 745.1588 149.5586 745.2901 149.7345 745.3222 150.1435 745.2407 150.5977 744.8013 151.1107 744.51 152.7418 744.6176 152.835 744.6062 152.9496 744.2819 153.5133 743.6977 154.2896 743.2793 154.7087 743.0011 154.8164 742.2237 154.6655 742.081 154.6969 742.0204 154.8168 742.0205 154.819 742.0322 155.1589 741.7363 156.0073 741.5815 156.2436 741.5965 156.4478 742.0013 157.0801 742.2547 157.2378 743.0627 158.3871 743.1421 158.5353 744.5529 160.6865 744.7695 160.8183 744.9037 160.7992 747.3313 160.0693 748.2815 160.5791 748.5877 160.9943 748.9933 161.918 749.32 162.1217 750.1117 162.4438 750.2956 162.6789 750.3624 162.9057 750.3769 163.8239 750.4549 164.1792 750.5666 164.4016 750.1328 165.2967 749.9331 165.4231 749.9204 165.5982 750.0039 165.7792 750.1661 165.8947 750.2469 166.5133 750.3696 167.4535 750.3724 167.5437 750.7001 167.6843 751.1383 167.7131 751.2422 167.7822 751.6102 168.8426 751.7255 168.9896 752.5977 169.6945 753.8805 171.1965 754.0032 171.1927 754.1441 171.2938 754.7597 172.1299 754.8808 172.4664 755.0188 173.1605 755.2843 173.2639 755.7936 173.3021 756.0257 173.4423 756.2658 173.7386 756.3321 173.9383 756.4604 174.1117 756.7339 174.2354 757.2629 174.2939 757.4576 174.3871 758.0449 175.148 758.9204 175.2678 759.0005 175.3375 759.1593 176.0007 759.0936 176.2858 759.1204 176.4715 759.2614 176.6628 759.4325 176.7717 759.6822 177.8414 759.695 177.9613 759.9799 178.2503 760.1595 178.3409 760.3785 178.355 761.0652 179.2273 761.0408 179.776 760.346 180.1647 759.8113 180.865 759.844 181.1379 759.8766 181.1673 760.5409 181.766 761.2906 181.9859 761.3771 182.0675 761.4399 182.1589 761.5072 182.8581 761.7066 183.6644 762.1849 184.0135 762.2537 184.2009 762.3154 184.7288 762.6952 185.4573 762.8608 185.5784 763.3539 185.6381 763.6613 185.8902 763.8182 186.1141 763.7573 186.4561 763.2906 186.9436 763.2055 187.2803 763.3612 187.6578 763.7599 188.0425 763.9213 188.1276 763.94 188.2444 764.1166 189.2773 764.1538 189.3182 764.1999 189.9189 764.1447 190.0681 764.1853 190.3047 764.463 190.4675 764.8408 190.5759 765.0123 190.3205 765.9033 190.3089 766.5379 191.106 766.9655 191.2731 768.117 191.98 768.6191 191.943 769.4707 191.3825 769.7933 191.2634 769.9383 191.3008 771.3541 192.3558 771.4188 192.5043 771.5003 193.1518 771.6515 193.469 772.1014 193.6677 772.3836 193.8692 772.3897 194.0495 772.1589 194.5901 772.0412 194.7415 772.0509 194.8555 772.6379 195.6701 772.5569 195.8474 772.785 195.9498 773.1812 195.9769 773.7347 195.8657 773.832 195.8202 773.9219 195.6396 774.0517 195.5812 774.9771 195.8517 775.5011 195.6596 775.5611 195.5733 775.6452 195.5861 776.115 195.6573 776.0192 196.0323 776.1332 196.3085 776.6427 196.7703 777.4432 197.4242 777.4718 197.8387 777.5735 198.016 777.9585 198.0665 778.7196 199.5195 778.8297 200.0396 779.6994 200.2578 779.9013 200.0222 780.3961 199.6747 781.3993 199.8553 781.5965 200.1107 781.9139 200.7415 782.1266 201.7399 782.2666 201.8949 782.266 202.0786 783.1508 204.2611 784.5485 204.1468 784.6413 204.2279 784.6803 204.4041 786.018 204.6351 786.4965 204.6969 787.4908 204.6084 787.68 204.7073 788.6458 206.056 788.7352 206.3932 788.6317 206.7792 788.6803 207.0604 788.797 207.1437 789.0133 207.1633 789.4043 207.0325 789.6831 207.0409 790.6984 206.3406 790.6502 205.9869 790.6792 205.697 790.8752 205.4734 791.278 205.5167 791.3813 205.6457 791.5139 206.192 792.3805 206.8277 792.7487 206.7368 793.1811 206.4239 793.4023 206.4101 793.6148 206.6678 793.7388 207.2205 793.9456 207.3129 794.4436 207.3377 794.6271 207.2742 796.0012 206.7085 796.1473 206.6098 796.4927 206.0465 796.6557 205.9985 797.184 206.1151 797.3519 206.0369 797.8012 205.6174 798.4453 205.4528 799 205.8907 798.9639 206.1359 798.6782 206.5897 790.3433 214.4134 789.1452 215.7194 782.8754 221.6722 775.086 228.792 774.9922 228.9354 769.7568 233.8795 765.9463 237.4348 764.1665 239.0138 763.6711 239.5347 763.4975 239.7171 763.3925 239.8841 763.3709 240.2345 763.222 240.6931 762.6486 241.2825 761.9266 241.4327 761.3757 241.7754 760.8585 241.6406 760.8634 242.5316 759.9645 243.4845 759.5129 243.7429 758.5559 243.8786 757.3143 244.511 756.6143 244.4993 756.3679 244.5757 753.0135 245.7703 751.6798 246.4104 751.1891 246.4625 749.7952 246.8444 749.5043 247.0306 748.9967 247.6076 748.3636 247.6261 747.308 248.0159 745.9491 248.6306 745.8597 248.7156 744.9316 249.1399 744.667 249.2159 743.739 249.8111 743.6936 249.8574 742.8551 250.3765 742.0367 250.8831 741.5936 251.0559 741.282 251.2814 739.3678 252.342 739.0118 252.565 739.0088 252.5679 738.5699 253.0032 737.8352 253.4832 737.8305 253.4868 736.4354 254.5258 735.6376 254.9268 735.0483 255.3088 734.9696 255.4145 735.0246 255.6324 734.5472 256.0804 733.4279 256.6439 732.4907 257.3173 731.7299 258.0223 730.8604 259.1867 728.9693 259.5498 728.8017 259.6326 728.6482 259.7307 728.3851 260.4714 727.868 260.6383 727.3236 260.9054 726.9372 261.3771 726.4019 261.8495 726.1209 261.7771 725.5784 261.758 724.4356 262.3578 723.1797 263.1847 722.3057 263.6552 722.0956 263.638 721.7091 263.9246 721.2947 264.4995 721.2719 264.6181 721.2992 265.0293 721.777 265.8266 721.8266 266.4055 721.7925 267.3225 721.569 267.502 721.5104 267.6463 721.7355 268.5491 722.0026 268.9571 722.2596 269.1018 722.3662 269.2482 722.4231 269.5522 722.2595 269.7557 721.9132 269.8331 721.695 269.795 721.3608 270.1336 721.457 270.9395 721.7247 271.5013 721.9139 272.1001 721.8419 272.8269 721.8432 273.4606 721.9367 273.7887 721.71 274.103 721.6706 274.1252 721.5483 274.1942 720.9731 274.0325 720.7721 273.8962 719.8499 274.1245 719.7266 274.3359 719.5704 275.8599 719.3331 276.4744 719.0503 276.6276 718.9258 276.4315 718.6919 276.3112 718.1521 276.2277 717.4086 276.8035 717.3454 277.0907 716.8695 277.7897 716.2867 277.8627 716.1895 278.228 715.8103 278.8007 715.1025 278.8304 715.0826 278.8526 714.9415 278.9526 714.8983 279.0199 714.6352 279.1938 714.4887 279.144 714.3946 279.0409 714.3368 278.8058 714.1965 278.6581 713.8832 278.8912 712.5239 279.2722 712.2901 279.0317 712.0568 279.1739 711.8774 279.1719 711.6652 279.4184 711.5732 279.4539 711.2995 279.1783 710.9482 279.2627 710.812 279.5492 710.7551 279.8939 710.9201 280.3371 710.7581 280.8799 710.4441 281.0817 710.2277 281.4997 709.9673 281.7445 709.8094 281.7373 709.6843 281.7741 709.3013 282.1845 708.838 282.2404 708.6281 282.112 708.4989 282.0541 708.3812 282.0289 708.1092 282.4254 708.0828 282.8364 707.9631 282.9472 707.6877 282.9558 707.4339 282.7375 707.2291 282.8697 707.1151 282.9696 707.0455 283.0004 706.9586 283.0728 706.8655 283.2116 706.7968 283.5156 706.7745 283.7926 706.7097 284.5945 706.716 284.6595 707.0251 284.956 707.2472 285.6205 707.3727 285.6306 707.5146 285.6556 707.7652 285.8792 707.9912 286.1335 708.2794 286.156 708.2425 286.3328 707.8478 286.7896 707.7889 287.2164 707.7241 287.3485 707.7005 288.0764 707.8271 288.3199 708.0258 288.8899 708.0609 288.9347 708.1237 289.3522 708.0592 289.5832 707.9211 289.9213 707.7238 290.0585 707.5701 290.316 707.3938 290.5026 707.2017 290.8965 706.6896 291.5025 706.5212 291.659 706.2721 291.939 706.1475 292.2391 706.6786 292.8281 706.9459 293.037 706.6305 293.6331 706.2952 293.7765 706.0716 294.079 706.1208 294.2336 706.1603 294.3578 706.0935 294.6564 705.9982 294.7245 705.461 294.8183 705.1511 295.0349 704.9075 295.3833 704.3455 295.6793 703.2105 296.0244 703.0398 296.159 703.0424 296.3583 703.1241 296.5652 703.0748 296.6897 702.81 296.782 702.6649 296.7603 702.6509 296.7613 701.5398 296.8312 699.9683 297.745 698.4892 297.9296 697.5268 298.4289 696.5653 299.0904 696.3884 299.0841 696.2306 298.9131 695.6159 298.8499 694.6214 298.9475 693.6133 299.3017 693.06 299.9517 692.8306 300.47 692.5028 300.5561 692.1492 300.5654 691.1633 300.2343 690.8952 300.0173 690.7264 299.5481 690.6207 299.5243 689.016 299.7075 688.7997 299.8967 688.4565 300.0627 687.9409 300.0487 687.0945 299.8322 686.7332 300.1169 686.5013 300.0961 686.1702 299.8804 685.8203 299.7572 685.5172 300.2902 685.7238 301.0347 685.5889 301.5638 685.1168 301.6144 684.3566 301.9478 684.153 302.2418 683.9161 302.4577 683.1249 302.818 682.8281 303.1799 682.7993 303.2989 682.8459 303.495 683.0511 303.7268 683.1514 303.9743 683.2197 305.1165 682.7589 306.1264 682.2532 306.7308 681.9679 306.9731 681.5706 307.5477 681.122 308.4201 680.6891 308.8083 680.1193 308.9879 679.8258 309.5073 680.1799 310.2748 680.1548 311.0248 679.9157 311.3961 679.8106 311.5951 679.7941 311.7548 680.5208 312.1313 680.5135 312.1487 680.4101 312.1873 680.199 312.6045 680.2604 312.7995 680.3231 313.5266 679.9935 313.6709 679.6557 314.0994 679.4449 314.5643 678.4278 314.7585 677.3108 314.7315 676.8123 315.0452 676.1933 315.1512 675.3184 315.1184 673.3292 315.1761 672.798 315.4509 670.6786 316.3129 668.9645 316.929 668.7428 316.9076 667.9265 317.162 666.9677 317.6429 666.117 317.7665 665.5237 318.1079 665.1887 318.2072 664.8723 318.1877 663.8058 318.5786 663.6828 318.739 663.5886 318.7673 661.5626 319.1258 661.1128 319.2799 660.9475 319.4411 660.6656 319.5653 657.8299 320.5317 657.1108 320.9279 656.9976 321.0617 656.7037 321.158 656.6005 321.2319 656.4149 321.4286 656.1229 321.5792 656.0176 321.5814 655.8143 321.4278 655.6147 321.4582 655.251 321.7154 653.3083 322.5565 652.9746 322.774 652.3568 323.5095 652.3264 323.5757 652.4039 323.7583 652.3111 323.8653 650.6407 324.6876 649.8353 325.006 649.3955 325.1595 648.5547 325.2945 648.0496 325.3439 647.5947 325.2609 646.8295 325.4863 646.1352 325.5656 645.7849 325.441 645.4922 325.565 645.4704 325.5663 644.8946 325.6009 643.1914 325.4387 642.5238 325.2543 641.9909 324.9491 641.5579 324.9048 641.3584 324.948 641.203 325.0956 640.6244 325.1592 640.1176 325.1162 639.6681 325.3219 638.5022 325.5542 638.2382 325.533 637.9987 325.6952 637.8869 325.9207 637.8797 326.1049 636.9756 326.8185 636.4009 327.1052 635.6858 327.2105 634.7958 327.5555 634.4759 327.9426 634.0501 328.3053 633.2687 328.8323 632.5106 328.8986 630.8126 329.4946 630.5706 329.5253 630.4317 329.4227 630.2944 329.412 630.0535 329.5083 629.3648 329.9281 629.1705 330.2734 628.8092 330.7267 628.2779 331.1042 627.8691 331.256 627.2286 331.4251 626.7182 331.1843 626.1501 331.2732 625.8265 331.476 625.7136 332.2667 624.8597 332.9258 624.2486 333.5936 624.0398 333.7287 623.2512 333.8869 623.0966 334.0998 623.0173 334.3993 623.001 334.693 622.8472 334.9585 622.5996 335.2914 622.2345 335.5474 621.7708 336.2125 621.6398 336.5828 621.4433 336.8229 611.0687 336.8234 599.9423 336.6534 596.1057 336.5502 590.1039 336.3859 590.0796 336.3852 575.3405 336.3405 564.8204 336.3646 564.8058 336.3646 561.2184 336.4309 560.1799 336.4552 542.0611 336.0839 536.0352 336.0579 531.4772 336.148 522.8424 335.7796 506.6409 335.4039 505.9143 335.3864 505.9081 335.386 503.9719 335.2793 499.8196 335.1868 498.0602 335.024 498.0623 335.0152 489.1742 334.2539 485.9099 333.8735 484.6885 333.7308 480.6596 333.3901 474.1404 333.0703 473.1156 332.9975 462.6457 332.6177 454.1097 332.4897 452.5973 332.4979 452.0359 332.5783 452.0228 332.5802 451.5661 332.7624 449.0077 332.7471 448.0086 332.9568 437.8807 333.4728 437.2149 333.5282 431.7365 333.9821 425.0763 333.8697 425.02 333.8623 411.7522 333.5048 406.049 333.1812 400.0631 332.9653 400.0598 332.9652 398.7051 332.8828 395.4682 332.9136 391.0722 332.6777 381.9914 332.0288 380.3185 331.9525 374.3161 331.6762 374.2772 331.6698 373.7263 331.6141 369.2682 331.1656 369.1333 331.1766 356.9451 330.342 356.1772 330.2849 356.113 330.2787 354.984 330.1699 354.9602 330.1607 354.6788 330.1279 354.3551 330.1159 346.8523 329.4521 342.6717 328.9569 339.9295 328.786 338.3788 328.7313 338.251 328.7723 334.4149 328.6232 328.3955 328.3862 328.006 328.3915 327.8769 328.4014 327.868 328.4019 324.2558 328.2542 320.4393 329.7694 320.4861 329.3292 319.7848 329.198 319.6425 330.0941 318.3037 330.6588 318.2796 330.6689 315.5966 328.1331 314.0002 328.1584 313.8577 328.1588 302.5307 328.3577 297.7719 328.3271 297.3104 328.3344 292.0639 328.4167 291.7321 328.4014 291.498 328.4085 289.9421 328.4396 287.7157 328.4457 282.2584 328.4301 282.1992 328.4352 271.1315 328.5422 265.9303 328.542 260.2222 328.5386 248.0403 328.3632 247.9869 328.3631 246.2351 328.333 242.9943 328.2812 242.6668 328.2686 239.1415 328.2111 236.9246 328.1742 236.0653 328.1598 235.6789 328.1606 231.684 328.1019 228.6688 328.0565 228.6674 328.0565 227.5397 328.031 226.3268 328.0428 225.3886 328.0365 212.9853 327.9444 212.7876 327.9397 204.7514 327.8837 199.1587 327.8693 193.8259 327.8526 182.3894 327.9294 182.8792 323.9389 180.5147 323.6918 165.8424 321.7089 162.3732 321.4819 159.6613 321.3844 159.8362 323.8051 160.2034 324.9852 160.788 325.9936 160.9396 326.363 161.0728 327.0019 161.0389 327.6893 162.0532 331.3395 162.3968 333.8235 162.5199 335.318 162.9003 336.7816 163.055 338.1013 163.1521 339.5597 162.9431 340.8082 162.7419 341.487 162.5846 341.7623 162.5151 342.1242 162.556 342.5442 162.4891 343.0655 162.3012 343.5126 161.6629 344.3257 161.103 344.8389 160.8029 345.2145 160.7938 345.2141 152.9802 344.7962 132.5779 343.911 132.0399 343.8869 131.5226 343.8639 122.4963 343.5383 118.9317 343.3738 118.6794 343.3955 116.5679 343.3037 114.8262 343.2394 114.812 343.2389 112.418 343.106 112.3812 343.0983 111.951 343.0933 111.9424 343.0932 108.9097 342.9382 105.525 342.8039 96.6819 342.4509 90.9755 342.1896 87.5731 342.0424 82.0812 341.8491 80.2706 341.7736 79.1902 341.7285 79.1597 341.727 78.3876 341.6898 78.3623 341.6892 74.1567 341.5909 73.1163 341.6488 71.542 341.5209 64.6921 341.259 60.9415 341.0535 60.2288 341.0187 59.8479 341.0002 59.8356 340.9995 57.2967 340.8655 54.7439 340.738 53.3478 340.6699 51.4479 340.5744 48.5614 340.4295 48.3225 340.414 43.75 340.1115 43.7284 340.1101 38.6767 339.7554 31.5477 339.3394 31.2111 339.2895 29.3175 339.1608 24.4722 339.4707 23.3557 339.556 20.87 339.6821 20.6881 339.7208 19.7075 339.8073 18.3516 339.7399 16.9409 339.6922 18.3309 335.921 19.1444 334.0934 19.3959 332.8355 19.4402 332.2515 19.5338 331.8321 21.0521 328.7472 21.3173 327.7686 21.6889 325.553 21.8943 324.8026 22.0008 324.5638 22.4978 323.9117 23.0952 323.3827 24.065 322.98 25.4214 322.703 26.4497 322.5817 27.1289 322.6183 27.2191 322.6232 28.0823 323.5977 28.5549 324.2677 29.7199 326.4198 30.3856 327.8174 31.9514 329.9926 32.6779 330.8537 33.0491 331.1955 33.8779 331.725 34.0533 331.7589 36.3569 331.6091 37.342 331.3149 38.418 330.4676 38.8483 329.9647 40.1166 327.1952 40.3848 325.0227 40.6106 324.0492 40.7841 323.6241 41.3598 322.7192 41.8914 322.0681 42.3764 321.6174 43.3096 320.9034 43.3161 320.8962 44.4279 319.6715 45.0417 318.8787 44.0567 318.1094 43.7278 318.0124 43.9928 317.751 44.1703 317.2857 44.2033 316.3236 44.0628 315.8753 43.531 315.1849 42.5687 314.1877 41.3979 312.7212 41.0578 312.1772 40.9482 311.6339 40.9452 310.8931 41.1217 309.7895 41.3587 309.116 42.0577 308.1184 42.8307 307.3058 43.3671 307 44.4816 306.6066 44.7155 306.5952 45.736 307.1193 46.2876 307.1031 47.275 307.2613 47.971 307.7388 48.5076 307.7941 48.9559 307.8081 49.3615 307.4157 49.7271 306.7784 50.0447 305.7713 50.1223 305.1344 50.0571 304.7129 49.7139 303.8487 49.4109 303.4171 49.406 303.4102 48.852 303.0761 48.4047 302.9853 47.2502 302.9216 46.0273 302.7697 45.5131 302.5133 44.7417 301.869 44.4811 301.523 44.0927 300.7504 43.8633 300.2939 43.7376 299.9389 43.7032 299.5446 43.7914 299.0695 43.8375 297.1228 43.9318 296.7034 44.0406 296.5509 44.4566 296.0384 44.7826 295.8261 45.1614 295.7093 45.9353 295.7444 46.1638 295.6485 46.5819 295.2323 47.1975 295.1855 48.2171 295.2009 48.9027 293.9019 49.5299 292.0023 50.3091 290.6241 50.5688 290.0343 51.5997 285.7735 52.459 283.2975 52.628 282.6705 52.6285 282.6667 52.9023 280.8562 52.9037 280.3907 52.8587 279.974 52.5416 279.2828 51.8841 278.3533 51.3244 277.8344 50.9899 277.6177 50.2894 277.376 49.8901 277.3905 49.4598 277.5318 Z M 9.7518 339.5766 9.0042 339.5058 8.4253 339.4652 4.0845 339.2636 3.7329 338.3238 2.6054 336.6855 2.2106 335.9997 2.0199 335.552 1.5121 334.0092 1.1059 333.0173 1 332.6236 1.0023 331.9362 1.2139 331.2157 1.5643 330.4296 1.9731 329.8518 2.5373 329.2506 3.1323 328.7956 3.8357 328.4577 4.2236 328.3993 5.7929 328.3938 6.3394 328.5457 6.7136 328.7575 7.1541 328.895 8.6605 329.1597 10.2392 329.8202 10.6426 330.1079 10.8232 330.3219 11.3815 331.437 11.8946 333.1794 12.0776 334.593 11.9956 335.4072 11.6534 336.5305 11.2109 337.504 10.6749 338.3577 10.0895 338.9813 9.7518 339.5766 Z"/>
</g>
</svg>