<?xml version="1.0"?>
<svg xmlns="http://www.w3.org/2000/svg" version="1.2" baseProfile="tiny" width="800" height="729" viewBox="0 0 800 729" stroke-linecap="round" stroke-linejoin="round">
<g id="cb_2018_us_state_5m">
<path d="M 788.5059 526.0744 790.2123 526.7397 792.5704 529.3109 794.8782 533.098 796.0963 535.5513 797.6992 540.5552 798.9656 546.9649 799 554.9966 797.9004 562.5024 797.0547 566.6228 795.4317 571.7102 792.6969 578.6615 790.8118 578.2188 790.9507 575.438 791.7673 572.5867 792.7356 569.9819 793.8504 567.1926 794.8162 564.4448 795.2445 559.5982 796.1426 555.5976 796.2345 549.1182 795.7818 545.1585 795.4961 542.0613 793.7069 536.3678 792.8518 533.2846 790.7216 530.8821 789.1022 528.2077 788.5059 526.0744 Z M 717.6174 526.7187 721.5372 524.8454 723.5123 520.8233 734.0816 512.8636 740.5347 507.9447 741.6946 510.1269 737.2655 516.2652 735.1761 519.9258 736.2376 524.115 741.6513 525.3256 743.6422 528.9397 742.061 530.8615 739.1278 530.6005 737.7478 533.3092 739.4756 536.4982 737.3385 537.9545 735.1829 536.7747 735.4512 533.0656 733.5158 529.6296 730.3292 528.1671 727.8755 531.3711 727.0889 531.1833 722.8705 530.0558 719.7676 530.3809 718.4865 530.1123 717.6174 526.7187 Z M 701.9313 511.8977 704.6018 510.2245 705.6843 511.9403 703.9975 514.6671 702.4682 514.8831 700.2707 512.8759 701.9313 511.8977 Z M 675.5854 620.8098 678.0441 620.5227 681.3887 618.4888 683.513 618.0421 685.1696 619.0942 683.0765 621.1776 681.2653 623.6048 679.8693 625.6377 677.0314 623.3938 675.5854 620.8098 Z M 560.5673 698.5261 563.0802 695.55 564.3593 694.4895 565.6764 694.9357 571.8702 704.2982 569.7635 705.7569 567.0743 706.4205 562.8303 699.4915 560.5673 698.5261 Z M 532.3036 701.4584 537.666 701.9521 544.9005 704.6383 551.0029 705.1191 553.9739 706.3757 550.3321 708.0101 543.2709 707.613 535.6658 704.9298 532.3036 701.4584 Z M 502.4414 708.5983 506.1253 707.2704 510.5478 705.9344 516.2715 705.5075 517.7748 708.0783 512.9828 709.42 502.8357 711.3658 500.2403 710.4662 502.4414 708.5983 Z M 305.5785 614.1281 306.906 612.655 307.5129 611.9814 311.027 610.003 314.3917 610.946 317.6376 610.7096 319.504 606.7624 323.731 606.4178 325.9355 607.4853 329.0047 607.2668 331.8163 607.7277 334.4905 610.4867 338.251 612.5187 338.8549 614.5658 341.6493 613.6098 342.8998 615.4293 344.6654 616.9914 347.582 617.1164 349.5927 615.9598 349.8704 619.2136 353.0356 618.0039 352.7033 620.4618 349.2841 623.2038 344.6311 625.9278 343.2705 629.4596 344.1912 632.0533 341.4134 633.344 338.7255 632.4955 337.0145 633.5301 335.9343 634.9769 332.0807 634.0183 330.4082 630.3222 328.3661 629.6589 326.2721 630.032 323.6619 627.8518 321.4234 627.0377 316.1739 623.8714 313.9541 623.9293 312.6625 622.5974 305.9845 619.3996 303.6601 617.3778 305.5785 614.1281 Z M 4.782 1 5.0085 1.0101 5.8438 1.0345 7.0148 1.059 7.5379 1.0573 38.8315 1.6225 40.2682 1.6467 52.4401 1.8475 81.0304 2.4605 82.0119 2.4768 82.5967 2.4895 82.6001 2.4896 87.0844 2.5891 87.1401 2.5899 87.2912 2.592 90.6331 2.6125 90.6413 2.6126 104.0468 2.8745 109.5318 2.9328 114.2965 3.026 114.3288 3.0305 124.7036 3.1967 128.1276 3.1692 130.8483 3.2821 137.2683 3.3781 142.4313 3.4535 145.1585 3.4927 145.2275 3.4853 148.1439 3.4938 149.3758 3.5133 149.7456 3.5363 161.9708 3.7589 164.5912 3.8055 168.257 3.912 180.0448 4.1614 182.035 4.1679 183.5087 4.1928 183.5404 4.1995 185.5198 4.2842 190.6292 4.4774 200.0755 4.646 201.299 4.6555 201.3365 4.6565 201.5139 4.6614 202.658 4.6584 203.3432 4.6801 230.4154 5.2131 234.2944 5.2858 234.6514 5.2883 239.3682 5.3439 254.2057 5.6563 255.3133 5.6778 259.3367 5.7472 265.7855 5.8207 276.2035 6.0454 299.136 6.2798 316.6129 6.4436 316.9049 6.4276 328.0754 6.402 345.9873 6.5323 348.902 6.4315 364.9989 6.5785 365.1434 6.5798 366.4944 6.5638 367.7795 6.5902 372.1358 6.589 372.1602 6.5972 373.251 6.5175 375.1655 6.5256 384.0239 6.5142 385.6567 6.6168 389.95 6.6528 390.999 6.6614 393.6227 6.6075 395.1618 6.6172 402.5394 6.6304 408.9555 6.652 409.4396 6.6692 409.9426 6.6751 410.1453 6.6763 410.5229 6.6788 412.088 6.6861 416.2085 6.713 419.0998 6.6857 433.8622 6.7825 433.846 7.1147 433.4423 8.9137 432.8019 9.9918 431.4891 11.3235 430.7716 11.7621 429.2236 13.7927 428.8946 14.0183 428.5692 14.4377 428.545 15.1276 428.6728 15.5447 428.9404 16.0176 427.7504 17.4323 427.2675 18.2434 426.9555 18.9152 426.7809 19.9394 426.7922 20.4945 426.9667 21.3992 427.1544 21.8392 427.6565 22.5957 428.931 23.8054 429.3793 24.1102 431.6482 25.0469 432.5796 25.2992 433.3525 25.4028 434.8844 25.3073 436.1197 24.9346 437.1036 24.2961 438.7381 22.1206 439.0196 21.1506 439.1364 20.4749 439.1351 19.9184 438.4873 17.0571 438.1282 15.8872 438.2279 15.2174 438.3074 15.0696 438.797 14.7632 439.1072 14.4285 439.1836 14.1918 439.1481 13.915 438.8312 13.4322 438.16 12.9012 437.9997 12.5818 438.4482 11.1026 438.6119 10.9459 439.996 10.2023 441.9838 9.5338 442.7555 9.4264 444.1985 9.8665 444.5986 10.2269 445.1065 10.792 445.722 11.6607 446.7004 14.0496 446.9304 15.9996 446.6931 16.3025 446.4872 16.4261 446.3111 16.6986 446.4897 17.2559 446.7129 17.5321 447.9669 18.4795 448.1972 18.7973 449.0665 20.4935 449.2099 21.1632 449.0714 22.2614 449.2587 24.0659 449.2446 24.4987 449.2433 24.538 449.151 25.0089 448.6041 26.6367 448.2472 27.2204 445.8634 29.9503 443.0499 32.6343 441.49 33.1337 440.2006 33.2802 439.728 33.2479 438.2398 34.3385 437.3973 35.0966 437.1837 35.4302 436.4936 37.5056 436.1294 38.3162 435.3879 38.8272 435.2129 39.0983 434.7252 40.8506 434.777 43.0659 434.3458 45.5902 435.2204 46.4254 435.4702 46.5578 435.3708 47.3248 434.2858 49.829 434.1636 50.5662 434.2433 51.7288 434.538 52.4903 435.2568 53.1192 435.8788 53.313 436.5104 53.4077 439.285 53.1565 440.563 53.2037 441.9878 53.6979 445.4457 54.3645 447.4547 54.9857 449.9166 55.8658 450.4827 56.2024 450.8637 56.7904 450.8274 57.3294 450.4923 58.5147 449.471 60.2374 447.6686 61.8806 446.9106 62.3521 444.28 63.4065 443.4327 63.9199 441.3738 65.4189 439.9663 66.9802 439.4936 68.1341 438.4977 69.6068 438.3378 69.7584 437.8402 69.8518 437.4957 70.0737 436.6903 70.7875 436.3443 71.2399 436.2525 71.374 436.102 72.3581 436.0947 73.0598 436.1399 73.9666 436.4863 75.7895 437.2655 77.8789 437.5886 78.5049 438.0308 79.1076 438.9164 80.0907 440.0265 81.0013 440.4483 81.231 441.2363 81.296 441.4177 81.2337 442.2928 80.3309 443.3502 80.2011 446.0287 79.0833 447.265 78.4334 449.9795 77.5814 451.7093 77.2469 451.8356 76.1137 452.6711 74.8236 452.9375 74.0472 453.085 72.7328 453.3775 72.0333 454.6012 70.6719 455.2588 70.2191 456.2591 70.6972 456.9868 71.2901 458.1174 72.9219 458.6233 74.0592 458.707 74.4659 458.7122 75.8666 458.4787 76.7392 457.6456 78.1416 457.1264 78.7691 456.7525 79.0324 455.7532 79.9472 454.5579 81.4672 453.7864 82.1466 452.6992 82.7385 451.8239 83.2148 448.8323 85.1147 448.7676 85.1606 447.7644 85.8726 448.6258 87.7003 450.7146 89.5065 454.5343 91.8402 458.2312 93.3521 460.0729 94.719 461.0095 96.2027 461.2403 97.0132 460.7257 98.4243 459.8778 99.1105 458.707 99.4363 455.7168 98.906 453.6094 97.9958 452.4475 97.0968 451.6765 96.284 449.173 92.1963 444.5772 88.3964 444.0857 91.8054 443.246 93.7072 441.8043 96.3472 441.72 97.2546 441.9286 99.3695 442.5219 100.6107 443.0219 101.3368 445.0635 103.6891 447.1 105.1522 448.8477 106.0835 451.4532 107.2577 454.9577 108.1053 455.452 107.9419 456.9157 106.8824 458.6651 105.9099 459.5347 105.1169 460.301 104.9896 461.8706 105.2935 462.6053 105.6518 463.9604 106.9831 464.1169 107.232 464.3744 107.6898 464.4385 107.9794 464.5218 109.5904 464.4866 110.2627 464.2634 110.7531 463.7617 111.4047 463.2668 111.877 462.3315 112.5522 460.3314 113.3459 460.3859 114.6054 460.2559 115.4068 460.0285 116.1582 459.3807 117.3041 458.8127 119.7092 458.8172 120.3138 458.9709 120.7749 459.4877 121.5627 460.4664 122.2045 461.5143 122.6036 466.3448 123.6173 468.0883 123.5868 469.3046 123.7533 471.3718 124.2519 472.6992 124.7072 473.3855 123.9624 474.8713 122.0388 475.7037 119.1475 476.1674 118.6694 477.7666 118.4247 478.1692 118.7974 478.1212 121.4086 475.5283 126.7048 474.2024 128.2286 473.8154 128.9592 472.1816 131.0913 471.2755 131.9776 469.5192 133.4668 467.4472 134.7022 466.9187 134.7573 466.6683 134.6091 466.3047 134.2209 465.4278 132.9742 465.1368 132.4433 464.9751 132.3401 463.8474 132.2373 463.4029 132.3073 463.1637 132.4286 462.6748 132.9209 462.4867 133.33 462.0014 135.371 462.1787 137.0878 462.4779 137.719 462.6852 137.9809 463.9468 139.3073 464.246 140.2339 464.1549 140.3839 463.2387 141.0289 462.6203 141.8322 462.2087 144.0104 462.1965 144.93 462.1982 147.4973 461.1715 149.5361 461.0091 149.6979 460.626 149.9052 460.5699 149.925 460.1657 150.0675 459.704 150.0481 459.376 149.9142 459.1792 149.4757 458.942 147.3281 459.2446 145.5118 458.7618 145.3373 458.2323 144.9676 456.4285 143.2018 455.6578 142.7447 454.4957 142.2547 453.7875 142.1173 452.6605 142.3383 452.0928 142.9113 451.8714 143.5353 451.6838 144.6924 451.3868 145.2636 450.446 146.3548 448.9772 145.0482 448.3741 144.8743 447.0806 144.9893 445.8195 145.4598 444.5772 146.5348 443.3693 148.2675 442.6937 148.5563 442.5318 148.5311 442.0522 148.5392 441.0278 147.7564 440.3554 147.3932 440.0987 147.3063 439.5887 147.351 435.9226 149.4136 435.3181 149.9365 435.0029 150.3202 434.4262 152.1471 433.9891 153.9475 433.6076 156.1365 433.4834 157.783 433.6487 158.8437 433.9237 159.6886 434.8756 161.4548 435.2734 161.7364 436.4458 161.8099 438.0511 162.1302 439.2346 162.6602 440.0137 162.8615 442.6562 162.9312 443.0445 163.0525 444.1835 162.1612 444.5611 161.9581 445.9931 161.5101 447.5029 161.4315 448.1945 161.5158 449.3964 161.8663 450.5357 162.6719 451.8014 163.1384 452.0733 159.5944 452.2226 159.3977 452.4726 158.5245 452.2829 157.2451 451.3714 156.1129 450.8804 154.7824 451.0626 153.6956 452.1815 153.4931 453.4511 154.1782 454.9503 155.3596 455.9961 156.2949 457.2634 156.5885 458.8371 157.2702 459.1651 159.1897 459.0339 159.7776 458.8268 160.2949 458.0249 161.8656 457.1589 162.9389 456.7994 163.226 455.7478 163.6779 455.1771 163.7685 455.1609 163.7711 455.199 164.8763 455.2368 165.9759 454.6129 167.2431 454.0287 167.7449 449.814 170.0719 447.8123 171.1834 447.5879 171.4338 447.5601 171.7898 447.9823 176.3226 447.8187 176.6616 447.503 176.8059 445.0292 176.6793 444.2731 176.3461 442.6657 174.933 441.173 172.5232 440.4895 171.6914 439.5357 171.0212 438.871 170.7761 437.997 170.8524 437.4406 171.0691 436.3904 171.8933 435.7175 172.8221 435.5243 173.2857 435.4665 173.7129 435.4696 174.2463 435.5779 174.7082 435.9287 175.3821 436.3393 175.9667 437.0817 176.5672 438.0345 177.0419 441.0545 177.682 445.5243 178.615 446.6438 179.1415 447.2053 179.6714 447.48 180.1677 447.7576 181.0908 447.8964 182.0042 448.5045 182.265 446.3826 185.2439 445.4831 186.1923 444.2813 187.0003 442.2782 187.5996 435.1912 188.4418 434.3196 189.0693 433.2391 190.107 432.1301 191.4828 431.6065 192.3037 431.4893 192.9269 431.5389 193.6915 431.44 194.9016 430.8921 196.8079 430.9381 196.9321 431.2107 197.0729 432.176 196.9076 432.3289 197.2447 432.1572 198.9175 432.7347 199.5725 432.8123 199.9456 432.4215 200.2679 431.5174 200.6109 431.2771 200.8434 431.0081 201.3429 430.8275 201.4507 430.2696 201.6138 429.7406 201.5277 429.4699 201.7426 429.1263 202.4203 428.5711 203.0814 425.8457 205.8268 424.6527 207.2989 422.6581 208.5567 420.2042 209.3492 419.888 209.5641 419.7081 209.8496 419.5151 210.5619 419.5484 211.1843 419.656 211.5573 419.8843 211.8942 420.715 212.7871 423.0721 215.0799 423.1609 215.3851 422.8185 217.0098 422.4078 217.8231 421.5809 218.7343 420.6163 219.326 419.5278 219.3668 418.3921 218.9808 417.8615 218.6631 417.5578 218.3799 417.1466 217.7414 416.7033 216.7119 416.4577 215.9125 416.3443 215.0242 416.4577 212.6751 415.8269 210.3123 415.6302 210.2598 410.769 211.2592 409.7277 211.566 409.0341 211.9246 408.3423 212.7101 407.9372 213.4233 405.883 221.1692 405.2614 224.5513 405.1217 226.3339 407.5636 227.1261 411.5446 226.7778 412.4916 226.8246 414.709 226.9338 417.0141 225.978 418.8556 226.1267 420.4974 226.863 421.0215 227.8754 420.4535 229.0916 418.6249 230.6929 416.1776 230.7496 412.417 230.7572 412.1151 230.7577 409.6819 230.9893 406.5856 231.4445 402.8192 233.0285 402.6929 233.0816 400.2555 236.844 400.1358 237.2002 399.8254 239.247 399.8166 240.9726 400.1511 245.5074 400.5116 248.7971 400.4542 249.6689 400.1295 251.9827 399.7243 253.0337 397.3832 254.3284 396.6846 254.6097 395.3969 254.6496 394.3204 254.4218 390.2103 253.0649 388.6169 252.1801 387.7818 251.5421 387.3564 251.0808 386.6114 250.1045 386.2294 249.4056 385.8156 248.8234 385.5532 248.6936 385.0704 248.6312 384.8264 248.7587 383.6126 249.7563 382.8534 250.5314 382.3819 251.3064 382.202 251.8476 382.0148 253.394 382.1214 254.3155 382.2231 254.6074 382.4895 255.0388 382.7643 255.4835 384.3192 257.4644 385.6349 258.4503 386.4698 258.9282 386.9857 259.158 387.865 259.28 389.8502 259.1675 391.1829 258.8966 394.3915 257.5703 395.2392 257.3007 396.451 257.1899 397.3002 257.3293 397.9221 257.4873 399.3046 258.4785 399.0858 260.8452 398.9068 261.6464 398.7327 262.0591 398.7114 262.1096 397.6549 263.3941 395.9161 264.752 394.2231 266.2519 393.2701 266.9131 392.3467 267.4141 387.8481 269.082 387.6054 269.0293 387.2101 268.6924 386.345 268.3924 384.7536 268.6903 383.7525 268.6307 383.0706 268.6954 382.6545 268.7904 382.375 269.0028 381.5236 270.247 381.359 270.5737 381.3018 270.9718 381.3116 271.3894 381.6598 272.151 382.2398 272.4049 382.52 272.6993 382.4866 273.8971 382.1881 274.7849 382.042 277.4378 382.2268 281.5128 382.5157 283.5344 382.7856 284.3894 383.245 285.361 383.8455 286.688 384.8188 288.6316 386.3418 290.0158 387.8355 291.4926 388.3407 292.6644 389.0798 292.9951 389.0694 293.7941 389.0982 295.4468 389.2367 296.3761 389.032 297.3714 388.0624 298.5076 384.2203 298.519 383.6254 298.2847 382.4231 297.5744 381.5311 296.7078 380.7518 295.6983 379.9297 294.0245 378.8382 289.8027 378.8295 289.1109 379.2072 288.1717 379.1862 287.998 378.6506 286.8256 378.5016 286.6573 377.9869 286.4237 377.4631 286.4886 376.8134 286.8415 376.5023 287.2197 374.9294 288.1344 374.185 288.8405 373.2511 290.4415 372.9527 291.6231 372.941 292.4756 373.6126 293.9297 374.0245 295.0357 374.3735 296.2865 375.3432 295.2901 375.6511 295.051 376.3861 294.7196 376.8796 294.8529 377.8263 295.4161 377.7661 295.6443 377.2657 296.5141 377.1056 298.7685 377.1271 299.3147 377.4298 300.4839 377.4214 301.6835 377.9318 302.3038 379.386 303.2623 379.8221 304.1739 380.0581 304.4267 382.0599 305.9284 383.3486 307.0833 383.5605 307.3836 383.6653 307.7725 383.6249 310.8173 383.5414 311.562 383.0542 312.8916 382.5204 313.9545 382.0711 314.4764 379.1617 315.8914 376.7044 316.6653 375.1406 316.9207 373.5742 316.9851 371.5578 316.7624 368.6791 316.174 366.4453 315.8377 363.9646 315.8647 363.4202 316.0013 362.2936 316.8352 361.8837 317.3179 361.4803 317.99 361.3319 318.6907 361.3478 318.9825 361.7888 320.3133 362.9564 321.7843 365.8851 323.2642 369.4662 326.3712 370.4706 327.5443 371.2309 329.0152 371.323 329.4692 371.4017 329.8571 371.4415 331.2685 371.3889 331.7025 371.0169 332.676 370.1737 334.39 369.7685 335.0846 369.0903 335.9836 366.435 339.1325 366.0482 339.6919 365.9115 340.0212 365.8227 340.5757 365.7082 342.2905 365.7823 342.687 366.4633 343.867 366.9158 344.3874 367.4965 344.915 368.2956 345.4118 370.558 347.207 374.6861 350.9808 375.2204 351.5768 375.6595 352.6297 375.8718 353.8367 375.8038 354.6572 375.6729 355.2415 375.1932 356.5341 374.0841 358.1701 373.062 359.1955 371.2271 360.4017 368.7854 361.4831 365.9467 362.5271 364.1453 363.5897 365.9484 363.6313 379.1226 363.5664 385.0109 363.6757 385.4264 363.6185 396.3512 363.5854 396.6758 363.5884 400.8092 363.5607 423.6863 363.3891 426.9881 363.4242 427.1057 363.4236 434.4037 363.3914 434.4142 363.3914 444.7606 363.3775 444.7876 363.3814 448.9504 363.3459 450.8631 363.3316 452.0917 363.3176 454.8425 363.2861 477.3237 363.0116 487.7996 362.9717 487.8298 362.9713 494.2464 362.8988 494.839 362.8916 495.4301 362.8802 496.4439 362.8917 498.0534 362.8396 501.7473 362.869 501.7593 362.8703 514.4563 362.6919 514.8332 362.6923 523.9876 362.5664 524.1864 362.5724 524.6321 362.5509 524.7739 362.5493 527.2625 362.5159 530.2476 362.4844 539.5272 362.3833 539.6602 362.3734 540.9701 362.362 541.1768 362.3555 541.4563 362.3418 544.1193 362.3175 546.2763 362.2975 546.3912 362.2949 547.058 362.2866 548.659 362.2588 549.3803 362.2439 555.7192 362.1535 557.4202 362.0494 560.7938 362.0017 560.7955 362.0016 560.9819 361.9985 574.1602 361.7696 584.0928 361.5904 588.6223 361.5067 588.6828 361.4978 593.6954 361.4416 594.1507 361.413 605.9937 361.2018 609.2148 361.1555 610.3407 361.1177 612.9092 361.0656 617.4658 360.9334 617.8673 360.9803 624.8234 360.8571 625.4395 360.8451 629.3402 360.6961 630.0734 360.711 635.5356 360.5606 638.7291 360.5076 638.7849 360.5066 640.4499 360.4771 641.6977 360.4507 651.4194 360.3164 651.5025 360.612 651.6034 360.6979 651.9532 360.7155 652.2498 360.5982 652.55 360.2247 653.0633 360.0036 654.4785 359.7302 654.9216 359.8828 655.1504 360.1448 655.1511 360.1681 655.1585 360.4071 654.8769 360.6271 654.0327 360.6487 654.2464 361.3767 654.5844 361.5827 655.1136 361.5752 655.249 361.7625 654.946 363.768 654.8668 364.1935 654.618 364.4861 654.0481 364.5364 653.9025 364.6713 653.8654 364.8572 654.0328 365.145 655.2181 365.7112 655.4204 365.9626 655.4302 366.3738 655.2854 366.5325 655.0903 366.5852 654.7757 366.611 654.3858 366.4778 654.1197 366.5443 653.0059 367.7357 652.941 368.0057 651.8047 369.2798 651.0473 370.7067 651.0187 370.9828 651.1362 371.4088 652.0272 372.065 652.2127 372.3953 652.2232 372.5858 652.0467 373.123 652.3522 374.2644 652.82 374.4254 652.9348 374.7505 652.8882 375.0439 652.6042 375.6057 652.1018 376.1265 651.4901 376.1608 650.9749 375.78 650.6715 375.7605 650.1884 376.0181 649.95 376.348 649.9173 376.6387 650.052 377.0889 650.3652 377.2862 650.6395 377.3479 651.134 378.2547 651.0871 378.6331 650.8338 378.9275 650.5347 379.1132 649.8614 379.0164 649.065 378.5912 648.8039 378.6427 648.6366 378.7861 648.5721 379.0499 648.8288 380.2236 649.1573 381.6386 648.331 381.7883 648.0803 381.8656 647.8626 382.2583 647.7813 382.9214 647.9684 383.2336 649.4817 384.4551 649.5528 384.5988 649.533 384.9051 648.9877 386.5486 648.859 386.7319 648.5318 386.8101 647.9106 386.3683 647.4672 386.2317 647.2034 386.3416 647.1006 386.4772 647.0532 386.7496 647.1538 387.0348 647.5994 387.6654 647.7165 388.0738 647.6621 388.2041 647.3501 388.2532 646.6133 388.4714 646.2328 389.5688 646.1471 390.6117 646.2077 390.8145 646.3629 390.9033 646.7576 390.8656 647.2035 391.4371 647.6569 392.7211 647.475 393.1066 646.9486 393.4743 646.0411 392.7032 645.2906 392.4923 645.1602 392.5249 644.9846 392.6389 644.7773 392.9588 644.8471 393.6526 644.7478 394.499 644.2143 395.7858 644.13 395.9182 643.595 396.2746 643.2968 396.4073 643.1428 396.5746 643.0986 396.74 643.1947 396.8481 643.5479 397.2806 643.7848 397.4552 643.9139 397.5484 644.1205 397.691 644.1548 397.855 644.0953 398.0389 643.8472 398.3151 643.2557 398.5112 643.0346 398.442 642.9515 398.1874 642.8035 397.8059 642.7352 397.4963 642.3505 397.0988 642.1762 397.1019 641.9337 397.253 641.6498 397.7395 641.5917 397.979 641.6542 398.4359 641.1837 400.0421 640.1302 402.1993 640.7168 403.8243 641.0743 405.7955 641.0472 406.6826 641.4428 406.913 642.0465 406.9587 642.4738 407.057 642.5813 407.1814 642.521 407.4352 642.3731 407.5519 641.7556 407.685 641.0465 407.7019 639.8773 407.6552 639.6321 407.7862 639.5778 407.8594 639.4181 408.0745 639.4267 409.2238 639.5237 409.4007 640.0242 409.4699 640.7945 409.7661 640.5161 411.3204 640.2285 411.4903 639.5693 411.3593 638.1379 412.9629 638.0228 413.1615 638.1285 413.5248 638.4885 413.8113 638.7745 413.7704 639.1397 413.5095 639.3307 413.5252 639.6835 414.3163 639.7662 415.8076 639.5664 415.9166 638.3667 418.7635 638.0391 419.5972 637.836 420.3238 637.7974 420.4619 637.5432 420.5412 637.2869 420.8744 637.3494 421.182 639.025 421.6302 639.7845 421.8335 640.2099 421.7872 641.5009 423.2044 641.9947 424.1563 642.6053 425.9257 641.8479 427.9348 642.1383 428.4613 642.2283 428.7375 642.0074 429.4161 641.8908 430.5271 642.1991 430.7173 642.8649 430.4404 643.0984 430.4459 643.3245 430.5922 643.231 430.873 642.8436 431.816 642.4748 432.5532 642.4576 432.8106 642.6665 433.2787 642.9959 433.4583 643.6526 433.4774 644.4295 434.1995 644.3357 434.4702 644.1993 434.5627 644.0366 434.6732 644.5197 436.9199 644.3246 437.5006 644.3512 437.6419 644.635 437.7178 645.005 437.6036 645.5839 437.3792 646.4175 437.3105 647.0637 437.6777 647.1621 437.8439 647.1074 438.0667 646.7544 438.4727 646.1055 438.728 645.5512 438.3861 645.3648 438.388 645.1624 438.5383 645.0083 438.9499 645.0222 439.2509 645.1848 439.4233 646.4533 439.6406 646.9083 440.5274 646.8717 441.0149 646.5626 441.1103 646.3729 441.1405 646.351 441.2619 646.3619 441.4199 646.5962 441.5275 647.0235 441.678 647.4088 441.7746 648.1064 441.8312 648.6786 441.7262 648.7837 441.7709 649.4459 442.737 650.0418 444.2563 650.1873 444.686 650.3208 445.7375 650.6281 446.9553 651.7842 446.8024 652.0545 447.2777 652.1213 448.5434 652.1907 448.6378 652.997 449.141 653.9917 449.1004 654.5588 449.7865 654.6276 450.0322 655.828 450.4715 657.1313 450.8322 657.3694 450.9449 657.9061 451.521 658.1582 452.4846 658.7528 453.4288 659.2736 453.4702 659.6278 453.3216 659.7233 453.4007 660.3563 454.368 660.9531 455.6442 661.8687 455.9554 662.7636 456.5812 662.8143 456.6477 663.8154 457.9606 663.9243 459.0231 663.6407 460.1493 663.8544 460.9552 664.0987 461.1082 664.3352 462.0199 664.6917 464.6665 664.452 465.1358 664.2936 465.1224 664.1115 464.8591 663.837 464.9257 663.9258 466.1292 664.264 466.6182 664.6404 467.1622 665.6562 469.0494 666.0821 470.2596 667.3357 472.2217 667.6579 473.5999 668.1542 474.8309 668.8475 474.9918 669.7772 475.5141 669.9473 475.7218 670.0222 476.2876 671.4017 477.0005 672.426 477.8138 672.3445 478.946 672.4651 481.0639 672.986 482.0431 673.0491 482.2557 672.2337 483.1475 671.8437 483.3465 670.9777 483.5368 670.8983 483.6319 670.7081 484.1615 670.4962 487.0333 671.3945 487.4875 672.37 488.424 672.5174 488.9728 672.6663 490.6365 672.5467 491.5483 672.461 491.6175 672.3113 491.8992 672.3891 492.4694 673.1541 493.3761 673.6312 493.6959 674.8222 494.1175 675.1389 494.6095 675.1649 495.1606 674.9096 496.2687 674.7519 497.6597 674.7737 497.9973 674.9509 498.4209 675.4704 499.0689 675.7673 499.3121 676.2315 499.481 677.2181 499.6395 677.9396 500.3904 679.1777 502.4121 679.4258 503.3146 679.6824 503.8611 680.4711 504.895 681.4548 505.6761 682.1204 505.912 683.3273 505.5142 684.4833 504.886 685.0553 504.2696 685.3234 503.8371 685.6408 503.5638 686.4778 503.1377 686.9067 503.0578 687.7246 503.2192 688.1794 503.6726 688.5759 504.2873 689.1339 505.6894 688.1159 506.3602 687.1697 507.3321 684.4805 507.5548 683.2873 507.9579 682.4669 508.8168 681.8917 509.4635 679.6244 511.237 678.4035 511.3958 677.9328 510.9571 674.9193 510.3022 674.1125 511.0393 673.5362 511.5658 671.375 513.5399 668.983 517.1856 667.1331 518.5934 666.2956 518.6558 665.7597 519.0432 665.1969 522.0341 665.0125 524.7985 662.7561 525.8245 660.538 526.1157 658.326 527.3004 657.7967 528.214 657.738 529.6189 660.154 533.4136 660.1482 533.7496 658.887 534.4435 657.5531 534.5394 655.4903 532.7013 652.888 531.0571 649.9045 530.5306 644.366 530.9933 641.135 534.4631 638.4811 538.0156 638.7256 539.3227 638.9756 540.6594 639.3698 542.7662 640.6856 546.6581 641.5938 548.3909 642.5003 549.0928 643.074 549.5369 644.7833 550.411 646.8785 550.6507 651.3324 549.7116 655.4605 548.1391 658.5861 545.7777 659.9682 546.6559 660.9404 547.9455 657.3676 549.8063 656.3803 549.8901 655.8583 551.2649 656.5067 554.8202 661.427 559.8675 664.4141 561.691 667.5706 561.8423 669.2797 562.6327 672.7528 562.3601 676.5577 560.8459 678.8432 559.1555 679.8589 556.3584 679.6122 552.7631 680.9875 550.1646 680.9398 547.6968 682.14 545.2045 682.1444 540.884 681.0387 538.9518 682.5337 537.9961 685.6297 536.9051 693.1803 531.7113 694.3132 530.454 694.1899 528.7079 693.4473 527.2833 694.2906 524.8998 696.0436 523.6292 699.6355 526.3439 701.8488 526.7405 704.2765 528.2405 705.9138 528.6493 712.9864 527.6105 713.5897 528.9271 713.0545 530.8221 711.7359 531.9592 709.821 532.1114 706.4061 533.8467 705.3713 534.7552 703.8639 536.1168 703.8293 539.1097 703.9714 541.3224 708.2395 543.5586 710.0581 543.4087 712.2738 543.804 712.5359 551.6654 714.1966 553.07 719.7457 552.1727 722.2503 550.808 726.9676 541.7861 728.4649 538.1047 731.9378 536.5061 733.0091 537.3935 732.1306 541.2638 737.0528 541.6573 736.2186 543.6019 735.223 550.1095 733.1001 549.3476 730.2961 549.5125 727.6827 550.3825 721.907 555.2742 721.3347 557.2113 723.0251 558.1874 726.4521 558.313 729.0588 557.1396 733.7866 556.5254 734.5879 557.0136 734.6262 558.7354 731.8678 561.0277 729.5151 561.8916 725.6642 562.4851 722.1777 563.6775 715.1729 564.7436 712.0379 566.0272 712.158 567.5446 713.7571 568.4218 717.9919 569.241 718.5138 573.0795 720.2117 574.4604 722.3259 574.7176 726.1356 572.0993 728.5783 571.2339 728.6093 572.6518 727.5705 573.3844 727.5816 577.9438 729.99 579.5101 729.7441 580.3264 724.4702 580.3434 722.7845 579.6718 721.3356 577.6777 719.3769 576.5051 716.8202 576.1562 714.824 577.3143 711.8739 574.9467 710.5705 575.6842 709.9206 578.231 707.6155 581.5221 705.5453 583.4914 705.3355 588.6452 710.6716 591.5354 712.0108 594.3048 709.5082 594.0354 706.3226 591.2872 706.0126 594.6763 704.9906 598.6582 700.1021 599.5842 699.1574 595.7933 699.6181 591.1828 696.5327 586.4611 690.6758 586.4665 691.6181 592.5585 689.5023 596.5174 693.1035 598.7088 696.7247 603.4497 697.1398 604.517 696.9444 605.1178 696.912 605.2174 694.1214 603.3072 691.2691 601.9567 690.9825 601.7191 689.3548 600.3696 681.9038 599.76 677.7046 602.3822 672.976 600.8018 669.2124 601.7309 679.147 607.3821 679.168 612.3818 673.6818 609.9153 671.8738 607.0395 667.8683 604.6939 666.3674 605.0478 665.8342 606.7921 666.4386 608.9489 668.5583 611.5101 671.7665 611.6801 673.1268 613.6764 669.7824 615.7265 666.5669 615.9917 666.6064 618.1594 667.1851 621.0989 670.8891 621.4157 673.6127 626.4774 678.5673 628.715 684.5671 627.9549 684.2451 631.3104 687.5377 633.3384 691.0751 634.8222 690.5687 638.4143 690.6315 639.994 692.8219 644.4764 694.3913 646.9457 694.9359 646.9573 697.6563 645.6015 698.0993 644.8586 698.3837 643.296 699.1678 642.3869 700.2861 644.1016 702.3041 645.5399 707.7219 645.8737 714.281 645.527 715.3654 646.3235 718.109 647.2609 720.4675 647.237 721.0549 647.7905 719.3965 650.1801 720.8315 651.8482 723.695 650.4978 724.8129 645.9621 731.0783 652.3753 732.2229 653.3888 733.4095 654.8703 734.1313 657.3567 736.1448 659.5736 738.715 658.8544 738.8142 658.0918 739.3642 656.9502 741.637 654.3605 742.2827 653.3237 742.2373 652.7459 743.9897 653.1695 745.5306 654.1034 745.8884 654.8774 745.7864 656.3456 747.9284 660.5522 749.1041 661.6536 751.8108 662.5866 752.7786 664.6528 752.3857 665.3917 753.5548 667.0727 755.8676 669.2819 755.7631 675.2202 756.4421 678.2709 759.8063 680.1826 763.6514 678.9448 765.0328 676.5956 769.8451 675.655 773.4227 681.8401 771.8621 684.1859 768.9762 681.799 766.1227 683.6931 760.2026 684.5657 757.0126 687.0794 759.1351 689.5022 768.0767 689.8742 764.0556 697.9328 760.9801 694.2769 758.9628 693.2547 757.8075 694.3908 757.2293 699.7981 756.3719 701.0748 754.1704 701.7188 751.7363 705.1765 751.5384 709.0923 753.2985 710.9699 752.6113 715.8338 740.7071 710.6186 740.7583 704.7196 739.3933 702.3092 735.3373 699.9534 734.2477 704.3917 729.0745 707.5387 718.275 721.4014 712.6951 727.0192 711.6743 727.2958 709.7698 727.8115 713.7401 717.5244 718.4524 712.967 721.1556 705.6543 723.3229 705.0521 726.3317 702.3249 725.8271 699.4174 727.3754 697.536 725.7879 694.0625 728.2637 692.4192 728.3101 691.1256 730.9519 690.3646 730.4246 686.4259 730.221 682.5916 728.174 679.537 724.5131 679.139 723.0053 681.1285 723.4984 683.5167 722.6454 688.5931 719.8104 692.0433 713.6326 693.2488 710.6892 692.551 709.3542 690.6524 707.5871 689.6548 706.9551 688.8655 704.5928 683.659 703.2517 681.4789 700.6358 678.5883 698.9751 677.2883 690.5622 673.6973 679.6429 671.1029 679.3484 668.9424 676.8991 668.1052 674.3963 664.3557 669.4212 664.7186 665.4464 663.4329 660.9417 662.2104 652.2397 661.1058 648.1441 660.6967 642.8383 659.9051 636.5438 662.0988 633.3372 664.3193 627.2229 668.55 626.7541 669.4836 626.2399 670.5078 625.3748 671.7773 615.3039 678.6419 609.7271 684.4883 606.5391 686.9772 604.9374 688.0963 599.8534 691.6467 592.4965 696.9267 584.3327 702.4028 583.0214 701.9491 580.8417 700.9706 580.1672 698.3722 582.7574 697.8758 582.5481 694.6476 580.3161 692.981 575.7787 692.2517 574.5352 686.0119 577.906 685.5045 578.5261 682.1194 576.4164 682.2464 571.3829 670.3756 568.602 669.1957 565.1184 666.3471 564.3292 663.6477 563.1933 664.4145 560.069 666.5227 560.2298 667.4745 560.7842 670.7539 559.4838 672.2991 556.0928 676.3269 556.5785 671.4138 556.9321 667.8344 557.3923 664.7133 556.0374 662.3894 553.3582 660.2851 551.3577 656.2743 549.0163 656.1738 547.3639 658.2942 548.4066 660.8246 545.6894 665.004 544.2084 666.0906 541.5185 665.5259 538.8801 664.4017 536.7142 664.0661 532.5525 667.4595 530.674 664.1625 528.5767 662.8033 525.809 664.3261 525.4487 666.9474 527.3608 669.987 527.1172 673.1978 531.4854 676.4142 529.4705 677.7764 524.7306 675.897 523.6298 676.9195 524.6246 678.37 523.7563 680.0762 520.5469 680.1839 518.9244 684.0563 518.4128 688.3425 513.8815 687.4291 512.4746 688.9564 513.0629 690.6485 511.1025 696.1687 508.4578 697.7454 506.5976 694.2743 505.0648 694.4771 504.6426 694.5329 503.2665 697.5735 499.8747 698.3254 498.9859 700.18 496.578 699.408 494.9702 701.4906 493.8483 707.1091 493.4914 708.5356 492.8527 711.0873 488.4866 710.3907 484.2327 708.6849 485.5458 706.9797 486.7451 705.4219 485.4034 701.7583 482.6519 700.0153 481.4278 697.8692 479.4092 695.338 475.0947 691.5002 472.5847 689.8734 471.6043 687.7948 469.5476 686.6165 466.4253 688.3479 463.5324 688.6765 459.8202 687.7596 458.5952 686.4514 454.4266 686.5602 448.9244 685.5329 445.6817 681.9596 443.4406 680.5603 432.4886 679.6579 429.4748 678.8266 420.1798 675.0088 416.4587 671.7923 411.4371 665.9777 411.7634 664.7242 415.3991 664.7296 418.1085 663.7111 420.4477 660.4159 420.7984 657.7372 422.1587 654.8678 426.5632 653.0026 426.3871 656.6892 428.8964 661.0614 433.0071 664.6702 436.7307 661.1666 438.2304 662.3927 437.1013 664.9425 437.3375 667.7242 436.6759 671.5808 439.4721 673.63 442.2805 674.4619 444.5664 674.2267 444.9014 671.5512 443.5461 670.3064 442.9085 668.1343 444.7372 665.506 444.1825 662.0446 442.7049 658.2945 439.9922 657.6288 440.1127 656.0992 433.4075 653.0053 432.2672 649.7347 429.5114 648.5244 429.1385 647.0591 429.9963 645.0788 430.3928 644.1636 429.5381 642.1017 426.5262 641.1724 426.3073 641.1717 423.3721 641.1625 420.4702 646.275 418.719 647.3902 416.4724 645.6199 415.235 647.8638 411.5009 649.4823 412.162 643.2388 406.8446 644.3187 406.7894 641.6928 409.3777 640.0804 408.506 638.2533 411.6028 636.7661 413.5498 634.0377 410.4407 632.2461 407.767 627.8943 404.4004 628.0176 402.0959 630.7395 398.5439 632.887 395.8249 633.3789 391.7888 635.6032 387.9605 630.429 387.8225 626.4144 386.3091 623.3521 383.0413 624.9954 380.9126 624.6799 380.8414 623.9987 381.7086 622.1163 381.7551 621.0565 381.1807 619.8673 379.9045 618.5737 379.1925 613.5126 377.3893 606.6843 376.2478 605.8714 374.7505 605.7035 373.0107 605.9109 370.1772 606.985 366.3226 607.8738 363.4268 607.0901 362.6361 606.5558 362.6793 606.0083 363.0156 605.5251 363.5226 605.3738 364.426 604.1376 365.9772 601.4824 366.3104 599.7838 366.0423 597.4587 366.5017 594.8812 367.3252 592.8209 367.3826 591.0638 366.8498 588.4437 365.0998 587.1752 359.801 586.6048 353.0353 587.8262 348.9689 585.9831 346.6511 586.181 341.7989 587.5297 334.5647 591.4016 330.9347 593.4101 326.7615 592.3901 330.1376 589.8256 330.2318 588.3493 330.3226 586.9257 328.021 586.2473 327.0383 584.703 329.8231 581.7445 331.2995 578.4306 332.6196 580.6693 334.8295 580.9052 335.4506 578.8833 335.4303 575.4606 334.5224 571.7728 330.0918 572.3405 325.5241 570.5667 323.6834 571.0233 321.4883 573.5257 318.0523 573.9846 312.8894 570.8555 312.7154 571.007 311.0706 572.4401 311.1853 574.8253 311.7622 576.968 307.5568 578.568 298.6764 582.4168 290.4864 587.6661 289.3001 585.1851 287.3072 582.7112 285.2596 583.4676 281.3706 584.0905 281.9514 587.5953 277.5164 585.1898 276.2292 586.7922 277.4677 590.0828 282.2399 594.635 285.3958 595.545 290.1537 594.9635 292.4223 595.925 287.2364 600.4723 288.804 604.8121 291.6014 610.0566 294.2012 608.9721 299.2413 608.5317 303.0037 606.9055 305.7367 609.704 300.792 609.9326 298.2327 611.8195 300.857 613.8473 301.8581 614.8662 298.354 615.0545 291.9478 614.9189 283.792 615.7339 275.4307 619.1087 269.3379 623.1981 264.9175 624.2325 258.2489 624.547 251.8727 623.0997 244.8911 621.6368 235.0432 619.1605 225.2601 616.8401 220.4472 616.1641 213.1768 614.6604 212.8304 614.5525 207.0136 612.7393 193.7063 608.001 186.7521 604.5601 172.3578 597.4649 161.9768 592.2932 154.9544 589.539 149.104 587.2543 140.3224 584.8796 126.6636 580.9165 118.9595 579.5688 112.7056 579.382 108.3583 579.8654 100.4768 581.9688 95.2159 581.368 86.2075 580.6433 80.6081 580.508 70.8351 581.4157 62.737 582.6485 55.8566 583.0425 48.3785 583.9235 39.3448 585.6917 35.6033 586.8435 30.4332 589.2849 27.3495 591.219 24.3768 593.5589 20.5857 587.5403 19.5698 585.4893 18.9718 585.0712 16.6891 584.2344 16.262 583.8023 15.9508 582.2994 16.443 580.7716 15.9918 579.764 15.2945 578.9881 11.6447 576.5225 11.0273 575.708 10.6965 574.3638 10.6541 573.3184 10.8637 572.1325 11.7033 570.5175 12.7081 569.4406 15.1581 567.3522 16.7279 566.2801 19.5669 564.8224 20.9532 563.8648 22.275 562.6578 22.4008 562.5014 24.9192 559.3694 26.1886 557.3459 28.0061 553.7383 28.4018 552.6951 28.8805 550.1418 29.8531 546.7038 32.7878 540.8385 33.1807 540.353 40.3359 534.9653 40.5501 534.5391 40.6648 533.004 40.9424 532.1804 43.2396 529.7509 43.551 529.4216 46.1502 529.2441 46.6363 528.8996 46.8642 528.374 46.6951 527.5855 46.4542 527.2597 44.2761 526.5734 41.9737 524.3702 41.6068 523.5014 41.8613 523.0104 43.2185 522.1059 46.5548 518.8555 46.81 514.4733 47.2713 514.2619 47.768 514.8794 48.0928 514.8792 48.827 513.7959 47.3949 511.7134 46.8571 509.3759 46.5323 507.9639 45.5219 506.7483 44.4951 504.459 43.999 501.5303 44.2903 499.9892 45.2109 498.8096 46.5345 495.7202 46.4717 495.4642 46.2198 494.4365 45.9994 490.538 46.3087 489.8874 46.415 488.8797 46.1235 487.6062 45.753 487.0563 45.2702 486.5302 44.6023 486.3892 43.7528 486.3525 41.5562 484.7737 38.3163 480.0679 37.713 480.0041 37.4836 479.4494 39.007 475.4109 39.122 472.8253 38.7643 469.9068 38.9126 469.314 39.8841 468.2875 40.8225 468.1733 41.6189 467.2547 44.4244 464.0176 47.4648 462.4296 48.2424 460.5504 48.2478 459.9714 47.0606 457.4762 45.5097 450.9983 46.5523 448.8109 45.9448 446.6366 43.9141 445.3367 43.1503 444.5603 42.0372 442.8313 43.7467 441.9227 44.2963 439.7729 44.0345 438.0764 44.0426 436.7273 46.4421 434.2048 49.4576 433.2059 49.9632 433.5033 50.3044 433.7151 50.7593 433.5475 51.2434 432.9301 51.4696 432.2834 51.3284 431.7054 50.948 430.8008 50.7354 427.7439 51.091 424.981 53.0921 421.9416 55.4807 419.8197 58.0521 419.3509 59.3428 418.1476 60.7342 415.4624 60.8089 413.8689 61.539 412.1268 62.3139 411.4146 62.5804 410.514 62.571 409.4386 61.3798 407.7651 61.1697 407.1348 62.9527 404.3783 65.2519 403.2893 65.7391 400.8463 65.8432 399.2607 66.653 397.4976 67.5649 396.5542 68.9562 396.4122 69.8908 395.849 70.136 395.5822 71.3461 392.5405 71.4404 390.7273 70.7598 389.8565 70.7741 384.7239 70.7744 384.6168 69.7486 383.7312 69.4517 382.9767 69.4278 381.2366 69.987 380.0456 71.1883 378.9248 71.3443 377.1876 71.9308 375.877 72.349 375.4637 72.7104 375.3795 72.9913 375.5038 73.3768 375.6473 75.1516 374.8796 75.8973 373.9124 75.9082 372.2443 74.978 370.222 72.3868 367.2596 70.7683 366.4926 69.653 365.2837 69.0805 363.5607 69.4328 361.9469 69.7184 361.094 70.0261 360.5592 70.547 360.3134 71.6149 360.6996 74.0747 359.9234 77.5583 357.2793 77.6562 356.2332 77.5829 355.6922 76.6367 354.7421 75.4605 352.2621 75.341 351.6222 75.7759 351.2192 76.3824 350.6887 76.7486 349.8688 76.3018 348.8776 75.5517 348.1674 74.1766 347.5582 73.1984 346.6558 72.5526 345.2005 72.4695 344.1055 72.7926 342.7046 74.086 341.2406 74.3767 339.7608 74.296 338.5098 73.6423 337.2504 73.6343 335.9607 73.6503 334.9455 73.7956 334.2056 74.3773 333.5806 74.9039 333.2257 75.7396 329.2892 75.512 328.637 75.2429 328.428 73.1412 328.2196 72.5893 328.3881 72.5727 328.3932 71.3022 328.9235 69.9768 329.7758 68.4794 331.5583 67.0609 331.8632 65.5162 330.2196 65.2953 329.9529 64.989 328.8122 64.3184 324.7336 64.7987 322.983 64.8147 322.0032 64.6814 321.4034 64.3636 320.8485 64.0028 320.4124 63.0759 319.6324 63.0612 317.7399 63.3889 316.4934 63.4641 315.1168 62.5254 313.0286 59.1509 313.2432 56.9856 311.0316 55.2226 308.1128 54.2425 307.551 52.9383 307.399 52.517 306.7878 52.3837 305.9548 54.0526 302.3091 55.463 298.3243 55.8665 297.9446 56.0502 297.5004 56.204 297.09 56.1804 296.7455 56.0101 296.3987 55.4304 295.9417 55.3294 294.9766 55.5742 294.3957 55.5283 293.638 55.3017 292.2416 55.0984 291.1408 54.7362 290.3644 51.4712 288.2256 50.5992 288.2211 50.1081 287.9375 50.1633 286.5116 51.2661 284.8386 50.7902 283.1624 49.5189 282.2136 43.5232 277.5381 43.4842 276.3656 43.4958 275.7159 43.8099 275.3604 44.1517 275.1857 44.7211 274.9177 45.4398 274.7368 46.3988 273.4196 46.7518 272.5953 47.2054 271.3033 47.1059 269.9657 46.0959 269.6595 45.2096 269.319 45.0623 268.9555 44.9537 268.4159 44.8949 267.9777 44.6265 267.5037 44.1062 267.3501 43.6455 267.306 43.336 267.4089 43.0379 267.4519 42.0935 267.6841 38.9498 267.3704 37.9177 267.0033 36.3632 265.7835 33.3256 262.0312 33.0062 261.4214 32.7064 259.6529 30.9535 256.404 30.3209 254.1037 30.5473 252.7343 32.1248 251.0272 32.7038 251.451 33.5013 251.4071 33.808 250.0157 33.8119 249.9977 33.7139 245.4798 32.6033 243.1236 32.5016 242.0726 33.1923 240.8312 33.8863 241.1677 35.8894 238.7987 36.2207 237.4664 36.1991 236.6481 36.0989 236.1298 35.528 235.4887 35.0732 235.2583 34.4318 234.8975 34.2575 234.1006 34.3081 232.8316 33.8276 231.0766 33.0095 230.0763 32.1298 228.0296 32.2397 226.4759 32.6743 225.6272 33.4386 223.1166 33.3159 222.8406 32.7189 222.3595 32.161 221.9071 31.6495 221.3494 31.3322 220.3785 31.3503 219.4136 30.8992 218.6158 29.9682 217.9896 28.8916 217.3567 26.2819 215.2856 25.7176 214.4169 25.7728 211.0465 25.1088 210.4353 24.3928 209.7763 23.8158 208.1095 23.6944 206.1895 22.5387 205.1557 21.8209 203.9536 21.9491 202.9072 21.4228 202.0716 20.7084 201.6053 19.7426 201.6374 19.1859 202.0027 18.5275 202.15 17.9683 201.8463 17.2592 201.1136 16.9039 199.6419 16.4631 199.0741 15.633 198.7652 14.1301 198.3806 11.4237 196.5809 10.5777 195.4907 5.4472 185.5604 4.5959 183.9113 3.0133 182.9863 1.6243 183.5683 1.1084 183.5642 1 182.341 1.2127 172.2496 1.5038 160.8872 1.4607 159.9525 1.5188 157.6778 1.607 154.0965 1.6472 152.5445 1.6434 152.5323 1.7432 147.3556 1.8191 143.4183 1.9999 134.2652 2.0001 134.2516 2.3487 117.5617 2.3815 115.8239 2.4315 112.4539 2.4567 111.0963 2.4631 110.9646 2.5802 104.7683 2.6083 103.9891 2.723 98.5671 2.7308 98.3961 2.7326 98.119 2.7377 97.2123 2.7522 96.8112 2.7497 96.0927 2.7557 95.6906 2.8059 94.5726 2.8558 92.3871 2.8581 90.8809 2.8682 90.3738 3.0209 82.722 3.0476 81.8761 3.2443 73.7195 3.2733 72.2762 3.2879 71.6086 3.3718 68.3573 3.3903 67.7954 3.4142 65.7219 3.5218 58.9829 3.5218 58.9827 3.8341 45.6574 3.8556 44.08 3.8828 43.4234 3.9169 42.5848 3.9355 42.2836 3.9335 40.4156 4.249 27.2601 4.2471 25.6667 4.2698 25.5749 4.2703 25.5529 4.3185 23.4763 4.3378 22.3848 4.349 20.4094 4.4583 15.4533 4.5222 12.309 4.782 1 Z"/>
</g>
</svg>