<?xml version="1.0"?>
<svg xmlns="http://www.w3.org/2000/svg" version="1.2" baseProfile="tiny" width="800" height="924" viewBox="0 0 800 924" stroke-linecap="round" stroke-linejoin="round">
<g id="cb_2018_us_state_5m">
<path d="M 624.998 299.0887 627.1618 299.4744 627.5868 300.8293 628.5524 301.8133 628.6563 304.1119 626.4327 302.6416 624.7481 301.0812 624.998 299.0887 Z M 569.0801 319.5752 569.8261 318.4997 570.9177 319.0856 571.1388 320.1194 570.6041 321.7353 569.7694 320.6728 569.0801 319.5752 Z M 563.4324 317.4949 564.1093 316.5631 565.6486 318.2269 566.3253 319.2686 565.4787 320.2959 564.171 321.3519 563.4376 320.3199 563.4324 317.4949 Z M 562.5116 333.8414 562.9117 330.7536 563.4095 330.628 564.6322 331.0238 565.3229 331.729 566.7619 333.9591 567.3004 335.3651 568.694 339.0022 569.7834 339.7943 573.7433 341.473 576.0999 341.1181 578.2281 341.7634 584.2304 344.3072 584.794 344.0919 585.3222 343.4474 585.4614 342.437 585.2619 341.6157 585.4818 341.4573 586.3334 342.7922 587.1212 344.5937 591.8033 346.2877 591.7801 346.6276 590.4365 348.5309 590.2622 350.0055 588.1104 351.5221 587.9866 351.8601 588.1526 352.6074 586.998 353.3617 585.7112 353.4812 584.603 352.8481 582.5251 352.6466 580.7251 352.0659 579.2531 352.3046 577.5849 351.4023 576.92 350.3672 576.7202 348.9992 575.1455 347.6308 572.6443 344.0317 571.4822 343.1488 569.4598 342.2679 568.8978 341.7002 568.6266 340.782 567.9342 339.4599 566.4558 337.9517 565.247 336.1074 564.7112 335.6284 563.676 335.2723 562.5726 334.3546 562.5116 333.8414 Z M 489.3804 346.3393 491.0532 341.4879 492.6458 340.8092 493.596 343.9015 492.8553 346.5964 491.0752 347.6796 489.3804 346.3393 Z M 476.526 339.1214 479.2382 340.1858 483.8552 343.7892 483.8628 346.6495 482.6457 348.1499 478.2337 346.4096 475.788 343.5946 476.526 339.1214 Z M 466.1342 371.8901 467.1384 368.1586 468.2453 367.1028 468.6533 366.0774 468.6099 364.8975 468.1794 363.4173 468.6135 360.0419 469.0119 359.0618 470.006 357.7612 470.7016 357.3723 471.8275 355.8646 472.5331 353.1385 472.566 351.0535 472.3328 350.3527 472.2672 349.3295 472.399 348.9663 474.0653 349.3822 474.6399 350.2092 475.4425 350.3521 476.4672 350.3408 478.3516 349.736 478.8319 349.7775 479.1906 350.9321 478.5892 351.4247 478.0899 351.4841 477.4144 352.4153 477.887 352.6079 479.0856 353.7544 479.5482 356.7111 479.5639 357.6872 478.6982 358.7465 478.3745 360.1402 478.6084 361.6496 478.9379 362.5221 479.9497 364.2421 480.2781 368.6131 479.8541 370.2469 478.0836 372.1159 477.2174 372.6213 476.3411 372.8098 476.0073 373.1409 475.6345 374.705 474.9357 375.1519 472.9061 375.5552 467.3197 374.0844 466.855 373.6064 466.1342 371.8901 Z M 459.0393 352.3779 460.3193 350.8074 463.9696 351.3875 464.2181 354.299 461.9628 357.9646 459.5242 357.8766 459.0393 352.3779 Z M 449.9813 388.3128 451.0063 386.9538 451.727 387.1588 452.3497 388.5502 452.3811 390.3105 452.0983 391.3433 450.5911 389.696 449.9813 388.3128 Z M 441.0362 393.738 443.4908 394.2305 445.8067 395.8886 446.6867 399.2933 445.9279 402.9862 441.983 396.8517 441.0362 393.738 Z M 422.7595 436.5533 423.3289 434.8553 424.2228 433.993 424.8263 433.8312 425.9481 434.0008 428.6621 434.3903 429.9323 434.8123 430.3085 435.0594 431.5592 436.8615 431.5863 439.359 431.1829 440.4409 430.8027 444.113 430.9285 445.0026 431.4952 446.1072 431.5094 447.5688 429.4597 448.5126 427.8946 447.3964 427.2201 446.2773 425.5064 444.1605 423.985 442.9178 423.3668 442.1418 423.1955 441.5977 422.7595 436.5533 Z M 413.5012 454.8514 413.7209 453.7825 415.0305 450.6575 415.3875 450.2654 417.4093 449.5076 419.8764 450.5092 421.274 452.0296 419.8405 451.8997 419.4752 452.1144 419.1502 452.6626 418.9897 453.1468 419.0541 453.8133 419.814 455.269 417.5908 456.4938 415.7931 456.7974 413.6806 456.004 413.5012 454.8514 Z M 361.0365 368.5609 362.5262 369.0658 363.653 370.1335 365.7652 373.0957 367.5112 374.7995 368.0809 376.4048 367.8942 377.244 366.3969 379.2455 365.2206 379.063 364.0379 374.6733 361.0658 371.5753 359.0532 369.4105 361.0365 368.5609 Z M 351.5096 382.9413 353.1858 382.7253 354.3733 384.457 355.0359 387.2931 353.7011 388.7102 351.8356 386.8752 351.1259 384.7289 351.5096 382.9413 Z M 340.2815 913.6385 345.3477 910.249 351.7548 905.446 355.7688 901.9032 362.1582 895.0544 362.5236 894.5112 364.4639 891.6254 366.1527 888.2613 366.2265 888.0469 368.0494 882.7467 368.9496 880.127 371.5529 874.8992 374.051 869.8763 374.858 868.2522 376.0618 865.3543 376.5937 863.5088 378.6044 861.2448 381.6953 857.1707 385.1955 852.5513 385.4038 852.2475 387.2079 849.6163 389.3643 845.9821 390.284 844.4311 393.9488 836.4671 396.5756 829.7809 397.9427 824.6539 397.8959 823.6289 398.7527 822.0099 399.0704 821.1696 400.3814 817.7009 401.6552 812.5777 402.659 804.1352 403.2417 800.612 404.009 798.0113 404.2768 796.4065 403.9598 790.337 404.2176 789.317 405.3403 786.5699 406.0568 783.0335 406.1318 782.6633 406.346 778.8012 406.2661 774.4886 406.2325 772.6708 406.177 771.9989 405.9867 769.6947 405.9336 762.7108 406.0693 759.0517 405.7394 755.5964 405.6259 752.4611 405.5579 750.5835 404.5782 740.7833 404.3884 739.6232 403.9423 736.8942 402.7792 732.0906 402.1883 730.9825 402.1515 729.6386 401.7413 727.3148 399.9851 722.3596 399.0992 719.8575 398.441 718.3255 395.999 712.6362 395.5005 711.4736 394.1239 708.5375 387.455 694.2806 386.2399 691.1289 384.4998 685.8647 383.5091 682.8645 382.1567 677.8584 380.83 672.1447 380.1845 669.3616 379.1368 666.0461 375.0288 657.3234 374.1005 654.9456 373.2156 651.5366 372.9914 649.32 373.0218 647.7032 373.2789 645.6976 374.259 643.0078 376.2182 640.0961 379.1658 636.3773 381.27 633.3507 382.9821 629.8489 383.7953 627.3437 384.4785 623.5825 384.4808 623.0972 384.4953 620.0831 384.2378 617.9751 383.1067 613.139 382.8942 609.1256 381.4163 601.6313 381.408 601.6135 379.9978 598.6073 379.5753 597.7061 379.4034 597.3395 377.5607 594.3882 376.8556 592.8473 376.2764 590.6964 376.2954 589.2541 376.9132 587.8799 377.7688 586.796 383.2528 582.5565 384.9987 580.6197 385.8529 579.3294 385.9011 579.2565 388.0132 575.4052 388.2998 574.7867 389.4389 572.3283 390.142 570.8101 391.9104 568.189 393.0721 565.1841 393.8909 562.3369 395.5785 560.4487 396.7431 557.4663 398.3653 554.0866 401.5978 548.8602 403.3523 541.0005 403.7608 538.18 403.7509 536.2264 403.4124 533.8372 403.4505 531.8841 403.74 529.4023 404.2676 528.5681 404.785 526.7679 405.3301 524.4245 406.3398 520.08 406.6685 517.5789 406.2169 513.6368 405.5889 511.5791 403.4016 506.0509 402.9067 503.8444 403.1552 500.5768 403.3416 499.8474 404.0046 498.8464 405.6193 497.8673 411.6917 495.8465 412.8975 494.7839 416.8306 494.8378 418.3346 494.4055 420.0501 492.9425 421.1927 490.581 421.6456 488.947 421.6937 487.7701 421.8473 484.0097 422.4392 481.6357 422.4421 479.7503 421.9543 475.4242 421.8323 472.6841 421.9883 471.1165 422.4206 469.7313 423.214 468.9818 425.2735 468.3291 425.9831 469.513 426.95 470.1644 428.166 470.6393 429.8514 470.5655 431.0888 469.7062 431.8343 468.4864 432.4085 466.4089 432.9691 465.5506 433.861 464.8197 434.9311 462.9056 435.2874 461.4582 435.9889 460.8624 437.5646 460.9356 439.3857 461.8312 439.9928 462.4314 441.1492 464.4824 442.157 465.0895 443.7133 465.2184 445.5316 464.9243 447.6054 464.1682 448.4121 463.5781 451.1172 459.6055 451.3344 458.8784 451.5451 456.4036 452.0292 454.3382 452.9758 453.1693 454.5294 449.2426 455.0904 448.6285 457.9464 447.2098 459.6001 445.6776 461.0608 443.3822 461.6028 441.5653 461.684 440.0553 463.5639 435.8727 467.2904 430.0751 467.8354 430.3784 467.9842 430.8762 468.4551 431.2475 469.8409 431.2394 470.5463 430.9765 472.6711 429.2537 472.9533 428.125 474.0214 426.6784 475.0753 426.7579 476.4516 429.7052 475.9831 431.413 475.4424 431.9601 473.9193 432.8155 472.9733 434.0065 472.9314 434.2875 472.8321 434.5133 472.7527 434.6545 472.6533 434.711 472.4941 434.7395 472.295 434.7397 472.1264 434.5443 471.7558 434.4962 470.1062 434.8249 469.1723 435.3757 467.7258 438.4493 468.2313 440.4365 470.839 446.4041 471.8229 446.8164 472.5523 448.1141 472.5485 450.3161 472.1461 450.6496 471.7644 450.3554 471.181 448.6893 470.1565 449.1147 469.4457 450.7556 469.2007 453.4146 468.2546 454.6381 466.9798 455.8515 466.1848 456.1413 465.6028 457.4489 464.2362 460.16 465.0212 460.9922 465.818 461.1823 467.09 460.1353 468.5102 457.812 468.7389 457.7665 468.9352 460.1299 468.9723 466.8525 467.0329 467.3657 466.623 467.651 465.1874 472.0152 464.625 472.9503 464.2769 474.3131 463.9341 477.8376 464.0267 480.3083 465.0086 483.2512 465.4763 486.1843 465.0973 488.2377 465.154 488.31 465.5677 488.8362 466.3828 489.3763 468.1108 489.7076 469.2676 489.5994 469.8382 489.1939 470.096 487.0535 471.0232 483.6765 474.6071 475.7175 475.9043 474.4192 476.1293 472.0747 473.8383 471.9138 473.2361 472.3122 472.7354 471.3039 475.2163 468.2549 475.8303 466.9834 477.1585 462.0895 476.9674 461.1874 477.1723 460.1589 479.9127 457.9136 481.6525 457.7374 482.1302 459.1942 482.689 461.9769 482.519 462.291 481.9575 462.215 480.61 463.0334 480.0625 466.7178 479.9476 469.4571 480.3368 470.3775 479.4071 475.5075 478.9912 476.8731 478.3481 477.996 477.2979 478.3561 475.2115 479.9398 473.6126 482.1924 473.1789 483.3505 473.1566 486.2349 471.547 490.4052 472.0765 491.0998 473.7827 492.024 475.3945 492.2938 476.5061 492.092 478.755 489.2808 478.838 488.592 478.7042 487.3698 478.3004 486.5587 479.2655 484.2224 481.7503 482.6442 482.9388 481.2117 483.183 479.7118 484.9987 476.2913 486.6387 473.1992 486.9138 471.3069 488.5927 468.9321 489.6229 466.2067 491.3434 456.6439 490.9969 453.8417 491.0827 449.8935 491.3851 448.5637 492.4948 446.6772 492.4206 439.9003 491.8507 438.5865 491.4057 436.2345 491.0363 430.8618 490.4078 429.6446 490.3247 427.06 490.1999 423.1754 491.8751 418.1353 493.4728 416.4407 495.5027 414.8412 496.5992 413.5174 498.2142 412.1266 499.485 411.6587 500.0117 411.9896 501.5801 411.7855 502.6508 411.2055 503.4366 410.3293 503.717 409.5941 505.3577 408.3819 507.9242 405.884 509.2102 405.3529 510.6245 405.3188 514.4737 403.9452 519.2132 404.39 523.3082 404.7721 524.474 405.129 525.4967 405.1572 526.5419 404.3782 532.8019 403.0152 537.0781 400.5525 537.3944 399.1758 537.3437 398.1935 537.0147 397.0844 536.4293 396.4851 530.5689 395.48 529.6689 395.7369 529.5979 396.0705 529.1841 396.3375 524.6073 394.4924 521.7418 391.3261 519.8577 388.8377 517.7449 382.5304 517.1108 380.02 516.6608 375.8337 516.7638 374.9634 517.4196 373.4521 519.225 371.4184 520.5927 369.0097 520.9659 368.0729 521.037 367.2869 522.3536 365.8258 526.9032 364.0854 527.7197 363.4006 528.2945 362.7079 528.7608 361.5075 531.2495 359.1321 533.906 355.721 534.2103 354.0859 534.044 353.15 533.173 351.965 530.0467 349.8608 528.0128 349.5975 527.1675 349.0354 526.8613 348.7031 527.5585 348.296 528.7764 348.7547 534.3803 348.7016 535.7308 349.1131 537.1477 350.0741 541.43 349.7427 544.0059 350.7517 547.3928 350.516 548.0905 350.373 549.1422 349.6329 549.8635 348.381 550.0053 347.1674 548.755 345.9296 548.6715 345.6524 549.9274 344.6827 550.6685 344.3809 552.7691 345.2866 553.7108 345.0779 554.4867 344.4933 554.652 344.5305 555.2652 344.6682 555.9994 345.9759 556.3054 347.5882 559.6797 348.9594 559.9309 349.9608 563.3739 351.2063 567.3669 353.7468 570.4572 355.3024 572.2638 356.4255 572.4869 356.9461 573.9168 358.0839 577.993 360.8646 580.2591 362.4087 581.6348 363.3455 583.5406 362.9823 583.5519 362.9597 584.2057 361.652 584.9773 360.9196 586.3457 360.8668 587.6793 361.7065 590.0569 362.7697 594.6683 361.4486 598.6333 362.9505 600.5763 364.1206 606.0357 365.4431 607.1479 366.5054 607.9709 367.2913 609.5504 369.6414 611.9157 372.3329 613.6942 373.9394 614.7737 375.5359 615.0202 376.333 615.015 378.3401 615.5272 380.9672 616.1133 382.475 616.8729 383.5751 618.2157 384.6631 620.2279 385.5805 622.1793 385.7102 623.7705 385.0585 624.1272 384.696 624.865 384.5426 626.7771 384.8089 627.9017 385.3392 629.9081 384.8764 633.7519 384.9301 636.7269 385.914 639.5243 388.3823 641.8964 391.3067 643.6212 392.9062 647.138 395.1084 648.9177 395.4557 650.4634 395.2945 652.231 396.14 654.0422 396.1102 655.573 395.7397 658.0629 398.0942 661.0199 399.6583 663.4628 401.4322 667.9527 404.0287 670.8443 404.7136 672.8268 404.1482 673.1647 403.884 673.2496 403.0668 673.9877 403.0801 675.8213 404.5782 676.3746 404.6738 678.1219 403.0603 678.9107 403.2747 680.06 405.222 683.3726 409.558 684.6552 410.5025 685.4675 411.4537 685.7647 412.2991 687.9268 413.8244 689.212 414.1643 689.5381 414.5402 689.8932 415.2677 689.3232 417.2656 686.9184 418.6299 686.9614 419.6053 687.6543 421.2483 689.5583 424.0322 689.9036 424.5368 690.1648 424.5458 691.5195 427.5058 691.6431 428.8734 692.1024 429.7107 692.4933 430.1876 693.6165 430.3685 694.7574 432.373 696.9419 433.0406 696.9693 433.318 696.6407 433.6541 696.7636 434.8892 697.9395 439.0771 698.9332 440.2666 699.7646 443.26 699.7399 444.189 700.9145 446.5085 701.2425 446.668 701.8267 447.5922 702.4298 449.1692 701.8838 449.6702 700.2263 449.2879 698.7859 448.5017 694.9429 447.3063 693.1737 446.0736 692.1424 444.4536 688.9374 443.3979 685.5391 445.2956 684.7405 446.2457 683.6717 448.4998 683.6046 448.9899 684.4451 451.1213 685.572 451.7657 685.9862 452.304 685.5608 453.4456 685.2484 453.4543 684.1803 454.869 684.9564 460.2206 685.4869 461.8197 686.1004 462.9282 686.8969 463.7764 689.0011 464.8473 689.6219 466.5767 690.1275 467.0382 694.3142 469.3104 697.5724 470.0086 697.6032 473.1316 697.6109 473.9142 698.3373 475.4132 699.7691 477.1248 700.4331 482.2609 700.4308 487.1997 700.3134 487.7108 700.4485 488.9482 701.1839 491.3138 701.8712 492.3548 702.9817 493.4352 702.7375 496.9158 701.6207 502.0971 699.8993 505.4232 699.2798 508.4255 699.226 510.358 699.5466 514.6631 700.089 516.9437 700.1684 518.1382 699.2838 521.77 699.3016 522.1601 699.4661 525.7773 698.7052 531.6921 698.7314 533.8388 699.0465 535.8383 699.3796 536.6664 699.3887 537.3194 698.2947 541.8809 698.2022 543.9339 698.5469 546.4046 698.1269 547.4842 697.4571 547.9499 696.5999 547.606 695.366 547.6093 694.4453 548.3153 691.6938 552.0644 690.4598 553.1298 689.9866 554.0969 689.3854 556.2801 688.9986 556.6839 687.6953 557.3346 687.3536 556.2097 685.5879 555.4851 683.9153 555.3531 681.8173 555.9015 680.9733 556.3341 679.401 558.095 678.1448 560.022 677.0679 563.0054 676.7456 565.3573 676.6944 567.1642 675.6642 572.0633 675.4362 573.1469 675.4223 577.2734 675.5696 578.2716 675.0918 580.8805 673.6278 582.975 673.3137 584.0471 673.4419 585.4116 674.1322 587.2078 672.4042 587.5435 670.3768 587.3825 667.4401 587.9907 664.4937 590.3322 663.7096 592.5661 664.5908 596.2954 663.2763 597.0949 659.7048 595.3787 658.1218 596.8278 657.8284 597.2198 656.1117 597.7763 653.6611 597.816 649.457 597.3721 647.5275 598.4765 646.8647 599.1316 646.7565 599.7614 645.4421 601.4757 644.6033 601.7041 643.8645 603.4947 643.4107 605.2048 643.367 606.8124 641.705 607.5913 641.6272 608.67 641.451 611.1108 640.8206 616.3173 640.162 626.1072 639.8832 627.571 638.2949 630.0299 637.3357 629.9106 637.215 630.1459 637.4111 631.3638 637.9691 633.0498 639.0517 636.3191 642.2262 642.2976 643.5202 643.486 648.1813 646.0851 650.3457 642.2293 651.5875 641.9254 653.4638 646.466 658.0211 647.7772 660.6374 648.8471 663.9423 651.8418 665.6241 653.3645 669.2123 651.3419 673.2246 646.1464 675.8184 642.1636 675.9123 642.0278 676.7683 640.7896 677.7071 639.431 679.8893 636.3051 680.4076 636.4815 681.035 635.4768 681.5939 635.0065 682.2137 634.8789 682.3703 634.9468 682.6395 635.5276 684.1733 636.3611 685.9769 635.101 686.7155 633.2434 686.6114 632.9134 686.4176 632.2988 685.0226 631.2117 684.1561 627.2028 685.7318 624.128 687.2106 621.6846 687.2838 619.4142 688.6946 616.8534 688.5729 614.7661 690.1734 611.0419 692.096 612.1557 691.221 615.2214 691.8804 617.1216 694.3629 616.0441 696.4038 614.6271 698.8673 613.1584 700.4088 609.5341 698.6434 608.8265 696.0819 608.1722 693.2893 607.5777 692.6341 606.0883 695.904 606.1091 701.6511 606.1426 702.9514 605.4161 705.268 603.1497 706.5504 600.551 707.2227 598.7076 707.2368 598.0699 710.7078 596.9086 713.8922 596.5106 715.4289 596.6093 718.9774 595.4627 720.0315 594.9056 721.4433 593.7575 722.7383 593.3922 725.6468 593.6067 726.9855 593.2404 727.7132 592.8128 728.9069 591.4322 730.4898 587.7778 731.0063 587.1951 733.5718 586.9224 734.4299 586.5637 736.715 584.0413 737.605 584.0633 737.8226 584.4053 738.7709 584.532 740.6137 583.451 741.9188 583.2494 744.6656 585.9227 746.1094 586.7091 750.4939 587.7172 754.6127 589.4979 755.1581 590.828 755.6976 591.4239 757.5572 591.7145 759.5176 593.1739 760.2883 594.0704 761.4366 596.4193 763.2091 599.6107 763.4598 599.7975 765.2745 604.0116 766.9616 608.7967 769.404 610.9492 770.7345 613.0814 770.7928 613.9352 770.3375 614.2251 770.3145 614.4816 770.6913 615.1957 771.8145 616.0475 773.7382 624.8384 773.6885 626.6103 773.9271 627.9174 774.4727 628.89 775.341 635.8386 775.5444 637.4659 775.496 638.7972 776.3825 648.1817 776.7146 649.9973 777.1813 651.1894 778.2092 656.4567 780.4689 662.1817 780.5186 663.0063 781.9183 667.6156 783.4965 671.315 783.6243 672.1513 783.5344 673.4588 784.2635 681.1164 784.2471 683.8836 785.0097 685.9349 785.1759 688.4134 784.9252 689.9049 786.3086 701.2286 786.7835 702.9963 787.9228 705.2144 788.6603 709.1194 788.8538 710.1432 789.7182 712.6449 790.2238 716.242 790.7011 718.1311 790.7791 718.4396 792.4048 720.4847 793.9622 724.1175 793.9733 724.1433 797.8188 731.5356 798.5373 731.8466 797.8808 732.6546 797.7303 733.0979 797.7141 733.6001 797.8907 734.253 798.197 734.8459 799 735.8621 798.6672 737.3507 797.5204 739.4637 795.6812 741.5526 795.6348 741.6488 794.9246 743.1225 794.1291 746.7486 793.5966 748.7496 793.6166 749.603 793.9236 752.7475 793.8833 753.71 793.5812 755.9188 793.026 757.5811 792.7616 759.9337 792.8268 760.3711 792.9666 760.8249 794.0211 763.3679 794.49 765.4294 794.5203 766.4733 792.9993 770.5341 793.0549 772.7447 792.0438 775.211 790.5667 780.3111 790.7756 784.2461 789.9793 787.5874 789.5395 788.5099 787.0395 790.8179 786.8864 791.0373 786.4495 791.9531 786.2806 792.1797 784.8847 793.488 784.1298 794.4321 783.9489 794.6848 783.5085 796.2995 782.9241 796.7972 781.3837 797.1504 781.1346 797.1243 780.7113 796.9173 780.0877 796.3493 779.2359 796.0095 778.3437 796.068 777.5817 796.3902 777.4013 796.4875 776.7868 797.0664 775.4871 798.3202 775.0091 799.2982 773.7759 801.1642 773.0279 801.7026 773.1678 796.4797 772.1788 796.1693 773.3092 793.759 772.3576 791.8048 771.0177 792.2097 770.097 791.5868 769.8658 790.6024 771.0934 789.3156 772.5193 789.3013 773.2932 788.444 773.0325 787.5497 772.1142 786.6838 772.1336 786.384 773.6412 786.3906 774.7508 786.2128 774.3307 784.5999 775.8555 782.9334 777.1983 784.1237 778.1806 784.0444 778.8582 782.3425 778.6253 780.8069 778.5616 780.3864 776.9172 779.4263 775.7102 779.876 774.9989 778.9992 773.4505 777.8638 772.2714 777.4847 770.6683 777.6123 770.1609 778.4751 769.9841 778.4912 768.0641 778.6657 765.3289 780.6078 765.0043 781.1527 764.1227 782.6319 762.5569 783.1815 761.3377 782.8146 760.8339 782.9879 759.2136 784.9115 758.7969 786.3111 758.5966 786.9837 758.7585 788.3922 759.6159 789.1258 761.9391 790.1045 762.1139 790.8243 761.9949 791.626 762.1316 793.0107 762.8721 794.5685 762.8112 795.5323 762.5984 795.7095 762.0968 795.0485 761.2936 794.7092 758.7669 794.8403 757.4072 795.2958 756.2238 796.3572 755.893 797.0615 755.748 798.028 754.9169 799.0466 754.8286 799.2042 753.4307 801.6996 752.7124 804.9058 752.681 809.0356 754.1834 811.9289 754.1922 811.9458 752.9976 816.9814 752.7462 818.0402 752.5519 819.4466 752.0082 820.7094 751.5675 821.2899 749.858 822.3801 749.4574 822.9167 748.5131 825.0694 749.047 826.0828 749.0524 826.0931 746.8347 826.8364 745.4073 827.9725 742.3895 829.0902 739.2991 829.573 734.5667 831.4223 732.9759 832.7595 731.2991 835.428 731.1055 836.0194 729.9187 839.6417 728.222 842.7764 728.1999 843.3521 728.0259 847.8826 727.8732 851.8481 729.3987 858.7264 728.2786 864.0758 725.7608 864.5214 724.6423 866.2436 724.453 866.3429 722.5906 867.3197 722.5551 867.9678 722.7925 868.052 722.9709 869.3134 722.7716 872.2753 723.0293 872.5329 723.0334 872.5446 723.531 873.9521 722.973 875.6267 722.6334 875.835 720.7361 876.0525 720.6969 877.3686 719.9363 878.4055 719.2556 878.337 718.7225 878.6215 716.6072 880.7887 715.8376 882.6086 715.8433 883.872 714.6042 885.5624 712.7322 884.8606 711.8004 884.839 711.0793 885.0958 709.7453 886.1491 708.7187 887.7235 707.9856 890.2458 707.8319 892.4054 707.8089 892.7294 707.2574 894.125 706.6367 894.7204 705.4188 895.8881 704.7204 896.2391 704.0553 895.0402 704.0279 894.9909 703.0406 895.5273 701.6062 898.0984 700.2819 901.3343 698.972 902.5075 697.7336 903.0666 697.1837 903.8446 696.9836 904.4882 696.8761 907.2502 697.5634 909.9759 698.7109 912.6966 699.0865 914.0251 698.0155 914.5745 696.1752 914.9881 695.9778 915.2533 691.3502 915.4908 691.14 915.5247 690.75 915.5491 690.655 915.5517 682.1289 916.0845 682.0963 916.0863 681.2224 916.1358 681.0747 916.1396 676.7116 916.4329 676.3955 916.4549 675.3498 916.5235 673.6235 916.6365 671.5784 916.7571 669.0928 917.0007 663.3899 917.3619 663.3781 917.3625 653.2145 917.9184 651.0182 918.1308 651.0022 918.1323 648.9739 918.1935 638.5264 918.857 636.3608 918.9228 624.2287 919.6872 600.3875 920.9927 600.3738 920.9934 596.5746 921.1503 596.2581 921.1657 592.1934 921.3631 559.2745 922.7356 553.3508 923.1044 553.3415 921.495 553.3207 919.6508 553.3009 917.9046 553.2933 917.2417 553.2793 916.4633 553.2817 914.0479 551.9116 914.0844 551.2516 914.1008 551.2446 914.101 539.9264 914.2521 536.933 914.3142 536.8588 914.2987 535.805 914.3112 535.6731 914.3351 528.8136 914.329 528.6426 914.3043 520.4316 914.4034 519.816 914.4014 514.6329 914.4518 512.0578 914.4503 512.0433 914.4503 508.2387 914.4566 504.0837 914.4549 504.0062 914.4677 503.9259 914.4879 501.9859 914.4698 501.9776 914.4698 501.3248 914.4635 500.2935 914.4583 499.2396 914.4789 497.9215 914.4845 495.8588 914.5031 492.8034 914.5188 487.6949 914.5589 487.176 914.5635 478.3675 914.6306 478.1257 914.6082 468.7042 914.6809 468.6236 914.6648 467.1152 914.686 466.8642 914.6799 466.049 914.6702 464.4696 914.6761 464.1473 914.6792 463.1964 914.6796 456.3612 914.6792 453.6752 914.6758 453.6248 914.6759 451.1387 914.665 451.0325 914.6645 449.3131 914.6755 449.3102 914.6755 440.7981 914.6132 440.4862 914.6158 439.0332 914.6004 439.0273 914.6004 429.9459 914.5097 429.9376 914.5097 428.2156 914.4887 428.2074 914.4886 422.9697 914.3863 420.6963 914.373 418.176 914.3576 414.104 914.3311 414.0618 914.3331 413.8103 914.3272 408.4389 914.3407 404.3414 914.3488 403.4467 914.3426 403.4439 914.3426 399.2874 914.2857 398.5562 914.2829 374.3597 914.1562 372.5086 914.1518 371.9912 914.145 359.7731 913.9761 359.6526 913.98 359.6338 913.9797 348.5413 913.7894 348.3752 913.7893 348.0689 913.7829 342.8361 913.6732 342.8259 913.6746 342.734 913.6733 342.4335 913.6691 341.2053 913.6517 340.4081 913.6403 340.2815 913.6385 Z M 272.5226 112.5265 273.9171 111.9615 275.2971 111.1704 278.3665 111.5507 278.8507 112.3787 277.4629 113.8474 275.8184 113.8079 273.7711 113.3722 272.5226 112.5265 Z M 122.3122 42.3516 123.1582 40.6356 125.1724 39.7439 125.7393 39.0036 125.7275 37.9825 126.412 37.1888 129.8926 34.3524 138.0399 30.0516 145.4614 26.8843 147.8022 25.6004 152.94 23.3645 153.84 23.1114 154.2017 23.4118 155.3885 23.3088 157.3238 22.202 157.2212 21.8104 157.4868 21.4013 163.0907 18.5157 164.9451 18.5521 165.4657 18.8209 167.6726 17.8056 169.1763 16.8081 169.2508 15.5453 169.9981 14.7639 171.9089 13.7655 173.4944 12.5332 175.678 11.3296 176.6405 11.4312 177.6993 10.7308 178.5555 10.1042 178.5078 9.4762 178.7281 9.1609 180.4234 7.5194 184.5507 5.4703 187.9473 4.523 190.9704 2.8619 193.0187 4.2909 195.2636 3.9614 196.1614 2.9634 197.1192 2.3682 199.2403 1.8917 200.413 2.0579 202.7745 1 203.1311 2.5105 202.9285 3.8655 202.2019 4.4012 200.0991 4.817 199.1139 5.4558 198.1539 6.2241 196.555 8.3157 194.0011 10.485 188.6618 14.2494 187.5631 15.5307 187.4967 16.4284 187.7199 16.8374 187.8697 17.7337 187.7385 18.3942 187.262 19.1522 178.4772 25.505 173.8047 27.6357 168.6397 29.4193 166.774 29.6568 162.9029 31.4464 160.931 31.3537 156.4853 32.8769 154.6571 33.8914 154.0871 34.9469 150.3016 36.8384 146.3861 38.795 146.1432 40.4969 147.0811 41.2227 149.2958 40.8183 150.9726 41.5317 156.135 40.0515 156.192 40.3025 154.936 41.5728 146.5267 44.6035 144.2175 45.7746 142.1419 46.0816 140.9903 46.4791 135.997 48.6569 134.4222 49.5921 131.2077 50.1048 128.1826 48.901 127.9564 48.6328 128.0506 47.5581 127.2 46.2227 124.1098 45.8786 124.0267 45.5843 124.1335 45.3629 124.7219 45.0118 123.0768 43.1045 122.6785 43.1772 122.3122 42.3516 Z M 1 221.4815 8.0477 217.0002 10.1199 216.1131 12.1138 216.9361 16.2457 214.9379 18.9757 214.2472 26.2708 211.6779 32.4782 210.6585 37.9319 209.0949 39.6278 208.3202 42.9056 205.8295 43.9713 204.4756 45.1885 203.5307 46.8548 202.6838 50.7698 199.5783 53.4668 196.4969 53.7978 196.1723 57.9353 192.1109 59.6103 191.0163 63.7047 189.1853 70.5872 187.8422 75.1349 187.6699 76.35 188.0375 78.0824 188.9317 78.7469 189.7926 80.2498 189.9507 85.1228 188.3515 88.4454 187.9421 90.5859 187.2011 92.0187 187.2993 92.7525 187.783 94.648 188.0264 97.9927 187.8781 100.1365 187.3449 104.389 185.6439 116.5476 179.6903 118.657 178.4211 121.3192 175.9633 124.7438 171.2468 127.3363 168.6247 128.7232 167.589 129.7309 167.4027 130.1995 168.1108 130.8443 168.5451 132.7185 168.7916 135.0151 168.4322 137.3559 166.9884 138.3832 166.7876 138.9183 167.6614 141.2864 167.7317 142.3785 167.5043 143.7939 166.8751 145.1217 166.0238 146.67 164.441 147.7729 162.7779 148.6822 161.4062 149.7741 159.0326 150.9402 155.2721 152.4249 153.2925 155.7501 151.4879 156.4463 151.4019 159.8009 147.8082 162.2584 146.556 163.3883 146.6645 164.7311 145.9668 168.2272 141.8467 171.2142 139.2724 173.9085 137.3496 175.4821 136.4904 177.0266 136.3832 178.6626 135.6557 180.0163 134.7799 182.4244 134.3767 183.4903 133.902 189.6018 128.4684 190.7562 127.4406 193.0664 124.6992 193.8331 122.7189 194.9699 121.0261 199.0123 116.741 201.8731 114.9653 208.2195 112.4741 210.2345 111.3153 212.0282 109.9331 216.4645 109.0041 217.6082 108.316 218.5007 107.4263 218.6572 106.8788 218.5915 106.418 222.0726 105.266 225.0692 105.0141 226.1242 104.6789 231.349 103.9506 232.1904 104.1466 234.7845 103.9359 234.8906 103.9075 234.9264 103.2067 235.6745 103.0837 241.5497 102.7701 246.2908 103.0005 248.8489 103.3107 249.2585 103.6292 256.9927 104.2446 258.5049 104.1005 262.7032 105.9886 265.1379 107.6914 266.5238 109.0405 266.9216 113.802 266.7172 114.4753 265.8688 114.5059 263.8641 113.7776 263.0038 113.8625 262.2615 114.1335 261.6745 114.7347 258.2743 115.5652 256.8028 116.5664 255.6843 116.343 254.9639 115.7134 253.6962 115.0593 252.89 114.9637 250.4468 114.8688 244.7441 115.4903 243.2546 115.8459 242.4349 117.6364 242.3595 118.452 242.6241 119.3221 243.3441 120.1531 244.0469 120.3635 244.8354 121.6133 244.8683 122.2472 244.3524 123.1375 244.059 123.3618 242.9071 123.3037 241.9207 123.5376 239.9123 124.8868 237.2228 127.1217 233.511 128.1491 232.998 128.4795 231.8673 129.7224 229.3226 133.2399 228.1637 133.5189 227.319 134.0528 225.8596 136.217 222.7688 139.4132 219.746 140.3143 218.7313 140.105 218.0052 140.2342 216.503 141.528 216.3611 141.6502 215.5564 143.0112 214.9977 145.0394 214.8585 147.3455 215.131 148.3849 215.3866 148.6546 215.8612 148.6241 215.8091 149.1363 215.0356 150.0364 214.2762 150.5008 214.0906 150.4595 213.9925 149.8939 213.5744 149.3954 212.8446 149.1551 211.9675 149.3621 211.0117 150.0806 210.2658 151.2617 210.2028 151.6959 210.3578 151.8748 210.4013 152.5768 210.2605 153.4027 209.2919 155.6398 205.124 158.0503 204.4781 158.1876 204.1515 158.6003 203.8042 159.6231 203.6774 161.1767 203.0971 163.7465 202.1716 166.6185 201.5267 167.58 200.3673 168.6358 198.4424 171.5648 197.7751 172.3015 194.5889 173.0037 194.0107 176.5878 193.7545 177.6725 193.2335 179.8775 191.0707 185.0754 190.6903 190.0808 190.0329 192.7218 190.1178 193.5069 190.9096 196.3592 191.8742 199.1529 189.943 199.6644 188.4032 202.1435 188.4187 203.3071 190.3271 204.3641 192.4472 203.0438 194.1883 199.232 194.6663 198.2882 196.5566 195.7764 199.5455 192.6734 199.9293 191.1206 197.8158 190.7155 199.2941 188.0353 200.9659 187.3591 201.271 189.4857 203.1479 189.0832 207.0755 185.0899 209.9599 182.7957 211.8985 181.6016 213.62 179.663 221.2025 175.7652 222.3736 174.9226 223.5077 174.7316 224.5304 175.3937 222.7846 177.967 219.0636 181.3353 216.6552 182.6695 214.9804 184.1325 213.5841 185.9602 212.693 187.8964 209.4545 193.3328 209.3545 194.606 210.8688 194.8367 212.5296 191.7988 213.5366 189.4975 216.6095 186.1937 220.1878 183.4093 221.4719 183.3979 224.8713 182.8091 227.3762 181.843 229.2673 181.4399 230.8689 181.7554 232.8351 182.6746 233.992 183.2152 236.6979 183.5635 238.4493 183.7588 241.3697 183.4044 246.7464 183.4648 249.1693 185.9504 251.8726 187.25 252.3543 187.1982 253.7339 186.4786 254.741 186.3017 255.0735 186.7532 256.9809 187.8218 257.463 187.898 258.0141 187.985 258.5366 188.4417 258.5804 189.0275 258.3365 189.3278 258.511 189.8413 259.5352 190.6466 260.5101 190.7939 261.4201 190.114 261.9637 190.1534 262.501 192.3061 262.3102 192.7119 262.5045 194.1678 262.7541 194.9885 263.1436 195.499 264.4531 195.8322 266.3109 195.646 267.1904 194.9117 266.9987 193.9696 267.0822 193.6064 267.7131 193.5155 268.2854 194.312 268.3833 195.6395 268.2575 196.1373 268.4697 196.6566 269.3943 197.4229 270.4245 197.8365 271.3601 197.6725 272.1851 197.9225 272.6654 198.9169 274.5508 201.3307 275.7592 202.1313 276.0948 206.373 276.794 209.5687 277.684 211.0117 282.4125 215.6442 282.2837 216.9948 282.2659 217.1824 284.2438 221.4824 285.2141 222.2023 287.6078 223.2371 287.7332 223.8151 287.6164 224.5658 287.9149 226.1869 289.1235 227.4705 289.9638 227.934 293.0147 228.1569 293.7611 229.0856 295.6307 229.4288 295.8152 231.2726 294.6913 232.3144 294.7003 232.5508 295.6797 234.9998 296.3006 235.9379 294.8583 236.5526 294.4708 237.8728 294.9005 239.1138 295.6508 240.1451 297.0389 241.587 298.5464 242.5453 302.4441 243.8603 307.4971 244.4933 312.9876 244.2357 315.6671 243.3357 320.2933 243.9204 321.3497 243.777 322.234 243.6568 323.1097 242.6139 325.2301 240.9925 328.2831 240.3923 329.8663 239.6213 331.1267 238.5181 331.9429 238.6487 335.0185 239.5676 336.2038 241.0052 336.3524 241.9837 337.8383 245.5536 337.8998 246.3334 337.5714 246.7162 337.8001 247.3209 339.6677 248.4105 342.0072 248.2244 343.4171 249.326 343.8992 250.397 343.884 251.7347 344.7292 252.3461 347.1627 252.8298 348.397 252.8376 350.4924 252.3437 351.0097 250.6866 351.2416 249.1418 351.7664 248.2926 353.3133 246.7504 355.2041 246.5865 356.992 246.6054 358.3701 247.1721 358.8341 247.669 358.853 248.1929 360.7825 251.4913 361.4877 252.2823 361.9825 252.3953 363.1553 250.0996 362.9362 248.9392 363.1805 247.74 363.4869 244.0076 362.3104 243.2743 361.7491 242.0778 361.09 237.4963 362.4413 235.9425 364.1505 235.1139 364.3784 235.6792 364.8477 235.766 366.2562 235.5057 366.6114 235.2128 369.043 239.0377 368.85 241.2363 368.5397 242.5446 368.2965 243.1556 367.651 243.7254 367.2039 244.9076 367.1086 245.792 368.0422 246.8606 368.9398 246.9785 369.6166 246.0911 369.8737 245.3053 370.4536 244.7687 370.7237 244.817 370.9388 246.8619 370.7196 248.0318 372.9358 249.0351 375.7447 245.6576 378.9636 243.155 381.9037 240.4296 382.9954 238.8726 383.2045 237.9212 384.4477 236.7018 385.3603 236.6393 386.8664 237.19 387.5701 237.0804 392.1367 235.1102 396.0951 233.0466 411.9031 222.4241 414.4744 220.2537 416.7471 219.7783 418.5231 222.0051 419.2722 222.322 420.4644 222.3892 422.9543 221.9521 426.5771 220.5803 430.6499 219.743 434.6669 219.3071 437.5454 218.2053 442.0246 217.3447 443.3204 217.4515 445.5992 217.6387 450.0734 218.7519 454.3732 219.2831 457.8853 219.3161 462.3165 218.8587 466.6038 219.0759 470.217 219.6722 474.5676 219.7186 477.7704 219.4979 480.4294 218.8358 491.3084 214.0937 499.042 209.6954 502.2327 208.4452 504.0708 208.1075 510.346 206.9512 520.9597 207.6972 523.5991 207.3128 526.2093 206.0498 528.118 205.5849 530.524 205.5021 531.5569 205.7029 531.7945 205.9657 528.3402 209.3886 526.4146 211.828 525.2168 214.0819 524.5208 216.2096 524.2863 218.0043 524.4706 219.3663 523.8269 226.4548 523.703 229.8525 523.8784 232.6007 524.2787 234.4135 524.4808 236.4314 524.6975 236.5235 524.889 237.5624 524.738 238.0385 522.949 238.8078 522.2324 239.5013 521.9299 240.3953 522.0584 242.0584 522.5662 243.5798 524.15 245.8713 524.9507 246.5214 525.966 246.9823 530.4256 247.4294 531.7995 246.855 532.5732 245.8402 533.5566 245.5695 533.8324 246.8306 535.0636 248.2833 535.724 248.6233 537.8467 248.9017 539.6326 248.6903 540.9551 248.2321 542.1069 249.5901 542.6947 251.2221 544.1063 251.8568 546.9671 251.5233 549.9714 250.4581 554.4104 248.3236 557.6624 246.0716 558.7512 245.5253 561.1507 246.2657 563.372 245.8677 564.8112 247.6872 565.6718 249.8145 567.2593 251.4089 566.5618 252.1409 566.0814 253.3403 566.4018 254.3726 566.8891 255.6812 568.1552 255.8963 571.247 255.1453 575.862 252.1584 576.8651 251.9853 578.2348 253.06 578.9782 252.8065 579.8656 251.853 580.5266 250.011 580.5338 248.7542 579.7382 248.1084 581.4612 245.0313 583.8563 243.2897 586.3473 243.5107 588.2417 242.148 588.345 242.0857 591.3038 242.2341 591.8799 242.5268 593.0962 243.2925 596.2631 244.2605 597.9377 244.2296 598.9484 243.99 599.0562 243.8945 599.9988 243.0629 602.6685 238.336 605.8045 237.4315 607.4244 239.2404 608.5353 239.319 609.7944 238.9988 610.4192 238.5914 611.1068 238.423 612.134 238.7006 612.7041 239.9908 613.2385 240.4473 613.9279 242.3432 612.6782 247.1715 610.7588 254.5076 611.5929 261.0394 613.6199 265.9801 614.9185 268.0838 613.6309 269.0912 614.157 275.6981 615.9291 277.3207 614.9622 279.4994 613.9959 280.546 613.329 280.7118 612.3894 280.8349 611.3037 281.8657 611.1885 281.9825 610.987 282.0394 610.8398 282.0422 610.7467 281.9907 610.7079 281.8849 610.686 281.6991 610.6553 281.4704 609.9576 280.7256 607.6781 280.4538 604.0916 281.0073 602.7793 282.1555 601.2537 284.6678 601.6734 286.6249 601.4651 288.4219 601.1093 288.9941 604.1209 290.7552 606.4958 290.276 608.3456 287.719 608.9054 288.0287 613.4733 288.1589 614.477 289.0019 614.6562 289.7415 615.9924 292.2744 616.4228 292.6957 617.064 292.8673 619.8983 292.8536 623.2559 294.8361 622.8395 296.0413 622.0819 295.7122 620.8046 296.5593 619.8986 297.4722 619.1592 298.8309 618.8611 299.8676 618.9375 300.467 619.4894 301.1638 620.9393 302.3019 623.3492 305.7056 625.5161 307.1042 627.1757 308.734 629.715 309.3872 630.9284 309.1907 631.6549 308.8327 632.1448 309.139 632.5195 310.3816 632.9489 310.728 635.1868 311.5853 636.0162 313.3429 638.7234 314.0607 639.2008 313.8169 641.3448 309.4404 642.8529 309.8811 644.0904 312.6678 646.4836 313.5502 648.1858 312.3225 649.2339 310.2951 649.1925 308.3763 648.2877 305.634 646.0365 304.948 644.4152 302.6114 643.1872 298.372 643.9759 297.6624 644.3105 297.645 646.2479 298.538 647.5378 299.7043 648.3477 300.0414 649.8957 299.8412 652.6277 299.9467 653.0948 299.532 653.4139 298.503 654.9672 298.1354 659.1633 298.4729 661.7162 297.8869 662.6463 298.11 663.6697 298.9664 665.3313 299.7576 667.0287 299.7811 667.5635 300.6303 667.9336 301.8361 667.9587 302.5465 668.6968 303.6587 669.8156 304.0564 670.5295 305.5959 670.946 307.0947 671.2534 309.3429 672.0694 310.7247 675.8521 312.2921 676.4895 312.2748 677.2595 312.7322 677.9462 313.7897 678.0334 314.3725 677.2428 316.169 676.563 316.6304 674.5703 322.2594 673.9413 323.0838 673.0649 323.8111 669.5977 324.7607 667.499 324.3398 662.6056 322.148 660.0571 320.3474 657.1402 321.8439 654.0245 322.1044 652.6799 321.6324 651.716 321.6041 649.4195 322.0514 649.1724 322.503 647.4715 322.3577 645.9897 321.7967 645.7453 320.9847 645.2643 320.666 643.8285 320.9402 643.3699 321.3394 642.5875 321.2711 642.0251 319.7443 641.4763 319.6923 639.6457 318.8441 638.1741 317.9244 638.0264 317.6463 635.1078 318.0735 634.1072 319.1612 631.0452 318.1762 627.8015 318.0125 626.7049 318.8373 624.6388 319.221 618.4622 317.6779 617.458 318.2018 615.9702 317.4253 615.7784 316.8331 615.3841 316.6265 615.0795 316.6822 612.4807 317.1575 609.4163 318.5206 608.8371 318.0923 602.9333 318.4213 601.3131 320.0799 593.9331 320.1788 591.6813 322.2781 589.4263 323.6861 584.2288 320.0315 583.3162 317.8702 582.7663 317.2968 580.8208 318.5898 579.1012 317.3648 578.8337 316.7354 578.888 316.2822 578.7281 315.8872 576.4434 315.5072 575.7714 316.0721 575.8089 318.3273 574.7351 318.7262 574.0119 318.6133 573.8058 318.1474 573.7728 317.3884 574.1594 315.5087 573.8377 313.4858 573.0669 311.5475 572.7253 311.0772 570.7932 309.7459 569.1083 309.969 568.5757 310.6064 566.3696 310.6588 562.5428 307.4142 561.6583 307.008 560.6667 307.3268 559.7789 307.9707 558.6706 309.558 558.1527 310.6759 558.1734 312.0978 558.8704 317.4379 559.0601 317.6683 558.98 318.2413 558.7422 318.5544 557.147 318.6241 555.2765 319.1582 554.5847 320.0261 553.7576 322.2143 553.7128 322.7772 554.35 324.0398 555.7445 324.7857 556.2818 325.7812 556.3248 326.3915 554.2979 327.6907 555.6053 332.3595 556.1893 333.4805 557.6191 335.2799 557.5141 335.6528 557.1144 335.913 555.6916 336.0075 555.5042 336.2198 555.2274 337.5773 553.1359 337.8059 548.5898 334.5896 544.7651 332.7419 544.0545 331.4093 544.127 330.3419 543.659 329.054 542.6058 328.7934 540.5906 327.4408 539.9346 326.5941 537.6534 325.5089 536.2107 324.5327 534.2453 320.9755 530.6273 316.7381 527.6518 313.9349 526.6255 313.2864 522.5268 311.5681 519.2574 310.8522 517.8706 310.2806 515.1542 308.3772 514.1298 307.8854 513.0301 307.7334 509.2435 308.195 508.5691 308.5869 506.1037 306.3647 501.7942 305.667 499.6988 304.7581 496.8866 302.7439 494.9558 301.9052 492.9646 301.9849 491.9465 302.7392 490.4997 303.4137 489.2731 301.52 487.4822 300.6812 486.0254 300.611 484.5552 301.4877 484.5205 301.7497 484.7272 301.9398 484.0631 302.9921 480.762 301.4142 478.8496 301.3388 477.6147 301.6541 476.7452 302.1463 474.8557 303.8004 468.6868 310.767 467.3211 313.8655 464.2888 317.3683 463.6889 318.7838 462.7766 319.7275 459.5086 320.696 456.8502 319.9518 454.9456 319.9835 452.2609 319.1069 450.3256 318.2209 448.3798 317.865 447.6802 317.9542 446.8673 318.3988 446.1978 319.6065 445.2335 319.9572 443.3908 319.5399 442.9735 319.5261 441.2985 319.4704 440.2407 319.6608 438.6736 320.8128 437.3277 322.334 436.9811 323.7744 436.9975 324.6214 437.8592 325.2354 438.5428 326.0394 438.1967 326.4163 437.5271 326.1943 434.2409 323.9721 429.8423 321.9272 424.7278 320.3151 422.6545 319.8654 420.4253 319.6571 417.591 319.918 415.4073 320.9484 414.9663 321.3527 414.0569 321.4503 410.4077 320.0949 409.2634 320.1165 408.0509 320.6874 407.2034 322.1399 406.7528 322.5282 405.3362 322.6529 404.6754 322.1119 402.3828 323.0258 398.6169 326.7878 397.7943 328.0775 396.9036 335.7448 395.2558 338.2276 394.6363 342.2961 394.963 343.3204 393.7549 344.4521 393.1514 344.5604 390.5986 344.469 390.0295 343.6616 388.6157 343.8776 387.7369 344.4416 387.3767 345.0265 387.3209 345.4592 387.4901 345.9521 387.3759 346.4361 387.0074 347.5448 386.234 348.5398 384.6625 349.0647 384.2367 348.8919 383.63 348.6456 382.3429 348.9616 381.6385 350.483 380.6335 350.0984 379.8549 349.3867 378.8303 349.6437 378.4571 350.2973 377.9548 351.8746 377.7365 354.0929 376.92 355.4912 376.5233 355.8388 376.1109 355.8699 373.2408 354.664 372.2155 355.2878 371.7191 356.2719 371.788 359.5137 371.4901 361.7098 370.8874 361.8204 369.1456 361.2192 368.2395 361.5812 367.7692 362.0394 367.4841 362.6762 368.5027 368.1636 368.4873 370.1131 367.808 369.1906 366.8912 368.4743 365.3823 368.7753 363.6427 367.9482 361.5804 366.1453 361.4361 365.335 360.8081 364.1664 359.5483 364.005 358.6158 361.3192 358.5971 360.0157 358.8476 359.0814 359.9073 358.1118 361.4905 358.5618 362.7738 358.0122 363.8301 356.5608 363.8586 355.5975 363.4914 355.3341 363.2897 353.9639 364.1654 352.7819 365.6963 352.2839 367.122 350.1744 366.9753 347.9264 367.3902 345.3173 368.7422 345.1185 369.2479 345.7159 370.6691 346.2941 372.0813 345.9061 372.7412 344.4625 372.3322 343.9912 372.2693 343.5669 372.7634 342.6283 373.3304 342.0719 374.0958 342.2195 374.7107 341.7026 374.8835 340.9511 374.5529 339.6994 374.9479 338.3782 375.4931 337.7699 375.8999 337.7099 376.5726 337.2098 377.5407 335.3873 377.6436 334.8324 377.5385 332.2856 377.214 331.1944 376.3915 330.1151 375.2059 329.2193 373.8235 328.6349 372.2869 328.8603 371.2919 330.7828 370.2825 331.971 369.2729 332.0503 368.0586 333.1232 367.3126 334.2778 367.3517 336.6485 366.0033 337.9647 358.6237 336.2392 357.9003 335.759 356.5572 333.484 355.8568 333.0395 354.9882 333.1016 352.6472 334.0708 352.4296 334.8533 352.5695 338.3474 353.06 338.7455 353.3067 339.5249 353.4178 340.9848 352.1577 343.3532 350.5751 345.3805 348.5781 346.7201 348.3491 347.4056 348.6231 348.0757 348.5223 348.5851 346.8285 350.7294 346.49 352.5321 346.7792 353.4901 343.6288 355.1722 342.9897 354.9075 341.1681 354.9405 340.3002 355.1985 338.5984 356.824 336.3126 357.0761 334.2725 360.307 334.0198 359.9861 334.0002 358.5824 333.7743 357.5926 332.6408 356.9281 332.3428 355.6009 332.5904 353.6161 333.0808 352.3659 333.3774 348.9249 332.8043 347.0726 332.8373 343.387 332.2087 340.7743 330.6187 337.7641 329.2741 336.7279 328.0355 336.9402 327.1999 337.3494 325.9674 339.0774 325.4125 340.3969 325.2469 341.9461 325.2623 345.1088 324.6542 346.8864 324.6028 347.9721 324.7762 348.7576 325.4482 349.0182 325.7002 349.525 325.225 351.0955 324.793 351.654 323.8973 353.6246 324.9488 355.0972 321.383 356.0899 320.9872 356.4259 320.9466 356.9037 319.7461 358.2015 317.9796 358.7631 313.6956 361.5025 311.1944 365.0645 308.4436 370.2369 307.3296 371.7036 304.3686 376.8492 304.2909 377.0577 301.7253 383.9299 299.9258 387.5848 298.5485 389.054 297.1633 391.5325 297.0396 392.2221 297.1238 392.9903 297.4348 393.6984 297.8384 393.975 297.6345 394.6404 296.7714 396.0298 295.2899 397.0766 294.4067 398.1777 293.8908 399.7651 291.0383 402.4639 290.2358 405.2346 286.9828 409.8241 286.3948 411.3509 286.1929 413.0576 283.5145 415.8356 278.6659 422.6727 274.9109 427.207 273.4459 428.2368 271.171 430.684 269.5952 433.4127 268.6998 435.4458 268.3962 436.7038 268.5588 438.0144 269.5139 439.612 270.4744 440.5693 270.4768 440.731 270.308 440.8083 268.0294 439.9933 267.3677 439.647 266.7692 439.5011 266.653 439.3977 266.5834 439.2142 266.3905 439.0822 265.933 439.1144 264.7293 439.0213 264.3061 438.6905 263.8411 438.8298 263.5599 438.8308 263.437 438.7192 263.4435 438.1129 263.3671 438.004 262.8838 437.3148 262.5018 437.0281 262.3618 436.8513 261.8181 435.5941 261.792 435.435 262.0501 435.0333 262.0743 434.8966 261.3001 433.5933 260.8609 433.1157 260.4745 432.8129 260.2109 432.6624 259.6587 432.5543 259.3759 432.4032 258.9961 432.0437 258.9267 431.8545 258.6195 431.4305 257.9674 431.1013 257.4659 430.5248 257.3267 430.1943 257.0189 429.8831 256.7149 429.689 256.2918 429.5898 256.1978 429.4875 256.1616 429.3246 256.3065 428.7266 255.7201 425.9655 255.7315 425.8031 255.9689 425.2538 256.2922 424.9045 257.1386 424.4588 257.3192 424.2604 257.3333 423.801 257.2363 423.3049 257.2788 422.907 257.7405 422.3019 257.8647 421.8045 257.8126 421.5772 257.521 421.3529 257.4982 421.1313 257.6088 420.894 258.2137 420.1882 258.3359 420.1333 258.6988 420.1678 258.8213 420.1073 258.9088 419.9749 258.9137 419.231 259.1799 417.9042 259.3291 417.3854 259.2012 417.0994 259.8305 416.1674 260.2641 415.8417 260.3058 415.4675 260.2191 414.8163 260.3602 414.1333 260.8576 413.2738 261.1755 412.9146 261.474 412.0713 261.4882 411.821 262.3523 410.7409 262.7331 410.4581 263.5487 409.2823 263.7681 409.1809 263.9289 409.0233 264.1551 408.5862 264.1203 407.8712 264.1667 407.7062 264.3483 407.4934 264.7573 407.2625 265.5472 406.0724 265.6344 405.2488 265.6262 404.472 265.5573 404.255 265.3457 404.0298 265.0583 403.9654 264.7694 403.3339 264.8657 402.7578 264.8007 402.1069 264.7338 401.8992 263.1575 400.701 263.0731 400.5406 263.0712 400.0334 263.0277 399.9185 262.2573 399.5462 261.9661 399.0068 261.5385 398.839 261.174 398.8198 260.5871 399.0833 260.1275 399.4204 259.8804 399.6455 259.716 400.0105 258.6538 400.5151 257.1648 402.3207 256.7112 402.9878 256.6514 403.1832 255.3905 403.6045 255.318 403.7254 255.3264 404.0672 255.0545 404.3874 254.2536 404.514 253.5642 404.1008 253.3445 404.093 253.0946 404.0842 252.1776 404.2727 251.7026 403.8518 251.4716 403.728 250.465 403.6784 249.5015 403.9838 248.2202 403.7544 248.1641 403.8963 248.0314 404.0235 247.8258 404.0427 247.5476 403.8278 247.2667 403.7857 246.9946 403.958 246.8304 404.5944 246.6902 404.7816 245.6573 405.38 245.481 405.4093 245.3668 405.2773 245.355 405.1371 245.5205 404.8139 245.4799 404.4108 245.2526 404.121 244.6766 403.9808 244.4558 403.8596 244.2029 403.5941 244.0722 403.3434 244.037 403.1724 244.0058 402.854 243.878 402.5783 243.7283 402.5176 243.4806 400.9533 243.4582 400.6681 243.0843 400.1634 243.12 399.836 243.3119 399.5605 243.5831 399.319 244.2096 399.0367 244.7432 398.6274 245.0189 397.9445 244.7564 397.4701 244.7429 397.3468 244.8132 397.1097 245.6346 396.7134 245.8055 396.4425 245.7929 395.6433 245.7154 395.3347 245.5942 395.1308 245.1686 394.6951 244.7789 393.6371 244.8327 392.7783 244.6654 392.2803 244.6959 392.0829 245.3572 391.1237 246.1483 390.7492 246.4238 390.1575 247.3065 389.8323 247.611 389.4558 247.6745 389.256 248.1845 388.8372 248.8234 388.5884 249.6405 388.0153 249.6483 387.7409 249.8044 387.4775 250.3884 386.7646 250.3832 386.5889 250.243 386.2101 250.3001 385.92 251.1089 385.0847 251.1735 384.8859 251.2452 384.194 251.3975 383.7437 251.7048 383.2292 251.778 383.0055 251.7528 382.2888 251.2049 382.0963 250.8908 380.9638 250.7385 379.4823 250.7121 378.5523 250.7429 378.1105 250.8682 377.7398 250.8703 377.5622 250.5171 376.8099 249.8852 376.0726 249.3982 375.5668 248.5779 375.0469 248.0871 374.5886 248.0232 374.4887 247.9733 374.0533 248.1826 373.2799 248.4173 373.1813 249.9472 373.7315 250.6946 374.0784 251.5397 374.2052 252.0542 374.087 252.2064 373.9437 252.4187 373.6874 252.4729 373.4067 252.6013 372.4247 252.6017 371.5093 252.683 371.3058 252.798 371.1489 253.2389 370.9168 253.6506 370.529 253.7804 369.2169 253.6812 367.6005 253.3876 366.8296 252.2912 366.4957 251.9171 366.1902 251.8997 365.733 251.826 365.5134 251.105 364.7417 250.5775 363.3414 249.8973 362.5885 249.4549 362.3415 249.2351 362.1165 249.2016 361.2564 249.4085 360.8564 249.4423 360.5836 249.326 360.3251 249.3147 360.0273 249.3873 359.9143 251.3647 359.4345 251.8118 358.9305 252.1668 358.7709 253.5303 358.5313 253.5936 358.4404 253.626 358.2257 253.6373 357.534 253.5074 357.1481 252.9797 356.5504 251.6075 355.569 251.3075 355.2875 250.9194 354.7225 250.9113 354.6346 251.3287 354.1902 251.3336 353.9897 251.2631 353.7237 250.8538 353.2334 250.6413 353.076 248.7698 352.5119 248.1951 352.2163 247.2804 351.4509 246.4441 350.751 245.6116 349.2859 245.6771 348.5066 245.7601 348.448 245.6626 348.0765 245.2858 347.5315 244.774 347.3815 244.5435 346.8873 244.1529 346.7415 243.9111 346.7439 242.9572 346.8202 242.5432 347.0592 242.3142 347.0221 242.1562 346.8771 242.0407 346.4416 241.9074 346.2428 241.72 346.0634 241.6009 346.0317 241.4134 346.0384 241.2949 346.1742 240.0013 346.3233 239.5569 345.943 239.3117 345.8266 238.7647 346.1325 237.8224 346.2011 236.8063 346.0321 236.327 346.1667 235.9188 346.0344 235.7983 345.8554 235.8756 345.669 235.5956 345.2045 235.0646 344.8643 234.6352 344.7536 233.7 344.3617 234.0203 343.6493 234.1799 343.5994 234.2783 343.334 234.1306 342.4855 233.6475 341.0384 233.4686 340.7854 233.3117 340.7008 232.8755 340.6823 232.3066 340.8561 231.7617 341.109 230.7237 341.0417 230.1214 341.3583 229.7601 341.4757 229.3764 341.4584 229.138 341.3689 228.5301 341.378 228.4799 341.4317 228.4021 341.8233 228.0156 342.1988 227.6345 342.353 227.4189 342.5698 226.6666 342.5834 225.3011 342.6078 224.8847 342.4051 224.7003 342.0257 224.565 341.9225 223.6941 341.9323 223.1605 341.7803 222.6313 341.1238 222.2785 340.9469 221.9996 340.0596 222.0871 339.8831 222.1087 339.7048 221.9078 339.336 221.7148 339.2006 221.0748 339.1112 219.7739 338.3347 219.549 338.0415 219.1617 336.9379 219.2761 336.5643 219.4229 336.3659 220.0148 335.8116 220.5039 335.488 220.7378 335.0098 221.3948 334.3369 221.6506 334.16 221.9115 334.126 222.1612 333.91 223.0171 332.6524 223.9768 331.8722 224.1221 331.6503 224.383 330.9529 224.6294 330.6065 224.7234 330.589 225.1222 330.7795 225.3615 330.6441 225.5899 329.6435 225.5258 329.1265 224.7758 328.4077 224.5639 328.3065 223.3906 328.4333 222.9651 328.256 222.818 327.9263 222.5173 326.0654 222.467 325.9934 222.4678 325.4671 222.5285 324.963 222.6474 324.6185 222.9194 324.1028 223.2026 323.8549 223.5846 323.6495 223.5847 323.4684 223.4869 323.1687 222.8764 322.5001 222.7028 322.4592 221.6553 322.4149 221.5056 322.4822 221.3399 322.5568 221.0081 322.602 220.5673 322.4826 220.4522 322.3497 220.4718 322.2371 220.6066 322.0396 220.4848 321.8217 219.1703 321.1513 218.6994 320.7071 218.6536 320.6281 218.6651 320.47 217.4678 319.9027 217.0353 319.8924 216.9482 319.9892 216.3502 319.8108 216.1082 319.5847 215.8402 319.0272 215.6068 318.7067 214.4722 317.9503 214.2582 317.8684 213.8359 317.7744 213.7061 317.8028 213.2504 318.2478 213.2554 318.9077 212.4915 319.0101 212.3381 318.9697 211.9692 318.6122 211.2745 318.3729 211.1176 318.3398 210.6989 318.4714 210.1914 318.4954 209.5569 318.2521 209.2836 318.048 209.1017 317.7906 208.9832 317.5031 208.9132 317.1542 208.9861 316.8553 208.9692 316.2525 208.6964 316.1476 208.5962 316.1572 208.5942 316.2173 208.1361 316.1474 207.9714 316.2551 207.6728 316.7047 206.7749 316.96 205.2957 317.2513 204.3886 317.7845 204.106 317.7558 203.9504 317.395 203.569 317.0429 202.7437 316.5631 202.027 316.3133 201.665 316.4438 200.9181 315.8405 200.7499 315.5665 200.3224 315.1482 195.9591 311.7707 195.4565 311.9541 195.5361 312.2576 195.0652 313.0112 194.4198 313.3127 194.0523 313.3163 193.6835 313.1742 192.9874 313.3637 192.8656 313.4373 192.4774 313.9415 192.2739 313.9572 191.943 313.7421 191.6878 313.4811 191.7667 313.2541 191.6658 313.0016 191.4126 312.6857 190.644 312.3619 190.4828 312.0847 190.1081 311.7421 189.7809 311.6985 189.2195 311.8087 189.0671 311.7453 188.6968 311.2734 188.749 310.8871 188.7073 310.6947 188.2949 310.4155 187.6258 310.2093 187.106 310.1462 186.718 310.4489 186.6623 310.7543 186.7621 311.0327 186.56 311.2845 186.2622 311.4197 185.4952 311.5131 184.9379 311.3227 184.4699 310.883 184.4082 310.7095 184.5367 310.4422 184.5403 310.3388 184.364 310.1373 184.2301 310.1235 183.725 308.2765 183.7185 307.7458 183.6279 307.5776 183.404 307.4468 182.909 307.3223 182.0701 307.3505 181.7293 307.154 181.1682 307.079 181.0282 307.116 181.0522 307.256 180.9108 307.5096 180.4882 307.9635 180.2802 308.1015 179.3263 308.1903 178.9219 307.8815 177.8958 307.7414 177.2907 307.9881 177.1389 308.2674 176.3609 308.9221 175.5337 309.1608 175.4624 309.084 175.1876 308.2267 175.1604 307.8214 175.1093 307.7227 174.707 307.3556 174.3786 307.3471 174.1235 307.5385 173.7556 308.2596 173.3204 309.3276 173.2871 309.9663 173.0971 311.1174 172.9781 311.3751 172.7537 311.5191 172.0184 311.3602 171.0231 311.4135 170.9436 311.472 170.8564 311.815 170.6689 311.8306 168.7035 311.146 168.3524 311.1992 168.1959 311.206 168.1198 311.1531 168.0153 311.043 168.0667 310.8323 168.1461 310.6853 168.1197 310.5647 167.7819 310.2966 167.43 309.7206 167.4671 309.5903 167.548 309.5933 167.4437 308.8611 167.1641 308.0776 166.736 307.6413 166.3302 307.5368 165.5172 307.3274 164.8385 306.9528 164.2543 306.8954 163.6909 307.1362 163.4044 307.6398 162.8831 307.533 162.6254 306.7699 162.663 306.2894 162.316 305.924 161.751 305.615 160.8414 305.4712 160.2027 305.6606 159.6263 305.952 159.438 306.1039 159.2036 306.4186 158.9723 306.4991 158.834 306.4552 158.4806 306.1405 158.34 306.1149 158.2474 306.1025 158.153 306.1346 158.102 306.1685 158.0314 306.2283 157.99 306.3159 157.8811 306.5386 157.2293 306.9434 156.8609 306.9993 156.6524 306.8325 156.5014 306.2074 156.5014 305.9173 156.5455 305.7247 157.0511 305.1047 157.0748 304.7666 157.02 304.6798 156.5157 304.5416 155.788 304.6058 155.3672 304.3553 154.9067 304.8578 155.3231 305.3243 155.3564 305.6071 155.2837 305.7825 154.7645 305.7437 153.7537 306.0057 153.3967 305.8912 153.42 305.8024 153.3213 305.6612 152.9321 305.3154 151.8771 304.7989 151.5178 304.6843 151.2481 304.6956 150.9991 304.5534 150.6847 304.2668 150.3456 303.6717 150.2704 303.4285 150.1014 303.2215 142.2102 298.1797 141.2038 297.5356 140.6862 297.1946 136.6629 294.6114 136.6555 294.6066 127.0428 288.3785 123.802 287.3879 120.2653 286.205 119.7702 286.0348 117.1008 285.2008 116.4477 284.9623 116.2553 284.8698 116.0262 284.8049 114.8203 284.3869 114.6457 284.3324 109.1882 282.5726 109.1501 282.5611 88.0494 275.6207 84.3852 274.3399 74.3116 271.0656 71.5049 270.079 62.1857 267.0243 48.3852 262.3556 48.2209 262.2954 47.3649 262.0609 46.3706 261.7241 28.0231 255.4829 27.9521 255.4273 27.9465 255.2975 27.9795 255.225 28.1452 255.0863 28.2314 254.7295 28.1707 254.4533 28.1168 254.3248 28.0871 254.1314 28.1898 253.842 28.4179 253.7153 28.4977 253.5547 28.5235 252.9187 28.363 252.331 28.283 252.2538 28.2765 252.2545 28.158 252.2519 28.0334 252.1857 27.9939 252.0249 28.0075 251.8328 27.9991 251.6933 27.6756 251.2101 27.2543 250.8598 26.9995 250.4735 26.9473 250.0289 26.9483 250.0244 27.2324 249.1522 27.0724 249.0203 26.948 249.0004 26.5659 248.5844 26.1266 247.8158 25.9433 246.8214 25.8109 246.5234 25.3809 246.2114 24.9673 245.0558 24.8942 244.4176 25.0193 243.4735 25.0015 243.1651 24.6293 241.4523 24.3515 241.0162 24.3283 240.7692 24.3317 240.6929 23.588 240.6792 23.2742 240.5354 23.2441 238.7576 23.1645 238.2354 22.3258 237.8618 22.1807 237.6952 21.9576 237.2622 22.1028 236.9208 22.3646 236.7381 22.4504 236.5876 22.4226 236.4566 22.0236 235.9426 21.2436 235.391 21.0391 235.082 20.3863 233.3212 20.1501 232.1991 20.1623 231.9497 20.0093 231.6845 19.6405 231.4309 19.4638 231.4243 18.8295 231.6444 18.6766 231.6133 18.6223 231.3805 18.6426 231.1973 18.8172 230.7347 18.738 230.4877 18.6203 230.4617 18.1424 230.82 17.4369 231.0458 17.1765 231.0896 16.9721 231.0037 16.0968 231.0449 15.942 231.2107 15.7567 231.2938 15.5123 231.2863 15.3026 231.1254 15.3252 230.9483 15.3345 230.7884 15.2094 230.6207 15.0185 230.6366 14.8551 230.6005 14.8134 230.4734 14.8366 230.2873 14.8587 230.1192 14.8673 229.9875 14.481 229.4378 14.7836 228.8404 14.734 228.6434 14.3221 228.1442 14.198 228.2277 14.1303 228.4471 13.6653 228.9025 13.4435 228.8929 12.7678 228.5533 12.6174 228.6999 12.5992 228.8445 12.2149 228.9681 11.7012 228.9936 11.4178 228.8284 11.3047 228.8349 10.8221 228.9884 10.6924 229.1104 10.6871 229.1101 10.3968 228.9348 10.3557 228.3209 10.6979 228.0365 10.9859 227.3575 11.2048 226.2149 11.1743 225.8573 10.3041 224.827 9.8843 224.8999 9.6962 224.8115 9.5804 224.5363 9.647 224.2263 9.2516 223.7764 8.7702 223.6356 8.0346 223.8748 7.6847 224.5633 7.4203 225.823 7.3501 225.9242 7.2064 225.9531 7.021 225.8746 6.8352 225.4724 6.7091 225.4262 6.6422 225.4677 6.2715 225.2815 5.4531 225.3593 5.0057 225.5227 3.7209 226.2337 3.1213 226.3472 2.9432 226.149 2.9347 225.812 2.6813 224.8878 2.5694 224.6481 2.5318 224.6459 2.3776 224.6369 2.0583 224.165 1.8864 223.4947 1.2812 222.7406 1.2684 222.7398 1.2189 221.9086 1 221.4815 Z"/>
</g>
</svg>