<?xml version="1.0"?>
<svg xmlns="http://www.w3.org/2000/svg" version="1.2" baseProfile="tiny" width="800" height="710" viewBox="0 0 800 710" stroke-linecap="round" stroke-linejoin="round">
<g id="cb_2018_us_state_5m">
<path d="M 2.1211 1 4.3535 1.1217 11.2081 1.449 11.2149 1.4494 16.52 1.6563 20.0963 1.8925 24.4015 2.1205 26.6208 2.2465 29.1529 2.3896 29.9087 2.4321 30.0586 2.4441 36.5812 2.7435 42.8529 3.0271 47.6784 3.2594 47.6819 3.2596 49.5527 3.3801 52.1372 3.4962 65.4092 4.0622 65.7282 4.0788 65.8827 4.0868 66.3629 4.1119 66.4341 4.1156 66.5649 4.1233 66.5861 4.1246 67.6499 4.175 72.0952 4.3847 73.2073 4.4414 77.125 4.6238 78.1262 4.681 78.3076 4.6896 78.3493 4.6979 78.7089 4.7149 79.8275 4.739 81.9067 4.823 83.1659 4.8782 92.1561 5.3112 95.0874 5.3688 96.4091 5.4307 101.0919 5.6486 102.6566 5.7195 103.1975 5.7551 111.7 6.0987 112.1393 6.1449 113.1622 6.199 117.4921 6.3937 124.165 6.6782 124.3677 6.6831 128.1307 6.838 134.0183 7.0706 138.4471 7.2078 144.4856 7.37 144.5236 7.3708 144.9323 7.3871 145.079 7.3904 145.4494 7.4025 150.6442 7.523 152.7491 7.5511 152.815 7.5517 154.0455 7.5606 157.5827 7.6223 165.9034 7.7476 168.4201 7.7855 168.4376 7.7823 169.8112 7.8099 171.4471 7.8356 173.3001 7.9008 174.1701 7.8905 180.5915 7.9566 197.0396 8.1086 197.2597 8.1265 198.2772 8.1301 198.3051 8.1306 203.6768 8.1186 205.8497 8.105 210.3636 8.0697 211.8672 8.0761 214.6653 8.0543 214.8089 8.0425 214.9875 8.0243 215.078 8.0468 215.1516 8.0409 217.6838 8.0287 219.2087 8.0217 219.3907 8.0141 219.5062 8.0053 224.7124 7.9941 226.1956 7.9881 228.7835 7.9813 229.1615 7.9575 233.9557 7.98 234.435 7.9821 236.7665 7.9989 237.6358 8.042 238.2767 8.0473 239.3141 8.0608 240.0032 8.0559 243.7451 8.0707 245.2877 8.0525 246.2497 8.0477 247.0576 8.041 247.3653 8.0486 247.722 8.0499 254.5826 7.9614 258.2149 7.9105 258.259 7.9174 258.3256 7.9078 258.8434 7.8893 259.06 7.9095 259.2976 7.9053 259.6372 7.8989 260.3018 7.8893 262.6446 7.9244 262.7111 7.9146 263.1171 7.9124 269.7857 8.0502 269.9712 8.0381 272.7126 8.1057 280.5649 8.1225 283.9379 8.1279 287.182 8.1346 293.8235 8.1751 308.3702 7.9765 312.7174 7.836 312.8586 7.8307 314.2316 7.7805 329.1231 7.4074 331.0055 7.3695 335.4395 7.3739 337.0416 7.3541 338.2791 7.3135 340.1602 7.3474 340.8178 7.3219 343.4184 7.3139 344.2437 7.3125 344.2357 7.3005 352.4688 7.2822 354.2372 7.2419 357.4575 7.1966 360.3409 7.1553 360.7092 7.1677 366.2409 7.0242 366.3953 7.0203 373.1097 6.8323 384.2597 6.4163 384.5153 6.4209 384.5971 6.4137 386.9371 6.3506 387.8534 6.3609 396.4817 6.17 399.847 6.0495 399.8505 6.0493 402.1027 5.979 402.1307 5.9651 405.9114 5.8574 413.166 5.6797 415.3657 5.6281 417.222 5.6005 417.8636 5.585 419.772 5.5089 429.4868 5.2759 429.8958 5.2357 431.0229 5.2063 431.1232 5.2164 432.6161 5.1188 432.8046 5.137 437.2605 4.9541 440.8674 4.8264 444.0932 4.7058 446.8049 4.6361 447.3398 4.5763 447.7847 4.5266 456.0409 4.1844 460.2232 3.8905 461.1145 3.824 462.3788 3.7639 463.9899 3.6871 464.544 3.6604 465.6453 3.5932 472.2586 3.2131 473.3291 5.0619 473.7161 5.5184 474.2733 6.0481 476.1076 7.0909 476.9924 7.8102 477.2828 8.1963 477.3992 8.4994 477.3622 8.8228 476.6982 10.6558 476.6978 11.0614 476.7926 11.4177 477.0412 11.7995 477.8615 12.4604 479.1142 12.7715 481.0575 13.0228 482.9587 13.5655 484.4681 13.865 484.8501 14.0468 485.0655 14.271 485.193 14.5356 485.3136 15.3095 485.2357 16.4977 484.8522 17.919 484.8367 18.3298 484.9607 18.9865 485.1827 19.435 485.4822 19.7911 485.9672 20.1573 486.4926 20.5109 488.0989 21.2693 488.5495 21.6799 489.0161 22.4513 489.4449 23.6917 489.554 24.3677 489.6629 24.6468 489.8027 24.9309 490.4655 25.7451 491.2882 26.2546 491.7454 26.4499 493.0508 26.7775 494.0914 26.8623 495.8628 26.7138 496.1488 26.7688 496.2744 26.8871 496.42 27.1178 496.519 27.742 496.4993 28.0785 496.4107 28.3285 496.1737 28.6074 495.5023 29.2128 495.3143 29.51 495.3096 29.891 495.4073 30.1256 495.8405 30.5064 496.3243 30.6226 496.9155 30.5875 497.0104 30.717 497.0272 30.9505 496.7575 31.6909 496.1647 32.7115 496.1112 33.2001 496.1903 33.7031 496.4064 34.1056 496.6745 34.2742 497.1364 34.4177 497.6506 34.4347 498.2294 34.699 498.4226 34.8888 498.5042 35.0703 498.6777 35.1948 499.5191 35.4293 500.038 35.3461 500.4821 35.0526 500.6381 35.0509 500.715 35.1193 500.7027 35.3343 500.6318 35.7117 501.1368 38.1768 503.4006 37.9446 506.1888 37.7613 508.0163 38.3183 508.4092 38.5519 508.7531 38.9583 507.9217 39.9301 507.5961 40.1794 506.4457 40.7775 505.8097 41.3057 505.6397 41.5142 505.4659 41.9292 504.9608 42.772 503.8223 44.5105 503.3141 45.7357 502.9777 47.5876 502.7325 48.3677 501.1055 52.0525 500.6743 53.1886 500.3528 54.393 500.3186 54.8465 500.3474 55.665 500.6329 56.4456 500.7022 56.8243 500.6419 57.2608 499.8707 58.9156 499.7745 59.122 499.4551 59.386 499.1806 59.7337 498.8841 60.4476 498.8094 60.8372 498.8752 61.1431 499.0761 61.5387 499.0891 62.6755 498.7913 64.0204 498.7638 64.9735 498.8422 65.6751 499.0408 66.4143 499.1091 66.6687 498.9942 67.0773 498.5259 67.7367 498.3516 68.1286 498.1415 69.3167 498.1333 69.7041 498.2781 70.9443 498.7366 72.8992 498.727 73.1047 498.3556 74.1909 498.3405 74.5251 498.5391 77.4521 498.6754 78.3891 499.078 80.494 499.7145 83.121 500.1064 85.0648 500.3883 86.1825 501.0869 88.2484 500.5026 91.4729 501.4089 93.4961 501.8016 94.0854 502.614 95.6628 503.5834 97.7487 503.8209 98.4665 503.8986 98.9838 504.0648 99.4818 504.2604 99.8095 504.7516 100.1037 504.8332 100.2374 505.3408 101.4144 505.9205 102.3328 506.2327 103.2154 506.9145 104.4662 507.4488 105.2092 507.6404 105.3818 508.4039 106.0693 508.7942 106.5214 509.2674 107.2512 509.5675 108.0541 509.6426 108.9109 509.5263 109.7702 509.4118 110.0273 508.4739 111.1325 506.7853 113.3212 506.4023 114.9436 506.3026 115.7244 506.4875 116.8816 507.7479 120.6851 508.1255 121.4411 508.5309 121.859 510.3127 123.0382 511.2958 123.5658 512.2917 124.3751 513.7253 125.2129 514.6527 125.8587 514.9898 126.2249 515.852 127.5122 516.3993 128.6715 516.6299 129.475 516.6142 129.854 516.2589 130.7313 516.1675 131.4193 516.1611 132.9464 516.2649 133.9014 516.1613 134.3273 516.0049 134.6475 515.7209 136.0067 515.7376 137.9269 516.0103 138.4598 517.8066 140.5479 518.6969 141.4389 520.3307 142.7951 521.9736 143.978 523.3029 145.1444 523.4622 145.2842 523.8088 145.9435 524.8453 146.6769 526.0896 147.3718 526.9474 148.032 528.0723 149.3625 528.8315 150.5753 530.2299 151.8065 530.5758 152.3495 530.8627 152.9974 531.1448 153.4535 532.5711 154.8482 533.2856 155.3373 534.0812 155.707 537.7333 157.1923 538.2096 157.5604 538.6832 158.2414 539.0912 158.9849 539.1436 159.1895 539.472 160.7308 539.7144 162.6213 539.8903 163.3288 540.4702 164.2968 541.0771 165.1349 541.6765 165.8629 542.3152 166.2298 544.8828 166.741 546.3444 166.893 548.0059 167.2375 548.9078 168.6695 549.7143 170.5193 550.5083 171.9517 551.0477 172.6929 552.3696 173.9315 552.6422 177.076 553.007 177.8779 553.7787 178.9 555.5631 180.9727 557.3234 182.4403 558.7191 183.3442 559.7105 184.1047 560.8954 184.7986 562.1778 185.1613 562.8234 185.4843 563.4445 186.1105 564.0408 186.4378 565.2359 186.8714 566.3254 187.0829 567.2273 187.608 567.4368 187.7948 567.6322 188.0894 567.7115 188.2901 567.8415 188.6187 568.0591 189.4136 568.6947 190.1064 569.1923 190.4676 569.6258 190.6827 570.3794 190.9358 571.1719 191.0981 571.5476 191.3079 571.7845 191.5907 571.8198 191.9228 572.1314 192.3797 572.8939 193.1358 577.0478 195.5157 578.4419 196.4272 579.3322 197.1534 581.609 199.688 582.1464 200.1638 584.2443 201.2632 584.9528 201.8012 585.1703 202.1872 585.3021 202.8062 586.1357 203.6725 587.1114 204.3228 587.3299 204.6667 588.1007 206.2668 590.0483 208.4703 590.3753 208.6647 591.5443 208.9856 592.1595 209.4031 592.6458 209.8856 593.0134 210.6032 593.7075 213.4204 593.7632 213.8113 593.7041 214.7435 594.2952 216.2971 594.3668 216.8325 594.3682 217.3989 594.2906 218.0037 594.3092 218.8285 594.7055 220.6788 595.1944 222.0418 595.2672 222.5686 595.4158 225.2994 595.5763 225.9487 595.9243 227.125 596.2045 227.7953 596.5068 228.2975 597.1805 229.1685 598.0766 230.6468 598.2743 230.973 598.4693 231.6165 598.9167 233.5994 598.8401 235.2159 598.756 235.4812 596.7004 238.062 596.6136 238.2753 596.5149 239.0199 595.3009 240.348 595.181 240.58 595.1804 240.824 595.4456 241.9207 595.8991 242.6082 596.8066 244.6148 597.8195 246.5012 598.1192 247.1841 598.2751 247.9219 598.4113 248.2213 598.7487 248.7696 598.9083 249.029 599.1046 249.2203 599.5872 250.274 599.8246 251.4596 599.877 254.2645 599.9438 254.8268 600.463 256.3275 600.7873 256.9535 601.2658 259.0893 601.2665 259.0923 601.5466 260.0287 601.7912 260.4925 602.3001 261.2068 602.8007 261.8307 603.4306 262.4376 604.4055 263.0069 604.8987 263.6618 605.8211 265.5349 606.2317 265.9815 609.8278 267.9974 611.2755 268.892 612.074 268.9823 613.2858 268.8791 613.5151 268.8216 614.5768 268.5552 615.7391 268.0366 615.9557 267.8721 617.4584 265.9949 619.1098 264.1586 620.2321 263.5289 621.0822 262.3382 622.599 259.9157 623.0769 258.5657 622.9712 257.6894 622.979 257.4288 623.081 257.0695 624.2612 254.8376 624.7685 254.3707 625.4008 253.9713 626.7724 253.4142 626.7746 253.4133 628.0534 253.4468 628.8147 253.7123 629.896 253.9557 631.2829 253.9949 632.0893 254.0961 633.3561 254.4542 634.5669 254.9842 634.8853 255.1235 639.3118 257.2736 640.8775 258.3583 642.0064 258.8943 642.8014 259.1698 643.7835 259.729 644.1842 259.811 645.0677 259.8103 646.8546 259.6682 647.6003 259.7016 647.7976 259.7355 648.5111 259.8581 649.3639 260.1773 650.0541 260.0966 650.4082 260.1302 650.864 260.295 651.9002 260.9634 653.2712 261.5394 654.1546 262.0508 655.3169 263.087 655.8428 263.6052 657.2639 265.0051 657.5538 265.1361 658.1406 265.1985 658.5509 265.3726 661.0311 266.6466 662.8453 268.0135 667.4735 270.6355 667.9642 271.5069 668.0241 272.4416 667.4434 275.8946 667.1215 277.3302 666.5065 278.5277 663.7445 280.8994 661.4298 282.5534 661.4111 282.585 660.8674 283.5036 660.4372 284.4812 660.3159 285.3745 659.4959 286.5612 658.5661 287.1827 656.9444 288.8799 656.4052 289.8293 656.2684 290.4429 656.2434 290.5547 656.1964 291.0777 656.2077 292.029 656.5766 293.4015 657.4434 294.7981 657.4493 294.8076 658.0022 295.3763 658.3093 295.6922 659.4112 297.6298 659.9018 299.0605 660.0746 299.8189 660.1035 299.9458 660.1119 299.9916 660.5746 302.5129 660.5745 302.528 660.5729 303.8943 660.4946 304.6023 659.8787 307.3188 659.6366 307.8911 659.0517 309.2731 658.5654 309.9758 657.8083 310.8845 657.4523 311.1807 656.9151 311.6277 656.1433 312.4446 655.5046 312.8131 655.2581 313.034 652.4088 317.7531 652.2518 318.0592 651.3931 319.7335 651.1016 320.3015 650.7103 321.5081 650.7087 321.5144 650.163 323.7313 650.0393 324.463 649.8998 325.2878 649.5034 326.8012 649.4076 327.8318 649.0373 328.9303 648.8947 329.8728 648.5385 332.2268 648.4218 333.396 648.0075 334.1732 647.2688 335.9864 644.1141 339.897 643.3818 340.4664 641.9482 342.1335 641.6717 342.455 641.6294 342.5232 641.3238 343.0155 640.9029 343.6765 640.1727 346.3416 638.8115 349.4575 638.522 350.4925 638.3528 352.0618 638.5148 354.9744 638.2963 356.4988 638.3266 358.4322 638.602 359.6427 638.7421 360.6349 639.159 362.4111 639.2693 363.2916 639.6886 365.3847 640.2557 367.1876 640.6877 368.2558 640.7816 368.4371 640.9743 368.8089 643.4252 372.4246 643.7593 372.778 644.8894 373.6708 645.5616 373.9832 646.3132 374.1015 647.5473 374.5832 648.7367 375.291 649.6834 376.1906 650.6922 377.2154 653.4851 381.7234 653.5078 381.76 653.8023 382.1392 654.6922 384.0189 657.7045 386.7557 659.1248 387.6667 659.3989 387.8425 663.4074 390.4117 664.4529 389.6626 664.674 389.5738 665.0402 389.5885 666.7493 390.4225 668.4365 391.4058 668.7642 391.8115 668.9953 392.5343 669.059 393.1968 669.0112 394.2094 669.0743 394.7111 670.1681 396.064 671.0217 396.8345 673.0781 398.1195 673.7521 398.4186 674.6353 398.4487 675.6771 398.1804 676.5519 398.1771 677.2429 398.3636 677.501 398.5382 677.7364 398.9018 677.9748 399.4349 678.0643 399.8213 678.2579 400.1729 678.5372 400.4525 678.9302 400.6975 680.58 401.3901 683.5876 405.1602 684.6066 405.9952 684.9754 406.1908 686.2858 406.3134 687.175 406.1985 690.061 405.5288 691.5949 404.9538 692.143 405.7259 692.2572 406.3294 692.3895 406.55 692.6438 406.6103 693.6931 406.4468 693.7438 407.0898 693.681 407.3514 692.853 408.3923 692.1983 408.6103 691.0738 409.54 689.5974 409.6015 689.3037 410.5048 688.579 410.9706 687.806 411.7185 687.9209 412.867 687.9973 413.1038 688.2482 413.4656 690.6962 418.3177 690.9336 418.571 692.461 419.5142 692.5604 419.5756 694.2952 420.1453 695.4937 420.2706 696.8827 420.2044 697.4235 419.9157 699.3048 418.6376 699.8796 418.0531 700.9983 416.4522 701.4725 415.919 702.8817 414.7934 703.6323 414.5278 703.8923 414.5781 704.6804 415.0768 707.476 417.1602 708.6742 417.8511 709.2347 418.0604 709.3991 418.3414 709.4669 419.1766 709.2183 419.6189 709.1667 420.0413 709.7237 421.4252 710.0211 421.7929 710.9338 422.5831 711.4436 422.0529 711.7159 422.2286 712.3921 422.4811 713.493 422.5014 713.8889 422.6625 714.4626 423.113 714.8626 423.294 715.3613 423.1833 716.5825 423.1557 717.0135 423.6704 717.4839 424.4221 717.9 424.9357 719.3882 426.328 721.2004 427.6421 721.9726 427.9989 723.6623 428.9534 724.3099 429.352 724.7087 429.6588 725.2974 430.1118 726.0249 431.49 726.3592 431.8785 726.4818 432.1677 726.5245 432.9745 726.4322 433.7909 726.1091 434.9093 725.8448 435.5797 725.6823 436.3077 725.9466 437.2072 726.0126 437.432 726.2878 437.7373 726.892 438.0785 727.9838 438.3849 728.478 438.2762 729.9409 438.2816 730.5796 437.9008 731.0582 437.7349 731.8727 437.6178 731.983 437.6993 732.0429 437.8483 732.0294 438.4476 732.1121 438.7418 732.4995 439.0851 732.9521 439.1251 733.7368 439.5909 734.4615 440.122 735.1447 441.5265 735.6674 442.445 736.1598 443.0819 737.3677 443.6883 738.2025 443.9502 741.6329 444.784 742.5124 444.8667 743.2123 445.1351 743.6803 445.422 744.3363 445.9711 744.6447 446.3971 744.9382 447.0629 744.9563 447.7593 744.7487 448.4429 744.521 449.7704 744.4955 451.5958 744.633 452.4029 744.6635 453.2076 744.5171 453.4833 744.4589 453.88 744.7329 454.6037 745.3772 455.3032 745.8905 456.3161 748.4983 458.9792 749.4361 460.2213 749.6811 460.7223 749.7642 461.112 749.7658 461.5374 749.6026 462.2091 749.1833 462.6697 748.5932 463.0141 747.6265 463.1584 745.7258 462.6004 745.1882 462.5151 744.8745 462.5728 744.4858 462.8547 744.3725 463.1029 744.3259 463.4396 744.329 464.4863 744.3296 464.6971 744.3317 465.3984 744.3342 466.2387 744.4685 467.2983 745.0388 469.8171 745.1204 470.0786 745.6398 470.9444 746.2667 471.7668 746.8498 472.7386 747.1999 473.482 747.5475 474.6998 748.2858 476.3555 750.4049 479.7595 750.9547 480.4963 753.4957 482.9319 754.4441 484.1198 754.9214 484.8608 755.6584 486.426 756.7505 489.3645 757.2245 490.936 757.3888 491.7066 757.443 492.3816 757.3585 493.4801 756.7298 497.242 756.5613 497.8925 756.208 498.6563 755.8306 499.0701 754.447 499.7241 753.5797 499.9353 751.1672 500.1852 750.0046 500.6093 749.7992 500.7413 749.4315 500.9775 749.3945 501.023 749.1745 501.2938 748.7228 502.3162 748.2597 502.8384 747.1806 503.7675 747.0014 503.9884 746.7567 504.5235 746.5222 505.613 746.4748 506.298 746.3552 506.9098 746.1332 507.4268 746.0605 507.8414 746.0854 508.4327 746.2619 508.9761 746.6659 509.6933 747.5768 510.9884 748.1449 511.7068 748.8918 512.4909 749.7155 513.5633 749.8593 513.5291 751.0135 513.2549 752.0707 513.1739 753.0389 513.4245 753.2836 513.5613 753.5204 513.8477 753.599 514.0899 753.6712 514.774 753.6247 515.1172 752.5923 517.9941 752.5939 518.5534 753.2706 520.8107 753.3885 521.3953 754.1465 523.1201 756.4541 527.1635 756.8743 528.5614 758.1174 530.6473 759.5392 532.6243 759.8866 533.0032 760.4251 533.4765 762.1787 534.6633 762.8542 535.2112 763.3486 535.8416 764.0596 537.1503 764.4809 538.464 764.4961 539.2971 764.1574 540.8442 763.4507 542.8249 763.4334 543.2274 763.5595 544.279 763.6595 544.5535 763.9569 545.0702 764.3856 545.5785 766.375 546.9623 768.4044 547.6055 770.2469 548.4004 771.2672 548.9562 771.9953 549.4414 772.5679 549.9929 775.1634 552.4917 776.8337 552.9744 777.3665 552.6759 777.9186 552.2108 778.3102 551.752 778.6232 551.1659 779.2678 548.7727 778.9347 547.5882 778.1384 546.7877 776.7023 545.6927 775.0331 545.0949 773.7644 544.4363 773.3375 544.0545 772.9995 543.6259 772.7375 543.1227 772.5432 542.4957 772.7992 540.8792 772.8616 540.6802 774.547 540.9769 775.8155 541.0268 775.8444 541.1678 776.2279 541.2447 778.1728 541.2405 778.7326 541.3352 779.3036 540.0962 780.5119 542.2386 781.4936 544.4961 782.0361 545.333 783.1166 546.2469 785.6748 547.8501 786.2144 548.4271 786.5197 549.098 787.0041 550.8725 787.0569 552.449 787.4683 553.9346 788.3109 554.8989 789.3352 555.2667 790.2229 555.3252 791.2184 554.9106 792.6471 554.1122 793.3455 553.8574 793.7473 553.7995 794.6998 553.3598 795.1886 553.1568 795.6522 553.1041 796.4892 553.3225 796.8977 553.5447 797.5949 554.0985 798.442 555.1212 798.8719 555.8971 798.9608 556.378 799 556.9198 798.8399 559.0513 798.8395 559.0558 798.6977 559.8006 797.914 562.7591 797.0866 567.8099 796.8359 568.5195 796.0491 570.1932 795.4848 572.4601 794.8001 574.0332 793.6114 574.1067 792.8986 574.2164 792.4481 574.7382 792.1904 574.8702 791.2861 574.8988 790.8551 575.0688 790.494 575.345 790.0545 575.9787 789.9411 576.1659 789.8679 576.6624 789.9843 578.932 789.9231 579.4927 789.9977 579.9485 790.175 580.3503 790.4821 580.861 791.0019 581.7253 791.3356 582.1045 792.2902 582.7852 792.9113 583.0374 794.3487 583.1045 795.6987 583.0751 796.2275 583.1406 796.9018 583.4797 796.9081 583.4874 797.2986 583.9624 797.7737 584.9373 797.8864 585.4219 797.8516 586.1701 797.5697 587.3705 797.1995 588.1449 796.7615 588.6379 796.2382 588.6618 795.6085 588.6456 794.7564 588.1524 793.5927 588.0568 792.9518 588.1251 791.7177 587.6067 791.4463 587.6409 790.1826 588.1987 789.5847 588.6027 788.7554 589.6176 788.0283 590.8412 787.8111 591.6462 787.7017 592.9462 787.7698 593.808 787.9449 594.4304 788.3883 595.033 789.8797 596.6345 791.0872 597.7086 791.7667 598.4643 791.9694 598.9734 792.0146 600.096 791.8485 600.6534 791.5626 600.9812 791.9541 601.0646 793.1682 601.8715 792.5225 602.8492 791.3343 604.374 791.3273 604.3829 790.3027 605.2975 789.7771 605.8654 789.2146 606.6708 788.623 607.7753 788.4579 608.2856 788.2796 609.4386 788.1562 611.9907 786.9197 615.3272 786.4624 615.9509 785.2827 617.0334 784.161 617.4641 781.4911 617.8449 781.2838 617.8212 780.2725 617.2794 779.8104 616.9149 778.8894 615.978 776.8766 613.5872 775.9797 612.0206 774.4355 609.6206 773.8267 608.8834 772.7364 607.8267 772.6309 607.8292 771.8367 607.8474 770.6494 608.0808 769.0935 608.5248 767.9988 609.0802 767.3489 609.7494 766.8267 610.5527 766.7234 610.8402 766.5495 611.7318 766.3092 614.3434 766.0854 615.5059 764.5847 619.2316 764.5121 619.7281 764.5112 620.4116 764.3275 621.8979 763.5385 624.0975 762.2464 628.6104 761.9661 629.4079 761.5972 630.1128 760.8487 631.2892 759.9664 632.4602 758.572 634.042 758.0185 634.5411 757.1271 635.0526 756.6735 635.2133 755.742 635.2723 755.1447 635.162 753.9334 634.6219 753.3659 634.0406 753.0327 633.3461 752.9101 632.8742 752.8757 632.4538 752.9556 632.0326 753.7148 629.5142 753.8609 629.1202 754.2027 628.3972 754.8306 627.6191 755.381 626.5777 755.8121 625.4052 756.1132 624.0674 756.1381 623.1126 755.8021 621.4841 755.0529 619.5026 754.3056 618.2549 754.0766 618.0222 753.5816 617.7236 751.6849 617.0964 749.9067 616.9234 749.3815 616.8028 748.9271 616.5899 748.2771 616.4622 746.4492 616.6092 746.0022 616.7118 745.212 617.1681 744.5584 617.7509 743.9532 618.501 743.527 619.2099 743.1871 620.1561 743.0031 621.0135 743.0601 621.8136 743.2178 622.2622 743.7772 623.3801 744.5028 625.1298 744.7639 625.6337 745.2835 626.3964 746.7393 628.2017 747.2306 629.2638 747.8408 630.2422 749.348 631.7482 749.6107 632.1445 749.7665 632.638 749.7789 633.9291 749.6422 634.7111 749.3707 635.5425 749.1654 635.945 748.92 636.3281 747.2906 637.9119 746.9906 638.3494 746.8044 638.9467 746.7694 639.5945 746.8168 640.1486 746.96 640.665 747.2089 641.2066 749.4023 644.1531 750.8733 646.4929 751.3451 647.4805 751.4619 647.9817 751.4484 648.203 751.0861 650.321 750.4203 652.0754 749.982 652.6741 749.4615 653.1678 748.8811 653.5595 748.1168 653.8522 747.2649 653.9845 745.3554 653.9009 742.7176 653.2759 740.3806 653.2522 739.7515 653.3868 739.1397 653.6807 738.5233 654.3681 738.064 655.3855 738.0372 656.3897 738.1726 656.7353 739.1417 658.4909 741.9143 660.2882 742.6074 660.7996 743.3523 661.547 746.3906 663.0728 747.0124 662.9 747.331 662.6308 747.5508 662.621 748.221 663.0739 748.4546 663.387 748.7416 664.1048 748.9083 665.4402 748.9216 666.8552 748.3848 667.4483 748.0935 667.6002 747.7095 667.6748 747.186 667.5814 746.6063 667.2712 746.0559 667.1817 745.5355 667.2177 745.1944 667.3576 744.1191 668.3461 743.6793 668.6024 742.4829 669.0658 740.629 669.3347 740.1168 669.3165 739.5396 669.1897 737.8811 668.6218 736.3303 667.9369 735.6575 667.7416 734.3747 667.5957 731.2301 668.0602 730.2132 667.9032 729.5742 667.5278 729.0858 667.437 728.6834 667.7827 728.5386 668.1256 728.1037 668.9014 727.8944 669.4467 727.8752 669.7176 727.9185 669.9568 728.0211 670.1225 728.6326 670.8171 729.5294 671.6896 730.4842 672.4606 731.1867 673.0278 733.1329 674.4097 734.3012 675.1398 735.5816 676.2405 736.5813 677 737.5176 677.5189 738.2263 677.8429 738.9303 678.3063 740.3583 679.6103 741.1469 680.6016 741.9891 681.9716 742.2844 682.7812 742.386 683.7021 742.3627 685.0005 742.2698 685.9143 742.166 686.3024 741.5782 687.1508 741.2184 687.516 739.6106 688.4329 738.4041 689.3421 738.0102 689.5502 736.2025 690.1014 734.4034 690.8452 733.3173 691.3883 732.6084 692.0179 731.8525 693.1453 731.7122 693.4781 731.5192 695.042 731.3004 698.211 731.0287 700.9297 730.8857 701.6718 730.4453 703.0242 729.1191 704.9761 728.871 705.447 728.7329 706.0703 725.4904 706.2237 724.9366 706.2532 724.926 706.2466 720.9177 706.3688 720.8828 706.3717 708.64 706.8571 707.9482 706.8865 707.8868 706.8877 707.8247 706.8919 705.2306 706.9841 704.6511 707.0105 704.6226 707.0115 697.4351 707.261 697.3712 707.2627 697.2241 707.249 696.698 707.3126 695.7999 707.3091 679.5202 707.8662 676.7303 708.0209 676.6085 708.018 672.7045 708.1558 656.5826 708.6924 656.5644 708.693 656.1391 708.7062 650.3023 708.8974 649.908 708.9276 646.6699 709.014 645.5324 709.0595 648.7267 704.2029 650.1432 701.0677 650.8291 697.9246 652.6328 696.6545 652.5001 694.4396 654.8583 693.1179 655.4794 690.8469 657.4173 690.1177 660.2485 688.5659 662.6833 686.6076 662.6409 683.5904 664.4005 679.6197 665.7282 680.0108 666.8297 678.4229 668.1796 677.1436 668.9771 676.3875 672.2755 674.9305 673.9195 672.8266 675.876 672.4944 675.8747 670.3395 677.1571 666.905 680.9875 665.7737 681.535 663.2723 683.3124 661.0035 681.2766 658.666 681.5109 655.2263 683.1639 652.7432 682.7302 648.2504 680.9118 646.0743 677.3123 645.6587 674.6133 644.0402 673.0113 642.6439 674.1515 640.7485 673.1699 637.203 673.0175 635.3254 670.8762 634.0291 670.7771 633.9691 671.502 631.8033 671.4302 631.5768 671.6637 631.3992 666.5538 631.5454 663.6721 631.6197 663.2554 631.6204 663.2517 631.6205 662.24 631.6583 648.5625 631.9124 629.4936 632.31 629.4379 632.3107 628.805 632.3199 619.4413 632.5073 619.433 632.5074 618.3033 632.5226 617.199 632.5507 615.8243 632.5784 614.9482 632.5806 610.5175 632.6854 609.9315 632.6906 605.0295 632.7819 602.7835 632.8541 596.0701 632.9521 594.0008 632.9853 593.7611 632.9896 585.6188 633.1304 582.7419 633.2528 582.3971 633.2221 582.3598 633.2058 582.0698 633.2177 572.029 633.3775 571.7312 633.3835 569.4882 633.4287 566.1215 633.4956 564.9609 633.5457 555.3543 633.7208 555.3053 633.718 551.5751 633.8001 540.374 633.9868 540.2154 633.9808 539.1359 633.9871 517.2438 634.3338 517.2159 634.3272 516.9698 634.3381 516.9545 634.3366 513.743 634.3513 513.3477 634.3381 512.1411 634.3372 511.6821 634.328 505.4967 634.202 501.8415 634.2071 500.9662 634.1953 500.6592 634.2045 499.45 634.2095 493.647 634.265 493.0173 634.243 490.9974 634.2737 489.3023 634.2991 487.9268 634.2903 484.257 634.3024 482.5694 634.3303 482.3734 634.3284 477.5575 634.3963 472.692 634.4483 470.3977 634.4714 468.574 634.5032 468.2607 634.5038 467.7745 634.5035 460.571 634.5824 460.3724 634.5846 445.595 634.7235 445.2312 634.7151 441.4538 634.7296 440.2853 634.717 436.9621 634.7276 436.7908 634.7284 434.6005 634.7237 431.7114 634.7288 429.0039 634.7297 428.9905 634.7299 426.8534 634.7615 425.3049 634.7779 419.2484 634.8397 417.7617 634.837 417.4294 634.8414 417.1495 634.8352 405.6765 634.9395 404.5675 634.9693 400.6372 634.9629 397.568 635.0562 396.363 634.9581 391.9894 634.9501 389.0603 634.857 380.0918 634.8222 378.5756 634.8409 374.2447 634.8933 348.5757 634.9063 340.3993 634.8283 340.3678 634.8352 338.4961 634.835 333.568 634.8331 333.5267 634.8303 312.05 634.6496 311.9196 634.6499 309.6843 634.6353 309.5173 634.6426 304.9556 634.6616 301.8496 634.6273 284.6246 634.4217 284.2968 634.4175 281.601 634.3829 281.5994 634.3829 271.809 634.2706 271.6414 634.2459 267.829 634.2194 257.9113 634.0609 257.0351 634.0555 248.4306 633.9513 236.7221 633.7723 234.1391 633.7312 232.9324 633.7081 231.8303 633.6933 230.7623 633.6975 230.7043 633.6994 213.5952 633.4891 208.7402 633.4248 206.8028 633.3942 202.1972 633.3203 201.6139 633.3108 188.1117 633.0804 187.6596 633.0724 185.0086 633.0339 184.8035 633.0312 183.5183 633.0209 183.4197 633.0176 174.7971 632.8167 163.9648 632.5551 152.6331 632.2703 133.1204 631.9102 128.2138 631.7562 120.9866 631.6019 121.0454 629.2124 121.0543 628.7831 121.0971 626.2557 121.1192 625.9786 121.1187 625.8416 121.236 620.9774 121.2693 619.5937 121.3383 616.3141 121.3635 615.1287 121.3895 614.2467 121.5554 605.7639 121.5599 605.5325 121.6576 600.6263 121.8613 590.6374 122.1324 578.2526 122.212 573.2304 122.3218 570.6302 122.3672 568.4149 122.4273 566.1668 122.4278 566.1509 122.4288 565.6275 122.4722 564.4107 122.5105 563.0337 122.5331 562.4828 122.6876 555.6511 122.6906 555.4204 122.7104 555.007 122.7418 553.4563 122.8553 548.6222 122.923 546.1285 122.9737 543.3248 122.9947 541.6593 123.0011 541.5831 123.0247 540.4999 123.0256 540.4728 123.0396 540.012 123.0538 538.8934 123.0785 537.4821 123.1532 534.9386 123.1626 534.5414 123.2258 530.2711 123.2259 530.2668 123.2619 528.0316 123.2804 527.0496 123.3297 525.8861 123.3509 524.9792 123.3963 523.039 123.4084 522.9725 123.4563 521.0947 123.488 519.8517 123.4956 519.6657 123.5202 518.3983 123.5403 517.9631 123.8838 505.2104 123.9246 503.1775 123.9373 502.9361 124.0397 498.9868 124.0404 498.958 124.0404 498.4837 124.041 498.4637 124.1505 494.0466 124.2071 491.8174 124.2885 489.5745 124.3549 487.3843 124.3992 485.0879 124.4183 484.2312 124.4166 484.2154 124.4384 483.4904 124.4537 482.806 124.5228 480.6437 124.6842 474.8547 124.6919 473.8889 124.7486 469.9489 124.7652 469.3626 124.8091 467.8742 124.7964 467.1854 124.8017 467.1246 124.9169 461.3526 124.9359 461.2038 125.0086 457.1115 125.0546 454.5946 125.0549 454.5801 125.1044 451.5985 125.1045 451.5952 125.1183 450.2009 125.158 449.5205 125.166 449.3645 125.1562 448.9795 125.2488 444.0706 125.2957 442.9159 125.4595 436.2797 125.7284 429.1513 125.8425 426.3754 125.8728 425.1909 125.9138 424.2144 125.9877 422.4548 126.0411 421.0158 126.0512 420.1226 126.1074 418.8175 126.1891 416.5276 126.2147 415.8195 126.2743 414.3549 126.3879 411.5555 126.3899 411.1719 126.4141 410.5479 126.4441 409.9971 126.4662 409.1357 126.4755 408.8997 126.5455 405.9053 126.6162 403.3342 126.6634 402.6196 126.8495 395.7959 126.8499 395.7793 126.9229 392.251 126.923 392.2461 126.9396 391.3543 126.9481 391.1331 127.2666 378.4893 127.3184 376.823 127.3837 375.7079 127.5066 372.2352 127.5699 370.6769 127.5845 370.1855 127.6533 368.0796 127.6589 367.8338 127.6894 366.6472 127.7305 364.9937 127.8377 359.9882 127.8886 356.9933 127.8946 356.7618 127.9549 355.0589 127.9989 353.1712 128.0041 352.3563 128.0148 351.705 128.0347 349.9536 128.0996 345.5644 128.1162 344.7649 128.1912 341.835 128.2057 341.2663 128.2331 339.5792 128.3684 334.8596 128.5592 328.2058 128.5594 328.201 128.5997 327.3498 128.6004 327.1636 128.6364 326.0475 128.7554 321.8886 128.882 317.4636 128.8833 317.4161 128.904 317.1249 128.9978 313.0246 129.0435 312.4786 129.0454 312.4742 129.1478 308.0051 129.1941 306.2851 129.2575 305.5919 129.2785 304.0003 129.8992 288.249 129.9149 287.8506 129.928 287.5838 130.338 277.0607 130.4345 274.8258 130.4473 274.5314 130.4695 271.5164 130.4977 270.3199 130.5201 269.3688 130.5448 268.5061 130.5468 268.4387 130.545 268.3104 130.549 268.1416 130.6018 265.902 130.6198 265.1608 130.6285 264.8075 130.6574 263.6221 130.7938 258.0288 130.8002 257.766 130.8003 257.7625 130.8156 257.6818 130.7931 257.281 130.8003 256.9742 130.8448 254.7152 130.9113 251.3412 130.9206 250.8685 131.0558 246.8725 131.2437 241.3174 131.2466 241.2321 131.3559 238.0021 131.4021 235.5476 131.4426 234.3361 131.443 234.3195 131.5149 230.6789 131.5747 229.7656 131.7395 229.3397 132.3928 228.3881 133.3593 227.2748 133.6848 226.5917 133.4996 224.3467 133.0219 223.9213 132.351 223.6141 131.51 223.4564 130.6759 223.5137 129.7004 224.0126 127.7731 224.5044 126.5045 224.3208 125.1264 223.7508 125.4174 222.1542 125.2195 221.2597 125.0402 220.449 124.4211 219.9891 123.0985 219.6043 122.2754 219.7073 121.1756 220.4388 119.0282 221.6389 117.8936 221.8259 116.3609 221.7575 115.7242 221.5886 115.7227 221.5882 114.4982 221.0974 113.2406 220.0377 112.4244 218.4673 111.8481 216.826 111.5863 216.3712 111.1594 215.9577 110.8877 215.7962 110.4733 215.7072 109.0032 215.9229 107.5798 215.7982 106.5159 215.4592 106.1522 215.2583 105.2395 214.3041 105.0245 214.0138 104.8574 213.5699 104.8892 213.082 105.7738 211.5456 105.9905 210.893 106.0575 210.3668 105.8737 209.1097 105.4264 208.1183 104.6933 207.1565 103.713 206.2004 102.4586 205.3477 101.2293 204.6993 99.9668 204.1605 99.4708 203.8111 98.9522 203.3136 98.0157 202.1028 97.4672 201.1699 97.1261 200.2277 96.8897 199.3497 96.7613 198.5098 96.6139 197.545 96.4111 193.7529 96.481 193.2613 96.5026 193.1095 96.5818 192.8489 96.8425 192.4752 97.4266 191.9308 97.8468 191.6276 98.1095 191.5265 98.813 191.4075 99.5019 190.9837 99.9732 190.4632 100.2644 189.6544 100.2583 189.0285 100.074 188.3915 99.6188 187.4737 99.1622 187.0579 98.8254 186.9138 98.4552 186.8653 97.6411 186.9615 96.7056 187.5403 95.9512 187.9065 95.5475 188.0759 95.0843 188.1683 93.8396 187.9731 93.4284 187.8109 93.3471 187.7487 93.1335 187.5852 92.8626 187.3402 92.4618 186.6614 92.3924 186.3838 92.3581 185.7583 92.4269 184.8502 92.2533 184.3916 91.8703 183.905 91.452 183.5657 90.1344 183.0014 89.8125 182.7187 89.3378 182.3018 88.9265 181.5238 88.7078 180.0536 88.3302 179.3816 87.4041 178.4906 86.7502 178.1685 84.3961 177.3921 82.9201 176.5103 82.3503 176.097 81.8784 175.6521 81.502 175.2275 80.9447 174.2799 80.7881 173.89 80.6657 173.0503 80.553 170.8992 80.4831 170.4216 80.3018 170.0356 79.8223 169.4118 79.4675 169.0686 77.3741 167.8723 76.7647 167.3699 75.6172 166.1817 74.4541 164.7508 74.0352 164.0773 73.736 163.3584 73.2861 161.5565 73.3663 160.762 74.0973 158.5254 74.2275 158.3129 74.6144 157.9355 75.1113 157.6569 75.5123 157.5261 76.2491 157.4842 77.7454 158.1812 78.2775 158.2949 78.6141 158.2897 79.1847 158.1681 79.7844 157.8755 80.1006 157.6642 80.3564 157.3766 81.0407 156.3069 81.3147 155.4653 81.4293 154.7871 81.4284 154.4726 81.276 153.7498 80.7075 152.5556 80.6689 152.346 80.489 151.3689 80.5306 150.8578 80.7382 150.0423 81.226 148.9005 81.8407 147.9212 82.5137 147.1314 82.7152 146.6358 83.9293 144.7438 84.3024 144.289 85.0623 143.6374 85.4233 143.4336 86.1716 143.2237 87.0766 143.1391 87.9999 143.1505 89.1154 142.9847 89.4246 142.8729 90.0537 142.4702 90.6662 141.7134 90.8437 141.3131 90.9699 140.7174 91.0942 138.5036 90.8524 136.0809 90.8638 135.136 90.9683 134.7068 91.5999 133.6583 92.2338 133.0617 92.8108 132.6746 93.125 132.6414 93.5836 132.7103 94.0482 132.9094 94.6869 133.3561 95.747 134.3373 97.0964 135.3825 98.0572 135.8697 98.9297 136.1359 99.3177 136.1708 100.2141 136.0637 101.1182 135.7959 102.1358 135.2549 102.8012 134.6431 103.6847 133.3772 104.0148 132.3828 104.1365 131.7711 104.1413 131.7471 104.0267 130.3017 103.7612 129.6502 103.5253 129.2144 103.308 128.9632 103.0183 128.7715 102.8419 128.7515 101.6236 128.986 101.6192 128.9859 101.3244 129.1426 100.1538 130.0291 100.1444 130.0362 100.1209 130.054 100.1026 130.068 99.9858 130.1564 99.9585 130.1771 99.4922 130.4643 98.6491 130.7243 97.9359 130.7177 97.4128 130.4582 96.3238 129.5771 95.9313 129.1664 95.4075 128.4551 95.2933 128.15 95.2508 127.6431 95.3366 126.9972 95.6421 126.5217 96.0125 126.2247 96.4957 126.0117 100.3463 125.9078 100.6634 125.8352 101.4055 125.4545 101.7897 124.9883 102.3697 123.5371 102.4434 122.557 102.403 121.4357 102.3989 121.392 102.3573 120.9496 102.1765 120.5201 101.9114 120.1449 101.2318 119.4862 100.9343 119.336 100.5609 119.2721 99.325 119.3204 98.5286 119.2109 97.7146 118.9265 96.6498 118.1026 95.3316 116.7684 95.0921 116.433 94.7825 115.7077 94.8204 115.0238 95.0304 114.5163 95.271 114.1324 96.1572 113.2895 96.5257 112.7251 96.6851 112.1288 96.6883 111.5599 96.6341 111.2292 96.448 110.8188 95.889 110.0961 94.8068 109.3359 93.9147 108.9431 93.0098 108.744 92.5289 108.813 90.8191 109.3287 89.7306 109.422 89.3429 109.3592 88.9786 109.229 87.7659 108.7954 87.2233 108.7505 86.6664 108.8338 85.9975 109.2113 85.3063 110.1388 85.1996 110.3664 85.1034 110.8168 85.1659 112.033 85.1209 112.3574 84.8028 113.1448 84.3038 113.6196 83.6191 114.0294 83.1011 114.128 81.8764 114.1598 78.4525 114.4705 78.045 114.4336 77.4442 114.2235 75.618 113.2468 73.0228 112.4046 72.261 111.9702 71.9921 111.7323 71.5947 111.2087 71.3651 110.5573 71.3005 110.0234 71.4411 109.0969 71.4391 108.7022 71.3115 108.096 71.0571 107.741 70.6417 107.458 69.8991 107.2376 69.4499 107.2642 67.9616 107.9813 67.1109 108.2577 65.9214 108.2383 65.4249 108.1114 64.7841 107.7825 64.4861 107.5674 64.0595 106.9068 64.0111 106.7086 64.008 106.3151 64.0907 105.8498 64.564 104.7484 64.7461 103.8765 64.7056 102.9485 64.3578 102.2085 63.284 101.5232 62.9699 101.3992 62.5289 101.3123 61.2448 101.3734 60.5819 101.3309 60.0437 101.1584 59.0191 100.5604 58.1799 99.5771 57.7139 98.6833 56.8128 97.3088 56.2538 96.8745 54.5242 95.9635 53.0545 94.8976 52.5372 94.1517 52.466 93.9187 52.4081 93.435 52.4521 92.4788 52.4419 92.1415 52.1532 91.2713 52.038 91.0239 51.692 90.6027 51.3755 90.417 50.1568 90.0046 49.2653 89.4478 48.0984 88.0044 47.8448 87.8392 46.9056 87.4683 46.0715 87.4457 43.823 88.0477 43.3239 88.0843 42.8171 88.024 42.3138 87.8576 41.5279 87.4444 41.0016 87.0371 40.2862 86.199 39.931 85.4493 39.6648 84.6417 39.4463 83.0218 39.5819 82.4665 39.8713 81.8757 40.3117 81.3818 40.9066 80.7102 41.0955 79.9739 41.0286 79.2032 40.902 78.0689 41.2929 77.0841 42.1928 76.3137 42.5535 76.0267 42.9125 75.5655 43.0625 75.1234 43.1124 74.4019 43.0699 73.8903 42.8511 73.3311 42.483 72.7657 41.825 72.3459 41.2344 72.1683 40.1 72.05 39.4558 71.6949 39.0052 71.2489 38.7534 70.8059 38.6329 70.4009 38.5174 69.6162 38.5 68.569 38.3993 68.0928 38.2339 67.6726 37.7433 67.1102 37.4996 66.9521 36.0997 66.3978 35.4308 65.9777 34.2641 64.7524 33.6762 63.9539 33.3568 63.3812 33.1579 62.9339 32.9997 62.3519 33.0007 61.575 33.0693 61.0677 33.6226 59.8619 34.1719 59.1373 34.4349 58.555 34.6125 57.9203 34.686 56.9404 34.6273 56.4918 34.3975 55.6773 33.8528 54.6403 33.2542 54.0755 32.8862 53.8252 32.3847 53.6337 31.2272 53.4938 29.4442 53.6073 28.6926 53.4343 25.7928 51.865 25.1867 51.4092 24.9783 51.1734 24.9263 51.0083 24.7675 50.5036 24.7897 50.0368 25.4045 48.4769 25.4917 47.7301 25.4298 47.3108 25.2477 46.9223 24.6367 46.1934 24.245 45.937 23.5553 45.6422 21.963 45.5192 21.3217 45.1799 21.0037 44.9313 20.0473 43.8844 19.3084 43.4373 18.6935 43.1997 18.3398 43.1473 17.8169 43.2069 17.1929 43.3787 15.6365 44.0608 14.9319 44.2897 14.5718 44.3282 13.8554 44.1513 13.5366 43.9527 13.1985 43.4883 13.1273 43.2029 13.1749 42.7307 13.3298 42.1718 13.6838 41.7058 14.3775 41.2734 16.0479 40.757 16.5093 40.5125 17.0801 40.0267 17.3386 39.4096 17.4081 39.0301 17.3198 38.1507 17.2075 37.7407 16.9575 37.1818 16.4736 36.4731 15.8527 35.8303 15.4093 35.0418 15.2664 34.5105 15.264 33.7168 15.344 33.2221 15.183 31.896 14.5945 30.4486 13.5306 28.4874 13.2992 27.3658 13.4019 26.9253 13.7147 26.062 13.974 25.4224 14.0839 24.51 13.8251 23.4048 13.0347 21.9501 12.3277 21.0795 11.7138 20.5268 10.8938 20.0059 9.9055 19.046 9.7401 18.7247 9.5654 18.0366 9.5364 17.5826 9.6189 17.0846 9.7558 16.403 9.856 15.3301 9.7447 14.4901 9.311 13.5199 9.8262 13.3542 10.2457 13.1142 13.0913 12.1661 13.8374 11.8317 14.5725 10.8985 15.0508 8.6816 14.9381 8.0979 14.6805 7.3654 13.9717 6.8268 13.6148 5.7822 12.9184 4.8466 12.1075 4.8284 11.1202 5.0848 10.2801 5.6264 10.1596 6.5769 9.9195 7.425 9.8028 8.6717 10.0408 9.2725 9.7631 9.9758 8.3987 10.9904 8.2503 10.6404 7.7669 10.1002 6.8227 9.9271 6.4982 9.9686 5.7903 10.3021 5.0748 10.5077 3.7457 10.4074 2.774 10.1096 2.1184 9.7207 1.6637 9.2147 1.472 8.8176 1.4182 8.4244 1.5406 7.8624 2.0042 7.0545 2.1438 6.6641 2.1882 6.2823 2.1515 5.809 2.0298 5.3369 1.2978 3.8972 1 2.7448 1.1611 2.04 1.7748 1.2809 2.1211 1 Z"/>
</g>
</svg>