<?xml version="1.0"?>
<svg xmlns="http://www.w3.org/2000/svg" version="1.2" baseProfile="tiny" width="800" height="464" viewBox="0 0 800 464" stroke-linecap="round" stroke-linejoin="round">
<g id="cb_2018_us_state_5m">
<path d="M 9.302 1 20.2365 1.8695 34.534 3.0178 67.4151 5.5577 79.9607 6.3835 92.9158 7.1991 100.7557 7.6695 111.1943 8.302 119.3401 8.8276 124.2618 9.1739 134.6455 9.9042 153.5454 11.0309 170.2162 11.8999 179.7505 12.3585 195.0626 13.0151 207.4589 13.5238 217.7091 13.9463 229.7764 14.4005 239.8428 14.7747 253.5997 15.2605 265.6577 15.6277 276.2947 15.9936 283.6303 16.265 294.1158 16.5925 305.4522 16.8259 312.2693 16.9534 329.1712 17.2481 336.5738 17.3188 336.6217 17.316 345.7521 17.407 356.3122 17.5226 359.2295 17.5508 362.5327 17.5806 369.8762 17.6391 390.9957 17.7483 413.9492 17.7676 425.436 17.7339 425.4393 17.7338 441.2751 17.7021 456.6695 17.6913 464.497 17.615 480.3494 17.4431 495.3913 17.2102 505.0917 17.0182 515.2259 16.8207 536.3228 16.3415 557.2442 15.8238 561.0541 15.6435 572.2189 15.3138 586.0121 14.8696 605.3688 14.1861 617.0069 13.7478 623.1337 13.5046 631.5409 13.1587 640.0059 12.7854 643.923 12.6143 658.6517 11.8959 670.3583 11.3013 683.8167 10.612 695.877 9.9743 706.8706 9.3635 717.9979 8.7164 735.3839 7.6368 750.6791 6.5909 770.7543 5.149 770.8572 6.3637 770.9927 8.3223 771.0177 8.6083 771.0362 9.0706 771.0604 9.2507 771.0936 9.7631 771.0982 9.9757 771.1497 10.5865 771.1752 10.8731 771.2161 11.5202 771.3731 13.5989 771.4103 14.1065 771.4471 14.5165 771.6035 16.7083 771.6222 17.1131 771.6351 17.2802 771.6848 17.9048 771.7085 18.0784 771.8231 19.8518 772.2015 24.7125 772.2638 25.5335 772.4457 27.7458 772.527 29.1267 772.5702 29.5337 773.1871 37.5441 773.1965 37.6432 773.2263 38.0594 773.236 38.1952 773.288 38.9236 773.3014 39.047 773.4202 40.4609 773.4671 41.1344 773.479 41.2666 773.4957 41.7951 773.6273 43.8382 773.6951 44.5568 773.9095 47.3419 774.0742 49.567 774.1411 50.3633 774.1314 50.4311 774.1891 50.9014 774.2358 51.6809 774.3375 53.405 774.411 53.9713 774.6125 56.5843 774.7209 57.9504 774.7216 57.9903 774.7654 58.4998 774.7814 58.6296 774.9651 61.0287 775.0246 61.9965 775.1789 63.965 775.1913 64.0848 775.1924 64.0975 775.3113 65.5 775.3338 65.5585 775.561 68.637 776.1824 76.8997 776.2055 77.0597 776.2822 77.9204 776.288 78.0747 776.3127 78.3809 776.6554 82.9702 776.6743 83.1088 776.7837 84.6768 776.8734 85.8222 778.1377 102.0776 778.158 102.3939 778.3223 104.4532 778.4698 106.0964 778.5153 106.5726 778.9964 112.2229 779.2345 114.9985 779.3652 116.9885 779.5542 120.2255 779.5831 120.5031 779.6009 120.706 779.9394 126.1181 779.9379 126.1363 780.7578 137.9376 780.8141 139.17 780.8987 140.044 781.4407 147.7411 781.8541 153.9496 781.9882 155.9737 782.2553 159.936 782.2582 159.9734 782.4247 162.1044 782.6131 165.1571 782.6942 166.2681 782.7073 166.4447 783.0882 171.5815 783.107 171.8754 783.1289 172.119 783.1624 172.5575 783.1665 172.6461 783.1765 172.8473 783.4871 177.5083 784.1456 186.0329 784.3658 189.38 784.4502 190.5019 784.4463 190.7575 784.5539 192.1752 784.6002 192.7935 784.629 193.1667 784.7267 194.4008 784.7477 194.7174 785.3805 204.0327 785.4323 204.7306 785.4327 204.7424 786.1192 214.7085 786.8768 224.89 786.899 225.2037 786.907 225.2852 786.9448 226.0063 786.9867 226.5029 787.4617 233.0004 787.4621 233.0054 788.1627 242.7197 788.3796 245.7293 789.1702 257.8995 789.328 259.5439 789.4998 261.9576 789.6178 263.6345 789.9239 267.9211 790.9931 282.9179 790.9654 283.0225 791.7351 294.9865 792.2 300.2843 792.7242 306.3979 792.7934 307.3642 792.8308 307.7101 793.714 319.1443 795.0556 337.7015 795.1239 338.3981 795.1972 339.5163 795.4768 342.9683 795.4908 343.2948 795.5197 344.1865 795.7729 346.8951 796.2662 353.5824 796.4158 355.4418 796.5995 358.2306 796.6564 359.1402 797.4974 371.0276 798.0971 379.5187 798.1316 379.6084 798.9486 391.5378 799 391.7314 798.2513 391.8771 797.7416 391.9272 784.6104 392.7729 769.6005 393.7646 769.5797 393.7659 756.3734 394.5828 756.287 394.6126 752.104 394.7899 749.8207 394.9768 749.4644 394.9877 732.1698 395.9164 732.0991 395.931 731.6908 395.9589 730.8035 396.006 730.7932 396.0065 728.1844 396.1591 708.0516 397.2941 675.4668 398.9695 670.9987 399.1312 670.9431 399.2265 670.019 399.8849 663.4107 400.1902 647.0791 400.9096 647.0702 400.91 626.3348 401.6652 604.293 402.3799 604.012 402.3837 597.5299 402.5793 593.2009 402.7056 591.5429 402.7039 590.8635 402.7653 589.4369 402.6048 588.0695 402.5855 587.4823 402.5344 572.6057 402.8635 562.9789 403.1288 557.7595 403.3043 555.0532 403.3933 554.9829 403.4018 545.2732 403.6524 534.2556 403.8566 528.3768 403.9563 528.1508 403.9942 517.9648 404.2128 513.2335 404.351 511.8875 404.4076 511.1211 404.4937 511.1154 404.4935 509.6228 404.4432 493.9042 404.7483 489.4337 404.7253 488.5732 404.7461 485.6392 404.7922 481.4096 404.856 463.1056 405.0934 455.4306 405.1743 454.0091 405.1858 452.605 404.586 441.645 404.7033 441.2434 404.7112 433.9529 404.8055 433.2184 404.781 420.3462 405.0249 414.2244 405.0353 408.2596 405.12 404.9879 405.0579 404.974 405.0576 399.6955 404.9387 391.5209 404.9171 391.0787 404.9063 389.4319 404.8657 389.377 404.8593 383.6389 404.8043 377.509 405.5108 371.5302 405.4003 368.951 405.1549 367.739 405.154 366.3312 404.992 363.5689 405.6224 357.7336 405.7023 353.6847 405.6472 353.3235 405.6644 342.8517 405.523 339.7422 404.9349 339.0059 404.7321 337.4034 404.4165 319.6419 404.2817 319.5877 404.2808 318.8936 404.2704 318.7135 410.603 318.7491 410.8286 318.5492 417.3058 318.3839 428.6068 318.4046 430.9878 318.317 436.7071 318.2558 440.7084 318.2007 454.8931 317.1364 454.6499 314.3283 453.9063 312.9896 452.7323 312.3126 451.0612 312.7729 449.5276 311.2193 448.5665 309.945 447.8706 309.4725 447.3239 309.4967 446.4115 309.0939 445.7564 308.0887 445.3034 306.485 445.195 306.0572 444.2154 305.6518 442.0282 306.6124 440.6544 304.6996 437.934 303.5473 438.2805 303.0357 437.4603 303.6256 436.2474 301.1564 432.3876 299.9555 430.7277 299.1369 429.8956 298.3394 430.4956 297.753 430.3768 297.0213 429.3188 297.0605 428.9446 296.4931 428.1514 296.3259 428.035 295.7985 427.6678 295.1845 427.9038 294.9005 428.4602 295.1262 428.6744 294.7985 430.7235 293.6917 431.9188 293.0143 431.5855 292.6564 430.9841 292.0249 430.9311 289.0705 431.9874 288.7467 432.1031 288.5122 432.3598 288.4406 432.8156 288.7796 434.048 289.2446 434.5611 289.8043 434.9918 289.5383 436.206 287.9886 438.1492 287.3662 438.1402 286.7544 438.6673 287.2178 440.0272 286.1159 440.9619 285.8761 442.0415 285.9159 442.5502 286.2705 444.1738 287.1626 444.9125 286.932 445.5761 287.0901 446.149 288.0094 446.3056 289.5663 447.1911 289.6499 447.9215 289.3695 448.2729 287.3584 448.2991 286.295 448.4964 285.7747 447.4552 284.2325 446.574 283.5406 446.8092 283.1119 446.7295 281.5459 445.9514 281.1284 446.0709 280.4573 446.7602 279.5371 447.2423 279.3313 447.1901 274.9283 446.0709 273.3666 445.9968 272.9739 446.9546 272.5488 447.5886 271.0488 447.5953 270.4075 447.8001 269.5226 448.4541 269.3099 448.8284 266.2202 449.4724 266.0873 450.495 265.1437 450.704 263.7338 449.0392 263.304 447.6937 261.9043 445.3107 260.7059 445.3364 259.6053 445.9034 256.5426 445.8577 256.2771 446.5 254.2175 447.7345 253.2205 447.8244 251.955 447.1174 250.6661 446.6622 250.4949 447.0396 250.5423 447.5229 250.3273 448.2323 249.2028 447.736 248.1337 447.5077 246.4367 448.1425 246.2102 448.793 245.8398 449.0103 245.4815 449.0008 244.2379 448.2158 243.9864 447.455 243.4882 447.0893 241.5516 446.8571 240.4833 447.6597 240.1913 447.6457 237.6177 446.5489 237.0994 445.9531 237.2989 445.4032 237.0961 444.6682 236.2389 444.1232 235.1482 443.9487 233.2471 443.9857 231.7334 444.9823 231.3577 445.3681 231.1985 445.7004 231.1753 446.4889 230.8773 446.7489 228.8342 446.719 228.4507 447.0014 228.104 447.6471 228.1487 451.1084 227.966 451.7652 227.2247 453.5919 225.876 455.3941 222.6098 453.9068 220.9277 452.5393 220.0542 452.0896 218.1251 453.6635 217.3491 453.3063 217.3403 452.9209 216.8866 452.3847 215.3184 451.5336 214.7302 451.419 213.1316 451.7413 212.3952 451.6763 211.2094 450.697 207.5001 450.9113 206.8704 450.9728 206.4263 450.4892 203.9396 449.253 203.165 449.0945 202.0436 449.5525 201.0533 450.281 199.1555 450.8724 197.6401 452.7109 195.404 454.7768 194.7872 456.6715 195.7068 458.1832 196.2917 459.6757 196.1948 461.0445 196.1182 461.1419 195.6666 461.7163 193.9329 462.8781 193.2108 462.6785 191.4646 460.6359 191.3237 458.8815 189.0718 458.1064 186.7889 456.77 184.7703 455.1258 183.3262 453.4619 183.1816 451.4307 182.4074 450.4324 181.9509 448.9261 182.6067 448.2798 183.3695 446.9118 183.3743 446.1833 181.0153 444.5124 180.7923 443.6479 181.3454 442.9376 181.4385 442.3786 179.8676 441.0536 179.2801 439.7872 178.4675 439.2129 178.4022 438.5773 179.1427 437.4754 179.7192 437.1651 180.3318 437.0693 180.5652 436.8344 180.8862 436.0545 180.7685 435.3158 179.8497 434.072 179.6913 433.3864 179.5927 432.2706 179.7962 431.7986 179.6297 431.1273 178.899 429.9582 177.8131 429.3205 177.6464 428.2374 177.6631 426.2564 176.6881 425.3334 175.5159 423.8605 175.3487 423.1411 175.8018 422.7127 175.831 421.9291 175.2178 421.5275 174.0278 421.0719 173.6352 421.2408 172.6017 420.3973 172.3523 419.7635 171.6362 418.8988 170.6182 418.1818 168.6431 417.5993 168.1022 416.7208 165.9166 417.6123 164.6103 418.4573 164.2702 418.8652 161.4498 420.102 160.6341 419.3952 160.6006 419.0327 161.1696 418.7273 161.2177 418.5636 160.6193 416.6754 159.2399 415.2913 157.9361 414.7919 156.1691 414.4674 153.9327 411.0817 152.848 408.0481 151.8521 405.8054 151.3983 404.3515 151.7215 403.7584 152.6606 403.6386 153.0679 403.8055 153.565 403.9011 154.8565 403.4327 155.2395 402.8362 155.2396 401.2607 155.1311 400.4318 155.2033 399.087 155.8677 398.3029 155.1635 395.5346 155.1112 394.6073 155.1326 393.1986 154.5705 392.6251 154.1521 392.808 153.304 392.7936 152.6679 391.8389 150.6025 389.9904 151.1782 389.1255 151.6646 388.2757 151.4368 387.6143 150.1503 387.3971 148.7244 387.6599 147.0796 386.0931 147.4918 384.8943 145.8966 382.3853 146.2717 381.3423 145.6836 379.9425 143.2419 377.6975 142.5999 376.181 142.4494 375.5499 142.0079 374.875 141.4456 374.3777 140.8636 374.0426 140.5676 374.041 140.1674 373.5901 139.7407 372.4542 139.8014 371.9025 140.0648 371.3833 140.0124 370.6878 137.0732 366.489 136.8827 366.0449 136.861 364.5066 137.2726 362.6712 137.5859 360.7169 137.5635 360.2196 137.4853 360.0041 135.7555 358.5409 134.8519 358.4663 134.7073 357.5998 135.6036 356.9826 135.6305 356.119 134.4655 354.0752 134.4209 353.7715 135.8559 351.6397 136.1991 350.7986 135.8174 349.2786 135.8374 347.6124 135.7212 347.3188 135.1558 347.1694 133.9225 347.0993 133.4965 347.106 133.0539 347.3977 131.3374 347.2261 132.562 342.8689 133.7106 341.603 133.8923 341.1501 133.8386 340.3855 133.6313 339.4515 132.5789 338.3922 130.0445 337.1718 128.3477 337.7239 127.1106 337.1726 127.348 336.0176 127.7168 335.316 127.5231 334.6485 126.8331 334.1109 125.5626 332.1151 125.2147 329.9001 125.2126 329.8866 123.6682 330.369 123.0943 329.6195 122.0057 328.8819 120.0059 329.5887 119.7405 329.8833 119.5962 331.0117 119.5697 332.0668 119.93 333.2603 119.8274 333.665 119.5451 334.1723 118.5506 334.1151 116.1314 336.0083 115.0861 337.5378 114.9549 338.2417 114.988 338.9264 114.6538 339.468 113.7001 339.8818 112.2005 339.999 111.5288 340.9127 111.4582 341.0943 111.6932 341.4508 111.6405 341.7878 111.181 342.54 109.8314 342.9035 108.1183 342.948 107.6512 343.4926 107.1737 344.3325 106.4331 344.3887 104.8507 343.2429 103.4827 343.2153 103.1865 343.9803 103.4082 344.4384 103.3827 345.3046 102.2907 348.0021 101.6204 348.9035 101.0141 349.4011 97.237 351.2419 96.441 351.1358 95.4584 349.6986 95.2194 348.1024 95.0362 347.8682 93.734 346.8006 91.9336 346.0259 90.517 343.3846 89.7515 342.7112 89.3609 342.5461 89.2061 340.8576 88.3243 340.6095 86.628 341.2615 86.098 340.8652 85.3785 339.9553 84.8321 339.6647 83.1881 340.5496 82.5743 340.0144 82.7426 338.1423 83.0667 337.5635 84.2306 336.127 83.8315 335.147 83.2372 334.8548 82.6779 333.6245 82.689 333.0622 82.8797 332.8322 84.6492 331.9044 85.0704 331.7651 85.5614 332.0851 86.5964 331.2172 87.1961 330.2757 87.278 329.255 86.6837 328.8146 86.7709 328.2135 87.6819 326.9784 87.3365 325.7437 86.7615 324.7955 85.8612 324.5268 84.5868 322.9929 84.5826 321.6186 83.3324 319.8589 84.1257 318.7069 84.8833 318.25 86.064 315.6017 87.1274 314.9049 86.9913 314.3347 87.1825 313.5822 88.0743 312.9099 88.9396 312.7572 89.6057 313.0148 90.1755 312.8861 91.0462 312.4728 92.1166 311.85 93.2388 312.3153 94.1348 312.9127 94.3564 312.8355 94.6382 311.7097 95.9396 310.1123 96.0513 309.4568 95.5918 308.2356 94.9817 308.0005 94.433 307.1923 93.3655 304.7725 93.3675 304.5507 93.6193 304.4107 93.9163 303.9946 94.4556 303.6597 94.753 303.2443 95.2586 302.9314 95.4552 302.401 95.39 301.8574 95.0367 301.4125 94.9038 300.7761 93.6784 299.8094 92.4814 299.6291 92.0308 298.9258 91.4083 298.7444 90.9296 299.0522 90.5218 299.0625 90.0138 298.2706 90.2476 297.5272 90.9767 296.7751 90.6264 295.4225 89.7317 295.5765 88.8811 295.2643 89.0369 294.3528 89.7621 293.7102 91.6884 291.9878 92.1415 290.8333 92.3719 289.0486 91.5008 287.4989 90.2946 287.1034 88.4874 285.8403 88.2958 284.4118 89.3871 282.1398 90.8337 282.1023 91.5238 282.806 92.5682 282.1738 93.3156 282.1446 93.7675 281.6772 94.1189 278.883 93.7983 277.5199 94.0377 277.1037 93.7628 275.1423 92.716 274.3455 92.6767 272.5449 93.0751 272.0058 93.8475 272.2659 94.6606 272.0383 95.07 271.7908 95.6536 271.1458 95.7936 270.7394 95.3702 269.0047 95.519 268.505 96.8633 266.1412 96.9451 265.5845 97.2127 263.7622 97.1872 263.1768 96.5827 261.1587 97.6413 259.8507 99.0433 259.0762 99.2793 258.5745 99.4525 256.9924 100.1686 256.6176 100.0956 255.9071 99.5645 255.1608 99.8642 254.2512 99.6683 253.6489 98.9287 253.2984 98.5994 252.5376 98.5017 250.4707 98.6991 250.1202 99.793 249.8966 100.3865 250.2511 101.9374 249.7754 102.7013 248.661 102.2839 247.6812 102.6669 246.5837 102.5414 245.6254 103.1259 244.3807 103.688 243.6501 103.711 243.4373 103.7492 243.0843 103.079 241.9754 104.5261 239.9 104.6835 236.8157 104.6355 235.78 104.1993 235.0554 104.1915 235.0515 102.4035 234.1412 100.0645 234.4097 99.4462 234.8781 98.9349 235.0572 98.0577 234.6946 96.0808 235.6779 96.0691 236.4028 95.2381 237.1117 94.1552 237.2099 92.9726 236.4375 91.7424 236.3062 90.0475 235.4403 88.5412 235.8962 87.5648 236.5466 86.8551 236.607 86.6235 236.5215 85.5709 236.1325 85.2536 235.4873 85.5711 235.1704 85.4158 234.4272 84.9354 234.0878 84.0403 233.9073 83.8687 233.1711 83.7882 231.9477 84.427 231.5741 85.0438 230.9173 85.2438 229.25 84.5157 228.4708 83.7564 227.0176 82.8032 226.3773 81.9307 226.1738 80.5685 225.8558 80.36 225.8522 79.6166 227.5054 79.0613 228.266 78.3993 228.1933 77.4267 228.4126 76.7089 229.7004 75.6501 229.7179 75.4642 229.2233 74.4819 228.3787 74.3436 227.891 74.9396 226.4863 75.3714 226.304 75.8421 225.6927 76.0781 223.8334 75.0103 222.7023 74.8107 221.7706 74.6524 221.637 74.1595 221.8292 73.4154 221.2971 72.7785 221.3426 71.9894 221.1293 71.5854 220.1777 71.0647 219.989 70.1242 218.8819 70.0895 218.2452 69.8664 217.9572 68.8931 218.1699 68.0941 218.8559 67.6325 218.4222 67.8513 217.6531 67.6237 216.9882 66.6052 216.6464 65.8967 215.8187 65.8574 214.8861 66.1564 214.4678 65.8302 213.7009 65.1074 213.5228 64.6541 213.1536 64.9489 212.4114 65.3176 212.2546 65.7651 211.7411 65.9389 211.1171 65.6598 209.6151 66.3257 208.4395 66.7414 208.1778 66.6054 207.6684 66.144 207.4597 64.2999 206.3309 64.4032 206.0575 63.7991 205.4449 62.7423 204.1014 61.9793 202.6734 61.8974 202.0978 60.1377 201.6115 59.8747 201.9901 58.8152 202.115 58.1983 200.1506 57.8404 199.0053 57.4043 196.5483 56.6842 194.5506 56.1732 194.3121 55.6244 194.2924 54.1662 192.3226 53.4471 190.3421 53.5564 189.4411 53.4034 188.9619 52.4246 188.7244 51.5743 188.2393 51.227 187.236 50.7787 185.9865 49.7825 184.9444 48.6259 183.9883 47.2208 183.6951 46.5719 182.5492 46.5291 181.4669 46.1698 180.6119 44.5169 180.2008 43.7247 179.8305 43.7045 179.3551 44.1437 178.1589 44.427 177.7711 44.0941 176.2048 43.5859 175.7676 43.2723 175.6945 42.9286 175.1744 42.5575 174.1264 42.9544 173.3142 41.7112 172.4603 40.3791 172.6169 38.7933 171.7733 37.2627 171.9507 36.5362 171.2851 36.4781 170.7447 35.827 170.3375 34.3763 170.4446 34.086 170.2476 34.0983 169.941 33.4088 169.5113 32.6111 169.9035 32.2609 169.5956 30.8656 168.6724 29.6021 167.633 29.064 165.1669 28.4143 164.4737 28.61 163.2475 28.1763 162.6498 27.5634 162.6446 26.8871 162.1396 26.921 161.2179 24.4169 159.5015 22.7331 159.8236 21.9301 157.5689 20.8806 157.2647 20.8195 156.6377 19.3754 155.8392 18.4111 155.7661 17.9571 154.8692 16.9207 154.7177 16.1456 154.9302 15.4625 154.776 16.3606 153.0804 17.5742 152.7741 18.3567 152.2682 20.7501 151.9914 21.2927 152.3266 22.8898 152.1996 23.5559 151.7764 24.3363 150.0377 24.0181 149.8183 23.1005 150.1255 22.3361 150.0348 21.9388 149.0154 20.9114 149.3499 20.7302 149.274 20.3472 147.5721 19.319 146.0859 19.4329 145.3881 20.3747 145.0343 19.7779 144.3213 19.0606 144.3496 17.5809 143.792 16.8188 143.2554 16.7017 142.4548 18.4281 140.8353 19.0195 140.4772 20.1786 139.9078 21.114 138.1479 21.194 135.7856 20.4022 134.6481 20.0682 134.5624 19.0318 133.8522 18.719 132.602 19.4824 130.4012 19.8981 128.7312 19.4542 127.8327 18.6852 127.0255 17.7413 126.2594 17.3565 126.3843 16.7678 126.3087 16.5148 125.9131 16.2258 125.1612 16.464 123.7379 15.5629 122.4474 15.1532 122.2358 13.7104 122.6977 13.3041 122.3561 13.1104 121.838 13.1835 121.0031 12.9202 119.9295 12.5139 119.4315 12.6388 117.2654 12.8236 116.6708 12.5561 115.3583 11.3742 114.4597 11.1692 113.6821 10.8146 113.0316 9.4728 113.5407 9.1392 113.1272 9.0871 112.6366 8.6121 112.4655 7.3338 109.599 5.9261 107.9032 5.8882 106.7573 5.6677 106.3384 4.7791 105.9591 4.4406 105.2825 4.1425 104.3117 3.4575 103.0197 3.475 102.5865 2.1729 100.3571 1.6393 100.4371 1 99.8502 1.0039 99.8025 1.1827 97.6214 1.6988 91.8367 1.7142 91.2011 1.7933 90.1795 1.8929 89.0782 2.2101 85.5757 2.8919 76.7449 3.0507 74.6917 3.1903 73.5044 3.3656 71.1147 3.7003 67.7225 4.4713 57.7111 5.0744 51.1747 5.2449 49.1431 5.3524 47.8619 9.302 1 Z"/>
</g>
</svg>