<?xml version="1.0"?>
<svg xmlns="http://www.w3.org/2000/svg" version="1.2" baseProfile="tiny" width="800" height="307" viewBox="0 0 800 307" stroke-linecap="round" stroke-linejoin="round">
<g id="cb_2018_us_state_5m">
<path d="M 773.6839 70.642 774.4308 70.1888 775.5864 70.183 776.8601 70.4115 777.3029 70.8332 778.3096 71.2339 779.7475 72.228 779.4577 72.6134 779.5775 73.6741 780.3467 73.8497 781.9328 75.9008 783.808 79.0665 783.5802 80.0381 784.1899 83.5442 783.671 84.2701 783.3327 84.2674 781.9791 83.2938 779.3776 82.8445 778.7119 82.132 780.0158 81.1579 779.8765 78.5202 779.6017 77.7245 778.7069 76.3659 777.9346 76.2211 776.4152 74.3242 776.456 73.4485 775.9609 72.8174 773.9933 71.7659 773.6529 70.8887 773.6839 70.642 Z M 751.1243 167.1227 752.2084 165.3878 752.9979 164.4616 753.2122 163.5177 753.0599 162.6764 753.1625 161.9423 753.6165 161.3893 754.5548 161.2439 755.1982 161.5876 756.2544 161.3535 758.9785 159.5629 760.1783 158.7228 761.6197 157.7743 766.4421 155.2114 768.2586 154.6393 768.8169 154.4282 769.832 153.8958 770.5467 153.2708 771.2056 152.6164 774.0169 151.9509 774.0632 151.9262 774.8196 151.5228 775.8093 151.3432 777.2445 150.7382 778.0435 150.2097 778.9136 149.3784 779.3148 149.1641 779.9087 148.2389 780.2155 148.0358 780.4036 148.0292 781.0076 148.504 781.9903 148.5696 784.0873 147.7946 785.0209 147.2507 786.3278 146.0501 787.7719 145.1906 787.8154 144.6574 787.8249 144.0346 787.9079 143.7239 788.9541 144.0324 789.2771 144.2901 791.1486 143.9916 793.3957 143.1536 793.9048 141.4326 794.2739 138.1143 794.6899 136.0961 795.1133 133.1521 795.5441 130.4566 795.9636 126.3353 796.3305 123.0169 796.8559 119.5926 796.7229 118.1954 796.5866 117.0167 796.7031 115.0889 797.1256 113.6739 797.3913 112.0618 797.2022 106.9613 796.6405 104.5645 796.0565 102.213 795.1326 99.6429 794.2951 98.0964 793.3803 93.5905 793.165 92.0208 792.0013 88.1441 792.4811 87.8923 792.8958 88.372 794.4845 91.204 795.1102 92.771 796.831 98.2158 799 107.1949 798.9373 108.885 798.8336 111.9544 798.342 120.1383 797.3171 129.8905 796.2225 137.8423 794.4351 147.4242 793.7737 148.3334 792.7573 148.0838 791.3559 147.7342 789.5645 147.8991 786.8863 148.3959 784.6297 149.2773 781.3291 150.6957 776.3369 152.8724 774.5097 153.5015 773.7514 153.7624 772.7001 154.0987 770.9339 155.0601 766.4365 157.5145 760.0141 161.2314 757.2046 162.9247 755.5325 164.3805 753.8534 165.6358 752.2167 167.265 751.1859 167.8911 751.0107 167.5109 751.1243 167.1227 Z M 244.1043 1 250.8824 1.2938 257.9386 2.1852 259.8139 2.3077 260.7365 2.4175 261.8876 2.291 264.9065 2.7596 270.8699 3.1347 272.7742 3.1723 272.7798 3.1724 276.8321 3.2297 280.8332 3.4386 281.9374 3.5395 288.4092 3.8197 288.8943 3.9291 291.4951 4.148 293.0003 4.2117 296.6813 4.495 298.571 4.5662 298.8386 4.5763 303.0359 4.9385 303.7074 5.0396 308.8285 5.1832 308.9744 5.2011 312.747 5.414 312.7525 5.4143 318.3921 5.8027 318.4199 5.8047 318.4689 5.8015 321.411 5.6689 324.091 5.7698 327.9325 5.6077 330.1937 5.6474 333.8332 5.9778 334.7501 6.0609 337.2796 6.1893 338.4068 6.2655 347.3616 6.8654 353.6348 7.2802 354.2966 7.3252 354.3871 7.3355 366.4652 8.1758 372.4025 8.2556 372.6554 8.2716 377.4215 8.3816 377.6077 8.3868 381.8048 8.49 387.8972 8.5612 390.2127 8.5872 390.2189 8.5873 393.3253 8.6145 395.5167 8.6331 395.5639 8.6364 399.7217 8.6738 401.0885 8.6856 402.2494 8.6615 402.6315 8.6535 417.9174 8.8496 422.1314 8.899 422.1741 8.8992 435.7549 9.0744 436.0209 9.0776 439.6221 9.0591 441.7564 9.0474 441.7807 9.045 450.875 9.0738 459.1543 9.0919 461.9283 9.0558 462.724 9.0453 462.7944 9.0479 469.0324 9.0321 469.0674 9.032 470.1188 9.0548 470.2378 9.0509 483.1439 8.9823 483.7965 8.9783 483.9062 8.9747 486.4174 8.9785 486.4391 8.9747 488.7967 8.9853 488.8744 8.9853 499.3583 8.9846 499.3609 8.9846 502.0954 8.9733 502.7193 8.9572 504.8712 8.9432 510.5517 8.9039 511.1488 8.9037 511.8981 8.9149 516.2929 8.9792 522.7023 8.9524 522.9941 8.9532 524.7457 8.933 528.1975 8.7736 528.2179 8.7724 529.4432 8.7467 529.4434 8.7467 530.8412 8.7135 531.2727 8.7128 541.2316 8.5109 541.2384 8.5108 548.0846 8.3934 548.1926 8.3847 558.1343 8.3519 558.1709 8.3555 565.8562 8.2349 566.4582 8.2252 566.5009 8.2273 578.8365 8.0278 580.38 8.0002 581.0073 7.9904 581.6484 7.9773 590.5931 7.7902 592.1367 7.757 632.2706 7.1885 640.3985 7.0508 641.7225 6.8502 643.5377 6.6872 643.9971 6.7867 644.0087 6.7892 645.0486 7.0142 647.5191 6.9744 650.1537 6.8498 666.0164 6.5971 666.0153 6.5947 665.8983 6.3535 665.9155 5.8348 666.0088 5.6836 675.6523 5.6256 677.936 5.5656 680.7374 5.529 681.741 5.438 696.1641 5.1024 697.7198 5.0867 699.1597 5.0719 699.173 5.0714 703.6046 4.9076 705.9255 4.8209 713.77 4.6308 719.3837 4.4904 719.3915 4.4902 736.2903 3.9826 744.0454 3.7387 744.754 3.7275 750.8711 3.5325 751.0392 3.5271 751.2429 3.5205 751.296 3.5188 754.0221 3.4192 754.9603 3.3886 755.1728 3.3816 755.5535 3.3692 755.6685 3.3654 755.8824 3.3555 756.4913 3.3274 756.5714 3.3358 756.6861 3.321 757.164 3.3052 757.2171 3.3035 757.6864 3.288 757.766 3.2854 758.8901 3.2482 759.9777 8.7984 762.2118 17.281 763.8977 24.4089 766.1341 31.7562 768.4086 38.1738 768.4894 38.4017 769.7282 41.0905 771.8077 46.5866 773.7548 51.0033 775.8151 54.9263 779.441 61.1007 787.9794 78.1469 789.707 82.6261 791.0182 85.3145 791.5704 86.4007 791.2946 87.2124 790.6859 87.2818 790.2101 86.6744 789.8415 85.6186 788.8379 85.1874 788.2148 83.49 787.5874 82.6017 786.3493 80.2349 785.1555 77.8068 783.1232 75.1167 783.0197 73.2683 782.3875 71.5746 781.7339 70.3397 780.7111 68.3554 779.4903 66.7106 778.873 66.5369 778.7288 65.7675 778.397 65.0235 777.7295 64.0876 773.7052 63.2104 773.3718 62.408 773.3781 61.2451 773.7332 59.9828 773.667 59.4328 773.2796 59.0973 772.364 59.0999 772.0359 58.4426 771.9088 57.4878 772.0528 56.2328 771.997 55.3046 770.8838 50.285 770.4953 49.3316 770.3419 48.196 769.9922 46.8772 768.2573 42.8314 767.3434 40.5448 766.6544 38.7962 766.5555 38.7007 766.172 38.3302 765.6941 37.7885 764.9614 36.9121 764.9241 36.5065 765.2068 35.189 764.5481 32.3626 763.7762 31.691 762.7923 31.6659 762.4327 31.4163 761.7368 30.2188 762.0015 27.6813 762.8031 26.4918 762.7987 25.6781 762.3271 23.8482 761.6901 22.9976 761.3125 22.8939 760.9113 22.0934 760.7982 21.5159 760.7752 18.0869 759.5998 16.4984 758.1333 15.9656 757.4118 15.35 757.0616 13.2689 756.2353 10.9128 755.5686 10.5278 755.0536 10.4864 754.6824 10.5567 754.0896 10.9829 753.8031 10.9159 753.0534 10.0807 750.8585 9.6632 749.7546 9.7378 749.5442 10.7532 748.2295 9.8669 748.981 7.7633 748.4311 6.3595 747.5382 6.1138 745.2161 6.3031 744.9068 7.4836 743.4963 8.1816 744.5354 11.2477 745.66 13.8482 746.3981 15.0567 747.1649 15.6504 748.4279 16.1684 749.3032 16.2888 750.9441 18.2482 752.8543 18.0087 753.214 17.5302 753.53 17.0178 753.9099 16.8994 754.3429 17.1944 755.1156 21.2297 755.0892 21.8757 754.5633 23.5899 754.601 24.2437 755.1259 25.1397 755.3459 25.2714 757.2455 28.8217 757.9704 31.6907 758.5406 32.6369 759.3855 32.8192 760.0701 32.5863 760.4772 33.0218 760.4147 34.5909 759.9745 36.1437 760.3221 38.0049 760.8545 39.4109 761.754 40.0498 762.7463 41.832 762.5161 42.5372 762.694 44.3754 764.1883 46.3987 764.3579 47.7594 765.2005 48.7343 766.4544 51.3577 767.3477 54.6909 767.1796 55.8623 766.6591 55.7772 763.3515 53.6828 762.2749 52.6837 760.4003 49.9557 760.4786 48.3909 760.6268 46.4189 758.8283 43.4331 756.2748 40.718 755.1192 37.2264 752.6259 35.7894 751.7861 36.0615 751.3251 36.2108 752.0206 36.9094 753.1513 39.6811 752.2922 42.4032 754.0967 44.2423 755.8387 45.0964 756.9538 45.9921 755.6144 45.9624 755.2075 46.115 753.9202 45.9441 748.8809 44.7199 746.9132 43.8665 746.7326 43.6568 745.7815 42.1723 744.4414 41.3212 743.4438 39.2507 740.9979 38.3582 736.3366 32.9991 733.7158 32.7192 731.6204 31.9941 731.5271 32.5779 731.3205 33.8714 732.913 35.5279 734.8648 35.6792 738.0241 41.0681 741.2536 42.6003 742.6762 46.3338 743.2033 47.4307 743.2816 48.0747 742.86 48.6962 742.2096 49.113 740.3662 49.6546 732.7184 51.2529 730.1854 49.7722 728.2194 47.5156 727.4017 46.2257 726.4123 45.7293 725.8323 44.7481 724.5085 44.1713 724.1038 44.2605 724.0387 44.2749 723.7903 44.7234 725.0259 46.1376 726.4983 47.1979 728.2806 50.5874 731.6357 53.0768 729.4589 54.443 727.4792 54.1526 725.1142 53.5242 719.2454 50.5455 715.3443 50.1244 713.4923 47.4114 708.5695 44.3164 707.9901 44.6206 707.8628 45.3222 715.1933 52.0923 717.8158 51.952 718.8677 53.0394 722.1253 54.0176 721.6834 54.9603 719.9735 55.881 719.2264 56.0185 718.749 55.7415 717.1544 55.7866 712.2088 56.8545 712.1297 57.1547 712.039 57.4985 711.371 58.7957 709.4549 60.8245 708.7152 61.2514 708.0917 62.489 708.0558 62.8968 705.1643 63.6722 703.2057 65.0904 700.2352 64.7038 698.8266 64.7407 697.7103 65.1765 697.2847 65.0713 696.4622 64.1626 695.1448 62.2785 694.0986 61.7822 692.6419 61.7612 690.7262 62.1583 688.6384 61.2736 684.3451 49.8743 684.3857 44.1771 688.1067 36.6407 686.6395 35.5253 686.4933 35.4141 684.1931 39.2847 682.1221 42.7658 681.6171 49.9969 684.429 58.8415 688.0998 66.0599 688.4989 66.9799 688.054 67.9789 687.1406 69.0477 686.7424 70.0456 687.0121 71.4339 687.5357 72.2139 687.5494 72.2343 689.1736 73.2401 689.742 73.4003 690.6777 73.2024 695.0443 72.9174 695.4113 72.5592 696.9091 72.2882 702.1192 71.9196 703.9817 71.2308 704.9058 70.6249 706.9556 69.9304 708.1016 68.8532 713.6246 67.1615 714.3891 67.6052 715.1198 68.5149 715.1946 69.501 716.6949 71.4497 716.903 71.7199 718.92 71.5468 720.9287 71.0828 724.8857 68.1206 730.0483 66.2836 733.3643 65.6035 740.7561 65.408 741.7091 65.727 743.576 65.3202 747.0337 67.6533 747.916 68.7881 747.974 69.135 747.5389 71.7066 748.0851 73.1567 746.1614 76.622 743.9587 80.7184 745.2569 85.8389 745.8931 95.6185 746.9213 98.6327 746.2881 101.4423 746.1374 102.1107 746.7204 102.9489 747.6481 103.1258 749.0005 100.9387 749.084 100.8035 751.0757 89.9054 750.81 82.3204 751.4282 75.6521 752.4546 75.3867 752.776 75.1438 754.0237 73.0108 755.2167 72.1002 755.5906 72.0299 755.8141 71.6738 755.8306 70.7431 754.8062 69.6137 754.2839 69.4562 753.9908 69.1169 753.9287 68.6538 754.7079 68.0473 758.1383 66.5984 759.9165 66.3654 761.6084 66.3675 762.5551 66.5686 766.2329 68.3056 766.6283 68.8736 767.0396 69.9061 768.7172 70.8376 768.745 71.6506 769.1116 72.7426 770.0682 74.5704 771.66 77.0739 771.5921 77.8321 772.0874 79.908 773.3601 81.3176 774.0819 83.1216 774.1724 84.3709 773.7225 86.6717 773.2674 88.0528 773.1948 88.8621 773.5595 89.2219 774.6088 91.9165 775.2212 95.0606 775.5969 95.7302 775.8347 96.7771 775.8017 97.2748 773.3707 99.7793 773.3845 101.6407 773.9015 103.4849 774.5922 104.5161 774.6029 104.8261 773.1024 106.6155 771.7183 107.4078 770.4012 108.694 770.7016 110.1112 768.7563 110.7359 765.1927 111.2282 763.8543 110.4039 763.1203 109.5596 762.2176 110.02 759.9964 111.1522 758.9894 112.7368 758.8524 113.1757 758.8849 114.1675 758.2077 115.0586 755.6012 115.5777 755.21 115.9627 754.8228 116.4716 754.0196 118.1732 753.9931 118.9187 754.2731 119.7785 754.1823 120.0917 752.0475 121.2152 751.3226 122.2312 751.4648 123.5299 751.1975 124.6555 750.1772 125.9291 749.9582 126.991 750.0924 128.0418 749.8111 128.7332 749.2772 129.4328 748.8812 129.6935 747.8017 129.107 746.635 128.9573 745.7961 129.6041 745.46 130.173 745.4831 130.917 745.7548 131.5292 745.8866 132.5179 745.0722 133.9707 742.9833 135.0902 740.2894 136.2899 739.4362 136.5022 738.5623 137.7078 738.5959 138.8237 737.9969 139.0902 736.5745 138.8849 736.2602 138.522 735.0325 138.0624 732.9101 138.1257 730.2388 136.7154 728.6219 136.7628 728.2357 137.3945 727.5319 137.5391 726.0087 137.3351 723.9556 136.2773 721.931 136.2111 721.2271 136.3552 720.7498 137.3616 719.9447 137.5084 718.5193 137.1763 717.6901 136.4549 716.9793 136.3506 716.4739 136.3647 715.4873 137.2609 714.6753 137.1593 714.564 136.79 713.5364 136.1979 712.5157 135.8535 712.0642 134.1285 710.936 133.5388 710.3298 133.5553 709.7336 133.9438 708.8509 134.9605 707.6384 134.9931 706.3961 133.9095 702.623 130.7898 698.2051 120.053 708.0366 119.49 709.7401 115.1561 708.7076 114.602 708.394 114.4337 707.3414 116.587 700.8005 117.7849 696.8568 116.8246 693.8827 120.0118 696.9839 125.3966 699.1052 133.4808 696.7814 133.5406 687.3212 129.3577 682.927 130.3752 676.4127 127.3237 666.3674 124.7288 658.8536 120.2988 658.7278 123.0143 664.2409 128.7186 670.965 129.0277 691.6832 138.242 696.8579 139.0556 697.227 139.1135 698.5509 139.4517 701.5872 139.4969 702.1024 139.8557 706.4697 140.4847 708.1107 141.3094 709.0772 143.3931 709.5351 145.3662 709.5817 147.1024 708.7241 149.111 708.2246 149.3728 707.6405 150.257 707.5755 151.6239 707.2948 152.5001 706.3999 153.1445 704.9234 154.7969 703.6587 156.8159 703.3773 157.692 703.7298 159.5441 703.7525 160.4122 702.8951 162.5443 701.9007 163.3149 701.6189 164.1909 700.9412 165.4495 700.3455 165.9613 698.1839 168.7472 696.9853 169.5223 696.1738 169.543 695.3747 170.0598 694.68 170.6978 680.3106 180.6129 665.9191 171.7493 663.6819 170.3678 663.4675 170.9845 663.0972 172.0498 664.3109 176.5001 672.0034 181.5642 683.9041 185.3835 690.9485 180.5118 695.2741 177.5147 699.5145 177.151 701.4244 176.3569 703.8544 176.0452 707.1848 175.2124 707.7807 174.7001 708.1704 174.0692 708.2226 172.2064 709.0832 170.1978 709.5375 168.2 710.0386 167.6092 710.5162 167.4786 713.0708 169.448 713.3858 170.4197 713.5039 172.4164 714.1692 175.6527 715.9438 177.1723 716.6818 178.3282 716.9427 178.4779 722.6986 178.7867 723.1955 178.1843 722.8739 177.0171 720.9217 173.7786 719.9315 172.7869 719.5945 172.2081 719.5837 171.8163 720.6792 171.9815 723.7634 173.2665 726.0423 174.4168 726.5356 174.8339 726.5303 175.7752 726.3389 176.1027 726.0825 176.3681 725.8879 176.9542 725.8903 178.1072 726.4396 178.8847 727.8311 179.7374 727.9177 180.5191 727.7046 182.0547 727.1369 182.424 724.7483 185.4337 724.0163 186.8271 722.812 188.5867 721.5899 189.7192 719.7246 189.6934 718.9377 190.3036 718.7278 190.8584 718.5133 191.4836 718.131 191.6665 717.5226 191.4466 717.0034 190.4707 715.9844 191.0586 715.9001 193.2896 715.8785 194.2915 715.6123 194.7942 715.3141 194.9101 714.802 194.2781 714.3255 194.5514 713.6817 195.8379 712.5531 196.2996 711.4138 199.6154 710.5946 201.2261 709.4791 202.9981 708.0133 204.3859 708.361 205.5505 708.24 205.8528 707.1027 206.8779 706.5212 208.3531 706.1226 211.1392 700.4979 209.4273 700.651 201.8122 698.5698 199.6884 697.1468 200.0662 697.7066 207.8152 692.5337 207.8518 692.5609 208.6613 706.3351 214.4112 713.2698 203.8309 713.6005 202.4918 714.2524 201.7411 715.9332 200.1632 716.8686 198.7726 718.5144 196.9 719.4441 195.8574 720.3868 195.0467 722.2586 192.955 723.8725 190.87 728.1745 186.7568 731.7275 183.4925 735.1086 179.3273 738.1595 176.0986 742.3764 171.1861 743.9955 169.5677 746.0191 166.5245 746.4628 166.3539 748.4091 167.0774 748.8746 167.6118 749.1402 168.2723 745.8928 171.5179 740.2342 176.4007 731.8455 185.7466 725.0394 191.8138 718.3153 199.4807 712.759 207.3751 708.9584 213.2708 706.359 218.4787 705.3694 221.4674 703.545 218.4891 703.6366 217.1335 703.9363 216.8456 703.9925 215.2109 701.2195 213.6728 697.6258 212.3991 695.4159 211.8958 693.6078 211.0686 692.3482 210.2582 690.7689 210.3683 687.7464 209.981 683.8409 210.0524 679.5509 210.5049 671.5259 211.893 663.939 213.5177 660.2539 214.5284 653.3089 216.9466 650.7235 217.8452 647.765 219.1079 647.1956 219.4204 644.2192 221.0529 641.3657 223.0423 634.0646 228.9107 621.4236 236.2208 618.825 237.948 616.4725 239.71 612.9658 242.334 610.6842 244.2143 605.9528 248.8063 603.5549 250.7941 601.2609 253.192 598.9224 256.0469 598.6893 256.2887 596.5121 258.5456 594.3743 261.5442 594.3258 261.6213 588.5462 270.7838 587.4286 273.2116 584.906 280.0326 584.54 280.4289 584.2053 281.2836 580.9153 291.9428 579.8159 294.8753 578.9917 296.6888 578.1516 298.5365 577.2507 302.3502 576.98 305.0535 576.0349 306.0352 572.7041 304.5087 572.407 304.214 572.4494 303.5056 571.5763 301.2577 564.5275 299.3772 560.7183 298.7383 556.9829 298.5442 547.9715 298.8374 538.1063 300.0668 526.6747 304.1651 523.7475 305.7719 520.1266 302.0628 516.8525 298.7051 516.3521 298.2057 513.687 295.5448 513.6844 295.5422 513.5681 295.426 512.5655 294.4244 508.8659 290.6079 508.1891 290.0129 507.9993 289.7882 502.7399 284.4574 500.4648 282.1484 498.8663 280.5251 494.8633 276.4563 493.0898 274.6519 491.7214 273.2716 489.8734 271.4066 484.9515 266.4338 482.0209 263.469 475.1367 256.4934 475.1299 256.4865 475.1289 256.4854 468.5668 249.8113 467.816 249.0459 464.2423 245.4035 464.1239 245.2612 464.1135 245.251 463.4922 244.6364 462.0078 243.108 461.9447 243.043 459.3175 240.3362 458.8742 239.8792 455.5181 236.2455 453.7066 234.2826 452.2002 232.712 452.0546 232.5299 451.4672 231.9122 449.019 229.3151 440.7085 220.9415 439.8275 220.0568 439.687 219.9351 439.6648 219.916 439.017 219.3593 438.7561 219.1513 438.0616 218.3308 438.0592 218.3279 437.0736 217.3115 434.4653 214.7082 434.3545 214.5968 433.2496 213.4862 431.2651 211.4903 430.6112 210.8659 424.3028 204.564 424.0648 204.3225 420.3608 200.5805 419.2021 200.5571 419.0106 200.5516 418.7619 200.5462 414.1258 200.4438 414.0526 200.4395 411.5244 200.3938 411.4539 200.3959 402.6567 200.3952 400.7769 200.3335 397.5182 200.2257 397.4999 200.2251 397.4644 200.2239 390.8943 199.9943 389.741 199.9535 388.4556 199.9078 387.0698 199.8542 384.3391 199.758 383.9485 199.7565 382.0646 199.6906 381.9766 199.6897 379.0623 199.5874 376.5188 199.4973 370.138 199.2681 369.7527 199.2541 365.2542 199.13 363.3465 199.0767 361.8868 199.0356 359.2367 198.9604 354.7263 198.8308 353.174 198.7687 353.0456 198.7545 352.9411 198.7576 352.3694 198.7249 351.5597 198.6967 350.2991 198.6398 350.0371 198.6292 346.9965 198.5509 346.4006 198.5354 345.679 198.4743 340.0756 198.3704 340.0708 198.3703 334.6818 198.214 334.2498 198.2003 334.2421 198.2026 332.56 198.1382 332.3839 198.1328 330.1708 198.0758 328.9906 198.0452 325.1084 197.9433 321.0477 197.8349 320.5117 197.8204 318.7159 197.7804 318.7729 197.3301 318.9697 195.7746 319.8648 188.6938 320.3307 185.0054 318.1725 181.9767 318.1439 181.937 316.8388 180.0996 315.1789 177.6492 312.521 173.7222 311.2927 171.9059 311.2583 171.8551 309.3758 169.2928 309.3476 169.2543 306.8453 165.8264 304.7472 167.418 302.3436 169.0365 301.8853 169.345 301.1938 169.8104 298.7604 171.4472 297.0993 172.5638 296.3515 171.3856 295.8493 170.8377 295.6779 170.5792 295.6664 169.3917 295.7656 167.9654 296.2527 166.855 296.4385 166.5781 296.7631 166.3858 297.338 166.2499 297.5933 166.1895 297.8142 166.0211 298.0167 165.5897 298.0511 165.3714 298.0107 164.9607 297.6906 163.9826 297.4993 163.5654 296.4763 163.0213 296.4219 162.9534 296.4102 162.7784 296.7372 161.6252 296.8065 161.4704 297.0559 161.1705 297.1457 161.1202 297.1959 161.0264 297.1291 160.9557 294.1011 160.6569 291.2161 160.3712 291.077 160.3607 288.6119 160.1748 279.5017 159.4815 279.2921 159.4652 277.1707 159.3194 276.7917 159.2933 274.88 159.1614 271.5146 158.9282 268.042 158.6863 268.0338 158.6857 260.926 158.1759 260.3163 158.1319 259.5051 158.0726 256.6247 157.8611 256.5466 157.8669 251.9651 157.5502 248.6763 157.3215 245.6884 157.0895 242.8236 156.8661 239.7553 156.6258 236.5644 156.3747 234.5629 156.2492 231.8968 156.0814 231.5149 156.0573 228.8387 155.8878 222.3282 155.4088 222.3053 155.4074 217.7217 155.1256 213.7873 154.8228 210.9019 154.5996 207.4614 154.3931 206.6736 154.3456 202.9677 154.1214 201.4844 153.9872 198.53 153.7193 195.9446 153.5763 195.1165 153.5406 194.3404 153.4542 193.4446 153.3606 191.606 153.1841 191.5811 153.1817 190.2959 153.0618 190.2601 153.0585 187.8712 152.7785 186.309 152.5703 185.7736 152.5716 185.6242 152.5719 185.0853 152.693 184.4511 153.0746 183.3806 153.2557 182.6807 153.4455 182.5885 153.4879 182.3984 153.7931 181.8941 154.1156 181.5738 154.0757 181.2528 153.8764 181.2402 153.6259 181.0481 153.4416 180.9618 153.437 180.5887 153.6071 180.4538 153.6116 180.3984 153.5813 180.3111 153.322 180.0143 153.1351 179.5152 153.1472 179.1917 153.2068 178.483 153.3372 178.3178 153.4634 178.2851 153.6432 178.2855 153.8405 178.2063 154.0023 177.7731 154.3169 177.5642 154.343 177.394 154.2543 177.0787 153.9981 176.8261 153.7185 176.7285 153.4193 176.7076 153.2377 176.7698 152.9767 176.9055 152.7263 176.9535 152.4895 176.8085 152.0184 176.5351 151.4165 176.5228 151.0963 175.9633 150.5419 175.7391 150.5337 175.4821 150.7668 174.7616 151.708 174.0384 151.9037 173.463 152.1442 173.2641 152.3052 172.8193 152.8999 172.4645 153.9777 171.8673 155.3312 171.7153 155.665 171.3567 155.8575 170.5094 155.9202 170.3092 155.8888 170.1672 155.4711 170.1956 155.0716 170.1831 154.8433 169.957 154.5337 169.556 154.4408 168.8317 154.8039 168.4424 154.7922 168.1014 154.6849 167.3926 154.8472 167.0798 154.9805 166.7624 155.2766 166.3154 155.8579 165.9224 155.9148 165.3564 155.8712 164.4624 155.8904 164.3829 155.9333 164.3477 155.9747 164.1683 156.1451 163.9625 156.3802 163.5469 156.598 163.1785 156.7102 162.9455 156.7022 162.761 156.5529 162.6501 156.3555 162.6297 156.2891 162.2496 156.1604 161.8855 156.1477 161.6233 156.1386 161.3436 156.2182 161.1196 156.3711 160.9988 156.4918 160.9322 156.7404 160.9252 156.9357 160.8044 157.0565 160.5829 157.138 160.3862 157.0521 160.1193 157.0504 159.8953 157.2034 159.7696 157.4668 159.5418 157.7267 159.1467 157.8924 158.7727 158.0492 158.5577 158.0816 158.4566 158.0107 158.0814 157.9103 157.8893 157.9272 157.4894 158.3467 156.9702 158.469 156.5952 158.3115 155.9333 158.2878 155.6836 158.3678 155.5528 158.441 155.5013 158.5307 155.1723 158.677 154.8823 158.7369 154.5361 159.1887 154.3832 159.4625 154.1426 159.647 153.8222 159.6712 153.6354 159.6111 153.3232 159.4044 152.9648 159.2672 152.6861 159.3461 152.3735 159.5161 152.1209 159.7172 151.9209 160.0301 151.5191 160.3002 151.1067 160.4256 150.4549 160.4044 150.1988 160.2528 150.1326 160.0726 149.9819 159.8182 149.8304 159.5816 149.4709 159.4798 149.223 159.5064 149.0003 159.6406 148.9485 159.9394 148.9187 160.1627 148.8354 160.2152 148.7138 160.3416 148.5611 160.5494 148.4973 160.7072 148.4771 160.8665 148.5281 161.0639 148.6909 161.3899 148.711 161.6397 148.5961 161.8818 148.0994 162.4889 147.7605 162.6189 147.5441 162.5755 147.2835 162.5483 146.9875 162.66 146.2392 163.0302 145.7768 162.9778 145.509 162.8492 145.1884 162.8595 145.004 163.0917 144.9484 163.2429 144.9224 163.5471 144.8005 163.7026 144.3413 164.0919 144.1052 164.4419 143.7959 164.555 143.3782 164.4508 143.0998 164.5117 142.9437 164.8083 142.9198 165.0598 142.6433 165.4731 142.3176 165.6389 141.7088 165.599 141.1948 165.8782 140.5286 166.0008 140.125 165.6905 140.2626 165.4498 140.324 165.2984 140.3311 165.1031 140.4102 164.9439 140.5772 164.5955 140.6899 164.1067 140.4921 163.8536 140.2785 163.7444 140.2728 163.7339 140.0828 163.6148 139.6674 163.6629 137.6683 164.2815 129.6668 166.4887 120.3281 169.0057 119.5246 169.2358 110.396 171.8446 110.3954 171.8446 103.0137 171.676 91.0628 171.5706 76.6101 171.2071 70.6172 171.0495 64.2332 170.8047 64.224 171.4118 52.521 170.7485 45.2012 170.4461 35.7116 169.9659 35.6919 169.9649 29.5102 169.6656 28.0599 169.5947 27.2849 169.5682 18.3233 169.0969 18.3141 169.0964 1 168.0993 2.5842 158.1848 2.7937 156.6622 2.8085 156.6175 3.2981 153.4906 4.1715 148.4791 4.5059 146.8419 4.9066 144.1848 4.9068 144.1835 5.2016 142.1123 5.2521 142.2138 5.398 142.2446 5.8377 142.0346 5.9079 141.8946 6.5848 141.1676 7.981 140.4559 8.2388 139.9942 8.6975 139.6534 9.5982 139.2913 9.8609 139.084 10.6693 138.0651 11.0459 137.7421 11.4206 137.6289 12.0785 137.7845 12.4717 138.0148 13.0011 138.7493 13.0112 138.9045 13.2159 139.1921 13.2752 140.0784 13.4014 140.4274 13.4856 140.5423 14.1017 140.6403 14.4254 140.9995 15.3183 140.9681 15.4625 140.7876 16.0741 140.4433 16.2357 140.4515 16.8783 140.7385 16.9613 140.6986 17.1071 140.485 17.4337 140.4354 18.5305 140.4473 18.8327 140.54 19.1212 140.7093 19.3949 140.8449 19.6382 140.8921 19.7908 140.8651 19.9363 140.7912 19.9926 140.5657 20.1164 140.2516 20.1818 140.2053 20.5243 140.1327 21.0503 140.1821 21.0673 140.2574 21.1204 140.3357 21.2186 140.3517 21.6629 140.2251 22.1315 140.42 22.2054 140.4973 22.629 140.5997 23.1187 140.3373 23.9928 139.5967 24.0117 139.3987 24.1764 139.1569 24.7625 138.9614 25.1339 138.9138 25.7692 138.6252 26.4956 138.4959 26.7838 138.3114 27.7184 137.4299 28.376 136.3246 29.0167 135.9693 29.1253 135.909 29.5365 135.598 29.7555 134.9901 29.3408 134.0966 29.1494 133.9655 28.5928 133.761 28.5349 133.6586 28.5796 133.1194 28.8926 132.3025 28.9018 132.169 28.9346 131.9438 29.1065 131.7424 29.2138 131.4479 29.0615 131.0822 28.9599 131.0321 28.5159 129.7373 28.5766 129.5761 28.7749 129.4773 29.7411 129.187 29.8594 129.1574 30.1704 128.8098 30.2708 128.5865 30.6648 128.0206 31.3774 127.3054 31.3519 126.5062 31.2381 126.0806 31.1218 125.887 31.1854 125.6913 31.4196 125.3162 31.4234 125.239 30.9348 124.3971 30.84 124.3151 30.5833 124.236 30.5244 124.1557 30.3064 123.6587 30.2994 123.3009 30.4156 123.0388 30.694 122.9045 30.9583 122.8293 31.2457 122.4679 31.8491 121.8901 32.132 121.7201 32.3565 121.4381 32.4211 121.3376 32.5438 120.8303 32.6974 120.5092 33.0837 120.0527 33.9433 119.6217 34.416 119.0406 34.8904 118.9424 34.9 118.5383 35.069 118.2634 35.2134 118.2376 35.4963 118.307 35.6266 118.2628 35.9917 117.8281 36.0407 117.4612 36.0453 117.362 36.0454 117.3603 36.0478 117.3174 36.3376 117.3241 36.549 117.4179 36.7608 117.74 37.0765 117.697 37.671 117.293 37.7556 117.0574 38.2403 116.6107 38.9014 116.442 39.3385 116.4021 39.8132 116.4824 40.062 116.4674 40.5252 116.223 40.7695 115.8276 40.9042 115.3167 41.1465 114.8133 41.5227 114.6143 41.6402 114.3914 41.6584 114.2712 41.5565 114.1462 41.5652 114.0057 42.105 113.4447 42.3432 113.4137 42.4333 113.3256 43.1841 112.2941 43.3597 111.8134 43.5908 111.6518 44.2699 111.4194 44.8252 111.4721 45.4703 111.3992 45.9462 111.5096 46.4198 111.7312 47.1748 111.5132 47.9354 111.1953 48.3346 111.2269 48.4948 111.3256 49.9633 110.2376 50.0715 110.0102 50.6605 109.4666 52.0888 108.9143 52.7026 108.5912 53.3691 107.8407 53.5146 107.3335 54.1496 107.4276 54.5958 107.3432 54.8483 107.2322 55.4641 107.5327 56.7592 107.1174 56.9909 107.383 57.8334 107.5632 58.0801 107.412 59.3226 106.8969 59.6223 106.9172 59.7743 107.0173 59.9027 107.0247 60.1603 106.9559 61.3863 106.9579 62.0993 106.8317 62.3767 106.9898 62.9892 106.9722 63.2787 107.0127 63.2846 107.0135 63.4617 107.1246 63.7346 107.0262 64.1572 107.1453 64.8318 107.4507 65.279 107.4436 65.5809 107.3446 65.7071 107.2319 66.0226 107.1442 66.2514 107.2877 67.5729 106.6701 68.1748 106.0982 68.5396 106.1271 68.7982 106.2617 69.4503 106.8785 69.9972 107.5605 70.044 107.8881 70.1774 108.013 70.4974 108.0559 71.0102 107.9316 71.3686 107.7822 71.9379 107.7554 72.5429 107.9149 73.1759 107.9931 74.1977 107.8891 74.7884 108.0298 76.0193 107.9817 76.2659 108.2943 77.9876 108.3588 78.6053 107.9569 79.1596 107.8338 79.6401 106.9239 79.84 106.649 79.7863 106.2531 79.81 106.1932 80.1496 106.047 80.3984 105.8617 80.4123 105.5781 80.5349 105.4533 81.3231 105.2344 81.972 104.6614 82.29 104.1371 82.7915 103.5244 82.9261 103.1835 83.3378 103.2087 84.1253 103.4417 85.0906 103.3464 85.1473 103.3035 85.2094 103.0996 85.9881 102.7521 86.5218 102.4146 86.7502 102.2999 87.378 102.1717 87.7449 101.9253 88.1418 101.1409 88.1369 101.0046 88.9 100.9137 89.1018 100.9455 89.2192 100.714 89.505 100.4726 89.6444 100.4372 89.8005 100.5661 89.9979 100.5748 90.1097 100.5215 90.9312 99.6125 91.1237 99.3179 91.2094 99.0654 91.205 98.8118 91.376 98.5048 91.5854 98.2509 91.7963 98.1499 91.9727 98.1994 92.8415 97.9494 93.0959 97.6955 94.3231 98.0413 94.5911 98.4724 95.0317 98.9557 95.2328 99.0037 95.9746 98.8571 96.4409 98.6907 96.7714 98.2442 97.0283 97.6793 97.0892 97.0736 97.2335 96.873 97.963 96.5401 98.4802 96.3784 98.8563 96.1719 99.0624 95.7468 99.4198 95.5264 99.7973 95.3622 100.0904 95.0697 100.3336 94.623 100.4021 94.0258 100.3255 93.75 100.4296 93.4081 100.5191 93.1488 100.5101 92.8298 100.4321 92.5381 100.4338 92.5252 100.4502 92.4001 100.8341 92.009 101.5384 91.7494 101.6658 91.6327 101.811 91.2939 102.5789 91.3991 103.4204 91.4297 103.659 91.3885 103.924 91.4933 104.1387 91.6477 105.109 91.4539 105.4275 91.6021 105.5944 91.591 106.4985 91.1529 106.7388 91.1526 107.0849 90.5481 107.2131 90.179 107.5341 89.6365 108.0467 89.4295 108.1986 89.4215 108.72 88.5028 108.6798 88.0503 108.7318 87.9127 109.0485 87.5504 109.2634 87.3903 109.7187 87.4765 110.2548 87.4968 110.3577 87.4094 112.0917 87.1521 112.7555 87.3843 113.3558 86.9694 113.6422 86.9034 114.1616 86.6409 114.1847 86.559 114.3907 86.4744 114.5756 86.5179 114.5673 86.5111 114.5764 86.5157 114.8531 86.3831 115.8817 85.5895 115.9671 85.3536 116.5616 84.9712 116.9839 84.9281 117.1379 85.1227 117.867 85.3359 118.088 85.3303 118.3773 85.1798 118.8889 85.0559 119.2511 85.2738 119.4415 85.486 119.6357 85.5496 119.7647 85.5481 120.0526 85.4082 120.3502 85.3507 122.4457 86.2715 123.0031 86.4497 123.3932 86.9788 123.897 87.0675 124.2356 86.9902 124.9753 86.5706 125.4916 86.0828 125.8626 85.6356 126.3051 85.3356 126.803 85.32 126.9169 85.1306 126.9831 85.0205 126.9365 84.7568 127.0595 84.1691 127.3195 83.8664 127.5912 83.3744 127.6331 83.1631 127.9932 82.4724 128.611 81.5599 128.7656 81.4581 129.3436 81.2947 129.744 80.6923 129.8803 80.3181 130.2728 80.0864 130.6516 80.0251 130.9464 79.7724 131.0548 79.4246 130.9149 78.7321 131.098 77.6955 131.2076 77.3182 131.3826 77.0903 132.7623 76.4264 132.9121 76.2102 132.972 75.8898 132.9347 75.6245 132.8263 75.3562 132.5792 74.9948 132.612 74.7614 132.7891 74.4747 132.8004 74.1818 132.577 73.7226 132.4094 72.5691 132.0166 71.7463 132.0225 70.9837 132.088 70.5169 132.1636 70.4025 132.5437 70.3877 132.8099 70.2513 132.9103 70.1085 132.9881 69.9354 133.0027 69.2439 133.3202 68.4401 133.3239 68.4417 133.457 68.498 133.8417 68.4511 134.6366 68.0386 135.5228 67.6851 135.8312 67.7751 135.9456 67.9368 136.6983 68.3115 137.4336 68.1562 137.6692 68.3105 138.4097 69.0067 138.516 69.1824 139.0941 69.7755 139.367 70.0089 139.472 70.0173 139.7161 70.3811 139.996 71.1856 140.0564 71.2643 140.5764 71.0467 141.0397 70.7531 141.2224 70.7114 141.5825 70.7329 141.7779 70.5364 141.7935 70.4137 141.5473 69.8317 141.518 69.6548 141.5511 69.5423 142.0601 68.8747 143.2493 68.0347 143.4812 67.2627 143.4802 66.8984 143.5589 66.7495 143.6927 66.6355 144.1762 66.4403 144.4507 65.891 144.3223 65.6755 144.1307 65.5684 143.978 65.6099 143.846 65.5832 143.5252 65.2143 143.5872 64.1933 143.593 64.0979 144.135 63.6118 144.2256 63.1193 144.3494 62.924 144.469 62.7858 145.4286 62.501 145.9859 62.389 146.4051 62.3933 146.8041 62.2203 148.473 61.0005 148.833 60.9143 149.0812 60.9565 149.9105 60.4787 149.9699 60.3209 149.9628 60.0279 150.0053 59.8417 150.6973 59.7012 151.0896 59.4615 151.2848 59.2477 152.3883 58.8239 152.6959 58.4595 152.7793 58.1313 152.8906 58.0138 153.8519 57.5735 154.2715 57.3125 154.7875 57.0991 155.2763 56.9366 155.4914 56.9897 155.9118 56.8302 156.5194 56.2998 157.1012 55.9893 157.5371 56.0158 157.8701 56.4252 158.7103 57.1175 158.8274 57.3315 158.7443 57.6598 158.7188 58.1227 159.1263 58.2033 159.4677 58.381 159.7641 58.8221 160.0522 58.9618 160.233 59.2344 160.3944 59.6001 160.6177 59.8599 160.725 60.1157 160.6528 60.5091 160.2296 60.9622 159.8379 61.3445 159.1193 62.6421 158.9352 62.8012 158.8859 62.932 158.8109 63.2827 158.9673 63.9846 159.0031 64.0424 159.5024 64.2055 159.7244 64.749 159.4902 65.058 159.0814 66.1483 159.0055 66.4795 159.0533 66.9239 159.3267 67.0866 159.9802 67.2639 160.4743 67.2017 160.7354 67.0963 161.7106 67.2219 161.9981 67.3823 162.0717 67.9305 162.2027 68.0312 162.8754 68.3675 163.7276 68.5795 164.1712 67.8522 164.4982 67.4608 165.1563 67.0729 165.445 66.9591 165.8501 66.8879 166.1684 66.6448 166.939 66.5336 167.1257 66.4078 167.5066 66.2746 167.8484 66.3189 168.3483 66.136 168.493 66.1193 168.4993 66.1186 168.9795 65.5961 170.1507 64.6427 170.1546 64.6344 170.4028 64.5087 170.4969 64.3996 170.521 64.1334 170.6344 63.9673 171.3651 63.7398 172.2478 63.0631 172.6003 62.9314 176.7633 55.898 177.4442 54.7464 177.905 54.298 179.2305 53.3151 180.0851 53.0783 180.2493 52.6973 180.5445 52.3979 180.919 52.3242 181.3524 52.1991 181.866 51.8887 181.9197 51.7806 182.3972 51.3546 182.8655 51.2043 182.9978 51.3389 183.1345 51.4229 184.0325 51.4853 184.4375 51.2748 184.7163 51.2295 185.0801 51.0275 185.4119 51.0175 185.7099 50.8771 186.5757 50.2868 186.7075 50.0703 187.1092 49.774 187.5799 49.5463 188.3176 49.3271 188.4055 49.363 189.1028 50.1141 189.253 50.152 189.6657 50.0658 189.9351 50.2731 190.1293 50.3423 190.4037 50.2876 190.6205 50.0189 190.9004 49.6304 191.2601 49.6181 191.5322 49.6504 191.6515 49.8198 192.0323 49.9804 192.3114 49.7781 192.4154 49.612 192.5855 49.3083 192.9325 49.0898 193.0527 49.0122 193.1389 48.9242 193.2021 48.8188 193.7995 48.2964 194.1172 47.9323 194.278 47.4117 194.3905 47.179 194.7142 47.0875 195.1278 46.9591 195.3589 46.9774 195.9197 47.2097 196.1846 47.4502 196.4046 47.7055 196.7424 48.0141 197.0407 48.1559 197.4024 48.2695 197.6697 48.5507 197.7641 48.664 197.8596 48.7443 198.1864 48.8005 198.4777 48.7462 198.6394 48.5917 198.7945 48.4751 199.0532 48.461 199.7975 48.4912 200.2421 48.3319 200.9588 48.1992 201.2789 48.7941 201.5453 49.6855 201.9027 50.5133 201.8854 51.0759 201.7442 51.5287 202.3517 53.0001 202.6566 53.2302 203.717 53.2402 204.2689 52.9698 204.6015 52.8804 204.9334 53.1002 205.2078 53.1637 206.3308 53.1642 206.775 53.2061 206.8463 53.2128 206.8846 53.1256 208.0249 52.5525 208.545 52.4464 209.0421 51.6221 209.0528 51.2692 209.2315 50.9543 210.135 51.1356 210.655 51.6256 211.08 51.7154 211.4847 51.2968 211.7144 50.7626 211.691 50.6515 217.9294 40.0237 219.904 36.9962 220.4544 36.0431 220.4568 36.0389 221.8501 33.6241 222.7835 32.0057 223.7277 31.4325 224.0051 31.4693 224.6622 31.2658 225.3748 30.7808 225.6663 30.5341 225.84 30.1951 226.868 29.0073 227.3987 28.5166 227.9793 28.2332 228.4545 27.9306 228.8517 27.6146 229.5802 27.1911 230.5356 27.0539 231.3939 26.8292 231.816 26.5035 232.4888 26.0855 232.9803 26.1235 233.2721 26.4683 233.4134 26.8092 233.6451 27.1523 233.9431 27.2727 234.188 27.2813 234.4811 27.4369 235.2639 28.0403 235.5116 28.3257 235.8439 28.2971 235.9925 28.3759 236.2314 28.4571 236.5446 28.5158 237.1297 28.497 237.4312 28.4584 237.8778 28.2518 238.2895 28.1375 238.6388 28.114 239.0838 28.2166 239.5159 28.4177 239.8486 28.6998 240.1971 28.9364 240.7114 28.8326 240.8519 28.4692 240.921 28.1006 240.7125 27.6365 240.1818 27.2513 239.7933 27.1288 239.5303 26.8224 239.4148 26.6321 239.3356 26.2183 239.3125 25.9556 239.3226 25.5815 239.1555 25.0693 238.7185 24.4872 238.576 24.2141 238.6462 23.8415 238.784 23.5086 238.8811 22.9493 238.828 22.6858 238.7427 22.4963 238.5399 22.2187 238.1861 21.9201 238.0487 21.4298 238.0639 20.8686 238.1963 20.4229 238.5571 20.147 238.9526 19.9278 239.789 19.1644 240.0554 18.4843 240.1582 18.0037 240.3187 17.6335 240.3247 17.409 240.3026 17.109 240.3418 16.7731 240.44 16.4762 240.4458 16.0423 240.3815 15.7771 240.4099 15.3523 241.0137 14.8165 241.6554 14.6131 241.819 14.6453 241.9319 14.5619 242.1774 14.2183 242.2621 13.6276 242.2394 13.4968 242.1137 13.3791 242.0516 12.3577 242.1941 11.6062 242.1171 11.4041 242.0875 11.1 242.0017 10.9785 241.8566 10.8868 241.8364 10.615 241.8654 10.5727 242.0479 10.2245 242.1106 10.1352 242.0706 9.8408 242.0808 9.7413 241.939 9.4003 241.9293 9.2478 241.8895 9.1061 241.8518 8.9912 241.6905 8.421 241.262 7.7714 241.2187 7.1066 241.2573 6.6555 241.9678 6.6057 241.9763 6.2874 242.2046 5.7807 242.5458 5.2681 242.8926 4.9382 242.9847 4.5257 242.9056 4.1119 242.7343 3.7705 242.7133 3.433 242.923 3.1106 243.2571 3.2076 243.8347 3.1453 244.0976 2.9203 244.0907 2.513 243.9445 2.0112 243.8663 1.2807 244.1043 1 Z"/>
</g>
</svg>