<?xml version="1.0"?>
<svg xmlns="http://www.w3.org/2000/svg" version="1.2" baseProfile="tiny" width="800" height="479" viewBox="0 0 800 479" stroke-linecap="round" stroke-linejoin="round">
<g id="cb_2018_us_state_5m">
<path d="M 22.2666 1 25.1023 1.1401 29.0813 1.3136 30.2313 1.3739 42.0025 1.8914 46.562 2.1252 62.9942 2.8068 77.4097 3.4003 89.821 3.9332 91.8332 3.9113 133.7384 5.3993 133.8468 5.4029 160.1131 6.2276 190.8125 7.0958 206.3515 7.4966 208.5016 7.5397 226.0621 7.8463 226.1707 7.8484 252.436 8.316 278.8445 8.6659 278.9532 8.6678 282.8707 8.7339 303.6377 8.9727 308.1537 9.0239 316.2209 9.1275 337.1101 9.2028 347.0345 9.2816 385.9408 9.3553 386.1728 9.3571 411.2378 9.3295 412.8788 9.3249 457.4373 9.0581 477.2696 8.8145 477.3783 8.8131 503.7428 8.421 529.2435 7.9333 530.2489 7.8842 530.3094 7.883 581.739 6.6962 635.8008 5.1242 635.9095 5.1207 689.9983 3.1819 708.4508 2.4207 708.2038 2.9453 708.2024 3.1322 708.3288 3.5306 708.2991 3.8486 707.9744 4.2209 707.6857 4.7349 707.5961 5.2092 707.6812 6.3553 707.6042 7.3502 707.6508 7.6723 707.7937 7.8556 708.3111 8.0558 708.4243 8.2752 708.4948 8.5097 708.5122 8.9177 708.4157 10.1082 708.4431 10.3444 708.8952 10.8002 709.0141 11.1513 709.0892 11.8996 709.309 12.5892 709.9119 12.9201 710.0367 13.2049 710.0599 13.5468 709.9049 13.983 709.9322 14.409 710.0585 14.7635 710.5797 15.003 710.7665 15.2077 710.8196 15.6199 710.6708 16.2541 710.6667 16.5179 710.9093 17.084 711.2082 17.3419 712.1159 17.7334 712.2139 17.9595 712.2301 18.6302 712.0602 19.0785 712.3021 19.7206 712.3027 20.0275 712.2318 20.4334 712.3323 20.7169 713.1188 21.4127 713.4024 21.5543 713.5609 21.7202 713.6195 21.9096 713.4864 22.6249 713.5214 22.8538 713.6934 23.0383 714.0156 23.1973 714.2563 23.5133 714.3929 24.2345 714.7659 24.7963 714.7874 25.2941 714.6628 25.6255 714.6459 25.8181 714.9627 26.398 715.0461 27.0563 715.0062 27.2189 714.8671 27.3941 714.4112 27.6887 714.3463 27.9408 714.3836 28.5149 714.7384 29.1413 714.5504 30.1265 714.7107 30.5207 714.88 30.7769 715.196 31.0731 715.763 31.2189 716.062 31.4173 716.1468 31.6247 716.1543 31.797 716.0609 32.0859 716.0708 32.3129 716.3234 32.9593 716.3694 33.6395 716.4418 33.9651 716.6238 34.1342 716.9438 34.2178 717.0531 34.3853 716.9977 34.7476 717.0208 35.2957 717.1017 35.4434 717.4078 35.6191 717.5003 35.7472 717.4603 36.2585 717.3676 36.4136 717.3386 36.6035 717.3824 36.7528 717.4898 36.9369 717.6239 37.0362 718.1836 38.0211 718.1992 38.3789 717.8561 39.3564 717.8924 39.6191 717.9983 39.7655 718.719 40.32 719.1203 40.9634 719.1645 42.264 719.2365 42.4874 719.6198 42.7926 719.678 42.9799 719.677 43.5303 719.5903 43.8375 719.6494 44.0439 719.795 44.2274 720.6137 44.8167 720.8359 45.1043 721.1841 45.9451 721.7249 46.5737 721.6791 47.24 721.4783 47.5143 721.5715 47.9278 722.6065 49.2789 723.6402 49.8408 723.7611 50.0254 723.7936 50.1948 723.7645 50.3858 723.5445 50.7938 723.4937 51.0619 723.6367 52.3221 723.64 52.8519 723.493 53.0356 723.3937 53.3437 723.6131 53.7706 723.648 54.2816 723.5383 54.6426 723.2701 54.9426 723.1461 55.2219 722.9865 55.9818 722.6674 56.4875 722.6032 56.737 722.8601 57.3448 723.0295 58.0273 723.022 58.2945 722.9239 58.4838 722.7249 58.6747 722.3752 58.7581 721.7821 58.5944 721.3407 58.8221 721.2822 58.9195 721.2963 59.2415 721.4803 59.4775 721.5089 59.8018 721.4454 60.0702 721.362 60.1687 720.9097 60.1501 720.7986 60.4775 720.8777 60.8538 720.82 61.2547 720.6739 61.3559 720.3493 61.3888 720.2182 61.5462 720.1628 62.0041 720.2638 62.3034 720.1967 62.7808 719.9618 63.4361 719.7722 63.691 719.6935 63.903 719.685 64.283 719.8699 64.5821 719.9478 64.8514 719.8602 65.9434 719.7945 66.1574 719.672 66.3017 719.3194 66.3819 719.1966 66.6193 719.2264 67.0165 719.3139 67.2975 719.3219 67.7717 719.2732 68.0964 719.0832 68.4494 718.5102 68.7362 718.3972 69.0257 718.4108 69.6325 718.47 69.8387 718.6686 70.077 718.9266 70.2368 719.116 70.5514 719.1015 70.7988 719.0087 70.9735 718.7713 70.9899 718.2698 71.3087 718.1518 71.4844 718.0981 71.6954 718.0788 72.1264 718.078 72.1431 718.2724 72.3421 718.4403 72.5141 719.0389 72.8322 719.4047 73.1583 719.585 73.5491 719.573 73.8532 719.3051 74.3392 719.2259 75.1207 719.8654 78.2821 719.928 78.564 720.0782 78.8423 720.6993 79.2524 720.8663 79.6248 720.8781 80.8609 720.7856 81.1087 720.4342 81.3989 720.3303 81.612 720.3852 82.0084 720.58 82.1518 720.7296 82.4112 720.6776 82.6601 720.5084 82.8192 720.5003 83.5028 720.6205 83.9531 720.7733 84.2883 721.5581 84.6913 721.717 84.8743 721.7527 85.4042 721.6802 86.0526 721.3499 86.5601 721.2971 86.7903 721.3193 87.3017 721.3619 87.4138 721.5962 87.5936 721.7006 87.9687 721.6483 88.5023 721.5342 88.7731 721.2374 89.1843 721.2598 89.4111 721.4145 89.7841 721.6496 90.0093 721.664 90.3396 721.5403 90.706 721.0327 90.9685 720.9596 91.1219 721.0177 91.5409 721.4412 91.643 721.7475 92.2619 721.8412 93.0401 721.7785 93.4341 721.3726 94.2037 721.0083 94.5502 720.8791 94.7965 720.8485 95.0084 720.9233 95.8177 721.1011 96.2314 721.3945 96.5498 721.4859 96.8168 721.4977 97.0871 721.3399 98.0567 721.1401 98.5166 720.9273 98.6762 720.8379 98.9207 720.8097 99.1928 720.8565 100.2741 721.288 101.0853 721.7034 101.2331 721.9194 101.4422 721.9623 101.6556 721.8824 102.14 721.9603 102.5797 722.6128 103.0835 722.6809 103.2957 722.625 103.9437 722.3591 104.6008 722.385 105.0046 722.4945 105.1274 722.751 105.1029 723.1112 105.2647 723.152 105.4276 723.1511 105.7947 722.9431 106.2341 722.8045 106.3894 722.7671 106.5783 722.71 107.0161 722.7815 107.4371 722.8878 107.6044 723.2849 107.805 723.3907 107.9609 723.427 108.7957 723.8378 109.1333 723.8642 109.2125 723.829 109.4545 723.7498 109.5611 723.3478 109.6013 723.2164 109.733 723.1832 110.0208 723.2254 110.4659 723.3981 110.6206 723.5904 110.608 723.9273 110.8698 724.4231 111.8572 724.541 112.1965 724.5665 112.4388 723.857 113.7611 723.733 113.8889 723.2377 114.0864 723.0895 114.3562 723.0922 114.5966 723.1961 114.7069 723.4439 114.7669 723.6 115.0562 723.6134 115.3651 723.3991 115.6951 723.3904 115.8444 723.4302 116.0604 723.611 116.3621 723.6505 116.5232 723.5923 116.8096 723.4547 116.976 723.0453 117.079 722.6003 117.6566 722.5338 117.8506 722.5658 118.2427 722.8948 118.7571 722.8892 118.9711 722.4895 119.2467 722.3483 119.4439 722.4106 119.8461 722.5763 120.1224 722.8912 120.2937 722.9279 120.4306 722.9098 120.7241 722.7753 120.8912 722.7414 121.2031 722.8151 121.4136 723.0149 121.5293 723.069 121.7955 723.0841 122.0886 722.8697 122.4046 722.9286 122.818 723.2115 123.1289 723.1936 123.5794 722.8958 123.7945 722.8014 124.0348 722.7761 124.3169 722.9256 125.1142 722.6226 125.7392 722.6006 125.9066 722.1619 126.9181 722.194 127.1415 722.3453 127.3487 722.5207 127.42 722.6392 127.5612 722.694 127.9635 722.6878 128.1662 722.6208 128.349 722.3424 128.7546 722.301 128.8827 722.2133 129.1535 722.2252 129.6027 722.5211 130.5217 722.7705 130.8625 723.0134 131.0196 723.097 131.2185 723.1135 131.6001 723.0681 131.9393 723.0012 132.2822 722.8172 132.7259 722.8525 133.1966 722.9365 133.4067 723.6741 133.645 723.9287 133.9827 723.8838 134.2798 723.931 134.5561 724.2273 134.9575 724.3868 135.8641 724.5511 136.3037 725.1395 137.4076 725.2428 137.7008 725.2649 137.949 725.2262 138.1171 725.0305 138.5531 724.9861 138.7843 725.0423 138.9902 725.4018 139.1693 726.0694 139.0166 726.2476 139.0512 726.4535 139.2251 726.5994 139.9712 726.9764 140.258 727.0819 140.5094 727.1003 140.7647 726.9486 141.038 726.9437 141.256 726.9897 141.3956 727.3118 141.5841 727.5757 142.07 727.6385 142.6476 727.5325 143.367 727.2055 143.8225 727.1598 144.0524 727.1862 144.1536 727.3377 144.2636 727.8821 144.3305 729.0726 146.2537 729.5078 146.6077 730.2712 147.0459 730.4479 147.2706 730.6491 147.7447 730.8807 148.7027 731.1498 150.8521 731.1312 151.0721 730.8645 151.832 730.8494 152.1248 730.8463 152.1843 731.0235 152.5127 731.1688 152.6204 731.6188 152.6803 731.7912 152.7755 731.8318 153.0517 731.5984 153.3448 731.4719 153.6236 731.8 155.3065 732.0256 155.6898 732.7957 156.1205 732.9472 156.3154 733.004 156.5218 732.9737 156.877 732.7219 158.0234 732.483 158.8289 732.4719 159.0444 732.7212 159.5711 732.6595 159.8042 732.3009 160.296 732.2796 160.512 732.3267 160.6482 732.5831 160.8673 733.1122 161.2129 733.2933 161.589 733.2993 161.9573 733.0596 162.5822 733.0301 162.8446 733.1516 163.2694 733.5304 163.6982 734.1719 164.0233 734.7712 164.0891 735.0968 164.2437 735.1671 164.6706 735.0049 165.1847 735.1902 165.6526 735.834 166.0237 737.1087 167.1654 737.0896 167.4274 736.5194 167.7905 736.7752 167.9395 737.2059 168.1902 737.4201 168.6108 737.4721 169.0847 737.2565 169.3246 736.9333 169.2314 736.5904 168.924 736.4487 168.9764 736.5506 169.4173 736.9723 169.8748 736.9942 170.135 736.6203 170.5201 736.5388 170.9999 737.1816 171.5705 737.17 171.7707 736.594 172.2416 736.5707 172.642 736.7911 172.9702 737.2144 173.2279 737.3705 173.4975 737.2787 173.7473 736.86 174.0577 736.8669 174.211 737.0716 174.417 737.4792 174.5525 738.7218 174.7125 739.0301 174.9292 739.1315 175.1244 738.9568 175.3625 738.7039 175.466 738.7437 175.6639 739.1526 176.0621 739.2992 176.1095 739.5405 176.411 739.7077 177.0912 739.8048 178.3816 739.823 178.6232 739.6746 178.8195 739.6428 179.0419 740.2172 179.602 740.8646 179.6149 741.4243 180.6985 741.394 181.2764 741.4607 181.409 741.7116 181.5901 741.7304 182.0077 741.6496 182.0678 741.5962 182.2284 741.6634 182.9549 741.9428 183.5634 741.8573 183.834 741.6568 184.0803 741.6447 184.3182 741.7134 184.496 742.1945 185.0996 742.2172 185.4008 742.3243 185.5881 742.4864 185.6487 742.678 185.5831 743.2639 185.704 743.5444 186.1055 744.145 186.4747 744.2186 186.6328 744.2174 186.7593 743.7879 186.9999 743.5953 187.2262 743.4234 187.5954 743.437 187.8195 743.5346 187.8887 743.7872 187.8317 744.3698 188.3421 744.3811 188.8961 745.1134 189.0105 746.2322 190.0092 746.4929 190.5904 746.3506 190.9233 746.4254 191.2603 746.676 191.5437 746.9819 191.7559 746.996 191.984 746.8409 192.1136 746.8256 192.3541 746.8593 192.4362 747.4013 192.7312 747.4736 193.0803 747.4955 193.5636 747.4251 193.8581 747.066 194.3412 747.0432 194.5316 747.1065 194.771 747.3562 195.1878 747.9583 195.9747 748.6024 196.6089 748.6678 196.7393 748.5829 196.9502 748.1888 197.3839 748.1935 197.6306 748.5301 197.8725 748.6052 198.2051 748.5663 198.5057 748.6012 198.813 749.0942 199.1615 749.1674 199.3064 749.2292 199.6398 749.152 199.841 749.1601 200.0186 749.319 200.1497 749.4114 200.1028 749.5561 200.2857 749.7598 200.7678 749.9984 201.0939 750.0413 201.2676 749.7638 201.7013 749.8001 201.9628 749.9069 202.0808 750.0829 202.1079 750.28 201.9832 750.5009 201.6152 750.6297 201.6024 750.7856 201.7252 750.8888 201.9205 751.2636 204.1637 751.4218 204.3389 751.7701 204.3864 751.868 204.5367 752.0143 204.7613 752.0391 205.076 752.3127 205.4042 752.4936 205.8453 752.4928 206.1366 752.3162 206.5586 752.423 207.4452 752.8651 207.8674 752.9254 208.0402 752.9275 209.1632 752.7632 209.3181 752.3937 209.4926 752.3607 209.6907 753.0336 210.4218 753.424 212.3875 753.7582 212.5863 754.3324 212.7348 754.3637 212.8069 754.3271 212.9209 754.0245 213.251 754.0744 213.4208 755.4701 213.5834 755.8046 213.7853 755.9936 214.0853 756.0737 214.4536 755.8863 215.0766 756.0292 215.2911 756.2262 215.4481 756.3389 215.7374 756.3167 215.9005 756.1822 215.995 756.1635 216.2314 756.4738 216.7176 756.5588 217.0524 756.424 218.5612 756.1303 219.1485 756.1969 219.5136 756.3946 219.7106 756.4459 219.9584 756.1566 220.3547 755.9421 220.4382 755.91 220.6018 755.9725 220.8786 756.1244 220.9451 756.1696 221.0609 756.1218 221.3135 755.957 221.6156 755.9751 221.7914 756.0985 222.0949 756.4133 222.3845 756.5665 222.7001 756.5216 223.0104 756.335 223.2538 756.3016 223.3874 756.3295 223.5622 756.5485 223.8015 756.573 223.903 756.5464 224.183 756.3475 224.5884 756.39 224.8653 756.5364 225.0345 756.5855 225.2376 756.0301 226.2522 755.8417 226.3349 755.6075 226.5595 755.4518 226.8308 755.4592 226.9919 755.7826 227.6819 755.8358 228.1461 756.0343 228.3509 756.3483 228.4871 756.7916 228.547 756.8717 228.6285 756.9184 228.9932 757.076 229.1913 757.123 229.3505 757.0917 229.528 756.9644 229.6972 756.9612 230.1501 756.9762 230.5425 757.1424 230.8316 757.1524 230.9291 757.1785 231.182 756.6508 231.7641 756.5588 231.9151 756.511 232.1668 756.5178 232.3132 756.8061 232.5493 756.8333 232.7093 756.7962 232.9753 756.6145 233.1157 756.5606 233.2355 756.5708 233.4552 756.6164 233.5852 756.9569 233.8775 756.996 234.0811 756.8958 234.4819 756.58 234.9367 756.5144 235.2333 756.5756 235.8543 756.8858 236.4045 756.8376 236.8616 756.6309 237.106 756.6009 237.3128 756.64 237.5164 756.8092 237.7433 756.8074 237.9195 756.7171 238.1993 756.7281 239.1044 756.97 239.7167 756.9781 239.8924 756.7637 240.4013 756.7449 240.6369 756.9195 240.9809 756.7043 241.475 756.6934 241.6663 756.7424 241.8695 756.9513 242.0947 756.8771 242.4208 756.5429 242.7004 756.4138 242.9118 756.424 243.1314 756.4986 243.2453 756.7502 243.3819 756.7697 243.4968 756.6821 243.7923 756.7125 243.9172 757.1285 244.5154 757.6329 244.7114 757.7111 244.8986 757.7149 245.1654 758.2183 245.5646 758.5443 245.9603 758.5688 246.0618 758.4957 246.6228 758.5496 246.9285 758.948 247.174 759.065 247.3446 759.0852 247.5638 759.0765 248.4446 758.6294 248.8616 758.5241 249.5854 758.3269 249.8293 757.9413 249.9072 757.8406 250.1527 758.0298 250.3788 758.3635 250.5647 758.4026 250.7136 758.3131 250.9231 758.0425 251.0826 758.0302 251.2444 758.3557 251.6255 758.4026 252.2103 758.5344 252.483 758.6721 252.6672 758.9451 252.7719 759.0458 253.0166 758.9028 253.7863 759.0448 254.2787 759.4376 255.0632 759.8665 255.3922 759.9656 255.8131 759.7131 256.3678 759.7425 256.5718 759.99 256.7656 760.0874 256.9371 760.1037 257.2886 759.9714 257.6469 760.0719 258.0971 760.0588 258.2444 759.9685 258.4394 759.541 258.6501 759.4665 258.7562 759.4389 259.4471 759.6037 259.5715 760.0159 259.578 760.1558 259.6556 760.4788 260.2203 760.4972 260.6156 759.4325 262.4273 759.4369 262.8939 759.7516 263.7917 759.9312 264.8679 759.928 265.0962 759.7467 265.4341 759.6678 265.8779 759.7441 266.0211 760.0374 266.1248 760.1243 266.2822 760.0472 266.5499 759.8236 266.663 759.7736 266.8708 759.7917 267.046 759.9234 267.0985 759.9918 267.2861 759.9763 267.595 759.9143 267.7593 760.0973 268.0588 760.1219 268.1604 760.0641 268.4126 760.1092 268.5279 760.6246 268.9146 760.7105 269.2628 760.7029 269.5273 760.4703 269.8756 760.3805 270.0852 760.388 270.2463 760.4544 270.3899 760.8979 270.8054 760.9679 270.871 761.0042 271.0832 760.9428 271.2621 760.6722 271.4362 760.529 271.7804 760.5669 272.17 760.7602 272.4739 760.765 272.5763 760.4481 272.826 760.4065 273.0039 760.5187 273.2775 760.7746 273.4269 760.8167 273.6891 760.7497 274.1765 761.0815 274.6745 761.1109 274.8785 761.0886 275.041 760.9141 275.3572 760.9507 275.5023 761.1364 275.6404 761.2871 275.8828 761.2243 276.0325 760.7372 276.4807 760.6487 276.7196 760.641 276.984 760.7115 277.2154 760.8702 277.4136 761.268 277.615 761.4698 277.8844 761.4865 278.0303 761.3651 278.4176 761.3811 278.5488 761.4942 278.837 761.6103 278.9783 761.8338 279.0706 761.9812 279.2398 762.0198 279.4286 762.0003 279.6497 761.7621 280.1011 761.7292 280.2493 761.7586 280.4533 762.2451 280.8415 762.3447 281.0568 762.3521 281.6435 762.6151 281.9393 762.6017 282.292 762.4143 282.5503 762.3642 282.758 762.3895 282.8742 762.6036 283.0717 762.6404 283.1858 762.6139 283.2923 762.0775 283.6666 761.7611 284.1508 761.769 284.2085 761.7912 284.3695 761.8975 284.5113 761.9097 284.7748 761.6926 285.2545 761.7945 285.5138 762.1175 285.8393 762.2412 286.3294 762.2541 286.6074 762.1579 287.1109 762.2916 287.4128 762.6368 287.7524 762.6181 288.0943 762.5637 288.3448 762.4347 288.428 762.3388 288.6431 762.3882 288.8461 763.0611 289.4938 763.1349 289.7992 762.9854 290.1185 762.9478 290.4363 763.0712 290.6095 763.3668 290.7958 763.4645 290.9674 763.4576 291.2464 763.2923 291.7678 763.3132 292.0016 763.4628 292.2147 763.5154 292.9164 763.3499 293.2178 763.3116 293.4689 763.4867 293.7982 763.3464 294.4121 763.4024 294.6412 763.528 294.7826 763.5073 295.24 763.2982 295.5384 763.3956 295.9154 763.3605 296.0197 763.1116 296.2515 763.0793 296.4144 763.1764 297.1403 763.3634 297.3695 763.4234 297.5867 763.3399 297.7227 763.1446 297.8199 763.1177 298.1 763.3443 298.6763 763.7042 299.1143 763.7957 300.005 763.6265 300.8787 763.67 301.1701 763.873 301.454 763.908 301.7752 763.8876 301.9816 763.628 302.1991 763.6176 302.405 763.6683 302.6373 763.9631 302.961 764.0318 303.1486 763.8939 303.4045 763.1814 303.7004 762.8653 303.9714 762.535 304.833 762.6177 304.9589 762.5283 305.7425 762.4323 305.938 762.4305 306.1141 762.4779 306.2732 762.7474 306.6167 763.2169 307.0159 763.3497 306.9661 763.6787 307.2472 763.6915 307.5444 763.5709 307.8347 763.5779 308.2743 763.8127 308.75 764.1829 310.6965 764.1678 310.778 764.003 311.6674 764.0352 311.93 764.2886 312.2129 765.3323 312.7097 766.0561 312.3634 766.2059 312.3563 766.4285 312.6246 766.5007 312.8853 766.4008 313.3771 766.4678 314.1285 766.566 314.3279 766.5436 315.1943 766.7202 315.3327 767.2322 315.3672 767.3798 315.5989 767.5854 316.6338 767.4529 317.1624 767.4682 317.6303 767.5378 317.8324 767.611 317.9024 767.9842 317.958 768.1866 318.4326 768.3984 318.4667 768.6777 318.0263 769.1925 317.6025 770.4065 316.8996 770.5662 316.9534 770.7285 317.1382 770.7382 317.3431 770.5785 317.7762 770.5854 317.9227 770.6229 318.0823 770.8637 318.3055 770.7276 318.6056 770.6994 318.8564 770.7591 319.0589 770.8079 319.1158 770.9286 319.2562 770.9483 319.4607 770.5783 319.6837 770.4947 320.3604 770.5602 320.8249 770.3723 321.5097 770.1831 321.5034 769.8577 321.2731 769.5564 321.7789 769.2994 323.0047 769.6919 324.6605 769.8749 324.7593 770.0896 324.6416 770.2675 324.6332 770.3487 324.7983 770.2632 325.4322 770.1415 325.7452 769.9852 325.768 769.5229 325.5288 769.5194 325.5279 769.0133 325.3993 768.9143 325.5269 769.0356 325.8745 769.1586 326.0376 769.1775 326.5381 769.0648 327.3939 768.8611 327.7988 768.8755 328.1061 768.883 328.1196 769.0506 328.4207 769.0901 328.6242 769.0898 328.8296 769.0194 329.0383 769.0313 329.5074 769.1595 329.6773 769.3537 329.7562 769.4806 329.8968 769.4889 330.0726 769.3154 330.433 769.279 330.7281 769.3815 330.9874 769.3924 331.2217 769.2892 331.3732 768.9818 331.4465 768.9358 331.5367 768.9254 331.7426 769.0157 331.9584 768.9968 332.194 768.8203 332.4959 768.4062 332.6475 768.3824 332.7807 768.6558 333.2666 768.6247 333.4588 768.4472 333.5259 768.2156 333.4709 767.5842 334.3456 767.373 334.7703 767.412 334.9863 767.4895 335.4143 767.396 335.7161 767.2302 335.8831 767.1813 336.0302 767.3043 336.1965 767.8361 336.4313 767.9194 336.5678 767.9058 339.0605 768.0014 339.3157 768.135 339.4411 768.3413 339.6347 768.526 339.9341 768.5804 340.2397 768.442 340.7157 768.4743 340.9782 768.5185 341.0643 768.8646 341.1653 768.9442 341.3669 768.8646 341.8108 768.9298 342.1306 769.3282 342.4932 769.4073 342.6802 769.4114 342.768 769.2773 342.9065 769.2996 343.1695 769.513 343.4382 769.4217 343.6331 769.2641 343.6993 769.1417 344.0866 769.154 344.3501 769.5808 344.8875 769.6207 345.3111 769.516 345.5748 769.4598 345.9496 769.5524 346.4294 769.9231 346.7421 769.9079 347.3184 769.6586 347.976 769.9664 348.4052 770.1437 348.5435 770.2262 348.8038 770.1906 349.4989 769.6986 349.894 769.6473 350.5276 769.603 351.0744 769.1409 352.493 769.1777 352.6106 769.5219 352.982 769.6751 353.6791 769.6769 354.1484 769.5881 354.4021 769.6997 354.8517 769.9006 354.9319 769.9975 355.0606 769.9957 355.324 769.6171 355.8296 769.6694 356.1442 769.5593 356.3695 769.1447 356.5358 769.1086 356.6255 769.082 356.9203 769.2223 357.3392 769.1029 357.7996 768.6638 358.4191 768.6664 359.5316 768.9161 360.243 769.5881 360.8642 769.7737 362.0034 769.7745 362.3966 769.6902 362.7383 769.6565 363.3121 769.7886 363.5553 770.3436 363.8504 770.3461 363.8517 770.4219 363.9654 770.4615 364.1689 770.405 364.4652 770.4925 365.0478 771.0103 365.1406 771.1117 365.3707 771.0416 365.594 771.1041 365.8552 771.4868 366.0718 771.5869 366.2724 771.4549 366.8949 771.5583 367.1688 771.8479 367.3311 771.8821 367.4175 771.8257 367.7314 771.8437 368.0723 771.8546 368.281 772.1024 368.5735 772.4857 368.5846 772.7972 369.0862 772.9367 369.1793 773.024 369.3218 772.987 369.8225 773.0563 370.01 773.4701 370.2396 773.6183 370.394 773.6046 370.7468 773.7703 370.8415 774.0525 370.8428 774.1269 370.9273 774.0498 371.4297 774.0904 371.6479 774.2193 371.8178 774.5854 371.8883 774.7787 372.1433 775.0485 373.3774 774.8552 374.1937 774.7005 374.333 774.6424 374.6 774.7253 374.8601 774.8757 375.0583 775.144 375.6176 775.1731 375.807 774.9894 376.4027 775.2915 376.6084 775.381 376.7947 775.3657 376.8982 775.1634 377.0987 775.1574 377.187 775.1724 377.2889 775.4678 377.5683 775.4903 377.8313 775.2848 378.1786 775.2965 378.4275 775.5697 379.0242 775.9666 379.5033 776.138 380.7481 776.3009 381.379 776.0762 382.0214 776.3801 382.4762 776.3898 382.6811 776.2289 383.3344 776.4817 383.7583 776.6857 383.8572 776.6062 384.3172 776.2982 385.0185 776.2919 385.3122 776.3964 385.6005 776.5752 385.7534 776.6331 385.9121 776.5201 386.2989 776.519 386.4897 776.659 386.6736 777.5424 387.0098 777.5799 387.363 777.7983 387.4992 778.0428 387.5461 778.1383 387.6443 778.2138 387.7434 778.1838 387.9648 778.289 388.2679 778.627 388.7944 778.836 388.9752 778.9392 389.6 778.9002 390.4106 778.6024 390.7251 778.5683 390.8587 778.6662 391.2207 778.7812 391.3032 778.8378 391.4326 778.8786 391.8401 778.7358 392.2381 778.6789 392.5553 778.7518 392.8158 779.0392 393.1248 779.4323 393.1059 779.7209 393.2239 779.911 393.6108 779.9794 393.9891 780.0737 394.0578 780.3983 394.0862 780.5558 394.2107 780.6216 394.5302 780.52 394.9459 780.5283 395.1216 780.6446 395.4387 781.0068 395.4065 781.1226 395.5036 781.1841 395.7353 781.1456 395.9867 781.1848 396.1755 781.4367 396.3687 782.0097 396.5169 782.0915 396.8487 782.047 397.0873 782.1388 397.3177 782.488 397.4327 782.7804 397.2926 782.9232 397.3559 783.1722 397.737 784.2707 399.9547 784.2404 400.7845 784.583 402.1788 784.7122 402.3095 785.5229 402.4504 785.5892 402.8894 785.9189 403.5718 786.4101 403.9024 786.8609 404.0562 786.8923 404.2893 786.8098 404.6748 786.9877 405.429 787.1714 405.6695 787.6037 405.6978 788.505 405.3206 788.7642 405.4764 788.7623 405.803 788.8599 405.9456 789.6916 406.2059 789.9956 406.6996 789.7737 407.1636 789.8316 407.3467 790.4137 407.7353 791.1475 408.4427 791.9011 408.626 792.0428 408.7346 791.9885 410.4012 792.3057 411.1646 792.3376 411.4578 792.0699 412.7665 792.213 413.3314 792.34 413.5129 792.4011 413.73 792.2544 414.2508 792.3669 414.4799 792.6263 414.6269 792.7303 414.8218 792.7611 415.5021 792.5609 415.9669 792.5131 416.2333 792.5635 416.4362 792.8939 416.9406 792.9579 417.1761 792.8206 418.2923 792.6123 418.9497 792.5561 419.1949 792.6578 419.4099 792.9769 419.5114 793.1307 419.7532 793.2439 419.9969 793.2466 420.2609 793.1678 420.5143 793.2204 420.761 793.4095 420.8983 793.5756 420.9782 793.6412 421.0775 793.6781 421.2078 793.6534 421.3264 793.5877 421.4324 793.4546 421.6151 793.2633 421.7393 792.8685 422.0995 792.8239 422.33 793.0436 424.4531 793.3016 425.6511 793.7397 425.8854 794.3215 427.1268 794.5584 427.9643 794.616 427.9964 794.7229 428.4685 794.6722 428.9309 794.6088 429.0603 794.3305 429.3767 794.3529 429.9015 794.2784 430.2353 794.3143 430.918 794.4379 431.1612 794.4746 431.2915 794.4658 431.5267 794.4541 431.7033 794.4627 431.879 794.4887 431.9951 794.566 432.1232 794.6818 432.1168 794.8053 432.1392 794.9517 432.5879 794.9078 432.6809 795.0291 433.0831 795.285 433.3344 795.4955 433.4853 795.5835 433.8329 795.6314 434.2984 795.4325 436.0844 795.561 436.6361 795.8006 437.0311 796.0896 437.2939 796.7466 438.7141 796.7094 439.7372 796.5752 439.9463 796.7402 440.2397 797.5128 440.8528 797.5619 441.3514 797.1371 441.6031 797.2851 442.0238 797.5854 442.6182 798.0332 443.052 798.1816 443.4412 798.3567 444.2326 798.4693 445.817 798.6863 446.2519 798.3954 448.0915 798.406 448.2349 798.5762 448.5703 798.5756 449.1985 798.3737 450.216 798.2174 450.6626 797.679 451.3039 796.9993 453.4122 796.6252 455.1262 796.7165 455.6306 796.8085 455.8893 797.0933 456.6892 796.9866 458.0072 797.2052 458.5438 797.2699 458.8669 797.4845 460.8117 797.565 462.2431 797.9059 464.7812 798.5955 466.781 798.8993 467.1699 799 467.4817 798.9374 468.8008 798.8291 469.0891 797.4209 469.1575 795.2347 469.2742 794.2001 469.3115 793.0118 469.3541 790.8007 469.4769 788.5809 469.5486 786.37 469.6326 784.1685 469.7254 774.563 470.1771 773.1123 470.3109 763.6404 470.7323 752.5 471.2139 752.3211 471.2936 750.271 471.3618 741.3585 471.6582 739.7813 471.8039 736.913 471.9586 728.0381 472.3536 728.0367 472.3537 728.0346 472.3538 719.0991 472.7305 718.3836 472.763 701.005 473.4345 699.9474 473.4791 697.0631 473.5592 697.0534 473.5595 694.5422 473.6613 678.1169 474.2473 669.5514 474.5412 668.7484 474.579 650.1799 475.1129 648.0409 475.1724 647.1755 475.1963 644.9136 475.2474 644.9029 475.2476 638.2583 475.4417 626.0893 475.8065 625.9834 475.8093 601.5726 476.4387 591.7056 476.5765 579.0765 476.7357 568.5157 476.908 549.3065 477.1868 549.1947 477.189 538.5083 477.3308 538.4963 477.331 529.2023 477.4629 528.1885 477.4846 516.4321 477.6893 516.3176 477.6899 515.4612 477.7108 515.3975 477.7116 511.6126 477.7727 509.6364 477.7833 508.8146 477.7948 507.3953 477.8207 505.1969 477.8383 502.3269 477.8744 502.3071 477.8747 498.7299 477.9093 497.9746 477.9192 496.3001 477.9483 486.8049 478.073 486.4969 478.0736 476.2911 478.0837 473.9032 478.111 467.4183 478.1849 465.1738 478.2247 462.4958 478.2571 459.3164 478.2829 459.1611 478.284 459.1431 478.2809 459.0469 478.285 449.6262 478.3108 445.2101 478.2871 445.1856 478.287 436.064 478.3271 431.8265 478.3333 425.0469 478.3365 423.4309 478.3244 420.8371 478.3227 420.6377 478.3273 417.288 478.3204 416.1832 478.3279 414.1833 478.3313 403.0925 478.2992 403.0016 478.3029 402.0924 478.3006 401.9631 478.2734 401.0261 478.2541 388.6204 478.2432 387.5772 478.2316 387.121 478.2263 386.4638 478.216 383.0235 478.2276 379.127 478.2166 377.7997 478.2124 377.783 478.2124 365.4338 478.1969 362.9648 478.1854 355.4908 478.111 352.3383 478.1574 351.0937 478.129 351.0896 478.1345 350.2743 478.1315 337.4247 478.0559 332.5797 478.0437 332.2162 478.0276 329.5036 478.0144 328.2068 477.9995 327.7666 477.9653 314.894 477.9041 314.3081 477.8773 310.494 477.8667 310.1201 477.8632 308.2887 477.8357 307.453 477.8214 306.9602 477.8132 306.5962 477.8232 303.9626 477.7986 301.8055 477.7577 296.7358 477.6782 295.0607 477.6762 292.2815 477.6375 290.0837 477.6128 286.7322 477.5859 286.1555 477.5629 285.8271 477.5488 280.9055 477.5665 266.2488 477.3212 265.7284 477.2928 258.6404 477.1808 255.5432 477.1193 253.0955 477.0902 252.963 477.0704 250.086 477.0395 248.5286 477.0391 247.8155 477.0015 244.771 476.9326 244.1664 476.9326 244.0579 476.9377 243.9635 476.943 241.4167 476.8814 240.931 476.88 236.8365 476.7985 234.7402 476.7623 231.0927 476.6806 223.5616 476.5506 221.8217 476.5212 220.1416 476.4859 219.8551 476.4804 219.1693 476.4539 219.1603 476.4535 218.9767 476.4462 218.9519 476.4559 218.9494 476.4558 212.5231 476.3096 209.9428 476.2531 209.6832 476.2544 205.7297 476.1378 205.6437 476.1606 204.594 476.1482 203.5184 476.1138 202.3412 476.0876 202.1735 476.0873 202.0162 476.0839 200.1754 476.0464 200.1439 476.0457 195.7848 475.9347 184.0149 475.6458 181.333 475.5536 181.2368 475.564 177.1405 475.4556 177.133 475.4511 176.7497 475.4513 176.5132 475.4527 175.7031 475.4127 175.2587 475.389 174.2108 475.364 173.6575 475.3623 173.6536 475.3544 171.4119 475.291 170.0078 475.2554 169.1575 475.2215 168.2553 475.1945 160.2653 475.0093 159.4519 474.9699 150.4988 474.6813 149.5325 474.6471 147.9257 474.6236 147.3081 474.6157 147.1373 474.6063 143.8531 474.5431 125.1549 473.9828 120.866 473.8529 118.5649 473.7715 113.4665 473.5889 112.8861 473.5769 112.8517 473.5756 109.6129 473.4479 107.2977 473.3669 104.0253 473.2644 101.9578 473.1987 97.3674 473.0424 95.2027 472.9595 89.9389 472.7883 89.1116 472.7612 82.1096 472.5188 82.1078 472.5183 73.0453 472.1841 72.3706 472.2134 68.5514 471.9976 67.8354 471.9823 66.3066 471.9045 66.0446 471.8979 52.8461 471.4068 50.8895 471.3052 41.9721 470.9508 41.9722 470.9493 41.1519 470.9153 1 469.1497 1.2319 460.7316 2.2 441.7727 2.2628 441.6134 3.3183 417.8292 3.6205 411.0307 3.7416 408.3716 3.913 404.5436 3.9657 401.9281 4.9526 382.6409 5.1638 377.8675 5.8462 362.4596 5.8465 362.4515 6.2945 352.1447 6.3201 351.3559 6.3934 350.2148 6.3958 350.0851 6.4186 349.5875 7.1029 333.4344 7.8626 317.633 7.8642 317.6143 7.9116 316.5071 8.6388 301.7391 8.6642 301.2374 8.739 299.2783 8.7628 298.686 8.8044 297.705 8.8976 295.4553 8.9511 295.0541 9.0261 293.274 9.2999 287.969 9.8448 274.4399 10.2216 267.0519 10.2434 266.7335 10.2533 266.5934 10.2821 265.8976 10.2929 265.5104 10.3179 265.0447 10.6734 256.8951 10.6856 256.615 10.7647 254.8525 11.0362 250.0165 11.1709 246.6342 11.1733 246.5748 11.491 240.2936 11.6571 237.0854 12.1641 227.2443 12.7481 215.0382 12.7783 213.648 12.92 211.6993 13.8373 192.9868 13.843 192.9585 14.3242 184.3838 14.3342 184.0614 14.3408 183.6194 14.6503 178.4935 14.8178 175.3394 14.9638 170.9299 15.2675 161.9541 15.2854 161.1967 15.3619 158.585 15.4904 155.3158 15.518 154.8146 16.5882 129.0144 16.6629 127.1962 16.7865 124.7099 16.7829 124.4885 17.1093 117.2071 17.1282 116.7209 17.1482 116.4771 17.19 115.1092 17.1837 114.8533 17.7667 101.7429 17.9913 96.859 17.9669 96.7628 18.045 94.5349 18.0457 94.5147 18.049 94.3241 18.1785 91.1994 18.268 89.6664 18.4332 85.859 18.4325 85.6519 18.4601 84.8425 18.4666 84.7795 18.5547 82.611 18.7326 78.4639 18.7243 77.5596 18.8909 74.8292 18.9653 73.5945 18.9637 72.8442 18.9918 72.7393 19.0374 71.4746 19.2003 67.9445 19.3914 63.5244 19.4209 62.3817 19.6017 59.144 19.6758 58.3098 19.6823 58.0995 19.7363 57.0317 19.8179 54.7859 19.8202 54.5894 19.8768 53.4341 19.8873 53.2187 19.9196 52.5587 19.9236 52.401 20.4757 39.688 20.4852 39.0399 20.6201 36.853 20.7549 33.3399 20.8131 32.0372 21.1435 24.3222 21.3012 21.5119 21.2969 21.2345 21.3378 20.2429 21.3493 19.9776 21.3971 19.3376 21.5689 15.8613 21.5893 15.2097 21.6275 14.4045 21.777 11.1061 21.8361 10.0807 21.8507 9.6253 21.8863 8.655 21.9196 8.3198 21.9652 7.5078 21.9613 7.22 22.0206 6.4895 22.0359 6.035 22.1966 2.9295 22.2666 1 Z"/>
</g>
</svg>