<?xml version="1.0"?>
<svg xmlns="http://www.w3.org/2000/svg" version="1.2" baseProfile="tiny" width="800" height="1537" viewBox="0 0 800 1537" stroke-linecap="round" stroke-linejoin="round">
<g id="cb_2018_us_state_5m">
<path d="M 455.1723 173.3751 455.5955 172.8837 455.5553 172.1986 455.2202 171.809 455.6397 165.7612 458.1024 161.0409 459.2868 156.6706 459.3117 155.555 458.452 154.3203 456.7781 155.022 455.8022 154.97 455.242 154.713 453.4327 152.55 453.4856 150.9774 453.7133 150.4397 454.4504 150.2914 455.3746 150.6945 456.5394 149.0419 457.2114 142.9657 456.2554 140.2926 456.4551 139.7279 460.0982 138.713 460.0969 137.9737 461.257 135.0684 462.7034 134.6897 463.7996 133.411 463.9194 132.9269 463.5167 132.4034 463.5694 132.094 465.8461 131.5795 467.4679 131.7108 469.1 130.149 470.1787 126.5178 471.3302 126.2203 472.186 125.3181 472.8785 123.1123 474.0682 121.5515 475.3135 121.065 476.6375 119.7455 477.0087 117.769 476.8735 117.1112 478.1416 114.5415 480.2311 113.8929 483.6007 110.3649 485.0978 108.3462 485.7662 106.2967 485.9516 104.939 483.3163 100.1059 482.189 99.0729 481.5965 97.5015 483.2641 93.4802 484.5882 92.1205 485.5386 91.6618 485.9266 91.0695 487.0587 87.5195 487.2176 86.4572 486.7972 83.6494 487.8674 82.6929 489.0969 80.9304 490.2816 76.8963 490.57 73.3879 490.823 72.4471 491.612 71.6393 493.3383 70.6413 494.7502 65.8944 494.6273 64.6586 497.864 61.4677 497.7811 60.0566 497.3224 58.4846 495.5866 54.5367 493.8699 53.6795 493.1599 53.8022 490.4921 52.9874 490.2774 52.7991 490.2358 52.087 489.7919 51.0529 488.0737 49.4433 483.7672 46.6836 480.9491 44.3236 480.1025 43.0213 479.1511 43.1306 478.7353 42.7414 478.7333 41.8011 478.9472 41.4109 479.3883 40.9262 480.942 40.6548 483.235 41.4433 489.8164 42.6544 491.9697 40.7418 494.017 39.1522 495.8112 38.5173 499.2161 39.3171 500.2659 41.6668 501.3001 42.9552 502.8698 44.014 503.1646 43.9328 503.886 43.0178 505.1278 40.6902 505.2598 39.6555 506.1669 37.544 506.5548 37.1267 508.5203 36.2761 509.994 36.137 512.2146 35.175 513.7794 33.579 514.5916 32.1514 514.8033 31.304 514.7584 29.8934 513.6218 26.6582 512.5059 25.4522 512.1003 24.4589 512.2586 23.7599 513.1522 22.4533 515.4995 23.1578 516.1423 23.1154 516.8784 22.817 518.5476 21.0917 520.0367 21.6508 523.1948 20.5248 524.1955 19.2046 524.3133 18.3439 525.1108 16.4598 526.4618 15.77 529.5812 15.0611 530.6218 13.6871 532.3053 12.2833 534.5026 12.1555 535.3833 11.1982 536.1938 9.0857 537.7533 6.6612 539.6504 5.11 544.6554 3.1847 544.951 3.4523 545.4253 5.0371 545.3486 6.0853 546.1842 7.44 546.814 7.5588 549.665 6.5415 552.0546 7.7702 552.7268 8.4398 551.9809 9.7457 553.217 14.7416 553.5494 17.8716 553.9275 18.6363 554.9783 20.3128 556.2916 20.2547 558.8053 22.6786 560.8306 22.8591 561.248 23.2873 563.397 26.9325 564.6723 27.397 565.0498 27.8523 566.6376 31.8896 566.04 33.0217 566.8336 34.0998 568.1068 34.1073 569.028 32.9266 570.6038 31.8307 571.1734 33.2525 574.8336 33.6267 578.4536 31.3492 580.4236 31.3666 581.0955 31.7533 581.8414 33.5604 583.1416 34.0371 584.9294 35.2029 586.4516 36.8215 586.8735 38.1232 586.9591 39.0907 587.6594 39.7994 588.1004 39.6091 588.6195 38.8944 589.0552 37.5751 590.7622 35.9678 591.6338 36.084 593.211 35.2834 595.1078 33.6032 597.0396 34.526 598.0647 35.865 601.2124 38.229 602.6062 38.3163 604.8285 37.8887 607.0761 37.1656 607.9172 36.4225 609.5427 31.5628 610.964 30.6152 612.8463 26.4784 612.7526 24.4496 614.2951 20.5693 615.5986 19.0689 616.6012 18.7133 617.996 16.8494 618.6646 14.5605 617.1515 14.7314 616.8136 14.2765 616.5664 13.3506 617.4071 10.7648 618.8457 7.4224 621.8733 3.1292 625.2932 1.5342 626.9114 1 627.59 1.0106 630.7068 35.415 632.7395 74.2009 634.21 95.8906 639.0492 177.6756 639.5432 180.536 641.9539 221.224 645.6464 271.6633 648.973 324.2418 649.3882 335.4784 652.0796 383.1284 653.09 409.1234 654.3052 440.3485 656.0753 474.5062 657.113 489.9815 659.7749 546.2117 661.027 568.1612 661.8093 591.0606 662.2996 601.0324 663.0535 616.3587 663.0433 616.5835 663.1797 624.2015 666.4405 703.5173 666.8623 713.7584 666.8499 713.9197 668.3017 744.4003 671.1968 817.8131 671.3613 829.5944 671.8242 840.7195 672.757 863.1165 673.3207 890.6431 673.3347 890.8115 673.3378 890.8485 675.2576 913.8407 676.6171 936.1501 676.5648 938.02 676.7177 943.8428 676.7356 944.4339 679.717 989.0517 680.0107 995.3257 681.2271 1021.2917 682.3392 1022.29 683.0104 1022.1015 685.891 1025.5461 687.8648 1026.476 688.4575 1027.3957 688.8415 1030.6566 689.5709 1031.5458 690.1895 1031.8234 690.6374 1032.533 688.8007 1038.5115 688.7641 1038.4571 688.5079 1037.9031 685.8601 1038.4454 685.8452 1038.4485 685.3858 1039.6891 685.2887 1040.9681 685.376 1041.8552 685.7153 1042.4039 687.5764 1043.9923 688.0897 1045.6609 688.0346 1047.8668 688.2202 1048.3231 689.3879 1049.259 689.4138 1051.5019 688.2418 1055.0863 688.8749 1055.8827 689.151 1056.7954 687.7924 1057.8417 687.3073 1062.9574 686.1354 1063.9081 684.1283 1067.7304 682.9324 1070.7259 683.1969 1072.0417 683.8732 1072.8167 683.6406 1073.9079 680.9759 1075.906 681.5365 1077.3137 682.3993 1077.9662 684.5076 1078.5282 685.1358 1078.3212 685.1822 1078.3126 686.4807 1080.4089 686.9119 1082.2317 685.4437 1088.0313 684.4855 1089.8768 684.2286 1091.7429 684.7068 1093.4459 686.5075 1096.0903 686.7724 1097.5966 686.7375 1098.864 683.4926 1100.906 683.2542 1102.1785 683.6977 1104.2035 682.5687 1106.375 681.05 1107.9063 679.5883 1108.5452 677.5291 1110.1027 675.8782 1113.096 675.7015 1114.5097 675.9811 1119.4032 676.3781 1120.5304 677.6486 1121.879 677.7628 1122.7794 677.6425 1124.5286 675.7188 1125.3372 675.5804 1126.4818 675.6247 1127.6533 676.6811 1129.2787 676.3698 1130.7546 676.3846 1133.2352 676.5717 1133.7222 677.1079 1135.1178 677.098 1135.5214 678.1662 1136.8467 680.5252 1140.7061 681.5069 1143.2561 681.2258 1146.1736 681.911 1147.8884 684.5525 1154.4977 685.9301 1155.5987 687.4692 1156.0813 688.5869 1157.9977 689.1704 1159.8081 690.6717 1160.6403 691.3111 1159.803 697.4662 1158.1702 699.3408 1158.5126 699.5806 1159.8049 699.8352 1161.8859 700.209 1162.736 703.1555 1165.5369 703.3083 1165.6602 706.398 1168.1517 706.8343 1168.3958 708.2904 1168.4058 708.4993 1174.2098 708.1498 1175.1909 709.2939 1176.127 710.3302 1177.2362 711.5777 1176.9272 712.5107 1177.1654 713.3512 1179.2257 712.9339 1180.7551 711.8663 1181.871 710.3836 1183.8244 710.9921 1184.9371 714.0909 1187.6999 715.1765 1188.6676 717.7939 1189.2929 719.3851 1190.1025 720.6102 1193.21 721.0169 1195.7361 721.4914 1196.1439 725.4086 1197.4818 729.2169 1200.2507 729.4409 1200.4136 729.4405 1200.42 730.2416 1201.5631 730.9146 1203.5456 731.0324 1204.9688 731.6375 1205.5847 732.9818 1206.2171 734.2874 1205.2543 738.0329 1206.6841 739.8009 1208.4901 739.5893 1208.9809 739.018 1209.3943 738.9318 1210.0104 740.0736 1213.3662 740.6784 1213.7196 742.2284 1213.3838 744.6466 1214.1095 745.21 1214.2785 745.9147 1214.4903 746.6729 1214.8287 746.8237 1214.9191 749.0187 1216.2378 749.0372 1216.367 749.0609 1216.5333 749.7342 1217.9454 750.1004 1221.4563 750.7148 1221.433 751.6476 1221.8637 751.9458 1222.3886 752.6114 1223.5601 752.6032 1224.0579 751.1645 1228.3709 749.9239 1229.3072 749.5567 1229.9436 747.9816 1238.6786 748.1633 1239.9422 748.3343 1240.4041 748.6998 1241.3915 748.6263 1242.6399 748.0513 1243.4529 746.7456 1243.8107 745.2758 1244.7595 744.9799 1245.2328 744.8189 1246.4108 746.3574 1250.5146 746.9422 1253.5094 746.7347 1254.2761 746.3026 1254.6054 745.7974 1254.9905 744.9129 1256.8222 745.1413 1258.3496 744.6286 1263.3539 742.6703 1269.8426 743.0756 1271.9566 744.3461 1274.8276 744.6779 1278.2953 745.211 1280.2905 745.7797 1281.4618 748.7231 1284.082 753.6011 1287.2845 760.014 1293.3142 764.3524 1296.711 764.8674 1297.4308 766.4343 1299.6204 771.215 1300.9261 771.2827 1300.9772 771.9074 1301.4487 773.3867 1303.3165 775.7562 1308.352 776.2769 1308.8762 777.893 1309.2559 782.5218 1310.3428 784.2635 1312.6193 784.3078 1312.6216 786.1552 1312.7176 791.8187 1311.8355 796.7149 1311.6071 797.9726 1312.7115 798.5441 1313.9408 798.9903 1320.5034 799 1320.651 794.7968 1322.7943 794.6216 1328.5257 794.9162 1330.9869 792.6598 1336.7324 790.8544 1338.5466 788.6008 1339.5705 787.7613 1340.8763 787.0442 1342.6343 786.8409 1345.8718 786.1403 1348.0019 785.6678 1348.6574 783.5737 1349.2847 782.1157 1351.1489 779.9392 1358.5593 779.8824 1360.2011 779.5547 1360.7856 778.3375 1361.0531 777.3302 1360.7491 776.6604 1361.0216 775.6067 1362.1275 774.6336 1363.7807 773.34 1367.6053 773.0859 1370.462 770.8575 1373.9074 770.2965 1374.7748 770.257 1375.7205 771.2327 1376.9098 770.3654 1378.7406 768.7236 1381.1732 767.2317 1381.4295 766.6713 1382.0255 765.1797 1384.2191 764.6557 1384.9897 764.0574 1387.0037 762.31 1389.7299 760.8989 1391.4387 759.3125 1397.2497 758.9866 1400.6345 759.2131 1402.61 755.8694 1405.2163 754.7091 1407.4401 754.142 1409.3501 753.8928 1410.9183 753.8342 1419.4552 752.7659 1420.7577 752.5657 1421.0017 751.7723 1423.0773 751.3199 1426.8379 751.2282 1431.294 749.3021 1431.553 745.4268 1433.3307 742.6101 1435.6632 737.7811 1438.0928 721.502 1425.486 714.3147 1423.2399 709.2472 1423.2618 709.0918 1423.2624 709.086 1423.2478 703.6053 1424.0345 702.2424 1424.4788 701.8563 1424.7171 694.3496 1429.54 686.9223 1433.7724 672.7269 1436.8432 670.5036 1437.3235 659.0667 1439.7923 653.4138 1445.8881 652.0945 1448.6613 649.5195 1455.1103 649.5043 1455.1483 645.029 1470.9406 622.7435 1464.3695 615.5046 1462.2316 608.1014 1465.7416 601.2603 1469.7765 600.9729 1470.0215 600.3578 1470.5457 597.483 1473.9716 594.1044 1478.3035 592.4631 1480.4074 594.4687 1511.6302 583.0762 1508.341 583.0373 1508.3288 583.0048 1508.3172 576.2561 1506.362 572.1552 1507.0854 566.9349 1508.8129 566.9197 1508.8256 562.7602 1512.3298 562.5853 1512.4771 557.294 1518.673 552.5613 1527.2971 545.9873 1535.7128 530.4224 1535.6462 521.0529 1535.1067 513.3347 1534.8787 505.8903 1534.6572 486.2568 1534.0655 478.9848 1533.8437 475.304 1533.7308 471.0388 1533.5995 458.8785 1533.2225 438.5558 1532.5832 400.5429 1531.3565 400.0278 1531.3396 398.1257 1531.2797 391.3563 1531.0732 350.7485 1529.8077 339.1907 1529.3582 324.9995 1528.8011 284.6411 1527.186 271.6583 1526.6568 271.5682 1526.654 248.93 1525.9318 206.9179 1523.9712 205.7334 1523.9152 192.905 1523.3063 187.0861 1523.0285 152.9338 1521.6393 118.6027 1520.2099 117.3408 1520.1567 99.9197 1519.2873 62.8799 1517.4106 45.965 1516.5408 42.8021 1516.3773 42.8292 1515.0594 41.7685 1512.6277 38.8686 1507.8912 36.6325 1505.0986 35.9488 1502.2601 35.4673 1498.1533 34.7651 1496.0617 34.0259 1494.9514 31.6556 1493.5017 31.0075 1492.6476 30.4323 1491.2296 29.0032 1489.3994 27.1859 1488.8965 26.0584 1489.1006 25.6911 1489.6477 25.4725 1491.367 24.8414 1492.1818 21.6706 1494.0543 20.4201 1494.4297 19.4558 1494.3778 18.1841 1493.1123 17.9216 1491.5088 18.7577 1489.8912 20.7908 1488.864 21.5691 1488.0556 21.7237 1486.7191 21.3935 1484.9308 20.1739 1482.4495 18.4363 1479.8148 17.3639 1478.5728 8.288 1470.1277 6.9384 1467.9651 5.6025 1458.895 5.597 1458.8579 5.094 1453.755 5.1413 1450.8238 4.676 1448.2101 2.6049 1445.4283 1.2815 1442.3522 1 1441.6977 2.3476 1437.5846 1.9982 1434.2317 1.5792 1433.9203 1.54 1433.5093 2.0347 1431.0986 1.9419 1428.5269 3.119 1422.9288 3.4721 1422.5429 5.8672 1421.6831 8.3744 1420.395 9.8652 1418.9468 11.8366 1416.4953 11.8483 1416.4729 12.4126 1415.3995 12.4223 1409.9795 13.0417 1407.3912 13.4917 1406.724 15.1911 1405.7762 15.5614 1405.0675 15.6616 1403.3474 14.4983 1397.4029 14.8687 1393.2111 14.7766 1390.7488 14.4505 1388.8351 13.9831 1387.5521 13.4661 1387.0756 12.6377 1386.8367 11.7009 1385.6019 11.4284 1384.8322 11.6314 1383.5175 12.4814 1381.873 18.4603 1377.1025 22.9953 1376.5644 24.5877 1375.615 29.6046 1374.592 32.0948 1372.1832 34.3319 1370.9157 35.3886 1371.1554 36.4628 1372.2558 37.7106 1372.0933 41.1252 1368.3502 43.0278 1365.7609 43.0477 1365.0888 42.0152 1363.8672 41.4733 1361.8314 41.7653 1359.4674 42.5492 1357.4986 43.8543 1355.667 45.1587 1354.9596 47.3649 1355.4116 48.6947 1355.0772 50.3219 1353.1841 50.8555 1352.1137 50.8448 1350.5135 50.506 1349.5682 46.9465 1346.4928 45.2138 1345.5605 44.3825 1344.3146 42.9587 1340.6689 42.722 1338.9186 43.6642 1334.5579 43.9738 1331.7904 43.1376 1329.6974 41.5897 1327.745 41.1979 1326.7455 40.991 1324.7133 41.3786 1323.4932 42.5466 1321.932 46.4955 1318.3953 50.6288 1313.8117 52.954 1310.488 54.5631 1307.7474 54.9493 1306.689 55.0215 1304.8743 53.3426 1300.0157 51.7307 1296.4759 52.0155 1294.8382 52.8208 1293.3671 55.3091 1291.1737 56.0621 1289.5814 56.2717 1288.7364 56.1714 1285.454 54.9211 1283.2494 54.0665 1282.245 52.7866 1280.7408 51.9582 1279.2122 52.0442 1278.6483 52.8901 1278.4688 52.9615 1278.0395 52.8624 1275.9266 52.4386 1275.4387 51.4516 1274.9843 49.6955 1275.0737 48.1252 1274.0355 46.0672 1269.5231 45.9718 1268.3838 46.2369 1267.7777 47.855 1266.3541 48.2929 1265.4709 48.4099 1264.4903 48.2156 1260.8484 48.2133 1260.8063 48.3663 1255.6547 48.083 1254.5087 51.4008 1251.1007 52.0544 1250.0721 51.9219 1248.6048 49.5254 1244.492 49.1832 1242.5383 54.085 1237.5594 54.6313 1236.5561 54.2937 1232.8683 53.4872 1229.1886 53.537 1226.9566 54.7934 1223.3123 56.1915 1220.2876 56.504 1218.731 56.5445 1218.5293 56.3257 1217.6264 55.3011 1215.6387 54.3584 1212.1459 54.515 1207.0501 55.534 1204.3845 56.0358 1203.7843 61.9071 1200.9268 64.5804 1196.2874 67.9055 1189.5448 70.668 1177.5107 73.3785 1171.8905 73.241 1170.9343 72.4787 1169.4874 70.3952 1167.5162 67.7998 1163.1996 67.1734 1161.5926 67.1141 1160.839 67.693 1159.2447 68.7123 1157.312 68.7448 1157.2503 71.2051 1152.5848 71.9392 1151.5296 73.6176 1149.8794 75.5611 1147.2099 75.9215 1146.071 75.0429 1145.5101 71.5046 1145.5813 70.0067 1145.3236 66.0018 1142.5524 65.4484 1141.6456 65.2839 1140.6892 64.9704 1134.4297 65.2472 1132.2676 66.2231 1129.8707 69.6336 1126.5573 70.2612 1125.4204 71.261 1118.7682 71.9439 1114.2232 72.0363 1111.7227 73.6163 1103.7209 73.624 1103.682 73.8593 1102.4898 74.0124 1098.0398 74.7594 1094.4439 75.9799 1091.7267 76.2594 1090.5999 75.4584 1082.4426 75.5261 1081.0985 75.95 1080.2696 78.9838 1077.1134 79.6513 1076.058 80.1985 1073.6566 80.7986 1068.7007 80.8443 1066.8722 80.6272 1065.8347 79.0108 1061.7806 76.9908 1059.6197 74.1353 1057.1428 73.2677 1055.5065 73.2029 1053.9728 74.4117 1049.7931 74.3779 1047.8397 75.1363 1045.7763 76.6359 1045.8727 77.3252 1045.2882 79.8323 1041.2391 81.1125 1037.9041 80.8488 1029.6449 80.2111 1025.2008 80.2878 1024.2203 81.7012 1018.3851 84.4218 1015.2637 88.3696 1012.8108 94.3525 1010.4699 101.8888 1003.6921 103.0453 1003.2204 103.0697 1003.2104 103.544 1002.8593 103.9155 1001.7602 103.722 999.6018 103.696 999.311 103.1547 998.3919 101.8114 997.2503 100.9628 994.7683 101.1344 991.9867 102.0343 988.571 103.4896 987.454 104.2448 985.3765 104.1946 984.9996 103.3055 984.0097 103.2345 982.9472 103.4667 982.411 104.21 981.7053 106.2977 980.4727 109.4042 979.1689 109.9082 978.205 110.0212 976.0011 109.527 974.316 110.0041 970.3534 110.498 969.013 111.3753 968.2676 113.5676 964.28 114.1994 962.5371 114.6114 959.8652 114.7664 957.4998 114.2464 955.6934 113.5463 954.5578 113.8139 949.0057 113.814 949.0034 113.9065 947.0845 114.9877 943.0065 116.3475 940.7592 118.4098 939.3386 119.5606 937.9777 121.8287 934.515 122.756 932.6944 124.8815 930.1986 126.5014 928.7879 128.6154 924.6381 131.563 924.6506 139.7556 919.4605 145.0299 916.4472 148.9264 910.8558 149.605 909.691 150.4519 907.465 151.3182 906.2345 152.0048 905.782 154.4212 905.1009 155.8215 904.1831 156.8187 903.2081 157.009 903.0219 156.7344 896.5394 156.8379 895.249 157.3674 894.2981 160.3715 892.0209 161.0081 891.1514 162.0274 889.2735 163.0855 885.6869 165.61 883.4162 166.2675 881.3744 165.9248 878.8147 164.9882 876.8472 164.1001 873.7252 164.2413 872.7056 165.1146 870.3336 166.3617 868.126 166.8571 866.1688 166.6238 859.6508 164.7448 854.6351 164.5278 853.1546 165.8856 848.8895 166.6709 847.7528 168.1885 847.266 170.1452 847.1594 173.2517 845.5554 172.7644 844.2744 172.4809 843.5292 172.2925 843.0338 171.4032 841.425 170.709 839.3488 171.0613 836.9711 171.5502 836.0069 171.9971 835.4059 173.4289 835.5778 176.1489 834.9438 176.8329 834.3073 177.1186 831.6921 178.3491 829.1369 180.2326 826.4532 182.9099 824.363 187.1344 821.6053 193.1503 816.3903 193.9256 815.2211 194.4332 813.8478 195.0015 807.5976 195.007 806.8006 194.0973 802.1198 194.227 800.8646 194.5964 800.0035 195.6883 799.5393 197.5502 799.5364 199.6728 798.5404 200.2929 797.8583 202.7465 793.6828 202.6384 792.9651 201.8246 791.7999 197.5917 788.1802 196.1848 787.8454 195.9961 787.3624 196.0106 786.6883 196.7106 784.7444 196.9703 783.0613 197.316 777.5991 196.8802 775.7863 195.2475 773.4616 195.139 771.9749 198.5327 768.4346 200.7644 767.0945 200.8496 766.275 200.2912 763.2337 200.1548 761.3104 201.3548 760.0126 202.8706 759.672 204.2515 757.2063 204.5 755.9442 204.9465 755.154 205.8081 754.4063 206.464 754.5045 208.6729 754.419 210.1168 752.9659 210.3369 752.0395 210.9169 751.3165 211.067 751.227 211.2085 751.1426 212.7624 750.2157 213.0387 749.5496 212.8413 748.4749 211.2047 745.5727 211.1277 744.4557 211.3891 743.6002 212.0788 742.6013 213.1366 741.8422 216.7249 739.8591 218.301 738.504 218.5867 736.1944 219.95 734.8057 220.6669 734.3833 221.0218 733.8347 222.2476 730.8133 224.4572 728.2339 224.3458 726.9256 226.9202 725.0104 228.0917 721.1156 224.9268 718.6797 224.3089 717.6415 224.7782 716.6253 225.3926 716.2376 228.0193 716.7086 229.593 716.4383 230.4414 715.9123 231.0354 715.1497 231.4707 714.0231 231.8484 711.3098 231.7618 710.0587 231.0305 709.1406 229.3878 708.2705 228.2097 708.1158 221.83 704.1001 221.9026 702.9181 222.9139 698.3684 225.4237 696.0177 227.322 695.0035 227.8372 694.9975 228.6314 695.6136 229.1946 695.5697 230.8223 691.559 230.5979 690.9795 229.0749 690.2312 227.3449 688.2317 227.018 679.922 227.0883 679.3447 228.208 677.3044 228.1763 676.5548 227.9755 676.0691 227.2518 674.3179 225.0581 673.7269 222.788 670.1246 220.9389 663.3252 219.3369 660.0765 217.317 657.2283 218.0119 653.0111 218.4455 652.1265 219.9258 650.965 220.3869 649.9865 220.7887 647.6634 220.5687 646.3986 222.8629 641.3169 222.9886 640.7303 223.1103 640.1624 222.6013 637.8877 222.7466 635.9256 224.0052 631.4967 225.1877 628.6139 224.9561 627.0132 224.2694 625.3423 222.6449 623.639 220.2352 618.277 219.6739 613.9449 218.2701 611.2191 217.4625 611.018 216.9199 609.4589 217.9271 605.783 220.718 600.502 223.0589 598.0088 226.0336 597.1538 229.1211 594.5355 229.9567 593.7336 231.4706 591.363 231.8656 590.2628 231.9693 588.5428 231.9884 583.2047 231.3769 582.262 231.6686 580.4894 233.3901 579.3028 234.7685 579.5126 237.5632 580.5102 239.4957 580.1386 241.4201 579.6079 244.6538 577.9067 250.5629 575.0554 251.3337 574.2062 252.1215 571.2996 252.1338 571.2542 253.6087 570.5219 261.1739 571.1126 263.2861 570.541 268.7377 570.4475 271.3052 571.5762 272.8425 571.6262 275.4913 570.5744 277.1944 567.9656 280.4253 565.3253 284.8569 564.314 286.7805 564.7832 295.3621 569.1031 297.8939 570.7821 299.3191 571.2235 300.3978 571.0308 303.7569 569.1911 307.6766 568.7546 311.1785 566.8063 313.9613 564.7325 315.8412 563.3313 318.7953 562.2401 321.9129 561.7002 323.8029 560.7632 324.4141 560.1731 324.7098 559.1098 324.5993 558.4501 323.5489 555.3832 323.065 553.1037 323.3476 552.3533 324.4679 551.4082 324.7207 550.7948 324.6429 550.1828 323.4576 548.9666 323.2396 548.4543 323.8326 544.6513 324.3629 544.1416 326.1733 543.5225 328.4288 543.8385 329.7524 543.2885 329.9303 542.3037 328.4281 539.6922 328.4309 538.8063 328.9103 537.9311 332.4623 534.4751 333.8238 533.8968 338.8982 534.1802 340.2508 533.4028 341.3454 532.2459 343.4133 530.8694 344.3386 530.364 344.6381 530.2004 345.9041 529.9443 348.3722 530.3177 349.1071 530.8039 351.1229 532.9385 353.0228 533.2928 353.8246 533.119 354.1599 532.7026 355.1681 530.1093 356.0466 528.8504 356.8518 528.1808 358.703 527.6235 360.9394 527.4098 365.6079 527.9439 368.5701 527.0738 372.1903 524.672 375.7716 521.6387 377.9033 520.3644 380.3852 517.7186 380.7208 515.2097 380.3966 514.0988 380.6786 513.5368 381.4684 513.1353 385.014 512.6562 387.0115 511.583 388.0042 510.4416 389.1865 507.714 389.9086 502.379 391.5767 498.5594 392.0086 498.1963 395.0532 498.5351 395.9845 497.8364 397.0129 496.3948 396.8276 495.3659 394.4343 493.6384 393.8836 492.9869 393.7527 491.7827 393.9568 491.1347 394.7145 489.9494 395.8817 489.0633 397.4768 488.3662 400.2143 484.8069 400.9648 484.5526 406.5861 483.7366 407.2958 483.6021 409.9626 484.5418 414.1966 483.3035 414.8528 482.1743 415.8743 478.6164 415.9785 477.26 417.5455 475.5397 418.8429 475.0534 420.1725 474.567 422.3823 474.2911 422.8917 474.2104 423.3603 473.7534 423.6015 472.9599 423.3065 472.4629 421.0149 470.4737 420.2908 469.372 419.8752 467.4362 419.4729 466.7104 417.2885 464.8827 416.5109 463.7268 416.3903 462.5846 416.9792 461.8047 419.3913 462.1401 419.9671 462.0054 421.3201 460.9831 423.6773 457.5009 424.6952 455.538 425.2976 453.978 425.2706 452.9969 424.3857 451.3036 418.9843 447.1917 415.3257 443.9128 414.7759 442.7434 414.9098 441.7082 415.606 439.5167 416.5341 437.8022 417.302 437.0347 418.1072 436.696 424.2475 437.2364 426.7289 438.4113 429.3274 438.1513 430.8163 437.621 431.353 436.7662 431.1764 434.8799 431.3227 433.7276 432.642 429.3552 433.5981 427.8773 434.4592 428.0405 435.2451 428.7701 436.0087 429.1327 437.0669 428.7022 439.0767 426.7931 440.0811 425.4615 440.6969 423.3108 438.8739 422.1283 435.2424 420.5296 433.4917 420.3674 433.0024 418.9953 433.0709 417.4519 432.4148 415.7023 432.512 414.4671 432.9086 413.4735 433.3103 412.3576 433.2159 410.8789 432.183 406.5238 432.5165 402.3294 432.9743 401.5834 433.2958 401.5697 433.6062 400.8432 434.2063 400.2825 432.9862 397.5779 429.85 395.0009 429.6356 394.5974 429.6352 393.2805 431.2161 392.9172 431.5644 391.9354 431.5543 391.8683 431.3358 390.4168 429.9951 386.9758 428.8904 385.445 428.165 384.8358 427.5369 385.0142 427.1053 386.2042 426.4534 386.8242 425.6465 386.889 424.3986 386.7486 424.0076 385.9252 423.9101 385.2388 424.1619 384.4183 424.035 383.7613 421.1259 383.2145 420.338 382.5116 419.6141 381.5341 419.6141 380.5736 420.1715 379.1549 420.4526 378.0797 420.0046 376.7311 420.0046 375.7706 420.4928 375.2212 421.309 374.0202 421.5365 373.2673 421.1073 372.5009 419.2851 372.448 418.1729 372.085 415.5462 370.0026 415.5061 369.6532 416.2294 368.497 416.4165 367.2195 415.4912 365.3114 414.8206 361.924 415.3159 360.6872 414.5643 358.8731 413.9347 358.3354 413.6797 357.7578 413.6799 357.2202 414.3354 355.4188 414.1077 354.5718 411.9499 352.9057 408.5314 346.5625 406.3332 344.399 406.2663 343.6326 406.7207 341.1995 406.6269 340.689 406.0373 340.474 404.5633 341.3615 404.282 341.3484 403.5903 340.6206 403.3027 339.8676 403.2929 337.072 403.5354 335.8758 403.4869 331.8299 402.7655 329.9204 401.0112 329.0578 400.706 328.2328 400.6534 328.0906 400.6892 326.8379 400.9518 326.3734 404.0149 325.2681 406.5144 324.8292 408.0618 323.1942 408.0501 322.0426 409.0951 319.8532 410.571 319.0814 412.0828 317.8585 413.3964 315.3127 415.6669 313.3398 415.7179 312.8399 415.3977 312.167 415.2855 311.243 416.9489 309.0147 420.5289 307.2757 422.3605 307.4245 422.806 307.0774 425.1816 303.6589 425.8246 301.9249 425.2304 300.0918 426.3679 295.7811 426.912 294.7411 426.8626 293.7007 425.3399 292.7776 424.3903 290.9062 424.2395 289.44 424.7342 288.2513 427.4071 284.8673 428.559 284.3695 428.7201 284.8264 429.162 284.8263 429.7648 284.3962 431.6755 278.6383 433.3271 277.6709 433.9499 276.6649 434.0384 275.8221 433.7671 274.1513 432.7727 271.985 432.0576 271.3212 432.0343 270.1767 432.5365 269.1537 433.3469 268.2266 435.5609 266.2219 435.5471 265.3479 434.743 263.8568 434.7958 262.6469 435.0637 262.0687 436.5771 259.9849 438.9883 258.5186 441.2926 257.8862 443.5565 255.614 443.6656 253.6326 443.8933 253.1084 444.6031 252.3557 446.3718 251.3469 450.5772 245.7945 450.8183 245.0151 449.8264 244.0878 449.7177 243.6086 449.9174 243.2062 452.0943 241.4075 454.662 238.4545 455.2381 237.4464 455.8878 237.2452 456.9548 237.567 457.4226 237.1225 458.2204 233.6264 458.0186 233.089 455.3569 231.5051 453.815 228.8442 451.8449 226.2777 449.3513 223.9932 448.6122 216.7088 448.9469 216.0369 449.2145 214.4641 448.6646 212.0721 449.4796 205.5122 448.9023 202.0851 446.343 201.0644 444.3451 196.7373 442.4956 195.3536 439.9215 190.4885 439.584 188.2045 440.2526 184.6784 443.1163 181.4545 445.2264 180.1445 447.3034 179.9018 449.5541 178.9202 456.707 178.9599 460.8048 180.6856 464.1118 179.5236 469.6627 174.1915 470.1636 173.2034 455.1723 173.3751 Z"/>
</g>
</svg>