<?xml version="1.0"?>
<svg xmlns="http://www.w3.org/2000/svg" version="1.2" baseProfile="tiny" width="800" height="893" viewBox="0 0 800 893" stroke-linecap="round" stroke-linejoin="round">
<g id="cb_2018_us_state_5m">
<path d="M 26.986 1.9648 37.7808 2.2976 38.3388 2.3143 80.1143 3.3504 80.1917 3.3582 90.6062 3.5984 110.2559 4.0283 117.5833 4.1808 117.6154 4.1832 121.626 4.266 121.6654 4.2613 126.3499 4.3593 126.5077 4.4481 153.5178 4.85 157.6262 4.9061 222.5488 5.9371 230.16 6.0362 284.6489 6.5958 298.1936 6.6985 299.1225 7.913 314.0437 8.0074 323.428 7.9576 325.2159 7.9483 329.2979 7.9818 329.308 7.9797 330.7508 8.0135 330.7465 8.0192 345.3389 7.9554 348.3825 7.9549 365.0482 7.9395 371.2895 8.0042 376.8731 7.9496 376.9945 7.9532 382.7822 7.981 407.1711 7.7832 407.2108 7.7828 408.318 7.7701 408.4823 7.7698 443.2418 7.6087 443.2426 7.6087 443.4919 7.6072 449.9697 7.5751 454.6325 7.5832 466.3417 7.4889 469.0251 7.4881 469.4817 7.4668 474.9456 7.4171 477.1895 7.398 477.7898 7.3976 480.6429 7.3991 480.6874 7.3991 501.717 7.2731 505.558 7.3075 505.5713 7.3073 513.7646 7.2044 516.0917 7.1742 518.0501 7.1484 529.5157 7.4515 533.1035 7.3281 566.6973 6.8741 566.7085 6.8798 577.5961 6.7355 580.0337 6.6649 580.1556 6.5412 593.3334 6.434 615.9095 6.0907 626.9533 5.7168 657.3074 4.8669 691.5079 3.8213 691.6477 3.8219 763.8221 1.5594 772.5496 1.3089 783.0368 1 783.4861 14.8529 783.5319 15.167 784.4775 44.9284 784.6635 51.8545 784.9931 60.9334 785.0749 63.1973 785.4156 75.1159 785.5654 79.2155 780.5973 79.3615 781.5333 107.8815 781.5459 107.996 782.9618 149.0638 783.9799 183.1316 783.9298 185.089 784.0446 186.8326 784.1062 189.5945 784.2281 190.3523 784.4696 198.5201 785.0101 216.8368 786.7306 275.1737 786.7213 276.5566 786.9 281.1568 787.0551 285.654 787.0583 285.7108 787.0659 285.846 787.0751 286.3708 787.1466 289.3876 787.1992 291.6725 787.223 291.9805 787.2681 293.1033 787.2244 294.7569 787.3773 297.1269 788.1439 321.5274 788.412 330.0797 788.6167 337.804 788.8979 346.8928 789.1141 353.9206 789.4729 365.8536 789.5007 368.6891 789.6882 373.9076 790.3731 398.5236 790.3875 398.9757 790.3882 398.9932 790.4081 399.6206 790.6534 407.4836 790.6704 408.2334 790.6838 408.7932 790.7034 409.324 790.7153 409.837 790.7238 410.1132 790.7413 410.6944 790.7406 410.7382 790.7377 410.9126 790.7212 411.3305 790.724 411.5274 790.7242 411.5438 791.0381 422.0072 791.0382 422.0095 791.0918 423.5917 791.0921 423.6016 791.1827 425.6598 791.3471 430.7568 792.0388 453.3256 792.158 457.2242 792.2054 458.5657 792.2605 461.1205 792.3149 463.1716 792.3423 464.1807 792.3541 464.3724 792.3513 464.4951 792.3746 465.1598 792.421 465.8766 792.4936 468.1792 792.5206 469.2502 792.5503 470.4324 792.644 474.9772 792.6584 479.5257 792.739 485.6881 792.7685 486.4339 792.8453 494.4651 792.9085 498.481 793.0485 510.7698 793.0217 512.104 793.1188 517.7132 793.2069 522.3456 793.201 524.5756 793.1786 525.7834 793.2409 527.1199 793.2598 529.0731 793.4108 538.3014 793.4109 538.3052 793.7282 566.8504 793.7283 566.8538 793.892 576.0888 793.9095 578.3212 793.9812 586.9197 793.9375 587.5652 794.0579 593.3676 794.1976 605.6442 794.3723 621.1308 794.3778 621.6576 794.4457 626.1077 794.4705 627.7358 794.6255 633.2997 794.6525 634.1258 794.9334 643.3782 795.0101 646.614 795.0391 648.3387 795.0948 650.0062 795.0824 650.0749 795.1219 651.3121 795.2454 654.5825 795.2455 654.5913 795.2461 654.7296 795.4396 661.4536 795.4458 661.6087 795.4601 662.5956 795.6873 670.5309 795.7723 673.3391 795.8537 676.1472 795.8817 677.418 796.0761 683.0897 796.1511 686.5169 796.2607 690.067 796.2637 690.2967 796.3234 692.2403 796.6288 702.5412 798.3567 761.5906 798.4645 765.0286 798.6255 770.6621 799 784.207 796.1529 784.3013 795.7784 784.3144 778.9287 784.8009 772.0272 785.0039 772.0179 785.0278 771.6628 785.0375 770.5821 785.0534 764.2129 785.2391 711.584 786.6194 708.2064 786.701 691.318 787.032 677.4133 787.4018 671.5241 787.5436 630.9934 788.3157 604.141 788.7599 604.1166 788.7299 589.6367 788.9375 589.29 788.9352 562.1553 789.3003 552.7829 789.4137 552.7716 789.4138 531.6839 789.6368 531.4768 789.6462 526.2363 789.7071 524.4638 789.7187 524.2593 789.7216 522.2229 789.7467 521.9478 789.7475 521.4583 789.7522 490.0409 790.0015 485.1696 790.0314 484.9659 790.0388 484.873 790.043 444.724 790.1069 442.1765 790.0162 428.416 790.0384 424.15 790.1089 422.2306 790.093 409.2848 790.0806 402.3139 790.0748 392.3347 790.0602 384.851 790.1342 382.3445 790.1742 381.6512 790.1773 367.3776 790.1985 366.0269 790.2045 365.6793 790.206 358.9305 790.2339 358.8881 790.2329 356.6131 790.1792 345.0702 790.2125 334.0178 790.2159 331.5753 790.2105 329.6804 790.206 326.816 790.2239 326.684 791.1255 326.1338 791.7076 325.1208 791.8889 324.412 792.5259 324.0044 793.3649 324.1803 793.9182 325.2494 794.7944 326.1716 794.539 326.6731 795.8162 326.3041 796.4064 326.4039 796.9689 326.8882 797.1903 327.329 797.7019 327.2095 798.2946 326.2521 799.5367 326.3105 800.2997 326.0371 801.1018 326.4178 801.7161 327.5638 802.6756 327.6127 803.0422 325.7612 804.0401 324.7322 804.4166 323.7743 805.2248 323.1526 806.1499 323.1742 806.7467 323.4916 807.0498 324.1221 807.2519 325.1113 808.0791 325.3083 808.5019 324.5462 809.9447 324.4101 810.4081 324.4001 811.2346 325.4766 812.1233 325.7457 812.8006 326.2632 813.3389 327.2199 814.3399 328.3903 814.3744 328.4699 814.4374 328.8949 814.6742 328.9049 815.4258 328.4547 817.2544 328.7909 817.7082 329.9761 817.7329 330.6113 818.0794 330.7441 818.174 331.5256 819.2108 331.6311 819.4618 332.1749 820.0122 333.0138 820.0472 333.5618 819.5642 334.0142 819.6757 334.0797 819.9111 334.6787 820.023 336.1819 820.5147 336.257 820.6284 336.4202 820.8755 336.5037 820.9885 336.8447 821.3312 336.851 821.3252 337.682 821.8826 337.7479 822.0551 337.7728 822.1206 337.827 822.2746 338.051 822.933 338.0567 822.9453 338.126 822.9322 338.3879 822.9037 338.7296 823.1549 338.7565 823.2718 338.7715 823.3723 338.7204 823.7125 338.7024 824.0193 338.6856 824.3068 338.2212 824.1857 309.0703 824.0711 309.0705 824.041 276.6995 823.8372 276.0746 823.8347 275.7649 823.8307 275.7647 823.8567 271.4486 823.8148 236.3053 823.4216 236.3013 823.4216 219.5954 823.2446 219.5622 823.2442 190.4433 822.8234 162.8465 822.3971 135.8156 821.9191 114.906 821.5045 114.4393 848.1308 114.0435 865.9223 114.0365 865.9309 113.5439 891.961 77.8566 891.1756 46.7857 890.4593 35.9432 890.3084 27.5993 890.0969 26.2724 890.059 1 889.3248 1.5961 866.2477 1.7215 863.1962 1.7256 863.1943 2.3915 841.7494 3.0513 816.7177 3.1686 814.4931 3.2615 809.3367 3.3807 806.5728 3.4441 805.101 4.0457 782.7406 4.0896 780.4669 4.384 771.7154 4.4066 770.9294 5.9312 718.1322 6.8728 683.5793 7.0198 678.2033 7.0411 677.4284 7.0579 676.8552 7.0737 676.3148 7.505 663.1421 7.506 663.107 8.7176 617.5903 8.7255 617.4327 8.8953 613.9101 8.8854 613.7553 9.0662 606.7629 9.0682 606.6946 9.3617 595.5892 9.362 595.5783 9.511 589.1402 10.0995 571.0968 10.09 571.0498 10.0885 570.4682 10.1262 569.9403 10.1767 569.5646 10.2332 564.1229 11.2637 530.404 11.709 512.3943 11.9047 506.4084 12.4014 491.242 12.8823 471.6578 15.3327 389.8292 15.3334 389.8042 15.5932 380.9155 16.4714 350.8798 16.6298 348.6281 16.6008 346.3421 16.7273 344.1122 16.7349 341.8641 17.3612 321.3189 17.3616 321.3032 18.3269 287.5141 18.6617 275.841 18.9167 265.3336 19.0144 261.3137 19.0939 258.0466 19.9788 229.427 19.9758 229.409 20.3174 218.7886 20.328 218.4336 21.5882 177.1992 21.6259 175.802 21.7996 169.9857 21.8052 169.9802 22.1678 158.0091 22.1696 157.9522 22.7366 140.0498 22.9835 129.9131 23.6506 109.0626 24.581 80.0863 24.7107 75.8023 26.3637 21.4488 26.3689 21.3848 26.8351 6.6931 26.8416 6.5965 26.986 1.9648 Z"/>
</g>
</svg>