<?xml version="1.0"?>
<svg xmlns="http://www.w3.org/2000/svg" version="1.2" baseProfile="tiny" width="800" height="1193" viewBox="0 0 800 1193" stroke-linecap="round" stroke-linejoin="round">
<g id="cb_2018_us_state_5m">
<path d="M 20.7262 1.2025 20.7278 1.1524 22.2826 1 34.9317 1.2284 36.7168 1.2923 39.666 1.4315 47.0753 1.6498 55.1729 2.1433 90.5815 3.4465 101.2116 3.96 101.2186 3.9603 105.7459 4.1272 114.961 4.4613 117.3769 4.469 120.3449 4.7301 146.4671 5.3454 172.3511 6.2368 174.6696 6.2455 174.841 6.246 184.8538 6.6334 196.7882 6.5457 209.5022 6.5551 247.789 7.0272 247.8118 7.0275 288.6351 7.4417 319.8453 7.873 320.1288 7.8143 342.9159 7.8436 347.8905 7.9507 371.3575 8.03 373.8494 7.9628 390.1422 8.1146 391.8083 8.1474 393.6366 8.1562 395.4918 8.1648 396.4882 8.2595 396.4989 8.2615 397.6273 8.4732 402.6855 8.3476 445.8706 8.6454 445.9744 8.7083 450.8949 8.7093 451.4902 8.6305 458.6669 8.6724 460.5423 8.7487 461.641 8.707 461.8888 8.8074 463.6489 8.7845 463.9931 8.7799 466.4611 8.8334 478.4504 8.8521 482.9547 8.669 504.2495 8.5365 504.6403 8.5425 520.0571 8.4627 520.0612 8.4707 521.0471 8.4667 521.0466 8.4694 522.5342 8.3955 522.5361 8.4022 523.384 8.3413 523.3849 8.3435 526.5793 8.2372 539.1 8.2257 540.1112 8.2441 541.3003 8.4251 572.1061 8.0196 577.0338 8.0546 611.46 7.7434 618.967 7.5281 619.4146 7.6171 646.2276 7.2052 647.0313 7.1919 661.8452 6.2612 663.7334 6.2255 666.6701 5.9303 672.3148 5.6697 675.429 5.673 686.2419 6.0604 701.6924 6.3569 714.2987 6.0536 714.3006 6.0473 718.162 5.811 741.577 5.4472 741.584 5.447 763.5608 4.9004 763.5828 4.9225 769.3155 4.7436 769.3149 4.7677 771.0181 4.7166 771.02 4.7323 771.842 4.7091 772.6586 23.1581 772.6486 28.967 772.6428 28.9634 773.2929 45.3681 773.938 67.2112 773.9269 68.8306 774.4467 88.4048 774.5786 89.7976 775.799 135.8727 775.6968 137.4088 775.8538 137.9425 776.8058 173.1861 776.8059 173.1911 777.8117 211.8988 777.7932 214.016 777.7923 214.1075 777.9951 219.597 778.8553 256.8677 778.8704 258.6981 778.8846 258.923 779.2403 269.8101 779.1887 270.7383 779.274 275.2363 780.096 303.4524 780.5919 322.9684 780.6466 325.1237 780.7236 326.1971 780.9971 337.6944 781.196 343.3308 781.5642 358.7368 781.5645 358.7471 781.9684 373.1696 782.0251 377.7291 782.2606 383.622 783.2524 420.3821 783.5444 427.6407 785.6567 511.5309 786.401 533.0414 786.3512 533.4666 786.2326 533.6819 786.8671 554.8865 786.8889 558.4073 787.1173 567.203 787.5765 584.9131 787.5767 584.9224 787.7345 589.1887 787.7571 589.8638 787.8781 597.3014 788.3804 613.4631 788.3772 613.4865 789.1296 637.2042 789.1029 639.7072 789.6096 656.8717 789.6104 656.8992 790.2372 682.1128 790.8934 702.224 790.9918 707.1197 791.1599 712.0139 791.3854 714.3471 791.3978 721.8614 791.2816 723.4448 791.2497 725.0272 791.2375 725.1479 791.2463 725.1904 791.6778 743.7931 791.8016 749.1424 791.7913 751.178 792.1745 763.8823 792.1733 763.9833 792.2459 766.4845 792.2923 768.2649 792.3946 771.6137 792.6059 778.5353 792.7595 780.7975 792.9559 788.8267 792.9572 788.8733 793.3283 801.9134 793.3307 801.9989 793.3464 803.4463 793.3495 803.5587 793.656 812.0328 793.9021 822.4582 793.9495 826.7423 794.0504 828.9142 794.0595 834.06 794.2549 836.2574 794.2764 836.6881 794.8346 851.6081 795.1113 858.8317 795.5494 878.2641 795.5494 878.2664 796.4063 909.9379 796.6018 915.2376 796.6883 915.8906 797.3979 936.4132 797.7888 940.9012 798.0164 946.0627 798.254 954.8568 798.3066 965.961 798.4408 967.6738 798.3413 972.0596 798.474 975.5695 798.7093 978.6626 798.783 979.5667 799 988.2369 797.1787 989.0864 796.1603 990.59 793.4564 996.8167 792.0616 1000.7083 791.609 1000.9714 790.5434 1001.052 789.2171 1001.9836 788.9177 1002.5038 788.8259 1003.3642 788.9368 1003.6611 789.743 1004.2919 790.2114 1004.9419 790.1689 1005.2423 787.2591 1011.3824 787.1072 1012.4555 787.2739 1013.5317 787.1586 1014.4673 785.846 1016.7526 785.3762 1017.3502 785.0494 1017.478 783.3412 1016.8674 781.921 1016.9205 779.8158 1018.1057 776.9156 1019.095 774.2329 1019.3904 773.476 1019.3643 771.5528 1018.4601 770.0898 1017.5247 769.586 1016.9783 769.0214 1015.8943 767.6675 1014.1256 762.9821 1012.2452 762.7671 1012.0255 762.677 1011.415 762.9238 1010.8138 763.7723 1010.0003 764.0513 1009.3845 763.6519 1008.1131 760.7713 1004.2779 759.5972 1003.8806 755.9699 1000.204 754.6871 998.0547 750.1006 997.4461 749.1564 997.489 748.5353 997.7572 747.1719 999.3932 744.5489 1001.2082 744.2665 1001.1404 743.6103 1000.4246 742.8898 999.1095 742.1641 998.9388 741.2751 999.1115 738.9977 1000.7595 737.7587 1001.0507 736.9261 1000.9098 736.6117 1000.757 736.424 1000.4727 736.3604 999.9292 736.4537 999.4462 736.5132 998.6112 736.5272 998.0659 736.2326 997.6239 735.5366 997.1861 730.8662 997.0749 727.2745 997.2648 723.8592 998.953 722.374 1000.3681 721.2326 1001.0456 720.5146 1000.7176 719.6656 999.2308 719.1323 999.0232 715.3268 1002.1844 714.9383 1002.9068 714.4473 1003.3562 708.5552 1005.1092 707.5245 1005.1404 704.949 1005.7567 703.4772 1007.035 702.5987 1008.1209 702.3388 1008.726 702.3742 1009.6685 702.5721 1010.0307 704.0759 1011.5088 704.4736 1012.3046 705.0874 1013.5326 705.0344 1014.2322 704.5522 1015.105 704.5705 1016.0496 704.546 1016.5021 704.7225 1017.0327 705.428 1017.3878 705.9744 1018.116 706.0846 1018.6477 705.9057 1019.7198 705.0756 1020.6919 704.6494 1021.1909 704.3507 1021.7687 704.2982 1022.3516 704.2977 1025.9842 704.7623 1027.5741 706.2691 1029.826 706.5112 1030.8196 706.1617 1032.9238 706.4175 1033.3426 708.3162 1034.4389 709.4598 1035.5415 709.376 1038.2117 710.5438 1039.9733 715.1799 1044.4469 714.87 1046.0977 713.182 1046.4389 711.044 1047.9146 710.7794 1049.0172 710.7963 1049.8788 711.3006 1051.4777 711.4075 1052.0147 710.3604 1054.7507 709.5221 1055.5139 709.2326 1056.1977 711.1016 1058.8692 710.8277 1062.4499 711.6557 1064.6518 711.5095 1068.4331 710.4809 1072.1989 710.478 1072.7581 711.0801 1073.9482 712.0781 1074.9435 713.599 1075.8937 713.9704 1076.5463 713.7743 1077.7873 712.7443 1080.0963 712.8713 1082.3427 714.5999 1083.9868 717.281 1087.7237 717.9709 1089.1147 717.8915 1091.3524 717.1945 1093.0784 716.3846 1094.2922 716.3204 1094.7767 716.8057 1097.1184 717.0049 1100.1969 717.2742 1101.2412 717.6704 1101.7239 717.7462 1102.061 717.6075 1102.7246 716.9236 1103.7557 715.4685 1104.905 715.0138 1105.6601 714.7826 1107.9515 715.0324 1109.6822 715.7142 1111.0284 716.6651 1113.5235 716.9825 1116.4567 717.3284 1117.3395 718.7777 1119.8614 722.2818 1123.1147 724.5916 1129.9139 725.6298 1132.5111 726.8876 1137.2841 726.7677 1142.0758 728.3238 1147.8964 728.9646 1151.9944 728.9309 1153.3768 729.4997 1156.7996 730.2234 1157.4169 730.6183 1158.3066 731.0773 1161.1934 731.1027 1164.6515 730.7468 1168.7785 729.9801 1170.4846 728.719 1171.3631 727.1494 1171.8518 724.2638 1171.8173 722.8837 1172.4165 720.9248 1174.5533 720.6043 1175.2429 721.1675 1176.1396 724.0131 1177.3977 725.3348 1178.3175 726.5285 1179.6906 726.8036 1180.7412 726.7199 1181.4815 726.311 1182.3853 723.5225 1184.8542 722.8099 1186.0777 722.2209 1187.6512 722.0902 1188.9763 722.3171 1190.9602 722.7833 1192.1265 698.6312 1169.3 698.521 1169.2015 681.5463 1153.1488 681.5325 1153.1465 679.1765 1150.9993 664.8801 1137.3682 657.2656 1130.2205 656.5815 1129.4901 653.3639 1126.5684 650.5573 1123.8638 650.4213 1123.7847 648.5588 1122.0423 648.4849 1122.0123 632.9692 1107.2904 628.4365 1103.0302 619.6198 1094.7499 616.1691 1091.5047 615.8252 1091.1582 614.3537 1089.7787 614.1389 1089.6109 613.1837 1088.545 600.9247 1077.1158 583.5279 1060.6101 583.3117 1060.302 580.5587 1057.7654 580.4919 1057.7046 580.445 1057.6591 577.5294 1054.8293 574.7118 1052.2346 566.1748 1044.3083 552.9941 1031.7336 552.0358 1030.8179 546.4945 1025.7282 543.7458 1023.1418 518.8067 999.5115 518.309 999.0837 497.1786 979.0816 480.0347 962.9385 479.4236 962.5344 464.661 948.3016 462.9325 946.757 457.3186 941.3843 394.9456 882.3204 386.0436 874.0279 377.2333 865.5998 372.6432 861.2574 362.0091 851.179 359.1635 848.6716 344.3937 834.6607 327.7352 818.6443 327.628 818.6599 322.275 813.5773 316.85 808.6006 303.599 795.8207 299.3589 792.1174 283.3248 776.6447 277.5799 771.0798 273.7597 767.8756 264.3151 758.6678 255.8165 750.7404 255.8234 750.7358 254.1831 749.0713 227.9005 724.2443 204.6041 702.1444 194.9922 692.9891 185.6767 684.1508 179.1688 678.1598 167.0415 666.3777 162.821 662.419 159.5164 659.4645 148.141 648.5047 139.8787 640.6393 136.3437 637.3197 129.6655 631.249 125.8881 627.4979 119.097 621.1885 117.1817 619.1692 113.4442 615.6168 109.4252 611.8427 99.3269 602.3429 97.2573 600.2822 93.5987 596.9264 87.252 590.8191 86.6052 590.1961 81.8663 585.816 81.1052 585.1964 71.4919 575.8706 71.4934 575.8708 65.9026 570.6392 65.8819 570.6185 54.1503 559.4802 53.941 559.2809 53.8621 559.2122 13.3273 520.6868 1 508.9796 1.2384 497.454 1.4004 489.7836 1.5907 480.8042 1.8057 470.6878 1.8281 470.102 2.2078 461.6423 2.3045 459.4888 2.4092 455.7414 2.4126 455.6561 2.4407 455.2322 2.4419 455.2148 2.6105 452.8374 2.9298 445.3049 3.5484 433.4161 3.549 433.4044 4.3267 417.5128 5.5555 386.3816 5.6527 384.3861 6.0307 376.6276 6.0223 376.4875 6.5892 364.5137 7.5374 346.6997 8.3242 327.148 8.3744 326.2256 8.4592 323.7924 8.6978 317.8961 9.6989 294.8208 9.7059 294.6392 10.083 284.8516 10.0868 284.7519 11.2717 254.5587 12.5058 217.0631 12.5732 212.1574 13.2362 192.4867 13.2463 192.223 13.2672 191.265 15.2469 138.5619 17.3881 85.0172 18.3291 64.8777 18.297 63.8365 19.2016 42.6576 19.9115 21.4732 20.7262 1.2025 Z"/>
</g>
</svg>