<?xml version="1.0"?>
<svg xmlns="http://www.w3.org/2000/svg" version="1.2" baseProfile="tiny" width="800" height="871" viewBox="0 0 800 871" stroke-linecap="round" stroke-linejoin="round">
<g id="cb_2018_us_state_5m">
<path d="M 392.3038 96.363 395.3616 92.4296 397.4395 92.4344 398.1397 92.8878 398.7239 94.2284 400.3669 94.4358 402.3506 92.5879 402.7807 92.8257 402.2589 98.4785 401.3017 100.2367 401.2891 100.2598 400.7988 100.5864 398.3957 100.6979 394.0904 98.3371 392.293 96.9383 392.3038 96.363 Z M 372.811 85.7396 374.3605 70.8098 376.0619 67.4657 377.0212 67.0464 378.8056 68.0187 378.8112 68.0217 383.1994 73.6459 383.6929 74.2781 383.819 74.4396 381.9431 81.5258 378.2684 86.0058 375.8001 89.0132 373.0705 90.3099 372.8057 85.7909 372.811 85.7396 Z M 18.4785 69.4601 28.6209 69.1758 84.9487 68.7654 91.906 68.6683 92.4479 68.6606 98.9492 68.6173 98.9726 68.6168 139.7926 67.801 160.5722 67.2182 164.2773 67.2354 182.1729 66.7269 185.6434 66.7441 185.6708 66.7424 189.4372 66.5111 206.8425 66.1721 206.8627 66.1717 216.6323 65.898 220.8955 65.6314 224.3984 65.5487 227.3561 65.4598 229.1476 65.4058 229.6893 65.3873 237.1651 65.1496 237.4177 65.1521 238.9146 65.1204 238.9704 65.1192 253.5772 64.7251 253.7398 64.7265 254.4078 64.7083 254.7692 64.6632 262.6944 64.5382 262.3647 65.775 262.3598 65.7933 263.521 69.8477 264.049 70.7885 264.1421 70.8427 264.6612 71.1457 270.609 74.614 273.6627 74.4685 276.705 75.7733 280.0768 75.5284 282.8425 74.1567 283.5436 72.9129 283.5534 71.7697 285.5639 72.2307 291.4705 77.2802 292.0507 78.2639 294.2516 79.4185 301.4949 84.52 302.5096 85.9833 302.665 86.2074 305.5346 87.5935 309.3592 89.4398 314.5578 91.3445 318.1358 92.6542 325.718 93.7405 328.9462 95.4178 332.4512 98.1745 336.679 104.8114 339.3838 107.7974 344.4661 111.9554 349.9366 115.4316 356.3178 117.8372 362.9565 116.6705 364.6836 115.884 367.0358 114.1532 368.0891 113.1205 370.3856 109.6663 370.6767 105.8334 369.8975 102.8681 371.0897 101.1879 372.0495 100.6303 374.5026 100.1628 377.011 104.2584 381.689 110.1103 383.2859 111.517 383.4955 111.5191 385.7274 111.5418 389.7295 110.1197 395.5274 111.219 396.7843 112.4964 396.6581 114.7809 394.796 117.3258 394.9146 117.8063 395.1767 118.869 396.2466 120.9485 396.9515 121.9417 399.7217 122.8228 400.8281 123.1746 400.954 123.2146 401.4954 123.957 406.3247 130.575 413.684 137.8348 413.8287 138.6588 416.552 140.4073 424.5175 145.5168 432.555 149.3092 435.2294 149.9598 438.4753 149.9998 442.2131 148.7867 447.519 146.2193 453.533 142.0687 460.1054 138.9729 462.5896 138.5306 465.1073 138.082 472.835 138.4826 477.0213 137.8817 479.5194 136.9986 490.5918 129.6584 491.4068 128.7934 491.8839 127.4984 492.1367 127.3518 492.7158 127.9302 495.6519 127.2337 508.5195 122.1674 514.3685 120.1637 523.3706 117.0748 526.5242 117.3395 527.6284 117.7762 531.3282 119.2388 531.9131 119.4699 532.3289 120.4591 533.0955 121.1053 536.8427 122.814 547.8219 124.6483 550.9187 124.5229 551.3924 124.3671 555.2355 123.102 559.8579 121.5788 562.8097 121.3109 562.8625 121.3061 565.0194 121.4282 567.4587 122.4667 567.5096 122.4788 571.8367 123.5074 572.9199 123.1569 577.9195 119.9087 578.0446 119.7362 578.6485 118.9035 586.1765 112.635 586.1824 112.6301 588.8812 111.552 591.8033 110.384 597.8774 105.4256 604.4683 98.8357 606.7636 96.2651 610.366 92.2284 615.6333 90.0046 617.7393 88.065 621.7622 83.704 625.9033 77.815 635.5332 69.478 641.8456 64.4006 651.0676 58.7421 653.6807 56.3544 654.9445 56.4062 657.7838 56.7955 657.8687 56.771 660.5759 55.9882 672.0647 49.6558 684.8127 41.9574 687.9076 40.7778 688.4223 40.5816 695.6951 36.4395 700.5968 34.675 703.0886 32.8151 704.4937 32.5741 704.5919 32.5572 706.4441 32.2393 709.6979 31.6803 716.4165 30.5237 722.8471 28.8067 738.067 21.5263 739.1699 20.5565 740.5486 18.5849 743.4369 18.0651 743.9366 19.2368 748.2366 17.5178 754.8797 15.8235 779.6404 6.0878 784.6193 3.4988 790.7431 1 790.7552 1.3298 790.9723 9.1042 791.0566 12.6875 791.5578 31.9291 792.0884 52.3365 792.143 55.3953 792.2168 58.5689 792.4564 67.7271 792.6334 75.0386 792.6545 75.3915 792.8118 81.5515 793.4594 106.9319 793.5569 109.4762 793.7215 116.4499 793.7914 119.0877 793.9606 125.4775 794.1201 130.7583 794.1587 132.0349 794.2291 134.8151 794.2751 136.6325 794.2693 136.6324 794.4583 145.7043 794.5064 147.3752 794.5678 150.0289 794.6744 154.9348 794.678 155.0786 794.6905 155.1971 794.6941 155.3422 794.6909 155.3427 794.7078 155.7966 794.708 155.8036 794.7152 156.0906 794.7331 156.683 794.7332 156.686 794.8867 161.7836 794.9897 163.45 795.1803 172.4469 795.1817 172.482 795.2182 173.2068 795.354 177.1468 795.4171 181.0883 795.4976 184.2798 795.571 186.7318 795.7455 195.9231 795.9072 202.1325 795.9717 205.066 795.9719 205.0769 796.0502 207.0653 796.0504 207.0709 796.0506 207.0796 796.0426 207.0798 796.1096 209.2794 796.1377 211.8432 796.1775 212.9404 796.2453 215.3969 796.2983 217.4724 796.3574 219.179 796.3837 219.9399 796.395 220.1603 796.4464 222.4351 796.7329 233.5954 796.8427 238.4174 796.8897 240.3675 797.2754 256.403 797.2165 259.8884 797.2553 260.9086 797.2707 261.3145 797.2757 261.42 797.281 261.5327 797.5554 266.9248 797.7109 273.2606 797.7184 273.5668 797.7128 273.7886 798.0191 285.3787 798.061 287.5365 799 324.6511 798.4742 325.1018 797.7933 325.3422 796.9791 325.3171 796.4981 325.4899 795.2709 326.3592 794.1203 326.9729 793.1653 327.2032 791.4359 328.4955 790.1658 330.009 789.4267 330.5341 788.5532 330.8533 787.9803 330.8478 787.2802 330.5704 785.6954 328.9208 785.3187 328.6472 784.4474 328.2812 783.5107 328.3517 781.3055 329.2191 779.2665 329.6931 777.9703 330.653 777.0759 331.8389 776.0946 333.7084 774.8887 335.1649 774.4818 335.4802 774.2583 335.47 772.9323 336.6969 772.3432 337.6474 771.9935 338.9213 772.0505 339.9845 772.234 341.0525 773.0264 341.878 774.4119 343.0536 774.9556 343.6796 777.0661 347.0481 778.641 349.3609 779.1275 349.5391 779.6864 350.0408 780.7499 353.7164 781.0382 355.7031 781.626 358.1589 783.3423 361.1528 784.5876 362.4006 785.1958 362.7877 785.9183 364.5366 786.0697 365.4765 785.877 367.4167 785.5014 368.6354 784.4289 370.7415 784.3549 371.4933 783.2472 373.6729 783.0615 374.379 782.9643 375.712 783.1552 378.3204 783.1442 380.9578 783.3317 381.8728 783.2649 382.1647 782.7288 382.8548 780.3769 383.8783 780.0866 384.0933 779.6346 384.428 779.3951 385.2079 779.7917 386.408 779.9526 386.5416 782.0959 387.2487 782.9969 387.9532 783.8843 388.8515 784.3021 390.148 784.1432 391.9906 783.6111 393.6484 783.47 395.4663 783.4762 395.4912 783.8774 397.1019 785.408 400.2104 785.8888 401.8199 786.0196 402.6636 785.5277 405.2399 784.864 406.03 783.4021 408.9438 783.0901 410.5722 783.2751 413.7128 782.7437 415.4432 782.1729 416.2793 779.5222 418.1563 779.4992 417.9633 778.1555 418.9142 776.8073 420.4699 775.1495 424.1791 774.7002 426.7609 774.403 429.8885 774.1072 431.4921 773.317 433.2765 772.0577 434.7572 771.6536 434.9611 771.6178 434.9792 771.3115 435.2959 770.8768 435.9369 767.9098 441.8958 767.6131 442.4913 767.3736 443.2787 767.1642 444.8783 766.698 446.5069 766.6744 449.6622 767.0359 451.3918 767.1706 451.59 767.3964 452.5488 767.4649 453.1278 767.31 454.462 767.0724 455.4109 766.8792 455.875 766.3761 456.5396 763.159 459.1281 762.0652 460.701 761.7559 461.7724 761.7969 462.7875 762.0908 464.3535 762.6372 465.6235 762.8641 465.8362 763.3228 468.1484 763.3362 468.7529 763.2857 470.5804 763.2747 470.9801 762.9704 471.9823 762.9641 472.0031 762.4275 472.8239 762.2385 473.3933 762.2722 474.5112 762.1981 475.047 761.7271 476.3968 761.5084 478.1668 761.494 478.7207 761.7187 480.8407 761.927 481.5444 762.2201 483.6707 762.0357 487.1392 761.4815 487.558 760.9218 488.2672 759.3042 489.4334 758.688 490.0083 757.82 491.413 757.6326 492.2068 757.6459 493.089 758.3313 497.3085 759.2157 499.3482 759.3943 500.3197 759.3163 500.9562 758.9877 501.8112 758.8088 502.0474 758.5596 502.1884 758.2006 502.1963 757.1435 502.0415 756.3247 501.657 754.4013 500.2824 752.003 499.723 751.1114 499.8043 750.5839 499.9782 750.1058 500.3834 749.8205 500.9198 749.5356 502.0446 749.4831 503.0637 749.6225 503.7574 750.1783 505.1776 750.9199 506.5396 752.0971 507.985 752.5144 508.6395 753.2802 511.1715 753.1938 512.3762 752.7724 513.2391 751.5418 514.4364 748.5042 515.9243 747.6199 516.6811 747.0781 517.3756 746.75 518.0893 746.6072 518.7169 746.7737 520.1296 747.4098 522.1282 747.5248 522.7337 747.648 525.9396 747.1844 528.5176 746.9911 529.1285 745.3164 531.0738 740.2415 534.9288 739.6492 535.7779 739.1625 537.0881 739.0202 537.7706 739.4866 539.3185 739.9253 540.2443 741.9529 542.7803 742.3285 543.1479 743.5804 543.9024 745.4155 547.2229 745.8056 547.7814 746.0141 547.9632 746.3763 548.279 746.7438 549.5857 746.7474 550.1183 746.3869 551.622 746.0238 552.1517 745.0635 552.7682 744.0283 553.1754 742.6788 553.4168 742.2008 553.6898 740.8959 554.648 740.537 555.1154 740.1711 556.3906 740.09 557.1947 740.05 558.3277 740.332 562.1284 740.1829 564.5832 739.624 565.9786 739.4635 566.9522 739.5246 567.2221 739.4366 567.9015 738.5679 570.7931 737.7879 572.3522 735.6009 573.3529 734.799 573.3691 732.9783 573.0015 730.8591 572.9789 729.3344 573.326 727.9592 573.9788 727.2966 574.5233 726.0431 575.9248 721.1572 580.0855 719.6551 581.714 717.9945 583.2595 716.9111 584.7341 716.3415 585.2612 714.1609 586.8326 712.0706 588.6598 711.368 589.4224 710.8701 590.3429 710.2314 591.162 708.6631 592.4407 707.5246 593.3687 706.6021 594.4521 706.2357 595.0838 704.6989 596.7008 702.8236 598.3692 701.8525 599.9186 699.0195 603.0391 697.3082 605.4408 694.8601 610.5406 694.7294 610.5429 693.5825 612.624 692.9925 613.6945 692.3 614.6744 691.5662 615.4374 691.2165 615.7339 690.5312 616.0605 687.8449 616.2533 685.8019 616.7703 684.4819 617.2798 682.7619 618.2903 682.3253 618.6819 681.6572 619.3712 680.796 621.12 679.0181 623.1482 678.1376 624.2557 677.5904 625.1452 677.1187 626.0201 677.0127 626.3925 677.1377 627.5801 677.0078 628.5824 676.7537 629.1481 675.9716 629.9029 675.2191 630.2586 674.8067 630.2922 671.3779 629.3303 670.0246 629.4215 668.0379 630.251 665.9987 630.474 665.0798 631.0036 664.0266 632.1159 661.0338 633.3444 659.6873 634.2946 656.9553 636.5747 655.7374 637.3445 653.9951 638.6759 652.6992 639.8453 651.783 640.409 650.0452 641.0627 647.3638 641.3736 646.488 641.475 645.7923 641.3927 644.8745 641.0756 643.6039 639.7971 643.1178 639.1049 642.7136 638.1805 641.7567 634.889 641.351 633.0344 640.5794 630.3428 639.4322 628.7808 638.5161 627.9383 637.9413 627.4096 636.4173 626.2234 635.0988 625.4928 633.0556 625.0626 631.2658 625.3542 629.1166 626.7148 628.1114 627.6006 626.3312 630.164 625.2013 631.5341 622.5926 634.1898 620.6863 635.7133 618.6815 637.0561 616.7924 637.8978 615.3365 639.2135 612.5376 642.6604 612.1695 644.6 612.1158 647.7206 611.2727 653.5359 611.2895 657.8161 610.9132 659.1512 610.3794 659.8836 607.5095 659.6612 606.9402 659.4169 605.6981 658.562 604.1582 658.0629 603.2102 657.9509 602.1849 658.134 600.8028 658.5612 596.6979 657.7524 594.2713 657.7428 591.6452 658.1107 590.1267 658.6625 589.143 659.355 588.06 660.5516 587.5852 661.2381 586.7931 662.7447 586.7017 664.7501 586.7748 665.3839 586.9544 666.1712 587.6323 667.8001 587.8613 669.2369 587.8163 669.7675 587.6226 670.1335 587.2153 670.7031 586.0429 671.5057 584.0388 671.9193 582.6473 672.3197 581.6596 672.6038 581.433 672.7691 581.1747 672.9575 580.6254 673.7336 580.0026 675.1954 579.5688 677.5218 579.3352 678.1125 578.5125 679.1469 576.961 679.9153 576.4219 680.3596 575.8689 681.2603 575.8586 681.3697 575.7846 682.156 576.1744 683.5544 578.0399 689.1114 578.2547 690.6761 578.0827 691.4286 578.0444 693.347 578.1056 694.3334 578.5846 696.7559 578.4608 699.2236 578.3027 700.241 578.0135 701.284 577.6826 701.9404 577.6826 701.9406 576.7394 703.2809 575.1774 704.7003 574.4128 705.2163 572.4131 706.1082 571.3062 706.1925 570.5352 706.0796 569.5561 705.7997 568.1591 705.0646 567.2368 704.8323 566.3355 704.8173 565.8115 704.9919 565.4953 705.2854 565.2204 705.9652 565.1779 707.3682 565.3463 709.2043 565.6806 710.7244 566.1982 711.7831 567.268 713.5858 567.838 714.2328 569.1737 715.3374 570.4509 716.2367 573.0504 718.7241 574.1182 720.212 574.6937 721.3424 574.7157 723.4459 574.5566 724.4149 574.1803 725.0147 573.2888 725.815 572.9044 726.5839 572.6334 727.4513 572.4255 728.654 572.4815 729.4016 572.6223 729.7171 571.862 731.651 571.5172 733.5499 571.5658 733.87 571.7358 734.9888 572.099 735.7304 573.0283 736.7475 573.8363 737.4494 576.2594 740.2175 576.4273 741.0878 575.9947 742.4473 575.7199 742.9615 575.223 743.3796 574.5547 743.6709 573.8905 743.7302 573.0722 743.6821 571.7239 743.2517 570.8928 742.9245 569.4296 741.9699 568.8589 741.4211 566.9995 739.1156 565.4666 738.1505 564.4382 737.9558 563.4359 738.0658 562.9997 738.2406 562.222 738.7806 561.0049 740.3794 559.8167 742.4196 559.5544 746.1832 559.7042 746.9323 559.0953 749.0373 557.7377 751.1476 557.1882 751.7681 554.2083 753.9766 551.5168 755.6691 550.8392 755.7745 549.7636 755.6121 547.853 754.6919 547.5373 754.4931 546.4751 753.2995 544.376 751.5454 544.1777 751.0902 544.1075 750.6365 544.4115 749.1975 545.8215 747.4188 546.0697 746.9356 547.1547 745.7265 547.8272 745.2757 549.2106 743.5862 549.3884 743.3266 549.6583 742.309 549.2412 740.362 548.0953 738.5369 546.977 736.3513 545.8658 733.3987 544.2735 730.7741 543.0069 728.3307 542.3166 727.6706 541.3706 726.9822 539.5571 726.3361 538.0902 726.5433 537.7966 726.776 536.4953 727.1062 535.3493 727.2469 534.6751 727.1882 534.3139 727.0669 533.9758 726.7897 533.8089 726.4656 533.6597 724.948 533.4649 724.1033 532.8322 722.5368 532.0119 720.9959 531.3276 720.01 529.9458 718.7154 529.0406 718.3116 527.0669 718.2063 525.2476 718.6316 523.6181 719.3454 523.097 720.0264 522.5794 721.191 521.8339 724.6062 521.1876 726.1828 520.7415 726.8873 519.3954 727.9371 517.5056 729.2084 515.538 730.1414 513.7226 731.3875 513.2561 731.9228 512.9599 732.6014 512.6507 734.1516 511.9071 735.6701 511.5933 736.311 510.0107 738.7638 509.6803 740.0234 509.745 741.2561 509.5422 741.9103 507.8105 744.7027 506.3411 747.3964 505.2375 748.4675 503.6676 750.2911 503.4137 751.8402 503.2943 753.8237 503.8876 755.3671 504.099 756.1847 504.3081 756.9929 504.46 758.2794 504.0301 761.5768 503.4342 764.2195 502.9119 765.0691 500.3107 768.0711 499.4983 768.6068 496.9465 769.8461 494.7459 770.4006 493.2267 771.9687 491.3481 773.434 490.3725 774.4021 489.8533 775.133 489.0543 777.1909 489.0729 778.9744 489.2824 780.4411 490.0126 781.7399 491.8049 782.7953 492.8665 783.6526 493.3708 784.2896 493.9959 785.5636 494.4524 788.283 495.1367 789.1977 495.4054 789.994 495.7422 792.7966 496.129 794.3899 496.5353 796.1041 496.4644 796.9024 496.0579 798.4279 495.1115 801.2864 494.9889 802.9793 495.6038 804.8372 495.9141 806.2618 496.0185 808.0019 497.2612 810.5813 497.7042 812.0534 498.1901 814.3713 498.4974 815.2154 498.6162 816.1092 498.6257 817.7289 498.055 820.3434 497.6647 821.482 496.7825 822.551 495.5032 823.6224 494.5499 824.0844 492.4067 824.4298 489.7987 824.4532 489.1939 824.5289 484.6857 822.837 483.4567 822.7709 481.6426 822.9253 479.869 823.6112 479.3416 824.0248 476.9284 826.7188 476.144 827.5941 475.732 828.4663 475.6594 829.1194 475.7865 832.1165 475.3564 837.3886 474.9648 838.6476 474.496 839.5926 474.0108 841.0936 473.8085 842.4241 473.9931 845.6382 473.7837 847.5915 473.3869 848.9509 472.5831 850.7725 472.236 852.4797 471.9748 854.4226 471.1945 856.8937 470.0881 858.9794 468.8927 860.1372 466.9441 861.0041 463.2512 861.5878 459.157 862.5253 457.6468 862.6344 454.7751 861.4379 449.1945 863.696 448.8833 863.7939 446.7901 864.4527 444.4042 865.0157 439.3106 866.6248 435.3158 868.3992 431.215 869.7463 431.1677 869.7619 429.1554 870.1324 427.336 870.248 426.6278 870.1549 425.2762 869.977 423.6257 869.5157 422.1449 868.9108 421.6137 868.5828 420.044 867.2897 419.0141 865.7634 418.3972 864.5807 417.6664 861.9903 417.0295 856.5725 416.2483 854.5892 415.8202 853.7659 415.1861 853.024 414.3008 852.4061 413.2338 851.7768 412.1663 851.3018 410.6576 850.6304 408.633 849.2012 406.9933 847.6435 405.3965 845.4879 405.3838 845.4707 403.4568 843.1277 400.7604 838.1932 399.5009 836.6966 398.8531 836.1591 396.1863 834.6585 395.1422 833.9042 394.1618 832.9525 393.0058 832.5501 391.3747 832.6156 386.8142 832.2732 383.83 832.6038 381.8814 832.3779 379.9272 831.5947 376.9222 829.7663 376.1382 829.2891 372.4785 826.0312 371.5786 824.893 371.0357 823.8516 370.2587 821.634 369.6994 819.4284 369.418 817.6486 369.2344 814.7318 369.3338 811.5407 368.7538 808.0826 368.0208 805.9299 366.8345 803.7762 365.8358 802.6502 365.3292 800.8723 365.4645 799.1318 365.7698 797.295 366.5493 794.0567 366.7018 793.1624 366.7987 791.6878 366.5393 788.9798 366.2954 788.2057 365.9667 787.5199 365.7503 787.0683 364.9976 786.0515 363.1699 784.9358 362.227 784.813 356.6591 786.3721 352.9855 788.006 350.0092 790.0056 348.156 791.4993 346.1351 792.1702 344.8711 792.0938 343.3819 791.5331 342.3825 791.3364 340.0207 791.1639 338.1449 791.4638 336.9802 791.8579 336.4535 792.2 336.4178 792.2377 336.0157 792.6614 335.4559 793.5426 334.985 794.4535 334.2427 796.3989 333.7885 797.0684 332.1995 799.4103 330.076 801.0593 326.31 802.9504 322.8094 803.8477 321.9216 804.3505 320.9858 805.201 319.9435 806.553 319.0509 808.2105 318.3248 811.5811 317.8164 812.7907 316.6596 814.843 315.9895 815.6698 315.1802 816.4419 312.5125 817.5236 311.0346 817.6319 309.5414 817.5797 305.9943 818.2025 303.9047 818.3462 302.2865 817.945 300.0171 816.583 298.2592 815.7481 296.917 815.4938 295.7716 815.6446 294.7241 816.0521 294.0673 816.7301 292.8252 816.8868 292.2783 817.1706 291.6049 817.9363 291.5775 817.9674 291.4188 818.72 287.9924 822.5331 287.5423 822.8357 286.5368 823.1649 285.0728 822.7708 283.9653 822.1237 283.2857 821.5171 282.1434 820.0762 281.8535 819.3511 281.671 818.4287 281.6001 816.8157 281.2628 814.903 280.2815 813.2343 277.9585 811.2391 274.867 809.2018 272.9453 808.0929 271.1296 807.3695 269.5362 806.947 264.3898 806.1024 262.8534 805.6238 259.0389 805.3672 257.7969 805.1679 255.9037 804.228 255.383 804.3077 253.829 803.8465 253.0605 803.1985 252.264 802.1911 250.3813 800.2797 249.0938 799.28 247.0237 798.0361 245.48 797.4274 243.9008 797.0917 241.561 797.2974 238.5416 798.0712 236.161 798.8744 234.7909 799.4726 233.6515 799.7265 233.7229 799.5036 225.9667 801.4874 223.8435 802.616 222.4891 804.0612 222.0689 804.7258 221.8417 805.3651 221.439 807.4786 221.3172 809.0979 220.7205 811.3147 220.1535 812.8237 219.4208 813.8444 218.8149 814.3575 218.3388 814.5625 217.6031 814.831 216.731 814.9817 215.9379 814.9398 213.7942 814.4406 212.6586 813.9799 209.1868 812.0473 208.9399 812.0354 208.4017 812.0097 207.4163 811.5759 206.7553 811.0689 206.5741 810.6824 206.037 810.324 202.7486 809.9893 200.5409 809.5571 198.1823 808.9272 197.6849 808.7332 196.8874 808.1581 196.3644 807.4434 195.7085 805.3568 195.4604 804.2762 194.9666 800.9574 194.3062 798.3541 193.6579 797.4158 192.9917 796.8789 191.5144 796.1374 190.054 795.6491 188.6292 795.43 187.1307 794.8965 184.8549 793.3124 184.3545 792.8589 183.6309 791.8693 183.4315 791.298 183.2856 790.63 183.2515 789.8206 182.9074 788.1058 182.6332 786.9293 182.1712 785.7415 181.552 784.7047 180.2589 783.392 178.8546 782.5499 177.6096 781.9973 174.9912 781.1933 171.8297 780.534 171.8195 780.5318 170.1369 780.1215 169.3268 780.1341 167.4911 779.6503 167.1906 779.4912 167.224 778.9162 164.3268 776.6919 162.5316 776.0487 160.9189 775.7329 157.7719 775.7558 154.6192 776.9657 152.6043 777.3609 149.3804 778.5454 145.3354 779.5703 143.9892 779.3505 143.7925 779.3527 141.7697 779.3761 140.2439 779.5162 135.9548 778.296 133.2358 777.2858 131.9633 776.4256 128.3258 774.7318 124.4219 773.3569 116.4464 771.7712 115.0899 771.345 113.7244 770.5676 112.0316 768.5931 111.4367 767.637 110.5528 765.474 110.51 765.2616 110.357 764.5022 110.0368 761.5661 109.9938 758.9284 110.4273 754.2702 110.4208 753.7874 110.4024 752.4288 110.3782 751.4993 110.017 749.3406 108.9751 747.4639 108.5075 746.9057 107.9665 745.9658 105.8948 742.0186 105.1964 741.1878 102.6036 737.5345 101.6774 736.6338 100.1709 734.0385 98.9238 730.9918 98.7341 726.8746 98.6043 725.811 98.2348 724.283 97.2765 721.7337 95.6337 719.1584 94.4802 717.9041 93.2631 716.5803 92.7281 716.1861 91.4457 715.2411 89.6418 714.2162 86.9568 713.1025 82.0161 712.0905 80.6459 712.0403 79.374 711.75 79.0704 711.9135 78.244 711.8977 75.5405 710.5696 74.7498 710.0413 74.3486 709.5733 74.0017 708.7685 73.575 706.5112 73.4495 705.2027 73.5676 703.9232 73.5374 702.5441 73.2317 701.8368 73.3887 700.4854 73.6034 700.0543 73.1335 698.1103 72.2105 696.3025 71.3697 695.1251 70.5313 694.3122 69.5025 693.6617 68.2524 693.2984 66.6567 693.3393 66.525 693.4045 65.5767 693.874 64.6838 694.4366 63.3799 695.8616 62.2151 697.8456 61.8142 698.2356 61.6793 698.3668 60.6266 699.2208 59.8649 699.5827 59.1712 699.9122 57.3248 700.2615 56.3681 700.2178 53.2688 698.4609 52.8585 698.3314 51.4875 698.3755 50.8037 698.7724 50.2084 699.4372 48.9706 701.2253 47.4639 702.4278 47.4058 702.4742 43.5833 703.354 41.8229 704.2773 40.6463 704.4642 38.3608 704.3621 37.7355 704.1312 36.063 703.5134 32.7807 699.8379 31.5058 698.8908 29.8489 698.2496 27.7681 698.1309 26.3539 697.5675 25.4542 696.6525 24.9582 695.8381 23.2441 693.0231 21.0477 689.6599 20.2275 688.577 18.8288 687.3602 17.7362 686.7306 15.4839 685.9533 14.2461 685.949 13.5487 686.1022 11.1986 688.0069 7.8529 692.8867 7.1458 693.5384 5.9812 694.0814 2.7843 694.9241 2.4938 695.4107 2.2042 695.5513 1 695.7674 1.2771 685.2278 1.3593 683.1661 1.644 668.3944 1.6838 666.3357 1.8448 662.201 1.8666 661.3617 1.8738 660.5849 1.9771 657.966 2.034 655.6126 2.255 647.4994 2.2978 646.4598 3.1166 626.5713 3.9168 605.8835 4.1436 597.7607 4.1442 597.7366 4.2431 595.1023 4.4278 588.7928 4.568 584.3933 4.5736 584.1516 4.561 584.0438 4.5424 583.8847 4.9687 569.2582 5.1924 562.7414 5.213 559.5098 5.2933 556.7889 5.6293 545.6378 5.6297 545.6223 5.953 531.3688 5.9622 531.0584 6.0299 527.9386 6.1125 525.1238 6.1176 524.4432 6.2374 521.9278 6.2606 521.4082 6.3698 517.4703 6.3759 517.4428 6.4422 515.6058 6.4722 515.0045 6.6609 510.2437 6.8113 505.9235 6.8321 505.7414 7.0294 499.6177 7.067 498.4457 7.1291 497.0982 7.6978 480.6624 7.805 478.3066 8.1253 471.2654 8.2761 467.7089 8.6683 457.1417 8.799 453.6195 8.986 448.8331 9.0001 448.3474 9.5732 435.9977 9.7198 433.0679 9.7215 433.0498 9.7843 431.68 10.0319 425.4767 10.764 406.4197 10.8406 404.5839 10.8408 404.5787 11.0474 394.2667 11.0478 394.2457 11.3128 380.0474 11.7109 367.7156 11.7456 367.0295 12.1897 358.2317 12.3518 351.888 12.6452 341.2087 13.0862 323.6436 13.1643 319.9102 13.2426 316.4092 13.3378 312.8918 13.3552 312.3887 13.425 309.7119 13.5018 305.8122 13.5681 303.5047 13.5682 303.5006 13.6226 300.0821 13.7066 294.467 13.9761 285.9848 14.5392 256.5363 14.5401 256.4902 14.8568 240.3751 14.8579 240.3304 14.9725 235.4507 15.4258 216.1733 15.6376 208.4097 15.6492 203.7877 15.8561 197.9553 15.8729 195.8863 15.8991 195.721 16.3528 176.7067 16.353 176.6993 16.444 172.255 16.4446 172.2219 16.4456 172.1749 16.9467 148.7973 17.1446 139.0451 17.1608 139.0288 17.1857 138.2326 17.2803 134.7539 17.2809 134.7337 17.3425 132.4605 17.5532 119.719 17.6072 116.7836 17.749 109.5958 17.7492 109.5855 17.7498 109.5622 18.0394 89.5381 18.0632 88.7165 18.1681 85.1006 18.1778 84.8724 18.3288 74.6665 18.4785 69.4601 Z"/>
</g>
</svg>