<?xml version="1.0"?>
<svg xmlns="http://www.w3.org/2000/svg" version="1.2" baseProfile="tiny" width="800" height="597" viewBox="0 0 800 597" stroke-linecap="round" stroke-linejoin="round">
<g id="cb_2018_us_state_5m">
<path d="M 119.2942 2.4825 120.2128 2.3081 121.3412 1.9626 122.3265 1.6182 123.7736 1 125.8209 1.3295 126.2715 1.5243 126.8361 1.9988 128.778 4.0923 130.5797 6.9783 130.0413 13.5124 135.5386 18.5865 136.2722 18.6174 139.2688 18.743 142.2492 19.0472 144.242 19.0826 147.0565 17.5721 149.0125 16.2971 150.7722 15.4713 155.2944 13.3465 160.0959 14.004 161.1013 15.081 166.1475 18.5507 167.0494 19.5765 167.7547 19.875 168.8473 20.6273 170.0482 21.085 170.5358 21.4052 174.3857 25.5144 179.8973 28.5755 181.6827 31.8583 181.7617 32.4961 182.18 35.8701 184.2135 38.2433 185.8569 42.9269 188.0455 45.7203 188.6853 49.6761 188.1012 52.3756 189.2811 56.3215 190.4723 58.6463 190.3613 61.0099 190.3203 61.8802 189.2627 64.4987 189.2407 66.5697 191.6364 70.6887 192.3341 73.6604 192.3475 74.8725 192.372 77.0741 192.1503 77.8732 191.0502 81.8351 190.7866 84.4758 191.731 87.7132 191.8629 87.814 194.1593 89.5685 196.5247 90.5527 198.6285 92.3569 200.147 93.3187 203.1162 94.5366 207.091 94.9225 208.6818 95.3599 209.1226 95.4811 212.1329 96.4872 212.3058 96.545 214.6434 97.5832 216.398 98.1341 217.6526 98.5277 218.89 99.041 219.3346 99.2518 221.3036 100.8114 222.7604 101.3576 225.4718 100.8587 226.3975 100.4009 227.317 99.9459 228.4309 99.7767 231.0649 100.7286 233.0581 103.6933 236.5779 104.4135 239.3014 104.4269 239.6962 104.3686 241.0219 103.9227 241.0298 103.919 245.6321 101.7515 247.4062 99.9163 251.5679 99.0547 252.6446 99.29 252.6503 99.287 252.967 99.3471 252.9671 99.3411 254.2995 99.5318 255.3354 99.2599 260.9278 95.7735 263.0441 95.0327 264.8667 94.956 266.8744 94.0406 267.1916 93.7663 268.7768 92.6968 269.5547 91.2239 269.9334 91.0381 271.5403 91.1716 272.8161 90.5035 274.154 89.8024 274.8848 88.7646 274.8079 87.563 278.1982 84.5045 283.6058 82.7253 290.9184 84.5811 293.5921 84.5105 297.3663 83.143 300.9472 83.2462 310.4243 80.3396 311.3286 80.5754 311.4528 80.6078 313.684 81.1599 317.1509 83.8812 319.2277 84.4622 320.9213 84.9356 323.0247 85.1078 325.8471 83.7245 329.2011 83.5009 331.6578 84.2144 334.0387 86.013 337.5109 87.2297 340.9147 88.2408 342.3786 91.2025 342.8535 94.0064 342.7132 95.7733 343.9298 97.1944 345.472 97.252 347.6267 97.0194 348.2141 96.4613 348.9385 96.769 349.3488 96.3947 349.8848 95.9056 350.3831 95.626 350.0969 94.9327 353.5048 91.5394 355.4907 90.9085 358.4575 91.1376 360.9781 90.8438 363.2858 91.526 363.8167 91.3903 366.2214 90.3802 367.0984 90.425 369.7994 92.5166 369.8072 92.5227 370.0302 92.6966 371.7576 92.3028 374.2271 89.7883 375.616 88.3721 382.0577 86.3611 388.2945 83.5867 391.6471 82.2943 393.6223 80.3244 395.0989 79.3462 396.8861 78.1615 401.1015 78.0645 404.1532 79.1929 407.7677 83.1178 409.3202 84.4667 411.5851 85.2349 419.1355 84.5568 426.344 82.9077 430.2292 81.6385 430.8544 81.4843 437.7255 80.805 441.5772 75.8224 444.3676 74.2626 451.2049 72.5657 457.8118 68.8314 457.9695 68.7503 461.2006 67.0872 466.7967 66.521 469.7975 65.587 470.5522 65.4116 470.5653 65.4085 476.8398 63.7541 479.6982 63.9942 489.578 62.3302 493.9577 55.5555 496.1249 53.6072 498.8926 52.7626 503.4278 55.0263 506.9632 55.2952 510.5456 53.7224 512.2805 53.574 518.7721 53.0152 522.7635 51.3573 529.0147 50.3268 532.0431 51.2688 534.9523 51.8882 537.4495 51.8814 541.5953 51.0828 544.7236 49.6626 547.7254 47.4308 550.9934 45.9061 552.7375 44.4749 554.7258 41.6069 554.732 41.5979 559.1241 41.4105 584.3407 40.8064 586.1744 40.7602 588.0302 40.7104 588.1841 40.7101 591.1462 40.6494 593.7202 40.5958 594.1222 40.5997 594.7269 40.577 597.8163 40.4903 601.6553 40.4226 604.1702 40.3557 610.5811 40.1916 613.0152 40.128 614.0269 40.0938 619.0824 39.9772 622.092 39.8464 624.6929 39.8202 625.0602 39.8069 626.5867 39.7685 627.3182 39.7469 635.2528 39.474 636.691 39.4887 637.1525 39.4744 649.5196 39.0207 649.5233 39.0206 651.3655 38.9705 676.23 38.2519 687.1825 37.9931 687.2075 37.9925 696.6172 37.7208 698.9853 37.6925 699.0014 37.692 699.4391 37.6773 699.4592 37.6713 702.8227 37.4401 707.5294 37.2617 711.0629 37.4326 712.605 37.0523 724.173 36.6249 724.3833 36.6212 724.5667 36.6135 738.2049 36.1493 740.0012 36.1628 746.2557 35.872 750.5818 35.7765 752.948 35.7892 753.4276 36.6645 755.2877 38.5833 755.9723 40.7293 757.1259 42.5546 757.8425 45.4483 758.1847 46.3766 758.8938 47.6818 759.1573 48.0982 760.5472 49.6746 761.8831 50.4229 762.9555 51.1278 763.4606 51.5718 765.3197 54.1182 765.488 54.4322 765.9421 55.279 766.2052 56.0373 766.2581 56.5955 766.1465 57.0785 766.1545 57.5294 766.2353 57.7385 766.8207 58.6154 768.7275 59.7401 769.0768 59.7807 769.5022 59.6374 769.9057 59.4147 770.4388 58.9954 770.8721 58.5519 771.265 58.2962 773.2496 58.1203 773.6083 58.1732 773.9393 58.3161 774.9625 58.856 775.0524 58.9507 776.1228 60.8062 776.868 62.5272 778.3663 64.0551 778.9282 64.3016 780.2045 64.2678 780.8374 64.0359 781.1883 63.6921 781.5419 63.4905 784.1589 63.9099 785.3308 64.1946 786.9026 65.6372 788.7142 67.2512 789.2927 67.4712 789.7256 67.54 789.9724 67.7711 790.9777 69.6099 791.1408 70.0237 791.0542 72.692 791.3383 75.2008 791.4689 75.8729 792.2257 77.2515 792.667 77.7587 793.8377 78.7239 795.6534 80.6406 796.3315 81.4224 796.9208 82.7528 797.4674 83.9191 797.9525 84.7757 798.2783 85.3501 798.7437 85.688 798.9197 85.9829 799 87.7732 797.4152 91.2883 797.3227 91.4158 796.6368 91.7966 795.4913 92.9432 793.6212 95.7968 792.6312 98.818 791.9022 100.3567 791.4624 100.9041 791.0787 102.4798 790.6896 104.9724 790.6974 105.1255 791.1169 106.109 791.2003 107.4674 790.5451 107.7367 790.3362 107.8911 789.2348 109.0009 788.735 109.5138 788.1195 110.381 787.8195 112.544 787.4344 114.5762 785.4473 116.6827 784.785 118.1191 782.4642 123.332 780.678 127.4999 780.6437 128.4911 780.9526 130.7288 781.0557 131.9779 781.0394 132.7731 780.9151 133.7224 780.8192 133.9315 780.3218 134.5278 779.7587 134.9499 779.7419 134.9749 779.3641 135.5371 778.9737 136.8063 778.3414 138.8962 777.9184 141.7176 777.8967 142.025 778.0794 143.3811 778.0125 143.9835 776.8 148.391 776.8587 149.5722 776.5386 152.1469 776.4713 152.4662 776.3295 152.7706 774.2269 156.4533 772.3204 157.7071 771.6417 159.084 771.5545 159.3897 771.5217 160.1472 771.632 161.5034 771.6465 161.6813 770.432 164.0437 769.4012 165.4187 767.8745 167.2577 767.4063 167.6275 766.3457 168.285 765.7543 169.4585 765.7508 169.5793 765.9848 170.0182 766.1073 170.4485 766.2131 172.3592 766.0793 172.5802 765.1427 174.7736 765.0264 175.5433 765.82 178.1186 765.8963 178.3536 766.3549 179.2425 767.4728 180.6941 767.8835 181.7279 767.8759 181.9538 767.7494 182.2905 767.313 183.0525 767.0139 184.2643 766.6908 185.6143 766.332 187.2494 766.1834 188.077 765.7774 189.0353 765.0329 190.4731 763.3303 192.2527 762.159 193.6775 761.7356 194.6345 761.3153 195.5841 760.0063 198.4609 759.3018 199.3205 759.0314 199.8296 758.815 200.6675 758.8178 200.9434 758.9005 201.2572 759.1469 201.7293 759.1636 201.8804 759.073 202.2571 758.8104 202.7244 758.6115 202.8713 757.4502 203.5996 755.7286 204.0626 755.336 204.2595 755.1486 204.4472 754.6983 205.1021 753.8827 205.9111 753.3648 206.3755 752.7076 206.7909 752.0118 206.8709 751.2487 206.7916 748.9099 208.0892 748.3469 208.5332 746.6903 211.089 746.9012 211.8356 746.8601 213.9097 746.6803 214.3358 745.8775 214.7992 745.2525 215.9775 745.1448 216.7359 745.1389 217.0885 744.2078 219.2477 743.7774 219.8279 743.7309 220.8447 743.9414 221.5774 743.6903 223.1509 742.7906 225.0636 742.1648 225.3976 741.8936 226.064 741.6602 226.8304 741.3184 229.7214 741.4276 231.0948 741.3181 231.4143 740.5754 232.3171 740.1863 232.6433 739.7627 232.8773 739.431 233.2815 739.2378 233.8738 739.2823 234.1794 739.8019 234.8348 739.7492 236.4366 739.3064 237.766 739.0214 238.3782 738.2136 239.3281 737.6198 239.5925 736.2096 239.7165 735.8578 240.2418 735.4626 241.0693 735.2992 241.559 735.3467 241.9852 735.2526 242.4738 735.0932 242.9481 734.5573 244.0548 733.7397 244.9674 733.5241 245.018 733.0065 244.9288 732.261 245.2944 732.1735 245.4896 732.1063 245.9005 732.1358 246.1983 732.2839 246.653 732.5899 247.1563 733.099 248.6679 733.2711 249.3917 733.3959 250.1755 733.4729 253.0526 733.1943 253.961 732.5627 255.7723 732.4256 256.0742 731.6867 256.9209 730.9334 257.3825 730.9304 258.152 731.8062 260.4791 732.5462 261.26 733.6761 262.2916 734.3127 262.6048 734.6838 262.9341 735.676 263.9695 735.7991 264.1085 736.4836 265.4295 736.4856 265.6472 736.3488 266.3963 736.2899 266.5355 735.2845 268.7313 735.0772 268.9104 734.136 269.3183 733.9849 269.446 733.8877 269.5958 733.7022 270.4006 733.7015 270.4037 733.4807 270.7467 733.4693 270.9383 734.081 272.1858 736.0199 274.1108 736.531 274.485 738.8471 276.0547 740.1647 276.1927 741.5075 276.0295 741.9812 275.8566 742.4076 275.3414 742.487 275.1635 742.5271 274.7741 742.6733 274.4355 743.598 273.2738 743.8875 273.0738 744.5082 272.8097 744.8963 272.7799 745.2426 272.8787 745.4431 273.0276 745.8282 273.462 746.2455 274.0729 746.3527 274.2885 746.6672 275.5272 746.8205 275.8074 747.9697 276.9105 749.0958 277.6729 749.9184 278.5713 750.2368 279.4369 750.5907 279.6697 750.8854 279.6909 751.1754 279.5524 751.3145 279.234 751.5684 277.7363 752.1784 277.1535 752.5606 276.8843 752.9835 276.8319 753.2106 276.8739 753.7229 277.1886 754.0533 277.2669 755.6231 277.1987 757.0156 277.1249 758.1128 277.4398 758.3633 277.8241 758.5459 278.41 758.4096 279.7613 758.5433 282.2284 758.8091 283.7021 759.2612 284.0513 759.4378 284.1063 761.2224 284.422 761.4503 284.3548 761.9037 284.0539 762.4045 283.9967 763.4112 284.2854 765.7205 285.8487 765.9983 286.1973 766.4621 286.9472 766.6966 288.4656 766.6872 288.7527 766.5509 289.2861 766.4429 289.5254 763.693 295.6072 763.645 295.9009 763.1566 296.9288 762.7674 297.3736 762.2616 297.7941 760.9042 298.1745 759.9015 298.3304 759.2207 298.7252 758.9323 299.1425 759.4556 303.4955 759.5636 304.0757 759.635 304.1629 761.2793 304.902 762.5985 305.843 763.2327 306.6801 763.5258 307.4359 763.5655 307.7871 763.4054 309.2632 762.8283 310.5414 763.5604 311.8839 763.424 312.8541 761.2878 313.1792 760.4424 313.9688 759.7597 314.491 760.3939 315.336 761.0117 315.1887 761.455 315.4584 761.4109 315.8117 761.2945 316.4551 761.3133 317.3555 761.0013 318.601 760.6501 319.2425 760.8121 319.8448 761.5954 320.3818 761.642 321.6802 761.0995 322.2686 759.7476 322.5891 760.0279 323.88 760.1449 324.4986 760.22 325.2884 759.9516 327.4288 759.755 328.9958 759.703 329.154 759.0631 329.6529 758.8854 329.721 758.2863 329.608 758.122 329.6479 756.9744 330.0252 755.9716 330.5253 755.837 331.1617 756.1746 331.4623 757.0566 331.7491 757.3759 332.2204 757.2699 332.7656 756.9038 333.1021 756.3364 332.9416 755.6723 332.972 755.2488 333.3044 754.973 334.5636 755.9341 335.3794 756.1361 336.1502 756.1059 336.2534 755.7246 337.5567 756.1668 347.7756 756.154 347.9183 756.2737 350.4102 756.3153 351.5985 756.4777 354.7928 756.487 355.0957 756.5093 355.8237 756.5814 357.358 756.7724 361.867 756.793 362.8019 756.8064 363.3325 756.8331 363.8031 756.8893 364.7593 756.9445 365.9657 756.9474 366.1802 756.9667 366.7762 756.9777 367.1072 757.0817 369.1674 757.0913 369.3254 760.3779 445.4283 760.3763 445.4631 761.7004 475.4135 761.697 475.4519 761.6951 475.4733 762.7302 500.5637 764.1813 534.4903 764.3488 537.4308 765.4522 563.7065 765.6043 568.2729 765.7451 570.4205 766.4175 586.6367 764.913 586.7022 763.4302 586.7665 762.078 586.8049 748.8611 587.317 746.843 587.4686 727.8092 588.3158 723.7706 588.4216 705.2872 589.2787 705.0595 589.3373 679.725 590.188 646.5863 591.4126 646.5678 591.4133 615.4782 592.4838 605.1582 592.9568 595.4741 593.4782 587.3313 593.5406 587.1921 593.5466 585.3096 593.6267 564.2614 593.8739 543.0272 594.3496 540.6071 594.2481 538.6449 594.3318 531.1487 594.4031 527.4657 594.4357 527.46 594.4358 518.8072 594.413 489.9967 594.6626 483.3997 594.5597 477.3722 594.6547 474.9709 594.6498 473.5182 594.6635 463.2327 594.9414 461.9752 595.1221 461.9758 595.1629 461.7815 595.0818 443.2821 595.2769 432.5355 595.5384 428.4786 595.5452 428.2187 595.5448 410.5351 595.4993 395.56 595.6048 390.943 595.5205 390.7665 595.5205 378.6375 595.4315 371.7495 595.4683 371.704 595.4683 355.7894 595.4667 349.6684 595.2499 346.4752 595.0447 334.0217 594.8157 333.6652 594.7419 327.6309 594.688 325.1288 594.7987 324.9904 594.8164 324.4999 594.8532 322.4778 594.772 320.8541 594.7096 314.8204 594.653 314.3457 594.6403 313.5331 594.62 306.0831 594.43 299.8726 594.2658 290.1936 593.9159 288.7788 593.8656 287.1513 593.8194 286.8282 593.8084 272.6401 593.299 256.9044 592.9273 246.4997 592.4992 241.0246 592.1701 240.8957 592.1739 240.5099 592.1318 240.4187 592.1301 230.1952 591.9709 227.2872 591.8576 227.2639 591.8565 218.2103 591.4275 216.1811 591.4889 205.6155 591.296 191.9211 591.4697 183.9098 591.3672 174.9858 591.1482 167.1933 591.0525 165.3669 591.0909 160.4907 590.8891 149.8768 590.589 147.7955 590.2658 145.9237 590.1412 139.5913 589.426 138.6702 589.5648 134.8254 589.803 130.8875 589.9001 130.852 589.9009 118.91 590.1661 115.4083 590.0276 109.9942 589.5175 103.4321 589.445 103.4251 589.4518 103.1079 589.4335 101.481 589.3274 100.7308 589.2784 97.9313 589.2899 90.5609 589.0812 87.2175 589.607 80.6316 589.1285 79.944 589.0783 73.6827 588.9637 71.1501 589.006 70.3866 588.9244 70.3281 588.9182 69.0866 588.7852 52.001 588.0982 43.2603 587.6357 43.1411 587.6276 41.8734 587.581 41.8019 587.5623 39.2167 587.4478 30.4881 586.8698 30.2646 585.8283 24.7444 580.1208 23.0188 579.9804 21.7982 579.1369 20.398 576.8492 17.8184 573.2751 16.3968 570.1723 16.3241 569.7462 16.9653 568.1499 16.971 567.437 16.6139 566.4552 16.0261 566.1797 15.6223 564.9781 15.5772 564.1335 15.9293 564.1304 16.2648 563.6373 16.3058 561.0894 15.6641 560.0159 15.1225 559.7295 14.9593 559.3204 14.8499 558.8667 14.9929 557.1569 14.8283 555.7711 14.2807 554.5938 11.6372 551.2457 11.6028 550.7518 11.95 549.8745 12.4 547.4778 12.0292 543.4143 10.2728 539.9781 10.5023 539.5562 10.7766 537.2238 11.0842 533.7373 11.1153 531.2294 10.9433 527.7843 10.3414 525.744 10.3512 525.0204 11.808 522.1809 11.8112 519.7348 12.063 517.982 14.6231 511.4491 15.6383 507.8156 15.758 506.6942 14.7892 503.5088 15.0673 500.6839 14.9456 499.4207 13.9263 495.1311 13.5791 494.6099 10.2307 492.4947 10.1678 492.2173 10.6155 491.2784 10.5536 490.5621 8.2487 484.5527 6.5057 483.2126 5.8147 483.2784 5.7334 483.6156 4.608 484.0954 4.2714 484.035 4.1509 483.7895 4.0995 481.4646 3.5012 476.445 2.4824 473.0312 1.7206 471.7827 1 469.3176 6.7645 458.9711 8.9144 454.3798 9.0634 453.9951 11.0107 448.9653 11.6404 447.7682 14.1699 438.0854 14.7313 434.5127 14.6253 431.9398 15.7317 430.4901 18.3408 422.5988 19.1481 419.0185 19.1971 417.2529 20.802 410.9406 20.284 408.1071 19.8279 406.8801 19.2031 406.4566 18.9852 405.9288 20.6293 403.23 22.1717 401.5078 24.1668 401.0857 25.3879 399.9515 25.3956 399.9444 28.2809 394.9596 31.383 388.4851 34.9058 379.5477 37.4383 372.0728 39.238 364.7249 41.1386 356.9544 40.99 356.0989 41.7404 353.9912 42.3187 351.7243 45.4189 337.6657 46.7099 330.1545 47.8187 323.6964 48.8467 317.2069 50.2096 306.545 51.7137 297.1403 51.503 294.1377 52.6423 287.8665 53.0509 284.2604 52.977 283.0992 53.5995 279.1893 53.9854 275.0089 53.9366 274.2999 53.4439 273.9859 53.3483 273.7168 53.3676 273.4978 53.492 272.0879 54.1969 269.7407 54.3301 268.8879 54.2125 268.2454 54.8158 266.8017 55.1975 265.8879 56.2574 260.6238 57.2786 254.4247 57.6544 250.8646 57.8732 245.8147 57.6917 244.5986 57.8558 242.6461 58.7393 238.5298 60.0826 227.9823 59.9262 227.2941 60.3672 226.006 60.4447 224.6209 61.2568 221.0163 61.1452 219.5631 60.2144 217.5709 61.0128 214.8903 61.6369 210.1577 61.074 206.6817 60.2309 205.4412 60.5246 201.7679 61.4328 197.2398 61.8075 196.6838 62.7034 196.3209 63.2928 194.7204 65.1989 187.7882 66.0552 184.0468 66.0507 182.8919 66.3072 181.0694 67.335 176.5466 68.7287 168.039 68.7563 167.8703 68.7402 167.5978 68.2388 167.7016 67.4539 167.3185 67.7484 165.2673 68.1772 163.6066 68.8158 162.5543 68.929 162.6285 70.4758 161.3377 72.1404 154.3082 73.1614 146.6577 72.7914 144.4946 74.1262 135.7955 74.2123 130.7199 73.481 127.9493 72.9337 127.656 70.1073 127.8221 70.1496 127.4199 72.8836 126.43 73.5353 125.4814 74.4573 121.1791 75.212 115.0646 74.9772 112.5254 74.2253 109.9559 74.0064 106.8812 74.583 106.3839 75.0124 106.4137 75.9561 104.1089 77.233 96.6438 77.1456 96.5487 76.3874 95.7232 76.9968 93.7512 78.6105 83.3103 78.8354 76.8529 78.5865 74.327 78.3428 73.4594 76.3142 70.098 74.9958 69.3828 75.1018 68.4945 76.3744 66.603 76.3887 66.5033 77.4495 59.0963 77.5247 54.5645 77.2741 49.3354 76.2679 46.1794 75.0207 44.9624 75.0015 43.9148 77.4028 40.8802 78.6347 40.1949 80.1349 40.0912 80.5615 39.8813 81.6625 35.4759 81.7105 31.0068 81.495 26.9024 80.3982 20.7261 79.4333 17.1639 78.1665 13.3715 76.2138 8.438 75.035 5.6969 73.7392 4.8515 75.0135 3.9431 75.9109 3.8292 76.275 4.1185 77.1019 5.28 78.5343 7.3344 80.6563 8.6038 82.7868 10.4108 84.1119 12.1418 84.8363 13.5716 86.0516 14.2425 89.4795 15.4033 90.6373 15.009 90.8158 13.7341 88.8051 11.9278 88.5209 11.1823 88.7633 10.9363 91.2001 10.6616 92.8067 10.9886 95.499 10.2665 96.5343 9.995 97.6408 9.3616 98.1329 8.9911 98.4987 8.3472 99.0544 8.0969 100.136 9.2702 101.0735 9.793 101.8051 10.4681 102.6835 11.5455 105.0444 11.5202 106.9242 10.4329 106.8849 8.4735 107.0485 8.0635 107.738 7.7015 108.2884 7.9882 109.8574 8.4767 110.9899 8.5181 112.2242 8.2682 113.9456 7.029 115.4669 6.5453 119.188 3.9768 119.2942 2.4825 Z"/>
</g>
</svg>