<?xml version="1.0"?>
<svg xmlns="http://www.w3.org/2000/svg" version="1.2" baseProfile="tiny" width="800" height="463" viewBox="0 0 800 463" stroke-linecap="round" stroke-linejoin="round">
<g id="cb_2018_us_state_5m">
<path d="M 13.4371 50.8146 24.7926 46.1118 28.2485 45.1422 33.2101 43.0374 33.3689 43.0665 34.5391 42.3805 36.4283 42.0273 39.0179 41.0371 43.227 38.9849 43.5124 38.8457 52.4901 33.9069 53.0215 33.6499 58.2194 31.1344 61.2331 29.1313 62.848 27.5754 65.3981 21.3228 66.1986 20.1952 67.9848 18.4438 71.8563 17.3151 73.327 17.6983 73.8478 18.1795 72.9396 19.0604 73.9712 20.5722 73.0965 21.2135 73.0479 21.2491 73.3636 21.904 73.9274 22.2418 75.3724 22.4944 80.776 19.4149 85.0872 16.955 92.9159 11.8131 93.9035 11.6914 96.985 10.1203 98.9967 8.6891 101.4433 7.6567 104.5618 6.9231 110.7894 3.3911 115.6956 1 115.6185 4.3225 115.5596 5.8121 115.3599 16.4825 115.3311 17.1886 115.3063 18.333 115.2845 20.2445 115.2222 22.3921 115.1083 25.8864 115.1134 28.0881 114.6956 46.0335 114.6423 49.4423 114.6782 49.668 126.8463 49.836 132.828 50.0201 132.8264 50.0084 134.7558 50.062 142.6877 50.2791 144.4138 50.338 148.0767 50.4294 153.2162 50.5557 182.9368 50.9775 192.4409 51.0112 208.0959 51.2782 218.5321 51.4764 227.1003 51.7345 232.9846 51.908 249.6711 51.9971 270.1105 51.8771 308.6233 52.2351 313.5519 52.3414 322.1759 52.2644 333.1058 52.1576 345.5938 52.3796 345.6224 52.3838 350.0882 52.5072 372.1786 52.5713 373.4109 52.5671 383.1384 52.5204 401.8144 52.3566 415.7932 52.2144 422.2983 52.2042 466.6013 52.0381 474.7443 51.7783 482.2239 51.6411 482.2372 51.6462 487.8167 51.511 487.8223 51.5108 490.9052 51.4262 491.6392 51.4008 492.9739 51.3871 493.668 51.3799 493.8146 51.3605 505.2537 51.2365 507.8166 51.2251 516.6525 51.1167 531.5453 51.0842 542.2219 51.0492 542.2878 51.0494 553.5804 51.0675 554.4469 51.0684 555.0323 51.0756 570.015 50.9263 570.8394 50.9239 597.2866 50.3434 599.197 50.2992 600.1984 50.2797 602.5814 50.2503 608.6861 50.1167 618.9603 49.8846 619.3382 49.8767 622.2527 49.8222 633.9584 49.5959 646.9471 49.4293 651.1007 49.373 668.6915 48.7434 676.3263 48.5243 685.5742 48.2522 685.6526 48.2474 686.4529 48.1993 691.9122 48.061 692.4796 48.0437 696.4454 47.9283 702.1331 47.7605 702.9554 48.1568 703.8898 48.4512 704.629 48.8887 705.1306 49.9654 705.1175 50.3816 704.5472 52.2095 704.5888 52.4654 704.9621 52.8296 705.4605 52.9 706.3324 53.2494 707.2919 54.3968 707.6091 54.5362 707.8937 55.7194 708.6293 56.4267 708.9636 56.6273 709.821 56.7456 710.1274 56.7073 710.1821 56.6123 710.1134 55.9116 710.2658 55.7167 710.5064 55.593 711.1556 55.5612 711.4715 55.9323 711.4558 56.9003 711.573 57.2658 711.7957 57.6453 713.1903 58.3188 713.4658 59.2664 713.6018 60.5057 713.6189 61.3086 713.7911 61.7786 714.587 63.2289 714.9005 63.994 714.8995 64.9074 714.257 65.7992 714.3044 66.5065 714.5077 67.5442 714.983 67.7779 715.6269 67.9159 715.9522 68.1446 716.3968 69.3309 716.2907 69.6972 715.8931 70.0341 715.5956 70.4956 715.6288 70.9712 715.7554 71.3074 716.0724 71.7317 716.4423 72.0166 717.3287 72.011 717.7432 71.7724 718.352 71.112 718.6461 71.0597 718.9733 71.305 719.5541 72.0299 719.9602 72.3969 720.7584 72.7286 721.024 72.7252 721.4895 72.1583 722.1407 70.8963 722.8296 70.5521 723.5931 70.4183 724.4228 70.5839 724.8928 70.8429 725.298 71.2303 725.4779 71.6937 725.6602 71.902 725.9198 72.1017 726.1532 72.1268 726.326 72.0165 726.5393 71.7076 726.7571 71.0753 726.9157 70.3059 727.2363 69.8585 727.5099 69.7983 728.0514 69.9709 728.2488 70.2017 728.4124 70.7802 728.3648 72.1805 728.7311 73.139 729.0176 73.5392 729.3785 73.8427 730.0591 74.0931 730.5409 74.0358 731.3902 73.5902 731.7359 73.429 732.2129 73.3531 733.4894 74.5596 733.9011 74.5904 735.1155 74.3882 735.5487 74.587 735.715 74.7714 735.869 75.2851 735.8844 76.0753 735.7102 77.1585 735.7074 77.7003 735.758 77.989 735.9753 78.5012 737.7803 79.242 738.6762 80.1075 739.2285 80.4135 739.7223 80.389 740.5026 79.7915 740.7355 79.7308 741.2243 79.7197 741.5313 79.9537 741.5981 80.2806 741.5629 80.924 741.2981 82.035 740.9879 82.7064 740.8092 82.8993 740.3942 83.0891 739.4634 82.9294 738.8616 83.1546 737.7611 84.7065 737.6534 84.9683 737.5159 85.7803 737.4744 86.354 737.4141 87.186 737.4637 87.4558 737.5846 87.7135 737.9315 88.0831 738.677 88.1955 739.0305 88.1854 740.7983 87.6189 741.2697 87.5478 741.5044 87.7201 741.724 88.0207 742.2809 88.2743 742.775 88.3687 743.3412 88.7188 744.3919 90.8599 744.5206 92.2599 744.3068 93.9841 744.526 95.418 745.1085 97.5662 745.097 97.8872 744.994 98.1313 744.7914 98.2407 743.584 98.0024 742.8553 98.0878 742.5998 98.5347 742.5861 98.8918 742.8097 99.3748 743.8405 100.3698 744.2768 101.0771 744.8562 102.3724 745.0919 103.4349 745.0994 103.88 744.9249 104.1596 744.129 104.9079 744.0651 105.2859 744.2014 105.7609 744.3636 105.8851 744.8048 106.0039 745.383 106.9988 745.5849 108.1135 745.5884 110.7111 745.7187 112.1592 745.7905 112.475 746.4609 113.958 746.4049 114.9773 746.2429 115.3015 746.0052 115.3831 745.8583 115.3527 745.3801 114.9777 745.1098 114.8968 744.2785 115.134 744.0885 115.3292 744.0786 115.5022 744.3274 116.0626 744.367 116.3318 743.9725 116.5531 743.2882 116.4842 742.7725 116.6158 742.3846 116.9148 742.399 117.3087 743.0795 118.0098 743.4625 118.4042 743.9292 119.2322 744.4436 119.9214 745.4212 120.4369 746.2656 121.2213 746.6995 122.6747 747.1857 123.6307 747.671 124.0895 748.1961 124.4244 748.7291 124.4891 748.9863 124.6779 750.2387 126.7474 750.5645 127.6896 750.6024 128.0936 750.4122 128.3714 749.7211 128.6233 749.4662 128.9289 749.4991 129.7729 749.5794 129.9646 749.744 130.1158 750.6099 130.2744 750.842 130.3947 751.58 130.8989 752.3718 131.6657 752.7347 132.2654 752.7945 132.5075 752.801 132.8046 752.5964 133.3644 752.467 133.9871 752.4793 134.3143 752.5592 134.5263 753.0388 134.6368 753.7993 134.3689 754.6388 134.3445 754.9112 134.4816 755.0911 134.7121 755.3913 135.7141 755.4352 136.1611 755.4075 136.5248 755.0768 137.8572 755.0492 138.4422 755.1414 138.8274 755.3815 139.3244 755.6141 139.4874 757.2103 139.8859 758.7794 140.0218 759.0259 139.9528 760.1224 139.2176 760.4357 138.7421 760.9493 138.6661 762.1949 138.844 762.9917 139.5357 763.3676 139.737 764.2835 139.7239 764.9326 139.9604 765.4002 140.5143 765.5673 141.285 765.5924 141.9092 765.7771 142.5335 766.1464 142.7593 767.3838 143.0083 767.7886 143.216 768.0347 143.5016 768.2187 143.9968 768.232 144.228 767.476 145.1783 767.3024 145.8886 767.366 146.2805 767.6565 146.4607 768.3628 146.5576 769.9599 146.1301 771.5557 145.4192 772.3746 145.3135 772.9711 145.5198 773.7423 146.0304 774.1659 146.4836 775.367 147.5123 775.6788 147.6507 776.2138 147.685 776.4922 147.6404 776.8302 147.4423 777.2225 146.5201 777.8562 145.8309 778.6304 145.359 779.2418 145.3622 779.5056 145.4872 780.1264 146.1848 780.2542 146.547 780.3125 147.1559 780.395 147.3995 780.9991 148.6924 781.2145 148.9202 781.6834 149.0856 782.4963 148.9249 783.3279 148.4094 783.9643 148.1628 784.3133 148.1726 785.2645 148.6098 785.9544 148.644 786.4652 148.3194 786.5112 148.2902 786.988 147.7635 787.8935 147.2551 788.2787 147.1471 788.6151 147.2285 788.8618 147.4738 789.0303 147.7847 789.1251 148.0774 789.1668 148.6365 788.6943 150.3133 788.3843 150.6927 788.322 151.3299 788.4411 151.8218 788.7904 152.5156 789.138 153.0053 789.4785 153.2491 789.9251 153.4696 791.2087 153.5984 791.8832 153.9529 792.2466 154.4379 792.7028 155.8078 792.9836 156.3731 793.7049 157.0318 794.8542 157.8286 795.3911 158.3678 795.6308 158.9849 795.6119 159.3963 795.4436 159.6213 794.7466 160.1857 794.9458 160.1634 794.1996 160.706 793.6867 160.816 793.1451 161.0706 791.5087 162.0905 790.2452 162.3872 789.535 162.3162 787.1652 162.4709 786.8047 162.6937 786.2478 163.5451 785.8759 165.1321 785.4619 165.6876 784.8274 166.3351 784.3877 166.4858 783.4862 166.5347 782.4803 166.7401 782.0785 166.9007 781.6975 167.2838 781.604 167.627 782.0959 168.4058 782.1633 168.8436 782.0933 169.0277 780.2132 170.436 779.547 171.3573 779.0649 171.7345 778.2462 172.1784 777.1858 173.4079 776.683 174.5195 776.1271 175.226 776.0832 175.3764 775.7925 176.3709 775.1425 177.8135 775.1265 178.0838 775.3471 178.7091 775.2514 179.2714 775.1199 179.5683 774.8559 179.9594 774.0937 180.1079 773.9164 180.1887 773.7684 180.3949 773.2032 181.7441 773.1774 182.4578 772.6534 183.4599 772.5151 184.2486 772.597 184.4085 773.4346 185.1975 773.65 185.5155 773.6171 185.7736 773.5236 186.0685 772.6472 187.6619 771.7989 189.5259 771.2755 190.9911 771.2643 191.528 770.8125 192.7417 769.8728 194.0738 768.5298 195.4523 768.3451 195.8738 768.2779 196.3211 767.843 197.3648 765.5283 200.5912 764.4796 201.4813 762.6237 202.3217 762.2823 202.829 762.3447 203.16 762.2718 203.3204 760.1129 205.0669 759.8453 205.1778 759.4368 205.1552 758.9527 205.2684 758.0295 205.8204 757.7261 206.2218 756.5343 209.1291 756.5396 209.6954 756.6513 209.7913 757.0252 209.8432 757.494 209.7699 757.9553 209.5186 758.744 208.7357 759.1763 208.4539 759.5251 208.3505 759.7958 208.4759 759.8512 208.6517 759.9023 208.8143 759.7151 209.8319 759.3785 210.293 757.8454 211.4431 756.9386 211.6258 756.203 211.9665 755.5731 212.4566 754.696 213.6346 754.0527 213.6598 753.8655 213.8887 753.5295 214.81 753.4663 215.3521 753.2964 215.8462 753.0475 216.3077 752.2033 217.5005 752.1239 217.87 752.2734 218.5356 752.2317 218.6994 751.5733 218.9703 751.0693 219.2849 750.2627 220.2093 749.8137 220.4908 746.2952 222.6957 745.6989 222.9823 744.8745 223.0607 743.7115 223.5085 743.6474 223.7346 742.9623 224.5519 742.2804 224.961 741.1533 225.4659 740.9635 225.8183 739.26 226.9575 738.7611 227.3638 738.3194 227.8916 738.1901 228.2897 738.2243 229.005 738.1593 229.429 738.0397 229.8616 737.7282 230.4668 737.7445 231.0159 737.9967 231.5174 738.3334 231.8119 738.6453 231.8563 739.5155 231.6181 739.8079 231.9288 739.8195 231.9412 739.9196 232.2601 739.8142 232.7094 739.8672 232.959 739.93 233.1339 740.0934 234.0787 740.2664 234.6732 741.1179 235.5296 741.9145 237.0216 742.0187 237.6253 743.1304 239.3186 743.442 239.7631 745.7025 241.5365 746.0401 242.2466 746.1733 242.7524 746.3348 243.9853 746.2557 244.7893 746.5518 245.4122 747.739 246.5419 749.4045 248.6498 749.7166 249.2574 749.8197 249.6418 749.7753 250.2487 749.2301 250.6899 748.0702 252.2065 748.2367 252.9045 747.8766 253.3833 747.2241 253.4397 746.847 253.1733 746.4155 253.0189 744.4816 253.2032 743.8389 253.6016 743.6573 254.0404 743.7164 254.9976 744.0093 255.3897 745.3279 256.6097 745.5709 257.0119 745.5751 257.6109 745.3911 258.0658 743.9848 259.8641 743.706 260.2187 743.4498 260.7134 743.3987 261.0906 743.4906 261.5349 743.4222 262.1126 742.4241 263.7078 742.0472 263.9337 742.0452 263.9349 741.3012 264.0561 740.4671 264.5499 740.1046 265.05 739.3887 266.5234 739.149 266.859 739.0019 266.928 738.3633 266.9763 736.961 266.8072 735.0021 266.2201 734.2036 266.2288 733.9271 266.368 733.6964 266.6654 733.4052 267.2504 733.2602 268.01 733.2001 268.8198 733.0003 269.2442 732.4708 269.7191 731.2993 270.3859 730.678 271.1593 730.6416 271.436 730.7304 271.9653 730.8721 272.2601 732.2173 273.6944 732.6415 274.3314 732.7509 274.7106 732.703 274.9995 732.2086 276.0841 731.8276 277.1739 731.4037 277.5634 731.3717 277.6095 731.1678 277.904 730.6298 279.4873 729.9964 281.9863 730.4368 283.0514 731.0036 283.7889 731.8767 284.1077 732.6987 283.9765 733.2398 284.0694 733.6537 284.3501 733.7713 284.7089 733.6946 285.2719 733.0138 286.4829 732.3199 286.8921 731.9336 287.2401 731.1775 288.4878 730.6951 289.5634 730.7054 289.98 731.4426 290.7595 731.9838 291.786 732.444 293.93 732.365 294.4959 732.1815 294.7775 731.2042 294.9191 730.8257 295.1058 730.6816 295.3201 730.7585 295.7778 731.1634 296.3292 731.4101 296.8451 732.0565 297.8867 732.3776 299.8599 732.415 300.0893 732.3453 300.7242 731.8456 301.6195 731.7953 302.0255 731.8344 302.2217 731.9592 302.6375 732.2009 302.9895 732.9923 303.8374 733.4921 304.191 734.5741 304.582 735.4919 304.7132 736.2742 304.6921 736.8709 304.46 738.338 303.0015 739.0708 302.5979 739.7713 302.494 742.4368 302.8646 743.3216 303.2936 744.7793 303.7622 745.4286 304.3548 747.8629 307.1728 749.2451 308.2207 749.4451 308.6886 749.5789 309.2329 749.8162 311.0916 749.7496 312.2893 749.7787 313.8662 749.9117 314.9464 750.3807 317.2666 750.4702 318.2211 750.4586 319.1148 750.1979 319.9491 749.7494 320.6763 749.7359 321.4404 749.8583 322.0878 749.4607 323.647 749.4674 323.8594 749.9349 325.0742 750.6334 327.7328 750.8886 329.6223 751.0099 329.8876 751.2762 330.4696 751.6626 330.8166 752.9908 331.1831 753.2804 331.4127 753.4679 331.5613 753.6559 331.8388 753.6716 331.862 754.377 332.3962 755.5276 332.883 756.0137 332.9443 757.039 332.6988 758.9156 332.0611 759.5448 331.6376 759.8528 331.5495 760.8843 331.8314 761.3698 332.3257 761.7517 332.5834 763.5737 333.3618 764.1465 333.7803 764.3651 334.149 765.8393 337.443 765.8843 337.5435 766.6303 339.5521 767.0452 340.8795 767.2291 342.666 767.4364 343.516 767.5541 343.6777 768.0189 344.316 768.9502 345.1658 769.8337 345.8015 771.1606 347.0154 772.4378 347.9611 773.1294 348.1717 774.0764 348.2298 774.7455 348.5848 775.3771 349.0488 776.2944 349.8626 778.0532 351.6723 778.5616 352.468 779.1729 353.5436 779.7613 354.8134 780.2715 356.1758 780.2731 356.1799 781.2286 358.1062 781.8674 359.5761 782.7151 360.3199 784.4415 361.1054 785.0622 361.6233 788.432 363.1423 790.4117 364.4933 791.798 365.5429 791.9342 365.6983 792.4558 366.902 793.3391 368.3933 793.3735 368.4514 793.9394 370.139 794.1343 370.6174 794.3218 370.8804 794.6491 371.1725 794.6899 371.2089 795.7457 371.5851 796.7125 372.162 797.198 372.702 798.8614 375.1413 798.9848 375.5323 799 376.3583 798.8992 376.9697 798.8867 377.0453 798.6725 377.5921 798.4956 377.8706 796.5111 379.7894 796.2006 379.9441 795.7905 379.9945 794.4983 379.9502 794.0119 380.0884 793.4751 380.3759 792.5876 381.0173 790.9083 382.5739 790.4999 382.678 790.0055 382.6772 788.3583 382.303 786.6599 381.6249 786.2638 381.5356 786.1756 381.5158 785.8059 381.5465 785.3581 381.7056 784.8813 382.2252 784.5601 382.8833 784.0085 384.4477 783.7401 385.8587 783.3603 386.4109 782.6386 387.0106 781.5988 387.5493 781.1566 387.8878 780.8792 388.2207 780.7651 388.4595 780.6609 388.6774 780.4646 389.385 780.3208 389.6055 779.9318 389.8883 777.701 390.5748 776.6754 391.1484 773.7981 392.2512 773.7897 392.2526 773.4017 392.3184 772.1728 392.1436 771.5574 392.2359 770.6235 392.6801 768.9786 393.6689 764.9544 396.3729 764.9015 396.4084 763.6724 397.5267 762.8791 398.5229 760.4873 401.152 760.0577 401.4893 759.4633 401.8319 757.5015 402.6034 756.2295 403.1034 755.2395 403.8396 755.1944 403.8731 754.6417 404.6813 753.6366 406.8696 753.5073 407.0344 751.9156 409.0623 749.663 410.1035 749.6093 410.1162 748.9662 410.269 747.087 411.0348 747.0084 411.0668 745.5086 411.9939 744.8842 412.4791 744.4731 412.7986 744.046 413.243 743.6017 414.0294 743.5417 414.3304 743.3387 415.3492 743.3551 417.7206 743.3947 417.97 743.5422 418.9008 743.8589 419.8634 743.8758 419.9148 744.2723 420.7289 744.6033 421.6531 744.2671 423.7479 743.9309 424.477 743.066 425.8957 743.0378 425.9419 742.7446 426.2744 742.3564 426.6688 742.3434 426.682 741.6218 426.9737 738.3454 427.1662 737.1777 427.2347 736.3171 427.4943 735.5103 428.1834 733.4892 430.2385 733.4281 430.2771 732.0543 431.1439 730.1492 432.009 729.0019 432.4052 725.2085 433.4433 722.151 433.6506 719.8985 433.4646 718.6779 433.5428 718.0323 433.5842 717.0442 433.7561 715.4975 434.3267 713.7872 435.4828 711.4453 437.7597 708.928 440.04 707.1461 441.4909 705.6118 442.5382 703.789 441.2752 700.1944 439.3735 699.3342 438.9917 698.9773 438.8333 698.8548 438.7789 698.8371 438.7727 696.363 437.8901 693.9176 437.1973 693.796 437.1762 691.2022 436.7265 688.3123 436.457 688.2247 436.4562 684.0189 436.4194 682.7272 436.5373 682.7144 436.5389 680.9019 436.7663 680.8269 436.7757 680.658 436.8114 680.54 436.8364 677.5898 437.4744 675.1991 438.2203 674.2673 438.5659 671.3591 439.9301 670.7722 440.2815 668.2049 441.8176 666.14 443.383 664.9469 444.477 664.0081 445.3377 663.6782 445.6884 663.0857 446.3183 662.6485 446.783 661.3789 448.3151 660.3189 449.759 659.1621 451.622 658.3275 453.2576 658.1976 453.5122 657.4455 455.2215 656.4723 458.1147 654.4274 458.1627 652.8802 458.1861 651.4296 458.2155 651.1744 458.222 625.3923 458.8508 623.4 458.8309 621.391 458.8882 608.1076 459.2004 606.4877 459.2374 593.0209 459.5372 592.9925 459.5378 592.1366 459.5535 572.7175 459.8932 572.6484 459.8943 570.577 459.9467 569.366 459.9598 567.3862 459.9809 567.3727 459.9991 564.1319 460.0455 557.2756 460.1409 553.795 460.1941 546.5887 460.3188 546.5712 460.3191 541.019 460.4035 528.8787 460.5791 526.8877 460.6068 526.3767 460.6135 516.5242 460.7898 516.5004 460.7902 513.8349 460.8579 513.4479 460.8445 503.5183 461.0054 502.2727 461.025 501.2413 461.0362 495.8485 461.0392 488.3487 461.2759 487.208 461.2816 480.5844 461.3128 479.0507 461.2906 478.9541 461.3096 457.1402 461.5027 457.1302 461.5028 453.9627 461.525 453.4791 461.5283 423.6382 461.6913 422.2964 461.6969 422.2785 461.697 413.4052 461.7047 413.2136 461.7111 394.6067 461.6482 394.2179 461.6466 393.9039 461.6348 387.0522 461.6374 385.8779 461.603 384.415 461.5848 380.9153 461.5605 378.0209 461.532 377.9371 461.5312 366.2453 461.409 338.7503 461.3494 338.4691 461.3511 335.2763 461.3383 320.9067 461.2702 320.6919 461.2506 315.7344 461.2329 315.352 461.2341 311.7815 461.1976 311.7716 461.1934 303.2485 461.135 302.3648 461.1708 302.0294 461.1525 301.8969 461.1588 301.6175 461.1526 301.5842 461.1525 296.3719 461.1254 288.3112 461.0792 285.1919 460.9877 274.6537 460.9762 273.4506 460.8985 269.378 460.9202 264.6303 460.8592 258.0139 460.771 248.9844 460.6449 237.2753 460.5406 220.6871 460.3733 220.301 460.3692 204.5035 460.1423 202.9901 460.1296 156.5869 459.6476 144.9562 459.4988 135.0387 459.3617 126.7873 459.129 126.4562 459.1059 105.3053 458.7404 99.1832 458.609 92.9976 458.473 92.9662 458.4723 84.2626 458.2352 62.2047 457.6062 39.3763 457.0063 30.08 456.7496 29.9687 456.7498 14.5184 456.3149 1 455.8679 1.3097 445.3033 1.4463 440.6488 1.9779 425.4309 2.1777 417.1709 2.208 416.7727 2.2943 413.638 2.3054 413.1449 2.3187 412.6412 2.3197 412.6009 2.3264 412.4291 2.6259 402.9094 2.9701 392.0321 2.9826 391.837 3.0747 388.651 3.4063 377.1897 3.484 374.843 3.4841 374.8382 4.3475 346.4719 4.4095 344.4374 4.694 339.7976 4.8629 334.2498 4.8676 334.1105 5.2517 322.8324 5.1356 320.8161 5.1551 320.1524 5.3692 312.8702 5.3688 312.8701 5.5976 305.3848 5.7654 299.8979 5.7611 299.8999 5.905 295.1916 5.9115 295.1907 6.0411 291.1673 6.8766 263.6072 6.9347 262.0054 7.187 253.3983 7.2003 253.2341 7.2074 253.0067 7.3544 248.302 7.3742 244.2922 7.375 244.2085 7.3757 244.13 7.3811 243.8284 7.3946 243.0702 7.5826 240.4881 7.9616 228.5811 8.0077 227.1331 8.1265 223.5529 8.3777 215.2651 8.4341 213.576 8.4349 213.4122 8.447 212.8468 8.4741 211.5788 8.5212 210.0376 8.573 208.2131 8.5892 207.3978 8.675 205.4955 8.7168 203.8616 8.7228 203.8617 8.723 203.8553 8.7231 203.8511 8.7478 202.3734 8.7481 202.3653 8.8224 200.1873 8.9611 195.5759 9.2146 188.7528 9.2625 186.9314 9.3358 184.5614 9.4535 181.6359 9.5171 178.7085 9.5203 178.1694 9.5207 178.1434 9.7551 171.4636 9.7483 170.2236 9.8475 166.4371 9.8475 166.4348 9.859 165.9948 9.8656 165.7817 9.8658 165.7765 9.8722 165.4392 9.8747 165.4389 9.878 165.3311 9.8737 165.2428 9.877 165.1359 10.0031 161.4935 10.0686 159.523 10.1028 158.2819 10.3422 151.5465 10.3465 151.5468 10.3885 150.1972 10.4527 148.1325 10.4776 147.1842 10.5805 143.2614 10.7228 138.5158 10.7816 136.5568 10.952 131.3784 10.9865 129.4875 11.5725 110.6386 11.7149 106.0638 11.7141 105.8013 11.8906 100.3716 12.0986 93.5699 12.1776 91.2133 12.2661 88.9426 12.7336 73.7862 13.1751 59.4954 13.2641 56.8344 13.4321 51.0597 13.4371 50.8146 Z"/>
</g>
</svg>