<?xml version="1.0"?>
<svg xmlns="http://www.w3.org/2000/svg" version="1.2" baseProfile="tiny" width="800" height="199" viewBox="0 0 800 199" stroke-linecap="round" stroke-linejoin="round">
<g id="cb_2018_us_state_5m">
<path d="M 764.9585 52.1711 765.4832 51.7979 767.3636 54.1285 769.5927 55.2395 773.0883 55.3246 773.0977 55.3353 774.6897 57.1435 776.4754 57.6038 778.8022 56.9183 784.8144 55.1465 788.8826 53.9472 799 60.4188 798.6444 63.6633 790.7533 67.9688 789.2509 68.8726 787.7076 69.8008 786.9531 70.1735 780.9867 73.12 780.9811 73.118 780.0717 72.7874 767.9273 68.3705 765.0451 64.5367 767.9837 59.7823 767.9883 59.7748 763.6243 53.1202 764.9585 52.1711 Z M 695.4861 124.4106 704.1062 123.24 714.2102 119.0174 720.6291 118.0365 727.0508 115.5773 736.0838 111.2381 747.0947 109.8578 755.3623 111.1763 766.2638 114.1273 772.3789 115.1615 773.7741 114.8825 775.6666 116.1325 777.8351 115.5814 779.8603 113.9419 783.6423 118.1408 783.3392 118.9131 781.2725 118.5975 777.5282 120.1678 769.6763 120.6478 768.3922 121.4225 765.0896 125.0462 764.055 125.3794 761.5716 125.2289 759.9539 125.1156 761.4641 121.6963 760.1071 121.1576 757.0309 121.3072 754.751 122.3315 754.3037 124.2216 754.5544 126.4655 752.0081 127.0952 751.0118 125.7471 748.9963 126.4207 747.1044 126.2628 747.0913 126.2659 743.5929 127.0917 741.1502 128.9219 740.4391 129.4546 740.0845 129.7203 739.3436 130.9646 731.9955 133.3678 730.3984 132.8565 727.7445 132.8897 727.7025 132.8161 727.1604 131.8646 726.8797 131.3718 723.6377 130.2425 715.578 131.7367 710.6173 134.7479 705.3689 135.0202 700.5002 133.6582 697.362 131.8327 696.9655 130.0708 695.1275 128.2569 695.4861 124.4106 Z M 689.6496 38.8547 691.9719 38.633 696.7422 41.9979 697.6559 42.6424 697.9674 49.4336 698.4748 52.6209 697.4835 54.3997 694.7248 51.7185 692.1019 44.0192 689.3465 41.9191 689.6496 38.8547 Z M 414.2501 193.3921 418.7942 189.2026 422.2875 189.5539 422.2853 193.7462 418.7898 196.8885 414.5962 198.2834 414.491 196.7965 414.2501 193.3921 Z M 198.8774 46.7424 201.1065 45.7618 207.4401 44.2089 211.0634 43.3202 213.9256 42.1493 218.2836 39.7494 218.4751 39.6272 221.5636 37.6569 230.6341 31.8684 230.7917 31.7678 231.6775 30.8236 232.0811 29.1515 231.6978 24.4663 230.2132 20.1662 228.1011 16.1754 228.1153 12.4264 229.5542 9.6804 229.8696 9.4005 235.8209 4.1177 237.1657 3.4153 237.2982 3.3723 240.8596 2.2158 247.362 1.3704 250.2093 1 254.4425 1.7882 271.7261 2.6681 280.8873 6.6764 280.9318 6.689 285.7394 8.0573 289.4979 9.1266 290.0266 9.3596 290.09 9.3467 293.8659 8.5788 296.2774 9.1341 304.8334 11.1031 304.9225 11.1236 306.5178 10.8201 309.8787 10.1805 316.4967 8.9205 321.686 8.9455 325.4141 9.9077 325.5036 9.895 328.7872 9.4319 336.4392 8.3517 342.0074 8.7846 346.5199 11.0529 351.0838 13.3464 353.2022 13.9743 355.5693 14.3566 362.3791 14.6295 362.3857 14.6273 365.1301 13.6947 367.0492 13.0425 370.3013 11.937 371.4289 10.8337 375.9749 9.9551 381.4027 9.6633 387.622 7.9959 398.7052 10.8655 399.4972 11.0705 405.0153 10.6936 405.0354 10.6671 405.6973 9.79 405.5311 9.1528 405.5596 9.156 406.9906 9.3162 413.9214 12.0195 414.3926 11.8694 415.4934 11.5188 420.7272 13.3844 432.8323 15.7925 432.8406 15.7926 436.8776 15.84 439.0173 15.2007 440.498 13.3363 441.1039 12.5734 441.1661 12.495 441.7205 10.7114 442.0568 10.6534 447.299 9.75 450.3978 9.3648 455.0169 9.4065 455.1022 9.4073 459.7331 9.896 460.0832 9.933 461.3917 10.031 468.181 10.4587 471.5596 10.6713 471.6732 10.6784 478.1942 14.0415 478.3251 14.0549 485.3006 14.7716 487.5129 14.8146 489.5848 12.9824 491.5767 12.3161 495.0302 13.356 495.5843 13.7565 495.696 13.8372 496.9265 14.7266 499.7844 15.8745 506.1288 16.7147 511.0367 16.6695 512.3457 16.5046 513.8138 16.3197 515.9217 15.5507 516.2806 16.0595 517.2855 17.4838 520.225 19.0077 523.4022 20.5842 525.7864 20.2582 525.7985 20.2565 528.9623 17.2193 530.2078 14.2462 532.7596 14.6543 534.0499 14.8606 534.087 14.8665 536.4851 15.4935 543.6491 16.4973 545.5974 17.541 545.7373 17.6159 546.2431 17.8869 546.4192 17.9651 548.9608 19.0935 557.9639 20.4494 559.0863 20.2043 559.9333 21.5077 559.9532 21.5383 563.8184 23.445 563.8459 23.4586 568.739 23.3022 571.473 21.5822 572.7115 19.2334 572.7452 19.078 572.7477 19.0665 572.791 18.8667 572.8814 18.4499 573.338 18.3268 582.8089 21.1047 592.4322 23.0797 595.0192 23.1537 597.6801 22.444 598.4878 21.1959 606.2074 25.0677 615.4171 26.6121 617.8699 27.0232 617.8942 27.0272 620.0529 28.57 620.9411 29.5884 624.4023 33.5563 627.5963 33.5048 631.6093 29.9283 632.4916 30.9162 632.6578 31.1023 633.8344 32.8336 636.5875 32.5054 636.6367 32.4995 637.9294 32.8074 638.1621 33.8776 637.5952 34.8669 639.856 37.2138 643.8444 41.3535 643.9253 41.4019 646.2831 42.8117 648.7983 42.2613 648.8142 42.2434 649.8425 41.0856 649.0578 39.0561 649.4843 38.2754 653.1691 39.2499 654.4225 43.9813 654.4415 44.0529 658.9281 46.5648 661.6297 46.9515 663.5227 46.4448 666.2322 47.8393 667.703 47.9766 668.9644 48.0943 672.1709 46.8893 673.39 44.6828 675.1309 42.9947 675.4057 42.8808 680.8111 40.6393 680.9034 40.6011 682.714 40.3844 683.9227 42.1984 682.3237 46.7268 678.2389 52.8771 678.9102 54.4558 680.2803 57.6775 681.2534 71.081 681.5402 75.0301 686.1503 79.2996 686.6679 79.7788 686.8605 79.9572 695.5132 83.012 691.3657 89.5606 688.4584 94.386 685.1833 95.0282 685.0951 94.8088 683.1387 89.9456 676.9599 89.4435 677.146 90.8817 677.1462 90.8838 677.1467 90.8875 679.8571 96.8368 677.8488 98.4437 669.8565 96.3904 669.3751 96.2667 661.5781 100.0501 660.4825 102.5193 661.5176 104.9907 660.0982 104.8955 659.9966 104.8417 658.6586 104.133 655.6756 102.5527 655.1923 101.8802 653.587 101.5681 650.5191 102.9969 648.7076 104.6163 647.4909 106.5676 647.4062 106.7571 646.094 109.6956 641.6712 111.984 639.2758 114.5186 636.1656 120.4562 630.5973 134.5291 630.7252 135.7369 631.1723 136.0947 631.1972 136.1146 631.102 137.6738 631.0969 137.6858 630.5986 138.8549 629.1195 142.3248 626.9646 142.8599 624.6283 140.841 624.6049 140.8577 622.0669 142.6706 621.0628 144.0536 621.0302 144.0984 620.534 144.7817 619.6101 148.3917 619.6218 148.5456 620.1752 155.8263 618.0711 155.7832 614.7481 156.7581 609.0472 158.4302 607.6443 159.5993 604.7733 164.0268 604.3804 163.9636 601.5582 163.5096 601.4914 163.4989 598.7886 165.4483 596.2864 166.5248 593.0893 167.9002 583.3665 169.5846 577.8699 170.5361 577.8533 170.5389 575.5191 170.0063 575.28 169.2521 572.3874 167.0546 568.7 166.5834 565.8866 166.8855 565.2319 167.2666 563.9226 168.0286 557.299 174.5429 556.5798 174.6345 556.5579 174.6228 554.016 173.2684 553.8781 173.1949 550.7999 171.0083 550.4176 171.0022 547.0585 170.9482 536.8455 176.3442 533.6681 177.0251 531.3125 178.7528 527.5306 181.0472 525.3356 182.458 524.3319 182.3253 521.7531 181.2028 519.5776 180.5112 517.1342 180.4488 516.1015 180.3597 514.1601 180.1923 513.0845 182.2698 510.7955 183.9909 509.4516 185.0014 506.6782 186.7218 505.0562 187.7279 499.5196 187.3184 496.3886 185.366 497.1758 181.4509 497.1768 181.4461 495.2689 180.1919 493.3224 177.8324 493.311 177.8185 489.9833 176.6713 485.5368 177.2209 483.5074 173.3121 483.4933 173.2987 477.8415 167.8984 475.8698 167.3269 471.6114 167.9603 471.5415 167.9708 464.4543 170.5146 463.6944 171.5648 462.6138 173.763 461.7885 175.6902 461.7872 175.6934 460.3022 177.1386 457.8297 179.5448 456.0166 177.4397 453.7483 175.8625 449.8731 173.8976 440.0736 167.0716 438.638 165.883 437.31 164.7835 435.4139 163.7051 431.0368 163.7054 430.2183 163.7055 430.167 163.7055 426.5834 163.7054 426.5645 163.7103 421.1403 165.1202 421.0744 165.1373 412.1415 168.2649 400.3337 172.3961 399.5915 172.6557 399.3046 172.2721 397.7723 170.2229 397.7058 170.134 396.3151 169.7323 393.1871 170.244 387.6807 166.52 385.2848 165.9932 381.2563 166.7562 377.6851 168.4985 376.1721 170.0251 375.7448 170.4562 373.2674 171.0113 365.5454 167.5654 362.3916 166.1575 361.3549 164.4092 360.3093 163.6101 356.1493 163.1971 351.7031 163.5935 350.2059 164.6819 349.0464 164.6314 348.7607 164.6189 348.1337 162.1641 348.1158 162.0941 347.6108 161.108 346.3524 158.6506 344.6436 158.7591 340.2951 161.8693 340.2955 161.9491 340.3111 164.9266 340.3235 167.2857 339.6466 168.9562 333.4638 171.1918 329.304 174.6227 324.5447 176.023 320.521 174.4464 320.37 174.3872 319.5919 174.0823 319.2921 173.9648 318.4098 174.6536 317.5046 175.3601 317.2087 177.6315 313.1633 176.6134 312.5833 175.4862 311.3645 175.189 306.6006 176.4826 305.4186 175.9188 305.1489 175.7901 303.7808 175.9812 303.7454 175.9862 302.8138 176.7356 300.8307 181.4324 300.8095 181.4825 299.4743 183.0663 298.4647 183.0783 294.2142 181.1861 290.1465 181.6079 288.855 178.929 286.4801 176.7486 282.8358 175.3791 282.6796 175.1139 282.2064 174.3107 282.3482 172.4292 281.553 171.0955 281.2142 170.5273 278.0483 170.2618 276.7089 171.5726 275.737 172.5237 272.7941 170.1508 269.9232 169.445 258.7737 168.4497 254.637 170.307 252.8316 172.6228 250.7125 175.3407 247.2861 176.8098 247.2087 176.8173 244.7823 177.0521 239.4172 176.3063 237.8107 175.1366 228.0398 171.6514 224.6525 171.1063 223.1977 171.7446 221.652 175.3577 222.0111 176.8226 223.4654 179.454 223.1722 181.4975 219.8452 180.961 219.6486 180.6856 219.2202 180.0856 217.2377 177.0292 214.953 174.8237 214.9357 174.7141 214.7871 173.7718 214.1406 171.789 213.8923 165.2919 214.874 162.3524 216.1377 160.8053 224.9066 157.4868 225.9653 156.7909 226.5288 155.6326 226.6131 153.62 226.1404 152.6523 220.4197 150.3724 215.5434 149.2427 219.4591 139.6668 219.027 136.4716 218.7223 132.0505 219.9104 130.5066 223.2583 128.1934 223.7751 126.7053 225.4821 113.571 224.8869 111.0131 224.2513 108.3113 224.2869 108.2723 231.8095 100.0182 232.5596 97.3978 231.0105 93.3056 226.6274 88.979 225.9558 83.763 225.9372 83.6187 222.3199 77.8379 222.3113 77.7752 221.7146 73.4041 221.6849 73.3552 219.9423 70.484 217.1146 69.4999 215.8697 69.0666 211.3437 68.5294 211.145 68.5058 208.4936 67.5014 204.7215 60.8951 199.1178 51.0773 199.0844 51.019 197.9644 48.1778 198.8774 46.7424 Z M 132.8801 39.66 136.0292 37.2398 138.8074 38.6493 140.8752 42.4935 138.0722 45.2647 133.5537 43.4962 132.8801 39.66 Z M 2.9359 124.4577 3.6142 123.8717 9.8837 121.9317 15.4872 123.7376 16.846 124.1798 19.9814 123.7159 21.9378 122.2814 24.369 121.2834 28.2402 125.5846 29.6882 129.7548 29.5436 132.7686 29.0434 133.7412 26.743 134.8795 23.0422 138.7907 21.3019 141.1371 15.0877 142.5435 14.1069 142.7654 11.6251 140.6482 7.4228 139.3823 4.7758 137.6749 1 134.2008 2.9359 124.4577 Z"/>
</g>
</svg>