<?xml version="1.0"?>
<svg xmlns="http://www.w3.org/2000/svg" version="1.2" baseProfile="tiny" width="800" height="1253" viewBox="0 0 800 1253" stroke-linecap="round" stroke-linejoin="round">
<g id="cb_2018_us_state_5m">
<path d="M 717.4144 493.2007 718.7609 493.607 722.1972 494.4352 722.2 494.3262 732.7955 496.8506 738.4774 498.4047 738.3873 502.5627 738.3896 503.1361 753.3355 506.6916 762.083 508.7713 770.7867 510.6071 782.2422 513.8431 782.7777 513.8407 784.7082 514.4054 784.9506 516.3512 783.1283 541.4228 783.1223 541.5146 782.9047 544.8246 781.928 559.6785 781.9157 559.8652 776.8225 566.3526 775.757 577.5643 776.4547 589.9925 776.8146 593.2926 780.1499 596.9206 786.5037 609.2828 786.8424 611.5895 796.8691 712.1174 799 747.5304 781.5237 752.6375 777.0114 758.3997 777.9708 764.2476 748.9303 785.0896 745.9816 795.7554 721.425 804.5174 719.327 802.9399 717.285 799.9671 717.5336 794.7477 724.5388 775.3389 724.3431 766.7234 714.397 756.0322 714.0524 750.6688 706.849 745.3856 712.7734 723.6348 698.896 678.602 704.0341 642.4406 704.81 599.9556 699.5335 586.4813 699.7467 574.6987 699.8883 572.4152 700.1647 567.959 695.6978 564.3911 682.9639 568.7888 669.4199 573.4639 667.2185 607.4209 666.471 618.945 674.5425 637.1844 674.1811 692.9764 676.2007 697.7207 683.5044 703.7758 681.9762 713.4626 677.7354 724.2112 670.0864 743.591 672.3295 763.2418 673.8463 763.6654 674.317 768.2185 670.1053 780.4144 663.6815 784.6103 664.4017 771.2148 657.1847 764.6432 644.1757 760.3827 622.8022 761.9471 621.7932 762.0208 611.6342 767.002 601.7746 809.8196 594.2664 815.1432 592.8674 814.2865 592.8302 809.7061 583.4874 808.2909 566.0107 817.9335 551.6047 815.2401 539.0633 801.5348 540.365 795.1497 555.8698 785.9447 567.775 788.1885 577.005 778.5062 576.5074 769.0467 560.1534 750.9761 562.1748 746.6951 566.7576 741.3312 573.3423 733.6227 573.1604 718.3332 584.0515 704.9058 592.158 694.908 594.8462 677.3419 602.181 658.6785 604.5254 654.7797 612.1012 642.1781 618.3999 639.5451 618.5152 639.4969 621.9682 633.9634 634.3867 591.1144 635.46 579.5689 633.5063 575.5222 632.4168 573.2654 636.0115 566.7432 653.571 549.9154 658.2129 545.4653 664.6404 544.7455 677.3286 543.3233 692.3064 524.007 700.2404 520.3455 707.4975 516.9954 717.4144 493.2007 Z M 534.8502 513.9507 557.6927 505.2675 564.2781 517.0423 567.0052 532.5498 571.0189 538.5221 577.5114 549.6108 589.878 557.6756 599.9144 568.9404 602.3292 591.7752 598.0417 604.1257 587.2725 625.3663 578.0346 631.9888 572.5627 629.514 567.4522 621.5257 566.2459 608.9265 569.7449 592.9034 574.228 588.2511 577.3668 578.1839 578.125 566.8935 570.1467 558.9579 555.9241 555.1279 550.8517 550.0403 538.4065 527.5967 534.8502 513.9507 Z M 498.4317 800.7991 503.3413 755.9544 513.4508 754.7112 521.5797 737.6701 508.5763 723.8855 507.339 709.7087 515.4832 663.4345 521.3102 647.6029 527.0917 639.7908 530.762 638.7104 537.8855 643.1458 541.8858 664.0006 538.3604 741.935 541.5145 768.926 519.4706 781.2381 516.6592 795.2624 510.5473 801.2608 509.4952 809.2364 499.5236 818.4944 498.4317 800.7991 Z M 269.6196 1231.8869 277.8163 1200.5588 289.2293 1191.6041 295.1112 1179.903 305.1746 1168.0394 308.3399 1153.8872 309.038 1139.9471 312.1422 1134.2115 325.8248 1140.2806 332.385 1150.8702 333.396 1156.4115 329.7335 1168.4742 322.5443 1181.6176 320.7757 1197.3852 325.9318 1209.1243 337.521 1222.6026 343.7585 1225.2921 344.377 1230.4403 340.9433 1241.3881 335.651 1244.2052 290.5794 1251.8927 283.7863 1251.0371 271.15 1241.9839 269.6196 1231.8869 Z M 3.4902 1001.908 26.7103 982.2191 36.901 967.1992 30.1079 953.7118 28.2341 939.9507 34.8616 929.4083 33.63 916.7416 32.9618 909.8681 23.6731 894.3011 22.2857 879.2843 23.2841 873.5175 26.429 870.2831 49.3223 859.6395 71.5707 863.8551 71.5816 863.5664 76.3872 736.2117 77.5241 706.0398 81.3031 605.622 81.3062 605.5391 83.0778 551.7245 83.3357 543.8877 84.0936 520.8442 84.0889 520.6644 81.5189 422.2841 81.5058 421.6184 80.2382 356.9931 80.0471 350.9376 78.5777 304.333 78.5648 301.9402 77.2356 256.8178 77.2399 255.4415 76.9326 243.8899 76.7324 236.3617 74.3768 147.676 73.6493 120.2468 72.5723 16.0618 107.9799 13.758 198.6733 11.1547 236.535 10.0414 277.6522 8.8146 298.818 8.1759 309.423 7.8541 328.0307 7.5131 360.3285 6.6237 361.9382 6.579 362.2578 6.4357 389.1527 3.6895 390.3781 3.5642 391.4432 3.4205 393.1971 3.388 435.9662 2.5864 471.9093 1.8974 517.6603 1 517.6737 49.3325 517.6809 75.69 517.7922 78.4137 517.6821 138.4829 517.5759 138.7698 517.5951 150.071 517.5955 150.2952 517.6464 180.2693 517.6477 181.0618 517.8297 181.0231 523.0884 179.9055 526.0765 179.3268 529.0641 179.0347 535.0383 178.0202 535.7851 177.8754 538.1323 177.5842 546.4534 176.2777 546.6457 176.2515 548.5871 175.9867 562.4911 173.6887 563.4539 173.5294 563.5227 173.5181 562.8975 180.4009 562.8981 180.6876 561.3341 197.6065 564.53 209.6791 564.9777 211.3702 568.6557 225.2596 568.1285 226.7811 559.9535 250.3673 560.3852 251.9434 567.4604 263.6838 564.9025 266.27 562.7715 268.7118 557.1221 274.4585 554.6798 281.4885 563.2709 301.6845 563.5937 302.6874 563.1719 305.2689 563.1785 308.2795 562.2495 311.7997 561.5885 314.3043 561.7013 317.0279 563.2039 319.892 566.9495 322.0342 568.9823 322.4598 570.8065 325.6097 573.9244 333.4876 573.8313 339.5092 575.4419 342.5147 586.1174 348.7166 586.2559 348.7971 587.7625 349.6447 622.0151 368.9045 646.6641 382.7516 684.4626 440.1078 685.0327 440.9723 686.0133 442.5531 682.7451 449.7328 668.7438 460.8968 666.7606 462.6751 664.1074 465.0539 672.4139 483.9794 673.6716 490.8542 674.9045 497.5922 668.2906 504.6808 655.6129 514.2012 654.2931 530.7412 641.0724 536.6801 638.0712 541.2769 635.0604 545.8877 621.5093 548.3381 616.3433 542.0294 611.152 535.6888 606.6612 530.2027 604.2631 529.5681 601.7278 522.6789 599.1462 497.1851 602.8257 484.0261 606.7796 484.3355 612.9803 474.537 614.9603 454.0032 610.5255 447.507 599.3361 431.1119 589.6217 423.7587 580.6197 423.1291 566.815 422.1619 557.8827 406.0756 549.4663 393.3795 546.2315 390.9395 541.0635 387.0408 538.8857 377.2738 538.4976 375.5331 536.1919 365.1898 535.6495 346.8932 534.3751 345.3415 528.7738 338.5205 528.6204 338.4797 518.3514 335.7445 517.0856 336.0389 508.4454 338.0474 508.1636 345.0369 513.8924 359.6064 513.8834 361.508 513.8362 371.5832 514.8948 375.6387 519.2098 392.1657 518.9725 402.3364 518.9209 406.0991 518.746 418.8653 520.3365 421.5335 523.5922 426.9943 527.8807 428.9273 537.0832 433.0743 535.7342 438.9886 535.1939 441.3572 535.2387 465.2532 527.5126 497.3409 522.2565 505.8503 517.8221 504.8959 509.425 498.3349 508.4467 485.8264 509.8783 481.8157 508.6787 480.8556 496.884 480.8093 479.2155 480.737 454.3008 477.5567 452.4288 474.8962 453.6961 472.4262 449.3834 470.8261 445.7537 476.1956 445.792 476.4372 450.815 508.1257 450.9779 509.1533 453.1082 508.5321 466.4275 504.6469 471.3334 499.9905 488.6445 511.6413 489.3749 524.2904 494.7199 616.751 484.1533 619.6348 447.6146 629.596 453.1537 651.5614 475.6393 690.5075 480.2072 695.3132 482.9897 711.6675 482.8822 721.4495 477.92 739.5912 475.9486 746.7966 477.5345 766.6808 479.7024 770.5274 480.0708 776.4608 479.2393 784.0344 476.2869 788.0006 474.3119 783.9974 465.987 786.9404 465.7994 794.0816 469.0227 802.8605 468.2612 810.5614 462.9459 823.7039 458.5904 829.0029 455.5772 828.6644 454.7973 828.5767 446.4735 833.0619 440.3176 839.613 439.0674 840.9434 439.6066 876.8184 418.6074 908.1701 409.6073 928.7937 377.2166 924.5323 366.6314 922.4858 362.8835 921.7609 332.0532 926.5156 257.667 944.3047 189.2205 970.0752 174.6074 978.4408 154.0205 986.14 144.8606 986.9457 96.9912 991.1414 83.7882 994.3113 32.2771 1008.6339 6.7315 1021.8912 1 1016.89 1.7517 1007.114 3.4902 1001.908 Z"/>
</g>
</svg>