<?xml version="1.0"?>
<svg xmlns="http://www.w3.org/2000/svg" version="1.2" baseProfile="tiny" width="800" height="643" viewBox="0 0 800 643" stroke-linecap="round" stroke-linejoin="round">
<g id="cb_2018_us_state_5m">
<path d="M 42.5691 41.9382 59.1138 36.8867 60.57 36.4412 77.4996 31.5506 92.0027 27.2689 95.624 26.0771 96.3791 25.9756 96.7288 26.186 96.7396 26.2049 97.132 26.3964 97.5002 26.8503 97.3104 27.7432 97.0173 28.3825 96.8782 28.6747 96.8713 29.0302 96.7644 29.3077 96.5213 29.7502 97.2662 30.3011 98.4755 30.056 99.4029 29.5309 100.5128 29.5832 101.1008 29.2708 101.5913 28.5099 101.6268 28.0515 101.9019 27.5068 102.407 27.3868 103.171 27.5625 103.7308 27.3464 104.1496 26.7019 104.9738 25.9786 105.1908 25.6915 105.2285 25.1374 105.325 24.8604 105.6536 24.4319 106.237 24.4025 106.7289 24.6275 107.5727 24.7075 108.9238 24.0092 109.4593 23.7962 109.9348 23.837 110.3302 23.9088 110.9433 23.6612 111.8286 22.5402 112.0303 22.096 111.9858 21.6424 111.6791 21.0548 111.5799 20.6974 111.6117 20.407 111.723 20.1178 111.9945 19.7347 112.212 19.5008 112.3621 19.4025 112.4093 18.9953 112.4942 18.45 112.8955 18.1985 113.3461 18.1419 114.0041 18.3152 114.2873 18.7405 114.5698 19.1983 114.6961 19.5239 115.1673 19.7911 116.3549 19.808 117.1021 19.5663 117.8253 19.0617 118.1796 18.4858 118.6334 18.1116 119.1971 17.7921 119.7022 17.6392 120.3592 17.8769 120.9344 18.2425 121.2764 18.3456 121.8592 18.2911 122.2915 17.9475 122.5613 17.4443 123.1775 16.611 123.7037 16.4925 124.2983 16.2153 124.3892 16.0506 124.6251 15.9131 125.0774 15.7592 126.2835 15.7804 126.9713 16.0545 127.9131 15.8148 128.628 15.0386 128.9772 15.0015 129.6637 15.1717 129.8502 15.2973 130.2406 15.2312 130.9167 14.9336 131.631 14.6191 132.0376 14.1387 132.2582 13.6555 132.6614 13.3698 133.1474 13.364 133.5084 13.5138 133.9091 13.3582 134.1254 13.1345 134.132 12.779 134.2455 12.3246 134.4615 12.1011 134.8647 11.8154 135.3716 11.6615 135.8493 11.6694 136.5126 11.6803 137.209 11.9019 137.2481 12.022 137.4564 12.3774 137.797 12.6428 138.2215 12.6498 138.8889 12.4333 139.6389 12.0234 140.0062 11.589 140.3276 11.2732 140.3903 11.1967 140.5338 11.1161 142.1611 11.0516 143.1932 11.1121 143.9071 10.9956 144.7028 9.9234 145.2713 9.3744 145.8368 9.1216 147.1224 8.803 147.7468 8.9869 148.456 8.9952 149.7635 8.3109 150.4968 8.4665 150.9182 9.0223 150.9481 9.4372 150.909 10.1648 151.1808 10.9198 151.5464 10.9703 153.0874 10.8283 153.7343 10.4664 154.0006 9.8542 155.0454 7.3724 155.6573 5.4003 156.4486 4.3038 156.8056 4.0045 157.8458 3.548 159.1565 3.1682 160.4388 1.4324 160.8994 1 161.3079 1.0075 162.3442 1.9974 162.3768 2.5794 162.8936 3.6653 163.1726 4.5174 163.0926 4.9497 162.8535 5.4096 162.7484 5.8865 162.7923 6.216 162.9794 6.7571 163.4483 7.2574 164.0305 7.713 164.3432 7.8686 164.7228 7.8144 165.5016 7.2279 165.6407 6.9309 165.6338 6.572 165.6877 6.2439 165.9845 6.0089 167.2708 5.7483 167.8582 5.6293 168.7665 5.5909 169.3129 5.9211 169.48 6.3897 169.5818 6.443 169.8273 6.4305 170.5015 6.1087 170.6587 6.1142 171.0142 6.4432 171.0452 6.8984 171.636 7.2504 172.2205 7.3124 173.1285 6.7091 173.465 6.1477 173.6316 6.0676 174.9 5.6994 176.8436 5.3346 177.9863 4.6198 178.9639 4.3818 179.2359 4.3762 180.2106 4.3563 183.0619 4.6836 187.4205 5.1144 187.4858 5.1193 189.8298 5.2951 189.8752 5.2986 193.2285 5.5592 194.8627 5.7002 196.2785 5.8319 197.7874 5.8695 202.4995 6.0449 207.8872 6.4354 210.5923 6.6308 217.3468 6.9175 218.7827 6.978 225.0533 7.2411 230.3139 7.5529 237.4867 7.9753 245.8407 8.3384 245.8824 8.3402 257.7506 8.9995 262.6282 9.2206 263.3242 9.2521 268.1833 9.4707 271.831 9.634 277.648 9.9872 283.2415 10.3248 288.4637 10.6383 293.9104 10.9636 299.9047 11.2732 308.2549 11.7011 308.3968 11.6881 313.6469 11.9797 315.1254 12.0615 316.2366 12.1219 329.1912 12.8201 329.2062 12.8209 335.535 13.1492 341.6683 13.4651 345.1523 13.6436 345.8429 13.6789 349.7089 13.876 350.0911 13.8989 366.6952 14.8679 371.1879 15.127 371.4415 15.1417 376.7016 15.5692 382.2223 16.0159 382.346 16.1424 382.2575 16.3145 382.0958 16.409 381.6513 16.9625 381.5301 17.2461 380.9712 19.3544 380.998 19.6723 381.0991 19.7941 382.9782 20.7511 383.3396 21.504 383.9531 23.2729 384.0395 24.0187 383.9837 24.417 383.6287 25.2082 383.232 25.5215 382.7693 25.6395 381.7272 25.9051 381.1424 26.2653 380.8129 26.7749 379.9613 28.8105 379.8257 31.4081 379.8839 33.568 380.204 34.0328 381.1352 35.0134 382.5333 37.1328 385.5216 35.0485 389.8991 31.9932 391.143 31.1246 391.9675 30.5488 396.2913 27.5278 400.0598 24.5657 404.7218 30.7217 404.7745 30.7908 408.2812 35.3918 408.3454 35.4833 410.6379 38.7482 415.5986 45.8075 418.6967 50.2123 421.1295 53.5135 421.1827 53.5847 425.2054 59.0261 424.4732 65.7509 423.0658 78.6612 422.7562 81.4976 422.6667 82.3185 425.9361 82.3342 426.9121 82.3437 434.3056 82.412 441.3739 82.4743 443.5227 82.4926 447.552 82.5262 447.8727 82.5304 450.9359 82.5943 450.9497 82.5899 451.7363 82.6012 461.5483 82.7151 461.5569 82.7152 471.7572 82.7273 473.0722 82.8157 474.157 82.8251 479.6925 82.8717 480.1697 82.8827 482.4655 82.9466 483.9397 82.9722 484.9812 83.0139 485.1712 83.0048 485.4053 83.0267 488.2319 83.0908 496.4435 83.1848 501.2681 83.2383 503.9255 83.2671 507.3985 83.3042 515.5878 83.3889 516.2894 83.4023 527.9068 83.6195 532.5376 83.7038 537.8432 83.799 538.0035 83.7978 541.4333 83.8588 542.144 83.8494 547.1155 83.9392 549.6386 83.9936 551.9786 84.0365 554.0783 84.0748 566.0393 84.2879 566.1039 84.2891 566.1372 84.2896 572.0694 84.3844 575.4913 84.4382 591.4963 84.1664 591.6245 84.1605 596.2254 84.1653 596.3588 84.1708 604.7962 84.2137 605.2489 84.2159 605.5974 84.2199 607.7061 84.2266 614.5613 90.9203 615.0018 91.3522 626.6746 102.6234 627.8836 103.7393 631.5558 107.3095 633.6003 109.2962 633.8054 109.4956 638.6312 114.1518 640.4558 115.9709 640.4603 115.976 641.7491 117.4476 642.2303 117.8181 643.426 118.811 643.4669 118.845 643.7263 119.0622 645.3564 120.6448 660.7339 135.6259 665.2677 140.2766 666.3555 141.3825 666.626 141.7094 669.4148 144.521 672.7706 148.0374 678.9878 154.5469 679.8083 155.3649 684.6709 160.2101 684.7876 160.3264 687.5351 163.0623 688.6842 164.1618 688.7033 164.18 688.9232 164.4353 695.5359 170.9544 696.9252 172.3243 709.0668 184.2699 709.0687 184.2717 709.0813 184.2842 721.8174 196.7693 727.2389 202.0759 736.3435 210.9765 739.7619 214.3149 742.293 216.7854 745.5739 220.0157 752.9791 227.2998 755.936 230.2058 760.1444 234.3394 769.8725 243.8832 770.2247 244.2864 771.4737 245.349 778.3185 252.184 780.1724 253.9768 780.3875 254.1848 780.3922 254.1894 785.3204 258.9525 786.2456 259.8463 792.3022 265.8595 799 272.502 796.8722 273.2088 791.7388 274.0359 777.2827 279.7112 770.377 283.3613 765.8921 286.4079 765.0554 286.9761 760.7293 289.9122 754.1232 295.0741 745.9255 302.831 737.5388 312.0079 733.6239 316.2868 730.0577 320.9939 723.254 329.9644 722.3096 331.2086 718.8881 337.9379 716.8121 339.9012 709.6766 348.0803 706.9455 352.6769 701.4279 364.248 699.4922 369.4267 698.821 374.9243 697.808 378.5791 697.1716 379.7072 694.3903 394.4349 694.4013 397.6855 695.8741 403.9632 693.3799 410.6042 692.1004 412.1705 688.8024 414.3215 685.0265 418.0994 683.7482 420.5675 676.2838 423.6578 676.1438 423.7157 669.7583 427.7853 668.5886 431.354 668.9154 432.7429 668.2915 435.7696 664.9418 444.5873 657.5838 445.2487 655.4202 444.6944 654.2306 443.0502 647.9207 444.6322 644.1574 445.9628 643.2392 443.0497 640.1323 439.6807 637.5126 439.2054 631.6379 442.1082 627.7744 445.1329 626.8235 448.1795 624.4223 450.6292 623.4968 452.0529 621.6907 455.995 621.6917 457.5725 622.522 459.5816 623.6778 461.3472 623.71 461.3458 627.0971 461.2033 627.7947 460.2147 628.9221 459.5612 629.3174 459.685 629.8156 461.1232 628.8132 465.2436 619.5593 468.8962 615.5025 472.137 608.8546 476.6925 608.1452 478.789 607.5684 479.6421 604.735 481.6786 604.9795 482.7577 605.2873 484.116 603.679 485.666 589.4539 491.6465 588.2565 493.7886 584.5413 495.7404 583.1636 496.0688 580.7569 494.8312 580.6397 493.2154 580.6187 492.9262 579.3886 491.4841 577.9567 490.4367 576.7756 489.5725 570.5074 490.854 569.8216 492.726 569.7341 494.6328 569.653 496.3996 574.7214 496.7672 578.0076 497.0048 579.854 500.1968 579.5321 501.6199 576.7487 506.8327 577.1413 510.3518 571.9841 514.3123 563.1035 519.4474 561.9574 519.4964 560.0059 522.1531 559.2048 524.1674 557.6909 526.2876 556.0448 525.7069 551.5144 525.4656 544.7988 526.9065 537.3178 529.5306 532.7594 531.9806 529.5888 535.7352 528.8486 538.5042 526.8911 539.7476 525.7426 538.3794 525.2505 538.0479 523.1722 536.6479 516.2386 541.5957 515.6977 541.9061 511.2289 544.4696 510.9523 544.6282 501.7176 552.3181 500.7147 552.1975 499.7665 549.78 496.3616 548.7319 493.5317 550.7004 492.5031 552.2207 491.5348 552.9233 487.9936 553.8744 487.5763 553.5947 487.2422 552.7927 487.1273 549.8183 486.849 549.35 486.2828 548.3974 483.5766 547.3078 481.4353 548.5582 479.1279 548.9658 478.0498 548.6358 477.2379 550.9625 476.6778 552.5671 475.9494 555.8685 476.668 558.4903 476.715 558.6619 478.8607 563.0283 480.5816 566.0321 484.742 565.9362 485.2609 567.7162 485.3807 570.1479 484.5423 573.057 482.6706 578.0549 480.7529 580.7627 481.0359 582.8546 479.1492 584.3249 470.4172 588.4456 466.7648 590.8204 465.7051 591.8169 461.396 593.5954 457.1004 593.5523 453.3892 596.2444 449.8977 597.1684 448.6032 595.2733 448.8754 589.9681 447.2531 589.4736 441.4477 587.7028 437.0159 583.1309 434.7999 583.9862 433.787 584.377 433.1992 587.0758 430.4269 586.9195 428.2927 589.7749 429.1065 592.2963 432.758 595.2478 433.0445 595.4792 436.4887 594.9117 443.2828 601.0376 444.7638 604.9741 441.4232 608.1538 435.8925 616.3004 431.1995 620.3786 424.246 623.9258 420.419 626.4866 418.8836 626.7194 417.7158 625.7898 417.1822 625.8929 414.988 626.4954 412.5548 628.5284 409.2577 632.5001 404.6154 638.0882 406.8333 639.7309 407.9949 641.5706 406.7249 641.5002 403.7132 641.1403 402.4917 640.971 401.6494 640.6541 400.9758 640.1476 399.8184 638.9661 398.1743 636.9034 396.2606 634.7343 395.4238 634.2041 392.1186 632.9861 391.3874 632.5235 390.6059 631.5992 389.9271 630.1934 389.4856 629.5104 388.5511 628.6247 388.1322 628.4165 387.3758 628.1938 386.4882 628.3884 385.7987 628.9397 385.1017 629.8929 384.8418 630.2483 382.9596 631.3385 382.008 631.5337 379.9718 631.3616 378.2358 630.9176 377.1372 630.3437 374.3105 628.2438 373.6271 627.6964 373.5144 627.6062 373.0667 626.9949 372.9622 626.2335 372.6412 626.1429 371.4383 626.1499 369.6227 625.98 369.2491 625.7382 368.5879 624.8533 368.1267 621.5074 368.2768 619.9349 368.414 619.4738 368.1293 617.6865 368.0749 617.4095 367.7936 615.9795 367.6071 615.7584 366.7069 615.4549 366.5035 615.2135 366.5436 614.9486 366.7603 614.5116 367.3809 613.9074 367.9531 613.3505 368.2423 613.2509 368.2556 612.9016 368.074 612.588 368.1772 612.0864 368.5021 611.2645 368.4531 610.4815 367.6237 608.0448 366.7552 606.5762 365.4441 605.7247 365.3231 605.5616 364.238 603.9402 363.6647 602.8933 362.4814 600.7322 362.065 599.97 361.9658 599.4815 362.1355 599.058 363.3738 597.2397 363.8029 595.575 365.387 593.7125 366.3558 593.3337 366.8321 592.9937 367.957 591.3508 368.2641 590.7293 368.263 590.7157 368.2312 590.3277 367.8147 587.155 367.7138 586.7733 367.5448 586.4919 367.2905 586.3707 365.5504 583.2948 365.2299 582.5713 365.3328 582.2102 366.0141 581.2485 365.9157 579.9435 364.6814 578.3141 364.4108 578.0122 364.1565 577.9713 363.5448 578.3109 363.4004 578.6806 363.2988 578.8544 363.0412 579.0167 362.7839 579.0267 362.5819 579.0262 362.4625 579.0041 362.3891 578.9712 362.325 578.9058 362.2705 578.7534 362.2989 578.4275 362.2898 578.1667 361.1566 576.959 359.7357 575.9056 359.6124 575.6234 359.6648 575.4029 359.8729 575.0482 359.9776 574.6565 359.8752 574.2763 359.1817 573.6408 358.0281 572.2368 357.8907 572.0695 358.392 571.2295 358.5489 569.8047 357.9245 568.8391 356.4391 566.6663 355.5602 565.8203 353.8392 563.3454 353.288 560.8944 353.4897 560.5829 353.9507 560.3547 354.2806 560.1257 354.4499 559.8197 354.5286 559.498 354.5293 559.2834 354.3491 558.9914 354.2078 558.6537 354.2089 558.3164 354.3264 557.9948 354.573 557.7658 355.1459 557.6687 355.9789 556.8283 356.8812 555.5062 356.9666 555.2656 356.7472 555.0039 356.5609 554.9631 356.0182 555.1219 355.6118 555.0604 354.7326 554.4754 352.6391 552.3201 350.0917 549.2597 349.0691 548.3316 348.2792 546.8229 348.2056 546.2388 348.2602 545.9789 348.5496 545.737 348.8674 545.5637 349.0059 545.2617 348.8998 544.761 348.4882 544.5499 347.1487 544.3434 346.6636 544.3589 346.3324 544.4961 345.8157 544.3357 341.7232 540.8889 341.8762 540.2589 342.122 539.7409 342.1033 539.1355 342.0557 538.9257 341.3818 537.0381 341.0347 536.6652 341.0303 536.6604 338.4227 535.4078 338.2208 535.3311 337.7742 535.3659 336.3482 535.7357 334.3872 536.0152 333.0068 535.6688 326.5549 532.4594 326.3212 531.0203 326.226 529.8545 326.0961 529.6118 325.7901 529.4522 325.5181 529.4314 324.9977 530.0106 324.4935 530.0472 324.1925 529.9191 322.8003 528.7614 322.7874 528.7506 322.0285 527.3605 321.4836 526.7057 320.2024 525.5706 318.9935 524.1179 317.8628 521.9068 317.9072 520.8405 318.1484 520.5521 318.5307 520.2946 318.759 520.3103 319.0735 521.2076 319.2855 521.513 319.4425 521.5732 319.7914 521.4464 320.5443 520.5524 320.564 520.3875 320.3111 520.14 320.1684 519.2494 320.4273 519.1086 321.9543 517.8775 322.2194 517.4827 322.0886 517.0909 321.3314 516.5216 320.1551 516.4731 319.8346 515.6679 319.8176 515.4588 319.9292 515.2676 320.3335 514.2091 320.8943 512.2653 320.8587 511.7307 319.6819 508.7625 319.5067 508.689 319.3996 508.7065 319.2694 508.7875 319.1997 508.9504 319.1225 509.1134 318.87 509.2118 316.5746 507.549 316.4436 507.3416 317.5229 505.3234 317.6463 503.6656 317.993 501.1882 318.9918 499.8892 319.1822 499.677 319.3028 499.3666 319.3521 499.0557 319.4012 498.773 319.3549 498.5184 319.2136 498.2347 318.9766 498.0638 318.549 497.9199 318.4079 497.6081 318.3148 497.2399 318.365 496.7593 318.5823 496.1383 318.371 495.6279 318.1832 495.146 317.758 494.5781 317.3791 494.2648 316.9376 494.0601 316.7383 494.0066 316.6914 493.865 316.6928 493.6104 316.765 493.4412 316.8372 493.3002 316.9937 493.1388 317.3381 493.0201 317.5776 492.7385 317.6027 492.484 317.6276 492.2862 317.605 492.0598 317.4399 491.8045 317.0841 491.6326 316.7049 491.3759 316.3974 491.0349 316.2812 490.5534 316.45 490.13 316.9648 489.5876 316.9293 488.8131 316.9984 487.269 317.1937 485.5369 317.8756 484.8948 318.0895 484.5078 318.1788 483.9999 317.748 481.3818 317.5845 480.5868 316.7704 479.4589 314.0483 477.5693 313.893 477.4638 313.679 477.3945 312.9127 477.7598 312.6072 477.9991 312.3754 477.9928 312.1453 477.6278 311.808 476.7532 312.3138 475.646 312.605 473.8512 312.3516 472.97 312.178 472.7461 309.7993 472.2098 309.4052 472.2894 308.4722 472.0079 307.8814 471.3134 308.2845 470.0333 309.198 469.4425 309.3443 469.4269 310.3929 468.3332 310.4938 467.9694 310.1835 467.5509 309.67 467.3081 307.9547 466.3831 307.825 464.8149 307.2973 463.1334 305.3044 461.1545 304.5073 460.9451 304.0728 460.3924 304.0282 459.7224 304.5652 458.715 304.587 458.4609 303.8207 457.833 303.3142 457.2067 303.1335 456.647 303.0855 456.2874 303.0704 456.008 303.0887 455.7686 303.2069 455.5898 303.2585 455.3906 303.3101 455.1714 303.4286 454.9527 303.6303 454.8343 303.952 454.8502 304.2851 454.8595 304.5455 454.68 304.6072 454.4869 305.4223 451.637 305.9946 448.3396 306.0413 447.8606 306.0164 445.8014 305.8775 445.5467 304.2382 444.3776 302.7025 441.8231 302.3691 441.6684 301.2922 441.5339 298.0802 439.504 297.8645 439.2158 297.5316 438.361 297.4618 438.2813 297.1697 437.9477 296.7447 437.8967 295.891 438.374 295.5863 438.4928 295.0204 438.2956 294.7991 438.0766 294.6589 437.8341 294.5802 437.4954 294.6658 436.9548 294.7069 436.723 294.6679 436.4811 294.4467 436.2622 294.3055 436.1887 294.184 436.1879 294.1029 436.1873 293.9814 436.1865 293.7372 436.3538 293.3917 436.5448 293.0268 436.5905 292.3621 436.4539 291.451 435.4925 291.0083 434.7342 290.5414 433.8626 289.75 433.088 289.386 433.0129 289.0577 433.2718 288.7363 433.2741 287.9493 432.8817 287.8099 432.5425 287.7921 432.2041 287.9361 431.8667 288.1216 431.409 288.1447 431.0227 287.8046 430.4403 287.5627 430.2935 287.2375 430.3132 286.6867 430.8837 286.3236 430.8644 286.1824 430.7909 286.1429 430.6456 286.1864 430.2351 286.2404 429.8443 286.2543 429.245 286.0356 428.6875 285.7136 428.4195 285.45 428.2754 285.3103 428.199 284.8654 428.1474 282.432 428.3952 281.5894 428.5896 280.7316 428.5429 280.044 428.2565 278.0385 426.5139 273.8315 424.573 271.5839 423.7716 271.0965 423.7274 270.5406 423.8433 270.2888 423.781 268.1991 422.2374 266.9973 421.1429 263.7385 418.7055 261.8561 416.6609 260.525 415.063 260.3171 413.8362 259.9396 412.7886 258.9987 410.8323 259.0001 410.6717 260.1377 409.3366 260.6256 409.2806 260.997 409.0831 261.6336 407.3617 261.6092 407.3065 261.4194 406.8779 260.8507 406.5716 260.5348 406.1873 259.8672 403.7517 259.6518 403.4084 258.8016 402.6578 258.0637 402.5106 257.7769 402.6486 257.6234 402.9083 258.2363 403.8978 258.1963 404.6204 257.9585 404.9195 257.0146 405.2523 256.0574 405.1834 253.5429 404.5579 253.1923 404.3136 253.0935 404.0918 253.0703 402.947 252.8242 402.3021 252.4737 402.0578 251.1519 401.4834 249.7617 401.0486 249.1608 400.1223 249.1325 400.0787 248.2535 399.2457 246.6625 398.4083 245.7592 397.2678 245.7332 397.235 245.5712 396.5906 246.5751 393.4675 247.3837 393.4273 247.7949 393.3397 248.0911 392.9293 248.1119 392.1509 247.1525 391.0032 245.8526 390.0067 244.2632 389.4489 243.9493 388.9237 244.2523 387.0992 244.9603 386.7849 245.6989 386.772 245.9149 386.995 246.2525 386.7974 246.8481 385.9399 246.659 385.3476 245.5993 384.6258 243.2096 383.856 242.788 384.0727 241.8711 385.1682 240.4841 384.5518 240.0775 383.2424 238.2943 382.1424 238.343 381.7184 238.3708 381.0766 238.1651 380.6685 237.8134 380.3731 237.4238 380.5416 237.163 381.1358 236.7688 381.7553 236.2922 381.7505 236.1172 381.5099 235.9668 381.0573 235.6271 380.669 234.7912 379.9957 234.6603 379.673 234.8702 378.2397 233.7434 377.4747 232.3978 377.8221 231.6432 377.7941 231.2266 377.5286 231.2157 376.9662 231.537 376.5807 231.9291 376.1102 232.0716 375.3084 230.4281 373.6845 230.0996 373.0185 230.1736 372.3565 230.6132 372.0198 231.3011 371.9869 232.132 372.7186 232.8016 372.8813 233.6289 372.2925 233.786 371.6916 232.7883 370.4891 232.0554 366.9118 231.7529 366.2242 231.8159 365.6348 232.1606 365.2752 232.9011 365.1241 234.1543 364.8421 234.652 364.3479 234.8084 363.8729 234.7946 363.3733 234.507 363.0077 233.8699 362.6219 233.4837 361.9071 233.5672 361.1589 233.8758 360.6175 234.594 360.284 235.349 359.8644 235.8404 359.0052 235.828 358.5586 235.8188 358.2305 234.6172 356.0564 233.7823 354.0144 233.7184 353.8583 233.2052 353.2705 232.4232 352.7603 231.1536 352.4055 230.37 352.0558 228.8869 351.2675 226.939 350.2318 225.8548 349.8184 224.6688 349.5243 223.7866 349.0125 223.2249 348.3034 222.9662 347.4573 223.0737 346.1482 222.8213 345.4072 221.2824 342.2371 220.7842 341.87 220.3175 341.6841 220.235 341.5827 219.8491 340.1525 219.601 339.8886 219.5256 339.8516 218.2193 339.2103 217.6234 338.6211 217.6297 338.0591 216.836 337.2065 216.0387 336.8921 215.7317 336.3456 215.3293 335.2356 213.8513 333.3773 213.4147 333.1633 212.4148 333.0489 212.3092 332.9838 211.9523 332.7639 210.0801 331.0131 209.4051 330.5777 207.0065 329.9258 205.901 329.4851 205.5322 329.2139 205.1256 328.7495 203.9064 326.8712 203.3842 326.6752 202.3887 326.679 202.1851 326.6798 201.539 326.9932 200.6125 327.814 200.0726 327.9712 199.3311 327.8395 197.7768 327.0683 197.416 326.783 196.7924 326.29 196.4243 325.7102 196.0537 324.6284 195.5694 324.1582 195.2306 323.937 194.6348 323.742 194.2626 323.6481 192.5607 323.2186 191.6479 322.6389 190.6073 321.6343 188.889 319.6635 188.1623 316.3771 188.4308 314.2291 188.4255 313.484 188.4249 313.3962 188.2869 312.8155 187.0152 311.748 186.8086 311.3661 186.4273 310.2451 185.6406 308.8121 185.3481 308.4269 184.6774 307.8506 182.7248 305.5968 182.3085 304.052 182.5663 302.748 182.0521 299.4308 181.8448 298.6189 180.9148 296.3075 180.7129 295.0507 179.4311 293.6076 178.9688 293.4528 178.7309 293.4865 178.1122 293.1332 177.9205 292.8255 177.82 292.37 177.6379 292.1661 177.3747 291.9805 176.9205 291.9216 175.7243 291.0779 175.1716 290.262 174.3911 289.4474 173.7361 289.0418 173.2857 288.9604 172.8643 289.0626 172.318 288.7235 172.1376 288.4159 172.1069 288.125 172.2464 286.2479 172.1956 285.6246 172.0447 285.2835 171.6054 284.8194 170.5942 284.2056 169.8794 283.5301 169.6512 283.0661 168.052 281.3293 165.8462 279.867 164.3488 278.4109 163.5299 277.9704 160.675 276.735 160.2344 276.4397 159.821 276.0767 158.9264 274.9596 158.0656 274.2756 157.1479 273.7128 156.2853 273.3128 155.5011 272.4467 154.9468 272.0097 154.2038 271.8292 153.2165 272.0095 152.611 272.2242 151.7874 272.3078 150.7336 271.872 150.4062 271.6245 149.1783 270.2262 148.8722 269.9797 147.6121 269.4742 146.459 268.6314 145.7595 267.6693 144.0265 266.3463 142.356 264.5004 140.2455 262.8889 139.7276 262.1365 138.523 259.5887 137.8649 258.492 136.9984 257.3708 135.0932 256.0563 134.7239 255.9689 133.4962 255.9718 132.5469 256.378 131.9857 256.4897 130.1019 255.8822 129.7177 255.5678 128.471 253.4607 128.4627 253.4467 128.2862 252.8669 128.2296 251.8179 127.8891 250.8337 127.6332 250.4454 126.8357 249.7434 126.3768 249.149 126.0471 248.5958 125.894 248.0505 125.8997 247.5129 126.0017 247.1389 126.2989 246.8104 126.6209 246.6104 126.7879 246.3701 126.7603 246.1397 126.6504 245.9256 126.4008 245.7935 125.4642 245.4678 124.9979 245.0854 124.5069 244.4812 124.1029 242.6868 123.6816 241.6916 123.4948 241.2505 123.4697 240.768 123.7944 239.2874 123.7208 238.7238 123.4608 238.3579 122.3277 237.475 121.2474 236.4322 120.6558 235.0365 119.7068 234.1164 119.4181 233.4888 119.3769 232.9859 119.2328 232.6621 118.4505 231.6562 117.7911 231.2289 117.3574 231.3632 116.9544 231.3323 116.2068 230.7863 115.6517 229.8443 115.3856 229.0746 115.4694 228.4735 115.8802 228.0255 116.3054 227.0303 116.3422 226.7688 116.2534 226.6202 116.1638 226.5036 116.2075 226.1133 116.1253 225.8405 115.235 224.6976 115.0458 224.5288 114.3861 224.3054 114.0819 224.1712 113.3368 223.6013 113.2526 223.5143 113.0575 222.8374 112.8065 222.6609 111.9916 221.4742 111.81 220.1516 110.6635 218.1993 110.3213 217.816 108.841 217.2279 108.1744 216.445 107.8835 216.3006 107.3217 216.3249 106.6212 216.2113 105.8993 215.8591 104.0595 214.3881 103.7136 213.9121 102.8059 210.8043 102.472 210.0191 101.5954 208.7715 101.4289 208.275 101.3577 207.8316 101.468 205.3049 101.3456 204.864 99.8798 201.8796 99.8488 201.5106 99.8172 201.1347 100.1392 200.2125 100.1601 199.9534 99.521 198.8904 99.6884 198.4054 99.9448 197.8371 99.5187 195.2662 99.5013 194.8834 99.683 193.3712 98.9444 191.1482 98.9636 191.008 99.3039 190.5523 98.7898 189.6464 97.9515 188.5871 96.8164 187.4765 96.6607 187.3736 96.2741 187.457 95.3497 186.6638 94.9023 185.9842 93.8372 184.3662 93.6214 183.1168 92.8063 181.5992 92.1727 178.9422 92.0811 178.1616 92.1568 177.436 91.723 175.6756 91.5339 175.4334 91.0422 175.3524 89.1284 173.5725 88.1878 172.7917 86.9308 171.7482 85.2483 170.6373 85.0397 170.2663 84.9842 169.641 85.0375 168.6936 84.8386 166.9269 84.0542 165.4146 83.9852 164.9366 84.1153 163.9693 84.0138 163.4784 83.2928 161.3815 83.1599 160.9948 83.1381 159.2828 83.007 158.6229 82.5691 158.0182 82.083 156.9115 81.9096 154.5578 81.2099 153.3933 81.0933 153.0371 81.1446 151.8413 80.9101 151.5716 80.3886 151.2458 78.7271 150.5737 78.5707 150.1087 78.6788 149.669 78.8478 149.4939 79.0292 148.9719 78.5426 148.2001 77.5648 147.4377 74.317 145.9876 73.3721 146.0691 70.9568 146.8241 70.4787 146.7341 70.042 146.2433 67.9984 145.8203 66.8962 147.1034 65.679 147.5405 64.7058 146.5766 61.5822 146.3717 59.4752 147.0317 59.3993 147.0555 58.9534 147.7339 58.9712 148.37 57.6736 148.4134 53.3594 145.9094 52.8256 146.122 52.4638 146.0213 50.9884 144.9212 50.2605 144.0143 50.0736 143.6409 49.2814 142.0579 48.726 141.8811 47.446 142.3728 46.7995 142.157 43.9273 139.3214 43.9898 138.9494 45.482 137.7871 45.4673 137.5676 44.3798 136.3128 43.8997 136.0792 43.1142 135.8882 43.0651 135.9067 42.398 136.1578 41.5213 136.0071 41.362 135.7571 41.3124 135.1084 41.2581 134.3971 38.2218 130.3206 37.5238 129.9296 37.1093 129.9807 35.4524 128.6785 33.4008 126.5639 33.1157 124.5692 30.8653 123.9563 30.5414 123.6678 30.4552 122.3804 30.6325 121.7392 30.7108 121.3682 30.6484 121.0499 30.0892 120.6922 29.1004 120.4975 26.1942 120.8376 25.743 120.3452 23.8029 119.7973 22.1794 119.9524 20.4719 119.6418 18.588 118.2523 19.0647 116.996 19.0668 116.9559 18.4294 116.5815 17.8442 115.4835 16.7172 114.252 15.574 113.703 13.9804 113.3442 13.0079 112.7274 11.6138 111.4806 10.59 110.7935 9.3158 109.1013 9.232 108.2734 8.7245 107.6629 8.0224 107.5031 7.1121 107.7483 6.7827 107.6657 6.4592 106.5619 6.314 106.3171 5.9879 105.9942 5.3586 105.5825 4.5512 105.1965 3.57 105.3352 3.1676 105.0306 3.1206 104.6669 3.0844 104.0917 3.0805 104.0312 2.923 103.6194 2.5991 103.1582 2.238 102.6962 1.7297 102.1624 1.4763 101.8616 1.3912 101.5421 1.4561 101.1812 1.7673 100.6446 1.7949 100.2827 1.4674 99.7124 1.2962 98.7101 1.2337 98.465 1.0611 98.152 1.0604 98.1262 1 95.6087 1.7696 93.9109 3.4705 92.9275 6.6229 89.5244 6.4954 88.3654 6.7117 86.6927 6.1444 83.468 7.8562 81.4605 9.5388 81.0002 9.9521 80.6877 9.9255 79.7493 9.6929 79.2625 9.6985 79.0335 9.7975 78.8295 9.9711 78.6503 10.2912 78.635 10.6485 78.6435 11.1395 78.5634 11.6483 77.7504 11.6999 77.0135 11.9082 76.6229 12.7415 76.9307 13.0068 77.2814 14.2197 78.2071 14.959 77.9075 15.4765 77.3266 15.674 75.0506 15.2526 74.1473 15.6748 72.5318 16.1965 72.3205 16.5797 72.3294 16.9601 72.4936 17.2393 72.6295 17.642 72.517 17.8292 72.3587 17.9759 72.0297 18.1963 70.9451 18.6248 70.4471 19.1029 69.9706 19.1585 69.0372 19.4032 68.5552 20.1918 68.3297 20.6061 67.7298 20.5981 67.1076 20.5252 66.5449 20.7905 66.2707 21.6398 66.0907 22.1654 65.7301 23.6615 66.1227 24.799 65.2105 25.3863 65.7295 26.0532 65.7723 26.806 64.8835 26.2747 63.7405 26.4918 63.0559 27.4401 62.8107 27.9208 62.2599 28.6415 62.2568 29.2856 61.9513 30.2428 60.9338 30.5784 60.23 31.3967 59.7141 31.9519 59.0598 32.3357 58.3356 32.9164 58.1533 33.5858 58.2856 34.0745 57.9254 34.4459 57.0936 34.8874 56.6934 35.4354 56.5297 36.5239 57.0485 36.959 57.0262 38.6427 55.8552 38.7593 55.5728 38.6947 55.0058 38.8468 54.5603 39.0841 54.4228 39.5555 54.6473 39.9862 54.4529 40.2333 54.2441 40.3434 53.8181 40.2327 53.5301 39.9572 53.1567 39.348 52.2939 39.3259 51.282 39.7695 50.9982 40.319 50.262 40.2312 49.3254 40.4858 48.3698 41.8954 46.8966 42.2451 45.9525 42.7534 45.545 43.1945 44.2267 43.192 43.5336 43.055 42.8154 42.5691 41.9382 Z"/>
</g>
</svg>