<?xml version="1.0"?>
<svg xmlns="http://www.w3.org/2000/svg" version="1.2" baseProfile="tiny" width="800" height="497" viewBox="0 0 800 497" stroke-linecap="round" stroke-linejoin="round">
<g id="cb_2018_us_state_5m">
<path d="M 13.7306 136.2632 14.4867 136.2785 15.6098 136.195 15.5674 135.9023 16.4089 118.2715 16.3736 118.134 16.9485 105.5829 17.7549 88.0129 17.8277 86.6699 18.0375 82.5506 18.1378 79.7995 18.5647 69.9134 18.6597 65.9 18.7709 64.5882 18.8066 64.1072 18.9913 59.0001 19.0766 57.3489 19.0966 56.3162 20.3335 28.8925 21.0177 11.9877 21.0228 11.4745 21.0888 10.0469 21.3803 1 58.7735 2.6657 59.5375 2.6979 59.5374 2.6993 67.8423 3.0354 69.6645 3.1314 81.9565 3.5986 82.2006 3.605 83.6242 3.6787 84.2911 3.6934 87.8479 3.8975 88.4763 3.8708 96.9165 4.1897 96.9182 4.1902 103.4394 4.4221 104.2099 4.4482 109.1123 4.6125 111.1284 4.6918 115.4036 4.8417 117.3291 4.905 120.3769 5.0037 122.5332 5.0816 125.5496 5.2038 125.5816 5.2051 126.1222 5.2169 130.8705 5.3923 133.0136 5.4706 137.0082 5.5963 154.4229 6.1399 157.4818 6.2027 157.6409 6.2117 158.2161 6.2198 159.7127 6.2437 160.6127 6.2767 168.9513 6.5569 169.7088 6.5947 177.1506 6.7777 177.9908 6.8041 178.7828 6.8368 180.0906 6.8719 182.1784 6.9341 182.1821 6.9414 182.6974 6.9438 183.6734 6.9685 184.0873 6.9912 184.8418 7.0296 185.0621 7.0285 185.4191 7.0289 185.426 7.0331 189.2413 7.1399 189.3309 7.1303 191.8287 7.22 202.7911 7.5063 206.8512 7.6163 206.8805 7.617 208.5951 7.6547 208.7415 7.6582 208.8977 7.6587 209.9941 7.6849 210.9959 7.7186 211.9737 7.7318 212.0538 7.7107 215.7361 7.8255 215.9779 7.8247 218.3812 7.8814 224.3667 8.0279 224.369 8.028 224.3921 8.019 224.5631 8.0261 224.5715 8.0265 225.2102 8.0523 225.4771 8.0579 227.042 8.0935 228.6625 8.1238 235.6772 8.2575 239.0745 8.3398 241.027 8.3771 244.8407 8.4601 245.2931 8.4623 247.6652 8.5241 247.7532 8.5193 247.8542 8.5148 248.4174 8.5158 251.2531 8.5855 251.9173 8.6217 253.3679 8.6249 256.0476 8.6589 256.171 8.6775 258.4509 8.7091 261.3357 8.7721 267.9378 8.8896 268.4224 8.917 282.0742 9.1739 286.6586 9.167 286.9645 9.1809 287.5016 9.2034 290.6234 9.2353 292.6705 9.2627 295.2592 9.3044 296.8196 9.3097 301.5417 9.3943 303.5509 9.4368 306.0041 9.4653 306.3431 9.4567 306.8021 9.4654 307.5805 9.4805 309.2863 9.5101 309.6347 9.5141 313.1875 9.5321 313.7331 9.5584 325.7236 9.6436 326.1336 9.6764 327.3416 9.6932 329.8683 9.7116 330.2068 9.7275 334.7199 9.7498 346.6891 9.85 347.4486 9.8547 347.4524 9.8496 348.6117 9.8789 351.5483 9.8432 358.5102 9.9305 360.81 9.9472 372.3134 9.9921 372.3289 9.9921 373.5653 9.9994 377.1949 10.0195 380.3996 10.0174 381.0117 10.0287 381.4368 10.0348 382.4084 10.0483 393.9645 10.0907 394.8373 10.1111 394.9576 10.1368 395.8045 10.1414 395.8892 10.1381 406.2204 10.1977 408.0834 10.2 409.1126 10.196 412.2329 10.2116 412.4185 10.2079 414.8348 10.2165 416.34 10.2323 422.6554 10.2482 426.6028 10.2543 435.0999 10.243 435.1227 10.2432 439.2364 10.278 448.012 10.2816 448.1017 10.2781 448.1185 10.281 448.2631 10.2804 451.2249 10.2658 453.7196 10.2436 455.8105 10.2132 461.8517 10.164 464.0762 10.1458 473.5833 10.1678 473.8702 10.1682 482.7157 10.0818 484.2756 10.06 484.9792 10.0532 488.3116 10.0324 488.3301 10.0322 491.0037 10.0077 493.0516 9.9984 494.3739 9.9788 495.1394 9.9708 496.9804 9.9673 500.5063 9.9227 500.5657 9.9222 501.3635 9.9056 501.4701 9.9054 512.4224 9.7536 513.3669 9.7367 522.025 9.6451 522.0362 9.645 531.9916 9.5495 532.0957 9.5478 549.9908 9.3555 559.8294 9.233 571.5946 9.1308 580.7868 9.0392 603.5289 8.5459 603.6276 8.5437 614.9649 8.2515 621.1553 8.0971 621.1653 8.0969 623.2726 8.0584 624.0788 8.0396 626.0717 7.9927 643.3713 7.5708 644.1194 7.5389 652.0997 7.3007 667.403 6.824 669.7426 6.74 669.7517 6.7397 672.4389 6.6775 673.4243 6.6404 689.616 6.0904 690.2826 6.0633 698.6079 5.7519 698.6098 5.7518 698.6112 5.7518 706.8801 5.4235 709.5526 5.2923 711.0224 5.1637 719.3262 4.9281 721.2362 4.874 721.4031 4.8006 731.7829 4.4033 740.6082 4.0551 741.9601 3.9373 750.9099 3.562 752.9611 3.486 755.021 3.4183 757.0892 3.3621 759.1494 3.2584 760.2566 3.2244 761.2206 3.1947 763.2576 3.0965 764.5697 3.0396 764.5449 4.3266 764.599 5.0654 764.6402 5.2801 764.4034 5.6668 764.3652 5.8472 764.4395 6.3883 764.5445 6.5256 764.6655 6.7302 764.4092 7.317 764.3217 7.6773 764.3753 8.2764 764.4019 9.3472 764.3737 9.7963 764.1265 10.0075 764.0646 11.4692 764.1725 12.1264 763.9277 12.8569 763.9644 13.1136 764.1291 13.5937 764.0981 16.2421 763.9173 16.7012 763.8321 16.9933 763.8687 17.6814 763.6921 18.7319 763.3975 19.5742 763.0224 20.1029 762.4304 20.4973 762.097 20.8085 761.6195 21.6105 761.0941 22.6743 760.6377 23.3566 760.0943 23.864 759.4031 24.3436 759.1722 24.5949 759.0213 24.8917 758.9329 25.3324 758.3706 26.4236 758.1864 26.9369 758.1216 27.6222 757.9326 28.4214 756.9926 30.3312 756.0122 31.5367 755.0499 32.4866 753.6406 33.4641 751.3097 34.7624 748.0295 37.1898 747.5223 37.6111 746.8909 38.7574 746.5443 39.264 742.7456 42.1659 740.239 44.3008 740.1192 44.4627 739.6057 44.6774 739.308 44.9856 738.8379 45.6279 738.5268 46.4577 737.9093 49.3686 737.86 50.0246 737.4692 50.8703 737.3785 51.3144 737.8104 51.8194 738.2502 52.2822 738.788 52.9134 738.8279 52.965 739.7249 54.054 743.2545 58.2999 743.55 58.4575 744.0972 58.9353 745.0521 60.2431 745.4674 60.9877 747.132 62.9996 747.6411 63.9105 748.4925 65.6956 749.3138 67.5847 749.5208 68.1871 749.5641 68.7274 749.6738 68.9983 750.1127 69.7268 750.3156 70.68 750.7757 71.8101 750.9208 72.0495 751.6705 72.8096 753.1093 74.8294 754.0554 76.3168 755.0592 77.5478 755.9758 78.3351 756.3129 78.4717 756.8162 78.4902 757.3295 78.4208 758.1448 78.6046 759.5769 78.3823 760.3102 78.4787 761.2535 78.4355 762.6108 78.5394 764.2996 79.167 765.9923 80.1611 766.604 80.6216 767.3726 80.9339 768.3211 81.4323 769.974 82.0788 770.605 82.1522 771.4966 82.3754 772.4329 82.7407 773.8528 83.7938 774.4824 84.1026 775.8352 85.2427 776.5595 86.7544 776.9278 87.686 777.9108 89.5063 778.0363 89.7386 778.1147 90.3613 778.2008 90.6356 778.3493 90.8372 778.846 91.2833 779.3022 92.1599 779.413 92.7211 779.7127 93.0086 779.8388 93.4936 779.9593 95.4676 780.0455 97.6415 780.0465 97.6606 780.5117 106.2155 780.5558 106.8054 780.5664 107.0539 780.7165 110.5591 781.0762 118.3396 781.079 118.5389 781.3026 122.4691 781.2919 122.6559 781.575 128.6861 781.5878 128.8882 781.6338 130.0077 782.0816 139.2669 782.0818 139.2695 782.1544 141.3755 782.5316 148.8044 782.578 149.378 782.6728 151.7478 783.2808 163.8126 783.2815 163.8271 783.3059 164.9388 783.3358 165.709 783.3546 165.9697 783.4701 168.0078 783.5901 170.0632 783.5791 170.2466 783.8936 176.2614 783.9633 178.4389 784.4176 188.6901 784.4186 188.7123 784.426 188.7815 784.9831 201.1551 784.9755 201.2154 784.9736 201.2306 785.0615 203.6109 785.1503 205.0294 785.2207 206.4686 785.4292 211.2964 785.4338 211.6068 785.5439 213.1 785.6576 215.7926 785.985 223.1983 786.0184 224.0569 786.1657 227.4171 786.1936 228.1731 786.2541 229.5333 786.2902 229.9771 786.2908 230.2027 786.3674 231.9947 786.3748 232.2953 786.4707 234.098 786.4669 234.2829 786.5686 236.198 786.5698 236.4335 786.6274 238.0509 786.6352 238.4777 786.7316 240.0087 786.751 240.4378 786.8361 242.3933 786.8147 242.4924 787.1841 250.7309 787.1848 250.7473 788.1833 273.3714 788.183 273.6461 788.2458 275.2197 788.26 275.4578 788.3902 277.5777 788.397 277.8652 788.4581 279.6013 788.467 279.8659 788.5562 281.6639 788.5578 281.981 788.639 283.5341 788.6563 283.6249 788.7465 285.8709 788.7512 286.1128 789.2297 296.1744 789.2177 296.1846 789.2247 296.4066 789.4113 300.3222 789.412 300.3362 789.412 300.3368 789.7201 306.6725 789.7896 308.6278 790.4435 323.1632 790.536 325.2521 790.9618 334.5418 790.9807 334.8843 791.1038 337.6487 791.1145 337.8118 791.6872 350.1828 777.4126 350.8143 776.6146 350.858 776.6146 350.8603 776.6161 351.494 776.7033 351.6242 777.0945 351.8585 777.4032 351.6941 777.5303 351.6983 777.9827 352.1358 778.1171 352.3032 778.5898 353.4985 778.0539 353.9707 778.2254 354.9802 778.2903 355.1963 777.9756 355.8874 776.7704 357.0567 776.5168 357.9511 776.5507 358.1296 777.5127 360.3036 777.6586 360.4377 778.005 360.5613 778.188 360.6265 778.7988 360.5238 779.5035 360.5575 780.0368 360.9849 780.1053 361.1355 780.0089 361.6795 779.7481 362.3388 780.2871 362.6023 780.913 363.2087 781.4836 364.0399 781.975 364.4005 783.6794 365.6187 784.2933 365.5126 784.3955 365.3935 784.3883 365.2304 784.4879 365.1998 784.8803 365.3848 785.0362 365.6002 785.3505 366.891 785.4407 368.2736 785.4465 368.465 785.3722 368.8489 784.9531 369.3877 784.8634 369.4211 784.9132 370.2561 785.0404 371.7416 785.1793 372.2357 785.2878 372.2571 785.3131 372.39 784.5772 373.6429 784.2791 373.9736 784.5171 375.0909 785.038 376.7878 785.4016 377.3569 785.3716 377.7114 784.9793 379.1548 783.9025 379.8442 782.6684 380.2856 782.432 380.0183 781.5727 380.0568 781.493 380.0604 780.988 379.9785 780.8149 379.8195 780.7081 379.6117 780.5036 379.4803 779.8047 379.6498 779.7382 379.8081 779.8129 379.9856 779.9142 380.0875 779.9623 380.2732 780.0073 380.6577 780.2125 382.4074 779.8931 382.9939 779.6896 383.0324 779.6709 382.7555 779.6071 382.7093 779.3339 383.0877 779.4818 383.8594 779.7298 384.0183 780.3596 383.9017 781.2496 384.6694 781.723 384.9948 782.1515 385.1128 782.4777 385.1243 782.6803 384.986 782.8673 385.1003 782.941 385.2933 783.0411 386.2404 782.9683 386.7924 782.3351 387.1251 781.7104 387.2839 781.1261 388.0655 781.452 389.1105 782.3363 390.12 782.4871 390.1265 782.6574 390.0256 782.7532 389.8271 782.8922 389.7293 783.5933 389.6781 783.9406 389.8031 784.4424 389.8134 784.882 389.5156 785.8271 389.9833 786.3438 390.4049 786.4778 390.7879 786.6568 390.8584 787.3597 390.7025 788.5617 390.3313 788.9907 389.899 790.1504 389.7698 791.0547 390.0385 791.1779 390.1702 791.2702 390.6957 791.6068 391.7985 791.7809 392.1208 791.7784 392.425 791.5076 393.3435 791.5593 394.6232 791.7356 395.2102 792.1165 395.3527 792.2889 395.348 792.5068 395.557 792.5388 395.6896 792.4052 398.2662 792.4243 398.9031 792.5724 400.2305 792.7398 400.6185 793.2985 401.1647 793.4165 401.1822 793.7558 401.0519 794.3076 401.301 795.0832 402.4684 795.1904 403.1764 795.3283 403.7642 795.4262 403.9826 795.5572 404.1433 795.8795 404.2887 795.6384 405.2907 794.7834 406.6843 794.4193 407.2702 793.5552 408.1019 793.3342 408.6158 793.3686 408.8724 794.1385 409.0492 794.2313 409.2313 794.2939 409.6045 794.2887 409.7217 794.236 410.9153 793.9726 412.0002 793.7192 412.5156 793.4921 412.6766 792.9665 412.8612 792.7831 412.8371 792.439 412.6438 792.0567 412.8283 791.0776 413.8582 790.9377 414.0771 790.8826 414.4427 790.728 414.5479 789.5552 414.9102 789.1907 414.9134 788.7994 414.7511 788.6602 414.7672 787.8577 415.9266 787.9852 416.1812 788.154 416.2964 788.3472 416.2267 788.5829 416.1998 788.8561 416.5635 788.8599 416.6516 788.7175 417.3416 788.5094 417.6286 788.5014 417.8471 788.6517 418.2176 788.7431 418.3705 789.5861 419.0323 790.0093 419.0976 790.5365 419.7404 790.8538 420.4187 790.7765 421.0829 790.6254 421.5576 790.3986 421.9988 790.2859 422.0989 789.7807 422.2761 789.3033 422.3762 789.0358 422.5876 788.7567 423.1299 788.8444 423.4987 788.8591 423.9101 788.4193 424.5708 788.0035 424.7432 788.0759 425.1322 788.5572 425.7907 789.1132 425.9979 789.587 425.9637 789.7071 426.0303 789.9218 426.3999 790.2725 427.6427 789.8276 428.3399 789.5311 429.2296 789.4061 429.7192 789.2775 429.8329 788.8499 429.9567 788.3415 430.5388 787.7895 431.1717 786.2335 432.8178 786.1838 433.0947 786.2021 433.3653 786.3609 433.6459 786.6607 434.7705 786.7232 435.042 786.8255 435.4858 786.9135 436.1619 787.6762 436.5494 787.9454 437.1372 787.9789 437.4079 787.8423 437.5949 787.1464 437.6163 786.5546 437.7834 786.5304 437.8991 786.7524 438.2847 786.8617 439.3719 786.2527 439.9517 785.9938 439.9849 785.901 440.0969 785.6786 440.5974 785.6348 441.5347 785.6415 441.6161 786.0845 442.4396 786.3557 443.2843 786.2405 443.4791 785.6959 443.8338 785.391 443.8686 785.3014 444.067 785.3699 444.4207 785.5923 444.6658 784.9377 445.0353 784.7304 445.0609 784.5123 445.509 783.6165 445.4282 782.7301 445.3338 782.542 445.424 782.4847 445.9792 782.9931 446.6627 782.9868 446.8166 782.3551 448.0844 782.2342 448.2239 781.692 448.6309 781.2763 448.5809 781.174 448.6999 781.2385 449.3575 781.6088 449.4128 781.7446 449.5407 781.7654 449.6445 781.6278 450.6708 781.386 451.8458 780.6548 452.6242 780.5531 453.2076 780.4762 453.3091 779.3103 453.0802 778.9068 453.2357 778.6863 453.929 778.247 454.7689 777.8541 455.1628 777.6625 455.1744 777.5705 455.5415 777.7123 456.5096 778.1001 457.0617 777.9611 458.0909 777.7984 458.7756 777.4525 459.4543 777.0764 460.033 777.203 460.335 777.964 461.7079 778.547 461.5585 778.7189 461.6158 778.8144 463.2138 778.5488 463.8472 778.2888 464.0153 778.2189 464.4434 778.3276 464.5499 779.4153 465.2044 780.4318 465.9632 781.9123 466.7631 782.4186 466.8025 783.0521 466.9179 784.1616 467.4991 784.9587 468.382 785.1067 468.4182 785.792 469.3518 787.2794 470.387 787.6083 470.3884 787.7521 470.4736 788.2561 471.2095 788.3056 471.6749 788.24 472.2598 788.3119 472.4919 788.7686 472.8867 789.511 473.1901 790.6728 474.6745 790.794 475.068 790.7511 475.4491 791.5052 477.1686 792.0593 478.2487 792.5974 479.7822 792.5998 479.9788 792.4881 480.2872 792.5384 480.4798 792.6638 480.5753 792.9942 480.6867 793.2179 480.9501 793.2393 481.1941 793.1537 481.3848 793.1133 481.6513 793.1868 481.8478 793.6275 482.1781 794.1373 482.2922 794.2291 482.4397 794.2236 482.6512 794.1356 482.8449 793.8847 483.0563 792.9318 484.5255 793.4092 485.0881 795.278 485.0976 795.3382 486.4741 795.3284 488.0247 795.1456 488.8912 795.25 489.344 795.1693 489.6623 794.0486 490.2664 793.84 490.712 794.1734 491.389 794.8698 491.6567 795.3072 491.5232 795.52 491.735 795.991 492.5788 797.8481 494.0745 799 494.2854 797.5356 495.0101 796.927 495.4536 795.9058 495.9435 795.5689 496.0163 794.4398 496 793.1793 495.6806 792.7058 495.42 792.3902 495.153 791.5744 494.1063 791.3827 493.7387 791.2324 493.1825 791.0047 492.632 790.5016 491.8722 790.1029 491.4558 789.79 491.1987 789.0965 490.8067 787.9507 490.513 787.0072 490.5794 785.9586 490.9845 785.4867 491.3117 784.2906 492.4954 783.5932 492.8732 783.0858 493.0087 782.3005 493.0667 781.7264 492.9838 781.447 492.8718 779.8798 491.8704 779.6256 491.3973 779.2323 490.3628 779.058 489.703 778.9914 489.2774 778.9437 488.103 778.6874 487.052 778.3771 486.4479 777.759 485.668 777.2614 485.2219 776.1121 484.4788 774.274 483.8192 773.6875 483.4321 773.2069 482.9585 771.9173 481.2316 770.9075 479.9882 770.5788 479.3817 770.3747 478.7649 770.2774 477.821 770.2864 477.4464 770.451 476.7877 770.6613 476.2945 771.6836 474.4944 772.1034 473.8407 772.4602 473.5333 772.5846 473.2546 772.6464 472.7098 772.6221 472.3805 772.5543 472.2358 772.1581 471.8134 771.4722 471.4223 768.2382 470.4551 767.4564 470.4483 766.2567 470.6342 766.0053 470.715 765.8176 470.9194 764.4863 471.3157 762.9987 471.2346 761.4014 470.8687 760.8107 470.5763 760.5668 470.3699 760.4273 470.0213 760.5652 468.2839 760.4874 467.126 760.3283 466.2307 759.8178 465.4828 759.0786 465.193 758.4097 465.0241 757.3466 464.9732 755.8723 464.5222 755.1696 464.1209 754.038 463.3437 752.7242 462.9261 751.2443 462.8259 749.1044 461.6868 747.682 462.0833 747.3043 462.2566 746.6876 462.8372 746.0203 463.2951 745.5758 463.5788 744.7707 463.9121 744.0426 463.9824 743.4398 463.9118 743.2304 463.8055 743.0898 463.5521 742.9837 463.2593 742.9533 462.8939 743.377 461.5224 743.4075 461.1608 743.3609 460.9433 742.4835 459.0259 741.7844 458.4757 741.3784 458.239 741.0534 458.1856 739.9463 458.3831 737.5242 458.176 736.574 458.0946 736.0076 457.9335 735.6772 457.6331 733.6684 457.0992 732.2525 456.868 731.5963 456.8769 730.8146 457.0356 730.182 457.2524 729.0684 457.3984 728.5283 457.3681 727.4447 457.4535 725.3663 457.1697 725.0249 456.8159 724.7249 456.1927 724.7219 455.9024 724.5845 455.5552 723.8813 454.626 723.2067 453.8718 722.1806 453.3146 721.8056 453.1109 721.4744 453.0047 720.9354 452.9051 720.263 452.8867 719.3005 452.6932 717.9534 452.6504 717.4984 452.5215 716.9185 452.1439 716.7514 451.9516 716.5897 451.6255 716.4617 450.6099 716.3318 450.2095 716.0172 449.5364 715.9621 449.2818 715.9804 447.2853 715.8205 446.9582 714.421 446.2253 713.7903 445.9905 712.6605 445.7106 712.3245 445.7163 711.8102 445.9523 710.6455 446.1849 708.3376 445.8515 707.0086 444.4465 706.5174 444.1862 706.2912 444.2367 706.0644 444.4573 705.3474 444.851 704.6848 445.0532 704.4904 445.1615 704.2729 445.4249 704.0441 445.5896 703.4862 445.8388 702.9648 445.9888 701.0456 446.209 700.8123 446.1733 700.0784 445.7279 699.3557 445.0995 699.2029 444.7898 697.4002 444.9878 696.8389 444.9236 696.2871 444.526 695.879 444.4567 695.3494 444.6155 694.9749 444.8333 694.3568 445.5337 694.1723 445.9614 694.132 446.1863 693.4857 446.9399 692.757 447.5985 692.4299 447.7364 691.3946 447.7969 690.9501 447.6849 690.6935 447.4957 690.3866 447.384 689.4528 447.2328 687.9468 447.2961 687.2533 447.1397 686.7497 446.927 686.4414 446.6563 686.3008 446.3718 685.8234 446.208 684.6833 446.9216 683.0338 447.4977 681.4096 447.8483 679.8985 447.9659 678.5675 447.709 676.7309 447.1705 675.9514 446.8537 675.4708 446.569 674.6281 446.5907 673.7499 446.8717 672.1883 447.6577 671.0215 448.2447 669.8695 448.7066 668.7826 448.9688 666.8783 449.1137 665.3517 448.9665 663.3027 448.5092 660.1642 448.3116 659.8042 448.3913 658.6595 448.4134 657.6384 448.3479 656.157 447.8776 654.7892 447.2569 654.4199 447.148 653.1268 446.7663 652.1894 445.9718 651.9025 445.7995 651.3084 445.8174 650.151 446.0029 648.8337 446.4188 648.0326 446.7613 647.039 447.3813 646.8827 448.0048 646.9018 448.2517 647.0407 448.5844 647.0303 448.9538 646.7191 449.542 646.6577 450.7271 646.1721 452.051 645.8205 453.3448 645.6531 453.6552 645.232 454.1577 644.1709 456.0191 643.7693 456.5971 643.0591 457.3331 642.4901 457.5707 641.3214 459.0544 640.9374 459.4152 639.5531 460.331 639.2046 460.4235 638.3092 460.4959 636.6747 460.3676 635.1287 461.098 634.3135 461.3855 634.0845 461.3906 633.7448 461.2708 632.9856 461.5585 632.5466 461.5544 630.6726 461.3487 630.4488 461.1376 629.9294 460.924 629.646 460.8297 628.916 460.7435 628.3842 460.4701 628.0399 460.1947 627.8723 459.4585 627.6867 459.0111 627.2042 458.5036 625.5554 457.1775 625.0222 456.9847 624.3013 456.5005 623.2069 455.219 622.886 454.9189 620.777 453.6166 620.6108 453.4635 619.64 451.8448 618.6699 450.8556 618.5512 450.8314 618.0288 450.9802 616.9689 451.2819 616.5233 451.3244 616.1466 451.3069 614.1771 450.7113 612.6151 450.0046 610.9889 449.1427 610.5195 448.8164 610.273 448.505 609.6949 448.0335 608.1093 447.035 607.7846 446.5504 607.573 446.4153 606.8908 446.208 605.8355 446.2675 604.6136 446.1762 602.7692 445.4965 601.473 445.1698 600.4465 444.9108 599.7753 444.6464 599.3713 444.3784 599.0758 444.0909 598.96 443.9462 598.7008 443.3631 598.4697 443.0675 597.9973 442.6372 597.5912 442.3751 596.3394 441.7223 594.5101 440.9615 593.3334 440.2342 591.976 439.6848 591.0738 439.2356 589.7035 438.3837 589.1227 438.3714 588.6384 438.4673 588.2721 438.8008 587.9836 438.9264 587.7271 438.9603 587.2634 438.8209 587.0796 438.628 586.9419 437.9882 586.8059 437.8038 586.3909 437.5326 585.7173 436.8348 585.3839 436.6916 584.7801 436.2574 583.523 434.0001 582.2711 431.9675 581.691 430.5386 581.3669 429.0407 574.4159 429.2086 574.0117 429.1973 564.1076 429.407 563.9087 429.3976 555.885 429.5757 553.5875 429.6203 549.7285 429.7006 547.3574 429.7321 539.4194 429.8925 539.0835 429.8717 537.4132 429.9079 537.403 429.9082 532.9246 429.9728 528.9226 430.0362 526.6712 430.0568 526.6306 430.0757 520.5982 430.1461 520.403 430.1587 514.7501 430.2349 514.4274 430.2096 513.1631 430.2499 512.092 430.2468 508.5585 430.3438 504.4541 430.3702 502.381 430.4159 502.3646 430.4158 501.5014 430.4127 498.8533 430.4555 492.6609 430.5159 490.4298 430.5509 490.1692 430.5604 489.8403 430.5705 487.6136 430.5761 479.6916 430.683 479.3593 430.6699 477.6587 430.6767 477.294 430.6836 473.1374 430.7314 472.9989 430.733 469.4549 430.7689 455.8692 430.8856 455.6379 430.8708 453.7844 430.8963 452.9887 430.9023 451.2794 430.91 448.6253 430.8952 446.5635 430.9224 445.3029 430.9355 444.9869 430.924 444.3548 430.9111 443.0487 430.944 440.1037 430.9333 439.068 430.968 438.0288 430.9539 437.2121 430.9575 432.9568 430.9805 431.9903 430.9762 429.6102 430.9602 429.5569 430.9597 428.4818 430.9571 423.9286 430.9632 421.518 430.9651 420.8307 430.9667 411.954 430.9465 411.2086 430.9445 411.1595 430.9445 403.6829 430.9755 403.6807 430.9755 395.3841 430.9567 394.7652 430.9431 387.8825 430.9403 387.2701 430.9366 375.0035 430.8348 368.5643 430.8526 367.5519 430.8806 366.5991 430.8876 359.0424 430.8747 358.382 430.9419 333.7371 430.763 331.6014 430.8013 329.6345 430.7813 324.2348 430.7518 323.626 430.7335 319.8372 430.7499 315.3722 430.6457 296.2063 430.4441 296.1687 430.4444 296.0479 430.4459 295.923 430.4474 295.8058 430.4396 267.5718 430.1626 254.5048 430.0763 245.2928 429.8606 231.0441 429.2045 206.7485 428.6874 206.7422 428.6872 169.3398 427.7258 164.4526 427.5999 132.6196 426.6049 110.8484 425.8266 97.158 425.3087 97.0312 425.3041 75.3301 424.4944 68.6748 424.2595 58.183 423.8419 58.1705 423.8414 58.0733 423.8374 58.031 423.8357 50.7492 423.5362 50.6824 423.5422 46.3647 423.3743 42.7598 423.1201 36.2703 422.9074 25.9579 422.4059 25.7868 422.4125 14.3762 421.957 10.0676 421.6485 7.4797 421.5324 1 421.3906 2.8033 380.0999 2.8497 379.0654 2.8628 378.0183 2.9842 374.9417 3.3871 365.6559 3.6196 360.235 3.9383 353.2534 4.1029 349.6474 4.1045 349.6108 4.4414 341.7179 4.5975 338.7541 4.62 338.1622 4.6205 338.1136 5.6692 314.8037 5.6905 314.3302 5.7603 312.7292 6.3333 299.6141 6.9235 287.7568 6.9468 287.5354 8.3292 258.553 8.5974 252.9418 8.967 242.9992 10.6945 204.7656 10.869 201.1088 11.0554 197.1573 11.8667 179.9764 11.8707 179.6134 11.9311 178.6739 12.0754 175.3957 12.0709 175.3528 12.3644 169.0356 12.3662 168.9965 12.9751 154.8872 13.0874 153.7545 13.7306 136.2632 Z"/>
</g>
</svg>