<?xml version="1.0"?>
<svg xmlns="http://www.w3.org/2000/svg" version="1.2" baseProfile="tiny" width="800" height="197" viewBox="0 0 800 197" stroke-linecap="round" stroke-linejoin="round">
<g id="cb_2018_us_state_5m">
<path d="M 58.5791 75.5034 60.9852 75.5439 61.1163 75.0887 61.3217 74.7517 62.3935 73.3688 62.7822 72.388 62.9225 71.845 63.25 69.8441 63.5592 67.507 63.7748 66.3577 63.8941 66.1179 64.5058 65.3188 65.0596 64.8861 65.8885 64.5355 67.2542 64.0702 68.6174 63.7479 68.9185 63.6125 69.8535 62.9964 71.0859 62.3937 71.3691 62.1404 71.8435 61.5399 71.9384 61.2574 72.0498 60.585 72.1275 59.6244 72.0952 58.9374 71.9145 58.3237 71.3552 57.2689 70.8179 56.4971 69.8221 55.4633 69.3229 55.0866 68.8136 54.8128 68.1451 54.384 67.4408 53.7739 66.5449 52.8977 65.7146 52.3014 64.3392 51.1853 63.8459 50.7318 63.1755 50.1153 62.5527 49.4265 62.1328 48.883 62.0647 48.7554 62.0438 48.5761 62.0706 48.3764 62.2509 47.9825 62.609 47.4286 62.7321 47.1815 63.046 46.9446 63.403 47.0351 63.8583 47.3435 64.6032 47.5082 66.9515 47.3137 67.8938 47.4828 68.3825 47.6594 69.4979 48.2405 70.6985 48.74 71.1196 48.8614 71.4978 48.8993 72.8821 48.7883 73.789 48.502 74.1264 48.3331 74.9683 47.6522 75.2272 47.5649 75.6139 47.563 76.017 47.6555 76.4315 47.9128 76.8145 48.0069 77.1021 47.9699 77.3247 47.8713 77.7497 47.4576 77.806 46.409 77.745 45.412 77.5662 44.8667 77.408 44.6237 76.9332 44.2564 76.7701 44.2532 76.5218 44.4374 76.0536 44.5358 73.8767 43.2611 73.3605 42.6721 72.8716 42.2603 70.9042 40.7973 70.2693 39.451 70.1854 39.1886 70.2522 38.4461 70.6396 37.7146 71.1279 37.2348 71.5943 37.0463 72.0661 36.9765 73.7941 37.1053 75.7167 37.6937 77.1257 37.8466 77.7623 37.7892 78.3416 37.6088 78.7893 37.3464 79.1976 37.0055 79.55 36.583 80.1249 35.3154 80.4922 33.7642 80.5125 33.601 80.4496 33.2243 80.1468 32.4704 79.1679 30.6676 77.6831 28.3811 77.5243 27.9682 77.4426 27.579 77.4335 27.1664 77.4898 26.6884 77.6556 26.2549 77.8981 25.9452 79.1781 24.85 79.3777 24.578 79.5485 24.2897 79.7885 23.687 79.9263 23.1144 79.9778 22.1578 79.8857 21.7849 79.7099 21.4789 78.6654 20.2919 78.2598 19.5384 82.0226 19.6658 82.5245 19.6947 83.1729 19.7479 83.0463 20.0327 82.3662 21.8614 82.2872 22.1694 82.2929 22.4824 82.3615 22.8376 82.5755 23.3678 82.9681 23.8254 83.8391 24.283 84.276 24.3931 84.968 24.3938 85.3113 24.2965 85.995 23.9601 86.428 23.617 87.5342 22.5121 88.2422 21.687 88.8513 20.8516 89.1575 20.3472 89.4024 19.77 90.6251 19.7961 91.8004 19.8398 92.6491 19.7542 92.8063 19.7188 94.9587 19.5827 95.9251 19.4969 100.12 19.1763 101.7618 19.2673 102.0538 19.3069 108.2339 19.5903 112.6137 19.8431 112.6325 19.8441 116.5966 20.057 116.8037 20.0678 119.3057 20.1624 120.9525 20.2247 122.1626 20.2688 124.3753 20.3518 126.576 20.4407 126.5867 20.4412 126.9169 20.4531 127.5346 20.4757 130.7857 20.6136 136.7222 20.7673 138.0871 20.8613 138.9879 20.8002 142.6319 20.8406 142.6539 20.8408 143.3231 20.8648 143.3495 20.8658 144.2859 20.8934 145.855 20.9395 150.6143 21.0488 153.563 21.1402 158.5086 21.3062 166.1722 21.5186 169.1052 21.5992 171.7337 21.7016 171.7411 21.7016 172.1139 21.7014 172.1458 21.7076 174.2208 21.7976 174.2331 21.7979 175.7424 21.8353 177.5722 21.8926 177.7906 21.8712 180.8797 21.9763 188.7014 22.1638 189.1496 22.1783 189.6158 22.1936 207.2959 22.7478 214.0675 23.0287 214.0754 23.0291 214.3317 22.7007 214.8118 22.2506 215.3569 21.54 215.5154 21.151 215.5684 20.6989 215.529 20.3358 215.5857 20.0217 215.7194 19.7817 215.8871 19.1919 216.0563 18.1088 215.9583 16.8471 215.8117 15.7062 215.4683 14.443 215.3475 13.1503 215.0262 11.0033 214.1129 7.8536 214.1357 7.2582 214.0142 6.7064 213.8794 6.3882 213.3635 5.5212 213.0342 4.5033 212.8596 2.4095 215.2093 2.4659 218.2162 2.6265 230.9429 4.1921 232.9932 4.3818 232.607 7.8416 242.5112 7.6579 247.13 7.6179 251.9738 7.5733 258.934 7.54 259.1052 7.5421 269.8477 7.496 270.6603 7.492 271.7106 7.4695 272.6875 7.4801 272.6887 7.4801 275.3003 7.489 278.7604 7.4995 279.0951 7.4949 279.8394 7.4987 281.7595 7.5083 284.813 7.5226 285.0967 7.5302 287.9037 7.5424 289.421 7.5509 289.4673 7.5505 300.0181 7.5802 304.9611 7.5261 309.4651 7.4744 319.048 7.2717 319.0991 7.2666 323.8249 7.226 325.7527 7.1987 327.0997 7.1564 327.3023 7.1479 327.5898 7.1578 332.132 7.0348 332.5314 7.0238 336.6524 7.0034 346.4583 6.7197 346.5817 6.718 347.9637 6.6804 350.311 8.8495 350.3318 8.8404 351.4857 8.3384 351.6003 7.5612 352.2088 7.668 352.1725 8.0495 355.4625 6.7003 358.5916 6.7929 358.5993 6.7923 358.7109 6.7826 359.0481 6.7741 364.2622 6.9206 367.5851 7.0123 367.6954 6.9756 369.0385 7.0078 371.4144 7.1291 375.0388 7.5171 381.5411 8.019 381.8215 8.0263 382.0654 8.052 382.0861 8.0597 383.0646 8.143 383.1203 8.1477 383.7857 8.1897 394.346 8.7946 394.4627 8.7838 398.3267 9.1291 398.8042 9.1721 398.8379 9.1772 404.0372 9.3587 405.4863 9.4088 413.3541 9.8836 417.1622 10.0459 419.9642 9.9883 421.1377 10.0467 421.1406 10.0468 426.3248 10.1767 431.2651 10.4026 442.7544 10.5865 442.8033 10.5924 448.5699 10.6268 453.3081 10.1822 453.8839 10.128 462.6463 9.5862 463.5091 9.3953 465.7239 9.3846 466.1175 9.2226 466.1288 9.2208 466.614 9.146 467.9232 9.1247 475.3133 9.1558 484.3798 9.3873 485.2676 9.4407 490.9136 9.6572 494.4042 9.9149 495.4628 10.0271 498.2919 10.3263 505.9925 10.9035 505.9907 10.9112 507.5152 11.0358 511.11 11.0778 512.7869 11.1525 512.7923 11.1527 513.4214 11.1612 527.4479 11.3383 534.9249 11.5786 538.869 11.4592 544.0846 11.4271 559.7695 11.5851 560.668 11.5547 563.7721 11.465 563.7847 11.4649 572.889 11.3498 585.6449 11.2571 585.666 11.2574 590.8615 11.3464 594.1826 11.4017 603.8128 11.4505 612.7906 11.3588 612.9583 11.1492 613.0682 10.8274 613.4631 10.2475 613.7766 10.0227 613.9877 9.7323 614.1183 9.5011 614.1296 9.2467 614.6108 9.2354 614.612 9.2391 616.8542 9.2641 618.9559 9.4267 624.9642 9.334 632.6938 9.1211 641.5629 8.8439 650.5563 8.4744 651.9589 8.9197 652.9436 8.883 652.9807 8.8861 653.069 8.8914 673.1909 8.2225 673.292 8.2243 677.135 8.106 685.9932 7.8272 691.2432 7.6054 703.5225 7.1616 704.9724 7.1073 711.4172 6.8171 715.7995 6.5683 715.918 6.5637 716.4173 6.5357 722.526 6.1884 723.3083 6.1841 724.4123 6.2664 739.8669 5.499 740.1272 5.488 744.7698 5.2908 746.2773 5.2262 746.3627 5.2225 746.5698 5.2163 746.7271 5.1991 747.7027 5.1525 747.7494 5.1606 749.7577 5.1428 750.4653 5.1412 750.7843 5.1457 751.0827 5.1513 753.2014 5.0529 753.3978 5.0394 753.6709 5.0284 765.1628 4.5599 772.9366 4.2345 773.869 1.6863 782.6129 1.5129 790.7997 1.3389 799 1 796.3425 3.8392 796.1199 4.1459 796.2566 4.8913 796.4455 5.3963 796.4841 5.8146 796.2315 6.0659 795.6432 6.1738 795.2926 6.0994 795.1022 6.4468 795.1499 6.7924 795.3521 7.1304 795.4653 7.5501 795.4026 7.9812 795.072 8.3468 794.7613 8.8998 794.566 9.4383 794.5819 9.7662 793.8561 9.8714 793.8513 10.3383 793.947 11.0186 794.4373 11.6542 794.6468 12.2283 794.6944 12.3436 794.7463 12.4864 794.768 12.6425 794.9399 12.9825 794.9371 13.0856 795.0008 13.3852 794.9434 13.4818 794.7829 13.8538 794.7563 13.8995 794.798 14.1774 794.954 14.2608 795.0515 14.3792 795.1054 14.6897 795.2 14.8917 795.1117 15.6754 795.2542 16.7212 795.3923 16.8326 795.4258 16.9655 795.3843 17.5793 795.1587 17.9513 795.0492 18.0457 794.8787 18.025 794.2355 18.2829 793.6568 18.8796 793.6604 19.3187 793.7469 19.5865 793.7743 20.0333 793.6963 20.346 793.6819 20.6944 793.7278 21.0013 793.7389 21.2326 793.6027 21.6255 793.534 22.1276 793.3129 22.8472 792.5128 23.6957 792.1236 23.9511 791.7743 24.2622 791.6726 24.7307 791.7002 25.3089 791.879 25.8028 792.2653 26.083 792.4949 26.3532 792.5971 26.5416 792.6719 26.8085 792.6152 27.391 792.4994 27.7439 792.4559 28.1324 792.6232 28.4024 793.1168 28.9679 793.3277 29.482 793.3461 29.8676 793.39 30.1359 793.5032 30.5555 793.6364 30.7424 793.93 31.0376 794.3383 31.1342 794.9129 31.49 795.1627 31.9515 795.1201 32.3358 795.0037 32.7202 794.4836 32.866 794.1076 32.6491 793.7442 32.3842 793.2851 32.2101 792.8203 32.1384 792.4633 32.189 792.0494 32.3378 791.6066 32.5841 791.2999 32.6467 790.7006 32.7105 790.3744 32.6739 790.1229 32.6085 789.9642 32.5387 789.6251 32.5932 789.3488 32.3185 788.4986 31.7574 788.1856 31.6196 787.9335 31.6293 787.6182 31.5281 787.3539 31.1928 787.1826 30.853 786.8564 30.5205 786.3488 30.5187 785.6899 30.9996 785.2814 31.3666 784.4173 31.6627 783.4466 31.8763 782.7309 32.3671 782.3472 32.7221 781.8825 33.0694 781.3079 33.4049 780.8006 33.9497 779.836 35.2493 779.6836 35.6111 779.4032 35.8869 778.7085 36.4398 778.0493 36.6988 777.7615 36.682 776.8357 37.3431 776.0012 39.0784 774.7554 41.6674 774.7532 41.6719 774.261 42.6939 772.4648 45.9572 766.87 57.36 766.9025 57.4725 766.7073 58.0393 766.3236 58.5005 765.8801 58.4404 765.3085 57.9759 764.3664 57.8579 764.2068 58.1953 764.2229 58.5591 763.7751 59.4445 763.2489 59.593 762.1211 60.2689 762.0885 60.3615 762.0147 60.36 761.5552 60.3506 760.4013 60.4352 760.1146 60.3907 759.7567 60.1899 759.4218 60.3071 758.8754 60.6269 757.7851 60.6971 757.4543 60.4836 756.7176 59.0165 756.8281 58.54 756.8029 57.9602 756.3722 57.136 756.0304 56.2395 755.656 55.6519 754.9297 55.8427 754.4851 56.0403 753.718 56.0656 753.4532 56.0997 753.3028 56.2315 753.1484 56.4026 752.8532 56.4806 752.5132 56.4475 752.4089 56.3722 752.3032 56.2628 752.007 55.9939 751.6267 55.9045 751.3093 55.7813 750.9386 55.4895 750.693 55.2437 750.4023 55.0164 749.8083 54.82 749.5695 54.8188 749.1542 54.9821 748.8286 55.1008 748.7308 55.3486 748.6054 55.8962 748.3068 56.2948 747.7329 56.8773 747.676 56.9905 747.5941 57.0875 747.4765 57.1764 747.1367 57.4274 746.9851 57.7527 746.8909 57.9314 746.6196 58.1606 746.216 58.0243 746.0804 57.8592 745.7983 57.8465 745.4295 57.8865 745.1716 58.3073 744.9694 58.6001 744.6916 58.6771 744.4868 58.6207 744.194 58.4279 743.7765 58.5478 743.6192 58.5202 742.8451 57.8007 742.752 57.7704 742.0107 58.0518 741.5443 58.3217 741.1542 58.6568 741.0353 58.8895 740.1905 59.5623 739.8951 59.7292 739.5547 59.7647 739.1963 60 738.9132 60.0676 738.5131 60.3149 737.5854 60.3188 737.4385 60.2428 737.2922 60.1144 736.8223 60.3045 736.3641 60.7788 736.3172 60.894 735.8131 61.2522 735.3771 61.4137 734.9978 61.5179 734.7173 61.8482 734.5776 62.2525 733.7173 62.5608 732.43 63.6721 731.9907 64.1682 731.3787 65.4041 727.6362 72.953 727.2839 73.1152 726.4282 73.8781 725.6942 74.1674 725.5904 74.3468 725.5859 74.6224 725.4975 74.7417 725.2519 74.8898 725.2486 74.8987 724.1172 75.9679 723.6633 76.5417 723.6569 76.5429 723.5095 76.5711 723.0095 76.797 722.6547 76.7775 722.2732 76.9433 722.0909 77.0868 721.3071 77.2596 720.9984 77.5337 720.5874 77.6377 720.2992 77.7766 719.6522 78.2254 719.3458 78.6527 718.9452 79.4343 718.0528 79.2809 717.3356 78.9861 717.1932 78.8924 717.0758 78.3343 716.768 78.1911 715.7557 78.1358 715.4953 78.2641 714.992 78.3655 714.3066 78.2327 714.0131 78.0861 713.9301 77.6327 713.9828 77.2863 714.3201 76.1341 714.5373 75.7986 714.2676 75.2565 713.7418 75.1265 713.7006 75.0698 713.4863 74.3598 713.5366 73.9935 713.5773 73.8553 713.7545 73.6776 714.3943 72.2887 714.7679 71.8658 715.1685 71.3678 715.2127 70.9577 715.0829 70.7028 714.8334 70.4525 714.6395 70.0887 714.4328 69.8221 714.126 69.7003 713.7875 69.2691 713.4229 69.1122 712.9978 69.0602 712.9887 68.5823 713.0491 68.2383 712.9123 68.0272 711.9956 67.3788 711.6219 66.9831 711.1717 66.9888 710.5972 67.3523 710.0129 67.9439 709.5928 68.1397 709.3676 68.1014 708.8773 68.3057 708.363 68.5642 707.9514 68.8644 706.9966 69.3901 706.8911 69.5194 706.8305 69.8633 706.542 70.2613 705.4395 70.7808 705.2551 71.0155 704.87 71.2918 704.1691 71.4887 704.1396 71.6834 704.1692 71.9842 704.1203 72.151 703.3038 72.7052 703.0454 72.6806 702.6817 72.7966 701.0585 74.1776 700.6614 74.3858 700.23 74.4132 699.6653 74.5706 698.7001 74.9362 698.5877 75.0874 698.4753 75.2976 698.4197 75.811 697.8993 76.352 697.9006 76.4505 697.9147 77.5052 698.2727 77.8603 698.4105 77.8777 698.5645 77.8235 698.7696 77.9191 698.9181 78.131 698.6776 78.7167 698.1953 78.9541 698.0664 79.0815 697.9967 79.2406 698.0256 79.6152 697.8459 80.4266 696.6868 81.3808 696.2141 82.1059 696.1887 82.2241 696.2323 82.4038 696.5298 82.9837 696.5231 83.111 696.3371 83.3279 695.9651 83.333 695.7803 83.3898 695.3262 83.7268 694.8079 83.9901 694.7399 83.9137 694.3907 83.1076 694.1119 82.752 694.0033 82.7513 693.7048 82.5319 693.065 81.9659 692.9424 81.7932 692.1277 81.1334 691.8736 80.9925 691.1291 81.2081 690.3264 80.8797 690.1963 80.7221 689.8723 80.653 688.9877 81.0836 688.2014 81.5681 687.8093 81.6455 687.6681 81.5977 687.6641 81.5964 687.3988 82.447 687.4365 83.1593 687.3696 83.3432 687.2772 83.4977 687.0138 83.6582 686.6239 83.7022 686.5548 83.8256 686.523 84.3107 686.575 85.0953 687.0417 85.9117 687.3018 87.0853 687.5666 87.5406 687.5773 87.8427 687.4169 88.1509 687.4009 88.3934 687.6826 88.7464 687.8144 89.014 687.873 89.2841 687.8358 89.6182 687.6981 89.8518 686.3294 90.6391 686.1667 90.8868 686.0827 91.2831 685.973 92.363 686.1697 93.0646 686.0845 93.4305 685.8005 93.7128 685.4155 93.8045 685.0293 94.0725 684.9175 94.4677 684.5514 95.1176 683.9692 95.3294 683.8179 95.4458 683.2516 96.4311 682.9337 97.1687 682.9066 97.3892 682.6645 97.9158 682.42 98.2468 682.3381 98.8605 682.406 99.1282 682.3463 99.2464 682.2435 99.4498 681.7324 99.5036 681.3 99.8457 680.9522 100.3336 680.4581 100.8745 679.729 101.3621 679.3865 101.4672 678.8615 101.4142 678.42 100.8996 677.8329 100.7587 675.6072 99.9705 675.3054 100.0523 675.0198 100.2179 674.8871 100.2293 674.6825 100.1786 674.4705 99.9747 674.0813 99.7782 673.5644 99.9444 673.2781 100.1211 673.0512 100.1436 672.2848 99.9796 672.1116 99.7911 671.6804 99.8675 671.0977 100.3058 671.0277 100.5549 670.0296 101.449 669.755 101.6064 669.7452 101.6023 669.7543 101.6087 669.5607 101.578 669.3552 101.6806 669.3376 101.7666 668.8231 102.0759 668.5334 102.1655 667.9472 102.6377 667.2466 102.4492 665.4817 102.8452 665.3825 102.9429 664.8293 102.9627 664.3543 102.9085 664.1452 103.0895 663.8469 103.4861 663.8038 103.6315 663.8794 104.0939 663.4126 105.0781 663.2569 105.0979 662.7451 105.3496 662.4558 105.9319 662.352 106.3212 662.0416 106.9691 661.7943 106.9876 660.8971 107.5066 660.7262 107.5307 660.3872 107.4025 659.4034 107.6754 659.1707 107.5328 658.89 107.4451 658.6476 107.5056 657.7792 107.5379 656.981 107.488 656.8573 107.8474 656.735 107.9771 656.0298 108.2974 655.6644 108.7287 655.6569 108.8586 655.6561 108.8719 655.7585 109.1661 655.792 109.4934 655.7195 109.7669 655.6382 110.1264 655.738 110.4043 655.7128 111.0235 655.4962 111.5014 655.2168 111.8244 654.8407 112.0219 654.4895 112.2757 654.3096 112.7285 653.9381 112.9694 653.4181 113.1748 652.6925 113.5725 652.5591 113.7897 652.5423 114.4172 652.3206 115.0176 652.0142 115.5018 651.5469 115.7084 650.7944 115.9154 650.5838 115.8813 650.0937 115.4176 649.7853 114.9945 648.496 114.732 648.2534 115.0124 647.378 115.3353 647.1926 115.2978 646.9833 115.4176 646.7869 115.6946 646.6341 116.0233 646.6578 116.2838 646.5887 116.5499 646.4129 116.8675 645.636 117.8646 645.525 117.9278 645.3212 117.9338 645.1506 117.8131 645.0099 117.8601 644.7339 118.13 644.6306 118.377 644.4204 118.3596 643.6418 118.5109 643.6571 118.6507 643.3079 119.4875 642.9489 119.7687 642.3122 119.9481 642.0859 120.0834 641.5619 120.4709 640.7866 120.8873 640.7381 121.1017 640.6829 121.1501 639.6964 121.3213 638.8681 121.1413 638.4424 121.1467 638.3296 121.5074 637.8597 122.1756 637.5718 122.7389 636.9472 123.3773 636.1522 123.6621 636.0354 123.7998 636.0425 124.0925 635.8004 124.3019 635.4618 124.478 635.4419 124.5414 635.5272 124.9444 635.3421 125.2424 634.9161 126.2145 634.3547 126.3831 633.7491 126.8432 631.9716 126.9075 631.6941 126.6046 630.4304 126.7474 629.8115 126.6475 628.7673 126.8318 628.1097 126.7994 627.4747 126.6812 626.8905 126.7519 626.5328 126.9328 626.0142 127.0994 625.6814 127.0796 625.5346 126.9613 625.4617 126.6279 624.847 125.968 624.129 125.383 623.8525 125.2642 623.4747 125.2622 622.8981 125.8959 621.5839 126.6313 621.3375 126.5011 621.0192 126.6151 620.8977 126.7406 620.5943 126.8653 620.1343 126.9065 619.4166 126.6435 618.9724 126.5531 618.6988 126.6749 618.5081 126.5742 618.5019 126.5738 618.2008 126.554 617.5713 126.6186 617.2737 126.477 616.5489 126.6608 615.2861 126.7517 615.0261 126.8419 614.8933 126.8441 614.7292 126.7526 614.419 126.7545 613.1782 127.3784 612.9356 127.5526 612.0543 127.4311 611.7956 127.1755 610.4931 127.7008 609.8362 127.4384 609.5845 127.5717 609.1313 127.6923 608.4702 127.6437 608.3586 128.1764 607.7288 128.9987 607.121 129.3774 605.6916 130.0537 605.1259 130.6573 605.0317 130.8994 603.6012 132.1295 603.4287 132.0402 603.015 132.038 602.2556 132.4225 601.4943 132.7039 600.9898 132.5119 600.4912 132.4345 599.8321 132.5584 599.2562 132.5463 598.5741 132.8367 598.3483 133.0203 598.2036 133.5281 597.5081 134.6458 597.4218 134.7431 597.1788 134.7931 596.6651 135.411 596.6666 135.5561 596.7811 135.6769 596.7714 135.8019 596.6671 136.0401 596.2945 136.2732 596.0829 136.8093 595.9826 137.3449 595.7608 137.77 595.302 138.0565 595.0469 138.0907 594.5518 138.0441 594.1044 138.1183 593.4361 138.3419 592.9704 138.838 592.901 139.0867 592.319 139.5472 591.9969 139.6153 591.7545 139.3002 591.5297 139.2197 591.2305 139.2348 591.2313 139.2791 591.2314 139.2809 591.234 139.3832 591.2112 139.7642 590.8678 140.239 590.7369 140.2943 590.4402 140.2444 590.2934 140.2819 590.14 140.5774 590.1605 140.9936 589.6792 141.1306 589.2359 141.764 588.3828 142.2724 588.0192 142.7711 587.885 143.113 587.7968 143.6439 587.7378 143.7522 587.5278 144.0593 587.2491 144.2555 586.6709 144.8954 586.4019 145.2889 586.1353 145.3863 585.8585 145.5454 585.7585 145.8238 585.7926 146.1913 586.0547 146.6859 586.1214 146.764 586.3918 146.8258 586.4957 146.903 587.0625 147.7318 587.0643 147.8114 586.8513 148.2149 586.8005 148.421 586.9349 148.6113 587.0841 149.0403 587.1704 149.8603 586.49 150.6498 586.1267 151.2617 586.0399 151.4989 585.7456 151.88 585.6259 151.9193 584.6523 152.2911 584.4554 152.4077 584.4049 152.5781 584.9597 153.8761 585.0682 153.9198 585.2526 154.2843 585.1641 154.5954 585.0021 154.8155 584.9852 155.0496 584.9858 155.1875 584.7246 156.0514 584.7191 156.6093 584.7864 156.7101 585.3752 156.8783 585.5823 156.9986 586.0766 157.8861 585.8967 158.5278 585.4964 158.8788 585.3889 158.949 584.7554 159.363 584.1608 160.5495 583.2638 161.5269 582.9808 161.7384 582.242 161.9265 581.609 162.2713 581.2298 162.3485 580.6405 162.5939 580.4889 162.8551 580.4843 163.0601 579.6391 163.888 579.1541 164.195 578.71 164.1218 578.628 164.0478 578.1305 163.8829 577.6822 164.0468 577.5798 164.0377 577.5191 163.9613 577.496 163.8852 576.9502 163.8742 576.6027 163.9748 576.5388 164.0273 576.4348 164.3598 576.3936 164.596 576.2492 164.6829 576.094 164.7223 575.8397 164.6922 575.5475 164.5735 575.2375 164.4212 574.9192 164.3488 573.7879 164.4197 573.4551 164.4955 573.3208 164.7261 573.2382 164.7735 572.5545 164.527 572.3873 164.5308 571.7828 164.9313 571.6477 165.1278 570.7299 165.2278 570.3693 164.8829 569.7269 164.8288 569.6316 164.7171 569.4754 164.3676 569.3478 163.4607 569.1152 163.1804 569.0932 163.0216 568.4924 162.3064 568.0699 162.0993 567.3802 161.9892 567.0024 162.134 566.6385 162.4947 565.8817 163.6037 565.6265 163.8369 564.7253 164.2775 564.2781 164.6627 564.0469 165.1571 562.6612 165.9947 562.018 166.7937 561.956 166.943 561.5186 167.1922 561.3659 167.1717 561.3062 167.0711 561.1575 169.2234 561.1574 169.2248 560.9434 171.9877 560.7212 173.6966 560.1957 178.9166 559.9248 182.1693 559.9128 182.2164 559.8106 183.7981 558.9171 194.1139 552.203 194.2894 552.1128 194.2956 541.4761 194.5017 541.3985 194.5058 530.9982 194.6593 530.6774 194.7049 521.1249 194.8637 520.7903 194.8615 516.6128 194.9625 513.6051 195.034 513.5067 195.0382 513.3861 195.0358 513.3614 195.0353 512.7519 195.0291 512.4535 195.0156 512.1246 195.0442 511.3982 195.0217 508.9537 195.0887 508.6477 195.0882 501.3783 195.1818 500.9017 195.1945 499.8576 195.2134 497.8678 195.2599 497.5988 195.2661 491.5235 195.4389 491.5113 195.4363 478.894 195.6879 478.3952 195.7029 475.5386 195.7729 475.4174 195.7743 475.1659 195.7886 475.0448 195.8014 474.2525 195.8105 473.7676 195.816 471.9595 195.8706 471.0181 195.8925 470.0114 195.915 469.8529 195.9167 468.2738 195.9707 467.6225 195.9978 467.2525 196.0017 467.2521 196.0018 466.9916 196.0159 465.2051 196.0739 461.8037 196.1835 459.842 196.2472 452.221 196.3209 451.5317 196.3168 444.2135 196.2693 439.3116 196.2342 418.8688 195.9729 418.4667 195.9724 415.1838 195.9649 396.7531 195.9012 373.4773 195.7674 372.7793 195.7621 365.4661 195.7031 362.0423 195.7663 358.8845 195.8077 354.2099 195.8023 353.2266 195.8009 350.6741 195.7624 349.2427 195.7547 349.2343 195.7546 347.5884 195.7297 346.5557 195.7222 342.7174 195.6547 342.7005 195.6546 341.0022 195.6435 339.9541 195.6165 339.6271 195.6153 339.4066 195.6067 339.3236 195.6064 329.4403 195.5844 329.4385 195.5844 325.9882 195.5868 324.5293 195.5797 324.5233 195.5796 323.5821 195.564 323.2719 195.5551 322.7823 195.551 322.1203 195.5455 312.3359 195.2109 312.0456 195.1925 311.824 195.1838 311.6562 195.1937 309.2707 195.109 308.2298 195.0974 297.8404 194.7758 289.6287 194.5132 289.0767 194.4942 288.3899 194.4677 287.785 194.4444 284.107 194.3075 281.3886 194.2217 276.723 194.0903 275.7884 194.0623 273.7578 194.0076 272.8034 193.9683 270.3725 193.9086 269.9864 193.9032 269.3276 193.8828 268.5391 193.8694 252.7801 193.5888 251.0239 193.5559 247.3799 193.5314 246.7013 193.5207 244.3321 193.4525 243.9866 193.4323 243.8209 193.4349 243.1529 193.4092 238.5505 193.2733 237.7388 193.2534 237.1814 193.2267 229.8863 193.0368 229.7441 193.0437 229.7331 193.0475 227.9536 193.0166 227.4768 193.0158 227.4555 193.0205 222.8894 192.9265 218.5552 192.8351 217.4911 192.8124 216.0828 192.7821 197.1805 192.2057 197.2656 192.5041 197.3582 193.3761 197.4241 193.6209 192.4148 193.5339 192.0152 193.5364 182.1935 193.325 180.6118 193.29 172.2939 193.0631 172.2868 193.0651 168.1561 192.987 142.7805 192.4663 139.3865 192.3918 136.7795 192.3338 133.4343 192.1584 129.8678 192.1819 121.3109 191.9407 120.4344 191.9155 109.9604 191.6939 109.9474 191.6961 108.2989 191.6923 104.4401 191.5171 102.6583 191.4371 90.0642 191.1279 85.1255 191.0018 82.4036 190.9312 77.569 190.7521 76.9334 190.6878 75.3139 190.5907 70.2969 190.4022 62.946 190.1209 62.9245 190.1201 55.4748 189.8751 53.8498 189.8208 52.1896 189.7973 48.8766 189.7494 47.2069 189.6942 43.9163 189.5845 40.6712 189.4599 40.6356 189.4582 39.7377 189.4153 38.9879 189.3851 30.7597 189.0498 27.4937 188.9147 24.1667 188.7758 20.8597 188.6365 1.0543 187.7771 1 186.7954 1.0637 186.1768 1.3789 185.228 2.003 184.0462 2.3601 183.0244 2.5281 182.7806 2.6356 182.7241 2.8703 182.6008 5.3455 182.8712 5.4818 182.9564 5.5096 183.1967 5.5977 183.3255 6.1378 183.5635 8.5301 184.0202 9.0652 184.1962 9.8413 184.6724 10.0146 184.7082 10.4814 184.6411 11.3711 183.9626 11.7658 183.4558 11.7222 182.7404 11.7265 181.9362 11.8026 181.3236 11.9621 180.6858 13.3691 177.3694 13.8816 175.0337 14.2087 174.365 14.2552 174.3194 15.0084 173.5815 15.5135 173.191 15.9004 172.96 16.9673 172.5468 17.1439 172.5415 17.4893 172.6797 20.1761 174.5035 20.9841 174.7851 21.9182 174.6392 22.2869 174.4834 22.6005 174.2801 23.7785 173.1953 24.2245 172.7113 24.343 172.5222 24.4279 172.1917 24.2986 170.9965 24.2577 170.9078 24.0384 170.6937 22.1027 170.321 21.8679 170.2029 21.5493 169.7639 21.2646 169.3546 20.9604 168.9437 20.7577 168.6267 20.5377 168.1769 20.452 167.7318 20.2752 167.7035 19.9985 167.3453 19.7301 166.6291 19.7279 166.3238 19.8882 165.4272 20.5502 165.3835 21.6145 165.9154 21.7021 165.9126 22.0334 164.9648 22.5073 163.9474 22.9144 164.1854 23.1781 164.454 23.5848 164.3939 23.8328 164.0973 23.8673 163.4648 23.8107 163.0776 23.6458 162.6211 23.4868 162.2278 23.1154 161.756 22.8182 161.3011 22.4221 160.5492 21.8012 159.6378 21.6642 159.472 21.157 159.1228 20.6972 158.9721 20.1064 158.9115 19.4446 158.977 18.6464 159.1521 17.875 159.2237 16.8062 158.7608 16.2071 157.9872 15.543 156.5934 15.3588 156.0738 15.3644 155.7427 15.7542 154.4835 15.8951 154.1557 16.1472 153.8426 16.3688 153.6592 16.8888 153.4573 17.2255 153.3907 18.1596 153.9349 18.8259 153.7717 19.6483 153.3432 19.8191 153.3492 20.2446 153.4967 21.0046 153.3434 21.2995 151.1192 21.6075 150.2443 21.0565 149.0409 21.1924 149.0688 21.3342 149.011 22.0207 148.0721 22.3661 147.448 22.6889 147.088 22.9684 147.0531 23.2184 146.7912 23.6199 146.1771 24.5035 144.4623 24.2291 144.4121 24.0511 144.3175 23.3516 143.6569 22.8212 143.3524 22.5461 143.1228 21.8147 142.3852 21.6438 142.1678 21.3177 141.5566 21.143 141.3725 20.7426 141.1818 19.4954 140.8998 19.0617 140.9705 18.8003 141.1274 18.4377 141.4489 18.2639 141.6577 18.0997 141.9831 17.9786 142.4669 17.9892 142.9671 18.1783 143.8259 18.8681 145.0979 17.9876 145.2955 16.0139 145.2058 15.4582 144.8497 14.9264 144.3265 14.8545 143.9705 15.7567 141.1734 15.8024 140.2314 15.9656 139.8391 18.6964 138.2793 19.713 137.6984 20.3742 135.6829 20.6331 135.0224 20.8525 134.6835 21.2364 134.2797 21.8743 133.7954 22.4256 133.8219 22.7141 133.6387 23.983 133.6599 24.4258 133.9036 25.1371 134.6245 25.5205 135.1547 25.5756 135.3153 25.5528 135.7558 25.1261 136.9488 24.827 138.159 24.8011 138.7989 25.0822 140.0272 25.8371 140.9796 25.1353 141.7357 26.2859 142.2942 26.7344 141.8274 27.2548 141.2855 27.3849 141.0093 27.5019 140.5814 27.6563 140.3588 27.855 140.1741 28.7067 139.6668 28.7526 139.2228 28.9492 138.8124 29.1399 138.5184 29.222 138.2695 29.213 137.7264 29.2527 137.3955 29.4981 136.6677 29.7132 136.3211 30.0427 135.4861 30.0409 135.1459 29.9229 134.862 28.6178 133.623 27.8773 132.2749 27.6838 131.7853 27.4662 130.886 27.3503 129.6383 27.4898 128.8485 27.7856 128.0244 27.9311 127.7947 28.2134 127.1436 28.4633 125.949 28.6698 125.6963 29.1152 125.3588 29.5218 125.1681 29.9622 125.0609 30.5698 125.1225 31.1419 124.7899 31.4202 124.691 32.2838 124.5986 32.8384 124.6633 33.1691 124.7588 34.3492 125.5055 35.9444 126.9503 36.1003 127.2218 36.1785 127.7771 36.1603 127.925 35.9664 128.2696 35.9564 128.6032 36.0762 128.7896 36.532 129.2309 36.824 129.4439 37.0969 129.5339 38.1483 129.6694 39.0977 130.1722 39.4495 130.2486 39.8181 130.1198 40.1482 129.871 40.43 129.5239 40.5658 129.256 40.9611 127.9915 40.9202 127.8162 40.8146 127.6902 40.5199 127.5363 40.4853 127.5199 40.3415 127.4516 40.3421 127.1835 40.4432 126.8496 40.3774 126.4511 40.0734 126.1898 39.7758 126.1111 39.1557 126.0597 38.7018 125.931 37.5867 125.3195 37.2918 124.8813 37.106 124.5019 36.4849 123.0589 36.2769 122.4391 36.1799 121.9717 36.1898 121.7714 36.3093 121.4057 36.5654 120.9878 36.8557 120.631 37.4031 120.182 38.6208 119.5145 39.8283 119.061 40.5357 118.5381 40.6748 118.4884 41.0992 118.6622 41.6709 118.8065 41.9278 118.8362 42.1755 118.7708 43.8642 117.5659 45.0511 117.1378 45.7358 116.7461 46.0032 116.321 46.2181 115.6454 46.331 114.9723 46.3314 114.1497 46.1387 113.5049 45.6625 112.8016 45.4505 112.6797 45.1283 112.6315 44.4474 112.8231 43.969 113.0736 43.8366 113.2187 43.4043 114.0408 43.2065 114.3019 43.0116 114.4623 42.6806 114.5902 41.8986 114.7331 41.2322 114.6814 40.3825 114.4641 39.7171 114.1538 38.972 113.5855 38.4098 112.9195 37.9584 111.8313 37.3005 110.9745 37.0272 110.5106 36.8188 110.0243 36.762 109.4681 36.7979 107.6257 36.669 106.2365 36.7032 105.7968 36.9512 105.1592 37.1722 104.8514 37.5235 104.5987 40.7984 102.8485 41.0257 102.5852 41.3234 102.3576 41.733 102.4104 43.2975 103.4905 43.7033 104.0852 44.2674 104.5172 44.6737 104.5399 45.5264 103.854 46.1051 103.5918 47.1756 102.9862 48.4119 103.1246 49.15 103.0586 49.4958 102.9569 50.1319 102.6123 50.281 102.4794 50.6268 102.1244 51.5957 100.8993 51.8004 100.3738 51.8269 100.0865 51.6404 99.4132 51.9347 98.9335 53.3225 97.5844 54.8451 97.1334 54.8533 96.94 55.5473 97.0552 56.8971 97.6258 57.726 97.6139 58.7168 97.2829 59.0488 97.0467 60.349 96.3282 60.5605 96.1053 60.7717 95.662 60.8521 95.2105 60.8295 94.8957 60.7059 94.5307 60.5769 94.3472 60.1371 93.9694 58.3059 92.9132 56.4938 92.2442 55.1414 91.5869 54.6875 91.2015 54.4204 90.7891 54.3536 90.5216 54.3457 90.035 54.4291 89.5202 54.5469 89.128 54.849 88.3484 55.1485 87.831 56.0383 87.0922 57.4595 86.1522 59.8782 86.293 62.3075 87.4355 62.8622 88.2465 63.2882 88.7472 63.9654 89.0479 64.3227 89.0578 65.0594 88.8039 65.2773 88.679 65.7318 88.2425 66.0612 87.7936 66.3212 86.7285 66.1629 86.3068 65.8665 85.1824 65.7022 84.7593 65.3631 84.2527 64.0245 83.0704 63.5366 82.5136 62.6168 81.665 61.4508 80.9024 60.521 80.2142 60.1347 79.8356 59.7663 79.2252 59.6955 78.9204 59.6832 78.5008 59.8316 77.3222 59.8016 77.2118 58.979 76.3189 58.7369 75.9335 58.5791 75.5034 Z"/>
</g>
</svg>