<?xml version="1.0"?>
<svg xmlns="http://www.w3.org/2000/svg" version="1.2" baseProfile="tiny" width="800" height="766" viewBox="0 0 800 766" stroke-linecap="round" stroke-linejoin="round">
<g id="cb_2018_us_state_5m">
<path d="M 232.9559 1.0802 276.0802 2.3965 276.3943 2.3812 281.1282 2.5341 283.2517 2.5896 283.4467 2.569 288.5948 2.7054 294.453 2.8554 300.4012 3.0582 300.4048 3.0667 302.6082 3.1072 302.8809 3.1113 302.9597 3.1124 303.0387 3.1136 303.1062 3.1146 307.1306 3.2057 307.7403 3.2344 310.3219 3.2861 310.5367 3.2907 312.0319 3.326 342.961 3.93 344.8412 3.9379 345.2481 3.9461 349.1667 4.0038 350.4836 4.0238 351.5227 4.0393 352.5302 4.053 354.5021 4.0777 354.5075 4.0778 355.91 4.0978 356.4164 4.1041 357.944 4.1316 357.945 4.1316 358.9804 4.1421 358.9814 4.1449 359.1687 4.1484 359.17 4.1485 361.5288 4.1809 361.5288 4.1836 363.6794 4.2122 363.6794 4.2138 364.5831 4.2259 364.5829 4.2282 367.504 4.2682 367.5041 4.267 368.045 4.2741 368.0449 4.2764 371.2456 4.3149 371.2489 4.315 371.2492 4.3178 371.7668 4.3201 371.7759 4.3231 372.0783 4.3253 372.0783 4.327 373.9143 4.3552 374.7717 4.3651 374.7717 4.3688 374.814 4.3728 374.8235 4.3646 375.2879 4.3746 379.9495 4.4113 379.9496 4.4133 380.3576 4.418 381.0831 4.4262 381.0847 4.4233 381.525 4.431 381.5298 4.4293 383.5353 4.4462 383.5377 4.4514 385.0735 4.4635 385.0741 4.4645 386.0722 4.4779 386.0735 4.4765 386.6648 4.4651 387.406 4.4756 387.4191 4.4716 387.4406 4.4751 394.8743 4.541 400.1129 4.5816 405.0677 4.6115 405.2605 4.6126 405.0254 36.2298 404.9336 48.6772 404.7968 67.3351 404.6945 81.3594 404.5706 98.447 404.4922 109.3094 404.3468 129.5622 404.3467 129.5695 404.252 142.8296 404.4214 142.8368 405.1079 142.8659 405.76 142.7816 405.9492 142.7213 406.3009 142.462 406.6984 142.0772 406.7789 141.9751 406.7789 141.8709 406.8292 141.7032 406.9565 141.5847 407.4775 141.511 408.4404 141.6993 408.7997 141.8557 408.8807 142.1629 409.2336 142.4703 410.2194 143.2017 410.3921 143.2222 410.5237 143.3165 410.9107 143.6877 411.6558 144.5446 411.7227 144.6694 411.7741 144.902 411.9727 145.2228 412.9015 146.371 413.3947 146.7166 414.0842 147.1995 414.5296 147.3782 414.9464 148.0764 414.9127 148.2806 415.1701 148.9079 416.3773 150.5058 417.0043 151.1888 417.4311 151.2006 418.0266 151.684 418.0718 151.7595 418.0681 151.8428 417.9039 152.0856 417.9278 152.1822 418.6902 152.843 419.4745 153.3121 420.0959 153.5661 420.6891 153.9214 420.9147 154.1706 420.9923 154.318 421.0419 154.5275 421.0052 154.7627 421.1312 155.0198 421.4121 155.2628 422.0848 155.7295 423.1566 155.8217 423.5633 155.972 423.88 156.225 424.0737 156.2617 424.2711 156.2117 424.5765 156.0608 424.8446 155.8215 425.9499 156.1018 426.345 156.2765 427.7709 156.2015 427.9899 156.0273 428.5065 155.4057 428.6342 155.1886 428.6884 155.0253 428.6442 154.5315 428.6949 153.85 428.9574 153.2099 429.2933 153.0946 429.5687 153.0855 430.0102 153.1651 430.3762 153.3572 430.7734 153.4956 431.9203 153.5884 432.2822 153.5354 432.6378 153.3729 432.8349 153.4061 433.6834 153.7237 433.8473 153.858 434.023 154.0708 434.2391 154.4324 434.4279 154.5568 434.998 154.6721 435.141 154.6693 435.3859 154.6645 436.4653 155.2528 436.9141 155.8501 437.1648 156.2622 437.7407 156.3136 438.3644 155.8113 439.0469 156.3608 439.146 156.3731 439.3943 156.3109 439.5924 156.197 439.7313 155.9979 440.0732 154.0171 439.9309 153.3288 439.7796 153.1847 439.7553 153.0849 439.7493 152.7056 439.8719 151.4143 440.6948 150.3563 441.0276 150.2203 441.3667 150.231 442.0038 150.4339 442.2465 150.72 442.2367 150.8769 442.1225 151.0992 442.103 151.2153 442.1257 151.413 442.4971 151.7745 443.0315 152.2045 443.4616 152.4563 443.7776 152.8242 444.0398 153.3899 444.3118 153.7889 444.385 153.8298 444.5024 153.8363 444.9799 153.7073 445.521 153.4067 445.7833 153.325 446.0619 153.3709 447.5804 154.0546 447.7483 154.1724 447.8865 155.047 447.7561 155.168 447.5605 155.2725 447.0032 155.31 446.9217 155.3786 446.9462 155.4996 447.1612 155.7351 447.9035 156.3751 448.138 156.3914 448.3334 156.2004 448.4772 156.1359 448.8326 156.3724 449.1698 157.0825 449.346 157.7432 449.404 158.411 449.4435 158.5338 449.5977 158.6652 449.8244 158.7231 450.0709 158.702 450.201 158.6051 450.3446 158.5948 450.5925 158.6768 450.7354 158.9668 450.7946 159.7782 450.6844 160.5609 450.5738 160.7963 450.6826 162.1124 450.7954 162.5325 450.9244 162.7351 451.1536 162.8476 451.3579 162.9027 451.5918 162.8804 451.6305 162.9249 451.6921 163.5254 451.5537 164.346 451.5413 165.5331 451.636 165.8355 451.8973 166.3863 451.9561 166.5776 451.9628 166.7542 451.8426 167.1107 451.8069 167.3511 451.8413 167.5032 451.9947 167.6731 453.7972 168.059 454.685 167.6381 455.0252 167.3239 455.475 167.3055 455.5988 167.3511 455.6559 167.4067 455.7115 167.5963 455.6578 167.7076 455.5064 167.8205 455.4202 168.0233 455.4008 168.164 455.5248 168.3765 455.7156 168.476 456.1509 168.5651 456.7681 168.4461 457.7465 168.0223 458.4941 167.8638 458.7044 167.8846 459.267 168.0846 459.6293 168.3439 459.6996 168.4745 459.7211 168.5939 459.7636 168.6429 460.3131 168.8102 460.6276 168.8096 460.7755 168.6212 460.8906 168.348 460.9816 168.2202 461.0516 168.1874 462.4233 168.4475 462.8532 168.202 463.0226 168.0492 462.991 167.6435 463.1483 167.4164 463.733 167.13 463.9433 167.1587 464.2945 167.4176 464.4544 167.942 464.5792 168.2228 464.7249 168.4169 465.0285 168.5779 465.1881 168.5757 465.4139 168.3363 465.4362 168.2136 465.422 167.862 465.5112 167.7392 465.6479 167.6799 466.0005 167.7648 466.0097 167.7699 466.1258 167.8337 466.7291 168.4025 467.4455 169.1852 467.4866 169.2945 467.7437 169.6632 467.8877 169.8443 468.0283 169.9583 468.5605 170.2658 470.7172 171.0372 470.7992 171.1481 470.8194 171.2918 470.7599 171.4752 470.5997 171.7196 470.605 171.8176 470.7003 171.9644 471.0063 172.246 471.3356 172.2822 471.4788 172.2244 471.5788 172.0228 471.6075 171.5305 471.6412 171.4256 471.7438 171.3876 473.1905 171.3438 474.2656 171.6041 474.6298 171.7841 475.5088 172.6486 477.0755 173.1668 477.2996 173.3507 477.3734 173.4501 477.4381 173.7 477.429 173.8407 477.5846 174.0027 478.0429 174.0287 478.4758 173.9343 478.6232 173.8005 478.7537 173.543 478.7772 173.3729 478.8563 173.2416 478.9261 173.202 479.9166 173.1475 480.0015 173.183 481.161 173.3501 481.5424 173.3742 483.5671 171.571 483.8649 171.2228 484.0127 171.1271 484.2995 171.119 484.7438 171.3244 485.5774 171.6351 485.8695 171.6888 486.1594 171.6771 486.258 171.6379 486.3349 171.6073 486.6219 171.4108 486.8695 171.3863 488.2146 172.2065 488.4936 172.481 489.2247 173.3249 489.3217 173.6775 489.7803 174.3112 490.6538 175.1614 490.9918 175.6945 491.137 176.042 492.5705 177.6447 493.6327 178.3348 493.8868 178.3563 494.2985 178.2106 495.8341 177.5429 495.9901 177.4012 496.0245 177.3012 496.0348 177.1247 496.1433 176.9201 496.1969 176.8489 496.357 176.7644 496.8275 176.6672 497.0434 176.6726 497.2362 176.7227 497.3621 176.8111 497.4134 176.8471 497.5474 176.8853 497.6762 176.8457 497.8754 176.6981 498.7331 175.6276 498.8124 175.2991 498.8156 174.0976 498.6773 174.0715 498.649 174.039 498.7946 173.5938 499.615 172.3121 499.7989 172.0867 500.6073 171.5991 500.812 171.5319 503.0971 171.9467 503.2674 172.0383 503.4961 172.2719 504.6006 173.1074 504.9748 173.2154 505.7795 173.3701 507.1913 173.4477 507.6939 173.3548 508.1027 173.1806 509.0374 173.5898 509.1385 173.7425 509.563 173.972 510.3205 174.2605 510.5362 174.3221 511.0469 174.3906 512.3693 174.4903 513.057 174.0338 513.2361 173.8701 513.9113 172.8905 514.1302 172.4994 514.2583 172.2706 514.6059 171.8715 515.0425 171.5808 515.5668 171.5619 515.8656 171.6027 516.0086 171.7139 516.3165 172.1176 517.023 173.2985 517.0524 173.4388 517.004 173.8842 516.9041 174.2467 516.7493 174.6572 516.506 175.1521 516.2163 175.5903 515.3336 176.5796 515.2402 176.8096 515.2968 177.4615 515.4298 177.8215 515.6375 178.1609 516.5657 179.1248 516.7418 179.4095 516.7232 179.6702 516.6817 179.8139 516.6391 179.8664 516.4022 179.9342 516.2843 180.0135 516.1998 180.1838 516.2019 180.3661 516.314 180.5148 517.2465 182.1987 517.4227 182.3554 517.5668 182.4143 519.2097 182.8653 520.0457 183.0262 520.8423 183.0242 521.3268 182.9868 522.1434 182.8231 523.2227 182.535 523.4921 182.38 523.7593 182.1314 523.9991 182.0336 524.1485 182.1234 524.3502 182.4711 524.6707 182.9167 524.9524 183.1553 525.0996 183.2042 525.287 183.2035 525.5891 183.1328 525.6545 183.1549 525.6994 183.2181 525.6877 183.3213 525.0656 185.4632 524.8682 185.935 524.5532 186.2627 524.1453 186.4721 524.0573 186.5942 524.0662 186.7756 524.1613 186.9446 524.2402 186.9992 524.5506 187.0624 524.7004 187.0574 525.1677 186.9126 525.23 186.9412 525.2947 187.0353 525.3436 187.5319 525.2881 187.8974 525.0922 188.608 524.8908 188.9031 524.6655 189.1169 524.3458 189.2206 524.1501 189.0791 523.9195 188.758 523.8103 188.7594 523.7413 188.842 523.5365 189.3728 523.4809 189.6091 523.4808 189.7252 523.5298 189.8586 523.8869 190.3735 523.8899 190.3768 524.1082 190.6055 524.4917 190.9018 525.0486 191.1272 525.4777 191.176 525.7591 191.1398 525.9796 191.0684 526.2126 191.0623 526.3353 191.1098 528.2054 192.2058 528.7286 192.5952 529.8842 193.1339 530.2378 193.2175 530.5746 193.1852 532.4312 192.5699 534.1263 191.1552 534.2388 190.9378 534.3461 190.5831 535.3439 190.1773 535.5783 189.8241 535.6299 189.5585 535.5851 189.16 535.3789 188.7538 536.0297 188.472 536.459 188.5268 536.5576 188.4748 536.7647 188.2611 536.8119 188.1443 536.7793 187.6885 536.6058 187.2885 536.5957 187.0352 537.1744 186.8377 538.0321 186.7991 538.147 186.8579 538.315 186.8686 538.401 186.8461 538.8099 186.5294 539.3074 186.0496 539.7194 185.5203 540.0376 184.9203 540.3918 183.9159 540.6697 183.4572 540.9678 183.2453 541.925 182.8912 542.5347 182.9217 542.8489 183.012 544.187 183.5798 545.6646 184.4973 546.8366 185.5175 546.8842 185.6362 546.7529 187.3292 546.5474 187.7069 546.4849 187.7684 546.4383 187.9033 546.433 188.0718 546.4868 188.3637 546.9154 189.0603 547.0246 189.1616 547.3051 189.2782 548.5877 189.4902 548.7605 189.5188 548.9541 189.5027 549.1585 189.452 549.6462 189.2056 550.2637 188.8182 550.6988 188.4418 551.0584 188.3013 552.1305 187.8552 552.4926 187.8768 552.9906 188.0304 553.1384 188.1159 554.5559 188.9362 554.6956 189.099 555.1304 189.8228 555.1259 191.2844 554.7813 192.4187 554.668 192.5499 554.5589 192.8199 554.4874 193.3772 554.7213 193.8869 555.0856 194.3125 555.6176 194.6437 556.6735 194.9384 557.63 194.9617 559.8512 194.88 560.0975 194.7316 560.2866 194.5647 560.6932 194.1109 561.2783 193.111 561.6975 191.9353 561.7769 191.4059 561.94 191.0318 562.1503 190.9129 562.3735 190.909 562.4699 190.9456 562.5354 191.0341 562.6825 191.505 562.7903 191.5799 563.0345 191.5627 563.1717 191.509 563.2591 191.4252 563.6543 190.6173 563.9492 190.4712 564.1405 190.4678 564.4432 190.731 564.943 191.2851 565.3562 191.5612 565.581 191.652 565.8083 191.6954 566.6913 191.6273 566.7494 191.5968 566.8302 191.4793 567.1144 190.7757 567.2583 188.9705 567.3275 188.7729 567.4922 188.5424 568.4031 187.9281 569.3257 187.8092 569.6115 187.9312 570.8571 188.8773 571.1386 189.2644 571.2162 189.4739 572.0517 192.6671 572.0503 193.161 571.7728 193.5277 571.2006 193.8214 570.9116 193.8613 570.4699 193.8402 570.3436 193.8786 570.2474 193.9524 570.1191 194.1315 569.9008 194.5282 569.8172 194.7408 569.7912 195.3873 569.8163 195.9822 569.9526 196.2756 570.4714 197.1227 570.738 197.4169 570.9093 198.2315 571.2826 199.2122 571.8824 200.5094 572.4315 201.0862 572.9187 201.4253 573.2593 201.5954 573.9689 201.8175 574.6503 201.9272 574.9469 201.9048 575.41 201.7792 575.6649 201.6678 575.9234 201.4974 576.3533 201.1174 576.5308 200.8865 576.7035 200.5886 576.9797 199.9533 577.0548 199.2937 577.0492 198.8049 577.0049 198.4116 576.8354 197.8017 576.4527 196.7414 576.3667 196.3801 576.3877 196.0657 576.537 195.6653 576.774 195.3285 577.3261 195.0311 577.9532 194.8957 579.1251 194.6591 579.0695 194.1065 578.5248 193.4526 576.9955 193.0595 576.5719 192.7548 576.7505 192.1366 577.8769 191.6129 578.6096 191.9354 578.9136 192.5843 579.503 193.2013 579.6438 193.1625 580.5217 192.7196 580.8707 192.289 582.7276 189.6524 582.8133 189.2535 582.7355 188.3422 582.4882 187.376 582.1603 186.6322 582.0946 186.4154 582.0105 185.7249 582.0499 185.3261 582.1108 185.1888 582.3098 184.9351 582.481 184.7908 582.8665 184.6609 582.9806 184.6728 582.9863 184.7475 582.9129 184.9858 582.8962 185.1757 582.9802 185.7147 583.1564 186.0063 583.3457 186.1277 583.4205 186.1191 584.6046 185.4666 585.0533 185.1261 585.6266 184.7467 585.7748 184.6486 586.2419 184.3907 586.3688 184.358 586.5769 184.4001 586.7161 184.4777 587.0164 184.7453 587.2568 185.0211 587.3878 185.2186 587.5634 185.5863 587.7544 186.1741 587.9644 187.6271 587.9386 188.3678 588.0364 188.8328 588.8375 190.8432 589.3082 191.3695 589.8449 191.8831 590.468 192.2735 590.7944 192.2862 591.07 192.1541 591.3186 191.8687 591.3462 191.1002 591.3998 190.7598 591.535 190.5458 591.8407 190.2901 592.9932 190.4206 594.0964 190.6642 594.7454 191.0317 594.9243 191.273 594.9862 191.4258 595.1447 192.1205 595.1813 192.5614 595.5639 193.4351 595.6447 193.5864 595.8346 193.7262 596.112 193.795 596.5592 193.7667 597.032 193.6815 599.0151 193.2115 599.2669 193.1037 599.4814 192.9586 599.7638 192.6643 600.2699 191.8732 600.4107 191.5375 600.6011 190.9408 600.7306 190.1541 600.7319 189.9563 600.6375 189.4178 600.765 188.5587 601.0759 187.6293 601.1802 187.4008 601.3431 187.2087 601.5427 187.0593 601.7066 187.032 601.9751 187.0685 602.9335 187.81 603.7784 188.5424 603.8882 188.6073 605.1162 188.5591 605.9805 188.475 606.2443 188.521 606.2791 188.5271 606.4328 188.7735 606.4426 188.9399 606.3249 189.2783 606.1765 189.538 605.758 189.9457 605.5052 190.1145 604.9027 190.4011 604.1298 191.3108 603.9257 191.611 603.8825 191.7221 603.8723 191.9599 603.9195 192.1054 604.2906 192.3824 605.6022 192.8616 606.1026 193.093 606.4555 193.292 607.3102 193.9074 607.705 193.9396 608.5978 193.8733 609.6791 193.5695 609.8961 193.6268 610.0514 193.7111 610.2223 193.9052 610.4697 194.3823 610.6827 194.9611 610.7279 195.2624 610.752 196.0574 611.0013 196.5024 611.588 197.0602 611.7094 197.1198 612.5516 197.0679 614.1436 196.8685 614.3141 196.8067 614.646 196.4729 614.7913 196.4376 615.4808 196.4898 615.8538 196.5798 616.3082 196.7547 616.4733 196.9651 616.6235 197.2467 616.7134 197.4542 616.8925 198.0485 617.1986 198.5064 617.5028 198.8486 618.686 199.971 618.9744 200.2723 619.5751 200.8998 619.7434 201.2944 619.9831 202.0147 620.0039 202.5024 620.0644 202.672 620.4451 202.995 620.9004 203.0382 621.2341 202.9867 622.4979 202.3724 622.6337 202.2506 622.738 202.0875 623.1277 201.256 623.282 200.5734 623.2941 200.0874 623.2301 199.502 623.2943 199.0718 623.4573 198.362 623.5287 198.1544 623.9117 197.3572 624.0498 197.2357 624.9454 196.9744 625.3856 197.0573 626.6906 197.6942 627.8534 198.4453 628.3592 198.4762 629.5727 198.1046 629.7791 198.0186 630.3554 197.7784 630.8505 197.4685 631.0469 197.2357 631.3404 196.7679 631.6972 195.4264 631.7189 194.8992 631.4355 194.781 631.2227 194.6817 631.0629 194.6021 630.9339 194.5064 630.7972 194.2841 630.6892 193.8989 630.8037 193.6541 630.8627 193.6029 631.5496 193.4139 632.3471 193.3922 632.4593 193.2311 632.2634 192.326 632.3428 192.0445 632.4616 191.9023 633.0019 191.7897 633.9457 191.7051 634.2337 191.8454 634.7303 192.2231 635.0847 192.3318 635.3648 192.3423 635.4731 192.178 635.4504 191.8065 635.3507 191.4898 635.2499 191.3627 635.2132 191.2572 635.2037 191.1869 635.2826 191.0945 636.2022 191.1617 637.4404 191.4922 637.9554 191.71 638.346 191.8267 639.0253 191.4654 639.3546 190.7761 639.4581 190.6556 639.7121 190.6716 639.89 190.7484 639.9136 190.8769 639.8844 191.091 639.9173 191.2996 639.9592 191.3923 640.0693 191.4829 640.9057 191.1052 641.3046 190.6973 641.3401 190.6153 641.3504 190.3761 641.3186 189.9895 641.3691 189.7414 641.5501 189.6068 641.6751 189.5561 641.831 189.5514 642.1093 189.7192 642.3158 190.077 642.8444 190.2708 644.0603 190.1879 644.4878 189.9753 644.6623 189.8409 644.9161 189.1905 644.983 188.8682 644.9756 188.6094 644.9522 188.4925 644.8777 188.3508 644.8496 188.1898 644.9079 188.0327 644.9626 188.0114 645.7099 188.2274 646.1158 188.4014 646.7576 188.7759 647.4881 189.2869 647.8427 189.5835 648.2175 189.8025 649.5297 190.3454 650.1166 190.8632 650.3776 191.1533 650.4918 191.2803 650.7205 191.449 650.8704 191.5048 651.2015 191.5286 651.4188 191.458 651.7357 191.255 651.85 191.1222 651.9292 190.961 651.9478 190.8411 651.9057 190.5579 651.8319 190.395 651.762 190.062 651.7592 189.9771 651.8181 189.8444 652.7263 189.6129 652.9816 189.6113 653.6403 189.8423 653.7606 189.9349 654.4771 190.7115 654.6564 190.7995 654.7284 190.7984 655.2186 190.4871 655.5455 190.3248 655.7555 190.0385 655.7966 189.8606 655.5348 189.048 655.3294 188.8436 655.2631 188.7 655.217 188.6003 655.233 187.9543 655.4269 187.4331 655.539 187.2856 656.0661 187.045 656.6474 187.0112 657.1893 187.1553 658.0933 187.7389 658.2523 187.7746 659.0746 187.7002 659.7803 187.3189 660.2309 186.8037 660.6205 186.176 660.8894 186.0037 661.2137 185.9244 661.9641 186.1222 662.5719 186.0566 664.4915 184.5222 664.7089 184.0111 665.5209 183.9671 666.8593 184.0853 667.0039 184.1262 667.1018 184.2209 667.2578 184.4413 667.6314 185.3183 667.7671 185.7864 667.7648 186.2607 667.6136 186.7582 667.6437 187.1857 667.881 187.5832 668.0726 187.7518 668.3937 187.7687 668.7756 187.6658 669.2356 187.341 669.5325 187.0564 669.814 186.9172 670.1268 186.9784 670.3635 187.2438 670.3683 187.795 670.3983 187.951 670.6265 188.0609 671.2346 188.0342 672.0192 187.6871 672.5111 187.1839 672.8077 187.1304 672.9291 187.1838 673.0185 187.3391 672.8853 188.0806 672.9393 188.1544 673.8944 188.3685 676.2441 188.4675 678.1666 188.2611 679.5232 188.2451 680.3026 188.1397 680.5334 187.5628 680.5285 186.923 680.5905 186.8852 681.0585 186.9099 682.027 187.2607 682.9089 187.58 683.3199 187.5966 683.5737 187.3873 683.6641 187.0156 683.6596 186.6789 683.704 186.0247 683.7323 185.8551 683.8408 185.7249 683.9865 185.6564 684.1513 185.6294 684.6734 185.8102 684.837 185.7516 685.1426 185.5299 685.2925 185.3454 685.4018 184.794 685.3994 184.5099 685.3446 184.0066 685.2359 183.7904 685.1933 183.6153 685.2246 183.3328 686.4739 181.3494 686.7128 181.2556 687.1299 181.2678 689.2479 181.9902 690.1793 182.5803 690.3065 182.7097 690.6424 182.8493 690.9527 182.878 691.3347 182.9134 692.4215 182.8303 692.8038 182.9766 693.0215 183.209 692.9714 183.8961 692.9883 184.1158 693.1393 184.3114 693.679 184.4922 694.1293 184.4271 694.2843 184.5266 694.4258 184.6842 694.6469 185.0399 694.6471 185.4329 694.7362 185.6691 694.9503 185.8526 695.3313 185.838 695.6179 185.4629 696.0608 185.2158 696.4079 185.3462 696.6823 185.6424 696.8392 186.2422 697.4863 187.8409 697.6362 187.9441 698.197 188.0879 699.079 188.0849 699.4237 187.9587 699.8859 187.605 700.379 187.8419 700.6721 188.1925 700.8558 188.5414 701.1077 188.6355 701.4135 188.5983 701.5085 188.5281 701.808 187.9759 701.9679 187.835 702.0836 187.8024 702.2376 187.8826 702.4529 188.7669 702.5751 189.5768 702.9792 189.7051 703.4891 190.3492 703.5606 190.8956 703.8396 191.3051 704.1253 191.4106 704.3484 191.4135 704.5497 191.3588 704.7771 191.2329 705.009 191.212 705.1668 191.2758 705.3169 191.3867 705.4182 191.4878 705.4886 191.7771 705.4883 191.9992 705.3557 192.5302 705.3405 192.8579 705.3794 193.0901 705.8882 193.636 706.1957 193.6373 706.4366 193.7637 707.2878 194.3763 707.4228 194.56 707.7029 194.4806 707.8369 194.5207 708.0382 194.8085 708.0861 195.1845 708.0023 195.4211 708.1545 195.6334 708.4825 195.8555 709.687 196.2562 710.1414 196.2488 710.7811 196.1773 710.947 196.0796 711.0523 195.8932 711.1111 195.5038 711.276 195.3833 711.5362 195.2816 711.858 195.2913 712.0357 195.4661 712.6732 195.7816 713.1966 195.6463 714.0367 194.9745 714.2839 195.0098 714.4567 195.071 714.559 195.2489 714.5868 195.4526 714.4906 195.8436 714.5253 196.2064 714.8263 196.6037 715.0597 196.7535 715.4183 196.7387 716.0491 196.8947 716.2518 197.205 716.385 197.6548 716.3097 198.0904 716.4088 198.3807 716.44 198.472 716.7371 198.7784 716.9845 198.8136 717.1265 198.6029 717.2109 198.3717 717.338 198.2526 717.5048 198.1773 717.7532 198.2353 717.9848 198.3395 718.0982 198.7673 718.0338 199.0204 718.0479 199.3385 718.0967 199.5869 718.2329 199.6723 719.6081 199.7951 721.1021 199.1759 721.5149 199.2413 721.6806 199.4437 721.7612 199.6915 721.8091 199.9827 721.7968 200.4858 721.9489 200.7725 722.1428 200.8271 722.5896 200.7035 722.8562 200.4409 723.0157 200.12 723.3874 199.8739 723.6525 199.9673 723.9803 200.2884 724.2318 200.4661 724.4952 200.5177 724.8599 200.5021 725.0423 200.3059 725.222 200.0469 725.443 199.9327 725.8635 200.0108 726.034 200.3053 726.2886 200.5456 726.4736 200.789 726.5179 200.9964 726.374 201.2749 726.3652 201.4638 726.4588 201.6063 726.5812 201.6219 726.8206 201.5279 727.2693 201.4458 727.575 201.6629 727.6377 201.8906 727.6492 202.2966 727.5255 202.4818 727.59 202.7512 727.8062 202.9094 728.1188 202.8959 728.4074 202.7368 728.7385 202.7434 728.9922 202.9628 729.0597 203.2949 728.9805 203.4659 729.0509 203.8607 729.2159 204.0421 729.5546 204.2158 730.4965 203.8807 731.2594 203.5305 731.4833 203.2473 731.5509 202.6062 731.8183 202.5264 733.1083 202.0175 733.6035 203.8778 733.3216 205.359 734.6411 205.5919 735.7157 206.7583 737.6653 206.3375 738.1743 206.8351 737.5944 207.5115 737.3746 208.5485 739.3954 209.0237 739.7112 207.7669 740.5335 207.2673 741.0472 208.2728 742.2972 208.2891 742.8768 206.508 743.9364 206.5534 744.5497 207.2492 745.5552 205.676 746.4056 206.3105 745.8028 207.765 747.2284 207.9749 748.0491 206.4454 749.6411 205.0533 750.9055 205.2308 752.086 205.9749 753.3112 207.7494 754.4752 206.3897 756.2774 206.1695 757.2781 206.4781 757.6852 207.6148 757.9318 207.586 758.0821 207.5121 758.0864 207.5711 758.1224 208.2208 758.3216 211.7346 758.3139 211.8608 758.3128 211.8787 758.3928 213.3554 758.5287 215.8158 758.546 216.1582 758.5908 216.9283 758.7061 219.3774 758.7336 219.9612 758.768 220.4276 758.7972 221.3138 758.8247 221.7888 758.8417 222.1273 758.9022 223.3296 759.021 225.6441 759.119 227.5566 759.1191 227.5578 759.1525 228.2944 759.1938 229.063 759.2398 229.6548 759.3262 231.5532 759.3701 232.4488 759.3814 232.6543 759.5318 235.4715 759.564 236.6725 759.5894 237.0514 759.6088 237.356 759.7637 240.2924 759.801 241.2377 760.0197 245.5375 760.2384 250.0778 760.3024 251.3399 760.3998 253.3294 760.4515 254.1216 760.4749 254.5597 760.5147 255.3933 760.5151 255.4022 760.5086 255.4396 760.5547 256.0783 760.8021 261.3601 760.8559 262.1088 760.857 262.23 760.8672 262.5671 760.8749 262.831 760.911 263.4639 761.1635 268.8137 761.3111 271.5179 761.3601 272.3497 761.3686 272.5754 761.4268 273.8809 761.4398 274.1489 761.469 274.7282 761.6204 278.003 761.6336 278.3428 761.788 281.414 761.7983 281.6175 761.8397 282.2213 761.8813 283.0987 761.8926 283.5482 761.9016 283.7095 761.9227 283.9974 761.9283 284.1586 761.9517 284.5222 761.9588 284.6333 761.9605 284.702 762.067 286.8784 762.0776 287.1915 762.2047 289.6783 762.2059 289.7313 762.2339 290.2761 762.3084 291.6283 762.344 292.3257 762.6718 299.0248 762.6721 299.0302 762.8556 302.7039 762.9351 304.2841 763.0395 306.3617 763.0414 306.3665 763.0686 306.9896 763.1331 308.4274 763.1732 309.3408 763.2164 309.7142 763.4161 314.2763 763.6112 318.3268 763.6885 318.8141 763.8949 318.8017 764.434 318.5306 765.0923 318.8583 765.4783 319.4962 767.8043 323.3367 768.1726 323.7506 769.3042 324.3983 769.9155 324.5116 770.2559 324.6128 770.4478 324.8284 770.6305 325.4086 770.9342 325.683 771.1661 325.7895 771.4252 325.7125 771.6375 325.551 772.0227 325.5118 772.3211 325.6793 772.5546 325.9999 772.5322 326.4227 772.8524 326.885 773.3428 327.2679 773.4444 328.0342 773.721 328.6865 774.0254 328.9312 774.3076 329.1581 774.3786 330.5104 774.6282 330.8432 775.7282 331.6023 776.176 331.8267 776.5653 332.0524 776.7676 332.3598 776.7869 332.747 776.9405 333.1276 777.1603 333.3372 777.3957 333.5033 777.6475 333.6799 777.7042 333.7872 777.4679 334.8142 777.3176 335.1662 777.3165 335.7919 777.7244 336.5883 778.0789 336.9669 778.3192 337.6572 778.3339 338.1672 778.4255 338.4818 778.6917 338.609 778.8798 338.689 779.1256 338.9304 779.1799 339.1354 779.211 339.4628 779.1153 340.0058 778.3799 341.0097 778.0933 340.8937 777.8514 341.4101 777.9209 341.8286 778.4295 342.7427 778.5927 344.5507 778.5916 344.558 778.5072 345.1241 778.1897 345.1634 777.9467 345.0093 777.3632 345.7363 777.3102 346.2913 777.6261 347.1961 778.4156 348.4505 778.5839 349.1511 778.7283 349.3868 780.0449 350.808 780.6994 351.2546 781.1219 351.3737 782.3867 351.4139 782.7577 351.2951 782.8756 351.2698 782.9965 351.2201 783.1818 351.2252 783.3939 351.2726 783.5141 351.4553 783.5496 351.6293 783.6077 351.8426 783.6765 351.9843 784.04 352.0966 784.4519 352.1919 784.5282 352.7253 784.3824 353.2554 784.2638 353.5954 783.9167 354.1494 783.6345 354.2415 783.4142 354.3644 783.2824 354.4437 783.1667 354.5947 783.1798 354.8554 783.2274 355.3243 785.7508 357.035 786.2846 357.3807 786.5205 358.0395 786.1255 358.74 786.1424 359.313 786.3463 359.4133 786.6949 359.3913 788.0576 360.1597 788.2235 360.461 788.3347 360.8966 788.4633 361.4501 788.5023 361.7525 788.4203 361.992 788.487 362.3761 788.731 362.5434 788.8085 362.6778 788.8273 362.8152 788.7771 362.9839 788.7158 363.1669 788.5649 363.3301 788.1099 364.9655 787.5423 366.472 787.6182 366.8022 787.8031 367.0357 788.3283 367.0611 788.7352 367.2596 789.5189 368.3814 790.4441 369.2088 791.7863 369.031 792.218 369.8423 792.2254 370.3961 792.1283 370.9046 792.1855 371.6626 792.577 371.95 792.7329 372.1149 792.8749 372.3287 792.9445 372.5654 792.9647 372.9585 792.8203 373.6732 793.1987 375.2895 793.352 375.7384 793.4474 375.8392 794.109 376.4559 794.6674 376.2951 795.2173 375.54 795.7236 375.1623 796.2167 374.9152 796.2233 374.9127 796.4391 374.8302 797.2843 374.8565 797.3974 374.9329 797.506 375.1881 797.2788 376.7885 797.0781 376.945 796.8627 377.2114 796.8246 377.5118 796.8457 377.9191 796.8838 378.4358 797.179 378.9227 797.2451 379.4219 797.169 380.0228 796.692 380.6448 796.6008 381.215 796.6636 381.6516 796.9608 382.2172 797.376 382.5523 797.9417 382.759 798.2605 383.0232 798.4657 383.4083 798.3416 383.7468 798.1136 383.9759 797.9508 384.1493 798.0158 384.4025 798.5525 385.3643 798.9561 385.7194 799 385.9342 798.9891 386.3561 797.669 387.5106 796.7073 387.8886 796.2703 387.7629 796.0689 387.8756 795.9604 388.0983 795.8693 388.4478 795.772 389.1042 796.0471 389.7791 796.5252 390.2332 797.1924 390.4966 798.3072 391.6132 798.7332 392.3984 798.7737 393.0672 798.5018 393.4751 797.8136 393.8311 797.6557 393.784 797.5402 393.7419 797.398 393.7854 797.2421 393.9625 797.0431 394.5037 797.0275 395.2041 796.5777 395.686 796.3864 396.1785 796.4426 396.8752 796.5815 397.1695 797.015 397.4965 797.0178 397.5394 797.1498 399.5967 797.4451 399.9272 797.456 400.6564 797.0542 401.9083 796.9634 402.0219 796.6051 402.2731 796.0532 402.3678 795.7142 402.7707 795.4379 403.4993 795.4388 404.1376 795.3096 405.1299 794.4202 405.6289 793.7817 406.7821 793.8825 407.0289 794.4031 407.6672 794.4356 408.0979 794.3532 408.4661 794.0627 408.7725 793.8176 409.4906 793.8303 410.1312 793.3462 411.2451 792.8627 411.7625 791.8479 412.0203 790.9502 412.9357 790.2318 414.2082 790.1634 415.3251 790.3298 416.5443 790.5059 416.8965 790.5777 417.1243 790.5045 417.3896 790.3276 417.6502 790.1503 417.7297 790.0083 417.6541 789.7984 417.5487 788.6202 418.0311 787.7286 419.1072 787.7612 419.6481 787.911 420.3208 787.7486 421.1973 787.0897 421.6079 787.5804 422.2706 787.9062 422.5609 788.7522 423.0265 789.0527 423.8814 788.6942 424.7863 789.4859 427.34 790.0264 428.3077 790.0396 428.5399 789.7787 429.3141 788.606 430.0332 787.5707 431.4068 787.2768 431.7965 786.9049 431.8678 786.5439 432.3056 786.5003 432.5472 786.7205 433.707 786.7429 434.7463 786.241 436.4061 786.3473 436.6221 786.59 436.6313 788.009 438.4289 788.9284 439.0018 789.2688 438.9934 789.5394 439.0317 789.7462 439.2294 789.9088 439.4397 790.0588 439.9421 790.0429 440.3488 789.9366 440.6179 790.1274 442.1742 790.2552 442.5792 790.287 442.68 789.8396 443.954 789.5028 444.4518 789.427 445.0773 789.7024 446.2374 790.1729 447.1269 790.6086 447.5865 790.7755 448.1435 791.0518 449.0655 791.6788 449.8611 791.4139 450.3152 791.2841 450.3241 791.0694 450.0902 790.8907 450.1874 790.9038 451.9504 789.656 453.3437 789.1375 453.7431 789.0487 453.9467 789.2181 454.2849 790.1958 455.1051 791.0841 455.3209 791.1889 455.4449 791.2772 455.7563 791.1999 455.9731 791.0147 456.1244 789.9808 456.2662 789.865 456.4067 789.0108 457.4427 788.9214 457.7803 788.9158 458.3986 788.8414 458.5752 786.1231 460.9288 785.9788 461.134 784.9594 463.5642 784.6606 464.9684 784.5359 466.0045 784.405 466.4333 783.7728 467.9284 783.3183 468.7738 782.3934 470.0973 782.3472 470.1634 781.8504 470.683 781.3213 471.1045 780.2246 471.7658 779.6251 472.2381 778.7002 473.1416 778.3266 473.6005 778.033 474.2705 777.9801 474.7514 778.0242 475.1691 778.1914 475.6988 778.4594 476.0083 779.9823 476.897 780.2812 477.189 780.4877 477.5805 780.3307 478.2061 780.4941 478.7998 780.676 478.9614 781.6101 479.2345 781.86 479.3858 782.3193 480.18 783.9906 482.4886 783.8418 482.8437 784.0447 483.3151 782.5882 483.3885 780.8369 483.3596 778.2277 483.3345 773.9185 483.6347 770.5452 484.5346 768.1518 485.4091 765.8468 486.4642 752.4687 493.1719 751.4544 493.6787 743.55 497.621 737.8285 500.5462 735.6286 501.8149 733.2491 503.394 731.817 504.5368 730.9639 505.4718 730.058 506.9234 729.6573 507.9498 728.8013 507.9841 727.7873 508.5459 726.7204 508.6184 726.4852 508.4292 726.4058 507.6193 727.3675 506.3042 728.1379 505.7356 729.9461 503.8354 731.0002 503.0575 732.1561 500.886 732.4428 500.5251 732.9943 500.1121 733.3958 499.9838 733.9622 499.9863 734.6433 500.2623 735.7365 500.0575 736.9344 499.4805 737.7987 498.8158 737.6778 497.71 737.91 497.2576 738.567 496.4119 739.3904 495.8981 740.1835 496.0376 740.6321 496.3885 741.5589 496.8187 742.8737 496.6294 743.8506 496.2021 743.2764 494.9247 742.903 494.9882 742.8028 494.9653 742.0098 494.7842 741.8297 494.3168 740.7787 493.1923 740.5311 492.9851 740.0548 492.8746 739.0674 493.0351 738.5735 493.4102 737.6424 493.8763 735.6612 494.5692 731.6304 495.8129 729.9905 496.1845 728.6222 496.7909 727.5724 496.923 726.8885 496.8767 726.1133 496.5202 725.4663 495.3095 726.1554 495.2047 726.678 495.2571 727.6183 494.193 728.836 492.6226 730.3237 489.617 731.093 484.6359 731.1116 483.9805 730.8782 482.6004 730.7367 480.14 729.99 480.182 729.1844 479.5638 728.2383 479.9413 726.9292 478.5913 726.0226 479.1675 724.7588 479.6809 723.3137 480.5065 721.2442 483.1166 720.4551 485.0096 720.3498 486.1983 720.0537 486.7476 718.808 487.5063 717.4395 487.8985 717.0697 487.8014 716.4185 486.7053 716.2191 486.3695 716.0625 485.3734 715.6408 485.0274 714.1929 484.9021 713.8191 486.0219 713.3734 486.4542 711.8599 487.9217 711.534 488.5464 711.4959 488.6195 711.2783 489.3674 711.4376 490.0948 713.0137 491.3984 713.4188 492.0081 713.0562 492.7506 711.9432 494.0019 711.4294 495.1491 711.3381 495.4101 711.3427 495.4314 711.5686 496.4658 712.3869 497.5218 712.5845 497.7768 713.7062 498.4442 715.1781 498.8243 718.2375 499.2873 718.0201 499.981 717.2916 501.3114 717.0341 502.6469 717.7518 502.7952 719.5657 503.7662 719.8321 505.0635 720.0106 508.5403 719.6086 510.5851 719.7034 512.7132 719.422 513.0501 718.0593 514.6808 716.1141 514.1457 711.923 518.6289 709.7436 520.6058 707.3006 522.8196 706.3946 521.2721 704.8291 521.3907 703.5641 521.8461 703.8656 524.5263 703.4362 525.838 703.3336 527.2543 704.6613 528.8284 707.0224 526.4386 707.4454 526.0103 713.1948 521.8101 713.9213 520.5914 720.6801 514.27 721.5353 513.654 722.4829 513.3751 723.9988 512.6947 724.1051 511.5557 724.0591 509.9586 724.7552 509.2741 726.4065 510.4859 726.7125 510.5162 726.8893 510.3748 728.8549 510.4779 728.8852 510.3212 729.7267 510.168 730.291 510.6177 729.7588 510.6121 727.4348 512.6306 726.4548 513.6856 725.3926 514.551 711.9017 524.4622 708.5377 527.2244 706.808 528.9337 706.2869 529.6952 706.0939 529.9772 705.9482 530.4599 701.9298 533.7712 699.0511 536.3389 697.0377 538.3488 695.573 540.3368 695.5518 540.3656 694.7822 540.8086 692.1238 543.0558 690.7069 544.6769 690.3921 545.389 688.2986 545.9536 686.8372 546.0378 683.943 547.7625 682.687 548.5679 677.6871 551.77 673.337 554.2066 671.8369 555.4732 663.9488 560.662 659.5368 563.0741 652.32 566.497 647.5446 568.8952 640.3403 572.9859 638.7307 573.7634 637.2325 575.0124 635.6476 575.993 633.6239 577.4803 632.5019 578.7045 632.049 578.823 631.2566 579.2958 628.9953 581.2675 628.2569 581.911 627.6647 583.6882 625.0697 586.5733 622.3732 588.0106 613.3314 593.6362 607.908 597.9205 603.4221 601.8841 599.7213 605.5831 597.5955 607.7053 593.8254 612.0528 590.3928 616.5934 587.9397 621.7642 587.869 621.913 585.0331 625.4354 581.9527 630.4321 577.556 639.0938 576.9268 640.5185 574.8304 645.2613 572.4723 651.2559 570.0544 659.0957 569.4177 661.9484 568.7276 665.0372 567.9738 670.8797 567.6323 677.5114 567.8393 683.8154 568.5734 689.9265 569.8589 696.2951 571.5865 702.9695 573.3756 708.9157 573.8071 710.1515 576.2106 717.0284 578.1409 723.5175 578.3878 724.3469 580.0731 731.0035 581.8898 741.1962 582.7754 746.8384 582.1064 747.2033 581.173 743.9794 579.8548 735.0064 578.2247 728.287 576.8983 723.5428 576.37 721.6518 574.2173 714.2559 568.859 713.3683 572.7945 711.6452 572.1997 710.186 570.7436 706.6119 569.3736 701.3215 567.2468 696.0123 566.3926 689.5305 566.4934 681.0749 566.2303 673.6131 566.8775 667.0906 567.4706 661.9777 567.4867 661.8383 568.4087 656.6887 570.284 650.7729 571.8615 645.5527 574.0586 640.6173 574.4305 639.781 576.0641 636.4506 576.085 636.408 579.0652 632.088 581.2351 626.7418 583.1122 624.5602 582.4217 622.8642 582.4918 621.6623 584.1525 618.8039 585.3914 616.344 585.665 616.183 589.4676 613.9428 591.4848 611.145 592.3136 609.1227 593.2953 607.4238 594.586 605.9669 594.8865 604.0824 595.4026 603.2708 597.3791 602.4875 597.4216 601.6039 597.868 600.7041 599.4968 601.2891 601.318 599.8529 601.6631 599.5806 601.5052 597.7981 603.4069 596.289 606.9172 596.0754 608.8942 594.331 611.8502 591.9892 613.6082 590.3257 614.6594 589.4467 615.2959 588.5592 616.7553 587.9856 618.1192 587.8175 618.8737 586.8204 619.8861 586.3246 622.555 585.7493 624.5656 585.1527 625.169 584.7638 625.5671 583.2753 624.8544 582.8235 624.3377 582.1278 624.488 581.5343 626.3191 580.3525 626.3351 579.4567 624.2657 579.3835 620.6458 581.998 618.75 582.8662 616.3055 584.2484 613.8957 586.7487 613.157 586.7964 611.1098 587.4952 609.8983 587.1775 609.6547 586.208 608.5329 584.7581 608.8207 583.262 608.4224 581.0918 608.1247 580.6265 607.3547 580.4992 605.6929 580.5378 604.8574 580.339 604.5631 580.4299 604.4762 580.4567 604.0037 580.7945 603.1411 582.3761 602.882 583.7624 602.9364 584.8508 603.1977 586.6611 603.1787 587.0026 603.1511 587.4975 602.2777 588.607 602.0635 589.084 602.2993 589.6598 602.735 590.3229 603.5222 591.5208 603.5304 591.9202 602.7363 593.7905 602.1411 594.3065 600.155 596.0275 598.258 597.3042 596.6894 599.009 595.9283 599.425 594.4226 601.1279 592.6607 601.2015 590.27 600.2348 589.8234 600.3531 588.5807 599.4995 588.8928 596.9461 588.4816 596.9122 587.9024 596.8645 580.6292 600.7448 576.8785 604.0764 576.8092 604.8567 576.803 604.9267 579.2813 606.0002 581.7441 606.1562 583.846 604.5869 587.0782 602.5524 588.712 602.0834 588.8999 602.4057 588.8412 602.6974 588.3411 603.3976 588.1288 604.0556 588.1429 604.818 588.4263 606.2646 588.7945 607.0922 588.4852 607.7158 587.8817 608.055 587.3771 608.5373 586.5768 610.4053 585.7222 611.0761 582.9143 615.6704 582.4371 615.9339 582.1034 617.1771 582.0452 617.3938 581.5055 617.7674 580.848 618.7604 579.045 622.3165 578.8931 622.8276 578.2848 622.9844 577.4813 622.9996 576.7717 622.8678 576.4915 622.7591 576.3521 622.5134 576.3477 622.2461 576.392 621.8633 576.2672 621.4837 575.8741 621.1057 575.4461 620.4966 575.3412 619.9903 574.8138 619.2014 574.038 618.9253 573.3615 618.8287 572.0163 619.1073 570.1323 619.8672 569.1108 618.7837 566.7873 619.4258 561.9685 619.5847 559.4987 618.8941 558.1558 619.9147 558.1527 621.2632 558.8401 621.7346 560.8982 623.1455 564.24 623.1721 566.7596 622.0683 565.9824 623.7879 565.9554 624.7457 565.9282 625.7109 565.92 626.0032 566.3882 627.1567 567.5415 628.9153 568.911 630.0529 570.8559 630.9257 574.8258 631.9932 574.4663 633.2194 574.0813 633.2991 572.2243 637.9423 572.106 638.5977 572.1774 639.0319 572.4081 639.3543 571.9021 639.9442 570.6946 641.0183 570.4793 641.7546 569.7771 644.1555 569.3689 644.8522 569.1275 645.9088 568.9612 647.6535 568.4355 649.1142 568.0246 649.6656 567.6655 651.4861 567.8085 652.3907 567.6271 653.1921 567.2199 653.9974 566.0101 657.2473 565.8585 657.9029 565.6708 658.3052 565.1634 658.9306 564.7156 659.2284 564.0735 659.4933 562.7816 659.5149 560.7631 660.6729 559.1712 662.3313 557.6491 662.1017 556.8681 661.7151 556.7001 661.2461 557.3477 661.3447 557.9912 661.1531 558.1143 660.7158 558.5593 660.2007 559.3669 660.1877 559.7831 659.9271 559.4785 658.9524 559.6988 658.5498 560.6566 657.7723 560.6435 656.8655 560.4419 656.3247 559.4979 655.7958 558.696 656.1715 558.3173 656.7944 557.2045 658.0457 555.1573 659.4927 554.3234 659.941 552.7641 661.7062 551.9544 661.5734 551.3416 661.6552 551.0223 661.9502 551.0144 661.9797 550.8067 662.7515 550.888 664.02 551.1523 664.4513 551.5439 664.7356 553.5483 664.7414 554.4875 664.872 555.0385 664.9723 555.8525 665.3949 557.0196 665.6304 558.4721 665.4622 559.1144 665.1616 559.53 664.8284 559.7192 664.4989 560.6661 664.0301 561.8104 663.8117 562.3536 663.3855 562.8674 663.1594 564.5299 663.0226 564.6497 663.474 563.9165 667.4403 563.5249 670.1844 564.1998 670.3849 563.7542 676.4031 563.5503 682.7693 563.0503 688.2476 562.6619 692.7553 562.3061 695.4393 561.5355 695.6672 562.0268 699.0747 562.2398 700.34 562.3522 702.5312 563.8597 707.9614 563.8358 709.6834 564.1329 710.3519 564.9952 712.2915 565.73 713.6199 565.6156 715.5011 566.4345 717.4636 566.0509 718.7729 568.1332 718.7825 570.1454 723.6689 571.471 726.8848 573.6771 731.8193 574.8007 733.589 573.9232 734.4545 572.8801 736.4961 572.8498 737.7346 573.6649 738.5717 573.8602 739.9078 573.632 741.2746 573.7176 742.389 574.6072 743.7381 574.6752 744.6875 574.2977 745.4234 575.0033 746.3157 575.5807 746.7035 577.1217 747.1097 579.6199 747.1173 580.1614 747.2881 580.4513 749.4519 581.2743 748.969 582.4006 748.1824 583.2349 748.292 583.1849 749.944 583.2923 751.4543 583.7544 754.7554 583.6716 754.8531 583.7259 755.8606 583.633 756.0384 583.0712 756.3417 582.8331 756.2595 582.3151 755.6278 581.6593 755.4374 581.0717 755.729 579.8254 755.5588 578.3971 755.7383 577.718 756.0198 577.2013 756.5187 575.3554 756.2645 575.0593 756.5623 575.3444 757.4535 573.645 757.3942 572.5631 757.9046 572.2897 758.3194 571.4278 758.3998 570.6514 758.263 569.5537 758.9624 569.1262 759.5558 569.2614 759.7261 569.6746 759.9017 569.7163 760.7526 570.0884 762.2828 569.7652 763.6434 569.2968 764.3422 567.9079 764.5611 566.097 764.3785 564.6425 763.7167 564.4301 763.049 564.36 762.1812 563.9954 761.6425 563.1208 761.3137 561.9823 761.7169 561.2869 761.6357 559.6805 761.2064 559.4943 760.6681 559.2214 759.8791 559.1015 759.0574 558.2867 758.84 558.1408 758.562 558.0508 757.8447 557.4725 757.6362 557.2211 757.9873 555.7255 757.6122 555.8566 757.0937 555.6785 756.3618 554.7132 756.2263 554.0769 755.1555 554.0381 754.8822 552.8034 753.4685 552.3144 753.2779 551.7169 752.7813 551.7271 752.0463 551.372 751.7274 550.5939 751.8902 550.1459 751.8553 549.9461 751.5539 548.2959 751.6333 547.8934 751.1514 547.3841 750.9642 546.8227 751.1291 544.3234 751.0722 544.0492 750.9679 543.9287 750.667 543.5942 750.4122 543.0082 750.3338 542.698 750.4893 542.3261 750.3647 542.1686 750.2372 541.9647 749.4618 541.5723 749.1256 540.0226 749.4534 539.3158 749.7509 537.7811 749.6808 537.282 749.4213 537.0915 749.3222 536.7146 748.8717 536.1005 748.7474 534.3525 749.4667 532.973 749.7578 532.3951 749.2715 532.0244 749.119 530.9237 749.8516 530.1856 749.2919 530.0156 748.7621 528.1159 749.0205 526.9725 748.8481 526.6975 749.2377 526.6206 749.9262 526.3171 750.6483 524.3366 750.1925 524.3341 749.9453 523.9047 748.7706 523.6492 748.5678 523.3759 748.5796 523.3067 748.6942 523.5836 748.9117 523.5648 749.0816 522.9802 749.412 522.7628 749.4531 522.5556 749.3382 522.0463 748.8267 520.668 749.2176 520.5849 749.2412 519.4186 750.144 519.2349 749.9917 519.2323 749.6905 519.0853 749.5231 517.3958 748.3673 516.6862 749.1865 516.5311 749.6249 516.1778 749.6971 515.9305 749.4855 515.7562 749.1496 515.6638 748.9717 514.6494 748.2666 514.0442 748.2235 512.8458 748.5233 511.8308 747.6501 511.0082 746.7116 511.2812 746.1763 511.4645 746.1177 511.7353 745.1702 509.7788 745.1915 509.5669 745.3949 509.3491 745.9262 509.0178 745.7327 508.0055 745.1412 507.2672 743.9828 507.0538 743.0078 507.3773 742.4745 507.3857 742.2228 507.1475 741.9333 506.5741 741.9679 506.0123 742.896 503.9543 742.5692 503.9517 742.5653 502.8047 740.8213 501.926 740.68 500.3537 739.6601 500.2347 739.5004 500.2737 738.6509 499.8031 738.1873 498.8981 738.0211 497.8373 738.2465 497.7345 738.4492 496.8761 738.7106 496.6262 738.6432 496.4388 738.5753 496.0613 738.0069 495.5935 737.9583 494.9552 738.1012 494.399 737.8152 494.2187 737.4141 493.8434 737.1916 492.7073 737.4587 491.7705 737.1534 491.4091 736.602 491.1865 735.79 491.0499 735.7564 490.2901 735.5691 489.375 735.9722 488.5297 735.9643 488.0508 736.6503 486.7686 737.1311 485.7957 737.111 485.4222 736.8519 485.1744 736.4572 485.2529 735.7441 485.0326 735.237 484.648 735.0676 483.8981 735.0361 483.3452 734.574 483.1411 734.0864 483.2312 733.7181 483.0973 733.3272 481.9436 732.6683 481.5966 732.6741 480.9125 732.3838 480.8864 731.3806 480.6648 731.0635 480.2674 730.8207 478.6869 730.7255 478.0508 730.3701 477.6343 729.1242 477.5059 728.3374 476.9184 727.6811 475.8154 727.5937 475.2834 728.121 474.5707 728.4584 474.3368 728.3913 473.97 728.0063 473.4615 727.9394 471.5674 728.5459 470.6315 728.0896 469.6217 726.8543 469.3879 726.8151 468.5805 727.2372 468.2931 727.2781 467.7711 726.94 467.2476 725.9626 466.654 725.6646 465.1992 725.8684 464.0674 725.8714 463.6357 725.6327 463.1737 724.9877 462.5087 724.6917 462.074 724.6311 461.6674 724.8549 461.1743 725.4119 460.6047 725.743 459.3304 725.8067 459.1302 725.6454 458.8548 724.9825 457.4806 723.6907 457.2909 723.1411 457.9765 722.6052 458.7053 720.0793 457.8461 718.4177 456.3889 716.6496 455.3735 716.4586 453.8971 715.878 453.6435 715.5765 453.5982 714.8979 453.8528 714.1747 453.7208 713.3437 453.1683 709.864 451.7319 707.309 451.1284 704.6391 451.1936 702.4438 449.207 700.9428 449.0515 697.9221 447.7904 695.9703 447.3817 694.0083 446.6256 692.9512 445.6901 692.4249 444.3126 692.3968 443.5386 691.4041 443.9906 689.4748 443.8082 688.8245 443.0047 688.3407 441.4855 687.9008 441.109 687.8925 440.3387 687.5031 439.7592 686.8096 439.4102 685.6328 439.6372 685.2328 440.4578 684.7013 440.5038 684.4236 440.3866 684.2584 439.8179 684.0894 438.7792 683.0226 438.5489 682.4201 438.0305 681.605 437.714 681.6525 437.1448 682.0604 436.9681 682.0697 436.5504 681.789 436.0544 681.1914 436.0263 680.9763 436.2119 680.6041 436.218 680.2333 435.6895 678.3648 435.8194 678.0062 436.8266 677.2372 437.1624 676.3495 437.0949 676.0722 436.6264 675.6746 436.3422 675.2184 436.407 674.9902 436.9001 674.337 437.0781 673.8104 437.0298 673.0287 436.591 672.5142 436.4831 672.0665 436.6118 671.8494 437.1188 671.4918 437.3514 670.2725 436.9444 667.8894 436.3647 667.2976 436.1549 666.9156 436.3995 665.9597 436.3917 665.0216 435.7043 664.0138 435.6054 663.969 435.0112 663.6997 433.9063 664.2999 433.4476 664.2469 433.1623 664.0043 432.896 663.4628 433.4763 662.143 433.4499 661.8079 433.0276 661.194 432.5559 661.0093 431.9528 661.1537 431.1827 661.1477 430.8022 661.0105 430.3721 660.5471 430.2883 660.295 430.6954 659.7445 431.3378 659.6764 432.3822 658.716 432.1935 657.978 432.1975 657.5781 432.7522 656.2325 433.193 655.7075 433.4902 653.4355 432.9746 651.5462 433.0139 650.6456 433.6146 649.705 433.7314 649.5221 433.9486 648.5031 433.9618 648.2037 433.7532 647.8254 432.8668 647.1536 431.8651 647.2228 431.4844 647.4074 431.0724 647.4207 430.9142 647.2635 431.3262 644.042 431.5239 643.3936 431.8095 643.1233 432.0132 642.5889 431.944 642.3321 431.7064 642.0438 431.198 641.7159 430.8106 641.466 430.207 639.8194 429.2444 639.0203 429.1265 639.0285 428.9575 639.4031 428.7418 639.5318 427.6557 639.8863 427.3497 639.7677 427.3308 639.5898 427.774 639.3078 427.7794 638.6784 427.3567 638.4768 426.9404 638.0866 426.7736 637.2939 426.635 637.2019 426.1731 637.0484 424.8434 637.5776 424.7916 637.8183 423.9292 638.1278 422.9551 637.9207 422.2206 637.4653 422.2549 637.1583 422.6308 636.8051 422.7082 636.4551 422.4847 636.0554 422.0364 635.7528 420.9688 635.6747 420.1103 636.0707 419.7782 636.1025 419.3416 635.8575 418.7102 635.2995 418.573 634.7875 418.0235 633.9226 416.443 632.0313 416.3815 631.6589 415.6136 630.5814 415.3509 630.4799 414.688 630.7041 414.4681 630.6772 413.9953 630.3278 413.6614 629.8851 413.4123 628.6775 412.9481 627.5867 412.569 627.4374 412.37 628.09 412.1416 628.2658 411.5509 628.3693 411.136 628.1117 410.9485 627.2303 410.5653 626.1468 409.3525 626.0938 408.873 625.7489 408.8714 623.9695 408.9922 623.0008 408.9179 622.7 408.6166 622.1126 407.8836 621.6948 407.3914 621.1236 407.2123 620.3293 407.4147 619.6798 407.8688 619.073 407.9112 618.6268 407.7631 618.2715 407.4975 617.7019 406.4021 617.2798 405.1681 615.663 405.0849 614.698 405.4928 613.7266 405.5199 612.7811 403.5674 612.586 402.1724 612.0641 401.7623 611.7882 400.6906 609.6836 400.4308 608.7374 400.1226 606.7675 399.4446 606.1686 398.3513 605.7366 397.9116 605.3296 397.6725 604.6518 397.7631 604.1577 397.7079 603.9401 397.0089 603.2634 396.5212 602.4551 396.0312 601.085 395.5987 600.7766 393.7538 600.2438 392.4076 599.3372 391.1797 599.3267 390.6871 599.0814 390.3149 598.5143 389.6078 598.0567 388.9296 597.7345 388.2017 597.7166 387.9502 597.2773 387.9484 597.2539 387.8732 596.2844 387.6232 595.1037 387.4549 594.7258 387.246 594.5089 386.998 594.4616 385.8245 594.5774 385.4836 594.4256 384.4865 593.4112 383.6841 592.1409 383.1295 591.7418 382.8754 591.3839 382.8269 590.962 383.261 589.7734 383.3358 588.9747 383.2022 588.6393 381.6122 586.5636 381.4276 585.7396 381.2326 585.3998 379.8967 583.7574 379.7405 583.4198 379.4227 582.4931 379.782 581.9603 380.2254 580.749 380.2822 580.5333 380.189 579.6204 379.9584 579.1464 379.3833 578.4503 378.9645 578.1325 378.2955 577.1585 378.4428 576.8802 379.3071 576.7801 379.8152 576.5273 380.2609 576.1404 380.4744 575.6056 380.1807 575.4185 378.7011 574.9355 377.6402 574.6937 377.0288 574.3943 376.0253 572.9544 375.6372 571.7999 376.5406 570.1148 376.5733 569.7751 376.4768 569.4541 374.5103 568.6089 373.4237 567.6778 373.3456 567.1453 373.5554 565.6935 373.4609 565.3318 372.4712 565.3807 371.7461 564.9654 371.4295 564.3799 370.4146 564.1301 370.1355 563.8849 369.5485 561.8252 369.4375 560.7796 369.7778 559.9701 369.7381 558.2668 369.0222 557.1478 368.1637 556.6299 367.8791 555.3776 368.2213 554.6471 368.0196 553.5864 367.3152 552.1555 366.9537 551.9777 366.4341 551.9057 365.8643 552.103 365.6041 551.9236 365.4754 551.3951 365.7262 550.5202 365.2621 549.9761 364.6083 549.4653 364.1279 548.5645 363.9012 547.7 363.9501 546.6808 362.3784 546.5339 362.1021 546.5944 361.5512 545.7756 361.6404 545.6284 361.6692 544.8196 360.891 543.6811 361.1848 542.7104 361.2776 540.6164 360.98 539.0538 360.8102 538.5445 360.6648 538.4093 360.4207 537.3871 360.2469 536.2035 360.2993 535.4855 360.2147 534.4062 359.9558 533.6343 359.5758 532.5008 358.9723 531.7161 358.4859 531.3835 357.3889 531.0511 356.3052 530.3629 355.6692 529.6435 355.589 529.4583 355.6893 529.0491 355.5616 528.8275 355.1619 528.5606 354.3169 528.335 353.521 527.5142 353.3223 527.165 353.9495 526.2805 353.8939 525.6058 352.7726 523.2445 352.4058 523.396 352.1388 523.2649 352.061 522.7027 352.1863 522.263 352.2003 522.2138 352.0325 521.8913 350.4344 520.8121 349.7793 520.8273 349.4709 520.6902 348.8775 520.0988 348.3952 519.7889 347.8852 519.7521 347.1789 519.4913 347.0049 519.3025 346.8239 518.0963 346.5341 517.4634 345.4174 517.1497 344.0715 516.0888 343.2101 515.6098 343.0584 514.9735 342.7041 514.5924 341.7482 514.571 341.2905 514.2762 341.2208 514.0484 339.8173 513.394 339.2834 513.2878 338.8886 513.0033 338.081 511.2028 337.3109 510.3042 337.1917 509.9733 337.2556 509.6909 336.9159 508.5999 336.0822 507.8084 335.903 506.5277 334.2358 505.7325 333.2079 505.6343 332.487 505.7717 331.5789 505.045 331.1092 505.3855 330.6839 505.3994 330.2194 505.123 329.0204 503.1778 328.8986 502.4173 327.7306 501.9886 325.5765 501.8033 325.0913 501.6158 323.8665 501.9162 323.5089 501.2246 323.4962 500.7355 324.5805 498.4397 324.1296 495.9328 324.4495 494.939 324.1571 494.3997 323.1106 494.067 322.3921 495.1393 322.5443 496.6854 321.5484 498.1962 320.7911 497.7467 320.2669 496.4728 320.7577 493.2604 320.5262 492.7007 320.1972 492.1948 319.6693 492.0183 318.1213 492.2115 317.4015 491.9757 317.0717 491.5251 316.3923 489.0682 315.2908 487.9256 315.2071 487.7059 315.3485 486.9903 315.3132 486.496 315.0936 486.1978 314.516 485.9423 314.1779 485.576 314.2024 484.8601 313.6261 484.7377 312.6076 485.0511 312.2722 484.9334 311.8447 484.5916 311.7542 483.718 311.0045 483.1307 310.5236 483.0656 308.769 484.1792 307.5551 484.5054 306.9351 484.1595 306.672 482.8209 306.1134 481.8094 305.1947 481.9571 304.2988 483.3827 303.8606 483.5958 302.556 483.3493 301.1705 483.5582 300.8968 483.7191 300.5841 484.4308 299.8779 484.7279 299.5136 484.3992 299.388 483.9415 298.9089 483.4941 297.2021 483.4616 296.1578 484.0442 295.6949 483.6823 294.4007 483.3725 293.225 482.9124 292.8236 482.5607 292.6803 482.4352 291.8278 482.0474 291.299 482.1121 290.9604 482.4769 290.5962 482.4986 290.0049 482.2155 289.829 481.942 289.4961 481.7247 288.4776 481.9707 287.1734 481.042 286.5737 481.1477 285.7486 481.5709 284.6806 481.2692 283.4622 481.2431 283.1347 481.6049 282.8191 481.777 282.3763 481.8263 281.8681 481.3349 281.3517 481.2026 280.909 481.2517 280.5497 481.0633 280.1476 480.4845 279.893 480.2687 279.6334 480.2624 278.8133 480.9009 277.9372 480.6098 276.6861 480.7457 275.8935 480.6161 275.6276 480.7075 275.4939 480.9217 275.6481 481.4099 275.5944 481.5411 274.9142 481.9461 273.4553 481.7765 273.2355 481.3783 272.8006 481.1856 272.34 481.3245 270.8609 481.3196 269.2291 480.5295 268.1797 479.6802 268.0605 479.3104 266.8561 477.3817 266.597 477.2014 266.4418 477.1629 265.3957 477.5999 263.7714 477.1411 262.8202 476.4703 261.9658 476.4263 261.9444 475.9661 261.7548 475.6892 261.5161 475.6694 261.0155 476.014 260.7376 475.9965 259.7649 475.1068 259.519 474.9228 258.6564 474.7385 258.331 474.7967 258.3262 474.8054 258.07 475.2664 257.5204 475.5556 257.0495 475.4525 256.4899 475.9363 255.549 477.1198 255.6511 477.9967 255.1929 478.8958 254.6754 480.327 254.6522 481.0547 254.0278 482.6871 253.6395 482.7698 252.4578 482.5581 251.1589 481.9102 248.9576 481.6173 247.6415 481.2837 246.5265 481.3031 246.2498 481.5034 246.1777 482.5405 244.5367 483.5019 244.1589 483.5427 243.8157 483.4283 243.3202 482.8405 243.1824 482.4281 242.7125 482.2687 242.4342 482.6878 242.2762 483.2156 241.5583 483.5356 240.96 483.3962 239.9793 483.6114 239.3574 484.4179 238.8808 484.5689 237.9189 484.5685 236.9579 484.3808 236.3681 483.9459 235.975 484.1977 235.2622 485.3028 235.1021 486.3702 234.5746 487.2035 234.4922 487.9558 234.8368 488.5755 232.8704 490.5216 232.0674 490.9878 231.7322 491.6487 231.9338 492.3849 231.7882 494.0159 231.3898 494.4439 230.7265 494.0711 230.4334 494.0191 230.0206 494.2677 230.3662 495.371 230.1101 495.8703 229.6255 495.8023 229.3683 496.9794 229.4711 497.2905 229.7299 497.559 227.3608 499.3574 227.3842 501.3812 226.9485 502.1677 225.8081 504.8847 225.6864 505.6781 225.9762 506.7483 226.1091 508.0891 225.0523 509.6694 224.8716 511.0193 223.7009 511.4348 223.0661 511.3817 222.759 511.2311 222.5916 511.2779 222.3196 511.6454 222.5427 512.3175 221.814 514.384 221.9098 515.6412 221.7315 515.9807 220.9941 516.5046 220.7216 517.8838 220.9017 518.3172 221.8344 518.9493 222.2565 518.9339 222.856 519.2676 223.0998 520.4623 222.3817 521.1759 221.6191 521.5713 221.0485 521.549 220.4768 520.7818 220.2677 520.806 220.0285 521.0141 220.0379 521.3385 220.22 521.708 219.8521 522.8073 219.3808 522.5755 218.9378 522.5329 218.1603 522.8851 218.0026 523.4545 217.7613 523.7281 217.5992 523.7603 216.14 523.0027 215.3757 523.195 215.0426 523.4376 214.8126 523.926 214.9367 524.7487 214.4918 525.5166 214.1181 525.6445 213.9722 526.3876 213.652 527.2378 212.507 528.0312 212.4716 528.5131 212.3135 528.8168 212.0086 529.0691 211.072 529.2379 209.8675 529.7682 209.7396 529.9647 209.6868 530.6532 208.1849 531.9127 208.0039 533.1347 208.1073 534.112 208.0098 534.734 207.613 535.0282 206.9937 535.9783 207.1735 536.8177 207.0782 537.0485 206.3586 537.2481 205.8514 537.1302 205.3184 537.5009 204.472 537.8456 204.02 537.8819 203.8961 537.7415 203.888 537.3959 200.0784 536.3529 199.3496 537.0326 198.9713 537.1197 198.7214 537.0598 198.4776 536.6413 198.047 536.4082 197.693 536.3614 197.4164 536.5009 197.2166 536.8701 196.9207 537.1214 196.489 536.8979 196.6269 536.1126 196.4604 535.5984 195.9657 535.2295 195.2734 535.1593 194.8755 534.9565 195.074 534.2532 194.6544 533.935 193.8808 534.362 193.4153 534.0989 193.4312 533.5392 193.6556 533.1281 193.5234 532.6654 193.1129 532.5486 192.7042 532.8046 192.4988 533.4301 192.194 533.9216 191.7781 534.093 190.5367 533.6655 187.7382 532.2682 187.3399 531.3255 186.2266 530.4151 185.9581 530.3242 185.5916 530.437 185.2258 530.2502 185.1049 529.9688 185.1158 529.3812 184.9182 528.9931 184.3394 528.4098 183.4363 526.9279 181.905 526.4244 182.0134 525.5432 181.9213 525.2563 179.9284 523.8879 178.5658 524.2245 177.7639 524.172 176.9144 523.4132 176.6732 523.0205 174.4723 523.3968 174.0123 523.1228 173.8031 522.6689 173.5968 522.5295 171.8454 521.9334 171.3047 521.9903 170.302 521.3914 169.6369 520.9027 168.5991 519.6357 167.7415 518.0273 167.042 518.4484 166.2228 517.9422 166.4501 516.3012 165.7032 515.6103 165.6079 515.5738 163.9863 514.9536 162.8148 514.417 161.6696 514.1157 160.205 513.8321 157.9352 513.7898 157.8255 513.7262 157.8431 513.3649 157.4737 513.0772 156.3137 512.9542 154.9514 512.6359 154.3578 512.7942 150.5118 510.903 149.4681 510.089 149.3855 509.6005 148.2475 509.0232 147.8635 508.9458 147.3356 508.3673 147.2109 507.9162 146.9174 507.4151 146.4342 506.9384 145.2778 506.3302 144.1544 506.1121 142.7834 504.9021 141.9857 503.9077 141.9516 502.9411 141.0889 501.7144 140.3482 501.301 140.0923 500.9866 140.0157 500.7127 140.1104 499.5168 139.6711 499.142 139.1528 498.8988 138.8755 498.4935 138.9152 498.0528 138.7812 497.7601 137.305 496.7866 137.0798 496.4492 134.345 495.5853 133.7824 495.3021 133.1818 495.6855 132.7195 495.859 132.5165 495.8136 130.5407 494.0709 129.9308 494.018 129.1317 493.0741 129.1604 492.7574 128.873 491.9015 125.7098 489.5121 124.8478 489.0684 123.8561 487.7025 123.2479 487.2248 122.4056 486.7838 120.5325 484.0877 120.4995 483.7247 120.8154 483.3023 120.7929 483.0729 119.8944 481.1217 119.7326 480.1058 119.8217 479.4304 119.1831 478.1075 119.2375 477.2758 117.7139 474.3549 117.6147 474.4255 117.3041 474.2827 116.6507 473.6709 116.1867 471.837 115.8615 471.7656 115.5333 471.1709 115.5508 470.4521 115.3945 469.9361 114.007 468.5202 113.8992 468.3558 113.9079 467.6514 113.121 466.919 112.7073 465.9297 112.5323 463.6734 112.884 462.3185 112.5748 461.2539 112.4026 459.4568 112.1731 459.1503 111.6436 458.9636 111.5494 458.7523 111.766 457.9531 111.4618 456.8544 111.7113 455.8764 112.0432 455.8387 112.3942 455.5363 112.9265 454.4263 112.9192 453.6882 112.5632 452.859 112.4458 451.0775 112.6674 450.6211 113.031 448.9553 113.1024 447.7242 112.2592 445.3741 111.7779 444.5501 111.7105 443.4712 110.5205 441.748 110.3036 441.7258 110.1073 441.8538 109.5472 441.6967 109.4384 441.5207 109.1142 440.1631 108.949 438.8134 107.9021 437.8996 106.8602 436.6206 106.1086 436.2543 105.9246 435.3769 105.8916 434.414 105.7375 434.0186 105.3411 433.673 104.5444 433.3863 103.2507 432.1399 103.4435 430.823 103.786 430.1369 103.2907 429.3887 102.8561 427.2383 102.9434 426.9147 103.1078 426.8115 103.1185 426.6268 102.6172 423.4802 101.9314 421.718 101.8145 420.5475 101.4672 419.1718 100.0108 416.6334 99.1919 416.6882 97.4783 416.278 97.1368 416.0963 96.6763 415.2295 96.7323 414.7159 96.4498 412.4259 95.5778 411.5558 95.5584 410.9545 95.2867 410.5778 94.4621 410.7065 93.0819 410.3751 92.633 410.8122 91.892 410.3805 91.9179 409.529 89.8146 407.937 89.2573 407.1105 89.1251 406.5525 89.1474 406.1518 88.9657 405.9536 88.4014 405.6729 87.3775 405.4036 86.631 405.4388 86.3181 405.2391 86.176 405.0131 86.1492 404.2668 85.9488 403.8965 85.1253 403.8779 84.8273 403.539 84.7041 402.978 84.1707 402.3949 83.4765 402.7641 83.06 402.8159 82.8778 402.729 82.8455 402.5089 82.9843 401.9642 82.7704 401.6443 81.5733 401.469 80.5091 401.8461 80.1502 401.7514 78.6628 399.9433 78.1506 399.9152 77.6396 400.2624 76.9566 400.2248 76.8169 399.6415 76.6769 399.4586 75.0345 398.6083 74.2789 397.8994 73.2622 397.7526 72.2527 397.3861 72.1129 397.2031 72.3264 396.0317 72.0658 394.8019 71.2611 393.9791 70.2735 393.4954 66.8904 390.6215 66.3812 390.0762 66.3407 389.5882 66.1006 389.188 64.3113 387.4986 63.6661 387.4698 62.8505 387.0306 61.6569 384.7134 61.5386 384.3342 61.6864 383.7308 61.424 382.1344 60.8089 381.5725 60.6763 380.8431 60.4304 380.2778 59.0343 379.0574 58.149 379.022 57.9184 377.8929 57.7987 377.7432 54.1954 376.067 53.7596 375.6789 53.6376 375.1189 52.2969 373.9134 51.0266 373.8938 50.4473 373.6607 50.1023 372.5114 50.1564 371.8977 49.9902 371.4383 49.3119 371.0631 47.947 368.9457 46.9901 367.7336 45.1268 364.6276 44.7352 364.3924 43.8272 364.4504 43.5788 364.3664 43.1353 363.209 42.839 362.7611 41.3982 362.6488 41.0647 362.2266 40.5722 360.6692 40.7598 359.7685 40.3241 358.8871 39.3499 358.7425 37.7811 357.1533 37.355 356.7214 32.819 355.9939 31.3073 354.2743 30.9965 354.0992 29.7563 353.8935 28.2767 352.8327 27.2978 351.5255 25.5166 350.7186 24.7936 349.6471 24.5779 348.1925 23.8565 347.2191 23.414 345.2018 22.9265 344.6807 21.4171 343.577 21.0977 341.9538 20.3107 339.3276 18.6275 336.0899 18.4659 335.572 18.0124 334.1177 17.8846 333.7074 16.7064 332.6286 16.5021 332.3218 16.3114 331.3426 16.1481 331.0599 14.0155 329.4959 13.2057 329.2854 12.0731 328.4676 12.0496 328.4506 11.0545 328.7577 10.8389 329.1804 10.5336 329.4037 9.9741 329.5316 9.6815 329.4694 8.6689 328.4858 7.7574 327.3513 7.4827 326.932 7.5132 326.8379 7.5291 326.7074 7.546 326.5682 7.5789 326.4147 7.575 326.3684 7.5662 326.3144 7.4188 326.1903 7.2995 326.1959 7.2677 326.1999 7.2655 326.1942 7.1831 325.8879 7.163 325.8163 7.1536 325.7857 7.1287 325.7053 6.7687 325.4279 6.7657 325.4305 6.6212 325.2647 6.5867 325.2109 6.5199 325.0938 6.4892 325.0398 5.8233 324.7734 5.5555 324.7056 5.5326 324.5965 5.3311 324.5329 5.0693 324.7375 4.6908 324.6979 4.4605 324.4318 4.42 324.3145 4.0962 323.8202 4.0389 323.7734 3.7614 323.5976 3.226 323.5529 3.0869 323.3368 3.3431 322.5165 3.3601 322.1738 3.1746 322.0539 3.1404 322.023 2.612 321.9743 2.2079 321.4914 1.9893 321.2316 1.887 320.9155 1.4255 320.4804 1.4538 320.1042 1.5287 319.8969 1.915 319.2612 1.838 319.063 1.4143 318.6583 1.1349 318.5486 1 318.4015 1.0074 318.1291 1.3152 317.7252 1.7719 317.3841 2.2482 317.2416 3.1145 316.8392 3.1029 316.6708 2.6121 316.2015 2.4576 315.911 2.6044 315.5533 2.5999 315.2042 3.0688 314.6654 3.1399 314.3988 2.9552 314.1533 2.7426 314.0388 2.7136 313.7798 2.8975 313.5214 2.7075 312.9255 2.2829 313.0159 1.8245 312.5867 1.7609 312.3297 1.9695 311.9591 2.3085 311.6889 2.772 311.6349 3.0377 311.3853 3.1234 310.9783 4.4198 311.0509 5.2769 311.1064 6.3818 311.1777 11.3826 311.488 16.6068 311.7989 17.6348 311.8877 17.654 311.8893 20.709 312.0675 20.8664 312.0766 21.4779 312.1121 27.9391 312.5066 28.2531 312.5248 29.3889 312.5776 32.7788 312.7561 37.2965 313.0459 40.4526 313.2466 46.3145 313.6203 47.1833 313.6821 49.1174 313.7714 55.3506 314.1532 56.5019 314.2672 74.6945 315.3851 74.7367 315.3858 74.8292 315.3883 77.0377 315.5141 91.2859 316.3017 91.508 316.3136 91.6327 316.3212 92.5567 316.3683 92.6495 316.3728 93.4534 316.4185 95.8312 316.5414 95.9254 316.5431 105.4944 317.0485 105.4996 317.0488 109.7536 317.2674 122.0734 317.8847 122.2306 317.8958 128.8067 318.2203 128.8169 318.2347 141.0165 318.811 159.4402 319.6386 162.1188 319.7457 168.4446 319.9831 176.1258 320.326 177.6627 320.3877 201.6195 321.303 204.5203 321.4058 205.012 321.4304 205.1737 321.4364 205.1787 321.4258 208.3222 321.5366 215.9977 321.8117 216.1684 321.8167 217.4658 321.8578 217.687 315.6781 217.777 313.1079 217.8276 311.5391 218.7622 284.6033 218.9252 279.9054 218.9551 279.0189 218.9604 278.9143 219.0148 277.2952 219.0814 275.733 219.1597 273.1458 219.1843 272.5666 219.23 271.2862 219.274 270.0056 219.4044 266.3874 219.4271 265.9379 219.4288 265.8671 219.5392 262.8014 219.543 262.7385 219.5432 262.7344 219.5836 261.2426 219.6022 260.6784 219.6099 260.6475 219.6338 259.887 219.6716 259.1013 219.7324 257.6266 219.8786 253.4082 219.8908 253.0315 219.9852 250.4953 220.0223 249.7539 220.1235 247.7271 220.1366 247.4872 220.5176 240.4363 220.8198 234.8473 220.9383 232.2043 220.9774 231.912 221.2017 227.9986 221.2605 226.9827 221.4626 222.7774 221.4627 222.7759 222.1757 209.7845 222.1758 209.7828 222.3851 205.5819 222.4354 204.6932 222.4474 204.0836 222.494 203.5351 222.564 202.5213 222.6638 200.4123 222.7892 197.859 222.8417 197.2532 223.1501 191.6619 223.2431 189.8344 223.4518 186.181 223.4611 185.8411 223.6117 183.0374 223.7434 180.9693 223.8392 178.9006 223.8616 178.3624 223.8819 177.8748 223.9191 176.8259 223.9198 176.4988 223.9295 176.196 223.9345 176.1403 223.935 176.0528 223.9533 175.5933 223.9911 174.6594 224.0439 173.4966 224.0633 172.8854 224.1281 171.1099 224.5038 160.8325 224.5853 158.5115 224.6073 157.5735 224.6074 157.569 224.6316 156.8484 224.6316 156.8473 224.8103 152.0835 224.8107 152.076 224.8155 151.9865 224.8358 151.7971 224.8425 151.7179 224.8441 151.698 224.854 151.4334 224.8587 151.3077 224.869 151.0742 224.8765 150.8325 224.8876 150.5777 224.9029 150.2365 225.0334 146.6566 225.0436 146.3709 225.0439 146.3629 225.0512 146.1571 225.4996 134.9534 225.5758 132.5772 225.6509 131.2883 225.8577 125.8573 225.9775 122.6587 226.1322 118.5224 226.2795 115.0081 226.4242 111.1162 226.8381 100.0133 226.8428 98.9327 226.9145 98.1831 226.9292 97.672 226.928 97.5314 226.9757 96.4924 227.0378 95.1206 227.0501 94.882 227.0508 94.8204 227.0512 94.7945 227.1217 92.7481 227.185 90.6543 227.2327 90.0266 228.2918 63.4954 228.6278 55.1671 228.7779 51.4536 228.7466 51.1061 228.8066 49.8511 228.81 49.0565 228.8951 48.1698 229.5212 32.6833 230.1979 14.0135 230.1959 13.9612 230.6924 1 232.9559 1.0802 Z"/>
</g>
</svg>