<?xml version="1.0"?>
<svg xmlns="http://www.w3.org/2000/svg" version="1.2" baseProfile="tiny" width="800" height="1003" viewBox="0 0 800 1003" stroke-linecap="round" stroke-linejoin="round">
<g id="cb_2018_us_state_5m">
<path d="M 28.8022 1 35.8877 1.3891 50.7884 2.6925 61.3355 2.8652 65.2069 2.8328 69.8885 2.872 109.0176 3.0614 109.656 2.9735 119.2979 3.0678 123.6507 3.0804 124.5015 3.0791 130.2685 3.2669 132.8738 3.1385 146.1162 3.2065 146.3661 3.0926 183.2154 3.2885 183.3312 3.2899 186.4206 3.3278 196.7529 3.3697 200.7918 3.399 201.0512 3.4027 208.0989 3.4117 208.1049 3.4198 214.7145 3.4292 226.4622 3.446 235.5659 3.5493 264.8282 3.7096 264.8651 3.6822 274.4205 3.756 292.4097 3.9161 296.2427 3.8963 303.0879 3.9486 305.9944 4.883 307.2749 4.8646 307.3889 4.8629 315.4664 4.7283 315.4797 4.7283 329.914 4.643 339.8862 4.655 344.2114 4.6579 344.2433 4.6626 350.0504 4.6716 368.7065 4.5441 370.3503 4.544 404.7633 4.4959 404.7657 4.4959 404.8438 4.4957 410.1686 4.4418 416.9715 4.2065 417.6596 4.2141 418.4053 4.2211 473.1881 3.8002 473.5711 48.0609 473.9153 87.9331 473.9398 90.7812 474.1333 128.2643 474.1069 131.6649 474.2171 146.6196 474.2671 153.4128 474.2673 153.4306 474.5959 204.0596 519.2044 203.9077 524.5855 203.9525 550.9877 203.6521 556.8839 203.8974 575.7195 203.6034 594.5513 203.0956 596.4912 203.1974 613.3831 202.6976 613.9943 202.5773 625.0142 202.2951 631.3387 202.1291 632.2123 202.2056 632.3435 202.2076 636.0032 202.0238 654.1163 201.7343 654.2663 201.722 675.1858 201.1829 675.4162 201.163 681.0573 201.0148 701.0486 200.6092 702.3698 200.5814 707.5205 200.263 745.1514 198.9373 747.9688 198.6523 756.754 198.6533 775.3649 198.169 776.6478 232.9951 777.2138 255.2505 777.6296 265.6145 777.7017 267.4115 777.9362 274.2692 778.0947 290.0177 778.1154 290.1084 778.2383 298.0818 778.3253 299.0521 778.5283 309.1777 779.8274 353.4275 780.0717 361.7697 780.0769 361.7969 780.8055 385.9728 780.8002 386.1056 781.9122 422.8186 783.0926 465.6345 783.9842 498.1249 783.9844 498.1308 784.8318 524.2759 786.0979 572.3008 786.6759 597.4771 786.8689 608.8797 786.8804 608.9614 787.0047 616.3858 786.987 616.5601 787.1163 622.4354 787.0711 638.3235 787.1643 653.4164 787.7347 677.4826 788.3401 697.3087 789.5855 742.1148 790.6049 748.1909 793.0758 764.1443 793.1297 766.4711 793.8387 797.1541 793.8514 797.5997 793.9317 802.1525 794.6316 815.5177 794.684 820.7387 794.7006 822.3952 794.8915 828.528 794.9214 829.7702 795.1671 836.8966 795.3463 846.8992 795.4737 848.8485 795.6048 854.242 795.6202 854.6345 795.7868 863.645 796.0504 872.0784 796.0778 873.3022 796.2042 875.9924 796.6028 890.646 796.5953 890.6608 796.5719 896.7835 796.6047 899.8119 796.84 921.733 797.4928 946.6697 797.5686 946.7957 797.7959 954.4764 797.7675 956.2765 797.8997 961.174 798.3913 974.1782 798.3844 974.1995 798.4029 974.6969 798.4727 977.3284 798.5576 979.2905 798.6121 981.638 798.6055 982.0213 799 996.7126 777.3353 997.2852 768.946 997.5136 766.8632 997.5533 764.2388 997.6396 763.4704 997.6642 763.1701 997.6673 745.9704 998.1375 745.4624 998.1477 727.2776 998.6027 706.5098 999.2435 666.6597 1000.0448 646.7346 1000.5306 646.7338 1000.5279 646.7011 1000.4247 643.3686 1000.4654 571.8784 1001.7018 568.5613 1000.6337 567 1000.5152 551.2455 1000.8701 547.0852 1000.9245 547.071 1000.8638 527.141 1001.1819 476.784 1001.7597 466.0661 1002.1469 446.7482 1002.1861 443.0118 1002.3244 431.5434 1002.2514 422.721 1002.189 422.6649 1002.1924 421.5621 1002.1961 270.8747 1001.9048 269.0799 1001.8708 242.0286 1001.7222 241.7439 1001.7203 240.9904 1001.7 238.7771 1001.6864 230.6747 1001.5911 195.6404 1001.2445 184.5288 1001.1168 173.8014 1000.9854 115.4227 1000.0386 89.5626 999.5435 79.4914 999.3382 14.4933 997.8432 14.4935 997.8334 1 997.4081 1.2596 979.8429 1.2608 979.3355 1.1662 976.7412 1.4717 970.695 1.4867 968.1368 1.6945 963.1005 2.0474 950.8361 2.2096 940.8604 2.213 940.7281 2.2837 939.0266 2.2863 938.926 2.6554 923.5817 2.6568 923.5269 2.9225 914.081 2.882 911.4133 3.0623 903.2678 3.1496 899.3268 3.2055 897.2321 3.2753 894.2889 3.2829 894.1703 3.621 879.2199 3.7596 876.829 3.9466 870.5363 4.5975 848.6532 4.5898 848.6026 4.6116 848.4616 4.7477 846.6046 4.983 844.7518 5.4371 835.9228 5.3178 833.1672 5.4259 827.4064 5.6162 821.6484 6.104 797.9785 6.9502 768.3162 6.9509 768.2838 7.4361 748.0858 7.6251 745.1469 8.2384 717.2341 8.2437 717.2068 8.6763 698.1872 9.0056 689.4416 9.0219 688.6471 9.1072 683.6247 9.1075 683.6138 9.6931 662.7781 9.9844 652.43 10.183 648.2923 10.7901 623.34 10.9432 623.0947 11.0288 622.5984 11.5302 597.2797 14.4502 498.5897 14.5772 490.0436 15.799 446.7945 15.906 439.8565 16.1365 434.4964 16.6027 417.5273 16.6031 417.5152 17.1772 399.393 17.3124 392.7586 17.7442 379.2343 17.724 377.9684 17.8011 375.4329 18.4998 352.4743 19.3921 319.2742 19.5887 313.9847 19.7105 312.8976 20.0117 300.085 20.01 299.8199 20.1132 297.6687 21.5722 253.8296 21.6987 247.3678 21.7058 247.2604 21.8683 244.7744 23.2658 199.2382 23.266 199.2324 24.5066 157.7693 24.3579 157.1323 24.581 155.3343 26.2472 101.1304 26.1862 99.4857 26.8979 76.4581 27.0205 74.5566 27.7423 48.8558 28.0923 29.5431 28.0988 29.5477 28.5055 22.7246 28.8022 1 Z"/>
</g>
</svg>