<?xml version="1.0"?>
<svg xmlns="http://www.w3.org/2000/svg" version="1.2" baseProfile="tiny" width="800" height="350" viewBox="0 0 800 350" stroke-linecap="round" stroke-linejoin="round">
<g id="cb_2018_us_state_5m">
<path d="M 728.7923 189.8082 729.0472 189.5367 729.456 189.7072 729.9082 190.6225 730.4765 191.0621 731.2779 191.21 731.4731 191.7859 730.9656 192.4079 730.5769 194.7498 730.0988 194.9191 729.0405 194.0323 728.7005 191.387 728.7923 189.8082 Z M 759.3297 176.7113 759.7605 176.8249 760.6742 177.2786 761.4241 177.065 761.2897 174.7201 761.6061 174.3526 761.8538 173.6085 762.1777 173.1901 762.2476 173.0971 762.5586 172.6834 762.6818 172.3059 762.8331 172.1672 763.2233 172.0268 763.3637 171.8218 763.4091 171.39 763.4189 171.3881 769.1128 170.5612 779.792 169.0437 786.3947 168.1176 786.6459 168.0823 795.1915 166.7843 797.3061 166.4695 797.8873 166.3829 799 166.2589 794.2064 174.5206 792.2602 178.9397 790.5709 182.2712 789.3599 184.712 788.2549 186.1385 787.4836 186.9997 786.8165 187.5529 786.3057 187.4848 786.0089 187.0496 785.7608 186.1058 785.1698 185.498 782.5513 185.514 781.2736 185.6473 780.0155 186.3834 778.634 187.8798 776.712 190.19 773.8912 194.5403 771.1737 200.4084 770.182 201.8275 769.6917 203.3285 769.0666 206.2704 768.4102 207.0415 767.745 210.6264 766.7651 214.84 765.8317 217.0987 766.0337 219.8701 766.112 220.8982 767.2881 221.2633 767.1578 222.0744 765.933 223.952 763.5558 228.1385 760.8189 232.2013 759.5728 232.8467 759.8435 234.667 760.551 234.5885 761.6868 234.4624 762.306 235.9464 761.6394 237.4673 760.5872 238.7614 758.7536 241.5926 756.7201 245.4837 756.145 247.0223 756.3127 247.2466 756.2436 248.2348 755.4353 250.0088 752.7522 253.6405 751.5156 254.6802 751.3313 254.6804 750.9524 254.2455 750.2662 254.3126 749.6644 254.8429 750.0318 257.0827 750.1522 260.6793 749.4411 261.9837 749.4591 263.0414 748.8698 264.3875 747.9394 264.8661 748.3806 266.0687 748.2434 267.1201 746.9969 268.329 746.678 269.5673 744.6792 271.3835 742.7429 274.1643 741.9525 275.32 740.9455 276.307 740.0653 276.7901 739.215 277.0558 739.5832 275.7714 738.0161 274.9381 736.637 275.5879 736.3372 276.147 735.4638 276.2632 735.714 277.9242 736.6374 278.4999 736.7715 279.8107 735.5745 280.5328 733.9932 280.394 733.2044 279.6085 733.2099 278.6238 734.018 276.4406 734.0237 275.2209 733.1627 271.8584 731.1112 268.182 730.3863 267.4804 729.691 266.2445 729.5779 264.5947 729.8435 263.1223 729.5007 262.6798 728.3187 260.0932 728.4778 258.7133 729.2091 257.2769 728.4289 256.3244 728.7895 252.8942 729.1574 251.204 730.6466 248.8072 731.5959 246.7808 732.1489 242.4758 731.8152 241.1539 731.8929 238.9733 732.3405 237.6804 733.7353 234.9421 733.4618 234.0234 733.4559 233.2584 733.804 231.0659 734.5766 228.4573 735.4424 226.9209 735.6402 225.1226 735.6675 224.8748 735.2815 224.0882 735.2601 223.4461 736.6802 219.0779 738.0292 216.3673 740.9545 211.7645 741.734 210.8393 741.6143 210.1134 741.6771 208.5351 742.4764 206.6673 743.7445 206.0486 744.4682 205.433 745.0725 203.9278 744.9877 203.1924 745.2953 202.4342 745.5742 201.9874 746.7342 201.0207 747.5428 199.4542 746.6387 197.8015 746.0208 196.0231 748.2944 194.4318 749.1115 194.1293 750.4324 194.3532 753.0058 194.0292 753.6459 192.831 754.8197 192.3704 755.4173 191.5699 755.5729 190.2469 756.0394 189.0518 756.6133 188.8007 757.7933 187.3171 758.1755 185.9341 757.9115 184.3962 755.792 182.7643 754.7692 182.6413 754.3996 182.8601 754.2048 183.2094 751.7384 183.3688 751.1961 183.2654 751.0924 183.0643 751.276 182.5139 755.4299 178.5575 756.1821 179.3751 757.1488 179.1837 759.3297 176.7113 Z M 728.973 177.2794 728.1277 177.9566 726.8167 179.5204 725.4887 181.9548 725.1315 180.2996 724.0442 177.4067 724.496 177.3448 724.5231 177.3434 725.5807 177.3555 725.642 177.3395 726.3101 177.3084 726.3673 177.3058 726.4406 177.3047 727.8502 177.2907 728.973 177.2794 Z M 167.3801 224.811 167.2731 225.2204 167.4265 225.4054 168.2103 225.1468 168.3969 225.1559 168.4337 225.2689 168.3833 225.3924 168.3451 225.7914 168.4395 225.9555 168.7301 226.0173 169.4516 225.6039 169.6378 225.703 169.6378 225.782 169.2908 226.0994 169.2698 226.3902 169.3191 226.5307 169.6273 226.8628 170.6165 227.1642 171.2274 227.7518 171.1901 227.8894 171.0904 227.9848 171.0795 227.9952 170.6637 227.9995 169.8181 228.2649 169.6362 228.3625 169.5218 228.5528 169.531 229.0346 169.3342 229.15 169.0319 229.083 168.7816 229.113 168.6547 229.1962 168.5609 229.3704 168.5184 229.8136 168.5337 229.9072 168.6638 230.0473 168.6611 230.2719 168.604 230.3307 168.231 230.3484 167.5072 230.087 166.9513 230.4939 166.2828 231.1011 166.1343 231.0957 166.0288 230.9917 165.5234 230.946 165.1295 231.0275 164.8326 231.2443 164.4614 231.9764 164.5201 232.796 164.801 233.8668 165.2717 234.6018 165.4686 234.6758 165.9404 234.348 166.3018 234.3636 166.9736 235.0641 166.9172 235.2016 167.2573 235.6187 167.9132 235.5077 168.7803 235.8185 169.0972 236.4807 169.3702 236.5241 169.5309 236.4636 169.7506 236.4738 170.0458 236.7299 170.0662 236.9694 169.8109 237.4696 169.5424 237.8234 169.8444 238.9211 170.2476 239.4946 171.0791 239.9801 170.967 240.4242 170.8454 240.5079 170.6968 240.5063 170.4355 240.682 170.3504 241.1115 170.5719 241.5472 170.5077 242.0463 170.0338 242.5804 169.7024 243.5786 169.7757 243.84 169.9605 243.9366 170.0512 244.3641 169.9383 244.5365 170.2627 245.2638 170.2885 245.2813 170.584 245.526 170.3979 245.9922 170.5709 246.2008 170.6535 246.3971 171.0341 246.5166 171.1111 246.639 171.1436 246.8798 171.4668 247.3735 171.9129 247.3897 171.9546 247.4506 172.0119 247.4657 172.273 248.0631 172.3243 248.1439 172.4129 248.1896 172.4529 248.1892 172.6569 248.1636 172.7298 248.2505 173.0548 248.409 173.0549 248.5071 173.3475 249.5058 173.396 249.5009 173.4613 249.5044 173.4615 249.5794 173.5502 249.7343 173.635 249.7338 174.1257 249.629 174.1966 249.6827 174.3735 249.6959 174.7709 249.6523 174.8959 249.5461 174.9785 249.5871 175.0016 249.9348 175.4707 250.3996 175.5156 250.6094 175.7393 250.932 176 250.9205 176.6552 251.5522 176.6802 251.7613 176.316 251.9553 176.1454 252.2005 176.1189 252.2753 176.1601 252.3534 176.2017 252.4066 176.4483 252.7428 176.672 252.8555 177.0191 252.6321 177.1669 252.6575 177.2206 253.3483 177.1878 253.3901 177.1398 253.4457 177.2114 254.0637 177.1438 254.4672 177.1772 254.9026 177.5075 255.2082 177.8019 255.2869 178.1495 255.1872 178.2303 255.1935 178.5686 255.1113 178.9739 255.2352 179.0673 255.3432 178.9689 255.5122 178.9558 255.6692 179.8353 255.9637 180.3487 255.9958 180.6266 255.9511 180.9602 255.8164 181.2192 255.6004 181.3492 255.602 181.5342 255.5877 181.7186 255.3027 181.9188 255.2744 182.8289 255.433 182.8691 255.589 182.8143 255.7478 182.8325 255.8095 183.1577 255.5558 183.2335 255.4967 183.8093 255.7342 184.1544 256.0547 184.1454 256.3622 184.3313 256.5493 184.5703 256.6793 184.5761 256.6842 185.2206 256.7758 185.4737 256.6791 185.6025 256.6692 185.7033 256.652 185.8013 256.6169 185.9443 256.6762 186.184 256.8329 186.1666 257.0784 186.165 257.1748 186.178 257.3077 186.4071 257.5877 186.6012 257.7256 186.6717 257.8523 186.7487 257.9069 187.089 258.0134 187.2323 258.1052 187.2807 258.3765 187.2739 258.7575 187.4927 259.1213 187.6185 259.1662 187.6807 259.2553 187.4166 260.0141 187.4179 260.2215 187.3291 260.4184 187.35 260.6154 187.7825 261.0686 187.8496 261.139 188.3428 261.1714 188.8338 260.9856 189.0277 260.9088 189.3215 260.9218 189.6427 261.2544 189.9419 261.6762 189.9696 262.3373 191.5154 263.6446 191.861 264.2067 192.6531 264.2875 192.9469 264.4935 192.9013 264.5342 192.9511 265.184 193.1221 265.4292 193.3802 265.5763 193.4137 265.6944 204.5534 265.428 204.7737 265.2585 204.8702 265.3147 204.9087 265.3661 204.9823 265.352 205.2243 265.2369 205.655 264.6209 206.06 263.8681 206.1353 263.7995 207.2197 263.5171 207.759 263.2477 208.3992 263.1366 209.5486 262.4994 209.6912 262.3567 209.8114 261.7094 209.814 261.0913 209.9718 260.7121 210.0477 260.4267 210.149 260.1367 210.5763 259.5018 210.6797 259.5199 210.6774 259.6041 210.6117 259.6762 210.6427 259.9042 210.8527 260.18 211.1738 260.3601 211.9976 260.4272 212.3222 260.3754 212.6873 259.9098 214.058 259.383 214.2665 259.0743 214.2831 258.9137 214.2216 258.7185 214.3847 258.6116 214.8303 258.5614 215.3243 258.2687 215.4018 258.153 216.8678 257.9438 217.3255 258.1573 218.3994 257.9272 218.9031 257.0955 219.1063 256.6619 219.0947 256.565 219.1493 256.4198 219.6988 255.1838 219.5839 254.9191 219.8644 254.5864 220.2477 254.4423 220.3822 254.2639 220.3376 254.0413 220.2155 253.8655 220.2398 253.5297 220.6621 252.855 221.2554 252.4568 221.39 252.3928 221.4753 252.4415 221.5556 252.5929 221.6292 252.6231 222.0014 252.724 222.2688 252.6592 222.5428 252.6473 222.7224 252.4644 222.858 252.002 223.2207 251.6016 223.1864 251.3772 223.0737 251.2406 223.0671 251.0907 223.1908 251.0234 223.2959 250.7789 223.3704 250.6117 223.7691 250.4138 227.612 255.0863 231.8208 258.8851 236.381 262.995 238.3295 262.0797 240.8941 260.3685 241.961 259.8139 242.7313 259.5368 244.3085 259.1285 247.155 258.0931 248.8479 257.6442 249.8748 257.4612 254.3176 256.8785 255.7708 256.4521 257.0504 256.2545 257.8005 256.0596 258.2366 255.871 259.7967 255.5843 259.8374 255.7873 259.5343 256.3219 259.6073 256.6279 259.7163 256.7165 260.304 256.8854 260.9991 256.8175 262.7734 256.419 263.7085 255.9176 264.379 255.6253 264.7667 255.5381 265.509 255.261 267.3033 254.2528 269.2726 252.6458 270.3496 251.521 270.7012 251.2973 272.2178 250.5732 269.1289 246.0977 271.1401 242.8272 270.9867 242.544 270.9267 242.2077 270.9373 241.8593 271.1396 241.3031 271.4909 240.7268 271.4916 240.7257 271.5902 240.8787 271.6005 240.8947 271.7261 241.0304 272.0874 241.0566 272.3216 241.1619 272.723 241.4886 272.9227 241.474 273.169 241.1924 273.545 241.2383 273.6577 241.3959 275.9529 243.4522 276.2204 243.6053 276.4422 243.8663 276.3615 244.194 276.4475 244.5853 276.9776 244.8752 277.1267 244.8703 277.9336 244.9051 278.5093 245.0467 278.586 245.2617 278.5748 245.5165 278.6731 245.7129 279.1821 246.3053 279.1919 246.3593 279.782 247.7183 280.7514 247.4403 281.8191 246.8494 282.1209 246.8488 282.8342 246.5748 283.4488 246.3311 284.2127 245.9255 284.9853 245.6515 285.9655 245.2076 287.2575 244.3875 287.9381 244.0595 289.8128 242.9596 289.8939 242.9607 290.6031 242.5756 290.9003 242.3524 291.6331 242.0547 292.4906 241.4396 292.436 241.3094 292.4545 241.2128 292.7412 240.9981 292.9345 240.8954 293.5036 240.7642 293.8528 240.774 293.9109 240.4586 294.421 240.056 296.0034 239.2883 296.849 238.6793 296.9607 238.4609 297.3824 238.0701 299.2512 236.9282 299.7167 236.5571 300.6129 236.1246 301.2946 236.0036 301.7705 236.033 302.3725 235.8216 302.4758 235.7382 302.8558 235.7167 303.3138 235.7808 304.1044 235.5989 304.2696 235.4975 304.465 235.2366 306.1461 238.1143 305.7106 239.6482 305.9159 240.8068 307.7062 242.2828 307.9728 242.1891 308.731 241.9225 309.4533 241.2082 310.0184 241.0082 310.8147 240.5372 312.4797 239.1712 314.6575 237.9694 314.9388 237.7377 316.5924 236.8103 316.9933 236.6971 317.5986 236.3884 317.8402 236.0919 318.4396 235.6982 318.1042 235.112 320.2932 234.2869 321.4047 234.1169 321.8734 233.9311 322.4914 233.5253 323.0446 233.2896 323.5648 233.0684 323.5194 232.955 324.4756 232.4432 326.1679 229.4702 325.3014 229.1 323.6142 230.1557 321.6572 229.0674 321.9307 228.6229 322.2254 228.5056 322.5216 228.4672 323.1666 228.1573 323.3662 227.9088 321.886 225.7333 325.0832 224.0702 326.2689 223.2926 327.4198 222.6383 328.063 222.3846 328.5043 222.1394 329.3782 221.3672 330.2831 220.8063 331.6512 219.2715 331.905 218.904 332.1402 218.363 330.4369 217.1569 329.0211 216.5766 329.0175 216.5788 328.1937 216.238 328.1928 216.2357 328.0488 216.1827 328.0447 216.1844 327.8241 216.1212 327.803 216.1094 327.5361 215.7693 327.5389 215.7631 326.7039 214.7862 325.5463 211.5966 325.5394 211.5675 325.198 210.6332 325.3932 210.3905 326.0568 210.0986 327.2181 208.758 327.5093 208.3245 328.237 207.4742 328.8295 207.2671 329.3165 206.6467 329.3991 206.4861 329.4233 206.1816 328.6516 205.7295 328.4309 205.1527 328.97 203.0514 329.0646 203.0187 329.5135 203.0865 329.6881 202.9414 329.6367 202.4422 329.5562 202.2439 329.982 201.6147 330.5021 201.4886 331.3956 200.7688 331.5468 200.4522 331.826 200.3874 332.3576 200.467 332.7485 200.654 332.8161 200.7406 332.8546 200.695 332.9355 200.5731 332.9224 200.0368 332.6691 199.8778 332.5302 199.8911 331.8076 198.862 331.6657 198.7863 331.6948 198.5098 331.9038 198.0107 332.7218 196.7285 332.8782 196.7641 332.9455 196.7278 333.4453 196.4056 333.8728 196.0117 333.9388 195.6618 334.2297 195.0341 334.5384 194.6506 335.0144 194.1527 335.8023 193.4542 336.2364 193.3896 336.4622 193.2258 336.085 192.3803 336.1387 191.925 336.2597 191.6799 336.7411 191.5324 337.1877 190.8217 337.1958 190.5748 337.4939 189.9883 338.143 189.0466 338.9409 188.2623 339.4084 187.6671 339.56 187.7831 339.6684 187.9612 340.0574 188.1857 341.0098 187.382 341.0956 187.241 341.1543 186.945 341.2413 186.8346 341.8051 186.3904 341.8615 186.379 342.0849 186.5384 342.3555 186.4254 342.3859 186.0857 342.236 185.9125 342.252 185.723 342.4523 185.4076 343.4116 184.4228 343.7839 183.9275 344.3796 184.0316 345.3013 182.6858 345.8869 181.9837 346.3988 181.5035 346.4903 181.1966 347.2439 180.6193 347.516 180.5285 348.1642 180.0785 348.2128 180.0268 348.7163 179.4899 348.9642 179.4187 350.1234 178.1944 351.2698 177.1424 352.3152 176.2839 352.3735 176.0771 352.3445 175.905 352.4119 175.7645 352.7253 175.5077 353.3264 175.2859 353.6242 174.9245 353.9373 174.3161 354.0102 174.0421 353.9673 173.7464 354.0566 173.5024 354.5219 172.8677 354.8955 172.7617 355.0213 172.4747 354.9348 172.2977 354.9528 172.1706 355.466 171.1747 355.6429 171.0004 355.802 170.9794 355.9403 170.8865 356.0912 170.5936 356.2409 170.174 356.0944 169.8579 356.0855 169.7079 356.3421 169.1976 356.6325 168.7993 357.4401 166.9094 357.425 166.3171 357.9799 164.9311 358.0622 164.803 358.478 164.4812 359.1215 163.616 359.5092 163.2464 359.809 163.0364 359.8904 162.9033 359.9245 162.7256 360.1973 162.4636 360.5198 162.0608 360.6466 161.7861 360.3359 161.5386 359.8993 161.4708 359.5561 161.3424 359.4732 161.239 358.9549 158.858 359.1554 158.534 359.9984 158.4056 360.4466 157.9048 360.4807 157.3506 360.4875 157.2922 360.7925 156.665 360.8172 156.6382 361.0166 156.5922 361.4401 156.1323 361.8136 154.6231 361.7976 154.5559 361.704 154.5142 361.5309 154.5153 361.4417 154.2716 361.4718 154.0066 361.6506 153.6721 361.6679 153.3763 361.2595 153.1378 361.2443 153.0872 361.6361 152.6926 361.72 152.617 361.7072 152.3918 361.8913 152.1398 362.2127 152.2033 362.6695 152.081 363.392 151.6094 363.9175 150.805 363.9748 150.5051 364.0086 150.3889 364.0487 150.2379 364.3842 149.9203 364.5376 149.8518 364.741 149.8645 365.2266 149.4965 366.6907 147.978 367.3238 147.1383 367.947 146.8781 368.3193 146.0893 368.4365 145.9624 368.6451 145.9042 369.157 145.9484 369.3791 145.8779 369.4696 145.7593 369.4858 145.5148 369.5886 145.2074 369.7868 144.9561 370.3107 144.8673 370.7063 145.1351 370.8358 145.1418 371.0686 144.9928 371.2849 144.7509 371.2082 144.503 371.2113 144.3342 371.3565 143.9663 371.5665 143.7041 372.0925 143.8541 372.568 143.5886 372.8526 143.059 373.0581 143.0072 373.6167 142.8664 373.7292 142.743 373.8668 142.1983 373.6682 141.2604 373.1535 140.1769 372.9322 139.9573 372.4723 139.9493 372.426 139.4008 372.3654 139.1694 372.0419 138.8002 371.8068 138.3999 371.8056 138.2014 371.9442 137.8794 372.3815 137.3505 372.8037 136.9719 372.9426 136.7344 373.0989 136.2227 374.0961 135.355 374.7219 135.2756 375.304 134.8163 375.6098 134.0692 375.9492 132.9996 375.8726 132.6988 376.1409 132.3311 376.7768 132.2135 376.9691 132.2387 378.0322 132.6557 378.3578 132.6436 378.9221 132.3377 379.1637 131.9314 379.419 131.7367 379.6331 131.6912 379.7352 131.5739 379.771 131.5031 379.7549 131.2295 379.6694 130.6692 379.588 130.565 379.326 130.5007 379.2154 130.3617 379.393 129.5344 379.7325 128.7394 380.0803 128.4524 380.5893 127.026 381.0096 126.6179 381.3826 126.0847 381.3697 125.7861 381.608 125.3528 383.2084 123.5027 383.1884 123.3331 383.0949 123.1976 383.0305 122.9067 383.0606 122.5358 383.2351 122.1867 383.06 121.7364 383.2986 121.3519 383.3703 121.2412 383.3638 120.4809 383.3181 120.2612 383.1194 119.661 382.7076 119.0248 382.3977 118.9249 382.3387 118.4371 382.3976 118.2973 382.7214 117.9806 382.8509 117.9262 382.9248 117.606 382.7357 117.5513 382.6006 117.1789 382.5471 116.8634 382.8417 116.0333 383.0524 115.7691 383.1432 115.7351 383.4175 115.8076 383.9239 115.2027 384.0554 114.8253 384.0632 114.3839 384.178 114.0998 384.7637 114.1299 385.0951 114.4544 385.2244 114.0794 385.2246 114.0685 385.2588 113.9449 385.3716 113.8391 385.5495 113.734 385.7545 113.7005 385.8866 113.5355 385.807 113.1542 385.4607 112.4848 385.1851 112.1727 385.0185 112.0996 384.8898 111.9556 385.2875 111.306 385.4695 110.8205 385.2157 110.2116 385.2608 109.4868 385.6659 108.1358 385.8978 108.1859 386.207 107.9632 386.0818 107.5101 385.9995 107.3785 386.2108 106.7506 386.3228 106.7043 386.5189 106.3278 387.1921 104.5141 394.342 107.9618 394.8525 108.038 395.8538 108.321 397.0452 109.1643 397.4434 109.3345 397.5123 109.3922 397.5726 109.4426 397.8927 110.0044 397.9096 110.1828 398.0284 110.4098 398.9857 111.4765 400.9649 115.7976 403.0748 120.63 412.9473 124.2739 418.3389 126.1395 419.4775 125.7892 419.6951 125.6064 419.8871 125.4066 420.2515 125.2309 420.372 125.0974 420.5675 125.0746 420.7123 125.1237 420.8287 125.2797 421.0739 125.4185 421.3389 125.1034 421.3854 124.6979 421.332 124.5428 421.3034 124.3812 421.1293 124.1024 421.1128 123.882 421.1041 123.8075 421.1544 123.7566 421.8745 123.255 422.1049 123.1329 422.5387 123.0232 422.7357 122.6143 422.9189 122.3789 422.9629 122.2812 423.1335 121.8667 423.7607 120.9354 423.8879 120.9517 424.4191 121.2551 424.8574 121.1539 424.9328 120.8111 424.9224 119.9459 425.1094 119.2921 425.6377 118.9185 425.898 118.7976 426.4536 118.512 426.5811 118.3713 426.8948 118.0249 426.8564 117.5198 427.0759 117.2115 427.436 116.9972 427.8686 116.5656 427.9221 116.4092 427.9238 116.403 427.9531 116.2497 428.1265 115.71 428.1257 115.6737 428.2139 115.3063 427.8445 114.8406 428.3309 112.8106 428.7424 112.4206 429.167 111.365 429.4965 110.6892 429.9183 110.0973 430.3767 109.6124 430.6798 108.6154 431.0739 107.9518 431.2397 107.8583 431.2741 107.8327 431.6055 107.6456 431.6341 107.515 431.5427 107.2292 431.6187 106.9325 431.8819 106.399 431.9508 106.3137 432.3123 105.8663 432.7644 104.775 432.8026 104.585 432.7379 104.5133 432.7235 103.7167 433.1729 103.0891 433.0631 102.7676 433.0831 102.5291 433.4697 101.4145 433.8707 100.8194 433.8925 100.7984 434.2771 99.7782 434.5574 99.4467 434.7529 99.3526 434.8051 99.0393 434.8655 98.8321 434.9431 98.6762 434.9502 98.6356 435.1292 98.4035 435.3657 97.5487 435.4875 97.3354 436.1867 96.7682 436.3727 96.7216 437.1801 96.7848 437.6609 97.2031 438.9069 96.8165 438.9273 96.4244 439.0887 95.6525 439.3882 95.1189 439.7199 93.6106 439.6098 93.3367 439.3785 93.1813 439.1293 92.8949 438.9922 92.0986 438.9664 91.9867 438.9491 91.7291 439.5318 90.1031 439.4691 89.6156 439.6385 89.0814 439.9659 88.4766 440.1819 87.8832 440.4717 87.3495 440.7237 87.0059 440.827 86.7092 440.8471 86.3646 441.5647 85.5475 441.9275 85.2756 442.2445 84.8609 442.273 84.7183 442.3218 84.1123 442.426 83.5897 442.6029 83.424 442.8069 83.3892 442.8354 83.2348 442.8004 82.7472 442.7268 82.6043 442.5514 82.4372 442.4321 82.1514 442.4984 81.8307 443.0569 81.2386 443.28 81.0731 444.5214 81.2088 444.8828 81.2102 445.0686 81.0801 445.4608 80.309 445.4256 79.8335 445.3335 79.7024 445.3731 79.0487 445.794 78.0162 446.0544 77.7675 446.4992 77.7216 446.8706 77.4971 447.0009 77.3311 447.0383 77.2362 447.0205 77.0459 447.1333 76.5946 447.3955 75.8111 447.7062 75.3887 447.7206 75.2832 447.5938 74.7538 447.7874 74.5238 448.1751 74.1984 459.7009 84.5854 460.0145 84.1055 460.2216 83.5394 461.6635 80.7871 462.8714 78.8255 463.1429 78.4826 463.6081 77.6249 464.1746 76.5118 464.7371 75.2513 465.125 74.2984 465.3819 73.5191 466.4931 71.3299 466.9197 70.9754 467.0619 70.6804 467.2521 70.0808 467.4381 69.8357 468.0707 69.2289 468.6636 69.058 469.9329 68.2526 470.1004 67.9349 470.3563 67.635 470.3433 67.4146 470.7274 66.4109 471.8012 65.0741 472.9761 64.6412 473.1758 64.6515 473.3249 64.5852 473.6922 64.2452 473.8223 64.0359 473.5864 65.1671 473.5423 65.4817 473.5689 65.6274 473.5736 65.6872 473.6016 65.91 473.4668 67.148 473.5674 67.6161 473.6749 67.7761 473.8108 67.8077 473.9043 67.7443 474.2326 67.2886 475.0008 66.5084 475.6431 66.4646 476.1919 65.6811 476.4865 65.3739 477.1015 65.248 477.2089 65.3106 478.1133 64.3019 478.4911 63.6601 478.5566 63.3773 478.9082 62.8872 479.1887 62.6883 479.5591 61.9287 479.8078 61.1072 480.3404 60.2203 481.0953 60.3768 481.6452 59.4353 481.6468 59.1685 481.7951 58.8591 481.9146 58.7069 482.2732 58.5036 482.7555 58.5003 482.8054 58.6563 482.7994 59.1258 482.9203 59.5128 483.3236 59.3024 483.6127 59.2685 483.8734 60.028 484.4945 60.6385 484.518 60.4094 484.7493 60.0508 485.0154 59.9738 485.2698 59.7684 485.6903 58.9764 486.2234 58.1633 486.3106 57.8087 486.4505 57.5508 487.3735 56.2442 488.181 55.3573 488.3941 55.0159 488.8076 54.6295 489.0475 54.4806 489.2185 54.2794 488.5794 53.8846 488.3702 53.5208 488.0324 53.2987 487.8681 53.3456 487.7975 53.3019 487.2367 52.626 488.3348 51.4864 488.6344 51.1349 488.8633 50.715 489.4653 49.9998 489.6548 49.8827 489.7918 49.7021 490.1583 49.2189 490.9439 48.518 491.4192 48.315 491.7721 47.9768 492.3178 47.2026 492.3943 46.908 492.3455 46.6994 492.7488 46.3332 493.1145 45.8866 493.4598 45.557 494.2332 44.6545 494.3088 44.4152 495.3109 43.655 495.8506 43.3603 495.9528 43.413 496.1326 43.6419 496.3324 43.5613 496.6039 43.3326 496.671 43.1968 496.9352 42.9997 497.5617 42.9397 499.4417 40.7015 499.5936 40.3113 499.6944 39.5665 500.5544 38.2528 501.7835 37.5734 501.9068 37.3802 502.7249 36.4969 502.4224 36.0875 501.9604 35.8711 500.6351 34.6828 500.4142 34.1539 500.8186 33.5659 500.7617 33.43 500.2134 33.0836 499.6773 33.0337 499.4936 32.8689 499.6403 32.6644 500.0924 32.0749 500.1808 31.9526 500.3061 31.8014 500.4799 31.6111 500.8421 31.2016 501.4002 30.5518 502.529 28.9239 502.5823 28.112 502.6517 27.7306 503.0693 27.4133 503.0586 27.383 502.1965 26.383 501.6877 26.0077 501.5507 26.0465 501.3236 25.9692 501.246 25.8018 501.7242 25.0358 502.7716 23.659 502.8604 23.5063 502.8177 23.4489 503.147 22.9614 503.6351 22.7632 504.0551 22.0983 504.2005 21.7566 504.1953 21.5206 504.3194 21.3469 505.3423 20.1259 505.6287 19.8213 506.029 19.5281 506.2613 18.676 506.5479 18.5889 506.6889 18.6201 506.789 18.4162 507.9432 16.0802 508.0197 15.8522 507.8191 15.6514 507.8395 15.5702 508.1805 15.1756 508.2882 15.1686 508.3996 15.3124 508.5843 14.9493 508.6138 14.7967 508.4723 14.369 507.7162 14.2228 506.4675 13.8657 506.044 13.6881 506.4319 13.2592 507.1449 12.2197 508.2058 10.1732 507.5793 9.6936 507.6305 9.1716 506.8455 8.3495 506.6627 7.7754 506.7132 7.3586 506.9622 6.9576 507.4554 6.3982 507.7185 5.9415 507.8674 5.5623 507.7536 5.1751 507.2658 4.4741 507.765 4.0219 507.8768 3.78 507.9201 3.4237 507.8024 3.181 507.8352 2.822 507.9386 2.4865 507.9985 1.7751 507.5996 1.4531 507.8172 1 507.822 1.0038 513.2612 5.407 515.5828 7.1123 518.7209 9.8422 520.8777 11.7491 522.5419 13.0611 525.2376 15.4946 526.8325 16.6323 529.8069 19.1446 532.3107 21.1665 532.4641 21.2903 536.7973 24.7855 536.7974 24.7856 536.8293 24.8113 555.8019 40.3485 555.8154 40.3595 556.3579 39.4447 556.3504 39.118 556.2773 38.7958 556.2855 38.5218 556.415 37.9674 556.6854 37.624 557.1575 36.4616 557.3308 36.1581 557.5297 36.037 557.8142 35.5763 557.8944 35.3615 557.9531 34.9066 557.9242 34.7436 558.5327 33.1445 558.5521 32.9762 558.4757 32.343 558.501 32.2139 558.8256 31.5405 558.9101 31.085 559.3526 30.4725 559.8142 29.4178 560.0294 29.0797 560.3213 28.7922 560.9252 27.8985 560.9672 27.7262 561.2913 26.397 560.9864 26.3984 560.9595 26.355 560.9721 25.701 561.007 25.6157 561.1251 25.5622 561.215 25.414 561.3511 25.4504 561.6886 25.3158 561.7822 24.7699 561.8321 24.6874 562.0555 24.1631 562.0838 24.0341 562.3271 23.3926 562.3728 23.319 562.5624 23.0617 562.5658 22.9867 562.5356 22.7065 562.59 22.3444 562.8092 21.6398 563.0765 20.9577 564.1948 18.8778 564.6371 18.4863 565.407 18.1425 565.5611 17.9985 565.5984 17.8055 565.9353 17.882 566.6842 17.7653 567.6304 18.1034 568.0424 18.1208 568.5794 17.9413 569.0729 17.4902 569.4938 17.4369 569.6111 17.422 570.0287 17.7167 570.5141 18.2662 571.9142 18.9909 572.9032 19.2824 573.2884 19.3327 575.1499 19.9135 576.0721 19.7883 576.7192 19.9955 577.2861 20.0595 577.6995 19.9757 578.5911 19.5765 579.3668 19.4341 579.684 19.4576 579.7551 19.5163 579.9987 19.7175 580.1289 19.9525 580.053 20.8343 580.2412 21.8244 580.9634 22.634 581.158 23.0341 581.6436 23.545 581.7925 23.766 581.8914 24.0885 582.1379 24.3221 582.705 24.6226 583.8121 24.9984 583.9511 25.0674 584.0774 25.2155 585.116 25.7498 586.2066 25.9246 587.1134 26.3244 587.3135 26.4958 587.6755 27.0212 588.57 27.8602 589.5929 28.5781 589.7889 28.8393 589.8312 28.9719 589.8117 29.3284 589.7242 29.53 589.6383 29.7277 588.707 30.5528 588.3903 30.9649 588.1866 31.7261 588.2821 32.5676 588.0726 33.0979 587.961 33.257 587.287 33.6819 585.5242 34.1335 585.0257 34.5635 584.5032 35.4724 584.076 36.6465 583.7584 38.1482 583.5395 38.4146 583.5509 38.6017 583.604 39.4742 583.8182 40.6001 584.1557 41.2285 584.2555 41.4144 584.6841 41.6866 586.1308 42.2204 586.5708 42.3233 587.421 42.7566 587.8437 43.1845 588.2458 43.8126 588.682 44.735 588.9657 45.4609 588.9936 45.5127 589.6115 46.6578 589.7209 46.7868 590.0229 46.9527 590.5209 47.0954 591.9476 47.2976 593.266 47.724 593.982 47.7671 594.9854 47.9842 595.2324 47.9638 595.4823 47.9432 596.7351 48.2587 597.248 48.1541 597.7147 48.3273 598.4119 48.3427 599.1328 48.2237 599.9993 48.1962 600.923 48.0813 601.3659 48.22 601.5058 48.311 601.5365 48.4866 602.0402 48.6831 602.4186 48.8306 603.2847 49.3294 603.6727 49.3475 604.5726 49.6317 605.3072 49.9776 607.0283 51.4282 607.8357 51.6756 608.8273 51.8866 609.4701 52.2455 609.472 52.2474 609.6955 52.4798 609.8337 53.0483 609.6311 53.6814 609.1849 54.0923 608.8413 55.1673 609.1031 55.9598 609.4578 56.1922 609.5435 56.3573 609.4168 57.12 610.8206 58.2398 611.0489 57.8569 611.1098 57.8066 611.2585 57.8114 611.4088 57.9819 611.7349 58.5778 612.0591 58.8152 612.9868 59.0268 613.1882 58.9048 613.7178 59.0748 613.8214 59.1921 614.2856 59.3156 615.1344 59.2191 615.6217 59.0569 616.6501 59.1951 617.0107 59.2013 617.111 59.1164 617.259 59.126 618.5771 59.3637 618.8473 59.458 618.9947 59.5498 619.8349 60.5942 620.3868 61.5243 620.7992 62.3972 621.532 63.0556 621.5356 63.0588 621.7113 63.2856 621.8386 63.6996 622.142 64.1344 622.8109 64.8485 623.0917 65.5809 623.2989 65.7914 624.0031 66.3978 624.3304 66.5945 625.075 66.8554 625.4313 66.8947 626.1968 66.979 626.3744 67.083 626.4589 67.1529 626.8326 68.4067 627.3357 69.4136 627.6185 69.4155 627.7221 69.5207 628.0079 69.9794 627.9936 70.2175 628.2024 70.5111 628.4603 70.4353 628.5214 70.2321 628.4249 70.0079 628.5353 69.9704 628.7176 70.0993 628.7321 70.1096 628.9879 70.4381 629.1333 70.8041 629.1567 71.0771 629.1228 71.256 629.837 72.8424 629.8556 72.8839 629.7725 73.9315 628.9518 74.1241 628.7203 74.1281 628.6949 74.2015 628.6499 74.3314 628.6671 74.7829 628.7999 74.9589 628.882 74.8862 629.0118 74.8958 629.2001 75.0709 629.3097 75.497 629.2324 76.3542 629.3373 77.0419 629.5517 77.1214 629.2945 78.8022 629.304 79.8919 629.2595 79.956 629.2065 80.0996 629.1907 80.6417 629.1489 82.0741 629.1479 82.6403 629.1431 85.2363 629.142 85.8547 629.233 86.2812 629.2242 87.8743 629.1534 88.5889 628.8655 89.0932 628.1606 89.6285 627.037 89.6894 626.4285 89.5789 626.3388 89.468 626.2552 89.5018 625.7223 89.7175 625.0958 90.1308 624.5939 90.4618 623.9359 91.0434 623.5933 91.0848 623.2995 91.268 621.828 92.6 620.8778 94.0423 620.7232 95.6912 620.6099 96.8999 620.9924 97.5595 620.9705 97.9165 621.1686 98.6504 618.6312 98.5251 617.0392 100.001 614.536 100.8726 614.3213 100.8046 614.2353 100.0807 613.1692 98.4446 612.6073 98.4208 610.911 98.3484 610.3514 98.7968 610.1593 99.5844 610.5267 100.518 610.4057 104.0984 608.8008 105.0466 608.7242 105.3481 609.1672 107.1235 607.734 109.3099 607.7754 110.201 607.3527 111.3316 607.1318 111.9224 606.442 113.062 605.5578 114.1144 605.4016 114.3965 604.6917 115.6787 603.595 118.8803 603.3644 121.0571 604.0146 124.7391 604.8244 127.1213 604.6981 127.9211 604.4539 128.0885 604.237 128.8054 606.2377 130.4147 606.9952 131.6307 606.9907 132.6046 607.1119 132.8984 607.1985 133.1082 607.8244 134.0004 609.1725 134.7269 611.5271 134.8778 615.2986 133.7149 617.1698 133.5636 618.7139 133.054 619.4032 132.4422 620.9515 130.4112 624.0704 130.1533 625.011 130.3683 625.9282 130.2837 627.2926 129.1194 628.5519 126.9214 628.9739 126.5714 629.7077 126.3845 631.4748 127.9896 632.7156 129.4228 632.3098 133.3368 631.9619 134.8202 631.0914 136.934 631.5186 137.9894 634.2421 140.871 634.9428 141.3475 635.771 141.2995 637.6033 143.3744 638.0388 144.9484 638.0892 145.761 637.6401 146.5121 637.2513 146.5847 637.1834 146.8662 637.6812 148.416 640.0581 149.7628 641.9516 150.0408 642.5264 150.3485 645.9047 153.2416 649.3331 154.2138 650.6895 154.168 652.6698 153.6117 654.0238 153.4408 656.137 153.6474 656.6651 153.6989 657.6623 154.2098 658.2936 154.8065 658.5642 155.2961 658.6875 155.951 658.7051 156.044 660.3361 157.0658 661.9586 155.6492 662.1994 154.8767 663.7303 154.7519 665.5998 155.7657 667.6241 155.6496 668.0329 155.2572 668.9171 155.0509 670.3806 155.5497 671.3495 157.885 671.6975 160.0997 673.7426 161.8637 677.1896 163.9151 677.8867 164.784 679.2295 167.9575 679.5145 168.8757 679.8169 169.8497 682.1405 170.9075 684.2714 171.2953 684.66 171.6808 684.9502 173.06 688.2938 175.5419 689.3709 176.7305 691.7228 177.6355 694.6669 178.3264 696.2145 178.881 703.6177 182.9724 706.43 185.5411 705.7316 188.8009 705.2308 192.2446 703.8996 194.1427 703.0581 194.7274 702.5547 194.7482 702.3579 194.5733 702.4029 194.1013 702.1161 193.6043 701.3059 193.5762 700.0273 194.8414 699.8146 196.9282 700.1917 197.6565 699.7783 202.2011 700.5156 204.6337 699.7981 205.7905 700.7906 207.6524 701.0751 208.7287 700.8612 209.491 699.978 210.0305 699.688 210.0295 699.2249 210.5232 698.804 210.9718 697.4478 213.5051 698.1672 214.6944 700.6335 215.0861 701.9617 215.7552 702.4051 216.2586 703.2469 217.8484 703.1737 218.3867 700.4387 217.4832 695.4715 218.977 693.6553 217.0429 692.8038 216.6683 691.9447 216.8901 687.7361 214.1707 684.9579 212.6394 683.3405 212.626 683.1386 212.9383 682.6419 214.919 682.2786 215.3192 681.4674 215.5088 678.9299 213.0395 678.8072 212.4053 678.9823 210.1909 678.7705 208.8428 678.4902 208.1903 676.5075 205.4526 674.9334 201.9597 674.1609 200.6214 673.2539 200.1708 673.0593 200.314 672.485 200.2016 671.2124 199.2748 668.6541 197.9558 667.786 197.508 667.1121 196.2646 665.009 194.069 663.8383 194.4366 663.007 194.4651 661.0434 192.8407 660.5581 192.1868 659.9836 191.0396 659.4489 189.4613 658.5642 188.2318 656.8526 187.8611 656.5175 185.5067 653.6694 182.4642 651.5675 181.5582 650.0725 181.4648 649.1365 179.7555 648.5786 176.8581 647.0182 175.6406 643.9565 173.9166 643.3842 173.9122 642.2752 173.9036 641.4565 175.968 643.5814 177.0313 645.198 179.452 649.2137 183.3461 653.0021 185.8781 655.1025 189.0504 655.286 189.8061 656.8888 192.4789 658.3483 194.3872 659.9964 197.3837 661.0023 198.5708 661.7944 198.8672 664.212 198.8979 664.7848 199.3376 664.9691 199.7229 664.8396 200.0034 664.852 200.6602 664.8627 201.2249 665.1077 201.9166 665.4849 202.3305 666.7278 202.8051 668.978 202.8694 670.8966 203.5587 671.1226 203.8449 670.7525 204.3731 670.9074 205.1668 672.1933 205.906 673.0828 206.7844 673.2134 207.2905 673.0234 207.7548 673.0589 208.4916 674.8603 212.1872 674.5514 213.3265 675.4472 215.1149 678.4802 218.6056 679.3285 219.101 679.952 219.2314 688.5798 218.8532 690.0525 220.4976 690.9923 222.4816 693.6155 223.4599 696.0008 223.3252 698.3838 223.7012 701.4687 224.6122 701.6866 225.0941 701.2533 225.8592 698.6757 227.6963 697.7853 227.4877 696.9424 227.7205 696.3953 228.8263 695.9112 229.8044 696.0315 230.4929 696.6877 231.4893 698.9045 232.6229 701.0193 232.2646 701.8595 231.1285 701.9684 230.6057 701.7746 230.4391 701.8422 230.1107 702.2208 229.9733 702.7398 230.2434 703.43 230.9748 705.0169 234.081 706.3124 238.1024 706.5748 241.1153 706.991 243.2174 707.1696 245.2683 706.9054 246.6672 706.0185 248.2498 705.6323 248.4065 705.4121 248.8149 704.7199 251.476 704.8424 253.0166 704.5441 254.4788 703.855 253.4089 703.0115 252.8311 701.3657 252.2516 701.0122 251.2231 698.5346 248.2013 695.74 247.0236 693.7873 245.8146 693.3641 245.2037 693.1099 244.5371 693.1824 244.2823 692.0785 244.0538 691.0905 243.8492 690.7675 244.3723 690.8549 245.8849 690.4569 246.3355 689.0433 246.5601 688.3433 248.1572 689.3559 249.5528 692.1161 252.0557 693.9473 255.015 694.191 256.622 694.6442 257.6538 695.8002 258.3427 697.3602 258.4206 697.6629 258.933 696.4636 259.4069 693.5952 260.1016 691.2925 260.2786 690.883 261.3293 690.1908 261.5704 685.774 262.0035 685.1084 261.5091 684.1337 262.1692 683.6273 263.1865 683.1984 264.0478 684.1326 265.0309 686.2596 266.0985 693.5819 264.8381 693.9985 265.0859 693.6639 266.1563 693.4688 267.7026 694.131 268.5886 693.9836 270.2115 693.3999 272.0657 693.2436 272.5622 693.7155 272.8724 694.9874 273.0624 695.5525 272.4387 697.0038 271.4826 698.0422 271.2103 698.5686 271.7263 698.4161 271.9356 698.5084 272.4223 698.9045 273.4287 699.5055 274.3177 699.8476 274.606 700.4245 274.4527 701.6937 274.9443 703.5041 276.3117 704.0153 277.3884 705.2938 280.0806 705.6271 281.2614 704.7999 283.841 703.9511 286.486 703.7267 287.1848 703.0943 290.328 702.7445 291.2255 702.0097 291.3637 701.725 291.2148 701.739 290.3049 701.3993 289.7764 700.3096 289.7191 699.2513 289.6633 698.574 290.6908 697.7975 291.1619 696.1788 291.7486 695.2632 292.3655 694.8614 292.8124 694.0607 293.7029 692.9401 295.2997 692.7544 295.7907 692.6541 296.0558 691.9671 295.9296 691.0109 295.2507 689.4471 292.9915 688.726 291.9492 688.6756 291.1846 688.9187 291.1473 689.0683 290.8064 689.0021 290.71 688.5484 290.0497 687.4729 288.4842 682.8637 285.3431 682.2979 285.2974 681.516 284.4119 681.3407 283.7856 681.4686 283.5686 681.483 282.6495 680.4549 281.9392 678.752 282.9389 677.88 282.7624 677.5203 282.4185 676.3815 280.522 672.6505 277.9022 672.0121 276.9951 672.2131 275.2004 672.6965 274.9101 673.8496 273.0387 673.8505 273.0373 673.6243 272.2526 673.2174 272.2235 673.2128 272.2113 672.6852 270.8118 672.3605 269.251 671.9695 268.4756 671.3266 267.5381 670.2415 266.4599 669.3979 265.8939 665.6747 265.7409 664.759 266.2128 661.7429 266.8993 661.4474 268.0473 660.9311 269.1082 660.6501 269.4431 659.9528 269.7562 659.2585 269.5849 657.7108 267.9034 657.0614 267.5269 656.268 265.9309 655.779 264.9468 653.3666 263.6963 653.0403 263.5271 649.6165 263.8621 648.2641 261.3473 647.9743 261.563 644.9591 263.8059 642.269 264.3058 641.6126 264.8616 641.128 265.2719 643.059 266.9018 644.9687 268.5545 646.6349 268.8991 649.001 267.7222 651.8003 268.0301 655.007 268.8794 655.5586 269.9273 659.4125 273.1584 660.3167 274.4521 661.3077 274.9532 661.9689 275.031 663.3856 274.6878 663.478 274.5146 665.0783 271.5167 665.4099 270.1131 665.4816 268.9719 666.0705 268.5884 667.5975 270.3733 668.2004 271.5135 668.1606 271.853 667.7547 272.3678 667.5097 273.3282 667.5385 275.2 667.5402 275.3111 668.0279 275.7622 669.0132 279.111 668.9308 280.6654 668.0784 283.1285 667.9021 284.5555 668.0646 285.6461 668.6372 286.7413 669.4656 287.5056 670.2304 287.8393 673.4464 287.8437 675.8956 288.6061 676.7617 289.3233 678.1968 291.5213 679.3176 292.0729 681.8625 293.8125 682.0485 294.1351 681.9447 294.4668 682.2561 295.0696 682.9954 295.6628 684.238 295.9726 685.4876 297.4706 685.8792 300.251 686.0722 301.6203 686.1423 303.5519 686.0383 304.1334 686.4966 304.6757 687.3533 305.6893 688.7966 305.5152 688.9217 305.161 688.8441 304.4839 689.4354 303.2236 689.9791 302.8663 690.9701 303.0312 691.7345 303.2965 693.2429 303.8198 693.2996 303.8109 695.1314 303.524 695.2255 300.7032 698.2758 300.6881 698.767 303.9559 700.584 304.6274 701.7769 305.0679 702.0461 303.8419 702.0614 303.7722 702.0989 303.0028 701.6606 302.9569 700.9663 302.8841 700.7189 301.5455 700.4139 298.7443 700.6761 296.264 701.1137 296.2888 701.7795 296.7236 703.3161 295.4724 703.4481 295.2037 703.4698 295.1594 704.664 295.0578 706.2996 295.5157 706.6926 295.7898 709.4908 297.7409 710.7707 298.3737 711.7386 298.6558 713.8055 299.2576 714.1652 299.3228 715.0409 299.4814 716.7182 299.7851 718.6177 300.1285 719.5811 300.4882 722.8462 301.7062 723.2169 301.7065 723.564 301.7068 726.3673 300.6422 727.7666 299.3425 728.6636 298.7942 730.538 298.8842 731.1323 299.0695 732.2285 299.8709 732.7121 301.1893 734.6841 308.894 734.7847 309.2867 735.5217 312.8122 737.2069 318.8649 740.0875 326.9995 743.2316 334.1976 744.9949 339.7234 745.7866 343.6364 744.575 343.6724 744.4891 343.675 743.9834 343.6899 743.9262 343.6916 743.411 343.7069 743.2873 343.7224 743.2011 343.7131 742.5448 343.7412 742.3142 343.7511 742.1902 343.7547 741.7799 343.7668 741.5509 343.7735 740.5396 343.8031 737.6013 343.9005 737.5441 343.9021 737.3246 343.9085 737.1433 343.9137 730.5502 344.1014 729.7865 344.1109 721.428 344.345 703.2147 344.828 703.2063 344.8282 697.1561 344.9579 688.7018 345.1322 686.2003 345.2165 681.424 345.3756 681.4096 345.3761 679.8579 345.3864 678.1814 345.3972 662.6375 345.701 661.5556 345.7949 658.5366 345.823 656.0755 345.8783 645.6837 345.9011 645.5823 346.0637 645.5611 346.6224 645.6859 346.8828 645.6872 346.8853 628.5928 347.0911 625.7533 347.2143 623.091 347.2466 621.9717 346.9998 621.9592 346.997 621.4647 346.8878 619.5079 347.0556 618.0802 347.2662 609.3214 347.3793 566.0741 347.8129 564.4107 347.8416 554.7721 348.002 554.0813 348.0131 553.4053 348.0208 551.7421 348.0433 538.45 348.2003 538.404 348.1979 537.7553 348.2055 529.4742 348.2989 529.4348 348.2949 518.7231 348.2823 518.6067 348.2912 511.2298 348.3845 511.2225 348.3846 500.4914 348.5532 500.0266 348.5519 498.5205 348.5807 498.5202 348.5807 497.1999 348.6023 497.1779 348.6035 493.4582 348.7581 491.5709 348.7711 491.2565 348.7688 484.3508 348.7656 479.6162 348.6742 478.809 348.6584 478.1657 348.6555 472.0454 348.6691 469.7269 348.6732 469.0546 348.6873 466.1085 348.6855 466.1058 348.6855 454.8107 348.6322 454.7269 348.6317 452.1871 348.6082 452.1636 348.6122 449.4581 348.595 449.34 348.5983 448.6368 348.5991 434.7321 348.6052 434.6039 348.6088 433.4713 348.5787 433.4336 348.5786 426.713 348.5624 426.6372 348.5592 425.7799 348.5663 422.7912 348.5903 413.8718 348.5263 404.0745 348.4457 404.0483 348.4483 401.7489 348.4492 397.8693 348.4494 397.5827 348.4444 382.9531 348.1805 382.9071 348.18 378.3677 348.1032 361.9015 347.8056 361.4898 347.812 360.2392 347.8314 358.7667 347.8108 354.2879 347.7468 354.2371 347.7429 351.8765 347.7103 348.5303 347.6631 348.5236 347.663 346.0293 347.6216 339.4667 347.5096 334.9459 347.3739 334.7453 347.3672 329.6117 347.2208 329.3393 347.2021 322.9439 347.0812 309.9375 346.1041 309.84 346.0924 309.1274 346.04 302.3719 345.5554 292.7289 344.8549 291.5152 344.766 288.7911 344.6122 287.8038 344.5172 283.8852 344.1389 281.4496 344.0823 277.3108 344.2334 274.4244 344.1081 271.2545 344.2328 271.2018 344.2359 271.1719 344.2336 265.099 343.7802 265.0932 343.7797 261.0305 343.5269 260.8735 343.5067 255.358 343.3199 254.6351 343.2068 250.1159 342.7901 249.8277 342.7775 247.7926 342.6889 243.8291 342.3603 242.2081 342.2822 239.4077 342.0298 238.8859 341.9088 231.9163 341.5657 230.7274 341.4498 226.4188 341.1991 222.0543 341.1112 222.0483 341.1111 219.9973 341.0582 213.576 340.6154 210.3266 340.0909 209.0862 340.2197 208.093 340.0954 206.0737 339.951 198.4781 338.9443 191.179 338.583 194.1873 335.8479 185.6078 335.517 177.057 335.0153 167.9269 334.4661 166.7424 337.042 158.6121 336.7318 146.5963 336.2599 146.3109 336.2484 146.1051 336.2462 143.889 336.1716 143.5786 336.1409 143.2465 336.1094 142.509 336.052 140.4149 335.9027 140.3669 335.8904 139.3465 335.8574 139.1811 335.8622 138.9648 335.8512 138.8755 335.848 137.2994 335.7892 132.4459 335.6066 132.1738 335.5963 116.0105 335.1028 114.8675 334.9248 114.0524 334.8639 107.6612 334.7143 107.1389 334.7017 107.0151 334.6966 102.4306 334.5888 95.6955 334.3514 94.1813 334.2865 81.3603 333.72 75.8768 333.511 66.6336 333.0587 62.6243 332.8596 62.5192 332.8493 41.5265 331.8575 41.435 331.8445 41.3966 331.8383 40.3692 331.7938 38.9472 331.2123 29.5613 330.8419 20.3139 330.3855 12.258 329.9576 6.003 329.549 3.8313 329.203 1.5022 328.9884 1.5012 328.9844 1 328.9557 1.09 328.6905 1.2425 328.5081 1.9625 328.4155 2.1588 328.3069 2.7506 327.7432 3.5605 327.2028 3.7115 326.4965 4.0155 326.3341 4.5325 326.29 4.9772 326.5398 5.5644 326.428 5.9419 326.317 6.4439 326.0102 6.7974 325.6241 6.994 325.3249 7.6403 324.9899 7.8632 324.9183 7.9861 324.9367 8.1048 325.0382 8.3247 325.0258 9.8908 324.5961 10.5776 324.5844 11.3141 324.1587 11.7202 323.8584 12.0324 323.5295 12.8554 323.2748 13.5059 323.2253 14.0413 323.0031 14.9 322.4168 14.918 322.251 15.0327 322.0546 15.2585 321.9235 15.4949 321.9594 16.5594 321.824 16.977 321.667 17.4308 321.738 17.9558 321.7175 18.1049 321.5942 18.2873 321.5679 18.6745 321.6354 19.1354 321.9448 19.7252 322.1536 21.249 322.4084 21.7697 322.4138 21.7895 322.414 22.0608 322.3207 22.3685 322.4555 22.9989 322.4281 23.7021 322.2734 24.1066 322.3773 24.5646 322.3649 25.3303 322.2966 25.736 322.186 26.4813 321.95 28.0372 321.3143 28.1274 321.2236 28.069 321.0539 28.1005 320.9961 28.7028 320.3717 29.0169 320.1967 30.8193 319.5614 31.1629 319.3524 31.3446 319.3377 31.5182 319.4892 31.6132 319.494 31.8856 319.3766 32.0651 319.211 32.1626 319.1509 32.4334 319.0826 32.5437 318.9691 33.2162 318.6574 35.8309 317.9658 36.0926 317.8716 36.2515 317.7367 36.6663 317.6262 38.5137 317.4317 38.6004 317.4121 38.7213 317.2753 39.7064 316.9904 39.9902 317.0281 40.2982 316.9599 40.854 316.6896 41.6281 316.6322 42.5219 316.2593 43.2732 316.0816 43.4715 316.1151 45.0543 315.6683 47.0175 315.0253 47.5133 314.8112 49.3091 314.8857 50.0953 314.971 50.6596 314.9147 51.1284 314.6634 52.1331 314.7589 53.0617 314.6484 53.2806 314.2422 53.6118 313.8771 53.9178 313.7679 53.9067 313.1077 53.8636 312.9279 54.0798 312.5649 54.1755 312.5366 54.1831 312.5214 53.5518 312.1354 53.5767 311.9923 53.6838 311.8195 53.9225 311.4996 53.992 310.8245 53.7209 310.1094 54.0178 309.6593 54.5425 309.5335 54.9568 309.2108 55.4155 308.4521 55.8095 307.959 56.0817 307.7584 56.5752 307.2452 57.0536 306.3633 57.0635 305.3283 56.9886 305.0986 56.8182 304.8763 56.7885 304.6964 56.8219 304.5909 57.112 304.2832 57.8474 304.0084 58.0745 303.8287 58.2763 303.5763 58.9821 303.3239 59.4107 303.3083 59.5654 302.8395 59.4259 302.1545 59.7324 301.6929 60.04 301.8263 60.3248 302.042 60.5324 302.0755 60.8759 301.8416 61.625 302.0909 62.0887 302.1363 62.4084 302.0084 62.6152 301.8514 64.0726 301.7883 64.1664 301.8164 64.2892 302.2506 64.5172 302.4635 65.3849 302.825 65.7042 302.8391 66.0049 302.7823 66.2441 302.3292 66.7834 301.7779 67.7141 301.5224 68.6164 301.4977 69.1665 301.5939 69.2979 301.7582 69.457 301.7751 70.3649 301.2395 71.2636 300.8502 72.6082 300.7778 74.0817 300.0532 75.0875 300.0609 75.1002 300.0609 75.2296 300.0897 75.4741 300.0233 75.5262 299.9141 75.4656 299.7221 75.4758 299.5422 75.6381 299.4316 76.6826 299.1924 77.2077 298.9611 77.4491 298.6622 77.742 298.4865 78.2321 298.4361 78.3222 298.3807 78.4011 298.1155 78.3733 298.0009 78.3386 297.8582 78.5592 297.5995 78.8704 297.4915 79.192 296.9737 78.9642 296.7682 78.5225 296.2029 78.6536 295.94 78.8956 295.7032 79.0573 295.5728 79.5568 295.0585 79.7546 294.7153 79.9253 294.5581 80.0799 294.3356 80.2663 294.2243 80.4121 293.928 80.4847 293.7237 80.4543 293.343 80.4255 293.3003 80.2822 292.7733 80.1833 292.5455 80.2503 291.8902 80.317 291.7751 80.3968 291.3938 80.7813 291.0067 80.8256 290.8495 80.5673 290.8109 80.3795 290.567 80.1677 290.3492 80.0414 290.3177 79.9289 290.3006 79.7704 289.6868 79.5104 289.3996 79.5089 289.3406 79.6176 288.6211 79.6551 288.3725 79.7361 288.1026 79.8287 287.9833 79.9116 287.9235 79.9763 287.9002 80.0853 287.8172 80.2782 287.711 80.4933 287.9241 80.742 287.9339 80.8569 287.8415 80.9065 287.4723 81.1765 287.1319 81.281 287.1621 81.3939 287.2226 81.575 287.3518 81.9961 287.3309 82.3671 286.9849 82.4822 286.9597 82.624 286.9762 82.8741 286.7719 83.0955 286.4085 83.3912 286.2465 83.5713 285.767 83.4504 285.3565 83.5233 285.0491 83.6642 284.7993 83.9861 284.7455 84.2154 285.0116 84.3007 284.9854 84.5074 284.7765 84.669 284.7897 84.8882 284.6762 85.0839 284.9081 86.3331 284.6509 86.6302 284.4605 86.7473 284.6027 86.7847 284.8186 86.863 284.9176 86.9919 284.9718 87.24 284.8317 87.2831 284.7737 87.4166 284.6924 87.4359 284.6736 88.0759 284.6919 88.4537 284.1993 88.5643 283.8759 89.0942 283.8471 89.5671 283.2466 89.6421 282.9915 90.3486 282.5193 90.8299 282.629 91.0332 282.7525 91.1331 282.9373 91.3977 282.8171 91.6502 282.2777 91.8869 280.9125 92.0114 280.7295 92.8571 280.5823 93.0297 280.7181 93.5381 280.9006 93.6527 280.8461 93.6896 280.8286 93.9137 280.5594 93.85 280.2574 93.8887 279.6855 93.9994 279.0343 93.8665 278.4819 93.6606 277.9579 93.6246 277.2246 93.9472 276.9403 94.1414 276.9886 94.4585 276.9408 94.6188 276.7676 94.5866 276.4896 94.4998 276.3508 94.2772 276.2039 94.0621 275.8187 93.916 274.9897 93.9779 274.8632 94.1907 274.7155 94.2792 273.8902 94.271 273.3646 93.8905 272.6148 93.8918 272.242 93.9198 272.1365 94.3296 271.6441 94.6961 271.4101 94.8844 271.439 95.702 271.0701 96.8863 270.4039 97.9544 269.9354 98.4422 269.9872 98.691 270.0704 99.2034 269.6783 99.5815 269.2773 100.0892 269.0709 100.5659 268.9532 100.8497 268.3016 100.9944 268.2229 101.1507 268.1588 102.8785 267.9516 103.7359 266.9562 104.4663 266.3685 105.3538 265.8206 106.3986 265.3835 106.8572 265.0096 106.8214 264.8095 106.8991 264.7191 107.4545 264.4119 108.1991 264.1008 109.5226 263.2521 109.5271 263.2493 110.2198 262.8629 110.6431 262.4981 110.646 262.4956 110.981 262.317 112.774 261.482 113.0693 261.2983 113.4797 261.1706 114.2497 260.7656 115.0386 260.3506 115.0825 260.3117 115.9569 259.8337 116.2003 259.782 117.064 259.4582 117.1499 259.3873 118.4142 258.9191 119.3908 258.6346 119.9629 258.6582 120.4571 258.1699 120.7312 258.0204 122.0123 257.7645 122.4581 257.7489 123.7014 257.2562 126.8021 256.3918 127.0291 256.3386 127.6596 256.3937 128.8195 255.9022 129.6912 255.8407 130.1148 255.6363 130.9857 254.8337 131.0377 254.0294 131.4956 254.184 132.0142 253.9098 132.6749 253.8203 133.2294 253.325 133.3927 252.9207 133.4343 252.6058 133.5396 252.4619 133.7077 252.3083 134.1876 251.8698 135.8928 250.5584 139.555 247.5931 144.5909 243.4653 144.6846 243.3419 152.1633 237.4136 158.1979 232.4416 159.3619 231.3395 167.3801 224.811 Z"/>
</g>
</svg>