<?xml version="1.0"?>
<svg xmlns="http://www.w3.org/2000/svg" version="1.2" baseProfile="tiny" width="800" height="1197" viewBox="0 0 800 1197" stroke-linecap="round" stroke-linejoin="round">
<g id="cb_2018_us_state_5m">
<path d="M 694.5654 998.7092 713.3088 997.7608 737.1016 1007.3143 736.2052 1016.4604 713.4714 1018.1453 697.3348 1012.878 694.5654 998.7092 Z M 442.0719 124.2568 458.8273 99.1821 488.732 96.7566 507.7049 96.8883 511.8725 69.8095 519.1374 66.4648 539.6362 70.4003 540.993 81.6072 559.577 82.9965 562.263 76.384 571.7304 75.4107 585.7082 85.4743 600.1206 84.0661 610.6208 89.2203 613.1359 97.6516 625.5806 105.781 631.6905 102.7681 652.2307 113.2007 649.1418 125.4587 642.0746 125.8698 638.0304 135.0762 627.4147 131.9532 604.1897 120.836 584.892 118.9416 590.7498 134.7398 596.4407 150.3798 589.7437 168.188 592.5603 179.1306 587.5205 187.0383 558.3493 171.2259 540.6737 160.1395 504.5008 157.3235 491.1769 167.1576 468.1531 167.0807 451.2389 157.2533 442.0573 139.4641 442.0719 124.2568 Z M 277.7717 222.526 295.5843 217.1546 316.9837 219.7727 317.4476 235.7312 297.8399 233.9173 276.4091 236.2048 277.7717 222.526 Z M 276.7433 1185.3054 310.8654 1134.4244 305.9887 1112.2983 293.1712 1079.184 305.0488 1051.7411 330.6503 1037.5527 383.7058 1055.8087 430.7817 1025.1337 472.3823 1016.4059 520.3958 1020.2154 557.2658 1060.9275 602.6884 1064.0621 625.1568 1054.1555 661.553 1050.8205 725.1346 1054.1602 772.3754 1053.5401 799 1061.3724 798.0489 1070.745 781.6099 1078.9879 768.297 1080.8086 740.1888 1084.6743 732.4747 1100.4182 687.0551 1118.5943 646.672 1131.1384 604.283 1145.1845 566.9695 1154.7306 529.2057 1160.7653 502.4277 1179.9555 495.885 1182.8543 475.277 1163.6643 443.7279 1164.7499 378.3105 1187.5374 362.2912 1176.1126 319.6344 1179.5979 284.1542 1196.016 276.7433 1185.3054 Z M 258.3012 15.5058 268.7645 1 278.6444 3.9672 282.1543 11.0353 280.7341 23.0753 286.8146 33.9083 273.6098 43.1371 262.7501 30.4531 258.3012 15.5058 Z M 117.7385 175.121 130.9614 162.3599 142.8131 174.6693 138.7078 191.0818 120.9272 190.1673 117.7385 175.121 Z M 2.2939 120.8351 16.3477 108.5082 33.2867 55.2411 40.0906 52.2173 94.0916 84.3564 120.683 75.3087 156.2578 47.2263 161.0164 30.9139 170.3765 20.7723 180.1473 30.9207 188.2029 49.2665 204.8777 61.7491 223.0454 49.8253 265.8418 77.4397 294.8658 82.8837 330.3817 75.2764 371.6721 76.779 384.6112 77.2486 424.1009 65.8363 442.8471 68.4956 442.2531 80.9089 431.4968 100.6436 385.968 100.6815 371.7205 103.2826 356.5117 106.0583 353.1675 113.4257 358.7507 119.0677 384.2283 139.6586 404.2025 163.7995 406.473 187.6033 394.0712 189.7386 367.8091 164.9937 325.8254 177.243 317.8583 179.9172 286.8679 168.1956 250.5381 152.994 234.5186 148.0569 223.1325 156.6898 204.9714 167.1494 197.4104 174.8854 191.3011 161.9429 185.7905 143.9851 173.5255 137.7109 156.9333 127.1724 132.9216 107.7198 112.7097 116.0574 97.615 117.568 89.5547 117.1502 13.1518 124.9323 1 126.7222 2.2939 120.8351 Z"/>
</g>
</svg>