<?xml version="1.0"?>
<svg xmlns="http://www.w3.org/2000/svg" version="1.2" baseProfile="tiny" width="800" height="1305" viewBox="0 0 800 1305" stroke-linecap="round" stroke-linejoin="round">
<g id="cb_2018_us_state_5m">
<path d="M 44.1918 5.0195 81.8971 4.5442 85.22 4.2428 104.97 3.8802 113.724 3.7158 147.5598 3.0582 147.9607 3.4826 155.947 3.502 158.1254 2.8968 161.0375 2.9946 162.6635 3.5314 175.8655 3.4292 176.176 3.4828 194.9538 4.0576 207.6541 4.0052 207.685 3.7842 210.0033 3.5097 244.1534 2.7438 271.6131 3.238 301.6278 3.4352 312.8226 3.5018 346.9416 4.7496 348.199 4.9508 349.9606 5.7095 360.5979 7.5379 361.2218 7.5537 370.0077 7.776 390.6951 7.161 403.6255 7.3183 422.7488 8.369 443.9404 8.8413 451.7165 9.3248 459.4247 9.8023 466.7418 9.3865 475.1829 9.523 484.8867 9.226 519.5386 8.1424 542.6323 8.3255 563.084 7.7403 570.5309 6.2574 572.0977 7.4368 574.689 7.4109 589.3896 6.6784 605.2649 6.2662 618.2066 6.4731 625.1786 6.1648 677.4892 3.8046 707.853 3.4685 740.8201 2.3275 760.6238 2.1545 784.5165 1.357 799 1 798.5288 1.9614 793.2341 7.1857 790.0537 8.3509 786.0717 6.7352 779.1596 6.7879 776.9975 7.7653 774.9936 8.0263 772.9716 9.3192 770.2462 12.4717 769.6458 15.8882 770.0014 18.0914 772.5517 22.7608 774.3567 24.0746 776.3432 28.2313 778.8294 29.1853 779.4316 32.4902 778.7289 38.8408 779.2912 41.1457 779.0529 42.6692 778.7383 43.3229 779.5466 50.3539 781.9856 52.5301 783.9225 54.9855 785.4468 57.5376 788.0391 59.0347 788.2411 59.5514 787.5154 62.9406 787.0691 63.3761 786.0339 63.0787 785.4087 63.2815 784.8651 64.2631 782.4221 67.1499 780.3418 68.916 780.1541 69.3075 780.2653 69.7693 781.2357 70.6528 781.0129 71.4093 777.021 76.8292 775.3249 77.8267 774.6488 78.5632 774.4356 79.0727 774.3557 80.9892 772.1974 83.2141 769.979 83.8546 767.668 85.3024 766.2326 87.3357 765.9812 87.898 765.9457 89.068 766.742 90.4989 766.7666 91.3434 764.6531 93.3091 763.882 94.2156 763.41 95.2106 763.4473 96.3165 764.1468 96.9489 765.1356 99.03 765.4194 100.6414 765.3447 101.4571 764.7559 102.4373 763.1725 103.3933 761.4004 108.9826 760.8235 109.406 760.3966 109.4117 760.2349 108.9721 759.1283 109.4679 756.5892 112.7725 756.1265 113.9277 756.2911 115.3429 757.2329 117.1394 758.7161 118.0123 758.7773 119.0172 758.265 120.0292 757.2213 124.2099 757.8192 125.9741 757.2202 127.6581 754.9688 130.9924 754.5428 131.3334 752.7709 131.213 749.3341 132.9392 747.7555 135.114 747.8758 136.0056 748.1938 136.6519 748.151 137.1357 745.9825 139.0713 744.746 141.5485 743.3009 142.7497 741.8847 143.5144 740.9032 145.6437 740.9293 146.7566 739.4551 148.3565 737.0455 148.8125 734.0999 149.9197 733.8521 150.372 733.8336 151.5832 733.8863 151.72 734.1919 152.5134 735.8981 153.3247 736.6198 155.1611 736.7188 159.0708 736.4999 160.23 736.5454 162.9317 736.833 163.6558 737.5108 164.3505 737.7827 164.3595 739.1956 163.483 739.7681 163.6832 739.8654 164.1755 739.4576 166.5328 739.5321 167.2726 741.6841 169.3356 745.069 175.4227 747.1755 177.0055 747.4065 177.8212 746.7962 179.5706 746.803 180.0902 747.0568 180.6452 747.6722 181.1569 748.4217 182.9005 747.959 184.1022 748.6507 187.3675 749.5694 189.1999 749.405 190.4369 748.7209 191.5636 748.7642 191.9008 751.3291 193.8799 752.4086 194.2166 754.17 194.2445 754.5946 194.9798 754.3844 195.7103 753.6112 196.8815 753.1465 197.4186 753.1589 198.3469 753.6092 199.6447 753.3513 200.6874 752.831 202.0656 752.8434 202.9938 753.5554 203.9294 754.3258 204.5987 757.1439 205.0902 757.2749 205.7235 757.0421 206.5197 757.1453 207.1818 757.5336 207.9727 758.7413 208.0925 759.5201 208.0196 760.1421 207.412 760.5439 206.2564 761.1485 206.0761 761.8572 206.6556 762.9444 208.121 764.2842 211.4295 764.514 212.8296 764.5246 212.8943 764.2006 213.8476 762.6778 214.2189 762.695 215.4917 762.9074 215.8789 765.971 218.3295 767.1848 220.9279 766.6121 221.4775 766.3215 222.1836 766.011 222.2009 765.5782 222.9277 765.3099 226.9857 766.364 231.1816 766.4742 232.6095 766.1004 233.6931 765.7298 234.6584 765.6518 235.8535 766.3083 237.5361 766.2619 239.0286 766.7524 240.3484 768.4462 240.4829 771.9758 241.9818 773.7525 243.1014 773.1851 245.1878 772.2316 246.4876 770.3141 248.3582 769.2971 248.7877 768.5546 248.447 767.7858 247.7519 766.9516 247.6051 766.0468 249.0456 764.8281 253.2882 764.7015 254.4037 764.8964 256.2245 764.3888 257.0574 762.9569 257.589 760.4493 257.8733 758.0365 256.7694 752.0962 256.3252 751.3225 256.6629 750.5904 257.4144 749.7155 259.0832 749.071 261.21 748.9549 262.2122 749.5012 263.3354 753.0785 266.4578 758.3507 270.363 759.2275 271.9883 759.2661 272.9361 758.7041 274.4514 757.7456 276.3614 755.5126 279.7569 754.2184 280.7621 753.6636 280.8996 751.3286 280.6061 750.7695 281.3673 750.9008 282.4698 751.6669 283.577 753.8012 285.3155 754.1992 286.0119 754.6257 287.8775 755.3395 288.933 757.5793 290.8263 757.8708 291.3029 757.6479 292.0728 757.2009 292.5205 756.7098 292.6049 754.578 292.8997 753.2994 293.3867 752.052 293.8732 750.5599 295.5558 750.4766 296.868 749.5351 300.3195 748.9156 301.4192 744.8401 302.6698 742.2512 301.7956 741.5671 301.9346 736.1458 302.7948 735.4238 303.0501 732.8241 306.5247 731.2917 307.2188 730.1753 308.09 729.4583 309.2452 729.2694 309.8741 729.4113 311.0362 729.9517 311.6588 732.2866 313.2979 732.4788 314.29 731.5036 315.6963 730.6126 316.3834 727.6663 316.0946 727.2536 316.4511 725.6906 320.1637 725.0612 325.3289 723.9537 327.9801 723.009 329.0957 721.0926 330.1584 717.6726 330.6666 716.9146 331.0646 716.6492 331.6113 716.9768 332.6808 716.6846 335.1098 714.3203 337.6984 712.2767 338.9571 708.8549 341.9341 705.3874 344.3013 702.5362 345.1799 698.018 344.7231 695.8598 344.9581 694.078 345.5202 693.3085 346.1776 692.4757 347.4055 691.5347 349.9245 691.216 350.3312 690.4434 350.5093 688.603 350.1911 686.6277 348.1538 685.9114 347.6932 683.5216 347.3637 682.3016 347.6273 682.0142 347.7892 681.1265 348.2895 679.1459 349.646 678.103 350.778 676.8059 351.5465 671.8987 351.3371 670.5904 351.9133 667.2024 355.2985 666.7503 356.1504 666.7589 357.0066 668.244 359.5114 668.0847 360.4654 666.8127 361.0138 664.6291 360.737 662.8876 361.3584 662.3817 361.8577 661.8573 365.5406 662.0745 366.033 663.2355 367.1933 663.3185 367.7837 663.0821 368.3798 662.0115 369.3074 661.748 370.0362 662.2448 372.233 663.2991 375.1837 663.4143 375.8199 663.1421 376.8512 662.5591 377.4292 660.7448 378.3589 657.739 378.9202 654.8983 380.0124 653.0997 381.3904 650.4371 383.43 647.0779 385.3573 643.2958 385.829 640.0733 387.6497 639.0334 387.8496 637.6505 387.4411 635.1824 385.8507 626.8344 381.7847 624.9695 381.3557 620.7 382.3893 617.6116 384.9821 615.9992 387.5249 613.4529 388.5751 611.9668 388.5462 609.4712 387.488 604.2043 387.6476 602.1704 388.2268 594.8522 387.752 593.4362 388.4785 593.4249 388.5225 592.7009 391.3415 591.9668 392.172 586.2929 395.0026 583.1898 396.6877 581.3369 397.225 579.4741 397.6087 576.7607 396.68 575.426 396.4948 573.7776 397.6634 573.5184 399.3802 574.1213 400.2835 574.1711 405.4427 574.0929 407.1063 573.7252 408.1746 572.2925 410.4848 571.4953 411.2704 568.5451 413.8399 565.6814 414.704 563.4511 417.1432 560.8215 422.2823 559.8951 425.8476 560.4394 427.3474 561.2224 427.5316 562.6138 430.148 563.2115 434.3275 565.6086 439.479 567.2003 441.1044 567.8852 442.7106 568.1295 444.2546 567.0235 447.0556 565.8638 451.3517 565.7485 453.2498 566.2693 455.4417 566.159 455.9921 566.045 456.5605 563.8928 461.5008 564.1215 462.7203 563.7629 464.9704 563.3298 465.922 561.9141 467.0633 561.5063 467.9236 560.8886 472.008 562.8769 474.735 564.4665 477.8542 566.3401 484.4019 568.5798 487.8543 570.7072 488.3976 571.4289 490.0808 571.6291 490.5477 571.6693 491.2717 570.6133 493.2578 570.5527 493.8165 570.9745 501.8429 572.6719 503.7534 574.1532 504.4572 574.3774 505.0144 572.8555 508.911 572.3119 508.9607 571.5365 508.3753 571.0387 508.3876 569.2172 509.3918 566.8217 511.6954 565.9024 516.1052 565.8473 517.2483 572.0635 521.0482 573.204 521.1828 574.8025 522.0028 575.521 522.8808 575.6206 524.0888 575.2902 526.7157 574.8838 527.8099 574.3195 528.5545 573.5064 529.0736 571.989 529.3547 569.4446 528.9329 568.8558 529.3154 568.4153 530.3035 569.0256 531.2989 572.1151 533.6128 571.0326 537.3917 568.5691 539.2752 568.6934 540.5381 566.5909 543.0589 565.4448 545.9944 565.1088 546.529 564.4215 546.9463 563.1216 548.3057 562.8749 550.5413 561.3691 551.8708 557.9267 553.8329 556.9141 554.5799 556.2603 555.5539 556.0185 556.384 556.1072 557.4625 557.7256 560.2464 557.9301 561.2826 557.6715 561.9297 556.1817 562.8452 556.046 562.9286 555.9021 563.017 555.3508 563.7231 555.1499 564.6211 553.773 566.0437 551.6394 566.1543 551.0044 566.0678 550.1813 566.8013 549.7598 567.5706 549.5357 568.7934 548.2326 571.1938 546.7721 571.5422 545.629 572.8116 545.7852 574.6686 546.3635 577.6006 546.2916 578.3936 544.152 579.717 540.9174 583.1814 541.0411 584.6167 542.6485 586.8426 543.0926 588.589 542.828 593.872 542.5984 595.5019 541.9466 597.3893 541.9412 598.0409 542.1297 598.5052 543.4935 598.811 547.6301 602.2554 548.4313 603.371 548.5449 604.0633 546.2269 608.1296 545.6363 608.7966 543.5976 609.7861 541.7984 609.8124 540.7491 610.2749 540.4031 611.1118 540.2937 612.3264 541.2322 616.8383 541.237 617.6087 540.7672 623.656 540.2941 624.9896 539.5596 626.1293 533.8122 631.2453 529.7647 633.9639 527.204 636.0178 525.4178 638.6351 524.2611 641.12 524.0181 643.651 523.3652 644.2747 520.7447 644.9219 519.3588 644.7739 518.9346 645.3604 518.4743 646.2984 518.164 648.6006 518.8612 650.5982 519.741 652.1416 519.9294 652.618 520.2128 653.3346 520.7 654.5663 517.7182 656.1558 515.8286 656.2836 514.3682 656.7733 513.6237 657.8817 512.3656 662.0207 512.5941 663.4487 514.4735 668.2719 514.7816 674.5678 514.3277 676.4654 513.1504 678.6146 512.3365 680.918 512.213 681.9051 513.1109 684.9108 514.0409 686.8003 514.4045 689.2696 513.7949 691.2511 511.3841 693.4774 510.407 696.9568 509.4456 698.7845 508.8414 699.6328 505.9672 701.8716 505.4675 702.7971 505.3838 704.0455 505.7313 710.3066 505.5497 710.4889 504.5983 711.4438 503.2567 712.3484 500.9301 713.0372 500.2723 713.4832 499.4507 714.6833 498.6605 716.8452 498.0195 717.9795 494.3246 723.4322 489.2656 726.411 481.414 731.5303 478.5652 731.5556 476.5747 735.5926 475.027 736.9763 473.0045 739.4152 472.1313 741.1862 469.9832 744.5612 468.8883 745.8909 466.9133 747.2899 465.6275 749.4788 464.6342 753.4333 464.569 755.2889 464.569 755.2911 464.3805 760.6598 465.0715 761.7483 465.5968 763.4874 465.477 765.7751 465.1125 768.3624 464.5241 770.0546 462.4557 773.9359 461.6173 774.6673 461.1569 775.9689 460.7459 779.8042 461.2448 781.4264 461.1634 783.5575 460.6885 784.4954 457.7028 785.7946 455.7008 787.0123 454.9914 787.7037 454.7738 788.2248 454.8558 789.2506 455.7275 790.1959 455.7808 790.5595 455.0772 792.5767 453.6849 793.6745 452.8583 796.9867 452.7275 799.6769 453.579 802.0646 454.8916 803.1508 455.4263 804.0321 455.4551 804.3128 455.6694 806.3961 455.3243 807.4629 454.8703 807.8082 454.8468 807.8182 453.7351 808.2887 446.5374 814.9338 440.7849 817.2717 437.0006 819.6921 434.4108 822.7429 433.1184 828.3996 433.0566 829.3481 433.7289 833.6346 434.0879 841.6124 432.8928 844.8514 430.5209 848.796 429.862 849.3695 428.4116 849.2954 427.7047 851.2989 427.762 853.1862 426.6464 857.2405 426.7283 858.7218 427.5874 860.292 430.3782 862.6493 432.3577 864.7119 433.9709 868.6091 434.1938 869.6089 434.1727 871.3765 433.6551 876.1731 433.1565 878.5006 432.5246 879.529 429.6325 882.6173 429.2333 883.4236 429.1848 884.7234 430.0615 892.5959 429.8056 893.6883 428.6603 896.3295 427.9836 899.8138 427.8916 904.116 427.6792 905.271 427.6722 905.3087 426.2459 913.0611 426.188 915.4785 425.5853 919.8791 424.7027 926.32 424.1104 927.4265 420.8561 930.6715 419.943 933.0001 419.7027 935.0929 420.0843 941.1376 420.2554 942.0598 420.8016 942.929 424.7068 945.5562 426.1577 945.7863 429.5763 945.6726 430.4325 946.2035 430.0984 947.3087 428.2538 949.9129 426.6524 951.5287 425.9562 952.5577 423.6372 957.0972 423.6065 957.1572 422.6456 959.0377 422.1062 960.5857 422.173 961.3132 422.7986 962.858 425.3611 966.9964 427.3993 968.8749 428.1542 970.2634 428.2991 971.1856 425.7502 976.6509 423.2314 988.3146 420.1025 994.8722 417.5771 999.3891 411.9387 1002.2246 411.4613 1002.8109 410.5099 1005.3996 410.4225 1010.3257 411.3773 1013.689 412.3924 1015.5968 412.6152 1016.4665 412.5786 1016.6618 412.2961 1018.17 410.9828 1021.1104 409.8143 1024.6479 409.7941 1026.8053 410.6197 1030.3508 410.9921 1033.9101 410.4768 1034.8865 405.8019 1039.7597 406.1571 1041.6432 408.5246 1045.5871 408.671 1047.0033 408.0523 1048.0055 404.8884 1051.3406 405.1766 1052.4444 405.0933 1057.4244 405.096 1057.4651 405.3294 1060.9818 405.2286 1061.9308 404.8164 1062.7897 403.2704 1064.1859 403.0218 1064.7749 403.1283 1065.8746 405.1737 1070.2089 406.7042 1071.1922 408.4003 1071.0836 409.3598 1071.5102 409.7756 1071.9763 409.8977 1074.0167 409.8341 1074.4324 409.0189 1074.6166 408.9428 1075.1625 409.7625 1076.6292 411.0182 1078.0665 411.8567 1079.0262 413.0926 1081.1407 413.2306 1084.3112 413.0387 1085.1303 412.3308 1086.6785 409.9535 1088.8294 409.1936 1090.2612 408.9388 1091.8473 410.541 1095.2474 412.2242 1099.921 412.1772 1101.6754 411.8171 1102.703 410.2963 1105.3716 408.0907 1108.6127 404.1533 1113.0941 400.3811 1116.5615 399.2719 1118.0849 398.9125 1119.2687 399.1379 1121.2299 399.5291 1122.1907 401.0493 1124.0577 401.8837 1126.0696 401.619 1128.7476 400.7629 1132.9733 401.0135 1134.6615 402.435 1138.1663 403.254 1139.3597 404.9402 1140.2386 408.4186 1143.1653 408.7578 1144.0744 408.7881 1145.6205 408.2858 1146.6616 406.7369 1148.5115 405.4559 1148.8514 403.3181 1148.4426 402.0662 1149.1427 400.8278 1150.929 400.0948 1152.8413 399.8421 1155.1293 400.3913 1157.0896 401.4044 1158.2569 401.3935 1158.9067 399.587 1161.4327 396.3337 1165.0928 395.1298 1165.2656 394.0779 1164.2159 393.0537 1163.9977 390.9075 1165.2507 388.5309 1167.6098 383.6951 1168.6618 382.168 1169.5993 377.7918 1170.1766 372.073 1174.8619 371.2721 1176.4616 371.0922 1177.7346 371.3652 1178.4748 372.286 1179.6562 373.0895 1179.8765 373.5951 1180.3304 374.0629 1181.5642 374.4018 1183.4093 374.5216 1185.7874 374.2158 1189.8425 375.4142 1195.5718 375.3388 1197.2351 374.9898 1197.9246 373.3592 1198.8619 372.9326 1199.5124 372.3662 1202.0212 372.4244 1207.2585 371.8924 1208.3028 371.8813 1208.3246 370.0067 1210.7184 368.5839 1212.1366 366.1768 1213.4129 363.8728 1214.274 363.5363 1214.6513 362.4684 1220.0755 362.5901 1222.5593 362.142 1224.8949 362.1851 1225.2916 362.5938 1225.5872 362.9733 1228.8226 361.7221 1232.814 362.0023 1233.4428 363.3196 1236.3984 365.3559 1239.0602 365.8381 1241.5798 365.8288 1244.4127 366.3785 1249.3371 366.3842 1249.3729 367.7881 1258.1201 369.1193 1260.1927 377.9958 1268.238 379.0477 1269.4245 380.7597 1271.9484 381.9693 1274.3305 382.3105 1276.0543 382.1778 1277.3476 381.4356 1278.1386 379.4836 1279.1569 378.6955 1280.7305 378.9692 1282.2766 380.214 1283.4832 381.1465 1283.5212 382.3504 1283.1426 385.3915 1281.2932 385.9914 1280.498 386.1813 1278.8339 386.5295 1278.3006 387.6166 1278.0891 389.3791 1278.552 390.7831 1280.3024 391.3565 1281.6653 391.9936 1282.4824 394.3023 1283.8532 395.0305 1284.9167 395.7352 1286.9288 396.2515 1290.8909 396.9475 1293.6249 399.1433 1296.295 402.0047 1300.835 403.06 1303.1712 403.0502 1304.4449 378.7451 1303.5808 307.9728 1300.9664 264.1677 1299.275 256.6365 1298.9786 225.872 1298.0209 206.0527 1297.3894 167.3743 1296.1239 167.3275 1296.1224 117.4486 1294.5234 66.3282 1292.8093 61.5424 1292.7294 55.7134 1260.9116 57.6605 1257.4487 58.7636 1254.1454 57.4082 1250.5679 58.1646 1242.6424 58.6172 1242.1564 60.9613 1243.0515 61.0562 1240.6898 62.4188 1206.7746 63.0516 1185.6392 63.1523 1182.2737 63.1914 1181.0683 63.2374 1180.4036 65.3638 1130.928 65.4909 1127.9688 67.183 1098.8567 67.4823 1093.7051 70.5341 1025.148 70.8633 1017.7405 70.8866 1017.3661 71.9021 1001.0599 72.9422 969.5607 73.6929 946.801 73.8319 941.8111 73.9243 937.9505 73.9651 937.546 75.9019 885.9302 76.0858 881.0248 76.8142 855.7444 76.9704 853.4965 76.5963 853.2863 76.5842 851.0502 76.956 849.5707 78.3878 848.4744 79.0024 847.5167 79.2203 845.8542 79.1486 844.3596 78.9617 844.3856 77.521 841.2991 77.1167 840.4328 76.6149 839.8841 75.6613 839.5278 75.5753 835.5497 76.403 834.3321 76.317 833.6038 74.697 831.8902 72.2457 827.2688 70.0093 825.0156 67.8467 823.2437 63.5948 821.9231 63.0947 821.2564 62.9621 820.0206 61.48 819.0471 57.9251 819.449 57.4802 819.1886 57.1879 818.4672 57.5698 817.1858 58.5367 816.0475 58.4359 815.7085 56.5676 814.4327 58.1062 811.4682 58.2933 810.7288 58.5582 808.2867 58.5646 805.7909 57.9547 804.278 56.214 801.5216 55.2851 801.0721 54.6066 793.3588 54.4165 792.5932 53.7751 791.8213 52.9114 791.2683 52.3133 791.5627 51.0952 793.4737 50.1908 793.1892 48.2454 791.6088 45.643 791.4324 44.0679 792.3955 38.1103 792.2581 35.8552 794.2641 31.3519 792.7736 31.137 793.0373 28.4763 793.6733 27.8167 793.5642 27.1091 792.9396 25.8776 793.0548 25.6236 794.0407 26.6856 795.7781 26.6567 796.1293 24.7323 798.6235 24.1135 799.8013 25.5887 803.556 25.5444 804.2186 25.136 805.0997 23.3461 807.1516 20.9863 808.7674 20.9356 815.6184 21.2698 818.7676 20.9202 820.1421 20.5768 820.8543 17.3482 824.0083 15.7711 825.0337 14.7997 825.0376 13.91 824.5612 11.7245 823.2398 7.0893 819.4736 5.7026 817.3238 3.1221 816.4559 2.3149 815.8686 1.3792 814.1305 1.2695 813.4193 1.6535 812.1454 3.8981 807.4796 5.3037 805.0773 5.1002 803.0924 4.4396 800.5404 4.4907 799.7637 6.9534 795.1071 7.0245 794.4818 6.765 793.5481 2.8758 787.2 2.6099 785.9951 3.5135 782.5609 4.0349 781.6037 4.7323 780.8221 6.7083 779.5871 8.0686 777.0012 8.4957 773.7309 11.2197 767.3712 11.3525 765.6207 11.5119 765.1049 12.8978 760.62 13.1827 758.7151 12.474 756.6205 12.6905 755.5729 13.7989 753.938 15.3462 753.0881 16.5143 751.8442 17.2634 750.5039 18.0791 748.0772 20.5453 743.6328 21.7577 742.0957 23.9159 740.0369 26.8878 735.7317 27.1904 733.7672 26.8911 729.9087 27.1028 726.1024 27.3433 724.9645 30.1677 719.9242 33.6499 713.7075 35.2764 710.1415 35.3301 709.3027 33.6428 706.57 33.328 705.5741 32.5416 701.3233 30.53 698.8742 28.2116 697.0722 24.8824 693.9623 24.5338 692.9365 24.1343 689.8458 23.732 688.4801 23.7116 688.4314 23.1189 687.0193 22.1233 685.6695 19.2543 683.3356 18.3729 681.3903 18.2737 680.5838 19.358 676.5179 20.1132 674.7961 22.8127 672.0274 24.9824 670.8851 26.1914 669.046 26.7954 667.5007 26.7118 666.9718 26.1939 666.1561 23.2477 663.3221 22.8252 661.9682 23.0693 659.567 23.984 656.4973 26.1549 651.1062 26.2023 650.3107 25.2987 647.6142 22.4094 641.5291 17.3951 634.6097 16.8438 633.113 15.3979 626.63 12.672 619.306 12.3407 617.5712 13.6756 608.5545 13.2384 598.0301 11.4702 593.3071 10.9342 590.8097 10.9613 589.2521 11.5342 587.2776 13.8088 572.9232 13.8239 570.2261 13.2782 567.9208 13.1384 567.33 11.9257 564.117 10.4724 562.6359 8.1162 561.2056 6.9104 560.7653 4.9471 557.9335 3.8144 557.3329 1.3386 555.1312 1 553.7476 3.4462 543.2838 4.2184 538.5913 4.6542 534.2185 10.0337 522.892 12.1442 515.3698 12.0033 512.6087 11.2191 507.753 10.4193 504.6443 10.4338 503.9036 12.1082 501.0765 13.5857 500.2097 15.5893 497.4291 15.9591 496.5449 17.1275 491.1711 17.5319 487.2391 18.8547 485.0482 18.9129 484.6047 18.4067 483.5041 18.1266 481.9295 18.339 480.6522 18.7687 479.5535 21.0211 477.4691 21.3254 476.4694 20.8969 472.0178 20.9964 470.9874 21.8518 470.1807 23.1477 470.0333 23.6963 469.7191 24.4233 467.4399 26.2926 466.1625 27.2744 465.935 28.461 464.6392 29.1764 463.2916 32.7267 461.048 32.9543 460.01 34.436 456.714 35.5243 454.8122 35.5499 452.9271 35.759 452.5144 37.3757 451.1951 37.77 448.6893 40.8759 446.3412 40.5184 444.3381 43.1533 443.5022 44.2741 442.7073 45.7317 440.8525 46.2126 440.7142 48.0986 441.2353 48.5418 441.0779 50.1124 437.878 51.4458 433.2139 52.7758 429.5685 53.013 428.9183 53.7963 423.8678 53.3035 420.5749 51.4905 416.2068 49.3437 408.3211 48.5841 403.4824 48.4974 398.2375 48.8142 394.7315 48.7866 389.9418 48.3484 387.2707 47.6272 384.5183 47.4773 383.9463 44.5663 376.8116 44.4785 372.5104 45.069 368.0538 46.3888 365.9614 50.2447 362.1931 51.8543 360.3245 52.6835 358.8897 53.7666 355.3749 54.5845 350.895 60.5696 336.3079 61.4931 331.0747 61.5157 330.7273 61.6043 329.3683 60.9768 326.336 59.0276 321.3027 59.6317 316.0506 59.5771 311.8731 59.2167 308.8299 57.4181 303.6497 57.2427 299.97 56.5544 295.3453 54.086 291.3964 51.515 288.6961 50.8857 287.7411 50.6634 286.1344 50.8024 284.2008 50.7726 283.9344 50.4562 281.1098 49.6908 280.0627 47.842 279.2759 47.462 278.8607 47.0124 277.8161 46.9037 275.976 46.6269 275.0328 43.6626 270.8142 43.5445 270.1452 43.827 268.8018 43.7835 268.1181 42.1077 265.9093 39.25 263.9045 37.1674 263.0196 36.5232 262.4457 35.2087 259.8036 34.6472 259.246 32.322 256.9371 29.4796 252.4158 28.9949 248.669 28.1485 246.905 26.5279 244.51 26.6184 243.7904 28.1498 241.9474 28.5994 241.0376 28.8 240.037 28.6024 238.6822 27.0611 235.4619 26.2027 231.506 23.4405 228.6245 23.2799 227.9733 23.3935 227.254 24.4739 224.9597 24.8337 223.114 25.0962 220.774 24.6049 218.2124 24.7652 217.7437 27.6308 215.4995 28.1165 214.8698 26.2788 212.4155 28.4109 208.3667 28.3989 207.839 28.0197 207.0773 27.9847 206.1719 30.0098 203.0238 30.4446 202.8154 31.4436 202.9348 31.8207 202.3922 31.6733 200.9168 30.6129 199.3909 31.0078 194.7227 31.3154 194.399 32.8886 193.8535 32.8193 192.273 31.9134 190.8634 31.734 190.2393 33.7054 188.725 35.3513 184.7723 35.3493 184.2913 33.661 181.4754 33.983 167.0668 33.8624 157.8899 34.5939 155.9245 37.0927 152.6685 38.4495 150.2478 40.7987 142.905 41.4759 140.2147 42.6287 138.3515 46.1025 135.0801 46.9005 133.3208 47.166 131.2951 46.9002 125.3571 46.7137 123.6569 46.3163 122.2814 40.4201 115.5293 39.1197 113.2491 38.5311 112.6109 37.2757 111.5714 34.2273 109.7601 32.6402 108.2202 31.9699 107.3015 30.3783 104.1241 29.0241 103.515 28.7311 103.1418 27.9973 99.1497 28.0008 96.9985 28.6765 92.3245 30.3523 90.2309 31.8684 89.295 33.0434 86.8798 34.1495 82.1365 35.9333 72.8152 36.7273 69.5399 37.6519 67.2231 38.4169 65.429 39.4618 63.8153 41.8239 61.5819 43.869 60.1812 44.5495 59.7151 45.4201 57.9889 45.6504 54.3348 45.2896 43.3839 46.053 33.6287 45.9372 31.235 45.745 30.5876 43.3509 27.9633 41.1752 24.6743 40.1235 22.1518 39.6469 20.2047 39.4532 18.3328 39.9508 16.7378 41.2736 14.3959 44.1918 5.0195 Z"/>
</g>
</svg>