<?xml version="1.0"?>
<svg xmlns="http://www.w3.org/2000/svg" version="1.2" baseProfile="tiny" width="800" height="527" viewBox="0 0 800 527" stroke-linecap="round" stroke-linejoin="round">
<g id="cb_2018_us_state_5m">
<path d="M 241.1734 153.8531 241.8339 154.0721 243.6203 156.272 243.2973 156.446 241.3595 155.5163 240.5443 154.2024 241.1734 153.8531 Z M 221.7253 223.9747 224.4747 224.8862 224.4246 226.9346 223.0725 227.9869 221.8795 227.475 220.9876 224.559 221.7253 223.9747 Z M 218.8134 252.8731 219.6873 251.4265 218.8911 246.9124 220.1717 244.6199 220.4426 239.3578 222.1126 235.3701 223.6741 234.3237 224.594 230.1479 226.8268 231.3438 225.9755 232.7821 225.9925 233.8201 228.6225 236.9537 227.9824 238.1101 227.7802 244.3611 227.9769 245.806 229.0077 246.6264 232.2779 247.1322 234.4191 248.7688 233.9139 249.2663 231.5323 249.8126 227.8111 252.0868 226.6957 253.6559 226.0839 255.392 225.7254 255.499 224.4907 255.1601 222.2647 256.526 222.0546 257.2601 220.8563 257.1663 219.4478 256.7345 218.5495 254.8751 218.8134 252.8731 Z M 210.6506 73.8126 210.9521 73.0627 210.9132 68.6418 211.2297 67.8952 211.9053 67.9309 213.1587 70.3892 214.9505 72.0974 216.7034 73.2717 217.5813 73.6101 218.0777 74.1344 218.5881 77.0179 217.5473 76.4934 216.9037 75.8879 215.9365 75.7658 213.9263 76.864 212.3343 77.3066 211.8686 77.3185 211.0012 76.8583 210.7348 76.4665 210.533 75.4653 210.6506 73.8126 Z M 206.5421 62.5661 208.9411 61.5998 210.5615 64.6566 209.6474 64.903 208.5986 64.5792 207.6847 64.0718 206.4142 62.8579 206.5421 62.5661 Z M 204.5989 46.2025 205.3197 43.6607 206.5507 44.4563 207.2324 45.4259 209.7757 50.0971 210.2999 51.5487 212.0961 52.4514 214.6569 55.6246 215.4116 59.5065 214.6817 59.4055 212.8874 58.4142 209.2141 53.964 207.5321 49.307 206.5221 48.4521 204.8759 48.4349 204.5918 47.4418 204.5989 46.2025 Z M 202.2234 68.3273 203.7916 65.4685 204.8491 64.6686 206.768 66.551 207.0337 67.4584 209.04 70.7885 207.0685 74.4783 204.2839 75.0278 203.7777 74.8836 203.6555 73.4827 203.0811 71.1081 202.5273 70.5814 202.2261 69.8385 202.2234 68.3273 Z M 197.7066 121.7609 199.5829 116.9273 201.7177 114.0766 202.7645 110.3721 204.3597 108.7601 207.8512 102.9344 208.8119 99.9337 208.948 95.9272 210.9439 95.3825 211.9164 95.5952 212.9677 96.1874 213.704 95.2064 214.4651 94.5621 215.2294 94.8312 215.7355 95.4877 215.8398 96.7566 216.86 97.0886 216.3489 101.9084 216.6828 103.3748 218.6223 104.1891 220.015 105.1381 223.4611 108.4886 224.3615 110.0705 224.5087 111.527 224.3887 111.9291 222.9838 113.3012 222.6513 113.7151 221.8183 114.1539 219.7346 114.2415 219.0833 114.1424 217.4809 112.1716 216.5726 111.6847 215.0309 111.5973 213.1231 112.1702 212.2741 112.9245 212.8503 113.8458 212.4933 115.8697 209.5913 116.4465 209.4889 117.3065 207.8348 120.0764 202.5532 120.8653 202.0628 122.617 203.5487 123.9432 207.8492 122.5785 211.5496 123.1702 211.8477 122.9105 213.9867 125.1013 215.7269 128.5011 215.949 129.0461 216.2209 130.8456 216.9331 133.0928 217.604 134.1573 218.4665 138.5443 218.2746 139.3498 217.0659 140.6824 217.0305 141.1279 218.6691 144.8894 219.5206 148.6443 220.1021 154.141 222.1316 153.2361 223.0324 150.6551 222.6694 147.7425 223.023 145.3131 222.4605 144.4299 221.665 142.0879 222.8869 141.968 225.0981 142.518 227.9618 146.4563 229.2333 148.6177 230.9213 150.059 233.9671 151.3991 235.2882 151.8106 236.4066 151.7724 236.5896 156.8358 236.9825 157.6708 238.4972 159.7887 238.7929 161.6105 238.8225 163.1979 238.6882 164.0305 237.8216 166.3873 236.8922 167.1181 235.9601 168.4058 236.0193 170.4286 235.8512 171.0725 235.5227 171.3532 234.5296 171.0786 233.8559 170.0553 231.6481 170.0447 230.4738 169.625 229.0724 167.263 229.0699 166.3667 229.6076 164.8161 229.6297 164.0275 229.0753 162.3145 226.5567 158.4523 225.0732 158.0734 223.6776 158.586 222.2928 159.4438 221.971 160.373 221.618 160.6525 219.0218 161.4561 218.5209 160.4772 218.6377 159.9239 219.4718 158.647 219.6494 157.5972 219.5257 157.0822 217.8472 155.522 215.6762 154.8827 213.1901 151.7213 214.2809 150.5712 214.6315 149.323 214.5368 147.9503 212.6848 145.4268 212.7928 144.4231 213.4212 143.1548 214.412 139.7869 214.1276 136.0776 213.4462 133.5634 212.6839 132.4622 211.1281 131.7861 208.8363 131.8406 207.2912 132.5807 206.6689 132.9735 206.4488 132.8885 205.8212 129.9349 205.2029 128.8877 203.4089 127.0256 201.0816 126.0009 200.1638 124.5197 198.3442 123.6133 197.6825 122.2341 197.7066 121.7609 Z M 179.6532 36.1833 183.5168 36.7723 189.3972 40.8753 195.1326 43.9813 192.4497 44.925 187.3816 43.5476 184.7675 42.1775 179.3624 37.9393 179.6532 36.1833 Z M 169.969 49.926 173.0497 47.4205 174.508 47.3659 175.0973 46.8816 176.0835 46.7654 176.2925 47.2871 176.4153 50.9759 175.4427 52.3527 174.755 52.8665 172.6337 53.6641 172.7167 53.2203 173.3413 52.2307 173.296 51.5184 172.2637 50.6303 169.969 49.926 Z M 169.475 4.5261 174.9069 4.6731 176.1588 8.4473 175.4891 8.9305 174.2368 8.3858 172.2816 8.6116 170.0077 8.4258 169.9939 6.8631 169.475 4.5261 Z M 156.2969 65.075 157.0776 63.4665 158.8716 61.2633 161.5366 61.1159 162.7165 61.2901 163.1061 61.696 165.9237 61.4456 166.759 62.918 166.7661 63.3304 166.3569 64.2274 166.3778 65.1621 169.0227 66.1499 170.4219 67.6542 171.5148 69.6261 172.9502 70.5444 174.7878 70.9912 177.5497 70.9159 177.7059 69.705 177.3766 68.9909 176.8591 68.4497 175.901 68.0252 174.7219 68.07 173.0443 66.2854 173.9707 65.9063 174.1406 65.1613 172.4384 63.2335 171.9062 63.2853 171.7418 61.8505 174.3006 59.9779 175.1257 58.7165 175.2251 57.9778 175.7478 56.8578 177.892 55.0939 178.3174 54.2896 181.9567 51.2889 182.7739 49.8852 182.6876 49.3087 185.1078 48.3628 187.4577 48.2041 189.2929 48.6958 193.472 50.9141 196.4341 53.3273 196.6465 53.7935 202.2432 56.6005 202.3335 56.7987 201.0014 58.4411 198.0792 60.4764 197.2502 60.7409 195.4528 62.8635 195.5117 63.4249 196.4432 65.0486 196.4569 65.3992 196.3103 65.4945 195.8232 66.3459 196.1519 67.9342 197.5548 69.2905 199.0211 71.4719 199.0876 72.123 198.8596 73.0126 197.8125 74.0277 197.1632 76.233 197.2461 77.3446 198.206 78.1552 198.0027 79.4851 195.8221 81.5937 194.2092 82.5431 194.0346 83.1321 193.7434 86.8875 194.3772 87.8055 194.8756 89.142 195.3455 90.8026 195.2257 91.4529 194.3321 92.3924 192.9856 92.0823 188.1438 92.8327 187.1876 92.7146 186.2201 92.1054 186.7416 90.1234 185.3323 89.9262 184.2978 88.9556 183.8953 89.462 182.8771 89.4035 184.0878 87.4416 183.7492 86.6552 183.0834 86.2675 181.9688 86.933 179.543 87.6194 171.9049 86.0524 170.07 84.2628 169.1615 83.0352 164.0751 80.9048 161.9481 78.9239 161.0386 77.5916 159.9079 75.2111 159.857 74.2958 160.0945 73.7577 160.175 72.5034 159.1331 71.1359 158.7791 70.2756 158.8527 69.3234 159.2586 68.77 159.184 67.7408 158.0448 66.5178 156.7688 66.5882 156.3004 65.9715 156.2969 65.075 Z M 153.4533 51.0349 155.8029 51.0003 157.2569 51.8089 158.4351 51.8099 159.7975 52.6146 162.1233 54.4751 163.7549 56.2139 164.5931 57.7029 166.0973 59.7947 164.7545 59.8262 163.2604 59.1357 155.3973 54.0467 153.367 51.8562 153.4533 51.0349 Z M 766.3171 1 767.2112 19.642 767.3814 23.8834 767.9634 38.4032 768.5789 52.3619 768.7085 56.6233 768.7485 57.7874 769.4973 75.9265 769.996 86.4002 769.9981 86.4448 770.0475 87.4458 770.0468 87.5078 770.4153 95.2372 770.4177 95.2887 771.2041 119.7562 771.2671 123.2953 771.2681 123.3512 771.2914 123.7849 771.2932 123.8256 771.2969 123.9066 771.3084 124.2326 771.335 124.3655 771.3438 124.8599 771.5268 132.229 771.7691 138.1439 772.0167 144.1393 772.0173 144.1536 772.4265 154.3636 772.4933 156.0312 772.5475 157.2286 773.3571 175.1422 773.5185 177.633 773.8122 184.2023 773.8528 186.021 773.8603 186.2657 773.8752 186.8174 773.8743 186.8725 774.0426 189.2346 774.0418 189.3851 774.1448 190.6105 774.1526 190.7035 774.2345 192.5933 774.3508 195.041 774.5199 198.5234 774.552 199.0024 774.5644 199.2748 774.5647 199.2815 774.969 207.469 775.3352 214.8903 775.4091 217.2323 775.4009 217.2808 775.6276 221.0757 775.6844 221.8773 775.7231 222.6593 776.085 229.3398 776.1814 231.5183 776.3778 235.7843 776.5309 239.1572 776.6287 241.1572 776.7638 244.7884 776.8351 246.1195 776.9864 248.9442 777.5673 262.1421 777.8092 267.2081 777.9615 270.545 778.1089 273.7604 778.2968 277.8312 778.4849 281.9533 780.544 327.1989 780.5964 328.7538 781.4186 346.0496 782.4594 369.8345 782.9177 380.3296 782.9334 380.6611 782.9818 381.6913 783.2216 387.2142 783.2247 387.2861 783.5797 387.6954 783.8014 388.3286 783.7694 389.5791 783.6903 389.9165 783.5131 390.188 783.2286 391.8317 783.2269 392.2882 782.7976 394.1998 782.5513 394.6256 782.3212 394.8133 781.7555 395.4773 781.4147 396.0414 781.2511 396.4187 781.3326 398.1688 781.3521 398.3336 781.575 398.8509 782.0868 399.3516 782.5379 399.5865 783.1955 399.7586 784.3441 399.8823 784.742 400.0152 785.0556 400.2361 785.4781 400.6341 785.5582 400.8134 785.6429 401.6771 785.5859 402.0651 785.6782 403.001 785.7633 403.4038 785.9502 403.7978 786.4143 404.3115 787.3791 405.1595 788.453 405.4336 789.2519 405.9616 789.5923 406.3568 789.8324 406.9408 789.8236 407.3873 789.2671 408.8214 789.2254 409.1098 789.2696 409.4273 789.6812 409.9311 790.903 410.9054 791.2806 411.2998 791.5322 411.5946 791.9303 412.2242 792.2002 412.7592 792.8536 414.3772 793.2988 416.0767 793.2528 416.8163 792.9426 417.7576 792.3181 419.3443 792.2858 419.6393 792.3893 420.2486 792.7132 420.7955 793.8503 421.6698 795.0184 422.8904 796.9601 424.9217 797.1984 425.3784 797.2827 425.8275 797.1664 426.4422 795.9603 429.2499 794.7375 431.7976 794.5525 432.1703 794.5109 432.8656 794.5339 434.0211 794.1793 435.3795 793.7555 435.8772 792.2561 436.15 791.9617 436.3195 791.774 436.4694 791.4893 436.9111 791.4216 437.1449 791.4369 437.4386 791.521 438.1074 791.8688 438.8293 792.8196 439.2721 793.5348 439.3688 793.8203 439.2892 794.1431 439.4091 795.1107 440.4941 795.7728 441.5057 797.0589 444.6555 798.1116 447.8175 798.6889 450.5597 798.8679 451.0475 799 451.216 796.4221 451.2075 791.7088 451.3213 784.8945 451.652 782.9375 451.6411 768.0788 452.1757 767.879 452.1845 767.6498 452.189 755.0465 452.6777 753.3662 453.0952 749.5167 452.9158 744.3887 453.119 740.7241 453.3772 740.7022 453.3837 740.2253 453.4006 740.2078 453.4012 737.6279 453.4363 727.3761 453.749 727.3489 453.7497 715.4162 454.0503 688.3267 454.8717 686.3197 454.9289 686.3156 454.9291 672.8419 455.4405 672.3391 455.4566 670.7721 455.4425 662.1275 455.75 661.3305 455.7744 659.6675 455.8181 659.2673 455.833 656.4337 455.8648 653.1548 456.0109 647.6468 456.1437 646.5447 456.1821 643.8927 456.2542 636.9082 456.4399 634.1682 456.5154 629.9858 456.593 626.6199 456.6906 625.9612 456.7158 625.5231 456.712 622.7188 456.7729 619.4918 456.8417 619.3241 456.8423 617.3022 456.8982 615.3045 456.9502 587.8315 457.6281 583.0465 457.8352 583.0397 457.845 580.8716 460.9718 578.9706 462.5325 575.4093 464.1961 572.1374 466.6299 568.7284 468.1792 564.2112 469.0516 561.4906 469.0602 558.3216 468.3865 555.0229 467.3614 548.2118 468.4869 543.8623 470.2949 536.7896 470.9058 534.8994 471.068 530.9955 472.7829 527.1441 472.4906 522.2046 470.0248 519.1888 470.9456 516.8265 473.069 512.0506 480.4516 501.2859 482.2653 498.1721 482.0037 491.3352 483.8062 491.3209 483.8095 490.4985 484.0006 487.2288 485.018 481.1318 485.6343 477.6105 487.4459 477.4387 487.5343 470.2384 491.6018 462.7884 493.449 459.7474 495.1476 455.548 500.5749 448.0618 501.3126 447.3806 501.4804 443.147 502.8615 435.2926 504.6549 427.0665 505.3898 424.5995 504.5515 422.909 503.0811 418.9737 498.8028 415.6498 497.5715 411.0573 497.6744 409.1094 498.964 407.5001 500.0288 405.347 502.1735 401.6937 503.5791 394.8972 506.5969 387.8781 508.7824 386.364 510.3241 383.672 513.0612 381.7899 513.4888 381.5471 513.2991 381.5386 513.2925 378.5973 511.0114 377.6419 510.9618 375.0214 512.06 374.443 512.2073 371.9294 511.4619 369.1831 511.7795 365.9511 511.5269 363.7872 512.2123 360.0723 515.9053 360.3837 516.6609 359.8406 516.965 359.2564 517.4972 358.8091 517.9045 358.0201 517.5684 357.3798 518.1759 355.0322 518.4269 353.3521 518.3624 352.0277 516.813 352.1816 514.8884 351.666 511.8332 350.0731 508.6051 346.3655 507.4997 342.5836 506.1701 339.9908 504.2077 337.3149 503.4274 333.6607 503.6669 330.585 505.1703 328.2936 504.98 326.4488 504.4621 324.1866 503.8263 320.4114 500.8569 317.981 500.2523 317.8457 500.2168 316.8607 499.9586 306.5341 503.1119 302.633 502.9942 298.5204 504.4784 295.6075 504.5511 287.6421 502.5178 281.7497 504.4474 278.0542 507.7738 278.1372 509.083 277.3404 510.2123 275.8823 510.9738 274.492 511.6996 272.7416 511.5513 272.3289 511.7531 271.4804 513.3564 269.7528 514.5187 269.407 514.8169 267.2192 515.8106 265.2335 515.891 262.9274 516.6941 256.8327 520.4819 255.704 520.7762 254.2525 520.566 254.2524 520.5726 253.9074 520.5065 253.9013 520.5097 252.7284 520.2514 248.194 521.1821 246.26 523.1779 241.2447 525.53 241.2361 525.534 239.7916 526.0171 239.3614 526.0798 236.3944 526.0599 232.5602 525.2683 230.3907 522.0348 227.5217 520.9924 226.3081 521.1744 225.3061 521.6681 224.2973 522.1649 221.343 522.7027 219.7563 522.1046 217.6122 520.4015 217.128 520.1709 215.7803 519.6091 214.4137 519.1776 212.5026 518.5737 209.9565 517.4376 209.7682 517.3743 206.4894 516.2716 206.0093 516.1387 204.2765 515.6586 199.9464 515.2292 196.7124 513.8957 195.0587 512.8444 192.768 510.8741 190.1917 509.7964 187.691 507.8795 187.5474 507.7694 186.5206 504.2402 186.8095 501.3639 188.0105 497.0499 188.2526 496.1799 188.2273 493.7811 188.2134 492.4604 187.4553 489.2209 184.848 484.7272 184.8733 482.4707 186.0272 479.62 186.0724 478.6717 186.1948 476.0965 184.8986 473.5603 183.6157 469.2576 184.2538 466.3173 183.5593 462.0049 181.1768 458.9554 179.3894 453.8471 177.1757 451.2557 176.7221 447.5774 176.6365 446.8821 174.6936 443.2998 168.691 439.9497 164.4995 435.4611 163.9685 435.1109 162.6605 434.6089 161.4707 433.786 160.7025 433.4589 159.7207 432.3385 154.2254 428.5433 153.1308 427.3666 147.9003 426.6373 142.9723 428.9413 141.0547 429.8366 138.923 431.2211 135.8558 432.8598 133.6849 432.8157 130.4382 432.4758 127.1737 432.3305 126.3744 432.2947 120.3888 426.7481 120.9796 419.6269 119.0187 416.4758 116.9045 414.1879 116.2897 413.669 115.799 413.4553 113.5688 413.0901 111.9919 413.7599 110.9182 414.1324 109.6888 414.5057 108.6879 414.6931 108.7268 413.7196 107.4495 413.7454 106.968 414.1668 105.1705 414.3485 101.8583 414.2971 96.0941 413.0409 95.1293 412.1501 95.0623 411.3295 95.3209 410.0581 95.2743 409.417 95.1174 408.6134 94.3912 408.1018 93.0794 407.1407 90.6185 407.6603 90.6065 408.5773 90.1745 409.3676 90.0973 409.5088 88.7701 409.222 86.804 411.427 86.056 411.633 85.1946 411.4322 84.4408 410.555 83.1292 409.8583 82.0265 409.9498 74.5601 416.2214 71.0916 415.2159 70.0621 414.3107 66.6207 410.2853 65.1506 408.0566 65.0126 407.6795 65.1056 406.8587 64.699 406.283 63.6295 405.3376 61.9931 404.631 60.0114 404.171 58.9919 405.2422 58.3288 406.9372 57.911 408.8985 57.319 410.0374 55.5815 409.5333 53.4621 411.1705 53.3177 410.8753 53.4021 410.0438 54.1132 406.8003 54.6783 405.4716 55.52 402.2923 56.5633 393.3766 56.8098 389.9575 57.4069 377.3496 57.3145 367.8979 56.9483 361.0796 57.0231 356.6838 57.1468 356.0535 57.8097 354.9249 58.4724 354.494 59.3005 354.5037 60.4957 356.8134 58.7089 357.9406 58.8655 358.7559 60.9627 362.8164 61.4464 364.1132 61.3684 366.8835 60.8589 371.7516 60.0376 377.0103 60.4076 382.0486 60.9701 394.749 61.7593 395.8688 64.1179 394.8877 66.2693 395.2775 67.3406 395.0037 67.9356 390.2971 66.6777 390.4561 66.2007 389.4085 66.4855 386.785 65.3728 385.5343 64.1788 384.9109 64.0666 382.204 64.0579 381.7948 63.7362 381.31 64.0195 378.3529 64.5173 377.113 65.0123 376.9041 65.4833 377.0997 65.4187 378.214 66.1902 380.4399 66.4659 380.7336 69.0484 382.0949 69.38 381.8138 69.0075 380.2877 71.5231 375.8052 74.1454 373.6721 74.1265 372.797 74.4888 371.5271 73.6475 369.2535 72.3148 367.584 71.9999 366.8622 71.8467 365.395 71.249 363.5922 70.2374 362.4281 68.5921 361.2675 68.2836 359.7488 68.2794 356.3227 70.3706 355.7371 72.3565 354.4094 72.4802 353.9164 72.3601 351.0344 73.1876 350.1766 75.277 349.5108 78.5301 347.3916 79.9478 346.8688 81.8348 346.9621 82.2627 345.9999 81.8857 344.5802 80.3267 344.2778 78.9955 343.0411 78.1115 342.9168 77.5198 342.5413 75.9602 339.5357 75.386 339.511 74.1228 339.9817 73.5072 340.7662 73.5363 341.369 73.8011 342.3841 73.3625 342.9529 72.099 343.1181 70.0834 343.0173 68.1089 341.3168 67.4303 341.6954 66.8945 342.9852 67.2876 344.6094 68.0813 345.9654 67.3724 346.2098 65.9741 345.5239 65.2857 345.4302 64.3013 346.2278 62.3954 345.1456 60.4052 343.3929 60.4611 342.9829 60.0395 342.5275 58.374 341.2532 56.5466 340.9696 55.4406 339.924 55.0255 339.2167 55.2482 337.6312 55.2677 333.4871 55.1596 332.0245 54.9747 329.5214 54.4458 325.6276 53.2117 319.0412 51.8243 315.1089 53.9723 314.1775 54.6976 314.1894 56.3881 315.9734 56.6543 316.8378 56.584 321.0131 58.2005 322.0218 58.9075 321.7512 59.4616 321.532 60.1086 320.7636 60.8422 317.6648 61.1611 317.2701 62.2263 316.6407 64.5741 315.9694 65.0425 314.9832 67.6218 313.3537 68.2134 313.2109 70.4436 313.5754 74.8452 312.0058 78.205 311.0996 80.5843 309.9057 80.2043 309.4304 79.0295 307.9605 77.7213 306.7244 76.8354 306.232 74.443 306.1389 72.6284 306.3801 71.743 306.0292 70.6623 304.4873 67.3343 304.5739 65.2585 303.7364 64.5299 302.7999 65.5621 301.839 66.0948 300.9552 64.9407 299.7309 64.9651 299.2611 64.1109 296.9165 60.1454 295.0922 56.0144 294.6801 54.4054 294.7558 52.3723 295.6415 51.5631 296.4839 51.2776 297.7013 52.2351 302.6696 52.29 305.2907 53.5025 309.4202 51.7497 309.882 49.8984 311.4252 47.6769 311.786 48.3563 309.5215 48.8143 307.013 49.2722 301.61 49.3191 290.8042 49.1718 286.7923 48.6686 281.985 48.8377 280.604 48.545 280.2932 48.2203 278.6523 47.7803 274.5449 46.751 267.8563 44.4545 257.3499 43.9112 256.149 42.8086 254.987 42.4272 254.7315 41.037 254.5202 39.638 251.4247 39.0362 249.268 38.425 247.8773 37.6846 247.254 36.5026 246.7021 36.1111 244.8718 36.0043 241.6842 35.1793 237.5474 34.8555 226.5459 34.3211 219.8252 34.1754 217.9889 33.8784 217.6859 33.4058 212.4247 32.973 209.826 32.6832 209.1626 32.1558 204.8631 31.0108 199.808 29.5738 195.8766 29.0092 190.7199 28.6055 188.7234 28.1245 187.5239 25.9113 184.5429 24.1338 184.2174 23.6627 183.7779 23.3108 179.5808 22.6956 176.6114 21.908 175.7267 21.0431 175.4867 20.4186 175.6644 17.7978 173.3576 16.101 170.4107 16.0776 169.3405 15.7671 168.8535 13.263 166.9702 11.1318 166.5413 11.0135 166.4432 9.5889 165.2624 9.158 164.5623 9.2383 163.8894 7.9608 158.0501 7.3679 156.8396 6.3929 155.5436 5.4832 153.5455 5.7865 150.8606 5.2309 145.8168 5.0791 142.7562 4.8609 140.7511 4.6094 139.8819 4.1071 139.2881 3.9049 137.6861 4.1911 135.0201 4.886 134.249 5.0859 133.3282 4.4168 130.8523 2.0617 124.9639 1.1228 123.828 1 123.3714 1.1963 122.3884 4.0702 120.3714 4.9878 118.2873 5.621 116.2119 5.7293 115.1453 4.4209 112.2131 4.3412 112.0404 5.0134 111.1858 6.5845 109.8525 7.0449 108.3541 7.7385 103.9087 8.4515 103.7643 8.81 103.3362 9.2817 101.6873 9.7582 98.6123 8.7315 97.0112 6.1466 95.6098 4.5764 93.035 3.3007 92.246 2.9599 91.4607 2.9042 90.712 3.5397 90.0156 4.4551 89.4982 6.6815 89.7326 10.8019 89.6962 12.1395 90.5435 12.8922 91.937 13.5591 93.0883 14.8871 93.5149 16.0057 93.003 16.8885 92.5835 18.6098 93.7818 19.4219 93.5689 21.1608 95.813 21.8729 96.4061 23.1978 96.6046 24.6346 97.5478 33.9384 104.383 35.6842 106.2913 37.1221 106.9744 39.091 106.637 40.9074 108.2123 45.1555 109.8392 45.4722 110.6449 45.3303 110.8166 45.2504 110.9812 45.4349 111.1997 47.763 112.0435 48.3843 112.0081 49.4837 111.4391 49.782 111.1476 49.9473 110.5886 51.1585 110.9919 53.1603 112.4662 55.6249 113.6307 60.6259 116.7046 63.607 117.8718 64.501 118.465 63.8413 120.9616 65.4655 121.5802 67.2793 122.6478 69.3353 124.5681 76.2195 126.8255 78.7935 126.8335 80.8066 127.6147 82.731 127.9214 86.2932 127.8828 87.5955 128.8139 88.3783 128.9257 91.1285 128.4904 96.4614 129.0834 98.6704 128.3334 101.4489 128.1845 101.4815 128.4779 101.7653 128.74 102.4631 128.8401 103.705 128.1855 103.6992 127.8211 104.0742 127.6917 107.0812 128.4237 109.1517 129.3723 110.5574 130.4251 110.1178 131.038 111.3072 132.1144 115.0843 132.9128 116.7829 132.1054 118.2048 130.6656 119.1558 130.599 120.7503 131.5021 121.9487 133.0872 123.4379 133.7046 126.8413 133.4906 128.6695 132.6613 130.2156 132.4227 130.3117 132.5369 129.9316 135.0814 131.6304 136.075 134.5767 136.7569 138.0045 136.6368 140.8167 137.172 142.6364 137.1228 145.3116 136.1176 146.1021 136.7053 147.224 136.9269 149.2563 137.0495 150.2197 136.7109 152.4642 135.4367 155.1205 133.0285 157.9482 129.8052 159.9625 128.3615 161.1039 128.1987 161.194 128.5883 160.4681 129.8006 160.0212 131.266 161.1839 131.89 161.8491 131.8012 162.6677 132.3186 165.6916 135.8846 167.5572 136.9469 169.0516 139.6466 170.1221 142.9404 172.3561 142.3732 173.6362 141.6413 176.1397 140.9038 179.4898 140.614 181.186 141.0124 182.2827 141.7533 181.9697 142.2452 181.3302 144.345 181.1625 145.4597 181.2301 145.6641 181.2658 145.772 182.0643 146.7513 186.1239 148.5578 187.6839 152.4666 186.0779 156.2191 188.5856 156.3145 189.7564 155.4666 190.5981 152.8382 191.1568 148.7438 189.001 147.623 188.2059 145.8012 186.1927 144.1941 185.9269 140.4728 186.5468 138.9734 190.9716 135.5667 195.9278 134.4212 198.296 134.4481 199.3406 138.4171 196.8648 139.8748 196.3314 139.9693 194.8454 141.273 194.2672 141.9672 193.9517 142.6932 196.8985 147.9063 196.8811 148.7377 197.2519 149.2902 199.7181 148.6027 199.9674 147.8895 200.1047 145.6333 199.9204 145.3569 199.2972 145.3641 199.2068 145.1659 200.801 142.3344 202.3016 141.4238 204.3393 140.6478 205.4588 140.8947 204.9972 141.6239 204.8993 143.0708 205.7156 149.7595 206.2025 150.7311 207.0092 151.4021 206.8558 153.6236 205.1088 154.9158 204.791 154.8899 204.1031 153.8855 203.6402 153.7034 201.444 154.847 201.8906 157.9187 203.5165 160.1816 205.3298 160.3441 205.7568 161.0014 205.9791 162.3881 205.0669 164.5718 205.0725 165.2417 205.3135 165.7258 207.2563 166.6371 207.7267 166.5812 208.3555 168.1266 208.0404 168.8839 207.8864 170.5078 208.7097 172.0758 209.6033 172.8248 211.4723 172.8295 212.3199 173.2874 210.1034 175.112 209.8741 176.0699 209.6153 176.3959 208.2237 176.7085 206.5931 176.1182 203.8411 175.9679 204.0893 177.1596 204.9937 178.6439 204.7304 180.385 204.2111 181.4733 201.0086 184.1515 199.7499 184.6119 198.0872 185.9477 197.725 189.9325 196.9152 192.348 196.8037 194.1046 194.283 200.3636 191.1228 203.8895 189.1485 201.4802 193.7612 187.0204 191.7487 179.8337 190.9687 180.4313 191.3642 184.7129 188.148 189.1316 184.378 197.5629 182.5498 204.3934 174.598 213.1616 173.8467 214.3767 160.2672 236.2671 154.7344 251.4824 156.3013 252.7742 159.3113 250.5996 163.2437 252.3842 167.4948 252.6163 172.3181 249.2097 176.9486 248.0453 179.7529 247.2592 183.2562 244.0749 183.8671 242.2073 180.9374 242.4104 179.3327 243.5468 173.071 245.9944 169.3653 248.5128 164.8716 249.895 161.9783 248.8593 158.9535 248.5633 158.5445 246.2345 167.8142 230.6763 169.7016 227.2295 174.9845 217.5649 180.2243 212.4547 186.4728 208.3006 191.7595 207.8905 196.9246 205.294 196.9743 205.0103 198.6139 195.6293 199.3414 195.4395 200.4307 193.786 200.7815 191.9697 201.3071 190.902 203.795 189.4376 204.5312 186.4213 204.7494 186.0804 208.2666 182.5315 210.8224 180.9346 211.7477 178.7636 212.4241 177.8912 215.8965 177.8528 216.0184 175.3764 214.794 171.1455 214.6459 169.5035 213.8701 168.3882 211.8296 167.5942 211.4914 166.6213 211.8523 165.5136 212.3689 165.2588 213.182 165.3243 215.6326 167.5878 218.6109 168.6809 220.7223 170.7165 221.9974 174.5168 222.0553 177.0622 222.6052 181.9052 222.9781 182.7185 224.9234 184.4021 224.9095 185.3419 224.6104 186.1051 223.5621 187.1445 223.5122 188.6985 225.863 191.8711 225.9383 193.2039 225.7589 194.2951 225.1896 194.8523 224.0551 195.1872 222.1197 195.2243 221.3601 195.0745 220.9516 194.7173 219.1384 194.5336 217.4027 194.7054 218.4103 199.9555 219.6218 200.9069 220.1371 200.8776 220.3391 200.4409 221.6315 200.3708 222.2618 201.8261 222.2276 203.8163 221.7409 206.0653 220.6999 208.9734 222.2889 210.8534 223.1759 211.4692 223.1954 212.301 223.0003 213.1928 222.3877 214.0507 222.5291 216.9959 222.9307 218.4004 223.9482 218.7623 224.4145 219.2347 221.893 220.4465 220.4003 220.5743 219.2092 221.392 218.7192 221.7282 217.8254 223.1779 217.8324 225.9564 217.304 227.3832 217.3465 228.0917 218.7307 228.332 219.7372 228.0843 221.987 229.4508 222.5425 230.2182 218.7728 236.3199 218.4813 242.3564 216.9387 246.1376 216.3951 247.4694 217.7573 250.2933 216.2213 252.7126 215.7377 254.5069 214.0827 257.5156 213.6068 257.6234 213.8046 258.831 214.0483 259.2581 216.1012 263.0863 216.3478 263.8668 213.104 268.3739 211.9503 270.9993 211.748 272.4046 210.4792 273.9116 209.2995 273.3748 208.0564 271.1243 203.9584 265.7821 201.5671 264.2777 201.0788 263.6718 203.9809 254.7618 207.794 250.8343 208.057 249.9679 207.3852 249.7355 204.0509 251.2915 198.383 256.6087 196.2583 261.5565 195.7263 264.6604 198.8259 268.7088 198.0845 270.8164 199.7108 271.4478 200.1288 271.61 202.107 271.4541 202.6481 271.6476 203.8785 272.8519 204.6625 273.4895 205.7622 274.067 206.4256 275.6826 206.1528 276.4883 204.801 277.3662 202.7057 277.674 202.4497 279.3923 203.026 280.1513 202.9761 283.8738 202.7337 285.0597 201.8314 285.352 200.9041 286.7101 200.7024 287.4196 199.9089 287.7029 198.9475 287.1032 197.9482 285.6561 195.8872 283.4426 195.1274 282.6133 193.8174 281.1828 193.0238 281.0124 187.1105 269.3745 186.1028 267.2329 186.2446 265.7193 187.1517 264.8155 188.9007 264.4594 190.7493 262.5812 191.2156 254.7263 190.6369 252.9388 190.4701 252.4232 188.7425 251.4365 188.3579 252.879 188.8072 256.7149 188.5065 257.9389 186.0198 261.0769 184.076 265.2562 184.6863 270.7503 186.3975 274.6233 184.1068 280.7061 184.0024 280.9833 184.8028 281.1894 188.727 279.0302 192.487 287.6097 197.8824 290.7566 200.7168 290.7682 202.311 290.7743 205.235 286.5572 205.8155 286.1757 206.7249 286.1268 206.3222 284.08 206.8664 281.8645 207.3664 281.3192 209.0335 281.1424 211.5207 279.86 212.6977 275.0346 214.7196 270.0242 214.8401 269.7941 217.2866 265.1205 218.4015 262.9888 216.4427 259.2013 216.4823 259.0023 217.2152 258.9027 217.9104 259.2058 224.0464 265.264 226.805 266.9234 227.4694 266.7405 228.3029 266.5108 229.5206 264.7276 230.4487 263.7289 230.0057 262.9122 228.9491 262.3461 228.1188 262.5518 226.882 261.8609 227.069 260.9769 229.0973 259.1035 229.6377 258.8923 235.199 256.7165 237.9892 255.9584 239.2445 254.9197 239.2651 252.4287 239.298 248.4588 239.0543 247.0857 238.3896 245.8985 237.1142 244.7425 236.8181 243.6602 236.8445 242.5007 236.4821 240.8207 235.7937 240.309 235.2931 239.9368 233.6682 239.4634 235.2317 238.1921 235.9885 234.8732 235.6169 233.8128 233.4936 231.6898 232.5349 229.7137 232.8323 228.278 232.4753 224.4674 231.3764 221.6162 230.2568 220.5227 232.2399 219.3823 233.7703 217.6447 234.9202 219.2552 235.4451 219.582 236.6594 219.3495 238.0878 218.508 238.2311 218.4235 238.6049 217.2459 238.5994 217.2296 238.1607 215.9387 238.0899 215.7303 235.8256 213.4103 234.0078 212.24 233.2262 212.327 232.1737 211.8665 231.1417 210.9636 229.6729 208.0504 231.9734 204.9188 232.4107 203.5315 233.5245 201.7267 234.8452 200.6277 235.0317 200.1496 235.2752 199.5256 235.6529 197.6258 234.763 194.6145 235.0382 193.2083 233.653 191.1172 233.4734 190.2551 233.417 189.9845 233.7106 186.4639 233.7122 186.4449 234.0202 185.7909 238.0471 180.9397 238.7286 180.6847 239.4086 180.054 239.8302 179.2238 240.1179 178.1792 240.534 176.6681 240.4937 175.7806 240.1683 175.0327 240.7318 172.3898 241.4535 170.3172 242.6157 168.3446 242.7298 167.746 242.6145 166.6013 243.0688 164.7481 244.2306 164.3347 246.0105 163.7009 248.9409 163.3152 250.8845 161.6422 251.2742 160.8239 250.7029 159.1143 250.9838 156.1989 251.1469 155.4039 251.5409 154.7874 250.9023 152.7828 246.0147 149.6843 243.6096 146.0815 242.0582 144.2297 241.641 143.1129 239.94 142.36 238.0125 138.4578 237.9656 138.3629 237.8483 138.0759 238.0359 135.5351 237.9708 134.2495 237.4662 132.2085 238.1783 130.7779 238.3679 128.8092 237.341 127.966 236.4287 125.8285 236.1062 124.2123 235.1724 122.5906 235.1044 122.4726 232.1716 121.8543 231.683 121.3393 231.3652 121.2846 229.7666 121.8402 229.3423 122.3918 229.344 122.6968 229.7104 124.523 230.2104 124.5672 230.4782 124.9863 230.4374 125.3498 229.1019 127.2278 228.3925 127.7369 228.1069 127.485 227.5587 127.5859 226.7073 128.4548 226.6139 130.3135 226.9018 131.6596 230.1179 137.14 233.135 139.8613 236.2693 143.8156 238.0989 147.7434 238.2778 148.5581 237.7973 148.7856 236.402 148.2993 235.3674 147.13 235.0718 146.4787 234.8401 145.1216 234.134 144.0858 231.8894 141.375 229.3271 139.6457 227.5987 137.1525 226.5432 137.3229 225.6358 138.5176 225.3087 138.5596 223.1493 136.5054 222.1981 132.3068 220.8158 128.961 220.7455 125.0613 221.2453 123.0719 221.2334 120.4856 221.6915 119.0533 224.4394 118.0363 224.8515 118.1117 225.0314 118.6003 225.4542 118.813 226.705 118.8944 227.3611 118.3814 228.1833 116.2409 228.4707 116.1071 234.1455 119.0544 234.2371 118.9918 235.2832 118.2761 235.6544 116.4153 237.754 113.7275 237.271 112.4752 237.1289 112.234 236.5509 111.2527 234.1929 107.8481 232.6856 106.6204 230.8443 106.0373 227.647 102.6573 226.966 102.3664 225.4435 102.3139 224.4814 101.8649 221.958 98.9854 221.413 96.9007 220.6216 96.4752 219.9432 95.5336 219.6383 92.4126 220.4031 90.5226 219.8171 89.7604 218.7186 89.6494 218.0243 89.8805 217.3361 91.98 214.1991 93.5388 209.9692 94.5182 208.9416 93.6812 208.0967 92.4152 207.6822 90.1889 207.886 89.5042 208.1702 89.6219 208.175 89.8246 208.858 89.7643 210.1408 88.0579 209.9281 85.2191 209.2656 84.4217 206.822 84.5479 206.1144 86.3416 206.1106 86.9767 205.599 87.4024 204.6439 86.7824 204.4594 86.3928 204.4553 84.1916 205.078 82.7489 205.6622 81.3947 207.4134 79.7141 207.945 79.9277 208.1501 80.4311 208.6988 80.5216 214.3598 78.0503 215.1804 77.9629 215.8727 78.1621 215.9853 79.484 218.9935 80.1565 220.0747 81.5963 221.8894 86.4603 222.3358 86.5755 222.9308 86.2979 224.105 86.6954 224.46 87.2646 225.5146 87.4317 228.4279 86.0251 228.6521 85.8107 228.6589 85.3919 228.2692 84.6649 227.7702 84.3543 227.3474 82.737 227.2631 80.152 227.4209 78.312 227.3034 77.3752 226.0994 73.1232 225.539 71.8218 223.4678 71.3842 222.8162 71.1725 222.5654 70.3244 222.5653 70.0668 224.8002 69.8062 226.4281 70.1681 227.1292 71.8776 227.7082 72.6449 228.1019 72.7071 231.5078 71.1651 232.6926 69.4664 233.5314 66.7949 231.2897 63.2701 229.7579 62.7683 227.5774 60.0999 227.3959 59.7524 226.9038 58.81 226.2943 58.1088 225.7099 56.0615 224.6411 49.5134 225.034 48.3367 226.0209 47.8306 227.0978 45.9334 227.3766 44.8645 227.6352 43.8732 225.6307 42.832 225.4241 42.6281 223.9592 41.1825 223.2368 40.0074 220.1125 39.4688 217.1783 40.549 217.0526 40.8467 216.1449 42.3776 214.0056 44.4976 213.0447 45.8173 212.9389 46.2986 214.0603 48.0646 215.3958 49.0009 216.0169 51.1006 215.97 51.4765 215.0528 52.1613 214.5397 52.1761 213.5523 51.7032 212.0229 49.9533 209.4366 46.1154 210.1455 43.826 210.7465 43.0132 212.1814 40.041 212.3804 38.9134 212.2922 38.3892 211.3274 38.3698 211.0192 38.128 209.0549 35.6369 207.7333 35.3419 207.3766 35.5824 207.2231 35.9219 207.1173 36.7629 207.113 37.6407 206.7253 38.0421 206.0611 38.0414 205.9462 37.2486 206.2581 33.2951 206.059 31.099 205.6008 28.8654 205.0703 27.9996 198.9898 22.9894 198.2822 21.7881 198.3485 21.5188 199.2203 21.5576 202.4954 19.1556 202.8865 18.514 203.1222 17.6724 203.0421 16.2422 202.1858 15.0269 201.1673 14.5032 200.7422 14.4052 199.008 15.9827 196.0134 14.7911 195.6884 14.4351 195.622 13.901 196.1875 12.2556 198.2763 9.4523 200.5741 7.1118 201.3619 7.0388 202.3684 6.2844 202.4074 5.8902 202.2244 5.4577 236.7188 6.3722 236.9002 6.3696 252.1641 6.6751 267.2085 7.0366 301.4001 8.3424 336.4623 8.4236 341.4163 8.3251 350.1241 8.5197 350.685 8.5127 350.9122 8.4008 352.7899 8.3819 363.007 8.4228 369.5384 8.585 377.523 8.6687 390.0797 8.7365 403.382 8.7859 436.9333 8.6956 470.5163 8.7116 473.8982 8.705 486.2177 8.4495 503.3848 8.3028 503.4635 8.3036 527.4629 7.9959 530.323 7.9555 559.0387 7.4718 559.5485 7.4676 588.6629 6.8652 651.6299 5.1839 670.8649 4.5671 670.9602 4.6429 682.4518 4.2537 683.2654 4.1303 709.7239 3.1214 727.1834 2.5068 743.1069 1.9115 743.1022 1.9283 757.098 1.4598 766.3171 1 Z"/>
</g>
</svg>