<?xml version="1.0"?>
<svg xmlns="http://www.w3.org/2000/svg" version="1.2" baseProfile="tiny" width="800" height="860" viewBox="0 0 800 860" stroke-linecap="round" stroke-linejoin="round">
<g id="cb_2018_us_state_5m">
<path d="M 779.5477 318.3931 779.8997 317.8734 780.5663 317.6696 780.8067 317.0977 780.5974 315.6534 779.4752 312.4513 780.8707 306.4948 781.5757 305.3995 781.9839 305.3513 782.5017 306.0108 782.8661 307.1722 784.2488 307.759 787.4985 307.4429 789.4872 306.4366 791.6053 306.7216 792.7424 307.9038 795.7007 306.8054 795.8219 305.7444 795.5272 303.968 795.8043 303.4866 797.337 303.7277 798.2873 304.5081 798.9028 306.3073 799 307.3496 798.6291 307.5984 797.3318 307.2546 796.5165 307.6607 794.3874 310.8348 792.9784 314.3968 791.643 315.5631 791.1717 317.7955 791.5466 320.0474 791.132 321.516 790.3484 321.9843 788.6707 321.7822 787.7378 322.4187 787.1968 323.6457 787.668 326.4996 787.6923 328.181 787.3226 328.7776 786.6528 328.4906 785.3563 325.6729 783.7404 323.4622 782.1458 321.855 780.7215 321.4852 779.6191 320.216 779.5477 318.3931 Z M 725.2426 348.7075 730.6143 346.2336 730.9723 348.5504 730.5542 353.4495 731.8206 356.3756 725.1804 352.8317 725.2426 348.7075 Z M 320.6474 14.9774 321.6891 13.0796 321.9904 10.9828 321.7866 7.2266 322.072 5.4675 322.8534 3.1269 324.3725 1.7424 326.9308 1 329.7244 1.0978 329.9185 1.3304 330.0067 2.8405 329.8324 4.1432 329.0307 6.8169 328.601 10.7855 327.3126 13.0573 325.2601 14.4544 320.8101 16.4683 320.6474 14.9774 Z M 312.7491 38.5597 316.4838 35.5123 322.6763 33.3092 323.893 35.17 320.3565 39.2499 316.0185 40.8542 312.7491 38.5597 Z M 296.6665 29.2021 298.9221 25.9189 303.2077 24.1859 312.4896 21.2808 313.1917 21.455 314.6721 22.6296 315.1065 23.4895 313.0326 27.4322 311.5775 28.1996 310.9846 28.8742 310.5099 29.7769 310.466 30.6587 310.2044 30.9585 309.7884 31.1811 309.2566 30.9485 308.7439 30.5653 307.2311 30.2469 298.5072 32.6944 297.6125 32.3743 296.2729 30.3222 296.6665 29.2021 Z M 282.4334 45.1918 284.0198 40.8042 286.5115 38.7768 293.2566 34.355 294.559 35.786 293.5705 37.4471 287.9863 40.468 284.4817 45.8289 283.0986 46.7594 282.4334 45.1918 Z M 285.4147 21.7768 288.6493 23.104 291.2372 26.9958 291.8955 30.6069 285.7325 31.0459 282.208 24.9527 285.4147 21.7768 Z M 280.9183 10.4655 283.0472 8.8205 292.4384 7.0099 297.1383 4.9836 297.9757 7.5203 302.3828 13.9166 306.6554 8.9849 308.5219 8.4152 310.533 12.1103 309.4323 15.5508 302.1963 16.9211 299.0354 20.6715 294.195 24.7356 289.1097 17.8818 282.0035 14.5972 280.9183 10.4655 Z M 278.4306 55.2377 278.6041 55.0303 282.6878 53.1907 285.9783 52.4827 286.5595 51.7155 286.6676 50.579 287.5635 49.5674 288.6712 48.6739 293.446 46.263 295.8276 44.5037 297.6095 42.5833 298.8074 40.6216 300.3627 39.0524 301.0827 38.762 302.8587 39.1111 304.7693 41.8743 306.979 43.4629 307.119 43.9219 305.9046 44.9572 305.103 45.2908 301.3406 45.6023 293.313 49.0589 292.3739 50.1168 292.0474 51.6615 294.0482 52.7163 295.9373 52.7988 296.2411 53.0678 296.3232 53.6761 295.6742 54.7377 290.6201 55.9433 288.0641 55.2797 287.0956 55.9568 285.0756 58.4993 281.9352 60.9106 280.9576 61.2524 278.7399 61.171 279.4868 57.5065 278.4978 55.9144 278.4306 55.2377 Z M 254.6048 17.289 258.8008 16.3516 260.0463 14.4773 261.4883 14.6104 262.1308 17.2923 260.9212 21.7286 257.1158 21.8936 254.7894 19.9645 254.3568 18.5101 254.6048 17.289 Z M 121.0993 66.6698 122.0286 66.9638 124.542 69.338 126.3698 70.5689 127.8256 71.3396 130.239 71.893 137.4874 70.1653 141.2866 69.8633 143.4782 70.4206 146.0824 70.3979 149.9436 69.6547 155.2119 67.081 157.028 66.4809 168.7 62.6152 175.8222 59.1121 177.9391 58.5695 180.8616 58.9757 180.8663 58.9773 182.696 59.1829 186.0476 58.7584 187.5236 58.0813 188.4788 57.0873 191.3416 56.7286 194.0344 55.964 197.3554 54.3741 198.9134 53.008 200.656 52.7497 201.5221 52.9564 204.4403 52.3363 205.4847 51.5524 206.6252 49.8377 208.4519 47.9482 211.4899 46.3007 213.1073 45.6738 217.7879 45.09 218.9724 44.5615 219.7436 43.7808 222.1274 40.287 222.9005 39.6321 224.8517 39.0665 225.3761 39.2613 225.7461 40.5822 226.2837 41.4905 229.0433 43.3675 230.4145 43.2983 233.0089 39.9142 233.4909 38.5711 234.0258 38.0376 234.7271 38.183 234.8902 38.5881 234.4519 40.334 234.6454 40.7097 236.1519 41.2626 238.4131 41.0307 239.569 40.3184 239.9947 36.8898 240.3621 36.3741 241.6407 36.2199 243.2531 37.2391 245.2124 36.7069 246.9145 35.2549 247.3466 34.445 247.6458 32.679 249.6398 31.1295 251.4381 30.2782 252.2498 30.3337 252.728 30.0413 254.0997 28.5606 255.5365 25.6434 256.2266 25.1663 256.6806 25.1976 257.9853 26.2193 262.1497 27.6125 263.1754 27.2387 263.8681 25.7691 267.6204 22.6819 268.7148 22.1282 270.6675 21.9494 272.9756 22.879 279.5575 28.7724 283.4595 34.0949 283.9193 35.0808 283.8845 36.0299 283.4028 36.6008 282.5238 36.9096 281.4051 38.182 279.9778 41.4033 277.5839 48.0823 274.1031 51.6457 273.7832 52.8475 272.7946 54.2672 270.109 54.3934 269.187 55.9381 269.6945 57.1772 269.308 58.2669 268.7521 58.9568 266.3644 60.433 266.5467 62.1869 268.1496 66.646 270.3567 71.1166 270.1955 72.2611 268.2788 74.6834 266.0149 76.5234 262.7281 77.8406 262.2171 78.7081 261.426 82.6394 261.3964 83.7187 260.9219 84.8664 259.0464 88.0392 257.6229 89.0188 257.3687 89.4557 257.3667 90.1275 258.57 91.7587 260.475 92.4169 261.6004 92.8056 262.6872 92.8904 263.2358 92.7447 267.4577 89.4918 268.2361 89.3741 273.1752 86.7927 277.6051 85.1908 280.7955 83.1384 282.7376 81.2608 282.6279 77.8327 283.7211 76.8682 284.8683 73.1075 285.168 72.6833 290.5678 77.967 299.0706 85.6609 304.3767 90.2084 307.967 92.7701 309.0625 93.2019 310.5543 93.7896 312.1703 92.7115 314.6971 92.2332 318.8075 95.1627 323.4422 97.5803 325.9563 96.7408 326.2754 97.2912 326.3975 98.3874 326.4145 98.3876 327.2677 99.3449 327.541 100.2202 327.9962 100.8232 328.2011 100.8249 328.251 100.8253 328.4157 101.1349 328.8142 102.3405 328.8485 102.7857 329.0978 103.0361 329.8846 102.8464 331.5385 101.8211 332.12 101.5754 333.1991 101.4184 333.7029 101.6402 333.7887 101.581 333.959 101.6336 334.2324 102.1533 334.4835 102.245 334.6719 102.1972 334.7579 102.0588 335.0225 100.3752 335.4393 99.4415 336.3977 99.0765 337.0449 99.2309 337.5995 99.7998 337.5323 100.2142 337.7045 100.5705 337.9597 100.675 338.5109 100.5509 339.7339 101.856 339.7986 102.327 339.5863 103.8527 339.2508 104.7698 338.8169 105.1685 338.913 105.9777 339.3096 106.1904 339.3167 106.1904 339.4801 106.0205 340.1091 105.7857 340.2585 105.7695 340.6452 105.9693 341.324 105.9016 341.8247 105.7127 341.839 105.5204 342.0283 105.3165 342.9466 105.7211 343.2411 105.7191 343.8261 105.086 343.9009 104.7914 344.0597 104.6727 344.6393 105.3058 344.7184 105.5631 344.3581 106.3732 344.9074 107.0746 344.9048 107.2495 344.887 107.4733 344.869 107.7209 344.9328 107.8863 345.1517 107.9232 345.4036 107.8895 345.5807 108.1031 345.5792 108.3152 345.5613 108.551 345.8502 108.7499 346.1744 108.7437 346.4143 108.6215 346.608 108.392 347.7648 108.2797 348.0415 108.3798 348.3834 108.3047 349.3028 107.9594 349.9116 107.4539 350.0692 107.4805 350.191 107.8021 349.991 108.4254 349.9767 108.6691 350.0644 108.9733 350.2691 109.0044 351.0944 108.6713 351.329 108.6685 351.8348 108.9794 352.0554 109.3201 352.0563 109.6507 352.4454 111.1192 353.4299 113.405 353.7218 113.8002 354.7926 114.4782 355.3561 115.1317 355.4019 115.3031 355.2983 115.5079 354.964 115.7667 354.7948 116.2278 355.1198 116.7858 355.3233 116.9966 356.4597 117.4353 356.6007 118.1207 356.7613 120.47 357.1868 120.6395 358.1728 120.6085 358.1736 120.7096 358.2211 121.0348 358.6186 121.5933 359.2281 123.834 359.2725 124.2408 359.1709 125.4977 359.311 126.337 359.9374 127.838 360.5281 128.2222 360.7238 128.6077 361.034 129.9107 361.6681 130.8983 362.2025 131.4233 362.3687 131.4414 362.5896 131.6053 362.2723 132.7777 362.2714 132.7836 362.3706 133.3682 362.7344 133.8624 363.3163 134.2979 363.7776 134.9155 363.7981 135.0995 363.7932 135.3545 363.8565 135.5646 364.0259 135.6439 364.1832 135.6394 364.1917 135.6382 364.3029 135.735 364.5553 136.5017 364.5643 137.3446 364.4694 137.5622 364.1759 137.7448 364.0594 138.1345 364.1119 138.3883 364.192 138.5546 364.2911 138.9159 364.2011 139.3935 363.9911 139.5879 363.9523 139.6861 363.9684 139.8573 364.0663 139.9261 388.7929 146.9692 390.1327 147.3489 391.2824 147.6025 391.5041 147.6714 410.0987 152.9351 422.6477 156.3601 426.4314 157.4797 439.9932 161.1454 444.9322 162.5976 473.3413 170.3848 473.3925 170.3974 480.7371 172.3649 480.9721 172.4255 482.5968 172.8987 482.9045 172.9695 483.1655 173.0791 484.0464 173.3515 487.6368 174.2784 488.3039 174.471 493.0661 175.8022 497.4235 176.8986 510.5696 184.502 510.5798 184.5078 516.08 187.6591 516.7882 188.0761 518.1638 188.8616 528.9495 195.0097 529.1872 195.2724 529.3031 195.589 529.7921 196.3538 530.2276 196.7121 530.5668 196.8838 530.923 196.8511 531.4063 196.9789 532.8376 197.5925 533.3761 198.0243 533.5163 198.2044 533.4914 198.3235 533.9716 198.4513 535.2921 198.0382 535.9818 198.0552 536.0662 197.8185 536.0032 197.4467 535.4205 196.857 535.9962 196.1621 536.5701 196.4656 537.5291 196.3327 538.2058 196.4823 538.2842 196.5934 538.2757 197.0423 537.6482 197.8956 537.6028 198.1532 537.6223 198.537 537.8643 199.3538 538.1515 199.5607 538.6353 199.4624 539.4709 198.884 539.6 198.5823 539.6489 198.4638 539.7383 198.3799 539.8036 198.3318 539.9263 198.283 540.0498 198.2934 540.2375 198.318 540.7265 198.7109 540.9126 198.7598 541.2133 198.6381 541.5024 198.2064 541.7414 197.9931 542.4847 197.5697 543.3172 197.277 544.5309 197.4073 545.2996 197.7786 545.7834 198.2391 545.7661 198.8771 546.1586 199.8694 546.8557 199.9763 547.2011 199.2913 547.9305 198.9356 548.7077 198.973 549.6311 199.4238 550.7214 199.6471 551.2656 199.7586 551.8616 200.3075 552.2844 201.3253 552.4717 202.2869 552.3645 202.2883 552.3241 202.4631 552.8287 203.2018 553.2939 203.5341 553.3368 203.6918 553.2417 203.8915 553.1878 204.1735 553.3335 204.3123 553.4378 204.3773 553.6445 204.358 554.1056 204.2644 556.753 205.0403 557.0002 205.0073 557.0924 204.548 557.1937 204.4653 558.5075 204.3292 559.4914 204.4908 559.7787 204.2856 559.9188 203.9368 560.0928 202.4019 560.0938 201.5549 560.598 200.1136 561.0362 199.1356 561.361 198.8656 561.7962 198.8552 562.3533 199.3141 562.4277 199.4414 562.4909 199.9757 562.9124 201.0914 563.012 201.1884 564.0906 200.818 565.0762 199.9008 565.2584 199.5214 566.0426 199.1551 567.41 199.2728 567.966 199.6547 569.2225 199.4744 569.4885 199.278 570.0172 198.6499 570.1872 198.305 570.1461 198.1215 570.3288 198.0633 571.0765 198.1255 571.5408 198.363 572.6491 198.2704 573.3125 198.4024 573.6178 198.5607 573.7489 198.7772 573.7932 199.4787 574.5861 201.8884 574.7643 201.8977 575.0111 202.1527 575.0133 202.2896 574.8612 202.6516 574.9546 202.8771 575.6036 203.4278 576.3539 203.6428 577.3627 203.4688 577.7477 203.2703 577.9982 202.9239 577.8474 202.5623 577.9005 202.1547 578.3936 201.7288 579.0858 201.778 579.9852 202.0066 580.5497 202.3487 580.6179 202.6003 580.5748 203.1148 581.0966 203.7145 581.3026 203.7883 582.0381 203.6055 582.474 203.6417 582.993 204.0702 583.2249 204.4262 584.2639 204.8038 584.6203 205.205 584.7707 205.5323 584.6816 205.8377 585.0369 206.166 585.4893 206.4287 585.7575 206.3945 586.2373 205.7021 586.3935 205.5968 587.302 205.3002 587.7996 205.4638 588.2857 205.4348 589.1195 204.9935 589.692 203.9657 589.5662 203.5695 590.219 203.2938 596.2202 207.4735 596.814 207.9987 597.055 208.3499 598.084 209.0987 598.5542 208.9023 599.5195 209.1854 600.6438 209.7656 601.1722 210.2062 601.4024 210.6731 601.7783 210.6925 602.9428 209.9274 604.8805 209.4447 606.0515 209.0479 606.4164 208.4335 606.627 208.2801 607.2379 208.3424 607.2365 208.2629 607.3684 208.2434 607.7366 208.3642 607.7994 209.1605 607.7231 209.5606 607.8392 210.0175 608.0154 210.3899 608.2733 210.7185 608.6486 210.9704 609.5046 211.2503 610.1745 211.1852 610.7198 210.9834 610.9296 211.0169 611.8649 211.2877 612.3771 211.7363 612.5828 211.7795 613.5866 211.5937 613.5357 210.7212 614.1087 210.1026 614.2785 210.0565 614.8437 210.153 615.1323 210.2473 616.6845 211.173 617.0148 211.5815 617.407 212.3013 617.7423 212.5843 618.5456 212.7808 618.6543 212.6471 619.2273 212.6322 620.8497 213.3037 620.845 213.5136 620.911 213.615 621.5639 214.1715 623.3483 214.9716 623.524 215.2518 623.3589 215.5219 623.3405 215.6721 623.5018 215.8404 624.0932 215.9692 624.529 215.8876 624.7433 215.778 624.9368 215.679 626.3257 215.6687 626.5583 215.7113 627.4109 216.5554 627.5605 216.9454 627.5725 217.185 627.0809 217.4818 626.7228 217.8283 626.3976 218.5284 626.2634 218.9919 626.2171 219.6626 626.2513 220.3588 626.3227 220.4507 626.8456 222.8923 627.0623 223.3187 627.6373 223.5251 629.1811 223.2802 629.4684 223.4 630.5089 224.3013 630.6285 224.981 630.3935 226.3195 630.0859 226.5143 629.5456 226.2887 629.4224 226.3179 629.1196 226.7925 628.8212 227.732 628.6439 228.0351 627.4264 229.1304 626.3784 230.8501 626.0625 231.1523 625.7196 231.2144 625.393 231.4653 624.569 232.3985 624.2915 233.0465 623.6661 233.5067 622.9201 234.2789 622.7392 234.551 622.6129 235.0527 623.1995 236.487 623.5167 236.86 625.2901 237.8013 626.1428 237.8773 626.4073 238.0437 626.6978 238.5183 626.6812 238.7556 626.5772 238.9948 627.0059 240.1501 627.4844 240.3607 628.2287 241.1942 628.9449 241.3601 630.0965 241.2897 630.2824 241.4173 630.5519 241.907 631.1165 242.1477 632.9215 242.0254 633.9159 241.9579 634.1866 241.657 634.6805 241.4279 635.1666 240.9058 635.2434 240.3827 635.3061 240.3083 636.1098 240.2562 636.4312 240.3589 636.9401 240.3564 637.4102 240.1774 638.1858 239.719 639.5636 239.7396 640.2676 239.3691 641.0086 239.1018 641.587 239.0975 641.8002 239.199 642.0539 239.5219 642.7901 241.4042 643.0424 242.5167 642.9301 242.8743 642.7223 242.9508 642.3462 243.9142 643.6098 244.3709 644.1853 244.4891 644.9106 244.9041 645.3123 245.5001 645.2225 245.7517 645.3939 245.9805 645.9428 246.1286 646.5679 245.919 647.9236 246.0755 649.1655 245.9227 649.8687 245.4821 650.2009 245.6198 650.8143 246.0937 652.5157 245.8112 652.6634 245.6238 652.9109 245.6026 653.0706 245.6367 653.3306 245.8616 653.5204 246.1157 653.7024 246.6842 653.9211 246.8655 654.2266 246.8996 654.7582 246.5562 656.015 246.3924 656.3347 246.3733 656.8612 246.5404 657.1993 247.1789 657.8864 247.3436 658.4215 248.0397 658.5753 248.5246 658.4695 248.6076 658.4351 249.6427 659.6345 251.5257 660.7877 252.3964 662.049 253.3485 662.8291 253.7017 665.3427 254.3245 665.6343 254.5187 666.2086 255.1403 666.3197 255.4875 666.3267 255.753 665.8042 256.3682 665.8208 256.484 666.3721 257.2057 666.7878 257.5584 668.6687 258.7661 669.4068 259.5219 669.6045 260.0238 669.6358 260.9394 669.6074 261.2256 669.5298 261.35 667.742 261.7567 667.2831 261.9912 666.7254 262.6873 664.1416 263.4522 664.0531 263.6064 664.088 263.9996 664.2592 264.3338 664.2326 264.6969 663.9858 265.2396 664.0876 266.3751 664.3934 266.6582 664.9952 266.9558 665.9453 267.9068 666.7368 269.7243 667.7423 270.6975 667.8545 270.9832 667.9081 271.5867 668.4234 271.9662 669.896 272.3356 670.3361 273.3359 670.5753 275.4675 670.4913 277.2115 669.9726 277.7516 669.4048 278.0876 669.2631 278.3027 669.1692 278.5773 669.2299 279.7881 669.1256 281.0955 669.0727 281.4704 668.8089 281.8234 668.6172 282.0229 667.9444 282.2132 666.818 282.1011 665.8062 281.6915 663.7454 281.0645 663.4415 281.2104 663.2163 282.2471 663.3114 282.8198 663.4026 282.9477 664.0825 283.5216 665.2024 284.1552 665.8805 284.7922 666.7656 285.7258 667.2832 286.6976 667.2921 286.9327 667.1512 287.4312 667.14 288.0177 667.237 289.246 667.5374 291.1956 668.0284 292.6729 668.7661 292.8915 668.8472 293.8378 668.7654 294.1386 668.3931 294.8392 668.2217 295.4449 668.173 296.3649 668.1008 296.632 667.0866 297.7903 667.0305 298.1777 667.2411 298.6695 667.2598 298.9016 666.5347 299.883 666.3458 300.2417 666.3537 300.6052 665.3111 301.4171 664.4824 301.7883 663.8357 302.3758 663.7649 302.6442 663.3873 303.1624 662.2412 303.6507 661.9162 304.4514 660.8946 304.9989 660.0837 306.3113 660.0564 306.5744 660.311 307.2221 660.2971 308.3616 660.8831 309.7354 661.4751 310.2836 661.6491 310.5453 661.7722 310.9485 661.8421 312.0048 661.634 312.3743 660.5738 312.9527 660.4966 313.2709 660.5227 313.4331 660.9015 314.0434 660.5823 314.9648 659.9036 315.5413 659.0936 315.9561 658.751 316.2934 658.5153 316.6704 658.49 317.1058 659.0183 317.7488 659.0669 318.1245 659.4987 320.1774 659.7008 320.2478 659.8882 320.6041 659.9506 321.0231 660.0085 321.247 660.1981 321.57 660.5505 321.9046 660.8506 322.0503 661.6219 322.1978 661.9419 322.5662 662.0225 323.0967 661.8251 323.5351 661.85 323.7198 662.0099 323.8869 662.2411 323.8365 663.5678 322.977 663.7407 322.7201 663.9156 321.8675 664.2642 321.6217 664.6385 321.6588 665.0209 321.9248 665.2915 321.8858 665.4587 321.7088 665.5234 321.5175 667.2337 321.7365 668.488 321.269 669.8229 321.2684 670.1367 321.4169 670.7932 321.9423 671.9936 321.6326 672.3249 321.6278 672.616 321.6236 673.5554 322.1248 674.6065 321.9046 674.9449 321.463 674.911 321.0115 674.9989 320.8468 676.6387 320.2066 676.7048 319.9441 677.2606 319.0319 679.1099 316.5454 680.4814 315.808 680.6747 315.3144 680.9866 315.0004 681.572 314.5241 682.3308 314.137 682.8143 314.1384 683.3911 314.3322 683.8122 315.0265 684.856 315.4682 684.9213 315.6174 684.9576 316.288 685.0799 316.4947 687.2447 317.9757 687.347 318.2462 687.4764 319.1028 687.3874 319.8712 687.8115 320.6874 688.1959 320.7538 688.4908 321.0377 688.5964 321.3202 688.6589 322.3472 688.5984 323.4422 687.6327 325.0685 687.1071 325.4008 686.8811 325.6943 686.8306 325.9156 686.9243 326.8591 686.654 327.4522 686.4519 327.6713 686.1685 327.8198 685.1677 329.4288 684.6828 329.828 683.6116 331.3135 683.6094 331.6456 683.2707 332.7807 682.8741 333.2768 682.2732 334.4464 682.132 335.3592 682.2899 336.2149 682.2596 336.7125 681.7077 337.1719 680.9372 338.4463 681.1254 338.816 680.9626 339.5122 680.6985 341.2847 680.7415 342.2691 680.6345 342.4499 680.4766 342.5381 679.9942 342.5163 679.8361 342.597 679.0829 343.5705 678.9524 343.8916 678.9972 344.1832 679.3978 344.4607 679.4818 344.7579 679.3505 345.424 678.78 346.2549 678.7502 346.784 678.9115 347.4339 678.9234 348.0424 678.6976 348.3168 677.6075 348.9621 677.2031 349.4454 676.9255 350.1876 676.9211 350.4031 677.8801 354.0168 677.7281 354.8174 677.7868 355.0305 677.9179 355.1596 678.4842 355.263 678.8992 355.4997 679.3271 355.8911 679.5331 356.3191 680.2347 357.0487 681.1192 357.4411 681.5537 357.9818 681.658 358.2275 682.1842 358.6779 682.5684 358.8592 683.306 358.9658 683.6647 359.1475 684.1959 359.5226 684.8086 360.1254 685.9191 361.7984 685.8962 361.9808 685.5813 362.5292 685.6265 362.738 686.429 364.3651 686.6259 364.5897 687.1501 364.9438 687.8352 365.8236 687.9434 365.9626 687.975 366.7651 688.145 366.9046 688.5169 366.8847 689.1227 366.6699 689.7044 367.0796 691.3029 367.1234 691.9059 367.0507 692.1697 367.2127 692.274 367.4508 692.4345 367.5799 693.2359 367.7335 694.1342 368.148 697.202 369.076 697.4202 368.9626 697.853 370.0324 697.7621 370.8263 697.2947 371.1156 696.8738 370.875 695.9451 371.4307 694.8479 372.7108 692.965 378.4669 693.2539 384.265 692.6914 391.2711 688.516 392.0945 683.9374 391.984 675.2171 393.7767 674.6563 393.8917 668.5964 396.1407 667.7431 396.7047 665.2426 400.3958 664.6904 401.7882 664.6007 402.8828 664.838 404.0854 665.2846 405.2875 666.9132 407.9442 666.2928 409.8867 665.5805 411.2057 664.2735 411.9002 663.705 412.9588 663.4842 414.2921 662.0239 417.565 660.4395 417.8753 657.4451 420.1252 657.0366 421.7536 654.2354 429.3418 652.3815 433.5934 651.0497 434.1793 649.3388 436.003 646.934 440.4339 646.239 446.747 646.2486 448.4322 646.2583 450.1431 644.681 451.0044 643.7633 456.0741 643.8297 457.3249 645.3447 461.2486 644.9357 462.2651 643.548 462.5697 643.0537 464.5185 641.6776 467.0016 640.4856 467.4383 639.8216 468.241 639.6829 469.3665 640.6435 470.3269 644.7119 474.3915 649.3942 475.9648 652.9875 475.9998 653.5542 475.6444 654.9373 474.7769 656.4893 472.4756 658.5143 468.5275 658.798 467.5449 658.7488 467.4472 658.1279 466.2141 658.4492 465.6021 659.6925 464.743 662.9216 461.0256 667.6597 458.0789 670.5395 455.6221 675.0108 454.9654 676.2489 454.4222 676.6905 453.9473 677.5149 453.0604 678.1667 451.7212 678.4491 449.6663 680.0486 447.7719 680.8543 446.8174 682.1416 444.6815 682.2574 441.9494 681.753 439.8708 681.8508 438.823 683.788 436.2127 686.0384 432.2844 691.4201 424.6826 692.5708 421.8733 696.042 417.1354 699.7937 414.5258 700.8662 414.249 703.9126 414.5113 706.4417 413.2921 708.4843 410.9588 710.3108 411.9047 713.3779 411.9548 718.7186 406.3453 719.2431 406.3263 720.9678 407.2422 721.1414 407.653 721.0792 409.4235 722.4711 411.9986 723.075 412.3457 725.7947 411.2405 725.8475 407.569 725.5875 406.6677 724.4822 405.1559 722.7516 404.026 722.871 402.6515 723.6792 400.1137 724.2879 398.3785 725.0762 397.4138 726.6327 394.144 728.3872 388.2818 731.4 383.3431 733.1833 379.4171 735.6327 375.9256 738.0225 373.747 740.4876 370.3624 740.9968 368.2436 740.9137 365.7306 741.2405 362.7903 742.105 360.9566 743.4113 359.6808 743.0002 357.5397 743.5182 354.1727 744.4109 353.0909 745.618 352.6508 746.6746 354.3622 749.2177 354.776 751.8176 352.8326 752.7963 350.826 753.315 350.4843 755.3223 349.4131 757.2456 348.9529 758.4952 349.4667 758.9781 349.2241 758.9668 346.5374 758.6501 345.7335 758.4113 343.2645 759.1418 339.7698 760.0615 336.8387 764.0164 335.0775 764.8857 332.3071 766.5743 329.9127 767.3974 331.1885 768.432 331.3648 769.6891 330.763 771.8776 328.5363 774.9025 328.6596 776.3354 329.1165 777.099 329.9688 778.1542 332.2254 777.6469 333.4855 776.3943 334.9251 776.3543 335.9932 776.7186 337.7723 777.5223 338.3022 778.0067 338.2385 777.3717 341.8333 776.4934 344.0109 774.3003 344.8522 773.9517 344.5037 773.6113 342.9344 770.3145 343.0157 769.2787 345.0624 768.8533 352.1296 769.0379 355.0289 771.2738 357.2105 770.7393 358.0934 769.1134 359.4148 768.0713 362.2637 768.5295 362.9603 768.8525 364.3468 769.0706 368.0121 767.8613 368.3621 767.1564 369.9127 765.0419 371.5805 764.8071 373.7772 763.5391 374.5598 759.6181 374.0917 759.1816 375.1129 759.2318 377.1297 757.4803 382.7331 755.5558 383.4399 754.331 384.2704 752.0402 388.8403 751.1179 391.1657 751.3742 395.0102 753.1627 396.5148 753.6801 398.05 753.2753 398.7611 751.7235 399.2377 749.4538 400.9278 747.9569 402.8894 747.8458 404.5343 749.3609 406.7202 749.6513 408.6482 741.4714 414.2832 740.4084 416.8771 739.6447 420.3579 736.7448 422.3416 735.6191 424.4057 734.7848 426.08 735.0478 428.6263 732.7593 434.9872 732.0725 438.4786 730.799 441.7601 728.969 445.1439 728.3504 446.7734 725.839 453.3829 724.8093 455.1858 724.3268 455.9491 722.6792 457.1801 720.1682 460.2112 719.0037 463.7662 716.3634 470.2763 714.4891 477.9307 714.4953 479.2291 713.8179 484.345 712.7478 487.4733 711.905 494.4078 711.2492 496.2547 710.5014 499.9642 710.6442 503.4572 710.2234 504.9995 708.6275 508.1184 707.4904 512.5709 707.195 513.727 707.356 516.4439 707.901 519.0007 710.6661 525.1457 711.9193 528.7793 712.606 530.7693 712.8348 534.2985 712.1891 537.6881 711.3467 540.1352 708.7239 543.9869 705.6784 546.9712 700.6738 549.4441 698.1349 551.2573 698.0062 551.3492 694.6599 554.6576 693.6103 558.9564 693.9076 561.7035 693.6298 564.5961 691.647 567.3524 690.1052 570.6158 688.6103 576.3786 688.4602 578.2706 688.2579 580.818 687.6223 582.5734 686.052 585.0377 685.6738 586.1569 684.7831 592.6707 684.2225 594.7358 683.62 596.9545 683.6717 598.2086 684.7546 602.154 684.7258 606.0411 685.2528 610.0262 688.9824 618.0095 689.0319 619.124 689.0109 619.2606 688.6929 621.3246 688.4162 622.1933 688.0068 622.6155 687.8225 623.9503 688.1108 626.3603 688.8892 629.4326 689.015 632.9518 688.575 634.4716 684.949 642.1204 678.8524 653.6383 677.7148 656.5576 677.2333 660.3197 676.8548 663.2744 676.9636 666.3981 677.5968 669.7255 675.7545 675.6976 673.213 680.6812 669.4893 686.2758 668.2544 688.5276 667.2952 691.0581 666.6674 693.1222 666.0647 696.3458 666.0487 696.5251 665.3184 704.6888 663.6915 709.1337 662.4724 715.4755 662.7627 718.1851 664.8028 725.4077 665.3962 726.3432 666.0331 727.3471 666.9861 730.3227 665.5456 734.4569 664.4989 736.6156 664.3652 737.3865 664.5176 738.7505 665.5635 740.9561 667.9592 743.7085 667.9624 743.7121 668.9434 746.888 669.3761 748.2879 668.9111 750.1715 667.3375 752.6978 665.5944 754.3851 665.1563 756.9234 665.6058 759.3482 666.777 762.1878 668.0425 763.6764 668.9467 764.468 671.0465 766.3057 672.7569 769.2635 673.1739 772.6064 673.0546 775.2151 672.7362 782.1661 672.7025 782.8998 674.6078 788.9429 675.747 791.6313 676.2898 792.9119 680.4367 798.2653 683.2767 800.5837 684.2787 802.1677 683.901 804.27 682.7933 806.3377 682.5595 807.7061 682.3081 809.1771 682.8832 812.9878 682.4494 816.5713 682.1096 817.9652 681.8761 817.9894 681.7999 818.1354 680.8074 820.0372 679.7402 822.7776 679.389 824.196 678.2752 828.6919 677.7046 833.9861 677.7844 835.707 678.3276 837.6659 678.4293 838.0329 679.0369 839.2921 678.7401 840.8158 678.9008 845.1201 679.0851 850.0583 679.507 852.8573 680.8725 857.1135 678.7471 857.1631 674.9182 857.1789 667.4044 857.2201 667.0944 857.2217 657.2829 857.2481 654.6714 857.2098 646.4394 857.2306 640.3033 857.2396 637.3922 857.2426 625.78 857.5013 625.6722 857.5037 623.3627 857.5636 618.7802 857.6653 615.8899 857.8992 615.8007 857.9064 611.2439 857.9943 595.6812 858.2806 589.6049 858.3752 583.3188 858.4201 578.683 858.4798 565.125 858.6437 555.6368 859.0369 547.6323 859.4168 546.0947 859.4428 544.6877 859.4664 523.4524 859.1132 523.0554 859.1042 516.2456 858.9959 516.2318 858.9957 513.6066 859.008 513.3302 859.0092 513.3113 859.0075 509.2927 859.0115 505.392 859.0515 501.5422 859.0265 499.0643 858.9678 498.5924 858.9559 497.9369 858.9672 492.4403 858.9322 492.1886 858.9509 483.9641 858.8714 483.6866 858.8562 481.1047 858.8556 480.5818 858.884 478.9367 858.8454 475.0374 858.753 465.2766 858.5819 464.6911 858.5379 464.6591 858.5355 459.7718 858.5252 459.7696 858.5252 457.0682 858.5059 456.8504 858.4896 456.6627 858.4644 456.492 858.4823 448.3239 858.3767 447.1759 858.3634 447.0925 858.3636 443.0421 858.3034 437.2598 858.1768 433.065 858.0262 432.3437 857.989 432.1454 857.9981 431.8573 858.0112 430.4918 857.9408 426.2427 857.8368 425.3936 857.8201 423.0082 857.7566 419.902 857.7145 419.4325 857.7318 412.6781 857.6781 408.9151 857.6872 407.443 857.681 405.5573 857.6573 404.7636 857.6648 404.4607 857.6602 399.5318 857.6351 387.2702 857.5632 387.255 857.5633 387.1828 857.5637 383.2766 857.5822 379.1643 857.4122 379.0852 857.4181 377.4878 857.3519 377.1978 857.3211 374.7517 857.2723 374.5257 857.2413 366.9305 857.0251 364.2574 857.0344 363.984 857.0846 357.367 857.0016 354.4063 856.9628 352.0297 856.9875 348.6459 857.0275 346.2822 857.0094 342.4937 857.0306 342.1484 857.0622 340.2124 856.9926 339.9098 856.9748 339.4223 857.0079 335.147 856.9892 327.0226 857.0059 326.3016 856.9877 326.2894 856.9876 325.9151 856.9851 321.0465 856.9858 318.2227 856.9298 316.7545 856.9004 311.5155 856.7893 310.8952 856.7962 309.2013 856.7412 303.6035 856.6956 301.9339 856.6536 301.8715 856.6518 300.9924 856.6469 300.3435 856.6742 299.0209 856.6434 292.2353 856.4853 291.8015 856.476 288.3349 856.3612 289.1615 855.4868 289.2003 854.4576 288.6804 852.7669 288.2511 850.3843 288.0242 849.6892 286.8633 848.5899 286.1902 847.0843 285.8803 845.1899 284.3536 843.5619 283.7623 843.0651 283.4472 842.633 282.6218 841.1045 282.4213 840.6977 282.3171 840.1663 282.2962 839.3063 281.7645 837.2089 281.5023 836.43 280.6794 834.9312 280.5833 834.1841 280.3426 833.3741 279.8496 832.729 279.4541 832.3667 277.9482 831.4719 276.4492 830.9517 274.7257 830.5324 272.4316 829.8345 271.1825 829.3854 269.9109 829.0839 268.6081 828.8939 267.4016 828.5251 262.5009 827.3558 260.9607 827.0707 259.7825 826.7264 257.7779 825.9667 254.9914 825.2262 253.6949 824.6845 253.2345 824.4921 251.4431 823.2122 250.382 822.7365 250.041 822.7138 249.1772 822.9578 248.1889 823.0794 247.5676 822.9867 246.5196 822.6471 246.0821 822.4148 244.3609 821.1798 243.1016 820.7828 242.6246 820.482 242.2392 820.0798 241.1386 818.229 240.2225 817.2821 239.5977 816.8069 238.3088 816.0498 237.4656 816.2037 237.253 816.1372 235.953 815.2433 235.5606 814.7602 235.428 814.2132 235.3998 813.6761 235.2639 813.3117 234.804 812.7695 234.2619 812.5475 233.6081 812.5131 233.2693 812.7768 232.8007 812.8182 232.6218 812.7972 232.2874 812.5601 232.1473 812.1288 232.1585 811.3505 231.9619 810.8501 231.7209 810.4894 231.4384 810.2535 230.8197 810.1621 230.6755 809.6967 230.7266 809.0058 231.0534 808.9753 231.2876 808.8479 231.4728 808.4742 231.4602 808.1255 231.055 807.7255 230.2066 806.6476 230.0639 805.5453 230.0286 804.1399 229.863 803.2517 229.4695 801.7969 229.1436 799.7203 229.0183 797.1371 229.1299 795.759 228.5731 795.3192 227.5592 795.4406 227.0251 795.1364 226.8931 794.3565 227.4486 791.5767 227.3931 791.3202 226.9263 790.5454 226.6209 789.6879 226.4751 788.8334 226.5902 786.7048 226.2933 785.3364 225.8239 784.7866 224.7277 783.7981 224.2785 783.1306 224.0216 782.908 221.2221 781.3733 220.4876 781.1922 220.3092 780.9467 220.1985 780.5672 220.1198 780.2156 220.1271 779.7498 220.1786 779.2584 220.4696 778.1999 220.4875 777.7824 220.4287 777.0857 220.276 776.374 219.7226 774.5165 219.7149 774.1959 219.8379 773.3368 220.3564 771.4814 220.3769 771.1632 220.2399 770.1993 220.05 769.6697 219.6659 768.8465 219.0508 767.8505 218.9158 767.3889 218.922 765.5904 218.9135 765.5266 218.8314 764.9061 217.4439 759.6465 216.6294 756.0197 216.2412 751.6431 216.2747 751.2387 216.0714 750.6318 216.177 750.0436 216.3897 749.5969 216.4192 748.237 216.7738 743.8375 216.4762 741.0298 216.4252 739.8585 216.4816 739.1303 216.6183 738.5763 216.8667 738.0528 217.5427 737.5557 218.909 736.9824 219.4973 736.549 220.8942 734.8018 221.3055 734.0584 221.5916 732.7291 221.982 731.5267 222.3661 730.8912 222.6074 730.7113 223.981 728.2102 224.0715 727.1536 224.319 726.4613 224.7458 725.886 225.4864 725.4226 226.2921 724.7491 229.1343 721.9293 230.2699 720.7557 231.3036 719.4797 232.061 718.719 232.5961 718.0026 233.005 716.9978 233.2633 715.9903 233.2665 715.7285 233.1744 715.2937 233.0278 715.03 232.7511 714.861 231.6421 714.7826 231.4042 714.6396 231.2779 714.4287 231.2665 714.01 231.443 713.2956 231.4323 712.6963 231.1717 712.0637 230.3558 710.5465 229.5962 708.8298 226.7221 704.7022 225.3197 703.6129 223.7806 702.2716 223.283 701.9483 222.6714 701.6141 220.3089 700.623 218.1158 699.4336 216.762 698.4804 215.828 698.1495 213.9492 697.8341 213.6634 697.6886 213.3107 697.1816 212.246 694.6613 212.2233 694.2615 212.4522 693.8741 213.2801 693.2221 213.4608 692.9787 213.6428 692.2495 214.2285 690.9409 214.4795 690.214 214.6725 689.1875 214.634 688.4583 214.4617 687.7416 214.3278 686.7175 214.3647 685.9287 214.2578 685.3269 214.0097 684.5914 213.6929 683.9968 213.4831 683.6028 210.6147 679.7085 210.1538 678.6856 210.02 677.8933 210.0534 677.4039 210.1896 676.988 210.5707 676.5101 211.2489 675.9761 211.8377 674.9041 212.4641 673.0731 212.5788 672.3904 212.2829 671.2216 212.215 670.0552 212.3029 669.4345 212.3054 668.0195 212.3913 667.2025 212.2704 666.8331 211.6954 666.1746 210.7013 665.4625 210.3137 665.0109 209.8307 663.3228 208.9794 661.9245 208.8743 660.9276 208.9235 660.271 209.0112 659.9744 209.3741 659.1808 210.2411 657.9258 210.4715 657.3567 210.6877 655.3464 210.6582 654.1793 210.5499 653.8567 210.3136 653.4784 209.7029 652.6744 207.8657 650.6534 207.1523 650.0552 206.7056 649.5426 206.2498 648.8217 205.7728 647.8064 205.8545 645.5592 206.6081 643.5407 206.7264 642.8766 206.5493 641.7676 206.3926 641.4875 205.632 640.7351 205.5054 640.3863 205.3431 638.1924 205.4475 636.3236 206.1848 632.7702 206.145 630.1145 206.419 629.3473 207.1452 628.3227 207.5055 627.5922 207.6463 627.1762 207.9101 626.3966 208.0622 625.7093 208.0304 623.5836 209.6807 618.3374 209.662 618.0333 208.4606 616.3788 207.2488 614.7093 207.0073 613.1684 206.6152 612.449 206.0274 610.6393 205.9092 609.7377 205.5668 608.5509 205.3479 606.1346 204.7886 605.1876 204.5109 604.3716 203.6042 603.2921 202.8383 602.8216 202.5629 602.5558 202.2378 601.9949 200.9581 600.4962 200.7123 598.9221 200.4275 597.7828 199.7373 596.5171 198.7381 595.5711 197.4046 594.7522 196.8573 593.7983 196.3536 592.4061 196.1623 592.0481 195.6395 591.5541 194.9654 591.1622 194.8755 591.0354 194.126 589.2718 193.9557 587.7094 193.7084 587.2212 192.5881 585.9194 191.191 584.0266 189.957 583.0325 188.5018 582.1554 188.32 581.9233 187.9162 580.8387 187.6651 580.3615 186.132 578.6019 185.9966 578.2822 185.9332 578.1326 185.8065 577.4954 185.4021 576.4774 185.0574 575.9194 184.4153 575.3184 183.9963 575.0212 181.7469 574.0739 180.9313 573.543 180.2655 573.4464 178.9094 573.6887 178.5905 573.6602 176.707 572.7964 175.7584 571.9662 175.0994 571.5537 172.7945 571.043 171.5204 571.0146 169.7397 570.826 168.1403 570.2111 166.2247 569.8703 165.318 569.845 164.9719 569.7516 163.7147 568.9749 162.9834 568.2847 162.2223 566.6339 161.7282 565.9337 161.313 565.5581 160.6652 565.1142 159.5445 564.618 158.9981 564.2865 158.2827 563.4157 157.6564 562.8536 157.3326 562.7721 156.9429 562.9443 156.766 562.9268 156.3473 562.6682 155.7788 561.8068 155.1517 561.2718 154.8264 560.7405 154.3274 559.4719 154.1009 558.6924 153.875 558.3266 151.9687 556.3252 151.4061 556.1206 150.6597 556.2076 150.1212 556.0611 148.5077 555.0218 148.4173 554.7798 148.4602 553.7047 148.303 552.4574 148.1656 551.9078 147.0615 550.3117 146.9791 550.2385 146.7384 550.0247 145.5279 549.5154 142.7016 549.0916 142.043 548.6969 140.4816 547.4014 139.7063 546.6264 136.7587 545.2779 135.2518 544.3159 134.0349 543.3527 132.5097 540.6681 132.0746 540.2899 130.4488 539.3911 128.6577 537.8214 127.8707 537.1315 126.8122 536.6176 126.4449 536.3439 126.335 535.9376 126.3285 534.6543 126.2011 534.0239 125.8385 533.3333 124.609 531.4769 124.2429 530.5641 124.2275 529.8059 124.9618 527.7175 125.1044 526.7143 125.0112 526.2622 124.8453 525.9038 123.9573 524.6037 123.8694 524.1186 124.0556 522.7067 123.9654 522.389 123.6683 521.916 122.74 521.0586 120.8224 520.0919 120.5714 519.8386 120.2689 519.0801 120.2356 518.5162 120.3641 518.0932 120.796 517.3602 121.7254 516.0434 121.8415 515.6414 121.8519 515.4543 121.5298 514.1896 121.2269 513.3237 120.3492 511.2616 120.0063 510.8915 118.2821 509.8128 117.2126 508.3184 116.8029 507.5226 115.9387 506.2953 115.407 505.7732 114.5391 505.054 114.5342 505.05 113.9198 504.7192 113.4356 504.5453 112.7134 504.5109 112.2733 504.3729 111.3915 503.8458 110.581 503.2297 110.4471 503.07 110.2347 502.8167 109.7967 502.4845 109.4784 502.3254 108.0522 501.9869 105.5726 500.5082 104.5144 499.4159 103.5803 498.0815 103.1948 497.8167 102.5134 497.5356 101.0914 497.5145 100.2485 497.3304 99.5879 496.8764 99.1154 496.5517 97.7693 496.022 95.9553 495.5032 95.4039 495.0919 94.6521 494.2233 94.2052 493.9209 92.2068 493.3821 89.1621 492.8158 88.1239 492.524 84.799 491.4497 82.182 490.4866 81.4017 490.1097 79.909 489.1175 79.2837 488.3516 78.6858 487.4265 78.3169 486.9299 77.7732 486.4103 76.0155 485.3012 74.1544 483.6496 73.4332 482.8663 72.3252 481.3774 71.5516 479.9907 70.9166 478.5524 70.8367 477.9308 70.9793 475.5202 70.9148 475.1135 70.8576 474.8912 70.2942 474.0012 69.9368 473.1874 69.5593 471.4402 69.2892 470.8782 69.1478 470.584 68.8181 470.1183 67.6435 468.9645 66.7153 468.3519 65.2071 467.7137 63.3577 467.3189 62.4552 467.2432 59.6804 467.4307 58.3186 467.2743 56.2237 466.8175 55.4858 466.4777 54.8255 465.9757 54.1227 465.7304 53.8337 465.7743 52.8186 466.2402 50.8982 466.3532 48.9045 465.6954 47.4864 465.04 46.9866 465.0621 46.2107 465.3847 45.765 465.3961 43.7994 464.5299 43.3017 464.2361 42.5512 463.5763 42.2154 463.5616 41.3439 463.84 39.5418 464.9577 39.0342 464.991 38.5444 464.8229 38.2993 464.5902 38.1094 464.0926 38.1651 463.7493 38.3812 463.2786 38.4463 462.9615 38.4024 462.3178 37.0244 459.678 36.2124 458.3723 35.9299 458.0308 35.4697 457.8066 34.9123 457.7111 34.6782 457.9118 34.2928 458.4748 33.8706 458.6478 33.6716 458.5982 33.3384 458.2846 33.1439 457.4834 31.7128 456.2862 30.9661 456.1883 29.9721 456.2847 29.5195 456.0548 29.0769 455.6365 28.871 455.028 28.863 454.5612 28.9852 454.0397 29.3957 452.9867 29.4283 452.0542 29.2002 451.1485 27.8869 449.2187 24.7932 447.4178 24.123 446.8604 23.6461 446.3752 20.8718 442.7658 19.5947 441.3431 19.0316 440.5136 17.4531 439.0807 15.0349 436.6319 14.3656 435.9539 12.6801 434.9604 12.153 434.8194 11.7896 434.6067 10.6255 433.4805 7.7768 431.9058 5.9057 430.3849 5.8866 430.266 5.8548 430.068 5.712 429.7653 5.2897 429.3872 5.2085 429.1768 5.3447 427.7874 5.6876 426.0285 6.4124 424.3654 7.0131 423.5114 8.0181 422.4738 8.524 421.6476 8.863 420.5679 9.1373 418.4642 9.3015 417.874 10.3946 416.2589 10.5071 415.9552 10.4292 415.3392 10.494 415.0213 10.9051 414.333 11.3605 413.7566 11.4854 413.3451 11.5128 412.618 11.1694 410.1122 11.1547 408.6816 11.1546 408.6756 11.1543 408.6497 11.452 407.7985 11.94 406.8116 11.9946 406.4316 11.91 406.1026 11.2347 404.7534 10.7087 403.4158 10.6012 402.8869 10.6831 401.8988 10.7699 401.5274 10.9008 401.2916 12.4983 400.3135 12.7415 400.144 12.8626 399.9382 13.0299 399.5255 13.3424 398.1469 14.1287 394.6766 14.1379 393.8769 13.7344 391.1999 12.9921 389.4452 12.1515 388.8316 11.9882 388.4965 11.8855 388.0594 11.82 386.779 11.8452 385.9627 12.0513 385.0578 11.8571 383.9378 11.8559 382.5792 12.3223 381.1463 13.1416 379.0333 13.2383 378.6777 13.2308 378.3301 12.9258 377.485 12.2002 376.5137 11.122 375.4376 9.9496 374.6081 9.2657 373.8958 8.7884 373.2272 8.1794 371.934 8.0696 371.2634 8.1235 370.436 8.2377 370.0369 8.4248 369.6837 9.6196 367.9824 9.6601 367.9248 9.729 367.8266 12.1103 366.1372 13.2673 364.945 14.8006 363.6122 15.8366 362.9188 16.0845 362.6922 16.705 361.7617 16.8425 361.3541 16.8564 361.1827 16.727 360.8144 16.4318 360.529 16.0927 359.9245 16.0888 359.9175 15.7017 357.0903 14.8249 354.4802 14.7316 353.8018 14.7583 352.8556 14.9056 351.99 15.528 350.7749 15.5613 350.3743 13.9801 348.6475 13.7436 348.1411 13.6978 347.2584 13.7956 346.3351 14.2634 344.524 14.5169 344.1023 15.0742 343.6733 15.624 343.094 15.9687 342.0009 15.9218 341.5521 15.7058 341.1965 15.49 340.6178 15.2952 339.7525 15.344 338.2956 15.0623 336.1683 15.2659 335.4623 15.7778 334.858 16.2722 333.9517 16.3087 333.1575 16.202 332.4684 15.5341 331.458 15.2211 330.6956 15.0995 329.5455 15.1142 329.1571 15.241 328.7841 15.5578 328.4329 16.6105 328.0945 17.3209 327.5842 18.4656 326.7616 19.0879 326.079 19.7625 325.1548 22.184 322.9922 22.9009 322.0394 23.5873 320.7168 23.7358 320.224 23.7627 319.6646 23.7046 319.0894 23.1872 316.9637 23.2516 316.4656 23.396 316.0694 24.2489 315.1528 26.5871 313.5174 26.7207 313.3546 26.6686 312.866 26.9317 312.1378 27.2484 311.6379 27.9733 310.4936 28.712 309.7335 29.4687 309.2456 30.5448 308.8255 30.5582 307.9261 30.9033 307.1672 31.1375 306.0878 31.1096 305.8922 30.7927 305.4791 30.7063 304.9587 30.9245 303.0078 31.2944 301.4634 31.3415 300.7704 30.6297 298.3283 30.5236 298.1709 29.5488 297.5861 27.4693 296.651 27.084 296.3595 26.2783 294.8443 25.673 294.072 25.2477 292.8177 24.3988 290.8814 23.2029 288.919 22.7122 288.2645 21.6338 287.1849 21.3427 286.7545 21.2335 285.9353 21.2451 284.6534 21.7651 282.5936 21.7636 282.2425 21.6082 281.7691 19.1364 279.446 17.6861 278.5515 16.7251 277.3735 16.0092 276.7192 15.6008 276.461 15.2652 276.4028 13.9838 276.4651 13.4003 276.6254 11.8834 277.3291 10.4852 277.6006 9.0136 277.5797 7.6088 277.1207 6.3703 276.5035 6.0242 276.4189 2.8061 276.0947 1.5327 274.9527 1.206 274.5512 1.0729 273.9209 1.3741 271.8683 1 270.907 1.0254 270.1961 1.2741 269.0207 1.623 268.0568 1.5914 267.3954 1.1521 266.2494 1.012 265.2694 1.0271 264.6293 1.2327 263.6952 1.24 263.063 1.1302 262.6409 1.2811 261.683 1.4723 261.3401 1.7634 259.692 1.9914 258.8384 2.5038 257.7084 2.8423 255.9065 3.1273 253.3449 3.8826 251.9228 3.9021 251.8271 3.692 251.3499 4.1628 249.0778 4.0781 248.4843 4.1608 248.0328 4.6411 247.4787 5.0566 247.1916 6.2638 247.0674 6.5916 246.9528 6.6473 246.8528 6.6902 246.2547 6.8996 246.0425 7.6563 245.9944 7.9274 245.8434 8.618 245.3493 9.3035 245.3159 9.5303 245.2133 9.9392 244.6786 11.2127 243.7175 11.6901 243.6098 12.1057 243.3514 12.7158 242.7521 12.9123 242.3262 13.1024 241.943 13.6353 241.6322 15.5416 239.7284 16.0292 238.0851 16.3267 236.3155 16.7874 234.9363 17.4028 233.9818 17.8968 233.4793 18.7804 232.9037 19.1679 232.4109 19.3424 231.9284 19.3583 231.059 19.1181 230.2517 18.8923 229.7835 18.5486 228.4716 18.4647 228.0199 18.5555 227.474 19.0294 226.8024 19.3337 226.5364 20.7116 225.5803 21.189 225.4598 21.9487 224.5832 22.0508 224.3439 22.5447 222.1977 22.5269 221.4048 22.8791 220.5273 24.6718 217.6518 25.8507 216.2147 26.4983 215.6396 27.0848 215.4261 27.6444 215.3912 29.6573 214.0615 30.6268 213.6412 30.7478 213.438 30.6325 212.7868 30.7238 212.5761 31.5097 211.8223 32.9621 210.6212 33.4181 210.3556 35.6324 210.4143 35.7257 210.1523 35.557 208.9268 35.5876 208.7286 35.7366 208.6169 36.0661 208.541 36.9689 208.9913 37.1708 208.9465 37.8389 208.5011 38.9282 208.6631 39.3951 208.2894 39.7314 208.0202 40.5134 207.5415 42.123 207.419 43.3987 206.625 44.1492 206.3042 44.8166 206.3195 45.9426 205.823 47.1597 205.7447 47.2608 205.6378 47.4655 204.7457 47.3845 204.0457 47.5454 202.697 47.7277 202.5028 48.0959 202.3166 49.1839 200.9115 50.1464 200.1765 50.6055 199.9438 51.2645 199.787 51.5934 199.8519 53.7718 200.6618 55.2431 201.5432 56.0726 201.513 56.7307 201.8877 57.5974 202.112 58.0461 201.9663 58.6957 201.528 59.1349 200.9507 59.1559 200.8036 58.8664 200.5519 58.7756 200.3771 58.7484 199.8862 59.0312 199.3688 59.8245 198.9472 60.2475 198.4611 60.2344 197.8501 60.3336 197.5516 60.523 197.0597 60.7942 196.7295 61.5322 195.4596 61.541 194.9697 61.8418 194.1553 62.736 193.238 63.6741 192.7055 64.7114 192.2664 66.0198 192.218 66.3263 192.346 68.3056 193.7399 69.7158 194.2558 70.8663 194.8249 72.2339 195.0747 72.7786 195.0343 73.5991 194.6352 73.8389 194.4 73.8069 194.0246 73.8658 193.4816 73.9706 193.1597 74.3633 192.8342 74.6487 192.4685 74.7203 192.2656 74.9285 191.1451 74.8154 189.9467 74.8471 189.5593 75.1454 189.1129 75.5236 188.2469 75.5818 187.8669 76.0039 186.5177 76.3387 185.9148 76.7576 185.4563 77.0152 185.284 78.143 184.7376 79.7945 184.2056 80.8519 184.1307 81.4582 183.8899 81.4777 183.1469 81.7636 176.5085 82.0057 168.3664 82.0587 166.585 82.1247 164.1073 82.4348 155.7788 82.5456 152.1354 82.9279 142.5765 82.954 142.0419 83.0142 140.8575 83.0314 140.3357 83.0667 139.0919 83.082 138.9282 83.1133 138.0517 83.101 137.5676 83.7016 119.728 83.7256 119.0438 83.8091 116.9638 84.1233 108.2126 84.2442 105.0647 84.3466 103.4922 85.0057 84.6585 85.1366 80.8617 85.2953 73.6924 85.2957 73.6782 85.3125 73.1684 85.4409 72.7792 85.9369 72.9447 85.9478 73.788 86.0481 74.2594 86.36 74.5504 87.0267 74.6089 87.546 74.85 87.7235 75.7173 87.9933 76.1191 88.586 76.0815 89.4324 74.9654 89.8403 74.6785 91.5941 76.5126 92.4854 76.3904 93.4149 75.876 94.0555 75.952 94.9509 76.504 95.4654 76.5011 96.1581 76.1477 96.7932 75.5865 96.8926 75.2899 96.8291 74.8571 96.4396 73.7588 96.6325 73.3527 97.2428 72.7532 98.1802 71.5644 98.8224 71.1718 99.6263 70.9528 100.133 70.3687 100.3426 69.8319 100.3141 69.1006 100.1438 68.7957 99.4962 68.1393 97.5247 67.9107 96.6776 67.4727 96.6384 66.6849 96.7757 66.4081 97.1849 66.0648 97.734 65.7631 98.2814 65.1056 98.5419 64.177 98.8576 63.9431 100.1617 64.1326 100.7549 64.0569 101.6689 63.5788 103.1981 64.3741 104.0276 64.5488 104.3402 64.4084 105.0356 62.6873 104.783 62.1366 104.8336 60.9207 105.5546 60.0245 108.3389 58.4027 109.419 58.3409 111.8178 58.3925 118.7127 66.1394 120.4443 67.1063 121.0993 66.6698 Z"/>
</g>
</svg>