<?xml version="1.0"?>
<svg xmlns="http://www.w3.org/2000/svg" version="1.2" baseProfile="tiny" width="800" height="615" viewBox="0 0 800 615" stroke-linecap="round" stroke-linejoin="round">
<g id="cb_2018_us_state_5m">
<path d="M 773.4238 1.6949 774.4105 20.184 774.3998 21.3879 775.0979 36.3113 775.0997 36.3527 775.3895 43.0366 775.3983 43.0814 775.5569 46.5492 775.5823 47.5448 775.6125 47.9277 776.3835 66.1081 776.5606 70.2897 776.7222 74.1596 778.5043 114.6156 779.0489 125.1297 779.2929 131.0691 780.5502 161.7483 780.5463 161.9838 781.0318 174.5386 781.6511 188.4183 781.7267 190.1127 781.7483 190.6139 782.8114 215.2874 782.8155 215.3387 782.8467 215.9648 782.9575 219.1042 783.3348 227.4578 783.3366 227.4965 783.4974 231.314 783.8085 238.7053 784.0655 244.443 784.4998 254.2721 784.6563 257.5277 784.7392 258.6331 784.7859 259.7283 786.6903 303.441 788.2618 340.6263 788.2965 341.3218 788.9459 356.4216 789.0287 358.8529 789.065 359.3155 789.1637 362.211 789.1646 362.2377 789.1695 362.3551 789.8232 379.1117 791.3614 415.6492 791.4106 416.8975 791.3735 416.899 791.9075 428.941 791.9529 429.4655 792.0848 433.9334 792.1358 434.4589 792.2057 435.7892 792.3877 441.2146 792.4727 443.3295 792.4732 443.3416 792.8115 451.3882 792.862 452.2101 792.9548 454.4166 792.9741 454.8768 792.99 455.4372 792.9845 455.493 793.0965 458.3105 793.1284 458.756 793.4569 467.528 793.518 468.8622 793.6346 471.9879 794.5969 494.9673 794.8079 500.3243 795.1218 508.2984 795.1612 509.3598 795.251 511.6623 795.3348 513.0598 795.4518 516.2975 795.6589 520.5242 795.7306 522.2696 795.725 522.2809 795.7831 524.0186 795.7962 524.3272 795.9224 526.8601 795.9624 527.8557 796.5753 542.6466 796.6579 544.1875 796.731 546.3571 796.7315 546.3712 797.0677 555.8386 797.1662 557.261 797.1501 557.2893 797.1686 558.0088 797.4127 563.7498 797.4001 563.778 797.4065 564.1967 798.0264 582.0281 798.3281 588.4925 798.3922 589.9233 798.4879 592.1455 798.4739 592.2292 798.9167 603.0577 798.9173 603.2447 799 605.5721 797.4367 605.6222 795.2589 605.7032 793.1481 605.793 790.9826 605.869 780.9659 606.2773 780.6562 606.293 780.5986 606.2819 751.761 607.4102 748.4089 607.4822 748.3984 607.4791 736.7283 607.971 728.01 608.3292 716.9504 608.8619 710.5123 609.1662 707.579 609.4454 697.5306 609.7565 662.0059 610.7719 661.8066 610.7802 659.4868 610.8458 659.4551 610.8467 608.3773 612.2803 607.7363 612.2978 569.9849 613.0216 555.2159 613.1791 552.1314 613.2091 540.3032 613.1785 532.8574 612.9785 532.2299 612.9823 527.7657 612.9554 527.0272 612.9586 526.7821 612.9342 525.15 612.9436 479.0388 613.3396 462.7315 613.3409 435.2645 613.5761 426.5189 613.579 420.8504 613.5766 391.3735 613.7369 357.9442 613.6596 343.317 613.5791 327.9382 613.7182 320.012 613.7064 291.4698 613.4243 288.4999 613.4662 276.578 613.2366 247.6943 612.8289 228.7554 612.4227 214.6485 612.1292 207.998 611.8165 205.8551 611.932 177.3243 611.5946 173.4147 611.6515 172.4138 611.6254 157.2702 611.2172 152.996 611.1273 152.8209 611.1341 136.9722 610.7914 136.8582 610.7954 123.1432 610.3631 120.3677 610.3704 120.2686 610.3642 119.6104 610.2749 114.8196 610.1726 106.4727 609.9887 106.006 610.0577 93.21 609.8256 91.7462 609.6784 77.4838 609.3809 63.2273 608.9199 58.7768 608.5201 38.8001 607.7862 34.7328 607.5561 1 606.0397 2.5614 567.7167 2.562 567.7033 2.7677 562.5602 3.2212 551.2375 3.3633 548.6645 4.5665 520.2832 4.6507 518.1261 5.8321 487.9239 7.1497 454.3898 7.9754 433.0881 8.0158 432.1096 8.2303 427.0163 8.3011 425.1871 8.8381 412.1868 9.2645 401.8132 10.2653 378.3071 10.3315 376.9505 10.8385 366.5546 11.9865 345.4196 12.8788 322.3962 13.3899 310.5221 13.4613 308.8648 13.4932 308.1042 13.5319 307.2607 13.7841 300.6636 13.787 300.5568 13.8003 300.0719 13.8316 299.7754 13.8333 299.7356 13.8433 299.4988 13.8546 299.0663 13.9418 297.231 13.9554 296.7432 13.9653 296.492 14.0165 295.2045 14.0477 294.3745 14.081 293.4882 14.0926 293.1783 14.1208 292.5523 14.772 276.7174 14.7694 276.6999 14.8186 275.6112 14.856 274.8853 14.8894 273.9275 15.6071 255.7661 16.719 227.7507 17.2126 215.3498 17.6708 203.8584 17.7917 200.5444 17.7904 199.9586 17.8035 199.8214 17.8101 199.5134 17.9945 194.3413 18.0217 193.6632 18.0347 193.6014 18.562 180.1672 19.1764 166.1816 19.5598 156.1141 19.5983 154.8315 19.673 152.3425 19.6147 149.2893 19.9094 143.1957 19.9122 143.13 19.9383 142.8185 20.292 134.9717 20.2847 133.4436 21.6981 98.8806 21.8949 95.6646 22.2815 86.4642 22.2985 86.1247 22.5554 80.684 22.2108 80.0128 22.8642 57.8627 23.1199 51.6169 23.4857 42.69 23.549 38.9717 24.2609 21.3349 24.8333 11.2312 24.7867 10.8777 25.3227 1 26.4049 1.0418 26.4893 1.0451 54.1855 1.9141 56.6722 2.4664 57.8125 2.8105 62.6388 3.8445 78.9668 4.4576 79.5309 4.4442 85.8443 4.6826 94.9498 4.778 99.2841 3.8984 101.4736 4.2046 103.3643 4.2518 107.3777 4.7327 116.7 5.1324 126.2913 4.2633 135.2406 4.5686 135.3262 4.5806 137.8936 4.7071 138.5831 4.741 151.3354 5.0888 159.566 5.4779 159.5876 5.4789 164.6897 5.7021 173.9994 5.8011 183.5515 6.0226 203.6463 6.1446 204.7914 6.2115 216.1713 6.3507 216.7984 6.3541 233.9059 6.6034 236.0728 7.5951 238.2916 7.6335 250.2722 7.8118 278.8478 8.1727 285.4516 8.2431 290.0328 8.2892 291.3767 8.2914 298.3533 8.5076 322.8999 8.6688 325.2279 8.8081 325.2367 8.8086 326.4364 8.7055 328.5398 8.672 335.9306 8.6494 351.8399 8.7256 352.1942 8.6758 361.3754 8.762 378.5834 8.8983 393.7522 8.9103 393.8624 8.9 398.0912 8.8737 406.2471 8.8175 421.2884 8.8066 444.53 8.9194 445.4448 9.0239 447.5792 9.1119 449.8004 9.4228 450.8637 9.3557 453.4525 9.4286 460.2175 9.4152 470.3475 9.3856 470.7863 9.3915 505.2368 9.22 537.6519 8.9381 537.6657 8.9379 563.2037 8.5274 573.5382 8.3407 575.0082 7.3537 575.0989 7.2075 582.0849 7.1516 633.056 5.9821 664.5569 5.1145 668.639 4.994 668.6553 4.9936 670.0435 4.9603 670.6826 4.9352 670.7936 4.9155 697.8545 4.2503 698.4116 4.2496 701.9871 4.0619 708.5306 3.976 708.667 3.9334 729.3373 3.2633 729.3698 3.2621 752.8671 2.406 773.4238 1.6949 Z"/>
</g>
</svg>