<?xml version="1.0" encoding="utf-8"?>
<svg version="1.1" xmlns="http://www.w3.org/2000/svg" xmlns:xlink="http://www.w3.org/1999/xlink"
	 viewBox="0 0 720 500" xml:space="preserve" class="cartogram active">

	<g data-postal="AL">
		<rect x="397.6" y="360.5" width="42" height="42"/>
		<text>AL</text>
	</g>
	<g data-postal="AK">
		<rect x="10.6" y="18" width="24" height="24"/>
		<text>AK</text>
	</g>
	<g data-postal="AZ">
		<rect x="146.6" y="308" width="46" height="46"/>
		<text>AZ</text>
	</g>
	<g data-postal="AR">
		<rect x="313.6" y="321.5" width="34" height="34"/>
		<text>AR</text>
	</g>
	<g data-postal="CA">
		<rect x="10.6" y="233.5" width="104" height="104"/>
		<text>CA</text>
	</g>
	<g data-postal="CO">
		<rect x="197.6" y="261" width="42" height="42"/>
		<text>CO</text>
	</g>
	<g data-postal="CT">
		<rect x="633.6" y="137" width="37" height="37"/>
		<text>CT</text>
	</g>
	<g data-postal="DE">
		<rect x="579.6" y="224" width="24" height="24"/>
		<text>DE</text>
	</g>
	<g data-postal="DC">
		<rect x="550.6" y="224" width="24" height="24"/>
		<text>DC</text>
	</g>
	<g data-postal="FL">
		<rect x="469.6" y="421.5" width="76" height="76"/>
		<text>FL</text>
	</g>
	<g data-postal="GA">
		<rect x="444.6" y="360.5" width="56" height="56"/>
		<text>GA</text>
	</g>
	<g data-postal="HI">
		<rect x="10.6" y="403" width="28" height="28"/>
		<text>HI</text>
	</g>
	<g data-postal="ID">
		<rect x="127.1" y="198" width="28" height="28"/>
		<text>ID</text>
	</g>
	<g data-postal="IL">
		<rect x="275.6" y="195" width="63" height="63"/>
		<text>IL</text>
	</g>
	<g data-postal="IN">
		<rect x="343.6" y="195" width="46" height="46"/>
		<text>IN</text>
	</g>
	<g data-postal="IA">
		<rect x="236.6" y="183" width="34" height="34"/>
		<text>IA</text>
	</g>
	<g data-postal="KS">
		<rect x="261.1" y="263" width="34" height="34"/>
		<text>KS</text>
	</g>
	<g data-postal="KY">
		<rect x="381.1" y="264.5" width="40" height="40"/>
		<text>KY</text>
	</g>
	<g data-postal="LA">
		<rect x="313.6" y="360.5" width="40" height="40"/>
		<text>LA</text>
	</g>
	<g data-postal="ME">
		<g data-postal="ME-1">
			<rect x="683" y="18" width="14" height="14"/>
		</g>
		<g data-postal="ME-2">
			<rect x="699" y="18" width="14" height="14"/>
		</g>
		<g data-postal="ME-AL">
			<rect x="683" y="34" width="14" height="14"/>
		</g>
		<g data-postal="ME-AL">
			<rect x="699" y="34" width="14" height="14"/>
		</g>
		<text>ME</text>
	</g>
	<g data-postal="MD">
		<rect x="527.6" y="175" width="44" height="44"/>
		<text>MD</text>
	</g>
	<g data-postal="MA">
		<rect x="633.6" y="86" width="46" height="46"/>
		<text>MA</text>
	</g>
	<g data-postal="MI">
		<rect x="365.1" y="134" width="56" height="56"/>
		<text>MI</text>
	</g>
	<g data-postal="MN">
		<rect x="226.6" y="134" width="44" height="44"/>
		<text>MN</text>
	</g>
	<g data-postal="MS">
		<rect x="358.6" y="360.5" width="34" height="34"/>
		<text>MS</text>
	</g>
	<g data-postal="MO">
		<rect x="313.6" y="272.5" width="44" height="44"/>
		<text>MO</text>
	</g>
	<g data-postal="MT">
		<rect x="143.6" y="134" width="24" height="24"/>
		<text>MT</text>
	</g>
	<g data-postal="NE">
		<g data-postal="NE-1">
			<rect x="224.6" y="222" width="14" height="14"/>
		</g>
		<g data-postal="NE-2">
			<rect x="240.6" y="222" width="14" height="14"/>
		</g>
		<g data-postal="NE-3">
			<rect x="256.6" y="222" width="14" height="14"/>
		</g>
		<g data-postal="NE-AL">
			<rect x="240.6" y="238" width="14" height="14"/>
		</g>
		<g data-postal="NE-AL">
			<rect x="256.6" y="238" width="14" height="14"/>
		</g>
		<text>NE</text>
	</g>
	<g data-postal="NV">
		<rect x="119.6" y="269" width="34" height="34"/>
		<text>NV</text>
	</g>
	<g data-postal="NH">
		<rect x="662.6" y="53" width="28" height="28"/>
		<text>NH</text>
	</g>
	<g data-postal="NJ">
		<rect x="576.6" y="167" width="52" height="52"/>
		<text>NJ</text>
	</g>
	<g data-postal="NM">
		<rect x="197.6" y="308" width="31" height="31"/>
		<text>NM</text>
	</g>
	<g data-postal="NY">
		<rect x="552.6" y="86" width="76" height="76"/>
		<text>NY</text>
	</g>
	<g data-postal="NC">
		<rect x="491.6" y="279" width="54" height="54"/>
		<text>NC</text>
	</g>
	<g data-postal="ND">
		<rect x="197.6" y="134" width="24" height="24"/>
		<text>ND</text>
	</g>
	<g data-postal="OH">
		<rect x="394.6" y="195" width="60" height="60"/>
		<text>OH</text>
	</g>
	<g data-postal="OK">
		<rect x="258.1" y="302" width="37" height="37"/>
		<text>OK</text>
	</g>
	<g data-postal="OR">
		<rect x="76.6" y="189" width="37" height="37"/>
		<text>OR</text>
	</g>
	<g data-postal="PA">
		<rect x="459.6" y="156" width="63" height="63"/>
		<text>PA</text>
	</g>
	<g data-postal="RI">
		<rect x="675.6" y="137" width="28" height="28"/>
		<text>RI</text>
	</g>
	<g data-postal="SC">
		<rect x="444.6" y="313.5" width="42" height="42"/>
		<text>SC</text>
	</g>
	<g data-postal="SD">
		<rect x="197.6" y="163" width="24" height="24"/>
		<text>SD</text>
	</g>
	<g data-postal="TN">
		<rect x="375.1" y="309.5" width="46" height="46"/>
		<text>TN</text>
	</g>
	<g data-postal="TX">
		<rect x="221.6" y="344" width="87" height="87"/>
		<text>TX</text>
	</g>
	<g data-postal="UT">
		<rect x="158.6" y="269" width="34" height="34"/>
		<text>UT</text>
	</g>
	<g data-postal="VT">
		<rect x="633.6" y="57" width="24" height="24"/>
		<text>VT</text>
	</g>
	<g data-postal="VA">
		<rect x="495.6" y="224" width="50" height="50"/>
		<text>VA</text>
	</g>
	<g data-postal="WA">
		<rect x="65.6" y="134" width="48" height="48"/>
		<text>WA</text>
	</g>
	<g data-postal="WV">
		<rect x="459.6" y="224" width="31" height="31"/>
		<text>WV</text>
	</g>
	<g data-postal="WI">
		<rect x="275.6" y="146" width="44" height="44"/>
		<text>WI</text>
	</g>
	<g data-postal="WY">
		<rect x="168.6" y="202.0" width="24" height="24"/>
		<text>WY</text>
	</g>
</svg>
