<?xml version="1.0" encoding="utf-8"?>
<!-- Generator: Adobe Illustrator 24.0.1, SVG Export Plug-In . SVG Version: 6.00 Build 0)  -->
<svg version="1.1" id="Layer_1" xmlns="http://www.w3.org/2000/svg" xmlns:xlink="http://www.w3.org/1999/xlink" x="0px" y="0px"
	 viewBox="0 0 359 42" style="enable-background:new 0 0 359 42;" xml:space="preserve">
<style type="text/css">
	.st0{fill:#D62021;}
	.st1{fill:#237BBD;}
</style>
<g>
	<path class="st0" d="M89.8,39.9V1.6h13.1l-0.1,28.5h15.9v9.8H89.8z"/>
	<path class="st0" d="M188.5,40.5c-17.2,0-20.4-10.2-20.4-19.7S171.3,1,188.5,1c14.9,0,19.9,7.7,19.9,16.7h-13
		c-0.7-5.6-2.6-7.4-7-7.4c-6.4,0-7.2,4.8-7.2,10.5s0.5,10.5,7.2,10.5c4.4,0,6.2-1.9,7-7.6h13C208.5,33.1,203.5,40.5,188.5,40.5z"/>
	<path class="st0" d="M233.5,10.8v29.1h-12.8V10.8h-10.2V1.6h33.3v9.2H233.5z"/>
	<path class="st0" d="M248.7,39.9V1.6h13v38.3H248.7z"/>
	<path class="st0" d="M289,40.5c-17.6,0-21-10.1-21-19.7S271.4,1,289,1c17.6,0,21,10.1,21,19.8C310,30.4,306.6,40.5,289,40.5z
		 M289,10.3c-7.4,0-7.8,4.8-7.8,10.5s0.5,10.5,7.8,10.5c7.4,0,7.8-4.8,7.8-10.5C296.8,15.1,296.4,10.3,289,10.3z"/>
	<path class="st0" d="M341.5,39.9l-13.2-20.7v20.7h-13.1V1.6h14.9l12.8,21.2V1.6H356v38.3H341.5z"/>
	<rect x="123.6" y="29.9" class="st0" width="39.2" height="10"/>
	
		<rect x="109.5" y="15.1" transform="matrix(6.123234e-17 -1 1 6.123234e-17 107.9102 149.406)" class="st0" width="38.3" height="11.3"/>
	<rect x="123.6" y="1.4" class="st0" width="39.2" height="10"/>
	<rect x="123.6" y="15.6" class="st0" width="32.6" height="10"/>
	<rect x="45.6" y="29.9" class="st0" width="39.2" height="10"/>
	<rect x="45.6" y="1.4" class="st0" width="39.2" height="10"/>
	<rect x="45.6" y="15.6" class="st0" width="39.2" height="10"/>
	<g>
		<path class="st1" d="M31.9,1c-9.5,0-10.6,5.6-10.6,9.8c0,4.6,1.2,9.8,10.6,9.8c9.6,0,10.7-5.6,10.7-9.8C42.5,6.6,41.4,1,31.9,1z
			 M34.6,11.2c0,1.6,0,2.9-0.6,3.5c-0.4,0.4-1.1,0.6-2,0.6c-1.6,0-2-0.5-2.3-1.1c-0.3-0.8-0.3-1.9-0.3-3.3v-0.4c0-1.3,0-2.5,0.3-3.2
			c0.2-0.5,0.7-1.1,2.3-1.1c1,0,1.6,0.2,2,0.6c0.7,0.7,0.7,1.9,0.6,3.6l0,0.4L34.6,11.2z"/>
		<g>
			<path class="st1" d="M20.4,15.2H8.7c0.1-0.5,2.1-1.1,3.6-1.6c3.3-1,7.9-2.4,8.2-6c0.2-1.5-0.3-2.9-1.3-4C17.6,1.9,14.8,1,10.8,1
				C4.2,1,1.1,3.4,1.1,8.4v0.5h7.5V8.4C8.6,6.2,9.2,6,10.7,6c0.9,0,1.5,0.2,1.8,0.5c0.2,0.2,0.2,0.6,0.2,1c-0.1,0.8-1.9,1.3-3.7,1.8
				C5.6,10.3,1,11.6,1,16.2v4.4h19.4V15.2z"/>
		</g>
		<path class="st1" d="M31.9,21.4c-9.5,0-10.6,5.6-10.6,9.8c0,4.6,1.2,9.8,10.6,9.8c9.6,0,10.7-5.6,10.7-9.8
			C42.5,27,41.4,21.4,31.9,21.4z M34.6,31.6c0,1.6,0,2.9-0.6,3.5c-0.4,0.4-1.1,0.6-2,0.6c-1.6,0-2-0.5-2.3-1.1
			c-0.3-0.8-0.3-1.9-0.3-3.3V31c0-1.3,0-2.5,0.3-3.2c0.2-0.5,0.7-1.1,2.3-1.1c1,0,1.6,0.2,2,0.6c0.7,0.7,0.7,1.9,0.6,3.6l0,0.4
			L34.6,31.6z"/>
		<g>
			<path class="st1" d="M20.4,35.5H8.7c0.1-0.5,2.1-1.1,3.6-1.6c3.3-1,7.9-2.4,8.2-6c0.2-1.5-0.3-2.9-1.3-4
				c-1.6-1.7-4.4-2.6-8.4-2.6c-6.5,0-9.7,2.4-9.7,7.4v0.5h7.5v-0.5c0-2.1,0.7-2.4,2.1-2.4c0.9,0,1.5,0.2,1.8,0.5
				c0.2,0.2,0.2,0.6,0.2,1c-0.1,0.8-1.9,1.3-3.7,1.8C5.6,30.7,1,32,1,36.6v4.4h19.4V35.5z"/>
		</g>
	</g>
</g>
</svg>
